<?xml version="1.0" standalone="no"?>
<svg xmlns:xlink="http://www.w3.org/1999/xlink" xmlns="http://www.w3.org/2000/svg" class="topic-graph" style="width: 100em; height: 30em; text-align: center;"><rect width="0.9615384615384616em" height="0.8918504852439266em" x="0em" y="29.10814951475607em" fill="#aaa"/><rect width="0.9615384615384616em" height="1.4292255055734286em" x="0.9615384615384616em" y="28.570774494426573em" fill="#aaa"/><rect width="0.9615384615384616em" height="0.7665765264488209em" x="1.9230769230769231em" y="29.23342347355118em" fill="#aaa"/><rect width="0.9615384615384616em" height="4.6117982127302275em" x="2.8846153846153846em" y="25.38820178726977em" fill="#aaa"/><rect width="0.9615384615384616em" height="9.020600953446104em" x="3.8461538461538463em" y="20.979399046553894em" fill="#aaa"/><rect width="0.9615384615384616em" height="1.8467440757940001em" x="4.8076923076923075em" y="28.153255924206em" fill="#aaa"/><rect width="0.9615384615384616em" height="0.8890718550652933em" x="5.769230769230769em" y="29.110928144934707em" fill="#aaa"/><rect width="0.9615384615384616em" height="0.4787616477694972em" x="6.730769230769231em" y="29.5212383522305em" fill="#aaa"/><rect width="0.9615384615384616em" height="1.110484545534673em" x="7.6923076923076925em" y="28.889515454465325em" fill="#aaa"/><rect width="0.9615384615384616em" height="1.6988505920255192em" x="8.653846153846153em" y="28.30114940797448em" fill="#aaa"/><rect width="0.9615384615384616em" height="6.90596238413993em" x="9.615384615384615em" y="23.09403761586007em" fill="#aaa"/><rect width="0.9615384615384616em" height="2.057069756053784em" x="10.576923076923077em" y="27.942930243946215em" fill="#aaa"/><rect width="0.9615384615384616em" height="7.168773657573028em" x="11.538461538461538em" y="22.831226342426973em" fill="#aaa"/><rect width="0.9615384615384616em" height="2.654569708780495em" x="12.5em" y="27.345430291219504em" fill="#aaa"/><rect width="0.9615384615384616em" height="5.371109899123815em" x="13.461538461538462em" y="24.628890100876184em" fill="#aaa"/><rect width="0.9615384615384616em" height="5.165702433753593em" x="14.423076923076923em" y="24.834297566246406em" fill="#aaa"/><rect width="0.9615384615384616em" height="5.435467510636225em" x="15.384615384615385em" y="24.564532489363774em" fill="#aaa"/><rect width="0.9615384615384616em" height="5.33913983134698em" x="16.346153846153847em" y="24.66086016865302em" fill="#aaa"/><rect width="0.9615384615384616em" height="1.6260601289244871em" x="17.307692307692307em" y="28.373939871075514em" fill="#aaa"/><rect width="0.9615384615384616em" height="7.196713012094299em" x="18.26923076923077em" y="22.8032869879057em" fill="#aaa"/><rect width="0.9615384615384616em" height="1.5201622650261102em" x="19.23076923076923em" y="28.47983773497389em" fill="#aaa"/><rect width="0.9615384615384616em" height="5.441914794089206em" x="20.192307692307693em" y="24.558085205910793em" fill="#aaa"/><rect width="0.9615384615384616em" height="4.648348422301306em" x="21.153846153846153em" y="25.351651577698693em" fill="#aaa"/><rect width="0.9615384615384616em" height="5.064224852158149em" x="22.115384615384617em" y="24.935775147841852em" fill="#aaa"/><rect width="0.9615384615384616em" height="4.555911072156695em" x="23.076923076923077em" y="25.444088927843303em" fill="#aaa"/><rect width="0.9615384615384616em" height="3.6455132634845606em" x="24.03846153846154em" y="26.35448673651544em" fill="#aaa"/><rect width="0.9615384615384616em" height="5.018281045841085em" x="25em" y="24.981718954158914em" fill="#aaa"/><rect width="0.9615384615384616em" height="9.773161725422307em" x="25.961538461538463em" y="20.226838274577695em" fill="#aaa"/><rect width="0.9615384615384616em" height="2.912012567349429em" x="26.923076923076923em" y="27.08798743265057em" fill="#aaa"/><rect width="0.9615384615384616em" height="5.257763898377204em" x="27.884615384615387em" y="24.742236101622794em" fill="#aaa"/><rect width="0.9615384615384616em" height="6.856614915781806em" x="28.846153846153847em" y="23.143385084218195em" fill="#aaa"/><rect width="0.9615384615384616em" height="7.253192307248916em" x="29.80769230769231em" y="22.746807692751084em" fill="#aaa"/><rect width="0.9615384615384616em" height="7.097981931139821em" x="30.76923076923077em" y="22.90201806886018em" fill="#aaa"/><rect width="0.9615384615384616em" height="4.293793300222148em" x="31.73076923076923em" y="25.70620669977785em" fill="#aaa"/><rect width="0.9615384615384616em" height="5.647017870691763em" x="32.69230769230769em" y="24.352982129308238em" fill="#aaa"/><rect width="0.9615384615384616em" height="4.362591672325752em" x="33.65384615384615em" y="25.637408327674247em" fill="#aaa"/><rect width="0.9615384615384616em" height="4.512836610286772em" x="34.61538461538461em" y="25.487163389713228em" fill="#aaa"/><rect width="0.9615384615384616em" height="5.9896753304746175em" x="35.57692307692308em" y="24.01032466952538em" fill="#aaa"/><rect width="0.9615384615384616em" height="5.637972080460649em" x="36.53846153846154em" y="24.36202791953935em" fill="#aaa"/><rect width="0.9615384615384616em" height="7.196692064505684em" x="37.5em" y="22.803307935494317em" fill="#aaa"/><rect width="0.9615384615384616em" height="6.4371259842837745em" x="38.46153846153846em" y="23.562874015716226em" fill="#aaa"/><rect width="0.9615384615384616em" height="4.782576916331581em" x="39.42307692307693em" y="25.217423083668418em" fill="#aaa"/><rect width="0.9615384615384616em" height="3.881411954981396em" x="40.38461538461539em" y="26.118588045018605em" fill="#aaa"/><rect width="0.9615384615384616em" height="2.707592925192076em" x="41.34615384615385em" y="27.292407074807926em" fill="#aaa"/><rect width="0.9615384615384616em" height="5.07939623852033em" x="42.30769230769231em" y="24.92060376147967em" fill="#aaa"/><rect width="0.9615384615384616em" height="11.828598783888602em" x="43.269230769230774em" y="18.1714012161114em" fill="#aaa"/><rect width="0.9615384615384616em" height="4.867803600990718em" x="44.23076923076923em" y="25.13219639900928em" fill="#aaa"/><rect width="0.9615384615384616em" height="5.029378795750509em" x="45.19230769230769em" y="24.97062120424949em" fill="#aaa"/><rect width="0.9615384615384616em" height="4.514374570941415em" x="46.15384615384615em" y="25.485625429058587em" fill="#aaa"/><rect width="0.9615384615384616em" height="7.609249976528888em" x="47.11538461538461em" y="22.390750023471114em" fill="#aaa"/><rect width="0.9615384615384616em" height="3.0333319759808592em" x="48.07692307692308em" y="26.966668024019143em" fill="#aaa"/><rect width="0.9615384615384616em" height="10.060800682904272em" x="49.03846153846154em" y="19.939199317095728em" fill="#aaa"/><rect width="0.9615384615384616em" height="10.750660512723583em" x="50em" y="19.249339487276416em" fill="#aaa"/><rect width="0.9615384615384616em" height="2.3851428725844808em" x="50.96153846153846em" y="27.61485712741552em" fill="#aaa"/><rect width="0.9615384615384616em" height="7.15812755898479em" x="51.92307692307693em" y="22.84187244101521em" fill="#aaa"/><rect width="0.9615384615384616em" height="4.832942373107542em" x="52.88461538461539em" y="25.167057626892458em" fill="#aaa"/><rect width="0.9615384615384616em" height="3.695218607557093em" x="53.84615384615385em" y="26.304781392442905em" fill="#aaa"/><rect width="0.9615384615384616em" height="4.7027469306725855em" x="54.80769230769231em" y="25.297253069327414em" fill="#aaa"/><rect width="0.9615384615384616em" height="10.189447706205854em" x="55.769230769230774em" y="19.810552293794146em" fill="#aaa"/><rect width="0.9615384615384616em" height="3.9599069174140746em" x="56.73076923076923em" y="26.040093082585926em" fill="#aaa"/><rect width="0.9615384615384616em" height="4.9327112258267665em" x="57.69230769230769em" y="25.067288774173235em" fill="#aaa"/><rect width="0.9615384615384616em" height="5.221979714142716em" x="58.65384615384615em" y="24.778020285857284em" fill="#aaa"/><rect width="0.9615384615384616em" height="8.319900497940978em" x="59.61538461538462em" y="21.680099502059022em" fill="#aaa"/><rect width="0.9615384615384616em" height="7.935074715386132em" x="60.57692307692308em" y="22.064925284613867em" fill="#aaa"/><rect width="0.9615384615384616em" height="13.80676250060357em" x="61.53846153846154em" y="16.19323749939643em" fill="#aaa"/><rect width="0.9615384615384616em" height="17.43932355512239em" x="62.5em" y="12.560676444877611em" fill="#aaa"/><rect width="0.9615384615384616em" height="10.436113577125832em" x="63.46153846153846em" y="19.56388642287417em" fill="#aaa"/><rect width="0.9615384615384616em" height="13.075303629914531em" x="64.42307692307692em" y="16.92469637008547em" fill="#aaa"/><rect width="0.9615384615384616em" height="13.399421980379689em" x="65.38461538461539em" y="16.60057801962031em" fill="#aaa"/><rect width="0.9615384615384616em" height="17.199154775941654em" x="66.34615384615385em" y="12.800845224058346em" fill="#aaa"/><rect width="0.9615384615384616em" height="20.889264342797567em" x="67.3076923076923em" y="9.110735657202433em" fill="#aaa"/><rect width="0.9615384615384616em" height="15.360311946591361em" x="68.26923076923077em" y="14.639688053408639em" fill="#aaa"/><rect width="0.9615384615384616em" height="10.810879704586718em" x="69.23076923076923em" y="19.189120295413282em" fill="#aaa"/><rect width="0.9615384615384616em" height="14.178413696750392em" x="70.1923076923077em" y="15.821586303249608em" fill="#aaa"/><rect width="0.9615384615384616em" height="11.087899885564052em" x="71.15384615384616em" y="18.912100114435948em" fill="#aaa"/><rect width="0.9615384615384616em" height="5.854868367766116em" x="72.11538461538461em" y="24.145131632233884em" fill="#aaa"/><rect width="0.9615384615384616em" height="7.883128953721709em" x="73.07692307692308em" y="22.11687104627829em" fill="#aaa"/><rect width="0.9615384615384616em" height="14.536361706827854em" x="74.03846153846155em" y="15.463638293172146em" fill="#aaa"/><rect width="0.9615384615384616em" height="13.811358687862365em" x="75em" y="16.188641312137634em" fill="#aaa"/><rect width="0.9615384615384616em" height="14.499983737098422em" x="75.96153846153847em" y="15.500016262901578em" fill="#aaa"/><rect width="0.9615384615384616em" height="10.25027770844471em" x="76.92307692307692em" y="19.74972229155529em" fill="#aaa"/><rect width="0.9615384615384616em" height="9.473399477278925em" x="77.88461538461539em" y="20.526600522721075em" fill="#aaa"/><rect width="0.9615384615384616em" height="14.044958286974502em" x="78.84615384615385em" y="15.955041713025498em" fill="#aaa"/><rect width="0.9615384615384616em" height="11.103038782523942em" x="79.8076923076923em" y="18.896961217476058em" fill="#aaa"/><rect width="0.9615384615384616em" height="15.597799520877212em" x="80.76923076923077em" y="14.402200479122788em" fill="#aaa"/><rect width="0.9615384615384616em" height="11.387960548288467em" x="81.73076923076923em" y="18.61203945171153em" fill="#aaa"/><rect width="0.9615384615384616em" height="13.124739669025285em" x="82.6923076923077em" y="16.875260330974715em" fill="#aaa"/><rect width="0.9615384615384616em" height="11.459951731238842em" x="83.65384615384616em" y="18.540048268761158em" fill="#aaa"/><rect width="0.9615384615384616em" height="11.90578402801973em" x="84.61538461538461em" y="18.09421597198027em" fill="#aaa"/><rect width="0.9615384615384616em" height="13.147073731627948em" x="85.57692307692308em" y="16.85292626837205em" fill="#aaa"/><rect width="0.9615384615384616em" height="11.9244440915607em" x="86.53846153846155em" y="18.0755559084393em" fill="#aaa"/><rect width="0.9615384615384616em" height="10.579510052069852em" x="87.5em" y="19.42048994793015em" fill="#aaa"/><rect width="0.9615384615384616em" height="14.953988481525727em" x="88.46153846153847em" y="15.046011518474273em" fill="#aaa"/><rect width="0.9615384615384616em" height="10.825266809986982em" x="89.42307692307692em" y="19.17473319001302em" fill="#aaa"/><rect width="0.9615384615384616em" height="14.867263944365956em" x="90.38461538461539em" y="15.132736055634044em" fill="#aaa"/><rect width="0.9615384615384616em" height="9.559066647931076em" x="91.34615384615385em" y="20.440933352068924em" fill="#aaa"/><rect width="0.9615384615384616em" height="16.717680969938314em" x="92.3076923076923em" y="13.282319030061686em" fill="#aaa"/><rect width="0.9615384615384616em" height="13.928843122449079em" x="93.26923076923077em" y="16.07115687755092em" fill="#aaa"/><rect width="0.9615384615384616em" height="10.31295433146813em" x="94.23076923076923em" y="19.68704566853187em" fill="#aaa"/><rect width="0.9615384615384616em" height="16.594947673654833em" x="95.1923076923077em" y="13.405052326345167em" fill="#aaa"/><rect width="0.9615384615384616em" height="24.134278510926286em" x="96.15384615384616em" y="5.865721489073714em" fill="#aaa"/><rect width="0.9615384615384616em" height="13.912597196698268em" x="97.11538461538461em" y="16.087402803301732em" fill="#aaa"/><rect width="0.9615384615384616em" height="22.835240854186154em" x="98.07692307692308em" y="7.164759145813846em" fill="#aaa"/><rect width="0.9615384615384616em" height="30em" x="99.03846153846155em" y="0em" fill="#aaa"/></svg>