<?xml version="1.0" standalone="no"?>
<svg xmlns:xlink="http://www.w3.org/1999/xlink" xmlns="http://www.w3.org/2000/svg" class="topic-graph" style="width: 10vw; height: 3em; text-align: center;"><rect width="0.09615384615384616em" height="0.23920823307065436em" x="0vw" y="2.7607917669293456em" fill="#aaa"/><rect width="0.09615384615384616em" height="0.06890256542024041em" x="0.09615384615384616vw" y="2.9310974345797596em" fill="#aaa"/><rect width="0.09615384615384616em" height="0.07151301354639514em" x="0.19230769230769232vw" y="2.928486986453605em" fill="#aaa"/><rect width="0.09615384615384616em" height="0.03307600479030639em" x="0.2884615384615385vw" y="2.9669239952096937em" fill="#aaa"/><rect width="0.09615384615384616em" height="0.20382413743029287em" x="0.38461538461538464vw" y="2.796175862569707em" fill="#aaa"/><rect width="0.09615384615384616em" height="1.0746594583806612em" x="0.4807692307692308vw" y="1.9253405416193388em" fill="#aaa"/><rect width="0.09615384615384616em" height="0.5823545134442182em" x="0.576923076923077vw" y="2.4176454865557817em" fill="#aaa"/><rect width="0.09615384615384616em" height="2.182475464625192em" x="0.6730769230769231vw" y="0.8175245353748082em" fill="#aaa"/><rect width="0.09615384615384616em" height="2.1551246408461444em" x="0.7692307692307693vw" y="0.8448753591538556em" fill="#aaa"/><rect width="0.09615384615384616em" height="2.137600401655448em" x="0.8653846153846154vw" y="0.862399598344552em" fill="#aaa"/><rect width="0.09615384615384616em" height="2.54639668559685em" x="0.9615384615384616vw" y="0.45360331440314994em" fill="#aaa"/><rect width="0.09615384615384616em" height="2.1473128861403437em" x="1.0576923076923077vw" y="0.8526871138596563em" fill="#aaa"/><rect width="0.09615384615384616em" height="1.7561924912863827em" x="1.153846153846154vw" y="1.2438075087136173em" fill="#aaa"/><rect width="0.09615384615384616em" height="1.857331016577925em" x="1.25vw" y="1.142668983422075em" fill="#aaa"/><rect width="0.09615384615384616em" height="2.2606445834812936em" x="1.3461538461538463vw" y="0.7393554165187064em" fill="#aaa"/><rect width="0.09615384615384616em" height="1.7840032656163514em" x="1.4423076923076923vw" y="1.2159967343836486em" fill="#aaa"/><rect width="0.09615384615384616em" height="1.9034275933218436em" x="1.5384615384615385vw" y="1.0965724066781564em" fill="#aaa"/><rect width="0.09615384615384616em" height="2.578179702062492em" x="1.6346153846153848vw" y="0.42182029793750786em" fill="#aaa"/><rect width="0.09615384615384616em" height="1.7088651118189997em" x="1.7307692307692308vw" y="1.2911348881810003em" fill="#aaa"/><rect width="0.09615384615384616em" height="1.760006661337679em" x="1.826923076923077vw" y="1.239993338662321em" fill="#aaa"/><rect width="0.09615384615384616em" height="0.5546228269991347em" x="1.9230769230769231vw" y="2.4453771730008653em" fill="#aaa"/><rect width="0.09615384615384616em" height="2.080152991110628em" x="2.019230769230769vw" y="0.9198470088893722em" fill="#aaa"/><rect width="0.09615384615384616em" height="1.5040223083838904em" x="2.1153846153846154vw" y="1.4959776916161096em" fill="#aaa"/><rect width="0.09615384615384616em" height="1.6335447582467282em" x="2.2115384615384617vw" y="1.3664552417532718em" fill="#aaa"/><rect width="0.09615384615384616em" height="1.5320814789965205em" x="2.307692307692308vw" y="1.4679185210034795em" fill="#aaa"/><rect width="0.09615384615384616em" height="2.1586541580648237em" x="2.403846153846154vw" y="0.8413458419351763em" fill="#aaa"/><rect width="0.09615384615384616em" height="0.5120076583463025em" x="2.5vw" y="2.4879923416536975em" fill="#aaa"/><rect width="0.09615384615384616em" height="2.6727560970823676em" x="2.5961538461538463vw" y="0.3272439029176324em" fill="#aaa"/><rect width="0.09615384615384616em" height="1.9615716667790124em" x="2.6923076923076925vw" y="1.0384283332209876em" fill="#aaa"/><rect width="0.09615384615384616em" height="3em" x="2.7884615384615388vw" y="0em" fill="#aaa"/><rect width="0.09615384615384616em" height="0.4683749700836639em" x="2.8846153846153846vw" y="2.531625029916336em" fill="#aaa"/><rect width="0.09615384615384616em" height="0.35068774373346223em" x="2.980769230769231vw" y="2.649312256266538em" fill="#aaa"/><rect width="0.09615384615384616em" height="2.403784193485642em" x="3.076923076923077vw" y="0.5962158065143579em" fill="#aaa"/><rect width="0.09615384615384616em" height="0.5102465164710058em" x="3.1730769230769234vw" y="2.489753483528994em" fill="#aaa"/><rect width="0.09615384615384616em" height="0.726572460841075em" x="3.2692307692307696vw" y="2.273427539158925em" fill="#aaa"/><rect width="0.09615384615384616em" height="1.666102628298122em" x="3.3653846153846154vw" y="1.333897371701878em" fill="#aaa"/><rect width="0.09615384615384616em" height="2.0431354662089416em" x="3.4615384615384617vw" y="0.9568645337910584em" fill="#aaa"/><rect width="0.09615384615384616em" height="0.9200229602546552em" x="3.557692307692308vw" y="2.0799770397453448em" fill="#aaa"/><rect width="0.09615384615384616em" height="0.5631645910772618em" x="3.653846153846154vw" y="2.436835408922738em" fill="#aaa"/><rect width="0.09615384615384616em" height="0.8348284839067495em" x="3.75vw" y="2.1651715160932508em" fill="#aaa"/><rect width="0.09615384615384616em" height="0.5551424051446752em" x="3.8461538461538463vw" y="2.444857594855325em" fill="#aaa"/><rect width="0.09615384615384616em" height="0.29494231059607867em" x="3.9423076923076925vw" y="2.7050576894039216em" fill="#aaa"/><rect width="0.09615384615384616em" height="0.7711295724275142em" x="4.038461538461538vw" y="2.2288704275724855em" fill="#aaa"/><rect width="0.09615384615384616em" height="0.7925781834454373em" x="4.134615384615385vw" y="2.2074218165545627em" fill="#aaa"/><rect width="0.09615384615384616em" height="0.5035597007033614em" x="4.230769230769231vw" y="2.496440299296639em" fill="#aaa"/><rect width="0.09615384615384616em" height="0.3292858190219374em" x="4.3269230769230775vw" y="2.6707141809780626em" fill="#aaa"/><rect width="0.09615384615384616em" height="0.2998892295144576em" x="4.423076923076923vw" y="2.7001107704855425em" fill="#aaa"/><rect width="0.09615384615384616em" height="0.19226102771486933em" x="4.519230769230769vw" y="2.8077389722851307em" fill="#aaa"/><rect width="0.09615384615384616em" height="0.36652726697486654em" x="4.615384615384616vw" y="2.6334727330251333em" fill="#aaa"/><rect width="0.09615384615384616em" height="0.34494823746643394em" x="4.711538461538462vw" y="2.655051762533566em" fill="#aaa"/><rect width="0.09615384615384616em" height="0.25621736658663374em" x="4.807692307692308vw" y="2.743782633413366em" fill="#aaa"/><rect width="0.09615384615384616em" height="0.7877264566629549em" x="4.903846153846154vw" y="2.2122735433370453em" fill="#aaa"/><rect width="0.09615384615384616em" height="0.30018671699367705em" x="5vw" y="2.699813283006323em" fill="#aaa"/><rect width="0.09615384615384616em" height="0.48265289797076233em" x="5.096153846153847vw" y="2.5173471020292375em" fill="#aaa"/><rect width="0.09615384615384616em" height="0.31686266316519973em" x="5.1923076923076925vw" y="2.6831373368348004em" fill="#aaa"/><rect width="0.09615384615384616em" height="0.3561421870186389em" x="5.288461538461538vw" y="2.643857812981361em" fill="#aaa"/><rect width="0.09615384615384616em" height="0.7230193483703851em" x="5.384615384615385vw" y="2.276980651629615em" fill="#aaa"/><rect width="0.09615384615384616em" height="0.3075620862568875em" x="5.480769230769231vw" y="2.6924379137431123em" fill="#aaa"/><rect width="0.09615384615384616em" height="0.5790271040436596em" x="5.5769230769230775vw" y="2.42097289595634em" fill="#aaa"/><rect width="0.09615384615384616em" height="1.2067558535721659em" x="5.673076923076923vw" y="1.7932441464278341em" fill="#aaa"/><rect width="0.09615384615384616em" height="0.2772435811756044em" x="5.769230769230769vw" y="2.7227564188243956em" fill="#aaa"/><rect width="0.09615384615384616em" height="0.8130356185709682em" x="5.865384615384616vw" y="2.186964381429032em" fill="#aaa"/><rect width="0.09615384615384616em" height="0.6816010741507148em" x="5.961538461538462vw" y="2.3183989258492854em" fill="#aaa"/><rect width="0.09615384615384616em" height="0.41198259682355565em" x="6.057692307692308vw" y="2.5880174031764445em" fill="#aaa"/><rect width="0.09615384615384616em" height="0.7236692017951083em" x="6.153846153846154vw" y="2.2763307982048917em" fill="#aaa"/><rect width="0.09615384615384616em" height="0.5614471439092283em" x="6.25vw" y="2.4385528560907717em" fill="#aaa"/><rect width="0.09615384615384616em" height="0.22860471058231713em" x="6.346153846153847vw" y="2.7713952894176828em" fill="#aaa"/><rect width="0.09615384615384616em" height="0.2610007282917981em" x="6.4423076923076925vw" y="2.738999271708202em" fill="#aaa"/><rect width="0.09615384615384616em" height="0.4242309413168074em" x="6.538461538461539vw" y="2.5757690586831927em" fill="#aaa"/><rect width="0.09615384615384616em" height="0.5623764281690034em" x="6.634615384615385vw" y="2.4376235718309966em" fill="#aaa"/><rect width="0.09615384615384616em" height="0.38203881391974004em" x="6.730769230769231vw" y="2.61796118608026em" fill="#aaa"/><rect width="0.09615384615384616em" height="0.596354077932278em" x="6.8269230769230775vw" y="2.4036459220677218em" fill="#aaa"/><rect width="0.09615384615384616em" height="0.3918576996433907em" x="6.923076923076923vw" y="2.6081423003566093em" fill="#aaa"/><rect width="0.09615384615384616em" height="0.36384726080915697em" x="7.01923076923077vw" y="2.636152739190843em" fill="#aaa"/><rect width="0.09615384615384616em" height="0.29936702139031696em" x="7.115384615384616vw" y="2.700632978609683em" fill="#aaa"/><rect width="0.09615384615384616em" height="0.15525263854835367em" x="7.211538461538462vw" y="2.8447473614516463em" fill="#aaa"/><rect width="0.09615384615384616em" height="0.26158862309169834em" x="7.307692307692308vw" y="2.7384113769083016em" fill="#aaa"/><rect width="0.09615384615384616em" height="0.18099143958622302em" x="7.403846153846154vw" y="2.819008560413777em" fill="#aaa"/><rect width="0.09615384615384616em" height="0.16174800270845557em" x="7.5vw" y="2.8382519972915445em" fill="#aaa"/><rect width="0.09615384615384616em" height="0.23592273666498925em" x="7.596153846153847vw" y="2.7640772633350106em" fill="#aaa"/><rect width="0.09615384615384616em" height="0.18927450486694283em" x="7.6923076923076925vw" y="2.8107254951330574em" fill="#aaa"/><rect width="0.09615384615384616em" height="0.15968650115234645em" x="7.788461538461539vw" y="2.8403134988476535em" fill="#aaa"/><rect width="0.09615384615384616em" height="0.17832675753411967em" x="7.884615384615385vw" y="2.8216732424658804em" fill="#aaa"/><rect width="0.09615384615384616em" height="0.24004587342874076em" x="7.980769230769231vw" y="2.7599541265712593em" fill="#aaa"/><rect width="0.09615384615384616em" height="0.2516886319684218em" x="8.076923076923077vw" y="2.7483113680315783em" fill="#aaa"/><rect width="0.09615384615384616em" height="0.2575652968898768em" x="8.173076923076923vw" y="2.7424347031101233em" fill="#aaa"/><rect width="0.09615384615384616em" height="0.18526770657545577em" x="8.26923076923077vw" y="2.8147322934245445em" fill="#aaa"/><rect width="0.09615384615384616em" height="0.20918922694058711em" x="8.365384615384615vw" y="2.790810773059413em" fill="#aaa"/><rect width="0.09615384615384616em" height="0.08563831148397609em" x="8.461538461538462vw" y="2.9143616885160237em" fill="#aaa"/><rect width="0.09615384615384616em" height="0.15163479239281147em" x="8.557692307692308vw" y="2.8483652076071886em" fill="#aaa"/><rect width="0.09615384615384616em" height="0.13368962029730713em" x="8.653846153846155vw" y="2.8663103797026928em" fill="#aaa"/><rect width="0.09615384615384616em" height="0.2311005108663463em" x="8.75vw" y="2.768899489133654em" fill="#aaa"/><rect width="0.09615384615384616em" height="0.21377212551872404em" x="8.846153846153847vw" y="2.786227874481276em" fill="#aaa"/><rect width="0.09615384615384616em" height="0.14635268376991573em" x="8.942307692307693vw" y="2.8536473162300844em" fill="#aaa"/><rect width="0.09615384615384616em" height="0.15448351070095223em" x="9.038461538461538vw" y="2.845516489299048em" fill="#aaa"/><rect width="0.09615384615384616em" height="0.15916872288947415em" x="9.134615384615385vw" y="2.8408312771105257em" fill="#aaa"/><rect width="0.09615384615384616em" height="0.2667305861390632em" x="9.230769230769232vw" y="2.7332694138609366em" fill="#aaa"/><rect width="0.09615384615384616em" height="0.18636889882384833em" x="9.326923076923077vw" y="2.813631101176152em" fill="#aaa"/><rect width="0.09615384615384616em" height="0.24090013319305503em" x="9.423076923076923vw" y="2.759099866806945em" fill="#aaa"/><rect width="0.09615384615384616em" height="0.1518191723608455em" x="9.51923076923077vw" y="2.8481808276391547em" fill="#aaa"/><rect width="0.09615384615384616em" height="0.2356515904641968em" x="9.615384615384617vw" y="2.764348409535803em" fill="#aaa"/><rect width="0.09615384615384616em" height="0.19559995407020886em" x="9.711538461538462vw" y="2.8044000459297913em" fill="#aaa"/><rect width="0.09615384615384616em" height="0.30420915365758566em" x="9.807692307692308vw" y="2.6957908463424145em" fill="#aaa"/><rect width="0.09615384615384616em" height="0.20256068024355145em" x="9.903846153846155vw" y="2.7974393197564487em" fill="#aaa"/></svg>