<?xml version="1.0" standalone="no"?>
<svg xmlns:xlink="http://www.w3.org/1999/xlink" xmlns="http://www.w3.org/2000/svg" class="topic-graph" style="width: 100em; height: 30em; text-align: center;"><rect width="0.9615384615384616em" height="16.634044331115152em" x="0em" y="13.365955668884848em" fill="#aaa"/><rect width="0.9615384615384616em" height="9.619403233192168em" x="0.9615384615384616em" y="20.380596766807834em" fill="#aaa"/><rect width="0.9615384615384616em" height="20.770552728995774em" x="1.9230769230769231em" y="9.229447271004226em" fill="#aaa"/><rect width="0.9615384615384616em" height="24.28027433967922em" x="2.8846153846153846em" y="5.71972566032078em" fill="#aaa"/><rect width="0.9615384615384616em" height="14.786182561918446em" x="3.8461538461538463em" y="15.213817438081554em" fill="#aaa"/><rect width="0.9615384615384616em" height="28.817924004071127em" x="4.8076923076923075em" y="1.182075995928873em" fill="#aaa"/><rect width="0.9615384615384616em" height="18.892682426999016em" x="5.769230769230769em" y="11.107317573000984em" fill="#aaa"/><rect width="0.9615384615384616em" height="16.867518291277634em" x="6.730769230769231em" y="13.132481708722366em" fill="#aaa"/><rect width="0.9615384615384616em" height="21.97595051375735em" x="7.6923076923076925em" y="8.02404948624265em" fill="#aaa"/><rect width="0.9615384615384616em" height="18.42689125572867em" x="8.653846153846153em" y="11.57310874427133em" fill="#aaa"/><rect width="0.9615384615384616em" height="30em" x="9.615384615384615em" y="0em" fill="#aaa"/><rect width="0.9615384615384616em" height="11.384621196629782em" x="10.576923076923077em" y="18.61537880337022em" fill="#aaa"/><rect width="0.9615384615384616em" height="18.09048675762489em" x="11.538461538461538em" y="11.909513242375109em" fill="#aaa"/><rect width="0.9615384615384616em" height="18.0973843511785em" x="12.5em" y="11.902615648821499em" fill="#aaa"/><rect width="0.9615384615384616em" height="13.547092684045182em" x="13.461538461538462em" y="16.452907315954818em" fill="#aaa"/><rect width="0.9615384615384616em" height="20.338792423146476em" x="14.423076923076923em" y="9.661207576853524em" fill="#aaa"/><rect width="0.9615384615384616em" height="14.130350297946846em" x="15.384615384615385em" y="15.869649702053154em" fill="#aaa"/><rect width="0.9615384615384616em" height="12.634433579095903em" x="16.346153846153847em" y="17.365566420904095em" fill="#aaa"/><rect width="0.9615384615384616em" height="14.223121391391118em" x="17.307692307692307em" y="15.776878608608882em" fill="#aaa"/><rect width="0.9615384615384616em" height="11.038262736775275em" x="18.26923076923077em" y="18.961737263224727em" fill="#aaa"/><rect width="0.9615384615384616em" height="16.26406644609789em" x="19.23076923076923em" y="13.735933553902111em" fill="#aaa"/><rect width="0.9615384615384616em" height="13.088371163883584em" x="20.192307692307693em" y="16.911628836116414em" fill="#aaa"/><rect width="0.9615384615384616em" height="14.21945946070356em" x="21.153846153846153em" y="15.78054053929644em" fill="#aaa"/><rect width="0.9615384615384616em" height="13.400252703840096em" x="22.115384615384617em" y="16.599747296159904em" fill="#aaa"/><rect width="0.9615384615384616em" height="19.914438504321925em" x="23.076923076923077em" y="10.085561495678075em" fill="#aaa"/><rect width="0.9615384615384616em" height="9.063703339382291em" x="24.03846153846154em" y="20.936296660617707em" fill="#aaa"/><rect width="0.9615384615384616em" height="8.813014639106822em" x="25em" y="21.18698536089318em" fill="#aaa"/><rect width="0.9615384615384616em" height="11.683055531551995em" x="25.961538461538463em" y="18.316944468448007em" fill="#aaa"/><rect width="0.9615384615384616em" height="14.942153495317166em" x="26.923076923076923em" y="15.057846504682834em" fill="#aaa"/><rect width="0.9615384615384616em" height="7.782526123332629em" x="27.884615384615387em" y="22.21747387666737em" fill="#aaa"/><rect width="0.9615384615384616em" height="13.753702780896301em" x="28.846153846153847em" y="16.2462972191037em" fill="#aaa"/><rect width="0.9615384615384616em" height="14.447831719671084em" x="29.80769230769231em" y="15.552168280328916em" fill="#aaa"/><rect width="0.9615384615384616em" height="11.289883345825851em" x="30.76923076923077em" y="18.71011665417415em" fill="#aaa"/><rect width="0.9615384615384616em" height="12.796836963855881em" x="31.73076923076923em" y="17.20316303614412em" fill="#aaa"/><rect width="0.9615384615384616em" height="10.49448753420982em" x="32.69230769230769em" y="19.50551246579018em" fill="#aaa"/><rect width="0.9615384615384616em" height="12.725077059393668em" x="33.65384615384615em" y="17.27492294060633em" fill="#aaa"/><rect width="0.9615384615384616em" height="7.887608171010391em" x="34.61538461538461em" y="22.112391828989608em" fill="#aaa"/><rect width="0.9615384615384616em" height="9.453618758526584em" x="35.57692307692308em" y="20.546381241473416em" fill="#aaa"/><rect width="0.9615384615384616em" height="10.609714558250653em" x="36.53846153846154em" y="19.39028544174935em" fill="#aaa"/><rect width="0.9615384615384616em" height="10.089660344143516em" x="37.5em" y="19.910339655856482em" fill="#aaa"/><rect width="0.9615384615384616em" height="14.190218392096362em" x="38.46153846153846em" y="15.809781607903638em" fill="#aaa"/><rect width="0.9615384615384616em" height="11.606166809359435em" x="39.42307692307693em" y="18.393833190640564em" fill="#aaa"/><rect width="0.9615384615384616em" height="12.696280623125956em" x="40.38461538461539em" y="17.303719376874042em" fill="#aaa"/><rect width="0.9615384615384616em" height="10.375054828434862em" x="41.34615384615385em" y="19.624945171565138em" fill="#aaa"/><rect width="0.9615384615384616em" height="10.868527276890434em" x="42.30769230769231em" y="19.131472723109567em" fill="#aaa"/><rect width="0.9615384615384616em" height="11.984712282664075em" x="43.269230769230774em" y="18.015287717335923em" fill="#aaa"/><rect width="0.9615384615384616em" height="10.993248823415028em" x="44.23076923076923em" y="19.00675117658497em" fill="#aaa"/><rect width="0.9615384615384616em" height="12.550643348329228em" x="45.19230769230769em" y="17.449356651670772em" fill="#aaa"/><rect width="0.9615384615384616em" height="11.292519883370812em" x="46.15384615384615em" y="18.70748011662919em" fill="#aaa"/><rect width="0.9615384615384616em" height="13.996810168497827em" x="47.11538461538461em" y="16.003189831502173em" fill="#aaa"/><rect width="0.9615384615384616em" height="13.592812531829784em" x="48.07692307692308em" y="16.407187468170214em" fill="#aaa"/><rect width="0.9615384615384616em" height="10.664573086899324em" x="49.03846153846154em" y="19.335426913100676em" fill="#aaa"/><rect width="0.9615384615384616em" height="9.870257056722709em" x="50em" y="20.129742943277293em" fill="#aaa"/><rect width="0.9615384615384616em" height="11.589502987105233em" x="50.96153846153846em" y="18.410497012894766em" fill="#aaa"/><rect width="0.9615384615384616em" height="9.018048980280156em" x="51.92307692307693em" y="20.981951019719844em" fill="#aaa"/><rect width="0.9615384615384616em" height="13.078109039206426em" x="52.88461538461539em" y="16.921890960793576em" fill="#aaa"/><rect width="0.9615384615384616em" height="7.724724769021975em" x="53.84615384615385em" y="22.275275230978025em" fill="#aaa"/><rect width="0.9615384615384616em" height="9.433888658266337em" x="54.80769230769231em" y="20.566111341733663em" fill="#aaa"/><rect width="0.9615384615384616em" height="9.76606841750401em" x="55.769230769230774em" y="20.23393158249599em" fill="#aaa"/><rect width="0.9615384615384616em" height="8.647221200720168em" x="56.73076923076923em" y="21.352778799279832em" fill="#aaa"/><rect width="0.9615384615384616em" height="9.666184649442577em" x="57.69230769230769em" y="20.333815350557423em" fill="#aaa"/><rect width="0.9615384615384616em" height="11.124188543668039em" x="58.65384615384615em" y="18.87581145633196em" fill="#aaa"/><rect width="0.9615384615384616em" height="9.822817567032908em" x="59.61538461538462em" y="20.177182432967093em" fill="#aaa"/><rect width="0.9615384615384616em" height="9.848610527582855em" x="60.57692307692308em" y="20.151389472417144em" fill="#aaa"/><rect width="0.9615384615384616em" height="9.533348686287585em" x="61.53846153846154em" y="20.466651313712415em" fill="#aaa"/><rect width="0.9615384615384616em" height="10.482930955198729em" x="62.5em" y="19.51706904480127em" fill="#aaa"/><rect width="0.9615384615384616em" height="8.478585458710048em" x="63.46153846153846em" y="21.52141454128995em" fill="#aaa"/><rect width="0.9615384615384616em" height="7.296095001522451em" x="64.42307692307692em" y="22.703904998477547em" fill="#aaa"/><rect width="0.9615384615384616em" height="7.312718939463729em" x="65.38461538461539em" y="22.68728106053627em" fill="#aaa"/><rect width="0.9615384615384616em" height="6.796697929729655em" x="66.34615384615385em" y="23.203302070270347em" fill="#aaa"/><rect width="0.9615384615384616em" height="9.409275970500378em" x="67.3076923076923em" y="20.590724029499622em" fill="#aaa"/><rect width="0.9615384615384616em" height="6.33155344167421em" x="68.26923076923077em" y="23.66844655832579em" fill="#aaa"/><rect width="0.9615384615384616em" height="5.965958172728232em" x="69.23076923076923em" y="24.034041827271768em" fill="#aaa"/><rect width="0.9615384615384616em" height="6.100956246606523em" x="70.1923076923077em" y="23.899043753393478em" fill="#aaa"/><rect width="0.9615384615384616em" height="6.150296476051723em" x="71.15384615384616em" y="23.84970352394828em" fill="#aaa"/><rect width="0.9615384615384616em" height="6.648420714084288em" x="72.11538461538461em" y="23.35157928591571em" fill="#aaa"/><rect width="0.9615384615384616em" height="5.183928782583033em" x="73.07692307692308em" y="24.81607121741697em" fill="#aaa"/><rect width="0.9615384615384616em" height="5.51974983071744em" x="74.03846153846155em" y="24.48025016928256em" fill="#aaa"/><rect width="0.9615384615384616em" height="5.191699445571454em" x="75em" y="24.808300554428545em" fill="#aaa"/><rect width="0.9615384615384616em" height="3.678309186864019em" x="75.96153846153847em" y="26.32169081313598em" fill="#aaa"/><rect width="0.9615384615384616em" height="5.579997108355519em" x="76.92307692307692em" y="24.42000289164448em" fill="#aaa"/><rect width="0.9615384615384616em" height="4.541543207688926em" x="77.88461538461539em" y="25.458456792311075em" fill="#aaa"/><rect width="0.9615384615384616em" height="4.798252623933488em" x="78.84615384615385em" y="25.201747376066514em" fill="#aaa"/><rect width="0.9615384615384616em" height="5.038652641858881em" x="79.8076923076923em" y="24.96134735814112em" fill="#aaa"/><rect width="0.9615384615384616em" height="4.4077901477794em" x="80.76923076923077em" y="25.5922098522206em" fill="#aaa"/><rect width="0.9615384615384616em" height="4.173792974885378em" x="81.73076923076923em" y="25.82620702511462em" fill="#aaa"/><rect width="0.9615384615384616em" height="3.9598232163405407em" x="82.6923076923077em" y="26.040176783659458em" fill="#aaa"/><rect width="0.9615384615384616em" height="4.36725980225229em" x="83.65384615384616em" y="25.632740197747708em" fill="#aaa"/><rect width="0.9615384615384616em" height="5.573090577963831em" x="84.61538461538461em" y="24.426909422036168em" fill="#aaa"/><rect width="0.9615384615384616em" height="4.857561713134866em" x="85.57692307692308em" y="25.142438286865133em" fill="#aaa"/><rect width="0.9615384615384616em" height="5.1275875689496475em" x="86.53846153846155em" y="24.872412431050353em" fill="#aaa"/><rect width="0.9615384615384616em" height="5.287714717875167em" x="87.5em" y="24.71228528212483em" fill="#aaa"/><rect width="0.9615384615384616em" height="4.962887678758183em" x="88.46153846153847em" y="25.037112321241818em" fill="#aaa"/><rect width="0.9615384615384616em" height="5.287905825130591em" x="89.42307692307692em" y="24.71209417486941em" fill="#aaa"/><rect width="0.9615384615384616em" height="4.185959552947383em" x="90.38461538461539em" y="25.814040447052616em" fill="#aaa"/><rect width="0.9615384615384616em" height="4.723111233171101em" x="91.34615384615385em" y="25.276888766828897em" fill="#aaa"/><rect width="0.9615384615384616em" height="3.6020080750272694em" x="92.3076923076923em" y="26.39799192497273em" fill="#aaa"/><rect width="0.9615384615384616em" height="3.9924313334943426em" x="93.26923076923077em" y="26.00756866650566em" fill="#aaa"/><rect width="0.9615384615384616em" height="4.212883208672434em" x="94.23076923076923em" y="25.787116791327566em" fill="#aaa"/><rect width="0.9615384615384616em" height="4.070741150096811em" x="95.1923076923077em" y="25.92925884990319em" fill="#aaa"/><rect width="0.9615384615384616em" height="4.226838524370749em" x="96.15384615384616em" y="25.77316147562925em" fill="#aaa"/><rect width="0.9615384615384616em" height="4.00229762952301em" x="97.11538461538461em" y="25.99770237047699em" fill="#aaa"/><rect width="0.9615384615384616em" height="4.132214972348265em" x="98.07692307692308em" y="25.867785027651735em" fill="#aaa"/><rect width="0.9615384615384616em" height="4.296216898680761em" x="99.03846153846155em" y="25.70378310131924em" fill="#aaa"/></svg>