<?xml version="1.0" standalone="no"?>
<svg xmlns:xlink="http://www.w3.org/1999/xlink" xmlns="http://www.w3.org/2000/svg" class="topic-graph" style="width: 100em; height: 30em; text-align: center;"><rect width="0.9615384615384616em" height="0.5635472019711308em" x="0em" y="29.43645279802887em" fill="#aaa"/><rect width="0.9615384615384616em" height="1.8560894398407008em" x="0.9615384615384616em" y="28.1439105601593em" fill="#aaa"/><rect width="0.9615384615384616em" height="1.2457795272265582em" x="1.9230769230769231em" y="28.75422047277344em" fill="#aaa"/><rect width="0.9615384615384616em" height="1.2676818164784582em" x="2.8846153846153846em" y="28.732318183521542em" fill="#aaa"/><rect width="0.9615384615384616em" height="3.53198372208573em" x="3.8461538461538463em" y="26.46801627791427em" fill="#aaa"/><rect width="0.9615384615384616em" height="3.6812581376066604em" x="4.8076923076923075em" y="26.31874186239334em" fill="#aaa"/><rect width="0.9615384615384616em" height="3.590047465798404em" x="5.769230769230769em" y="26.409952534201597em" fill="#aaa"/><rect width="0.9615384615384616em" height="4.734397700176716em" x="6.730769230769231em" y="25.265602299823286em" fill="#aaa"/><rect width="0.9615384615384616em" height="1.9405225382495452em" x="7.6923076923076925em" y="28.059477461750454em" fill="#aaa"/><rect width="0.9615384615384616em" height="1.5376474001310743em" x="8.653846153846153em" y="28.462352599868925em" fill="#aaa"/><rect width="0.9615384615384616em" height="1.8012128595783385em" x="9.615384615384615em" y="28.19878714042166em" fill="#aaa"/><rect width="0.9615384615384616em" height="1.6062424904675472em" x="10.576923076923077em" y="28.393757509532453em" fill="#aaa"/><rect width="0.9615384615384616em" height="6.728835005336993em" x="11.538461538461538em" y="23.271164994663007em" fill="#aaa"/><rect width="0.9615384615384616em" height="8.18559980552361em" x="12.5em" y="21.81440019447639em" fill="#aaa"/><rect width="0.9615384615384616em" height="5.859821454899585em" x="13.461538461538462em" y="24.140178545100415em" fill="#aaa"/><rect width="0.9615384615384616em" height="3.460941440322503em" x="14.423076923076923em" y="26.539058559677496em" fill="#aaa"/><rect width="0.9615384615384616em" height="2.5613854065505164em" x="15.384615384615385em" y="27.438614593449483em" fill="#aaa"/><rect width="0.9615384615384616em" height="0.352495739452345em" x="16.346153846153847em" y="29.647504260547656em" fill="#aaa"/><rect width="0.9615384615384616em" height="6.489699623890823em" x="17.307692307692307em" y="23.51030037610918em" fill="#aaa"/><rect width="0.9615384615384616em" height="3.2541853555242644em" x="18.26923076923077em" y="26.745814644475736em" fill="#aaa"/><rect width="0.9615384615384616em" height="1.7064999241295202em" x="19.23076923076923em" y="28.29350007587048em" fill="#aaa"/><rect width="0.9615384615384616em" height="4.279864209926017em" x="20.192307692307693em" y="25.720135790073982em" fill="#aaa"/><rect width="0.9615384615384616em" height="2.1206615680027436em" x="21.153846153846153em" y="27.879338431997255em" fill="#aaa"/><rect width="0.9615384615384616em" height="1.7634559463841628em" x="22.115384615384617em" y="28.236544053615837em" fill="#aaa"/><rect width="0.9615384615384616em" height="4.863421613383188em" x="23.076923076923077em" y="25.13657838661681em" fill="#aaa"/><rect width="0.9615384615384616em" height="3.9962626136007993em" x="24.03846153846154em" y="26.0037373863992em" fill="#aaa"/><rect width="0.9615384615384616em" height="3.4573119368638627em" x="25em" y="26.542688063136136em" fill="#aaa"/><rect width="0.9615384615384616em" height="2.709996220268697em" x="25.961538461538463em" y="27.290003779731304em" fill="#aaa"/><rect width="0.9615384615384616em" height="5.253060135275103em" x="26.923076923076923em" y="24.746939864724897em" fill="#aaa"/><rect width="0.9615384615384616em" height="2.5936014594824033em" x="27.884615384615387em" y="27.406398540517596em" fill="#aaa"/><rect width="0.9615384615384616em" height="2.2675641947547165em" x="28.846153846153847em" y="27.732435805245284em" fill="#aaa"/><rect width="0.9615384615384616em" height="1.8120349659086408em" x="29.80769230769231em" y="28.18796503409136em" fill="#aaa"/><rect width="0.9615384615384616em" height="3.649842349764894em" x="30.76923076923077em" y="26.350157650235104em" fill="#aaa"/><rect width="0.9615384615384616em" height="6.78706192159913em" x="31.73076923076923em" y="23.21293807840087em" fill="#aaa"/><rect width="0.9615384615384616em" height="8.732306694894636em" x="32.69230769230769em" y="21.267693305105364em" fill="#aaa"/><rect width="0.9615384615384616em" height="6.354531526190949em" x="33.65384615384615em" y="23.64546847380905em" fill="#aaa"/><rect width="0.9615384615384616em" height="9.630548040809684em" x="34.61538461538461em" y="20.369451959190314em" fill="#aaa"/><rect width="0.9615384615384616em" height="8.12514386245388em" x="35.57692307692308em" y="21.874856137546118em" fill="#aaa"/><rect width="0.9615384615384616em" height="7.0619820970410885em" x="36.53846153846154em" y="22.93801790295891em" fill="#aaa"/><rect width="0.9615384615384616em" height="18.886933447205266em" x="37.5em" y="11.113066552794734em" fill="#aaa"/><rect width="0.9615384615384616em" height="9.149153732036407em" x="38.46153846153846em" y="20.850846267963593em" fill="#aaa"/><rect width="0.9615384615384616em" height="18.98061975033267em" x="39.42307692307693em" y="11.019380249667329em" fill="#aaa"/><rect width="0.9615384615384616em" height="6.857641227638007em" x="40.38461538461539em" y="23.142358772361995em" fill="#aaa"/><rect width="0.9615384615384616em" height="14.572286251515665em" x="41.34615384615385em" y="15.427713748484335em" fill="#aaa"/><rect width="0.9615384615384616em" height="8.876648443018244em" x="42.30769230769231em" y="21.123351556981756em" fill="#aaa"/><rect width="0.9615384615384616em" height="14.87361105164083em" x="43.269230769230774em" y="15.12638894835917em" fill="#aaa"/><rect width="0.9615384615384616em" height="15.317097082381036em" x="44.23076923076923em" y="14.682902917618964em" fill="#aaa"/><rect width="0.9615384615384616em" height="8.82746144879701em" x="45.19230769230769em" y="21.17253855120299em" fill="#aaa"/><rect width="0.9615384615384616em" height="11.921948558882479em" x="46.15384615384615em" y="18.078051441117523em" fill="#aaa"/><rect width="0.9615384615384616em" height="7.926480924847084em" x="47.11538461538461em" y="22.073519075152916em" fill="#aaa"/><rect width="0.9615384615384616em" height="16.22374188641671em" x="48.07692307692308em" y="13.776258113583289em" fill="#aaa"/><rect width="0.9615384615384616em" height="7.792685366899774em" x="49.03846153846154em" y="22.207314633100225em" fill="#aaa"/><rect width="0.9615384615384616em" height="10.88225581463118em" x="50em" y="19.11774418536882em" fill="#aaa"/><rect width="0.9615384615384616em" height="6.741068532623126em" x="50.96153846153846em" y="23.258931467376875em" fill="#aaa"/><rect width="0.9615384615384616em" height="4.489684047117861em" x="51.92307692307693em" y="25.510315952882138em" fill="#aaa"/><rect width="0.9615384615384616em" height="7.706700538072595em" x="52.88461538461539em" y="22.293299461927404em" fill="#aaa"/><rect width="0.9615384615384616em" height="18.81100768234369em" x="53.84615384615385em" y="11.18899231765631em" fill="#aaa"/><rect width="0.9615384615384616em" height="6.13746396971921em" x="54.80769230769231em" y="23.86253603028079em" fill="#aaa"/><rect width="0.9615384615384616em" height="7.996103380174176em" x="55.769230769230774em" y="22.003896619825824em" fill="#aaa"/><rect width="0.9615384615384616em" height="7.2827416743382685em" x="56.73076923076923em" y="22.71725832566173em" fill="#aaa"/><rect width="0.9615384615384616em" height="30em" x="57.69230769230769em" y="0em" fill="#aaa"/><rect width="0.9615384615384616em" height="24.021270317869526em" x="58.65384615384615em" y="5.978729682130474em" fill="#aaa"/><rect width="0.9615384615384616em" height="9.710305159068703em" x="59.61538461538462em" y="20.289694840931297em" fill="#aaa"/><rect width="0.9615384615384616em" height="12.70423342202695em" x="60.57692307692308em" y="17.295766577973048em" fill="#aaa"/><rect width="0.9615384615384616em" height="9.792078675263719em" x="61.53846153846154em" y="20.207921324736283em" fill="#aaa"/><rect width="0.9615384615384616em" height="8.043103098878623em" x="62.5em" y="21.956896901121375em" fill="#aaa"/><rect width="0.9615384615384616em" height="6.966646644141978em" x="63.46153846153846em" y="23.033353355858022em" fill="#aaa"/><rect width="0.9615384615384616em" height="5.634786791045693em" x="64.42307692307692em" y="24.36521320895431em" fill="#aaa"/><rect width="0.9615384615384616em" height="4.165420996545927em" x="65.38461538461539em" y="25.834579003454074em" fill="#aaa"/><rect width="0.9615384615384616em" height="17.093617544110394em" x="66.34615384615385em" y="12.906382455889606em" fill="#aaa"/><rect width="0.9615384615384616em" height="23.655035133309323em" x="67.3076923076923em" y="6.3449648666906775em" fill="#aaa"/><rect width="0.9615384615384616em" height="8.251512001715623em" x="68.26923076923077em" y="21.748487998284375em" fill="#aaa"/><rect width="0.9615384615384616em" height="10.572776659735496em" x="69.23076923076923em" y="19.427223340264504em" fill="#aaa"/><rect width="0.9615384615384616em" height="8.294250523240464em" x="70.1923076923077em" y="21.705749476759536em" fill="#aaa"/><rect width="0.9615384615384616em" height="9.959750741331641em" x="71.15384615384616em" y="20.04024925866836em" fill="#aaa"/><rect width="0.9615384615384616em" height="6.562143835094003em" x="72.11538461538461em" y="23.437856164905998em" fill="#aaa"/><rect width="0.9615384615384616em" height="8.751745812319307em" x="73.07692307692308em" y="21.248254187680693em" fill="#aaa"/><rect width="0.9615384615384616em" height="10.626924489441482em" x="74.03846153846155em" y="19.373075510558518em" fill="#aaa"/><rect width="0.9615384615384616em" height="8.51458318634168em" x="75em" y="21.48541681365832em" fill="#aaa"/><rect width="0.9615384615384616em" height="14.186139654170494em" x="75.96153846153847em" y="15.813860345829506em" fill="#aaa"/><rect width="0.9615384615384616em" height="16.52608815853135em" x="76.92307692307692em" y="13.473911841468649em" fill="#aaa"/><rect width="0.9615384615384616em" height="12.427578980189919em" x="77.88461538461539em" y="17.57242101981008em" fill="#aaa"/><rect width="0.9615384615384616em" height="10.6519026050742em" x="78.84615384615385em" y="19.3480973949258em" fill="#aaa"/><rect width="0.9615384615384616em" height="13.122780011985164em" x="79.8076923076923em" y="16.877219988014836em" fill="#aaa"/><rect width="0.9615384615384616em" height="8.952030191880526em" x="80.76923076923077em" y="21.047969808119475em" fill="#aaa"/><rect width="0.9615384615384616em" height="16.314816044681105em" x="81.73076923076923em" y="13.685183955318895em" fill="#aaa"/><rect width="0.9615384615384616em" height="13.461037233111961em" x="82.6923076923077em" y="16.53896276688804em" fill="#aaa"/><rect width="0.9615384615384616em" height="9.684928156240403em" x="83.65384615384616em" y="20.315071843759597em" fill="#aaa"/><rect width="0.9615384615384616em" height="7.6544360086759315em" x="84.61538461538461em" y="22.34556399132407em" fill="#aaa"/><rect width="0.9615384615384616em" height="13.125549682421733em" x="85.57692307692308em" y="16.874450317578265em" fill="#aaa"/><rect width="0.9615384615384616em" height="8.636766557515758em" x="86.53846153846155em" y="21.363233442484244em" fill="#aaa"/><rect width="0.9615384615384616em" height="11.592956494432721em" x="87.5em" y="18.40704350556728em" fill="#aaa"/><rect width="0.9615384615384616em" height="8.280829881588243em" x="88.46153846153847em" y="21.719170118411757em" fill="#aaa"/><rect width="0.9615384615384616em" height="5.753140272702583em" x="89.42307692307692em" y="24.246859727297416em" fill="#aaa"/><rect width="0.9615384615384616em" height="16.203017874392476em" x="90.38461538461539em" y="13.796982125607524em" fill="#aaa"/><rect width="0.9615384615384616em" height="13.324257080868827em" x="91.34615384615385em" y="16.675742919131174em" fill="#aaa"/><rect width="0.9615384615384616em" height="14.707664798614202em" x="92.3076923076923em" y="15.292335201385798em" fill="#aaa"/><rect width="0.9615384615384616em" height="10.143948940526766em" x="93.26923076923077em" y="19.856051059473234em" fill="#aaa"/><rect width="0.9615384615384616em" height="13.42328755531966em" x="94.23076923076923em" y="16.57671244468034em" fill="#aaa"/><rect width="0.9615384615384616em" height="7.341608138817697em" x="95.1923076923077em" y="22.658391861182302em" fill="#aaa"/><rect width="0.9615384615384616em" height="8.43820801129045em" x="96.15384615384616em" y="21.56179198870955em" fill="#aaa"/><rect width="0.9615384615384616em" height="10.652703777777704em" x="97.11538461538461em" y="19.347296222222298em" fill="#aaa"/><rect width="0.9615384615384616em" height="12.538783477304356em" x="98.07692307692308em" y="17.461216522695644em" fill="#aaa"/><rect width="0.9615384615384616em" height="10.894124853202488em" x="99.03846153846155em" y="19.105875146797512em" fill="#aaa"/></svg>