<?xml version="1.0" standalone="no"?>
<svg xmlns:xlink="http://www.w3.org/1999/xlink" xmlns="http://www.w3.org/2000/svg" class="topic-graph" style="width: 10vw; height: 3em; text-align: center;"><rect width="0.09615384615384616em" height="0.09727485395773686em" x="0vw" y="2.902725146042263em" fill="#aaa"/><rect width="0.09615384615384616em" height="0.3881055495294812em" x="0.09615384615384616vw" y="2.611894450470519em" fill="#aaa"/><rect width="0.09615384615384616em" height="0.0745812317164691em" x="0.19230769230769232vw" y="2.925418768283531em" fill="#aaa"/><rect width="0.09615384615384616em" height="0.017546913512297736em" x="0.2884615384615385vw" y="2.9824530864877024em" fill="#aaa"/><rect width="0.09615384615384616em" height="0.2466477915034817em" x="0.38461538461538464vw" y="2.7533522084965183em" fill="#aaa"/><rect width="0.09615384615384616em" height="0.03982054341246964em" x="0.4807692307692308vw" y="2.9601794565875306em" fill="#aaa"/><rect width="0.09615384615384616em" height="0.08832064949481126em" x="0.576923076923077vw" y="2.911679350505189em" fill="#aaa"/><rect width="0.09615384615384616em" height="0.029767465490850784em" x="0.6730769230769231vw" y="2.970232534509149em" fill="#aaa"/><rect width="0.09615384615384616em" height="0.04140786834270373em" x="0.7692307692307693vw" y="2.958592131657296em" fill="#aaa"/><rect width="0.09615384615384616em" height="0.06199950854204005em" x="0.8653846153846154vw" y="2.93800049145796em" fill="#aaa"/><rect width="0.09615384615384616em" height="0.06151408386507598em" x="0.9615384615384616vw" y="2.938485916134924em" fill="#aaa"/><rect width="0.09615384615384616em" height="0.22588739364530258em" x="1.0576923076923077vw" y="2.7741126063546973em" fill="#aaa"/><rect width="0.09615384615384616em" height="0.1033846367044479em" x="1.153846153846154vw" y="2.896615363295552em" fill="#aaa"/><rect width="0.09615384615384616em" height="0.1047484784353309em" x="1.25vw" y="2.8952515215646693em" fill="#aaa"/><rect width="0.09615384615384616em" height="0.12653220928510187em" x="1.3461538461538463vw" y="2.873467790714898em" fill="#aaa"/><rect width="0.09615384615384616em" height="0.07567980092814025em" x="1.4423076923076923vw" y="2.9243201990718597em" fill="#aaa"/><rect width="0.09615384615384616em" height="0.34397300912825013em" x="1.5384615384615385vw" y="2.6560269908717498em" fill="#aaa"/><rect width="0.09615384615384616em" height="0.05193084597133715em" x="1.6346153846153848vw" y="2.948069154028663em" fill="#aaa"/><rect width="0.09615384615384616em" height="0.04457861714440791em" x="1.7307692307692308vw" y="2.955421382855592em" fill="#aaa"/><rect width="0.09615384615384616em" height="0.07848640004804586em" x="1.826923076923077vw" y="2.921513599951954em" fill="#aaa"/><rect width="0.09615384615384616em" height="0.1856991525579812em" x="1.9230769230769231vw" y="2.814300847442019em" fill="#aaa"/><rect width="0.09615384615384616em" height="0.5193659538608424em" x="2.019230769230769vw" y="2.4806340461391576em" fill="#aaa"/><rect width="0.09615384615384616em" height="0.19896639838073937em" x="2.1153846153846154vw" y="2.8010336016192605em" fill="#aaa"/><rect width="0.09615384615384616em" height="0.12118348186751177em" x="2.2115384615384617vw" y="2.878816518132488em" fill="#aaa"/><rect width="0.09615384615384616em" height="0.08702093224363511em" x="2.307692307692308vw" y="2.912979067756365em" fill="#aaa"/><rect width="0.09615384615384616em" height="0.1705175282443359em" x="2.403846153846154vw" y="2.829482471755664em" fill="#aaa"/><rect width="0.09615384615384616em" height="0.14018120495606867em" x="2.5vw" y="2.8598187950439313em" fill="#aaa"/><rect width="0.09615384615384616em" height="0.18939290998700403em" x="2.5961538461538463vw" y="2.810607090012996em" fill="#aaa"/><rect width="0.09615384615384616em" height="0.07018830834377415em" x="2.6923076923076925vw" y="2.929811691656226em" fill="#aaa"/><rect width="0.09615384615384616em" height="0.062362354098740844em" x="2.7884615384615388vw" y="2.937637645901259em" fill="#aaa"/><rect width="0.09615384615384616em" height="0.3379567727385832em" x="2.8846153846153846vw" y="2.662043227261417em" fill="#aaa"/><rect width="0.09615384615384616em" height="0.18589073529114059em" x="2.980769230769231vw" y="2.8141092647088595em" fill="#aaa"/><rect width="0.09615384615384616em" height="0.34966182612581065em" x="3.076923076923077vw" y="2.6503381738741894em" fill="#aaa"/><rect width="0.09615384615384616em" height="0.2893705862116573em" x="3.1730769230769234vw" y="2.7106294137883427em" fill="#aaa"/><rect width="0.09615384615384616em" height="0.26131600615707085em" x="3.2692307692307696vw" y="2.7386839938429293em" fill="#aaa"/><rect width="0.09615384615384616em" height="0.17369316416087102em" x="3.3653846153846154vw" y="2.826306835839129em" fill="#aaa"/><rect width="0.09615384615384616em" height="0.2889376030047864em" x="3.4615384615384617vw" y="2.7110623969952137em" fill="#aaa"/><rect width="0.09615384615384616em" height="0.3353509711223883em" x="3.557692307692308vw" y="2.6646490288776117em" fill="#aaa"/><rect width="0.09615384615384616em" height="0.2554922838582547em" x="3.653846153846154vw" y="2.7445077161417455em" fill="#aaa"/><rect width="0.09615384615384616em" height="0.18468292554920268em" x="3.75vw" y="2.8153170744507974em" fill="#aaa"/><rect width="0.09615384615384616em" height="0.39956955175302067em" x="3.8461538461538463vw" y="2.6004304482469793em" fill="#aaa"/><rect width="0.09615384615384616em" height="0.14765988620069695em" x="3.9423076923076925vw" y="2.852340113799303em" fill="#aaa"/><rect width="0.09615384615384616em" height="0.2788859775992528em" x="4.038461538461538vw" y="2.721114022400747em" fill="#aaa"/><rect width="0.09615384615384616em" height="0.1190152486331834em" x="4.134615384615385vw" y="2.8809847513668165em" fill="#aaa"/><rect width="0.09615384615384616em" height="0.096157037023099em" x="4.230769230769231vw" y="2.903842962976901em" fill="#aaa"/><rect width="0.09615384615384616em" height="0.05402930082574847em" x="4.3269230769230775vw" y="2.9459706991742514em" fill="#aaa"/><rect width="0.09615384615384616em" height="0.0848788381125515em" x="4.423076923076923vw" y="2.9151211618874484em" fill="#aaa"/><rect width="0.09615384615384616em" height="0.5044725387281714em" x="4.519230769230769vw" y="2.495527461271829em" fill="#aaa"/><rect width="0.09615384615384616em" height="0.3862673700840149em" x="4.615384615384616vw" y="2.613732629915985em" fill="#aaa"/><rect width="0.09615384615384616em" height="0.12296912212847447em" x="4.711538461538462vw" y="2.8770308778715257em" fill="#aaa"/><rect width="0.09615384615384616em" height="0.4660843237779272em" x="4.807692307692308vw" y="2.533915676222073em" fill="#aaa"/><rect width="0.09615384615384616em" height="0.4402397629254759em" x="4.903846153846154vw" y="2.5597602370745243em" fill="#aaa"/><rect width="0.09615384615384616em" height="0.5777568905308397em" x="5vw" y="2.4222431094691603em" fill="#aaa"/><rect width="0.09615384615384616em" height="0.29762302296167914em" x="5.096153846153847vw" y="2.702376977038321em" fill="#aaa"/><rect width="0.09615384615384616em" height="0.8452211447849447em" x="5.1923076923076925vw" y="2.1547788552150555em" fill="#aaa"/><rect width="0.09615384615384616em" height="0.242063592591792em" x="5.288461538461538vw" y="2.757936407408208em" fill="#aaa"/><rect width="0.09615384615384616em" height="0.41354369154066384em" x="5.384615384615385vw" y="2.5864563084593364em" fill="#aaa"/><rect width="0.09615384615384616em" height="0.35054584581164483em" x="5.480769230769231vw" y="2.649454154188355em" fill="#aaa"/><rect width="0.09615384615384616em" height="0.2038250158694933em" x="5.5769230769230775vw" y="2.7961749841305066em" fill="#aaa"/><rect width="0.09615384615384616em" height="0.13817229401987904em" x="5.673076923076923vw" y="2.861827705980121em" fill="#aaa"/><rect width="0.09615384615384616em" height="0.4116438193166052em" x="5.769230769230769vw" y="2.5883561806833946em" fill="#aaa"/><rect width="0.09615384615384616em" height="0.2822203199447795em" x="5.865384615384616vw" y="2.7177796800552203em" fill="#aaa"/><rect width="0.09615384615384616em" height="0.21692195576667478em" x="5.961538461538462vw" y="2.783078044233325em" fill="#aaa"/><rect width="0.09615384615384616em" height="0.5930551243081619em" x="6.057692307692308vw" y="2.4069448756918383em" fill="#aaa"/><rect width="0.09615384615384616em" height="0.342618937597193em" x="6.153846153846154vw" y="2.657381062402807em" fill="#aaa"/><rect width="0.09615384615384616em" height="0.5467692056552891em" x="6.25vw" y="2.453230794344711em" fill="#aaa"/><rect width="0.09615384615384616em" height="0.6813755640871053em" x="6.346153846153847vw" y="2.318624435912895em" fill="#aaa"/><rect width="0.09615384615384616em" height="0.8364759180906982em" x="6.4423076923076925vw" y="2.163524081909302em" fill="#aaa"/><rect width="0.09615384615384616em" height="0.6024491519451798em" x="6.538461538461539vw" y="2.39755084805482em" fill="#aaa"/><rect width="0.09615384615384616em" height="0.5149206427123683em" x="6.634615384615385vw" y="2.4850793572876317em" fill="#aaa"/><rect width="0.09615384615384616em" height="0.58509088657823em" x="6.730769230769231vw" y="2.41490911342177em" fill="#aaa"/><rect width="0.09615384615384616em" height="0.6053499090810741em" x="6.8269230769230775vw" y="2.394650090918926em" fill="#aaa"/><rect width="0.09615384615384616em" height="0.7501545226486086em" x="6.923076923076923vw" y="2.2498454773513914em" fill="#aaa"/><rect width="0.09615384615384616em" height="1.086852488705367em" x="7.01923076923077vw" y="1.913147511294633em" fill="#aaa"/><rect width="0.09615384615384616em" height="0.5508342691448023em" x="7.115384615384616vw" y="2.4491657308551975em" fill="#aaa"/><rect width="0.09615384615384616em" height="0.833019843496231em" x="7.211538461538462vw" y="2.1669801565037687em" fill="#aaa"/><rect width="0.09615384615384616em" height="0.510010110459449em" x="7.307692307692308vw" y="2.489989889540551em" fill="#aaa"/><rect width="0.09615384615384616em" height="0.519550579504641em" x="7.403846153846154vw" y="2.480449420495359em" fill="#aaa"/><rect width="0.09615384615384616em" height="0.420796699124652em" x="7.5vw" y="2.579203300875348em" fill="#aaa"/><rect width="0.09615384615384616em" height="0.59974650006992em" x="7.596153846153847vw" y="2.4002534999300797em" fill="#aaa"/><rect width="0.09615384615384616em" height="0.7513702027629912em" x="7.6923076923076925vw" y="2.248629797237009em" fill="#aaa"/><rect width="0.09615384615384616em" height="0.6547874043933151em" x="7.788461538461539vw" y="2.345212595606685em" fill="#aaa"/><rect width="0.09615384615384616em" height="0.9700616900459224em" x="7.884615384615385vw" y="2.0299383099540775em" fill="#aaa"/><rect width="0.09615384615384616em" height="0.7939608612457805em" x="7.980769230769231vw" y="2.2060391387542193em" fill="#aaa"/><rect width="0.09615384615384616em" height="0.9504215965722247em" x="8.076923076923077vw" y="2.049578403427775em" fill="#aaa"/><rect width="0.09615384615384616em" height="1.0621417529152353em" x="8.173076923076923vw" y="1.9378582470847647em" fill="#aaa"/><rect width="0.09615384615384616em" height="1.8384934616503812em" x="8.26923076923077vw" y="1.1615065383496188em" fill="#aaa"/><rect width="0.09615384615384616em" height="1.5847258963155997em" x="8.365384615384615vw" y="1.4152741036844003em" fill="#aaa"/><rect width="0.09615384615384616em" height="1.4885511620956813em" x="8.461538461538462vw" y="1.5114488379043187em" fill="#aaa"/><rect width="0.09615384615384616em" height="0.8241374716717771em" x="8.557692307692308vw" y="2.175862528328223em" fill="#aaa"/><rect width="0.09615384615384616em" height="0.6778479773794458em" x="8.653846153846155vw" y="2.3221520226205543em" fill="#aaa"/><rect width="0.09615384615384616em" height="1.553613384176817em" x="8.75vw" y="1.446386615823183em" fill="#aaa"/><rect width="0.09615384615384616em" height="1.1361637906196098em" x="8.846153846153847vw" y="1.8638362093803902em" fill="#aaa"/><rect width="0.09615384615384616em" height="1.4718271755367645em" x="8.942307692307693vw" y="1.5281728244632355em" fill="#aaa"/><rect width="0.09615384615384616em" height="1.8042957440432674em" x="9.038461538461538vw" y="1.1957042559567326em" fill="#aaa"/><rect width="0.09615384615384616em" height="1.9569611477860787em" x="9.134615384615385vw" y="1.0430388522139213em" fill="#aaa"/><rect width="0.09615384615384616em" height="1.8674389451678794em" x="9.230769230769232vw" y="1.1325610548321206em" fill="#aaa"/><rect width="0.09615384615384616em" height="3em" x="9.326923076923077vw" y="0em" fill="#aaa"/><rect width="0.09615384615384616em" height="2.727342269913926em" x="9.423076923076923vw" y="0.27265773008607397em" fill="#aaa"/><rect width="0.09615384615384616em" height="2.141513444895452em" x="9.51923076923077vw" y="0.8584865551045482em" fill="#aaa"/><rect width="0.09615384615384616em" height="2.151998862884418em" x="9.615384615384617vw" y="0.848001137115582em" fill="#aaa"/><rect width="0.09615384615384616em" height="2.632101666238849em" x="9.711538461538462vw" y="0.367898333761151em" fill="#aaa"/><rect width="0.09615384615384616em" height="2.7004503797697272em" x="9.807692307692308vw" y="0.29954962023027276em" fill="#aaa"/><rect width="0.09615384615384616em" height="2.2811211609923756em" x="9.903846153846155vw" y="0.7188788390076244em" fill="#aaa"/></svg>