<?xml version="1.0" standalone="no"?>
<svg xmlns:xlink="http://www.w3.org/1999/xlink" xmlns="http://www.w3.org/2000/svg" class="topic-graph" style="width: 100em; height: 30em; text-align: center;"><rect width="0.9615384615384616em" height="1.0503456538414346em" x="0em" y="28.949654346158564em" fill="#aaa"/><rect width="0.9615384615384616em" height="0.5028684070028194em" x="0.9615384615384616em" y="29.49713159299718em" fill="#aaa"/><rect width="0.9615384615384616em" height="0.17365791364771654em" x="1.9230769230769231em" y="29.826342086352284em" fill="#aaa"/><rect width="0.9615384615384616em" height="2.6328851615487em" x="2.8846153846153846em" y="27.3671148384513em" fill="#aaa"/><rect width="0.9615384615384616em" height="0.30421688154684284em" x="3.8461538461538463em" y="29.695783118453157em" fill="#aaa"/><rect width="0.9615384615384616em" height="1.1679880540418357em" x="4.8076923076923075em" y="28.832011945958165em" fill="#aaa"/><rect width="0.9615384615384616em" height="1.4124154621195935em" x="5.769230769230769em" y="28.587584537880407em" fill="#aaa"/><rect width="0.9615384615384616em" height="0.14857476558715724em" x="6.730769230769231em" y="29.851425234412844em" fill="#aaa"/><rect width="0.9615384615384616em" height="3.9222743875995256em" x="7.6923076923076925em" y="26.077725612400474em" fill="#aaa"/><rect width="0.9615384615384616em" height="9.923887846392647em" x="8.653846153846153em" y="20.076112153607355em" fill="#aaa"/><rect width="0.9615384615384616em" height="0.6909150179390656em" x="9.615384615384615em" y="29.309084982060934em" fill="#aaa"/><rect width="0.9615384615384616em" height="3.2707868256227095em" x="10.576923076923077em" y="26.72921317437729em" fill="#aaa"/><rect width="0.9615384615384616em" height="0.9309594430677889em" x="11.538461538461538em" y="29.06904055693221em" fill="#aaa"/><rect width="0.9615384615384616em" height="1.7126797008674344em" x="12.5em" y="28.287320299132567em" fill="#aaa"/><rect width="0.9615384615384616em" height="0.9307598914400546em" x="13.461538461538462em" y="29.069240108559946em" fill="#aaa"/><rect width="0.9615384615384616em" height="1.5623254356370713em" x="14.423076923076923em" y="28.43767456436293em" fill="#aaa"/><rect width="0.9615384615384616em" height="4.402532634706145em" x="15.384615384615385em" y="25.597467365293856em" fill="#aaa"/><rect width="0.9615384615384616em" height="0.40832265511228133em" x="16.346153846153847em" y="29.591677344887717em" fill="#aaa"/><rect width="0.9615384615384616em" height="1.3594170938460295em" x="17.307692307692307em" y="28.64058290615397em" fill="#aaa"/><rect width="0.9615384615384616em" height="3.1937650234438113em" x="18.26923076923077em" y="26.80623497655619em" fill="#aaa"/><rect width="0.9615384615384616em" height="2.2888856211408655em" x="19.23076923076923em" y="27.711114378859136em" fill="#aaa"/><rect width="0.9615384615384616em" height="3.213171402745446em" x="20.192307692307693em" y="26.786828597254555em" fill="#aaa"/><rect width="0.9615384615384616em" height="1.2219920061325837em" x="21.153846153846153em" y="28.778007993867416em" fill="#aaa"/><rect width="0.9615384615384616em" height="1.6368453069960376em" x="22.115384615384617em" y="28.363154693003963em" fill="#aaa"/><rect width="0.9615384615384616em" height="7.007125395543284em" x="23.076923076923077em" y="22.992874604456716em" fill="#aaa"/><rect width="0.9615384615384616em" height="5.766458686562498em" x="24.03846153846154em" y="24.233541313437502em" fill="#aaa"/><rect width="0.9615384615384616em" height="5.293967655935859em" x="25em" y="24.70603234406414em" fill="#aaa"/><rect width="0.9615384615384616em" height="4.797575932611575em" x="25.961538461538463em" y="25.202424067388424em" fill="#aaa"/><rect width="0.9615384615384616em" height="5.558998804727933em" x="26.923076923076923em" y="24.441001195272065em" fill="#aaa"/><rect width="0.9615384615384616em" height="3.750643302324017em" x="27.884615384615387em" y="26.24935669767598em" fill="#aaa"/><rect width="0.9615384615384616em" height="4.12379928502294em" x="28.846153846153847em" y="25.87620071497706em" fill="#aaa"/><rect width="0.9615384615384616em" height="4.8487310473885135em" x="29.80769230769231em" y="25.15126895261149em" fill="#aaa"/><rect width="0.9615384615384616em" height="6.5841911779803075em" x="30.76923076923077em" y="23.41580882201969em" fill="#aaa"/><rect width="0.9615384615384616em" height="3.172688264606394em" x="31.73076923076923em" y="26.827311735393607em" fill="#aaa"/><rect width="0.9615384615384616em" height="5.135429380996333em" x="32.69230769230769em" y="24.864570619003665em" fill="#aaa"/><rect width="0.9615384615384616em" height="9.218931323460364em" x="33.65384615384615em" y="20.781068676539636em" fill="#aaa"/><rect width="0.9615384615384616em" height="4.598356335667842em" x="34.61538461538461em" y="25.40164366433216em" fill="#aaa"/><rect width="0.9615384615384616em" height="2.9494839627171547em" x="35.57692307692308em" y="27.050516037282847em" fill="#aaa"/><rect width="0.9615384615384616em" height="3.9031814373254043em" x="36.53846153846154em" y="26.096818562674596em" fill="#aaa"/><rect width="0.9615384615384616em" height="3.906969413609999em" x="37.5em" y="26.09303058639em" fill="#aaa"/><rect width="0.9615384615384616em" height="7.683306698476572em" x="38.46153846153846em" y="22.31669330152343em" fill="#aaa"/><rect width="0.9615384615384616em" height="11.555120743141076em" x="39.42307692307693em" y="18.444879256858925em" fill="#aaa"/><rect width="0.9615384615384616em" height="6.121337334218005em" x="40.38461538461539em" y="23.878662665781995em" fill="#aaa"/><rect width="0.9615384615384616em" height="13.128957639003604em" x="41.34615384615385em" y="16.871042360996398em" fill="#aaa"/><rect width="0.9615384615384616em" height="18.57926750027957em" x="42.30769230769231em" y="11.42073249972043em" fill="#aaa"/><rect width="0.9615384615384616em" height="8.234715828048182em" x="43.269230769230774em" y="21.76528417195182em" fill="#aaa"/><rect width="0.9615384615384616em" height="3.2549300811633715em" x="44.23076923076923em" y="26.745069918836627em" fill="#aaa"/><rect width="0.9615384615384616em" height="6.376456412806057em" x="45.19230769230769em" y="23.623543587193943em" fill="#aaa"/><rect width="0.9615384615384616em" height="10.034161697934472em" x="46.15384615384615em" y="19.965838302065528em" fill="#aaa"/><rect width="0.9615384615384616em" height="10.094305871204314em" x="47.11538461538461em" y="19.905694128795687em" fill="#aaa"/><rect width="0.9615384615384616em" height="6.907774109740475em" x="48.07692307692308em" y="23.092225890259524em" fill="#aaa"/><rect width="0.9615384615384616em" height="3.247752167906888em" x="49.03846153846154em" y="26.75224783209311em" fill="#aaa"/><rect width="0.9615384615384616em" height="2.058332157562562em" x="50em" y="27.94166784243744em" fill="#aaa"/><rect width="0.9615384615384616em" height="5.5301759078306745em" x="50.96153846153846em" y="24.469824092169326em" fill="#aaa"/><rect width="0.9615384615384616em" height="7.673951618412073em" x="51.92307692307693em" y="22.326048381587928em" fill="#aaa"/><rect width="0.9615384615384616em" height="6.836360015860102em" x="52.88461538461539em" y="23.1636399841399em" fill="#aaa"/><rect width="0.9615384615384616em" height="2.553082324910466em" x="53.84615384615385em" y="27.446917675089534em" fill="#aaa"/><rect width="0.9615384615384616em" height="4.443882606511513em" x="54.80769230769231em" y="25.556117393488485em" fill="#aaa"/><rect width="0.9615384615384616em" height="3.3593170987165855em" x="55.769230769230774em" y="26.640682901283416em" fill="#aaa"/><rect width="0.9615384615384616em" height="2.2171961863859244em" x="56.73076923076923em" y="27.782803813614077em" fill="#aaa"/><rect width="0.9615384615384616em" height="3.985187094196935em" x="57.69230769230769em" y="26.014812905803065em" fill="#aaa"/><rect width="0.9615384615384616em" height="8.249606718376425em" x="58.65384615384615em" y="21.750393281623573em" fill="#aaa"/><rect width="0.9615384615384616em" height="5.42898815527019em" x="59.61538461538462em" y="24.57101184472981em" fill="#aaa"/><rect width="0.9615384615384616em" height="2.0445009575930277em" x="60.57692307692308em" y="27.955499042406974em" fill="#aaa"/><rect width="0.9615384615384616em" height="4.597731721644824em" x="61.53846153846154em" y="25.402268278355177em" fill="#aaa"/><rect width="0.9615384615384616em" height="30em" x="62.5em" y="0em" fill="#aaa"/><rect width="0.9615384615384616em" height="5.234534313370526em" x="63.46153846153846em" y="24.765465686629476em" fill="#aaa"/><rect width="0.9615384615384616em" height="3.636727237889111em" x="64.42307692307692em" y="26.36327276211089em" fill="#aaa"/><rect width="0.9615384615384616em" height="4.715874653400855em" x="65.38461538461539em" y="25.284125346599147em" fill="#aaa"/><rect width="0.9615384615384616em" height="3.5143906905700164em" x="66.34615384615385em" y="26.485609309429982em" fill="#aaa"/><rect width="0.9615384615384616em" height="5.669945708149113em" x="67.3076923076923em" y="24.330054291850885em" fill="#aaa"/><rect width="0.9615384615384616em" height="7.8103657840183525em" x="68.26923076923077em" y="22.18963421598165em" fill="#aaa"/><rect width="0.9615384615384616em" height="3.311628613987913em" x="69.23076923076923em" y="26.688371386012086em" fill="#aaa"/><rect width="0.9615384615384616em" height="6.565892744570793em" x="70.1923076923077em" y="23.434107255429208em" fill="#aaa"/><rect width="0.9615384615384616em" height="4.044688042748887em" x="71.15384615384616em" y="25.955311957251112em" fill="#aaa"/><rect width="0.9615384615384616em" height="7.1034281000982675em" x="72.11538461538461em" y="22.896571899901733em" fill="#aaa"/><rect width="0.9615384615384616em" height="14.73404966508376em" x="73.07692307692308em" y="15.26595033491624em" fill="#aaa"/><rect width="0.9615384615384616em" height="5.893914926100068em" x="74.03846153846155em" y="24.106085073899933em" fill="#aaa"/><rect width="0.9615384615384616em" height="7.526593050478336em" x="75em" y="22.473406949521664em" fill="#aaa"/><rect width="0.9615384615384616em" height="4.090217075261989em" x="75.96153846153847em" y="25.90978292473801em" fill="#aaa"/><rect width="0.9615384615384616em" height="2.987886160245741em" x="76.92307692307692em" y="27.01211383975426em" fill="#aaa"/><rect width="0.9615384615384616em" height="5.563124305088305em" x="77.88461538461539em" y="24.436875694911695em" fill="#aaa"/><rect width="0.9615384615384616em" height="8.538738186256563em" x="78.84615384615385em" y="21.461261813743437em" fill="#aaa"/><rect width="0.9615384615384616em" height="5.990421191422817em" x="79.8076923076923em" y="24.00957880857718em" fill="#aaa"/><rect width="0.9615384615384616em" height="4.610005430811628em" x="80.76923076923077em" y="25.38999456918837em" fill="#aaa"/><rect width="0.9615384615384616em" height="6.305729723405873em" x="81.73076923076923em" y="23.694270276594125em" fill="#aaa"/><rect width="0.9615384615384616em" height="6.137099965257368em" x="82.6923076923077em" y="23.86290003474263em" fill="#aaa"/><rect width="0.9615384615384616em" height="7.459025455572547em" x="83.65384615384616em" y="22.540974544427453em" fill="#aaa"/><rect width="0.9615384615384616em" height="3.056764171618452em" x="84.61538461538461em" y="26.943235828381546em" fill="#aaa"/><rect width="0.9615384615384616em" height="5.22552756696013em" x="85.57692307692308em" y="24.77447243303987em" fill="#aaa"/><rect width="0.9615384615384616em" height="4.550883526229457em" x="86.53846153846155em" y="25.449116473770545em" fill="#aaa"/><rect width="0.9615384615384616em" height="11.03722411397305em" x="87.5em" y="18.96277588602695em" fill="#aaa"/><rect width="0.9615384615384616em" height="2.9847890398953094em" x="88.46153846153847em" y="27.01521096010469em" fill="#aaa"/><rect width="0.9615384615384616em" height="4.817508777364648em" x="89.42307692307692em" y="25.182491222635353em" fill="#aaa"/><rect width="0.9615384615384616em" height="3.5261932897539507em" x="90.38461538461539em" y="26.47380671024605em" fill="#aaa"/><rect width="0.9615384615384616em" height="3.185679211256233em" x="91.34615384615385em" y="26.814320788743768em" fill="#aaa"/><rect width="0.9615384615384616em" height="5.191696839925139em" x="92.3076923076923em" y="24.80830316007486em" fill="#aaa"/><rect width="0.9615384615384616em" height="3.7024310999783143em" x="93.26923076923077em" y="26.297568900021687em" fill="#aaa"/><rect width="0.9615384615384616em" height="3.409047221804152em" x="94.23076923076923em" y="26.59095277819585em" fill="#aaa"/><rect width="0.9615384615384616em" height="2.4812180434033437em" x="95.1923076923077em" y="27.518781956596655em" fill="#aaa"/><rect width="0.9615384615384616em" height="4.7647888769637206em" x="96.15384615384616em" y="25.23521112303628em" fill="#aaa"/><rect width="0.9615384615384616em" height="7.48363621677593em" x="97.11538461538461em" y="22.51636378322407em" fill="#aaa"/><rect width="0.9615384615384616em" height="3.9372304682875736em" x="98.07692307692308em" y="26.062769531712426em" fill="#aaa"/><rect width="0.9615384615384616em" height="3.1351342175347825em" x="99.03846153846155em" y="26.864865782465216em" fill="#aaa"/></svg>