<?xml version="1.0" standalone="no"?>
<svg xmlns:xlink="http://www.w3.org/1999/xlink" xmlns="http://www.w3.org/2000/svg" class="topic-graph" style="width: 10vw; height: 3em; text-align: center;"><rect width="0.09615384615384616em" height="0.07484076009692253em" x="0vw" y="2.9251592399030777em" fill="#aaa"/><rect width="0.09615384615384616em" height="0.18447092892186145em" x="0.09615384615384616vw" y="2.8155290710781387em" fill="#aaa"/><rect width="0.09615384615384616em" height="0.25513399445303603em" x="0.19230769230769232vw" y="2.744866005546964em" fill="#aaa"/><rect width="0.09615384615384616em" height="0.4629841315272117em" x="0.2884615384615385vw" y="2.537015868472788em" fill="#aaa"/><rect width="0.09615384615384616em" height="0.19718451189240932em" x="0.38461538461538464vw" y="2.8028154881075906em" fill="#aaa"/><rect width="0.09615384615384616em" height="0.26446214467766965em" x="0.4807692307692308vw" y="2.73553785532233em" fill="#aaa"/><rect width="0.09615384615384616em" height="0.5211014415987893em" x="0.576923076923077vw" y="2.4788985584012107em" fill="#aaa"/><rect width="0.09615384615384616em" height="0.6648570060314369em" x="0.6730769230769231vw" y="2.335142993968563em" fill="#aaa"/><rect width="0.09615384615384616em" height="0.24677469639159305em" x="0.7692307692307693vw" y="2.753225303608407em" fill="#aaa"/><rect width="0.09615384615384616em" height="0.11624800993444455em" x="0.8653846153846154vw" y="2.8837519900655555em" fill="#aaa"/><rect width="0.09615384615384616em" height="0.886532710195737em" x="0.9615384615384616vw" y="2.1134672898042632em" fill="#aaa"/><rect width="0.09615384615384616em" height="0.1746539495066737em" x="1.0576923076923077vw" y="2.825346050493326em" fill="#aaa"/><rect width="0.09615384615384616em" height="0.30060838477305046em" x="1.153846153846154vw" y="2.6993916152269497em" fill="#aaa"/><rect width="0.09615384615384616em" height="0.4051376876334622em" x="1.25vw" y="2.594862312366538em" fill="#aaa"/><rect width="0.09615384615384616em" height="0.16469538071912213em" x="1.3461538461538463vw" y="2.835304619280878em" fill="#aaa"/><rect width="0.09615384615384616em" height="0.16124874669992456em" x="1.4423076923076923vw" y="2.8387512533000754em" fill="#aaa"/><rect width="0.09615384615384616em" height="0.27012413035353394em" x="1.5384615384615385vw" y="2.7298758696464662em" fill="#aaa"/><rect width="0.09615384615384616em" height="0.03773398966057838em" x="1.6346153846153848vw" y="2.962266010339422em" fill="#aaa"/><rect width="0.09615384615384616em" height="0.05463904356526704em" x="1.7307692307692308vw" y="2.945360956434733em" fill="#aaa"/><rect width="0.09615384615384616em" height="0.06790828896965048em" x="1.826923076923077vw" y="2.9320917110303495em" fill="#aaa"/><rect width="0.09615384615384616em" height="0.1352339826380883em" x="1.9230769230769231vw" y="2.864766017361912em" fill="#aaa"/><rect width="0.09615384615384616em" height="0.11377914875899153em" x="2.019230769230769vw" y="2.8862208512410086em" fill="#aaa"/><rect width="0.09615384615384616em" height="0.04319381303794672em" x="2.1153846153846154vw" y="2.956806186962053em" fill="#aaa"/><rect width="0.09615384615384616em" height="0.2881341657357832em" x="2.2115384615384617vw" y="2.711865834264217em" fill="#aaa"/><rect width="0.09615384615384616em" height="0.17991590305010055em" x="2.307692307692308vw" y="2.8200840969498993em" fill="#aaa"/><rect width="0.09615384615384616em" height="0.3248689678281793em" x="2.403846153846154vw" y="2.6751310321718207em" fill="#aaa"/><rect width="0.09615384615384616em" height="0.8740433100707644em" x="2.5vw" y="2.1259566899292355em" fill="#aaa"/><rect width="0.09615384615384616em" height="1.157791772806501em" x="2.5961538461538463vw" y="1.842208227193499em" fill="#aaa"/><rect width="0.09615384615384616em" height="0.4720763923927992em" x="2.6923076923076925vw" y="2.527923607607201em" fill="#aaa"/><rect width="0.09615384615384616em" height="0.7692561220960357em" x="2.7884615384615388vw" y="2.230743877903964em" fill="#aaa"/><rect width="0.09615384615384616em" height="1.7835272915190834em" x="2.8846153846153846vw" y="1.2164727084809166em" fill="#aaa"/><rect width="0.09615384615384616em" height="2.0424072444135684em" x="2.980769230769231vw" y="0.9575927555864316em" fill="#aaa"/><rect width="0.09615384615384616em" height="1.3706315996523202em" x="3.076923076923077vw" y="1.6293684003476798em" fill="#aaa"/><rect width="0.09615384615384616em" height="2.5652086856542953em" x="3.1730769230769234vw" y="0.4347913143457047em" fill="#aaa"/><rect width="0.09615384615384616em" height="3em" x="3.2692307692307696vw" y="0em" fill="#aaa"/><rect width="0.09615384615384616em" height="2.9088312845927176em" x="3.3653846153846154vw" y="0.09116871540728244em" fill="#aaa"/><rect width="0.09615384615384616em" height="2.5007731235719626em" x="3.4615384615384617vw" y="0.4992268764280374em" fill="#aaa"/><rect width="0.09615384615384616em" height="0.6980398969989201em" x="3.557692307692308vw" y="2.30196010300108em" fill="#aaa"/><rect width="0.09615384615384616em" height="0.4249695663307519em" x="3.653846153846154vw" y="2.575030433669248em" fill="#aaa"/><rect width="0.09615384615384616em" height="0.4091441297611831em" x="3.75vw" y="2.590855870238817em" fill="#aaa"/><rect width="0.09615384615384616em" height="0.6336876393083744em" x="3.8461538461538463vw" y="2.3663123606916256em" fill="#aaa"/><rect width="0.09615384615384616em" height="0.5471641464814722em" x="3.9423076923076925vw" y="2.4528358535185277em" fill="#aaa"/><rect width="0.09615384615384616em" height="1.289175332895961em" x="4.038461538461538vw" y="1.710824667104039em" fill="#aaa"/><rect width="0.09615384615384616em" height="1.2293869140493574em" x="4.134615384615385vw" y="1.7706130859506426em" fill="#aaa"/><rect width="0.09615384615384616em" height="1.82261137758187em" x="4.230769230769231vw" y="1.17738862241813em" fill="#aaa"/><rect width="0.09615384615384616em" height="0.5994518661844641em" x="4.3269230769230775vw" y="2.400548133815536em" fill="#aaa"/><rect width="0.09615384615384616em" height="0.7310177779303779em" x="4.423076923076923vw" y="2.268982222069622em" fill="#aaa"/><rect width="0.09615384615384616em" height="0.783198755324285em" x="4.519230769230769vw" y="2.216801244675715em" fill="#aaa"/><rect width="0.09615384615384616em" height="1.057589457225295em" x="4.615384615384616vw" y="1.942410542774705em" fill="#aaa"/><rect width="0.09615384615384616em" height="0.8625056310630271em" x="4.711538461538462vw" y="2.1374943689369728em" fill="#aaa"/><rect width="0.09615384615384616em" height="2.6919578381571294em" x="4.807692307692308vw" y="0.3080421618428706em" fill="#aaa"/><rect width="0.09615384615384616em" height="2.4231498972121006em" x="4.903846153846154vw" y="0.5768501027878994em" fill="#aaa"/><rect width="0.09615384615384616em" height="1.9391829886097294em" x="5vw" y="1.0608170113902706em" fill="#aaa"/><rect width="0.09615384615384616em" height="1.2004075607856164em" x="5.096153846153847vw" y="1.7995924392143836em" fill="#aaa"/><rect width="0.09615384615384616em" height="1.5470426976530334em" x="5.1923076923076925vw" y="1.4529573023469666em" fill="#aaa"/><rect width="0.09615384615384616em" height="1.0708344176568088em" x="5.288461538461538vw" y="1.9291655823431912em" fill="#aaa"/><rect width="0.09615384615384616em" height="1.0020979959148706em" x="5.384615384615385vw" y="1.9979020040851294em" fill="#aaa"/><rect width="0.09615384615384616em" height="0.9858743726105721em" x="5.480769230769231vw" y="2.014125627389428em" fill="#aaa"/><rect width="0.09615384615384616em" height="1.3616223130302547em" x="5.5769230769230775vw" y="1.6383776869697453em" fill="#aaa"/><rect width="0.09615384615384616em" height="1.1279467265289564em" x="5.673076923076923vw" y="1.8720532734710436em" fill="#aaa"/><rect width="0.09615384615384616em" height="0.555666831028215em" x="5.769230769230769vw" y="2.444333168971785em" fill="#aaa"/><rect width="0.09615384615384616em" height="0.30611576634444976em" x="5.865384615384616vw" y="2.69388423365555em" fill="#aaa"/><rect width="0.09615384615384616em" height="0.4877989890489152em" x="5.961538461538462vw" y="2.5122010109510846em" fill="#aaa"/><rect width="0.09615384615384616em" height="0.37884862416116827em" x="6.057692307692308vw" y="2.621151375838832em" fill="#aaa"/><rect width="0.09615384615384616em" height="0.39340728348191456em" x="6.153846153846154vw" y="2.6065927165180853em" fill="#aaa"/><rect width="0.09615384615384616em" height="0.3734378953897972em" x="6.25vw" y="2.626562104610203em" fill="#aaa"/><rect width="0.09615384615384616em" height="0.45919865651415936em" x="6.346153846153847vw" y="2.5408013434858407em" fill="#aaa"/><rect width="0.09615384615384616em" height="0.41090112641840026em" x="6.4423076923076925vw" y="2.5890988735816em" fill="#aaa"/><rect width="0.09615384615384616em" height="0.45992753819089216em" x="6.538461538461539vw" y="2.5400724618091077em" fill="#aaa"/><rect width="0.09615384615384616em" height="0.3608402801478669em" x="6.634615384615385vw" y="2.6391597198521333em" fill="#aaa"/><rect width="0.09615384615384616em" height="0.3669422238493241em" x="6.730769230769231vw" y="2.6330577761506757em" fill="#aaa"/><rect width="0.09615384615384616em" height="0.4756284527305984em" x="6.8269230769230775vw" y="2.5243715472694017em" fill="#aaa"/><rect width="0.09615384615384616em" height="0.44381594873019914em" x="6.923076923076923vw" y="2.556184051269801em" fill="#aaa"/><rect width="0.09615384615384616em" height="0.49363838074481825em" x="7.01923076923077vw" y="2.506361619255182em" fill="#aaa"/><rect width="0.09615384615384616em" height="1.0051456418139553em" x="7.115384615384616vw" y="1.9948543581860447em" fill="#aaa"/><rect width="0.09615384615384616em" height="0.49180886726685225em" x="7.211538461538462vw" y="2.5081911327331476em" fill="#aaa"/><rect width="0.09615384615384616em" height="0.5016623526073033em" x="7.307692307692308vw" y="2.4983376473926966em" fill="#aaa"/><rect width="0.09615384615384616em" height="0.3822227429408138em" x="7.403846153846154vw" y="2.617777257059186em" fill="#aaa"/><rect width="0.09615384615384616em" height="0.4320683405909377em" x="7.5vw" y="2.567931659409062em" fill="#aaa"/><rect width="0.09615384615384616em" height="0.3733609660491281em" x="7.596153846153847vw" y="2.626639033950872em" fill="#aaa"/><rect width="0.09615384615384616em" height="0.4093562864706894em" x="7.6923076923076925vw" y="2.5906437135293108em" fill="#aaa"/><rect width="0.09615384615384616em" height="0.43064671812857835em" x="7.788461538461539vw" y="2.5693532818714218em" fill="#aaa"/><rect width="0.09615384615384616em" height="0.2522381917965392em" x="7.884615384615385vw" y="2.7477618082034607em" fill="#aaa"/><rect width="0.09615384615384616em" height="0.29069225307812485em" x="7.980769230769231vw" y="2.7093077469218754em" fill="#aaa"/><rect width="0.09615384615384616em" height="0.2706980021824438em" x="8.076923076923077vw" y="2.729301997817556em" fill="#aaa"/><rect width="0.09615384615384616em" height="0.3085880213769929em" x="8.173076923076923vw" y="2.691411978623007em" fill="#aaa"/><rect width="0.09615384615384616em" height="0.4247691846804343em" x="8.26923076923077vw" y="2.5752308153195655em" fill="#aaa"/><rect width="0.09615384615384616em" height="0.2592828282044274em" x="8.365384615384615vw" y="2.7407171717955725em" fill="#aaa"/><rect width="0.09615384615384616em" height="0.30205898957502986em" x="8.461538461538462vw" y="2.6979410104249704em" fill="#aaa"/><rect width="0.09615384615384616em" height="0.23702921808102675em" x="8.557692307692308vw" y="2.7629707819189733em" fill="#aaa"/><rect width="0.09615384615384616em" height="0.23614722732450627em" x="8.653846153846155vw" y="2.763852772675494em" fill="#aaa"/><rect width="0.09615384615384616em" height="0.22778331097673393em" x="8.75vw" y="2.7722166890232662em" fill="#aaa"/><rect width="0.09615384615384616em" height="0.19537101215475136em" x="8.846153846153847vw" y="2.804628987845249em" fill="#aaa"/><rect width="0.09615384615384616em" height="0.22696655174631447em" x="8.942307692307693vw" y="2.7730334482536856em" fill="#aaa"/><rect width="0.09615384615384616em" height="0.22170671258310393em" x="9.038461538461538vw" y="2.778293287416896em" fill="#aaa"/><rect width="0.09615384615384616em" height="0.21119791181774203em" x="9.134615384615385vw" y="2.788802088182258em" fill="#aaa"/><rect width="0.09615384615384616em" height="0.3690128322642641em" x="9.230769230769232vw" y="2.6309871677357357em" fill="#aaa"/><rect width="0.09615384615384616em" height="0.21512875916157406em" x="9.326923076923077vw" y="2.784871240838426em" fill="#aaa"/><rect width="0.09615384615384616em" height="0.16634081975270493em" x="9.423076923076923vw" y="2.8336591802472952em" fill="#aaa"/><rect width="0.09615384615384616em" height="0.19795391928820577em" x="9.51923076923077vw" y="2.8020460807117944em" fill="#aaa"/><rect width="0.09615384615384616em" height="0.19701353225260332em" x="9.615384615384617vw" y="2.8029864677473966em" fill="#aaa"/><rect width="0.09615384615384616em" height="0.23733573160571858em" x="9.711538461538462vw" y="2.7626642683942815em" fill="#aaa"/><rect width="0.09615384615384616em" height="0.285557597293698em" x="9.807692307692308vw" y="2.714442402706302em" fill="#aaa"/><rect width="0.09615384615384616em" height="0.24427029277348883em" x="9.903846153846155vw" y="2.7557297072265112em" fill="#aaa"/></svg>