<?xml version="1.0" standalone="no"?>
<svg xmlns:xlink="http://www.w3.org/1999/xlink" xmlns="http://www.w3.org/2000/svg" class="topic-graph" style="width: 100em; height: 30em; text-align: center;"><rect width="0.9615384615384616em" height="3.0389306812092944em" x="0em" y="26.961069318790706em" fill="#aaa"/><rect width="0.9615384615384616em" height="17.543840825954195em" x="0.9615384615384616em" y="12.456159174045805em" fill="#aaa"/><rect width="0.9615384615384616em" height="2.574826662137071em" x="1.9230769230769231em" y="27.42517333786293em" fill="#aaa"/><rect width="0.9615384615384616em" height="4.058651545123902em" x="2.8846153846153846em" y="25.9413484548761em" fill="#aaa"/><rect width="0.9615384615384616em" height="8.867406123881329em" x="3.8461538461538463em" y="21.13259387611867em" fill="#aaa"/><rect width="0.9615384615384616em" height="4.36538813859355em" x="4.8076923076923075em" y="25.634611861406448em" fill="#aaa"/><rect width="0.9615384615384616em" height="5.551627556546075em" x="5.769230769230769em" y="24.448372443453927em" fill="#aaa"/><rect width="0.9615384615384616em" height="5.68485216002148em" x="6.730769230769231em" y="24.315147839978522em" fill="#aaa"/><rect width="0.9615384615384616em" height="8.332658530214948em" x="7.6923076923076925em" y="21.66734146978505em" fill="#aaa"/><rect width="0.9615384615384616em" height="9.579046943329978em" x="8.653846153846153em" y="20.420953056670022em" fill="#aaa"/><rect width="0.9615384615384616em" height="5.485392190695622em" x="9.615384615384615em" y="24.51460780930438em" fill="#aaa"/><rect width="0.9615384615384616em" height="9.575869221308311em" x="10.576923076923077em" y="20.42413077869169em" fill="#aaa"/><rect width="0.9615384615384616em" height="6.158805688107083em" x="11.538461538461538em" y="23.841194311892917em" fill="#aaa"/><rect width="0.9615384615384616em" height="6.42925537430337em" x="12.5em" y="23.57074462569663em" fill="#aaa"/><rect width="0.9615384615384616em" height="5.0263760305349425em" x="13.461538461538462em" y="24.97362396946506em" fill="#aaa"/><rect width="0.9615384615384616em" height="4.937681355371537em" x="14.423076923076923em" y="25.062318644628462em" fill="#aaa"/><rect width="0.9615384615384616em" height="6.008611161397353em" x="15.384615384615385em" y="23.991388838602646em" fill="#aaa"/><rect width="0.9615384615384616em" height="10.156134751586121em" x="16.346153846153847em" y="19.843865248413877em" fill="#aaa"/><rect width="0.9615384615384616em" height="10.843920300070296em" x="17.307692307692307em" y="19.156079699929705em" fill="#aaa"/><rect width="0.9615384615384616em" height="10.952139140893154em" x="18.26923076923077em" y="19.047860859106848em" fill="#aaa"/><rect width="0.9615384615384616em" height="7.216516594824612em" x="19.23076923076923em" y="22.78348340517539em" fill="#aaa"/><rect width="0.9615384615384616em" height="6.867358473500199em" x="20.192307692307693em" y="23.1326415264998em" fill="#aaa"/><rect width="0.9615384615384616em" height="9.69629374236499em" x="21.153846153846153em" y="20.30370625763501em" fill="#aaa"/><rect width="0.9615384615384616em" height="4.440901643165015em" x="22.115384615384617em" y="25.559098356834987em" fill="#aaa"/><rect width="0.9615384615384616em" height="8.415534016743639em" x="23.076923076923077em" y="21.58446598325636em" fill="#aaa"/><rect width="0.9615384615384616em" height="12.040565558981081em" x="24.03846153846154em" y="17.95943444101892em" fill="#aaa"/><rect width="0.9615384615384616em" height="15.24734318337564em" x="25em" y="14.75265681662436em" fill="#aaa"/><rect width="0.9615384615384616em" height="16.003911861372718em" x="25.961538461538463em" y="13.996088138627282em" fill="#aaa"/><rect width="0.9615384615384616em" height="12.686326583495221em" x="26.923076923076923em" y="17.313673416504777em" fill="#aaa"/><rect width="0.9615384615384616em" height="12.290205850328682em" x="27.884615384615387em" y="17.709794149671318em" fill="#aaa"/><rect width="0.9615384615384616em" height="12.664925697861412em" x="28.846153846153847em" y="17.335074302138587em" fill="#aaa"/><rect width="0.9615384615384616em" height="11.43602440947979em" x="29.80769230769231em" y="18.563975590520208em" fill="#aaa"/><rect width="0.9615384615384616em" height="13.786281657364741em" x="30.76923076923077em" y="16.21371834263526em" fill="#aaa"/><rect width="0.9615384615384616em" height="14.756375294821705em" x="31.73076923076923em" y="15.243624705178295em" fill="#aaa"/><rect width="0.9615384615384616em" height="12.892790156555183em" x="32.69230769230769em" y="17.107209843444817em" fill="#aaa"/><rect width="0.9615384615384616em" height="14.833702148991797em" x="33.65384615384615em" y="15.166297851008203em" fill="#aaa"/><rect width="0.9615384615384616em" height="13.929234147421447em" x="34.61538461538461em" y="16.070765852578553em" fill="#aaa"/><rect width="0.9615384615384616em" height="20.838771152447404em" x="35.57692307692308em" y="9.161228847552596em" fill="#aaa"/><rect width="0.9615384615384616em" height="25.7423476059678em" x="36.53846153846154em" y="4.257652394032199em" fill="#aaa"/><rect width="0.9615384615384616em" height="21.508465500148073em" x="37.5em" y="8.491534499851927em" fill="#aaa"/><rect width="0.9615384615384616em" height="20.287347107415986em" x="38.46153846153846em" y="9.712652892584014em" fill="#aaa"/><rect width="0.9615384615384616em" height="19.689801601436233em" x="39.42307692307693em" y="10.310198398563767em" fill="#aaa"/><rect width="0.9615384615384616em" height="22.780397343761464em" x="40.38461538461539em" y="7.219602656238536em" fill="#aaa"/><rect width="0.9615384615384616em" height="21.27011393203805em" x="41.34615384615385em" y="8.72988606796195em" fill="#aaa"/><rect width="0.9615384615384616em" height="21.452305793884882em" x="42.30769230769231em" y="8.547694206115118em" fill="#aaa"/><rect width="0.9615384615384616em" height="13.428417873208941em" x="43.269230769230774em" y="16.571582126791057em" fill="#aaa"/><rect width="0.9615384615384616em" height="21.01947640395837em" x="44.23076923076923em" y="8.980523596041628em" fill="#aaa"/><rect width="0.9615384615384616em" height="25.560638648187084em" x="45.19230769230769em" y="4.4393613518129165em" fill="#aaa"/><rect width="0.9615384615384616em" height="23.94130897581113em" x="46.15384615384615em" y="6.058691024188871em" fill="#aaa"/><rect width="0.9615384615384616em" height="18.507987235225084em" x="47.11538461538461em" y="11.492012764774916em" fill="#aaa"/><rect width="0.9615384615384616em" height="21.39631013043609em" x="48.07692307692308em" y="8.603689869563912em" fill="#aaa"/><rect width="0.9615384615384616em" height="24.78981406745589em" x="49.03846153846154em" y="5.21018593254411em" fill="#aaa"/><rect width="0.9615384615384616em" height="24.76306230404991em" x="50em" y="5.23693769595009em" fill="#aaa"/><rect width="0.9615384615384616em" height="23.845094782630937em" x="50.96153846153846em" y="6.154905217369063em" fill="#aaa"/><rect width="0.9615384615384616em" height="27.570969013339752em" x="51.92307692307693em" y="2.4290309866602477em" fill="#aaa"/><rect width="0.9615384615384616em" height="23.864293186826753em" x="52.88461538461539em" y="6.135706813173247em" fill="#aaa"/><rect width="0.9615384615384616em" height="18.638137848578914em" x="53.84615384615385em" y="11.361862151421086em" fill="#aaa"/><rect width="0.9615384615384616em" height="27.23269186615672em" x="54.80769230769231em" y="2.7673081338432794em" fill="#aaa"/><rect width="0.9615384615384616em" height="24.89343750805732em" x="55.769230769230774em" y="5.106562491942679em" fill="#aaa"/><rect width="0.9615384615384616em" height="17.578215174879535em" x="56.73076923076923em" y="12.421784825120465em" fill="#aaa"/><rect width="0.9615384615384616em" height="18.055914618103365em" x="57.69230769230769em" y="11.944085381896635em" fill="#aaa"/><rect width="0.9615384615384616em" height="26.85003855144388em" x="58.65384615384615em" y="3.1499614485561196em" fill="#aaa"/><rect width="0.9615384615384616em" height="19.87110738886099em" x="59.61538461538462em" y="10.128892611139008em" fill="#aaa"/><rect width="0.9615384615384616em" height="21.81555007831526em" x="60.57692307692308em" y="8.184449921684742em" fill="#aaa"/><rect width="0.9615384615384616em" height="26.37174896543382em" x="61.53846153846154em" y="3.62825103456618em" fill="#aaa"/><rect width="0.9615384615384616em" height="20.561360191794723em" x="62.5em" y="9.438639808205277em" fill="#aaa"/><rect width="0.9615384615384616em" height="17.962401777490246em" x="63.46153846153846em" y="12.037598222509754em" fill="#aaa"/><rect width="0.9615384615384616em" height="27.727408965384342em" x="64.42307692307692em" y="2.272591034615658em" fill="#aaa"/><rect width="0.9615384615384616em" height="21.611028038663516em" x="65.38461538461539em" y="8.388971961336484em" fill="#aaa"/><rect width="0.9615384615384616em" height="30em" x="66.34615384615385em" y="0em" fill="#aaa"/><rect width="0.9615384615384616em" height="26.480844032510383em" x="67.3076923076923em" y="3.519155967489617em" fill="#aaa"/><rect width="0.9615384615384616em" height="21.118152474731602em" x="68.26923076923077em" y="8.881847525268398em" fill="#aaa"/><rect width="0.9615384615384616em" height="25.446591066479016em" x="69.23076923076923em" y="4.553408933520984em" fill="#aaa"/><rect width="0.9615384615384616em" height="23.54898931371412em" x="70.1923076923077em" y="6.45101068628588em" fill="#aaa"/><rect width="0.9615384615384616em" height="24.858148330036634em" x="71.15384615384616em" y="5.141851669963366em" fill="#aaa"/><rect width="0.9615384615384616em" height="23.97072102168565em" x="72.11538461538461em" y="6.029278978314348em" fill="#aaa"/><rect width="0.9615384615384616em" height="26.039448460181422em" x="73.07692307692308em" y="3.960551539818578em" fill="#aaa"/><rect width="0.9615384615384616em" height="26.41973553195348em" x="74.03846153846155em" y="3.5802644680465185em" fill="#aaa"/><rect width="0.9615384615384616em" height="26.228989007275576em" x="75em" y="3.771010992724424em" fill="#aaa"/><rect width="0.9615384615384616em" height="29.270737421798707em" x="75.96153846153847em" y="0.7292625782012934em" fill="#aaa"/><rect width="0.9615384615384616em" height="26.918679758756596em" x="76.92307692307692em" y="3.0813202412434038em" fill="#aaa"/><rect width="0.9615384615384616em" height="23.236393920582774em" x="77.88461538461539em" y="6.763606079417226em" fill="#aaa"/><rect width="0.9615384615384616em" height="22.49564519977629em" x="78.84615384615385em" y="7.504354800223709em" fill="#aaa"/><rect width="0.9615384615384616em" height="21.892052890269625em" x="79.8076923076923em" y="8.107947109730375em" fill="#aaa"/><rect width="0.9615384615384616em" height="20.969179448579386em" x="80.76923076923077em" y="9.030820551420614em" fill="#aaa"/><rect width="0.9615384615384616em" height="20.072698951048668em" x="81.73076923076923em" y="9.927301048951332em" fill="#aaa"/><rect width="0.9615384615384616em" height="19.34450284473936em" x="82.6923076923077em" y="10.65549715526064em" fill="#aaa"/><rect width="0.9615384615384616em" height="19.08104350947453em" x="83.65384615384616em" y="10.91895649052547em" fill="#aaa"/><rect width="0.9615384615384616em" height="21.572345829499525em" x="84.61538461538461em" y="8.427654170500475em" fill="#aaa"/><rect width="0.9615384615384616em" height="18.555946597702675em" x="85.57692307692308em" y="11.444053402297325em" fill="#aaa"/><rect width="0.9615384615384616em" height="23.278338677130993em" x="86.53846153846155em" y="6.721661322869007em" fill="#aaa"/><rect width="0.9615384615384616em" height="18.398911442399555em" x="87.5em" y="11.601088557600445em" fill="#aaa"/><rect width="0.9615384615384616em" height="16.23796935540577em" x="88.46153846153847em" y="13.76203064459423em" fill="#aaa"/><rect width="0.9615384615384616em" height="17.91503085416775em" x="89.42307692307692em" y="12.08496914583225em" fill="#aaa"/><rect width="0.9615384615384616em" height="18.38460993103396em" x="90.38461538461539em" y="11.61539006896604em" fill="#aaa"/><rect width="0.9615384615384616em" height="17.287396185142146em" x="91.34615384615385em" y="12.712603814857854em" fill="#aaa"/><rect width="0.9615384615384616em" height="16.012060018971482em" x="92.3076923076923em" y="13.987939981028518em" fill="#aaa"/><rect width="0.9615384615384616em" height="15.654508067423397em" x="93.26923076923077em" y="14.345491932576603em" fill="#aaa"/><rect width="0.9615384615384616em" height="16.853495312151217em" x="94.23076923076923em" y="13.146504687848783em" fill="#aaa"/><rect width="0.9615384615384616em" height="15.362905929823711em" x="95.1923076923077em" y="14.637094070176289em" fill="#aaa"/><rect width="0.9615384615384616em" height="13.286508737154259em" x="96.15384615384616em" y="16.713491262845743em" fill="#aaa"/><rect width="0.9615384615384616em" height="19.00727150601434em" x="97.11538461538461em" y="10.992728493985659em" fill="#aaa"/><rect width="0.9615384615384616em" height="16.38305764137114em" x="98.07692307692308em" y="13.616942358628862em" fill="#aaa"/><rect width="0.9615384615384616em" height="16.775464213519168em" x="99.03846153846155em" y="13.224535786480832em" fill="#aaa"/></svg>