<?xml version="1.0" standalone="no"?>
<svg xmlns:xlink="http://www.w3.org/1999/xlink" xmlns="http://www.w3.org/2000/svg" class="topic-graph" style="width: 10vw; height: 3em; text-align: center;"><rect width="0.09615384615384616em" height="0.38757283582954716em" x="0vw" y="2.6124271641704526em" fill="#aaa"/><rect width="0.09615384615384616em" height="0.7034490547812111em" x="0.09615384615384616vw" y="2.296550945218789em" fill="#aaa"/><rect width="0.09615384615384616em" height="0.39507408141345546em" x="0.19230769230769232vw" y="2.6049259185865443em" fill="#aaa"/><rect width="0.09615384615384616em" height="1.0072106911164909em" x="0.2884615384615385vw" y="1.9927893088835091em" fill="#aaa"/><rect width="0.09615384615384616em" height="0.7208156094419274em" x="0.38461538461538464vw" y="2.279184390558073em" fill="#aaa"/><rect width="0.09615384615384616em" height="0.9108483114315046em" x="0.4807692307692308vw" y="2.0891516885684953em" fill="#aaa"/><rect width="0.09615384615384616em" height="0.37844613361208096em" x="0.576923076923077vw" y="2.621553866387919em" fill="#aaa"/><rect width="0.09615384615384616em" height="0.12569442897624003em" x="0.6730769230769231vw" y="2.87430557102376em" fill="#aaa"/><rect width="0.09615384615384616em" height="1.0068513129166679em" x="0.7692307692307693vw" y="1.9931486870833321em" fill="#aaa"/><rect width="0.09615384615384616em" height="0.6063547985679008em" x="0.8653846153846154vw" y="2.3936452014320992em" fill="#aaa"/><rect width="0.09615384615384616em" height="1.206475174960292em" x="0.9615384615384616vw" y="1.793524825039708em" fill="#aaa"/><rect width="0.09615384615384616em" height="0.08894373124207137em" x="1.0576923076923077vw" y="2.9110562687579287em" fill="#aaa"/><rect width="0.09615384615384616em" height="0.6690265978724329em" x="1.153846153846154vw" y="2.330973402127567em" fill="#aaa"/><rect width="0.09615384615384616em" height="0.39611730159318226em" x="1.25vw" y="2.6038826984068177em" fill="#aaa"/><rect width="0.09615384615384616em" height="0.38154166411267876em" x="1.3461538461538463vw" y="2.618458335887321em" fill="#aaa"/><rect width="0.09615384615384616em" height="0.7457887694476493em" x="1.4423076923076923vw" y="2.2542112305523507em" fill="#aaa"/><rect width="0.09615384615384616em" height="0.6818726606490851em" x="1.5384615384615385vw" y="2.318127339350915em" fill="#aaa"/><rect width="0.09615384615384616em" height="0.5365628420441494em" x="1.6346153846153848vw" y="2.4634371579558505em" fill="#aaa"/><rect width="0.09615384615384616em" height="0.6125875175222456em" x="1.7307692307692308vw" y="2.3874124824777545em" fill="#aaa"/><rect width="0.09615384615384616em" height="1.5821710671076872em" x="1.826923076923077vw" y="1.4178289328923128em" fill="#aaa"/><rect width="0.09615384615384616em" height="1.3904561144780616em" x="1.9230769230769231vw" y="1.6095438855219384em" fill="#aaa"/><rect width="0.09615384615384616em" height="0.16819642997439618em" x="2.019230769230769vw" y="2.831803570025604em" fill="#aaa"/><rect width="0.09615384615384616em" height="0.4153298365231948em" x="2.1153846153846154vw" y="2.5846701634768054em" fill="#aaa"/><rect width="0.09615384615384616em" height="0.6275976884940048em" x="2.2115384615384617vw" y="2.3724023115059953em" fill="#aaa"/><rect width="0.09615384615384616em" height="0.8816977748696666em" x="2.307692307692308vw" y="2.1183022251303334em" fill="#aaa"/><rect width="0.09615384615384616em" height="0.9030850573179052em" x="2.403846153846154vw" y="2.096914942682095em" fill="#aaa"/><rect width="0.09615384615384616em" height="0.7055875525138846em" x="2.5vw" y="2.294412447486115em" fill="#aaa"/><rect width="0.09615384615384616em" height="0.6703568594946155em" x="2.5961538461538463vw" y="2.3296431405053846em" fill="#aaa"/><rect width="0.09615384615384616em" height="0.6954030207732719em" x="2.6923076923076925vw" y="2.3045969792267282em" fill="#aaa"/><rect width="0.09615384615384616em" height="1.106474676374207em" x="2.7884615384615388vw" y="1.893525323625793em" fill="#aaa"/><rect width="0.09615384615384616em" height="0.5545943218319811em" x="2.8846153846153846vw" y="2.4454056781680187em" fill="#aaa"/><rect width="0.09615384615384616em" height="1.3122363618359092em" x="2.980769230769231vw" y="1.6877636381640908em" fill="#aaa"/><rect width="0.09615384615384616em" height="0.6462901199793625em" x="3.076923076923077vw" y="2.3537098800206375em" fill="#aaa"/><rect width="0.09615384615384616em" height="1.0293694259173867em" x="3.1730769230769234vw" y="1.9706305740826133em" fill="#aaa"/><rect width="0.09615384615384616em" height="1.1821694268257237em" x="3.2692307692307696vw" y="1.8178305731742763em" fill="#aaa"/><rect width="0.09615384615384616em" height="1.3270763822133245em" x="3.3653846153846154vw" y="1.6729236177866755em" fill="#aaa"/><rect width="0.09615384615384616em" height="1.5721155201325723em" x="3.4615384615384617vw" y="1.4278844798674277em" fill="#aaa"/><rect width="0.09615384615384616em" height="0.9967188336594208em" x="3.557692307692308vw" y="2.003281166340579em" fill="#aaa"/><rect width="0.09615384615384616em" height="1.0434829296570658em" x="3.653846153846154vw" y="1.9565170703429342em" fill="#aaa"/><rect width="0.09615384615384616em" height="1.2636793695392317em" x="3.75vw" y="1.7363206304607683em" fill="#aaa"/><rect width="0.09615384615384616em" height="0.8037712087935122em" x="3.8461538461538463vw" y="2.196228791206488em" fill="#aaa"/><rect width="0.09615384615384616em" height="0.6412864853521981em" x="3.9423076923076925vw" y="2.358713514647802em" fill="#aaa"/><rect width="0.09615384615384616em" height="0.5342835718516769em" x="4.038461538461538vw" y="2.465716428148323em" fill="#aaa"/><rect width="0.09615384615384616em" height="1.0699560780149135em" x="4.134615384615385vw" y="1.9300439219850865em" fill="#aaa"/><rect width="0.09615384615384616em" height="0.6533937595483511em" x="4.230769230769231vw" y="2.346606240451649em" fill="#aaa"/><rect width="0.09615384615384616em" height="1.3187326375112323em" x="4.3269230769230775vw" y="1.6812673624887677em" fill="#aaa"/><rect width="0.09615384615384616em" height="1.1388786061850558em" x="4.423076923076923vw" y="1.8611213938149442em" fill="#aaa"/><rect width="0.09615384615384616em" height="0.7721879563645078em" x="4.519230769230769vw" y="2.2278120436354922em" fill="#aaa"/><rect width="0.09615384615384616em" height="1.2834198056147412em" x="4.615384615384616vw" y="1.7165801943852588em" fill="#aaa"/><rect width="0.09615384615384616em" height="0.912559056065126em" x="4.711538461538462vw" y="2.0874409439348742em" fill="#aaa"/><rect width="0.09615384615384616em" height="0.686934695460718em" x="4.807692307692308vw" y="2.313065304539282em" fill="#aaa"/><rect width="0.09615384615384616em" height="1.607238576555257em" x="4.903846153846154vw" y="1.392761423444743em" fill="#aaa"/><rect width="0.09615384615384616em" height="0.9398834394720698em" x="5vw" y="2.06011656052793em" fill="#aaa"/><rect width="0.09615384615384616em" height="0.9779587254377526em" x="5.096153846153847vw" y="2.0220412745622474em" fill="#aaa"/><rect width="0.09615384615384616em" height="1.167548756102734em" x="5.1923076923076925vw" y="1.832451243897266em" fill="#aaa"/><rect width="0.09615384615384616em" height="0.7834143025486894em" x="5.288461538461538vw" y="2.2165856974513107em" fill="#aaa"/><rect width="0.09615384615384616em" height="1.134713297533213em" x="5.384615384615385vw" y="1.865286702466787em" fill="#aaa"/><rect width="0.09615384615384616em" height="1.1523683591886038em" x="5.480769230769231vw" y="1.8476316408113962em" fill="#aaa"/><rect width="0.09615384615384616em" height="0.824097503812959em" x="5.5769230769230775vw" y="2.175902496187041em" fill="#aaa"/><rect width="0.09615384615384616em" height="1.311013768839854em" x="5.673076923076923vw" y="1.688986231160146em" fill="#aaa"/><rect width="0.09615384615384616em" height="0.9570581375320735em" x="5.769230769230769vw" y="2.0429418624679263em" fill="#aaa"/><rect width="0.09615384615384616em" height="0.4579088331291172em" x="5.865384615384616vw" y="2.542091166870883em" fill="#aaa"/><rect width="0.09615384615384616em" height="0.8761586958769485em" x="5.961538461538462vw" y="2.1238413041230517em" fill="#aaa"/><rect width="0.09615384615384616em" height="0.8658204940215081em" x="6.057692307692308vw" y="2.134179505978492em" fill="#aaa"/><rect width="0.09615384615384616em" height="0.8679043308648426em" x="6.153846153846154vw" y="2.1320956691351576em" fill="#aaa"/><rect width="0.09615384615384616em" height="1.6045916654236345em" x="6.25vw" y="1.3954083345763655em" fill="#aaa"/><rect width="0.09615384615384616em" height="1.043412537698252em" x="6.346153846153847vw" y="1.956587462301748em" fill="#aaa"/><rect width="0.09615384615384616em" height="1.7089750242939328em" x="6.4423076923076925vw" y="1.2910249757060672em" fill="#aaa"/><rect width="0.09615384615384616em" height="3em" x="6.538461538461539vw" y="0em" fill="#aaa"/><rect width="0.09615384615384616em" height="2.640823861753412em" x="6.634615384615385vw" y="0.3591761382465881em" fill="#aaa"/><rect width="0.09615384615384616em" height="2.6333815153550653em" x="6.730769230769231vw" y="0.36661848464493474em" fill="#aaa"/><rect width="0.09615384615384616em" height="2.0216622674612608em" x="6.8269230769230775vw" y="0.9783377325387392em" fill="#aaa"/><rect width="0.09615384615384616em" height="1.239011140946412em" x="6.923076923076923vw" y="1.760988859053588em" fill="#aaa"/><rect width="0.09615384615384616em" height="1.114926129083203em" x="7.01923076923077vw" y="1.885073870916797em" fill="#aaa"/><rect width="0.09615384615384616em" height="1.344475195410688em" x="7.115384615384616vw" y="1.655524804589312em" fill="#aaa"/><rect width="0.09615384615384616em" height="0.5897547178698378em" x="7.211538461538462vw" y="2.410245282130162em" fill="#aaa"/><rect width="0.09615384615384616em" height="1.114740109646401em" x="7.307692307692308vw" y="1.885259890353599em" fill="#aaa"/><rect width="0.09615384615384616em" height="1.3104384075517161em" x="7.403846153846154vw" y="1.6895615924482839em" fill="#aaa"/><rect width="0.09615384615384616em" height="1.1191879913785734em" x="7.5vw" y="1.8808120086214266em" fill="#aaa"/><rect width="0.09615384615384616em" height="0.8279577541898171em" x="7.596153846153847vw" y="2.172042245810183em" fill="#aaa"/><rect width="0.09615384615384616em" height="0.46870072817469877em" x="7.6923076923076925vw" y="2.531299271825301em" fill="#aaa"/><rect width="0.09615384615384616em" height="0.8093492723522193em" x="7.788461538461539vw" y="2.190650727647781em" fill="#aaa"/><rect width="0.09615384615384616em" height="0.9227830103252116em" x="7.884615384615385vw" y="2.0772169896747883em" fill="#aaa"/><rect width="0.09615384615384616em" height="1.2896909290019494em" x="7.980769230769231vw" y="1.7103090709980506em" fill="#aaa"/><rect width="0.09615384615384616em" height="1.1157075810541492em" x="8.076923076923077vw" y="1.8842924189458508em" fill="#aaa"/><rect width="0.09615384615384616em" height="1.2905106130085935em" x="8.173076923076923vw" y="1.7094893869914065em" fill="#aaa"/><rect width="0.09615384615384616em" height="0.8013718761651677em" x="8.26923076923077vw" y="2.1986281238348324em" fill="#aaa"/><rect width="0.09615384615384616em" height="0.604678760808222em" x="8.365384615384615vw" y="2.395321239191778em" fill="#aaa"/><rect width="0.09615384615384616em" height="0.7214644039912508em" x="8.461538461538462vw" y="2.278535596008749em" fill="#aaa"/><rect width="0.09615384615384616em" height="1.1684114968747346em" x="8.557692307692308vw" y="1.8315885031252654em" fill="#aaa"/><rect width="0.09615384615384616em" height="0.9699933174971476em" x="8.653846153846155vw" y="2.0300066825028527em" fill="#aaa"/><rect width="0.09615384615384616em" height="0.9311420707031209em" x="8.75vw" y="2.068857929296879em" fill="#aaa"/><rect width="0.09615384615384616em" height="0.9152359340782714em" x="8.846153846153847vw" y="2.0847640659217284em" fill="#aaa"/><rect width="0.09615384615384616em" height="0.48534723245556677em" x="8.942307692307693vw" y="2.5146527675444332em" fill="#aaa"/><rect width="0.09615384615384616em" height="0.9522905487590868em" x="9.038461538461538vw" y="2.0477094512409133em" fill="#aaa"/><rect width="0.09615384615384616em" height="0.8057787393397695em" x="9.134615384615385vw" y="2.1942212606602305em" fill="#aaa"/><rect width="0.09615384615384616em" height="0.9883094279720165em" x="9.230769230769232vw" y="2.0116905720279834em" fill="#aaa"/><rect width="0.09615384615384616em" height="0.9459271944382653em" x="9.326923076923077vw" y="2.0540728055617348em" fill="#aaa"/><rect width="0.09615384615384616em" height="0.6798305141607988em" x="9.423076923076923vw" y="2.3201694858392012em" fill="#aaa"/><rect width="0.09615384615384616em" height="0.7342980802169508em" x="9.51923076923077vw" y="2.2657019197830492em" fill="#aaa"/><rect width="0.09615384615384616em" height="0.7088780569026026em" x="9.615384615384617vw" y="2.2911219430973975em" fill="#aaa"/><rect width="0.09615384615384616em" height="1.0730509033468123em" x="9.711538461538462vw" y="1.9269490966531877em" fill="#aaa"/><rect width="0.09615384615384616em" height="1.010062424666115em" x="9.807692307692308vw" y="1.989937575333885em" fill="#aaa"/><rect width="0.09615384615384616em" height="0.968477139903639em" x="9.903846153846155vw" y="2.031522860096361em" fill="#aaa"/></svg>