<?xml version="1.0" standalone="no"?>
<svg xmlns:xlink="http://www.w3.org/1999/xlink" xmlns="http://www.w3.org/2000/svg" class="topic-graph" style="width: 100em; height: 30em; text-align: center;"><rect width="0.9615384615384616em" height="1.1683361867305615em" x="0em" y="28.83166381326944em" fill="#aaa"/><rect width="0.9615384615384616em" height="0.6258161128456041em" x="0.9615384615384616em" y="29.374183887154395em" fill="#aaa"/><rect width="0.9615384615384616em" height="6.452246842054024em" x="1.9230769230769231em" y="23.547753157945976em" fill="#aaa"/><rect width="0.9615384615384616em" height="2.5626042502698705em" x="2.8846153846153846em" y="27.43739574973013em" fill="#aaa"/><rect width="0.9615384615384616em" height="6.378189638809829em" x="3.8461538461538463em" y="23.62181036119017em" fill="#aaa"/><rect width="0.9615384615384616em" height="30em" x="4.8076923076923075em" y="0em" fill="#aaa"/><rect width="0.9615384615384616em" height="4.859660271824474em" x="5.769230769230769em" y="25.140339728175526em" fill="#aaa"/><rect width="0.9615384615384616em" height="4.2785291837714805em" x="6.730769230769231em" y="25.721470816228518em" fill="#aaa"/><rect width="0.9615384615384616em" height="2.358402464730461em" x="7.6923076923076925em" y="27.64159753526954em" fill="#aaa"/><rect width="0.9615384615384616em" height="13.533562299491452em" x="8.653846153846153em" y="16.46643770050855em" fill="#aaa"/><rect width="0.9615384615384616em" height="2.14833398203538em" x="9.615384615384615em" y="27.851666017964618em" fill="#aaa"/><rect width="0.9615384615384616em" height="11.1298601421408em" x="10.576923076923077em" y="18.8701398578592em" fill="#aaa"/><rect width="0.9615384615384616em" height="2.6970547384350083em" x="11.538461538461538em" y="27.302945261564993em" fill="#aaa"/><rect width="0.9615384615384616em" height="2.0888014334153313em" x="12.5em" y="27.91119856658467em" fill="#aaa"/><rect width="0.9615384615384616em" height="1.2207789391210717em" x="13.461538461538462em" y="28.77922106087893em" fill="#aaa"/><rect width="0.9615384615384616em" height="4.163520466373725em" x="14.423076923076923em" y="25.836479533626274em" fill="#aaa"/><rect width="0.9615384615384616em" height="1.1627284235788995em" x="15.384615384615385em" y="28.837271576421102em" fill="#aaa"/><rect width="0.9615384615384616em" height="0.41687404244837084em" x="16.346153846153847em" y="29.58312595755163em" fill="#aaa"/><rect width="0.9615384615384616em" height="4.084266013052088em" x="17.307692307692307em" y="25.915733986947913em" fill="#aaa"/><rect width="0.9615384615384616em" height="4.638563740366799em" x="18.26923076923077em" y="25.3614362596332em" fill="#aaa"/><rect width="0.9615384615384616em" height="2.1852189193522236em" x="19.23076923076923em" y="27.814781080647776em" fill="#aaa"/><rect width="0.9615384615384616em" height="0.28067878696234033em" x="20.192307692307693em" y="29.71932121303766em" fill="#aaa"/><rect width="0.9615384615384616em" height="1.2320197980282341em" x="21.153846153846153em" y="28.767980201971767em" fill="#aaa"/><rect width="0.9615384615384616em" height="0.3407618937978011em" x="22.115384615384617em" y="29.6592381062022em" fill="#aaa"/><rect width="0.9615384615384616em" height="5.412951506963305em" x="23.076923076923077em" y="24.587048493036697em" fill="#aaa"/><rect width="0.9615384615384616em" height="2.6425679264913944em" x="24.03846153846154em" y="27.357432073508605em" fill="#aaa"/><rect width="0.9615384615384616em" height="0.41746517849938103em" x="25em" y="29.58253482150062em" fill="#aaa"/><rect width="0.9615384615384616em" height="2.0014687779337894em" x="25.961538461538463em" y="27.998531222066212em" fill="#aaa"/><rect width="0.9615384615384616em" height="4.174143179228444em" x="26.923076923076923em" y="25.825856820771556em" fill="#aaa"/><rect width="0.9615384615384616em" height="1.4076884734966941em" x="27.884615384615387em" y="28.592311526503305em" fill="#aaa"/><rect width="0.9615384615384616em" height="0.17671734645800952em" x="28.846153846153847em" y="29.82328265354199em" fill="#aaa"/><rect width="0.9615384615384616em" height="1.140731449639729em" x="29.80769230769231em" y="28.85926855036027em" fill="#aaa"/><rect width="0.9615384615384616em" height="1.7112093407312419em" x="30.76923076923077em" y="28.28879065926876em" fill="#aaa"/><rect width="0.9615384615384616em" height="4.290304773188833em" x="31.73076923076923em" y="25.709695226811167em" fill="#aaa"/><rect width="0.9615384615384616em" height="4.084384524749102em" x="32.69230769230769em" y="25.9156154752509em" fill="#aaa"/><rect width="0.9615384615384616em" height="3.338282612078548em" x="33.65384615384615em" y="26.661717387921453em" fill="#aaa"/><rect width="0.9615384615384616em" height="1.5160199540400108em" x="34.61538461538461em" y="28.48398004595999em" fill="#aaa"/><rect width="0.9615384615384616em" height="3.6773825450013504em" x="35.57692307692308em" y="26.32261745499865em" fill="#aaa"/><rect width="0.9615384615384616em" height="2.786249318998565em" x="36.53846153846154em" y="27.213750681001436em" fill="#aaa"/><rect width="0.9615384615384616em" height="1.9893022886902059em" x="37.5em" y="28.010697711309795em" fill="#aaa"/><rect width="0.9615384615384616em" height="1.8794789542046055em" x="38.46153846153846em" y="28.120521045795396em" fill="#aaa"/><rect width="0.9615384615384616em" height="1.8322142109904225em" x="39.42307692307693em" y="28.167785789009578em" fill="#aaa"/><rect width="0.9615384615384616em" height="1.8729298957777234em" x="40.38461538461539em" y="28.127070104222277em" fill="#aaa"/><rect width="0.9615384615384616em" height="0.9366691061143078em" x="41.34615384615385em" y="29.06333089388569em" fill="#aaa"/><rect width="0.9615384615384616em" height="2.9214629076375633em" x="42.30769230769231em" y="27.07853709236244em" fill="#aaa"/><rect width="0.9615384615384616em" height="0.8877262101258045em" x="43.269230769230774em" y="29.112273789874195em" fill="#aaa"/><rect width="0.9615384615384616em" height="3.816796757776571em" x="44.23076923076923em" y="26.183203242223428em" fill="#aaa"/><rect width="0.9615384615384616em" height="1.74832463326783em" x="45.19230769230769em" y="28.25167536673217em" fill="#aaa"/><rect width="0.9615384615384616em" height="0.3155127822480023em" x="46.15384615384615em" y="29.684487217751997em" fill="#aaa"/><rect width="0.9615384615384616em" height="21.835786024873094em" x="47.11538461538461em" y="8.164213975126906em" fill="#aaa"/><rect width="0.9615384615384616em" height="10.02016541298547em" x="48.07692307692308em" y="19.97983458701453em" fill="#aaa"/><rect width="0.9615384615384616em" height="3.2257461140184187em" x="49.03846153846154em" y="26.77425388598158em" fill="#aaa"/><rect width="0.9615384615384616em" height="1.7618331158842735em" x="50em" y="28.238166884115728em" fill="#aaa"/><rect width="0.9615384615384616em" height="1.7002436190675474em" x="50.96153846153846em" y="28.299756380932454em" fill="#aaa"/><rect width="0.9615384615384616em" height="2.7209297939501753em" x="51.92307692307693em" y="27.279070206049823em" fill="#aaa"/><rect width="0.9615384615384616em" height="2.00322946901555em" x="52.88461538461539em" y="27.99677053098445em" fill="#aaa"/><rect width="0.9615384615384616em" height="8.249911104243996em" x="53.84615384615385em" y="21.750088895756004em" fill="#aaa"/><rect width="0.9615384615384616em" height="12.924480687458693em" x="54.80769230769231em" y="17.075519312541307em" fill="#aaa"/><rect width="0.9615384615384616em" height="7.134265356860328em" x="55.769230769230774em" y="22.86573464313967em" fill="#aaa"/><rect width="0.9615384615384616em" height="7.439550404830407em" x="56.73076923076923em" y="22.560449595169594em" fill="#aaa"/><rect width="0.9615384615384616em" height="5.636775229794229em" x="57.69230769230769em" y="24.363224770205772em" fill="#aaa"/><rect width="0.9615384615384616em" height="4.337192819035735em" x="58.65384615384615em" y="25.662807180964265em" fill="#aaa"/><rect width="0.9615384615384616em" height="1.6928510950842128em" x="59.61538461538462em" y="28.30714890491579em" fill="#aaa"/><rect width="0.9615384615384616em" height="1.224638802733168em" x="60.57692307692308em" y="28.775361197266832em" fill="#aaa"/><rect width="0.9615384615384616em" height="0.660056957120725em" x="61.53846153846154em" y="29.339943042879273em" fill="#aaa"/><rect width="0.9615384615384616em" height="10.793904387628134em" x="62.5em" y="19.20609561237187em" fill="#aaa"/><rect width="0.9615384615384616em" height="4.62871511758831em" x="63.46153846153846em" y="25.37128488241169em" fill="#aaa"/><rect width="0.9615384615384616em" height="0.5658093841650951em" x="64.42307692307692em" y="29.434190615834904em" fill="#aaa"/><rect width="0.9615384615384616em" height="1.7529131074936937em" x="65.38461538461539em" y="28.247086892506307em" fill="#aaa"/><rect width="0.9615384615384616em" height="1.0319460877753408em" x="66.34615384615385em" y="28.968053912224658em" fill="#aaa"/><rect width="0.9615384615384616em" height="2.088465227146356em" x="67.3076923076923em" y="27.911534772853642em" fill="#aaa"/><rect width="0.9615384615384616em" height="1.4515627893562306em" x="68.26923076923077em" y="28.54843721064377em" fill="#aaa"/><rect width="0.9615384615384616em" height="13.085502164319259em" x="69.23076923076923em" y="16.91449783568074em" fill="#aaa"/><rect width="0.9615384615384616em" height="5.442977935249243em" x="70.1923076923077em" y="24.557022064750758em" fill="#aaa"/><rect width="0.9615384615384616em" height="1.8456577461657375em" x="71.15384615384616em" y="28.154342253834262em" fill="#aaa"/><rect width="0.9615384615384616em" height="0.6644867895519486em" x="72.11538461538461em" y="29.335513210448052em" fill="#aaa"/><rect width="0.9615384615384616em" height="0.9812018679111444em" x="73.07692307692308em" y="29.018798132088854em" fill="#aaa"/><rect width="0.9615384615384616em" height="1.2451874100587261em" x="74.03846153846155em" y="28.754812589941274em" fill="#aaa"/><rect width="0.9615384615384616em" height="0.7697640566998163em" x="75em" y="29.230235943300183em" fill="#aaa"/><rect width="0.9615384615384616em" height="3.525096556249011em" x="75.96153846153847em" y="26.47490344375099em" fill="#aaa"/><rect width="0.9615384615384616em" height="5.7885133396727em" x="76.92307692307692em" y="24.2114866603273em" fill="#aaa"/><rect width="0.9615384615384616em" height="1.388420341406564em" x="77.88461538461539em" y="28.611579658593435em" fill="#aaa"/><rect width="0.9615384615384616em" height="0.8323474385599482em" x="78.84615384615385em" y="29.16765256144005em" fill="#aaa"/><rect width="0.9615384615384616em" height="0.8706099575054509em" x="79.8076923076923em" y="29.12939004249455em" fill="#aaa"/><rect width="0.9615384615384616em" height="2.5441884555174994em" x="80.76923076923077em" y="27.4558115444825em" fill="#aaa"/><rect width="0.9615384615384616em" height="1.1986671565445501em" x="81.73076923076923em" y="28.801332843455448em" fill="#aaa"/><rect width="0.9615384615384616em" height="0.7063761196670495em" x="82.6923076923077em" y="29.29362388033295em" fill="#aaa"/><rect width="0.9615384615384616em" height="0.5582827308523716em" x="83.65384615384616em" y="29.441717269147627em" fill="#aaa"/><rect width="0.9615384615384616em" height="2.8673961720367793em" x="84.61538461538461em" y="27.13260382796322em" fill="#aaa"/><rect width="0.9615384615384616em" height="3.713205774849402em" x="85.57692307692308em" y="26.286794225150597em" fill="#aaa"/><rect width="0.9615384615384616em" height="1.5082727792820683em" x="86.53846153846155em" y="28.49172722071793em" fill="#aaa"/><rect width="0.9615384615384616em" height="0.819132744251265em" x="87.5em" y="29.180867255748733em" fill="#aaa"/><rect width="0.9615384615384616em" height="2.3954313471227295em" x="88.46153846153847em" y="27.60456865287727em" fill="#aaa"/><rect width="0.9615384615384616em" height="3.807878443050072em" x="89.42307692307692em" y="26.192121556949928em" fill="#aaa"/><rect width="0.9615384615384616em" height="0.500750727337328em" x="90.38461538461539em" y="29.499249272662674em" fill="#aaa"/><rect width="0.9615384615384616em" height="2.1031452845660645em" x="91.34615384615385em" y="27.896854715433935em" fill="#aaa"/><rect width="0.9615384615384616em" height="1.5622736582446453em" x="92.3076923076923em" y="28.437726341755354em" fill="#aaa"/><rect width="0.9615384615384616em" height="1.6868103181374088em" x="93.26923076923077em" y="28.313189681862593em" fill="#aaa"/><rect width="0.9615384615384616em" height="0.6543136446560102em" x="94.23076923076923em" y="29.34568635534399em" fill="#aaa"/><rect width="0.9615384615384616em" height="5.124488941842255em" x="95.1923076923077em" y="24.875511058157745em" fill="#aaa"/><rect width="0.9615384615384616em" height="0.8904589053166685em" x="96.15384615384616em" y="29.10954109468333em" fill="#aaa"/><rect width="0.9615384615384616em" height="0.6671141534900296em" x="97.11538461538461em" y="29.33288584650997em" fill="#aaa"/><rect width="0.9615384615384616em" height="1.0364221782446421em" x="98.07692307692308em" y="28.963577821755358em" fill="#aaa"/><rect width="0.9615384615384616em" height="1.136162895646886em" x="99.03846153846155em" y="28.863837104353113em" fill="#aaa"/></svg>