<?xml version="1.0" standalone="no"?>
<svg xmlns:xlink="http://www.w3.org/1999/xlink" xmlns="http://www.w3.org/2000/svg" class="topic-graph" style="width: 100em; height: 30em; text-align: center;"><rect width="0.9615384615384616em" height="1.821239665784491em" x="0em" y="28.17876033421551em" fill="#aaa"/><rect width="0.9615384615384616em" height="0.8447650171767769em" x="0.9615384615384616em" y="29.155234982823224em" fill="#aaa"/><rect width="0.9615384615384616em" height="1.15869772037942em" x="1.9230769230769231em" y="28.84130227962058em" fill="#aaa"/><rect width="0.9615384615384616em" height="4.030399317424749em" x="2.8846153846153846em" y="25.96960068257525em" fill="#aaa"/><rect width="0.9615384615384616em" height="4.533349999927571em" x="3.8461538461538463em" y="25.466650000072427em" fill="#aaa"/><rect width="0.9615384615384616em" height="0.36064232084016196em" x="4.8076923076923075em" y="29.639357679159836em" fill="#aaa"/><rect width="0.9615384615384616em" height="2.336117118769591em" x="5.769230769230769em" y="27.66388288123041em" fill="#aaa"/><rect width="0.9615384615384616em" height="1.9812809776610492em" x="6.730769230769231em" y="28.01871902233895em" fill="#aaa"/><rect width="0.9615384615384616em" height="10.971041676897292em" x="7.6923076923076925em" y="19.028958323102707em" fill="#aaa"/><rect width="0.9615384615384616em" height="8.909841732226916em" x="8.653846153846153em" y="21.090158267773084em" fill="#aaa"/><rect width="0.9615384615384616em" height="14.11621759969418em" x="9.615384615384615em" y="15.88378240030582em" fill="#aaa"/><rect width="0.9615384615384616em" height="2.665246069226355em" x="10.576923076923077em" y="27.334753930773644em" fill="#aaa"/><rect width="0.9615384615384616em" height="10.065298990094053em" x="11.538461538461538em" y="19.934701009905947em" fill="#aaa"/><rect width="0.9615384615384616em" height="3.6828264123656207em" x="12.5em" y="26.31717358763438em" fill="#aaa"/><rect width="0.9615384615384616em" height="3.110512312950259em" x="13.461538461538462em" y="26.88948768704974em" fill="#aaa"/><rect width="0.9615384615384616em" height="6.639345042114991em" x="14.423076923076923em" y="23.36065495788501em" fill="#aaa"/><rect width="0.9615384615384616em" height="4.7632525358301185em" x="15.384615384615385em" y="25.23674746416988em" fill="#aaa"/><rect width="0.9615384615384616em" height="4.96196913582178em" x="16.346153846153847em" y="25.038030864178218em" fill="#aaa"/><rect width="0.9615384615384616em" height="5.137558113717577em" x="17.307692307692307em" y="24.862441886282422em" fill="#aaa"/><rect width="0.9615384615384616em" height="11.361246835935868em" x="18.26923076923077em" y="18.638753164064134em" fill="#aaa"/><rect width="0.9615384615384616em" height="5.721648647842848em" x="19.23076923076923em" y="24.278351352157152em" fill="#aaa"/><rect width="0.9615384615384616em" height="6.108516084758468em" x="20.192307692307693em" y="23.891483915241533em" fill="#aaa"/><rect width="0.9615384615384616em" height="8.297355034633638em" x="21.153846153846153em" y="21.70264496536636em" fill="#aaa"/><rect width="0.9615384615384616em" height="11.953418290487111em" x="22.115384615384617em" y="18.04658170951289em" fill="#aaa"/><rect width="0.9615384615384616em" height="8.629594975778183em" x="23.076923076923077em" y="21.370405024221817em" fill="#aaa"/><rect width="0.9615384615384616em" height="12.712755940255901em" x="24.03846153846154em" y="17.287244059744097em" fill="#aaa"/><rect width="0.9615384615384616em" height="8.172611551687936em" x="25em" y="21.827388448312064em" fill="#aaa"/><rect width="0.9615384615384616em" height="8.834416945293508em" x="25.961538461538463em" y="21.16558305470649em" fill="#aaa"/><rect width="0.9615384615384616em" height="6.236627868883663em" x="26.923076923076923em" y="23.763372131116338em" fill="#aaa"/><rect width="0.9615384615384616em" height="7.243423036917411em" x="27.884615384615387em" y="22.756576963082587em" fill="#aaa"/><rect width="0.9615384615384616em" height="3.280206086598861em" x="28.846153846153847em" y="26.71979391340114em" fill="#aaa"/><rect width="0.9615384615384616em" height="3.86103072547247em" x="29.80769230769231em" y="26.13896927452753em" fill="#aaa"/><rect width="0.9615384615384616em" height="5.128495706852754em" x="30.76923076923077em" y="24.871504293147247em" fill="#aaa"/><rect width="0.9615384615384616em" height="3.8579871284716223em" x="31.73076923076923em" y="26.14201287152838em" fill="#aaa"/><rect width="0.9615384615384616em" height="5.970239542123323em" x="32.69230769230769em" y="24.029760457876677em" fill="#aaa"/><rect width="0.9615384615384616em" height="5.560219705715515em" x="33.65384615384615em" y="24.439780294284486em" fill="#aaa"/><rect width="0.9615384615384616em" height="7.899426887024216em" x="34.61538461538461em" y="22.100573112975784em" fill="#aaa"/><rect width="0.9615384615384616em" height="2.656887154678729em" x="35.57692307692308em" y="27.343112845321272em" fill="#aaa"/><rect width="0.9615384615384616em" height="0.8713438098475228em" x="36.53846153846154em" y="29.128656190152476em" fill="#aaa"/><rect width="0.9615384615384616em" height="3.1638885549427402em" x="37.5em" y="26.83611144505726em" fill="#aaa"/><rect width="0.9615384615384616em" height="1.8004903605697664em" x="38.46153846153846em" y="28.199509639430232em" fill="#aaa"/><rect width="0.9615384615384616em" height="3.3336835717730953em" x="39.42307692307693em" y="26.666316428226907em" fill="#aaa"/><rect width="0.9615384615384616em" height="6.045737943939622em" x="40.38461538461539em" y="23.95426205606038em" fill="#aaa"/><rect width="0.9615384615384616em" height="3.7829922620132423em" x="41.34615384615385em" y="26.21700773798676em" fill="#aaa"/><rect width="0.9615384615384616em" height="4.604534074692453em" x="42.30769230769231em" y="25.395465925307548em" fill="#aaa"/><rect width="0.9615384615384616em" height="10.751494884137095em" x="43.269230769230774em" y="19.248505115862905em" fill="#aaa"/><rect width="0.9615384615384616em" height="30em" x="44.23076923076923em" y="0em" fill="#aaa"/><rect width="0.9615384615384616em" height="20.521224212013312em" x="45.19230769230769em" y="9.478775787986688em" fill="#aaa"/><rect width="0.9615384615384616em" height="9.556425706716583em" x="46.15384615384615em" y="20.44357429328342em" fill="#aaa"/><rect width="0.9615384615384616em" height="7.2540212260303365em" x="47.11538461538461em" y="22.745978773969664em" fill="#aaa"/><rect width="0.9615384615384616em" height="5.9044214296668756em" x="48.07692307692308em" y="24.095578570333124em" fill="#aaa"/><rect width="0.9615384615384616em" height="7.8118242023351065em" x="49.03846153846154em" y="22.188175797664893em" fill="#aaa"/><rect width="0.9615384615384616em" height="7.50424290986134em" x="50em" y="22.49575709013866em" fill="#aaa"/><rect width="0.9615384615384616em" height="5.840050997209618em" x="50.96153846153846em" y="24.159949002790384em" fill="#aaa"/><rect width="0.9615384615384616em" height="4.253688328594298em" x="51.92307692307693em" y="25.746311671405703em" fill="#aaa"/><rect width="0.9615384615384616em" height="3.9708885754588503em" x="52.88461538461539em" y="26.02911142454115em" fill="#aaa"/><rect width="0.9615384615384616em" height="5.660994417338825em" x="53.84615384615385em" y="24.339005582661173em" fill="#aaa"/><rect width="0.9615384615384616em" height="5.8883814023352015em" x="54.80769230769231em" y="24.111618597664798em" fill="#aaa"/><rect width="0.9615384615384616em" height="1.9899381639409637em" x="55.769230769230774em" y="28.010061836059037em" fill="#aaa"/><rect width="0.9615384615384616em" height="6.0751587337618815em" x="56.73076923076923em" y="23.92484126623812em" fill="#aaa"/><rect width="0.9615384615384616em" height="7.0979826359952165em" x="57.69230769230769em" y="22.902017364004784em" fill="#aaa"/><rect width="0.9615384615384616em" height="4.442023029549368em" x="58.65384615384615em" y="25.557976970450632em" fill="#aaa"/><rect width="0.9615384615384616em" height="5.446290277167623em" x="59.61538461538462em" y="24.553709722832377em" fill="#aaa"/><rect width="0.9615384615384616em" height="4.4368307076238em" x="60.57692307692308em" y="25.5631692923762em" fill="#aaa"/><rect width="0.9615384615384616em" height="2.6716678592677816em" x="61.53846153846154em" y="27.32833214073222em" fill="#aaa"/><rect width="0.9615384615384616em" height="4.348982764004592em" x="62.5em" y="25.651017235995408em" fill="#aaa"/><rect width="0.9615384615384616em" height="3.474897467834915em" x="63.46153846153846em" y="26.525102532165086em" fill="#aaa"/><rect width="0.9615384615384616em" height="3.735323822999839em" x="64.42307692307692em" y="26.26467617700016em" fill="#aaa"/><rect width="0.9615384615384616em" height="5.004482537736889em" x="65.38461538461539em" y="24.99551746226311em" fill="#aaa"/><rect width="0.9615384615384616em" height="2.7225086506436877em" x="66.34615384615385em" y="27.27749134935631em" fill="#aaa"/><rect width="0.9615384615384616em" height="3.725198406942201em" x="67.3076923076923em" y="26.2748015930578em" fill="#aaa"/><rect width="0.9615384615384616em" height="2.9195323297143383em" x="68.26923076923077em" y="27.08046767028566em" fill="#aaa"/><rect width="0.9615384615384616em" height="4.322598687886173em" x="69.23076923076923em" y="25.677401312113826em" fill="#aaa"/><rect width="0.9615384615384616em" height="0.8017579925749557em" x="70.1923076923077em" y="29.198242007425044em" fill="#aaa"/><rect width="0.9615384615384616em" height="1.768101228260862em" x="71.15384615384616em" y="28.23189877173914em" fill="#aaa"/><rect width="0.9615384615384616em" height="1.4736296974311043em" x="72.11538461538461em" y="28.526370302568896em" fill="#aaa"/><rect width="0.9615384615384616em" height="2.6296232457929523em" x="73.07692307692308em" y="27.370376754207047em" fill="#aaa"/><rect width="0.9615384615384616em" height="1.5608332680983672em" x="74.03846153846155em" y="28.439166731901633em" fill="#aaa"/><rect width="0.9615384615384616em" height="2.1906169083538183em" x="75em" y="27.809383091646183em" fill="#aaa"/><rect width="0.9615384615384616em" height="2.7550666112322797em" x="75.96153846153847em" y="27.24493338876772em" fill="#aaa"/><rect width="0.9615384615384616em" height="1.6868444653650028em" x="76.92307692307692em" y="28.313155534634998em" fill="#aaa"/><rect width="0.9615384615384616em" height="1.3921522097304728em" x="77.88461538461539em" y="28.607847790269528em" fill="#aaa"/><rect width="0.9615384615384616em" height="2.5299056842911813em" x="78.84615384615385em" y="27.47009431570882em" fill="#aaa"/><rect width="0.9615384615384616em" height="2.0097080826355795em" x="79.8076923076923em" y="27.99029191736442em" fill="#aaa"/><rect width="0.9615384615384616em" height="1.0095488291409165em" x="80.76923076923077em" y="28.99045117085908em" fill="#aaa"/><rect width="0.9615384615384616em" height="1.608329394743058em" x="81.73076923076923em" y="28.39167060525694em" fill="#aaa"/><rect width="0.9615384615384616em" height="0.72624211298158em" x="82.6923076923077em" y="29.27375788701842em" fill="#aaa"/><rect width="0.9615384615384616em" height="1.1529554000280284em" x="83.65384615384616em" y="28.847044599971973em" fill="#aaa"/><rect width="0.9615384615384616em" height="1.7626525331457772em" x="84.61538461538461em" y="28.237347466854224em" fill="#aaa"/><rect width="0.9615384615384616em" height="0.9409421416909094em" x="85.57692307692308em" y="29.05905785830909em" fill="#aaa"/><rect width="0.9615384615384616em" height="1.0041955495830284em" x="86.53846153846155em" y="28.995804450416973em" fill="#aaa"/><rect width="0.9615384615384616em" height="1.427627780348104em" x="87.5em" y="28.572372219651896em" fill="#aaa"/><rect width="0.9615384615384616em" height="0.9239763716630067em" x="88.46153846153847em" y="29.076023628336994em" fill="#aaa"/><rect width="0.9615384615384616em" height="0.7502577326681557em" x="89.42307692307692em" y="29.249742267331843em" fill="#aaa"/><rect width="0.9615384615384616em" height="1.580644618078473em" x="90.38461538461539em" y="28.419355381921527em" fill="#aaa"/><rect width="0.9615384615384616em" height="1.6519730645345283em" x="91.34615384615385em" y="28.348026935465473em" fill="#aaa"/><rect width="0.9615384615384616em" height="1.2214484967612296em" x="92.3076923076923em" y="28.77855150323877em" fill="#aaa"/><rect width="0.9615384615384616em" height="1.3967829666777405em" x="93.26923076923077em" y="28.60321703332226em" fill="#aaa"/><rect width="0.9615384615384616em" height="1.4152874346354982em" x="94.23076923076923em" y="28.5847125653645em" fill="#aaa"/><rect width="0.9615384615384616em" height="1.5088836079077506em" x="95.1923076923077em" y="28.49111639209225em" fill="#aaa"/><rect width="0.9615384615384616em" height="1.5423347212039624em" x="96.15384615384616em" y="28.45766527879604em" fill="#aaa"/><rect width="0.9615384615384616em" height="1.179406359785546em" x="97.11538461538461em" y="28.820593640214454em" fill="#aaa"/><rect width="0.9615384615384616em" height="1.348629807016656em" x="98.07692307692308em" y="28.651370192983343em" fill="#aaa"/><rect width="0.9615384615384616em" height="0.8356651523935243em" x="99.03846153846155em" y="29.164334847606476em" fill="#aaa"/></svg>