<?xml version="1.0" standalone="no"?>
<svg xmlns:xlink="http://www.w3.org/1999/xlink" xmlns="http://www.w3.org/2000/svg" class="topic-graph" style="width: 10vw; height: 3em; text-align: center;"><rect width="0.09615384615384616em" height="0.08480791523295199em" x="0vw" y="2.915192084767048em" fill="#aaa"/><rect width="0.09615384615384616em" height="0.08672953801825928em" x="0.09615384615384616vw" y="2.9132704619817407em" fill="#aaa"/><rect width="0.09615384615384616em" height="0.09046985303872257em" x="0.19230769230769232vw" y="2.9095301469612775em" fill="#aaa"/><rect width="0.09615384615384616em" height="0.09415859759296108em" x="0.2884615384615385vw" y="2.905841402407039em" fill="#aaa"/><rect width="0.09615384615384616em" height="0.2033605472072007em" x="0.38461538461538464vw" y="2.796639452792799em" fill="#aaa"/><rect width="0.09615384615384616em" height="0.0324859475880794em" x="0.4807692307692308vw" y="2.9675140524119206em" fill="#aaa"/><rect width="0.09615384615384616em" height="0.08271887505174803em" x="0.576923076923077vw" y="2.9172811249482518em" fill="#aaa"/><rect width="0.09615384615384616em" height="0.004893558269281447em" x="0.6730769230769231vw" y="2.9951064417307185em" fill="#aaa"/><rect width="0.09615384615384616em" height="0.2838635925408189em" x="0.7692307692307693vw" y="2.716136407459181em" fill="#aaa"/><rect width="0.09615384615384616em" height="0.5820117867839506em" x="0.8653846153846154vw" y="2.4179882132160495em" fill="#aaa"/><rect width="0.09615384615384616em" height="0.481976067585324em" x="0.9615384615384616vw" y="2.518023932414676em" fill="#aaa"/><rect width="0.09615384615384616em" height="0.05520054643008658em" x="1.0576923076923077vw" y="2.9447994535699134em" fill="#aaa"/><rect width="0.09615384615384616em" height="0.2926078249714604em" x="1.153846153846154vw" y="2.7073921750285397em" fill="#aaa"/><rect width="0.09615384615384616em" height="3em" x="1.25vw" y="0em" fill="#aaa"/><rect width="0.09615384615384616em" height="1.1215258874308196em" x="1.3461538461538463vw" y="1.8784741125691804em" fill="#aaa"/><rect width="0.09615384615384616em" height="2.143984031212613em" x="1.4423076923076923vw" y="0.856015968787387em" fill="#aaa"/><rect width="0.09615384615384616em" height="0.7444600433445165em" x="1.5384615384615385vw" y="2.2555399566554835em" fill="#aaa"/><rect width="0.09615384615384616em" height="1.2503618414937268em" x="1.6346153846153848vw" y="1.7496381585062732em" fill="#aaa"/><rect width="0.09615384615384616em" height="0.2859517149262336em" x="1.7307692307692308vw" y="2.7140482850737664em" fill="#aaa"/><rect width="0.09615384615384616em" height="0.1566487226841979em" x="1.826923076923077vw" y="2.843351277315802em" fill="#aaa"/><rect width="0.09615384615384616em" height="0.4575560543806616em" x="1.9230769230769231vw" y="2.5424439456193384em" fill="#aaa"/><rect width="0.09615384615384616em" height="0.6258791538572135em" x="2.019230769230769vw" y="2.3741208461427865em" fill="#aaa"/><rect width="0.09615384615384616em" height="0.26710876870326505em" x="2.1153846153846154vw" y="2.732891231296735em" fill="#aaa"/><rect width="0.09615384615384616em" height="0.2593426864634458em" x="2.2115384615384617vw" y="2.740657313536554em" fill="#aaa"/><rect width="0.09615384615384616em" height="0.145329938620887em" x="2.307692307692308vw" y="2.854670061379113em" fill="#aaa"/><rect width="0.09615384615384616em" height="0.33264973583023866em" x="2.403846153846154vw" y="2.6673502641697615em" fill="#aaa"/><rect width="0.09615384615384616em" height="0.4361841259950369em" x="2.5vw" y="2.563815874004963em" fill="#aaa"/><rect width="0.09615384615384616em" height="0.7726582041179662em" x="2.5961538461538463vw" y="2.227341795882034em" fill="#aaa"/><rect width="0.09615384615384616em" height="0.41036658433635775em" x="2.6923076923076925vw" y="2.5896334156636422em" fill="#aaa"/><rect width="0.09615384615384616em" height="0.2968360438096934em" x="2.7884615384615388vw" y="2.7031639561903065em" fill="#aaa"/><rect width="0.09615384615384616em" height="0.3349706134673278em" x="2.8846153846153846vw" y="2.665029386532672em" fill="#aaa"/><rect width="0.09615384615384616em" height="0.07601396603069185em" x="2.980769230769231vw" y="2.923986033969308em" fill="#aaa"/><rect width="0.09615384615384616em" height="0.19018691460585704em" x="3.076923076923077vw" y="2.809813085394143em" fill="#aaa"/><rect width="0.09615384615384616em" height="0.2355280068134062em" x="3.1730769230769234vw" y="2.7644719931865938em" fill="#aaa"/><rect width="0.09615384615384616em" height="0.6810155764691562em" x="3.2692307692307696vw" y="2.3189844235308437em" fill="#aaa"/><rect width="0.09615384615384616em" height="0.3372976903973296em" x="3.3653846153846154vw" y="2.6627023096026705em" fill="#aaa"/><rect width="0.09615384615384616em" height="0.1396577099049895em" x="3.4615384615384617vw" y="2.8603422900950104em" fill="#aaa"/><rect width="0.09615384615384616em" height="0.15191803964635053em" x="3.557692307692308vw" y="2.8480819603536496em" fill="#aaa"/><rect width="0.09615384615384616em" height="0.4523223294360078em" x="3.653846153846154vw" y="2.547677670563992em" fill="#aaa"/><rect width="0.09615384615384616em" height="0.21402410029500515em" x="3.75vw" y="2.785975899704995em" fill="#aaa"/><rect width="0.09615384615384616em" height="0.08309917367757041em" x="3.8461538461538463vw" y="2.9169008263224296em" fill="#aaa"/><rect width="0.09615384615384616em" height="0.10886915325131101em" x="3.9423076923076925vw" y="2.891130846748689em" fill="#aaa"/><rect width="0.09615384615384616em" height="0.08153265630754386em" x="4.038461538461538vw" y="2.918467343692456em" fill="#aaa"/><rect width="0.09615384615384616em" height="0.532417899373702em" x="4.134615384615385vw" y="2.467582100626298em" fill="#aaa"/><rect width="0.09615384615384616em" height="0.09914668813334185em" x="4.230769230769231vw" y="2.900853311866658em" fill="#aaa"/><rect width="0.09615384615384616em" height="0.1632682388235042em" x="4.3269230769230775vw" y="2.836731761176496em" fill="#aaa"/><rect width="0.09615384615384616em" height="0.07720921635770814em" x="4.423076923076923vw" y="2.922790783642292em" fill="#aaa"/><rect width="0.09615384615384616em" height="0.08341521733156733em" x="4.519230769230769vw" y="2.9165847826684326em" fill="#aaa"/><rect width="0.09615384615384616em" height="0.06961834220841732em" x="4.615384615384616vw" y="2.9303816577915827em" fill="#aaa"/><rect width="0.09615384615384616em" height="0.030589291028796827em" x="4.711538461538462vw" y="2.969410708971203em" fill="#aaa"/><rect width="0.09615384615384616em" height="0.022675378366686406em" x="4.807692307692308vw" y="2.9773246216333136em" fill="#aaa"/><rect width="0.09615384615384616em" height="0.016461981632479583em" x="4.903846153846154vw" y="2.98353801836752em" fill="#aaa"/><rect width="0.09615384615384616em" height="0.047745311843512786em" x="5vw" y="2.9522546881564873em" fill="#aaa"/><rect width="0.09615384615384616em" height="0.05533691027206879em" x="5.096153846153847vw" y="2.944663089727931em" fill="#aaa"/><rect width="0.09615384615384616em" height="0.030312348264053695em" x="5.1923076923076925vw" y="2.9696876517359465em" fill="#aaa"/><rect width="0.09615384615384616em" height="0.08202674505097586em" x="5.288461538461538vw" y="2.917973254949024em" fill="#aaa"/><rect width="0.09615384615384616em" height="0.03921789092966201em" x="5.384615384615385vw" y="2.960782109070338em" fill="#aaa"/><rect width="0.09615384615384616em" height="0.06694461887943651em" x="5.480769230769231vw" y="2.9330553811205635em" fill="#aaa"/><rect width="0.09615384615384616em" height="0.03852695187460927em" x="5.5769230769230775vw" y="2.9614730481253906em" fill="#aaa"/><rect width="0.09615384615384616em" height="0.05223508178571557em" x="5.673076923076923vw" y="2.9477649182142844em" fill="#aaa"/><rect width="0.09615384615384616em" height="0.07224305740667794em" x="5.769230769230769vw" y="2.927756942593322em" fill="#aaa"/><rect width="0.09615384615384616em" height="0.08557561661504513em" x="5.865384615384616vw" y="2.914424383384955em" fill="#aaa"/><rect width="0.09615384615384616em" height="0.11944448684531968em" x="5.961538461538462vw" y="2.8805555131546803em" fill="#aaa"/><rect width="0.09615384615384616em" height="0.06988101656640691em" x="6.057692307692308vw" y="2.930118983433593em" fill="#aaa"/><rect width="0.09615384615384616em" height="0.08596932624753503em" x="6.153846153846154vw" y="2.914030673752465em" fill="#aaa"/><rect width="0.09615384615384616em" height="0.06237483960448898em" x="6.25vw" y="2.937625160395511em" fill="#aaa"/><rect width="0.09615384615384616em" height="0.052811187283202735em" x="6.346153846153847vw" y="2.947188812716797em" fill="#aaa"/><rect width="0.09615384615384616em" height="0.07816722182755119em" x="6.4423076923076925vw" y="2.921832778172449em" fill="#aaa"/><rect width="0.09615384615384616em" height="0.04139904411801844em" x="6.538461538461539vw" y="2.9586009558819817em" fill="#aaa"/><rect width="0.09615384615384616em" height="0.0320583439508484em" x="6.634615384615385vw" y="2.9679416560491516em" fill="#aaa"/><rect width="0.09615384615384616em" height="0.02164466609898831em" x="6.730769230769231vw" y="2.978355333901012em" fill="#aaa"/><rect width="0.09615384615384616em" height="0.04730995939187811em" x="6.8269230769230775vw" y="2.952690040608122em" fill="#aaa"/><rect width="0.09615384615384616em" height="0.0292254607968239em" x="6.923076923076923vw" y="2.970774539203176em" fill="#aaa"/><rect width="0.09615384615384616em" height="0.050475967412049835em" x="7.01923076923077vw" y="2.9495240325879504em" fill="#aaa"/><rect width="0.09615384615384616em" height="0.04745590951516729em" x="7.115384615384616vw" y="2.9525440904848326em" fill="#aaa"/><rect width="0.09615384615384616em" height="0.08940550817346427em" x="7.211538461538462vw" y="2.9105944918265356em" fill="#aaa"/><rect width="0.09615384615384616em" height="0.046645558395913514em" x="7.307692307692308vw" y="2.9533544416040867em" fill="#aaa"/><rect width="0.09615384615384616em" height="0.05024190160727806em" x="7.403846153846154vw" y="2.949758098392722em" fill="#aaa"/><rect width="0.09615384615384616em" height="0.06564778711919864em" x="7.5vw" y="2.9343522128808015em" fill="#aaa"/><rect width="0.09615384615384616em" height="0.08414353856276027em" x="7.596153846153847vw" y="2.9158564614372398em" fill="#aaa"/><rect width="0.09615384615384616em" height="0.019543728897579105em" x="7.6923076923076925vw" y="2.9804562711024207em" fill="#aaa"/><rect width="0.09615384615384616em" height="0.04333820033817955em" x="7.788461538461539vw" y="2.9566617996618203em" fill="#aaa"/><rect width="0.09615384615384616em" height="0.0480292436070163em" x="7.884615384615385vw" y="2.9519707563929836em" fill="#aaa"/><rect width="0.09615384615384616em" height="0.05875516003394709em" x="7.980769230769231vw" y="2.941244839966053em" fill="#aaa"/><rect width="0.09615384615384616em" height="0.04164916621807417em" x="8.076923076923077vw" y="2.958350833781926em" fill="#aaa"/><rect width="0.09615384615384616em" height="0.04820847372025802em" x="8.173076923076923vw" y="2.951791526279742em" fill="#aaa"/><rect width="0.09615384615384616em" height="0.03357254046002132em" x="8.26923076923077vw" y="2.966427459539979em" fill="#aaa"/><rect width="0.09615384615384616em" height="0.038656095480026395em" x="8.365384615384615vw" y="2.9613439045199734em" fill="#aaa"/><rect width="0.09615384615384616em" height="0.03996178226596847em" x="8.461538461538462vw" y="2.9600382177340316em" fill="#aaa"/><rect width="0.09615384615384616em" height="0.04074817904031487em" x="8.557692307692308vw" y="2.959251820959685em" fill="#aaa"/><rect width="0.09615384615384616em" height="0.037706995455998656em" x="8.653846153846155vw" y="2.9622930045440015em" fill="#aaa"/><rect width="0.09615384615384616em" height="0.040547781751315785em" x="8.75vw" y="2.959452218248684em" fill="#aaa"/><rect width="0.09615384615384616em" height="0.02504107145290523em" x="8.846153846153847vw" y="2.9749589285470948em" fill="#aaa"/><rect width="0.09615384615384616em" height="0.028733157321900966em" x="8.942307692307693vw" y="2.971266842678099em" fill="#aaa"/><rect width="0.09615384615384616em" height="0.035444377322698166em" x="9.038461538461538vw" y="2.964555622677302em" fill="#aaa"/><rect width="0.09615384615384616em" height="0.0374349732379593em" x="9.134615384615385vw" y="2.9625650267620407em" fill="#aaa"/><rect width="0.09615384615384616em" height="0.03330523147225608em" x="9.230769230769232vw" y="2.966694768527744em" fill="#aaa"/><rect width="0.09615384615384616em" height="0.035919245054280256em" x="9.326923076923077vw" y="2.9640807549457198em" fill="#aaa"/><rect width="0.09615384615384616em" height="0.020451167095993723em" x="9.423076923076923vw" y="2.979548832904006em" fill="#aaa"/><rect width="0.09615384615384616em" height="0.029925499475281322em" x="9.51923076923077vw" y="2.970074500524719em" fill="#aaa"/><rect width="0.09615384615384616em" height="0.02881407190178688em" x="9.615384615384617vw" y="2.971185928098213em" fill="#aaa"/><rect width="0.09615384615384616em" height="0.033591410384676876em" x="9.711538461538462vw" y="2.966408589615323em" fill="#aaa"/><rect width="0.09615384615384616em" height="0.040286907712256036em" x="9.807692307692308vw" y="2.959713092287744em" fill="#aaa"/><rect width="0.09615384615384616em" height="0.04258859787481237em" x="9.903846153846155vw" y="2.957411402125188em" fill="#aaa"/></svg>