<?xml version="1.0" standalone="no"?>
<svg xmlns:xlink="http://www.w3.org/1999/xlink" xmlns="http://www.w3.org/2000/svg" class="topic-graph" style="width: 100em; height: 30em; text-align: center;"><rect width="0.9615384615384616em" height="0.9785378035530553em" x="0em" y="29.021462196446944em" fill="#aaa"/><rect width="0.9615384615384616em" height="10.52079618566426em" x="0.9615384615384616em" y="19.47920381433574em" fill="#aaa"/><rect width="0.9615384615384616em" height="0.9238567385365942em" x="1.9230769230769231em" y="29.076143261463407em" fill="#aaa"/><rect width="0.9615384615384616em" height="0.3010561116748234em" x="2.8846153846153846em" y="29.698943888325175em" fill="#aaa"/><rect width="0.9615384615384616em" height="8.181637941691795em" x="3.8461538461538463em" y="21.818362058308203em" fill="#aaa"/><rect width="0.9615384615384616em" height="3.1949725234224053em" x="4.8076923076923075em" y="26.805027476577596em" fill="#aaa"/><rect width="0.9615384615384616em" height="1.7353341660816528em" x="5.769230769230769em" y="28.264665833918347em" fill="#aaa"/><rect width="0.9615384615384616em" height="1.1711733024043955em" x="6.730769230769231em" y="28.828826697595606em" fill="#aaa"/><rect width="0.9615384615384616em" height="1.8859368177221971em" x="7.6923076923076925em" y="28.114063182277803em" fill="#aaa"/><rect width="0.9615384615384616em" height="3.807969466002799em" x="8.653846153846153em" y="26.1920305339972em" fill="#aaa"/><rect width="0.9615384615384616em" height="1.1095463479150118em" x="9.615384615384615em" y="28.89045365208499em" fill="#aaa"/><rect width="0.9615384615384616em" height="3.372794737727561em" x="10.576923076923077em" y="26.62720526227244em" fill="#aaa"/><rect width="0.9615384615384616em" height="8.562837855732955em" x="11.538461538461538em" y="21.437162144267045em" fill="#aaa"/><rect width="0.9615384615384616em" height="2.595089556724434em" x="12.5em" y="27.404910443275565em" fill="#aaa"/><rect width="0.9615384615384616em" height="7.873407050205786em" x="13.461538461538462em" y="22.126592949794215em" fill="#aaa"/><rect width="0.9615384615384616em" height="3.9858519153740173em" x="14.423076923076923em" y="26.014148084625983em" fill="#aaa"/><rect width="0.9615384615384616em" height="2.4505351194683485em" x="15.384615384615385em" y="27.54946488053165em" fill="#aaa"/><rect width="0.9615384615384616em" height="5.939202201042935em" x="16.346153846153847em" y="24.060797798957065em" fill="#aaa"/><rect width="0.9615384615384616em" height="1.9701273740971477em" x="17.307692307692307em" y="28.029872625902854em" fill="#aaa"/><rect width="0.9615384615384616em" height="2.6544469862946265em" x="18.26923076923077em" y="27.345553013705374em" fill="#aaa"/><rect width="0.9615384615384616em" height="1.0410740262701756em" x="19.23076923076923em" y="28.958925973729823em" fill="#aaa"/><rect width="0.9615384615384616em" height="4.294738180867973em" x="20.192307692307693em" y="25.705261819132026em" fill="#aaa"/><rect width="0.9615384615384616em" height="0.8933117983911745em" x="21.153846153846153em" y="29.106688201608826em" fill="#aaa"/><rect width="0.9615384615384616em" height="0.8199777629217998em" x="22.115384615384617em" y="29.1800222370782em" fill="#aaa"/><rect width="0.9615384615384616em" height="2.0669838630293786em" x="23.076923076923077em" y="27.933016136970622em" fill="#aaa"/><rect width="0.9615384615384616em" height="6.297150416937509em" x="24.03846153846154em" y="23.70284958306249em" fill="#aaa"/><rect width="0.9615384615384616em" height="3.7040700769587254em" x="25em" y="26.295929923041275em" fill="#aaa"/><rect width="0.9615384615384616em" height="7.0504407342274025em" x="25.961538461538463em" y="22.9495592657726em" fill="#aaa"/><rect width="0.9615384615384616em" height="4.539630942396511em" x="26.923076923076923em" y="25.46036905760349em" fill="#aaa"/><rect width="0.9615384615384616em" height="3.369073152743143em" x="27.884615384615387em" y="26.63092684725686em" fill="#aaa"/><rect width="0.9615384615384616em" height="2.4190631854181817em" x="28.846153846153847em" y="27.58093681458182em" fill="#aaa"/><rect width="0.9615384615384616em" height="7.269099440537068em" x="29.80769230769231em" y="22.73090055946293em" fill="#aaa"/><rect width="0.9615384615384616em" height="2.7200272607288487em" x="30.76923076923077em" y="27.27997273927115em" fill="#aaa"/><rect width="0.9615384615384616em" height="2.657387060216641em" x="31.73076923076923em" y="27.342612939783358em" fill="#aaa"/><rect width="0.9615384615384616em" height="10.782751914112323em" x="32.69230769230769em" y="19.217248085887675em" fill="#aaa"/><rect width="0.9615384615384616em" height="3.8958486476214964em" x="33.65384615384615em" y="26.104151352378505em" fill="#aaa"/><rect width="0.9615384615384616em" height="7.641506343865341em" x="34.61538461538461em" y="22.35849365613466em" fill="#aaa"/><rect width="0.9615384615384616em" height="3.483547574141152em" x="35.57692307692308em" y="26.516452425858848em" fill="#aaa"/><rect width="0.9615384615384616em" height="7.172256877283655em" x="36.53846153846154em" y="22.827743122716345em" fill="#aaa"/><rect width="0.9615384615384616em" height="7.385446609660767em" x="37.5em" y="22.614553390339232em" fill="#aaa"/><rect width="0.9615384615384616em" height="2.199724910621161em" x="38.46153846153846em" y="27.80027508937884em" fill="#aaa"/><rect width="0.9615384615384616em" height="4.221147590913347em" x="39.42307692307693em" y="25.778852409086653em" fill="#aaa"/><rect width="0.9615384615384616em" height="4.209985613198395em" x="40.38461538461539em" y="25.790014386801605em" fill="#aaa"/><rect width="0.9615384615384616em" height="13.197570505451493em" x="41.34615384615385em" y="16.802429494548505em" fill="#aaa"/><rect width="0.9615384615384616em" height="14.137147411294393em" x="42.30769230769231em" y="15.862852588705607em" fill="#aaa"/><rect width="0.9615384615384616em" height="8.924552763798005em" x="43.269230769230774em" y="21.075447236201995em" fill="#aaa"/><rect width="0.9615384615384616em" height="10.113942926251895em" x="44.23076923076923em" y="19.886057073748105em" fill="#aaa"/><rect width="0.9615384615384616em" height="17.321177297920677em" x="45.19230769230769em" y="12.678822702079323em" fill="#aaa"/><rect width="0.9615384615384616em" height="15.023974289908795em" x="46.15384615384615em" y="14.976025710091205em" fill="#aaa"/><rect width="0.9615384615384616em" height="9.943454630704908em" x="47.11538461538461em" y="20.056545369295094em" fill="#aaa"/><rect width="0.9615384615384616em" height="26.849395142107788em" x="48.07692307692308em" y="3.150604857892212em" fill="#aaa"/><rect width="0.9615384615384616em" height="9.687112306821291em" x="49.03846153846154em" y="20.31288769317871em" fill="#aaa"/><rect width="0.9615384615384616em" height="9.894942442101412em" x="50em" y="20.10505755789859em" fill="#aaa"/><rect width="0.9615384615384616em" height="24.696311730237493em" x="50.96153846153846em" y="5.303688269762507em" fill="#aaa"/><rect width="0.9615384615384616em" height="10.960483147160938em" x="51.92307692307693em" y="19.039516852839064em" fill="#aaa"/><rect width="0.9615384615384616em" height="17.05505553882454em" x="52.88461538461539em" y="12.94494446117546em" fill="#aaa"/><rect width="0.9615384615384616em" height="26.91193338009815em" x="53.84615384615385em" y="3.0880666199018485em" fill="#aaa"/><rect width="0.9615384615384616em" height="20.866271485898842em" x="54.80769230769231em" y="9.133728514101158em" fill="#aaa"/><rect width="0.9615384615384616em" height="18.59416815879101em" x="55.769230769230774em" y="11.40583184120899em" fill="#aaa"/><rect width="0.9615384615384616em" height="28.12804803876522em" x="56.73076923076923em" y="1.8719519612347817em" fill="#aaa"/><rect width="0.9615384615384616em" height="30em" x="57.69230769230769em" y="0em" fill="#aaa"/><rect width="0.9615384615384616em" height="29.463118600113567em" x="58.65384615384615em" y="0.5368813998864326em" fill="#aaa"/><rect width="0.9615384615384616em" height="21.07615983650975em" x="59.61538461538462em" y="8.92384016349025em" fill="#aaa"/><rect width="0.9615384615384616em" height="29.21663888126442em" x="60.57692307692308em" y="0.7833611187355807em" fill="#aaa"/><rect width="0.9615384615384616em" height="26.459238453999436em" x="61.53846153846154em" y="3.5407615460005637em" fill="#aaa"/><rect width="0.9615384615384616em" height="19.587899524491313em" x="62.5em" y="10.412100475508687em" fill="#aaa"/><rect width="0.9615384615384616em" height="13.080111638146853em" x="63.46153846153846em" y="16.919888361853147em" fill="#aaa"/><rect width="0.9615384615384616em" height="25.183502712485097em" x="64.42307692307692em" y="4.816497287514903em" fill="#aaa"/><rect width="0.9615384615384616em" height="11.652078847502617em" x="65.38461538461539em" y="18.347921152497385em" fill="#aaa"/><rect width="0.9615384615384616em" height="21.86820337189891em" x="66.34615384615385em" y="8.131796628101089em" fill="#aaa"/><rect width="0.9615384615384616em" height="27.087391345286722em" x="67.3076923076923em" y="2.912608654713278em" fill="#aaa"/><rect width="0.9615384615384616em" height="25.848453651024737em" x="68.26923076923077em" y="4.151546348975263em" fill="#aaa"/><rect width="0.9615384615384616em" height="19.655659586342107em" x="69.23076923076923em" y="10.344340413657893em" fill="#aaa"/><rect width="0.9615384615384616em" height="20.630057689117745em" x="70.1923076923077em" y="9.369942310882255em" fill="#aaa"/><rect width="0.9615384615384616em" height="17.15479204820582em" x="71.15384615384616em" y="12.84520795179418em" fill="#aaa"/><rect width="0.9615384615384616em" height="14.721980695307145em" x="72.11538461538461em" y="15.278019304692855em" fill="#aaa"/><rect width="0.9615384615384616em" height="18.854910570757486em" x="73.07692307692308em" y="11.145089429242514em" fill="#aaa"/><rect width="0.9615384615384616em" height="14.66706204400539em" x="74.03846153846155em" y="15.33293795599461em" fill="#aaa"/><rect width="0.9615384615384616em" height="26.28532220321755em" x="75em" y="3.71467779678245em" fill="#aaa"/><rect width="0.9615384615384616em" height="14.369065106414912em" x="75.96153846153847em" y="15.630934893585088em" fill="#aaa"/><rect width="0.9615384615384616em" height="12.93170279159411em" x="76.92307692307692em" y="17.068297208405887em" fill="#aaa"/><rect width="0.9615384615384616em" height="21.204182502886965em" x="77.88461538461539em" y="8.795817497113035em" fill="#aaa"/><rect width="0.9615384615384616em" height="24.209776997751774em" x="78.84615384615385em" y="5.790223002248226em" fill="#aaa"/><rect width="0.9615384615384616em" height="23.861906979736265em" x="79.8076923076923em" y="6.138093020263735em" fill="#aaa"/><rect width="0.9615384615384616em" height="11.149155847451112em" x="80.76923076923077em" y="18.850844152548888em" fill="#aaa"/><rect width="0.9615384615384616em" height="10.012506468455179em" x="81.73076923076923em" y="19.98749353154482em" fill="#aaa"/><rect width="0.9615384615384616em" height="8.101086644962807em" x="82.6923076923077em" y="21.898913355037195em" fill="#aaa"/><rect width="0.9615384615384616em" height="11.264187120031568em" x="83.65384615384616em" y="18.73581287996843em" fill="#aaa"/><rect width="0.9615384615384616em" height="9.84489362183903em" x="84.61538461538461em" y="20.15510637816097em" fill="#aaa"/><rect width="0.9615384615384616em" height="8.620808590052828em" x="85.57692307692308em" y="21.379191409947172em" fill="#aaa"/><rect width="0.9615384615384616em" height="10.119394241853149em" x="86.53846153846155em" y="19.88060575814685em" fill="#aaa"/><rect width="0.9615384615384616em" height="7.055411915529621em" x="87.5em" y="22.94458808447038em" fill="#aaa"/><rect width="0.9615384615384616em" height="11.111240682390495em" x="88.46153846153847em" y="18.888759317609505em" fill="#aaa"/><rect width="0.9615384615384616em" height="5.956182940966723em" x="89.42307692307692em" y="24.043817059033277em" fill="#aaa"/><rect width="0.9615384615384616em" height="7.454530762415203em" x="90.38461538461539em" y="22.545469237584797em" fill="#aaa"/><rect width="0.9615384615384616em" height="7.552595006671246em" x="91.34615384615385em" y="22.447404993328753em" fill="#aaa"/><rect width="0.9615384615384616em" height="5.28428680416754em" x="92.3076923076923em" y="24.71571319583246em" fill="#aaa"/><rect width="0.9615384615384616em" height="7.749415250691227em" x="93.26923076923077em" y="22.25058474930877em" fill="#aaa"/><rect width="0.9615384615384616em" height="8.223630322272687em" x="94.23076923076923em" y="21.776369677727313em" fill="#aaa"/><rect width="0.9615384615384616em" height="6.015303691849698em" x="95.1923076923077em" y="23.9846963081503em" fill="#aaa"/><rect width="0.9615384615384616em" height="5.620433140981116em" x="96.15384615384616em" y="24.379566859018883em" fill="#aaa"/><rect width="0.9615384615384616em" height="7.5032034669704615em" x="97.11538461538461em" y="22.49679653302954em" fill="#aaa"/><rect width="0.9615384615384616em" height="6.584106584093535em" x="98.07692307692308em" y="23.415893415906467em" fill="#aaa"/><rect width="0.9615384615384616em" height="7.277892861695561em" x="99.03846153846155em" y="22.722107138304438em" fill="#aaa"/></svg>