<?xml version="1.0" standalone="no"?>
<svg xmlns:xlink="http://www.w3.org/1999/xlink" xmlns="http://www.w3.org/2000/svg" class="topic-graph" style="width: 100em; height: 30em; text-align: center;"><rect width="0.9615384615384616em" height="2.4604362792107244em" x="0em" y="27.539563720789275em" fill="#aaa"/><rect width="0.9615384615384616em" height="1.2954368245699754em" x="0.9615384615384616em" y="28.704563175430025em" fill="#aaa"/><rect width="0.9615384615384616em" height="1.3008915173801046em" x="1.9230769230769231em" y="28.699108482619895em" fill="#aaa"/><rect width="0.9615384615384616em" height="8.969560467790048em" x="2.8846153846153846em" y="21.030439532209954em" fill="#aaa"/><rect width="0.9615384615384616em" height="4.419913827848811em" x="3.8461538461538463em" y="25.58008617215119em" fill="#aaa"/><rect width="0.9615384615384616em" height="3.8902948821702226em" x="4.8076923076923075em" y="26.109705117829776em" fill="#aaa"/><rect width="0.9615384615384616em" height="12.476709220606182em" x="5.769230769230769em" y="17.523290779393818em" fill="#aaa"/><rect width="0.9615384615384616em" height="30em" x="6.730769230769231em" y="0em" fill="#aaa"/><rect width="0.9615384615384616em" height="8.808725040161963em" x="7.6923076923076925em" y="21.191274959838037em" fill="#aaa"/><rect width="0.9615384615384616em" height="12.742564397556038em" x="8.653846153846153em" y="17.257435602443962em" fill="#aaa"/><rect width="0.9615384615384616em" height="15.102773750397136em" x="9.615384615384615em" y="14.897226249602864em" fill="#aaa"/><rect width="0.9615384615384616em" height="10.119134686815332em" x="10.576923076923077em" y="19.880865313184668em" fill="#aaa"/><rect width="0.9615384615384616em" height="8.740521264414602em" x="11.538461538461538em" y="21.259478735585397em" fill="#aaa"/><rect width="0.9615384615384616em" height="2.3262230047190093em" x="12.5em" y="27.673776995280992em" fill="#aaa"/><rect width="0.9615384615384616em" height="1.679605580286206em" x="13.461538461538462em" y="28.320394419713793em" fill="#aaa"/><rect width="0.9615384615384616em" height="2.1209456524196844em" x="14.423076923076923em" y="27.879054347580315em" fill="#aaa"/><rect width="0.9615384615384616em" height="0.37025268790221955em" x="15.384615384615385em" y="29.62974731209778em" fill="#aaa"/><rect width="0.9615384615384616em" height="0.739071508301786em" x="16.346153846153847em" y="29.260928491698213em" fill="#aaa"/><rect width="0.9615384615384616em" height="0.43986925371449487em" x="17.307692307692307em" y="29.560130746285505em" fill="#aaa"/><rect width="0.9615384615384616em" height="1.3755857027688085em" x="18.26923076923077em" y="28.62441429723119em" fill="#aaa"/><rect width="0.9615384615384616em" height="0.5856818383392258em" x="19.23076923076923em" y="29.414318161660773em" fill="#aaa"/><rect width="0.9615384615384616em" height="0.20675954647653536em" x="20.192307692307693em" y="29.793240453523463em" fill="#aaa"/><rect width="0.9615384615384616em" height="0.7317862477523449em" x="21.153846153846153em" y="29.268213752247654em" fill="#aaa"/><rect width="0.9615384615384616em" height="1.5554333109775573em" x="22.115384615384617em" y="28.444566689022444em" fill="#aaa"/><rect width="0.9615384615384616em" height="1.8881613601970593em" x="23.076923076923077em" y="28.11183863980294em" fill="#aaa"/><rect width="0.9615384615384616em" height="0.6030761643304141em" x="24.03846153846154em" y="29.396923835669586em" fill="#aaa"/><rect width="0.9615384615384616em" height="0.19940357665327982em" x="25em" y="29.80059642334672em" fill="#aaa"/><rect width="0.9615384615384616em" height="0.4085308204268095em" x="25.961538461538463em" y="29.591469179573192em" fill="#aaa"/><rect width="0.9615384615384616em" height="0.5121462964255808em" x="26.923076923076923em" y="29.48785370357442em" fill="#aaa"/><rect width="0.9615384615384616em" height="0.8765458101871391em" x="27.884615384615387em" y="29.12345418981286em" fill="#aaa"/><rect width="0.9615384615384616em" height="0.40002497567706863em" x="28.846153846153847em" y="29.59997502432293em" fill="#aaa"/><rect width="0.9615384615384616em" height="0.6249551129898244em" x="29.80769230769231em" y="29.375044887010176em" fill="#aaa"/><rect width="0.9615384615384616em" height="0.9551702697904266em" x="30.76923076923077em" y="29.044829730209575em" fill="#aaa"/><rect width="0.9615384615384616em" height="0.9565108907086776em" x="31.73076923076923em" y="29.043489109291322em" fill="#aaa"/><rect width="0.9615384615384616em" height="0.313010010303839em" x="32.69230769230769em" y="29.686989989696162em" fill="#aaa"/><rect width="0.9615384615384616em" height="1.5954487419786187em" x="33.65384615384615em" y="28.40455125802138em" fill="#aaa"/><rect width="0.9615384615384616em" height="2.900931108434465em" x="34.61538461538461em" y="27.099068891565537em" fill="#aaa"/><rect width="0.9615384615384616em" height="0.7261319801773304em" x="35.57692307692308em" y="29.273868019822668em" fill="#aaa"/><rect width="0.9615384615384616em" height="3.0911657083952813em" x="36.53846153846154em" y="26.90883429160472em" fill="#aaa"/><rect width="0.9615384615384616em" height="2.6586824028377047em" x="37.5em" y="27.341317597162295em" fill="#aaa"/><rect width="0.9615384615384616em" height="1.3087077701164762em" x="38.46153846153846em" y="28.691292229883523em" fill="#aaa"/><rect width="0.9615384615384616em" height="5.116631028937987em" x="39.42307692307693em" y="24.883368971062012em" fill="#aaa"/><rect width="0.9615384615384616em" height="0.9877731525282367em" x="40.38461538461539em" y="29.012226847471762em" fill="#aaa"/><rect width="0.9615384615384616em" height="0.8737729036446223em" x="41.34615384615385em" y="29.12622709635538em" fill="#aaa"/><rect width="0.9615384615384616em" height="1.5658007374605791em" x="42.30769230769231em" y="28.434199262539423em" fill="#aaa"/><rect width="0.9615384615384616em" height="0.8018437254801527em" x="43.269230769230774em" y="29.198156274519846em" fill="#aaa"/><rect width="0.9615384615384616em" height="0.7039575706802932em" x="44.23076923076923em" y="29.296042429319705em" fill="#aaa"/><rect width="0.9615384615384616em" height="1.4561596476420693em" x="45.19230769230769em" y="28.543840352357932em" fill="#aaa"/><rect width="0.9615384615384616em" height="0.33964259697578536em" x="46.15384615384615em" y="29.660357403024214em" fill="#aaa"/><rect width="0.9615384615384616em" height="3.234536660893081em" x="47.11538461538461em" y="26.76546333910692em" fill="#aaa"/><rect width="0.9615384615384616em" height="6.894621430852738em" x="48.07692307692308em" y="23.105378569147263em" fill="#aaa"/><rect width="0.9615384615384616em" height="4.913425725620111em" x="49.03846153846154em" y="25.08657427437989em" fill="#aaa"/><rect width="0.9615384615384616em" height="2.0727486200487983em" x="50em" y="27.9272513799512em" fill="#aaa"/><rect width="0.9615384615384616em" height="2.98100343199219em" x="50.96153846153846em" y="27.01899656800781em" fill="#aaa"/><rect width="0.9615384615384616em" height="1.945017779903252em" x="51.92307692307693em" y="28.054982220096747em" fill="#aaa"/><rect width="0.9615384615384616em" height="1.2904206039237636em" x="52.88461538461539em" y="28.709579396076236em" fill="#aaa"/><rect width="0.9615384615384616em" height="0.8909446972970334em" x="53.84615384615385em" y="29.109055302702966em" fill="#aaa"/><rect width="0.9615384615384616em" height="0.7307287741384381em" x="54.80769230769231em" y="29.269271225861562em" fill="#aaa"/><rect width="0.9615384615384616em" height="0.5892424984893505em" x="55.769230769230774em" y="29.41075750151065em" fill="#aaa"/><rect width="0.9615384615384616em" height="0.7922040706915869em" x="56.73076923076923em" y="29.207795929308414em" fill="#aaa"/><rect width="0.9615384615384616em" height="0.6668019157225796em" x="57.69230769230769em" y="29.33319808427742em" fill="#aaa"/><rect width="0.9615384615384616em" height="0.4054538812599861em" x="58.65384615384615em" y="29.594546118740013em" fill="#aaa"/><rect width="0.9615384615384616em" height="0.5291151996784956em" x="59.61538461538462em" y="29.470884800321503em" fill="#aaa"/><rect width="0.9615384615384616em" height="1.0405427139057255em" x="60.57692307692308em" y="28.959457286094274em" fill="#aaa"/><rect width="0.9615384615384616em" height="0.3325886465959463em" x="61.53846153846154em" y="29.667411353404052em" fill="#aaa"/><rect width="0.9615384615384616em" height="0.3024755080376654em" x="62.5em" y="29.697524491962334em" fill="#aaa"/><rect width="0.9615384615384616em" height="0.5905378774704336em" x="63.46153846153846em" y="29.409462122529565em" fill="#aaa"/><rect width="0.9615384615384616em" height="0.23973346989744646em" x="64.42307692307692em" y="29.760266530102555em" fill="#aaa"/><rect width="0.9615384615384616em" height="0.330289004927257em" x="65.38461538461539em" y="29.669710995072744em" fill="#aaa"/><rect width="0.9615384615384616em" height="1.0243519900490423em" x="66.34615384615385em" y="28.97564800995096em" fill="#aaa"/><rect width="0.9615384615384616em" height="0.19775168891603065em" x="67.3076923076923em" y="29.802248311083968em" fill="#aaa"/><rect width="0.9615384615384616em" height="0.4228498873202416em" x="68.26923076923077em" y="29.577150112679757em" fill="#aaa"/><rect width="0.9615384615384616em" height="0.4073402853565218em" x="69.23076923076923em" y="29.592659714643478em" fill="#aaa"/><rect width="0.9615384615384616em" height="0.5031316099018583em" x="70.1923076923077em" y="29.496868390098143em" fill="#aaa"/><rect width="0.9615384615384616em" height="1.6171786334569274em" x="71.15384615384616em" y="28.382821366543073em" fill="#aaa"/><rect width="0.9615384615384616em" height="0.4285942724128185em" x="72.11538461538461em" y="29.57140572758718em" fill="#aaa"/><rect width="0.9615384615384616em" height="0.6750946339056788em" x="73.07692307692308em" y="29.32490536609432em" fill="#aaa"/><rect width="0.9615384615384616em" height="0.49996743064099847em" x="74.03846153846155em" y="29.500032569359em" fill="#aaa"/><rect width="0.9615384615384616em" height="0.5782047212252055em" x="75em" y="29.421795278774795em" fill="#aaa"/><rect width="0.9615384615384616em" height="0.3011452822552984em" x="75.96153846153847em" y="29.6988547177447em" fill="#aaa"/><rect width="0.9615384615384616em" height="1.0656461438653753em" x="76.92307692307692em" y="28.934353856134624em" fill="#aaa"/><rect width="0.9615384615384616em" height="0.3546190281283628em" x="77.88461538461539em" y="29.64538097187164em" fill="#aaa"/><rect width="0.9615384615384616em" height="0.3190078191765651em" x="78.84615384615385em" y="29.680992180823434em" fill="#aaa"/><rect width="0.9615384615384616em" height="0.2653357740846033em" x="79.8076923076923em" y="29.734664225915395em" fill="#aaa"/><rect width="0.9615384615384616em" height="0.5471309669957782em" x="80.76923076923077em" y="29.452869033004223em" fill="#aaa"/><rect width="0.9615384615384616em" height="0.3033402410065324em" x="81.73076923076923em" y="29.69665975899347em" fill="#aaa"/><rect width="0.9615384615384616em" height="0.21175837605980616em" x="82.6923076923077em" y="29.788241623940195em" fill="#aaa"/><rect width="0.9615384615384616em" height="0.23841196018487731em" x="83.65384615384616em" y="29.761588039815123em" fill="#aaa"/><rect width="0.9615384615384616em" height="0.244062096141365em" x="84.61538461538461em" y="29.755937903858634em" fill="#aaa"/><rect width="0.9615384615384616em" height="0.3510597506501446em" x="85.57692307692308em" y="29.648940249349856em" fill="#aaa"/><rect width="0.9615384615384616em" height="0.34611416357005054em" x="86.53846153846155em" y="29.65388583642995em" fill="#aaa"/><rect width="0.9615384615384616em" height="0.24593740638551762em" x="87.5em" y="29.75406259361448em" fill="#aaa"/><rect width="0.9615384615384616em" height="0.3788156373833631em" x="88.46153846153847em" y="29.62118436261664em" fill="#aaa"/><rect width="0.9615384615384616em" height="0.5275193601918818em" x="89.42307692307692em" y="29.47248063980812em" fill="#aaa"/><rect width="0.9615384615384616em" height="0.6522905199232554em" x="90.38461538461539em" y="29.347709480076745em" fill="#aaa"/><rect width="0.9615384615384616em" height="0.8163052190721621em" x="91.34615384615385em" y="29.183694780927837em" fill="#aaa"/><rect width="0.9615384615384616em" height="0.575868116804692em" x="92.3076923076923em" y="29.424131883195308em" fill="#aaa"/><rect width="0.9615384615384616em" height="0.37093722947115676em" x="93.26923076923077em" y="29.629062770528844em" fill="#aaa"/><rect width="0.9615384615384616em" height="0.35384071342527146em" x="94.23076923076923em" y="29.64615928657473em" fill="#aaa"/><rect width="0.9615384615384616em" height="0.32899595580978663em" x="95.1923076923077em" y="29.671004044190212em" fill="#aaa"/><rect width="0.9615384615384616em" height="0.24164200426739146em" x="96.15384615384616em" y="29.75835799573261em" fill="#aaa"/><rect width="0.9615384615384616em" height="0.23458187371022504em" x="97.11538461538461em" y="29.765418126289774em" fill="#aaa"/><rect width="0.9615384615384616em" height="0.25635367336891035em" x="98.07692307692308em" y="29.74364632663109em" fill="#aaa"/><rect width="0.9615384615384616em" height="0.29267873244323095em" x="99.03846153846155em" y="29.707321267556768em" fill="#aaa"/></svg>