<?xml version="1.0" standalone="no"?>
<svg xmlns:xlink="http://www.w3.org/1999/xlink" xmlns="http://www.w3.org/2000/svg" class="topic-graph" style="width: 10vw; height: 3em; text-align: center;"><rect width="0.09615384615384616em" height="1.7918789573475074em" x="0vw" y="1.2081210426524926em" fill="#aaa"/><rect width="0.09615384615384616em" height="1.7424172067345098em" x="0.09615384615384616vw" y="1.2575827932654902em" fill="#aaa"/><rect width="0.09615384615384616em" height="1.2889827701714394em" x="0.19230769230769232vw" y="1.7110172298285606em" fill="#aaa"/><rect width="0.09615384615384616em" height="1.8112506232647625em" x="0.2884615384615385vw" y="1.1887493767352375em" fill="#aaa"/><rect width="0.09615384615384616em" height="0.9320056743865006em" x="0.38461538461538464vw" y="2.0679943256134994em" fill="#aaa"/><rect width="0.09615384615384616em" height="1.17857382214631em" x="0.4807692307692308vw" y="1.82142617785369em" fill="#aaa"/><rect width="0.09615384615384616em" height="1.6811614370297117em" x="0.576923076923077vw" y="1.3188385629702883em" fill="#aaa"/><rect width="0.09615384615384616em" height="1.1903016970418796em" x="0.6730769230769231vw" y="1.8096983029581204em" fill="#aaa"/><rect width="0.09615384615384616em" height="2.158140361274883em" x="0.7692307692307693vw" y="0.8418596387251172em" fill="#aaa"/><rect width="0.09615384615384616em" height="1.3913704549571158em" x="0.8653846153846154vw" y="1.6086295450428842em" fill="#aaa"/><rect width="0.09615384615384616em" height="0.48641569514926797em" x="0.9615384615384616vw" y="2.513584304850732em" fill="#aaa"/><rect width="0.09615384615384616em" height="1.3012959210967452em" x="1.0576923076923077vw" y="1.6987040789032548em" fill="#aaa"/><rect width="0.09615384615384616em" height="0.8538494461336817em" x="1.153846153846154vw" y="2.146150553866318em" fill="#aaa"/><rect width="0.09615384615384616em" height="1.6600707566647372em" x="1.25vw" y="1.3399292433352628em" fill="#aaa"/><rect width="0.09615384615384616em" height="1.282035171668172em" x="1.3461538461538463vw" y="1.717964828331828em" fill="#aaa"/><rect width="0.09615384615384616em" height="1.425017763913398em" x="1.4423076923076923vw" y="1.574982236086602em" fill="#aaa"/><rect width="0.09615384615384616em" height="1.7971891039197851em" x="1.5384615384615385vw" y="1.2028108960802149em" fill="#aaa"/><rect width="0.09615384615384616em" height="1.393912467407816em" x="1.6346153846153848vw" y="1.606087532592184em" fill="#aaa"/><rect width="0.09615384615384616em" height="1.972988331029728em" x="1.7307692307692308vw" y="1.027011668970272em" fill="#aaa"/><rect width="0.09615384615384616em" height="2.120206599475554em" x="1.826923076923077vw" y="0.8797934005244459em" fill="#aaa"/><rect width="0.09615384615384616em" height="1.7028000143015023em" x="1.9230769230769231vw" y="1.2971999856984977em" fill="#aaa"/><rect width="0.09615384615384616em" height="3em" x="2.019230769230769vw" y="0em" fill="#aaa"/><rect width="0.09615384615384616em" height="2.8567436910616975em" x="2.1153846153846154vw" y="0.14325630893830255em" fill="#aaa"/><rect width="0.09615384615384616em" height="2.7069273430153507em" x="2.2115384615384617vw" y="0.29307265698464935em" fill="#aaa"/><rect width="0.09615384615384616em" height="2.1828222145398364em" x="2.307692307692308vw" y="0.8171777854601636em" fill="#aaa"/><rect width="0.09615384615384616em" height="1.5554010854363143em" x="2.403846153846154vw" y="1.4445989145636857em" fill="#aaa"/><rect width="0.09615384615384616em" height="1.516886278961548em" x="2.5vw" y="1.483113721038452em" fill="#aaa"/><rect width="0.09615384615384616em" height="1.3417086143553885em" x="2.5961538461538463vw" y="1.6582913856446115em" fill="#aaa"/><rect width="0.09615384615384616em" height="2.157883111304561em" x="2.6923076923076925vw" y="0.8421168886954389em" fill="#aaa"/><rect width="0.09615384615384616em" height="2.0391464094168503em" x="2.7884615384615388vw" y="0.9608535905831497em" fill="#aaa"/><rect width="0.09615384615384616em" height="1.796475169727362em" x="2.8846153846153846vw" y="1.203524830272638em" fill="#aaa"/><rect width="0.09615384615384616em" height="1.2584083664256633em" x="2.980769230769231vw" y="1.7415916335743367em" fill="#aaa"/><rect width="0.09615384615384616em" height="1.779726745826466em" x="3.076923076923077vw" y="1.220273254173534em" fill="#aaa"/><rect width="0.09615384615384616em" height="1.883015114097407em" x="3.1730769230769234vw" y="1.116984885902593em" fill="#aaa"/><rect width="0.09615384615384616em" height="2.45623426180956em" x="3.2692307692307696vw" y="0.5437657381904399em" fill="#aaa"/><rect width="0.09615384615384616em" height="1.5601321576884764em" x="3.3653846153846154vw" y="1.4398678423115236em" fill="#aaa"/><rect width="0.09615384615384616em" height="1.5016897403834075em" x="3.4615384615384617vw" y="1.4983102596165925em" fill="#aaa"/><rect width="0.09615384615384616em" height="1.7265549286752662em" x="3.557692307692308vw" y="1.2734450713247338em" fill="#aaa"/><rect width="0.09615384615384616em" height="1.8194442431548294em" x="3.653846153846154vw" y="1.1805557568451706em" fill="#aaa"/><rect width="0.09615384615384616em" height="2.0784616957287643em" x="3.75vw" y="0.9215383042712357em" fill="#aaa"/><rect width="0.09615384615384616em" height="1.957436450124351em" x="3.8461538461538463vw" y="1.042563549875649em" fill="#aaa"/><rect width="0.09615384615384616em" height="2.0073544927255744em" x="3.9423076923076925vw" y="0.9926455072744256em" fill="#aaa"/><rect width="0.09615384615384616em" height="1.8906005775160366em" x="4.038461538461538vw" y="1.1093994224839634em" fill="#aaa"/><rect width="0.09615384615384616em" height="2.245766557720591em" x="4.134615384615385vw" y="0.7542334422794088em" fill="#aaa"/><rect width="0.09615384615384616em" height="2.550772236018716em" x="4.230769230769231vw" y="0.44922776398128406em" fill="#aaa"/><rect width="0.09615384615384616em" height="1.8009438595223988em" x="4.3269230769230775vw" y="1.1990561404776012em" fill="#aaa"/><rect width="0.09615384615384616em" height="1.786174069742701em" x="4.423076923076923vw" y="1.213825930257299em" fill="#aaa"/><rect width="0.09615384615384616em" height="1.718971015733536em" x="4.519230769230769vw" y="1.281028984266464em" fill="#aaa"/><rect width="0.09615384615384616em" height="2.0115476702781363em" x="4.615384615384616vw" y="0.9884523297218637em" fill="#aaa"/><rect width="0.09615384615384616em" height="2.4469656271957em" x="4.711538461538462vw" y="0.5530343728043001em" fill="#aaa"/><rect width="0.09615384615384616em" height="1.81795384372555em" x="4.807692307692308vw" y="1.18204615627445em" fill="#aaa"/><rect width="0.09615384615384616em" height="1.4044197369355782em" x="4.903846153846154vw" y="1.5955802630644218em" fill="#aaa"/><rect width="0.09615384615384616em" height="1.9701006898202773em" x="5vw" y="1.0298993101797227em" fill="#aaa"/><rect width="0.09615384615384616em" height="1.7499954485645433em" x="5.096153846153847vw" y="1.2500045514354567em" fill="#aaa"/><rect width="0.09615384615384616em" height="2.27094313712333em" x="5.1923076923076925vw" y="0.72905686287667em" fill="#aaa"/><rect width="0.09615384615384616em" height="2.436090596379687em" x="5.288461538461538vw" y="0.5639094036203129em" fill="#aaa"/><rect width="0.09615384615384616em" height="2.3052065066599563em" x="5.384615384615385vw" y="0.6947934933400437em" fill="#aaa"/><rect width="0.09615384615384616em" height="2.276564108009814em" x="5.480769230769231vw" y="0.723435891990186em" fill="#aaa"/><rect width="0.09615384615384616em" height="2.482700726020454em" x="5.5769230769230775vw" y="0.5172992739795461em" fill="#aaa"/><rect width="0.09615384615384616em" height="2.5574662827925447em" x="5.673076923076923vw" y="0.44253371720745527em" fill="#aaa"/><rect width="0.09615384615384616em" height="2.6935339621766787em" x="5.769230769230769vw" y="0.30646603782332127em" fill="#aaa"/><rect width="0.09615384615384616em" height="2.313529776588747em" x="5.865384615384616vw" y="0.686470223411253em" fill="#aaa"/><rect width="0.09615384615384616em" height="2.109306982053228em" x="5.961538461538462vw" y="0.8906930179467718em" fill="#aaa"/><rect width="0.09615384615384616em" height="1.9674094300101765em" x="6.057692307692308vw" y="1.0325905699898235em" fill="#aaa"/><rect width="0.09615384615384616em" height="2.115484925461254em" x="6.153846153846154vw" y="0.8845150745387458em" fill="#aaa"/><rect width="0.09615384615384616em" height="2.0534517078922505em" x="6.25vw" y="0.9465482921077495em" fill="#aaa"/><rect width="0.09615384615384616em" height="2.443264350451577em" x="6.346153846153847vw" y="0.5567356495484228em" fill="#aaa"/><rect width="0.09615384615384616em" height="1.8614805141194326em" x="6.4423076923076925vw" y="1.1385194858805674em" fill="#aaa"/><rect width="0.09615384615384616em" height="1.814205295896635em" x="6.538461538461539vw" y="1.185794704103365em" fill="#aaa"/><rect width="0.09615384615384616em" height="1.6900442331149406em" x="6.634615384615385vw" y="1.3099557668850594em" fill="#aaa"/><rect width="0.09615384615384616em" height="1.9240133988584862em" x="6.730769230769231vw" y="1.0759866011415138em" fill="#aaa"/><rect width="0.09615384615384616em" height="2.0856774799285605em" x="6.8269230769230775vw" y="0.9143225200714395em" fill="#aaa"/><rect width="0.09615384615384616em" height="2.0517689568360837em" x="6.923076923076923vw" y="0.9482310431639163em" fill="#aaa"/><rect width="0.09615384615384616em" height="1.8043264162795078em" x="7.01923076923077vw" y="1.1956735837204922em" fill="#aaa"/><rect width="0.09615384615384616em" height="2.1342608442679407em" x="7.115384615384616vw" y="0.8657391557320593em" fill="#aaa"/><rect width="0.09615384615384616em" height="1.5578588226181016em" x="7.211538461538462vw" y="1.4421411773818984em" fill="#aaa"/><rect width="0.09615384615384616em" height="1.271952353023676em" x="7.307692307692308vw" y="1.728047646976324em" fill="#aaa"/><rect width="0.09615384615384616em" height="1.2974266779251824em" x="7.403846153846154vw" y="1.7025733220748176em" fill="#aaa"/><rect width="0.09615384615384616em" height="1.4708266783575454em" x="7.5vw" y="1.5291733216424546em" fill="#aaa"/><rect width="0.09615384615384616em" height="1.55177569116161em" x="7.596153846153847vw" y="1.44822430883839em" fill="#aaa"/><rect width="0.09615384615384616em" height="1.0139642982733417em" x="7.6923076923076925vw" y="1.9860357017266583em" fill="#aaa"/><rect width="0.09615384615384616em" height="1.3448508258929945em" x="7.788461538461539vw" y="1.6551491741070055em" fill="#aaa"/><rect width="0.09615384615384616em" height="1.3511499584290398em" x="7.884615384615385vw" y="1.6488500415709602em" fill="#aaa"/><rect width="0.09615384615384616em" height="1.0377049315890887em" x="7.980769230769231vw" y="1.9622950684109113em" fill="#aaa"/><rect width="0.09615384615384616em" height="1.5368390592192123em" x="8.076923076923077vw" y="1.4631609407807877em" fill="#aaa"/><rect width="0.09615384615384616em" height="1.508167807596374em" x="8.173076923076923vw" y="1.491832192403626em" fill="#aaa"/><rect width="0.09615384615384616em" height="1.6363345709389em" x="8.26923076923077vw" y="1.3636654290611em" fill="#aaa"/><rect width="0.09615384615384616em" height="1.733782570056152em" x="8.365384615384615vw" y="1.266217429943848em" fill="#aaa"/><rect width="0.09615384615384616em" height="1.316937824172024em" x="8.461538461538462vw" y="1.683062175827976em" fill="#aaa"/><rect width="0.09615384615384616em" height="1.4484308646126212em" x="8.557692307692308vw" y="1.5515691353873788em" fill="#aaa"/><rect width="0.09615384615384616em" height="1.117630469089654em" x="8.653846153846155vw" y="1.882369530910346em" fill="#aaa"/><rect width="0.09615384615384616em" height="1.2096360167268398em" x="8.75vw" y="1.7903639832731602em" fill="#aaa"/><rect width="0.09615384615384616em" height="1.118161368264512em" x="8.846153846153847vw" y="1.881838631735488em" fill="#aaa"/><rect width="0.09615384615384616em" height="1.579672867639581em" x="8.942307692307693vw" y="1.420327132360419em" fill="#aaa"/><rect width="0.09615384615384616em" height="1.4853765620964285em" x="9.038461538461538vw" y="1.5146234379035715em" fill="#aaa"/><rect width="0.09615384615384616em" height="1.5823164538016226em" x="9.134615384615385vw" y="1.4176835461983774em" fill="#aaa"/><rect width="0.09615384615384616em" height="1.275547232937039em" x="9.230769230769232vw" y="1.724452767062961em" fill="#aaa"/><rect width="0.09615384615384616em" height="1.2401257933706036em" x="9.326923076923077vw" y="1.7598742066293964em" fill="#aaa"/><rect width="0.09615384615384616em" height="1.1531888456117991em" x="9.423076923076923vw" y="1.8468111543882009em" fill="#aaa"/><rect width="0.09615384615384616em" height="1.0316026952787292em" x="9.51923076923077vw" y="1.9683973047212708em" fill="#aaa"/><rect width="0.09615384615384616em" height="1.0469823721414369em" x="9.615384615384617vw" y="1.9530176278585631em" fill="#aaa"/><rect width="0.09615384615384616em" height="0.9575560115145006em" x="9.711538461538462vw" y="2.0424439884854992em" fill="#aaa"/><rect width="0.09615384615384616em" height="1.1030394061410456em" x="9.807692307692308vw" y="1.8969605938589544em" fill="#aaa"/><rect width="0.09615384615384616em" height="1.0169156119014744em" x="9.903846153846155vw" y="1.9830843880985256em" fill="#aaa"/></svg>