<?xml version="1.0" standalone="no"?>
<svg xmlns:xlink="http://www.w3.org/1999/xlink" xmlns="http://www.w3.org/2000/svg" class="topic-graph" style="width: 100em; height: 30em; text-align: center;"><rect width="0.9615384615384616em" height="16.072736980866704em" x="0em" y="13.927263019133296em" fill="#aaa"/><rect width="0.9615384615384616em" height="5.92273857510913em" x="0.9615384615384616em" y="24.07726142489087em" fill="#aaa"/><rect width="0.9615384615384616em" height="3.4132243710059873em" x="1.9230769230769231em" y="26.586775628994012em" fill="#aaa"/><rect width="0.9615384615384616em" height="6.805046703426506em" x="2.8846153846153846em" y="23.194953296573495em" fill="#aaa"/><rect width="0.9615384615384616em" height="2.5838645671757425em" x="3.8461538461538463em" y="27.41613543282426em" fill="#aaa"/><rect width="0.9615384615384616em" height="9.582282116604654em" x="4.8076923076923075em" y="20.417717883395348em" fill="#aaa"/><rect width="0.9615384615384616em" height="1.9911763880200892em" x="5.769230769230769em" y="28.00882361197991em" fill="#aaa"/><rect width="0.9615384615384616em" height="1.864907937050865em" x="6.730769230769231em" y="28.135092062949134em" fill="#aaa"/><rect width="0.9615384615384616em" height="8.356025163455344em" x="7.6923076923076925em" y="21.643974836544658em" fill="#aaa"/><rect width="0.9615384615384616em" height="3.176268273215259em" x="8.653846153846153em" y="26.82373172678474em" fill="#aaa"/><rect width="0.9615384615384616em" height="5.349828354328565em" x="9.615384615384615em" y="24.650171645671435em" fill="#aaa"/><rect width="0.9615384615384616em" height="7.796291338766032em" x="10.576923076923077em" y="22.203708661233968em" fill="#aaa"/><rect width="0.9615384615384616em" height="2.7108786020119875em" x="11.538461538461538em" y="27.289121397988012em" fill="#aaa"/><rect width="0.9615384615384616em" height="1.750340996129351em" x="12.5em" y="28.249659003870647em" fill="#aaa"/><rect width="0.9615384615384616em" height="5.6863073433088545em" x="13.461538461538462em" y="24.313692656691146em" fill="#aaa"/><rect width="0.9615384615384616em" height="3.9647413576280806em" x="14.423076923076923em" y="26.035258642371918em" fill="#aaa"/><rect width="0.9615384615384616em" height="3.035231209613394em" x="15.384615384615385em" y="26.964768790386607em" fill="#aaa"/><rect width="0.9615384615384616em" height="4.420762604728333em" x="16.346153846153847em" y="25.57923739527167em" fill="#aaa"/><rect width="0.9615384615384616em" height="30em" x="17.307692307692307em" y="0em" fill="#aaa"/><rect width="0.9615384615384616em" height="13.022283006151694em" x="18.26923076923077em" y="16.977716993848304em" fill="#aaa"/><rect width="0.9615384615384616em" height="9.12335086132868em" x="19.23076923076923em" y="20.87664913867132em" fill="#aaa"/><rect width="0.9615384615384616em" height="1.3576057455048134em" x="20.192307692307693em" y="28.642394254495187em" fill="#aaa"/><rect width="0.9615384615384616em" height="5.355515891822819em" x="21.153846153846153em" y="24.64448410817718em" fill="#aaa"/><rect width="0.9615384615384616em" height="0.7453479378235792em" x="22.115384615384617em" y="29.254652062176422em" fill="#aaa"/><rect width="0.9615384615384616em" height="9.597260386257405em" x="23.076923076923077em" y="20.402739613742597em" fill="#aaa"/><rect width="0.9615384615384616em" height="2.762935136268386em" x="24.03846153846154em" y="27.237064863731614em" fill="#aaa"/><rect width="0.9615384615384616em" height="0.9958323235938348em" x="25em" y="29.004167676406166em" fill="#aaa"/><rect width="0.9615384615384616em" height="1.7241852791712726em" x="25.961538461538463em" y="28.275814720828727em" fill="#aaa"/><rect width="0.9615384615384616em" height="3.230695472811768em" x="26.923076923076923em" y="26.769304527188233em" fill="#aaa"/><rect width="0.9615384615384616em" height="9.983612973101659em" x="27.884615384615387em" y="20.016387026898343em" fill="#aaa"/><rect width="0.9615384615384616em" height="1.7137264067798983em" x="28.846153846153847em" y="28.286273593220102em" fill="#aaa"/><rect width="0.9615384615384616em" height="1.698024385257135em" x="29.80769230769231em" y="28.301975614742865em" fill="#aaa"/><rect width="0.9615384615384616em" height="1.410692119640682em" x="30.76923076923077em" y="28.589307880359318em" fill="#aaa"/><rect width="0.9615384615384616em" height="2.158654062397691em" x="31.73076923076923em" y="27.84134593760231em" fill="#aaa"/><rect width="0.9615384615384616em" height="2.901320973324691em" x="32.69230769230769em" y="27.09867902667531em" fill="#aaa"/><rect width="0.9615384615384616em" height="1.812631226140423em" x="33.65384615384615em" y="28.18736877385958em" fill="#aaa"/><rect width="0.9615384615384616em" height="3.1438279207525994em" x="34.61538461538461em" y="26.8561720792474em" fill="#aaa"/><rect width="0.9615384615384616em" height="2.0696470067386983em" x="35.57692307692308em" y="27.9303529932613em" fill="#aaa"/><rect width="0.9615384615384616em" height="2.3568599499194116em" x="36.53846153846154em" y="27.64314005008059em" fill="#aaa"/><rect width="0.9615384615384616em" height="0.8365102146107787em" x="37.5em" y="29.16348978538922em" fill="#aaa"/><rect width="0.9615384615384616em" height="1.8120814494159283em" x="38.46153846153846em" y="28.187918550584072em" fill="#aaa"/><rect width="0.9615384615384616em" height="1.2207839315414035em" x="39.42307692307693em" y="28.779216068458595em" fill="#aaa"/><rect width="0.9615384615384616em" height="2.3207025669755743em" x="40.38461538461539em" y="27.679297433024427em" fill="#aaa"/><rect width="0.9615384615384616em" height="1.2673372560028093em" x="41.34615384615385em" y="28.732662743997192em" fill="#aaa"/><rect width="0.9615384615384616em" height="1.817337088183799em" x="42.30769230769231em" y="28.1826629118162em" fill="#aaa"/><rect width="0.9615384615384616em" height="1.0108956208161644em" x="43.269230769230774em" y="28.989104379183836em" fill="#aaa"/><rect width="0.9615384615384616em" height="0.34397003679023797em" x="44.23076923076923em" y="29.65602996320976em" fill="#aaa"/><rect width="0.9615384615384616em" height="3.2414227746551636em" x="45.19230769230769em" y="26.758577225344837em" fill="#aaa"/><rect width="0.9615384615384616em" height="15.699440282002818em" x="46.15384615384615em" y="14.300559717997182em" fill="#aaa"/><rect width="0.9615384615384616em" height="4.743631197902435em" x="47.11538461538461em" y="25.256368802097565em" fill="#aaa"/><rect width="0.9615384615384616em" height="5.868766054671384em" x="48.07692307692308em" y="24.131233945328617em" fill="#aaa"/><rect width="0.9615384615384616em" height="2.3417871298520674em" x="49.03846153846154em" y="27.65821287014793em" fill="#aaa"/><rect width="0.9615384615384616em" height="2.499605742914268em" x="50em" y="27.50039425708573em" fill="#aaa"/><rect width="0.9615384615384616em" height="2.7545122120397em" x="50.96153846153846em" y="27.2454877879603em" fill="#aaa"/><rect width="0.9615384615384616em" height="2.1111451006904725em" x="51.92307692307693em" y="27.88885489930953em" fill="#aaa"/><rect width="0.9615384615384616em" height="7.520869363488759em" x="52.88461538461539em" y="22.47913063651124em" fill="#aaa"/><rect width="0.9615384615384616em" height="4.361481942922951em" x="53.84615384615385em" y="25.63851805707705em" fill="#aaa"/><rect width="0.9615384615384616em" height="5.463422187941477em" x="54.80769230769231em" y="24.536577812058525em" fill="#aaa"/><rect width="0.9615384615384616em" height="8.358386166356471em" x="55.769230769230774em" y="21.64161383364353em" fill="#aaa"/><rect width="0.9615384615384616em" height="4.496598551517922em" x="56.73076923076923em" y="25.50340144848208em" fill="#aaa"/><rect width="0.9615384615384616em" height="4.091979331753694em" x="57.69230769230769em" y="25.908020668246305em" fill="#aaa"/><rect width="0.9615384615384616em" height="8.840203261300736em" x="58.65384615384615em" y="21.159796738699264em" fill="#aaa"/><rect width="0.9615384615384616em" height="4.222423223589184em" x="59.61538461538462em" y="25.777576776410818em" fill="#aaa"/><rect width="0.9615384615384616em" height="1.4881875965300462em" x="60.57692307692308em" y="28.511812403469953em" fill="#aaa"/><rect width="0.9615384615384616em" height="4.884377355443403em" x="61.53846153846154em" y="25.115622644556595em" fill="#aaa"/><rect width="0.9615384615384616em" height="4.191821192635971em" x="62.5em" y="25.80817880736403em" fill="#aaa"/><rect width="0.9615384615384616em" height="5.375610135499794em" x="63.46153846153846em" y="24.624389864500206em" fill="#aaa"/><rect width="0.9615384615384616em" height="5.284062187650546em" x="64.42307692307692em" y="24.715937812349452em" fill="#aaa"/><rect width="0.9615384615384616em" height="1.9124985881144054em" x="65.38461538461539em" y="28.087501411885594em" fill="#aaa"/><rect width="0.9615384615384616em" height="6.831192428714151em" x="66.34615384615385em" y="23.16880757128585em" fill="#aaa"/><rect width="0.9615384615384616em" height="2.1272610487890358em" x="67.3076923076923em" y="27.872738951210962em" fill="#aaa"/><rect width="0.9615384615384616em" height="1.9821561080716896em" x="68.26923076923077em" y="28.01784389192831em" fill="#aaa"/><rect width="0.9615384615384616em" height="1.8238045264108198em" x="69.23076923076923em" y="28.176195473589182em" fill="#aaa"/><rect width="0.9615384615384616em" height="2.8015304422868836em" x="70.1923076923077em" y="27.198469557713118em" fill="#aaa"/><rect width="0.9615384615384616em" height="2.624486571606936em" x="71.15384615384616em" y="27.375513428393063em" fill="#aaa"/><rect width="0.9615384615384616em" height="4.297917773325766em" x="72.11538461538461em" y="25.702082226674236em" fill="#aaa"/><rect width="0.9615384615384616em" height="3.8506417443647085em" x="73.07692307692308em" y="26.149358255635292em" fill="#aaa"/><rect width="0.9615384615384616em" height="2.359587421862943em" x="74.03846153846155em" y="27.640412578137056em" fill="#aaa"/><rect width="0.9615384615384616em" height="3.6805741297341417em" x="75em" y="26.31942587026586em" fill="#aaa"/><rect width="0.9615384615384616em" height="8.313008021574275em" x="75.96153846153847em" y="21.686991978425723em" fill="#aaa"/><rect width="0.9615384615384616em" height="2.258140054264825em" x="76.92307692307692em" y="27.741859945735175em" fill="#aaa"/><rect width="0.9615384615384616em" height="1.6666573100467337em" x="77.88461538461539em" y="28.333342689953266em" fill="#aaa"/><rect width="0.9615384615384616em" height="5.09314867788187em" x="78.84615384615385em" y="24.90685132211813em" fill="#aaa"/><rect width="0.9615384615384616em" height="8.696653923468258em" x="79.8076923076923em" y="21.303346076531742em" fill="#aaa"/><rect width="0.9615384615384616em" height="5.147366709067198em" x="80.76923076923077em" y="24.8526332909328em" fill="#aaa"/><rect width="0.9615384615384616em" height="2.7412493575853323em" x="81.73076923076923em" y="27.258750642414668em" fill="#aaa"/><rect width="0.9615384615384616em" height="2.492477950189308em" x="82.6923076923077em" y="27.507522049810692em" fill="#aaa"/><rect width="0.9615384615384616em" height="4.184195021586838em" x="83.65384615384616em" y="25.815804978413162em" fill="#aaa"/><rect width="0.9615384615384616em" height="3.559198567148106em" x="84.61538461538461em" y="26.440801432851895em" fill="#aaa"/><rect width="0.9615384615384616em" height="3.121432443273929em" x="85.57692307692308em" y="26.878567556726072em" fill="#aaa"/><rect width="0.9615384615384616em" height="2.1901112164286145em" x="86.53846153846155em" y="27.809888783571385em" fill="#aaa"/><rect width="0.9615384615384616em" height="4.463083879693492em" x="87.5em" y="25.536916120306508em" fill="#aaa"/><rect width="0.9615384615384616em" height="3.4309435434184663em" x="88.46153846153847em" y="26.569056456581535em" fill="#aaa"/><rect width="0.9615384615384616em" height="1.8431634825247862em" x="89.42307692307692em" y="28.156836517475213em" fill="#aaa"/><rect width="0.9615384615384616em" height="3.881311875525989em" x="90.38461538461539em" y="26.118688124474012em" fill="#aaa"/><rect width="0.9615384615384616em" height="3.7823848406319076em" x="91.34615384615385em" y="26.217615159368094em" fill="#aaa"/><rect width="0.9615384615384616em" height="2.421274966724363em" x="92.3076923076923em" y="27.57872503327564em" fill="#aaa"/><rect width="0.9615384615384616em" height="1.6697857808440342em" x="93.26923076923077em" y="28.330214219155966em" fill="#aaa"/><rect width="0.9615384615384616em" height="3.886810698665024em" x="94.23076923076923em" y="26.113189301334977em" fill="#aaa"/><rect width="0.9615384615384616em" height="4.88217587349055em" x="95.1923076923077em" y="25.11782412650945em" fill="#aaa"/><rect width="0.9615384615384616em" height="4.307451749141615em" x="96.15384615384616em" y="25.692548250858387em" fill="#aaa"/><rect width="0.9615384615384616em" height="3.073265378550489em" x="97.11538461538461em" y="26.926734621449512em" fill="#aaa"/><rect width="0.9615384615384616em" height="4.3429086171764535em" x="98.07692307692308em" y="25.657091382823545em" fill="#aaa"/><rect width="0.9615384615384616em" height="4.321356880439138em" x="99.03846153846155em" y="25.67864311956086em" fill="#aaa"/></svg>