<?xml version="1.0" standalone="no"?>
<svg xmlns:xlink="http://www.w3.org/1999/xlink" xmlns="http://www.w3.org/2000/svg" class="topic-graph" style="width: 10vw; height: 3em; text-align: center;"><rect width="0.09615384615384616em" height="0.43434545171563066em" x="0vw" y="2.5656545482843693em" fill="#aaa"/><rect width="0.09615384615384616em" height="0.050256433171752615em" x="0.09615384615384616vw" y="2.9497435668282472em" fill="#aaa"/><rect width="0.09615384615384616em" height="0.5734713878662812em" x="0.19230769230769232vw" y="2.426528612133719em" fill="#aaa"/><rect width="0.09615384615384616em" height="0.858538953354653em" x="0.2884615384615385vw" y="2.1414610466453468em" fill="#aaa"/><rect width="0.09615384615384616em" height="2.4905304522488945em" x="0.38461538461538464vw" y="0.5094695477511055em" fill="#aaa"/><rect width="0.09615384615384616em" height="0.09114378483198098em" x="0.4807692307692308vw" y="2.908856215168019em" fill="#aaa"/><rect width="0.09615384615384616em" height="1.0528858694231231em" x="0.576923076923077vw" y="1.9471141305768769em" fill="#aaa"/><rect width="0.09615384615384616em" height="0.12434371606548918em" x="0.6730769230769231vw" y="2.875656283934511em" fill="#aaa"/><rect width="0.09615384615384616em" height="0.17346654678702877em" x="0.7692307692307693vw" y="2.826533453212971em" fill="#aaa"/><rect width="0.09615384615384616em" height="0.5264039569669702em" x="0.8653846153846154vw" y="2.4735960430330297em" fill="#aaa"/><rect width="0.09615384615384616em" height="0.05615972303287033em" x="0.9615384615384616vw" y="2.9438402769671295em" fill="#aaa"/><rect width="0.09615384615384616em" height="0.13295720805677988em" x="1.0576923076923077vw" y="2.86704279194322em" fill="#aaa"/><rect width="0.09615384615384616em" height="0.13123305650371633em" x="1.153846153846154vw" y="2.8687669434962837em" fill="#aaa"/><rect width="0.09615384615384616em" height="0.09454934315764629em" x="1.25vw" y="2.905450656842354em" fill="#aaa"/><rect width="0.09615384615384616em" height="0.025300255895057036em" x="1.3461538461538463vw" y="2.9746997441049428em" fill="#aaa"/><rect width="0.09615384615384616em" height="0.04141069587148483em" x="1.4423076923076923vw" y="2.958589304128515em" fill="#aaa"/><rect width="0.09615384615384616em" height="0.05185912296238564em" x="1.5384615384615385vw" y="2.9481408770376145em" fill="#aaa"/><rect width="0.09615384615384616em" height="0.15671787751868183em" x="1.6346153846153848vw" y="2.8432821224813183em" fill="#aaa"/><rect width="0.09615384615384616em" height="0.13027811277921905em" x="1.7307692307692308vw" y="2.869721887220781em" fill="#aaa"/><rect width="0.09615384615384616em" height="0.07273347982955423em" x="1.826923076923077vw" y="2.9272665201704458em" fill="#aaa"/><rect width="0.09615384615384616em" height="0.12785632762908528em" x="1.9230769230769231vw" y="2.872143672370915em" fill="#aaa"/><rect width="0.09615384615384616em" height="0.2533723451173066em" x="2.019230769230769vw" y="2.7466276548826936em" fill="#aaa"/><rect width="0.09615384615384616em" height="0.04073323865656843em" x="2.1153846153846154vw" y="2.9592667613434314em" fill="#aaa"/><rect width="0.09615384615384616em" height="0.2537768221426191em" x="2.2115384615384617vw" y="2.746223177857381em" fill="#aaa"/><rect width="0.09615384615384616em" height="0.17660722464307144em" x="2.307692307692308vw" y="2.8233927753569286em" fill="#aaa"/><rect width="0.09615384615384616em" height="0.0732409795221169em" x="2.403846153846154vw" y="2.926759020477883em" fill="#aaa"/><rect width="0.09615384615384616em" height="0.05671300659461973em" x="2.5vw" y="2.9432869934053802em" fill="#aaa"/><rect width="0.09615384615384616em" height="0.061442199156184846em" x="2.5961538461538463vw" y="2.938557800843815em" fill="#aaa"/><rect width="0.09615384615384616em" height="0.08664910223430511em" x="2.6923076923076925vw" y="2.913350897765695em" fill="#aaa"/><rect width="0.09615384615384616em" height="0.12428961245153813em" x="2.7884615384615388vw" y="2.875710387548462em" fill="#aaa"/><rect width="0.09615384615384616em" height="0.12283199044519127em" x="2.8846153846153846vw" y="2.8771680095548087em" fill="#aaa"/><rect width="0.09615384615384616em" height="0.055325464577149215em" x="2.980769230769231vw" y="2.944674535422851em" fill="#aaa"/><rect width="0.09615384615384616em" height="0.10097721290826198em" x="3.076923076923077vw" y="2.899022787091738em" fill="#aaa"/><rect width="0.09615384615384616em" height="0.0638697327746168em" x="3.1730769230769234vw" y="2.936130267225383em" fill="#aaa"/><rect width="0.09615384615384616em" height="0.17724613069977233em" x="3.2692307692307696vw" y="2.822753869300228em" fill="#aaa"/><rect width="0.09615384615384616em" height="0.08003181324714334em" x="3.3653846153846154vw" y="2.9199681867528566em" fill="#aaa"/><rect width="0.09615384615384616em" height="0.1275935320544663em" x="3.4615384615384617vw" y="2.8724064679455337em" fill="#aaa"/><rect width="0.09615384615384616em" height="0.0798126842531996em" x="3.557692307692308vw" y="2.9201873157468006em" fill="#aaa"/><rect width="0.09615384615384616em" height="0.22783604687788234em" x="3.653846153846154vw" y="2.7721639531221176em" fill="#aaa"/><rect width="0.09615384615384616em" height="0.06837227971625132em" x="3.75vw" y="2.931627720283749em" fill="#aaa"/><rect width="0.09615384615384616em" height="0.13980964250772213em" x="3.8461538461538463vw" y="2.860190357492278em" fill="#aaa"/><rect width="0.09615384615384616em" height="0.0509452384982907em" x="3.9423076923076925vw" y="2.949054761501709em" fill="#aaa"/><rect width="0.09615384615384616em" height="0.1862703340884889em" x="4.038461538461538vw" y="2.813729665911511em" fill="#aaa"/><rect width="0.09615384615384616em" height="0.088803013771406em" x="4.134615384615385vw" y="2.911196986228594em" fill="#aaa"/><rect width="0.09615384615384616em" height="0.10839970342577737em" x="4.230769230769231vw" y="2.8916002965742225em" fill="#aaa"/><rect width="0.09615384615384616em" height="0.21070103758755515em" x="4.3269230769230775vw" y="2.789298962412445em" fill="#aaa"/><rect width="0.09615384615384616em" height="0.1755905158664375em" x="4.423076923076923vw" y="2.8244094841335623em" fill="#aaa"/><rect width="0.09615384615384616em" height="0.11420506283430032em" x="4.519230769230769vw" y="2.8857949371656995em" fill="#aaa"/><rect width="0.09615384615384616em" height="0.29318940094426055em" x="4.615384615384616vw" y="2.7068105990557396em" fill="#aaa"/><rect width="0.09615384615384616em" height="0.6457995968141875em" x="4.711538461538462vw" y="2.3542004031858124em" fill="#aaa"/><rect width="0.09615384615384616em" height="0.6160985978028338em" x="4.807692307692308vw" y="2.383901402197166em" fill="#aaa"/><rect width="0.09615384615384616em" height="0.1888899646058624em" x="4.903846153846154vw" y="2.8111100353941376em" fill="#aaa"/><rect width="0.09615384615384616em" height="0.28667197142729023em" x="5vw" y="2.7133280285727097em" fill="#aaa"/><rect width="0.09615384615384616em" height="0.23848768118269775em" x="5.096153846153847vw" y="2.761512318817302em" fill="#aaa"/><rect width="0.09615384615384616em" height="0.29358101312792406em" x="5.1923076923076925vw" y="2.706418986872076em" fill="#aaa"/><rect width="0.09615384615384616em" height="0.40016954949154215em" x="5.288461538461538vw" y="2.599830450508458em" fill="#aaa"/><rect width="0.09615384615384616em" height="0.167492062391691em" x="5.384615384615385vw" y="2.832507937608309em" fill="#aaa"/><rect width="0.09615384615384616em" height="0.3135273604643822em" x="5.480769230769231vw" y="2.686472639535618em" fill="#aaa"/><rect width="0.09615384615384616em" height="0.3426801351552869em" x="5.5769230769230775vw" y="2.657319864844713em" fill="#aaa"/><rect width="0.09615384615384616em" height="0.6737753254978864em" x="5.673076923076923vw" y="2.3262246745021136em" fill="#aaa"/><rect width="0.09615384615384616em" height="0.4351487890123331em" x="5.769230769230769vw" y="2.564851210987667em" fill="#aaa"/><rect width="0.09615384615384616em" height="0.3582914537708694em" x="5.865384615384616vw" y="2.6417085462291308em" fill="#aaa"/><rect width="0.09615384615384616em" height="0.8238446669187593em" x="5.961538461538462vw" y="2.1761553330812404em" fill="#aaa"/><rect width="0.09615384615384616em" height="0.3607230682647039em" x="6.057692307692308vw" y="2.639276931735296em" fill="#aaa"/><rect width="0.09615384615384616em" height="0.5063661998592928em" x="6.153846153846154vw" y="2.4936338001407075em" fill="#aaa"/><rect width="0.09615384615384616em" height="1.7522866302666504em" x="6.25vw" y="1.2477133697333496em" fill="#aaa"/><rect width="0.09615384615384616em" height="2.8647342167557497em" x="6.346153846153847vw" y="0.13526578324425031em" fill="#aaa"/><rect width="0.09615384615384616em" height="0.8629184893204069em" x="6.4423076923076925vw" y="2.137081510679593em" fill="#aaa"/><rect width="0.09615384615384616em" height="1.11048737019072em" x="6.538461538461539vw" y="1.88951262980928em" fill="#aaa"/><rect width="0.09615384615384616em" height="1.283817274166255em" x="6.634615384615385vw" y="1.716182725833745em" fill="#aaa"/><rect width="0.09615384615384616em" height="1.5198686452819032em" x="6.730769230769231vw" y="1.4801313547180968em" fill="#aaa"/><rect width="0.09615384615384616em" height="1.5658813377721057em" x="6.8269230769230775vw" y="1.4341186622278943em" fill="#aaa"/><rect width="0.09615384615384616em" height="1.2708660900709368em" x="6.923076923076923vw" y="1.7291339099290632em" fill="#aaa"/><rect width="0.09615384615384616em" height="1.2976238837531415em" x="7.01923076923077vw" y="1.7023761162468585em" fill="#aaa"/><rect width="0.09615384615384616em" height="2.0071244062887525em" x="7.115384615384616vw" y="0.9928755937112475em" fill="#aaa"/><rect width="0.09615384615384616em" height="0.21155614964206576em" x="7.211538461538462vw" y="2.7884438503579343em" fill="#aaa"/><rect width="0.09615384615384616em" height="0.7970604071627929em" x="7.307692307692308vw" y="2.202939592837207em" fill="#aaa"/><rect width="0.09615384615384616em" height="0.7715589596705541em" x="7.403846153846154vw" y="2.2284410403294457em" fill="#aaa"/><rect width="0.09615384615384616em" height="1.1334658212989464em" x="7.5vw" y="1.8665341787010536em" fill="#aaa"/><rect width="0.09615384615384616em" height="0.37146079281610034em" x="7.596153846153847vw" y="2.6285392071838998em" fill="#aaa"/><rect width="0.09615384615384616em" height="0.8892573298446493em" x="7.6923076923076925vw" y="2.110742670155351em" fill="#aaa"/><rect width="0.09615384615384616em" height="0.6377090360200559em" x="7.788461538461539vw" y="2.362290963979944em" fill="#aaa"/><rect width="0.09615384615384616em" height="0.3428468011276741em" x="7.884615384615385vw" y="2.657153198872326em" fill="#aaa"/><rect width="0.09615384615384616em" height="0.40960163406929573em" x="7.980769230769231vw" y="2.5903983659307044em" fill="#aaa"/><rect width="0.09615384615384616em" height="0.3193730649567924em" x="8.076923076923077vw" y="2.6806269350432075em" fill="#aaa"/><rect width="0.09615384615384616em" height="0.4465188436541542em" x="8.173076923076923vw" y="2.5534811563458457em" fill="#aaa"/><rect width="0.09615384615384616em" height="0.18779786155351383em" x="8.26923076923077vw" y="2.8122021384464864em" fill="#aaa"/><rect width="0.09615384615384616em" height="0.6715469459743336em" x="8.365384615384615vw" y="2.3284530540256663em" fill="#aaa"/><rect width="0.09615384615384616em" height="0.7214754666054026em" x="8.461538461538462vw" y="2.2785245333945974em" fill="#aaa"/><rect width="0.09615384615384616em" height="0.6528948807069807em" x="8.557692307692308vw" y="2.3471051192930195em" fill="#aaa"/><rect width="0.09615384615384616em" height="0.895613012076392em" x="8.653846153846155vw" y="2.104386987923608em" fill="#aaa"/><rect width="0.09615384615384616em" height="1.0810456725756916em" x="8.75vw" y="1.9189543274243084em" fill="#aaa"/><rect width="0.09615384615384616em" height="1.5398953047494777em" x="8.846153846153847vw" y="1.4601046952505223em" fill="#aaa"/><rect width="0.09615384615384616em" height="3em" x="8.942307692307693vw" y="0em" fill="#aaa"/><rect width="0.09615384615384616em" height="2.430143838963632em" x="9.038461538461538vw" y="0.5698561610363679em" fill="#aaa"/><rect width="0.09615384615384616em" height="2.511125932891108em" x="9.134615384615385vw" y="0.4888740671088918em" fill="#aaa"/><rect width="0.09615384615384616em" height="2.7871753220508797em" x="9.230769230769232vw" y="0.2128246779491203em" fill="#aaa"/><rect width="0.09615384615384616em" height="1.5902636822786704em" x="9.326923076923077vw" y="1.4097363177213296em" fill="#aaa"/><rect width="0.09615384615384616em" height="2.514374612640549em" x="9.423076923076923vw" y="0.48562538735945093em" fill="#aaa"/><rect width="0.09615384615384616em" height="1.5848624552931656em" x="9.51923076923077vw" y="1.4151375447068344em" fill="#aaa"/><rect width="0.09615384615384616em" height="2.2716801559013455em" x="9.615384615384617vw" y="0.7283198440986545em" fill="#aaa"/><rect width="0.09615384615384616em" height="1.4221990263298865em" x="9.711538461538462vw" y="1.5778009736701135em" fill="#aaa"/><rect width="0.09615384615384616em" height="1.8490179576313888em" x="9.807692307692308vw" y="1.1509820423686112em" fill="#aaa"/><rect width="0.09615384615384616em" height="2.084705116228268em" x="9.903846153846155vw" y="0.9152948837717321em" fill="#aaa"/></svg>