<?xml version="1.0" standalone="no"?>
<svg xmlns:xlink="http://www.w3.org/1999/xlink" xmlns="http://www.w3.org/2000/svg" class="topic-graph" style="width: 10vw; height: 3em; text-align: center;"><rect width="0.09615384615384616em" height="0.27776218112281925em" x="0vw" y="2.722237818877181em" fill="#aaa"/><rect width="0.09615384615384616em" height="0.055335604823363596em" x="0.09615384615384616vw" y="2.9446643951766363em" fill="#aaa"/><rect width="0.09615384615384616em" height="0.04968264443579796em" x="0.19230769230769232vw" y="2.950317355564202em" fill="#aaa"/><rect width="0.09615384615384616em" height="0.07624041052726285em" x="0.2884615384615385vw" y="2.9237595894727373em" fill="#aaa"/><rect width="0.09615384615384616em" height="0.03757831203968782em" x="0.38461538461538464vw" y="2.9624216879603122em" fill="#aaa"/><rect width="0.09615384615384616em" height="0.2176499790612752em" x="0.4807692307692308vw" y="2.7823500209387246em" fill="#aaa"/><rect width="0.09615384615384616em" height="0.028244516806506567em" x="0.576923076923077vw" y="2.9717554831934936em" fill="#aaa"/><rect width="0.09615384615384616em" height="0.608646434819146em" x="0.6730769230769231vw" y="2.3913535651808537em" fill="#aaa"/><rect width="0.09615384615384616em" height="0.02234467932077847em" x="0.7692307692307693vw" y="2.9776553206792213em" fill="#aaa"/><rect width="0.09615384615384616em" height="0.029341881839526934em" x="0.8653846153846154vw" y="2.970658118160473em" fill="#aaa"/><rect width="0.09615384615384616em" height="0.06397386080706458em" x="0.9615384615384616vw" y="2.9360261391929354em" fill="#aaa"/><rect width="0.09615384615384616em" height="0.03691652759535262em" x="1.0576923076923077vw" y="2.9630834724046475em" fill="#aaa"/><rect width="0.09615384615384616em" height="0.03716400493295814em" x="1.153846153846154vw" y="2.9628359950670418em" fill="#aaa"/><rect width="0.09615384615384616em" height="0.11544741935325768em" x="1.25vw" y="2.8845525806467425em" fill="#aaa"/><rect width="0.09615384615384616em" height="0.02785722889155906em" x="1.3461538461538463vw" y="2.972142771108441em" fill="#aaa"/><rect width="0.09615384615384616em" height="0.13362351980437337em" x="1.4423076923076923vw" y="2.8663764801956266em" fill="#aaa"/><rect width="0.09615384615384616em" height="0.05235804462597349em" x="1.5384615384615385vw" y="2.9476419553740265em" fill="#aaa"/><rect width="0.09615384615384616em" height="0.016954753970371737em" x="1.6346153846153848vw" y="2.9830452460296284em" fill="#aaa"/><rect width="0.09615384615384616em" height="0.047021288823449206em" x="1.7307692307692308vw" y="2.952978711176551em" fill="#aaa"/><rect width="0.09615384615384616em" height="0.10612619835162203em" x="1.826923076923077vw" y="2.893873801648378em" fill="#aaa"/><rect width="0.09615384615384616em" height="0.10418557045710969em" x="1.9230769230769231vw" y="2.8958144295428903em" fill="#aaa"/><rect width="0.09615384615384616em" height="0.11563502287619155em" x="2.019230769230769vw" y="2.8843649771238082em" fill="#aaa"/><rect width="0.09615384615384616em" height="0.23608296259147327em" x="2.1153846153846154vw" y="2.7639170374085267em" fill="#aaa"/><rect width="0.09615384615384616em" height="0.3373005959516368em" x="2.2115384615384617vw" y="2.662699404048363em" fill="#aaa"/><rect width="0.09615384615384616em" height="0.49390113701028826em" x="2.307692307692308vw" y="2.506098862989712em" fill="#aaa"/><rect width="0.09615384615384616em" height="0.11070219329544184em" x="2.403846153846154vw" y="2.8892978067045583em" fill="#aaa"/><rect width="0.09615384615384616em" height="0.051185239591591894em" x="2.5vw" y="2.9488147604084083em" fill="#aaa"/><rect width="0.09615384615384616em" height="0.04121566651644619em" x="2.5961538461538463vw" y="2.9587843334835537em" fill="#aaa"/><rect width="0.09615384615384616em" height="0.055972643564235786em" x="2.6923076923076925vw" y="2.944027356435764em" fill="#aaa"/><rect width="0.09615384615384616em" height="0.06362943199908191em" x="2.7884615384615388vw" y="2.936370568000918em" fill="#aaa"/><rect width="0.09615384615384616em" height="0.1448233103953595em" x="2.8846153846153846vw" y="2.8551766896046407em" fill="#aaa"/><rect width="0.09615384615384616em" height="0.09084169833960164em" x="2.980769230769231vw" y="2.9091583016603986em" fill="#aaa"/><rect width="0.09615384615384616em" height="0.04919745458879874em" x="3.076923076923077vw" y="2.9508025454112015em" fill="#aaa"/><rect width="0.09615384615384616em" height="0.07935301801710185em" x="3.1730769230769234vw" y="2.920646981982898em" fill="#aaa"/><rect width="0.09615384615384616em" height="0.06794847904746848em" x="3.2692307692307696vw" y="2.9320515209525313em" fill="#aaa"/><rect width="0.09615384615384616em" height="0.0868270135890564em" x="3.3653846153846154vw" y="2.9131729864109435em" fill="#aaa"/><rect width="0.09615384615384616em" height="0.19742430672591627em" x="3.4615384615384617vw" y="2.8025756932740835em" fill="#aaa"/><rect width="0.09615384615384616em" height="0.48937058742826745em" x="3.557692307692308vw" y="2.5106294125717326em" fill="#aaa"/><rect width="0.09615384615384616em" height="0.4032371129623297em" x="3.653846153846154vw" y="2.5967628870376704em" fill="#aaa"/><rect width="0.09615384615384616em" height="0.6113792498688703em" x="3.75vw" y="2.3886207501311296em" fill="#aaa"/><rect width="0.09615384615384616em" height="0.12755129336204934em" x="3.8461538461538463vw" y="2.8724487066379507em" fill="#aaa"/><rect width="0.09615384615384616em" height="0.9095630537058423em" x="3.9423076923076925vw" y="2.0904369462941577em" fill="#aaa"/><rect width="0.09615384615384616em" height="0.18686314201807475em" x="4.038461538461538vw" y="2.813136857981925em" fill="#aaa"/><rect width="0.09615384615384616em" height="0.2548367784457709em" x="4.134615384615385vw" y="2.745163221554229em" fill="#aaa"/><rect width="0.09615384615384616em" height="0.10527922728581138em" x="4.230769230769231vw" y="2.8947207727141886em" fill="#aaa"/><rect width="0.09615384615384616em" height="0.12671326038904657em" x="4.3269230769230775vw" y="2.8732867396109536em" fill="#aaa"/><rect width="0.09615384615384616em" height="0.025291141488958432em" x="4.423076923076923vw" y="2.9747088585110415em" fill="#aaa"/><rect width="0.09615384615384616em" height="0.07842562875430581em" x="4.519230769230769vw" y="2.9215743712456943em" fill="#aaa"/><rect width="0.09615384615384616em" height="0.04206431340895937em" x="4.615384615384616vw" y="2.9579356865910404em" fill="#aaa"/><rect width="0.09615384615384616em" height="0.09973294444006667em" x="4.711538461538462vw" y="2.9002670555599335em" fill="#aaa"/><rect width="0.09615384615384616em" height="0.14035317756108934em" x="4.807692307692308vw" y="2.8596468224389104em" fill="#aaa"/><rect width="0.09615384615384616em" height="0.16794728919491297em" x="4.903846153846154vw" y="2.832052710805087em" fill="#aaa"/><rect width="0.09615384615384616em" height="0.17119982383494795em" x="5vw" y="2.828800176165052em" fill="#aaa"/><rect width="0.09615384615384616em" height="0.17318957458666506em" x="5.096153846153847vw" y="2.826810425413335em" fill="#aaa"/><rect width="0.09615384615384616em" height="0.1965825712584206em" x="5.1923076923076925vw" y="2.8034174287415796em" fill="#aaa"/><rect width="0.09615384615384616em" height="0.11913106328346346em" x="5.288461538461538vw" y="2.8808689367165368em" fill="#aaa"/><rect width="0.09615384615384616em" height="0.12134373109075237em" x="5.384615384615385vw" y="2.8786562689092476em" fill="#aaa"/><rect width="0.09615384615384616em" height="0.1669326118477806em" x="5.480769230769231vw" y="2.8330673881522195em" fill="#aaa"/><rect width="0.09615384615384616em" height="0.11183105364894189em" x="5.5769230769230775vw" y="2.8881689463510583em" fill="#aaa"/><rect width="0.09615384615384616em" height="0.12016310360841775em" x="5.673076923076923vw" y="2.8798368963915824em" fill="#aaa"/><rect width="0.09615384615384616em" height="0.07771245817569744em" x="5.769230769230769vw" y="2.9222875418243026em" fill="#aaa"/><rect width="0.09615384615384616em" height="0.3030494747688714em" x="5.865384615384616vw" y="2.6969505252311285em" fill="#aaa"/><rect width="0.09615384615384616em" height="0.36030331891970324em" x="5.961538461538462vw" y="2.639696681080297em" fill="#aaa"/><rect width="0.09615384615384616em" height="0.12494746967541924em" x="6.057692307692308vw" y="2.875052530324581em" fill="#aaa"/><rect width="0.09615384615384616em" height="0.2656112847018904em" x="6.153846153846154vw" y="2.7343887152981097em" fill="#aaa"/><rect width="0.09615384615384616em" height="0.09436276667125099em" x="6.25vw" y="2.905637233328749em" fill="#aaa"/><rect width="0.09615384615384616em" height="0.14333097729360497em" x="6.346153846153847vw" y="2.856669022706395em" fill="#aaa"/><rect width="0.09615384615384616em" height="0.465385290986726em" x="6.4423076923076925vw" y="2.5346147090132742em" fill="#aaa"/><rect width="0.09615384615384616em" height="0.07738199837927873em" x="6.538461538461539vw" y="2.9226180016207213em" fill="#aaa"/><rect width="0.09615384615384616em" height="0.17537477033697688em" x="6.634615384615385vw" y="2.824625229663023em" fill="#aaa"/><rect width="0.09615384615384616em" height="0.1048440449315523em" x="6.730769230769231vw" y="2.895155955068448em" fill="#aaa"/><rect width="0.09615384615384616em" height="0.10030689602661573em" x="6.8269230769230775vw" y="2.899693103973384em" fill="#aaa"/><rect width="0.09615384615384616em" height="0.1388786475839918em" x="6.923076923076923vw" y="2.861121352416008em" fill="#aaa"/><rect width="0.09615384615384616em" height="0.11412472092309292em" x="7.01923076923077vw" y="2.885875279076907em" fill="#aaa"/><rect width="0.09615384615384616em" height="0.1578802626273674em" x="7.115384615384616vw" y="2.8421197373726326em" fill="#aaa"/><rect width="0.09615384615384616em" height="0.7164849802101467em" x="7.211538461538462vw" y="2.2835150197898533em" fill="#aaa"/><rect width="0.09615384615384616em" height="1.7541927987844916em" x="7.307692307692308vw" y="1.2458072012155084em" fill="#aaa"/><rect width="0.09615384615384616em" height="3em" x="7.403846153846154vw" y="0em" fill="#aaa"/><rect width="0.09615384615384616em" height="1.26211154981192em" x="7.5vw" y="1.73788845018808em" fill="#aaa"/><rect width="0.09615384615384616em" height="1.5501974421361235em" x="7.596153846153847vw" y="1.4498025578638765em" fill="#aaa"/><rect width="0.09615384615384616em" height="0.638763272515689em" x="7.6923076923076925vw" y="2.361236727484311em" fill="#aaa"/><rect width="0.09615384615384616em" height="1.2404445427506492em" x="7.788461538461539vw" y="1.7595554572493508em" fill="#aaa"/><rect width="0.09615384615384616em" height="1.4130483144143686em" x="7.884615384615385vw" y="1.5869516855856314em" fill="#aaa"/><rect width="0.09615384615384616em" height="1.4167338799328022em" x="7.980769230769231vw" y="1.5832661200671978em" fill="#aaa"/><rect width="0.09615384615384616em" height="1.1060003717865836em" x="8.076923076923077vw" y="1.8939996282134164em" fill="#aaa"/><rect width="0.09615384615384616em" height="1.3501860235889056em" x="8.173076923076923vw" y="1.6498139764110944em" fill="#aaa"/><rect width="0.09615384615384616em" height="0.3314657425218554em" x="8.26923076923077vw" y="2.6685342574781448em" fill="#aaa"/><rect width="0.09615384615384616em" height="0.23804205157477784em" x="8.365384615384615vw" y="2.761957948425222em" fill="#aaa"/><rect width="0.09615384615384616em" height="0.2639013498176641em" x="8.461538461538462vw" y="2.7360986501823357em" fill="#aaa"/><rect width="0.09615384615384616em" height="0.3235652177523492em" x="8.557692307692308vw" y="2.6764347822476506em" fill="#aaa"/><rect width="0.09615384615384616em" height="0.2083481013039178em" x="8.653846153846155vw" y="2.7916518986960823em" fill="#aaa"/><rect width="0.09615384615384616em" height="0.21561053387264173em" x="8.75vw" y="2.784389466127358em" fill="#aaa"/><rect width="0.09615384615384616em" height="0.23553785093402407em" x="8.846153846153847vw" y="2.764462149065976em" fill="#aaa"/><rect width="0.09615384615384616em" height="0.1006697556956965em" x="8.942307692307693vw" y="2.8993302443043034em" fill="#aaa"/><rect width="0.09615384615384616em" height="0.4420498411198004em" x="9.038461538461538vw" y="2.5579501588801996em" fill="#aaa"/><rect width="0.09615384615384616em" height="0.6230685340031303em" x="9.134615384615385vw" y="2.3769314659968694em" fill="#aaa"/><rect width="0.09615384615384616em" height="0.5966042865967758em" x="9.230769230769232vw" y="2.403395713403224em" fill="#aaa"/><rect width="0.09615384615384616em" height="0.6107124664732049em" x="9.326923076923077vw" y="2.389287533526795em" fill="#aaa"/><rect width="0.09615384615384616em" height="0.2475615848819881em" x="9.423076923076923vw" y="2.7524384151180117em" fill="#aaa"/><rect width="0.09615384615384616em" height="0.40080858383638696em" x="9.51923076923077vw" y="2.599191416163613em" fill="#aaa"/><rect width="0.09615384615384616em" height="0.5362329755319128em" x="9.615384615384617vw" y="2.463767024468087em" fill="#aaa"/><rect width="0.09615384615384616em" height="0.3535337897188382em" x="9.711538461538462vw" y="2.6464662102811616em" fill="#aaa"/><rect width="0.09615384615384616em" height="0.6112163730574276em" x="9.807692307692308vw" y="2.3887836269425726em" fill="#aaa"/><rect width="0.09615384615384616em" height="0.6087158232010406em" x="9.903846153846155vw" y="2.391284176798959em" fill="#aaa"/></svg>