<?xml version="1.0" standalone="no"?>
<svg xmlns:xlink="http://www.w3.org/1999/xlink" xmlns="http://www.w3.org/2000/svg" class="topic-graph" style="width: 100em; height: 30em; text-align: center;"><rect width="0.9615384615384616em" height="0.4382283925728567em" x="0em" y="29.561771607427143em" fill="#aaa"/><rect width="0.9615384615384616em" height="1.5594690237730036em" x="0.9615384615384616em" y="28.440530976226995em" fill="#aaa"/><rect width="0.9615384615384616em" height="2.4822074358312136em" x="1.9230769230769231em" y="27.517792564168786em" fill="#aaa"/><rect width="0.9615384615384616em" height="0.12256452462615476em" x="2.8846153846153846em" y="29.877435475373844em" fill="#aaa"/><rect width="0.9615384615384616em" height="2.6908852343725878em" x="3.8461538461538463em" y="27.309114765627413em" fill="#aaa"/><rect width="0.9615384615384616em" height="0.33412870798024114em" x="4.8076923076923075em" y="29.66587129201976em" fill="#aaa"/><rect width="0.9615384615384616em" height="1.167289308247128em" x="5.769230769230769em" y="28.832710691752872em" fill="#aaa"/><rect width="0.9615384615384616em" height="0.23524901404317272em" x="6.730769230769231em" y="29.764750985956827em" fill="#aaa"/><rect width="0.9615384615384616em" height="1.9186095972554866em" x="7.6923076923076925em" y="28.081390402744514em" fill="#aaa"/><rect width="0.9615384615384616em" height="0.4686438969123835em" x="8.653846153846153em" y="29.531356103087617em" fill="#aaa"/><rect width="0.9615384615384616em" height="0.48613905619462144em" x="9.615384615384615em" y="29.51386094380538em" fill="#aaa"/><rect width="0.9615384615384616em" height="0.4685170495791106em" x="10.576923076923077em" y="29.53148295042089em" fill="#aaa"/><rect width="0.9615384615384616em" height="0.45536243532309995em" x="11.538461538461538em" y="29.5446375646769em" fill="#aaa"/><rect width="0.9615384615384616em" height="1.5623666739470954em" x="12.5em" y="28.437633326052904em" fill="#aaa"/><rect width="0.9615384615384616em" height="2.0940323143242456em" x="13.461538461538462em" y="27.905967685675755em" fill="#aaa"/><rect width="0.9615384615384616em" height="0.3760996395679215em" x="14.423076923076923em" y="29.623900360432078em" fill="#aaa"/><rect width="0.9615384615384616em" height="0.8418450282713017em" x="15.384615384615385em" y="29.1581549717287em" fill="#aaa"/><rect width="0.9615384615384616em" height="0.24920316707400852em" x="16.346153846153847em" y="29.750796832925992em" fill="#aaa"/><rect width="0.9615384615384616em" height="2.2538306802112342em" x="17.307692307692307em" y="27.746169319788766em" fill="#aaa"/><rect width="0.9615384615384616em" height="0.24972227384274184em" x="18.26923076923077em" y="29.750277726157258em" fill="#aaa"/><rect width="0.9615384615384616em" height="2.0857086396320375em" x="19.23076923076923em" y="27.91429136036796em" fill="#aaa"/><rect width="0.9615384615384616em" height="1.342791307775811em" x="20.192307692307693em" y="28.657208692224188em" fill="#aaa"/><rect width="0.9615384615384616em" height="4.01965875397564em" x="21.153846153846153em" y="25.98034124602436em" fill="#aaa"/><rect width="0.9615384615384616em" height="1.3679020067054801em" x="22.115384615384617em" y="28.63209799329452em" fill="#aaa"/><rect width="0.9615384615384616em" height="0.7398944084146436em" x="23.076923076923077em" y="29.260105591585358em" fill="#aaa"/><rect width="0.9615384615384616em" height="0.9623145914997923em" x="24.03846153846154em" y="29.03768540850021em" fill="#aaa"/><rect width="0.9615384615384616em" height="0.8273353974015798em" x="25em" y="29.17266460259842em" fill="#aaa"/><rect width="0.9615384615384616em" height="2.89670505802614em" x="25.961538461538463em" y="27.10329494197386em" fill="#aaa"/><rect width="0.9615384615384616em" height="3.264612694593733em" x="26.923076923076923em" y="26.735387305406267em" fill="#aaa"/><rect width="0.9615384615384616em" height="10.08043804299411em" x="27.884615384615387em" y="19.91956195700589em" fill="#aaa"/><rect width="0.9615384615384616em" height="5.41273871306802em" x="28.846153846153847em" y="24.58726128693198em" fill="#aaa"/><rect width="0.9615384615384616em" height="0.9405039519604654em" x="29.80769230769231em" y="29.059496048039534em" fill="#aaa"/><rect width="0.9615384615384616em" height="1.044666205060437em" x="30.76923076923077em" y="28.955333794939563em" fill="#aaa"/><rect width="0.9615384615384616em" height="0.609719546666228em" x="31.73076923076923em" y="29.390280453333773em" fill="#aaa"/><rect width="0.9615384615384616em" height="1.5251238149921966em" x="32.69230769230769em" y="28.474876185007805em" fill="#aaa"/><rect width="0.9615384615384616em" height="0.8658433027349826em" x="33.65384615384615em" y="29.134156697265016em" fill="#aaa"/><rect width="0.9615384615384616em" height="1.7237689698252474em" x="34.61538461538461em" y="28.276231030174753em" fill="#aaa"/><rect width="0.9615384615384616em" height="1.5568342398830801em" x="35.57692307692308em" y="28.44316576011692em" fill="#aaa"/><rect width="0.9615384615384616em" height="3.602164691284201em" x="36.53846153846154em" y="26.3978353087158em" fill="#aaa"/><rect width="0.9615384615384616em" height="1.0455067936626015em" x="37.5em" y="28.9544932063374em" fill="#aaa"/><rect width="0.9615384615384616em" height="1.8317260382534497em" x="38.46153846153846em" y="28.16827396174655em" fill="#aaa"/><rect width="0.9615384615384616em" height="16.2103995731649em" x="39.42307692307693em" y="13.7896004268351em" fill="#aaa"/><rect width="0.9615384615384616em" height="5.674722707362261em" x="40.38461538461539em" y="24.32527729263774em" fill="#aaa"/><rect width="0.9615384615384616em" height="2.5895973638957845em" x="41.34615384615385em" y="27.410402636104216em" fill="#aaa"/><rect width="0.9615384615384616em" height="1.8582793014327406em" x="42.30769230769231em" y="28.14172069856726em" fill="#aaa"/><rect width="0.9615384615384616em" height="5.61214971354482em" x="43.269230769230774em" y="24.38785028645518em" fill="#aaa"/><rect width="0.9615384615384616em" height="0.7363108881318496em" x="44.23076923076923em" y="29.26368911186815em" fill="#aaa"/><rect width="0.9615384615384616em" height="1.8747564902571108em" x="45.19230769230769em" y="28.12524350974289em" fill="#aaa"/><rect width="0.9615384615384616em" height="0.9433027244465861em" x="46.15384615384615em" y="29.056697275553415em" fill="#aaa"/><rect width="0.9615384615384616em" height="0.560995066296921em" x="47.11538461538461em" y="29.439004933703078em" fill="#aaa"/><rect width="0.9615384615384616em" height="0.7123031660122937em" x="48.07692307692308em" y="29.287696833987706em" fill="#aaa"/><rect width="0.9615384615384616em" height="2.0915127813061094em" x="49.03846153846154em" y="27.908487218693892em" fill="#aaa"/><rect width="0.9615384615384616em" height="1.699983668549319em" x="50em" y="28.30001633145068em" fill="#aaa"/><rect width="0.9615384615384616em" height="2.405893989946696em" x="50.96153846153846em" y="27.594106010053302em" fill="#aaa"/><rect width="0.9615384615384616em" height="1.596114107284298em" x="51.92307692307693em" y="28.403885892715703em" fill="#aaa"/><rect width="0.9615384615384616em" height="1.7540093754534547em" x="52.88461538461539em" y="28.245990624546547em" fill="#aaa"/><rect width="0.9615384615384616em" height="1.0863026881325226em" x="53.84615384615385em" y="28.913697311867477em" fill="#aaa"/><rect width="0.9615384615384616em" height="0.9644804660115346em" x="54.80769230769231em" y="29.035519533988467em" fill="#aaa"/><rect width="0.9615384615384616em" height="4.400547050090489em" x="55.769230769230774em" y="25.599452949909512em" fill="#aaa"/><rect width="0.9615384615384616em" height="3.269890413029186em" x="56.73076923076923em" y="26.730109586970812em" fill="#aaa"/><rect width="0.9615384615384616em" height="1.8996544804697393em" x="57.69230769230769em" y="28.10034551953026em" fill="#aaa"/><rect width="0.9615384615384616em" height="1.0782814800865437em" x="58.65384615384615em" y="28.921718519913455em" fill="#aaa"/><rect width="0.9615384615384616em" height="2.4109975268396386em" x="59.61538461538462em" y="27.589002473160363em" fill="#aaa"/><rect width="0.9615384615384616em" height="1.0600143701754734em" x="60.57692307692308em" y="28.939985629824527em" fill="#aaa"/><rect width="0.9615384615384616em" height="3.5408306282400854em" x="61.53846153846154em" y="26.459169371759913em" fill="#aaa"/><rect width="0.9615384615384616em" height="10.070588425825925em" x="62.5em" y="19.929411574174075em" fill="#aaa"/><rect width="0.9615384615384616em" height="7.109462221780316em" x="63.46153846153846em" y="22.890537778219684em" fill="#aaa"/><rect width="0.9615384615384616em" height="1.7869782138417143em" x="64.42307692307692em" y="28.213021786158286em" fill="#aaa"/><rect width="0.9615384615384616em" height="3.233786038200648em" x="65.38461538461539em" y="26.76621396179935em" fill="#aaa"/><rect width="0.9615384615384616em" height="8.285367200077049em" x="66.34615384615385em" y="21.714632799922953em" fill="#aaa"/><rect width="0.9615384615384616em" height="10.17543491555269em" x="67.3076923076923em" y="19.824565084447308em" fill="#aaa"/><rect width="0.9615384615384616em" height="2.088595192664742em" x="68.26923076923077em" y="27.91140480733526em" fill="#aaa"/><rect width="0.9615384615384616em" height="5.345587601491204em" x="69.23076923076923em" y="24.654412398508796em" fill="#aaa"/><rect width="0.9615384615384616em" height="1.7437815835953054em" x="70.1923076923077em" y="28.256218416404696em" fill="#aaa"/><rect width="0.9615384615384616em" height="1.5644654399195208em" x="71.15384615384616em" y="28.43553456008048em" fill="#aaa"/><rect width="0.9615384615384616em" height="9.697444186065367em" x="72.11538461538461em" y="20.30255581393463em" fill="#aaa"/><rect width="0.9615384615384616em" height="19.868232233921724em" x="73.07692307692308em" y="10.131767766078276em" fill="#aaa"/><rect width="0.9615384615384616em" height="21.744722699176503em" x="74.03846153846155em" y="8.255277300823497em" fill="#aaa"/><rect width="0.9615384615384616em" height="7.978924420107996em" x="75em" y="22.021075579892006em" fill="#aaa"/><rect width="0.9615384615384616em" height="6.08310096074639em" x="75.96153846153847em" y="23.91689903925361em" fill="#aaa"/><rect width="0.9615384615384616em" height="3.976223485536328em" x="76.92307692307692em" y="26.023776514463673em" fill="#aaa"/><rect width="0.9615384615384616em" height="22.32192656481187em" x="77.88461538461539em" y="7.678073435188129em" fill="#aaa"/><rect width="0.9615384615384616em" height="30em" x="78.84615384615385em" y="0em" fill="#aaa"/><rect width="0.9615384615384616em" height="15.181145305347432em" x="79.8076923076923em" y="14.818854694652568em" fill="#aaa"/><rect width="0.9615384615384616em" height="10.525578660816974em" x="80.76923076923077em" y="19.474421339183024em" fill="#aaa"/><rect width="0.9615384615384616em" height="8.1937789742989em" x="81.73076923076923em" y="21.8062210257011em" fill="#aaa"/><rect width="0.9615384615384616em" height="6.272221165434035em" x="82.6923076923077em" y="23.727778834565964em" fill="#aaa"/><rect width="0.9615384615384616em" height="5.049416726284231em" x="83.65384615384616em" y="24.95058327371577em" fill="#aaa"/><rect width="0.9615384615384616em" height="9.848794190781986em" x="84.61538461538461em" y="20.151205809218013em" fill="#aaa"/><rect width="0.9615384615384616em" height="5.377648598684219em" x="85.57692307692308em" y="24.622351401315782em" fill="#aaa"/><rect width="0.9615384615384616em" height="3.744245567020531em" x="86.53846153846155em" y="26.25575443297947em" fill="#aaa"/><rect width="0.9615384615384616em" height="2.84827684453765em" x="87.5em" y="27.15172315546235em" fill="#aaa"/><rect width="0.9615384615384616em" height="2.4085989782528276em" x="88.46153846153847em" y="27.591401021747174em" fill="#aaa"/><rect width="0.9615384615384616em" height="2.880523202204749em" x="89.42307692307692em" y="27.11947679779525em" fill="#aaa"/><rect width="0.9615384615384616em" height="2.6746717947297514em" x="90.38461538461539em" y="27.32532820527025em" fill="#aaa"/><rect width="0.9615384615384616em" height="2.144699641063641em" x="91.34615384615385em" y="27.855300358936358em" fill="#aaa"/><rect width="0.9615384615384616em" height="3.258012506427476em" x="92.3076923076923em" y="26.741987493572523em" fill="#aaa"/><rect width="0.9615384615384616em" height="5.862517724650358em" x="93.26923076923077em" y="24.13748227534964em" fill="#aaa"/><rect width="0.9615384615384616em" height="2.095648673777908em" x="94.23076923076923em" y="27.90435132622209em" fill="#aaa"/><rect width="0.9615384615384616em" height="2.153696806447314em" x="95.1923076923077em" y="27.846303193552686em" fill="#aaa"/><rect width="0.9615384615384616em" height="3.792860661794598em" x="96.15384615384616em" y="26.2071393382054em" fill="#aaa"/><rect width="0.9615384615384616em" height="3.544303522795078em" x="97.11538461538461em" y="26.45569647720492em" fill="#aaa"/><rect width="0.9615384615384616em" height="4.657851155554288em" x="98.07692307692308em" y="25.342148844445713em" fill="#aaa"/><rect width="0.9615384615384616em" height="5.175533603849225em" x="99.03846153846155em" y="24.824466396150775em" fill="#aaa"/></svg>