<?xml version="1.0" standalone="no"?>
<svg xmlns:xlink="http://www.w3.org/1999/xlink" xmlns="http://www.w3.org/2000/svg" class="topic-graph" style="width: 100em; height: 30em; text-align: center;"><rect width="0.9615384615384616em" height="0.5993689525300633em" x="0em" y="29.400631047469936em" fill="#aaa"/><rect width="0.9615384615384616em" height="16.490172013751742em" x="0.9615384615384616em" y="13.509827986248258em" fill="#aaa"/><rect width="0.9615384615384616em" height="1.1281891977293372em" x="1.9230769230769231em" y="28.871810802270662em" fill="#aaa"/><rect width="0.9615384615384616em" height="1.9303176268962066em" x="2.8846153846153846em" y="28.069682373103795em" fill="#aaa"/><rect width="0.9615384615384616em" height="30em" x="3.8461538461538463em" y="0em" fill="#aaa"/><rect width="0.9615384615384616em" height="0.4287253018139254em" x="4.8076923076923075em" y="29.571274698186073em" fill="#aaa"/><rect width="0.9615384615384616em" height="8.955064208561456em" x="5.769230769230769em" y="21.044935791438544em" fill="#aaa"/><rect width="0.9615384615384616em" height="1.0230045758344417em" x="6.730769230769231em" y="28.97699542416556em" fill="#aaa"/><rect width="0.9615384615384616em" height="0.9740847480431483em" x="7.6923076923076925em" y="29.025915251956853em" fill="#aaa"/><rect width="0.9615384615384616em" height="1.8158492952579792em" x="8.653846153846153em" y="28.18415070474202em" fill="#aaa"/><rect width="0.9615384615384616em" height="0.2626174412676749em" x="9.615384615384615em" y="29.737382558732325em" fill="#aaa"/><rect width="0.9615384615384616em" height="0.6553619198516628em" x="10.576923076923077em" y="29.344638080148336em" fill="#aaa"/><rect width="0.9615384615384616em" height="1.4202698607943798em" x="11.538461538461538em" y="28.57973013920562em" fill="#aaa"/><rect width="0.9615384615384616em" height="1.1508713849615049em" x="12.5em" y="28.849128615038495em" fill="#aaa"/><rect width="0.9615384615384616em" height="1.5293487883092947em" x="13.461538461538462em" y="28.470651211690704em" fill="#aaa"/><rect width="0.9615384615384616em" height="0.5327270043743599em" x="14.423076923076923em" y="29.467272995625642em" fill="#aaa"/><rect width="0.9615384615384616em" height="0.5478105015582403em" x="15.384615384615385em" y="29.45218949844176em" fill="#aaa"/><rect width="0.9615384615384616em" height="1.4471070517002051em" x="16.346153846153847em" y="28.552892948299796em" fill="#aaa"/><rect width="0.9615384615384616em" height="0.9450902970926718em" x="17.307692307692307em" y="29.054909702907327em" fill="#aaa"/><rect width="0.9615384615384616em" height="0.7436944451682761em" x="18.26923076923077em" y="29.256305554831723em" fill="#aaa"/><rect width="0.9615384615384616em" height="0.3567725959633513em" x="19.23076923076923em" y="29.643227404036647em" fill="#aaa"/><rect width="0.9615384615384616em" height="0.22790540174386745em" x="20.192307692307693em" y="29.772094598256132em" fill="#aaa"/><rect width="0.9615384615384616em" height="0.9106651820996091em" x="21.153846153846153em" y="29.08933481790039em" fill="#aaa"/><rect width="0.9615384615384616em" height="0.3529434478929526em" x="22.115384615384617em" y="29.64705655210705em" fill="#aaa"/><rect width="0.9615384615384616em" height="0.348517619298354em" x="23.076923076923077em" y="29.651482380701648em" fill="#aaa"/><rect width="0.9615384615384616em" height="1.4089636899101103em" x="24.03846153846154em" y="28.59103631008989em" fill="#aaa"/><rect width="0.9615384615384616em" height="0.4646099035541441em" x="25em" y="29.535390096445855em" fill="#aaa"/><rect width="0.9615384615384616em" height="0.5648079727848042em" x="25.961538461538463em" y="29.435192027215194em" fill="#aaa"/><rect width="0.9615384615384616em" height="0.5109871792776981em" x="26.923076923076923em" y="29.4890128207223em" fill="#aaa"/><rect width="0.9615384615384616em" height="0.3032939529777962em" x="27.884615384615387em" y="29.696706047022204em" fill="#aaa"/><rect width="0.9615384615384616em" height="0.4335718977484188em" x="28.846153846153847em" y="29.56642810225158em" fill="#aaa"/><rect width="0.9615384615384616em" height="0.6338860591751454em" x="29.80769230769231em" y="29.366113940824853em" fill="#aaa"/><rect width="0.9615384615384616em" height="0.9599887502496413em" x="30.76923076923077em" y="29.040011249750357em" fill="#aaa"/><rect width="0.9615384615384616em" height="0.7966478590899556em" x="31.73076923076923em" y="29.203352140910045em" fill="#aaa"/><rect width="0.9615384615384616em" height="0.3157940946559418em" x="32.69230769230769em" y="29.684205905344058em" fill="#aaa"/><rect width="0.9615384615384616em" height="0.4412613565432298em" x="33.65384615384615em" y="29.55873864345677em" fill="#aaa"/><rect width="0.9615384615384616em" height="0.594264158500614em" x="34.61538461538461em" y="29.405735841499386em" fill="#aaa"/><rect width="0.9615384615384616em" height="0.4158490284373224em" x="35.57692307692308em" y="29.58415097156268em" fill="#aaa"/><rect width="0.9615384615384616em" height="0.4004144326090854em" x="36.53846153846154em" y="29.599585567390914em" fill="#aaa"/><rect width="0.9615384615384616em" height="0.31373801692134884em" x="37.5em" y="29.68626198307865em" fill="#aaa"/><rect width="0.9615384615384616em" height="0.8657917669204809em" x="38.46153846153846em" y="29.13420823307952em" fill="#aaa"/><rect width="0.9615384615384616em" height="1.1615444588814314em" x="39.42307692307693em" y="28.83845554111857em" fill="#aaa"/><rect width="0.9615384615384616em" height="0.9805335751720239em" x="40.38461538461539em" y="29.019466424827975em" fill="#aaa"/><rect width="0.9615384615384616em" height="1.1913032172912625em" x="41.34615384615385em" y="28.808696782708736em" fill="#aaa"/><rect width="0.9615384615384616em" height="1.7946467436771791em" x="42.30769230769231em" y="28.20535325632282em" fill="#aaa"/><rect width="0.9615384615384616em" height="1.1526315161778327em" x="43.269230769230774em" y="28.847368483822166em" fill="#aaa"/><rect width="0.9615384615384616em" height="0.7234173739992994em" x="44.23076923076923em" y="29.2765826260007em" fill="#aaa"/><rect width="0.9615384615384616em" height="1.9663925453176128em" x="45.19230769230769em" y="28.033607454682386em" fill="#aaa"/><rect width="0.9615384615384616em" height="0.5439433124304135em" x="46.15384615384615em" y="29.456056687569586em" fill="#aaa"/><rect width="0.9615384615384616em" height="3.9662047609651596em" x="47.11538461538461em" y="26.03379523903484em" fill="#aaa"/><rect width="0.9615384615384616em" height="10.781871064028977em" x="48.07692307692308em" y="19.218128935971023em" fill="#aaa"/><rect width="0.9615384615384616em" height="7.505866393765752em" x="49.03846153846154em" y="22.49413360623425em" fill="#aaa"/><rect width="0.9615384615384616em" height="3.971570174305985em" x="50em" y="26.028429825694015em" fill="#aaa"/><rect width="0.9615384615384616em" height="2.517552255693023em" x="50.96153846153846em" y="27.482447744306977em" fill="#aaa"/><rect width="0.9615384615384616em" height="5.6792995052766em" x="51.92307692307693em" y="24.3207004947234em" fill="#aaa"/><rect width="0.9615384615384616em" height="10.093650610272014em" x="52.88461538461539em" y="19.906349389727986em" fill="#aaa"/><rect width="0.9615384615384616em" height="3.842139901408677em" x="53.84615384615385em" y="26.15786009859132em" fill="#aaa"/><rect width="0.9615384615384616em" height="2.186094847367798em" x="54.80769230769231em" y="27.813905152632202em" fill="#aaa"/><rect width="0.9615384615384616em" height="2.02768087020921em" x="55.769230769230774em" y="27.97231912979079em" fill="#aaa"/><rect width="0.9615384615384616em" height="3.748151306806644em" x="56.73076923076923em" y="26.251848693193356em" fill="#aaa"/><rect width="0.9615384615384616em" height="2.090625992003273em" x="57.69230769230769em" y="27.90937400799673em" fill="#aaa"/><rect width="0.9615384615384616em" height="0.366855921593541em" x="58.65384615384615em" y="29.63314407840646em" fill="#aaa"/><rect width="0.9615384615384616em" height="2.4578265235024035em" x="59.61538461538462em" y="27.542173476497595em" fill="#aaa"/><rect width="0.9615384615384616em" height="2.3901400517657856em" x="60.57692307692308em" y="27.609859948234213em" fill="#aaa"/><rect width="0.9615384615384616em" height="3.953748916249533em" x="61.53846153846154em" y="26.046251083750466em" fill="#aaa"/><rect width="0.9615384615384616em" height="7.47075230539563em" x="62.5em" y="22.529247694604372em" fill="#aaa"/><rect width="0.9615384615384616em" height="20.102276089603347em" x="63.46153846153846em" y="9.897723910396653em" fill="#aaa"/><rect width="0.9615384615384616em" height="9.701071496741331em" x="64.42307692307692em" y="20.29892850325867em" fill="#aaa"/><rect width="0.9615384615384616em" height="8.854666116698946em" x="65.38461538461539em" y="21.145333883301056em" fill="#aaa"/><rect width="0.9615384615384616em" height="2.8502682580216656em" x="66.34615384615385em" y="27.149731741978336em" fill="#aaa"/><rect width="0.9615384615384616em" height="3.68203368329324em" x="67.3076923076923em" y="26.31796631670676em" fill="#aaa"/><rect width="0.9615384615384616em" height="9.72960949047775em" x="68.26923076923077em" y="20.27039050952225em" fill="#aaa"/><rect width="0.9615384615384616em" height="9.763112980237954em" x="69.23076923076923em" y="20.236887019762044em" fill="#aaa"/><rect width="0.9615384615384616em" height="7.810582469001517em" x="70.1923076923077em" y="22.189417530998483em" fill="#aaa"/><rect width="0.9615384615384616em" height="6.157251585129817em" x="71.15384615384616em" y="23.842748414870183em" fill="#aaa"/><rect width="0.9615384615384616em" height="3.4224130177763583em" x="72.11538461538461em" y="26.577586982223643em" fill="#aaa"/><rect width="0.9615384615384616em" height="8.29558120782909em" x="73.07692307692308em" y="21.704418792170912em" fill="#aaa"/><rect width="0.9615384615384616em" height="5.968402960492em" x="74.03846153846155em" y="24.031597039508em" fill="#aaa"/><rect width="0.9615384615384616em" height="4.130718038921701em" x="75em" y="25.8692819610783em" fill="#aaa"/><rect width="0.9615384615384616em" height="3.735817230579524em" x="75.96153846153847em" y="26.264182769420476em" fill="#aaa"/><rect width="0.9615384615384616em" height="3.6682736226309998em" x="76.92307692307692em" y="26.331726377369em" fill="#aaa"/><rect width="0.9615384615384616em" height="5.912762760214963em" x="77.88461538461539em" y="24.087237239785036em" fill="#aaa"/><rect width="0.9615384615384616em" height="16.562085831513958em" x="78.84615384615385em" y="13.437914168486042em" fill="#aaa"/><rect width="0.9615384615384616em" height="9.630173991885439em" x="79.8076923076923em" y="20.36982600811456em" fill="#aaa"/><rect width="0.9615384615384616em" height="6.430730647230773em" x="80.76923076923077em" y="23.569269352769226em" fill="#aaa"/><rect width="0.9615384615384616em" height="4.332195847707036em" x="81.73076923076923em" y="25.667804152292966em" fill="#aaa"/><rect width="0.9615384615384616em" height="4.046911213228461em" x="82.6923076923077em" y="25.953088786771538em" fill="#aaa"/><rect width="0.9615384615384616em" height="6.106196794737801em" x="83.65384615384616em" y="23.8938032052622em" fill="#aaa"/><rect width="0.9615384615384616em" height="5.047739520983184em" x="84.61538461538461em" y="24.952260479016815em" fill="#aaa"/><rect width="0.9615384615384616em" height="4.827981739822971em" x="85.57692307692308em" y="25.17201826017703em" fill="#aaa"/><rect width="0.9615384615384616em" height="8.720723355144083em" x="86.53846153846155em" y="21.27927664485592em" fill="#aaa"/><rect width="0.9615384615384616em" height="7.276396229262112em" x="87.5em" y="22.72360377073789em" fill="#aaa"/><rect width="0.9615384615384616em" height="19.914108787074056em" x="88.46153846153847em" y="10.085891212925944em" fill="#aaa"/><rect width="0.9615384615384616em" height="19.25865178373138em" x="89.42307692307692em" y="10.74134821626862em" fill="#aaa"/><rect width="0.9615384615384616em" height="13.341793988032938em" x="90.38461538461539em" y="16.65820601196706em" fill="#aaa"/><rect width="0.9615384615384616em" height="22.830495245367757em" x="91.34615384615385em" y="7.169504754632243em" fill="#aaa"/><rect width="0.9615384615384616em" height="9.906325608982836em" x="92.3076923076923em" y="20.093674391017164em" fill="#aaa"/><rect width="0.9615384615384616em" height="10.750792365211236em" x="93.26923076923077em" y="19.249207634788764em" fill="#aaa"/><rect width="0.9615384615384616em" height="9.93136997747265em" x="94.23076923076923em" y="20.06863002252735em" fill="#aaa"/><rect width="0.9615384615384616em" height="11.606069054178858em" x="95.1923076923077em" y="18.39393094582114em" fill="#aaa"/><rect width="0.9615384615384616em" height="12.077088757114463em" x="96.15384615384616em" y="17.922911242885537em" fill="#aaa"/><rect width="0.9615384615384616em" height="12.475369685897048em" x="97.11538461538461em" y="17.52463031410295em" fill="#aaa"/><rect width="0.9615384615384616em" height="14.716831656735025em" x="98.07692307692308em" y="15.283168343264975em" fill="#aaa"/><rect width="0.9615384615384616em" height="14.047575751488381em" x="99.03846153846155em" y="15.952424248511619em" fill="#aaa"/></svg>