<?xml version="1.0" standalone="no"?>
<svg xmlns:xlink="http://www.w3.org/1999/xlink" xmlns="http://www.w3.org/2000/svg" class="topic-graph" style="width: 100em; height: 30em; text-align: center;"><rect width="0.9615384615384616em" height="0.48345760866452375em" x="0em" y="29.516542391335477em" fill="#aaa"/><rect width="0.9615384615384616em" height="16.61059935647945em" x="0.9615384615384616em" y="13.389400643520549em" fill="#aaa"/><rect width="0.9615384615384616em" height="0.5113319705199196em" x="1.9230769230769231em" y="29.48866802948008em" fill="#aaa"/><rect width="0.9615384615384616em" height="1.6507495967284518em" x="2.8846153846153846em" y="28.349250403271547em" fill="#aaa"/><rect width="0.9615384615384616em" height="4.62795186798771em" x="3.8461538461538463em" y="25.37204813201229em" fill="#aaa"/><rect width="0.9615384615384616em" height="6.489921738740811em" x="4.8076923076923075em" y="23.51007826125919em" fill="#aaa"/><rect width="0.9615384615384616em" height="8.640448313867967em" x="5.769230769230769em" y="21.359551686132033em" fill="#aaa"/><rect width="0.9615384615384616em" height="0.9977294713785304em" x="6.730769230769231em" y="29.00227052862147em" fill="#aaa"/><rect width="0.9615384615384616em" height="24.006590802776984em" x="7.6923076923076925em" y="5.993409197223016em" fill="#aaa"/><rect width="0.9615384615384616em" height="9.517802105915923em" x="8.653846153846153em" y="20.482197894084077em" fill="#aaa"/><rect width="0.9615384615384616em" height="0.5363130951110295em" x="9.615384615384615em" y="29.46368690488897em" fill="#aaa"/><rect width="0.9615384615384616em" height="30em" x="10.576923076923077em" y="0em" fill="#aaa"/><rect width="0.9615384615384616em" height="8.461532617976362em" x="11.538461538461538em" y="21.53846738202364em" fill="#aaa"/><rect width="0.9615384615384616em" height="0.6152775751291929em" x="12.5em" y="29.38472242487081em" fill="#aaa"/><rect width="0.9615384615384616em" height="15.535979547369426em" x="13.461538461538462em" y="14.464020452630574em" fill="#aaa"/><rect width="0.9615384615384616em" height="3.475990912557869em" x="14.423076923076923em" y="26.52400908744213em" fill="#aaa"/><rect width="0.9615384615384616em" height="14.424091694298884em" x="15.384615384615385em" y="15.575908305701116em" fill="#aaa"/><rect width="0.9615384615384616em" height="6.730435167954467em" x="16.346153846153847em" y="23.269564832045532em" fill="#aaa"/><rect width="0.9615384615384616em" height="4.195352912661723em" x="17.307692307692307em" y="25.804647087338278em" fill="#aaa"/><rect width="0.9615384615384616em" height="0.9228435222028847em" x="18.26923076923077em" y="29.077156477797114em" fill="#aaa"/><rect width="0.9615384615384616em" height="1.704062544714765em" x="19.23076923076923em" y="28.295937455285234em" fill="#aaa"/><rect width="0.9615384615384616em" height="3.7764071182609364em" x="20.192307692307693em" y="26.223592881739062em" fill="#aaa"/><rect width="0.9615384615384616em" height="13.497875712207497em" x="21.153846153846153em" y="16.502124287792505em" fill="#aaa"/><rect width="0.9615384615384616em" height="4.727899497179563em" x="22.115384615384617em" y="25.272100502820436em" fill="#aaa"/><rect width="0.9615384615384616em" height="5.143226233177864em" x="23.076923076923077em" y="24.856773766822137em" fill="#aaa"/><rect width="0.9615384615384616em" height="4.8557829460889215em" x="24.03846153846154em" y="25.144217053911078em" fill="#aaa"/><rect width="0.9615384615384616em" height="6.198166802285222em" x="25em" y="23.801833197714778em" fill="#aaa"/><rect width="0.9615384615384616em" height="5.726945846487713em" x="25.961538461538463em" y="24.273054153512287em" fill="#aaa"/><rect width="0.9615384615384616em" height="8.555242693307038em" x="26.923076923076923em" y="21.444757306692964em" fill="#aaa"/><rect width="0.9615384615384616em" height="9.02446130514984em" x="27.884615384615387em" y="20.975538694850158em" fill="#aaa"/><rect width="0.9615384615384616em" height="15.250113734339715em" x="28.846153846153847em" y="14.749886265660285em" fill="#aaa"/><rect width="0.9615384615384616em" height="6.375465831316094em" x="29.80769230769231em" y="23.624534168683905em" fill="#aaa"/><rect width="0.9615384615384616em" height="6.434275654400778em" x="30.76923076923077em" y="23.56572434559922em" fill="#aaa"/><rect width="0.9615384615384616em" height="7.544082522219242em" x="31.73076923076923em" y="22.45591747778076em" fill="#aaa"/><rect width="0.9615384615384616em" height="13.361857345697787em" x="32.69230769230769em" y="16.638142654302214em" fill="#aaa"/><rect width="0.9615384615384616em" height="4.078000928321474em" x="33.65384615384615em" y="25.921999071678528em" fill="#aaa"/><rect width="0.9615384615384616em" height="16.980115993849907em" x="34.61538461538461em" y="13.019884006150093em" fill="#aaa"/><rect width="0.9615384615384616em" height="13.55783020298878em" x="35.57692307692308em" y="16.442169797011218em" fill="#aaa"/><rect width="0.9615384615384616em" height="7.291692413422168em" x="36.53846153846154em" y="22.70830758657783em" fill="#aaa"/><rect width="0.9615384615384616em" height="23.306948896410404em" x="37.5em" y="6.693051103589596em" fill="#aaa"/><rect width="0.9615384615384616em" height="2.3593968884428596em" x="38.46153846153846em" y="27.64060311155714em" fill="#aaa"/><rect width="0.9615384615384616em" height="8.009551772083945em" x="39.42307692307693em" y="21.990448227916055em" fill="#aaa"/><rect width="0.9615384615384616em" height="4.728518811833307em" x="40.38461538461539em" y="25.271481188166693em" fill="#aaa"/><rect width="0.9615384615384616em" height="3.366915544774403em" x="41.34615384615385em" y="26.633084455225596em" fill="#aaa"/><rect width="0.9615384615384616em" height="15.50641060003149em" x="42.30769230769231em" y="14.49358939996851em" fill="#aaa"/><rect width="0.9615384615384616em" height="4.909714258348046em" x="43.269230769230774em" y="25.090285741651954em" fill="#aaa"/><rect width="0.9615384615384616em" height="25.057471238360314em" x="44.23076923076923em" y="4.942528761639686em" fill="#aaa"/><rect width="0.9615384615384616em" height="27.20083351245624em" x="45.19230769230769em" y="2.7991664875437614em" fill="#aaa"/><rect width="0.9615384615384616em" height="3.108025476295728em" x="46.15384615384615em" y="26.89197452370427em" fill="#aaa"/><rect width="0.9615384615384616em" height="7.106737675208104em" x="47.11538461538461em" y="22.893262324791895em" fill="#aaa"/><rect width="0.9615384615384616em" height="21.12159306275722em" x="48.07692307692308em" y="8.87840693724278em" fill="#aaa"/><rect width="0.9615384615384616em" height="10.362618298341816em" x="49.03846153846154em" y="19.637381701658185em" fill="#aaa"/><rect width="0.9615384615384616em" height="4.5651935336564025em" x="50em" y="25.4348064663436em" fill="#aaa"/><rect width="0.9615384615384616em" height="1.4092973985333093em" x="50.96153846153846em" y="28.590702601466692em" fill="#aaa"/><rect width="0.9615384615384616em" height="7.5776867512912975em" x="51.92307692307693em" y="22.422313248708704em" fill="#aaa"/><rect width="0.9615384615384616em" height="5.515475638004286em" x="52.88461538461539em" y="24.484524361995714em" fill="#aaa"/><rect width="0.9615384615384616em" height="4.580264695356466em" x="53.84615384615385em" y="25.419735304643535em" fill="#aaa"/><rect width="0.9615384615384616em" height="12.622606778377067em" x="54.80769230769231em" y="17.37739322162293em" fill="#aaa"/><rect width="0.9615384615384616em" height="3.1928505387121695em" x="55.769230769230774em" y="26.807149461287832em" fill="#aaa"/><rect width="0.9615384615384616em" height="14.857654864677562em" x="56.73076923076923em" y="15.142345135322438em" fill="#aaa"/><rect width="0.9615384615384616em" height="23.77714683319917em" x="57.69230769230769em" y="6.222853166800832em" fill="#aaa"/><rect width="0.9615384615384616em" height="5.751314273634904em" x="58.65384615384615em" y="24.248685726365096em" fill="#aaa"/><rect width="0.9615384615384616em" height="12.074183266678167em" x="59.61538461538462em" y="17.92581673332183em" fill="#aaa"/><rect width="0.9615384615384616em" height="12.75543340873319em" x="60.57692307692308em" y="17.24456659126681em" fill="#aaa"/><rect width="0.9615384615384616em" height="10.127940179292352em" x="61.53846153846154em" y="19.872059820707648em" fill="#aaa"/><rect width="0.9615384615384616em" height="12.643454971741843em" x="62.5em" y="17.356545028258157em" fill="#aaa"/><rect width="0.9615384615384616em" height="12.969342826043274em" x="63.46153846153846em" y="17.030657173956726em" fill="#aaa"/><rect width="0.9615384615384616em" height="8.090159184521447em" x="64.42307692307692em" y="21.909840815478553em" fill="#aaa"/><rect width="0.9615384615384616em" height="14.183292216364258em" x="65.38461538461539em" y="15.816707783635742em" fill="#aaa"/><rect width="0.9615384615384616em" height="9.36798546871786em" x="66.34615384615385em" y="20.632014531282138em" fill="#aaa"/><rect width="0.9615384615384616em" height="16.849752377991276em" x="67.3076923076923em" y="13.150247622008724em" fill="#aaa"/><rect width="0.9615384615384616em" height="12.923499202951886em" x="68.26923076923077em" y="17.076500797048112em" fill="#aaa"/><rect width="0.9615384615384616em" height="7.662496896573435em" x="69.23076923076923em" y="22.337503103426563em" fill="#aaa"/><rect width="0.9615384615384616em" height="4.374229166436352em" x="70.1923076923077em" y="25.62577083356365em" fill="#aaa"/><rect width="0.9615384615384616em" height="9.012802455846806em" x="71.15384615384616em" y="20.987197544153194em" fill="#aaa"/><rect width="0.9615384615384616em" height="6.559113572258475em" x="72.11538461538461em" y="23.440886427741525em" fill="#aaa"/><rect width="0.9615384615384616em" height="3.420391644462594em" x="73.07692307692308em" y="26.579608355537406em" fill="#aaa"/><rect width="0.9615384615384616em" height="1.8320760813251586em" x="74.03846153846155em" y="28.16792391867484em" fill="#aaa"/><rect width="0.9615384615384616em" height="8.10237567605123em" x="75em" y="21.89762432394877em" fill="#aaa"/><rect width="0.9615384615384616em" height="8.445519422041306em" x="75.96153846153847em" y="21.554480577958692em" fill="#aaa"/><rect width="0.9615384615384616em" height="4.119813099032317em" x="76.92307692307692em" y="25.880186900967683em" fill="#aaa"/><rect width="0.9615384615384616em" height="6.904633242943649em" x="77.88461538461539em" y="23.09536675705635em" fill="#aaa"/><rect width="0.9615384615384616em" height="9.31618569050235em" x="78.84615384615385em" y="20.68381430949765em" fill="#aaa"/><rect width="0.9615384615384616em" height="7.147452511253952em" x="79.8076923076923em" y="22.852547488746048em" fill="#aaa"/><rect width="0.9615384615384616em" height="8.415801891359264em" x="80.76923076923077em" y="21.584198108640734em" fill="#aaa"/><rect width="0.9615384615384616em" height="11.493551539792595em" x="81.73076923076923em" y="18.506448460207405em" fill="#aaa"/><rect width="0.9615384615384616em" height="7.00224684930966em" x="82.6923076923077em" y="22.99775315069034em" fill="#aaa"/><rect width="0.9615384615384616em" height="9.196168470999774em" x="83.65384615384616em" y="20.803831529000227em" fill="#aaa"/><rect width="0.9615384615384616em" height="5.539318993085506em" x="84.61538461538461em" y="24.460681006914495em" fill="#aaa"/><rect width="0.9615384615384616em" height="4.028689832729798em" x="85.57692307692308em" y="25.971310167270204em" fill="#aaa"/><rect width="0.9615384615384616em" height="5.792266343231063em" x="86.53846153846155em" y="24.207733656768937em" fill="#aaa"/><rect width="0.9615384615384616em" height="5.341163999065544em" x="87.5em" y="24.658836000934457em" fill="#aaa"/><rect width="0.9615384615384616em" height="9.101682657211665em" x="88.46153846153847em" y="20.898317342788335em" fill="#aaa"/><rect width="0.9615384615384616em" height="6.952461077243857em" x="89.42307692307692em" y="23.047538922756143em" fill="#aaa"/><rect width="0.9615384615384616em" height="4.993894054572038em" x="90.38461538461539em" y="25.00610594542796em" fill="#aaa"/><rect width="0.9615384615384616em" height="9.147195564763559em" x="91.34615384615385em" y="20.852804435236443em" fill="#aaa"/><rect width="0.9615384615384616em" height="12.360646547181243em" x="92.3076923076923em" y="17.639353452818757em" fill="#aaa"/><rect width="0.9615384615384616em" height="8.991472503875038em" x="93.26923076923077em" y="21.008527496124962em" fill="#aaa"/><rect width="0.9615384615384616em" height="4.213998721564407em" x="94.23076923076923em" y="25.78600127843559em" fill="#aaa"/><rect width="0.9615384615384616em" height="7.2516440471883925em" x="95.1923076923077em" y="22.748355952811607em" fill="#aaa"/><rect width="0.9615384615384616em" height="5.490794310853085em" x="96.15384615384616em" y="24.509205689146917em" fill="#aaa"/><rect width="0.9615384615384616em" height="7.154392661775956em" x="97.11538461538461em" y="22.845607338224042em" fill="#aaa"/><rect width="0.9615384615384616em" height="10.074616112919708em" x="98.07692307692308em" y="19.925383887080294em" fill="#aaa"/><rect width="0.9615384615384616em" height="9.354369349339509em" x="99.03846153846155em" y="20.645630650660493em" fill="#aaa"/></svg>