<?xml version="1.0" standalone="no"?>
<svg xmlns:xlink="http://www.w3.org/1999/xlink" xmlns="http://www.w3.org/2000/svg" class="topic-graph" style="width: 100em; height: 30em; text-align: center;"><rect width="0.9615384615384616em" height="1.0943663330842568em" x="0em" y="28.905633666915744em" fill="#aaa"/><rect width="0.9615384615384616em" height="13.71274837779264em" x="0.9615384615384616em" y="16.28725162220736em" fill="#aaa"/><rect width="0.9615384615384616em" height="30em" x="1.9230769230769231em" y="0em" fill="#aaa"/><rect width="0.9615384615384616em" height="14.78010739251347em" x="2.8846153846153846em" y="15.21989260748653em" fill="#aaa"/><rect width="0.9615384615384616em" height="3.375216199872899em" x="3.8461538461538463em" y="26.6247838001271em" fill="#aaa"/><rect width="0.9615384615384616em" height="10.127161285250228em" x="4.8076923076923075em" y="19.872838714749772em" fill="#aaa"/><rect width="0.9615384615384616em" height="7.199366087096247em" x="5.769230769230769em" y="22.800633912903752em" fill="#aaa"/><rect width="0.9615384615384616em" height="0.6032607232964846em" x="6.730769230769231em" y="29.396739276703514em" fill="#aaa"/><rect width="0.9615384615384616em" height="4.450821532851435em" x="7.6923076923076925em" y="25.549178467148565em" fill="#aaa"/><rect width="0.9615384615384616em" height="8.241659465090796em" x="8.653846153846153em" y="21.758340534909202em" fill="#aaa"/><rect width="0.9615384615384616em" height="1.453762004551446em" x="9.615384615384615em" y="28.546237995448553em" fill="#aaa"/><rect width="0.9615384615384616em" height="2.7463469076150346em" x="10.576923076923077em" y="27.253653092384965em" fill="#aaa"/><rect width="0.9615384615384616em" height="5.3608232196600465em" x="11.538461538461538em" y="24.63917678033995em" fill="#aaa"/><rect width="0.9615384615384616em" height="4.327783529139547em" x="12.5em" y="25.672216470860455em" fill="#aaa"/><rect width="0.9615384615384616em" height="4.646143459808042em" x="13.461538461538462em" y="25.35385654019196em" fill="#aaa"/><rect width="0.9615384615384616em" height="5.50263907041174em" x="14.423076923076923em" y="24.49736092958826em" fill="#aaa"/><rect width="0.9615384615384616em" height="5.667870576114682em" x="15.384615384615385em" y="24.33212942388532em" fill="#aaa"/><rect width="0.9615384615384616em" height="6.372024324460337em" x="16.346153846153847em" y="23.627975675539663em" fill="#aaa"/><rect width="0.9615384615384616em" height="8.580514699862107em" x="17.307692307692307em" y="21.419485300137893em" fill="#aaa"/><rect width="0.9615384615384616em" height="4.338021795653599em" x="18.26923076923077em" y="25.6619782043464em" fill="#aaa"/><rect width="0.9615384615384616em" height="3.0039137388679813em" x="19.23076923076923em" y="26.996086261132017em" fill="#aaa"/><rect width="0.9615384615384616em" height="0.7367223193107343em" x="20.192307692307693em" y="29.263277680689267em" fill="#aaa"/><rect width="0.9615384615384616em" height="2.488760831864219em" x="21.153846153846153em" y="27.51123916813578em" fill="#aaa"/><rect width="0.9615384615384616em" height="1.6433480523269461em" x="22.115384615384617em" y="28.356651947673054em" fill="#aaa"/><rect width="0.9615384615384616em" height="1.7843046437276269em" x="23.076923076923077em" y="28.215695356272374em" fill="#aaa"/><rect width="0.9615384615384616em" height="4.3280725295532365em" x="24.03846153846154em" y="25.671927470446764em" fill="#aaa"/><rect width="0.9615384615384616em" height="2.81579327266839em" x="25em" y="27.18420672733161em" fill="#aaa"/><rect width="0.9615384615384616em" height="4.567886711777506em" x="25.961538461538463em" y="25.432113288222496em" fill="#aaa"/><rect width="0.9615384615384616em" height="2.289729224586958em" x="26.923076923076923em" y="27.710270775413044em" fill="#aaa"/><rect width="0.9615384615384616em" height="3.9213267801286005em" x="27.884615384615387em" y="26.078673219871398em" fill="#aaa"/><rect width="0.9615384615384616em" height="1.253361566263297em" x="28.846153846153847em" y="28.746638433736702em" fill="#aaa"/><rect width="0.9615384615384616em" height="2.811027028008709em" x="29.80769230769231em" y="27.18897297199129em" fill="#aaa"/><rect width="0.9615384615384616em" height="3.780128024906357em" x="30.76923076923077em" y="26.219871975093643em" fill="#aaa"/><rect width="0.9615384615384616em" height="1.6695369351144644em" x="31.73076923076923em" y="28.330463064885535em" fill="#aaa"/><rect width="0.9615384615384616em" height="2.1398753291674em" x="32.69230769230769em" y="27.8601246708326em" fill="#aaa"/><rect width="0.9615384615384616em" height="2.849919374969591em" x="33.65384615384615em" y="27.15008062503041em" fill="#aaa"/><rect width="0.9615384615384616em" height="3.198203850036635em" x="34.61538461538461em" y="26.801796149963366em" fill="#aaa"/><rect width="0.9615384615384616em" height="4.298664351075596em" x="35.57692307692308em" y="25.701335648924406em" fill="#aaa"/><rect width="0.9615384615384616em" height="2.3165830899292894em" x="36.53846153846154em" y="27.68341691007071em" fill="#aaa"/><rect width="0.9615384615384616em" height="4.8271102943851325em" x="37.5em" y="25.172889705614867em" fill="#aaa"/><rect width="0.9615384615384616em" height="2.8407092402772145em" x="38.46153846153846em" y="27.159290759722786em" fill="#aaa"/><rect width="0.9615384615384616em" height="3.204924786563544em" x="39.42307692307693em" y="26.795075213436455em" fill="#aaa"/><rect width="0.9615384615384616em" height="6.003807454390082em" x="40.38461538461539em" y="23.99619254560992em" fill="#aaa"/><rect width="0.9615384615384616em" height="8.00582784912078em" x="41.34615384615385em" y="21.99417215087922em" fill="#aaa"/><rect width="0.9615384615384616em" height="6.677422520716398em" x="42.30769230769231em" y="23.322577479283602em" fill="#aaa"/><rect width="0.9615384615384616em" height="7.248216710477867em" x="43.269230769230774em" y="22.751783289522134em" fill="#aaa"/><rect width="0.9615384615384616em" height="4.816847043497121em" x="44.23076923076923em" y="25.18315295650288em" fill="#aaa"/><rect width="0.9615384615384616em" height="1.806312071049254em" x="45.19230769230769em" y="28.193687928950744em" fill="#aaa"/><rect width="0.9615384615384616em" height="2.0909565279623905em" x="46.15384615384615em" y="27.90904347203761em" fill="#aaa"/><rect width="0.9615384615384616em" height="4.124935818643036em" x="47.11538461538461em" y="25.875064181356965em" fill="#aaa"/><rect width="0.9615384615384616em" height="2.4864105907192906em" x="48.07692307692308em" y="27.51358940928071em" fill="#aaa"/><rect width="0.9615384615384616em" height="6.621678497074088em" x="49.03846153846154em" y="23.378321502925914em" fill="#aaa"/><rect width="0.9615384615384616em" height="4.478338374385359em" x="50em" y="25.52166162561464em" fill="#aaa"/><rect width="0.9615384615384616em" height="5.101472181353043em" x="50.96153846153846em" y="24.898527818646958em" fill="#aaa"/><rect width="0.9615384615384616em" height="3.9836262265820017em" x="51.92307692307693em" y="26.016373773418em" fill="#aaa"/><rect width="0.9615384615384616em" height="2.6555013657736235em" x="52.88461538461539em" y="27.344498634226376em" fill="#aaa"/><rect width="0.9615384615384616em" height="8.581865755313206em" x="53.84615384615385em" y="21.418134244686794em" fill="#aaa"/><rect width="0.9615384615384616em" height="10.225504668297214em" x="54.80769230769231em" y="19.774495331702788em" fill="#aaa"/><rect width="0.9615384615384616em" height="4.6558958661887em" x="55.769230769230774em" y="25.3441041338113em" fill="#aaa"/><rect width="0.9615384615384616em" height="2.802146354644271em" x="56.73076923076923em" y="27.19785364535573em" fill="#aaa"/><rect width="0.9615384615384616em" height="8.43180821512064em" x="57.69230769230769em" y="21.56819178487936em" fill="#aaa"/><rect width="0.9615384615384616em" height="7.718861243214363em" x="58.65384615384615em" y="22.281138756785637em" fill="#aaa"/><rect width="0.9615384615384616em" height="5.172359820079419em" x="59.61538461538462em" y="24.827640179920582em" fill="#aaa"/><rect width="0.9615384615384616em" height="7.5927632147857125em" x="60.57692307692308em" y="22.407236785214288em" fill="#aaa"/><rect width="0.9615384615384616em" height="8.768171214474823em" x="61.53846153846154em" y="21.231828785525177em" fill="#aaa"/><rect width="0.9615384615384616em" height="5.010831593313851em" x="62.5em" y="24.989168406686147em" fill="#aaa"/><rect width="0.9615384615384616em" height="3.354479704805222em" x="63.46153846153846em" y="26.64552029519478em" fill="#aaa"/><rect width="0.9615384615384616em" height="5.880245360417738em" x="64.42307692307692em" y="24.11975463958226em" fill="#aaa"/><rect width="0.9615384615384616em" height="7.113624270594336em" x="65.38461538461539em" y="22.886375729405664em" fill="#aaa"/><rect width="0.9615384615384616em" height="9.27393993079643em" x="66.34615384615385em" y="20.72606006920357em" fill="#aaa"/><rect width="0.9615384615384616em" height="8.78598081390944em" x="67.3076923076923em" y="21.21401918609056em" fill="#aaa"/><rect width="0.9615384615384616em" height="6.46145607405647em" x="68.26923076923077em" y="23.53854392594353em" fill="#aaa"/><rect width="0.9615384615384616em" height="3.331091878702497em" x="69.23076923076923em" y="26.668908121297502em" fill="#aaa"/><rect width="0.9615384615384616em" height="4.355921220497659em" x="70.1923076923077em" y="25.64407877950234em" fill="#aaa"/><rect width="0.9615384615384616em" height="6.786650546101488em" x="71.15384615384616em" y="23.213349453898513em" fill="#aaa"/><rect width="0.9615384615384616em" height="6.99184943871221em" x="72.11538461538461em" y="23.008150561287792em" fill="#aaa"/><rect width="0.9615384615384616em" height="6.396088050746946em" x="73.07692307692308em" y="23.603911949253053em" fill="#aaa"/><rect width="0.9615384615384616em" height="3.264634173913545em" x="74.03846153846155em" y="26.735365826086454em" fill="#aaa"/><rect width="0.9615384615384616em" height="5.459870819220456em" x="75em" y="24.540129180779545em" fill="#aaa"/><rect width="0.9615384615384616em" height="5.6501954870823em" x="75.96153846153847em" y="24.3498045129177em" fill="#aaa"/><rect width="0.9615384615384616em" height="7.043292955556963em" x="76.92307692307692em" y="22.956707044443036em" fill="#aaa"/><rect width="0.9615384615384616em" height="4.510104370652447em" x="77.88461538461539em" y="25.489895629347554em" fill="#aaa"/><rect width="0.9615384615384616em" height="8.346849271921519em" x="78.84615384615385em" y="21.65315072807848em" fill="#aaa"/><rect width="0.9615384615384616em" height="7.27223745537285em" x="79.8076923076923em" y="22.72776254462715em" fill="#aaa"/><rect width="0.9615384615384616em" height="4.702815886864616em" x="80.76923076923077em" y="25.297184113135383em" fill="#aaa"/><rect width="0.9615384615384616em" height="4.4902219545422275em" x="81.73076923076923em" y="25.50977804545777em" fill="#aaa"/><rect width="0.9615384615384616em" height="8.46822178284052em" x="82.6923076923077em" y="21.53177821715948em" fill="#aaa"/><rect width="0.9615384615384616em" height="6.719818498823099em" x="83.65384615384616em" y="23.2801815011769em" fill="#aaa"/><rect width="0.9615384615384616em" height="6.5139603103205586em" x="84.61538461538461em" y="23.48603968967944em" fill="#aaa"/><rect width="0.9615384615384616em" height="7.804150012022677em" x="85.57692307692308em" y="22.195849987977322em" fill="#aaa"/><rect width="0.9615384615384616em" height="6.728205069326417em" x="86.53846153846155em" y="23.271794930673583em" fill="#aaa"/><rect width="0.9615384615384616em" height="6.946594824534895em" x="87.5em" y="23.053405175465105em" fill="#aaa"/><rect width="0.9615384615384616em" height="7.517139972218639em" x="88.46153846153847em" y="22.48286002778136em" fill="#aaa"/><rect width="0.9615384615384616em" height="6.005426012633448em" x="89.42307692307692em" y="23.99457398736655em" fill="#aaa"/><rect width="0.9615384615384616em" height="6.769458583825596em" x="90.38461538461539em" y="23.230541416174404em" fill="#aaa"/><rect width="0.9615384615384616em" height="5.72764663240811em" x="91.34615384615385em" y="24.27235336759189em" fill="#aaa"/><rect width="0.9615384615384616em" height="7.508279706142254em" x="92.3076923076923em" y="22.491720293857746em" fill="#aaa"/><rect width="0.9615384615384616em" height="8.411431034411319em" x="93.26923076923077em" y="21.58856896558868em" fill="#aaa"/><rect width="0.9615384615384616em" height="9.01822845745656em" x="94.23076923076923em" y="20.98177154254344em" fill="#aaa"/><rect width="0.9615384615384616em" height="8.505848760118688em" x="95.1923076923077em" y="21.49415123988131em" fill="#aaa"/><rect width="0.9615384615384616em" height="11.484229773820644em" x="96.15384615384616em" y="18.515770226179356em" fill="#aaa"/><rect width="0.9615384615384616em" height="9.336962880413216em" x="97.11538461538461em" y="20.663037119586782em" fill="#aaa"/><rect width="0.9615384615384616em" height="10.977236338997075em" x="98.07692307692308em" y="19.022763661002926em" fill="#aaa"/><rect width="0.9615384615384616em" height="6.183971722107692em" x="99.03846153846155em" y="23.816028277892308em" fill="#aaa"/></svg>