<?xml version="1.0" standalone="no"?>
<svg xmlns:xlink="http://www.w3.org/1999/xlink" xmlns="http://www.w3.org/2000/svg" class="topic-graph" style="width: 100em; height: 30em; text-align: center;"><rect width="0.9615384615384616em" height="1.3882296778176266em" x="0em" y="28.611770322182373em" fill="#aaa"/><rect width="0.9615384615384616em" height="9.143723634747737em" x="0.9615384615384616em" y="20.856276365252263em" fill="#aaa"/><rect width="0.9615384615384616em" height="5.406962267392367em" x="1.9230769230769231em" y="24.593037732607634em" fill="#aaa"/><rect width="0.9615384615384616em" height="6.975899227157141em" x="2.8846153846153846em" y="23.024100772842857em" fill="#aaa"/><rect width="0.9615384615384616em" height="11.429332851020774em" x="3.8461538461538463em" y="18.570667148979226em" fill="#aaa"/><rect width="0.9615384615384616em" height="19.88822094173016em" x="4.8076923076923075em" y="10.111779058269839em" fill="#aaa"/><rect width="0.9615384615384616em" height="15.96119310696046em" x="5.769230769230769em" y="14.03880689303954em" fill="#aaa"/><rect width="0.9615384615384616em" height="5.30839508213434em" x="6.730769230769231em" y="24.69160491786566em" fill="#aaa"/><rect width="0.9615384615384616em" height="10.304880817454608em" x="7.6923076923076925em" y="19.69511918254539em" fill="#aaa"/><rect width="0.9615384615384616em" height="10.075712239317854em" x="8.653846153846153em" y="19.924287760682148em" fill="#aaa"/><rect width="0.9615384615384616em" height="2.891738643340118em" x="9.615384615384615em" y="27.10826135665988em" fill="#aaa"/><rect width="0.9615384615384616em" height="9.993003471604247em" x="10.576923076923077em" y="20.006996528395753em" fill="#aaa"/><rect width="0.9615384615384616em" height="13.647027162916613em" x="11.538461538461538em" y="16.352972837083385em" fill="#aaa"/><rect width="0.9615384615384616em" height="7.8565438471574955em" x="12.5em" y="22.143456152842504em" fill="#aaa"/><rect width="0.9615384615384616em" height="4.855326355817758em" x="13.461538461538462em" y="25.14467364418224em" fill="#aaa"/><rect width="0.9615384615384616em" height="10.577823222550556em" x="14.423076923076923em" y="19.422176777449444em" fill="#aaa"/><rect width="0.9615384615384616em" height="8.371750361135021em" x="15.384615384615385em" y="21.62824963886498em" fill="#aaa"/><rect width="0.9615384615384616em" height="9.028632640947544em" x="16.346153846153847em" y="20.971367359052458em" fill="#aaa"/><rect width="0.9615384615384616em" height="8.91462858889161em" x="17.307692307692307em" y="21.08537141110839em" fill="#aaa"/><rect width="0.9615384615384616em" height="18.854093202515468em" x="18.26923076923077em" y="11.145906797484532em" fill="#aaa"/><rect width="0.9615384615384616em" height="16.91039739899186em" x="19.23076923076923em" y="13.089602601008139em" fill="#aaa"/><rect width="0.9615384615384616em" height="19.27192201855017em" x="20.192307692307693em" y="10.728077981449829em" fill="#aaa"/><rect width="0.9615384615384616em" height="19.282995895315594em" x="21.153846153846153em" y="10.717004104684406em" fill="#aaa"/><rect width="0.9615384615384616em" height="11.013109031729929em" x="22.115384615384617em" y="18.98689096827007em" fill="#aaa"/><rect width="0.9615384615384616em" height="12.570430634680374em" x="23.076923076923077em" y="17.429569365319626em" fill="#aaa"/><rect width="0.9615384615384616em" height="12.059192657052543em" x="24.03846153846154em" y="17.94080734294746em" fill="#aaa"/><rect width="0.9615384615384616em" height="7.740484605529939em" x="25em" y="22.25951539447006em" fill="#aaa"/><rect width="0.9615384615384616em" height="9.689802414695839em" x="25.961538461538463em" y="20.31019758530416em" fill="#aaa"/><rect width="0.9615384615384616em" height="7.48859496536392em" x="26.923076923076923em" y="22.51140503463608em" fill="#aaa"/><rect width="0.9615384615384616em" height="6.033182224130073em" x="27.884615384615387em" y="23.966817775869927em" fill="#aaa"/><rect width="0.9615384615384616em" height="7.11017128546233em" x="28.846153846153847em" y="22.88982871453767em" fill="#aaa"/><rect width="0.9615384615384616em" height="7.4135737708387826em" x="29.80769230769231em" y="22.58642622916122em" fill="#aaa"/><rect width="0.9615384615384616em" height="5.470544514338126em" x="30.76923076923077em" y="24.529455485661874em" fill="#aaa"/><rect width="0.9615384615384616em" height="4.820951394889707em" x="31.73076923076923em" y="25.179048605110292em" fill="#aaa"/><rect width="0.9615384615384616em" height="5.4400525624622125em" x="32.69230769230769em" y="24.559947437537787em" fill="#aaa"/><rect width="0.9615384615384616em" height="11.453287340307124em" x="33.65384615384615em" y="18.546712659692876em" fill="#aaa"/><rect width="0.9615384615384616em" height="10.42076861798222em" x="34.61538461538461em" y="19.57923138201778em" fill="#aaa"/><rect width="0.9615384615384616em" height="7.7584652849985485em" x="35.57692307692308em" y="22.24153471500145em" fill="#aaa"/><rect width="0.9615384615384616em" height="8.273558867250232em" x="36.53846153846154em" y="21.72644113274977em" fill="#aaa"/><rect width="0.9615384615384616em" height="6.630975298379845em" x="37.5em" y="23.369024701620155em" fill="#aaa"/><rect width="0.9615384615384616em" height="12.86622171519605em" x="38.46153846153846em" y="17.133778284803952em" fill="#aaa"/><rect width="0.9615384615384616em" height="11.210273280117953em" x="39.42307692307693em" y="18.789726719882047em" fill="#aaa"/><rect width="0.9615384615384616em" height="12.93635116713096em" x="40.38461538461539em" y="17.063648832869042em" fill="#aaa"/><rect width="0.9615384615384616em" height="10.649614393206415em" x="41.34615384615385em" y="19.350385606793587em" fill="#aaa"/><rect width="0.9615384615384616em" height="12.276092773258048em" x="42.30769230769231em" y="17.72390722674195em" fill="#aaa"/><rect width="0.9615384615384616em" height="14.796500110109255em" x="43.269230769230774em" y="15.203499889890745em" fill="#aaa"/><rect width="0.9615384615384616em" height="8.629678071020225em" x="44.23076923076923em" y="21.370321928979777em" fill="#aaa"/><rect width="0.9615384615384616em" height="10.282358991845172em" x="45.19230769230769em" y="19.71764100815483em" fill="#aaa"/><rect width="0.9615384615384616em" height="14.12365025759114em" x="46.15384615384615em" y="15.87634974240886em" fill="#aaa"/><rect width="0.9615384615384616em" height="12.549814005586471em" x="47.11538461538461em" y="17.45018599441353em" fill="#aaa"/><rect width="0.9615384615384616em" height="15.992505116597815em" x="48.07692307692308em" y="14.007494883402185em" fill="#aaa"/><rect width="0.9615384615384616em" height="11.335912804870127em" x="49.03846153846154em" y="18.664087195129873em" fill="#aaa"/><rect width="0.9615384615384616em" height="10.76342361046494em" x="50em" y="19.23657638953506em" fill="#aaa"/><rect width="0.9615384615384616em" height="15.997988092501815em" x="50.96153846153846em" y="14.002011907498185em" fill="#aaa"/><rect width="0.9615384615384616em" height="9.64620499931623em" x="51.92307692307693em" y="20.353795000683768em" fill="#aaa"/><rect width="0.9615384615384616em" height="14.34326021595233em" x="52.88461538461539em" y="15.65673978404767em" fill="#aaa"/><rect width="0.9615384615384616em" height="8.058343665142335em" x="53.84615384615385em" y="21.941656334857665em" fill="#aaa"/><rect width="0.9615384615384616em" height="12.922575535016396em" x="54.80769230769231em" y="17.077424464983604em" fill="#aaa"/><rect width="0.9615384615384616em" height="18.680225791478716em" x="55.769230769230774em" y="11.319774208521284em" fill="#aaa"/><rect width="0.9615384615384616em" height="16.785201698307894em" x="56.73076923076923em" y="13.214798301692106em" fill="#aaa"/><rect width="0.9615384615384616em" height="11.771329299207233em" x="57.69230769230769em" y="18.22867070079277em" fill="#aaa"/><rect width="0.9615384615384616em" height="17.42815744129023em" x="58.65384615384615em" y="12.571842558709768em" fill="#aaa"/><rect width="0.9615384615384616em" height="18.394241329709768em" x="59.61538461538462em" y="11.605758670290232em" fill="#aaa"/><rect width="0.9615384615384616em" height="15.577946715711589em" x="60.57692307692308em" y="14.422053284288411em" fill="#aaa"/><rect width="0.9615384615384616em" height="18.300575717373306em" x="61.53846153846154em" y="11.699424282626694em" fill="#aaa"/><rect width="0.9615384615384616em" height="30em" x="62.5em" y="0em" fill="#aaa"/><rect width="0.9615384615384616em" height="24.819068394731165em" x="63.46153846153846em" y="5.180931605268835em" fill="#aaa"/><rect width="0.9615384615384616em" height="11.472973824769465em" x="64.42307692307692em" y="18.527026175230535em" fill="#aaa"/><rect width="0.9615384615384616em" height="15.979486376734153em" x="65.38461538461539em" y="14.020513623265847em" fill="#aaa"/><rect width="0.9615384615384616em" height="12.87022200179584em" x="66.34615384615385em" y="17.129777998204162em" fill="#aaa"/><rect width="0.9615384615384616em" height="18.340442145422877em" x="67.3076923076923em" y="11.659557854577123em" fill="#aaa"/><rect width="0.9615384615384616em" height="15.218982481823923em" x="68.26923076923077em" y="14.781017518176077em" fill="#aaa"/><rect width="0.9615384615384616em" height="15.433647383304507em" x="69.23076923076923em" y="14.566352616695493em" fill="#aaa"/><rect width="0.9615384615384616em" height="9.936210283763254em" x="70.1923076923077em" y="20.063789716236748em" fill="#aaa"/><rect width="0.9615384615384616em" height="10.854917896878742em" x="71.15384615384616em" y="19.145082103121258em" fill="#aaa"/><rect width="0.9615384615384616em" height="10.339788802628593em" x="72.11538461538461em" y="19.660211197371407em" fill="#aaa"/><rect width="0.9615384615384616em" height="17.295159176082308em" x="73.07692307692308em" y="12.704840823917692em" fill="#aaa"/><rect width="0.9615384615384616em" height="13.132443054690915em" x="74.03846153846155em" y="16.867556945309083em" fill="#aaa"/><rect width="0.9615384615384616em" height="13.875584320679915em" x="75em" y="16.124415679320087em" fill="#aaa"/><rect width="0.9615384615384616em" height="16.228067242737705em" x="75.96153846153847em" y="13.771932757262295em" fill="#aaa"/><rect width="0.9615384615384616em" height="12.272405253876652em" x="76.92307692307692em" y="17.727594746123348em" fill="#aaa"/><rect width="0.9615384615384616em" height="14.399261418987585em" x="77.88461538461539em" y="15.600738581012415em" fill="#aaa"/><rect width="0.9615384615384616em" height="13.838369003922656em" x="78.84615384615385em" y="16.161630996077342em" fill="#aaa"/><rect width="0.9615384615384616em" height="18.768152016026608em" x="79.8076923076923em" y="11.231847983973392em" fill="#aaa"/><rect width="0.9615384615384616em" height="13.663014527747437em" x="80.76923076923077em" y="16.336985472252564em" fill="#aaa"/><rect width="0.9615384615384616em" height="18.700221825205997em" x="81.73076923076923em" y="11.299778174794003em" fill="#aaa"/><rect width="0.9615384615384616em" height="20.56888422051262em" x="82.6923076923077em" y="9.431115779487381em" fill="#aaa"/><rect width="0.9615384615384616em" height="16.443000182516762em" x="83.65384615384616em" y="13.556999817483238em" fill="#aaa"/><rect width="0.9615384615384616em" height="11.032672842065628em" x="84.61538461538461em" y="18.96732715793437em" fill="#aaa"/><rect width="0.9615384615384616em" height="15.269306113678606em" x="85.57692307692308em" y="14.730693886321394em" fill="#aaa"/><rect width="0.9615384615384616em" height="14.69293067285474em" x="86.53846153846155em" y="15.30706932714526em" fill="#aaa"/><rect width="0.9615384615384616em" height="17.115833270752773em" x="87.5em" y="12.884166729247227em" fill="#aaa"/><rect width="0.9615384615384616em" height="14.15838762318923em" x="88.46153846153847em" y="15.84161237681077em" fill="#aaa"/><rect width="0.9615384615384616em" height="14.83312502992122em" x="89.42307692307692em" y="15.16687497007878em" fill="#aaa"/><rect width="0.9615384615384616em" height="17.497326317447357em" x="90.38461538461539em" y="12.502673682552643em" fill="#aaa"/><rect width="0.9615384615384616em" height="15.5347812711536em" x="91.34615384615385em" y="14.4652187288464em" fill="#aaa"/><rect width="0.9615384615384616em" height="16.89818463324977em" x="92.3076923076923em" y="13.10181536675023em" fill="#aaa"/><rect width="0.9615384615384616em" height="19.220488744333906em" x="93.26923076923077em" y="10.779511255666094em" fill="#aaa"/><rect width="0.9615384615384616em" height="16.612386932415756em" x="94.23076923076923em" y="13.387613067584244em" fill="#aaa"/><rect width="0.9615384615384616em" height="17.602307491292045em" x="95.1923076923077em" y="12.397692508707955em" fill="#aaa"/><rect width="0.9615384615384616em" height="26.325119853928435em" x="96.15384615384616em" y="3.6748801460715654em" fill="#aaa"/><rect width="0.9615384615384616em" height="18.403360382379205em" x="97.11538461538461em" y="11.596639617620795em" fill="#aaa"/><rect width="0.9615384615384616em" height="19.042179968361136em" x="98.07692307692308em" y="10.957820031638864em" fill="#aaa"/><rect width="0.9615384615384616em" height="19.84716187897703em" x="99.03846153846155em" y="10.15283812102297em" fill="#aaa"/></svg>