<?xml version="1.0" standalone="no"?>
<svg xmlns:xlink="http://www.w3.org/1999/xlink" xmlns="http://www.w3.org/2000/svg" class="topic-graph" style="width: 10vw; height: 3em; text-align: center;"><rect width="0.09615384615384616em" height="0.030978518095437932em" x="0vw" y="2.969021481904562em" fill="#aaa"/><rect width="0.09615384615384616em" height="0.04964429455320456em" x="0.09615384615384616vw" y="2.9503557054467953em" fill="#aaa"/><rect width="0.09615384615384616em" height="0.07119188021555106em" x="0.19230769230769232vw" y="2.928808119784449em" fill="#aaa"/><rect width="0.09615384615384616em" height="0.253533903804508em" x="0.2884615384615385vw" y="2.746466096195492em" fill="#aaa"/><rect width="0.09615384615384616em" height="0.037883419289413287em" x="0.38461538461538464vw" y="2.9621165807105867em" fill="#aaa"/><rect width="0.09615384615384616em" height="0.02413955758462858em" x="0.4807692307692308vw" y="2.9758604424153714em" fill="#aaa"/><rect width="0.09615384615384616em" height="0.286464584727719em" x="0.576923076923077vw" y="2.713535415272281em" fill="#aaa"/><rect width="0.09615384615384616em" height="0.3302178653745774em" x="0.6730769230769231vw" y="2.6697821346254225em" fill="#aaa"/><rect width="0.09615384615384616em" height="0.31356033574457187em" x="0.7692307692307693vw" y="2.686439664255428em" fill="#aaa"/><rect width="0.09615384615384616em" height="0.04184947388199261em" x="0.8653846153846154vw" y="2.958150526118007em" fill="#aaa"/><rect width="0.09615384615384616em" height="0.03653845256012793em" x="0.9615384615384616vw" y="2.9634615474398722em" fill="#aaa"/><rect width="0.09615384615384616em" height="0.03311963383567093em" x="1.0576923076923077vw" y="2.9668803661643293em" fill="#aaa"/><rect width="0.09615384615384616em" height="0.060397404864404605em" x="1.153846153846154vw" y="2.9396025951355953em" fill="#aaa"/><rect width="0.09615384615384616em" height="0.05573661726496719em" x="1.25vw" y="2.944263382735033em" fill="#aaa"/><rect width="0.09615384615384616em" height="0.3476328607900141em" x="1.3461538461538463vw" y="2.6523671392099857em" fill="#aaa"/><rect width="0.09615384615384616em" height="0.02686707611832008em" x="1.4423076923076923vw" y="2.9731329238816797em" fill="#aaa"/><rect width="0.09615384615384616em" height="0.4909573156336629em" x="1.5384615384615385vw" y="2.509042684366337em" fill="#aaa"/><rect width="0.09615384615384616em" height="0.053533094368605774em" x="1.6346153846153848vw" y="2.9464669056313944em" fill="#aaa"/><rect width="0.09615384615384616em" height="0.22094151050520433em" x="1.7307692307692308vw" y="2.779058489494796em" fill="#aaa"/><rect width="0.09615384615384616em" height="0.10780361647878145em" x="1.826923076923077vw" y="2.8921963835212186em" fill="#aaa"/><rect width="0.09615384615384616em" height="0.12626993725422955em" x="1.9230769230769231vw" y="2.8737300627457705em" fill="#aaa"/><rect width="0.09615384615384616em" height="0.197039181674394em" x="2.019230769230769vw" y="2.802960818325606em" fill="#aaa"/><rect width="0.09615384615384616em" height="0.2861531929036777em" x="2.1153846153846154vw" y="2.7138468070963224em" fill="#aaa"/><rect width="0.09615384615384616em" height="0.371292574899585em" x="2.2115384615384617vw" y="2.6287074251004148em" fill="#aaa"/><rect width="0.09615384615384616em" height="0.01950319839929101em" x="2.307692307692308vw" y="2.980496801600709em" fill="#aaa"/><rect width="0.09615384615384616em" height="0.687939835318479em" x="2.403846153846154vw" y="2.312060164681521em" fill="#aaa"/><rect width="0.09615384615384616em" height="0.7384939226914685em" x="2.5vw" y="2.2615060773085314em" fill="#aaa"/><rect width="0.09615384615384616em" height="0.7288927260161396em" x="2.5961538461538463vw" y="2.2711072739838603em" fill="#aaa"/><rect width="0.09615384615384616em" height="0.3044473893684191em" x="2.6923076923076925vw" y="2.695552610631581em" fill="#aaa"/><rect width="0.09615384615384616em" height="0.5819085467900065em" x="2.7884615384615388vw" y="2.4180914532099935em" fill="#aaa"/><rect width="0.09615384615384616em" height="0.5042688115013413em" x="2.8846153846153846vw" y="2.4957311884986586em" fill="#aaa"/><rect width="0.09615384615384616em" height="0.2818091041225142em" x="2.980769230769231vw" y="2.718190895877486em" fill="#aaa"/><rect width="0.09615384615384616em" height="0.3375495982115496em" x="3.076923076923077vw" y="2.6624504017884503em" fill="#aaa"/><rect width="0.09615384615384616em" height="0.15445463378455526em" x="3.1730769230769234vw" y="2.8455453662154446em" fill="#aaa"/><rect width="0.09615384615384616em" height="0.25617622677991286em" x="3.2692307692307696vw" y="2.743823773220087em" fill="#aaa"/><rect width="0.09615384615384616em" height="0.14079430251504402em" x="3.3653846153846154vw" y="2.859205697484956em" fill="#aaa"/><rect width="0.09615384615384616em" height="0.1560499921042998em" x="3.4615384615384617vw" y="2.8439500078957em" fill="#aaa"/><rect width="0.09615384615384616em" height="0.08414432523344473em" x="3.557692307692308vw" y="2.915855674766555em" fill="#aaa"/><rect width="0.09615384615384616em" height="0.4912669096055385em" x="3.653846153846154vw" y="2.5087330903944616em" fill="#aaa"/><rect width="0.09615384615384616em" height="0.27007393908538474em" x="3.75vw" y="2.7299260609146154em" fill="#aaa"/><rect width="0.09615384615384616em" height="0.22772750442418715em" x="3.8461538461538463vw" y="2.772272495575813em" fill="#aaa"/><rect width="0.09615384615384616em" height="0.08656927498807998em" x="3.9423076923076925vw" y="2.91343072501192em" fill="#aaa"/><rect width="0.09615384615384616em" height="0.20777410366224983em" x="4.038461538461538vw" y="2.79222589633775em" fill="#aaa"/><rect width="0.09615384615384616em" height="0.1342478209907266em" x="4.134615384615385vw" y="2.8657521790092733em" fill="#aaa"/><rect width="0.09615384615384616em" height="0.12901117505734155em" x="4.230769230769231vw" y="2.8709888249426583em" fill="#aaa"/><rect width="0.09615384615384616em" height="0.05249817405759196em" x="4.3269230769230775vw" y="2.947501825942408em" fill="#aaa"/><rect width="0.09615384615384616em" height="0.1918313526468457em" x="4.423076923076923vw" y="2.8081686473531544em" fill="#aaa"/><rect width="0.09615384615384616em" height="0.29981274171141903em" x="4.519230769230769vw" y="2.700187258288581em" fill="#aaa"/><rect width="0.09615384615384616em" height="1.7721883445010813em" x="4.615384615384616vw" y="1.2278116554989187em" fill="#aaa"/><rect width="0.09615384615384616em" height="0.39125907749976907em" x="4.711538461538462vw" y="2.608740922500231em" fill="#aaa"/><rect width="0.09615384615384616em" height="0.23292050956142152em" x="4.807692307692308vw" y="2.7670794904385785em" fill="#aaa"/><rect width="0.09615384615384616em" height="0.2598012957087874em" x="4.903846153846154vw" y="2.7401987042912124em" fill="#aaa"/><rect width="0.09615384615384616em" height="0.1281316302323653em" x="5vw" y="2.871868369767635em" fill="#aaa"/><rect width="0.09615384615384616em" height="0.12230499795372951em" x="5.096153846153847vw" y="2.8776950020462704em" fill="#aaa"/><rect width="0.09615384615384616em" height="0.4200327919141006em" x="5.1923076923076925vw" y="2.5799672080858995em" fill="#aaa"/><rect width="0.09615384615384616em" height="0.6284439342500898em" x="5.288461538461538vw" y="2.3715560657499104em" fill="#aaa"/><rect width="0.09615384615384616em" height="0.1920257115972258em" x="5.384615384615385vw" y="2.8079742884027743em" fill="#aaa"/><rect width="0.09615384615384616em" height="0.6293920890568017em" x="5.480769230769231vw" y="2.3706079109431983em" fill="#aaa"/><rect width="0.09615384615384616em" height="0.7123003570006997em" x="5.5769230769230775vw" y="2.2876996429993004em" fill="#aaa"/><rect width="0.09615384615384616em" height="0.13972204043163297em" x="5.673076923076923vw" y="2.860277959568367em" fill="#aaa"/><rect width="0.09615384615384616em" height="0.6305596987490094em" x="5.769230769230769vw" y="2.3694403012509904em" fill="#aaa"/><rect width="0.09615384615384616em" height="1.016254836847077em" x="5.865384615384616vw" y="1.983745163152923em" fill="#aaa"/><rect width="0.09615384615384616em" height="0.6450963849695398em" x="5.961538461538462vw" y="2.35490361503046em" fill="#aaa"/><rect width="0.09615384615384616em" height="0.49437086065176467em" x="6.057692307692308vw" y="2.5056291393482355em" fill="#aaa"/><rect width="0.09615384615384616em" height="0.8485678873842355em" x="6.153846153846154vw" y="2.1514321126157645em" fill="#aaa"/><rect width="0.09615384615384616em" height="0.9521755912264317em" x="6.25vw" y="2.047824408773568em" fill="#aaa"/><rect width="0.09615384615384616em" height="0.9917261847379483em" x="6.346153846153847vw" y="2.0082738152620516em" fill="#aaa"/><rect width="0.09615384615384616em" height="0.09545414764641234em" x="6.4423076923076925vw" y="2.904545852353588em" fill="#aaa"/><rect width="0.09615384615384616em" height="0.41014044923244647em" x="6.538461538461539vw" y="2.5898595507675535em" fill="#aaa"/><rect width="0.09615384615384616em" height="0.12213298768117173em" x="6.634615384615385vw" y="2.8778670123188284em" fill="#aaa"/><rect width="0.09615384615384616em" height="0.3556483112519666em" x="6.730769230769231vw" y="2.644351688748033em" fill="#aaa"/><rect width="0.09615384615384616em" height="0.37842607592019595em" x="6.8269230769230775vw" y="2.621573924079804em" fill="#aaa"/><rect width="0.09615384615384616em" height="0.3865315534118503em" x="6.923076923076923vw" y="2.6134684465881497em" fill="#aaa"/><rect width="0.09615384615384616em" height="0.5134572987509975em" x="7.01923076923077vw" y="2.4865427012490025em" fill="#aaa"/><rect width="0.09615384615384616em" height="0.45744937285528486em" x="7.115384615384616vw" y="2.542550627144715em" fill="#aaa"/><rect width="0.09615384615384616em" height="0.26707734264626487em" x="7.211538461538462vw" y="2.7329226573537353em" fill="#aaa"/><rect width="0.09615384615384616em" height="0.46541396492580756em" x="7.307692307692308vw" y="2.5345860350741924em" fill="#aaa"/><rect width="0.09615384615384616em" height="0.37839821468881785em" x="7.403846153846154vw" y="2.6216017853111824em" fill="#aaa"/><rect width="0.09615384615384616em" height="0.5605077439741079em" x="7.5vw" y="2.439492256025892em" fill="#aaa"/><rect width="0.09615384615384616em" height="0.4565195782590019em" x="7.596153846153847vw" y="2.5434804217409983em" fill="#aaa"/><rect width="0.09615384615384616em" height="0.3625033657070698em" x="7.6923076923076925vw" y="2.6374966342929302em" fill="#aaa"/><rect width="0.09615384615384616em" height="0.47963474674070167em" x="7.788461538461539vw" y="2.5203652532592984em" fill="#aaa"/><rect width="0.09615384615384616em" height="0.46621177025303295em" x="7.884615384615385vw" y="2.533788229746967em" fill="#aaa"/><rect width="0.09615384615384616em" height="1.3959136497228661em" x="7.980769230769231vw" y="1.6040863502771339em" fill="#aaa"/><rect width="0.09615384615384616em" height="0.6667195601913444em" x="8.076923076923077vw" y="2.3332804398086555em" fill="#aaa"/><rect width="0.09615384615384616em" height="0.3773594627422898em" x="8.173076923076923vw" y="2.62264053725771em" fill="#aaa"/><rect width="0.09615384615384616em" height="0.5783537481388701em" x="8.26923076923077vw" y="2.42164625186113em" fill="#aaa"/><rect width="0.09615384615384616em" height="0.4978501647506171em" x="8.365384615384615vw" y="2.5021498352493827em" fill="#aaa"/><rect width="0.09615384615384616em" height="0.6363409008279044em" x="8.461538461538462vw" y="2.3636590991720956em" fill="#aaa"/><rect width="0.09615384615384616em" height="0.7913763199999666em" x="8.557692307692308vw" y="2.2086236800000334em" fill="#aaa"/><rect width="0.09615384615384616em" height="0.7343583364895809em" x="8.653846153846155vw" y="2.265641663510419em" fill="#aaa"/><rect width="0.09615384615384616em" height="1.3540586521293478em" x="8.75vw" y="1.6459413478706522em" fill="#aaa"/><rect width="0.09615384615384616em" height="0.7921456277466913em" x="8.846153846153847vw" y="2.207854372253309em" fill="#aaa"/><rect width="0.09615384615384616em" height="0.46724650786867117em" x="8.942307692307693vw" y="2.532753492131329em" fill="#aaa"/><rect width="0.09615384615384616em" height="0.6214942928018096em" x="9.038461538461538vw" y="2.3785057071981903em" fill="#aaa"/><rect width="0.09615384615384616em" height="0.7035126268420916em" x="9.134615384615385vw" y="2.2964873731579085em" fill="#aaa"/><rect width="0.09615384615384616em" height="0.5469717645040338em" x="9.230769230769232vw" y="2.453028235495966em" fill="#aaa"/><rect width="0.09615384615384616em" height="0.9435465898215125em" x="9.326923076923077vw" y="2.0564534101784875em" fill="#aaa"/><rect width="0.09615384615384616em" height="2.178653433189685em" x="9.423076923076923vw" y="0.8213465668103148em" fill="#aaa"/><rect width="0.09615384615384616em" height="1.0293673886516985em" x="9.51923076923077vw" y="1.9706326113483015em" fill="#aaa"/><rect width="0.09615384615384616em" height="2.7341189556328356em" x="9.615384615384617vw" y="0.2658810443671644em" fill="#aaa"/><rect width="0.09615384615384616em" height="2.490924496466078em" x="9.711538461538462vw" y="0.5090755035339218em" fill="#aaa"/><rect width="0.09615384615384616em" height="1.259136251242376em" x="9.807692307692308vw" y="1.740863748757624em" fill="#aaa"/><rect width="0.09615384615384616em" height="3em" x="9.903846153846155vw" y="0em" fill="#aaa"/></svg>