<?xml version="1.0" standalone="no"?>
<svg xmlns:xlink="http://www.w3.org/1999/xlink" xmlns="http://www.w3.org/2000/svg" class="topic-graph" style="width: 10vw; height: 3em; text-align: center;"><rect width="0.09615384615384616em" height="0.05629777212788736em" x="0vw" y="2.9437022278721128em" fill="#aaa"/><rect width="0.09615384615384616em" height="0.6262175931577453em" x="0.09615384615384616vw" y="2.373782406842255em" fill="#aaa"/><rect width="0.09615384615384616em" height="0.031111221749774976em" x="0.19230769230769232vw" y="2.968888778250225em" fill="#aaa"/><rect width="0.09615384615384616em" height="0.0061656357003970885em" x="0.2884615384615385vw" y="2.993834364299603em" fill="#aaa"/><rect width="0.09615384615384616em" height="0.2542327223352058em" x="0.38461538461538464vw" y="2.745767277664794em" fill="#aaa"/><rect width="0.09615384615384616em" height="0.021402155391451804em" x="0.4807692307692308vw" y="2.978597844608548em" fill="#aaa"/><rect width="0.09615384615384616em" height="0.05443961939363345em" x="0.576923076923077vw" y="2.9455603806063664em" fill="#aaa"/><rect width="0.09615384615384616em" height="0.039906648463454694em" x="0.6730769230769231vw" y="2.9600933515365453em" fill="#aaa"/><rect width="0.09615384615384616em" height="0.04681592590277133em" x="0.7692307692307693vw" y="2.9531840740972286em" fill="#aaa"/><rect width="0.09615384615384616em" height="0.044912734372871355em" x="0.8653846153846154vw" y="2.9550872656271285em" fill="#aaa"/><rect width="0.09615384615384616em" height="0.15585741622264823em" x="0.9615384615384616vw" y="2.844142583777352em" fill="#aaa"/><rect width="0.09615384615384616em" height="0.033821263113294996em" x="1.0576923076923077vw" y="2.966178736886705em" fill="#aaa"/><rect width="0.09615384615384616em" height="0.0360391533232961em" x="1.153846153846154vw" y="2.963960846676704em" fill="#aaa"/><rect width="0.09615384615384616em" height="0.01631713918070091em" x="1.25vw" y="2.983682860819299em" fill="#aaa"/><rect width="0.09615384615384616em" height="0.021628999680988664em" x="1.3461538461538463vw" y="2.978371000319011em" fill="#aaa"/><rect width="0.09615384615384616em" height="0.02015088316837553em" x="1.4423076923076923vw" y="2.9798491168316246em" fill="#aaa"/><rect width="0.09615384615384616em" height="0.025494929527819767em" x="1.5384615384615385vw" y="2.9745050704721803em" fill="#aaa"/><rect width="0.09615384615384616em" height="0.011213501754519191em" x="1.6346153846153848vw" y="2.9887864982454806em" fill="#aaa"/><rect width="0.09615384615384616em" height="0.046697544705105065em" x="1.7307692307692308vw" y="2.953302455294895em" fill="#aaa"/><rect width="0.09615384615384616em" height="0.01264954447677431em" x="1.826923076923077vw" y="2.9873504555232255em" fill="#aaa"/><rect width="0.09615384615384616em" height="0.02570969415385998em" x="1.9230769230769231vw" y="2.97429030584614em" fill="#aaa"/><rect width="0.09615384615384616em" height="0.05536916489302472em" x="2.019230769230769vw" y="2.944630835106975em" fill="#aaa"/><rect width="0.09615384615384616em" height="0.021517146824202464em" x="2.1153846153846154vw" y="2.9784828531757976em" fill="#aaa"/><rect width="0.09615384615384616em" height="0.008191792900734499em" x="2.2115384615384617vw" y="2.9918082070992655em" fill="#aaa"/><rect width="0.09615384615384616em" height="0.03856005443483295em" x="2.307692307692308vw" y="2.961439945565167em" fill="#aaa"/><rect width="0.09615384615384616em" height="0.04153140225193386em" x="2.403846153846154vw" y="2.958468597748066em" fill="#aaa"/><rect width="0.09615384615384616em" height="0.0415303723563193em" x="2.5vw" y="2.9584696276436806em" fill="#aaa"/><rect width="0.09615384615384616em" height="0.023985162292734168em" x="2.5961538461538463vw" y="2.976014837707266em" fill="#aaa"/><rect width="0.09615384615384616em" height="0.02091531789985284em" x="2.6923076923076925vw" y="2.9790846821001473em" fill="#aaa"/><rect width="0.09615384615384616em" height="0.04777114711906498em" x="2.7884615384615388vw" y="2.952228852880935em" fill="#aaa"/><rect width="0.09615384615384616em" height="0.03348853623949692em" x="2.8846153846153846vw" y="2.966511463760503em" fill="#aaa"/><rect width="0.09615384615384616em" height="0.05088519555597689em" x="2.980769230769231vw" y="2.949114804444023em" fill="#aaa"/><rect width="0.09615384615384616em" height="0.035111752847343em" x="3.076923076923077vw" y="2.964888247152657em" fill="#aaa"/><rect width="0.09615384615384616em" height="0.026452589355237192em" x="3.1730769230769234vw" y="2.973547410644763em" fill="#aaa"/><rect width="0.09615384615384616em" height="0.06814507974801279em" x="3.2692307692307696vw" y="2.931854920251987em" fill="#aaa"/><rect width="0.09615384615384616em" height="0.036756513426899354em" x="3.3653846153846154vw" y="2.9632434865731008em" fill="#aaa"/><rect width="0.09615384615384616em" height="0.0654884287647293em" x="3.4615384615384617vw" y="2.9345115712352707em" fill="#aaa"/><rect width="0.09615384615384616em" height="0.06080336497610443em" x="3.557692307692308vw" y="2.9391966350238956em" fill="#aaa"/><rect width="0.09615384615384616em" height="0.03590423498488564em" x="3.653846153846154vw" y="2.9640957650151143em" fill="#aaa"/><rect width="0.09615384615384616em" height="0.03499877587010971em" x="3.75vw" y="2.96500122412989em" fill="#aaa"/><rect width="0.09615384615384616em" height="0.06766930222167825em" x="3.8461538461538463vw" y="2.9323306977783217em" fill="#aaa"/><rect width="0.09615384615384616em" height="0.08563154633916481em" x="3.9423076923076925vw" y="2.914368453660835em" fill="#aaa"/><rect width="0.09615384615384616em" height="0.08344631474359654em" x="4.038461538461538vw" y="2.9165536852564036em" fill="#aaa"/><rect width="0.09615384615384616em" height="0.02778220476805235em" x="4.134615384615385vw" y="2.9722177952319475em" fill="#aaa"/><rect width="0.09615384615384616em" height="0.07629333618130921em" x="4.230769230769231vw" y="2.923706663818691em" fill="#aaa"/><rect width="0.09615384615384616em" height="0.06648340517038384em" x="4.3269230769230775vw" y="2.9335165948296162em" fill="#aaa"/><rect width="0.09615384615384616em" height="0.016559323342752em" x="4.423076923076923vw" y="2.983440676657248em" fill="#aaa"/><rect width="0.09615384615384616em" height="0.025859804407449796em" x="4.519230769230769vw" y="2.9741401955925504em" fill="#aaa"/><rect width="0.09615384615384616em" height="0.0288474321209143em" x="4.615384615384616vw" y="2.9711525678790855em" fill="#aaa"/><rect width="0.09615384615384616em" height="0.03933759807073222em" x="4.711538461538462vw" y="2.9606624019292678em" fill="#aaa"/><rect width="0.09615384615384616em" height="0.03324132607927778em" x="4.807692307692308vw" y="2.9667586739207223em" fill="#aaa"/><rect width="0.09615384615384616em" height="0.039833978978610254em" x="4.903846153846154vw" y="2.9601660210213896em" fill="#aaa"/><rect width="0.09615384615384616em" height="0.04972097319712733em" x="5vw" y="2.9502790268028725em" fill="#aaa"/><rect width="0.09615384615384616em" height="0.12143580434384742em" x="5.096153846153847vw" y="2.8785641956561525em" fill="#aaa"/><rect width="0.09615384615384616em" height="0.10652191573813956em" x="5.1923076923076925vw" y="2.8934780842618606em" fill="#aaa"/><rect width="0.09615384615384616em" height="0.04050862987507785em" x="5.288461538461538vw" y="2.959491370124922em" fill="#aaa"/><rect width="0.09615384615384616em" height="0.06676249768298148em" x="5.384615384615385vw" y="2.9332375023170183em" fill="#aaa"/><rect width="0.09615384615384616em" height="0.08006031568510219em" x="5.480769230769231vw" y="2.919939684314898em" fill="#aaa"/><rect width="0.09615384615384616em" height="0.14564609082336274em" x="5.5769230769230775vw" y="2.8543539091766372em" fill="#aaa"/><rect width="0.09615384615384616em" height="0.08452793101644561em" x="5.673076923076923vw" y="2.9154720689835543em" fill="#aaa"/><rect width="0.09615384615384616em" height="0.06709432016021008em" x="5.769230769230769vw" y="2.93290567983979em" fill="#aaa"/><rect width="0.09615384615384616em" height="0.042982069459314085em" x="5.865384615384616vw" y="2.957017930540686em" fill="#aaa"/><rect width="0.09615384615384616em" height="0.06425466359956389em" x="5.961538461538462vw" y="2.9357453364004362em" fill="#aaa"/><rect width="0.09615384615384616em" height="0.045642611107022286em" x="6.057692307692308vw" y="2.9543573888929777em" fill="#aaa"/><rect width="0.09615384615384616em" height="0.10875080628151736em" x="6.153846153846154vw" y="2.8912491937184828em" fill="#aaa"/><rect width="0.09615384615384616em" height="0.12313219504085017em" x="6.25vw" y="2.87686780495915em" fill="#aaa"/><rect width="0.09615384615384616em" height="0.08802531991786922em" x="6.346153846153847vw" y="2.911974680082131em" fill="#aaa"/><rect width="0.09615384615384616em" height="0.0780712930780835em" x="6.4423076923076925vw" y="2.9219287069219164em" fill="#aaa"/><rect width="0.09615384615384616em" height="0.08910151843142863em" x="6.538461538461539vw" y="2.9108984815685712em" fill="#aaa"/><rect width="0.09615384615384616em" height="0.06407413826608234em" x="6.634615384615385vw" y="2.9359258617339177em" fill="#aaa"/><rect width="0.09615384615384616em" height="0.1258814929760285em" x="6.730769230769231vw" y="2.8741185070239714em" fill="#aaa"/><rect width="0.09615384615384616em" height="0.11392099368364958em" x="6.8269230769230775vw" y="2.8860790063163506em" fill="#aaa"/><rect width="0.09615384615384616em" height="0.11941005865265245em" x="6.923076923076923vw" y="2.8805899413473477em" fill="#aaa"/><rect width="0.09615384615384616em" height="0.1006506966170893em" x="7.01923076923077vw" y="2.8993493033829107em" fill="#aaa"/><rect width="0.09615384615384616em" height="0.15804836941835826em" x="7.115384615384616vw" y="2.841951630581642em" fill="#aaa"/><rect width="0.09615384615384616em" height="0.23190636006912654em" x="7.211538461538462vw" y="2.7680936399308735em" fill="#aaa"/><rect width="0.09615384615384616em" height="0.15346623276441895em" x="7.307692307692308vw" y="2.846533767235581em" fill="#aaa"/><rect width="0.09615384615384616em" height="0.1567830786017242em" x="7.403846153846154vw" y="2.843216921398276em" fill="#aaa"/><rect width="0.09615384615384616em" height="0.20782823448530177em" x="7.5vw" y="2.792171765514698em" fill="#aaa"/><rect width="0.09615384615384616em" height="0.1497785032325775em" x="7.596153846153847vw" y="2.8502214967674226em" fill="#aaa"/><rect width="0.09615384615384616em" height="0.35445542389421414em" x="7.6923076923076925vw" y="2.645544576105786em" fill="#aaa"/><rect width="0.09615384615384616em" height="0.1836024979706974em" x="7.788461538461539vw" y="2.816397502029303em" fill="#aaa"/><rect width="0.09615384615384616em" height="0.2701583574968791em" x="7.884615384615385vw" y="2.729841642503121em" fill="#aaa"/><rect width="0.09615384615384616em" height="0.1948074341081735em" x="7.980769230769231vw" y="2.8051925658918266em" fill="#aaa"/><rect width="0.09615384615384616em" height="0.22995739171015053em" x="8.076923076923077vw" y="2.7700426082898493em" fill="#aaa"/><rect width="0.09615384615384616em" height="0.40238966114958863em" x="8.173076923076923vw" y="2.5976103388504113em" fill="#aaa"/><rect width="0.09615384615384616em" height="0.49013874684848757em" x="8.26923076923077vw" y="2.5098612531515125em" fill="#aaa"/><rect width="0.09615384615384616em" height="1.2166653328585124em" x="8.365384615384615vw" y="1.7833346671414876em" fill="#aaa"/><rect width="0.09615384615384616em" height="0.7770121435300199em" x="8.461538461538462vw" y="2.22298785646998em" fill="#aaa"/><rect width="0.09615384615384616em" height="0.9962948911698599em" x="8.557692307692308vw" y="2.00370510883014em" fill="#aaa"/><rect width="0.09615384615384616em" height="1.3454727814749223em" x="8.653846153846155vw" y="1.6545272185250777em" fill="#aaa"/><rect width="0.09615384615384616em" height="0.7932214123229158em" x="8.75vw" y="2.2067785876770842em" fill="#aaa"/><rect width="0.09615384615384616em" height="0.9776491606476039em" x="8.846153846153847vw" y="2.022350839352396em" fill="#aaa"/><rect width="0.09615384615384616em" height="0.977243667501093em" x="8.942307692307693vw" y="2.022756332498907em" fill="#aaa"/><rect width="0.09615384615384616em" height="2.0237437322946707em" x="9.038461538461538vw" y="0.9762562677053293em" fill="#aaa"/><rect width="0.09615384615384616em" height="1.4009839572036606em" x="9.134615384615385vw" y="1.5990160427963394em" fill="#aaa"/><rect width="0.09615384615384616em" height="2.361743202300585em" x="9.230769230769232vw" y="0.6382567976994151em" fill="#aaa"/><rect width="0.09615384615384616em" height="2.3008751979597153em" x="9.326923076923077vw" y="0.6991248020402847em" fill="#aaa"/><rect width="0.09615384615384616em" height="2.1009207449247587em" x="9.423076923076923vw" y="0.8990792550752413em" fill="#aaa"/><rect width="0.09615384615384616em" height="2.468645799688522em" x="9.51923076923077vw" y="0.531354200311478em" fill="#aaa"/><rect width="0.09615384615384616em" height="3em" x="9.615384615384617vw" y="0em" fill="#aaa"/><rect width="0.09615384615384616em" height="1.9674741201115262em" x="9.711538461538462vw" y="1.0325258798884738em" fill="#aaa"/><rect width="0.09615384615384616em" height="1.3066188922719488em" x="9.807692307692308vw" y="1.6933811077280512em" fill="#aaa"/><rect width="0.09615384615384616em" height="1.0122234247056352em" x="9.903846153846155vw" y="1.9877765752943648em" fill="#aaa"/></svg>