<?xml version="1.0" standalone="no"?>
<svg xmlns:xlink="http://www.w3.org/1999/xlink" xmlns="http://www.w3.org/2000/svg" class="topic-graph" style="width: 10vw; height: 3em; text-align: center;"><rect width="0.09615384615384616em" height="1.227651002897554em" x="0vw" y="1.772348997102446em" fill="#aaa"/><rect width="0.09615384615384616em" height="0.7161410032982063em" x="0.09615384615384616vw" y="2.2838589967017935em" fill="#aaa"/><rect width="0.09615384615384616em" height="0.6658917211150119em" x="0.19230769230769232vw" y="2.334108278884988em" fill="#aaa"/><rect width="0.09615384615384616em" height="0.44941030849763347em" x="0.2884615384615385vw" y="2.5505896915023665em" fill="#aaa"/><rect width="0.09615384615384616em" height="0.18911766544338993em" x="0.38461538461538464vw" y="2.8108823345566103em" fill="#aaa"/><rect width="0.09615384615384616em" height="1.3286294479462895em" x="0.4807692307692308vw" y="1.6713705520537105em" fill="#aaa"/><rect width="0.09615384615384616em" height="2.75099747307869em" x="0.576923076923077vw" y="0.24900252692131009em" fill="#aaa"/><rect width="0.09615384615384616em" height="1.6267753653956676em" x="0.6730769230769231vw" y="1.3732246346043324em" fill="#aaa"/><rect width="0.09615384615384616em" height="3em" x="0.7692307692307693vw" y="0em" fill="#aaa"/><rect width="0.09615384615384616em" height="2.4249213220401584em" x="0.8653846153846154vw" y="0.5750786779598416em" fill="#aaa"/><rect width="0.09615384615384616em" height="1.3929409601850506em" x="0.9615384615384616vw" y="1.6070590398149494em" fill="#aaa"/><rect width="0.09615384615384616em" height="0.7407222688794911em" x="1.0576923076923077vw" y="2.259277731120509em" fill="#aaa"/><rect width="0.09615384615384616em" height="0.6932405022297609em" x="1.153846153846154vw" y="2.3067594977702393em" fill="#aaa"/><rect width="0.09615384615384616em" height="1.1475500357215502em" x="1.25vw" y="1.8524499642784498em" fill="#aaa"/><rect width="0.09615384615384616em" height="0.028747308458727458em" x="1.3461538461538463vw" y="2.9712526915412725em" fill="#aaa"/><rect width="0.09615384615384616em" height="0.5268309829979974em" x="1.4423076923076923vw" y="2.473169017002003em" fill="#aaa"/><rect width="0.09615384615384616em" height="1.002322227840584em" x="1.5384615384615385vw" y="1.997677772159416em" fill="#aaa"/><rect width="0.09615384615384616em" height="0.25413785950280365em" x="1.6346153846153848vw" y="2.7458621404971963em" fill="#aaa"/><rect width="0.09615384615384616em" height="0.4027495504424321em" x="1.7307692307692308vw" y="2.597250449557568em" fill="#aaa"/><rect width="0.09615384615384616em" height="0.5124114135009987em" x="1.826923076923077vw" y="2.487588586499001em" fill="#aaa"/><rect width="0.09615384615384616em" height="1.2698189234768396em" x="1.9230769230769231vw" y="1.7301810765231604em" fill="#aaa"/><rect width="0.09615384615384616em" height="0.3358249556273631em" x="2.019230769230769vw" y="2.664175044372637em" fill="#aaa"/><rect width="0.09615384615384616em" height="0.14685836303605385em" x="2.1153846153846154vw" y="2.853141636963946em" fill="#aaa"/><rect width="0.09615384615384616em" height="0.1460765421792522em" x="2.2115384615384617vw" y="2.853923457820748em" fill="#aaa"/><rect width="0.09615384615384616em" height="0.061456860269408504em" x="2.307692307692308vw" y="2.9385431397305917em" fill="#aaa"/><rect width="0.09615384615384616em" height="0.8437555445246144em" x="2.403846153846154vw" y="2.1562444554753855em" fill="#aaa"/><rect width="0.09615384615384616em" height="0.5811527949005898em" x="2.5vw" y="2.4188472050994103em" fill="#aaa"/><rect width="0.09615384615384616em" height="0.644355876016773em" x="2.5961538461538463vw" y="2.355644123983227em" fill="#aaa"/><rect width="0.09615384615384616em" height="0.032345568986387345em" x="2.6923076923076925vw" y="2.967654431013613em" fill="#aaa"/><rect width="0.09615384615384616em" height="0.5405115260707687em" x="2.7884615384615388vw" y="2.4594884739292313em" fill="#aaa"/><rect width="0.09615384615384616em" height="0.09461564197712238em" x="2.8846153846153846vw" y="2.9053843580228778em" fill="#aaa"/><rect width="0.09615384615384616em" height="0.1520693792357851em" x="2.980769230769231vw" y="2.847930620764215em" fill="#aaa"/><rect width="0.09615384615384616em" height="0.2823337714518671em" x="3.076923076923077vw" y="2.717666228548133em" fill="#aaa"/><rect width="0.09615384615384616em" height="0.19707762234871945em" x="3.1730769230769234vw" y="2.8029223776512806em" fill="#aaa"/><rect width="0.09615384615384616em" height="0.1242490106306337em" x="3.2692307692307696vw" y="2.8757509893693665em" fill="#aaa"/><rect width="0.09615384615384616em" height="0.37217198016176073em" x="3.3653846153846154vw" y="2.627828019838239em" fill="#aaa"/><rect width="0.09615384615384616em" height="0.31367584511094143em" x="3.4615384615384617vw" y="2.6863241548890584em" fill="#aaa"/><rect width="0.09615384615384616em" height="0.5268833198126815em" x="3.557692307692308vw" y="2.4731166801873186em" fill="#aaa"/><rect width="0.09615384615384616em" height="0.7384815066738101em" x="3.653846153846154vw" y="2.26151849332619em" fill="#aaa"/><rect width="0.09615384615384616em" height="0.016996501558593592em" x="3.75vw" y="2.9830034984414064em" fill="#aaa"/><rect width="0.09615384615384616em" height="0.576334248422727em" x="3.8461538461538463vw" y="2.423665751577273em" fill="#aaa"/><rect width="0.09615384615384616em" height="0.7091478344995994em" x="3.9423076923076925vw" y="2.2908521655004006em" fill="#aaa"/><rect width="0.09615384615384616em" height="1.8249037092364855em" x="4.038461538461538vw" y="1.1750962907635145em" fill="#aaa"/><rect width="0.09615384615384616em" height="1.4308153768729976em" x="4.134615384615385vw" y="1.5691846231270024em" fill="#aaa"/><rect width="0.09615384615384616em" height="0.14472574398172933em" x="4.230769230769231vw" y="2.8552742560182707em" fill="#aaa"/><rect width="0.09615384615384616em" height="0.41733992032117073em" x="4.3269230769230775vw" y="2.5826600796788295em" fill="#aaa"/><rect width="0.09615384615384616em" height="0.23469894199789026em" x="4.423076923076923vw" y="2.76530105800211em" fill="#aaa"/><rect width="0.09615384615384616em" height="0.10383763880838881em" x="4.519230769230769vw" y="2.896162361191611em" fill="#aaa"/><rect width="0.09615384615384616em" height="0.9836746761215813em" x="4.615384615384616vw" y="2.0163253238784185em" fill="#aaa"/><rect width="0.09615384615384616em" height="0.6185961393881138em" x="4.711538461538462vw" y="2.3814038606118864em" fill="#aaa"/><rect width="0.09615384615384616em" height="0.9659397661260594em" x="4.807692307692308vw" y="2.034060233873941em" fill="#aaa"/><rect width="0.09615384615384616em" height="0.20756596342586942em" x="4.903846153846154vw" y="2.7924340365741305em" fill="#aaa"/><rect width="0.09615384615384616em" height="0.12996269280428105em" x="5vw" y="2.870037307195719em" fill="#aaa"/><rect width="0.09615384615384616em" height="0.19946088146025276em" x="5.096153846153847vw" y="2.8005391185397475em" fill="#aaa"/><rect width="0.09615384615384616em" height="0.053982462939203626em" x="5.1923076923076925vw" y="2.946017537060796em" fill="#aaa"/><rect width="0.09615384615384616em" height="0.7355692029067382em" x="5.288461538461538vw" y="2.2644307970932616em" fill="#aaa"/><rect width="0.09615384615384616em" height="0.1348753480032056em" x="5.384615384615385vw" y="2.8651246519967946em" fill="#aaa"/><rect width="0.09615384615384616em" height="0.06779812888249245em" x="5.480769230769231vw" y="2.9322018711175075em" fill="#aaa"/><rect width="0.09615384615384616em" height="0.3622456417163095em" x="5.5769230769230775vw" y="2.6377543582836904em" fill="#aaa"/><rect width="0.09615384615384616em" height="0.24980847736252393em" x="5.673076923076923vw" y="2.750191522637476em" fill="#aaa"/><rect width="0.09615384615384616em" height="0.19069727451205398em" x="5.769230769230769vw" y="2.809302725487946em" fill="#aaa"/><rect width="0.09615384615384616em" height="0.16248078823455633em" x="5.865384615384616vw" y="2.8375192117654437em" fill="#aaa"/><rect width="0.09615384615384616em" height="0.12026646703884988em" x="5.961538461538462vw" y="2.87973353296115em" fill="#aaa"/><rect width="0.09615384615384616em" height="0.03404936465570942em" x="6.057692307692308vw" y="2.9659506353442904em" fill="#aaa"/><rect width="0.09615384615384616em" height="0.060703685624771256em" x="6.153846153846154vw" y="2.9392963143752286em" fill="#aaa"/><rect width="0.09615384615384616em" height="0.03935573917464509em" x="6.25vw" y="2.960644260825355em" fill="#aaa"/><rect width="0.09615384615384616em" height="0.16741742030294873em" x="6.346153846153847vw" y="2.832582579697051em" fill="#aaa"/><rect width="0.09615384615384616em" height="0.05271504359039479em" x="6.4423076923076925vw" y="2.947284956409605em" fill="#aaa"/><rect width="0.09615384615384616em" height="0.06044512225216193em" x="6.538461538461539vw" y="2.939554877747838em" fill="#aaa"/><rect width="0.09615384615384616em" height="0.2314881830102946em" x="6.634615384615385vw" y="2.7685118169897054em" fill="#aaa"/><rect width="0.09615384615384616em" height="0.3977929371107186em" x="6.730769230769231vw" y="2.6022070628892813em" fill="#aaa"/><rect width="0.09615384615384616em" height="0.1551414243814938em" x="6.8269230769230775vw" y="2.844858575618506em" fill="#aaa"/><rect width="0.09615384615384616em" height="0.6621958288027352em" x="6.923076923076923vw" y="2.3378041711972646em" fill="#aaa"/><rect width="0.09615384615384616em" height="0.15227211833636095em" x="7.01923076923077vw" y="2.847727881663639em" fill="#aaa"/><rect width="0.09615384615384616em" height="0.15505724525717385em" x="7.115384615384616vw" y="2.844942754742826em" fill="#aaa"/><rect width="0.09615384615384616em" height="0.08195582546181325em" x="7.211538461538462vw" y="2.9180441745381867em" fill="#aaa"/><rect width="0.09615384615384616em" height="0.1882858070742629em" x="7.307692307692308vw" y="2.811714192925737em" fill="#aaa"/><rect width="0.09615384615384616em" height="0.2676457461262494em" x="7.403846153846154vw" y="2.7323542538737504em" fill="#aaa"/><rect width="0.09615384615384616em" height="0.1728798270948683em" x="7.5vw" y="2.827120172905132em" fill="#aaa"/><rect width="0.09615384615384616em" height="0.08291656168966219em" x="7.596153846153847vw" y="2.9170834383103377em" fill="#aaa"/><rect width="0.09615384615384616em" height="0.2626598985585633em" x="7.6923076923076925vw" y="2.7373401014414367em" fill="#aaa"/><rect width="0.09615384615384616em" height="0.19215499704404587em" x="7.788461538461539vw" y="2.807845002955954em" fill="#aaa"/><rect width="0.09615384615384616em" height="0.16997181661994568em" x="7.884615384615385vw" y="2.8300281833800542em" fill="#aaa"/><rect width="0.09615384615384616em" height="0.15963523683930586em" x="7.980769230769231vw" y="2.8403647631606943em" fill="#aaa"/><rect width="0.09615384615384616em" height="0.1683182673269631em" x="8.076923076923077vw" y="2.831681732673037em" fill="#aaa"/><rect width="0.09615384615384616em" height="0.4587985153345101em" x="8.173076923076923vw" y="2.54120148466549em" fill="#aaa"/><rect width="0.09615384615384616em" height="0.22440517763555712em" x="8.26923076923077vw" y="2.775594822364443em" fill="#aaa"/><rect width="0.09615384615384616em" height="0.4009606902069626em" x="8.365384615384615vw" y="2.5990393097930373em" fill="#aaa"/><rect width="0.09615384615384616em" height="0.24174936879605663em" x="8.461538461538462vw" y="2.758250631203943em" fill="#aaa"/><rect width="0.09615384615384616em" height="0.5060115801321655em" x="8.557692307692308vw" y="2.4939884198678346em" fill="#aaa"/><rect width="0.09615384615384616em" height="0.25998486224154405em" x="8.653846153846155vw" y="2.740015137758456em" fill="#aaa"/><rect width="0.09615384615384616em" height="0.08707219414087022em" x="8.75vw" y="2.91292780585913em" fill="#aaa"/><rect width="0.09615384615384616em" height="0.09999877364753726em" x="8.846153846153847vw" y="2.9000012263524626em" fill="#aaa"/><rect width="0.09615384615384616em" height="0.2600633571483768em" x="8.942307692307693vw" y="2.739936642851623em" fill="#aaa"/><rect width="0.09615384615384616em" height="0.34326458782770264em" x="9.038461538461538vw" y="2.6567354121722975em" fill="#aaa"/><rect width="0.09615384615384616em" height="0.15328072523914038em" x="9.134615384615385vw" y="2.8467192747608596em" fill="#aaa"/><rect width="0.09615384615384616em" height="0.2726358435245087em" x="9.230769230769232vw" y="2.7273641564754914em" fill="#aaa"/><rect width="0.09615384615384616em" height="0.18475740559913173em" x="9.326923076923077vw" y="2.815242594400868em" fill="#aaa"/><rect width="0.09615384615384616em" height="0.15495537420435904em" x="9.423076923076923vw" y="2.8450446257956408em" fill="#aaa"/><rect width="0.09615384615384616em" height="1.1048206892177004em" x="9.51923076923077vw" y="1.8951793107822996em" fill="#aaa"/><rect width="0.09615384615384616em" height="0.36583881419188563em" x="9.615384615384617vw" y="2.6341611858081144em" fill="#aaa"/><rect width="0.09615384615384616em" height="0.35959730628556735em" x="9.711538461538462vw" y="2.6404026937144325em" fill="#aaa"/><rect width="0.09615384615384616em" height="0.44659472759934893em" x="9.807692307692308vw" y="2.553405272400651em" fill="#aaa"/><rect width="0.09615384615384616em" height="0.49403209578306617em" x="9.903846153846155vw" y="2.505967904216934em" fill="#aaa"/></svg>