<?xml version="1.0" standalone="no"?>
<svg xmlns:xlink="http://www.w3.org/1999/xlink" xmlns="http://www.w3.org/2000/svg" class="topic-graph" style="width: 100em; height: 30em; text-align: center;"><rect width="0.9615384615384616em" height="0.009579965619850134em" x="0em" y="29.99042003438015em" fill="#aaa"/><rect width="0.9615384615384616em" height="0.3036510337814952em" x="0.9615384615384616em" y="29.696348966218505em" fill="#aaa"/><rect width="0.9615384615384616em" height="0.13190558921118056em" x="1.9230769230769231em" y="29.86809441078882em" fill="#aaa"/><rect width="0.9615384615384616em" height="0.04732841407820319em" x="2.8846153846153846em" y="29.952671585921795em" fill="#aaa"/><rect width="0.9615384615384616em" height="0.18151964198221263em" x="3.8461538461538463em" y="29.818480358017787em" fill="#aaa"/><rect width="0.9615384615384616em" height="0.20734187350601743em" x="4.8076923076923075em" y="29.792658126493983em" fill="#aaa"/><rect width="0.9615384615384616em" height="1.100160410758976em" x="5.769230769230769em" y="28.899839589241026em" fill="#aaa"/><rect width="0.9615384615384616em" height="0.07514723826783881em" x="6.730769230769231em" y="29.92485276173216em" fill="#aaa"/><rect width="0.9615384615384616em" height="0.03903753371064016em" x="7.6923076923076925em" y="29.96096246628936em" fill="#aaa"/><rect width="0.9615384615384616em" height="0.09900199832618985em" x="8.653846153846153em" y="29.90099800167381em" fill="#aaa"/><rect width="0.9615384615384616em" height="0.3268544835880098em" x="9.615384615384615em" y="29.67314551641199em" fill="#aaa"/><rect width="0.9615384615384616em" height="0.010242095910148716em" x="10.576923076923077em" y="29.989757904089853em" fill="#aaa"/><rect width="0.9615384615384616em" height="0.3093465523114065em" x="11.538461538461538em" y="29.690653447688593em" fill="#aaa"/><rect width="0.9615384615384616em" height="0.39921999229783384em" x="12.5em" y="29.600780007702166em" fill="#aaa"/><rect width="0.9615384615384616em" height="1.6807792838212818em" x="13.461538461538462em" y="28.31922071617872em" fill="#aaa"/><rect width="0.9615384615384616em" height="0.18236438639692398em" x="14.423076923076923em" y="29.817635613603077em" fill="#aaa"/><rect width="0.9615384615384616em" height="30em" x="15.384615384615385em" y="0em" fill="#aaa"/><rect width="0.9615384615384616em" height="0.6504418607090191em" x="16.346153846153847em" y="29.34955813929098em" fill="#aaa"/><rect width="0.9615384615384616em" height="0.5947509979975959em" x="17.307692307692307em" y="29.405249002002403em" fill="#aaa"/><rect width="0.9615384615384616em" height="0.10938543276273889em" x="18.26923076923077em" y="29.89061456723726em" fill="#aaa"/><rect width="0.9615384615384616em" height="0.04686945276237146em" x="19.23076923076923em" y="29.953130547237627em" fill="#aaa"/><rect width="0.9615384615384616em" height="0.027608301360917877em" x="20.192307692307693em" y="29.972391698639083em" fill="#aaa"/><rect width="0.9615384615384616em" height="0.06371408185420864em" x="21.153846153846153em" y="29.936285918145792em" fill="#aaa"/><rect width="0.9615384615384616em" height="0.3052561901400767em" x="22.115384615384617em" y="29.694743809859922em" fill="#aaa"/><rect width="0.9615384615384616em" height="0.155754486824202em" x="23.076923076923077em" y="29.8442455131758em" fill="#aaa"/><rect width="0.9615384615384616em" height="0.06177818958829273em" x="24.03846153846154em" y="29.938221810411708em" fill="#aaa"/><rect width="0.9615384615384616em" height="0.18289463667744071em" x="25em" y="29.817105363322558em" fill="#aaa"/><rect width="0.9615384615384616em" height="0.03242193446687489em" x="25.961538461538463em" y="29.967578065533125em" fill="#aaa"/><rect width="0.9615384615384616em" height="0.10382323348352951em" x="26.923076923076923em" y="29.896176766516472em" fill="#aaa"/><rect width="0.9615384615384616em" height="0.018458652037627588em" x="27.884615384615387em" y="29.981541347962374em" fill="#aaa"/><rect width="0.9615384615384616em" height="0.23837502472330332em" x="28.846153846153847em" y="29.761624975276696em" fill="#aaa"/><rect width="0.9615384615384616em" height="0.007661497790449527em" x="29.80769230769231em" y="29.99233850220955em" fill="#aaa"/><rect width="0.9615384615384616em" height="0.3163528740422696em" x="30.76923076923077em" y="29.68364712595773em" fill="#aaa"/><rect width="0.9615384615384616em" height="0.010145240135224786em" x="31.73076923076923em" y="29.989854759864777em" fill="#aaa"/><rect width="0.9615384615384616em" height="0.17115710863483927em" x="32.69230769230769em" y="29.82884289136516em" fill="#aaa"/><rect width="0.9615384615384616em" height="0.012696892215464606em" x="33.65384615384615em" y="29.987303107784534em" fill="#aaa"/><rect width="0.9615384615384616em" height="0.1338957056823737em" x="34.61538461538461em" y="29.866104294317626em" fill="#aaa"/><rect width="0.9615384615384616em" height="0.12874076211708976em" x="35.57692307692308em" y="29.87125923788291em" fill="#aaa"/><rect width="0.9615384615384616em" height="0.07459166120850177em" x="36.53846153846154em" y="29.9254083387915em" fill="#aaa"/><rect width="0.9615384615384616em" height="0.23123184301441377em" x="37.5em" y="29.768768156985587em" fill="#aaa"/><rect width="0.9615384615384616em" height="0.07778429312962525em" x="38.46153846153846em" y="29.922215706870375em" fill="#aaa"/><rect width="0.9615384615384616em" height="0.09359882941132674em" x="39.42307692307693em" y="29.906401170588673em" fill="#aaa"/><rect width="0.9615384615384616em" height="0.12555603462611428em" x="40.38461538461539em" y="29.874443965373885em" fill="#aaa"/><rect width="0.9615384615384616em" height="0.22208511089316688em" x="41.34615384615385em" y="29.77791488910683em" fill="#aaa"/><rect width="0.9615384615384616em" height="0.16501975789138196em" x="42.30769230769231em" y="29.834980242108617em" fill="#aaa"/><rect width="0.9615384615384616em" height="0.20171230843614713em" x="43.269230769230774em" y="29.798287691563853em" fill="#aaa"/><rect width="0.9615384615384616em" height="0.01748405935321409em" x="44.23076923076923em" y="29.982515940646785em" fill="#aaa"/><rect width="0.9615384615384616em" height="0.06465194007896972em" x="45.19230769230769em" y="29.93534805992103em" fill="#aaa"/><rect width="0.9615384615384616em" height="0.10067988519112181em" x="46.15384615384615em" y="29.899320114808877em" fill="#aaa"/><rect width="0.9615384615384616em" height="0.07846362655289547em" x="47.11538461538461em" y="29.921536373447104em" fill="#aaa"/><rect width="0.9615384615384616em" height="0.06730198563402148em" x="48.07692307692308em" y="29.93269801436598em" fill="#aaa"/><rect width="0.9615384615384616em" height="0.22669441296469092em" x="49.03846153846154em" y="29.77330558703531em" fill="#aaa"/><rect width="0.9615384615384616em" height="0.08998792515737235em" x="50em" y="29.910012074842626em" fill="#aaa"/><rect width="0.9615384615384616em" height="0.25673245519105353em" x="50.96153846153846em" y="29.743267544808948em" fill="#aaa"/><rect width="0.9615384615384616em" height="0.12692927679114033em" x="51.92307692307693em" y="29.87307072320886em" fill="#aaa"/><rect width="0.9615384615384616em" height="0.19672214994738887em" x="52.88461538461539em" y="29.803277850052613em" fill="#aaa"/><rect width="0.9615384615384616em" height="0.04877498936093552em" x="53.84615384615385em" y="29.951225010639064em" fill="#aaa"/><rect width="0.9615384615384616em" height="0.11616886145820934em" x="54.80769230769231em" y="29.88383113854179em" fill="#aaa"/><rect width="0.9615384615384616em" height="0.3331181702099052em" x="55.769230769230774em" y="29.666881829790096em" fill="#aaa"/><rect width="0.9615384615384616em" height="0.27211432014538234em" x="56.73076923076923em" y="29.72788567985462em" fill="#aaa"/><rect width="0.9615384615384616em" height="0.0961668885686185em" x="57.69230769230769em" y="29.903833111431382em" fill="#aaa"/><rect width="0.9615384615384616em" height="0.09041064274497827em" x="58.65384615384615em" y="29.909589357255022em" fill="#aaa"/><rect width="0.9615384615384616em" height="0.06961376516402565em" x="59.61538461538462em" y="29.930386234835975em" fill="#aaa"/><rect width="0.9615384615384616em" height="0.21693961026997544em" x="60.57692307692308em" y="29.783060389730025em" fill="#aaa"/><rect width="0.9615384615384616em" height="0.11230087306746965em" x="61.53846153846154em" y="29.88769912693253em" fill="#aaa"/><rect width="0.9615384615384616em" height="0.11234913179508009em" x="62.5em" y="29.88765086820492em" fill="#aaa"/><rect width="0.9615384615384616em" height="0.10035019677326566em" x="63.46153846153846em" y="29.899649803226733em" fill="#aaa"/><rect width="0.9615384615384616em" height="0.1759828621207723em" x="64.42307692307692em" y="29.824017137879228em" fill="#aaa"/><rect width="0.9615384615384616em" height="0.07008993168019235em" x="65.38461538461539em" y="29.929910068319806em" fill="#aaa"/><rect width="0.9615384615384616em" height="0.20417075463729245em" x="66.34615384615385em" y="29.795829245362707em" fill="#aaa"/><rect width="0.9615384615384616em" height="0.10952294023339665em" x="67.3076923076923em" y="29.890477059766603em" fill="#aaa"/><rect width="0.9615384615384616em" height="0.16875433323177208em" x="68.26923076923077em" y="29.83124566676823em" fill="#aaa"/><rect width="0.9615384615384616em" height="0.16898476381761418em" x="69.23076923076923em" y="29.831015236182385em" fill="#aaa"/><rect width="0.9615384615384616em" height="0.08749037259619605em" x="70.1923076923077em" y="29.912509627403804em" fill="#aaa"/><rect width="0.9615384615384616em" height="0.05661872585693903em" x="71.15384615384616em" y="29.94338127414306em" fill="#aaa"/><rect width="0.9615384615384616em" height="0.10281076483121719em" x="72.11538461538461em" y="29.89718923516878em" fill="#aaa"/><rect width="0.9615384615384616em" height="0.20108942974136418em" x="73.07692307692308em" y="29.798910570258634em" fill="#aaa"/><rect width="0.9615384615384616em" height="0.09413347150468189em" x="74.03846153846155em" y="29.905866528495316em" fill="#aaa"/><rect width="0.9615384615384616em" height="0.061519786021126205em" x="75em" y="29.938480213978874em" fill="#aaa"/><rect width="0.9615384615384616em" height="0.10606532739000551em" x="75.96153846153847em" y="29.893934672609994em" fill="#aaa"/><rect width="0.9615384615384616em" height="0.08220923082158685em" x="76.92307692307692em" y="29.917790769178414em" fill="#aaa"/><rect width="0.9615384615384616em" height="0.08321792145273116em" x="77.88461538461539em" y="29.916782078547268em" fill="#aaa"/><rect width="0.9615384615384616em" height="0.10791888107983186em" x="78.84615384615385em" y="29.892081118920167em" fill="#aaa"/><rect width="0.9615384615384616em" height="0.07056002969450112em" x="79.8076923076923em" y="29.9294399703055em" fill="#aaa"/><rect width="0.9615384615384616em" height="0.07579557212451629em" x="80.76923076923077em" y="29.924204427875484em" fill="#aaa"/><rect width="0.9615384615384616em" height="0.2091624011481706em" x="81.73076923076923em" y="29.79083759885183em" fill="#aaa"/><rect width="0.9615384615384616em" height="0.15940981963588227em" x="82.6923076923077em" y="29.840590180364117em" fill="#aaa"/><rect width="0.9615384615384616em" height="0.04957285597914895em" x="83.65384615384616em" y="29.95042714402085em" fill="#aaa"/><rect width="0.9615384615384616em" height="0.09611406424259383em" x="84.61538461538461em" y="29.903885935757405em" fill="#aaa"/><rect width="0.9615384615384616em" height="0.09107332739501858em" x="85.57692307692308em" y="29.90892667260498em" fill="#aaa"/><rect width="0.9615384615384616em" height="0.0581867347294039em" x="86.53846153846155em" y="29.941813265270596em" fill="#aaa"/><rect width="0.9615384615384616em" height="0.04343221643714935em" x="87.5em" y="29.95656778356285em" fill="#aaa"/><rect width="0.9615384615384616em" height="0.11380138458316758em" x="88.46153846153847em" y="29.88619861541683em" fill="#aaa"/><rect width="0.9615384615384616em" height="0.05904595151429422em" x="89.42307692307692em" y="29.940954048485708em" fill="#aaa"/><rect width="0.9615384615384616em" height="0.06477185034773358em" x="90.38461538461539em" y="29.935228149652268em" fill="#aaa"/><rect width="0.9615384615384616em" height="0.07176836462637672em" x="91.34615384615385em" y="29.928231635373624em" fill="#aaa"/><rect width="0.9615384615384616em" height="0.14935421709387434em" x="92.3076923076923em" y="29.850645782906124em" fill="#aaa"/><rect width="0.9615384615384616em" height="0.0474249916627066em" x="93.26923076923077em" y="29.952575008337295em" fill="#aaa"/><rect width="0.9615384615384616em" height="0.18069981083424672em" x="94.23076923076923em" y="29.81930018916575em" fill="#aaa"/><rect width="0.9615384615384616em" height="0.08726928337446042em" x="95.1923076923077em" y="29.91273071662554em" fill="#aaa"/><rect width="0.9615384615384616em" height="0.11696712338835406em" x="96.15384615384616em" y="29.883032876611647em" fill="#aaa"/><rect width="0.9615384615384616em" height="0.08196152458056603em" x="97.11538461538461em" y="29.918038475419433em" fill="#aaa"/><rect width="0.9615384615384616em" height="0.08635637536570669em" x="98.07692307692308em" y="29.913643624634293em" fill="#aaa"/><rect width="0.9615384615384616em" height="0.05827550508323884em" x="99.03846153846155em" y="29.941724494916762em" fill="#aaa"/></svg>