<?xml version="1.0" standalone="no"?>
<svg xmlns:xlink="http://www.w3.org/1999/xlink" xmlns="http://www.w3.org/2000/svg" class="topic-graph" style="width: 10vw; height: 3em; text-align: center;"><rect width="0.09615384615384616em" height="0.05965071457334101em" x="0vw" y="2.940349285426659em" fill="#aaa"/><rect width="0.09615384615384616em" height="0.4088796413850229em" x="0.09615384615384616vw" y="2.591120358614977em" fill="#aaa"/><rect width="0.09615384615384616em" height="0.10788660587298839em" x="0.19230769230769232vw" y="2.8921133941270116em" fill="#aaa"/><rect width="0.09615384615384616em" height="0.07621239215849966em" x="0.2884615384615385vw" y="2.9237876078415em" fill="#aaa"/><rect width="0.09615384615384616em" height="0.14479383954777983em" x="0.38461538461538464vw" y="2.8552061604522203em" fill="#aaa"/><rect width="0.09615384615384616em" height="0.21408215377054862em" x="0.4807692307692308vw" y="2.7859178462294514em" fill="#aaa"/><rect width="0.09615384615384616em" height="0.23302264446611343em" x="0.576923076923077vw" y="2.7669773555338866em" fill="#aaa"/><rect width="0.09615384615384616em" height="0.2751691787441296em" x="0.6730769230769231vw" y="2.7248308212558703em" fill="#aaa"/><rect width="0.09615384615384616em" height="0.1781567267148106em" x="0.7692307692307693vw" y="2.8218432732851895em" fill="#aaa"/><rect width="0.09615384615384616em" height="0.2506314117852655em" x="0.8653846153846154vw" y="2.7493685882147343em" fill="#aaa"/><rect width="0.09615384615384616em" height="0.18051796228387013em" x="0.9615384615384616vw" y="2.81948203771613em" fill="#aaa"/><rect width="0.09615384615384616em" height="0.2246673398728899em" x="1.0576923076923077vw" y="2.77533266012711em" fill="#aaa"/><rect width="0.09615384615384616em" height="0.33449433486304814em" x="1.153846153846154vw" y="2.6655056651369518em" fill="#aaa"/><rect width="0.09615384615384616em" height="0.26826863464164075em" x="1.25vw" y="2.7317313653583595em" fill="#aaa"/><rect width="0.09615384615384616em" height="0.4372703272254112em" x="1.3461538461538463vw" y="2.562729672774589em" fill="#aaa"/><rect width="0.09615384615384616em" height="0.3974787659799081em" x="1.4423076923076923vw" y="2.602521234020092em" fill="#aaa"/><rect width="0.09615384615384616em" height="0.23346306656112725em" x="1.5384615384615385vw" y="2.7665369334388727em" fill="#aaa"/><rect width="0.09615384615384616em" height="0.36662847765434814em" x="1.6346153846153848vw" y="2.633371522345652em" fill="#aaa"/><rect width="0.09615384615384616em" height="0.501271865043118em" x="1.7307692307692308vw" y="2.498728134956882em" fill="#aaa"/><rect width="0.09615384615384616em" height="0.23258488599023802em" x="1.826923076923077vw" y="2.767415114009762em" fill="#aaa"/><rect width="0.09615384615384616em" height="0.11765374017850683em" x="1.9230769230769231vw" y="2.8823462598214933em" fill="#aaa"/><rect width="0.09615384615384616em" height="0.2171498223028287em" x="2.019230769230769vw" y="2.7828501776971715em" fill="#aaa"/><rect width="0.09615384615384616em" height="0.5800092489787503em" x="2.1153846153846154vw" y="2.41999075102125em" fill="#aaa"/><rect width="0.09615384615384616em" height="0.16462005670794827em" x="2.2115384615384617vw" y="2.8353799432920517em" fill="#aaa"/><rect width="0.09615384615384616em" height="0.3163552919722651em" x="2.307692307692308vw" y="2.683644708027735em" fill="#aaa"/><rect width="0.09615384615384616em" height="0.19280605626572192em" x="2.403846153846154vw" y="2.807193943734278em" fill="#aaa"/><rect width="0.09615384615384616em" height="0.21142757038458704em" x="2.5vw" y="2.788572429615413em" fill="#aaa"/><rect width="0.09615384615384616em" height="0.15868380381711825em" x="2.5961538461538463vw" y="2.841316196182882em" fill="#aaa"/><rect width="0.09615384615384616em" height="0.23126180440531524em" x="2.6923076923076925vw" y="2.768738195594685em" fill="#aaa"/><rect width="0.09615384615384616em" height="0.25378103074207137em" x="2.7884615384615388vw" y="2.746218969257929em" fill="#aaa"/><rect width="0.09615384615384616em" height="0.19400927088584846em" x="2.8846153846153846vw" y="2.8059907291141517em" fill="#aaa"/><rect width="0.09615384615384616em" height="0.29124497151751577em" x="2.980769230769231vw" y="2.7087550284824844em" fill="#aaa"/><rect width="0.09615384615384616em" height="0.1305470230709213em" x="3.076923076923077vw" y="2.869452976929079em" fill="#aaa"/><rect width="0.09615384615384616em" height="0.24879412711449134em" x="3.1730769230769234vw" y="2.7512058728855084em" fill="#aaa"/><rect width="0.09615384615384616em" height="0.2711544106202702em" x="3.2692307692307696vw" y="2.7288455893797297em" fill="#aaa"/><rect width="0.09615384615384616em" height="0.43105182200891506em" x="3.3653846153846154vw" y="2.5689481779910848em" fill="#aaa"/><rect width="0.09615384615384616em" height="0.252307448219796em" x="3.4615384615384617vw" y="2.747692551780204em" fill="#aaa"/><rect width="0.09615384615384616em" height="0.41691291635560546em" x="3.557692307692308vw" y="2.5830870836443944em" fill="#aaa"/><rect width="0.09615384615384616em" height="0.39410419551531123em" x="3.653846153846154vw" y="2.605895804484689em" fill="#aaa"/><rect width="0.09615384615384616em" height="0.2925941557930183em" x="3.75vw" y="2.7074058442069817em" fill="#aaa"/><rect width="0.09615384615384616em" height="0.5209521283718777em" x="3.8461538461538463vw" y="2.479047871628122em" fill="#aaa"/><rect width="0.09615384615384616em" height="0.24968381527187694em" x="3.9423076923076925vw" y="2.7503161847281232em" fill="#aaa"/><rect width="0.09615384615384616em" height="0.4423065040944901em" x="4.038461538461538vw" y="2.55769349590551em" fill="#aaa"/><rect width="0.09615384615384616em" height="0.25928917667232393em" x="4.134615384615385vw" y="2.7407108233276762em" fill="#aaa"/><rect width="0.09615384615384616em" height="0.4552314515592212em" x="4.230769230769231vw" y="2.544768548440779em" fill="#aaa"/><rect width="0.09615384615384616em" height="0.22706746847764703em" x="4.3269230769230775vw" y="2.772932531522353em" fill="#aaa"/><rect width="0.09615384615384616em" height="0.19595933805900212em" x="4.423076923076923vw" y="2.8040406619409977em" fill="#aaa"/><rect width="0.09615384615384616em" height="0.6250268583269979em" x="4.519230769230769vw" y="2.374973141673002em" fill="#aaa"/><rect width="0.09615384615384616em" height="0.6622726865373678em" x="4.615384615384616vw" y="2.337727313462632em" fill="#aaa"/><rect width="0.09615384615384616em" height="0.4864954684930298em" x="4.711538461538462vw" y="2.51350453150697em" fill="#aaa"/><rect width="0.09615384615384616em" height="2.262745242131478em" x="4.807692307692308vw" y="0.7372547578685218em" fill="#aaa"/><rect width="0.09615384615384616em" height="1.0302642642262998em" x="4.903846153846154vw" y="1.9697357357737002em" fill="#aaa"/><rect width="0.09615384615384616em" height="0.9740935993294952em" x="5vw" y="2.0259064006705048em" fill="#aaa"/><rect width="0.09615384615384616em" height="1.3316059388888033em" x="5.096153846153847vw" y="1.6683940611111967em" fill="#aaa"/><rect width="0.09615384615384616em" height="0.8311490209096566em" x="5.1923076923076925vw" y="2.1688509790903434em" fill="#aaa"/><rect width="0.09615384615384616em" height="0.8222333840095049em" x="5.288461538461538vw" y="2.177766615990495em" fill="#aaa"/><rect width="0.09615384615384616em" height="1.5178453517001644em" x="5.384615384615385vw" y="1.4821546482998356em" fill="#aaa"/><rect width="0.09615384615384616em" height="1.4838750943182792em" x="5.480769230769231vw" y="1.5161249056817208em" fill="#aaa"/><rect width="0.09615384615384616em" height="0.6030591265213381em" x="5.5769230769230775vw" y="2.3969408734786617em" fill="#aaa"/><rect width="0.09615384615384616em" height="1.3046349718886459em" x="5.673076923076923vw" y="1.6953650281113541em" fill="#aaa"/><rect width="0.09615384615384616em" height="0.6435363630697905em" x="5.769230769230769vw" y="2.3564636369302097em" fill="#aaa"/><rect width="0.09615384615384616em" height="0.9272311561833744em" x="5.865384615384616vw" y="2.0727688438166254em" fill="#aaa"/><rect width="0.09615384615384616em" height="0.36541604866650673em" x="5.961538461538462vw" y="2.6345839513334934em" fill="#aaa"/><rect width="0.09615384615384616em" height="0.8636705913919145em" x="6.057692307692308vw" y="2.1363294086080855em" fill="#aaa"/><rect width="0.09615384615384616em" height="0.8142062919290329em" x="6.153846153846154vw" y="2.185793708070967em" fill="#aaa"/><rect width="0.09615384615384616em" height="2.2510419581554526em" x="6.25vw" y="0.7489580418445474em" fill="#aaa"/><rect width="0.09615384615384616em" height="3em" x="6.346153846153847vw" y="0em" fill="#aaa"/><rect width="0.09615384615384616em" height="1.1345191303148472em" x="6.4423076923076925vw" y="1.8654808696851528em" fill="#aaa"/><rect width="0.09615384615384616em" height="1.8591922677676131em" x="6.538461538461539vw" y="1.1408077322323869em" fill="#aaa"/><rect width="0.09615384615384616em" height="1.010777130530558em" x="6.634615384615385vw" y="1.989222869469442em" fill="#aaa"/><rect width="0.09615384615384616em" height="1.905726145724432em" x="6.730769230769231vw" y="1.094273854275568em" fill="#aaa"/><rect width="0.09615384615384616em" height="1.195280726140609em" x="6.8269230769230775vw" y="1.804719273859391em" fill="#aaa"/><rect width="0.09615384615384616em" height="1.9716036070391731em" x="6.923076923076923vw" y="1.0283963929608269em" fill="#aaa"/><rect width="0.09615384615384616em" height="0.9671056657145878em" x="7.01923076923077vw" y="2.0328943342854124em" fill="#aaa"/><rect width="0.09615384615384616em" height="0.9659586302507108em" x="7.115384615384616vw" y="2.034041369749289em" fill="#aaa"/><rect width="0.09615384615384616em" height="0.7618750914530183em" x="7.211538461538462vw" y="2.2381249085469817em" fill="#aaa"/><rect width="0.09615384615384616em" height="1.102550438258227em" x="7.307692307692308vw" y="1.897449561741773em" fill="#aaa"/><rect width="0.09615384615384616em" height="0.8670935717391581em" x="7.403846153846154vw" y="2.132906428260842em" fill="#aaa"/><rect width="0.09615384615384616em" height="1.1903239883483772em" x="7.5vw" y="1.8096760116516228em" fill="#aaa"/><rect width="0.09615384615384616em" height="1.4991473152503567em" x="7.596153846153847vw" y="1.5008526847496433em" fill="#aaa"/><rect width="0.09615384615384616em" height="1.6612755161849866em" x="7.6923076923076925vw" y="1.3387244838150134em" fill="#aaa"/><rect width="0.09615384615384616em" height="0.8265320902665971em" x="7.788461538461539vw" y="2.173467909733403em" fill="#aaa"/><rect width="0.09615384615384616em" height="1.5805644299659343em" x="7.884615384615385vw" y="1.4194355700340657em" fill="#aaa"/><rect width="0.09615384615384616em" height="1.6198727689028547em" x="7.980769230769231vw" y="1.3801272310971453em" fill="#aaa"/><rect width="0.09615384615384616em" height="1.1062917917234796em" x="8.076923076923077vw" y="1.8937082082765204em" fill="#aaa"/><rect width="0.09615384615384616em" height="1.5161406126180617em" x="8.173076923076923vw" y="1.4838593873819383em" fill="#aaa"/><rect width="0.09615384615384616em" height="1.3572100433319902em" x="8.26923076923077vw" y="1.6427899566680098em" fill="#aaa"/><rect width="0.09615384615384616em" height="1.437226969821403em" x="8.365384615384615vw" y="1.562773030178597em" fill="#aaa"/><rect width="0.09615384615384616em" height="1.6726331541928774em" x="8.461538461538462vw" y="1.3273668458071226em" fill="#aaa"/><rect width="0.09615384615384616em" height="2.073508440136318em" x="8.557692307692308vw" y="0.926491559863682em" fill="#aaa"/><rect width="0.09615384615384616em" height="1.1723157128486836em" x="8.653846153846155vw" y="1.8276842871513164em" fill="#aaa"/><rect width="0.09615384615384616em" height="1.407376861332731em" x="8.75vw" y="1.592623138667269em" fill="#aaa"/><rect width="0.09615384615384616em" height="1.6270522097679248em" x="8.846153846153847vw" y="1.3729477902320752em" fill="#aaa"/><rect width="0.09615384615384616em" height="1.5991052867663074em" x="8.942307692307693vw" y="1.4008947132336926em" fill="#aaa"/><rect width="0.09615384615384616em" height="1.8376803960219072em" x="9.038461538461538vw" y="1.1623196039780928em" fill="#aaa"/><rect width="0.09615384615384616em" height="1.7602084419502932em" x="9.134615384615385vw" y="1.2397915580497068em" fill="#aaa"/><rect width="0.09615384615384616em" height="1.7758467155230742em" x="9.230769230769232vw" y="1.2241532844769258em" fill="#aaa"/><rect width="0.09615384615384616em" height="1.7925421289751875em" x="9.326923076923077vw" y="1.2074578710248125em" fill="#aaa"/><rect width="0.09615384615384616em" height="2.0697655136060247em" x="9.423076923076923vw" y="0.9302344863939753em" fill="#aaa"/><rect width="0.09615384615384616em" height="1.399358297831379em" x="9.51923076923077vw" y="1.600641702168621em" fill="#aaa"/><rect width="0.09615384615384616em" height="1.6990701502692631em" x="9.615384615384617vw" y="1.3009298497307369em" fill="#aaa"/><rect width="0.09615384615384616em" height="2.053657110032643em" x="9.711538461538462vw" y="0.9463428899673572em" fill="#aaa"/><rect width="0.09615384615384616em" height="1.1877951567500984em" x="9.807692307692308vw" y="1.8122048432499016em" fill="#aaa"/><rect width="0.09615384615384616em" height="1.4941137339650319em" x="9.903846153846155vw" y="1.5058862660349681em" fill="#aaa"/></svg>