<?xml version="1.0" standalone="no"?>
<svg xmlns:xlink="http://www.w3.org/1999/xlink" xmlns="http://www.w3.org/2000/svg" class="topic-graph" style="width: 100em; height: 30em; text-align: center;"><rect width="0.9615384615384616em" height="3.6471369615336844em" x="0em" y="26.352863038466317em" fill="#aaa"/><rect width="0.9615384615384616em" height="3.1516695443891845em" x="0.9615384615384616em" y="26.848330455610814em" fill="#aaa"/><rect width="0.9615384615384616em" height="4.60708365600134em" x="1.9230769230769231em" y="25.39291634399866em" fill="#aaa"/><rect width="0.9615384615384616em" height="6.659479771346813em" x="2.8846153846153846em" y="23.340520228653187em" fill="#aaa"/><rect width="0.9615384615384616em" height="5.928831181565764em" x="3.8461538461538463em" y="24.071168818434238em" fill="#aaa"/><rect width="0.9615384615384616em" height="4.989911846739375em" x="4.8076923076923075em" y="25.010088153260625em" fill="#aaa"/><rect width="0.9615384615384616em" height="3.7280420007967496em" x="5.769230769230769em" y="26.271957999203252em" fill="#aaa"/><rect width="0.9615384615384616em" height="3.649251948922156em" x="6.730769230769231em" y="26.350748051077844em" fill="#aaa"/><rect width="0.9615384615384616em" height="6.081577734260361em" x="7.6923076923076925em" y="23.91842226573964em" fill="#aaa"/><rect width="0.9615384615384616em" height="3.318608329164837em" x="8.653846153846153em" y="26.68139167083516em" fill="#aaa"/><rect width="0.9615384615384616em" height="1.068780840312681em" x="9.615384615384615em" y="28.93121915968732em" fill="#aaa"/><rect width="0.9615384615384616em" height="1.478260113677667em" x="10.576923076923077em" y="28.521739886322333em" fill="#aaa"/><rect width="0.9615384615384616em" height="4.724877141328391em" x="11.538461538461538em" y="25.275122858671608em" fill="#aaa"/><rect width="0.9615384615384616em" height="7.354961875430888em" x="12.5em" y="22.645038124569112em" fill="#aaa"/><rect width="0.9615384615384616em" height="7.9783113243530215em" x="13.461538461538462em" y="22.021688675646978em" fill="#aaa"/><rect width="0.9615384615384616em" height="7.835990002168067em" x="14.423076923076923em" y="22.164009997831933em" fill="#aaa"/><rect width="0.9615384615384616em" height="6.598464809604993em" x="15.384615384615385em" y="23.40153519039501em" fill="#aaa"/><rect width="0.9615384615384616em" height="8.173832733073562em" x="16.346153846153847em" y="21.82616726692644em" fill="#aaa"/><rect width="0.9615384615384616em" height="8.076655099301668em" x="17.307692307692307em" y="21.923344900698332em" fill="#aaa"/><rect width="0.9615384615384616em" height="13.980666885553006em" x="18.26923076923077em" y="16.019333114446994em" fill="#aaa"/><rect width="0.9615384615384616em" height="8.720753424166908em" x="19.23076923076923em" y="21.279246575833092em" fill="#aaa"/><rect width="0.9615384615384616em" height="11.075194659218978em" x="20.192307692307693em" y="18.92480534078102em" fill="#aaa"/><rect width="0.9615384615384616em" height="7.702246234829436em" x="21.153846153846153em" y="22.297753765170565em" fill="#aaa"/><rect width="0.9615384615384616em" height="8.967492902034778em" x="22.115384615384617em" y="21.032507097965222em" fill="#aaa"/><rect width="0.9615384615384616em" height="15.200612144657535em" x="23.076923076923077em" y="14.799387855342465em" fill="#aaa"/><rect width="0.9615384615384616em" height="14.325708897032298em" x="24.03846153846154em" y="15.674291102967702em" fill="#aaa"/><rect width="0.9615384615384616em" height="16.592059168504843em" x="25em" y="13.407940831495157em" fill="#aaa"/><rect width="0.9615384615384616em" height="12.103687514559578em" x="25.961538461538463em" y="17.896312485440422em" fill="#aaa"/><rect width="0.9615384615384616em" height="30em" x="26.923076923076923em" y="0em" fill="#aaa"/><rect width="0.9615384615384616em" height="20.772001649598838em" x="27.884615384615387em" y="9.227998350401162em" fill="#aaa"/><rect width="0.9615384615384616em" height="15.508812078439904em" x="28.846153846153847em" y="14.491187921560096em" fill="#aaa"/><rect width="0.9615384615384616em" height="9.805134407988245em" x="29.80769230769231em" y="20.194865592011755em" fill="#aaa"/><rect width="0.9615384615384616em" height="11.06272369485477em" x="30.76923076923077em" y="18.937276305145232em" fill="#aaa"/><rect width="0.9615384615384616em" height="12.590242971922601em" x="31.73076923076923em" y="17.4097570280774em" fill="#aaa"/><rect width="0.9615384615384616em" height="11.765382830550116em" x="32.69230769230769em" y="18.234617169449884em" fill="#aaa"/><rect width="0.9615384615384616em" height="9.180392970846391em" x="33.65384615384615em" y="20.81960702915361em" fill="#aaa"/><rect width="0.9615384615384616em" height="10.880017404940771em" x="34.61538461538461em" y="19.119982595059227em" fill="#aaa"/><rect width="0.9615384615384616em" height="10.680350097308601em" x="35.57692307692308em" y="19.3196499026914em" fill="#aaa"/><rect width="0.9615384615384616em" height="12.015930272331234em" x="36.53846153846154em" y="17.984069727668768em" fill="#aaa"/><rect width="0.9615384615384616em" height="20.801980313252336em" x="37.5em" y="9.198019686747664em" fill="#aaa"/><rect width="0.9615384615384616em" height="12.468740596516282em" x="38.46153846153846em" y="17.531259403483716em" fill="#aaa"/><rect width="0.9615384615384616em" height="10.337154020066011em" x="39.42307692307693em" y="19.66284597993399em" fill="#aaa"/><rect width="0.9615384615384616em" height="8.86661913562217em" x="40.38461538461539em" y="21.13338086437783em" fill="#aaa"/><rect width="0.9615384615384616em" height="13.882645135975977em" x="41.34615384615385em" y="16.117354864024023em" fill="#aaa"/><rect width="0.9615384615384616em" height="12.772420848924636em" x="42.30769230769231em" y="17.227579151075364em" fill="#aaa"/><rect width="0.9615384615384616em" height="17.06725370256554em" x="43.269230769230774em" y="12.93274629743446em" fill="#aaa"/><rect width="0.9615384615384616em" height="9.691343717317865em" x="44.23076923076923em" y="20.308656282682136em" fill="#aaa"/><rect width="0.9615384615384616em" height="10.634514351135605em" x="45.19230769230769em" y="19.365485648864393em" fill="#aaa"/><rect width="0.9615384615384616em" height="11.090546495916879em" x="46.15384615384615em" y="18.90945350408312em" fill="#aaa"/><rect width="0.9615384615384616em" height="10.7630445474339em" x="47.11538461538461em" y="19.2369554525661em" fill="#aaa"/><rect width="0.9615384615384616em" height="12.619512867200006em" x="48.07692307692308em" y="17.380487132799992em" fill="#aaa"/><rect width="0.9615384615384616em" height="10.010650214624194em" x="49.03846153846154em" y="19.989349785375808em" fill="#aaa"/><rect width="0.9615384615384616em" height="8.617454151630401em" x="50em" y="21.3825458483696em" fill="#aaa"/><rect width="0.9615384615384616em" height="9.157911658440659em" x="50.96153846153846em" y="20.84208834155934em" fill="#aaa"/><rect width="0.9615384615384616em" height="10.952417647216981em" x="51.92307692307693em" y="19.047582352783017em" fill="#aaa"/><rect width="0.9615384615384616em" height="8.862859175316105em" x="52.88461538461539em" y="21.137140824683897em" fill="#aaa"/><rect width="0.9615384615384616em" height="7.8281164522215025em" x="53.84615384615385em" y="22.1718835477785em" fill="#aaa"/><rect width="0.9615384615384616em" height="10.00841933849071em" x="54.80769230769231em" y="19.99158066150929em" fill="#aaa"/><rect width="0.9615384615384616em" height="9.526270906299573em" x="55.769230769230774em" y="20.473729093700427em" fill="#aaa"/><rect width="0.9615384615384616em" height="16.459406999264747em" x="56.73076923076923em" y="13.540593000735253em" fill="#aaa"/><rect width="0.9615384615384616em" height="6.800742192454016em" x="57.69230769230769em" y="23.199257807545983em" fill="#aaa"/><rect width="0.9615384615384616em" height="14.374593843378372em" x="58.65384615384615em" y="15.625406156621628em" fill="#aaa"/><rect width="0.9615384615384616em" height="9.707820001240261em" x="59.61538461538462em" y="20.29217999875974em" fill="#aaa"/><rect width="0.9615384615384616em" height="11.976889788810713em" x="60.57692307692308em" y="18.023110211189287em" fill="#aaa"/><rect width="0.9615384615384616em" height="16.55777414279066em" x="61.53846153846154em" y="13.44222585720934em" fill="#aaa"/><rect width="0.9615384615384616em" height="12.889142556399072em" x="62.5em" y="17.110857443600928em" fill="#aaa"/><rect width="0.9615384615384616em" height="12.215500373395084em" x="63.46153846153846em" y="17.784499626604916em" fill="#aaa"/><rect width="0.9615384615384616em" height="9.041575157646044em" x="64.42307692307692em" y="20.958424842353956em" fill="#aaa"/><rect width="0.9615384615384616em" height="7.477714787658901em" x="65.38461538461539em" y="22.5222852123411em" fill="#aaa"/><rect width="0.9615384615384616em" height="6.525813067405464em" x="66.34615384615385em" y="23.474186932594534em" fill="#aaa"/><rect width="0.9615384615384616em" height="9.304547787432796em" x="67.3076923076923em" y="20.695452212567204em" fill="#aaa"/><rect width="0.9615384615384616em" height="7.0085190593696405em" x="68.26923076923077em" y="22.99148094063036em" fill="#aaa"/><rect width="0.9615384615384616em" height="8.397863851194654em" x="69.23076923076923em" y="21.602136148805346em" fill="#aaa"/><rect width="0.9615384615384616em" height="8.4652946606302em" x="70.1923076923077em" y="21.5347053393698em" fill="#aaa"/><rect width="0.9615384615384616em" height="6.232590927689776em" x="71.15384615384616em" y="23.767409072310222em" fill="#aaa"/><rect width="0.9615384615384616em" height="5.642029018216774em" x="72.11538461538461em" y="24.357970981783225em" fill="#aaa"/><rect width="0.9615384615384616em" height="5.1759248624450604em" x="73.07692307692308em" y="24.82407513755494em" fill="#aaa"/><rect width="0.9615384615384616em" height="5.597896226124296em" x="74.03846153846155em" y="24.402103773875705em" fill="#aaa"/><rect width="0.9615384615384616em" height="5.391197815052839em" x="75em" y="24.608802184947162em" fill="#aaa"/><rect width="0.9615384615384616em" height="4.590961504935956em" x="75.96153846153847em" y="25.409038495064046em" fill="#aaa"/><rect width="0.9615384615384616em" height="4.7186881829198475em" x="76.92307692307692em" y="25.28131181708015em" fill="#aaa"/><rect width="0.9615384615384616em" height="6.638775930660884em" x="77.88461538461539em" y="23.361224069339116em" fill="#aaa"/><rect width="0.9615384615384616em" height="5.070934814760604em" x="78.84615384615385em" y="24.929065185239395em" fill="#aaa"/><rect width="0.9615384615384616em" height="4.425798646996291em" x="79.8076923076923em" y="25.57420135300371em" fill="#aaa"/><rect width="0.9615384615384616em" height="5.507754650423597em" x="80.76923076923077em" y="24.492245349576404em" fill="#aaa"/><rect width="0.9615384615384616em" height="4.788461145794789em" x="81.73076923076923em" y="25.21153885420521em" fill="#aaa"/><rect width="0.9615384615384616em" height="4.212858882496659em" x="82.6923076923077em" y="25.787141117503342em" fill="#aaa"/><rect width="0.9615384615384616em" height="7.181709224134399em" x="83.65384615384616em" y="22.818290775865602em" fill="#aaa"/><rect width="0.9615384615384616em" height="5.11059563974974em" x="84.61538461538461em" y="24.88940436025026em" fill="#aaa"/><rect width="0.9615384615384616em" height="5.26147008611296em" x="85.57692307692308em" y="24.73852991388704em" fill="#aaa"/><rect width="0.9615384615384616em" height="4.874988228689974em" x="86.53846153846155em" y="25.125011771310028em" fill="#aaa"/><rect width="0.9615384615384616em" height="5.051874205915911em" x="87.5em" y="24.94812579408409em" fill="#aaa"/><rect width="0.9615384615384616em" height="5.348778546755184em" x="88.46153846153847em" y="24.651221453244816em" fill="#aaa"/><rect width="0.9615384615384616em" height="4.959186549906746em" x="89.42307692307692em" y="25.040813450093253em" fill="#aaa"/><rect width="0.9615384615384616em" height="5.632356874898677em" x="90.38461538461539em" y="24.367643125101324em" fill="#aaa"/><rect width="0.9615384615384616em" height="3.9968414330163666em" x="91.34615384615385em" y="26.003158566983632em" fill="#aaa"/><rect width="0.9615384615384616em" height="4.630522006390503em" x="92.3076923076923em" y="25.369477993609497em" fill="#aaa"/><rect width="0.9615384615384616em" height="4.7533808765194365em" x="93.26923076923077em" y="25.246619123480563em" fill="#aaa"/><rect width="0.9615384615384616em" height="4.711003920595857em" x="94.23076923076923em" y="25.288996079404143em" fill="#aaa"/><rect width="0.9615384615384616em" height="4.255482674580132em" x="95.1923076923077em" y="25.744517325419867em" fill="#aaa"/><rect width="0.9615384615384616em" height="3.6602429099456093em" x="96.15384615384616em" y="26.33975709005439em" fill="#aaa"/><rect width="0.9615384615384616em" height="4.957211923884647em" x="97.11538461538461em" y="25.042788076115354em" fill="#aaa"/><rect width="0.9615384615384616em" height="5.279235287247962em" x="98.07692307692308em" y="24.720764712752036em" fill="#aaa"/><rect width="0.9615384615384616em" height="4.957947994792198em" x="99.03846153846155em" y="25.0420520052078em" fill="#aaa"/></svg>