<?xml version="1.0" standalone="no"?>
<svg xmlns:xlink="http://www.w3.org/1999/xlink" xmlns="http://www.w3.org/2000/svg" class="topic-graph" style="width: 100em; height: 30em; text-align: center;"><rect width="0.9615384615384616em" height="30em" x="0em" y="0em" fill="#aaa"/><rect width="0.9615384615384616em" height="4.230045903286858em" x="0.9615384615384616em" y="25.769954096713143em" fill="#aaa"/><rect width="0.9615384615384616em" height="12.54875807811581em" x="1.9230769230769231em" y="17.45124192188419em" fill="#aaa"/><rect width="0.9615384615384616em" height="22.459608964785037em" x="2.8846153846153846em" y="7.540391035214963em" fill="#aaa"/><rect width="0.9615384615384616em" height="9.414813055762734em" x="3.8461538461538463em" y="20.585186944237265em" fill="#aaa"/><rect width="0.9615384615384616em" height="10.462970464764302em" x="4.8076923076923075em" y="19.537029535235696em" fill="#aaa"/><rect width="0.9615384615384616em" height="7.832118779991819em" x="5.769230769230769em" y="22.16788122000818em" fill="#aaa"/><rect width="0.9615384615384616em" height="7.843759300042317em" x="6.730769230769231em" y="22.156240699957685em" fill="#aaa"/><rect width="0.9615384615384616em" height="12.585394043422513em" x="7.6923076923076925em" y="17.41460595657749em" fill="#aaa"/><rect width="0.9615384615384616em" height="12.355999286984094em" x="8.653846153846153em" y="17.644000713015906em" fill="#aaa"/><rect width="0.9615384615384616em" height="10.285115251491273em" x="9.615384615384615em" y="19.714884748508727em" fill="#aaa"/><rect width="0.9615384615384616em" height="5.783824813369647em" x="10.576923076923077em" y="24.216175186630352em" fill="#aaa"/><rect width="0.9615384615384616em" height="5.536400185668467em" x="11.538461538461538em" y="24.463599814331534em" fill="#aaa"/><rect width="0.9615384615384616em" height="8.129108920859986em" x="12.5em" y="21.870891079140016em" fill="#aaa"/><rect width="0.9615384615384616em" height="11.778358211932584em" x="13.461538461538462em" y="18.221641788067416em" fill="#aaa"/><rect width="0.9615384615384616em" height="4.0158408290966em" x="14.423076923076923em" y="25.9841591709034em" fill="#aaa"/><rect width="0.9615384615384616em" height="8.703050093447025em" x="15.384615384615385em" y="21.296949906552975em" fill="#aaa"/><rect width="0.9615384615384616em" height="8.425671893379564em" x="16.346153846153847em" y="21.574328106620435em" fill="#aaa"/><rect width="0.9615384615384616em" height="8.434810535664118em" x="17.307692307692307em" y="21.56518946433588em" fill="#aaa"/><rect width="0.9615384615384616em" height="12.43186215572791em" x="18.26923076923077em" y="17.56813784427209em" fill="#aaa"/><rect width="0.9615384615384616em" height="18.517361316225596em" x="19.23076923076923em" y="11.482638683774404em" fill="#aaa"/><rect width="0.9615384615384616em" height="20.45858525135485em" x="20.192307692307693em" y="9.541414748645149em" fill="#aaa"/><rect width="0.9615384615384616em" height="15.224051396121604em" x="21.153846153846153em" y="14.775948603878396em" fill="#aaa"/><rect width="0.9615384615384616em" height="12.517203527190091em" x="22.115384615384617em" y="17.48279647280991em" fill="#aaa"/><rect width="0.9615384615384616em" height="17.75866543638987em" x="23.076923076923077em" y="12.241334563610131em" fill="#aaa"/><rect width="0.9615384615384616em" height="15.362477915304744em" x="24.03846153846154em" y="14.637522084695256em" fill="#aaa"/><rect width="0.9615384615384616em" height="12.072573205727261em" x="25em" y="17.92742679427274em" fill="#aaa"/><rect width="0.9615384615384616em" height="10.040820821286278em" x="25.961538461538463em" y="19.959179178713722em" fill="#aaa"/><rect width="0.9615384615384616em" height="9.170567666549466em" x="26.923076923076923em" y="20.829432333450534em" fill="#aaa"/><rect width="0.9615384615384616em" height="11.666465546154983em" x="27.884615384615387em" y="18.33353445384502em" fill="#aaa"/><rect width="0.9615384615384616em" height="9.943485995101753em" x="28.846153846153847em" y="20.056514004898247em" fill="#aaa"/><rect width="0.9615384615384616em" height="7.572099346426078em" x="29.80769230769231em" y="22.42790065357392em" fill="#aaa"/><rect width="0.9615384615384616em" height="16.213789931832267em" x="30.76923076923077em" y="13.786210068167733em" fill="#aaa"/><rect width="0.9615384615384616em" height="2.0907048182210533em" x="31.73076923076923em" y="27.909295181778948em" fill="#aaa"/><rect width="0.9615384615384616em" height="10.638648867634291em" x="32.69230769230769em" y="19.36135113236571em" fill="#aaa"/><rect width="0.9615384615384616em" height="17.953105861743374em" x="33.65384615384615em" y="12.046894138256626em" fill="#aaa"/><rect width="0.9615384615384616em" height="13.821406905713594em" x="34.61538461538461em" y="16.178593094286406em" fill="#aaa"/><rect width="0.9615384615384616em" height="11.42973660383795em" x="35.57692307692308em" y="18.570263396162048em" fill="#aaa"/><rect width="0.9615384615384616em" height="5.4242274462338305em" x="36.53846153846154em" y="24.57577255376617em" fill="#aaa"/><rect width="0.9615384615384616em" height="11.421655331896em" x="37.5em" y="18.578344668104002em" fill="#aaa"/><rect width="0.9615384615384616em" height="12.466445237381961em" x="38.46153846153846em" y="17.53355476261804em" fill="#aaa"/><rect width="0.9615384615384616em" height="7.2995670866911215em" x="39.42307692307693em" y="22.70043291330888em" fill="#aaa"/><rect width="0.9615384615384616em" height="8.318573056467603em" x="40.38461538461539em" y="21.681426943532397em" fill="#aaa"/><rect width="0.9615384615384616em" height="7.050468033240615em" x="41.34615384615385em" y="22.949531966759384em" fill="#aaa"/><rect width="0.9615384615384616em" height="6.26504142379679em" x="42.30769230769231em" y="23.734958576203212em" fill="#aaa"/><rect width="0.9615384615384616em" height="7.742256784805501em" x="43.269230769230774em" y="22.2577432151945em" fill="#aaa"/><rect width="0.9615384615384616em" height="8.079656946359021em" x="44.23076923076923em" y="21.920343053640977em" fill="#aaa"/><rect width="0.9615384615384616em" height="13.41846117447557em" x="45.19230769230769em" y="16.58153882552443em" fill="#aaa"/><rect width="0.9615384615384616em" height="4.047715804268828em" x="46.15384615384615em" y="25.952284195731174em" fill="#aaa"/><rect width="0.9615384615384616em" height="8.723314962830093em" x="47.11538461538461em" y="21.276685037169905em" fill="#aaa"/><rect width="0.9615384615384616em" height="2.897397976542095em" x="48.07692307692308em" y="27.102602023457905em" fill="#aaa"/><rect width="0.9615384615384616em" height="6.719168183191767em" x="49.03846153846154em" y="23.28083181680823em" fill="#aaa"/><rect width="0.9615384615384616em" height="8.814696616623037em" x="50em" y="21.18530338337696em" fill="#aaa"/><rect width="0.9615384615384616em" height="4.177765635289089em" x="50.96153846153846em" y="25.822234364710912em" fill="#aaa"/><rect width="0.9615384615384616em" height="9.879008145428473em" x="51.92307692307693em" y="20.12099185457153em" fill="#aaa"/><rect width="0.9615384615384616em" height="6.9284069064113485em" x="52.88461538461539em" y="23.071593093588653em" fill="#aaa"/><rect width="0.9615384615384616em" height="5.370992874877392em" x="53.84615384615385em" y="24.62900712512261em" fill="#aaa"/><rect width="0.9615384615384616em" height="6.656540483522019em" x="54.80769230769231em" y="23.34345951647798em" fill="#aaa"/><rect width="0.9615384615384616em" height="5.911272208129961em" x="55.769230769230774em" y="24.08872779187004em" fill="#aaa"/><rect width="0.9615384615384616em" height="3.3903176582219774em" x="56.73076923076923em" y="26.609682341778022em" fill="#aaa"/><rect width="0.9615384615384616em" height="5.985013620929156em" x="57.69230769230769em" y="24.014986379070844em" fill="#aaa"/><rect width="0.9615384615384616em" height="4.8175380451001875em" x="58.65384615384615em" y="25.182461954899814em" fill="#aaa"/><rect width="0.9615384615384616em" height="6.735288718439503em" x="59.61538461538462em" y="23.264711281560498em" fill="#aaa"/><rect width="0.9615384615384616em" height="4.4628470689798165em" x="60.57692307692308em" y="25.537152931020184em" fill="#aaa"/><rect width="0.9615384615384616em" height="6.421322358925174em" x="61.53846153846154em" y="23.578677641074826em" fill="#aaa"/><rect width="0.9615384615384616em" height="5.900313089392774em" x="62.5em" y="24.099686910607225em" fill="#aaa"/><rect width="0.9615384615384616em" height="2.797786115386195em" x="63.46153846153846em" y="27.202213884613805em" fill="#aaa"/><rect width="0.9615384615384616em" height="4.766826579645849em" x="64.42307692307692em" y="25.233173420354152em" fill="#aaa"/><rect width="0.9615384615384616em" height="6.137096453393993em" x="65.38461538461539em" y="23.862903546606006em" fill="#aaa"/><rect width="0.9615384615384616em" height="5.3171096007616185em" x="66.34615384615385em" y="24.68289039923838em" fill="#aaa"/><rect width="0.9615384615384616em" height="6.8484816231070855em" x="67.3076923076923em" y="23.151518376892916em" fill="#aaa"/><rect width="0.9615384615384616em" height="6.87207621807696em" x="68.26923076923077em" y="23.12792378192304em" fill="#aaa"/><rect width="0.9615384615384616em" height="5.341436578511199em" x="69.23076923076923em" y="24.6585634214888em" fill="#aaa"/><rect width="0.9615384615384616em" height="5.42003908853856em" x="70.1923076923077em" y="24.57996091146144em" fill="#aaa"/><rect width="0.9615384615384616em" height="2.5519774235586024em" x="71.15384615384616em" y="27.448022576441396em" fill="#aaa"/><rect width="0.9615384615384616em" height="7.614456176931183em" x="72.11538461538461em" y="22.385543823068815em" fill="#aaa"/><rect width="0.9615384615384616em" height="2.739864661497523em" x="73.07692307692308em" y="27.260135338502476em" fill="#aaa"/><rect width="0.9615384615384616em" height="5.3645441822715em" x="74.03846153846155em" y="24.6354558177285em" fill="#aaa"/><rect width="0.9615384615384616em" height="3.228705662693568em" x="75em" y="26.771294337306433em" fill="#aaa"/><rect width="0.9615384615384616em" height="6.073332263804207em" x="75.96153846153847em" y="23.926667736195792em" fill="#aaa"/><rect width="0.9615384615384616em" height="2.9724964997322036em" x="76.92307692307692em" y="27.027503500267798em" fill="#aaa"/><rect width="0.9615384615384616em" height="4.608551836981663em" x="77.88461538461539em" y="25.39144816301834em" fill="#aaa"/><rect width="0.9615384615384616em" height="3.414781990403447em" x="78.84615384615385em" y="26.585218009596552em" fill="#aaa"/><rect width="0.9615384615384616em" height="3.1562185257612816em" x="79.8076923076923em" y="26.843781474238718em" fill="#aaa"/><rect width="0.9615384615384616em" height="3.2372324497200444em" x="80.76923076923077em" y="26.762767550279957em" fill="#aaa"/><rect width="0.9615384615384616em" height="3.619153727710137em" x="81.73076923076923em" y="26.380846272289862em" fill="#aaa"/><rect width="0.9615384615384616em" height="3.7153570790664254em" x="82.6923076923077em" y="26.284642920933575em" fill="#aaa"/><rect width="0.9615384615384616em" height="3.4129850796035144em" x="83.65384615384616em" y="26.587014920396484em" fill="#aaa"/><rect width="0.9615384615384616em" height="2.4111519662285668em" x="84.61538461538461em" y="27.588848033771434em" fill="#aaa"/><rect width="0.9615384615384616em" height="2.557083080956283em" x="85.57692307692308em" y="27.442916919043718em" fill="#aaa"/><rect width="0.9615384615384616em" height="3.456387066598718em" x="86.53846153846155em" y="26.54361293340128em" fill="#aaa"/><rect width="0.9615384615384616em" height="3.216717043200658em" x="87.5em" y="26.78328295679934em" fill="#aaa"/><rect width="0.9615384615384616em" height="3.6732151369331207em" x="88.46153846153847em" y="26.32678486306688em" fill="#aaa"/><rect width="0.9615384615384616em" height="2.3026317332666677em" x="89.42307692307692em" y="27.69736826673333em" fill="#aaa"/><rect width="0.9615384615384616em" height="2.0302290899785866em" x="90.38461538461539em" y="27.969770910021413em" fill="#aaa"/><rect width="0.9615384615384616em" height="3.181683783058119em" x="91.34615384615385em" y="26.81831621694188em" fill="#aaa"/><rect width="0.9615384615384616em" height="3.007190777554099em" x="92.3076923076923em" y="26.9928092224459em" fill="#aaa"/><rect width="0.9615384615384616em" height="2.7453225719386647em" x="93.26923076923077em" y="27.254677428061335em" fill="#aaa"/><rect width="0.9615384615384616em" height="2.710881914447073em" x="94.23076923076923em" y="27.28911808555293em" fill="#aaa"/><rect width="0.9615384615384616em" height="2.2151470722240134em" x="95.1923076923077em" y="27.784852927775987em" fill="#aaa"/><rect width="0.9615384615384616em" height="2.630676325106222em" x="96.15384615384616em" y="27.369323674893778em" fill="#aaa"/><rect width="0.9615384615384616em" height="2.4542166414809428em" x="97.11538461538461em" y="27.545783358519056em" fill="#aaa"/><rect width="0.9615384615384616em" height="2.717588572421573em" x="98.07692307692308em" y="27.282411427578428em" fill="#aaa"/><rect width="0.9615384615384616em" height="2.9306956687129566em" x="99.03846153846155em" y="27.069304331287043em" fill="#aaa"/></svg>