<?xml version="1.0" standalone="no"?>
<svg xmlns:xlink="http://www.w3.org/1999/xlink" xmlns="http://www.w3.org/2000/svg" class="topic-graph" style="width: 10vw; height: 3em; text-align: center;"><rect width="0.09615384615384616em" height="0.6901857011720175em" x="0vw" y="2.3098142988279826em" fill="#aaa"/><rect width="0.09615384615384616em" height="1.0800945482113198em" x="0.09615384615384616vw" y="1.9199054517886802em" fill="#aaa"/><rect width="0.09615384615384616em" height="1.6982491875899046em" x="0.19230769230769232vw" y="1.3017508124100954em" fill="#aaa"/><rect width="0.09615384615384616em" height="0.43197967376876556em" x="0.2884615384615385vw" y="2.5680203262312347em" fill="#aaa"/><rect width="0.09615384615384616em" height="1.289768820520992em" x="0.38461538461538464vw" y="1.710231179479008em" fill="#aaa"/><rect width="0.09615384615384616em" height="0.8848963411107811em" x="0.4807692307692308vw" y="2.115103658889219em" fill="#aaa"/><rect width="0.09615384615384616em" height="1.7622890109519198em" x="0.576923076923077vw" y="1.2377109890480802em" fill="#aaa"/><rect width="0.09615384615384616em" height="0.35233294095451373em" x="0.6730769230769231vw" y="2.647667059045486em" fill="#aaa"/><rect width="0.09615384615384616em" height="2.1766068850847233em" x="0.7692307692307693vw" y="0.8233931149152767em" fill="#aaa"/><rect width="0.09615384615384616em" height="0.4019452540197881em" x="0.8653846153846154vw" y="2.598054745980212em" fill="#aaa"/><rect width="0.09615384615384616em" height="1.1511759782295101em" x="0.9615384615384616vw" y="1.8488240217704899em" fill="#aaa"/><rect width="0.09615384615384616em" height="0.5278001935137462em" x="1.0576923076923077vw" y="2.4721998064862536em" fill="#aaa"/><rect width="0.09615384615384616em" height="0.8158111157454206em" x="1.153846153846154vw" y="2.1841888842545796em" fill="#aaa"/><rect width="0.09615384615384616em" height="0.36225196177113783em" x="1.25vw" y="2.637748038228862em" fill="#aaa"/><rect width="0.09615384615384616em" height="0.9543311462015511em" x="1.3461538461538463vw" y="2.045668853798449em" fill="#aaa"/><rect width="0.09615384615384616em" height="1.0026124956930222em" x="1.4423076923076923vw" y="1.9973875043069778em" fill="#aaa"/><rect width="0.09615384615384616em" height="1.8793279022923548em" x="1.5384615384615385vw" y="1.1206720977076452em" fill="#aaa"/><rect width="0.09615384615384616em" height="1.8439694581297985em" x="1.6346153846153848vw" y="1.1560305418702015em" fill="#aaa"/><rect width="0.09615384615384616em" height="0.39082852162114545em" x="1.7307692307692308vw" y="2.6091714783788547em" fill="#aaa"/><rect width="0.09615384615384616em" height="1.7290496674726525em" x="1.826923076923077vw" y="1.2709503325273475em" fill="#aaa"/><rect width="0.09615384615384616em" height="1.517160966427839em" x="1.9230769230769231vw" y="1.482839033572161em" fill="#aaa"/><rect width="0.09615384615384616em" height="2.3904411835839294em" x="2.019230769230769vw" y="0.6095588164160706em" fill="#aaa"/><rect width="0.09615384615384616em" height="0.9238883585670754em" x="2.1153846153846154vw" y="2.0761116414329246em" fill="#aaa"/><rect width="0.09615384615384616em" height="0.7247021366723023em" x="2.2115384615384617vw" y="2.2752978633276975em" fill="#aaa"/><rect width="0.09615384615384616em" height="0.9965368474433247em" x="2.307692307692308vw" y="2.0034631525566753em" fill="#aaa"/><rect width="0.09615384615384616em" height="1.1851193303576242em" x="2.403846153846154vw" y="1.8148806696423758em" fill="#aaa"/><rect width="0.09615384615384616em" height="1.6356858383184416em" x="2.5vw" y="1.3643141616815584em" fill="#aaa"/><rect width="0.09615384615384616em" height="2.2644351176005424em" x="2.5961538461538463vw" y="0.7355648823994576em" fill="#aaa"/><rect width="0.09615384615384616em" height="2.161707824835066em" x="2.6923076923076925vw" y="0.8382921751649342em" fill="#aaa"/><rect width="0.09615384615384616em" height="1.9479562991555615em" x="2.7884615384615388vw" y="1.0520437008444385em" fill="#aaa"/><rect width="0.09615384615384616em" height="0.9743244965789996em" x="2.8846153846153846vw" y="2.0256755034210006em" fill="#aaa"/><rect width="0.09615384615384616em" height="2.43725272772353em" x="2.980769230769231vw" y="0.5627472722764701em" fill="#aaa"/><rect width="0.09615384615384616em" height="1.370403907775218em" x="3.076923076923077vw" y="1.629596092224782em" fill="#aaa"/><rect width="0.09615384615384616em" height="1.3458152213941816em" x="3.1730769230769234vw" y="1.6541847786058184em" fill="#aaa"/><rect width="0.09615384615384616em" height="1.1056030644975665em" x="3.2692307692307696vw" y="1.8943969355024335em" fill="#aaa"/><rect width="0.09615384615384616em" height="1.3690866725504773em" x="3.3653846153846154vw" y="1.6309133274495227em" fill="#aaa"/><rect width="0.09615384615384616em" height="0.5452971358555292em" x="3.4615384615384617vw" y="2.454702864144471em" fill="#aaa"/><rect width="0.09615384615384616em" height="0.6014067636164031em" x="3.557692307692308vw" y="2.398593236383597em" fill="#aaa"/><rect width="0.09615384615384616em" height="1.2058072493078085em" x="3.653846153846154vw" y="1.7941927506921915em" fill="#aaa"/><rect width="0.09615384615384616em" height="1.2670695949935293em" x="3.75vw" y="1.7329304050064707em" fill="#aaa"/><rect width="0.09615384615384616em" height="1.0011518344686632em" x="3.8461538461538463vw" y="1.9988481655313368em" fill="#aaa"/><rect width="0.09615384615384616em" height="1.0367837944012634em" x="3.9423076923076925vw" y="1.9632162055987366em" fill="#aaa"/><rect width="0.09615384615384616em" height="1.081878993623045em" x="4.038461538461538vw" y="1.918121006376955em" fill="#aaa"/><rect width="0.09615384615384616em" height="0.9979078369343983em" x="4.134615384615385vw" y="2.0020921630656017em" fill="#aaa"/><rect width="0.09615384615384616em" height="1.922493363742074em" x="4.230769230769231vw" y="1.077506636257926em" fill="#aaa"/><rect width="0.09615384615384616em" height="1.331813824599861em" x="4.3269230769230775vw" y="1.668186175400139em" fill="#aaa"/><rect width="0.09615384615384616em" height="1.0645358908706664em" x="4.423076923076923vw" y="1.9354641091293336em" fill="#aaa"/><rect width="0.09615384615384616em" height="0.9808076892640956em" x="4.519230769230769vw" y="2.0191923107359044em" fill="#aaa"/><rect width="0.09615384615384616em" height="1.67531751683469em" x="4.615384615384616vw" y="1.32468248316531em" fill="#aaa"/><rect width="0.09615384615384616em" height="1.3924980528452346em" x="4.711538461538462vw" y="1.6075019471547654em" fill="#aaa"/><rect width="0.09615384615384616em" height="1.434094627963155em" x="4.807692307692308vw" y="1.565905372036845em" fill="#aaa"/><rect width="0.09615384615384616em" height="2.1123925585396486em" x="4.903846153846154vw" y="0.8876074414603514em" fill="#aaa"/><rect width="0.09615384615384616em" height="0.965338899835452em" x="5vw" y="2.034661100164548em" fill="#aaa"/><rect width="0.09615384615384616em" height="1.6163858095109773em" x="5.096153846153847vw" y="1.3836141904890227em" fill="#aaa"/><rect width="0.09615384615384616em" height="0.6652522429441612em" x="5.1923076923076925vw" y="2.3347477570558386em" fill="#aaa"/><rect width="0.09615384615384616em" height="1.0162756008592975em" x="5.288461538461538vw" y="1.9837243991407025em" fill="#aaa"/><rect width="0.09615384615384616em" height="1.4284642735060449em" x="5.384615384615385vw" y="1.5715357264939551em" fill="#aaa"/><rect width="0.09615384615384616em" height="0.7961159332031371em" x="5.480769230769231vw" y="2.2038840667968627em" fill="#aaa"/><rect width="0.09615384615384616em" height="1.8175367738449606em" x="5.5769230769230775vw" y="1.1824632261550394em" fill="#aaa"/><rect width="0.09615384615384616em" height="2.2996025622560667em" x="5.673076923076923vw" y="0.7003974377439333em" fill="#aaa"/><rect width="0.09615384615384616em" height="2.3584647254466127em" x="5.769230769230769vw" y="0.6415352745533873em" fill="#aaa"/><rect width="0.09615384615384616em" height="2.0577952250783795em" x="5.865384615384616vw" y="0.9422047749216205em" fill="#aaa"/><rect width="0.09615384615384616em" height="1.1382352695131128em" x="5.961538461538462vw" y="1.8617647304868872em" fill="#aaa"/><rect width="0.09615384615384616em" height="1.5912864994437155em" x="6.057692307692308vw" y="1.4087135005562845em" fill="#aaa"/><rect width="0.09615384615384616em" height="1.8801539558307874em" x="6.153846153846154vw" y="1.1198460441692126em" fill="#aaa"/><rect width="0.09615384615384616em" height="2.267045226512911em" x="6.25vw" y="0.7329547734870889em" fill="#aaa"/><rect width="0.09615384615384616em" height="2.0513954937615493em" x="6.346153846153847vw" y="0.9486045062384507em" fill="#aaa"/><rect width="0.09615384615384616em" height="1.9249961574399759em" x="6.4423076923076925vw" y="1.0750038425600241em" fill="#aaa"/><rect width="0.09615384615384616em" height="1.7038505903036272em" x="6.538461538461539vw" y="1.2961494096963728em" fill="#aaa"/><rect width="0.09615384615384616em" height="2.97910258062512em" x="6.634615384615385vw" y="0.020897419374879878em" fill="#aaa"/><rect width="0.09615384615384616em" height="1.9776746241190908em" x="6.730769230769231vw" y="1.0223253758809092em" fill="#aaa"/><rect width="0.09615384615384616em" height="2.0489850317729696em" x="6.8269230769230775vw" y="0.9510149682270304em" fill="#aaa"/><rect width="0.09615384615384616em" height="1.3186786652963272em" x="6.923076923076923vw" y="1.6813213347036728em" fill="#aaa"/><rect width="0.09615384615384616em" height="2.499121078760707em" x="7.01923076923077vw" y="0.500878921239293em" fill="#aaa"/><rect width="0.09615384615384616em" height="3em" x="7.115384615384616vw" y="0em" fill="#aaa"/><rect width="0.09615384615384616em" height="2.1655236533009785em" x="7.211538461538462vw" y="0.8344763466990215em" fill="#aaa"/><rect width="0.09615384615384616em" height="1.2262144205318593em" x="7.307692307692308vw" y="1.7737855794681407em" fill="#aaa"/><rect width="0.09615384615384616em" height="1.5170274490918956em" x="7.403846153846154vw" y="1.4829725509081044em" fill="#aaa"/><rect width="0.09615384615384616em" height="1.619619586375501em" x="7.5vw" y="1.380380413624499em" fill="#aaa"/><rect width="0.09615384615384616em" height="1.2628849080546747em" x="7.596153846153847vw" y="1.7371150919453253em" fill="#aaa"/><rect width="0.09615384615384616em" height="1.0087885233068052em" x="7.6923076923076925vw" y="1.9912114766931948em" fill="#aaa"/><rect width="0.09615384615384616em" height="1.2789099295381803em" x="7.788461538461539vw" y="1.7210900704618197em" fill="#aaa"/><rect width="0.09615384615384616em" height="1.4093936752155825em" x="7.884615384615385vw" y="1.5906063247844175em" fill="#aaa"/><rect width="0.09615384615384616em" height="1.0414973149913864em" x="7.980769230769231vw" y="1.9585026850086136em" fill="#aaa"/><rect width="0.09615384615384616em" height="1.3354550830911682em" x="8.076923076923077vw" y="1.6645449169088318em" fill="#aaa"/><rect width="0.09615384615384616em" height="1.3695593609221497em" x="8.173076923076923vw" y="1.6304406390778503em" fill="#aaa"/><rect width="0.09615384615384616em" height="1.4558975523852804em" x="8.26923076923077vw" y="1.5441024476147196em" fill="#aaa"/><rect width="0.09615384615384616em" height="1.86582661581724em" x="8.365384615384615vw" y="1.13417338418276em" fill="#aaa"/><rect width="0.09615384615384616em" height="1.4634799911291003em" x="8.461538461538462vw" y="1.5365200088708997em" fill="#aaa"/><rect width="0.09615384615384616em" height="1.0529158318266407em" x="8.557692307692308vw" y="1.9470841681733593em" fill="#aaa"/><rect width="0.09615384615384616em" height="1.4395061231875612em" x="8.653846153846155vw" y="1.5604938768124388em" fill="#aaa"/><rect width="0.09615384615384616em" height="1.792216917791071em" x="8.75vw" y="1.207783082208929em" fill="#aaa"/><rect width="0.09615384615384616em" height="1.4633684698539426em" x="8.846153846153847vw" y="1.5366315301460574em" fill="#aaa"/><rect width="0.09615384615384616em" height="1.4713711877147158em" x="8.942307692307693vw" y="1.5286288122852842em" fill="#aaa"/><rect width="0.09615384615384616em" height="1.8331544398090267em" x="9.038461538461538vw" y="1.1668455601909733em" fill="#aaa"/><rect width="0.09615384615384616em" height="1.428873746044013em" x="9.134615384615385vw" y="1.571126253955987em" fill="#aaa"/><rect width="0.09615384615384616em" height="1.1762819874069055em" x="9.230769230769232vw" y="1.8237180125930945em" fill="#aaa"/><rect width="0.09615384615384616em" height="1.146698118837361em" x="9.326923076923077vw" y="1.853301881162639em" fill="#aaa"/><rect width="0.09615384615384616em" height="1.4778895438023274em" x="9.423076923076923vw" y="1.5221104561976726em" fill="#aaa"/><rect width="0.09615384615384616em" height="1.0458717132903397em" x="9.51923076923077vw" y="1.9541282867096603em" fill="#aaa"/><rect width="0.09615384615384616em" height="1.076440576802187em" x="9.615384615384617vw" y="1.923559423197813em" fill="#aaa"/><rect width="0.09615384615384616em" height="1.0028555340208385em" x="9.711538461538462vw" y="1.9971444659791615em" fill="#aaa"/><rect width="0.09615384615384616em" height="1.0591091599593037em" x="9.807692307692308vw" y="1.9408908400406963em" fill="#aaa"/><rect width="0.09615384615384616em" height="0.8016854519176538em" x="9.903846153846155vw" y="2.198314548082346em" fill="#aaa"/></svg>