<?xml version="1.0" standalone="no"?>
<svg xmlns:xlink="http://www.w3.org/1999/xlink" xmlns="http://www.w3.org/2000/svg" class="topic-graph" style="width: 10vw; height: 3em; text-align: center;"><rect width="0.09615384615384616em" height="0.10480094272463293em" x="0vw" y="2.895199057275367em" fill="#aaa"/><rect width="0.09615384615384616em" height="0.34362683663344284em" x="0.09615384615384616vw" y="2.656373163366557em" fill="#aaa"/><rect width="0.09615384615384616em" height="0.32226095632343454em" x="0.19230769230769232vw" y="2.6777390436765653em" fill="#aaa"/><rect width="0.09615384615384616em" height="0.40680278865350594em" x="0.2884615384615385vw" y="2.593197211346494em" fill="#aaa"/><rect width="0.09615384615384616em" height="0.503382386194334em" x="0.38461538461538464vw" y="2.496617613805666em" fill="#aaa"/><rect width="0.09615384615384616em" height="0.45273377575839435em" x="0.4807692307692308vw" y="2.5472662242416058em" fill="#aaa"/><rect width="0.09615384615384616em" height="0.48532741978197147em" x="0.576923076923077vw" y="2.5146725802180283em" fill="#aaa"/><rect width="0.09615384615384616em" height="0.42957461098217764em" x="0.6730769230769231vw" y="2.5704253890178226em" fill="#aaa"/><rect width="0.09615384615384616em" height="0.817236896917815em" x="0.7692307692307693vw" y="2.182763103082185em" fill="#aaa"/><rect width="0.09615384615384616em" height="1.3390317859945537em" x="0.8653846153846154vw" y="1.6609682140054463em" fill="#aaa"/><rect width="0.09615384615384616em" height="0.4694923293788981em" x="0.9615384615384616vw" y="2.530507670621102em" fill="#aaa"/><rect width="0.09615384615384616em" height="1.0971792878169138em" x="1.0576923076923077vw" y="1.9028207121830862em" fill="#aaa"/><rect width="0.09615384615384616em" height="0.6786110822774097em" x="1.153846153846154vw" y="2.32138891772259em" fill="#aaa"/><rect width="0.09615384615384616em" height="0.46394367616756493em" x="1.25vw" y="2.536056323832435em" fill="#aaa"/><rect width="0.09615384615384616em" height="0.8960670752623736em" x="1.3461538461538463vw" y="2.1039329247376264em" fill="#aaa"/><rect width="0.09615384615384616em" height="0.6817370216634455em" x="1.4423076923076923vw" y="2.3182629783365547em" fill="#aaa"/><rect width="0.09615384615384616em" height="1.0777406777890586em" x="1.5384615384615385vw" y="1.9222593222109414em" fill="#aaa"/><rect width="0.09615384615384616em" height="0.8654987665196476em" x="1.6346153846153848vw" y="2.1345012334803526em" fill="#aaa"/><rect width="0.09615384615384616em" height="1.5579662346993095em" x="1.7307692307692308vw" y="1.4420337653006905em" fill="#aaa"/><rect width="0.09615384615384616em" height="0.8068203436038536em" x="1.826923076923077vw" y="2.1931796563961465em" fill="#aaa"/><rect width="0.09615384615384616em" height="0.5190486850481484em" x="1.9230769230769231vw" y="2.4809513149518514em" fill="#aaa"/><rect width="0.09615384615384616em" height="0.5618562599480317em" x="2.019230769230769vw" y="2.4381437400519683em" fill="#aaa"/><rect width="0.09615384615384616em" height="0.4248408336925939em" x="2.1153846153846154vw" y="2.5751591663074063em" fill="#aaa"/><rect width="0.09615384615384616em" height="1.4652408570258952em" x="2.2115384615384617vw" y="1.5347591429741048em" fill="#aaa"/><rect width="0.09615384615384616em" height="1.3017854336017134em" x="2.307692307692308vw" y="1.6982145663982866em" fill="#aaa"/><rect width="0.09615384615384616em" height="0.8448709707651818em" x="2.403846153846154vw" y="2.155129029234818em" fill="#aaa"/><rect width="0.09615384615384616em" height="1.3104605807035354em" x="2.5vw" y="1.6895394192964646em" fill="#aaa"/><rect width="0.09615384615384616em" height="0.5047640391008336em" x="2.5961538461538463vw" y="2.4952359608991665em" fill="#aaa"/><rect width="0.09615384615384616em" height="0.6130461108783968em" x="2.6923076923076925vw" y="2.386953889121603em" fill="#aaa"/><rect width="0.09615384615384616em" height="0.7516294640021466em" x="2.7884615384615388vw" y="2.2483705359978536em" fill="#aaa"/><rect width="0.09615384615384616em" height="0.8663897381416481em" x="2.8846153846153846vw" y="2.133610261858352em" fill="#aaa"/><rect width="0.09615384615384616em" height="0.8215248750988913em" x="2.980769230769231vw" y="2.1784751249011087em" fill="#aaa"/><rect width="0.09615384615384616em" height="0.5842311292466804em" x="3.076923076923077vw" y="2.4157688707533196em" fill="#aaa"/><rect width="0.09615384615384616em" height="0.6878556464478732em" x="3.1730769230769234vw" y="2.3121443535521267em" fill="#aaa"/><rect width="0.09615384615384616em" height="0.7680995166165491em" x="3.2692307692307696vw" y="2.231900483383451em" fill="#aaa"/><rect width="0.09615384615384616em" height="0.5871374225979695em" x="3.3653846153846154vw" y="2.4128625774020307em" fill="#aaa"/><rect width="0.09615384615384616em" height="0.9186062652887075em" x="3.4615384615384617vw" y="2.0813937347112925em" fill="#aaa"/><rect width="0.09615384615384616em" height="0.9338009739554514em" x="3.557692307692308vw" y="2.066199026044549em" fill="#aaa"/><rect width="0.09615384615384616em" height="0.8581657753126343em" x="3.653846153846154vw" y="2.141834224687366em" fill="#aaa"/><rect width="0.09615384615384616em" height="0.531226866856578em" x="3.75vw" y="2.468773133143422em" fill="#aaa"/><rect width="0.09615384615384616em" height="1.089545809177868em" x="3.8461538461538463vw" y="1.910454190822132em" fill="#aaa"/><rect width="0.09615384615384616em" height="0.9844660702130104em" x="3.9423076923076925vw" y="2.0155339297869896em" fill="#aaa"/><rect width="0.09615384615384616em" height="1.9831468191665849em" x="4.038461538461538vw" y="1.0168531808334151em" fill="#aaa"/><rect width="0.09615384615384616em" height="1.4405480194478288em" x="4.134615384615385vw" y="1.5594519805521712em" fill="#aaa"/><rect width="0.09615384615384616em" height="1.9869976085049423em" x="4.230769230769231vw" y="1.0130023914950577em" fill="#aaa"/><rect width="0.09615384615384616em" height="1.5250211231932471em" x="4.3269230769230775vw" y="1.4749788768067529em" fill="#aaa"/><rect width="0.09615384615384616em" height="1.0377245811423563em" x="4.423076923076923vw" y="1.9622754188576437em" fill="#aaa"/><rect width="0.09615384615384616em" height="0.958069501220054em" x="4.519230769230769vw" y="2.041930498779946em" fill="#aaa"/><rect width="0.09615384615384616em" height="0.6847992742715624em" x="4.615384615384616vw" y="2.3152007257284377em" fill="#aaa"/><rect width="0.09615384615384616em" height="0.8559572718632638em" x="4.711538461538462vw" y="2.1440427281367365em" fill="#aaa"/><rect width="0.09615384615384616em" height="1.29699788444001em" x="4.807692307692308vw" y="1.70300211555999em" fill="#aaa"/><rect width="0.09615384615384616em" height="1.3988634722061832em" x="4.903846153846154vw" y="1.6011365277938168em" fill="#aaa"/><rect width="0.09615384615384616em" height="1.3869741079239828em" x="5vw" y="1.6130258920760172em" fill="#aaa"/><rect width="0.09615384615384616em" height="1.3927203152378582em" x="5.096153846153847vw" y="1.6072796847621418em" fill="#aaa"/><rect width="0.09615384615384616em" height="2.1141842866843494em" x="5.1923076923076925vw" y="0.8858157133156506em" fill="#aaa"/><rect width="0.09615384615384616em" height="2.5002364735388065em" x="5.288461538461538vw" y="0.4997635264611935em" fill="#aaa"/><rect width="0.09615384615384616em" height="2.0143737056765967em" x="5.384615384615385vw" y="0.9856262943234033em" fill="#aaa"/><rect width="0.09615384615384616em" height="3em" x="5.480769230769231vw" y="0em" fill="#aaa"/><rect width="0.09615384615384616em" height="1.4968075720492047em" x="5.5769230769230775vw" y="1.5031924279507953em" fill="#aaa"/><rect width="0.09615384615384616em" height="0.975103454025783em" x="5.673076923076923vw" y="2.024896545974217em" fill="#aaa"/><rect width="0.09615384615384616em" height="1.9396639290046234em" x="5.769230769230769vw" y="1.0603360709953766em" fill="#aaa"/><rect width="0.09615384615384616em" height="0.6218827808218862em" x="5.865384615384616vw" y="2.378117219178114em" fill="#aaa"/><rect width="0.09615384615384616em" height="1.3853480673663903em" x="5.961538461538462vw" y="1.6146519326336097em" fill="#aaa"/><rect width="0.09615384615384616em" height="1.6201931181494778em" x="6.057692307692308vw" y="1.3798068818505222em" fill="#aaa"/><rect width="0.09615384615384616em" height="1.8459966209107899em" x="6.153846153846154vw" y="1.1540033790892101em" fill="#aaa"/><rect width="0.09615384615384616em" height="0.9627338866106725em" x="6.25vw" y="2.0372661133893275em" fill="#aaa"/><rect width="0.09615384615384616em" height="1.7948494351629605em" x="6.346153846153847vw" y="1.2051505648370395em" fill="#aaa"/><rect width="0.09615384615384616em" height="0.9897176498073033em" x="6.4423076923076925vw" y="2.0102823501926967em" fill="#aaa"/><rect width="0.09615384615384616em" height="1.161174737354874em" x="6.538461538461539vw" y="1.838825262645126em" fill="#aaa"/><rect width="0.09615384615384616em" height="0.7677225178814946em" x="6.634615384615385vw" y="2.2322774821185054em" fill="#aaa"/><rect width="0.09615384615384616em" height="1.026321936190163em" x="6.730769230769231vw" y="1.973678063809837em" fill="#aaa"/><rect width="0.09615384615384616em" height="1.534682911393439em" x="6.8269230769230775vw" y="1.465317088606561em" fill="#aaa"/><rect width="0.09615384615384616em" height="1.1837238493249473em" x="6.923076923076923vw" y="1.8162761506750527em" fill="#aaa"/><rect width="0.09615384615384616em" height="1.0955130365694434em" x="7.01923076923077vw" y="1.9044869634305566em" fill="#aaa"/><rect width="0.09615384615384616em" height="1.8196900154415543em" x="7.115384615384616vw" y="1.1803099845584457em" fill="#aaa"/><rect width="0.09615384615384616em" height="1.1741345741318856em" x="7.211538461538462vw" y="1.8258654258681144em" fill="#aaa"/><rect width="0.09615384615384616em" height="0.7833151333586237em" x="7.307692307692308vw" y="2.2166848666413763em" fill="#aaa"/><rect width="0.09615384615384616em" height="0.7445020931143453em" x="7.403846153846154vw" y="2.2554979068856547em" fill="#aaa"/><rect width="0.09615384615384616em" height="1.1751081408123485em" x="7.5vw" y="1.8248918591876515em" fill="#aaa"/><rect width="0.09615384615384616em" height="1.0167051104900628em" x="7.596153846153847vw" y="1.9832948895099372em" fill="#aaa"/><rect width="0.09615384615384616em" height="1.5337155271686633em" x="7.6923076923076925vw" y="1.4662844728313367em" fill="#aaa"/><rect width="0.09615384615384616em" height="1.2686722551596046em" x="7.788461538461539vw" y="1.7313277448403954em" fill="#aaa"/><rect width="0.09615384615384616em" height="1.2093752109285782em" x="7.884615384615385vw" y="1.7906247890714218em" fill="#aaa"/><rect width="0.09615384615384616em" height="1.3585233715448082em" x="7.980769230769231vw" y="1.6414766284551918em" fill="#aaa"/><rect width="0.09615384615384616em" height="1.5411126950514369em" x="8.076923076923077vw" y="1.4588873049485631em" fill="#aaa"/><rect width="0.09615384615384616em" height="1.2146356956498137em" x="8.173076923076923vw" y="1.7853643043501863em" fill="#aaa"/><rect width="0.09615384615384616em" height="1.1213402092876494em" x="8.26923076923077vw" y="1.8786597907123506em" fill="#aaa"/><rect width="0.09615384615384616em" height="1.5080587318109395em" x="8.365384615384615vw" y="1.4919412681890605em" fill="#aaa"/><rect width="0.09615384615384616em" height="1.3496740198265014em" x="8.461538461538462vw" y="1.6503259801734986em" fill="#aaa"/><rect width="0.09615384615384616em" height="1.1856984925630802em" x="8.557692307692308vw" y="1.8143015074369198em" fill="#aaa"/><rect width="0.09615384615384616em" height="1.6016747514291718em" x="8.653846153846155vw" y="1.3983252485708282em" fill="#aaa"/><rect width="0.09615384615384616em" height="1.7188326142984458em" x="8.75vw" y="1.2811673857015542em" fill="#aaa"/><rect width="0.09615384615384616em" height="2.2686799453450197em" x="8.846153846153847vw" y="0.7313200546549803em" fill="#aaa"/><rect width="0.09615384615384616em" height="1.2983235040437993em" x="8.942307692307693vw" y="1.7016764959562007em" fill="#aaa"/><rect width="0.09615384615384616em" height="1.7283620424617405em" x="9.038461538461538vw" y="1.2716379575382595em" fill="#aaa"/><rect width="0.09615384615384616em" height="1.2738942333693464em" x="9.134615384615385vw" y="1.7261057666306536em" fill="#aaa"/><rect width="0.09615384615384616em" height="1.3286873006086877em" x="9.230769230769232vw" y="1.6713126993913123em" fill="#aaa"/><rect width="0.09615384615384616em" height="1.1543391916373826em" x="9.326923076923077vw" y="1.8456608083626174em" fill="#aaa"/><rect width="0.09615384615384616em" height="2.0061822475388524em" x="9.423076923076923vw" y="0.9938177524611476em" fill="#aaa"/><rect width="0.09615384615384616em" height="2.035328429573354em" x="9.51923076923077vw" y="0.964671570426646em" fill="#aaa"/><rect width="0.09615384615384616em" height="1.694431637774939em" x="9.615384615384617vw" y="1.305568362225061em" fill="#aaa"/><rect width="0.09615384615384616em" height="1.4810580351725537em" x="9.711538461538462vw" y="1.5189419648274463em" fill="#aaa"/><rect width="0.09615384615384616em" height="1.7150577073341182em" x="9.807692307692308vw" y="1.2849422926658818em" fill="#aaa"/><rect width="0.09615384615384616em" height="1.6346469384971845em" x="9.903846153846155vw" y="1.3653530615028155em" fill="#aaa"/></svg>