<?xml version="1.0" standalone="no"?>
<svg xmlns:xlink="http://www.w3.org/1999/xlink" xmlns="http://www.w3.org/2000/svg" class="topic-graph" style="width: 100em; height: 30em; text-align: center;"><rect width="0.9615384615384616em" height="6.788808946122284em" x="0em" y="23.211191053877716em" fill="#aaa"/><rect width="0.9615384615384616em" height="10.106289584851709em" x="0.9615384615384616em" y="19.89371041514829em" fill="#aaa"/><rect width="0.9615384615384616em" height="4.9843580745910625em" x="1.9230769230769231em" y="25.015641925408936em" fill="#aaa"/><rect width="0.9615384615384616em" height="10.392746697685055em" x="2.8846153846153846em" y="19.607253302314945em" fill="#aaa"/><rect width="0.9615384615384616em" height="12.188720236377376em" x="3.8461538461538463em" y="17.811279763622622em" fill="#aaa"/><rect width="0.9615384615384616em" height="4.8004101857173405em" x="4.8076923076923075em" y="25.19958981428266em" fill="#aaa"/><rect width="0.9615384615384616em" height="3.9862745138794193em" x="5.769230769230769em" y="26.01372548612058em" fill="#aaa"/><rect width="0.9615384615384616em" height="0.6970348408332899em" x="6.730769230769231em" y="29.30296515916671em" fill="#aaa"/><rect width="0.9615384615384616em" height="7.30884825474005em" x="7.6923076923076925em" y="22.69115174525995em" fill="#aaa"/><rect width="0.9615384615384616em" height="3.0908447728690005em" x="8.653846153846153em" y="26.909155227131em" fill="#aaa"/><rect width="0.9615384615384616em" height="0.738913840034461em" x="9.615384615384615em" y="29.26108615996554em" fill="#aaa"/><rect width="0.9615384615384616em" height="9.728410220810794em" x="10.576923076923077em" y="20.271589779189206em" fill="#aaa"/><rect width="0.9615384615384616em" height="5.821238367343818em" x="11.538461538461538em" y="24.178761632656183em" fill="#aaa"/><rect width="0.9615384615384616em" height="4.382394534991704em" x="12.5em" y="25.617605465008296em" fill="#aaa"/><rect width="0.9615384615384616em" height="9.64322234780473em" x="13.461538461538462em" y="20.35677765219527em" fill="#aaa"/><rect width="0.9615384615384616em" height="8.45796459799061em" x="14.423076923076923em" y="21.54203540200939em" fill="#aaa"/><rect width="0.9615384615384616em" height="3.75047309895162em" x="15.384615384615385em" y="26.24952690104838em" fill="#aaa"/><rect width="0.9615384615384616em" height="2.4634965375341102em" x="16.346153846153847em" y="27.53650346246589em" fill="#aaa"/><rect width="0.9615384615384616em" height="3.58606042231326em" x="17.307692307692307em" y="26.41393957768674em" fill="#aaa"/><rect width="0.9615384615384616em" height="11.702449352268763em" x="18.26923076923077em" y="18.297550647731235em" fill="#aaa"/><rect width="0.9615384615384616em" height="13.507367989904484em" x="19.23076923076923em" y="16.492632010095516em" fill="#aaa"/><rect width="0.9615384615384616em" height="5.950990817987633em" x="20.192307692307693em" y="24.049009182012366em" fill="#aaa"/><rect width="0.9615384615384616em" height="13.093920021978303em" x="21.153846153846153em" y="16.906079978021697em" fill="#aaa"/><rect width="0.9615384615384616em" height="5.658350654411932em" x="22.115384615384617em" y="24.341649345588067em" fill="#aaa"/><rect width="0.9615384615384616em" height="15.806514675361175em" x="23.076923076923077em" y="14.193485324638825em" fill="#aaa"/><rect width="0.9615384615384616em" height="30em" x="24.03846153846154em" y="0em" fill="#aaa"/><rect width="0.9615384615384616em" height="20.59687804659362em" x="25em" y="9.40312195340638em" fill="#aaa"/><rect width="0.9615384615384616em" height="13.009730703202413em" x="25.961538461538463em" y="16.990269296797585em" fill="#aaa"/><rect width="0.9615384615384616em" height="11.474122483700636em" x="26.923076923076923em" y="18.525877516299364em" fill="#aaa"/><rect width="0.9615384615384616em" height="20.78259470792616em" x="27.884615384615387em" y="9.217405292073838em" fill="#aaa"/><rect width="0.9615384615384616em" height="14.007907602318898em" x="28.846153846153847em" y="15.992092397681102em" fill="#aaa"/><rect width="0.9615384615384616em" height="10.245462043767068em" x="29.80769230769231em" y="19.75453795623293em" fill="#aaa"/><rect width="0.9615384615384616em" height="7.573202855638702em" x="30.76923076923077em" y="22.4267971443613em" fill="#aaa"/><rect width="0.9615384615384616em" height="10.33732451148498em" x="31.73076923076923em" y="19.66267548851502em" fill="#aaa"/><rect width="0.9615384615384616em" height="7.004347588666403em" x="32.69230769230769em" y="22.995652411333598em" fill="#aaa"/><rect width="0.9615384615384616em" height="3.926326158195933em" x="33.65384615384615em" y="26.073673841804066em" fill="#aaa"/><rect width="0.9615384615384616em" height="8.535607124909212em" x="34.61538461538461em" y="21.464392875090788em" fill="#aaa"/><rect width="0.9615384615384616em" height="7.851159739762111em" x="35.57692307692308em" y="22.14884026023789em" fill="#aaa"/><rect width="0.9615384615384616em" height="5.278469239775259em" x="36.53846153846154em" y="24.72153076022474em" fill="#aaa"/><rect width="0.9615384615384616em" height="6.570276540712838em" x="37.5em" y="23.42972345928716em" fill="#aaa"/><rect width="0.9615384615384616em" height="9.086408215810165em" x="38.46153846153846em" y="20.913591784189833em" fill="#aaa"/><rect width="0.9615384615384616em" height="8.740608091144823em" x="39.42307692307693em" y="21.25939190885518em" fill="#aaa"/><rect width="0.9615384615384616em" height="4.244784083369774em" x="40.38461538461539em" y="25.755215916630227em" fill="#aaa"/><rect width="0.9615384615384616em" height="7.376974608997032em" x="41.34615384615385em" y="22.62302539100297em" fill="#aaa"/><rect width="0.9615384615384616em" height="10.08326848185881em" x="42.30769230769231em" y="19.91673151814119em" fill="#aaa"/><rect width="0.9615384615384616em" height="6.321345094661538em" x="43.269230769230774em" y="23.678654905338462em" fill="#aaa"/><rect width="0.9615384615384616em" height="4.4863458508680125em" x="44.23076923076923em" y="25.513654149131987em" fill="#aaa"/><rect width="0.9615384615384616em" height="5.967080319468341em" x="45.19230769230769em" y="24.03291968053166em" fill="#aaa"/><rect width="0.9615384615384616em" height="2.2963093003691224em" x="46.15384615384615em" y="27.703690699630876em" fill="#aaa"/><rect width="0.9615384615384616em" height="7.419004719140485em" x="47.11538461538461em" y="22.580995280859515em" fill="#aaa"/><rect width="0.9615384615384616em" height="11.143863622838255em" x="48.07692307692308em" y="18.856136377161747em" fill="#aaa"/><rect width="0.9615384615384616em" height="8.769105101165957em" x="49.03846153846154em" y="21.230894898834045em" fill="#aaa"/><rect width="0.9615384615384616em" height="4.480229206112954em" x="50em" y="25.519770793887048em" fill="#aaa"/><rect width="0.9615384615384616em" height="4.948009219816212em" x="50.96153846153846em" y="25.051990780183786em" fill="#aaa"/><rect width="0.9615384615384616em" height="4.418491631848086em" x="51.92307692307693em" y="25.581508368151916em" fill="#aaa"/><rect width="0.9615384615384616em" height="5.11770340723085em" x="52.88461538461539em" y="24.88229659276915em" fill="#aaa"/><rect width="0.9615384615384616em" height="11.15654633081397em" x="53.84615384615385em" y="18.84345366918603em" fill="#aaa"/><rect width="0.9615384615384616em" height="6.096332149850671em" x="54.80769230769231em" y="23.90366785014933em" fill="#aaa"/><rect width="0.9615384615384616em" height="7.015807180820733em" x="55.769230769230774em" y="22.984192819179267em" fill="#aaa"/><rect width="0.9615384615384616em" height="5.283932005641641em" x="56.73076923076923em" y="24.716067994358358em" fill="#aaa"/><rect width="0.9615384615384616em" height="11.6972902316855em" x="57.69230769230769em" y="18.3027097683145em" fill="#aaa"/><rect width="0.9615384615384616em" height="7.963423398441629em" x="58.65384615384615em" y="22.036576601558373em" fill="#aaa"/><rect width="0.9615384615384616em" height="5.344711329169899em" x="59.61538461538462em" y="24.655288670830103em" fill="#aaa"/><rect width="0.9615384615384616em" height="8.523587599007664em" x="60.57692307692308em" y="21.476412400992338em" fill="#aaa"/><rect width="0.9615384615384616em" height="8.035963286303312em" x="61.53846153846154em" y="21.964036713696686em" fill="#aaa"/><rect width="0.9615384615384616em" height="8.98236076189447em" x="62.5em" y="21.01763923810553em" fill="#aaa"/><rect width="0.9615384615384616em" height="4.7968290716129145em" x="63.46153846153846em" y="25.203170928387085em" fill="#aaa"/><rect width="0.9615384615384616em" height="6.253390684744469em" x="64.42307692307692em" y="23.746609315255533em" fill="#aaa"/><rect width="0.9615384615384616em" height="5.736802063305366em" x="65.38461538461539em" y="24.263197936694635em" fill="#aaa"/><rect width="0.9615384615384616em" height="5.365014059390448em" x="66.34615384615385em" y="24.634985940609553em" fill="#aaa"/><rect width="0.9615384615384616em" height="4.31347119408581em" x="67.3076923076923em" y="25.68652880591419em" fill="#aaa"/><rect width="0.9615384615384616em" height="4.585441721681em" x="68.26923076923077em" y="25.414558278319em" fill="#aaa"/><rect width="0.9615384615384616em" height="3.318939344579009em" x="69.23076923076923em" y="26.681060655420993em" fill="#aaa"/><rect width="0.9615384615384616em" height="4.921928456300742em" x="70.1923076923077em" y="25.07807154369926em" fill="#aaa"/><rect width="0.9615384615384616em" height="3.1516396192022453em" x="71.15384615384616em" y="26.848360380797754em" fill="#aaa"/><rect width="0.9615384615384616em" height="5.882969714094298em" x="72.11538461538461em" y="24.117030285905702em" fill="#aaa"/><rect width="0.9615384615384616em" height="5.199138298335517em" x="73.07692307692308em" y="24.800861701664484em" fill="#aaa"/><rect width="0.9615384615384616em" height="5.0172941467166705em" x="74.03846153846155em" y="24.982705853283328em" fill="#aaa"/><rect width="0.9615384615384616em" height="4.982438717723316em" x="75em" y="25.017561282276684em" fill="#aaa"/><rect width="0.9615384615384616em" height="3.862228607173425em" x="75.96153846153847em" y="26.137771392826576em" fill="#aaa"/><rect width="0.9615384615384616em" height="5.475596429918625em" x="76.92307692307692em" y="24.524403570081375em" fill="#aaa"/><rect width="0.9615384615384616em" height="5.903542600976285em" x="77.88461538461539em" y="24.096457399023716em" fill="#aaa"/><rect width="0.9615384615384616em" height="5.584959051627198em" x="78.84615384615385em" y="24.415040948372802em" fill="#aaa"/><rect width="0.9615384615384616em" height="5.562220866329971em" x="79.8076923076923em" y="24.437779133670027em" fill="#aaa"/><rect width="0.9615384615384616em" height="7.145255699092614em" x="80.76923076923077em" y="22.854744300907385em" fill="#aaa"/><rect width="0.9615384615384616em" height="6.956240684418644em" x="81.73076923076923em" y="23.043759315581354em" fill="#aaa"/><rect width="0.9615384615384616em" height="8.474382131573144em" x="82.6923076923077em" y="21.525617868426856em" fill="#aaa"/><rect width="0.9615384615384616em" height="5.743612121509893em" x="83.65384615384616em" y="24.256387878490106em" fill="#aaa"/><rect width="0.9615384615384616em" height="8.787873982453862em" x="84.61538461538461em" y="21.21212601754614em" fill="#aaa"/><rect width="0.9615384615384616em" height="11.240407282138687em" x="85.57692307692308em" y="18.759592717861313em" fill="#aaa"/><rect width="0.9615384615384616em" height="23.082601630223607em" x="86.53846153846155em" y="6.917398369776393em" fill="#aaa"/><rect width="0.9615384615384616em" height="10.38444941816681em" x="87.5em" y="19.61555058183319em" fill="#aaa"/><rect width="0.9615384615384616em" height="10.104596509649657em" x="88.46153846153847em" y="19.895403490350343em" fill="#aaa"/><rect width="0.9615384615384616em" height="8.702699369202122em" x="89.42307692307692em" y="21.297300630797878em" fill="#aaa"/><rect width="0.9615384615384616em" height="5.893750373300653em" x="90.38461538461539em" y="24.106249626699345em" fill="#aaa"/><rect width="0.9615384615384616em" height="4.802700669591628em" x="91.34615384615385em" y="25.19729933040837em" fill="#aaa"/><rect width="0.9615384615384616em" height="4.800947073888181em" x="92.3076923076923em" y="25.19905292611182em" fill="#aaa"/><rect width="0.9615384615384616em" height="4.266592394721827em" x="93.26923076923077em" y="25.733407605278174em" fill="#aaa"/><rect width="0.9615384615384616em" height="3.58649740587612em" x="94.23076923076923em" y="26.41350259412388em" fill="#aaa"/><rect width="0.9615384615384616em" height="4.234132502091336em" x="95.1923076923077em" y="25.765867497908665em" fill="#aaa"/><rect width="0.9615384615384616em" height="4.890216314890932em" x="96.15384615384616em" y="25.10978368510907em" fill="#aaa"/><rect width="0.9615384615384616em" height="3.997415246925569em" x="97.11538461538461em" y="26.00258475307443em" fill="#aaa"/><rect width="0.9615384615384616em" height="5.113354717548141em" x="98.07692307692308em" y="24.88664528245186em" fill="#aaa"/><rect width="0.9615384615384616em" height="3.8693789465247446em" x="99.03846153846155em" y="26.130621053475256em" fill="#aaa"/></svg>