<?xml version="1.0" standalone="no"?>
<svg xmlns:xlink="http://www.w3.org/1999/xlink" xmlns="http://www.w3.org/2000/svg" class="topic-graph" style="width: 100em; height: 30em; text-align: center;"><rect width="0.9615384615384616em" height="2.3920823307065437em" x="0em" y="27.607917669293457em" fill="#aaa"/><rect width="0.9615384615384616em" height="0.689025654202404em" x="0.9615384615384616em" y="29.310974345797597em" fill="#aaa"/><rect width="0.9615384615384616em" height="0.7151301354639514em" x="1.9230769230769231em" y="29.28486986453605em" fill="#aaa"/><rect width="0.9615384615384616em" height="0.3307600479030639em" x="2.8846153846153846em" y="29.669239952096937em" fill="#aaa"/><rect width="0.9615384615384616em" height="2.038241374302929em" x="3.8461538461538463em" y="27.961758625697072em" fill="#aaa"/><rect width="0.9615384615384616em" height="10.746594583806612em" x="4.8076923076923075em" y="19.253405416193388em" fill="#aaa"/><rect width="0.9615384615384616em" height="5.823545134442182em" x="5.769230769230769em" y="24.17645486555782em" fill="#aaa"/><rect width="0.9615384615384616em" height="21.824754646251915em" x="6.730769230769231em" y="8.175245353748085em" fill="#aaa"/><rect width="0.9615384615384616em" height="21.55124640846144em" x="7.6923076923076925em" y="8.448753591538559em" fill="#aaa"/><rect width="0.9615384615384616em" height="21.37600401655448em" x="8.653846153846153em" y="8.623995983445521em" fill="#aaa"/><rect width="0.9615384615384616em" height="25.4639668559685em" x="9.615384615384615em" y="4.536033144031499em" fill="#aaa"/><rect width="0.9615384615384616em" height="21.473128861403435em" x="10.576923076923077em" y="8.526871138596565em" fill="#aaa"/><rect width="0.9615384615384616em" height="17.561924912863827em" x="11.538461538461538em" y="12.438075087136173em" fill="#aaa"/><rect width="0.9615384615384616em" height="18.57331016577925em" x="12.5em" y="11.426689834220749em" fill="#aaa"/><rect width="0.9615384615384616em" height="22.606445834812938em" x="13.461538461538462em" y="7.393554165187062em" fill="#aaa"/><rect width="0.9615384615384616em" height="17.840032656163515em" x="14.423076923076923em" y="12.159967343836485em" fill="#aaa"/><rect width="0.9615384615384616em" height="19.034275933218435em" x="15.384615384615385em" y="10.965724066781565em" fill="#aaa"/><rect width="0.9615384615384616em" height="25.78179702062492em" x="16.346153846153847em" y="4.218202979375079em" fill="#aaa"/><rect width="0.9615384615384616em" height="17.088651118189997em" x="17.307692307692307em" y="12.911348881810003em" fill="#aaa"/><rect width="0.9615384615384616em" height="17.600066613376793em" x="18.26923076923077em" y="12.399933386623207em" fill="#aaa"/><rect width="0.9615384615384616em" height="5.546228269991347em" x="19.23076923076923em" y="24.453771730008654em" fill="#aaa"/><rect width="0.9615384615384616em" height="20.80152991110628em" x="20.192307692307693em" y="9.198470088893721em" fill="#aaa"/><rect width="0.9615384615384616em" height="15.040223083838903em" x="21.153846153846153em" y="14.959776916161097em" fill="#aaa"/><rect width="0.9615384615384616em" height="16.335447582467282em" x="22.115384615384617em" y="13.664552417532718em" fill="#aaa"/><rect width="0.9615384615384616em" height="15.320814789965207em" x="23.076923076923077em" y="14.679185210034793em" fill="#aaa"/><rect width="0.9615384615384616em" height="21.586541580648234em" x="24.03846153846154em" y="8.413458419351766em" fill="#aaa"/><rect width="0.9615384615384616em" height="5.120076583463025em" x="25em" y="24.879923416536975em" fill="#aaa"/><rect width="0.9615384615384616em" height="26.727560970823674em" x="25.961538461538463em" y="3.2724390291763257em" fill="#aaa"/><rect width="0.9615384615384616em" height="19.615716667790124em" x="26.923076923076923em" y="10.384283332209876em" fill="#aaa"/><rect width="0.9615384615384616em" height="30em" x="27.884615384615387em" y="0em" fill="#aaa"/><rect width="0.9615384615384616em" height="4.683749700836639em" x="28.846153846153847em" y="25.31625029916336em" fill="#aaa"/><rect width="0.9615384615384616em" height="3.5068774373346225em" x="29.80769230769231em" y="26.493122562665377em" fill="#aaa"/><rect width="0.9615384615384616em" height="24.03784193485642em" x="30.76923076923077em" y="5.96215806514358em" fill="#aaa"/><rect width="0.9615384615384616em" height="5.1024651647100585em" x="31.73076923076923em" y="24.897534835289942em" fill="#aaa"/><rect width="0.9615384615384616em" height="7.26572460841075em" x="32.69230769230769em" y="22.73427539158925em" fill="#aaa"/><rect width="0.9615384615384616em" height="16.66102628298122em" x="33.65384615384615em" y="13.338973717018781em" fill="#aaa"/><rect width="0.9615384615384616em" height="20.431354662089415em" x="34.61538461538461em" y="9.568645337910585em" fill="#aaa"/><rect width="0.9615384615384616em" height="9.200229602546553em" x="35.57692307692308em" y="20.799770397453447em" fill="#aaa"/><rect width="0.9615384615384616em" height="5.631645910772619em" x="36.53846153846154em" y="24.36835408922738em" fill="#aaa"/><rect width="0.9615384615384616em" height="8.348284839067494em" x="37.5em" y="21.651715160932504em" fill="#aaa"/><rect width="0.9615384615384616em" height="5.551424051446752em" x="38.46153846153846em" y="24.44857594855325em" fill="#aaa"/><rect width="0.9615384615384616em" height="2.9494231059607863em" x="39.42307692307693em" y="27.050576894039214em" fill="#aaa"/><rect width="0.9615384615384616em" height="7.711295724275143em" x="40.38461538461539em" y="22.288704275724857em" fill="#aaa"/><rect width="0.9615384615384616em" height="7.925781834454372em" x="41.34615384615385em" y="22.074218165545627em" fill="#aaa"/><rect width="0.9615384615384616em" height="5.035597007033614em" x="42.30769230769231em" y="24.964402992966384em" fill="#aaa"/><rect width="0.9615384615384616em" height="3.292858190219374em" x="43.269230769230774em" y="26.707141809780627em" fill="#aaa"/><rect width="0.9615384615384616em" height="2.998892295144576em" x="44.23076923076923em" y="27.001107704855425em" fill="#aaa"/><rect width="0.9615384615384616em" height="1.9226102771486933em" x="45.19230769230769em" y="28.077389722851308em" fill="#aaa"/><rect width="0.9615384615384616em" height="3.6652726697486657em" x="46.15384615384615em" y="26.334727330251333em" fill="#aaa"/><rect width="0.9615384615384616em" height="3.4494823746643393em" x="47.11538461538461em" y="26.55051762533566em" fill="#aaa"/><rect width="0.9615384615384616em" height="2.562173665866337em" x="48.07692307692308em" y="27.437826334133664em" fill="#aaa"/><rect width="0.9615384615384616em" height="7.877264566629549em" x="49.03846153846154em" y="22.12273543337045em" fill="#aaa"/><rect width="0.9615384615384616em" height="3.0018671699367703em" x="50em" y="26.99813283006323em" fill="#aaa"/><rect width="0.9615384615384616em" height="4.826528979707623em" x="50.96153846153846em" y="25.173471020292375em" fill="#aaa"/><rect width="0.9615384615384616em" height="3.1686266316519975em" x="51.92307692307693em" y="26.831373368348004em" fill="#aaa"/><rect width="0.9615384615384616em" height="3.561421870186389em" x="52.88461538461539em" y="26.43857812981361em" fill="#aaa"/><rect width="0.9615384615384616em" height="7.23019348370385em" x="53.84615384615385em" y="22.76980651629615em" fill="#aaa"/><rect width="0.9615384615384616em" height="3.075620862568875em" x="54.80769230769231em" y="26.924379137431124em" fill="#aaa"/><rect width="0.9615384615384616em" height="5.790271040436597em" x="55.769230769230774em" y="24.209728959563403em" fill="#aaa"/><rect width="0.9615384615384616em" height="12.067558535721657em" x="56.73076923076923em" y="17.93244146427834em" fill="#aaa"/><rect width="0.9615384615384616em" height="2.772435811756044em" x="57.69230769230769em" y="27.227564188243957em" fill="#aaa"/><rect width="0.9615384615384616em" height="8.130356185709683em" x="58.65384615384615em" y="21.869643814290317em" fill="#aaa"/><rect width="0.9615384615384616em" height="6.816010741507148em" x="59.61538461538462em" y="23.18398925849285em" fill="#aaa"/><rect width="0.9615384615384616em" height="4.119825968235556em" x="60.57692307692308em" y="25.880174031764444em" fill="#aaa"/><rect width="0.9615384615384616em" height="7.236692017951084em" x="61.53846153846154em" y="22.763307982048914em" fill="#aaa"/><rect width="0.9615384615384616em" height="5.614471439092284em" x="62.5em" y="24.385528560907716em" fill="#aaa"/><rect width="0.9615384615384616em" height="2.2860471058231715em" x="63.46153846153846em" y="27.713952894176828em" fill="#aaa"/><rect width="0.9615384615384616em" height="2.610007282917981em" x="64.42307692307692em" y="27.38999271708202em" fill="#aaa"/><rect width="0.9615384615384616em" height="4.242309413168074em" x="65.38461538461539em" y="25.757690586831927em" fill="#aaa"/><rect width="0.9615384615384616em" height="5.623764281690034em" x="66.34615384615385em" y="24.376235718309964em" fill="#aaa"/><rect width="0.9615384615384616em" height="3.8203881391974006em" x="67.3076923076923em" y="26.1796118608026em" fill="#aaa"/><rect width="0.9615384615384616em" height="5.96354077932278em" x="68.26923076923077em" y="24.03645922067722em" fill="#aaa"/><rect width="0.9615384615384616em" height="3.918576996433907em" x="69.23076923076923em" y="26.081423003566094em" fill="#aaa"/><rect width="0.9615384615384616em" height="3.6384726080915697em" x="70.1923076923077em" y="26.36152739190843em" fill="#aaa"/><rect width="0.9615384615384616em" height="2.9936702139031692em" x="71.15384615384616em" y="27.00632978609683em" fill="#aaa"/><rect width="0.9615384615384616em" height="1.5525263854835367em" x="72.11538461538461em" y="28.447473614516465em" fill="#aaa"/><rect width="0.9615384615384616em" height="2.6158862309169835em" x="73.07692307692308em" y="27.384113769083015em" fill="#aaa"/><rect width="0.9615384615384616em" height="1.8099143958622304em" x="74.03846153846155em" y="28.19008560413777em" fill="#aaa"/><rect width="0.9615384615384616em" height="1.6174800270845555em" x="75em" y="28.382519972915446em" fill="#aaa"/><rect width="0.9615384615384616em" height="2.3592273666498924em" x="75.96153846153847em" y="27.640772633350107em" fill="#aaa"/><rect width="0.9615384615384616em" height="1.8927450486694284em" x="76.92307692307692em" y="28.10725495133057em" fill="#aaa"/><rect width="0.9615384615384616em" height="1.5968650115234644em" x="77.88461538461539em" y="28.403134988476534em" fill="#aaa"/><rect width="0.9615384615384616em" height="1.7832675753411966em" x="78.84615384615385em" y="28.216732424658804em" fill="#aaa"/><rect width="0.9615384615384616em" height="2.4004587342874077em" x="79.8076923076923em" y="27.599541265712592em" fill="#aaa"/><rect width="0.9615384615384616em" height="2.516886319684218em" x="80.76923076923077em" y="27.483113680315782em" fill="#aaa"/><rect width="0.9615384615384616em" height="2.5756529688987677em" x="81.73076923076923em" y="27.42434703110123em" fill="#aaa"/><rect width="0.9615384615384616em" height="1.8526770657545577em" x="82.6923076923077em" y="28.14732293424544em" fill="#aaa"/><rect width="0.9615384615384616em" height="2.091892269405871em" x="83.65384615384616em" y="27.90810773059413em" fill="#aaa"/><rect width="0.9615384615384616em" height="0.8563831148397608em" x="84.61538461538461em" y="29.143616885160238em" fill="#aaa"/><rect width="0.9615384615384616em" height="1.5163479239281146em" x="85.57692307692308em" y="28.483652076071884em" fill="#aaa"/><rect width="0.9615384615384616em" height="1.336896202973071em" x="86.53846153846155em" y="28.663103797026928em" fill="#aaa"/><rect width="0.9615384615384616em" height="2.311005108663463em" x="87.5em" y="27.688994891336538em" fill="#aaa"/><rect width="0.9615384615384616em" height="2.1377212551872407em" x="88.46153846153847em" y="27.86227874481276em" fill="#aaa"/><rect width="0.9615384615384616em" height="1.463526837699157em" x="89.42307692307692em" y="28.536473162300844em" fill="#aaa"/><rect width="0.9615384615384616em" height="1.5448351070095223em" x="90.38461538461539em" y="28.455164892990478em" fill="#aaa"/><rect width="0.9615384615384616em" height="1.5916872288947412em" x="91.34615384615385em" y="28.40831277110526em" fill="#aaa"/><rect width="0.9615384615384616em" height="2.667305861390632em" x="92.3076923076923em" y="27.33269413860937em" fill="#aaa"/><rect width="0.9615384615384616em" height="1.8636889882384833em" x="93.26923076923077em" y="28.136311011761517em" fill="#aaa"/><rect width="0.9615384615384616em" height="2.4090013319305505em" x="94.23076923076923em" y="27.59099866806945em" fill="#aaa"/><rect width="0.9615384615384616em" height="1.518191723608455em" x="95.1923076923077em" y="28.481808276391543em" fill="#aaa"/><rect width="0.9615384615384616em" height="2.356515904641968em" x="96.15384615384616em" y="27.643484095358033em" fill="#aaa"/><rect width="0.9615384615384616em" height="1.9559995407020885em" x="97.11538461538461em" y="28.044000459297912em" fill="#aaa"/><rect width="0.9615384615384616em" height="3.0420915365758567em" x="98.07692307692308em" y="26.957908463424143em" fill="#aaa"/><rect width="0.9615384615384616em" height="2.0256068024355143em" x="99.03846153846155em" y="27.974393197564485em" fill="#aaa"/></svg>