<?xml version="1.0" standalone="no"?>
<svg xmlns:xlink="http://www.w3.org/1999/xlink" xmlns="http://www.w3.org/2000/svg" class="topic-graph" style="width: 100em; height: 30em; text-align: center;"><rect width="0.9615384615384616em" height="12.374339182422737em" x="0em" y="17.625660817577263em" fill="#aaa"/><rect width="0.9615384615384616em" height="4.25391614215622em" x="0.9615384615384616em" y="25.74608385784378em" fill="#aaa"/><rect width="0.9615384615384616em" height="2.178955948154355em" x="1.9230769230769231em" y="27.821044051845647em" fill="#aaa"/><rect width="0.9615384615384616em" height="1.332123197302841em" x="2.8846153846153846em" y="28.667876802697158em" fill="#aaa"/><rect width="0.9615384615384616em" height="3.309628664737879em" x="3.8461538461538463em" y="26.69037133526212em" fill="#aaa"/><rect width="0.9615384615384616em" height="2.4965907828705163em" x="4.8076923076923075em" y="27.503409217129484em" fill="#aaa"/><rect width="0.9615384615384616em" height="1.9128114075882765em" x="5.769230769230769em" y="28.087188592411724em" fill="#aaa"/><rect width="0.9615384615384616em" height="1.580472151719324em" x="6.730769230769231em" y="28.419527848280676em" fill="#aaa"/><rect width="0.9615384615384616em" height="7.397037686706626em" x="7.6923076923076925em" y="22.602962313293375em" fill="#aaa"/><rect width="0.9615384615384616em" height="25.31992533797697em" x="8.653846153846153em" y="4.680074662023031em" fill="#aaa"/><rect width="0.9615384615384616em" height="14.138528157260277em" x="9.615384615384615em" y="15.861471842739723em" fill="#aaa"/><rect width="0.9615384615384616em" height="30em" x="10.576923076923077em" y="0em" fill="#aaa"/><rect width="0.9615384615384616em" height="15.782930472099038em" x="11.538461538461538em" y="14.217069527900962em" fill="#aaa"/><rect width="0.9615384615384616em" height="15.42232856692244em" x="12.5em" y="14.57767143307756em" fill="#aaa"/><rect width="0.9615384615384616em" height="16.542327369502473em" x="13.461538461538462em" y="13.457672630497527em" fill="#aaa"/><rect width="0.9615384615384616em" height="17.609514911728983em" x="14.423076923076923em" y="12.390485088271017em" fill="#aaa"/><rect width="0.9615384615384616em" height="14.316332185324365em" x="15.384615384615385em" y="15.683667814675635em" fill="#aaa"/><rect width="0.9615384615384616em" height="15.566195277486383em" x="16.346153846153847em" y="14.433804722513617em" fill="#aaa"/><rect width="0.9615384615384616em" height="13.637474674365373em" x="17.307692307692307em" y="16.36252532563463em" fill="#aaa"/><rect width="0.9615384615384616em" height="15.342533556254537em" x="18.26923076923077em" y="14.657466443745463em" fill="#aaa"/><rect width="0.9615384615384616em" height="16.24691899130222em" x="19.23076923076923em" y="13.75308100869778em" fill="#aaa"/><rect width="0.9615384615384616em" height="15.48092713754119em" x="20.192307692307693em" y="14.51907286245881em" fill="#aaa"/><rect width="0.9615384615384616em" height="16.992690575595926em" x="21.153846153846153em" y="13.007309424404074em" fill="#aaa"/><rect width="0.9615384615384616em" height="25.73861927064533em" x="22.115384615384617em" y="4.26138072935467em" fill="#aaa"/><rect width="0.9615384615384616em" height="14.66700166158305em" x="23.076923076923077em" y="15.33299833841695em" fill="#aaa"/><rect width="0.9615384615384616em" height="13.414636539824919em" x="24.03846153846154em" y="16.58536346017508em" fill="#aaa"/><rect width="0.9615384615384616em" height="9.382553480275506em" x="25em" y="20.617446519724496em" fill="#aaa"/><rect width="0.9615384615384616em" height="13.52811929193811em" x="25.961538461538463em" y="16.47188070806189em" fill="#aaa"/><rect width="0.9615384615384616em" height="8.967148284223194em" x="26.923076923076923em" y="21.032851715776808em" fill="#aaa"/><rect width="0.9615384615384616em" height="12.378675096121158em" x="27.884615384615387em" y="17.621324903878843em" fill="#aaa"/><rect width="0.9615384615384616em" height="10.743993243650612em" x="28.846153846153847em" y="19.256006756349386em" fill="#aaa"/><rect width="0.9615384615384616em" height="8.948688262914635em" x="29.80769230769231em" y="21.051311737085364em" fill="#aaa"/><rect width="0.9615384615384616em" height="10.486123211455471em" x="30.76923076923077em" y="19.51387678854453em" fill="#aaa"/><rect width="0.9615384615384616em" height="12.27434314298273em" x="31.73076923076923em" y="17.72565685701727em" fill="#aaa"/><rect width="0.9615384615384616em" height="9.984086612127173em" x="32.69230769230769em" y="20.01591338787283em" fill="#aaa"/><rect width="0.9615384615384616em" height="15.6549039522961em" x="33.65384615384615em" y="14.3450960477039em" fill="#aaa"/><rect width="0.9615384615384616em" height="16.4470707880824em" x="34.61538461538461em" y="13.5529292119176em" fill="#aaa"/><rect width="0.9615384615384616em" height="15.31407169433587em" x="35.57692307692308em" y="14.68592830566413em" fill="#aaa"/><rect width="0.9615384615384616em" height="15.998470253079656em" x="36.53846153846154em" y="14.001529746920344em" fill="#aaa"/><rect width="0.9615384615384616em" height="17.450598111656074em" x="37.5em" y="12.549401888343926em" fill="#aaa"/><rect width="0.9615384615384616em" height="14.28459181570496em" x="38.46153846153846em" y="15.71540818429504em" fill="#aaa"/><rect width="0.9615384615384616em" height="14.182013853760443em" x="39.42307692307693em" y="15.817986146239557em" fill="#aaa"/><rect width="0.9615384615384616em" height="14.183678841501168em" x="40.38461538461539em" y="15.816321158498832em" fill="#aaa"/><rect width="0.9615384615384616em" height="11.189562453180447em" x="41.34615384615385em" y="18.810437546819553em" fill="#aaa"/><rect width="0.9615384615384616em" height="14.638584818636463em" x="42.30769230769231em" y="15.361415181363537em" fill="#aaa"/><rect width="0.9615384615384616em" height="18.019569171719848em" x="43.269230769230774em" y="11.980430828280152em" fill="#aaa"/><rect width="0.9615384615384616em" height="15.747402648364824em" x="44.23076923076923em" y="14.252597351635176em" fill="#aaa"/><rect width="0.9615384615384616em" height="17.12896114358855em" x="45.19230769230769em" y="12.871038856411449em" fill="#aaa"/><rect width="0.9615384615384616em" height="15.920951362404018em" x="46.15384615384615em" y="14.079048637595982em" fill="#aaa"/><rect width="0.9615384615384616em" height="14.194827049019093em" x="47.11538461538461em" y="15.805172950980907em" fill="#aaa"/><rect width="0.9615384615384616em" height="14.568764710605327em" x="48.07692307692308em" y="15.431235289394673em" fill="#aaa"/><rect width="0.9615384615384616em" height="14.376717910648619em" x="49.03846153846154em" y="15.623282089351381em" fill="#aaa"/><rect width="0.9615384615384616em" height="10.930606345831432em" x="50em" y="19.069393654168568em" fill="#aaa"/><rect width="0.9615384615384616em" height="13.598527008216646em" x="50.96153846153846em" y="16.401472991783354em" fill="#aaa"/><rect width="0.9615384615384616em" height="12.686427972720548em" x="51.92307692307693em" y="17.313572027279452em" fill="#aaa"/><rect width="0.9615384615384616em" height="10.911829490271947em" x="52.88461538461539em" y="19.08817050972805em" fill="#aaa"/><rect width="0.9615384615384616em" height="10.644983659399003em" x="53.84615384615385em" y="19.355016340600997em" fill="#aaa"/><rect width="0.9615384615384616em" height="12.130821486215243em" x="54.80769230769231em" y="17.869178513784757em" fill="#aaa"/><rect width="0.9615384615384616em" height="12.79311687546013em" x="55.769230769230774em" y="17.20688312453987em" fill="#aaa"/><rect width="0.9615384615384616em" height="13.526283310457327em" x="56.73076923076923em" y="16.473716689542673em" fill="#aaa"/><rect width="0.9615384615384616em" height="11.591894572917091em" x="57.69230769230769em" y="18.40810542708291em" fill="#aaa"/><rect width="0.9615384615384616em" height="8.418201159866479em" x="58.65384615384615em" y="21.581798840133523em" fill="#aaa"/><rect width="0.9615384615384616em" height="9.965187879168576em" x="59.61538461538462em" y="20.034812120831425em" fill="#aaa"/><rect width="0.9615384615384616em" height="9.254360135504905em" x="60.57692307692308em" y="20.745639864495097em" fill="#aaa"/><rect width="0.9615384615384616em" height="10.124691136926607em" x="61.53846153846154em" y="19.875308863073393em" fill="#aaa"/><rect width="0.9615384615384616em" height="7.556438425018302em" x="62.5em" y="22.443561574981697em" fill="#aaa"/><rect width="0.9615384615384616em" height="8.023431123255778em" x="63.46153846153846em" y="21.976568876744224em" fill="#aaa"/><rect width="0.9615384615384616em" height="10.7568744874992em" x="64.42307692307692em" y="19.2431255125008em" fill="#aaa"/><rect width="0.9615384615384616em" height="8.113420618167943em" x="65.38461538461539em" y="21.886579381832057em" fill="#aaa"/><rect width="0.9615384615384616em" height="7.98221896747565em" x="66.34615384615385em" y="22.01778103252435em" fill="#aaa"/><rect width="0.9615384615384616em" height="6.231133544946405em" x="67.3076923076923em" y="23.768866455053594em" fill="#aaa"/><rect width="0.9615384615384616em" height="8.18977744843774em" x="68.26923076923077em" y="21.810222551562262em" fill="#aaa"/><rect width="0.9615384615384616em" height="7.189112730519757em" x="69.23076923076923em" y="22.810887269480244em" fill="#aaa"/><rect width="0.9615384615384616em" height="7.36207003117966em" x="70.1923076923077em" y="22.63792996882034em" fill="#aaa"/><rect width="0.9615384615384616em" height="8.967741401432999em" x="71.15384615384616em" y="21.032258598567em" fill="#aaa"/><rect width="0.9615384615384616em" height="9.602604895159931em" x="72.11538461538461em" y="20.39739510484007em" fill="#aaa"/><rect width="0.9615384615384616em" height="8.352270599849946em" x="73.07692307692308em" y="21.647729400150055em" fill="#aaa"/><rect width="0.9615384615384616em" height="9.952681543973855em" x="74.03846153846155em" y="20.047318456026147em" fill="#aaa"/><rect width="0.9615384615384616em" height="9.234026972981908em" x="75em" y="20.76597302701809em" fill="#aaa"/><rect width="0.9615384615384616em" height="9.37561903040939em" x="75.96153846153847em" y="20.62438096959061em" fill="#aaa"/><rect width="0.9615384615384616em" height="9.168285821649222em" x="76.92307692307692em" y="20.83171417835078em" fill="#aaa"/><rect width="0.9615384615384616em" height="5.95570893337749em" x="77.88461538461539em" y="24.04429106662251em" fill="#aaa"/><rect width="0.9615384615384616em" height="6.297140319845298em" x="78.84615384615385em" y="23.702859680154702em" fill="#aaa"/><rect width="0.9615384615384616em" height="10.006775382436391em" x="79.8076923076923em" y="19.99322461756361em" fill="#aaa"/><rect width="0.9615384615384616em" height="7.800684019282389em" x="80.76923076923077em" y="22.19931598071761em" fill="#aaa"/><rect width="0.9615384615384616em" height="7.352850614326776em" x="81.73076923076923em" y="22.647149385673224em" fill="#aaa"/><rect width="0.9615384615384616em" height="6.78647118694585em" x="82.6923076923077em" y="23.21352881305415em" fill="#aaa"/><rect width="0.9615384615384616em" height="9.380667917148202em" x="83.65384615384616em" y="20.6193320828518em" fill="#aaa"/><rect width="0.9615384615384616em" height="8.004722339251364em" x="84.61538461538461em" y="21.995277660748634em" fill="#aaa"/><rect width="0.9615384615384616em" height="7.896228382214996em" x="85.57692307692308em" y="22.103771617785004em" fill="#aaa"/><rect width="0.9615384615384616em" height="8.179583774279408em" x="86.53846153846155em" y="21.820416225720592em" fill="#aaa"/><rect width="0.9615384615384616em" height="7.053428679219709em" x="87.5em" y="22.94657132078029em" fill="#aaa"/><rect width="0.9615384615384616em" height="6.7923817419379215em" x="88.46153846153847em" y="23.207618258062077em" fill="#aaa"/><rect width="0.9615384615384616em" height="5.663496256202415em" x="89.42307692307692em" y="24.336503743797586em" fill="#aaa"/><rect width="0.9615384615384616em" height="4.783018226375544em" x="90.38461538461539em" y="25.216981773624454em" fill="#aaa"/><rect width="0.9615384615384616em" height="6.158458784294871em" x="91.34615384615385em" y="23.841541215705128em" fill="#aaa"/><rect width="0.9615384615384616em" height="7.066010817439959em" x="92.3076923076923em" y="22.93398918256004em" fill="#aaa"/><rect width="0.9615384615384616em" height="6.66907089690052em" x="93.26923076923077em" y="23.33092910309948em" fill="#aaa"/><rect width="0.9615384615384616em" height="6.3616021107860075em" x="94.23076923076923em" y="23.63839788921399em" fill="#aaa"/><rect width="0.9615384615384616em" height="6.150828560990102em" x="95.1923076923077em" y="23.849171439009897em" fill="#aaa"/><rect width="0.9615384615384616em" height="6.801336209000216em" x="96.15384615384616em" y="23.198663790999785em" fill="#aaa"/><rect width="0.9615384615384616em" height="5.6011481311480535em" x="97.11538461538461em" y="24.398851868851946em" fill="#aaa"/><rect width="0.9615384615384616em" height="6.736443628976783em" x="98.07692307692308em" y="23.263556371023217em" fill="#aaa"/><rect width="0.9615384615384616em" height="6.724190382218973em" x="99.03846153846155em" y="23.27580961778103em" fill="#aaa"/></svg>