<?xml version="1.0" standalone="no"?>
<svg xmlns:xlink="http://www.w3.org/1999/xlink" xmlns="http://www.w3.org/2000/svg" class="topic-graph" style="width: 100em; height: 30em; text-align: center;"><rect width="0.9615384615384616em" height="5.764825303050038em" x="0em" y="24.23517469694996em" fill="#aaa"/><rect width="0.9615384615384616em" height="10.209347003366805em" x="0.9615384615384616em" y="19.790652996633195em" fill="#aaa"/><rect width="0.9615384615384616em" height="2.092099645039491em" x="1.9230769230769231em" y="27.90790035496051em" fill="#aaa"/><rect width="0.9615384615384616em" height="1.85992062594084em" x="2.8846153846153846em" y="28.14007937405916em" fill="#aaa"/><rect width="0.9615384615384616em" height="5.4096931075959525em" x="3.8461538461538463em" y="24.590306892404048em" fill="#aaa"/><rect width="0.9615384615384616em" height="9.203882494124873em" x="4.8076923076923075em" y="20.796117505875127em" fill="#aaa"/><rect width="0.9615384615384616em" height="10.087284793458863em" x="5.769230769230769em" y="19.912715206541137em" fill="#aaa"/><rect width="0.9615384615384616em" height="10.73189442481946em" x="6.730769230769231em" y="19.26810557518054em" fill="#aaa"/><rect width="0.9615384615384616em" height="4.059130036538705em" x="7.6923076923076925em" y="25.940869963461296em" fill="#aaa"/><rect width="0.9615384615384616em" height="6.48407533930428em" x="8.653846153846153em" y="23.51592466069572em" fill="#aaa"/><rect width="0.9615384615384616em" height="11.45626612358184em" x="9.615384615384615em" y="18.54373387641816em" fill="#aaa"/><rect width="0.9615384615384616em" height="8.109708246699961em" x="10.576923076923077em" y="21.89029175330004em" fill="#aaa"/><rect width="0.9615384615384616em" height="8.369443217631215em" x="11.538461538461538em" y="21.630556782368785em" fill="#aaa"/><rect width="0.9615384615384616em" height="5.730424229307157em" x="12.5em" y="24.269575770692843em" fill="#aaa"/><rect width="0.9615384615384616em" height="7.490905323607681em" x="13.461538461538462em" y="22.50909467639232em" fill="#aaa"/><rect width="0.9615384615384616em" height="5.430352665777834em" x="14.423076923076923em" y="24.569647334222168em" fill="#aaa"/><rect width="0.9615384615384616em" height="8.514411394308821em" x="15.384615384615385em" y="21.485588605691177em" fill="#aaa"/><rect width="0.9615384615384616em" height="8.042227881044882em" x="16.346153846153847em" y="21.95777211895512em" fill="#aaa"/><rect width="0.9615384615384616em" height="4.76414763362371em" x="17.307692307692307em" y="25.23585236637629em" fill="#aaa"/><rect width="0.9615384615384616em" height="5.069790453969087em" x="18.26923076923077em" y="24.930209546030913em" fill="#aaa"/><rect width="0.9615384615384616em" height="9.373049834957975em" x="19.23076923076923em" y="20.626950165042025em" fill="#aaa"/><rect width="0.9615384615384616em" height="4.899885733976141em" x="20.192307692307693em" y="25.10011426602386em" fill="#aaa"/><rect width="0.9615384615384616em" height="8.86773014149894em" x="21.153846153846153em" y="21.13226985850106em" fill="#aaa"/><rect width="0.9615384615384616em" height="7.938592083577286em" x="22.115384615384617em" y="22.061407916422713em" fill="#aaa"/><rect width="0.9615384615384616em" height="7.266093120676157em" x="23.076923076923077em" y="22.733906879323843em" fill="#aaa"/><rect width="0.9615384615384616em" height="11.968063410009448em" x="24.03846153846154em" y="18.03193658999055em" fill="#aaa"/><rect width="0.9615384615384616em" height="10.175849603142256em" x="25em" y="19.824150396857746em" fill="#aaa"/><rect width="0.9615384615384616em" height="11.800202225810597em" x="25.961538461538463em" y="18.199797774189403em" fill="#aaa"/><rect width="0.9615384615384616em" height="7.374801394011362em" x="26.923076923076923em" y="22.625198605988636em" fill="#aaa"/><rect width="0.9615384615384616em" height="8.760893129384279em" x="27.884615384615387em" y="21.23910687061572em" fill="#aaa"/><rect width="0.9615384615384616em" height="10.350713694808064em" x="28.846153846153847em" y="19.649286305191936em" fill="#aaa"/><rect width="0.9615384615384616em" height="10.00958646292834em" x="29.80769230769231em" y="19.99041353707166em" fill="#aaa"/><rect width="0.9615384615384616em" height="9.100014663390137em" x="30.76923076923077em" y="20.899985336609863em" fill="#aaa"/><rect width="0.9615384615384616em" height="16.521157477456995em" x="31.73076923076923em" y="13.478842522543005em" fill="#aaa"/><rect width="0.9615384615384616em" height="18.417263971723113em" x="32.69230769230769em" y="11.582736028276887em" fill="#aaa"/><rect width="0.9615384615384616em" height="12.100356618148812em" x="33.65384615384615em" y="17.899643381851188em" fill="#aaa"/><rect width="0.9615384615384616em" height="10.49264376526892em" x="34.61538461538461em" y="19.50735623473108em" fill="#aaa"/><rect width="0.9615384615384616em" height="24.440172747530042em" x="35.57692307692308em" y="5.559827252469958em" fill="#aaa"/><rect width="0.9615384615384616em" height="26.73125850327748em" x="36.53846153846154em" y="3.2687414967225195em" fill="#aaa"/><rect width="0.9615384615384616em" height="30em" x="37.5em" y="0em" fill="#aaa"/><rect width="0.9615384615384616em" height="19.098614131675166em" x="38.46153846153846em" y="10.901385868324834em" fill="#aaa"/><rect width="0.9615384615384616em" height="22.49571059963498em" x="39.42307692307693em" y="7.504289400365021em" fill="#aaa"/><rect width="0.9615384615384616em" height="23.402742192203746em" x="40.38461538461539em" y="6.597257807796254em" fill="#aaa"/><rect width="0.9615384615384616em" height="22.578395053983247em" x="41.34615384615385em" y="7.421604946016753em" fill="#aaa"/><rect width="0.9615384615384616em" height="20.948179349033143em" x="42.30769230769231em" y="9.051820650966857em" fill="#aaa"/><rect width="0.9615384615384616em" height="15.253747698339046em" x="43.269230769230774em" y="14.746252301660954em" fill="#aaa"/><rect width="0.9615384615384616em" height="16.855396737188887em" x="44.23076923076923em" y="13.144603262811113em" fill="#aaa"/><rect width="0.9615384615384616em" height="25.618254049517482em" x="45.19230769230769em" y="4.381745950482518em" fill="#aaa"/><rect width="0.9615384615384616em" height="20.491834529466672em" x="46.15384615384615em" y="9.508165470533328em" fill="#aaa"/><rect width="0.9615384615384616em" height="23.11315162414327em" x="47.11538461538461em" y="6.886848375856729em" fill="#aaa"/><rect width="0.9615384615384616em" height="23.933365731812888em" x="48.07692307692308em" y="6.066634268187112em" fill="#aaa"/><rect width="0.9615384615384616em" height="24.572317220636968em" x="49.03846153846154em" y="5.427682779363032em" fill="#aaa"/><rect width="0.9615384615384616em" height="20.923291674219442em" x="50em" y="9.076708325780558em" fill="#aaa"/><rect width="0.9615384615384616em" height="21.83399976114588em" x="50.96153846153846em" y="8.16600023885412em" fill="#aaa"/><rect width="0.9615384615384616em" height="22.069401153894145em" x="51.92307692307693em" y="7.930598846105855em" fill="#aaa"/><rect width="0.9615384615384616em" height="21.057774357617852em" x="52.88461538461539em" y="8.942225642382148em" fill="#aaa"/><rect width="0.9615384615384616em" height="19.56882453413643em" x="53.84615384615385em" y="10.431175465863571em" fill="#aaa"/><rect width="0.9615384615384616em" height="17.172121333414402em" x="54.80769230769231em" y="12.827878666585598em" fill="#aaa"/><rect width="0.9615384615384616em" height="17.318507614606077em" x="55.769230769230774em" y="12.681492385393923em" fill="#aaa"/><rect width="0.9615384615384616em" height="19.688252345567076em" x="56.73076923076923em" y="10.311747654432924em" fill="#aaa"/><rect width="0.9615384615384616em" height="16.07630821999753em" x="57.69230769230769em" y="13.923691780002471em" fill="#aaa"/><rect width="0.9615384615384616em" height="21.045923426500657em" x="58.65384615384615em" y="8.954076573499343em" fill="#aaa"/><rect width="0.9615384615384616em" height="17.740067178396377em" x="59.61538461538462em" y="12.259932821603623em" fill="#aaa"/><rect width="0.9615384615384616em" height="16.56832187855672em" x="60.57692307692308em" y="13.43167812144328em" fill="#aaa"/><rect width="0.9615384615384616em" height="16.235857219424965em" x="61.53846153846154em" y="13.764142780575035em" fill="#aaa"/><rect width="0.9615384615384616em" height="20.40766221016019em" x="62.5em" y="9.59233778983981em" fill="#aaa"/><rect width="0.9615384615384616em" height="17.923153761616586em" x="63.46153846153846em" y="12.076846238383414em" fill="#aaa"/><rect width="0.9615384615384616em" height="22.214609210206795em" x="64.42307692307692em" y="7.785390789793205em" fill="#aaa"/><rect width="0.9615384615384616em" height="15.364030046482446em" x="65.38461538461539em" y="14.635969953517554em" fill="#aaa"/><rect width="0.9615384615384616em" height="16.774955925023505em" x="66.34615384615385em" y="13.225044074976495em" fill="#aaa"/><rect width="0.9615384615384616em" height="15.197731286244169em" x="67.3076923076923em" y="14.802268713755831em" fill="#aaa"/><rect width="0.9615384615384616em" height="14.118986228831979em" x="68.26923076923077em" y="15.881013771168021em" fill="#aaa"/><rect width="0.9615384615384616em" height="14.098410482076817em" x="69.23076923076923em" y="15.901589517923183em" fill="#aaa"/><rect width="0.9615384615384616em" height="18.82033775014728em" x="70.1923076923077em" y="11.179662249852719em" fill="#aaa"/><rect width="0.9615384615384616em" height="13.840676675583786em" x="71.15384615384616em" y="16.159323324416214em" fill="#aaa"/><rect width="0.9615384615384616em" height="17.166799057334167em" x="72.11538461538461em" y="12.833200942665833em" fill="#aaa"/><rect width="0.9615384615384616em" height="16.119566006829505em" x="73.07692307692308em" y="13.880433993170495em" fill="#aaa"/><rect width="0.9615384615384616em" height="14.176619957606967em" x="74.03846153846155em" y="15.823380042393033em" fill="#aaa"/><rect width="0.9615384615384616em" height="17.59604830638568em" x="75em" y="12.40395169361432em" fill="#aaa"/><rect width="0.9615384615384616em" height="17.621096600485938em" x="75.96153846153847em" y="12.378903399514062em" fill="#aaa"/><rect width="0.9615384615384616em" height="16.47780813530175em" x="76.92307692307692em" y="13.52219186469825em" fill="#aaa"/><rect width="0.9615384615384616em" height="13.827628236361361em" x="77.88461538461539em" y="16.172371763638637em" fill="#aaa"/><rect width="0.9615384615384616em" height="11.17808556648421em" x="78.84615384615385em" y="18.82191443351579em" fill="#aaa"/><rect width="0.9615384615384616em" height="11.070846759100423em" x="79.8076923076923em" y="18.929153240899577em" fill="#aaa"/><rect width="0.9615384615384616em" height="11.897430122693228em" x="80.76923076923077em" y="18.10256987730677em" fill="#aaa"/><rect width="0.9615384615384616em" height="11.0334776032089em" x="81.73076923076923em" y="18.9665223967911em" fill="#aaa"/><rect width="0.9615384615384616em" height="10.67640323068757em" x="82.6923076923077em" y="19.32359676931243em" fill="#aaa"/><rect width="0.9615384615384616em" height="9.28960296566019em" x="83.65384615384616em" y="20.71039703433981em" fill="#aaa"/><rect width="0.9615384615384616em" height="11.592816782696755em" x="84.61538461538461em" y="18.407183217303245em" fill="#aaa"/><rect width="0.9615384615384616em" height="9.170365650126925em" x="85.57692307692308em" y="20.829634349873075em" fill="#aaa"/><rect width="0.9615384615384616em" height="10.81113166361524em" x="86.53846153846155em" y="19.188868336384758em" fill="#aaa"/><rect width="0.9615384615384616em" height="10.518458719072756em" x="87.5em" y="19.481541280927246em" fill="#aaa"/><rect width="0.9615384615384616em" height="10.147641726949937em" x="88.46153846153847em" y="19.852358273050065em" fill="#aaa"/><rect width="0.9615384615384616em" height="10.062659920012198em" x="89.42307692307692em" y="19.937340079987802em" fill="#aaa"/><rect width="0.9615384615384616em" height="9.980620200098102em" x="90.38461538461539em" y="20.0193797999019em" fill="#aaa"/><rect width="0.9615384615384616em" height="9.252665126673705em" x="91.34615384615385em" y="20.747334873326295em" fill="#aaa"/><rect width="0.9615384615384616em" height="8.6668614705463em" x="92.3076923076923em" y="21.3331385294537em" fill="#aaa"/><rect width="0.9615384615384616em" height="8.84668959303013em" x="93.26923076923077em" y="21.153310406969872em" fill="#aaa"/><rect width="0.9615384615384616em" height="8.943830837102178em" x="94.23076923076923em" y="21.056169162897824em" fill="#aaa"/><rect width="0.9615384615384616em" height="8.58815297314868em" x="95.1923076923077em" y="21.41184702685132em" fill="#aaa"/><rect width="0.9615384615384616em" height="7.14419960996485em" x="96.15384615384616em" y="22.85580039003515em" fill="#aaa"/><rect width="0.9615384615384616em" height="8.972810368959454em" x="97.11538461538461em" y="21.027189631040546em" fill="#aaa"/><rect width="0.9615384615384616em" height="8.60793141347872em" x="98.07692307692308em" y="21.39206858652128em" fill="#aaa"/><rect width="0.9615384615384616em" height="8.684874539409366em" x="99.03846153846155em" y="21.315125460590636em" fill="#aaa"/></svg>