<?xml version="1.0" standalone="no"?>
<svg xmlns:xlink="http://www.w3.org/1999/xlink" xmlns="http://www.w3.org/2000/svg" class="topic-graph" style="width: 100em; height: 30em; text-align: center;"><rect width="0.9615384615384616em" height="3.004443985725675em" x="0em" y="26.995556014274324em" fill="#aaa"/><rect width="0.9615384615384616em" height="2.9043277202222573em" x="0.9615384615384616em" y="27.095672279777745em" fill="#aaa"/><rect width="0.9615384615384616em" height="1.9686515535507654em" x="1.9230769230769231em" y="28.031348446449236em" fill="#aaa"/><rect width="0.9615384615384616em" height="1.6112010454731533em" x="2.8846153846153846em" y="28.388798954526848em" fill="#aaa"/><rect width="0.9615384615384616em" height="12.127489133276063em" x="3.8461538461538463em" y="17.872510866723935em" fill="#aaa"/><rect width="0.9615384615384616em" height="3.7855023808087287em" x="4.8076923076923075em" y="26.21449761919127em" fill="#aaa"/><rect width="0.9615384615384616em" height="3.217451856474135em" x="5.769230769230769em" y="26.782548143525865em" fill="#aaa"/><rect width="0.9615384615384616em" height="0.7084549821088912em" x="6.730769230769231em" y="29.29154501789111em" fill="#aaa"/><rect width="0.9615384615384616em" height="6.958935704447157em" x="7.6923076923076925em" y="23.041064295552843em" fill="#aaa"/><rect width="0.9615384615384616em" height="3.4807909691683685em" x="8.653846153846153em" y="26.519209030831632em" fill="#aaa"/><rect width="0.9615384615384616em" height="5.787946163780612em" x="9.615384615384615em" y="24.21205383621939em" fill="#aaa"/><rect width="0.9615384615384616em" height="3.4994742398583507em" x="10.576923076923077em" y="26.50052576014165em" fill="#aaa"/><rect width="0.9615384615384616em" height="2.2748953955840094em" x="11.538461538461538em" y="27.72510460441599em" fill="#aaa"/><rect width="0.9615384615384616em" height="6.7729105722854825em" x="12.5em" y="23.227089427714517em" fill="#aaa"/><rect width="0.9615384615384616em" height="4.239941517054023em" x="13.461538461538462em" y="25.76005848294598em" fill="#aaa"/><rect width="0.9615384615384616em" height="4.6121772794975575em" x="14.423076923076923em" y="25.38782272050244em" fill="#aaa"/><rect width="0.9615384615384616em" height="2.47087996281791em" x="15.384615384615385em" y="27.52912003718209em" fill="#aaa"/><rect width="0.9615384615384616em" height="2.933267310946006em" x="16.346153846153847em" y="27.066732689053993em" fill="#aaa"/><rect width="0.9615384615384616em" height="6.927472161195141em" x="17.307692307692307em" y="23.07252783880486em" fill="#aaa"/><rect width="0.9615384615384616em" height="1.6212003781771935em" x="18.26923076923077em" y="28.378799621822807em" fill="#aaa"/><rect width="0.9615384615384616em" height="7.361600955721714em" x="19.23076923076923em" y="22.638399044278287em" fill="#aaa"/><rect width="0.9615384615384616em" height="4.7939144698431795em" x="20.192307692307693em" y="25.20608553015682em" fill="#aaa"/><rect width="0.9615384615384616em" height="3.2172481536014734em" x="21.153846153846153em" y="26.782751846398526em" fill="#aaa"/><rect width="0.9615384615384616em" height="3.03927120751865em" x="22.115384615384617em" y="26.96072879248135em" fill="#aaa"/><rect width="0.9615384615384616em" height="2.1906742980753973em" x="23.076923076923077em" y="27.809325701924603em" fill="#aaa"/><rect width="0.9615384615384616em" height="5.45764222238525em" x="24.03846153846154em" y="24.54235777761475em" fill="#aaa"/><rect width="0.9615384615384616em" height="6.672717832078em" x="25em" y="23.327282167922em" fill="#aaa"/><rect width="0.9615384615384616em" height="2.878565082996931em" x="25.961538461538463em" y="27.121434917003068em" fill="#aaa"/><rect width="0.9615384615384616em" height="4.375279582228319em" x="26.923076923076923em" y="25.62472041777168em" fill="#aaa"/><rect width="0.9615384615384616em" height="2.8786844492127917em" x="27.884615384615387em" y="27.12131555078721em" fill="#aaa"/><rect width="0.9615384615384616em" height="4.491272671371959em" x="28.846153846153847em" y="25.50872732862804em" fill="#aaa"/><rect width="0.9615384615384616em" height="5.669960068082005em" x="29.80769230769231em" y="24.330039931917995em" fill="#aaa"/><rect width="0.9615384615384616em" height="3.6608100713810514em" x="30.76923076923077em" y="26.33918992861895em" fill="#aaa"/><rect width="0.9615384615384616em" height="4.402128928612566em" x="31.73076923076923em" y="25.597871071387434em" fill="#aaa"/><rect width="0.9615384615384616em" height="3.865296082630377em" x="32.69230769230769em" y="26.134703917369624em" fill="#aaa"/><rect width="0.9615384615384616em" height="4.047863672511594em" x="33.65384615384615em" y="25.952136327488404em" fill="#aaa"/><rect width="0.9615384615384616em" height="4.965908653879806em" x="34.61538461538461em" y="25.034091346120192em" fill="#aaa"/><rect width="0.9615384615384616em" height="6.37489460958985em" x="35.57692307692308em" y="23.62510539041015em" fill="#aaa"/><rect width="0.9615384615384616em" height="7.452206162336257em" x="36.53846153846154em" y="22.547793837663743em" fill="#aaa"/><rect width="0.9615384615384616em" height="5.644568124118774em" x="37.5em" y="24.355431875881226em" fill="#aaa"/><rect width="0.9615384615384616em" height="5.363043889616044em" x="38.46153846153846em" y="24.636956110383956em" fill="#aaa"/><rect width="0.9615384615384616em" height="9.428884569234889em" x="39.42307692307693em" y="20.57111543076511em" fill="#aaa"/><rect width="0.9615384615384616em" height="17.463316970759312em" x="40.38461538461539em" y="12.536683029240688em" fill="#aaa"/><rect width="0.9615384615384616em" height="7.455047276589643em" x="41.34615384615385em" y="22.544952723410358em" fill="#aaa"/><rect width="0.9615384615384616em" height="10.068484712815717em" x="42.30769230769231em" y="19.931515287184283em" fill="#aaa"/><rect width="0.9615384615384616em" height="8.839890240793475em" x="43.269230769230774em" y="21.160109759206527em" fill="#aaa"/><rect width="0.9615384615384616em" height="5.863125166890791em" x="44.23076923076923em" y="24.13687483310921em" fill="#aaa"/><rect width="0.9615384615384616em" height="7.6028500306136975em" x="45.19230769230769em" y="22.3971499693863em" fill="#aaa"/><rect width="0.9615384615384616em" height="7.7188554870552535em" x="46.15384615384615em" y="22.281144512944746em" fill="#aaa"/><rect width="0.9615384615384616em" height="4.998541912095807em" x="47.11538461538461em" y="25.001458087904194em" fill="#aaa"/><rect width="0.9615384615384616em" height="8.640557842210086em" x="48.07692307692308em" y="21.359442157789914em" fill="#aaa"/><rect width="0.9615384615384616em" height="7.408087318021342em" x="49.03846153846154em" y="22.59191268197866em" fill="#aaa"/><rect width="0.9615384615384616em" height="9.661713526363249em" x="50em" y="20.33828647363675em" fill="#aaa"/><rect width="0.9615384615384616em" height="7.534177015614146em" x="50.96153846153846em" y="22.465822984385852em" fill="#aaa"/><rect width="0.9615384615384616em" height="10.444035063058884em" x="51.92307692307693em" y="19.555964936941116em" fill="#aaa"/><rect width="0.9615384615384616em" height="9.605621188011952em" x="52.88461538461539em" y="20.394378811988048em" fill="#aaa"/><rect width="0.9615384615384616em" height="9.309006812200467em" x="53.84615384615385em" y="20.690993187799535em" fill="#aaa"/><rect width="0.9615384615384616em" height="13.064054366415567em" x="54.80769230769231em" y="16.93594563358443em" fill="#aaa"/><rect width="0.9615384615384616em" height="15.936559172217116em" x="55.769230769230774em" y="14.063440827782884em" fill="#aaa"/><rect width="0.9615384615384616em" height="9.923364823485695em" x="56.73076923076923em" y="20.076635176514305em" fill="#aaa"/><rect width="0.9615384615384616em" height="14.090878655308614em" x="57.69230769230769em" y="15.909121344691386em" fill="#aaa"/><rect width="0.9615384615384616em" height="9.190885443882008em" x="58.65384615384615em" y="20.80911455611799em" fill="#aaa"/><rect width="0.9615384615384616em" height="8.348233986233616em" x="59.61538461538462em" y="21.651766013766384em" fill="#aaa"/><rect width="0.9615384615384616em" height="12.337659201082653em" x="60.57692307692308em" y="17.66234079891735em" fill="#aaa"/><rect width="0.9615384615384616em" height="13.22262565396626em" x="61.53846153846154em" y="16.77737434603374em" fill="#aaa"/><rect width="0.9615384615384616em" height="15.780871356260942em" x="62.5em" y="14.219128643739058em" fill="#aaa"/><rect width="0.9615384615384616em" height="18.253543857211433em" x="63.46153846153846em" y="11.746456142788567em" fill="#aaa"/><rect width="0.9615384615384616em" height="11.077564537680786em" x="64.42307692307692em" y="18.922435462319214em" fill="#aaa"/><rect width="0.9615384615384616em" height="14.261852047519206em" x="65.38461538461539em" y="15.738147952480794em" fill="#aaa"/><rect width="0.9615384615384616em" height="18.086228914435797em" x="66.34615384615385em" y="11.913771085564203em" fill="#aaa"/><rect width="0.9615384615384616em" height="12.099760115236121em" x="67.3076923076923em" y="17.900239884763877em" fill="#aaa"/><rect width="0.9615384615384616em" height="13.185886334907407em" x="68.26923076923077em" y="16.81411366509259em" fill="#aaa"/><rect width="0.9615384615384616em" height="9.221114872378623em" x="69.23076923076923em" y="20.77888512762138em" fill="#aaa"/><rect width="0.9615384615384616em" height="11.882712378613023em" x="70.1923076923077em" y="18.11728762138698em" fill="#aaa"/><rect width="0.9615384615384616em" height="14.731298539176008em" x="71.15384615384616em" y="15.268701460823992em" fill="#aaa"/><rect width="0.9615384615384616em" height="27.8354364841047em" x="72.11538461538461em" y="2.164563515895299em" fill="#aaa"/><rect width="0.9615384615384616em" height="14.495286470349903em" x="73.07692307692308em" y="15.504713529650097em" fill="#aaa"/><rect width="0.9615384615384616em" height="11.910213146877181em" x="74.03846153846155em" y="18.089786853122817em" fill="#aaa"/><rect width="0.9615384615384616em" height="17.17626913053653em" x="75em" y="12.823730869463471em" fill="#aaa"/><rect width="0.9615384615384616em" height="17.793338404297693em" x="75.96153846153847em" y="12.206661595702307em" fill="#aaa"/><rect width="0.9615384615384616em" height="23.66424974280057em" x="76.92307692307692em" y="6.335750257199429em" fill="#aaa"/><rect width="0.9615384615384616em" height="22.141811416635655em" x="77.88461538461539em" y="7.8581885833643454em" fill="#aaa"/><rect width="0.9615384615384616em" height="17.972707548304246em" x="78.84615384615385em" y="12.027292451695754em" fill="#aaa"/><rect width="0.9615384615384616em" height="17.170320850670908em" x="79.8076923076923em" y="12.829679149329092em" fill="#aaa"/><rect width="0.9615384615384616em" height="18.235023801995283em" x="80.76923076923077em" y="11.764976198004717em" fill="#aaa"/><rect width="0.9615384615384616em" height="16.653291642847083em" x="81.73076923076923em" y="13.346708357152917em" fill="#aaa"/><rect width="0.9615384615384616em" height="30em" x="82.6923076923077em" y="0em" fill="#aaa"/><rect width="0.9615384615384616em" height="19.19578352001148em" x="83.65384615384616em" y="10.804216479988519em" fill="#aaa"/><rect width="0.9615384615384616em" height="19.459481946601688em" x="84.61538461538461em" y="10.540518053398312em" fill="#aaa"/><rect width="0.9615384615384616em" height="20.457039325990035em" x="85.57692307692308em" y="9.542960674009965em" fill="#aaa"/><rect width="0.9615384615384616em" height="27.048197623841606em" x="86.53846153846155em" y="2.951802376158394em" fill="#aaa"/><rect width="0.9615384615384616em" height="20.445603194126218em" x="87.5em" y="9.554396805873782em" fill="#aaa"/><rect width="0.9615384615384616em" height="21.194399885564437em" x="88.46153846153847em" y="8.805600114435563em" fill="#aaa"/><rect width="0.9615384615384616em" height="22.491761202748446em" x="89.42307692307692em" y="7.508238797251554em" fill="#aaa"/><rect width="0.9615384615384616em" height="19.406428410845265em" x="90.38461538461539em" y="10.593571589154735em" fill="#aaa"/><rect width="0.9615384615384616em" height="19.97398773318854em" x="91.34615384615385em" y="10.02601226681146em" fill="#aaa"/><rect width="0.9615384615384616em" height="19.403651493222377em" x="92.3076923076923em" y="10.596348506777623em" fill="#aaa"/><rect width="0.9615384615384616em" height="18.59497505525958em" x="93.26923076923077em" y="11.405024944740418em" fill="#aaa"/><rect width="0.9615384615384616em" height="20.84972447384989em" x="94.23076923076923em" y="9.15027552615011em" fill="#aaa"/><rect width="0.9615384615384616em" height="25.101183609562842em" x="95.1923076923077em" y="4.898816390437158em" fill="#aaa"/><rect width="0.9615384615384616em" height="24.19442491682566em" x="96.15384615384616em" y="5.80557508317434em" fill="#aaa"/><rect width="0.9615384615384616em" height="21.95490291230963em" x="97.11538461538461em" y="8.045097087690369em" fill="#aaa"/><rect width="0.9615384615384616em" height="19.07985758897071em" x="98.07692307692308em" y="10.920142411029289em" fill="#aaa"/><rect width="0.9615384615384616em" height="24.362095296543927em" x="99.03846153846155em" y="5.637904703456073em" fill="#aaa"/></svg>