<?xml version="1.0" standalone="no"?>
<svg xmlns:xlink="http://www.w3.org/1999/xlink" xmlns="http://www.w3.org/2000/svg" class="topic-graph" style="width: 100em; height: 30em; text-align: center;"><rect width="0.9615384615384616em" height="1.3712847338309417em" x="0em" y="28.62871526616906em" fill="#aaa"/><rect width="0.9615384615384616em" height="9.261566571153818em" x="0.9615384615384616em" y="20.738433428846182em" fill="#aaa"/><rect width="0.9615384615384616em" height="22.88076796184532em" x="1.9230769230769231em" y="7.119232038154681em" fill="#aaa"/><rect width="0.9615384615384616em" height="2.4536495270027867em" x="2.8846153846153846em" y="27.54635047299721em" fill="#aaa"/><rect width="0.9615384615384616em" height="1.3300400641364154em" x="3.8461538461538463em" y="28.669959935863584em" fill="#aaa"/><rect width="0.9615384615384616em" height="18.242390850779405em" x="4.8076923076923075em" y="11.757609149220595em" fill="#aaa"/><rect width="0.9615384615384616em" height="4.541555861182488em" x="5.769230769230769em" y="25.458444138817512em" fill="#aaa"/><rect width="0.9615384615384616em" height="8.767200074632575em" x="6.730769230769231em" y="21.232799925367424em" fill="#aaa"/><rect width="0.9615384615384616em" height="5.968678631732949em" x="7.6923076923076925em" y="24.03132136826705em" fill="#aaa"/><rect width="0.9615384615384616em" height="2.9798769554554068em" x="8.653846153846153em" y="27.020123044544594em" fill="#aaa"/><rect width="0.9615384615384616em" height="2.0548838655358774em" x="9.615384615384615em" y="27.945116134464122em" fill="#aaa"/><rect width="0.9615384615384616em" height="6.252141767189222em" x="10.576923076923077em" y="23.747858232810778em" fill="#aaa"/><rect width="0.9615384615384616em" height="6.37025917643993em" x="11.538461538461538em" y="23.62974082356007em" fill="#aaa"/><rect width="0.9615384615384616em" height="8.666037205565562em" x="12.5em" y="21.333962794434438em" fill="#aaa"/><rect width="0.9615384615384616em" height="3.5889977881484567em" x="13.461538461538462em" y="26.411002211851542em" fill="#aaa"/><rect width="0.9615384615384616em" height="8.679293087237896em" x="14.423076923076923em" y="21.320706912762105em" fill="#aaa"/><rect width="0.9615384615384616em" height="8.952002657095685em" x="15.384615384615385em" y="21.047997342904317em" fill="#aaa"/><rect width="0.9615384615384616em" height="13.961668274819248em" x="16.346153846153847em" y="16.038331725180754em" fill="#aaa"/><rect width="0.9615384615384616em" height="26.824701350299247em" x="17.307692307692307em" y="3.1752986497007534em" fill="#aaa"/><rect width="0.9615384615384616em" height="7.05321317568814em" x="18.26923076923077em" y="22.94678682431186em" fill="#aaa"/><rect width="0.9615384615384616em" height="6.389859473115277em" x="19.23076923076923em" y="23.610140526884724em" fill="#aaa"/><rect width="0.9615384615384616em" height="1.4713523574591432em" x="20.192307692307693em" y="28.528647642540857em" fill="#aaa"/><rect width="0.9615384615384616em" height="4.3030130685224846em" x="21.153846153846153em" y="25.696986931477515em" fill="#aaa"/><rect width="0.9615384615384616em" height="10.479745286667711em" x="22.115384615384617em" y="19.52025471333229em" fill="#aaa"/><rect width="0.9615384615384616em" height="5.802916812111711em" x="23.076923076923077em" y="24.19708318788829em" fill="#aaa"/><rect width="0.9615384615384616em" height="14.397045847246934em" x="24.03846153846154em" y="15.602954152753066em" fill="#aaa"/><rect width="0.9615384615384616em" height="7.5502278098583755em" x="25em" y="22.449772190141623em" fill="#aaa"/><rect width="0.9615384615384616em" height="7.708823545801651em" x="25.961538461538463em" y="22.29117645419835em" fill="#aaa"/><rect width="0.9615384615384616em" height="10.060446358024361em" x="26.923076923076923em" y="19.93955364197564em" fill="#aaa"/><rect width="0.9615384615384616em" height="17.887308716649418em" x="27.884615384615387em" y="12.112691283350582em" fill="#aaa"/><rect width="0.9615384615384616em" height="16.65233613046931em" x="28.846153846153847em" y="13.347663869530692em" fill="#aaa"/><rect width="0.9615384615384616em" height="14.517628847639418em" x="29.80769230769231em" y="15.482371152360582em" fill="#aaa"/><rect width="0.9615384615384616em" height="3.938654504624412em" x="30.76923076923077em" y="26.061345495375587em" fill="#aaa"/><rect width="0.9615384615384616em" height="3.3352399147260456em" x="31.73076923076923em" y="26.664760085273954em" fill="#aaa"/><rect width="0.9615384615384616em" height="4.904863779709459em" x="32.69230769230769em" y="25.09513622029054em" fill="#aaa"/><rect width="0.9615384615384616em" height="4.312402204797821em" x="33.65384615384615em" y="25.68759779520218em" fill="#aaa"/><rect width="0.9615384615384616em" height="4.0169411021590635em" x="34.61538461538461em" y="25.983058897840937em" fill="#aaa"/><rect width="0.9615384615384616em" height="5.697046093312382em" x="35.57692307692308em" y="24.30295390668762em" fill="#aaa"/><rect width="0.9615384615384616em" height="8.045769878700511em" x="36.53846153846154em" y="21.95423012129949em" fill="#aaa"/><rect width="0.9615384615384616em" height="4.3641641237300846em" x="37.5em" y="25.635835876269915em" fill="#aaa"/><rect width="0.9615384615384616em" height="14.351821457846535em" x="38.46153846153846em" y="15.648178542153465em" fill="#aaa"/><rect width="0.9615384615384616em" height="8.414099994015533em" x="39.42307692307693em" y="21.585900005984467em" fill="#aaa"/><rect width="0.9615384615384616em" height="9.583185521348446em" x="40.38461538461539em" y="20.416814478651553em" fill="#aaa"/><rect width="0.9615384615384616em" height="4.395823737038595em" x="41.34615384615385em" y="25.604176262961406em" fill="#aaa"/><rect width="0.9615384615384616em" height="14.721410061205976em" x="42.30769230769231em" y="15.278589938794024em" fill="#aaa"/><rect width="0.9615384615384616em" height="18.59426847269304em" x="43.269230769230774em" y="11.405731527306958em" fill="#aaa"/><rect width="0.9615384615384616em" height="17.460055160469164em" x="44.23076923076923em" y="12.539944839530836em" fill="#aaa"/><rect width="0.9615384615384616em" height="8.904118318267589em" x="45.19230769230769em" y="21.09588168173241em" fill="#aaa"/><rect width="0.9615384615384616em" height="8.550380850042819em" x="46.15384615384615em" y="21.44961914995718em" fill="#aaa"/><rect width="0.9615384615384616em" height="5.034404051462562em" x="47.11538461538461em" y="24.965595948537437em" fill="#aaa"/><rect width="0.9615384615384616em" height="3.9421438359397576em" x="48.07692307692308em" y="26.057856164060244em" fill="#aaa"/><rect width="0.9615384615384616em" height="6.42923991936787em" x="49.03846153846154em" y="23.57076008063213em" fill="#aaa"/><rect width="0.9615384615384616em" height="4.811133559374011em" x="50em" y="25.18886644062599em" fill="#aaa"/><rect width="0.9615384615384616em" height="5.044517340707291em" x="50.96153846153846em" y="24.95548265929271em" fill="#aaa"/><rect width="0.9615384615384616em" height="2.8864103776197934em" x="51.92307692307693em" y="27.113589622380207em" fill="#aaa"/><rect width="0.9615384615384616em" height="6.884070436753451em" x="52.88461538461539em" y="23.11592956324655em" fill="#aaa"/><rect width="0.9615384615384616em" height="4.996148385409529em" x="53.84615384615385em" y="25.00385161459047em" fill="#aaa"/><rect width="0.9615384615384616em" height="5.08206846461801em" x="54.80769230769231em" y="24.91793153538199em" fill="#aaa"/><rect width="0.9615384615384616em" height="5.396745031246915em" x="55.769230769230774em" y="24.603254968753085em" fill="#aaa"/><rect width="0.9615384615384616em" height="9.000929817537687em" x="56.73076923076923em" y="20.99907018246231em" fill="#aaa"/><rect width="0.9615384615384616em" height="9.7817749550277em" x="57.69230769230769em" y="20.2182250449723em" fill="#aaa"/><rect width="0.9615384615384616em" height="6.987533158149663em" x="58.65384615384615em" y="23.012466841850337em" fill="#aaa"/><rect width="0.9615384615384616em" height="7.5267551516874756em" x="59.61538461538462em" y="22.473244848312525em" fill="#aaa"/><rect width="0.9615384615384616em" height="3.9374095722912257em" x="60.57692307692308em" y="26.062590427708773em" fill="#aaa"/><rect width="0.9615384615384616em" height="14.331963178622672em" x="61.53846153846154em" y="15.668036821377328em" fill="#aaa"/><rect width="0.9615384615384616em" height="8.706751869150903em" x="62.5em" y="21.293248130849097em" fill="#aaa"/><rect width="0.9615384615384616em" height="6.165839447690095em" x="63.46153846153846em" y="23.834160552309903em" fill="#aaa"/><rect width="0.9615384615384616em" height="7.732124030528525em" x="64.42307692307692em" y="22.267875969471476em" fill="#aaa"/><rect width="0.9615384615384616em" height="7.539591843561803em" x="65.38461538461539em" y="22.4604081564382em" fill="#aaa"/><rect width="0.9615384615384616em" height="7.4285234899692325em" x="66.34615384615385em" y="22.571476510030767em" fill="#aaa"/><rect width="0.9615384615384616em" height="10.691711661635091em" x="67.3076923076923em" y="19.30828833836491em" fill="#aaa"/><rect width="0.9615384615384616em" height="6.5948369987209166em" x="68.26923076923077em" y="23.405163001279085em" fill="#aaa"/><rect width="0.9615384615384616em" height="4.257505112179552em" x="69.23076923076923em" y="25.74249488782045em" fill="#aaa"/><rect width="0.9615384615384616em" height="7.901669077825042em" x="70.1923076923077em" y="22.09833092217496em" fill="#aaa"/><rect width="0.9615384615384616em" height="15.966218112682393em" x="71.15384615384616em" y="14.033781887317607em" fill="#aaa"/><rect width="0.9615384615384616em" height="19.56598797400054em" x="72.11538461538461em" y="10.434012025999461em" fill="#aaa"/><rect width="0.9615384615384616em" height="18.543754191642925em" x="73.07692307692308em" y="11.456245808357075em" fill="#aaa"/><rect width="0.9615384615384616em" height="11.644119785628966em" x="74.03846153846155em" y="18.355880214371034em" fill="#aaa"/><rect width="0.9615384615384616em" height="15.495618549637495em" x="75em" y="14.504381450362505em" fill="#aaa"/><rect width="0.9615384615384616em" height="7.203543772215417em" x="75.96153846153847em" y="22.79645622778458em" fill="#aaa"/><rect width="0.9615384615384616em" height="12.897710972848808em" x="76.92307692307692em" y="17.102289027151194em" fill="#aaa"/><rect width="0.9615384615384616em" height="15.202423580943949em" x="77.88461538461539em" y="14.797576419056051em" fill="#aaa"/><rect width="0.9615384615384616em" height="17.59978819180114em" x="78.84615384615385em" y="12.400211808198861em" fill="#aaa"/><rect width="0.9615384615384616em" height="13.24981185351051em" x="79.8076923076923em" y="16.750188146489492em" fill="#aaa"/><rect width="0.9615384615384616em" height="9.200453486565275em" x="80.76923076923077em" y="20.799546513434727em" fill="#aaa"/><rect width="0.9615384615384616em" height="14.43478818495411em" x="81.73076923076923em" y="15.56521181504589em" fill="#aaa"/><rect width="0.9615384615384616em" height="19.33830894303626em" x="82.6923076923077em" y="10.66169105696374em" fill="#aaa"/><rect width="0.9615384615384616em" height="16.728566343071833em" x="83.65384615384616em" y="13.271433656928167em" fill="#aaa"/><rect width="0.9615384615384616em" height="21.946982427808187em" x="84.61538461538461em" y="8.053017572191813em" fill="#aaa"/><rect width="0.9615384615384616em" height="21.291599472141137em" x="85.57692307692308em" y="8.708400527858863em" fill="#aaa"/><rect width="0.9615384615384616em" height="23.196989810460796em" x="86.53846153846155em" y="6.803010189539204em" fill="#aaa"/><rect width="0.9615384615384616em" height="30em" x="87.5em" y="0em" fill="#aaa"/><rect width="0.9615384615384616em" height="22.0148401589121em" x="88.46153846153847em" y="7.985159841087899em" fill="#aaa"/><rect width="0.9615384615384616em" height="22.766349347443253em" x="89.42307692307692em" y="7.233650652556747em" fill="#aaa"/><rect width="0.9615384615384616em" height="18.147144182312996em" x="90.38461538461539em" y="11.852855817687004em" fill="#aaa"/><rect width="0.9615384615384616em" height="16.187423894817776em" x="91.34615384615385em" y="13.812576105182224em" fill="#aaa"/><rect width="0.9615384615384616em" height="20.37750449417038em" x="92.3076923076923em" y="9.622495505829619em" fill="#aaa"/><rect width="0.9615384615384616em" height="19.46817152394822em" x="93.26923076923077em" y="10.531828476051778em" fill="#aaa"/><rect width="0.9615384615384616em" height="21.21110354096984em" x="94.23076923076923em" y="8.788896459030159em" fill="#aaa"/><rect width="0.9615384615384616em" height="23.248564269295112em" x="95.1923076923077em" y="6.751435730704888em" fill="#aaa"/><rect width="0.9615384615384616em" height="26.137177470054734em" x="96.15384615384616em" y="3.862822529945266em" fill="#aaa"/><rect width="0.9615384615384616em" height="26.83313870203063em" x="97.11538461538461em" y="3.166861297969369em" fill="#aaa"/><rect width="0.9615384615384616em" height="24.93539026882378em" x="98.07692307692308em" y="5.064609731176219em" fill="#aaa"/><rect width="0.9615384615384616em" height="23.279914499130967em" x="99.03846153846155em" y="6.720085500869033em" fill="#aaa"/></svg>