<?xml version="1.0" standalone="no"?>
<svg xmlns:xlink="http://www.w3.org/1999/xlink" xmlns="http://www.w3.org/2000/svg" class="topic-graph" style="width: 10vw; height: 3em; text-align: center;"><rect width="0.09615384615384616em" height="3em" x="0vw" y="0em" fill="#aaa"/><rect width="0.09615384615384616em" height="1.2853027855415537em" x="0.09615384615384616vw" y="1.7146972144584463em" fill="#aaa"/><rect width="0.09615384615384616em" height="1.0682514438085917em" x="0.19230769230769232vw" y="1.9317485561914083em" fill="#aaa"/><rect width="0.09615384615384616em" height="1.3485054439422082em" x="0.2884615384615385vw" y="1.6514945560577918em" fill="#aaa"/><rect width="0.09615384615384616em" height="1.7368526482361153em" x="0.38461538461538464vw" y="1.2631473517638847em" fill="#aaa"/><rect width="0.09615384615384616em" height="0.7721206712022068em" x="0.4807692307692308vw" y="2.227879328797793em" fill="#aaa"/><rect width="0.09615384615384616em" height="0.8333462812408136em" x="0.576923076923077vw" y="2.1666537187591866em" fill="#aaa"/><rect width="0.09615384615384616em" height="1.0571015245828481em" x="0.6730769230769231vw" y="1.9428984754171519em" fill="#aaa"/><rect width="0.09615384615384616em" height="1.2077626610458807em" x="0.7692307692307693vw" y="1.7922373389541193em" fill="#aaa"/><rect width="0.09615384615384616em" height="1.2210074051476059em" x="0.8653846153846154vw" y="1.7789925948523941em" fill="#aaa"/><rect width="0.09615384615384616em" height="2.1180453430326747em" x="0.9615384615384616vw" y="0.8819546569673253em" fill="#aaa"/><rect width="0.09615384615384616em" height="1.8166952034814638em" x="1.0576923076923077vw" y="1.1833047965185362em" fill="#aaa"/><rect width="0.09615384615384616em" height="1.280304674271269em" x="1.153846153846154vw" y="1.719695325728731em" fill="#aaa"/><rect width="0.09615384615384616em" height="0.9862787553205272em" x="1.25vw" y="2.0137212446794726em" fill="#aaa"/><rect width="0.09615384615384616em" height="1.141672817091347em" x="1.3461538461538463vw" y="1.858327182908653em" fill="#aaa"/><rect width="0.09615384615384616em" height="1.251580588706233em" x="1.4423076923076923vw" y="1.748419411293767em" fill="#aaa"/><rect width="0.09615384615384616em" height="1.0907361370471302em" x="1.5384615384615385vw" y="1.9092638629528698em" fill="#aaa"/><rect width="0.09615384615384616em" height="0.7582569641408252em" x="1.6346153846153848vw" y="2.241743035859175em" fill="#aaa"/><rect width="0.09615384615384616em" height="0.7638339919368147em" x="1.7307692307692308vw" y="2.2361660080631856em" fill="#aaa"/><rect width="0.09615384615384616em" height="0.8958225705988428em" x="1.826923076923077vw" y="2.1041774294011573em" fill="#aaa"/><rect width="0.09615384615384616em" height="1.1500269376657735em" x="1.9230769230769231vw" y="1.8499730623342265em" fill="#aaa"/><rect width="0.09615384615384616em" height="0.7630090949956575em" x="2.019230769230769vw" y="2.2369909050043426em" fill="#aaa"/><rect width="0.09615384615384616em" height="0.8934656807262928em" x="2.1153846153846154vw" y="2.106534319273707em" fill="#aaa"/><rect width="0.09615384615384616em" height="0.8377534671548056em" x="2.2115384615384617vw" y="2.1622465328451943em" fill="#aaa"/><rect width="0.09615384615384616em" height="0.7477463614151921em" x="2.307692307692308vw" y="2.2522536385848078em" fill="#aaa"/><rect width="0.09615384615384616em" height="0.9190634039920584em" x="2.403846153846154vw" y="2.0809365960079416em" fill="#aaa"/><rect width="0.09615384615384616em" height="0.7148801841681182em" x="2.5vw" y="2.285119815831882em" fill="#aaa"/><rect width="0.09615384615384616em" height="0.8800725046917931em" x="2.5961538461538463vw" y="2.119927495308207em" fill="#aaa"/><rect width="0.09615384615384616em" height="0.9160686231189186em" x="2.6923076923076925vw" y="2.0839313768810817em" fill="#aaa"/><rect width="0.09615384615384616em" height="0.8535045330404871em" x="2.7884615384615388vw" y="2.1464954669595127em" fill="#aaa"/><rect width="0.09615384615384616em" height="0.9443422389261547em" x="2.8846153846153846vw" y="2.0556577610738453em" fill="#aaa"/><rect width="0.09615384615384616em" height="0.9530995150405654em" x="2.980769230769231vw" y="2.0469004849594343em" fill="#aaa"/><rect width="0.09615384615384616em" height="0.941660241336453em" x="3.076923076923077vw" y="2.0583397586635472em" fill="#aaa"/><rect width="0.09615384615384616em" height="1.076910261436311em" x="3.1730769230769234vw" y="1.923089738563689em" fill="#aaa"/><rect width="0.09615384615384616em" height="1.2903310622861301em" x="3.2692307692307696vw" y="1.7096689377138699em" fill="#aaa"/><rect width="0.09615384615384616em" height="1.3904920373679421em" x="3.3653846153846154vw" y="1.6095079626320579em" fill="#aaa"/><rect width="0.09615384615384616em" height="1.2189812285648483em" x="3.4615384615384617vw" y="1.7810187714351517em" fill="#aaa"/><rect width="0.09615384615384616em" height="1.2473384942696102em" x="3.557692307692308vw" y="1.7526615057303898em" fill="#aaa"/><rect width="0.09615384615384616em" height="1.167485554276615em" x="3.653846153846154vw" y="1.832514445723385em" fill="#aaa"/><rect width="0.09615384615384616em" height="1.1589142030532613em" x="3.75vw" y="1.8410857969467387em" fill="#aaa"/><rect width="0.09615384615384616em" height="1.3514545463853405em" x="3.8461538461538463vw" y="1.6485454536146595em" fill="#aaa"/><rect width="0.09615384615384616em" height="1.3561854592966547em" x="3.9423076923076925vw" y="1.6438145407033453em" fill="#aaa"/><rect width="0.09615384615384616em" height="1.234650417383342em" x="4.038461538461538vw" y="1.765349582616658em" fill="#aaa"/><rect width="0.09615384615384616em" height="1.372014240912489em" x="4.134615384615385vw" y="1.627985759087511em" fill="#aaa"/><rect width="0.09615384615384616em" height="1.1391992967765454em" x="4.230769230769231vw" y="1.8608007032234546em" fill="#aaa"/><rect width="0.09615384615384616em" height="1.2512932487582806em" x="4.3269230769230775vw" y="1.7487067512417194em" fill="#aaa"/><rect width="0.09615384615384616em" height="1.0087356469295954em" x="4.423076923076923vw" y="1.9912643530704046em" fill="#aaa"/><rect width="0.09615384615384616em" height="1.1148469367177585em" x="4.519230769230769vw" y="1.8851530632822415em" fill="#aaa"/><rect width="0.09615384615384616em" height="1.3948081745400749em" x="4.615384615384616vw" y="1.6051918254599251em" fill="#aaa"/><rect width="0.09615384615384616em" height="1.5364862214880892em" x="4.711538461538462vw" y="1.4635137785119108em" fill="#aaa"/><rect width="0.09615384615384616em" height="1.6405570926244586em" x="4.807692307692308vw" y="1.3594429073755414em" fill="#aaa"/><rect width="0.09615384615384616em" height="1.6229133793038342em" x="4.903846153846154vw" y="1.3770866206961658em" fill="#aaa"/><rect width="0.09615384615384616em" height="1.3583593223469492em" x="5vw" y="1.6416406776530508em" fill="#aaa"/><rect width="0.09615384615384616em" height="1.3495648611335063em" x="5.096153846153847vw" y="1.6504351388664937em" fill="#aaa"/><rect width="0.09615384615384616em" height="1.4290501639744408em" x="5.1923076923076925vw" y="1.5709498360255592em" fill="#aaa"/><rect width="0.09615384615384616em" height="1.449687534705401em" x="5.288461538461538vw" y="1.550312465294599em" fill="#aaa"/><rect width="0.09615384615384616em" height="1.33776545590558em" x="5.384615384615385vw" y="1.66223454409442em" fill="#aaa"/><rect width="0.09615384615384616em" height="1.4761053052903537em" x="5.480769230769231vw" y="1.5238946947096463em" fill="#aaa"/><rect width="0.09615384615384616em" height="1.2065780569318587em" x="5.5769230769230775vw" y="1.7934219430681413em" fill="#aaa"/><rect width="0.09615384615384616em" height="1.1655677869979229em" x="5.673076923076923vw" y="1.8344322130020771em" fill="#aaa"/><rect width="0.09615384615384616em" height="1.5822525114549602em" x="5.769230769230769vw" y="1.4177474885450398em" fill="#aaa"/><rect width="0.09615384615384616em" height="1.2478185774676374em" x="5.865384615384616vw" y="1.7521814225323626em" fill="#aaa"/><rect width="0.09615384615384616em" height="1.4624621813897063em" x="5.961538461538462vw" y="1.5375378186102937em" fill="#aaa"/><rect width="0.09615384615384616em" height="1.398038186213869em" x="6.057692307692308vw" y="1.601961813786131em" fill="#aaa"/><rect width="0.09615384615384616em" height="1.316387914756223em" x="6.153846153846154vw" y="1.683612085243777em" fill="#aaa"/><rect width="0.09615384615384616em" height="1.5974304694710262em" x="6.25vw" y="1.4025695305289738em" fill="#aaa"/><rect width="0.09615384615384616em" height="1.7859152945754293em" x="6.346153846153847vw" y="1.2140847054245707em" fill="#aaa"/><rect width="0.09615384615384616em" height="1.377001276272322em" x="6.4423076923076925vw" y="1.622998723727678em" fill="#aaa"/><rect width="0.09615384615384616em" height="1.627307771490711em" x="6.538461538461539vw" y="1.372692228509289em" fill="#aaa"/><rect width="0.09615384615384616em" height="1.6515548971060223em" x="6.634615384615385vw" y="1.3484451028939777em" fill="#aaa"/><rect width="0.09615384615384616em" height="1.5992328716525244em" x="6.730769230769231vw" y="1.4007671283474756em" fill="#aaa"/><rect width="0.09615384615384616em" height="1.7207030124673905em" x="6.8269230769230775vw" y="1.2792969875326095em" fill="#aaa"/><rect width="0.09615384615384616em" height="1.424278896829572em" x="6.923076923076923vw" y="1.575721103170428em" fill="#aaa"/><rect width="0.09615384615384616em" height="1.2615979880452646em" x="7.01923076923077vw" y="1.7384020119547354em" fill="#aaa"/><rect width="0.09615384615384616em" height="1.5579709114687983em" x="7.115384615384616vw" y="1.4420290885312017em" fill="#aaa"/><rect width="0.09615384615384616em" height="1.5635081678229255em" x="7.211538461538462vw" y="1.4364918321770745em" fill="#aaa"/><rect width="0.09615384615384616em" height="1.819654472253807em" x="7.307692307692308vw" y="1.180345527746193em" fill="#aaa"/><rect width="0.09615384615384616em" height="1.8493537480710711em" x="7.403846153846154vw" y="1.1506462519289289em" fill="#aaa"/><rect width="0.09615384615384616em" height="1.7246357731449529em" x="7.5vw" y="1.2753642268550471em" fill="#aaa"/><rect width="0.09615384615384616em" height="1.613608246096125em" x="7.596153846153847vw" y="1.386391753903875em" fill="#aaa"/><rect width="0.09615384615384616em" height="1.4867817371845482em" x="7.6923076923076925vw" y="1.5132182628154518em" fill="#aaa"/><rect width="0.09615384615384616em" height="1.5877070419135704em" x="7.788461538461539vw" y="1.4122929580864296em" fill="#aaa"/><rect width="0.09615384615384616em" height="1.7520242487678814em" x="7.884615384615385vw" y="1.2479757512321186em" fill="#aaa"/><rect width="0.09615384615384616em" height="1.8283025157599484em" x="7.980769230769231vw" y="1.1716974842400516em" fill="#aaa"/><rect width="0.09615384615384616em" height="1.8909882232543263em" x="8.076923076923077vw" y="1.1090117767456737em" fill="#aaa"/><rect width="0.09615384615384616em" height="1.7882062724268857em" x="8.173076923076923vw" y="1.2117937275731143em" fill="#aaa"/><rect width="0.09615384615384616em" height="1.7044797184005023em" x="8.26923076923077vw" y="1.2955202815994977em" fill="#aaa"/><rect width="0.09615384615384616em" height="2.036027852503208em" x="8.365384615384615vw" y="0.9639721474967922em" fill="#aaa"/><rect width="0.09615384615384616em" height="2.122722760904967em" x="8.461538461538462vw" y="0.877277239095033em" fill="#aaa"/><rect width="0.09615384615384616em" height="2.2695596701252256em" x="8.557692307692308vw" y="0.7304403298747744em" fill="#aaa"/><rect width="0.09615384615384616em" height="2.0565170548786833em" x="8.653846153846155vw" y="0.9434829451213167em" fill="#aaa"/><rect width="0.09615384615384616em" height="1.9448873132008297em" x="8.75vw" y="1.0551126867991703em" fill="#aaa"/><rect width="0.09615384615384616em" height="2.0690552963880573em" x="8.846153846153847vw" y="0.9309447036119427em" fill="#aaa"/><rect width="0.09615384615384616em" height="2.3008125576818013em" x="8.942307692307693vw" y="0.6991874423181987em" fill="#aaa"/><rect width="0.09615384615384616em" height="2.262365251968987em" x="9.038461538461538vw" y="0.737634748031013em" fill="#aaa"/><rect width="0.09615384615384616em" height="1.9948526218403513em" x="9.134615384615385vw" y="1.0051473781596487em" fill="#aaa"/><rect width="0.09615384615384616em" height="2.4230706999064946em" x="9.230769230769232vw" y="0.5769293000935054em" fill="#aaa"/><rect width="0.09615384615384616em" height="2.1752089823790723em" x="9.326923076923077vw" y="0.8247910176209277em" fill="#aaa"/><rect width="0.09615384615384616em" height="2.3967612715027076em" x="9.423076923076923vw" y="0.6032387284972924em" fill="#aaa"/><rect width="0.09615384615384616em" height="2.702252753512623em" x="9.51923076923077vw" y="0.29774724648737694em" fill="#aaa"/><rect width="0.09615384615384616em" height="2.366266636313096em" x="9.615384615384617vw" y="0.633733363686904em" fill="#aaa"/><rect width="0.09615384615384616em" height="2.31422668792517em" x="9.711538461538462vw" y="0.6857733120748302em" fill="#aaa"/><rect width="0.09615384615384616em" height="2.253802971707951em" x="9.807692307692308vw" y="0.7461970282920491em" fill="#aaa"/><rect width="0.09615384615384616em" height="2.2901612292758253em" x="9.903846153846155vw" y="0.7098387707241747em" fill="#aaa"/></svg>