<?xml version="1.0" standalone="no"?>
<svg xmlns:xlink="http://www.w3.org/1999/xlink" xmlns="http://www.w3.org/2000/svg" class="topic-graph" style="width: 10vw; height: 3em; text-align: center;"><rect width="0.09615384615384616em" height="0.0440467013104252em" x="0vw" y="2.955953298689575em" fill="#aaa"/><rect width="0.09615384615384616em" height="0.17146872023140491em" x="0.09615384615384616vw" y="2.828531279768595em" fill="#aaa"/><rect width="0.09615384615384616em" height="0.03883657295084161em" x="0.19230769230769232vw" y="2.9611634270491582em" fill="#aaa"/><rect width="0.09615384615384616em" height="0.12287979221703624em" x="0.2884615384615385vw" y="2.877120207782964em" fill="#aaa"/><rect width="0.09615384615384616em" height="0.3051281985175602em" x="0.38461538461538464vw" y="2.69487180148244em" fill="#aaa"/><rect width="0.09615384615384616em" height="0.0189202570487334em" x="0.4807692307692308vw" y="2.9810797429512665em" fill="#aaa"/><rect width="0.09615384615384616em" height="0.06599779369554482em" x="0.576923076923077vw" y="2.9340022063044553em" fill="#aaa"/><rect width="0.09615384615384616em" height="0.28798899059979455em" x="0.6730769230769231vw" y="2.7120110094002055em" fill="#aaa"/><rect width="0.09615384615384616em" height="0.0505911377155999em" x="0.7692307692307693vw" y="2.9494088622844em" fill="#aaa"/><rect width="0.09615384615384616em" height="0.10837511155461071em" x="0.8653846153846154vw" y="2.8916248884453895em" fill="#aaa"/><rect width="0.09615384615384616em" height="0.17614895391174593em" x="0.9615384615384616vw" y="2.823851046088254em" fill="#aaa"/><rect width="0.09615384615384616em" height="0.2504822875668631em" x="1.0576923076923077vw" y="2.749517712433137em" fill="#aaa"/><rect width="0.09615384615384616em" height="0.046577291896177445em" x="1.153846153846154vw" y="2.9534227081038225em" fill="#aaa"/><rect width="0.09615384615384616em" height="0.1624672813724644em" x="1.25vw" y="2.8375327186275356em" fill="#aaa"/><rect width="0.09615384615384616em" height="0.03521612220308844em" x="1.3461538461538463vw" y="2.9647838777969118em" fill="#aaa"/><rect width="0.09615384615384616em" height="0.2567831747816205em" x="1.4423076923076923vw" y="2.7432168252183793em" fill="#aaa"/><rect width="0.09615384615384616em" height="0.198295946631567em" x="1.5384615384615385vw" y="2.801704053368433em" fill="#aaa"/><rect width="0.09615384615384616em" height="0.062057131025766196em" x="1.6346153846153848vw" y="2.937942868974234em" fill="#aaa"/><rect width="0.09615384615384616em" height="0.06485639767274388em" x="1.7307692307692308vw" y="2.935143602327256em" fill="#aaa"/><rect width="0.09615384615384616em" height="0.024662610731879166em" x="1.826923076923077vw" y="2.975337389268121em" fill="#aaa"/><rect width="0.09615384615384616em" height="0.16363428433944013em" x="1.9230769230769231vw" y="2.83636571566056em" fill="#aaa"/><rect width="0.09615384615384616em" height="0.059583019040734916em" x="2.019230769230769vw" y="2.9404169809592653em" fill="#aaa"/><rect width="0.09615384615384616em" height="0.12085477362667033em" x="2.1153846153846154vw" y="2.8791452263733297em" fill="#aaa"/><rect width="0.09615384615384616em" height="0.0221516670573797em" x="2.2115384615384617vw" y="2.9778483329426204em" fill="#aaa"/><rect width="0.09615384615384616em" height="0.06971923606025353em" x="2.307692307692308vw" y="2.9302807639397463em" fill="#aaa"/><rect width="0.09615384615384616em" height="0.2456692510153966em" x="2.403846153846154vw" y="2.7543307489846036em" fill="#aaa"/><rect width="0.09615384615384616em" height="0.12213827762588886em" x="2.5vw" y="2.877861722374111em" fill="#aaa"/><rect width="0.09615384615384616em" height="0.1804705968930816em" x="2.5961538461538463vw" y="2.8195294031069182em" fill="#aaa"/><rect width="0.09615384615384616em" height="0.14053583062956693em" x="2.6923076923076925vw" y="2.8594641693704332em" fill="#aaa"/><rect width="0.09615384615384616em" height="1.0639300531214126em" x="2.7884615384615388vw" y="1.9360699468785874em" fill="#aaa"/><rect width="0.09615384615384616em" height="0.353858373292835em" x="2.8846153846153846vw" y="2.646141626707165em" fill="#aaa"/><rect width="0.09615384615384616em" height="0.8573873964923431em" x="2.980769230769231vw" y="2.142612603507657em" fill="#aaa"/><rect width="0.09615384615384616em" height="1.8304034860853635em" x="3.076923076923077vw" y="1.1695965139146365em" fill="#aaa"/><rect width="0.09615384615384616em" height="3em" x="3.1730769230769234vw" y="0em" fill="#aaa"/><rect width="0.09615384615384616em" height="1.2201626436660646em" x="3.2692307692307696vw" y="1.7798373563339354em" fill="#aaa"/><rect width="0.09615384615384616em" height="0.5649677962275674em" x="3.3653846153846154vw" y="2.4350322037724323em" fill="#aaa"/><rect width="0.09615384615384616em" height="1.7840555072430697em" x="3.4615384615384617vw" y="1.2159444927569303em" fill="#aaa"/><rect width="0.09615384615384616em" height="1.2213088708486783em" x="3.557692307692308vw" y="1.7786911291513217em" fill="#aaa"/><rect width="0.09615384615384616em" height="1.2685708601217858em" x="3.653846153846154vw" y="1.7314291398782142em" fill="#aaa"/><rect width="0.09615384615384616em" height="1.9076407830450712em" x="3.75vw" y="1.0923592169549288em" fill="#aaa"/><rect width="0.09615384615384616em" height="1.1059180156865425em" x="3.8461538461538463vw" y="1.8940819843134575em" fill="#aaa"/><rect width="0.09615384615384616em" height="1.7478101944561446em" x="3.9423076923076925vw" y="1.2521898055438554em" fill="#aaa"/><rect width="0.09615384615384616em" height="2.5947522718452634em" x="4.038461538461538vw" y="0.40524772815473664em" fill="#aaa"/><rect width="0.09615384615384616em" height="2.0752474381983177em" x="4.134615384615385vw" y="0.9247525618016823em" fill="#aaa"/><rect width="0.09615384615384616em" height="1.7996183572514612em" x="4.230769230769231vw" y="1.2003816427485388em" fill="#aaa"/><rect width="0.09615384615384616em" height="1.240675362406792em" x="4.3269230769230775vw" y="1.759324637593208em" fill="#aaa"/><rect width="0.09615384615384616em" height="1.449819068231675em" x="4.423076923076923vw" y="1.550180931768325em" fill="#aaa"/><rect width="0.09615384615384616em" height="0.41620196591337544em" x="4.519230769230769vw" y="2.5837980340866245em" fill="#aaa"/><rect width="0.09615384615384616em" height="0.3165089860715231em" x="4.615384615384616vw" y="2.683491013928477em" fill="#aaa"/><rect width="0.09615384615384616em" height="0.4267861875248022em" x="4.711538461538462vw" y="2.5732138124751978em" fill="#aaa"/><rect width="0.09615384615384616em" height="0.6212744497531406em" x="4.807692307692308vw" y="2.3787255502468594em" fill="#aaa"/><rect width="0.09615384615384616em" height="0.4350722415099813em" x="4.903846153846154vw" y="2.5649277584900187em" fill="#aaa"/><rect width="0.09615384615384616em" height="0.5902098842835417em" x="5vw" y="2.4097901157164583em" fill="#aaa"/><rect width="0.09615384615384616em" height="0.21838500758688162em" x="5.096153846153847vw" y="2.781614992413118em" fill="#aaa"/><rect width="0.09615384615384616em" height="0.20825028169755444em" x="5.1923076923076925vw" y="2.7917497183024453em" fill="#aaa"/><rect width="0.09615384615384616em" height="0.34833567395230103em" x="5.288461538461538vw" y="2.651664326047699em" fill="#aaa"/><rect width="0.09615384615384616em" height="0.46412052512326335em" x="5.384615384615385vw" y="2.5358794748767366em" fill="#aaa"/><rect width="0.09615384615384616em" height="0.870093340517899em" x="5.480769230769231vw" y="2.129906659482101em" fill="#aaa"/><rect width="0.09615384615384616em" height="0.6093770977003456em" x="5.5769230769230775vw" y="2.390622902299654em" fill="#aaa"/><rect width="0.09615384615384616em" height="0.4665224302381569em" x="5.673076923076923vw" y="2.533477569761843em" fill="#aaa"/><rect width="0.09615384615384616em" height="1.2404932732016887em" x="5.769230769230769vw" y="1.7595067267983113em" fill="#aaa"/><rect width="0.09615384615384616em" height="0.6205860281575879em" x="5.865384615384616vw" y="2.3794139718424123em" fill="#aaa"/><rect width="0.09615384615384616em" height="0.7129236765702499em" x="5.961538461538462vw" y="2.28707632342975em" fill="#aaa"/><rect width="0.09615384615384616em" height="0.5743723105876622em" x="6.057692307692308vw" y="2.425627689412338em" fill="#aaa"/><rect width="0.09615384615384616em" height="0.468063763202003em" x="6.153846153846154vw" y="2.531936236797997em" fill="#aaa"/><rect width="0.09615384615384616em" height="0.545520485336535em" x="6.25vw" y="2.454479514663465em" fill="#aaa"/><rect width="0.09615384615384616em" height="0.22768052851856327em" x="6.346153846153847vw" y="2.7723194714814365em" fill="#aaa"/><rect width="0.09615384615384616em" height="0.29445553892696913em" x="6.4423076923076925vw" y="2.705544461073031em" fill="#aaa"/><rect width="0.09615384615384616em" height="0.23404912359562224em" x="6.538461538461539vw" y="2.7659508764043776em" fill="#aaa"/><rect width="0.09615384615384616em" height="0.19043529791602531em" x="6.634615384615385vw" y="2.809564702083975em" fill="#aaa"/><rect width="0.09615384615384616em" height="0.40279613927688307em" x="6.730769230769231vw" y="2.597203860723117em" fill="#aaa"/><rect width="0.09615384615384616em" height="0.6771512990274462em" x="6.8269230769230775vw" y="2.322848700972554em" fill="#aaa"/><rect width="0.09615384615384616em" height="0.18789262995226777em" x="6.923076923076923vw" y="2.812107370047732em" fill="#aaa"/><rect width="0.09615384615384616em" height="0.4456182572354399em" x="7.01923076923077vw" y="2.5543817427645603em" fill="#aaa"/><rect width="0.09615384615384616em" height="0.34549740401630286em" x="7.115384615384616vw" y="2.654502595983697em" fill="#aaa"/><rect width="0.09615384615384616em" height="0.4613748653946381em" x="7.211538461538462vw" y="2.538625134605362em" fill="#aaa"/><rect width="0.09615384615384616em" height="0.26690510907351866em" x="7.307692307692308vw" y="2.7330948909264814em" fill="#aaa"/><rect width="0.09615384615384616em" height="0.30331483884556865em" x="7.403846153846154vw" y="2.6966851611544316em" fill="#aaa"/><rect width="0.09615384615384616em" height="0.5204966864136602em" x="7.5vw" y="2.47950331358634em" fill="#aaa"/><rect width="0.09615384615384616em" height="0.17591462202745584em" x="7.596153846153847vw" y="2.824085377972544em" fill="#aaa"/><rect width="0.09615384615384616em" height="0.34164009757182134em" x="7.6923076923076925vw" y="2.6583599024281788em" fill="#aaa"/><rect width="0.09615384615384616em" height="0.2564160311475115em" x="7.788461538461539vw" y="2.7435839688524886em" fill="#aaa"/><rect width="0.09615384615384616em" height="0.2569239409745795em" x="7.884615384615385vw" y="2.7430760590254204em" fill="#aaa"/><rect width="0.09615384615384616em" height="0.2663735606841005em" x="7.980769230769231vw" y="2.7336264393158993em" fill="#aaa"/><rect width="0.09615384615384616em" height="0.24015802447410947em" x="8.076923076923077vw" y="2.7598419755258905em" fill="#aaa"/><rect width="0.09615384615384616em" height="0.35070918892309205em" x="8.173076923076923vw" y="2.649290811076908em" fill="#aaa"/><rect width="0.09615384615384616em" height="0.3289928467385107em" x="8.26923076923077vw" y="2.671007153261489em" fill="#aaa"/><rect width="0.09615384615384616em" height="0.3553267099272882em" x="8.365384615384615vw" y="2.6446732900727117em" fill="#aaa"/><rect width="0.09615384615384616em" height="0.3290127213462027em" x="8.461538461538462vw" y="2.670987278653797em" fill="#aaa"/><rect width="0.09615384615384616em" height="0.2601760286615045em" x="8.557692307692308vw" y="2.7398239713384953em" fill="#aaa"/><rect width="0.09615384615384616em" height="0.35122247266739376em" x="8.653846153846155vw" y="2.6487775273326064em" fill="#aaa"/><rect width="0.09615384615384616em" height="0.4364677333045678em" x="8.75vw" y="2.5635322666954323em" fill="#aaa"/><rect width="0.09615384615384616em" height="0.3900862185495203em" x="8.846153846153847vw" y="2.6099137814504796em" fill="#aaa"/><rect width="0.09615384615384616em" height="0.3778195231516851em" x="8.942307692307693vw" y="2.622180476848315em" fill="#aaa"/><rect width="0.09615384615384616em" height="0.23974889736801064em" x="9.038461538461538vw" y="2.7602511026319894em" fill="#aaa"/><rect width="0.09615384615384616em" height="0.27832955242268115em" x="9.134615384615385vw" y="2.721670447577319em" fill="#aaa"/><rect width="0.09615384615384616em" height="0.2013933492284185em" x="9.230769230769232vw" y="2.7986066507715814em" fill="#aaa"/><rect width="0.09615384615384616em" height="0.19416757559874642em" x="9.326923076923077vw" y="2.8058324244012534em" fill="#aaa"/><rect width="0.09615384615384616em" height="0.43447872167676493em" x="9.423076923076923vw" y="2.565521278323235em" fill="#aaa"/><rect width="0.09615384615384616em" height="0.36007219252120753em" x="9.51923076923077vw" y="2.6399278074787924em" fill="#aaa"/><rect width="0.09615384615384616em" height="0.3689850577447948em" x="9.615384615384617vw" y="2.6310149422552054em" fill="#aaa"/><rect width="0.09615384615384616em" height="0.3699012689008988em" x="9.711538461538462vw" y="2.630098731099101em" fill="#aaa"/><rect width="0.09615384615384616em" height="0.3625781134335878em" x="9.807692307692308vw" y="2.637421886566412em" fill="#aaa"/><rect width="0.09615384615384616em" height="0.6836949963674541em" x="9.903846153846155vw" y="2.3163050036325457em" fill="#aaa"/></svg>