<?xml version="1.0" standalone="no"?>
<svg xmlns:xlink="http://www.w3.org/1999/xlink" xmlns="http://www.w3.org/2000/svg" class="topic-graph" style="width: 100em; height: 30em; text-align: center;"><rect width="0.9615384615384616em" height="1.945731523999943em" x="0em" y="28.054268476000058em" fill="#aaa"/><rect width="0.9615384615384616em" height="8.23460409393783em" x="0.9615384615384616em" y="21.765395906062167em" fill="#aaa"/><rect width="0.9615384615384616em" height="1.6868895421535712em" x="1.9230769230769231em" y="28.313110457846427em" fill="#aaa"/><rect width="0.9615384615384616em" height="4.697237236981568em" x="2.8846153846153846em" y="25.302762763018432em" fill="#aaa"/><rect width="0.9615384615384616em" height="2.9454163113452485em" x="3.8461538461538463em" y="27.054583688654752em" fill="#aaa"/><rect width="0.9615384615384616em" height="4.747025277936933em" x="4.8076923076923075em" y="25.252974722063065em" fill="#aaa"/><rect width="0.9615384615384616em" height="3.586568674903839em" x="5.769230769230769em" y="26.413431325096163em" fill="#aaa"/><rect width="0.9615384615384616em" height="0.5727455151090594em" x="6.730769230769231em" y="29.42725448489094em" fill="#aaa"/><rect width="0.9615384615384616em" height="8.664944429344812em" x="7.6923076923076925em" y="21.335055570655186em" fill="#aaa"/><rect width="0.9615384615384616em" height="11.062289004680007em" x="8.653846153846153em" y="18.937710995319993em" fill="#aaa"/><rect width="0.9615384615384616em" height="11.122438616915495em" x="9.615384615384615em" y="18.877561383084505em" fill="#aaa"/><rect width="0.9615384615384616em" height="15.397710795499762em" x="10.576923076923077em" y="14.602289204500238em" fill="#aaa"/><rect width="0.9615384615384616em" height="3.547981496257999em" x="11.538461538461538em" y="26.452018503742em" fill="#aaa"/><rect width="0.9615384615384616em" height="4.797624289223278em" x="12.5em" y="25.20237571077672em" fill="#aaa"/><rect width="0.9615384615384616em" height="8.50436938142049em" x="13.461538461538462em" y="21.49563061857951em" fill="#aaa"/><rect width="0.9615384615384616em" height="8.550274954511382em" x="14.423076923076923em" y="21.44972504548862em" fill="#aaa"/><rect width="0.9615384615384616em" height="7.038017866656771em" x="15.384615384615385em" y="22.961982133343227em" fill="#aaa"/><rect width="0.9615384615384616em" height="7.313522790004891em" x="16.346153846153847em" y="22.68647720999511em" fill="#aaa"/><rect width="0.9615384615384616em" height="4.266708681595722em" x="17.307692307692307em" y="25.733291318404277em" fill="#aaa"/><rect width="0.9615384615384616em" height="23.17793936050764em" x="18.26923076923077em" y="6.82206063949236em" fill="#aaa"/><rect width="0.9615384615384616em" height="11.998523217821312em" x="19.23076923076923em" y="18.00147678217869em" fill="#aaa"/><rect width="0.9615384615384616em" height="30em" x="20.192307692307693em" y="0em" fill="#aaa"/><rect width="0.9615384615384616em" height="4.658117016214717em" x="21.153846153846153em" y="25.341882983785283em" fill="#aaa"/><rect width="0.9615384615384616em" height="4.535017796667792em" x="22.115384615384617em" y="25.46498220333221em" fill="#aaa"/><rect width="0.9615384615384616em" height="2.384797361743844em" x="23.076923076923077em" y="27.615202638256157em" fill="#aaa"/><rect width="0.9615384615384616em" height="15.435550223038687em" x="24.03846153846154em" y="14.564449776961313em" fill="#aaa"/><rect width="0.9615384615384616em" height="9.601979427885345em" x="25em" y="20.398020572114653em" fill="#aaa"/><rect width="0.9615384615384616em" height="2.5651297443976775em" x="25.961538461538463em" y="27.434870255602323em" fill="#aaa"/><rect width="0.9615384615384616em" height="4.841385729506067em" x="26.923076923076923em" y="25.158614270493935em" fill="#aaa"/><rect width="0.9615384615384616em" height="9.013490059395115em" x="27.884615384615387em" y="20.986509940604883em" fill="#aaa"/><rect width="0.9615384615384616em" height="4.265638808922912em" x="28.846153846153847em" y="25.734361191077088em" fill="#aaa"/><rect width="0.9615384615384616em" height="1.1154558344839072em" x="29.80769230769231em" y="28.884544165516093em" fill="#aaa"/><rect width="0.9615384615384616em" height="6.228803617251801em" x="30.76923076923077em" y="23.7711963827482em" fill="#aaa"/><rect width="0.9615384615384616em" height="3.3529381558185714em" x="31.73076923076923em" y="26.64706184418143em" fill="#aaa"/><rect width="0.9615384615384616em" height="3.727778068711201em" x="32.69230769230769em" y="26.272221931288797em" fill="#aaa"/><rect width="0.9615384615384616em" height="2.489879429016115em" x="33.65384615384615em" y="27.510120570983887em" fill="#aaa"/><rect width="0.9615384615384616em" height="2.1589756478920474em" x="34.61538461538461em" y="27.84102435210795em" fill="#aaa"/><rect width="0.9615384615384616em" height="9.099910364563474em" x="35.57692307692308em" y="20.900089635436526em" fill="#aaa"/><rect width="0.9615384615384616em" height="8.278028200555742em" x="36.53846153846154em" y="21.72197179944426em" fill="#aaa"/><rect width="0.9615384615384616em" height="4.373462993432871em" x="37.5em" y="25.62653700656713em" fill="#aaa"/><rect width="0.9615384615384616em" height="7.089120072380592em" x="38.46153846153846em" y="22.91087992761941em" fill="#aaa"/><rect width="0.9615384615384616em" height="4.293267904657639em" x="39.42307692307693em" y="25.70673209534236em" fill="#aaa"/><rect width="0.9615384615384616em" height="8.139490751119704em" x="40.38461538461539em" y="21.860509248880298em" fill="#aaa"/><rect width="0.9615384615384616em" height="6.1169378282061455em" x="41.34615384615385em" y="23.883062171793853em" fill="#aaa"/><rect width="0.9615384615384616em" height="3.772441524431904em" x="42.30769230769231em" y="26.227558475568095em" fill="#aaa"/><rect width="0.9615384615384616em" height="4.44580531079971em" x="43.269230769230774em" y="25.55419468920029em" fill="#aaa"/><rect width="0.9615384615384616em" height="8.817338986322955em" x="44.23076923076923em" y="21.182661013677045em" fill="#aaa"/><rect width="0.9615384615384616em" height="3.5452055408079253em" x="45.19230769230769em" y="26.454794459192076em" fill="#aaa"/><rect width="0.9615384615384616em" height="9.791525378503366em" x="46.15384615384615em" y="20.208474621496634em" fill="#aaa"/><rect width="0.9615384615384616em" height="8.377981234515573em" x="47.11538461538461em" y="21.622018765484427em" fill="#aaa"/><rect width="0.9615384615384616em" height="7.657044807094597em" x="48.07692307692308em" y="22.342955192905404em" fill="#aaa"/><rect width="0.9615384615384616em" height="5.950577388512881em" x="49.03846153846154em" y="24.049422611487117em" fill="#aaa"/><rect width="0.9615384615384616em" height="4.473668174164204em" x="50em" y="25.526331825835797em" fill="#aaa"/><rect width="0.9615384615384616em" height="3.4015394407156716em" x="50.96153846153846em" y="26.598460559284327em" fill="#aaa"/><rect width="0.9615384615384616em" height="3.891385539501347em" x="51.92307692307693em" y="26.108614460498654em" fill="#aaa"/><rect width="0.9615384615384616em" height="2.9289732852083956em" x="52.88461538461539em" y="27.071026714791603em" fill="#aaa"/><rect width="0.9615384615384616em" height="7.650547051031385em" x="53.84615384615385em" y="22.349452948968615em" fill="#aaa"/><rect width="0.9615384615384616em" height="4.947337393834446em" x="54.80769230769231em" y="25.052662606165555em" fill="#aaa"/><rect width="0.9615384615384616em" height="9.833634141988759em" x="55.769230769230774em" y="20.16636585801124em" fill="#aaa"/><rect width="0.9615384615384616em" height="6.090841886374843em" x="56.73076923076923em" y="23.909158113625157em" fill="#aaa"/><rect width="0.9615384615384616em" height="9.51332927662771em" x="57.69230769230769em" y="20.486670723372292em" fill="#aaa"/><rect width="0.9615384615384616em" height="7.333469499638664em" x="58.65384615384615em" y="22.666530500361336em" fill="#aaa"/><rect width="0.9615384615384616em" height="8.283221581607242em" x="59.61538461538462em" y="21.716778418392757em" fill="#aaa"/><rect width="0.9615384615384616em" height="5.633678266945967em" x="60.57692307692308em" y="24.366321733054033em" fill="#aaa"/><rect width="0.9615384615384616em" height="5.8610564631557445em" x="61.53846153846154em" y="24.138943536844256em" fill="#aaa"/><rect width="0.9615384615384616em" height="10.213078754172967em" x="62.5em" y="19.78692124582703em" fill="#aaa"/><rect width="0.9615384615384616em" height="5.7023381205764645em" x="63.46153846153846em" y="24.297661879423536em" fill="#aaa"/><rect width="0.9615384615384616em" height="9.767849612000315em" x="64.42307692307692em" y="20.232150387999685em" fill="#aaa"/><rect width="0.9615384615384616em" height="6.46094148402005em" x="65.38461538461539em" y="23.53905851597995em" fill="#aaa"/><rect width="0.9615384615384616em" height="5.531784706309774em" x="66.34615384615385em" y="24.468215293690225em" fill="#aaa"/><rect width="0.9615384615384616em" height="13.812092441097668em" x="67.3076923076923em" y="16.18790755890233em" fill="#aaa"/><rect width="0.9615384615384616em" height="5.306700706737893em" x="68.26923076923077em" y="24.693299293262108em" fill="#aaa"/><rect width="0.9615384615384616em" height="3.5407462569966675em" x="69.23076923076923em" y="26.459253743003334em" fill="#aaa"/><rect width="0.9615384615384616em" height="6.741375476374803em" x="70.1923076923077em" y="23.258624523625198em" fill="#aaa"/><rect width="0.9615384615384616em" height="3.5530967074721724em" x="71.15384615384616em" y="26.44690329252783em" fill="#aaa"/><rect width="0.9615384615384616em" height="5.778609402441862em" x="72.11538461538461em" y="24.221390597558138em" fill="#aaa"/><rect width="0.9615384615384616em" height="4.63740541723744em" x="73.07692307692308em" y="25.36259458276256em" fill="#aaa"/><rect width="0.9615384615384616em" height="3.197922587523468em" x="74.03846153846155em" y="26.80207741247653em" fill="#aaa"/><rect width="0.9615384615384616em" height="6.232645761445775em" x="75em" y="23.767354238554226em" fill="#aaa"/><rect width="0.9615384615384616em" height="3.4289353703492185em" x="75.96153846153847em" y="26.57106462965078em" fill="#aaa"/><rect width="0.9615384615384616em" height="5.214978450033757em" x="76.92307692307692em" y="24.785021549966242em" fill="#aaa"/><rect width="0.9615384615384616em" height="9.173574635033438em" x="77.88461538461539em" y="20.82642536496656em" fill="#aaa"/><rect width="0.9615384615384616em" height="7.9051833297945455em" x="78.84615384615385em" y="22.094816670205454em" fill="#aaa"/><rect width="0.9615384615384616em" height="12.181972790616314em" x="79.8076923076923em" y="17.818027209383686em" fill="#aaa"/><rect width="0.9615384615384616em" height="9.663895203245222em" x="80.76923076923077em" y="20.33610479675478em" fill="#aaa"/><rect width="0.9615384615384616em" height="6.642179717463475em" x="81.73076923076923em" y="23.357820282536526em" fill="#aaa"/><rect width="0.9615384615384616em" height="7.507728481312587em" x="82.6923076923077em" y="22.492271518687414em" fill="#aaa"/><rect width="0.9615384615384616em" height="4.523182898289775em" x="83.65384615384616em" y="25.476817101710225em" fill="#aaa"/><rect width="0.9615384615384616em" height="7.9185885346375064em" x="84.61538461538461em" y="22.081411465362493em" fill="#aaa"/><rect width="0.9615384615384616em" height="9.301894916675682em" x="85.57692307692308em" y="20.698105083324318em" fill="#aaa"/><rect width="0.9615384615384616em" height="7.652468084381928em" x="86.53846153846155em" y="22.34753191561807em" fill="#aaa"/><rect width="0.9615384615384616em" height="8.86426376239137em" x="87.5em" y="21.13573623760863em" fill="#aaa"/><rect width="0.9615384615384616em" height="8.355588600143342em" x="88.46153846153847em" y="21.644411399856658em" fill="#aaa"/><rect width="0.9615384615384616em" height="10.879376524324073em" x="89.42307692307692em" y="19.120623475675927em" fill="#aaa"/><rect width="0.9615384615384616em" height="10.040638882970786em" x="90.38461538461539em" y="19.959361117029214em" fill="#aaa"/><rect width="0.9615384615384616em" height="5.165689827967539em" x="91.34615384615385em" y="24.83431017203246em" fill="#aaa"/><rect width="0.9615384615384616em" height="6.905336514114091em" x="92.3076923076923em" y="23.09466348588591em" fill="#aaa"/><rect width="0.9615384615384616em" height="6.602183959974492em" x="93.26923076923077em" y="23.397816040025507em" fill="#aaa"/><rect width="0.9615384615384616em" height="5.647200008494558em" x="94.23076923076923em" y="24.352799991505442em" fill="#aaa"/><rect width="0.9615384615384616em" height="5.962576053754057em" x="95.1923076923077em" y="24.037423946245944em" fill="#aaa"/><rect width="0.9615384615384616em" height="4.792915515861637em" x="96.15384615384616em" y="25.207084484138363em" fill="#aaa"/><rect width="0.9615384615384616em" height="10.665847687804158em" x="97.11538461538461em" y="19.33415231219584em" fill="#aaa"/><rect width="0.9615384615384616em" height="8.40430388783521em" x="98.07692307692308em" y="21.595696112164788em" fill="#aaa"/><rect width="0.9615384615384616em" height="10.741386494665367em" x="99.03846153846155em" y="19.258613505334633em" fill="#aaa"/></svg>