<?xml version="1.0" standalone="no"?>
<svg xmlns:xlink="http://www.w3.org/1999/xlink" xmlns="http://www.w3.org/2000/svg" class="topic-graph" style="width: 10vw; height: 3em; text-align: center;"><rect width="0.09615384615384616em" height="0.09006158137350592em" x="0vw" y="2.9099384186264943em" fill="#aaa"/><rect width="0.09615384615384616em" height="0.2547741604490396em" x="0.09615384615384616vw" y="2.7452258395509603em" fill="#aaa"/><rect width="0.09615384615384616em" height="0.7290873609746304em" x="0.19230769230769232vw" y="2.2709126390253696em" fill="#aaa"/><rect width="0.09615384615384616em" height="0.01797420340569254em" x="0.2884615384615385vw" y="2.9820257965943076em" fill="#aaa"/><rect width="0.09615384615384616em" height="0.11674046638678201em" x="0.38461538461538464vw" y="2.883259533613218em" fill="#aaa"/><rect width="0.09615384615384616em" height="0.5751704767850057em" x="0.4807692307692308vw" y="2.4248295232149943em" fill="#aaa"/><rect width="0.09615384615384616em" height="0.604527964083176em" x="0.576923076923077vw" y="2.395472035916824em" fill="#aaa"/><rect width="0.09615384615384616em" height="0.09233123076354094em" x="0.6730769230769231vw" y="2.907668769236459em" fill="#aaa"/><rect width="0.09615384615384616em" height="2.5433950115375628em" x="0.7692307692307693vw" y="0.45660498846243724em" fill="#aaa"/><rect width="0.09615384615384616em" height="1.4464940855282105em" x="0.8653846153846154vw" y="1.5535059144717895em" fill="#aaa"/><rect width="0.09615384615384616em" height="0.670245846736694em" x="0.9615384615384616vw" y="2.329754153263306em" fill="#aaa"/><rect width="0.09615384615384616em" height="0.14893209579099892em" x="1.0576923076923077vw" y="2.851067904209001em" fill="#aaa"/><rect width="0.09615384615384616em" height="0.736592094085666em" x="1.153846153846154vw" y="2.263407905914334em" fill="#aaa"/><rect width="0.09615384615384616em" height="0.602422648825059em" x="1.25vw" y="2.3975773511749408em" fill="#aaa"/><rect width="0.09615384615384616em" height="0.36706427785842394em" x="1.3461538461538463vw" y="2.632935722141576em" fill="#aaa"/><rect width="0.09615384615384616em" height="0.33207285796841374em" x="1.4423076923076923vw" y="2.667927142031586em" fill="#aaa"/><rect width="0.09615384615384616em" height="0.7054580255996362em" x="1.5384615384615385vw" y="2.2945419744003637em" fill="#aaa"/><rect width="0.09615384615384616em" height="0.6385478677544854em" x="1.6346153846153848vw" y="2.361452132245515em" fill="#aaa"/><rect width="0.09615384615384616em" height="0.3454938971020837em" x="1.7307692307692308vw" y="2.6545061028979164em" fill="#aaa"/><rect width="0.09615384615384616em" height="1.3667810979473725em" x="1.826923076923077vw" y="1.6332189020526275em" fill="#aaa"/><rect width="0.09615384615384616em" height="2.2746593836687667em" x="1.9230769230769231vw" y="0.7253406163312333em" fill="#aaa"/><rect width="0.09615384615384616em" height="0.9969811916445928em" x="2.019230769230769vw" y="2.0030188083554075em" fill="#aaa"/><rect width="0.09615384615384616em" height="1.228991549647666em" x="2.1153846153846154vw" y="1.771008450352334em" fill="#aaa"/><rect width="0.09615384615384616em" height="3em" x="2.2115384615384617vw" y="0em" fill="#aaa"/><rect width="0.09615384615384616em" height="0.5785691395649669em" x="2.307692307692308vw" y="2.421430860435033em" fill="#aaa"/><rect width="0.09615384615384616em" height="0.2777162990661616em" x="2.403846153846154vw" y="2.7222837009338385em" fill="#aaa"/><rect width="0.09615384615384616em" height="0.1263100829629858em" x="2.5vw" y="2.873689917037014em" fill="#aaa"/><rect width="0.09615384615384616em" height="0.8989931601270478em" x="2.5961538461538463vw" y="2.1010068398729524em" fill="#aaa"/><rect width="0.09615384615384616em" height="0.753720393716373em" x="2.6923076923076925vw" y="2.246279606283627em" fill="#aaa"/><rect width="0.09615384615384616em" height="1.1786628392164842em" x="2.7884615384615388vw" y="1.8213371607835158em" fill="#aaa"/><rect width="0.09615384615384616em" height="0.46935170900869233em" x="2.8846153846153846vw" y="2.5306482909913077em" fill="#aaa"/><rect width="0.09615384615384616em" height="0.8868425187241935em" x="2.980769230769231vw" y="2.1131574812758065em" fill="#aaa"/><rect width="0.09615384615384616em" height="0.30406758216185215em" x="3.076923076923077vw" y="2.695932417838148em" fill="#aaa"/><rect width="0.09615384615384616em" height="0.517034005281665em" x="3.1730769230769234vw" y="2.482965994718335em" fill="#aaa"/><rect width="0.09615384615384616em" height="0.28852573804463666em" x="3.2692307692307696vw" y="2.711474261955363em" fill="#aaa"/><rect width="0.09615384615384616em" height="0.26617244016542563em" x="3.3653846153846154vw" y="2.7338275598345745em" fill="#aaa"/><rect width="0.09615384615384616em" height="0.4952015365612269em" x="3.4615384615384617vw" y="2.504798463438773em" fill="#aaa"/><rect width="0.09615384615384616em" height="0.42892091518742054em" x="3.557692307692308vw" y="2.5710790848125793em" fill="#aaa"/><rect width="0.09615384615384616em" height="0.0793723732598042em" x="3.653846153846154vw" y="2.920627626740196em" fill="#aaa"/><rect width="0.09615384615384616em" height="0.17166180012115326em" x="3.75vw" y="2.828338199878847em" fill="#aaa"/><rect width="0.09615384615384616em" height="0.1575287183291808em" x="3.8461538461538463vw" y="2.8424712816708193em" fill="#aaa"/><rect width="0.09615384615384616em" height="1.5807209225785188em" x="3.9423076923076925vw" y="1.4192790774214812em" fill="#aaa"/><rect width="0.09615384615384616em" height="1.185524267064819em" x="4.038461538461538vw" y="1.814475732935181em" fill="#aaa"/><rect width="0.09615384615384616em" height="0.12740326476831448em" x="4.134615384615385vw" y="2.8725967352316855em" fill="#aaa"/><rect width="0.09615384615384616em" height="0.13154943001572808em" x="4.230769230769231vw" y="2.868450569984272em" fill="#aaa"/><rect width="0.09615384615384616em" height="0.41401810889242674em" x="4.3269230769230775vw" y="2.5859818911075734em" fill="#aaa"/><rect width="0.09615384615384616em" height="0.12604448543651187em" x="4.423076923076923vw" y="2.8739555145634883em" fill="#aaa"/><rect width="0.09615384615384616em" height="0.2977109065053596em" x="4.519230769230769vw" y="2.7022890934946404em" fill="#aaa"/><rect width="0.09615384615384616em" height="0.19240254369964063em" x="4.615384615384616vw" y="2.807597456300359em" fill="#aaa"/><rect width="0.09615384615384616em" height="0.3198097680609993em" x="4.711538461538462vw" y="2.6801902319390005em" fill="#aaa"/><rect width="0.09615384615384616em" height="0.1448610495561603em" x="4.807692307692308vw" y="2.85513895044384em" fill="#aaa"/><rect width="0.09615384615384616em" height="0.3546332945963609em" x="4.903846153846154vw" y="2.645366705403639em" fill="#aaa"/><rect width="0.09615384615384616em" height="0.2124465326816432em" x="5vw" y="2.787553467318357em" fill="#aaa"/><rect width="0.09615384615384616em" height="0.19391623966926697em" x="5.096153846153847vw" y="2.806083760330733em" fill="#aaa"/><rect width="0.09615384615384616em" height="0.26016463706083903em" x="5.1923076923076925vw" y="2.7398353629391607em" fill="#aaa"/><rect width="0.09615384615384616em" height="0.4039790592756717em" x="5.288461538461538vw" y="2.5960209407243284em" fill="#aaa"/><rect width="0.09615384615384616em" height="0.4292817168243168em" x="5.384615384615385vw" y="2.570718283175683em" fill="#aaa"/><rect width="0.09615384615384616em" height="0.6975940306296766em" x="5.480769230769231vw" y="2.3024059693703234em" fill="#aaa"/><rect width="0.09615384615384616em" height="1.0704792884330403em" x="5.5769230769230775vw" y="1.9295207115669597em" fill="#aaa"/><rect width="0.09615384615384616em" height="0.5841631545195252em" x="5.673076923076923vw" y="2.4158368454804746em" fill="#aaa"/><rect width="0.09615384615384616em" height="0.33926428241317863em" x="5.769230769230769vw" y="2.6607357175868214em" fill="#aaa"/><rect width="0.09615384615384616em" height="0.44914370170986917em" x="5.865384615384616vw" y="2.550856298290131em" fill="#aaa"/><rect width="0.09615384615384616em" height="0.9020722846210267em" x="5.961538461538462vw" y="2.0979277153789733em" fill="#aaa"/><rect width="0.09615384615384616em" height="0.5431874258881239em" x="6.057692307692308vw" y="2.456812574111876em" fill="#aaa"/><rect width="0.09615384615384616em" height="0.30664271482893135em" x="6.153846153846154vw" y="2.6933572851710688em" fill="#aaa"/><rect width="0.09615384615384616em" height="0.39694049042452795em" x="6.25vw" y="2.603059509575472em" fill="#aaa"/><rect width="0.09615384615384616em" height="0.1709361270656915em" x="6.346153846153847vw" y="2.8290638729343085em" fill="#aaa"/><rect width="0.09615384615384616em" height="0.29843114760688383em" x="6.4423076923076925vw" y="2.701568852393116em" fill="#aaa"/><rect width="0.09615384615384616em" height="0.4025209380766629em" x="6.538461538461539vw" y="2.597479061923337em" fill="#aaa"/><rect width="0.09615384615384616em" height="0.2644779423980475em" x="6.634615384615385vw" y="2.7355220576019526em" fill="#aaa"/><rect width="0.09615384615384616em" height="0.42856987474323077em" x="6.730769230769231vw" y="2.5714301252567693em" fill="#aaa"/><rect width="0.09615384615384616em" height="0.4574843096973218em" x="6.8269230769230775vw" y="2.542515690302678em" fill="#aaa"/><rect width="0.09615384615384616em" height="0.4679815293414842em" x="6.923076923076923vw" y="2.5320184706585156em" fill="#aaa"/><rect width="0.09615384615384616em" height="0.4309295374681046em" x="7.01923076923077vw" y="2.5690704625318954em" fill="#aaa"/><rect width="0.09615384615384616em" height="1.1237863393241674em" x="7.115384615384616vw" y="1.8762136606758326em" fill="#aaa"/><rect width="0.09615384615384616em" height="0.84449288754954em" x="7.211538461538462vw" y="2.15550711245046em" fill="#aaa"/><rect width="0.09615384615384616em" height="0.5427629325866619em" x="7.307692307692308vw" y="2.457237067413338em" fill="#aaa"/><rect width="0.09615384615384616em" height="0.5826855979764195em" x="7.403846153846154vw" y="2.4173144020235804em" fill="#aaa"/><rect width="0.09615384615384616em" height="0.4821594283054309em" x="7.5vw" y="2.517840571694569em" fill="#aaa"/><rect width="0.09615384615384616em" height="0.6924133310355691em" x="7.596153846153847vw" y="2.307586668964431em" fill="#aaa"/><rect width="0.09615384615384616em" height="0.22567174852478422em" x="7.6923076923076925vw" y="2.774328251475216em" fill="#aaa"/><rect width="0.09615384615384616em" height="0.2060754402246121em" x="7.788461538461539vw" y="2.793924559775388em" fill="#aaa"/><rect width="0.09615384615384616em" height="0.3718381592159212em" x="7.884615384615385vw" y="2.6281618407840788em" fill="#aaa"/><rect width="0.09615384615384616em" height="0.26312369367325694em" x="7.980769230769231vw" y="2.736876306326743em" fill="#aaa"/><rect width="0.09615384615384616em" height="0.6189024391178026em" x="8.076923076923077vw" y="2.381097560882197em" fill="#aaa"/><rect width="0.09615384615384616em" height="0.29857813881836975em" x="8.173076923076923vw" y="2.7014218611816303em" fill="#aaa"/><rect width="0.09615384615384616em" height="0.17471998889515414em" x="8.26923076923077vw" y="2.8252800111048457em" fill="#aaa"/><rect width="0.09615384615384616em" height="0.12960207130847268em" x="8.365384615384615vw" y="2.8703979286915273em" fill="#aaa"/><rect width="0.09615384615384616em" height="0.1793433484983876em" x="8.461538461538462vw" y="2.8206566515016123em" fill="#aaa"/><rect width="0.09615384615384616em" height="0.12443929032453104em" x="8.557692307692308vw" y="2.875560709675469em" fill="#aaa"/><rect width="0.09615384615384616em" height="0.18457176167230588em" x="8.653846153846155vw" y="2.8154282383276943em" fill="#aaa"/><rect width="0.09615384615384616em" height="0.2252471090599344em" x="8.75vw" y="2.7747528909400656em" fill="#aaa"/><rect width="0.09615384615384616em" height="0.2577018205259454em" x="8.846153846153847vw" y="2.7422981794740546em" fill="#aaa"/><rect width="0.09615384615384616em" height="0.3737958052365259em" x="8.942307692307693vw" y="2.626204194763474em" fill="#aaa"/><rect width="0.09615384615384616em" height="0.15288616670804966em" x="9.038461538461538vw" y="2.8471138332919503em" fill="#aaa"/><rect width="0.09615384615384616em" height="0.3697809427990294em" x="9.134615384615385vw" y="2.6302190572009705em" fill="#aaa"/><rect width="0.09615384615384616em" height="0.29829961275541206em" x="9.230769230769232vw" y="2.701700387244588em" fill="#aaa"/><rect width="0.09615384615384616em" height="0.32243407608869773em" x="9.326923076923077vw" y="2.677565923911302em" fill="#aaa"/><rect width="0.09615384615384616em" height="0.2761221442211632em" x="9.423076923076923vw" y="2.723877855778837em" fill="#aaa"/><rect width="0.09615384615384616em" height="0.43569149826666653em" x="9.51923076923077vw" y="2.5643085017333336em" fill="#aaa"/><rect width="0.09615384615384616em" height="0.45396195487729857em" x="9.615384615384617vw" y="2.5460380451227014em" fill="#aaa"/><rect width="0.09615384615384616em" height="0.4213422049501231em" x="9.711538461538462vw" y="2.578657795049877em" fill="#aaa"/><rect width="0.09615384615384616em" height="0.3179361801975085em" x="9.807692307692308vw" y="2.6820638198024915em" fill="#aaa"/><rect width="0.09615384615384616em" height="0.4361676267672431em" x="9.903846153846155vw" y="2.563832373232757em" fill="#aaa"/></svg>