<?xml version="1.0" standalone="no"?>
<svg xmlns:xlink="http://www.w3.org/1999/xlink" xmlns="http://www.w3.org/2000/svg" class="topic-graph" style="width: 10vw; height: 3em; text-align: center;"><rect width="0.09615384615384616em" height="0.09423188885658562em" x="0vw" y="2.9057681111434146em" fill="#aaa"/><rect width="0.09615384615384616em" height="0.11533062819478948em" x="0.09615384615384616vw" y="2.8846693718052103em" fill="#aaa"/><rect width="0.09615384615384616em" height="0.18873979255670617em" x="0.19230769230769232vw" y="2.811260207443294em" fill="#aaa"/><rect width="0.09615384615384616em" height="0.788315643873289em" x="0.2884615384615385vw" y="2.211684356126711em" fill="#aaa"/><rect width="0.09615384615384616em" height="0.5296906111191849em" x="0.38461538461538464vw" y="2.470309388880815em" fill="#aaa"/><rect width="0.09615384615384616em" height="0.4766413312920277em" x="0.4807692307692308vw" y="2.5233586687079725em" fill="#aaa"/><rect width="0.09615384615384616em" height="0.9769083233775218em" x="0.576923076923077vw" y="2.023091676622478em" fill="#aaa"/><rect width="0.09615384615384616em" height="1.59628188489751em" x="0.6730769230769231vw" y="1.40371811510249em" fill="#aaa"/><rect width="0.09615384615384616em" height="0.354670650621715em" x="0.7692307692307693vw" y="2.645329349378285em" fill="#aaa"/><rect width="0.09615384615384616em" height="0.8869815113977046em" x="0.8653846153846154vw" y="2.1130184886022954em" fill="#aaa"/><rect width="0.09615384615384616em" height="0.21448574229242867em" x="0.9615384615384616vw" y="2.7855142577075713em" fill="#aaa"/><rect width="0.09615384615384616em" height="0.8740234936690832em" x="1.0576923076923077vw" y="2.125976506330917em" fill="#aaa"/><rect width="0.09615384615384616em" height="0.44681752030239996em" x="1.153846153846154vw" y="2.5531824796976em" fill="#aaa"/><rect width="0.09615384615384616em" height="1.7616503288451528em" x="1.25vw" y="1.2383496711548472em" fill="#aaa"/><rect width="0.09615384615384616em" height="1.7248486653479795em" x="1.3461538461538463vw" y="1.2751513346520205em" fill="#aaa"/><rect width="0.09615384615384616em" height="1.0130422145351925em" x="1.4423076923076923vw" y="1.9869577854648075em" fill="#aaa"/><rect width="0.09615384615384616em" height="0.9097296846381104em" x="1.5384615384615385vw" y="2.09027031536189em" fill="#aaa"/><rect width="0.09615384615384616em" height="2.689748900972236em" x="1.6346153846153848vw" y="0.3102510990277638em" fill="#aaa"/><rect width="0.09615384615384616em" height="2.425593152498103em" x="1.7307692307692308vw" y="0.5744068475018969em" fill="#aaa"/><rect width="0.09615384615384616em" height="0.9870708516824366em" x="1.826923076923077vw" y="2.0129291483175633em" fill="#aaa"/><rect width="0.09615384615384616em" height="0.4867556336153931em" x="1.9230769230769231vw" y="2.513244366384607em" fill="#aaa"/><rect width="0.09615384615384616em" height="0.4187358283680077em" x="2.019230769230769vw" y="2.581264171631992em" fill="#aaa"/><rect width="0.09615384615384616em" height="1.202532339230662em" x="2.1153846153846154vw" y="1.797467660769338em" fill="#aaa"/><rect width="0.09615384615384616em" height="1.3317945141486425em" x="2.2115384615384617vw" y="1.6682054858513575em" fill="#aaa"/><rect width="0.09615384615384616em" height="3em" x="2.307692307692308vw" y="0em" fill="#aaa"/><rect width="0.09615384615384616em" height="1.359080149150558em" x="2.403846153846154vw" y="1.640919850849442em" fill="#aaa"/><rect width="0.09615384615384616em" height="0.9069624981502602em" x="2.5vw" y="2.09303750184974em" fill="#aaa"/><rect width="0.09615384615384616em" height="0.49253465901490934em" x="2.5961538461538463vw" y="2.5074653409850907em" fill="#aaa"/><rect width="0.09615384615384616em" height="0.8236867287442526em" x="2.6923076923076925vw" y="2.176313271255747em" fill="#aaa"/><rect width="0.09615384615384616em" height="0.6852492823099948em" x="2.7884615384615388vw" y="2.3147507176900053em" fill="#aaa"/><rect width="0.09615384615384616em" height="0.19120123665184902em" x="2.8846153846153846vw" y="2.808798763348151em" fill="#aaa"/><rect width="0.09615384615384616em" height="0.40772286143986447em" x="2.980769230769231vw" y="2.5922771385601355em" fill="#aaa"/><rect width="0.09615384615384616em" height="0.399224173219915em" x="3.076923076923077vw" y="2.600775826780085em" fill="#aaa"/><rect width="0.09615384615384616em" height="0.46510560601171325em" x="3.1730769230769234vw" y="2.534894393988287em" fill="#aaa"/><rect width="0.09615384615384616em" height="0.2958847829853528em" x="3.2692307692307696vw" y="2.704115217014647em" fill="#aaa"/><rect width="0.09615384615384616em" height="0.32449951376627917em" x="3.3653846153846154vw" y="2.675500486233721em" fill="#aaa"/><rect width="0.09615384615384616em" height="0.32472892277984566em" x="3.4615384615384617vw" y="2.6752710772201542em" fill="#aaa"/><rect width="0.09615384615384616em" height="0.307363985766273em" x="3.557692307692308vw" y="2.692636014233727em" fill="#aaa"/><rect width="0.09615384615384616em" height="0.352213659329602em" x="3.653846153846154vw" y="2.647786340670398em" fill="#aaa"/><rect width="0.09615384615384616em" height="0.1446716472839217em" x="3.75vw" y="2.855328352716078em" fill="#aaa"/><rect width="0.09615384615384616em" height="0.20547175203570867em" x="3.8461538461538463vw" y="2.7945282479642914em" fill="#aaa"/><rect width="0.09615384615384616em" height="0.5105962272028488em" x="3.9423076923076925vw" y="2.489403772797151em" fill="#aaa"/><rect width="0.09615384615384616em" height="0.2193277492808292em" x="4.038461538461538vw" y="2.780672250719171em" fill="#aaa"/><rect width="0.09615384615384616em" height="1.4860539851734047em" x="4.134615384615385vw" y="1.5139460148265953em" fill="#aaa"/><rect width="0.09615384615384616em" height="1.462094707611148em" x="4.230769230769231vw" y="1.537905292388852em" fill="#aaa"/><rect width="0.09615384615384616em" height="1.006138175391786em" x="4.3269230769230775vw" y="1.993861824608214em" fill="#aaa"/><rect width="0.09615384615384616em" height="0.5841797879112918em" x="4.423076923076923vw" y="2.4158202120887085em" fill="#aaa"/><rect width="0.09615384615384616em" height="0.320986452267477em" x="4.519230769230769vw" y="2.6790135477325228em" fill="#aaa"/><rect width="0.09615384615384616em" height="0.32039322297013567em" x="4.615384615384616vw" y="2.679606777029864em" fill="#aaa"/><rect width="0.09615384615384616em" height="0.20190959257581034em" x="4.711538461538462vw" y="2.7980904074241897em" fill="#aaa"/><rect width="0.09615384615384616em" height="0.3255662425491315em" x="4.807692307692308vw" y="2.6744337574508683em" fill="#aaa"/><rect width="0.09615384615384616em" height="0.34115623429679826em" x="4.903846153846154vw" y="2.658843765703202em" fill="#aaa"/><rect width="0.09615384615384616em" height="0.46404579667467816em" x="5vw" y="2.5359542033253217em" fill="#aaa"/><rect width="0.09615384615384616em" height="0.4321583587675846em" x="5.096153846153847vw" y="2.567841641232415em" fill="#aaa"/><rect width="0.09615384615384616em" height="0.8565412288828136em" x="5.1923076923076925vw" y="2.1434587711171864em" fill="#aaa"/><rect width="0.09615384615384616em" height="0.4435962302451052em" x="5.288461538461538vw" y="2.556403769754895em" fill="#aaa"/><rect width="0.09615384615384616em" height="0.7236401233446675em" x="5.384615384615385vw" y="2.2763598766553326em" fill="#aaa"/><rect width="0.09615384615384616em" height="0.6060453777536564em" x="5.480769230769231vw" y="2.3939546222463437em" fill="#aaa"/><rect width="0.09615384615384616em" height="0.2625603085954165em" x="5.5769230769230775vw" y="2.7374396914045835em" fill="#aaa"/><rect width="0.09615384615384616em" height="0.36054689733828615em" x="5.673076923076923vw" y="2.639453102661714em" fill="#aaa"/><rect width="0.09615384615384616em" height="0.20672142580302016em" x="5.769230769230769vw" y="2.7932785741969797em" fill="#aaa"/><rect width="0.09615384615384616em" height="0.23849593174988684em" x="5.865384615384616vw" y="2.761504068250113em" fill="#aaa"/><rect width="0.09615384615384616em" height="0.18074446526190469em" x="5.961538461538462vw" y="2.819255534738095em" fill="#aaa"/><rect width="0.09615384615384616em" height="0.42315803753546044em" x="6.057692307692308vw" y="2.5768419624645396em" fill="#aaa"/><rect width="0.09615384615384616em" height="0.4309095662419436em" x="6.153846153846154vw" y="2.5690904337580562em" fill="#aaa"/><rect width="0.09615384615384616em" height="0.4848931321156728em" x="6.25vw" y="2.5151068678843274em" fill="#aaa"/><rect width="0.09615384615384616em" height="0.40189348616095233em" x="6.346153846153847vw" y="2.598106513839048em" fill="#aaa"/><rect width="0.09615384615384616em" height="0.24466795780184025em" x="6.4423076923076925vw" y="2.7553320421981597em" fill="#aaa"/><rect width="0.09615384615384616em" height="0.3488393085102796em" x="6.538461538461539vw" y="2.6511606914897206em" fill="#aaa"/><rect width="0.09615384615384616em" height="0.2738883999646986em" x="6.634615384615385vw" y="2.7261116000353014em" fill="#aaa"/><rect width="0.09615384615384616em" height="0.2675898011237715em" x="6.730769230769231vw" y="2.7324101988762286em" fill="#aaa"/><rect width="0.09615384615384616em" height="0.17006993361794676em" x="6.8269230769230775vw" y="2.8299300663820532em" fill="#aaa"/><rect width="0.09615384615384616em" height="0.38077708140123256em" x="6.923076923076923vw" y="2.6192229185987674em" fill="#aaa"/><rect width="0.09615384615384616em" height="0.1596524501589571em" x="7.01923076923077vw" y="2.840347549841043em" fill="#aaa"/><rect width="0.09615384615384616em" height="0.4580597339041105em" x="7.115384615384616vw" y="2.5419402660958896em" fill="#aaa"/><rect width="0.09615384615384616em" height="0.24449598915598986em" x="7.211538461538462vw" y="2.7555040108440103em" fill="#aaa"/><rect width="0.09615384615384616em" height="0.24120659230984892em" x="7.307692307692308vw" y="2.7587934076901512em" fill="#aaa"/><rect width="0.09615384615384616em" height="0.12498480666958615em" x="7.403846153846154vw" y="2.8750151933304138em" fill="#aaa"/><rect width="0.09615384615384616em" height="0.2709923728573189em" x="7.5vw" y="2.729007627142681em" fill="#aaa"/><rect width="0.09615384615384616em" height="0.228996485222287em" x="7.596153846153847vw" y="2.7710035147777132em" fill="#aaa"/><rect width="0.09615384615384616em" height="0.31117360896821944em" x="7.6923076923076925vw" y="2.6888263910317804em" fill="#aaa"/><rect width="0.09615384615384616em" height="0.24386398850527563em" x="7.788461538461539vw" y="2.7561360114947244em" fill="#aaa"/><rect width="0.09615384615384616em" height="0.26572758214413583em" x="7.884615384615385vw" y="2.7342724178558644em" fill="#aaa"/><rect width="0.09615384615384616em" height="0.19515064517418532em" x="7.980769230769231vw" y="2.804849354825815em" fill="#aaa"/><rect width="0.09615384615384616em" height="0.265441370109695em" x="8.076923076923077vw" y="2.734558629890305em" fill="#aaa"/><rect width="0.09615384615384616em" height="0.2042444101391686em" x="8.173076923076923vw" y="2.7957555898608315em" fill="#aaa"/><rect width="0.09615384615384616em" height="0.23008664326439568em" x="8.26923076923077vw" y="2.7699133567356045em" fill="#aaa"/><rect width="0.09615384615384616em" height="0.258661444184143em" x="8.365384615384615vw" y="2.741338555815857em" fill="#aaa"/><rect width="0.09615384615384616em" height="0.21559001076338447em" x="8.461538461538462vw" y="2.7844099892366154em" fill="#aaa"/><rect width="0.09615384615384616em" height="0.18145009999394213em" x="8.557692307692308vw" y="2.818549900006058em" fill="#aaa"/><rect width="0.09615384615384616em" height="0.179403660582793em" x="8.653846153846155vw" y="2.820596339417207em" fill="#aaa"/><rect width="0.09615384615384616em" height="0.1940814282147302em" x="8.75vw" y="2.80591857178527em" fill="#aaa"/><rect width="0.09615384615384616em" height="0.20697015916019756em" x="8.846153846153847vw" y="2.7930298408398024em" fill="#aaa"/><rect width="0.09615384615384616em" height="0.13957083813779703em" x="8.942307692307693vw" y="2.860429161862203em" fill="#aaa"/><rect width="0.09615384615384616em" height="0.17539715182907725em" x="9.038461538461538vw" y="2.824602848170923em" fill="#aaa"/><rect width="0.09615384615384616em" height="0.15733034364437426em" x="9.134615384615385vw" y="2.8426696563556257em" fill="#aaa"/><rect width="0.09615384615384616em" height="0.16354512595607398em" x="9.230769230769232vw" y="2.836454874043926em" fill="#aaa"/><rect width="0.09615384615384616em" height="0.15115935916307416em" x="9.326923076923077vw" y="2.848840640836926em" fill="#aaa"/><rect width="0.09615384615384616em" height="0.21722536500077683em" x="9.423076923076923vw" y="2.7827746349992233em" fill="#aaa"/><rect width="0.09615384615384616em" height="0.29753776831119em" x="9.51923076923077vw" y="2.70246223168881em" fill="#aaa"/><rect width="0.09615384615384616em" height="0.2239022653962202em" x="9.615384615384617vw" y="2.7760977346037796em" fill="#aaa"/><rect width="0.09615384615384616em" height="0.3009163139413801em" x="9.711538461538462vw" y="2.69908368605862em" fill="#aaa"/><rect width="0.09615384615384616em" height="0.3070748509601111em" x="9.807692307692308vw" y="2.6929251490398887em" fill="#aaa"/><rect width="0.09615384615384616em" height="0.312114639100392em" x="9.903846153846155vw" y="2.687885360899608em" fill="#aaa"/></svg>