<?xml version="1.0" standalone="no"?>
<svg xmlns:xlink="http://www.w3.org/1999/xlink" xmlns="http://www.w3.org/2000/svg" class="topic-graph" style="width: 100em; height: 30em; text-align: center;"><rect width="0.9615384615384616em" height="0.3442963654646039em" x="0em" y="29.655703634535396em" fill="#aaa"/><rect width="0.9615384615384616em" height="4.35336221761709em" x="0.9615384615384616em" y="25.64663778238291em" fill="#aaa"/><rect width="0.9615384615384616em" height="2.383481099484843em" x="1.9230769230769231em" y="27.616518900515157em" fill="#aaa"/><rect width="0.9615384615384616em" height="1.078431088973733em" x="2.8846153846153846em" y="28.921568911026267em" fill="#aaa"/><rect width="0.9615384615384616em" height="0.8741956391622466em" x="3.8461538461538463em" y="29.125804360837755em" fill="#aaa"/><rect width="0.9615384615384616em" height="0.2397084856403311em" x="4.8076923076923075em" y="29.76029151435967em" fill="#aaa"/><rect width="0.9615384615384616em" height="2.0051401660296646em" x="5.769230769230769em" y="27.994859833970335em" fill="#aaa"/><rect width="0.9615384615384616em" height="0.9053381843050411em" x="6.730769230769231em" y="29.09466181569496em" fill="#aaa"/><rect width="0.9615384615384616em" height="11.4825582765517em" x="7.6923076923076925em" y="18.5174417234483em" fill="#aaa"/><rect width="0.9615384615384616em" height="1.2848363149290998em" x="8.653846153846153em" y="28.715163685070902em" fill="#aaa"/><rect width="0.9615384615384616em" height="5.505632549579952em" x="9.615384615384615em" y="24.49436745042005em" fill="#aaa"/><rect width="0.9615384615384616em" height="10.52783416441638em" x="10.576923076923077em" y="19.47216583558362em" fill="#aaa"/><rect width="0.9615384615384616em" height="0.5626342460442596em" x="11.538461538461538em" y="29.437365753955742em" fill="#aaa"/><rect width="0.9615384615384616em" height="0.7730740098591544em" x="12.5em" y="29.226925990140845em" fill="#aaa"/><rect width="0.9615384615384616em" height="0.2777630002433825em" x="13.461538461538462em" y="29.722236999756618em" fill="#aaa"/><rect width="0.9615384615384616em" height="1.4864424507789689em" x="14.423076923076923em" y="28.51355754922103em" fill="#aaa"/><rect width="0.9615384615384616em" height="3.774064393984463em" x="15.384615384615385em" y="26.225935606015536em" fill="#aaa"/><rect width="0.9615384615384616em" height="0.7183092646534476em" x="16.346153846153847em" y="29.28169073534655em" fill="#aaa"/><rect width="0.9615384615384616em" height="0.8749593906049725em" x="17.307692307692307em" y="29.12504060939503em" fill="#aaa"/><rect width="0.9615384615384616em" height="1.8425279347004913em" x="18.26923076923077em" y="28.15747206529951em" fill="#aaa"/><rect width="0.9615384615384616em" height="2.234527549909305em" x="19.23076923076923em" y="27.765472450090694em" fill="#aaa"/><rect width="0.9615384615384616em" height="7.8952810892011716em" x="20.192307692307693em" y="22.10471891079883em" fill="#aaa"/><rect width="0.9615384615384616em" height="2.7719483339401134em" x="21.153846153846153em" y="27.228051666059887em" fill="#aaa"/><rect width="0.9615384615384616em" height="0.7109672723935142em" x="22.115384615384617em" y="29.289032727606486em" fill="#aaa"/><rect width="0.9615384615384616em" height="1.9907509854250172em" x="23.076923076923077em" y="28.009249014574984em" fill="#aaa"/><rect width="0.9615384615384616em" height="2.883039107345256em" x="24.03846153846154em" y="27.116960892654745em" fill="#aaa"/><rect width="0.9615384615384616em" height="1.1204863143171664em" x="25em" y="28.879513685682834em" fill="#aaa"/><rect width="0.9615384615384616em" height="0.8939609146602543em" x="25.961538461538463em" y="29.106039085339745em" fill="#aaa"/><rect width="0.9615384615384616em" height="0.7528017907018276em" x="26.923076923076923em" y="29.247198209298173em" fill="#aaa"/><rect width="0.9615384615384616em" height="2.4022625495662635em" x="27.884615384615387em" y="27.597737450433737em" fill="#aaa"/><rect width="0.9615384615384616em" height="2.2126525534223442em" x="28.846153846153847em" y="27.787347446577655em" fill="#aaa"/><rect width="0.9615384615384616em" height="3.236831212253667em" x="29.80769230769231em" y="26.763168787746334em" fill="#aaa"/><rect width="0.9615384615384616em" height="1.2100734357778993em" x="30.76923076923077em" y="28.7899265642221em" fill="#aaa"/><rect width="0.9615384615384616em" height="0.9881224493782127em" x="31.73076923076923em" y="29.011877550621787em" fill="#aaa"/><rect width="0.9615384615384616em" height="2.0996258655145015em" x="32.69230769230769em" y="27.9003741344855em" fill="#aaa"/><rect width="0.9615384615384616em" height="9.45069950627788em" x="33.65384615384615em" y="20.54930049372212em" fill="#aaa"/><rect width="0.9615384615384616em" height="4.852008249519999em" x="34.61538461538461em" y="25.147991750480003em" fill="#aaa"/><rect width="0.9615384615384616em" height="3.5806936875926536em" x="35.57692307692308em" y="26.419306312407347em" fill="#aaa"/><rect width="0.9615384615384616em" height="1.398212304523192em" x="36.53846153846154em" y="28.60178769547681em" fill="#aaa"/><rect width="0.9615384615384616em" height="0.33036445584672275em" x="37.5em" y="29.669635544153277em" fill="#aaa"/><rect width="0.9615384615384616em" height="3.229589989935331em" x="38.46153846153846em" y="26.77041001006467em" fill="#aaa"/><rect width="0.9615384615384616em" height="0.695894945002661em" x="39.42307692307693em" y="29.30410505499734em" fill="#aaa"/><rect width="0.9615384615384616em" height="2.7381627935369846em" x="40.38461538461539em" y="27.261837206463014em" fill="#aaa"/><rect width="0.9615384615384616em" height="1.1612251708660861em" x="41.34615384615385em" y="28.838774829133914em" fill="#aaa"/><rect width="0.9615384615384616em" height="0.6713811436902596em" x="42.30769230769231em" y="29.328618856309742em" fill="#aaa"/><rect width="0.9615384615384616em" height="0.42263434120107585em" x="43.269230769230774em" y="29.577365658798925em" fill="#aaa"/><rect width="0.9615384615384616em" height="2.4039307079931613em" x="44.23076923076923em" y="27.59606929200684em" fill="#aaa"/><rect width="0.9615384615384616em" height="0.7159595270819785em" x="45.19230769230769em" y="29.284040472918022em" fill="#aaa"/><rect width="0.9615384615384616em" height="2.6625695044079425em" x="46.15384615384615em" y="27.33743049559206em" fill="#aaa"/><rect width="0.9615384615384616em" height="1.7790013688834243em" x="47.11538461538461em" y="28.220998631116576em" fill="#aaa"/><rect width="0.9615384615384616em" height="1.3786763655534262em" x="48.07692307692308em" y="28.621323634446576em" fill="#aaa"/><rect width="0.9615384615384616em" height="1.4610586939862904em" x="49.03846153846154em" y="28.538941306013708em" fill="#aaa"/><rect width="0.9615384615384616em" height="3.1692557569913866em" x="50em" y="26.830744243008613em" fill="#aaa"/><rect width="0.9615384615384616em" height="3.756194014796183em" x="50.96153846153846em" y="26.243805985203817em" fill="#aaa"/><rect width="0.9615384615384616em" height="3.2947966899006706em" x="51.92307692307693em" y="26.70520331009933em" fill="#aaa"/><rect width="0.9615384615384616em" height="6.617738864653866em" x="52.88461538461539em" y="23.382261135346134em" fill="#aaa"/><rect width="0.9615384615384616em" height="7.8303678901591365em" x="53.84615384615385em" y="22.16963210984086em" fill="#aaa"/><rect width="0.9615384615384616em" height="3.3901753934790686em" x="54.80769230769231em" y="26.60982460652093em" fill="#aaa"/><rect width="0.9615384615384616em" height="1.729163998012468em" x="55.769230769230774em" y="28.270836001987533em" fill="#aaa"/><rect width="0.9615384615384616em" height="4.952752861285343em" x="56.73076923076923em" y="25.047247138714656em" fill="#aaa"/><rect width="0.9615384615384616em" height="2.7251175573626423em" x="57.69230769230769em" y="27.274882442637356em" fill="#aaa"/><rect width="0.9615384615384616em" height="2.1375576979804305em" x="58.65384615384615em" y="27.86244230201957em" fill="#aaa"/><rect width="0.9615384615384616em" height="3.07357200416825em" x="59.61538461538462em" y="26.92642799583175em" fill="#aaa"/><rect width="0.9615384615384616em" height="3.7765772801866047em" x="60.57692307692308em" y="26.223422719813396em" fill="#aaa"/><rect width="0.9615384615384616em" height="4.547905160825522em" x="61.53846153846154em" y="25.452094839174478em" fill="#aaa"/><rect width="0.9615384615384616em" height="1.5900743472912517em" x="62.5em" y="28.409925652708747em" fill="#aaa"/><rect width="0.9615384615384616em" height="2.68479073417045em" x="63.46153846153846em" y="27.31520926582955em" fill="#aaa"/><rect width="0.9615384615384616em" height="5.222219596739234em" x="64.42307692307692em" y="24.777780403260767em" fill="#aaa"/><rect width="0.9615384615384616em" height="7.166523891757347em" x="65.38461538461539em" y="22.833476108242653em" fill="#aaa"/><rect width="0.9615384615384616em" height="18.327638983140183em" x="66.34615384615385em" y="11.672361016859817em" fill="#aaa"/><rect width="0.9615384615384616em" height="2.883092789104879em" x="67.3076923076923em" y="27.11690721089512em" fill="#aaa"/><rect width="0.9615384615384616em" height="30em" x="68.26923076923077em" y="0em" fill="#aaa"/><rect width="0.9615384615384616em" height="24.07200068251595em" x="69.23076923076923em" y="5.927999317484051em" fill="#aaa"/><rect width="0.9615384615384616em" height="4.912011909919356em" x="70.1923076923077em" y="25.087988090080643em" fill="#aaa"/><rect width="0.9615384615384616em" height="3.6765898290885826em" x="71.15384615384616em" y="26.323410170911416em" fill="#aaa"/><rect width="0.9615384615384616em" height="3.1091527877932537em" x="72.11538461538461em" y="26.890847212206747em" fill="#aaa"/><rect width="0.9615384615384616em" height="4.1362736298625595em" x="73.07692307692308em" y="25.863726370137442em" fill="#aaa"/><rect width="0.9615384615384616em" height="15.91231321053674em" x="74.03846153846155em" y="14.08768678946326em" fill="#aaa"/><rect width="0.9615384615384616em" height="27.929110105725304em" x="75em" y="2.0708898942746963em" fill="#aaa"/><rect width="0.9615384615384616em" height="14.318574708792365em" x="75.96153846153847em" y="15.681425291207635em" fill="#aaa"/><rect width="0.9615384615384616em" height="9.730282472178644em" x="76.92307692307692em" y="20.269717527821356em" fill="#aaa"/><rect width="0.9615384615384616em" height="9.005358100675783em" x="77.88461538461539em" y="20.994641899324215em" fill="#aaa"/><rect width="0.9615384615384616em" height="6.739417681951124em" x="78.84615384615385em" y="23.260582318048876em" fill="#aaa"/><rect width="0.9615384615384616em" height="5.435877560728241em" x="79.8076923076923em" y="24.56412243927176em" fill="#aaa"/><rect width="0.9615384615384616em" height="6.867134773086874em" x="80.76923076923077em" y="23.132865226913125em" fill="#aaa"/><rect width="0.9615384615384616em" height="3.4085770450266812em" x="81.73076923076923em" y="26.591422954973318em" fill="#aaa"/><rect width="0.9615384615384616em" height="7.389606521082368em" x="82.6923076923077em" y="22.610393478917633em" fill="#aaa"/><rect width="0.9615384615384616em" height="18.09071814732691em" x="83.65384615384616em" y="11.90928185267309em" fill="#aaa"/><rect width="0.9615384615384616em" height="5.54084238925087em" x="84.61538461538461em" y="24.45915761074913em" fill="#aaa"/><rect width="0.9615384615384616em" height="7.266138243102511em" x="85.57692307692308em" y="22.73386175689749em" fill="#aaa"/><rect width="0.9615384615384616em" height="5.819374449495313em" x="86.53846153846155em" y="24.180625550504686em" fill="#aaa"/><rect width="0.9615384615384616em" height="3.8820365416613773em" x="87.5em" y="26.11796345833862em" fill="#aaa"/><rect width="0.9615384615384616em" height="5.059942619279138em" x="88.46153846153847em" y="24.940057380720862em" fill="#aaa"/><rect width="0.9615384615384616em" height="5.018211452074123em" x="89.42307692307692em" y="24.981788547925877em" fill="#aaa"/><rect width="0.9615384615384616em" height="3.213317944413126em" x="90.38461538461539em" y="26.786682055586873em" fill="#aaa"/><rect width="0.9615384615384616em" height="3.333716431809947em" x="91.34615384615385em" y="26.666283568190053em" fill="#aaa"/><rect width="0.9615384615384616em" height="2.7884067857050874em" x="92.3076923076923em" y="27.21159321429491em" fill="#aaa"/><rect width="0.9615384615384616em" height="3.221992723570443em" x="93.26923076923077em" y="26.778007276429555em" fill="#aaa"/><rect width="0.9615384615384616em" height="6.161400232669679em" x="94.23076923076923em" y="23.838599767330322em" fill="#aaa"/><rect width="0.9615384615384616em" height="5.4860850142430975em" x="95.1923076923077em" y="24.5139149857569em" fill="#aaa"/><rect width="0.9615384615384616em" height="4.201284454421994em" x="96.15384615384616em" y="25.798715545578006em" fill="#aaa"/><rect width="0.9615384615384616em" height="6.907779892352881em" x="97.11538461538461em" y="23.09222010764712em" fill="#aaa"/><rect width="0.9615384615384616em" height="7.315589425707979em" x="98.07692307692308em" y="22.68441057429202em" fill="#aaa"/><rect width="0.9615384615384616em" height="6.017443651413986em" x="99.03846153846155em" y="23.982556348586016em" fill="#aaa"/></svg>