<?xml version="1.0" standalone="no"?>
<svg xmlns:xlink="http://www.w3.org/1999/xlink" xmlns="http://www.w3.org/2000/svg" class="topic-graph" style="width: 10vw; height: 3em; text-align: center;"><rect width="0.09615384615384616em" height="1.0313034628473607em" x="0vw" y="1.9686965371526393em" fill="#aaa"/><rect width="0.09615384615384616em" height="0.25004167597217286em" x="0.09615384615384616vw" y="2.749958324027827em" fill="#aaa"/><rect width="0.09615384615384616em" height="0.12897189550464697em" x="0.19230769230769232vw" y="2.871028104495353em" fill="#aaa"/><rect width="0.09615384615384616em" height="0.23328720070171666em" x="0.2884615384615385vw" y="2.766712799298283em" fill="#aaa"/><rect width="0.09615384615384616em" height="0.19032409676369302em" x="0.38461538461538464vw" y="2.809675903236307em" fill="#aaa"/><rect width="0.09615384615384616em" height="0.35823814575734614em" x="0.4807692307692308vw" y="2.6417618542426538em" fill="#aaa"/><rect width="0.09615384615384616em" height="0.16734494996935714em" x="0.576923076923077vw" y="2.8326550500306427em" fill="#aaa"/><rect width="0.09615384615384616em" height="0.5125728817373523em" x="0.6730769230769231vw" y="2.487427118262648em" fill="#aaa"/><rect width="0.09615384615384616em" height="0.31154484963976226em" x="0.7692307692307693vw" y="2.688455150360238em" fill="#aaa"/><rect width="0.09615384615384616em" height="0.7268833104537331em" x="0.8653846153846154vw" y="2.273116689546267em" fill="#aaa"/><rect width="0.09615384615384616em" height="0.3324144340370968em" x="0.9615384615384616vw" y="2.667585565962903em" fill="#aaa"/><rect width="0.09615384615384616em" height="0.7085040956858211em" x="1.0576923076923077vw" y="2.291495904314179em" fill="#aaa"/><rect width="0.09615384615384616em" height="0.4868710704085595em" x="1.153846153846154vw" y="2.5131289295914403em" fill="#aaa"/><rect width="0.09615384615384616em" height="0.4546433481283547em" x="1.25vw" y="2.5453566518716455em" fill="#aaa"/><rect width="0.09615384615384616em" height="0.3942298962511171em" x="1.3461538461538463vw" y="2.605770103748883em" fill="#aaa"/><rect width="0.09615384615384616em" height="0.44591439029966007em" x="1.4423076923076923vw" y="2.5540856097003397em" fill="#aaa"/><rect width="0.09615384615384616em" height="0.22309288718733378em" x="1.5384615384615385vw" y="2.7769071128126663em" fill="#aaa"/><rect width="0.09615384615384616em" height="0.32067212528538047em" x="1.6346153846153848vw" y="2.6793278747146196em" fill="#aaa"/><rect width="0.09615384615384616em" height="0.38196721228279396em" x="1.7307692307692308vw" y="2.618032787717206em" fill="#aaa"/><rect width="0.09615384615384616em" height="0.45900851362013295em" x="1.826923076923077vw" y="2.540991486379867em" fill="#aaa"/><rect width="0.09615384615384616em" height="0.6206992535602942em" x="1.9230769230769231vw" y="2.379300746439706em" fill="#aaa"/><rect width="0.09615384615384616em" height="0.9587528492940143em" x="2.019230769230769vw" y="2.0412471507059857em" fill="#aaa"/><rect width="0.09615384615384616em" height="0.39459944062377184em" x="2.1153846153846154vw" y="2.6054005593762284em" fill="#aaa"/><rect width="0.09615384615384616em" height="0.7414384307047063em" x="2.2115384615384617vw" y="2.258561569295294em" fill="#aaa"/><rect width="0.09615384615384616em" height="0.6942891188325848em" x="2.307692307692308vw" y="2.305710881167415em" fill="#aaa"/><rect width="0.09615384615384616em" height="0.8839533933405845em" x="2.403846153846154vw" y="2.1160466066594155em" fill="#aaa"/><rect width="0.09615384615384616em" height="0.8873695923467648em" x="2.5vw" y="2.112630407653235em" fill="#aaa"/><rect width="0.09615384615384616em" height="0.583839197711846em" x="2.5961538461538463vw" y="2.4161608022881538em" fill="#aaa"/><rect width="0.09615384615384616em" height="0.5791555593207646em" x="2.6923076923076925vw" y="2.4208444406792355em" fill="#aaa"/><rect width="0.09615384615384616em" height="0.6299446861480762em" x="2.7884615384615388vw" y="2.370055313851924em" fill="#aaa"/><rect width="0.09615384615384616em" height="1.0492637042399773em" x="2.8846153846153846vw" y="1.9507362957600227em" fill="#aaa"/><rect width="0.09615384615384616em" height="0.6557237688478463em" x="2.980769230769231vw" y="2.3442762311521537em" fill="#aaa"/><rect width="0.09615384615384616em" height="0.7855418804969275em" x="3.076923076923077vw" y="2.2144581195030724em" fill="#aaa"/><rect width="0.09615384615384616em" height="0.8540452621150008em" x="3.1730769230769234vw" y="2.145954737884999em" fill="#aaa"/><rect width="0.09615384615384616em" height="0.8490613462340814em" x="3.2692307692307696vw" y="2.1509386537659188em" fill="#aaa"/><rect width="0.09615384615384616em" height="0.7085590020095925em" x="3.3653846153846154vw" y="2.2914409979904073em" fill="#aaa"/><rect width="0.09615384615384616em" height="1.560212867479456em" x="3.4615384615384617vw" y="1.439787132520544em" fill="#aaa"/><rect width="0.09615384615384616em" height="3em" x="3.557692307692308vw" y="0em" fill="#aaa"/><rect width="0.09615384615384616em" height="1.9959817573082654em" x="3.653846153846154vw" y="1.0040182426917346em" fill="#aaa"/><rect width="0.09615384615384616em" height="2.7911291622024867em" x="3.75vw" y="0.20887083779751325em" fill="#aaa"/><rect width="0.09615384615384616em" height="2.5350736415920405em" x="3.8461538461538463vw" y="0.4649263584079595em" fill="#aaa"/><rect width="0.09615384615384616em" height="2.235364312450854em" x="3.9423076923076925vw" y="0.7646356875491458em" fill="#aaa"/><rect width="0.09615384615384616em" height="1.1526475392575741em" x="4.038461538461538vw" y="1.8473524607424259em" fill="#aaa"/><rect width="0.09615384615384616em" height="0.975885301941122em" x="4.134615384615385vw" y="2.0241146980588782em" fill="#aaa"/><rect width="0.09615384615384616em" height="1.174811896860745em" x="4.230769230769231vw" y="1.825188103139255em" fill="#aaa"/><rect width="0.09615384615384616em" height="0.7098038835240168em" x="4.3269230769230775vw" y="2.2901961164759834em" fill="#aaa"/><rect width="0.09615384615384616em" height="0.8783424403177678em" x="4.423076923076923vw" y="2.121657559682232em" fill="#aaa"/><rect width="0.09615384615384616em" height="0.8502696819814979em" x="4.519230769230769vw" y="2.149730318018502em" fill="#aaa"/><rect width="0.09615384615384616em" height="0.6907928778099344em" x="4.615384615384616vw" y="2.309207122190066em" fill="#aaa"/><rect width="0.09615384615384616em" height="0.5642166552917663em" x="4.711538461538462vw" y="2.4357833447082338em" fill="#aaa"/><rect width="0.09615384615384616em" height="0.6891825911305296em" x="4.807692307692308vw" y="2.3108174088694704em" fill="#aaa"/><rect width="0.09615384615384616em" height="0.8555570880353556em" x="4.903846153846154vw" y="2.1444429119646444em" fill="#aaa"/><rect width="0.09615384615384616em" height="0.8198239832541008em" x="5vw" y="2.1801760167458992em" fill="#aaa"/><rect width="0.09615384615384616em" height="0.45232806936187897em" x="5.096153846153847vw" y="2.547671930638121em" fill="#aaa"/><rect width="0.09615384615384616em" height="0.8021223735242087em" x="5.1923076923076925vw" y="2.1978776264757913em" fill="#aaa"/><rect width="0.09615384615384616em" height="0.6216640479576543em" x="5.288461538461538vw" y="2.3783359520423457em" fill="#aaa"/><rect width="0.09615384615384616em" height="0.8048395857410879em" x="5.384615384615385vw" y="2.195160414258912em" fill="#aaa"/><rect width="0.09615384615384616em" height="0.9313593714026278em" x="5.480769230769231vw" y="2.068640628597372em" fill="#aaa"/><rect width="0.09615384615384616em" height="0.5797111403085823em" x="5.5769230769230775vw" y="2.420288859691418em" fill="#aaa"/><rect width="0.09615384615384616em" height="0.5592326907575789em" x="5.673076923076923vw" y="2.440767309242421em" fill="#aaa"/><rect width="0.09615384615384616em" height="0.6291393573651137em" x="5.769230769230769vw" y="2.370860642634886em" fill="#aaa"/><rect width="0.09615384615384616em" height="0.5586882389321378em" x="5.865384615384616vw" y="2.4413117610678623em" fill="#aaa"/><rect width="0.09615384615384616em" height="0.5852118120124886em" x="5.961538461538462vw" y="2.4147881879875115em" fill="#aaa"/><rect width="0.09615384615384616em" height="0.6316509066448939em" x="6.057692307692308vw" y="2.368349093355106em" fill="#aaa"/><rect width="0.09615384615384616em" height="0.27748650923619544em" x="6.153846153846154vw" y="2.7225134907638044em" fill="#aaa"/><rect width="0.09615384615384616em" height="0.25974722395724736em" x="6.25vw" y="2.7402527760427526em" fill="#aaa"/><rect width="0.09615384615384616em" height="0.49378976980444544em" x="6.346153846153847vw" y="2.5062102301955544em" fill="#aaa"/><rect width="0.09615384615384616em" height="0.6681718874449021em" x="6.4423076923076925vw" y="2.331828112555098em" fill="#aaa"/><rect width="0.09615384615384616em" height="0.3296454089451212em" x="6.538461538461539vw" y="2.670354591054879em" fill="#aaa"/><rect width="0.09615384615384616em" height="0.36371741908280253em" x="6.634615384615385vw" y="2.6362825809171975em" fill="#aaa"/><rect width="0.09615384615384616em" height="0.5676643142318147em" x="6.730769230769231vw" y="2.4323356857681855em" fill="#aaa"/><rect width="0.09615384615384616em" height="0.35131451562485616em" x="6.8269230769230775vw" y="2.648685484375144em" fill="#aaa"/><rect width="0.09615384615384616em" height="0.3818627797010511em" x="6.923076923076923vw" y="2.618137220298949em" fill="#aaa"/><rect width="0.09615384615384616em" height="0.35740978931082196em" x="7.01923076923077vw" y="2.642590210689178em" fill="#aaa"/><rect width="0.09615384615384616em" height="0.43111588551464863em" x="7.115384615384616vw" y="2.5688841144853516em" fill="#aaa"/><rect width="0.09615384615384616em" height="0.35272142101467496em" x="7.211538461538462vw" y="2.647278578985325em" fill="#aaa"/><rect width="0.09615384615384616em" height="0.31703829531791133em" x="7.307692307692308vw" y="2.682961704682089em" fill="#aaa"/><rect width="0.09615384615384616em" height="0.3428894670432887em" x="7.403846153846154vw" y="2.657110532956711em" fill="#aaa"/><rect width="0.09615384615384616em" height="0.3069396031038387em" x="7.5vw" y="2.6930603968961613em" fill="#aaa"/><rect width="0.09615384615384616em" height="0.2981904297701994em" x="7.596153846153847vw" y="2.7018095702298006em" fill="#aaa"/><rect width="0.09615384615384616em" height="0.3548246814979367em" x="7.6923076923076925vw" y="2.6451753185020634em" fill="#aaa"/><rect width="0.09615384615384616em" height="0.25705911816786875em" x="7.788461538461539vw" y="2.7429408818321313em" fill="#aaa"/><rect width="0.09615384615384616em" height="0.24276856847377273em" x="7.884615384615385vw" y="2.757231431526227em" fill="#aaa"/><rect width="0.09615384615384616em" height="0.19557724508224372em" x="7.980769230769231vw" y="2.8044227549177565em" fill="#aaa"/><rect width="0.09615384615384616em" height="0.22330357114225352em" x="8.076923076923077vw" y="2.7766964288577465em" fill="#aaa"/><rect width="0.09615384615384616em" height="0.23073649483738334em" x="8.173076923076923vw" y="2.7692635051626167em" fill="#aaa"/><rect width="0.09615384615384616em" height="0.17905374746456187em" x="8.26923076923077vw" y="2.820946252535438em" fill="#aaa"/><rect width="0.09615384615384616em" height="0.20439484163059451em" x="8.365384615384615vw" y="2.7956051583694057em" fill="#aaa"/><rect width="0.09615384615384616em" height="0.23131522350868278em" x="8.461538461538462vw" y="2.7686847764913174em" fill="#aaa"/><rect width="0.09615384615384616em" height="0.2386654817598044em" x="8.557692307692308vw" y="2.7613345182401954em" fill="#aaa"/><rect width="0.09615384615384616em" height="0.2651579206694656em" x="8.653846153846155vw" y="2.7348420793305346em" fill="#aaa"/><rect width="0.09615384615384616em" height="0.19144157290170744em" x="8.75vw" y="2.8085584270982924em" fill="#aaa"/><rect width="0.09615384615384616em" height="0.18268579293954207em" x="8.846153846153847vw" y="2.8173142070604578em" fill="#aaa"/><rect width="0.09615384615384616em" height="0.18196775941210136em" x="8.942307692307693vw" y="2.8180322405878986em" fill="#aaa"/><rect width="0.09615384615384616em" height="0.16414005813114962em" x="9.038461538461538vw" y="2.8358599418688506em" fill="#aaa"/><rect width="0.09615384615384616em" height="0.18267728255872573em" x="9.134615384615385vw" y="2.8173227174412743em" fill="#aaa"/><rect width="0.09615384615384616em" height="0.16470620360735355em" x="9.230769230769232vw" y="2.8352937963926466em" fill="#aaa"/><rect width="0.09615384615384616em" height="0.18496585712129168em" x="9.326923076923077vw" y="2.8150341428787082em" fill="#aaa"/><rect width="0.09615384615384616em" height="0.17855881405229077em" x="9.423076923076923vw" y="2.8214411859477093em" fill="#aaa"/><rect width="0.09615384615384616em" height="0.19090751711752846em" x="9.51923076923077vw" y="2.8090924828824715em" fill="#aaa"/><rect width="0.09615384615384616em" height="0.1614509055362412em" x="9.615384615384617vw" y="2.838549094463759em" fill="#aaa"/><rect width="0.09615384615384616em" height="0.16677564742377468em" x="9.711538461538462vw" y="2.8332243525762255em" fill="#aaa"/><rect width="0.09615384615384616em" height="0.1817894735221809em" x="9.807692307692308vw" y="2.8182105264778192em" fill="#aaa"/><rect width="0.09615384615384616em" height="0.1691716414374175em" x="9.903846153846155vw" y="2.8308283585625826em" fill="#aaa"/></svg>