<?xml version="1.0" standalone="no"?>
<svg xmlns:xlink="http://www.w3.org/1999/xlink" xmlns="http://www.w3.org/2000/svg" class="topic-graph" style="width: 100em; height: 30em; text-align: center;"><rect width="0.9615384615384616em" height="3.9514323157735176em" x="0em" y="26.048567684226484em" fill="#aaa"/><rect width="0.9615384615384616em" height="2.697055224119545em" x="0.9615384615384616em" y="27.302944775880455em" fill="#aaa"/><rect width="0.9615384615384616em" height="1.0466092932747617em" x="1.9230769230769231em" y="28.953390706725237em" fill="#aaa"/><rect width="0.9615384615384616em" height="1.987404182156503em" x="2.8846153846153846em" y="28.012595817843497em" fill="#aaa"/><rect width="0.9615384615384616em" height="0.7566642174318439em" x="3.8461538461538463em" y="29.243335782568156em" fill="#aaa"/><rect width="0.9615384615384616em" height="5.786547413945586em" x="4.8076923076923075em" y="24.213452586054416em" fill="#aaa"/><rect width="0.9615384615384616em" height="2.4465237774134914em" x="5.769230769230769em" y="27.553476222586507em" fill="#aaa"/><rect width="0.9615384615384616em" height="9.313543686495327em" x="6.730769230769231em" y="20.68645631350467em" fill="#aaa"/><rect width="0.9615384615384616em" height="4.542576175451788em" x="7.6923076923076925em" y="25.45742382454821em" fill="#aaa"/><rect width="0.9615384615384616em" height="0.5584067520286164em" x="8.653846153846153em" y="29.441593247971383em" fill="#aaa"/><rect width="0.9615384615384616em" height="4.905531832429261em" x="9.615384615384615em" y="25.09446816757074em" fill="#aaa"/><rect width="0.9615384615384616em" height="7.957559640926722em" x="10.576923076923077em" y="22.04244035907328em" fill="#aaa"/><rect width="0.9615384615384616em" height="1.320968923608903em" x="11.538461538461538em" y="28.679031076391098em" fill="#aaa"/><rect width="0.9615384615384616em" height="6.855089148957075em" x="12.5em" y="23.144910851042926em" fill="#aaa"/><rect width="0.9615384615384616em" height="2.3484138940447976em" x="13.461538461538462em" y="27.651586105955204em" fill="#aaa"/><rect width="0.9615384615384616em" height="2.9991974907690064em" x="14.423076923076923em" y="27.000802509230994em" fill="#aaa"/><rect width="0.9615384615384616em" height="1.4084611384355532em" x="15.384615384615385em" y="28.591538861564448em" fill="#aaa"/><rect width="0.9615384615384616em" height="2.3987565350216005em" x="16.346153846153847em" y="27.6012434649784em" fill="#aaa"/><rect width="0.9615384615384616em" height="0.7302248882234439em" x="17.307692307692307em" y="29.269775111776557em" fill="#aaa"/><rect width="0.9615384615384616em" height="0.7664990444307634em" x="18.26923076923077em" y="29.233500955569237em" fill="#aaa"/><rect width="0.9615384615384616em" height="14.312888113788981em" x="19.23076923076923em" y="15.687111886211019em" fill="#aaa"/><rect width="0.9615384615384616em" height="3.7699820234591446em" x="20.192307692307693em" y="26.230017976540857em" fill="#aaa"/><rect width="0.9615384615384616em" height="4.6215201099274426em" x="21.153846153846153em" y="25.37847989007256em" fill="#aaa"/><rect width="0.9615384615384616em" height="0.2939476286930088em" x="22.115384615384617em" y="29.706052371306992em" fill="#aaa"/><rect width="0.9615384615384616em" height="6.625323123067927em" x="23.076923076923077em" y="23.37467687693207em" fill="#aaa"/><rect width="0.9615384615384616em" height="2.6797606082900143em" x="24.03846153846154em" y="27.320239391709986em" fill="#aaa"/><rect width="0.9615384615384616em" height="4.716558567602726em" x="25em" y="25.283441432397275em" fill="#aaa"/><rect width="0.9615384615384616em" height="2.751522916257737em" x="25.961538461538463em" y="27.248477083742262em" fill="#aaa"/><rect width="0.9615384615384616em" height="3.1364580803646867em" x="26.923076923076923em" y="26.863541919635313em" fill="#aaa"/><rect width="0.9615384615384616em" height="3.388105367343072em" x="27.884615384615387em" y="26.611894632656927em" fill="#aaa"/><rect width="0.9615384615384616em" height="2.503590144677076em" x="28.846153846153847em" y="27.496409855322923em" fill="#aaa"/><rect width="0.9615384615384616em" height="3.157930950102574em" x="29.80769230769231em" y="26.842069049897425em" fill="#aaa"/><rect width="0.9615384615384616em" height="9.504517642682938em" x="30.76923076923077em" y="20.495482357317062em" fill="#aaa"/><rect width="0.9615384615384616em" height="3.0666512656560454em" x="31.73076923076923em" y="26.933348734343955em" fill="#aaa"/><rect width="0.9615384615384616em" height="3.3977788034566205em" x="32.69230769230769em" y="26.60222119654338em" fill="#aaa"/><rect width="0.9615384615384616em" height="4.362175715696248em" x="33.65384615384615em" y="25.637824284303754em" fill="#aaa"/><rect width="0.9615384615384616em" height="3.2585396264202084em" x="34.61538461538461em" y="26.74146037357979em" fill="#aaa"/><rect width="0.9615384615384616em" height="3.62234013469555em" x="35.57692307692308em" y="26.37765986530445em" fill="#aaa"/><rect width="0.9615384615384616em" height="1.3452404061913594em" x="36.53846153846154em" y="28.65475959380864em" fill="#aaa"/><rect width="0.9615384615384616em" height="1.7859131873495453em" x="37.5em" y="28.214086812650454em" fill="#aaa"/><rect width="0.9615384615384616em" height="4.206341817966205em" x="38.46153846153846em" y="25.793658182033795em" fill="#aaa"/><rect width="0.9615384615384616em" height="8.033576903258353em" x="39.42307692307693em" y="21.966423096741647em" fill="#aaa"/><rect width="0.9615384615384616em" height="3.176240506668807em" x="40.38461538461539em" y="26.823759493331192em" fill="#aaa"/><rect width="0.9615384615384616em" height="3.791975317700374em" x="41.34615384615385em" y="26.208024682299627em" fill="#aaa"/><rect width="0.9615384615384616em" height="3.065276500073795em" x="42.30769230769231em" y="26.934723499926204em" fill="#aaa"/><rect width="0.9615384615384616em" height="3.859583555411426em" x="43.269230769230774em" y="26.140416444588574em" fill="#aaa"/><rect width="0.9615384615384616em" height="0.6252022271138759em" x="44.23076923076923em" y="29.374797772886126em" fill="#aaa"/><rect width="0.9615384615384616em" height="3.83624187173545em" x="45.19230769230769em" y="26.16375812826455em" fill="#aaa"/><rect width="0.9615384615384616em" height="2.430977869060096em" x="46.15384615384615em" y="27.569022130939903em" fill="#aaa"/><rect width="0.9615384615384616em" height="4.993837192515066em" x="47.11538461538461em" y="25.006162807484934em" fill="#aaa"/><rect width="0.9615384615384616em" height="3.7043274654687317em" x="48.07692307692308em" y="26.295672534531267em" fill="#aaa"/><rect width="0.9615384615384616em" height="12.364687850650292em" x="49.03846153846154em" y="17.63531214934971em" fill="#aaa"/><rect width="0.9615384615384616em" height="4.083716569677492em" x="50em" y="25.91628343032251em" fill="#aaa"/><rect width="0.9615384615384616em" height="3.799548582199318em" x="50.96153846153846em" y="26.200451417800682em" fill="#aaa"/><rect width="0.9615384615384616em" height="3.285394306526852em" x="51.92307692307693em" y="26.714605693473146em" fill="#aaa"/><rect width="0.9615384615384616em" height="6.367393153146107em" x="52.88461538461539em" y="23.632606846853893em" fill="#aaa"/><rect width="0.9615384615384616em" height="3.1734362563906315em" x="53.84615384615385em" y="26.82656374360937em" fill="#aaa"/><rect width="0.9615384615384616em" height="9.476972385256829em" x="54.80769230769231em" y="20.52302761474317em" fill="#aaa"/><rect width="0.9615384615384616em" height="6.823201383451503em" x="55.769230769230774em" y="23.176798616548496em" fill="#aaa"/><rect width="0.9615384615384616em" height="5.140995556987515em" x="56.73076923076923em" y="24.859004443012484em" fill="#aaa"/><rect width="0.9615384615384616em" height="7.106679286985866em" x="57.69230769230769em" y="22.893320713014134em" fill="#aaa"/><rect width="0.9615384615384616em" height="9.760528398397033em" x="58.65384615384615em" y="20.239471601602965em" fill="#aaa"/><rect width="0.9615384615384616em" height="3.210603370311728em" x="59.61538461538462em" y="26.789396629688273em" fill="#aaa"/><rect width="0.9615384615384616em" height="4.182652716863136em" x="60.57692307692308em" y="25.817347283136865em" fill="#aaa"/><rect width="0.9615384615384616em" height="6.024153347544341em" x="61.53846153846154em" y="23.975846652455658em" fill="#aaa"/><rect width="0.9615384615384616em" height="5.104541885123551em" x="62.5em" y="24.895458114876448em" fill="#aaa"/><rect width="0.9615384615384616em" height="6.134878951228898em" x="63.46153846153846em" y="23.8651210487711em" fill="#aaa"/><rect width="0.9615384615384616em" height="4.62604185415093em" x="64.42307692307692em" y="25.37395814584907em" fill="#aaa"/><rect width="0.9615384615384616em" height="7.813141057828198em" x="65.38461538461539em" y="22.186858942171803em" fill="#aaa"/><rect width="0.9615384615384616em" height="7.138148355071975em" x="66.34615384615385em" y="22.861851644928024em" fill="#aaa"/><rect width="0.9615384615384616em" height="11.32778723220241em" x="67.3076923076923em" y="18.67221276779759em" fill="#aaa"/><rect width="0.9615384615384616em" height="8.043820858278096em" x="68.26923076923077em" y="21.956179141721904em" fill="#aaa"/><rect width="0.9615384615384616em" height="5.114706774334621em" x="69.23076923076923em" y="24.88529322566538em" fill="#aaa"/><rect width="0.9615384615384616em" height="8.520832341867084em" x="70.1923076923077em" y="21.479167658132916em" fill="#aaa"/><rect width="0.9615384615384616em" height="14.69740288617875em" x="71.15384615384616em" y="15.30259711382125em" fill="#aaa"/><rect width="0.9615384615384616em" height="24.894262174286748em" x="72.11538461538461em" y="5.105737825713252em" fill="#aaa"/><rect width="0.9615384615384616em" height="6.724540943504815em" x="73.07692307692308em" y="23.275459056495187em" fill="#aaa"/><rect width="0.9615384615384616em" height="6.5081318683497065em" x="74.03846153846155em" y="23.491868131650293em" fill="#aaa"/><rect width="0.9615384615384616em" height="7.163381102172263em" x="75em" y="22.836618897827737em" fill="#aaa"/><rect width="0.9615384615384616em" height="6.371151795581991em" x="75.96153846153847em" y="23.62884820441801em" fill="#aaa"/><rect width="0.9615384615384616em" height="4.490356772213708em" x="76.92307692307692em" y="25.50964322778629em" fill="#aaa"/><rect width="0.9615384615384616em" height="9.619547043096508em" x="77.88461538461539em" y="20.38045295690349em" fill="#aaa"/><rect width="0.9615384615384616em" height="11.62667385494624em" x="78.84615384615385em" y="18.37332614505376em" fill="#aaa"/><rect width="0.9615384615384616em" height="17.273220308826676em" x="79.8076923076923em" y="12.726779691173324em" fill="#aaa"/><rect width="0.9615384615384616em" height="7.782810967212882em" x="80.76923076923077em" y="22.217189032787118em" fill="#aaa"/><rect width="0.9615384615384616em" height="13.232638762841544em" x="81.73076923076923em" y="16.767361237158454em" fill="#aaa"/><rect width="0.9615384615384616em" height="9.686375750897822em" x="82.6923076923077em" y="20.313624249102176em" fill="#aaa"/><rect width="0.9615384615384616em" height="5.374202768098389em" x="83.65384615384616em" y="24.62579723190161em" fill="#aaa"/><rect width="0.9615384615384616em" height="17.84551291712833em" x="84.61538461538461em" y="12.154487082871668em" fill="#aaa"/><rect width="0.9615384615384616em" height="14.665556475967092em" x="85.57692307692308em" y="15.334443524032908em" fill="#aaa"/><rect width="0.9615384615384616em" height="8.258383262930105em" x="86.53846153846155em" y="21.741616737069897em" fill="#aaa"/><rect width="0.9615384615384616em" height="8.870037645528564em" x="87.5em" y="21.129962354471438em" fill="#aaa"/><rect width="0.9615384615384616em" height="30em" x="88.46153846153847em" y="0em" fill="#aaa"/><rect width="0.9615384615384616em" height="18.739659617817622em" x="89.42307692307692em" y="11.260340382182378em" fill="#aaa"/><rect width="0.9615384615384616em" height="17.502583441712627em" x="90.38461538461539em" y="12.497416558287373em" fill="#aaa"/><rect width="0.9615384615384616em" height="17.775675567395684em" x="91.34615384615385em" y="12.224324432604316em" fill="#aaa"/><rect width="0.9615384615384616em" height="10.030199611338501em" x="92.3076923076923em" y="19.969800388661497em" fill="#aaa"/><rect width="0.9615384615384616em" height="10.165993630796276em" x="93.26923076923077em" y="19.834006369203724em" fill="#aaa"/><rect width="0.9615384615384616em" height="11.83192083287904em" x="94.23076923076923em" y="18.168079167120958em" fill="#aaa"/><rect width="0.9615384615384616em" height="12.351132874729085em" x="95.1923076923077em" y="17.648867125270915em" fill="#aaa"/><rect width="0.9615384615384616em" height="14.22822272354858em" x="96.15384615384616em" y="15.77177727645142em" fill="#aaa"/><rect width="0.9615384615384616em" height="18.1535227737066em" x="97.11538461538461em" y="11.846477226293398em" fill="#aaa"/><rect width="0.9615384615384616em" height="23.96157676105777em" x="98.07692307692308em" y="6.038423238942229em" fill="#aaa"/><rect width="0.9615384615384616em" height="18.352801472024282em" x="99.03846153846155em" y="11.647198527975718em" fill="#aaa"/></svg>