<?xml version="1.0" standalone="no"?>
<svg xmlns:xlink="http://www.w3.org/1999/xlink" xmlns="http://www.w3.org/2000/svg" class="topic-graph" style="width: 100em; height: 30em; text-align: center;"><rect width="0.9615384615384616em" height="10.661649485984144em" x="0em" y="19.338350514015858em" fill="#aaa"/><rect width="0.9615384615384616em" height="7.868718276717349em" x="0.9615384615384616em" y="22.13128172328265em" fill="#aaa"/><rect width="0.9615384615384616em" height="4.682512741329758em" x="1.9230769230769231em" y="25.31748725867024em" fill="#aaa"/><rect width="0.9615384615384616em" height="30em" x="2.8846153846153846em" y="0em" fill="#aaa"/><rect width="0.9615384615384616em" height="12.567624099870043em" x="3.8461538461538463em" y="17.432375900129955em" fill="#aaa"/><rect width="0.9615384615384616em" height="14.418136788860414em" x="4.8076923076923075em" y="15.581863211139586em" fill="#aaa"/><rect width="0.9615384615384616em" height="17.766588821205392em" x="5.769230769230769em" y="12.233411178794608em" fill="#aaa"/><rect width="0.9615384615384616em" height="20.92477222333987em" x="6.730769230769231em" y="9.075227776660132em" fill="#aaa"/><rect width="0.9615384615384616em" height="7.247236363939362em" x="7.6923076923076925em" y="22.75276363606064em" fill="#aaa"/><rect width="0.9615384615384616em" height="14.557375048838296em" x="8.653846153846153em" y="15.442624951161704em" fill="#aaa"/><rect width="0.9615384615384616em" height="7.180477490824583em" x="9.615384615384615em" y="22.819522509175417em" fill="#aaa"/><rect width="0.9615384615384616em" height="10.31403666567651em" x="10.576923076923077em" y="19.68596333432349em" fill="#aaa"/><rect width="0.9615384615384616em" height="14.18401651286674em" x="11.538461538461538em" y="15.81598348713326em" fill="#aaa"/><rect width="0.9615384615384616em" height="29.277322278126228em" x="12.5em" y="0.7226777218737723em" fill="#aaa"/><rect width="0.9615384615384616em" height="10.541499352636356em" x="13.461538461538462em" y="19.458500647363643em" fill="#aaa"/><rect width="0.9615384615384616em" height="23.24651037483631em" x="14.423076923076923em" y="6.753489625163692em" fill="#aaa"/><rect width="0.9615384615384616em" height="16.3663818242398em" x="15.384615384615385em" y="13.633618175760201em" fill="#aaa"/><rect width="0.9615384615384616em" height="6.264753532063661em" x="16.346153846153847em" y="23.73524646793634em" fill="#aaa"/><rect width="0.9615384615384616em" height="6.882273311286699em" x="17.307692307692307em" y="23.1177266887133em" fill="#aaa"/><rect width="0.9615384615384616em" height="14.336282505030594em" x="18.26923076923077em" y="15.663717494969406em" fill="#aaa"/><rect width="0.9615384615384616em" height="15.13453149245437em" x="19.23076923076923em" y="14.86546850754563em" fill="#aaa"/><rect width="0.9615384615384616em" height="11.094595039389176em" x="20.192307692307693em" y="18.905404960610824em" fill="#aaa"/><rect width="0.9615384615384616em" height="12.01963840760117em" x="21.153846153846153em" y="17.98036159239883em" fill="#aaa"/><rect width="0.9615384615384616em" height="12.875457186265931em" x="22.115384615384617em" y="17.124542813734067em" fill="#aaa"/><rect width="0.9615384615384616em" height="19.880604653141358em" x="23.076923076923077em" y="10.119395346858642em" fill="#aaa"/><rect width="0.9615384615384616em" height="8.414263010304317em" x="24.03846153846154em" y="21.585736989695683em" fill="#aaa"/><rect width="0.9615384615384616em" height="9.366968003953989em" x="25em" y="20.63303199604601em" fill="#aaa"/><rect width="0.9615384615384616em" height="9.413742711586789em" x="25.961538461538463em" y="20.58625728841321em" fill="#aaa"/><rect width="0.9615384615384616em" height="7.402968825524411em" x="26.923076923076923em" y="22.59703117447559em" fill="#aaa"/><rect width="0.9615384615384616em" height="9.098668360186963em" x="27.884615384615387em" y="20.901331639813037em" fill="#aaa"/><rect width="0.9615384615384616em" height="14.735735624625859em" x="28.846153846153847em" y="15.264264375374141em" fill="#aaa"/><rect width="0.9615384615384616em" height="8.220642878305943em" x="29.80769230769231em" y="21.779357121694055em" fill="#aaa"/><rect width="0.9615384615384616em" height="14.274862569195127em" x="30.76923076923077em" y="15.725137430804873em" fill="#aaa"/><rect width="0.9615384615384616em" height="5.515517223460783em" x="31.73076923076923em" y="24.484482776539217em" fill="#aaa"/><rect width="0.9615384615384616em" height="5.949919063507313em" x="32.69230769230769em" y="24.050080936492687em" fill="#aaa"/><rect width="0.9615384615384616em" height="9.571736972581919em" x="33.65384615384615em" y="20.428263027418083em" fill="#aaa"/><rect width="0.9615384615384616em" height="10.820779771748988em" x="34.61538461538461em" y="19.179220228251012em" fill="#aaa"/><rect width="0.9615384615384616em" height="8.011818950874446em" x="35.57692307692308em" y="21.988181049125554em" fill="#aaa"/><rect width="0.9615384615384616em" height="22.245082595907em" x="36.53846153846154em" y="7.754917404093em" fill="#aaa"/><rect width="0.9615384615384616em" height="15.831230824902736em" x="37.5em" y="14.168769175097264em" fill="#aaa"/><rect width="0.9615384615384616em" height="13.787938911953082em" x="38.46153846153846em" y="16.212061088046916em" fill="#aaa"/><rect width="0.9615384615384616em" height="16.806510908983988em" x="39.42307692307693em" y="13.193489091016012em" fill="#aaa"/><rect width="0.9615384615384616em" height="10.123771778109806em" x="40.38461538461539em" y="19.876228221890194em" fill="#aaa"/><rect width="0.9615384615384616em" height="20.161531529329146em" x="41.34615384615385em" y="9.838468470670854em" fill="#aaa"/><rect width="0.9615384615384616em" height="7.237394112166132em" x="42.30769230769231em" y="22.762605887833868em" fill="#aaa"/><rect width="0.9615384615384616em" height="11.236270349535em" x="43.269230769230774em" y="18.763729650465002em" fill="#aaa"/><rect width="0.9615384615384616em" height="14.39525158256422em" x="44.23076923076923em" y="15.60474841743578em" fill="#aaa"/><rect width="0.9615384615384616em" height="21.31745036634981em" x="45.19230769230769em" y="8.68254963365019em" fill="#aaa"/><rect width="0.9615384615384616em" height="9.549249525706703em" x="46.15384615384615em" y="20.450750474293297em" fill="#aaa"/><rect width="0.9615384615384616em" height="14.609350770148358em" x="47.11538461538461em" y="15.390649229851642em" fill="#aaa"/><rect width="0.9615384615384616em" height="19.02630101692778em" x="48.07692307692308em" y="10.973698983072222em" fill="#aaa"/><rect width="0.9615384615384616em" height="17.100595732500995em" x="49.03846153846154em" y="12.899404267499005em" fill="#aaa"/><rect width="0.9615384615384616em" height="14.960785291163818em" x="50em" y="15.039214708836182em" fill="#aaa"/><rect width="0.9615384615384616em" height="16.950005269007438em" x="50.96153846153846em" y="13.049994730992562em" fill="#aaa"/><rect width="0.9615384615384616em" height="16.680169051085205em" x="51.92307692307693em" y="13.319830948914795em" fill="#aaa"/><rect width="0.9615384615384616em" height="8.573461889665124em" x="52.88461538461539em" y="21.426538110334874em" fill="#aaa"/><rect width="0.9615384615384616em" height="20.32425258323108em" x="53.84615384615385em" y="9.675747416768921em" fill="#aaa"/><rect width="0.9615384615384616em" height="11.808145158218254em" x="54.80769230769231em" y="18.191854841781748em" fill="#aaa"/><rect width="0.9615384615384616em" height="11.796801926799679em" x="55.769230769230774em" y="18.20319807320032em" fill="#aaa"/><rect width="0.9615384615384616em" height="13.95519656946272em" x="56.73076923076923em" y="16.04480343053728em" fill="#aaa"/><rect width="0.9615384615384616em" height="13.941143334535456em" x="57.69230769230769em" y="16.058856665464546em" fill="#aaa"/><rect width="0.9615384615384616em" height="20.108385113804434em" x="58.65384615384615em" y="9.891614886195566em" fill="#aaa"/><rect width="0.9615384615384616em" height="12.3441020372777em" x="59.61538461538462em" y="17.6558979627223em" fill="#aaa"/><rect width="0.9615384615384616em" height="12.742763406089255em" x="60.57692307692308em" y="17.257236593910747em" fill="#aaa"/><rect width="0.9615384615384616em" height="11.304233229340376em" x="61.53846153846154em" y="18.695766770659624em" fill="#aaa"/><rect width="0.9615384615384616em" height="12.153513755935476em" x="62.5em" y="17.846486244064522em" fill="#aaa"/><rect width="0.9615384615384616em" height="9.68705912836629em" x="63.46153846153846em" y="20.31294087163371em" fill="#aaa"/><rect width="0.9615384615384616em" height="12.648952811567964em" x="64.42307692307692em" y="17.351047188432034em" fill="#aaa"/><rect width="0.9615384615384616em" height="8.346555057030177em" x="65.38461538461539em" y="21.653444942969823em" fill="#aaa"/><rect width="0.9615384615384616em" height="11.63142131538666em" x="66.34615384615385em" y="18.36857868461334em" fill="#aaa"/><rect width="0.9615384615384616em" height="10.30227754689057em" x="67.3076923076923em" y="19.697722453109428em" fill="#aaa"/><rect width="0.9615384615384616em" height="6.718436275090358em" x="68.26923076923077em" y="23.281563724909642em" fill="#aaa"/><rect width="0.9615384615384616em" height="4.899301070314656em" x="69.23076923076923em" y="25.100698929685343em" fill="#aaa"/><rect width="0.9615384615384616em" height="11.094277809211672em" x="70.1923076923077em" y="18.905722190788328em" fill="#aaa"/><rect width="0.9615384615384616em" height="4.4837065777620335em" x="71.15384615384616em" y="25.516293422237965em" fill="#aaa"/><rect width="0.9615384615384616em" height="5.122678619119937em" x="72.11538461538461em" y="24.877321380880062em" fill="#aaa"/><rect width="0.9615384615384616em" height="9.107547041338844em" x="73.07692307692308em" y="20.892452958661156em" fill="#aaa"/><rect width="0.9615384615384616em" height="6.25434088858065em" x="74.03846153846155em" y="23.74565911141935em" fill="#aaa"/><rect width="0.9615384615384616em" height="5.052494945100511em" x="75em" y="24.947505054899487em" fill="#aaa"/><rect width="0.9615384615384616em" height="7.024140750988494em" x="75.96153846153847em" y="22.975859249011506em" fill="#aaa"/><rect width="0.9615384615384616em" height="7.091227655591128em" x="76.92307692307692em" y="22.908772344408874em" fill="#aaa"/><rect width="0.9615384615384616em" height="7.028913623003198em" x="77.88461538461539em" y="22.9710863769968em" fill="#aaa"/><rect width="0.9615384615384616em" height="3.6964711605905354em" x="78.84615384615385em" y="26.303528839409466em" fill="#aaa"/><rect width="0.9615384615384616em" height="4.308729239026568em" x="79.8076923076923em" y="25.69127076097343em" fill="#aaa"/><rect width="0.9615384615384616em" height="4.633329378194946em" x="80.76923076923077em" y="25.366670621805053em" fill="#aaa"/><rect width="0.9615384615384616em" height="3.4240970975254763em" x="81.73076923076923em" y="26.575902902474525em" fill="#aaa"/><rect width="0.9615384615384616em" height="2.412272026954059em" x="82.6923076923077em" y="27.58772797304594em" fill="#aaa"/><rect width="0.9615384615384616em" height="4.520417050862065em" x="83.65384615384616em" y="25.479582949137935em" fill="#aaa"/><rect width="0.9615384615384616em" height="3.823769437834945em" x="84.61538461538461em" y="26.176230562165056em" fill="#aaa"/><rect width="0.9615384615384616em" height="3.4651074690453707em" x="85.57692307692308em" y="26.53489253095463em" fill="#aaa"/><rect width="0.9615384615384616em" height="5.229919914678393em" x="86.53846153846155em" y="24.770080085321606em" fill="#aaa"/><rect width="0.9615384615384616em" height="3.92848587145847em" x="87.5em" y="26.07151412854153em" fill="#aaa"/><rect width="0.9615384615384616em" height="4.225759579043724em" x="88.46153846153847em" y="25.774240420956275em" fill="#aaa"/><rect width="0.9615384615384616em" height="2.8647367764015184em" x="89.42307692307692em" y="27.135263223598482em" fill="#aaa"/><rect width="0.9615384615384616em" height="3.9617995761054767em" x="90.38461538461539em" y="26.038200423894523em" fill="#aaa"/><rect width="0.9615384615384616em" height="4.782853262656327em" x="91.34615384615385em" y="25.217146737343672em" fill="#aaa"/><rect width="0.9615384615384616em" height="3.923234958965696em" x="92.3076923076923em" y="26.076765041034303em" fill="#aaa"/><rect width="0.9615384615384616em" height="4.294078891429109em" x="93.26923076923077em" y="25.70592110857089em" fill="#aaa"/><rect width="0.9615384615384616em" height="3.578310990437433em" x="94.23076923076923em" y="26.421689009562566em" fill="#aaa"/><rect width="0.9615384615384616em" height="3.502572777963016em" x="95.1923076923077em" y="26.497427222036983em" fill="#aaa"/><rect width="0.9615384615384616em" height="3.482258397783758em" x="96.15384615384616em" y="26.51774160221624em" fill="#aaa"/><rect width="0.9615384615384616em" height="3.1488162588346125em" x="97.11538461538461em" y="26.851183741165386em" fill="#aaa"/><rect width="0.9615384615384616em" height="2.921348889058399em" x="98.07692307692308em" y="27.0786511109416em" fill="#aaa"/><rect width="0.9615384615384616em" height="3.2309779449758222em" x="99.03846153846155em" y="26.769022055024177em" fill="#aaa"/></svg>