<?xml version="1.0" standalone="no"?>
<svg xmlns:xlink="http://www.w3.org/1999/xlink" xmlns="http://www.w3.org/2000/svg" class="topic-graph" style="width: 10vw; height: 3em; text-align: center;"><rect width="0.09615384615384616em" height="0.31190199645008926em" x="0vw" y="2.6880980035499107em" fill="#aaa"/><rect width="0.09615384615384616em" height="1.0970866105719546em" x="0.09615384615384616vw" y="1.9029133894280454em" fill="#aaa"/><rect width="0.09615384615384616em" height="0.4444428518481025em" x="0.19230769230769232vw" y="2.5555571481518973em" fill="#aaa"/><rect width="0.09615384615384616em" height="1.1268815857567784em" x="0.2884615384615385vw" y="1.8731184142432216em" fill="#aaa"/><rect width="0.09615384615384616em" height="0.6274507448248924em" x="0.38461538461538464vw" y="2.3725492551751075em" fill="#aaa"/><rect width="0.09615384615384616em" height="1.3683629253235399em" x="0.4807692307692308vw" y="1.6316370746764601em" fill="#aaa"/><rect width="0.09615384615384616em" height="1.5101821761408476em" x="0.576923076923077vw" y="1.4898178238591524em" fill="#aaa"/><rect width="0.09615384615384616em" height="1.4487959669233752em" x="0.6730769230769231vw" y="1.5512040330766248em" fill="#aaa"/><rect width="0.09615384615384616em" height="1.2104520729586532em" x="0.7692307692307693vw" y="1.7895479270413468em" fill="#aaa"/><rect width="0.09615384615384616em" height="1.1379963756158775em" x="0.8653846153846154vw" y="1.8620036243841225em" fill="#aaa"/><rect width="0.09615384615384616em" height="1.7336299019601755em" x="0.9615384615384616vw" y="1.2663700980398245em" fill="#aaa"/><rect width="0.09615384615384616em" height="3em" x="1.0576923076923077vw" y="0em" fill="#aaa"/><rect width="0.09615384615384616em" height="2.0814385973632166em" x="1.153846153846154vw" y="0.9185614026367834em" fill="#aaa"/><rect width="0.09615384615384616em" height="1.1479885219222665em" x="1.25vw" y="1.8520114780777335em" fill="#aaa"/><rect width="0.09615384615384616em" height="0.5884249612726878em" x="1.3461538461538463vw" y="2.411575038727312em" fill="#aaa"/><rect width="0.09615384615384616em" height="1.261724035840634em" x="1.4423076923076923vw" y="1.738275964159366em" fill="#aaa"/><rect width="0.09615384615384616em" height="1.0873078656385378em" x="1.5384615384615385vw" y="1.9126921343614622em" fill="#aaa"/><rect width="0.09615384615384616em" height="0.970756354357827em" x="1.6346153846153848vw" y="2.0292436456421727em" fill="#aaa"/><rect width="0.09615384615384616em" height="1.2073395762412753em" x="1.7307692307692308vw" y="1.7926604237587247em" fill="#aaa"/><rect width="0.09615384615384616em" height="0.5784928704972672em" x="1.826923076923077vw" y="2.421507129502733em" fill="#aaa"/><rect width="0.09615384615384616em" height="1.787547293363808em" x="1.9230769230769231vw" y="1.212452706636192em" fill="#aaa"/><rect width="0.09615384615384616em" height="1.3783269000365526em" x="2.019230769230769vw" y="1.6216730999634474em" fill="#aaa"/><rect width="0.09615384615384616em" height="0.783389650177901em" x="2.1153846153846154vw" y="2.216610349822099em" fill="#aaa"/><rect width="0.09615384615384616em" height="0.9867468026060284em" x="2.2115384615384617vw" y="2.0132531973939716em" fill="#aaa"/><rect width="0.09615384615384616em" height="0.884136262051145em" x="2.307692307692308vw" y="2.115863737948855em" fill="#aaa"/><rect width="0.09615384615384616em" height="0.3733955525300858em" x="2.403846153846154vw" y="2.6266044474699144em" fill="#aaa"/><rect width="0.09615384615384616em" height="1.2398434855984437em" x="2.5vw" y="1.7601565144015563em" fill="#aaa"/><rect width="0.09615384615384616em" height="0.636932100293353em" x="2.5961538461538463vw" y="2.363067899706647em" fill="#aaa"/><rect width="0.09615384615384616em" height="0.9488652501607197em" x="2.6923076923076925vw" y="2.0511347498392802em" fill="#aaa"/><rect width="0.09615384615384616em" height="0.8915402720056103em" x="2.7884615384615388vw" y="2.10845972799439em" fill="#aaa"/><rect width="0.09615384615384616em" height="0.7898309155471182em" x="2.8846153846153846vw" y="2.2101690844528816em" fill="#aaa"/><rect width="0.09615384615384616em" height="0.669859199701786em" x="2.980769230769231vw" y="2.330140800298214em" fill="#aaa"/><rect width="0.09615384615384616em" height="0.44658905931403114em" x="3.076923076923077vw" y="2.5534109406859686em" fill="#aaa"/><rect width="0.09615384615384616em" height="1.02775096325em" x="3.1730769230769234vw" y="1.97224903675em" fill="#aaa"/><rect width="0.09615384615384616em" height="0.8259604319358987em" x="3.2692307692307696vw" y="2.174039568064101em" fill="#aaa"/><rect width="0.09615384615384616em" height="0.8614457537835882em" x="3.3653846153846154vw" y="2.1385542462164118em" fill="#aaa"/><rect width="0.09615384615384616em" height="0.7236448946218862em" x="3.4615384615384617vw" y="2.276355105378114em" fill="#aaa"/><rect width="0.09615384615384616em" height="0.6473348464150476em" x="3.557692307692308vw" y="2.3526651535849523em" fill="#aaa"/><rect width="0.09615384615384616em" height="0.5256112464366047em" x="3.653846153846154vw" y="2.474388753563395em" fill="#aaa"/><rect width="0.09615384615384616em" height="1.4953577315233617em" x="3.75vw" y="1.5046422684766383em" fill="#aaa"/><rect width="0.09615384615384616em" height="1.2620269205644339em" x="3.8461538461538463vw" y="1.7379730794355661em" fill="#aaa"/><rect width="0.09615384615384616em" height="0.7681816897212798em" x="3.9423076923076925vw" y="2.23181831027872em" fill="#aaa"/><rect width="0.09615384615384616em" height="0.6435927047483632em" x="4.038461538461538vw" y="2.356407295251637em" fill="#aaa"/><rect width="0.09615384615384616em" height="1.1695830844180262em" x="4.134615384615385vw" y="1.8304169155819738em" fill="#aaa"/><rect width="0.09615384615384616em" height="0.6457923664463066em" x="4.230769230769231vw" y="2.3542076335536937em" fill="#aaa"/><rect width="0.09615384615384616em" height="0.7432109203284908em" x="4.3269230769230775vw" y="2.2567890796715093em" fill="#aaa"/><rect width="0.09615384615384616em" height="1.2448585817122362em" x="4.423076923076923vw" y="1.7551414182877638em" fill="#aaa"/><rect width="0.09615384615384616em" height="0.9012028671463825em" x="4.519230769230769vw" y="2.0987971328536172em" fill="#aaa"/><rect width="0.09615384615384616em" height="0.9340696915235269em" x="4.615384615384616vw" y="2.065930308476473em" fill="#aaa"/><rect width="0.09615384615384616em" height="1.0557227151757325em" x="4.711538461538462vw" y="1.9442772848242675em" fill="#aaa"/><rect width="0.09615384615384616em" height="0.5885449431806957em" x="4.807692307692308vw" y="2.411455056819304em" fill="#aaa"/><rect width="0.09615384615384616em" height="0.5331464279816014em" x="4.903846153846154vw" y="2.4668535720183984em" fill="#aaa"/><rect width="0.09615384615384616em" height="0.6291583359010147em" x="5vw" y="2.370841664098985em" fill="#aaa"/><rect width="0.09615384615384616em" height="0.41719494644801514em" x="5.096153846153847vw" y="2.5828050535519846em" fill="#aaa"/><rect width="0.09615384615384616em" height="0.5402632489504218em" x="5.1923076923076925vw" y="2.4597367510495785em" fill="#aaa"/><rect width="0.09615384615384616em" height="1.1227329423411048em" x="5.288461538461538vw" y="1.8772670576588952em" fill="#aaa"/><rect width="0.09615384615384616em" height="0.7597647734965943em" x="5.384615384615385vw" y="2.2402352265034056em" fill="#aaa"/><rect width="0.09615384615384616em" height="0.955216346049502em" x="5.480769230769231vw" y="2.044783653950498em" fill="#aaa"/><rect width="0.09615384615384616em" height="0.9255163055389277em" x="5.5769230769230775vw" y="2.0744836944610725em" fill="#aaa"/><rect width="0.09615384615384616em" height="1.0522980623195015em" x="5.673076923076923vw" y="1.9477019376804985em" fill="#aaa"/><rect width="0.09615384615384616em" height="1.3488014084285274em" x="5.769230769230769vw" y="1.6511985915714726em" fill="#aaa"/><rect width="0.09615384615384616em" height="0.9465038628865723em" x="5.865384615384616vw" y="2.0534961371134277em" fill="#aaa"/><rect width="0.09615384615384616em" height="0.8815091456978692em" x="5.961538461538462vw" y="2.118490854302131em" fill="#aaa"/><rect width="0.09615384615384616em" height="0.6592097922551255em" x="6.057692307692308vw" y="2.3407902077448743em" fill="#aaa"/><rect width="0.09615384615384616em" height="1.1772942188703093em" x="6.153846153846154vw" y="1.8227057811296907em" fill="#aaa"/><rect width="0.09615384615384616em" height="0.8386181130888634em" x="6.25vw" y="2.1613818869111365em" fill="#aaa"/><rect width="0.09615384615384616em" height="1.2120323787559903em" x="6.346153846153847vw" y="1.7879676212440097em" fill="#aaa"/><rect width="0.09615384615384616em" height="1.0215572845946608em" x="6.4423076923076925vw" y="1.9784427154053392em" fill="#aaa"/><rect width="0.09615384615384616em" height="1.1189708031422596em" x="6.538461538461539vw" y="1.8810291968577404em" fill="#aaa"/><rect width="0.09615384615384616em" height="0.9656379954737526em" x="6.634615384615385vw" y="2.0343620045262476em" fill="#aaa"/><rect width="0.09615384615384616em" height="1.1857976383971642em" x="6.730769230769231vw" y="1.8142023616028358em" fill="#aaa"/><rect width="0.09615384615384616em" height="1.1876568502179912em" x="6.8269230769230775vw" y="1.8123431497820088em" fill="#aaa"/><rect width="0.09615384615384616em" height="0.6680343556440994em" x="6.923076923076923vw" y="2.3319656443559005em" fill="#aaa"/><rect width="0.09615384615384616em" height="0.6572843845914911em" x="7.01923076923077vw" y="2.342715615408509em" fill="#aaa"/><rect width="0.09615384615384616em" height="1.0721242200803807em" x="7.115384615384616vw" y="1.9278757799196193em" fill="#aaa"/><rect width="0.09615384615384616em" height="0.8272307451460366em" x="7.211538461538462vw" y="2.1727692548539634em" fill="#aaa"/><rect width="0.09615384615384616em" height="1.306019960345568em" x="7.307692307692308vw" y="1.693980039654432em" fill="#aaa"/><rect width="0.09615384615384616em" height="0.8168027917104175em" x="7.403846153846154vw" y="2.1831972082895827em" fill="#aaa"/><rect width="0.09615384615384616em" height="0.6917910605021317em" x="7.5vw" y="2.3082089394978684em" fill="#aaa"/><rect width="0.09615384615384616em" height="0.7416538030677602em" x="7.596153846153847vw" y="2.25834619693224em" fill="#aaa"/><rect width="0.09615384615384616em" height="0.7796519676379519em" x="7.6923076923076925vw" y="2.220348032362048em" fill="#aaa"/><rect width="0.09615384615384616em" height="0.8229124366014844em" x="7.788461538461539vw" y="2.1770875633985156em" fill="#aaa"/><rect width="0.09615384615384616em" height="0.9594741548698256em" x="7.884615384615385vw" y="2.0405258451301744em" fill="#aaa"/><rect width="0.09615384615384616em" height="0.853247514431044em" x="7.980769230769231vw" y="2.146752485568956em" fill="#aaa"/><rect width="0.09615384615384616em" height="0.7841259866939327em" x="8.076923076923077vw" y="2.2158740133060673em" fill="#aaa"/><rect width="0.09615384615384616em" height="0.8020967127388899em" x="8.173076923076923vw" y="2.19790328726111em" fill="#aaa"/><rect width="0.09615384615384616em" height="1.1801697468522887em" x="8.26923076923077vw" y="1.8198302531477113em" fill="#aaa"/><rect width="0.09615384615384616em" height="0.9117460112895843em" x="8.365384615384615vw" y="2.0882539887104157em" fill="#aaa"/><rect width="0.09615384615384616em" height="0.6430802267093028em" x="8.461538461538462vw" y="2.3569197732906972em" fill="#aaa"/><rect width="0.09615384615384616em" height="0.7555968224814977em" x="8.557692307692308vw" y="2.2444031775185023em" fill="#aaa"/><rect width="0.09615384615384616em" height="0.9168911568004006em" x="8.653846153846155vw" y="2.083108843199599em" fill="#aaa"/><rect width="0.09615384615384616em" height="0.8068132036663813em" x="8.75vw" y="2.1931867963336185em" fill="#aaa"/><rect width="0.09615384615384616em" height="1.0590683101275122em" x="8.846153846153847vw" y="1.9409316898724878em" fill="#aaa"/><rect width="0.09615384615384616em" height="0.7572509834077091em" x="8.942307692307693vw" y="2.242749016592291em" fill="#aaa"/><rect width="0.09615384615384616em" height="1.083049623808929em" x="9.038461538461538vw" y="1.916950376191071em" fill="#aaa"/><rect width="0.09615384615384616em" height="0.6589370394052044em" x="9.134615384615385vw" y="2.3410629605947957em" fill="#aaa"/><rect width="0.09615384615384616em" height="0.8260692009946808em" x="9.230769230769232vw" y="2.173930799005319em" fill="#aaa"/><rect width="0.09615384615384616em" height="0.7002473588941197em" x="9.326923076923077vw" y="2.29975264110588em" fill="#aaa"/><rect width="0.09615384615384616em" height="0.6014859807866192em" x="9.423076923076923vw" y="2.3985140192133807em" fill="#aaa"/><rect width="0.09615384615384616em" height="0.5438301288242223em" x="9.51923076923077vw" y="2.456169871175778em" fill="#aaa"/><rect width="0.09615384615384616em" height="0.8104224543293649em" x="9.615384615384617vw" y="2.1895775456706352em" fill="#aaa"/><rect width="0.09615384615384616em" height="0.800085163255226em" x="9.711538461538462vw" y="2.199914836744774em" fill="#aaa"/><rect width="0.09615384615384616em" height="0.6918038120371035em" x="9.807692307692308vw" y="2.3081961879628965em" fill="#aaa"/><rect width="0.09615384615384616em" height="0.740732220716156em" x="9.903846153846155vw" y="2.259267779283844em" fill="#aaa"/></svg>