<?xml version="1.0" standalone="no"?>
<svg xmlns:xlink="http://www.w3.org/1999/xlink" xmlns="http://www.w3.org/2000/svg" class="topic-graph" style="width: 100em; height: 30em; text-align: center;"><rect width="0.9615384615384616em" height="7.005850160810086em" x="0em" y="22.994149839189916em" fill="#aaa"/><rect width="0.9615384615384616em" height="22.289298158929626em" x="0.9615384615384616em" y="7.7107018410703745em" fill="#aaa"/><rect width="0.9615384615384616em" height="12.489645900210984em" x="1.9230769230769231em" y="17.510354099789016em" fill="#aaa"/><rect width="0.9615384615384616em" height="19.218540190512975em" x="2.8846153846153846em" y="10.781459809487025em" fill="#aaa"/><rect width="0.9615384615384616em" height="8.130801912337741em" x="3.8461538461538463em" y="21.86919808766226em" fill="#aaa"/><rect width="0.9615384615384616em" height="8.544199419088272em" x="4.8076923076923075em" y="21.455800580911728em" fill="#aaa"/><rect width="0.9615384615384616em" height="22.22830428120358em" x="5.769230769230769em" y="7.771695718796419em" fill="#aaa"/><rect width="0.9615384615384616em" height="1.7565072988359822em" x="6.730769230769231em" y="28.24349270116402em" fill="#aaa"/><rect width="0.9615384615384616em" height="21.819946480717064em" x="7.6923076923076925em" y="8.180053519282936em" fill="#aaa"/><rect width="0.9615384615384616em" height="10.034415508315416em" x="8.653846153846153em" y="19.965584491684584em" fill="#aaa"/><rect width="0.9615384615384616em" height="26.074076739568387em" x="9.615384615384615em" y="3.925923260431613em" fill="#aaa"/><rect width="0.9615384615384616em" height="26.085484645129267em" x="10.576923076923077em" y="3.9145153548707334em" fill="#aaa"/><rect width="0.9615384615384616em" height="15.86437785808274em" x="11.538461538461538em" y="14.13562214191726em" fill="#aaa"/><rect width="0.9615384615384616em" height="9.11481565213745em" x="12.5em" y="20.88518434786255em" fill="#aaa"/><rect width="0.9615384615384616em" height="7.690584185818462em" x="13.461538461538462em" y="22.309415814181538em" fill="#aaa"/><rect width="0.9615384615384616em" height="14.210050443426464em" x="14.423076923076923em" y="15.789949556573536em" fill="#aaa"/><rect width="0.9615384615384616em" height="7.304961000744034em" x="15.384615384615385em" y="22.695038999255967em" fill="#aaa"/><rect width="0.9615384615384616em" height="14.530539132666679em" x="16.346153846153847em" y="15.469460867333321em" fill="#aaa"/><rect width="0.9615384615384616em" height="14.3573182732863em" x="17.307692307692307em" y="15.6426817267137em" fill="#aaa"/><rect width="0.9615384615384616em" height="16.763572019766215em" x="18.26923076923077em" y="13.236427980233785em" fill="#aaa"/><rect width="0.9615384615384616em" height="25.40975050749991em" x="19.23076923076923em" y="4.590249492500089em" fill="#aaa"/><rect width="0.9615384615384616em" height="7.863599403383809em" x="20.192307692307693em" y="22.13640059661619em" fill="#aaa"/><rect width="0.9615384615384616em" height="9.087895315769739em" x="21.153846153846153em" y="20.91210468423026em" fill="#aaa"/><rect width="0.9615384615384616em" height="4.389842919167036em" x="22.115384615384617em" y="25.610157080832963em" fill="#aaa"/><rect width="0.9615384615384616em" height="1.840318818202096em" x="23.076923076923077em" y="28.159681181797904em" fill="#aaa"/><rect width="0.9615384615384616em" height="6.256737794088371em" x="24.03846153846154em" y="23.743262205911627em" fill="#aaa"/><rect width="0.9615384615384616em" height="7.491169208261753em" x="25em" y="22.508830791738248em" fill="#aaa"/><rect width="0.9615384615384616em" height="7.715722769782046em" x="25.961538461538463em" y="22.284277230217953em" fill="#aaa"/><rect width="0.9615384615384616em" height="3.6397925074943807em" x="26.923076923076923em" y="26.36020749250562em" fill="#aaa"/><rect width="0.9615384615384616em" height="1.6414713776317547em" x="27.884615384615387em" y="28.358528622368244em" fill="#aaa"/><rect width="0.9615384615384616em" height="5.407625132916123em" x="28.846153846153847em" y="24.592374867083876em" fill="#aaa"/><rect width="0.9615384615384616em" height="6.908789771488333em" x="29.80769230769231em" y="23.091210228511667em" fill="#aaa"/><rect width="0.9615384615384616em" height="7.189422492824519em" x="30.76923076923077em" y="22.81057750717548em" fill="#aaa"/><rect width="0.9615384615384616em" height="12.444647059860657em" x="31.73076923076923em" y="17.555352940139343em" fill="#aaa"/><rect width="0.9615384615384616em" height="7.749415601551937em" x="32.69230769230769em" y="22.250584398448062em" fill="#aaa"/><rect width="0.9615384615384616em" height="13.18917321638037em" x="33.65384615384615em" y="16.810826783619632em" fill="#aaa"/><rect width="0.9615384615384616em" height="9.988065178577985em" x="34.61538461538461em" y="20.011934821422017em" fill="#aaa"/><rect width="0.9615384615384616em" height="9.498341365798266em" x="35.57692307692308em" y="20.501658634201732em" fill="#aaa"/><rect width="0.9615384615384616em" height="17.833182777029712em" x="36.53846153846154em" y="12.166817222970288em" fill="#aaa"/><rect width="0.9615384615384616em" height="14.322511168551538em" x="37.5em" y="15.677488831448462em" fill="#aaa"/><rect width="0.9615384615384616em" height="17.60033458067177em" x="38.46153846153846em" y="12.39966541932823em" fill="#aaa"/><rect width="0.9615384615384616em" height="8.352174466264232em" x="39.42307692307693em" y="21.64782553373577em" fill="#aaa"/><rect width="0.9615384615384616em" height="15.906581914361663em" x="40.38461538461539em" y="14.093418085638337em" fill="#aaa"/><rect width="0.9615384615384616em" height="25.597930622407635em" x="41.34615384615385em" y="4.402069377592365em" fill="#aaa"/><rect width="0.9615384615384616em" height="16.034039815149367em" x="42.30769230769231em" y="13.965960184850633em" fill="#aaa"/><rect width="0.9615384615384616em" height="10.806422995949742em" x="43.269230769230774em" y="19.19357700405026em" fill="#aaa"/><rect width="0.9615384615384616em" height="3.322965120723437em" x="44.23076923076923em" y="26.67703487927656em" fill="#aaa"/><rect width="0.9615384615384616em" height="21.957667407951476em" x="45.19230769230769em" y="8.042332592048524em" fill="#aaa"/><rect width="0.9615384615384616em" height="14.47774670600569em" x="46.15384615384615em" y="15.52225329399431em" fill="#aaa"/><rect width="0.9615384615384616em" height="15.358830349963284em" x="47.11538461538461em" y="14.641169650036716em" fill="#aaa"/><rect width="0.9615384615384616em" height="7.162083395033672em" x="48.07692307692308em" y="22.837916604966328em" fill="#aaa"/><rect width="0.9615384615384616em" height="4.951113609086081em" x="49.03846153846154em" y="25.04888639091392em" fill="#aaa"/><rect width="0.9615384615384616em" height="22.132870101892607em" x="50em" y="7.867129898107393em" fill="#aaa"/><rect width="0.9615384615384616em" height="13.699545462146851em" x="50.96153846153846em" y="16.30045453785315em" fill="#aaa"/><rect width="0.9615384615384616em" height="19.383999962144152em" x="51.92307692307693em" y="10.616000037855848em" fill="#aaa"/><rect width="0.9615384615384616em" height="10.305652550803014em" x="52.88461538461539em" y="19.694347449196986em" fill="#aaa"/><rect width="0.9615384615384616em" height="15.683727487736403em" x="53.84615384615385em" y="14.316272512263597em" fill="#aaa"/><rect width="0.9615384615384616em" height="11.802321399385537em" x="54.80769230769231em" y="18.197678600614463em" fill="#aaa"/><rect width="0.9615384615384616em" height="30em" x="55.769230769230774em" y="0em" fill="#aaa"/><rect width="0.9615384615384616em" height="24.121506290509988em" x="56.73076923076923em" y="5.878493709490012em" fill="#aaa"/><rect width="0.9615384615384616em" height="4.778359979129604em" x="57.69230769230769em" y="25.221640020870396em" fill="#aaa"/><rect width="0.9615384615384616em" height="6.056304354988615em" x="58.65384615384615em" y="23.943695645011385em" fill="#aaa"/><rect width="0.9615384615384616em" height="5.322784681785246em" x="59.61538461538462em" y="24.677215318214753em" fill="#aaa"/><rect width="0.9615384615384616em" height="5.710314086593767em" x="60.57692307692308em" y="24.28968591340623em" fill="#aaa"/><rect width="0.9615384615384616em" height="11.2146586029539em" x="61.53846153846154em" y="18.7853413970461em" fill="#aaa"/><rect width="0.9615384615384616em" height="7.241093195471695em" x="62.5em" y="22.758906804528305em" fill="#aaa"/><rect width="0.9615384615384616em" height="13.928511071456587em" x="63.46153846153846em" y="16.071488928543413em" fill="#aaa"/><rect width="0.9615384615384616em" height="18.74128905930387em" x="64.42307692307692em" y="11.25871094069613em" fill="#aaa"/><rect width="0.9615384615384616em" height="20.386671298706275em" x="65.38461538461539em" y="9.613328701293725em" fill="#aaa"/><rect width="0.9615384615384616em" height="21.991928148531525em" x="66.34615384615385em" y="8.008071851468475em" fill="#aaa"/><rect width="0.9615384615384616em" height="18.173918875073728em" x="67.3076923076923em" y="11.826081124926272em" fill="#aaa"/><rect width="0.9615384615384616em" height="20.1397906979679em" x="68.26923076923077em" y="9.8602093020321em" fill="#aaa"/><rect width="0.9615384615384616em" height="16.445824667483986em" x="69.23076923076923em" y="13.554175332516014em" fill="#aaa"/><rect width="0.9615384615384616em" height="19.870948441578253em" x="70.1923076923077em" y="10.129051558421747em" fill="#aaa"/><rect width="0.9615384615384616em" height="23.012514573596253em" x="71.15384615384616em" y="6.987485426403747em" fill="#aaa"/><rect width="0.9615384615384616em" height="12.879032007927282em" x="72.11538461538461em" y="17.120967992072718em" fill="#aaa"/><rect width="0.9615384615384616em" height="17.546097852204387em" x="73.07692307692308em" y="12.453902147795613em" fill="#aaa"/><rect width="0.9615384615384616em" height="8.221022909959856em" x="74.03846153846155em" y="21.778977090040144em" fill="#aaa"/><rect width="0.9615384615384616em" height="22.766543257482574em" x="75em" y="7.233456742517426em" fill="#aaa"/><rect width="0.9615384615384616em" height="23.755844114870783em" x="75.96153846153847em" y="6.244155885129217em" fill="#aaa"/><rect width="0.9615384615384616em" height="15.433609464707411em" x="76.92307692307692em" y="14.566390535292589em" fill="#aaa"/><rect width="0.9615384615384616em" height="19.240011656002654em" x="77.88461538461539em" y="10.759988343997346em" fill="#aaa"/><rect width="0.9615384615384616em" height="13.660317324084412em" x="78.84615384615385em" y="16.33968267591559em" fill="#aaa"/><rect width="0.9615384615384616em" height="14.576027430995708em" x="79.8076923076923em" y="15.423972569004292em" fill="#aaa"/><rect width="0.9615384615384616em" height="15.35124142202248em" x="80.76923076923077em" y="14.64875857797752em" fill="#aaa"/><rect width="0.9615384615384616em" height="21.6171836295644em" x="81.73076923076923em" y="8.382816370435599em" fill="#aaa"/><rect width="0.9615384615384616em" height="18.38116296739543em" x="82.6923076923077em" y="11.61883703260457em" fill="#aaa"/><rect width="0.9615384615384616em" height="12.549585229383874em" x="83.65384615384616em" y="17.450414770616128em" fill="#aaa"/><rect width="0.9615384615384616em" height="13.606027852711444em" x="84.61538461538461em" y="16.393972147288558em" fill="#aaa"/><rect width="0.9615384615384616em" height="16.42121377880845em" x="85.57692307692308em" y="13.57878622119155em" fill="#aaa"/><rect width="0.9615384615384616em" height="16.80968106718915em" x="86.53846153846155em" y="13.19031893281085em" fill="#aaa"/><rect width="0.9615384615384616em" height="16.711220160470923em" x="87.5em" y="13.288779839529077em" fill="#aaa"/><rect width="0.9615384615384616em" height="23.194743886949674em" x="88.46153846153847em" y="6.805256113050326em" fill="#aaa"/><rect width="0.9615384615384616em" height="18.23542609901976em" x="89.42307692307692em" y="11.764573900980238em" fill="#aaa"/><rect width="0.9615384615384616em" height="14.191849915660033em" x="90.38461538461539em" y="15.808150084339967em" fill="#aaa"/><rect width="0.9615384615384616em" height="11.978329424690017em" x="91.34615384615385em" y="18.021670575309983em" fill="#aaa"/><rect width="0.9615384615384616em" height="16.221841632226933em" x="92.3076923076923em" y="13.778158367773067em" fill="#aaa"/><rect width="0.9615384615384616em" height="12.605221851415116em" x="93.26923076923077em" y="17.394778148584884em" fill="#aaa"/><rect width="0.9615384615384616em" height="13.661872726515506em" x="94.23076923076923em" y="16.338127273484496em" fill="#aaa"/><rect width="0.9615384615384616em" height="7.512161549940711em" x="95.1923076923077em" y="22.48783845005929em" fill="#aaa"/><rect width="0.9615384615384616em" height="15.6401543371643em" x="96.15384615384616em" y="14.3598456628357em" fill="#aaa"/><rect width="0.9615384615384616em" height="16.77744370317386em" x="97.11538461538461em" y="13.222556296826141em" fill="#aaa"/><rect width="0.9615384615384616em" height="15.947322874837045em" x="98.07692307692308em" y="14.052677125162955em" fill="#aaa"/><rect width="0.9615384615384616em" height="13.398591296490585em" x="99.03846153846155em" y="16.601408703509414em" fill="#aaa"/></svg>