<?xml version="1.0" standalone="no"?>
<svg xmlns:xlink="http://www.w3.org/1999/xlink" xmlns="http://www.w3.org/2000/svg" class="topic-graph" style="width: 10vw; height: 3em; text-align: center;"><rect width="0.09615384615384616em" height="0.4344945113549247em" x="0vw" y="2.5655054886450754em" fill="#aaa"/><rect width="0.09615384615384616em" height="0.768433250592855em" x="0.09615384615384616vw" y="2.231566749407145em" fill="#aaa"/><rect width="0.09615384615384616em" height="0.023581576475766038em" x="0.19230769230769232vw" y="2.976418423524234em" fill="#aaa"/><rect width="0.09615384615384616em" height="0.2984134840776982em" x="0.2884615384615385vw" y="2.701586515922302em" fill="#aaa"/><rect width="0.09615384615384616em" height="0.06276251354054573em" x="0.38461538461538464vw" y="2.937237486459454em" fill="#aaa"/><rect width="0.09615384615384616em" height="0.030288265897834326em" x="0.4807692307692308vw" y="2.9697117341021655em" fill="#aaa"/><rect width="0.09615384615384616em" height="0.23268038359105425em" x="0.576923076923077vw" y="2.7673196164089457em" fill="#aaa"/><rect width="0.09615384615384616em" height="0.004644058421223075em" x="0.6730769230769231vw" y="2.9953559415787767em" fill="#aaa"/><rect width="0.09615384615384616em" height="0.3231147640375424em" x="0.7692307692307693vw" y="2.6768852359624575em" fill="#aaa"/><rect width="0.09615384615384616em" height="0.18894780977572623em" x="0.8653846153846154vw" y="2.8110521902242738em" fill="#aaa"/><rect width="0.09615384615384616em" height="0.26256704186510993em" x="0.9615384615384616vw" y="2.73743295813489em" fill="#aaa"/><rect width="0.09615384615384616em" height="0.009249010281442253em" x="1.0576923076923077vw" y="2.9907509897185576em" fill="#aaa"/><rect width="0.09615384615384616em" height="0.26144371801909133em" x="1.153846153846154vw" y="2.738556281980909em" fill="#aaa"/><rect width="0.09615384615384616em" height="0.028673877831021734em" x="1.25vw" y="2.9713261221689784em" fill="#aaa"/><rect width="0.09615384615384616em" height="0.5818780913812278em" x="1.3461538461538463vw" y="2.4181219086187724em" fill="#aaa"/><rect width="0.09615384615384616em" height="0.26341839522673444em" x="1.4423076923076923vw" y="2.7365816047732654em" fill="#aaa"/><rect width="0.09615384615384616em" height="0.22500131074373642em" x="1.5384615384615385vw" y="2.7749986892562637em" fill="#aaa"/><rect width="0.09615384615384616em" height="0.20077868347158867em" x="1.6346153846153848vw" y="2.799221316528411em" fill="#aaa"/><rect width="0.09615384615384616em" height="1.1137492588054774em" x="1.7307692307692308vw" y="1.8862507411945226em" fill="#aaa"/><rect width="0.09615384615384616em" height="3em" x="1.826923076923077vw" y="0em" fill="#aaa"/><rect width="0.09615384615384616em" height="0.7744719074740475em" x="1.9230769230769231vw" y="2.2255280925259524em" fill="#aaa"/><rect width="0.09615384615384616em" height="0.085785848510333em" x="2.019230769230769vw" y="2.914214151489667em" fill="#aaa"/><rect width="0.09615384615384616em" height="0.05819870482783411em" x="2.1153846153846154vw" y="2.9418012951721657em" fill="#aaa"/><rect width="0.09615384615384616em" height="0.06414795838445302em" x="2.2115384615384617vw" y="2.935852041615547em" fill="#aaa"/><rect width="0.09615384615384616em" height="0.18560762565913566em" x="2.307692307692308vw" y="2.8143923743408643em" fill="#aaa"/><rect width="0.09615384615384616em" height="1.3169707346333765em" x="2.403846153846154vw" y="1.6830292653666235em" fill="#aaa"/><rect width="0.09615384615384616em" height="0.3181870262891556em" x="2.5vw" y="2.6818129737108443em" fill="#aaa"/><rect width="0.09615384615384616em" height="0.02679172804483302em" x="2.5961538461538463vw" y="2.973208271955167em" fill="#aaa"/><rect width="0.09615384615384616em" height="0.39408328708050705em" x="2.6923076923076925vw" y="2.605916712919493em" fill="#aaa"/><rect width="0.09615384615384616em" height="0.34618871277923235em" x="2.7884615384615388vw" y="2.6538112872207678em" fill="#aaa"/><rect width="0.09615384615384616em" height="0.2717474823812378em" x="2.8846153846153846vw" y="2.7282525176187624em" fill="#aaa"/><rect width="0.09615384615384616em" height="0.05516722667893845em" x="2.980769230769231vw" y="2.9448327733210617em" fill="#aaa"/><rect width="0.09615384615384616em" height="0.03211468272503193em" x="3.076923076923077vw" y="2.967885317274968em" fill="#aaa"/><rect width="0.09615384615384616em" height="0.023518324696585886em" x="3.1730769230769234vw" y="2.9764816753034142em" fill="#aaa"/><rect width="0.09615384615384616em" height="0.10320104194138316em" x="3.2692307692307696vw" y="2.896798958058617em" fill="#aaa"/><rect width="0.09615384615384616em" height="0.012444937776406446em" x="3.3653846153846154vw" y="2.9875550622235933em" fill="#aaa"/><rect width="0.09615384615384616em" height="0.028688790161414072em" x="3.4615384615384617vw" y="2.971311209838586em" fill="#aaa"/><rect width="0.09615384615384616em" height="0.10104555507298695em" x="3.557692307692308vw" y="2.8989544449270133em" fill="#aaa"/><rect width="0.09615384615384616em" height="0.057334960243081864em" x="3.653846153846154vw" y="2.942665039756918em" fill="#aaa"/><rect width="0.09615384615384616em" height="0.03838930588714723em" x="3.75vw" y="2.961610694112853em" fill="#aaa"/><rect width="0.09615384615384616em" height="0.11966709535557929em" x="3.8461538461538463vw" y="2.880332904644421em" fill="#aaa"/><rect width="0.09615384615384616em" height="0.1016549139187983em" x="3.9423076923076925vw" y="2.8983450860812017em" fill="#aaa"/><rect width="0.09615384615384616em" height="0.3594185413008099em" x="4.038461538461538vw" y="2.6405814586991903em" fill="#aaa"/><rect width="0.09615384615384616em" height="0.03188615979710961em" x="4.134615384615385vw" y="2.9681138402028906em" fill="#aaa"/><rect width="0.09615384615384616em" height="0.07621542451825657em" x="4.230769230769231vw" y="2.9237845754817435em" fill="#aaa"/><rect width="0.09615384615384616em" height="0.08179800721972472em" x="4.3269230769230775vw" y="2.918201992780275em" fill="#aaa"/><rect width="0.09615384615384616em" height="0.3856764987669654em" x="4.423076923076923vw" y="2.6143235012330344em" fill="#aaa"/><rect width="0.09615384615384616em" height="0.16487376803793294em" x="4.519230769230769vw" y="2.835126231962067em" fill="#aaa"/><rect width="0.09615384615384616em" height="0.20096701467247824em" x="4.615384615384616vw" y="2.7990329853275218em" fill="#aaa"/><rect width="0.09615384615384616em" height="0.3504408685159211em" x="4.711538461538462vw" y="2.6495591314840787em" fill="#aaa"/><rect width="0.09615384615384616em" height="0.07676950218944342em" x="4.807692307692308vw" y="2.9232304978105565em" fill="#aaa"/><rect width="0.09615384615384616em" height="0.03294524877887869em" x="4.903846153846154vw" y="2.9670547512211214em" fill="#aaa"/><rect width="0.09615384615384616em" height="0.07059852371320682em" x="5vw" y="2.929401476286793em" fill="#aaa"/><rect width="0.09615384615384616em" height="0.07587097404356558em" x="5.096153846153847vw" y="2.9241290259564345em" fill="#aaa"/><rect width="0.09615384615384616em" height="0.029148751253194598em" x="5.1923076923076925vw" y="2.9708512487468055em" fill="#aaa"/><rect width="0.09615384615384616em" height="0.3542784235234641em" x="5.288461538461538vw" y="2.645721576476536em" fill="#aaa"/><rect width="0.09615384615384616em" height="0.08706683939725313em" x="5.384615384615385vw" y="2.912933160602747em" fill="#aaa"/><rect width="0.09615384615384616em" height="0.4710317412358773em" x="5.480769230769231vw" y="2.528968258764123em" fill="#aaa"/><rect width="0.09615384615384616em" height="0.24258084118170165em" x="5.5769230769230775vw" y="2.7574191588182986em" fill="#aaa"/><rect width="0.09615384615384616em" height="0.4538415280173251em" x="5.673076923076923vw" y="2.546158471982675em" fill="#aaa"/><rect width="0.09615384615384616em" height="0.33550797259824106em" x="5.769230769230769vw" y="2.664492027401759em" fill="#aaa"/><rect width="0.09615384615384616em" height="0.7555764358091015em" x="5.865384615384616vw" y="2.2444235641908987em" fill="#aaa"/><rect width="0.09615384615384616em" height="0.08752450806355942em" x="5.961538461538462vw" y="2.9124754919364406em" fill="#aaa"/><rect width="0.09615384615384616em" height="0.16694584965232967em" x="6.057692307692308vw" y="2.8330541503476705em" fill="#aaa"/><rect width="0.09615384615384616em" height="0.10157369294760363em" x="6.153846153846154vw" y="2.8984263070523966em" fill="#aaa"/><rect width="0.09615384615384616em" height="0.2746983699229754em" x="6.25vw" y="2.7253016300770248em" fill="#aaa"/><rect width="0.09615384615384616em" height="0.1368350167514838em" x="6.346153846153847vw" y="2.863164983248516em" fill="#aaa"/><rect width="0.09615384615384616em" height="0.05057091430928228em" x="6.4423076923076925vw" y="2.949429085690718em" fill="#aaa"/><rect width="0.09615384615384616em" height="0.1138279816437876em" x="6.538461538461539vw" y="2.8861720183562123em" fill="#aaa"/><rect width="0.09615384615384616em" height="0.20943185028061834em" x="6.634615384615385vw" y="2.7905681497193817em" fill="#aaa"/><rect width="0.09615384615384616em" height="0.1504088400683895em" x="6.730769230769231vw" y="2.8495911599316104em" fill="#aaa"/><rect width="0.09615384615384616em" height="0.04217557653517042em" x="6.8269230769230775vw" y="2.9578244234648294em" fill="#aaa"/><rect width="0.09615384615384616em" height="0.11199744450757086em" x="6.923076923076923vw" y="2.888002555492429em" fill="#aaa"/><rect width="0.09615384615384616em" height="0.10743457385112508em" x="7.01923076923077vw" y="2.892565426148875em" fill="#aaa"/><rect width="0.09615384615384616em" height="0.15980633070627553em" x="7.115384615384616vw" y="2.8401936692937246em" fill="#aaa"/><rect width="0.09615384615384616em" height="0.3372581595009516em" x="7.211538461538462vw" y="2.6627418404990486em" fill="#aaa"/><rect width="0.09615384615384616em" height="0.1665945262348158em" x="7.307692307692308vw" y="2.8334054737651844em" fill="#aaa"/><rect width="0.09615384615384616em" height="0.14334962638461338em" x="7.403846153846154vw" y="2.8566503736153868em" fill="#aaa"/><rect width="0.09615384615384616em" height="0.046057597891302635em" x="7.5vw" y="2.9539424021086975em" fill="#aaa"/><rect width="0.09615384615384616em" height="0.02489603276067926em" x="7.596153846153847vw" y="2.975103967239321em" fill="#aaa"/><rect width="0.09615384615384616em" height="0.34411391728939755em" x="7.6923076923076925vw" y="2.6558860827106026em" fill="#aaa"/><rect width="0.09615384615384616em" height="0.2263000549097225em" x="7.788461538461539vw" y="2.7736999450902777em" fill="#aaa"/><rect width="0.09615384615384616em" height="0.07351908208376692em" x="7.884615384615385vw" y="2.926480917916233em" fill="#aaa"/><rect width="0.09615384615384616em" height="0.05754430182489242em" x="7.980769230769231vw" y="2.9424556981751078em" fill="#aaa"/><rect width="0.09615384615384616em" height="0.1442266763671183em" x="8.076923076923077vw" y="2.8557733236328815em" fill="#aaa"/><rect width="0.09615384615384616em" height="0.08638170365511588em" x="8.173076923076923vw" y="2.9136182963448842em" fill="#aaa"/><rect width="0.09615384615384616em" height="0.01974845733658383em" x="8.26923076923077vw" y="2.980251542663416em" fill="#aaa"/><rect width="0.09615384615384616em" height="0.02153540211126422em" x="8.365384615384615vw" y="2.9784645978887356em" fill="#aaa"/><rect width="0.09615384615384616em" height="0.13455576791354235em" x="8.461538461538462vw" y="2.8654442320864577em" fill="#aaa"/><rect width="0.09615384615384616em" height="0.08454237148625035em" x="8.557692307692308vw" y="2.9154576285137495em" fill="#aaa"/><rect width="0.09615384615384616em" height="0.13922102652772755em" x="8.653846153846155vw" y="2.8607789734722724em" fill="#aaa"/><rect width="0.09615384615384616em" height="0.08172798710787774em" x="8.75vw" y="2.9182720128921225em" fill="#aaa"/><rect width="0.09615384615384616em" height="0.1179764743327908em" x="8.846153846153847vw" y="2.882023525667209em" fill="#aaa"/><rect width="0.09615384615384616em" height="0.07951294635844491em" x="8.942307692307693vw" y="2.9204870536415553em" fill="#aaa"/><rect width="0.09615384615384616em" height="0.08584149751954714em" x="9.038461538461538vw" y="2.914158502480453em" fill="#aaa"/><rect width="0.09615384615384616em" height="0.12634977337623535em" x="9.134615384615385vw" y="2.8736502266237647em" fill="#aaa"/><rect width="0.09615384615384616em" height="0.38490342020876134em" x="9.230769230769232vw" y="2.6150965797912384em" fill="#aaa"/><rect width="0.09615384615384616em" height="0.08656163279837964em" x="9.326923076923077vw" y="2.9134383672016204em" fill="#aaa"/><rect width="0.09615384615384616em" height="0.15154474276656751em" x="9.423076923076923vw" y="2.8484552572334323em" fill="#aaa"/><rect width="0.09615384615384616em" height="0.09848375950841115em" x="9.51923076923077vw" y="2.901516240491589em" fill="#aaa"/><rect width="0.09615384615384616em" height="0.15428337955932866em" x="9.615384615384617vw" y="2.845716620440671em" fill="#aaa"/><rect width="0.09615384615384616em" height="0.11831205965030997em" x="9.711538461538462vw" y="2.88168794034969em" fill="#aaa"/><rect width="0.09615384615384616em" height="0.16927213504096023em" x="9.807692307692308vw" y="2.83072786495904em" fill="#aaa"/><rect width="0.09615384615384616em" height="0.7649228837719089em" x="9.903846153846155vw" y="2.235077116228091em" fill="#aaa"/></svg>