<?xml version="1.0" standalone="no"?>
<svg xmlns:xlink="http://www.w3.org/1999/xlink" xmlns="http://www.w3.org/2000/svg" class="topic-graph" style="width: 100em; height: 30em; text-align: center;"><rect width="0.9615384615384616em" height="7.187069160353205em" x="0em" y="22.812930839646796em" fill="#aaa"/><rect width="0.9615384615384616em" height="4.124780138025314em" x="0.9615384615384616em" y="25.875219861974685em" fill="#aaa"/><rect width="0.9615384615384616em" height="4.075457427426416em" x="1.9230769230769231em" y="25.924542572573586em" fill="#aaa"/><rect width="0.9615384615384616em" height="2.176108676229041em" x="2.8846153846153846em" y="27.823891323770958em" fill="#aaa"/><rect width="0.9615384615384616em" height="4.752791779061237em" x="3.8461538461538463em" y="25.247208220938763em" fill="#aaa"/><rect width="0.9615384615384616em" height="3.909948925009852em" x="4.8076923076923075em" y="26.09005107499015em" fill="#aaa"/><rect width="0.9615384615384616em" height="5.1635543301003555em" x="5.769230769230769em" y="24.836445669899646em" fill="#aaa"/><rect width="0.9615384615384616em" height="3.8375544738562604em" x="6.730769230769231em" y="26.16244552614374em" fill="#aaa"/><rect width="0.9615384615384616em" height="7.534623869378615em" x="7.6923076923076925em" y="22.465376130621387em" fill="#aaa"/><rect width="0.9615384615384616em" height="4.767060288613497em" x="8.653846153846153em" y="25.232939711386503em" fill="#aaa"/><rect width="0.9615384615384616em" height="6.666351848488024em" x="9.615384615384615em" y="23.333648151511976em" fill="#aaa"/><rect width="0.9615384615384616em" height="7.048685534189378em" x="10.576923076923077em" y="22.951314465810622em" fill="#aaa"/><rect width="0.9615384615384616em" height="4.609440883994795em" x="11.538461538461538em" y="25.390559116005207em" fill="#aaa"/><rect width="0.9615384615384616em" height="2.949934517307147em" x="12.5em" y="27.05006548269285em" fill="#aaa"/><rect width="0.9615384615384616em" height="10.161665990083634em" x="13.461538461538462em" y="19.838334009916366em" fill="#aaa"/><rect width="0.9615384615384616em" height="7.13628361217239em" x="14.423076923076923em" y="22.86371638782761em" fill="#aaa"/><rect width="0.9615384615384616em" height="6.971041058985108em" x="15.384615384615385em" y="23.028958941014892em" fill="#aaa"/><rect width="0.9615384615384616em" height="6.03789403840508em" x="16.346153846153847em" y="23.962105961594922em" fill="#aaa"/><rect width="0.9615384615384616em" height="4.0047937636736215em" x="17.307692307692307em" y="25.99520623632638em" fill="#aaa"/><rect width="0.9615384615384616em" height="6.483101583019201em" x="18.26923076923077em" y="23.516898416980798em" fill="#aaa"/><rect width="0.9615384615384616em" height="6.13106510839796em" x="19.23076923076923em" y="23.868934891602038em" fill="#aaa"/><rect width="0.9615384615384616em" height="6.873893889189676em" x="20.192307692307693em" y="23.126106110810323em" fill="#aaa"/><rect width="0.9615384615384616em" height="12.333861743251525em" x="21.153846153846153em" y="17.666138256748475em" fill="#aaa"/><rect width="0.9615384615384616em" height="20.228852888538047em" x="22.115384615384617em" y="9.771147111461953em" fill="#aaa"/><rect width="0.9615384615384616em" height="30em" x="23.076923076923077em" y="0em" fill="#aaa"/><rect width="0.9615384615384616em" height="14.262532524408634em" x="24.03846153846154em" y="15.737467475591366em" fill="#aaa"/><rect width="0.9615384615384616em" height="8.208149041531227em" x="25em" y="21.79185095846877em" fill="#aaa"/><rect width="0.9615384615384616em" height="10.678303674896076em" x="25.961538461538463em" y="19.32169632510392em" fill="#aaa"/><rect width="0.9615384615384616em" height="15.522825204748422em" x="26.923076923076923em" y="14.477174795251578em" fill="#aaa"/><rect width="0.9615384615384616em" height="13.760262972440445em" x="27.884615384615387em" y="16.239737027559556em" fill="#aaa"/><rect width="0.9615384615384616em" height="13.820326944005501em" x="28.846153846153847em" y="16.1796730559945em" fill="#aaa"/><rect width="0.9615384615384616em" height="12.42816627659519em" x="29.80769230769231em" y="17.571833723404808em" fill="#aaa"/><rect width="0.9615384615384616em" height="11.355318692657997em" x="30.76923076923077em" y="18.644681307342005em" fill="#aaa"/><rect width="0.9615384615384616em" height="10.90444326288833em" x="31.73076923076923em" y="19.09555673711167em" fill="#aaa"/><rect width="0.9615384615384616em" height="12.299087577926478em" x="32.69230769230769em" y="17.70091242207352em" fill="#aaa"/><rect width="0.9615384615384616em" height="9.066521589939581em" x="33.65384615384615em" y="20.933478410060417em" fill="#aaa"/><rect width="0.9615384615384616em" height="13.0201968987623em" x="34.61538461538461em" y="16.9798031012377em" fill="#aaa"/><rect width="0.9615384615384616em" height="9.715060310212422em" x="35.57692307692308em" y="20.284939689787578em" fill="#aaa"/><rect width="0.9615384615384616em" height="10.722793792754603em" x="36.53846153846154em" y="19.2772062072454em" fill="#aaa"/><rect width="0.9615384615384616em" height="10.344664451733259em" x="37.5em" y="19.65533554826674em" fill="#aaa"/><rect width="0.9615384615384616em" height="11.699340427855182em" x="38.46153846153846em" y="18.300659572144816em" fill="#aaa"/><rect width="0.9615384615384616em" height="10.3291827787099em" x="39.42307692307693em" y="19.6708172212901em" fill="#aaa"/><rect width="0.9615384615384616em" height="11.15335309200948em" x="40.38461538461539em" y="18.846646907990518em" fill="#aaa"/><rect width="0.9615384615384616em" height="10.649758157170856em" x="41.34615384615385em" y="19.350241842829142em" fill="#aaa"/><rect width="0.9615384615384616em" height="9.405661954678093em" x="42.30769230769231em" y="20.594338045321905em" fill="#aaa"/><rect width="0.9615384615384616em" height="10.93472213004821em" x="43.269230769230774em" y="19.065277869951792em" fill="#aaa"/><rect width="0.9615384615384616em" height="8.685785442052525em" x="44.23076923076923em" y="21.314214557947473em" fill="#aaa"/><rect width="0.9615384615384616em" height="10.261268764569271em" x="45.19230769230769em" y="19.738731235430727em" fill="#aaa"/><rect width="0.9615384615384616em" height="9.927949052090943em" x="46.15384615384615em" y="20.072050947909055em" fill="#aaa"/><rect width="0.9615384615384616em" height="12.212712627791927em" x="47.11538461538461em" y="17.787287372208073em" fill="#aaa"/><rect width="0.9615384615384616em" height="13.574778539749413em" x="48.07692307692308em" y="16.425221460250587em" fill="#aaa"/><rect width="0.9615384615384616em" height="11.789093156509654em" x="49.03846153846154em" y="18.210906843490346em" fill="#aaa"/><rect width="0.9615384615384616em" height="12.327287050867122em" x="50em" y="17.67271294913288em" fill="#aaa"/><rect width="0.9615384615384616em" height="10.349589542912868em" x="50.96153846153846em" y="19.650410457087133em" fill="#aaa"/><rect width="0.9615384615384616em" height="12.377564353117283em" x="51.92307692307693em" y="17.622435646882717em" fill="#aaa"/><rect width="0.9615384615384616em" height="11.115118469459635em" x="52.88461538461539em" y="18.884881530540365em" fill="#aaa"/><rect width="0.9615384615384616em" height="14.472034594593822em" x="53.84615384615385em" y="15.527965405406178em" fill="#aaa"/><rect width="0.9615384615384616em" height="14.437161727059049em" x="54.80769230769231em" y="15.562838272940951em" fill="#aaa"/><rect width="0.9615384615384616em" height="11.868373989005505em" x="55.769230769230774em" y="18.131626010994495em" fill="#aaa"/><rect width="0.9615384615384616em" height="13.071513608161819em" x="56.73076923076923em" y="16.92848639183818em" fill="#aaa"/><rect width="0.9615384615384616em" height="15.624982617237235em" x="57.69230769230769em" y="14.375017382762765em" fill="#aaa"/><rect width="0.9615384615384616em" height="13.749418514952882em" x="58.65384615384615em" y="16.250581485047118em" fill="#aaa"/><rect width="0.9615384615384616em" height="13.957012650017715em" x="59.61538461538462em" y="16.042987349982283em" fill="#aaa"/><rect width="0.9615384615384616em" height="12.546918514161453em" x="60.57692307692308em" y="17.453081485838545em" fill="#aaa"/><rect width="0.9615384615384616em" height="16.71094334090844em" x="61.53846153846154em" y="13.28905665909156em" fill="#aaa"/><rect width="0.9615384615384616em" height="8.011378435357983em" x="62.5em" y="21.988621564642017em" fill="#aaa"/><rect width="0.9615384615384616em" height="6.644876732904201em" x="63.46153846153846em" y="23.3551232670958em" fill="#aaa"/><rect width="0.9615384615384616em" height="4.875839679741086em" x="64.42307692307692em" y="25.124160320258916em" fill="#aaa"/><rect width="0.9615384615384616em" height="6.603855781666669em" x="65.38461538461539em" y="23.39614421833333em" fill="#aaa"/><rect width="0.9615384615384616em" height="8.717370800808615em" x="66.34615384615385em" y="21.282629199191383em" fill="#aaa"/><rect width="0.9615384615384616em" height="5.707772017620204em" x="67.3076923076923em" y="24.292227982379796em" fill="#aaa"/><rect width="0.9615384615384616em" height="7.094282590176324em" x="68.26923076923077em" y="22.905717409823676em" fill="#aaa"/><rect width="0.9615384615384616em" height="8.477638589855877em" x="69.23076923076923em" y="21.52236141014412em" fill="#aaa"/><rect width="0.9615384615384616em" height="5.4210591008879em" x="70.1923076923077em" y="24.578940899112098em" fill="#aaa"/><rect width="0.9615384615384616em" height="6.314601445396284em" x="71.15384615384616em" y="23.685398554603715em" fill="#aaa"/><rect width="0.9615384615384616em" height="7.739197260456017em" x="72.11538461538461em" y="22.260802739543983em" fill="#aaa"/><rect width="0.9615384615384616em" height="9.199479848426206em" x="73.07692307692308em" y="20.800520151573792em" fill="#aaa"/><rect width="0.9615384615384616em" height="11.677974484307985em" x="74.03846153846155em" y="18.322025515692015em" fill="#aaa"/><rect width="0.9615384615384616em" height="8.507245224529589em" x="75em" y="21.49275477547041em" fill="#aaa"/><rect width="0.9615384615384616em" height="10.296876836637393em" x="75.96153846153847em" y="19.703123163362605em" fill="#aaa"/><rect width="0.9615384615384616em" height="9.026475028245224em" x="76.92307692307692em" y="20.973524971754777em" fill="#aaa"/><rect width="0.9615384615384616em" height="10.182370488675646em" x="77.88461538461539em" y="19.817629511324355em" fill="#aaa"/><rect width="0.9615384615384616em" height="5.835004518665587em" x="78.84615384615385em" y="24.164995481334415em" fill="#aaa"/><rect width="0.9615384615384616em" height="5.591249026792535em" x="79.8076923076923em" y="24.408750973207464em" fill="#aaa"/><rect width="0.9615384615384616em" height="6.568624659725155em" x="80.76923076923077em" y="23.431375340274844em" fill="#aaa"/><rect width="0.9615384615384616em" height="6.232302007617839em" x="81.73076923076923em" y="23.76769799238216em" fill="#aaa"/><rect width="0.9615384615384616em" height="4.829680608486531em" x="82.6923076923077em" y="25.17031939151347em" fill="#aaa"/><rect width="0.9615384615384616em" height="17.071579640141827em" x="83.65384615384616em" y="12.928420359858173em" fill="#aaa"/><rect width="0.9615384615384616em" height="7.192682548770413em" x="84.61538461538461em" y="22.807317451229586em" fill="#aaa"/><rect width="0.9615384615384616em" height="6.652928080036046em" x="85.57692307692308em" y="23.347071919963952em" fill="#aaa"/><rect width="0.9615384615384616em" height="6.533179006422375em" x="86.53846153846155em" y="23.466820993577624em" fill="#aaa"/><rect width="0.9615384615384616em" height="7.904801503372347em" x="87.5em" y="22.095198496627653em" fill="#aaa"/><rect width="0.9615384615384616em" height="9.287892133678966em" x="88.46153846153847em" y="20.712107866321034em" fill="#aaa"/><rect width="0.9615384615384616em" height="9.266639058541093em" x="89.42307692307692em" y="20.733360941458905em" fill="#aaa"/><rect width="0.9615384615384616em" height="13.89629132738343em" x="90.38461538461539em" y="16.10370867261657em" fill="#aaa"/><rect width="0.9615384615384616em" height="23.06441708399612em" x="91.34615384615385em" y="6.935582916003881em" fill="#aaa"/><rect width="0.9615384615384616em" height="22.033803004507373em" x="92.3076923076923em" y="7.966196995492627em" fill="#aaa"/><rect width="0.9615384615384616em" height="19.357858862708596em" x="93.26923076923077em" y="10.642141137291404em" fill="#aaa"/><rect width="0.9615384615384616em" height="22.890558149568808em" x="94.23076923076923em" y="7.1094418504311925em" fill="#aaa"/><rect width="0.9615384615384616em" height="23.08934285786393em" x="95.1923076923077em" y="6.9106571421360705em" fill="#aaa"/><rect width="0.9615384615384616em" height="26.80914415668828em" x="96.15384615384616em" y="3.19085584331172em" fill="#aaa"/><rect width="0.9615384615384616em" height="24.267276097621313em" x="97.11538461538461em" y="5.732723902378687em" fill="#aaa"/><rect width="0.9615384615384616em" height="28.4165862132366em" x="98.07692307692308em" y="1.5834137867634013em" fill="#aaa"/><rect width="0.9615384615384616em" height="29.118105706780934em" x="99.03846153846155em" y="0.8818942932190659em" fill="#aaa"/></svg>