<?xml version="1.0" standalone="no"?>
<svg xmlns:xlink="http://www.w3.org/1999/xlink" xmlns="http://www.w3.org/2000/svg" class="topic-graph" style="width: 10vw; height: 3em; text-align: center;"><rect width="0.09615384615384616em" height="0.12924378816993684em" x="0vw" y="2.8707562118300634em" fill="#aaa"/><rect width="0.09615384615384616em" height="0.45642208149153707em" x="0.09615384615384616vw" y="2.543577918508463em" fill="#aaa"/><rect width="0.09615384615384616em" height="0.0513803592819413em" x="0.19230769230769232vw" y="2.9486196407180585em" fill="#aaa"/><rect width="0.09615384615384616em" height="0.14466713516885793em" x="0.2884615384615385vw" y="2.855332864831142em" fill="#aaa"/><rect width="0.09615384615384616em" height="0.07890393131292356em" x="0.38461538461538464vw" y="2.9210960686870764em" fill="#aaa"/><rect width="0.09615384615384616em" height="1.1343334953768296em" x="0.4807692307692308vw" y="1.8656665046231704em" fill="#aaa"/><rect width="0.09615384615384616em" height="0.2055578561675785em" x="0.576923076923077vw" y="2.7944421438324216em" fill="#aaa"/><rect width="0.09615384615384616em" height="0.014300557161881004em" x="0.6730769230769231vw" y="2.985699442838119em" fill="#aaa"/><rect width="0.09615384615384616em" height="0.2596630258637993em" x="0.7692307692307693vw" y="2.7403369741362007em" fill="#aaa"/><rect width="0.09615384615384616em" height="0.23910523545295956em" x="0.8653846153846154vw" y="2.7608947645470403em" fill="#aaa"/><rect width="0.09615384615384616em" height="0.03759057540626587em" x="0.9615384615384616vw" y="2.962409424593734em" fill="#aaa"/><rect width="0.09615384615384616em" height="0.07160264365103995em" x="1.0576923076923077vw" y="2.92839735634896em" fill="#aaa"/><rect width="0.09615384615384616em" height="0.4205698779799172em" x="1.153846153846154vw" y="2.579430122020083em" fill="#aaa"/><rect width="0.09615384615384616em" height="0.09298020651969em" x="1.25vw" y="2.90701979348031em" fill="#aaa"/><rect width="0.09615384615384616em" height="0.07926225638263111em" x="1.3461538461538463vw" y="2.920737743617369em" fill="#aaa"/><rect width="0.09615384615384616em" height="0.6552673939626834em" x="1.4423076923076923vw" y="2.344732606037317em" fill="#aaa"/><rect width="0.09615384615384616em" height="0.6547037317396595em" x="1.5384615384615385vw" y="2.3452962682603404em" fill="#aaa"/><rect width="0.09615384615384616em" height="0.19506640208883622em" x="1.6346153846153848vw" y="2.804933597911164em" fill="#aaa"/><rect width="0.09615384615384616em" height="0.7981808094327603em" x="1.7307692307692308vw" y="2.2018191905672397em" fill="#aaa"/><rect width="0.09615384615384616em" height="0.6288678723117251em" x="1.826923076923077vw" y="2.371132127688275em" fill="#aaa"/><rect width="0.09615384615384616em" height="2.2416862617424465em" x="1.9230769230769231vw" y="0.7583137382575535em" fill="#aaa"/><rect width="0.09615384615384616em" height="0.5742630569801653em" x="2.019230769230769vw" y="2.425736943019835em" fill="#aaa"/><rect width="0.09615384615384616em" height="0.4148141674471961em" x="2.1153846153846154vw" y="2.5851858325528037em" fill="#aaa"/><rect width="0.09615384615384616em" height="0.07673395757043985em" x="2.2115384615384617vw" y="2.9232660424295602em" fill="#aaa"/><rect width="0.09615384615384616em" height="0.7477278135964225em" x="2.307692307692308vw" y="2.2522721864035775em" fill="#aaa"/><rect width="0.09615384615384616em" height="0.1379760092981827em" x="2.403846153846154vw" y="2.8620239907018172em" fill="#aaa"/><rect width="0.09615384615384616em" height="0.3278235806967349em" x="2.5vw" y="2.6721764193032653em" fill="#aaa"/><rect width="0.09615384615384616em" height="0.24859559504547202em" x="2.5961538461538463vw" y="2.751404404954528em" fill="#aaa"/><rect width="0.09615384615384616em" height="0.27560464017325337em" x="2.6923076923076925vw" y="2.7243953598267465em" fill="#aaa"/><rect width="0.09615384615384616em" height="0.09899617531193829em" x="2.7884615384615388vw" y="2.9010038246880616em" fill="#aaa"/><rect width="0.09615384615384616em" height="0.7216862215779287em" x="2.8846153846153846vw" y="2.2783137784220715em" fill="#aaa"/><rect width="0.09615384615384616em" height="0.7243515879771779em" x="2.980769230769231vw" y="2.275648412022822em" fill="#aaa"/><rect width="0.09615384615384616em" height="0.4617577345062006em" x="3.076923076923077vw" y="2.5382422654937993em" fill="#aaa"/><rect width="0.09615384615384616em" height="0.17895566952182038em" x="3.1730769230769234vw" y="2.8210443304781796em" fill="#aaa"/><rect width="0.09615384615384616em" height="0.20704524188390366em" x="3.2692307692307696vw" y="2.7929547581160965em" fill="#aaa"/><rect width="0.09615384615384616em" height="0.15014098498439304em" x="3.3653846153846154vw" y="2.849859015015607em" fill="#aaa"/><rect width="0.09615384615384616em" height="0.20556815305749715em" x="3.4615384615384617vw" y="2.7944318469425027em" fill="#aaa"/><rect width="0.09615384615384616em" height="0.2324611892661731em" x="3.557692307692308vw" y="2.767538810733827em" fill="#aaa"/><rect width="0.09615384615384616em" height="1.0559072058908352em" x="3.653846153846154vw" y="1.9440927941091648em" fill="#aaa"/><rect width="0.09615384615384616em" height="0.7596954409366854em" x="3.75vw" y="2.240304559063315em" fill="#aaa"/><rect width="0.09615384615384616em" height="0.6552566312476436em" x="3.8461538461538463vw" y="2.3447433687523564em" fill="#aaa"/><rect width="0.09615384615384616em" height="0.4254709323381641em" x="3.9423076923076925vw" y="2.5745290676618358em" fill="#aaa"/><rect width="0.09615384615384616em" height="0.9391390473726515em" x="4.038461538461538vw" y="2.0608609526273485em" fill="#aaa"/><rect width="0.09615384615384616em" height="0.559359939998719em" x="4.134615384615385vw" y="2.440640060001281em" fill="#aaa"/><rect width="0.09615384615384616em" height="0.5084690268470315em" x="4.230769230769231vw" y="2.4915309731529685em" fill="#aaa"/><rect width="0.09615384615384616em" height="0.9784145342287738em" x="4.3269230769230775vw" y="2.021585465771226em" fill="#aaa"/><rect width="0.09615384615384616em" height="0.4766069435201259em" x="4.423076923076923vw" y="2.523393056479874em" fill="#aaa"/><rect width="0.09615384615384616em" height="0.605619476399116em" x="4.519230769230769vw" y="2.394380523600884em" fill="#aaa"/><rect width="0.09615384615384616em" height="0.17886491531709023em" x="4.615384615384616vw" y="2.82113508468291em" fill="#aaa"/><rect width="0.09615384615384616em" height="0.23907224978140157em" x="4.711538461538462vw" y="2.7609277502185985em" fill="#aaa"/><rect width="0.09615384615384616em" height="0.4381985862327944em" x="4.807692307692308vw" y="2.5618014137672054em" fill="#aaa"/><rect width="0.09615384615384616em" height="1.1154238797812956em" x="4.903846153846154vw" y="1.8845761202187044em" fill="#aaa"/><rect width="0.09615384615384616em" height="0.8968814264191529em" x="5vw" y="2.103118573580847em" fill="#aaa"/><rect width="0.09615384615384616em" height="1.4148596106252913em" x="5.096153846153847vw" y="1.5851403893747087em" fill="#aaa"/><rect width="0.09615384615384616em" height="1.8806161624347855em" x="5.1923076923076925vw" y="1.1193838375652145em" fill="#aaa"/><rect width="0.09615384615384616em" height="0.7441917261467884em" x="5.288461538461538vw" y="2.2558082738532117em" fill="#aaa"/><rect width="0.09615384615384616em" height="1.8935768250822391em" x="5.384615384615385vw" y="1.1064231749177609em" fill="#aaa"/><rect width="0.09615384615384616em" height="0.835038061404485em" x="5.480769230769231vw" y="2.164961938595515em" fill="#aaa"/><rect width="0.09615384615384616em" height="2.231206729146279em" x="5.5769230769230775vw" y="0.7687932708537208em" fill="#aaa"/><rect width="0.09615384615384616em" height="1.217298409043805em" x="5.673076923076923vw" y="1.782701590956195em" fill="#aaa"/><rect width="0.09615384615384616em" height="1.0902768107512975em" x="5.769230769230769vw" y="1.9097231892487025em" fill="#aaa"/><rect width="0.09615384615384616em" height="1.9606596499967548em" x="5.865384615384616vw" y="1.0393403500032452em" fill="#aaa"/><rect width="0.09615384615384616em" height="2.3983440883797673em" x="5.961538461538462vw" y="0.6016559116202327em" fill="#aaa"/><rect width="0.09615384615384616em" height="3em" x="6.057692307692308vw" y="0em" fill="#aaa"/><rect width="0.09615384615384616em" height="1.302066186863735em" x="6.153846153846154vw" y="1.697933813136265em" fill="#aaa"/><rect width="0.09615384615384616em" height="1.775821154085412em" x="6.25vw" y="1.224178845914588em" fill="#aaa"/><rect width="0.09615384615384616em" height="1.54938021273087em" x="6.346153846153847vw" y="1.45061978726913em" fill="#aaa"/><rect width="0.09615384615384616em" height="0.8561546548802765em" x="6.4423076923076925vw" y="2.1438453451197237em" fill="#aaa"/><rect width="0.09615384615384616em" height="1.255707320854298em" x="6.538461538461539vw" y="1.744292679145702em" fill="#aaa"/><rect width="0.09615384615384616em" height="1.5180525324234446em" x="6.634615384615385vw" y="1.4819474675765554em" fill="#aaa"/><rect width="0.09615384615384616em" height="0.6873514304400041em" x="6.730769230769231vw" y="2.312648569559996em" fill="#aaa"/><rect width="0.09615384615384616em" height="0.8828168846234025em" x="6.8269230769230775vw" y="2.1171831153765974em" fill="#aaa"/><rect width="0.09615384615384616em" height="0.6410935341686483em" x="6.923076923076923vw" y="2.3589064658313514em" fill="#aaa"/><rect width="0.09615384615384616em" height="0.27571863132385754em" x="7.01923076923077vw" y="2.7242813686761425em" fill="#aaa"/><rect width="0.09615384615384616em" height="0.261227408371692em" x="7.115384615384616vw" y="2.738772591628308em" fill="#aaa"/><rect width="0.09615384615384616em" height="0.7068430798034677em" x="7.211538461538462vw" y="2.293156920196532em" fill="#aaa"/><rect width="0.09615384615384616em" height="0.3489467829735634em" x="7.307692307692308vw" y="2.6510532170264365em" fill="#aaa"/><rect width="0.09615384615384616em" height="0.31388265536872206em" x="7.403846153846154vw" y="2.686117344631278em" fill="#aaa"/><rect width="0.09615384615384616em" height="0.8576393595271473em" x="7.5vw" y="2.1423606404728526em" fill="#aaa"/><rect width="0.09615384615384616em" height="1.019707296365137em" x="7.596153846153847vw" y="1.980292703634863em" fill="#aaa"/><rect width="0.09615384615384616em" height="1.2612939279999107em" x="7.6923076923076925vw" y="1.7387060720000893em" fill="#aaa"/><rect width="0.09615384615384616em" height="0.8420986171628354em" x="7.788461538461539vw" y="2.1579013828371645em" fill="#aaa"/><rect width="0.09615384615384616em" height="0.5781724177365565em" x="7.884615384615385vw" y="2.4218275822634436em" fill="#aaa"/><rect width="0.09615384615384616em" height="0.7274409821111968em" x="7.980769230769231vw" y="2.272559017888803em" fill="#aaa"/><rect width="0.09615384615384616em" height="0.9641200690433818em" x="8.076923076923077vw" y="2.035879930956618em" fill="#aaa"/><rect width="0.09615384615384616em" height="0.7021761993421192em" x="8.173076923076923vw" y="2.2978238006578806em" fill="#aaa"/><rect width="0.09615384615384616em" height="0.7679799626678895em" x="8.26923076923077vw" y="2.2320200373321106em" fill="#aaa"/><rect width="0.09615384615384616em" height="0.4723767257969409em" x="8.365384615384615vw" y="2.527623274203059em" fill="#aaa"/><rect width="0.09615384615384616em" height="0.25598789867238314em" x="8.461538461538462vw" y="2.744012101327617em" fill="#aaa"/><rect width="0.09615384615384616em" height="0.45124855082064663em" x="8.557692307692308vw" y="2.5487514491793535em" fill="#aaa"/><rect width="0.09615384615384616em" height="0.6123283102645654em" x="8.653846153846155vw" y="2.3876716897354346em" fill="#aaa"/><rect width="0.09615384615384616em" height="0.3791740550044734em" x="8.75vw" y="2.6208259449955267em" fill="#aaa"/><rect width="0.09615384615384616em" height="0.417214427504433em" x="8.846153846153847vw" y="2.582785572495567em" fill="#aaa"/><rect width="0.09615384615384616em" height="0.758526047211302em" x="8.942307692307693vw" y="2.2414739527886978em" fill="#aaa"/><rect width="0.09615384615384616em" height="0.5788606493461353em" x="9.038461538461538vw" y="2.4211393506538648em" fill="#aaa"/><rect width="0.09615384615384616em" height="0.5186523839700736em" x="9.134615384615385vw" y="2.481347616029926em" fill="#aaa"/><rect width="0.09615384615384616em" height="0.49119881583153047em" x="9.230769230769232vw" y="2.5088011841684694em" fill="#aaa"/><rect width="0.09615384615384616em" height="0.3915068357505288em" x="9.326923076923077vw" y="2.608493164249471em" fill="#aaa"/><rect width="0.09615384615384616em" height="0.4999327180031068em" x="9.423076923076923vw" y="2.500067281996893em" fill="#aaa"/><rect width="0.09615384615384616em" height="0.5725781297398655em" x="9.51923076923077vw" y="2.4274218702601345em" fill="#aaa"/><rect width="0.09615384615384616em" height="0.5443897124263887em" x="9.615384615384617vw" y="2.455610287573611em" fill="#aaa"/><rect width="0.09615384615384616em" height="0.4821226434468423em" x="9.711538461538462vw" y="2.5178773565531576em" fill="#aaa"/><rect width="0.09615384615384616em" height="0.6262596248814347em" x="9.807692307692308vw" y="2.3737403751185653em" fill="#aaa"/><rect width="0.09615384615384616em" height="0.5054949543379705em" x="9.903846153846155vw" y="2.4945050456620295em" fill="#aaa"/></svg>