<?xml version="1.0" standalone="no"?>
<svg xmlns:xlink="http://www.w3.org/1999/xlink" xmlns="http://www.w3.org/2000/svg" class="topic-graph" style="width: 100em; height: 30em; text-align: center;"><rect width="0.9615384615384616em" height="4.736348115592135em" x="0em" y="25.263651884407864em" fill="#aaa"/><rect width="0.9615384615384616em" height="3.5410439360307344em" x="0.9615384615384616em" y="26.458956063969264em" fill="#aaa"/><rect width="0.9615384615384616em" height="12.36412550929073em" x="1.9230769230769231em" y="17.63587449070927em" fill="#aaa"/><rect width="0.9615384615384616em" height="3.762108707700342em" x="2.8846153846153846em" y="26.237891292299658em" fill="#aaa"/><rect width="0.9615384615384616em" height="2.9490553986692536em" x="3.8461538461538463em" y="27.050944601330748em" fill="#aaa"/><rect width="0.9615384615384616em" height="4.33389600685526em" x="4.8076923076923075em" y="25.66610399314474em" fill="#aaa"/><rect width="0.9615384615384616em" height="18.618343021440285em" x="5.769230769230769em" y="11.381656978559715em" fill="#aaa"/><rect width="0.9615384615384616em" height="7.31858678101682em" x="6.730769230769231em" y="22.68141321898318em" fill="#aaa"/><rect width="0.9615384615384616em" height="3.3925894285541465em" x="7.6923076923076925em" y="26.607410571445854em" fill="#aaa"/><rect width="0.9615384615384616em" height="6.0512623959112695em" x="8.653846153846153em" y="23.94873760408873em" fill="#aaa"/><rect width="0.9615384615384616em" height="15.569284003591978em" x="9.615384615384615em" y="14.430715996408022em" fill="#aaa"/><rect width="0.9615384615384616em" height="29.293667597028em" x="10.576923076923077em" y="0.7063324029719986em" fill="#aaa"/><rect width="0.9615384615384616em" height="22.78435811269775em" x="11.538461538461538em" y="7.215641887302251em" fill="#aaa"/><rect width="0.9615384615384616em" height="1.2361389093921133em" x="12.5em" y="28.763861090607886em" fill="#aaa"/><rect width="0.9615384615384616em" height="4.933238902532011em" x="13.461538461538462em" y="25.06676109746799em" fill="#aaa"/><rect width="0.9615384615384616em" height="10.997982846145645em" x="14.423076923076923em" y="19.002017153854354em" fill="#aaa"/><rect width="0.9615384615384616em" height="3.409651679451308em" x="15.384615384615385em" y="26.590348320548692em" fill="#aaa"/><rect width="0.9615384615384616em" height="13.407921609313016em" x="16.346153846153847em" y="16.592078390686986em" fill="#aaa"/><rect width="0.9615384615384616em" height="12.069763006701635em" x="17.307692307692307em" y="17.930236993298365em" fill="#aaa"/><rect width="0.9615384615384616em" height="9.215676666861967em" x="18.26923076923077em" y="20.784323333138033em" fill="#aaa"/><rect width="0.9615384615384616em" height="4.5490305185814455em" x="19.23076923076923em" y="25.450969481418554em" fill="#aaa"/><rect width="0.9615384615384616em" height="13.354631467504895em" x="20.192307692307693em" y="16.645368532495105em" fill="#aaa"/><rect width="0.9615384615384616em" height="5.411657165989783em" x="21.153846153846153em" y="24.588342834010216em" fill="#aaa"/><rect width="0.9615384615384616em" height="19.856964977677304em" x="22.115384615384617em" y="10.143035022322696em" fill="#aaa"/><rect width="0.9615384615384616em" height="24.843041933563068em" x="23.076923076923077em" y="5.156958066436932em" fill="#aaa"/><rect width="0.9615384615384616em" height="24.808761346614347em" x="24.03846153846154em" y="5.191238653385653em" fill="#aaa"/><rect width="0.9615384615384616em" height="19.76053447333959em" x="25em" y="10.23946552666041em" fill="#aaa"/><rect width="0.9615384615384616em" height="25.895599215045767em" x="25.961538461538463em" y="4.104400784954233em" fill="#aaa"/><rect width="0.9615384615384616em" height="16.954262614151123em" x="26.923076923076923em" y="13.045737385848877em" fill="#aaa"/><rect width="0.9615384615384616em" height="16.333296930144108em" x="27.884615384615387em" y="13.666703069855892em" fill="#aaa"/><rect width="0.9615384615384616em" height="30em" x="28.846153846153847em" y="0em" fill="#aaa"/><rect width="0.9615384615384616em" height="18.720101146479344em" x="29.80769230769231em" y="11.279898853520656em" fill="#aaa"/><rect width="0.9615384615384616em" height="14.53905288131199em" x="30.76923076923077em" y="15.46094711868801em" fill="#aaa"/><rect width="0.9615384615384616em" height="14.850274009999868em" x="31.73076923076923em" y="15.149725990000132em" fill="#aaa"/><rect width="0.9615384615384616em" height="20.29606415457499em" x="32.69230769230769em" y="9.703935845425011em" fill="#aaa"/><rect width="0.9615384615384616em" height="15.42760571997971em" x="33.65384615384615em" y="14.57239428002029em" fill="#aaa"/><rect width="0.9615384615384616em" height="11.952889032601957em" x="34.61538461538461em" y="18.04711096739804em" fill="#aaa"/><rect width="0.9615384615384616em" height="12.255504767400756em" x="35.57692307692308em" y="17.74449523259924em" fill="#aaa"/><rect width="0.9615384615384616em" height="18.15186027907776em" x="36.53846153846154em" y="11.84813972092224em" fill="#aaa"/><rect width="0.9615384615384616em" height="23.892106198455092em" x="37.5em" y="6.107893801544908em" fill="#aaa"/><rect width="0.9615384615384616em" height="13.289447123232371em" x="38.46153846153846em" y="16.71055287676763em" fill="#aaa"/><rect width="0.9615384615384616em" height="18.324197413864137em" x="39.42307692307693em" y="11.675802586135863em" fill="#aaa"/><rect width="0.9615384615384616em" height="7.845215896199568em" x="40.38461538461539em" y="22.15478410380043em" fill="#aaa"/><rect width="0.9615384615384616em" height="6.575202487173069em" x="41.34615384615385em" y="23.42479751282693em" fill="#aaa"/><rect width="0.9615384615384616em" height="4.5948841769597815em" x="42.30769230769231em" y="25.40511582304022em" fill="#aaa"/><rect width="0.9615384615384616em" height="7.334074395057182em" x="43.269230769230774em" y="22.665925604942817em" fill="#aaa"/><rect width="0.9615384615384616em" height="4.119697719853103em" x="44.23076923076923em" y="25.880302280146896em" fill="#aaa"/><rect width="0.9615384615384616em" height="9.822121413040044em" x="45.19230769230769em" y="20.177878586959956em" fill="#aaa"/><rect width="0.9615384615384616em" height="6.86002271085218em" x="46.15384615384615em" y="23.139977289147822em" fill="#aaa"/><rect width="0.9615384615384616em" height="19.204264704599797em" x="47.11538461538461em" y="10.795735295400203em" fill="#aaa"/><rect width="0.9615384615384616em" height="8.060289610384721em" x="48.07692307692308em" y="21.93971038961528em" fill="#aaa"/><rect width="0.9615384615384616em" height="7.440850235981883em" x="49.03846153846154em" y="22.559149764018116em" fill="#aaa"/><rect width="0.9615384615384616em" height="4.052087445514951em" x="50em" y="25.94791255448505em" fill="#aaa"/><rect width="0.9615384615384616em" height="6.799708328711584em" x="50.96153846153846em" y="23.200291671288415em" fill="#aaa"/><rect width="0.9615384615384616em" height="6.438576310132246em" x="51.92307692307693em" y="23.561423689867752em" fill="#aaa"/><rect width="0.9615384615384616em" height="11.583184190540093em" x="52.88461538461539em" y="18.416815809459905em" fill="#aaa"/><rect width="0.9615384615384616em" height="8.457308978437176em" x="53.84615384615385em" y="21.542691021562824em" fill="#aaa"/><rect width="0.9615384615384616em" height="10.801060729895113em" x="54.80769230769231em" y="19.198939270104887em" fill="#aaa"/><rect width="0.9615384615384616em" height="11.390026288050782em" x="55.769230769230774em" y="18.609973711949216em" fill="#aaa"/><rect width="0.9615384615384616em" height="7.23419545164257em" x="56.73076923076923em" y="22.76580454835743em" fill="#aaa"/><rect width="0.9615384615384616em" height="5.061710416697108em" x="57.69230769230769em" y="24.938289583302893em" fill="#aaa"/><rect width="0.9615384615384616em" height="10.004572527550419em" x="58.65384615384615em" y="19.99542747244958em" fill="#aaa"/><rect width="0.9615384615384616em" height="8.45601844873634em" x="59.61538461538462em" y="21.54398155126366em" fill="#aaa"/><rect width="0.9615384615384616em" height="12.432259100410995em" x="60.57692307692308em" y="17.567740899589005em" fill="#aaa"/><rect width="0.9615384615384616em" height="8.771299851494422em" x="61.53846153846154em" y="21.228700148505578em" fill="#aaa"/><rect width="0.9615384615384616em" height="7.129397337102347em" x="62.5em" y="22.870602662897653em" fill="#aaa"/><rect width="0.9615384615384616em" height="4.728202364094772em" x="63.46153846153846em" y="25.27179763590523em" fill="#aaa"/><rect width="0.9615384615384616em" height="6.245114977504785em" x="64.42307692307692em" y="23.754885022495216em" fill="#aaa"/><rect width="0.9615384615384616em" height="10.129250413584158em" x="65.38461538461539em" y="19.87074958641584em" fill="#aaa"/><rect width="0.9615384615384616em" height="5.889955916679204em" x="66.34615384615385em" y="24.110044083320794em" fill="#aaa"/><rect width="0.9615384615384616em" height="9.649514209494857em" x="67.3076923076923em" y="20.350485790505143em" fill="#aaa"/><rect width="0.9615384615384616em" height="10.200061618531253em" x="68.26923076923077em" y="19.79993838146875em" fill="#aaa"/><rect width="0.9615384615384616em" height="6.880741230101363em" x="69.23076923076923em" y="23.119258769898636em" fill="#aaa"/><rect width="0.9615384615384616em" height="9.767937789726107em" x="70.1923076923077em" y="20.232062210273895em" fill="#aaa"/><rect width="0.9615384615384616em" height="6.39308134896407em" x="71.15384615384616em" y="23.60691865103593em" fill="#aaa"/><rect width="0.9615384615384616em" height="8.884260069154116em" x="72.11538461538461em" y="21.115739930845884em" fill="#aaa"/><rect width="0.9615384615384616em" height="2.8963655377642423em" x="73.07692307692308em" y="27.103634462235757em" fill="#aaa"/><rect width="0.9615384615384616em" height="3.6729913724730436em" x="74.03846153846155em" y="26.327008627526958em" fill="#aaa"/><rect width="0.9615384615384616em" height="4.4337612857087585em" x="75em" y="25.56623871429124em" fill="#aaa"/><rect width="0.9615384615384616em" height="5.289333467319765em" x="75.96153846153847em" y="24.710666532680236em" fill="#aaa"/><rect width="0.9615384615384616em" height="2.7823563010504118em" x="76.92307692307692em" y="27.217643698949587em" fill="#aaa"/><rect width="0.9615384615384616em" height="2.6664436309174904em" x="77.88461538461539em" y="27.33355636908251em" fill="#aaa"/><rect width="0.9615384615384616em" height="2.6134726896866356em" x="78.84615384615385em" y="27.386527310313365em" fill="#aaa"/><rect width="0.9615384615384616em" height="2.8217988837941874em" x="79.8076923076923em" y="27.178201116205813em" fill="#aaa"/><rect width="0.9615384615384616em" height="1.912921000857066em" x="80.76923076923077em" y="28.087078999142935em" fill="#aaa"/><rect width="0.9615384615384616em" height="2.4614017072247263em" x="81.73076923076923em" y="27.538598292775273em" fill="#aaa"/><rect width="0.9615384615384616em" height="2.52418676009457em" x="82.6923076923077em" y="27.47581323990543em" fill="#aaa"/><rect width="0.9615384615384616em" height="2.1517810828152264em" x="83.65384615384616em" y="27.848218917184774em" fill="#aaa"/><rect width="0.9615384615384616em" height="2.8672706448149876em" x="84.61538461538461em" y="27.132729355185013em" fill="#aaa"/><rect width="0.9615384615384616em" height="2.3121715341349716em" x="85.57692307692308em" y="27.687828465865028em" fill="#aaa"/><rect width="0.9615384615384616em" height="2.3714842203022646em" x="86.53846153846155em" y="27.628515779697736em" fill="#aaa"/><rect width="0.9615384615384616em" height="2.2522492913635555em" x="87.5em" y="27.747750708636445em" fill="#aaa"/><rect width="0.9615384615384616em" height="2.0573384446922525em" x="88.46153846153847em" y="27.942661555307748em" fill="#aaa"/><rect width="0.9615384615384616em" height="2.2278500439468765em" x="89.42307692307692em" y="27.772149956053124em" fill="#aaa"/><rect width="0.9615384615384616em" height="2.263571131591034em" x="90.38461538461539em" y="27.736428868408964em" fill="#aaa"/><rect width="0.9615384615384616em" height="2.424806019101097em" x="91.34615384615385em" y="27.575193980898902em" fill="#aaa"/><rect width="0.9615384615384616em" height="2.321126440604344em" x="92.3076923076923em" y="27.678873559395655em" fill="#aaa"/><rect width="0.9615384615384616em" height="2.028981559326625em" x="93.26923076923077em" y="27.971018440673376em" fill="#aaa"/><rect width="0.9615384615384616em" height="2.769453687113513em" x="94.23076923076923em" y="27.23054631288649em" fill="#aaa"/><rect width="0.9615384615384616em" height="2.588643436324427em" x="95.1923076923077em" y="27.41135656367557em" fill="#aaa"/><rect width="0.9615384615384616em" height="2.7953630483712804em" x="96.15384615384616em" y="27.20463695162872em" fill="#aaa"/><rect width="0.9615384615384616em" height="2.1393635631995855em" x="97.11538461538461em" y="27.860636436800416em" fill="#aaa"/><rect width="0.9615384615384616em" height="2.9935058088061295em" x="98.07692307692308em" y="27.00649419119387em" fill="#aaa"/><rect width="0.9615384615384616em" height="2.164738943685947em" x="99.03846153846155em" y="27.835261056314053em" fill="#aaa"/></svg>