<?xml version="1.0" standalone="no"?>
<svg xmlns:xlink="http://www.w3.org/1999/xlink" xmlns="http://www.w3.org/2000/svg" class="topic-graph" style="width: 10vw; height: 3em; text-align: center;"><rect width="0.09615384615384616em" height="0.3507901232355012em" x="0vw" y="2.6492098767644987em" fill="#aaa"/><rect width="0.09615384615384616em" height="1.5058096740673526em" x="0.09615384615384616vw" y="1.4941903259326474em" fill="#aaa"/><rect width="0.09615384615384616em" height="1.0586363101962644em" x="0.19230769230769232vw" y="1.9413636898037356em" fill="#aaa"/><rect width="0.09615384615384616em" height="0.8577227645792049em" x="0.2884615384615385vw" y="2.142277235420795em" fill="#aaa"/><rect width="0.09615384615384616em" height="2.8963155553784663em" x="0.38461538461538464vw" y="0.1036844446215337em" fill="#aaa"/><rect width="0.09615384615384616em" height="1.2364054871583523em" x="0.4807692307692308vw" y="1.7635945128416477em" fill="#aaa"/><rect width="0.09615384615384616em" height="0.5432098950780211em" x="0.576923076923077vw" y="2.456790104921979em" fill="#aaa"/><rect width="0.09615384615384616em" height="0.18051951330973393em" x="0.6730769230769231vw" y="2.8194804866902663em" fill="#aaa"/><rect width="0.09615384615384616em" height="0.5805149678221739em" x="0.7692307692307693vw" y="2.419485032177826em" fill="#aaa"/><rect width="0.09615384615384616em" height="0.7488871775131903em" x="0.8653846153846154vw" y="2.2511128224868098em" fill="#aaa"/><rect width="0.09615384615384616em" height="0.16260008199703596em" x="0.9615384615384616vw" y="2.837399918002964em" fill="#aaa"/><rect width="0.09615384615384616em" height="0.6774103656112472em" x="1.0576923076923077vw" y="2.322589634388753em" fill="#aaa"/><rect width="0.09615384615384616em" height="0.6452644497343536em" x="1.153846153846154vw" y="2.354735550265646em" fill="#aaa"/><rect width="0.09615384615384616em" height="0.6757083627926281em" x="1.25vw" y="2.324291637207372em" fill="#aaa"/><rect width="0.09615384615384616em" height="0.9945009952520123em" x="1.3461538461538463vw" y="2.0054990047479877em" fill="#aaa"/><rect width="0.09615384615384616em" height="0.3112622993066464em" x="1.4423076923076923vw" y="2.6887377006933537em" fill="#aaa"/><rect width="0.09615384615384616em" height="0.5956260399041073em" x="1.5384615384615385vw" y="2.4043739600958927em" fill="#aaa"/><rect width="0.09615384615384616em" height="1.42122182503349em" x="1.6346153846153848vw" y="1.57877817496651em" fill="#aaa"/><rect width="0.09615384615384616em" height="1.6820524246794633em" x="1.7307692307692308vw" y="1.3179475753205367em" fill="#aaa"/><rect width="0.09615384615384616em" height="0.6523137416529254em" x="1.826923076923077vw" y="2.347686258347075em" fill="#aaa"/><rect width="0.09615384615384616em" height="0.42670554525162496em" x="1.9230769230769231vw" y="2.573294454748375em" fill="#aaa"/><rect width="0.09615384615384616em" height="0.9397394762281777em" x="2.019230769230769vw" y="2.0602605237718223em" fill="#aaa"/><rect width="0.09615384615384616em" height="0.5938271887300335em" x="2.1153846153846154vw" y="2.4061728112699665em" fill="#aaa"/><rect width="0.09615384615384616em" height="0.1324113826893828em" x="2.2115384615384617vw" y="2.8675886173106173em" fill="#aaa"/><rect width="0.09615384615384616em" height="0.49521526518987724em" x="2.307692307692308vw" y="2.504784734810123em" fill="#aaa"/><rect width="0.09615384615384616em" height="1.1241352792410075em" x="2.403846153846154vw" y="1.8758647207589925em" fill="#aaa"/><rect width="0.09615384615384616em" height="0.4235571945538928em" x="2.5vw" y="2.5764428054461073em" fill="#aaa"/><rect width="0.09615384615384616em" height="0.7464693748498676em" x="2.5961538461538463vw" y="2.253530625150132em" fill="#aaa"/><rect width="0.09615384615384616em" height="1.0836033239721434em" x="2.6923076923076925vw" y="1.9163966760278566em" fill="#aaa"/><rect width="0.09615384615384616em" height="1.2082942592870993em" x="2.7884615384615388vw" y="1.7917057407129007em" fill="#aaa"/><rect width="0.09615384615384616em" height="0.781245144160994em" x="2.8846153846153846vw" y="2.218754855839006em" fill="#aaa"/><rect width="0.09615384615384616em" height="1.5879729659317323em" x="2.980769230769231vw" y="1.4120270340682677em" fill="#aaa"/><rect width="0.09615384615384616em" height="0.793165004327573em" x="3.076923076923077vw" y="2.206834995672427em" fill="#aaa"/><rect width="0.09615384615384616em" height="0.9947861591593699em" x="3.1730769230769234vw" y="2.0052138408406304em" fill="#aaa"/><rect width="0.09615384615384616em" height="0.9619888610190435em" x="3.2692307692307696vw" y="2.0380111389809565em" fill="#aaa"/><rect width="0.09615384615384616em" height="1.0953897726328152em" x="3.3653846153846154vw" y="1.9046102273671848em" fill="#aaa"/><rect width="0.09615384615384616em" height="0.8374780329578255em" x="3.4615384615384617vw" y="2.1625219670421743em" fill="#aaa"/><rect width="0.09615384615384616em" height="1.12828446727285em" x="3.557692307692308vw" y="1.87171553272715em" fill="#aaa"/><rect width="0.09615384615384616em" height="0.9966471936010313em" x="3.653846153846154vw" y="2.0033528063989685em" fill="#aaa"/><rect width="0.09615384615384616em" height="0.6451550593011787em" x="3.75vw" y="2.3548449406988214em" fill="#aaa"/><rect width="0.09615384615384616em" height="0.7019197742657333em" x="3.8461538461538463vw" y="2.2980802257342665em" fill="#aaa"/><rect width="0.09615384615384616em" height="0.8931606720363015em" x="3.9423076923076925vw" y="2.1068393279636988em" fill="#aaa"/><rect width="0.09615384615384616em" height="1.2730614508618814em" x="4.038461538461538vw" y="1.7269385491381186em" fill="#aaa"/><rect width="0.09615384615384616em" height="1.227505195040214em" x="4.134615384615385vw" y="1.772494804959786em" fill="#aaa"/><rect width="0.09615384615384616em" height="1.1217962939620636em" x="4.230769230769231vw" y="1.8782037060379364em" fill="#aaa"/><rect width="0.09615384615384616em" height="1.5699744602042967em" x="4.3269230769230775vw" y="1.4300255397957033em" fill="#aaa"/><rect width="0.09615384615384616em" height="1.193326968285283em" x="4.423076923076923vw" y="1.806673031714717em" fill="#aaa"/><rect width="0.09615384615384616em" height="0.8565188810831272em" x="4.519230769230769vw" y="2.1434811189168728em" fill="#aaa"/><rect width="0.09615384615384616em" height="1.2541892612986887em" x="4.615384615384616vw" y="1.7458107387013113em" fill="#aaa"/><rect width="0.09615384615384616em" height="1.4223293490591553em" x="4.711538461538462vw" y="1.5776706509408447em" fill="#aaa"/><rect width="0.09615384615384616em" height="0.8313681227515719em" x="4.807692307692308vw" y="2.168631877248428em" fill="#aaa"/><rect width="0.09615384615384616em" height="1.0680011317219051em" x="4.903846153846154vw" y="1.9319988682780949em" fill="#aaa"/><rect width="0.09615384615384616em" height="0.7944785192126429em" x="5vw" y="2.205521480787357em" fill="#aaa"/><rect width="0.09615384615384616em" height="0.92566006507856em" x="5.096153846153847vw" y="2.07433993492144em" fill="#aaa"/><rect width="0.09615384615384616em" height="1.4571884940568833em" x="5.1923076923076925vw" y="1.5428115059431167em" fill="#aaa"/><rect width="0.09615384615384616em" height="1.603064306338185em" x="5.288461538461538vw" y="1.396935693661815em" fill="#aaa"/><rect width="0.09615384615384616em" height="1.0020573344500687em" x="5.384615384615385vw" y="1.9979426655499313em" fill="#aaa"/><rect width="0.09615384615384616em" height="1.51548730080925em" x="5.480769230769231vw" y="1.48451269919075em" fill="#aaa"/><rect width="0.09615384615384616em" height="1.3077545255497847em" x="5.5769230769230775vw" y="1.6922454744502153em" fill="#aaa"/><rect width="0.09615384615384616em" height="1.2225928443909422em" x="5.673076923076923vw" y="1.7774071556090578em" fill="#aaa"/><rect width="0.09615384615384616em" height="1.2299106729958404em" x="5.769230769230769vw" y="1.7700893270041596em" fill="#aaa"/><rect width="0.09615384615384616em" height="1.7568828093807902em" x="5.865384615384616vw" y="1.2431171906192098em" fill="#aaa"/><rect width="0.09615384615384616em" height="1.022808266713057em" x="5.961538461538462vw" y="1.977191733286943em" fill="#aaa"/><rect width="0.09615384615384616em" height="1.429275613706718em" x="6.057692307692308vw" y="1.570724386293282em" fill="#aaa"/><rect width="0.09615384615384616em" height="1.759392097274822em" x="6.153846153846154vw" y="1.240607902725178em" fill="#aaa"/><rect width="0.09615384615384616em" height="1.6414678823135027em" x="6.25vw" y="1.3585321176864973em" fill="#aaa"/><rect width="0.09615384615384616em" height="1.5602671462655242em" x="6.346153846153847vw" y="1.4397328537344758em" fill="#aaa"/><rect width="0.09615384615384616em" height="1.2090865677377662em" x="6.4423076923076925vw" y="1.7909134322622338em" fill="#aaa"/><rect width="0.09615384615384616em" height="1.6466712165287987em" x="6.538461538461539vw" y="1.3533287834712013em" fill="#aaa"/><rect width="0.09615384615384616em" height="1.0403309931545446em" x="6.634615384615385vw" y="1.9596690068454554em" fill="#aaa"/><rect width="0.09615384615384616em" height="1.229138991896387em" x="6.730769230769231vw" y="1.770861008103613em" fill="#aaa"/><rect width="0.09615384615384616em" height="1.2287603766367283em" x="6.8269230769230775vw" y="1.7712396233632717em" fill="#aaa"/><rect width="0.09615384615384616em" height="1.2633880863116034em" x="6.923076923076923vw" y="1.7366119136883966em" fill="#aaa"/><rect width="0.09615384615384616em" height="1.002768925948795em" x="7.01923076923077vw" y="1.997231074051205em" fill="#aaa"/><rect width="0.09615384615384616em" height="0.9683119169657551em" x="7.115384615384616vw" y="2.0316880830342448em" fill="#aaa"/><rect width="0.09615384615384616em" height="1.4498062560891387em" x="7.211538461538462vw" y="1.5501937439108613em" fill="#aaa"/><rect width="0.09615384615384616em" height="1.26711108372993em" x="7.307692307692308vw" y="1.73288891627007em" fill="#aaa"/><rect width="0.09615384615384616em" height="1.1636049059389912em" x="7.403846153846154vw" y="1.8363950940610088em" fill="#aaa"/><rect width="0.09615384615384616em" height="1.6855174133608768em" x="7.5vw" y="1.3144825866391232em" fill="#aaa"/><rect width="0.09615384615384616em" height="1.3634019092495402em" x="7.596153846153847vw" y="1.6365980907504598em" fill="#aaa"/><rect width="0.09615384615384616em" height="1.826320677680063em" x="7.6923076923076925vw" y="1.173679322319937em" fill="#aaa"/><rect width="0.09615384615384616em" height="1.5922657048612576em" x="7.788461538461539vw" y="1.4077342951387424em" fill="#aaa"/><rect width="0.09615384615384616em" height="1.2759713819228002em" x="7.884615384615385vw" y="1.7240286180771998em" fill="#aaa"/><rect width="0.09615384615384616em" height="1.7095833005862184em" x="7.980769230769231vw" y="1.2904166994137816em" fill="#aaa"/><rect width="0.09615384615384616em" height="1.89991168859239em" x="8.076923076923077vw" y="1.10008831140761em" fill="#aaa"/><rect width="0.09615384615384616em" height="1.7141676872156908em" x="8.173076923076923vw" y="1.2858323127843092em" fill="#aaa"/><rect width="0.09615384615384616em" height="2.4602257323492767em" x="8.26923076923077vw" y="0.5397742676507233em" fill="#aaa"/><rect width="0.09615384615384616em" height="2.3197335172903113em" x="8.365384615384615vw" y="0.6802664827096887em" fill="#aaa"/><rect width="0.09615384615384616em" height="2.0465612025960613em" x="8.461538461538462vw" y="0.9534387974039387em" fill="#aaa"/><rect width="0.09615384615384616em" height="2.524800124205103em" x="8.557692307692308vw" y="0.475199875794897em" fill="#aaa"/><rect width="0.09615384615384616em" height="1.72484577824497em" x="8.653846153846155vw" y="1.27515422175503em" fill="#aaa"/><rect width="0.09615384615384616em" height="2.13847306313634em" x="8.75vw" y="0.86152693686366em" fill="#aaa"/><rect width="0.09615384615384616em" height="2.115349248028185em" x="8.846153846153847vw" y="0.8846507519718152em" fill="#aaa"/><rect width="0.09615384615384616em" height="2.044383377954053em" x="8.942307692307693vw" y="0.9556166220459472em" fill="#aaa"/><rect width="0.09615384615384616em" height="2.297906414618057em" x="9.038461538461538vw" y="0.702093585381943em" fill="#aaa"/><rect width="0.09615384615384616em" height="1.9541234819780735em" x="9.134615384615385vw" y="1.0458765180219265em" fill="#aaa"/><rect width="0.09615384615384616em" height="1.994747431831743em" x="9.230769230769232vw" y="1.005252568168257em" fill="#aaa"/><rect width="0.09615384615384616em" height="1.8816157784026137em" x="9.326923076923077vw" y="1.1183842215973863em" fill="#aaa"/><rect width="0.09615384615384616em" height="2.1925469679087386em" x="9.423076923076923vw" y="0.8074530320912614em" fill="#aaa"/><rect width="0.09615384615384616em" height="2.3133883186415183em" x="9.51923076923077vw" y="0.6866116813584817em" fill="#aaa"/><rect width="0.09615384615384616em" height="2.007356973708898em" x="9.615384615384617vw" y="0.9926430262911019em" fill="#aaa"/><rect width="0.09615384615384616em" height="2.1594297264879243em" x="9.711538461538462vw" y="0.8405702735120757em" fill="#aaa"/><rect width="0.09615384615384616em" height="2.6112967072434365em" x="9.807692307692308vw" y="0.38870329275656346em" fill="#aaa"/><rect width="0.09615384615384616em" height="3em" x="9.903846153846155vw" y="0em" fill="#aaa"/></svg>