<?xml version="1.0" standalone="no"?>
<svg xmlns:xlink="http://www.w3.org/1999/xlink" xmlns="http://www.w3.org/2000/svg" class="topic-graph" style="width: 100em; height: 30em; text-align: center;"><rect width="0.9615384615384616em" height="3.6889782264048843em" x="0em" y="26.311021773595115em" fill="#aaa"/><rect width="0.9615384615384616em" height="19.456145864547853em" x="0.9615384615384616em" y="10.543854135452147em" fill="#aaa"/><rect width="0.9615384615384616em" height="24.58783794365686em" x="1.9230769230769231em" y="5.4121620563431385em" fill="#aaa"/><rect width="0.9615384615384616em" height="10.289113348506701em" x="2.8846153846153846em" y="19.710886651493297em" fill="#aaa"/><rect width="0.9615384615384616em" height="5.013754644118056em" x="3.8461538461538463em" y="24.986245355881945em" fill="#aaa"/><rect width="0.9615384615384616em" height="13.057389451809714em" x="4.8076923076923075em" y="16.942610548190288em" fill="#aaa"/><rect width="0.9615384615384616em" height="14.9729502515242em" x="5.769230769230769em" y="15.0270497484758em" fill="#aaa"/><rect width="0.9615384615384616em" height="18.410835018056762em" x="6.730769230769231em" y="11.589164981943238em" fill="#aaa"/><rect width="0.9615384615384616em" height="7.465713725772553em" x="7.6923076923076925em" y="22.534286274227448em" fill="#aaa"/><rect width="0.9615384615384616em" height="12.26803544664585em" x="8.653846153846153em" y="17.73196455335415em" fill="#aaa"/><rect width="0.9615384615384616em" height="3.7644948209584785em" x="9.615384615384615em" y="26.23550517904152em" fill="#aaa"/><rect width="0.9615384615384616em" height="22.15151198542478em" x="10.576923076923077em" y="7.848488014575221em" fill="#aaa"/><rect width="0.9615384615384616em" height="19.195435286927665em" x="11.538461538461538em" y="10.804564713072335em" fill="#aaa"/><rect width="0.9615384615384616em" height="6.548020056028303em" x="12.5em" y="23.451979943971697em" fill="#aaa"/><rect width="0.9615384615384616em" height="6.657995586867543em" x="13.461538461538462em" y="23.342004413132457em" fill="#aaa"/><rect width="0.9615384615384616em" height="7.430969050525568em" x="14.423076923076923em" y="22.56903094947443em" fill="#aaa"/><rect width="0.9615384615384616em" height="5.729484871954858em" x="15.384615384615385em" y="24.27051512804514em" fill="#aaa"/><rect width="0.9615384615384616em" height="4.69822066895644em" x="16.346153846153847em" y="25.301779331043562em" fill="#aaa"/><rect width="0.9615384615384616em" height="3.4058330087696644em" x="17.307692307692307em" y="26.594166991230335em" fill="#aaa"/><rect width="0.9615384615384616em" height="7.752914516758255em" x="18.26923076923077em" y="22.247085483241744em" fill="#aaa"/><rect width="0.9615384615384616em" height="7.142228159262533em" x="19.23076923076923em" y="22.857771840737467em" fill="#aaa"/><rect width="0.9615384615384616em" height="5.746094840288415em" x="20.192307692307693em" y="24.253905159711586em" fill="#aaa"/><rect width="0.9615384615384616em" height="4.149703385336392em" x="21.153846153846153em" y="25.85029661466361em" fill="#aaa"/><rect width="0.9615384615384616em" height="2.187206780053054em" x="22.115384615384617em" y="27.812793219946947em" fill="#aaa"/><rect width="0.9615384615384616em" height="6.315783761500112em" x="23.076923076923077em" y="23.68421623849989em" fill="#aaa"/><rect width="0.9615384615384616em" height="11.809327020045785em" x="24.03846153846154em" y="18.190672979954215em" fill="#aaa"/><rect width="0.9615384615384616em" height="7.421760043627182em" x="25em" y="22.57823995637282em" fill="#aaa"/><rect width="0.9615384615384616em" height="6.872412175402099em" x="25.961538461538463em" y="23.127587824597903em" fill="#aaa"/><rect width="0.9615384615384616em" height="4.694418066297675em" x="26.923076923076923em" y="25.305581933702324em" fill="#aaa"/><rect width="0.9615384615384616em" height="4.563533898086224em" x="27.884615384615387em" y="25.436466101913776em" fill="#aaa"/><rect width="0.9615384615384616em" height="7.361359453677117em" x="28.846153846153847em" y="22.638640546322883em" fill="#aaa"/><rect width="0.9615384615384616em" height="5.6251809120918725em" x="29.80769230769231em" y="24.37481908790813em" fill="#aaa"/><rect width="0.9615384615384616em" height="6.169411796314722em" x="30.76923076923077em" y="23.830588203685277em" fill="#aaa"/><rect width="0.9615384615384616em" height="7.02138037796032em" x="31.73076923076923em" y="22.97861962203968em" fill="#aaa"/><rect width="0.9615384615384616em" height="11.611476471116045em" x="32.69230769230769em" y="18.388523528883955em" fill="#aaa"/><rect width="0.9615384615384616em" height="9.386541989464995em" x="33.65384615384615em" y="20.613458010535005em" fill="#aaa"/><rect width="0.9615384615384616em" height="15.411346330043994em" x="34.61538461538461em" y="14.588653669956006em" fill="#aaa"/><rect width="0.9615384615384616em" height="13.906640924670207em" x="35.57692307692308em" y="16.093359075329793em" fill="#aaa"/><rect width="0.9615384615384616em" height="19.14061316131523em" x="36.53846153846154em" y="10.85938683868477em" fill="#aaa"/><rect width="0.9615384615384616em" height="10.97815251720225em" x="37.5em" y="19.02184748279775em" fill="#aaa"/><rect width="0.9615384615384616em" height="9.928821180948846em" x="38.46153846153846em" y="20.071178819051156em" fill="#aaa"/><rect width="0.9615384615384616em" height="13.288985466962899em" x="39.42307692307693em" y="16.7110145330371em" fill="#aaa"/><rect width="0.9615384615384616em" height="14.307062830766037em" x="40.38461538461539em" y="15.692937169233963em" fill="#aaa"/><rect width="0.9615384615384616em" height="12.862882748170422em" x="41.34615384615385em" y="17.13711725182958em" fill="#aaa"/><rect width="0.9615384615384616em" height="21.768088765775417em" x="42.30769230769231em" y="8.231911234224583em" fill="#aaa"/><rect width="0.9615384615384616em" height="9.898183831907547em" x="43.269230769230774em" y="20.101816168092455em" fill="#aaa"/><rect width="0.9615384615384616em" height="11.193010541766501em" x="44.23076923076923em" y="18.8069894582335em" fill="#aaa"/><rect width="0.9615384615384616em" height="14.154801807643889em" x="45.19230769230769em" y="15.845198192356111em" fill="#aaa"/><rect width="0.9615384615384616em" height="9.767795047137144em" x="46.15384615384615em" y="20.23220495286286em" fill="#aaa"/><rect width="0.9615384615384616em" height="10.09800129798427em" x="47.11538461538461em" y="19.90199870201573em" fill="#aaa"/><rect width="0.9615384615384616em" height="14.991283410929867em" x="48.07692307692308em" y="15.008716589070133em" fill="#aaa"/><rect width="0.9615384615384616em" height="19.013880112325932em" x="49.03846153846154em" y="10.986119887674068em" fill="#aaa"/><rect width="0.9615384615384616em" height="18.886348792663263em" x="50em" y="11.113651207336737em" fill="#aaa"/><rect width="0.9615384615384616em" height="17.197272619346833em" x="50.96153846153846em" y="12.802727380653167em" fill="#aaa"/><rect width="0.9615384615384616em" height="12.876961819458787em" x="51.92307692307693em" y="17.123038180541215em" fill="#aaa"/><rect width="0.9615384615384616em" height="19.56441242423025em" x="52.88461538461539em" y="10.435587575769748em" fill="#aaa"/><rect width="0.9615384615384616em" height="18.649919365702697em" x="53.84615384615385em" y="11.350080634297303em" fill="#aaa"/><rect width="0.9615384615384616em" height="23.18319626344517em" x="54.80769230769231em" y="6.8168037365548315em" fill="#aaa"/><rect width="0.9615384615384616em" height="25.956325829035904em" x="55.769230769230774em" y="4.0436741709640955em" fill="#aaa"/><rect width="0.9615384615384616em" height="22.135407336575312em" x="56.73076923076923em" y="7.864592663424688em" fill="#aaa"/><rect width="0.9615384615384616em" height="19.29933466659068em" x="57.69230769230769em" y="10.700665333409319em" fill="#aaa"/><rect width="0.9615384615384616em" height="17.223145021483937em" x="58.65384615384615em" y="12.776854978516063em" fill="#aaa"/><rect width="0.9615384615384616em" height="21.397106844648448em" x="59.61538461538462em" y="8.602893155351552em" fill="#aaa"/><rect width="0.9615384615384616em" height="23.67043697005199em" x="60.57692307692308em" y="6.329563029948009em" fill="#aaa"/><rect width="0.9615384615384616em" height="17.00472598822635em" x="61.53846153846154em" y="12.995274011773649em" fill="#aaa"/><rect width="0.9615384615384616em" height="20.29139534887065em" x="62.5em" y="9.708604651129349em" fill="#aaa"/><rect width="0.9615384615384616em" height="18.218996954856827em" x="63.46153846153846em" y="11.781003045143173em" fill="#aaa"/><rect width="0.9615384615384616em" height="20.14261433735562em" x="64.42307692307692em" y="9.85738566264438em" fill="#aaa"/><rect width="0.9615384615384616em" height="18.101347867320634em" x="65.38461538461539em" y="11.898652132679366em" fill="#aaa"/><rect width="0.9615384615384616em" height="24.748165445056767em" x="66.34615384615385em" y="5.251834554943233em" fill="#aaa"/><rect width="0.9615384615384616em" height="20.776075416070228em" x="67.3076923076923em" y="9.223924583929772em" fill="#aaa"/><rect width="0.9615384615384616em" height="26.941318471572423em" x="68.26923076923077em" y="3.0586815284275772em" fill="#aaa"/><rect width="0.9615384615384616em" height="27.377478928206543em" x="69.23076923076923em" y="2.6225210717934573em" fill="#aaa"/><rect width="0.9615384615384616em" height="30em" x="70.1923076923077em" y="0em" fill="#aaa"/><rect width="0.9615384615384616em" height="28.998601895852058em" x="71.15384615384616em" y="1.0013981041479418em" fill="#aaa"/><rect width="0.9615384615384616em" height="27.520852954640382em" x="72.11538461538461em" y="2.4791470453596176em" fill="#aaa"/><rect width="0.9615384615384616em" height="17.931563178208243em" x="73.07692307692308em" y="12.068436821791757em" fill="#aaa"/><rect width="0.9615384615384616em" height="21.36309185791716em" x="74.03846153846155em" y="8.636908142082842em" fill="#aaa"/><rect width="0.9615384615384616em" height="19.272181945562902em" x="75em" y="10.727818054437098em" fill="#aaa"/><rect width="0.9615384615384616em" height="18.859474510985155em" x="75.96153846153847em" y="11.140525489014845em" fill="#aaa"/><rect width="0.9615384615384616em" height="14.590128980359578em" x="76.92307692307692em" y="15.409871019640422em" fill="#aaa"/><rect width="0.9615384615384616em" height="14.979048245873857em" x="77.88461538461539em" y="15.020951754126143em" fill="#aaa"/><rect width="0.9615384615384616em" height="12.44266387509271em" x="78.84615384615385em" y="17.557336124907287em" fill="#aaa"/><rect width="0.9615384615384616em" height="13.855455838279187em" x="79.8076923076923em" y="16.144544161720813em" fill="#aaa"/><rect width="0.9615384615384616em" height="13.114436219511358em" x="80.76923076923077em" y="16.885563780488642em" fill="#aaa"/><rect width="0.9615384615384616em" height="14.55808824912208em" x="81.73076923076923em" y="15.44191175087792em" fill="#aaa"/><rect width="0.9615384615384616em" height="9.866847347333328em" x="82.6923076923077em" y="20.133152652666674em" fill="#aaa"/><rect width="0.9615384615384616em" height="11.804772534515461em" x="83.65384615384616em" y="18.19522746548454em" fill="#aaa"/><rect width="0.9615384615384616em" height="14.263343831314367em" x="84.61538461538461em" y="15.736656168685633em" fill="#aaa"/><rect width="0.9615384615384616em" height="12.014923811365543em" x="85.57692307692308em" y="17.98507618863446em" fill="#aaa"/><rect width="0.9615384615384616em" height="10.922048124303261em" x="86.53846153846155em" y="19.07795187569674em" fill="#aaa"/><rect width="0.9615384615384616em" height="11.392101840697139em" x="87.5em" y="18.607898159302863em" fill="#aaa"/><rect width="0.9615384615384616em" height="10.803451772795645em" x="88.46153846153847em" y="19.196548227204353em" fill="#aaa"/><rect width="0.9615384615384616em" height="10.59540624024862em" x="89.42307692307692em" y="19.40459375975138em" fill="#aaa"/><rect width="0.9615384615384616em" height="10.555412737851457em" x="90.38461538461539em" y="19.444587262148545em" fill="#aaa"/><rect width="0.9615384615384616em" height="9.613111759882615em" x="91.34615384615385em" y="20.386888240117386em" fill="#aaa"/><rect width="0.9615384615384616em" height="10.25466102054304em" x="92.3076923076923em" y="19.74533897945696em" fill="#aaa"/><rect width="0.9615384615384616em" height="10.545670271554046em" x="93.26923076923077em" y="19.454329728445956em" fill="#aaa"/><rect width="0.9615384615384616em" height="12.373462320959892em" x="94.23076923076923em" y="17.62653767904011em" fill="#aaa"/><rect width="0.9615384615384616em" height="10.867288610131437em" x="95.1923076923077em" y="19.13271138986856em" fill="#aaa"/><rect width="0.9615384615384616em" height="8.93545269174569em" x="96.15384615384616em" y="21.064547308254312em" fill="#aaa"/><rect width="0.9615384615384616em" height="8.403292348607309em" x="97.11538461538461em" y="21.59670765139269em" fill="#aaa"/><rect width="0.9615384615384616em" height="7.831819057490121em" x="98.07692307692308em" y="22.168180942509878em" fill="#aaa"/><rect width="0.9615384615384616em" height="7.692153889117866em" x="99.03846153846155em" y="22.307846110882135em" fill="#aaa"/></svg>