<?xml version="1.0" standalone="no"?>
<svg xmlns:xlink="http://www.w3.org/1999/xlink" xmlns="http://www.w3.org/2000/svg" class="topic-graph" style="width: 100em; height: 30em; text-align: center;"><rect width="0.9615384615384616em" height="0.09582655310314185em" x="0em" y="29.90417344689686em" fill="#aaa"/><rect width="0.9615384615384616em" height="4.05962314555948em" x="0.9615384615384616em" y="25.94037685444052em" fill="#aaa"/><rect width="0.9615384615384616em" height="0.060838779263726175em" x="1.9230769230769231em" y="29.939161220736274em" fill="#aaa"/><rect width="0.9615384615384616em" height="0.05654680078036885em" x="2.8846153846153846em" y="29.943453199219633em" fill="#aaa"/><rect width="0.9615384615384616em" height="0.33002298784296896em" x="3.8461538461538463em" y="29.66997701215703em" fill="#aaa"/><rect width="0.9615384615384616em" height="0.07250116197655665em" x="4.8076923076923075em" y="29.927498838023443em" fill="#aaa"/><rect width="0.9615384615384616em" height="0.12700828397494518em" x="5.769230769230769em" y="29.872991716025055em" fill="#aaa"/><rect width="0.9615384615384616em" height="0.051441445873277175em" x="6.730769230769231em" y="29.948558554126723em" fill="#aaa"/><rect width="0.9615384615384616em" height="0.08121115648646388em" x="7.6923076923076925em" y="29.918788843513536em" fill="#aaa"/><rect width="0.9615384615384616em" height="0.10272530167434954em" x="8.653846153846153em" y="29.89727469832565em" fill="#aaa"/><rect width="0.9615384615384616em" height="0.24311962507828289em" x="9.615384615384615em" y="29.756880374921717em" fill="#aaa"/><rect width="0.9615384615384616em" height="0.1253877494041583em" x="10.576923076923077em" y="29.874612250595842em" fill="#aaa"/><rect width="0.9615384615384616em" height="0.39168037386891613em" x="11.538461538461538em" y="29.608319626131085em" fill="#aaa"/><rect width="0.9615384615384616em" height="0.077192083540989em" x="12.5em" y="29.92280791645901em" fill="#aaa"/><rect width="0.9615384615384616em" height="0.25197306694437027em" x="13.461538461538462em" y="29.74802693305563em" fill="#aaa"/><rect width="0.9615384615384616em" height="0.22016919812598967em" x="14.423076923076923em" y="29.77983080187401em" fill="#aaa"/><rect width="0.9615384615384616em" height="0.261197082940613em" x="15.384615384615385em" y="29.738802917059388em" fill="#aaa"/><rect width="0.9615384615384616em" height="0.04376198812959316em" x="16.346153846153847em" y="29.956238011870408em" fill="#aaa"/><rect width="0.9615384615384616em" height="0.05453250670324147em" x="17.307692307692307em" y="29.945467493296757em" fill="#aaa"/><rect width="0.9615384615384616em" height="0.13712786093768106em" x="18.26923076923077em" y="29.86287213906232em" fill="#aaa"/><rect width="0.9615384615384616em" height="0.15479736624375662em" x="19.23076923076923em" y="29.845202633756244em" fill="#aaa"/><rect width="0.9615384615384616em" height="0.18385262381781683em" x="20.192307692307693em" y="29.816147376182183em" fill="#aaa"/><rect width="0.9615384615384616em" height="0.06446009766020985em" x="21.153846153846153em" y="29.93553990233979em" fill="#aaa"/><rect width="0.9615384615384616em" height="0.04110880331623847em" x="22.115384615384617em" y="29.958891196683762em" fill="#aaa"/><rect width="0.9615384615384616em" height="0.07582281700834603em" x="23.076923076923077em" y="29.924177182991652em" fill="#aaa"/><rect width="0.9615384615384616em" height="0.15016654126252682em" x="24.03846153846154em" y="29.84983345873747em" fill="#aaa"/><rect width="0.9615384615384616em" height="0.12750192763507656em" x="25em" y="29.872498072364923em" fill="#aaa"/><rect width="0.9615384615384616em" height="0.17525660401046217em" x="25.961538461538463em" y="29.824743395989536em" fill="#aaa"/><rect width="0.9615384615384616em" height="0.09536876735361195em" x="26.923076923076923em" y="29.904631232646388em" fill="#aaa"/><rect width="0.9615384615384616em" height="0.2790336377840748em" x="27.884615384615387em" y="29.720966362215925em" fill="#aaa"/><rect width="0.9615384615384616em" height="0.26893095690539004em" x="28.846153846153847em" y="29.73106904309461em" fill="#aaa"/><rect width="0.9615384615384616em" height="0.28281572811011957em" x="29.80769230769231em" y="29.71718427188988em" fill="#aaa"/><rect width="0.9615384615384616em" height="0.2447835364755146em" x="30.76923076923077em" y="29.755216463524487em" fill="#aaa"/><rect width="0.9615384615384616em" height="0.09903422379744525em" x="31.73076923076923em" y="29.900965776202554em" fill="#aaa"/><rect width="0.9615384615384616em" height="0.4305372411664692em" x="32.69230769230769em" y="29.56946275883353em" fill="#aaa"/><rect width="0.9615384615384616em" height="0.2710835677131868em" x="33.65384615384615em" y="29.728916432286812em" fill="#aaa"/><rect width="0.9615384615384616em" height="0.2259303166961737em" x="34.61538461538461em" y="29.774069683303825em" fill="#aaa"/><rect width="0.9615384615384616em" height="0.1926539060160608em" x="35.57692307692308em" y="29.807346093983938em" fill="#aaa"/><rect width="0.9615384615384616em" height="0.33821053163551723em" x="36.53846153846154em" y="29.661789468364482em" fill="#aaa"/><rect width="0.9615384615384616em" height="0.22483769786463137em" x="37.5em" y="29.775162302135367em" fill="#aaa"/><rect width="0.9615384615384616em" height="0.5958449508396713em" x="38.46153846153846em" y="29.40415504916033em" fill="#aaa"/><rect width="0.9615384615384616em" height="0.34432465920084343em" x="39.42307692307693em" y="29.655675340799156em" fill="#aaa"/><rect width="0.9615384615384616em" height="0.49580121422182044em" x="40.38461538461539em" y="29.50419878577818em" fill="#aaa"/><rect width="0.9615384615384616em" height="1.1324937709403073em" x="41.34615384615385em" y="28.867506229059693em" fill="#aaa"/><rect width="0.9615384615384616em" height="0.6368779488313276em" x="42.30769230769231em" y="29.363122051168673em" fill="#aaa"/><rect width="0.9615384615384616em" height="0.3623710762123116em" x="43.269230769230774em" y="29.637628923787688em" fill="#aaa"/><rect width="0.9615384615384616em" height="0.13535025854966742em" x="44.23076923076923em" y="29.864649741450332em" fill="#aaa"/><rect width="0.9615384615384616em" height="0.31759276519132507em" x="45.19230769230769em" y="29.682407234808675em" fill="#aaa"/><rect width="0.9615384615384616em" height="0.26726208374506716em" x="46.15384615384615em" y="29.732737916254933em" fill="#aaa"/><rect width="0.9615384615384616em" height="0.22396975401290795em" x="47.11538461538461em" y="29.77603024598709em" fill="#aaa"/><rect width="0.9615384615384616em" height="0.2560720973712408em" x="48.07692307692308em" y="29.74392790262876em" fill="#aaa"/><rect width="0.9615384615384616em" height="0.37042678024746634em" x="49.03846153846154em" y="29.629573219752533em" fill="#aaa"/><rect width="0.9615384615384616em" height="0.2081639973067246em" x="50em" y="29.791836002693277em" fill="#aaa"/><rect width="0.9615384615384616em" height="0.4093637527261522em" x="50.96153846153846em" y="29.59063624727385em" fill="#aaa"/><rect width="0.9615384615384616em" height="0.3491016166793446em" x="51.92307692307693em" y="29.650898383320655em" fill="#aaa"/><rect width="0.9615384615384616em" height="0.2843341842393845em" x="52.88461538461539em" y="29.715665815760616em" fill="#aaa"/><rect width="0.9615384615384616em" height="0.7258012715408991em" x="53.84615384615385em" y="29.2741987284591em" fill="#aaa"/><rect width="0.9615384615384616em" height="0.3728126552924276em" x="54.80769230769231em" y="29.627187344707572em" fill="#aaa"/><rect width="0.9615384615384616em" height="0.2605246950687995em" x="55.769230769230774em" y="29.7394753049312em" fill="#aaa"/><rect width="0.9615384615384616em" height="0.40315924970552613em" x="56.73076923076923em" y="29.596840750294472em" fill="#aaa"/><rect width="0.9615384615384616em" height="0.2087511244374719em" x="57.69230769230769em" y="29.791248875562527em" fill="#aaa"/><rect width="0.9615384615384616em" height="0.3918480762879953em" x="58.65384615384615em" y="29.608151923712004em" fill="#aaa"/><rect width="0.9615384615384616em" height="0.34459697150786545em" x="59.61538461538462em" y="29.655403028492135em" fill="#aaa"/><rect width="0.9615384615384616em" height="0.26890660477571376em" x="60.57692307692308em" y="29.731093395224285em" fill="#aaa"/><rect width="0.9615384615384616em" height="0.24818092284932913em" x="61.53846153846154em" y="29.75181907715067em" fill="#aaa"/><rect width="0.9615384615384616em" height="0.49684726575415494em" x="62.5em" y="29.503152734245845em" fill="#aaa"/><rect width="0.9615384615384616em" height="0.19593688610096333em" x="63.46153846153846em" y="29.804063113899037em" fill="#aaa"/><rect width="0.9615384615384616em" height="0.3592171153375683em" x="64.42307692307692em" y="29.640782884662432em" fill="#aaa"/><rect width="0.9615384615384616em" height="0.36707297491598323em" x="65.38461538461539em" y="29.632927025084015em" fill="#aaa"/><rect width="0.9615384615384616em" height="0.47454315604177016em" x="66.34615384615385em" y="29.52545684395823em" fill="#aaa"/><rect width="0.9615384615384616em" height="0.4605969285592538em" x="67.3076923076923em" y="29.539403071440745em" fill="#aaa"/><rect width="0.9615384615384616em" height="0.30546757082269904em" x="68.26923076923077em" y="29.6945324291773em" fill="#aaa"/><rect width="0.9615384615384616em" height="0.44570190171811974em" x="69.23076923076923em" y="29.55429809828188em" fill="#aaa"/><rect width="0.9615384615384616em" height="0.3652931829710927em" x="70.1923076923077em" y="29.634706817028906em" fill="#aaa"/><rect width="0.9615384615384616em" height="0.3263928921921994em" x="71.15384615384616em" y="29.6736071078078em" fill="#aaa"/><rect width="0.9615384615384616em" height="1.936785068263861em" x="72.11538461538461em" y="28.063214931736137em" fill="#aaa"/><rect width="0.9615384615384616em" height="2.9061548636033954em" x="73.07692307692308em" y="27.093845136396606em" fill="#aaa"/><rect width="0.9615384615384616em" height="5.7587367049121125em" x="74.03846153846155em" y="24.241263295087887em" fill="#aaa"/><rect width="0.9615384615384616em" height="3.0009494818077167em" x="75em" y="26.999050518192284em" fill="#aaa"/><rect width="0.9615384615384616em" height="3.1092705806723173em" x="75.96153846153847em" y="26.890729419327684em" fill="#aaa"/><rect width="0.9615384615384616em" height="1.6501766663174255em" x="76.92307692307692em" y="28.349823333682576em" fill="#aaa"/><rect width="0.9615384615384616em" height="3.3700494329093837em" x="77.88461538461539em" y="26.629950567090617em" fill="#aaa"/><rect width="0.9615384615384616em" height="5.40423773258962em" x="78.84615384615385em" y="24.59576226741038em" fill="#aaa"/><rect width="0.9615384615384616em" height="3.2626275574201165em" x="79.8076923076923em" y="26.737372442579883em" fill="#aaa"/><rect width="0.9615384615384616em" height="7.301549046918895em" x="80.76923076923077em" y="22.698450953081107em" fill="#aaa"/><rect width="0.9615384615384616em" height="4.153459743042533em" x="81.73076923076923em" y="25.846540256957468em" fill="#aaa"/><rect width="0.9615384615384616em" height="1.3590769890416534em" x="82.6923076923077em" y="28.640923010958346em" fill="#aaa"/><rect width="0.9615384615384616em" height="2.119657138212795em" x="83.65384615384616em" y="27.880342861787206em" fill="#aaa"/><rect width="0.9615384615384616em" height="3.4364622562124696em" x="84.61538461538461em" y="26.56353774378753em" fill="#aaa"/><rect width="0.9615384615384616em" height="5.537719724865179em" x="85.57692307692308em" y="24.462280275134823em" fill="#aaa"/><rect width="0.9615384615384616em" height="2.5335605360562226em" x="86.53846153846155em" y="27.46643946394378em" fill="#aaa"/><rect width="0.9615384615384616em" height="2.9988584840838155em" x="87.5em" y="27.001141515916185em" fill="#aaa"/><rect width="0.9615384615384616em" height="3.603368263770379em" x="88.46153846153847em" y="26.396631736229622em" fill="#aaa"/><rect width="0.9615384615384616em" height="1.5863022844084858em" x="89.42307692307692em" y="28.413697715591514em" fill="#aaa"/><rect width="0.9615384615384616em" height="1.7444276387621742em" x="90.38461538461539em" y="28.255572361237824em" fill="#aaa"/><rect width="0.9615384615384616em" height="1.3954534408543426em" x="91.34615384615385em" y="28.604546559145657em" fill="#aaa"/><rect width="0.9615384615384616em" height="2.0041489927047893em" x="92.3076923076923em" y="27.99585100729521em" fill="#aaa"/><rect width="0.9615384615384616em" height="2.2417113361718655em" x="93.26923076923077em" y="27.758288663828136em" fill="#aaa"/><rect width="0.9615384615384616em" height="2.246364778444023em" x="94.23076923076923em" y="27.753635221555978em" fill="#aaa"/><rect width="0.9615384615384616em" height="14.134199719098563em" x="95.1923076923077em" y="15.865800280901437em" fill="#aaa"/><rect width="0.9615384615384616em" height="17.63810566142484em" x="96.15384615384616em" y="12.361894338575159em" fill="#aaa"/><rect width="0.9615384615384616em" height="30em" x="97.11538461538461em" y="0em" fill="#aaa"/><rect width="0.9615384615384616em" height="23.210259284094022em" x="98.07692307692308em" y="6.789740715905978em" fill="#aaa"/><rect width="0.9615384615384616em" height="28.653175078074774em" x="99.03846153846155em" y="1.3468249219252257em" fill="#aaa"/></svg>