<?xml version="1.0" standalone="no"?>
<svg xmlns:xlink="http://www.w3.org/1999/xlink" xmlns="http://www.w3.org/2000/svg" class="topic-graph" style="width: 100em; height: 30em; text-align: center;"><rect width="0.9615384615384616em" height="0.4988135021999474em" x="0em" y="29.501186497800052em" fill="#aaa"/><rect width="0.9615384615384616em" height="2.6729806637270994em" x="0.9615384615384616em" y="27.3270193362729em" fill="#aaa"/><rect width="0.9615384615384616em" height="0.543857304454139em" x="1.9230769230769231em" y="29.45614269554586em" fill="#aaa"/><rect width="0.9615384615384616em" height="0.9000712284554331em" x="2.8846153846153846em" y="29.099928771544565em" fill="#aaa"/><rect width="0.9615384615384616em" height="2.4518710973379725em" x="3.8461538461538463em" y="27.54812890266203em" fill="#aaa"/><rect width="0.9615384615384616em" height="1.154196830227263em" x="4.8076923076923075em" y="28.845803169772736em" fill="#aaa"/><rect width="0.9615384615384616em" height="3.1067575914425727em" x="5.769230769230769em" y="26.893242408557427em" fill="#aaa"/><rect width="0.9615384615384616em" height="0.9481186262575311em" x="6.730769230769231em" y="29.051881373742468em" fill="#aaa"/><rect width="0.9615384615384616em" height="0.4564569375479948em" x="7.6923076923076925em" y="29.543543062452006em" fill="#aaa"/><rect width="0.9615384615384616em" height="0.6748456732980745em" x="8.653846153846153em" y="29.325154326701927em" fill="#aaa"/><rect width="0.9615384615384616em" height="3.7955518513551887em" x="9.615384615384615em" y="26.20444814864481em" fill="#aaa"/><rect width="0.9615384615384616em" height="1.3355966923460354em" x="10.576923076923077em" y="28.664403307653963em" fill="#aaa"/><rect width="0.9615384615384616em" height="1.183205266074558em" x="11.538461538461538em" y="28.81679473392544em" fill="#aaa"/><rect width="0.9615384615384616em" height="0.5454400574329985em" x="12.5em" y="29.454559942567002em" fill="#aaa"/><rect width="0.9615384615384616em" height="2.1335562044010703em" x="13.461538461538462em" y="27.86644379559893em" fill="#aaa"/><rect width="0.9615384615384616em" height="0.8159487910696256em" x="14.423076923076923em" y="29.184051208930374em" fill="#aaa"/><rect width="0.9615384615384616em" height="0.4334983126931282em" x="15.384615384615385em" y="29.56650168730687em" fill="#aaa"/><rect width="0.9615384615384616em" height="1.1057280931940736em" x="16.346153846153847em" y="28.894271906805926em" fill="#aaa"/><rect width="0.9615384615384616em" height="0.36867329040497443em" x="17.307692307692307em" y="29.631326709595026em" fill="#aaa"/><rect width="0.9615384615384616em" height="2.0995871963647197em" x="18.26923076923077em" y="27.90041280363528em" fill="#aaa"/><rect width="0.9615384615384616em" height="0.5329990979177259em" x="19.23076923076923em" y="29.467000902082273em" fill="#aaa"/><rect width="0.9615384615384616em" height="1.5957368629395832em" x="20.192307692307693em" y="28.40426313706042em" fill="#aaa"/><rect width="0.9615384615384616em" height="0.7193879376848342em" x="21.153846153846153em" y="29.280612062315164em" fill="#aaa"/><rect width="0.9615384615384616em" height="0.9786270191008873em" x="22.115384615384617em" y="29.021372980899113em" fill="#aaa"/><rect width="0.9615384615384616em" height="0.35233180800728164em" x="23.076923076923077em" y="29.647668191992718em" fill="#aaa"/><rect width="0.9615384615384616em" height="2.122171324843829em" x="24.03846153846154em" y="27.87782867515617em" fill="#aaa"/><rect width="0.9615384615384616em" height="1.5920214060522706em" x="25em" y="28.40797859394773em" fill="#aaa"/><rect width="0.9615384615384616em" height="0.4467460528070204em" x="25.961538461538463em" y="29.553253947192978em" fill="#aaa"/><rect width="0.9615384615384616em" height="0.6839266984707911em" x="26.923076923076923em" y="29.316073301529208em" fill="#aaa"/><rect width="0.9615384615384616em" height="0.5278001237967425em" x="27.884615384615387em" y="29.47219987620326em" fill="#aaa"/><rect width="0.9615384615384616em" height="1.6172154055319106em" x="28.846153846153847em" y="28.382784594468088em" fill="#aaa"/><rect width="0.9615384615384616em" height="1.0911760979532095em" x="29.80769230769231em" y="28.90882390204679em" fill="#aaa"/><rect width="0.9615384615384616em" height="2.5287847309244715em" x="30.76923076923077em" y="27.47121526907553em" fill="#aaa"/><rect width="0.9615384615384616em" height="1.8451872790786583em" x="31.73076923076923em" y="28.154812720921342em" fill="#aaa"/><rect width="0.9615384615384616em" height="3.5713780256157994em" x="32.69230769230769em" y="26.4286219743842em" fill="#aaa"/><rect width="0.9615384615384616em" height="2.3716697722473388em" x="33.65384615384615em" y="27.628330227752663em" fill="#aaa"/><rect width="0.9615384615384616em" height="1.6093997399525337em" x="34.61538461538461em" y="28.390600260047467em" fill="#aaa"/><rect width="0.9615384615384616em" height="2.523338047307842em" x="35.57692307692308em" y="27.476661952692158em" fill="#aaa"/><rect width="0.9615384615384616em" height="3.121461605857199em" x="36.53846153846154em" y="26.8785383941428em" fill="#aaa"/><rect width="0.9615384615384616em" height="2.4311911794402006em" x="37.5em" y="27.5688088205598em" fill="#aaa"/><rect width="0.9615384615384616em" height="3.6190925904202618em" x="38.46153846153846em" y="26.380907409579738em" fill="#aaa"/><rect width="0.9615384615384616em" height="1.1250258390126278em" x="39.42307692307693em" y="28.87497416098737em" fill="#aaa"/><rect width="0.9615384615384616em" height="2.507571645166696em" x="40.38461538461539em" y="27.492428354833304em" fill="#aaa"/><rect width="0.9615384615384616em" height="1.3206871634141422em" x="41.34615384615385em" y="28.679312836585858em" fill="#aaa"/><rect width="0.9615384615384616em" height="4.882641026820885em" x="42.30769230769231em" y="25.117358973179115em" fill="#aaa"/><rect width="0.9615384615384616em" height="2.4132670530524982em" x="43.269230769230774em" y="27.586732946947503em" fill="#aaa"/><rect width="0.9615384615384616em" height="4.16033416260471em" x="44.23076923076923em" y="25.83966583739529em" fill="#aaa"/><rect width="0.9615384615384616em" height="1.3789807497853224em" x="45.19230769230769em" y="28.621019250214676em" fill="#aaa"/><rect width="0.9615384615384616em" height="3.5129205346696617em" x="46.15384615384615em" y="26.48707946533034em" fill="#aaa"/><rect width="0.9615384615384616em" height="4.936963325285537em" x="47.11538461538461em" y="25.063036674714464em" fill="#aaa"/><rect width="0.9615384615384616em" height="7.443428670723911em" x="48.07692307692308em" y="22.55657132927609em" fill="#aaa"/><rect width="0.9615384615384616em" height="4.448609985096347em" x="49.03846153846154em" y="25.551390014903653em" fill="#aaa"/><rect width="0.9615384615384616em" height="4.067508009383541em" x="50em" y="25.93249199061646em" fill="#aaa"/><rect width="0.9615384615384616em" height="5.130107665134625em" x="50.96153846153846em" y="24.869892334865376em" fill="#aaa"/><rect width="0.9615384615384616em" height="4.5313643451776775em" x="51.92307692307693em" y="25.46863565482232em" fill="#aaa"/><rect width="0.9615384615384616em" height="4.602171711049966em" x="52.88461538461539em" y="25.397828288950034em" fill="#aaa"/><rect width="0.9615384615384616em" height="6.331498855288112em" x="53.84615384615385em" y="23.66850114471189em" fill="#aaa"/><rect width="0.9615384615384616em" height="11.190621234983194em" x="54.80769230769231em" y="18.809378765016806em" fill="#aaa"/><rect width="0.9615384615384616em" height="10.268500437054437em" x="55.769230769230774em" y="19.731499562945565em" fill="#aaa"/><rect width="0.9615384615384616em" height="14.006325469861682em" x="56.73076923076923em" y="15.993674530138318em" fill="#aaa"/><rect width="0.9615384615384616em" height="10.193100673227372em" x="57.69230769230769em" y="19.80689932677263em" fill="#aaa"/><rect width="0.9615384615384616em" height="7.0239761226695245em" x="58.65384615384615em" y="22.976023877330476em" fill="#aaa"/><rect width="0.9615384615384616em" height="5.820906491876898em" x="59.61538461538462em" y="24.179093508123103em" fill="#aaa"/><rect width="0.9615384615384616em" height="7.0539286067854166em" x="60.57692307692308em" y="22.946071393214584em" fill="#aaa"/><rect width="0.9615384615384616em" height="4.11460598641159em" x="61.53846153846154em" y="25.88539401358841em" fill="#aaa"/><rect width="0.9615384615384616em" height="9.857056083299609em" x="62.5em" y="20.14294391670039em" fill="#aaa"/><rect width="0.9615384615384616em" height="4.658530734395469em" x="63.46153846153846em" y="25.34146926560453em" fill="#aaa"/><rect width="0.9615384615384616em" height="3.4591632755159787em" x="64.42307692307692em" y="26.54083672448402em" fill="#aaa"/><rect width="0.9615384615384616em" height="10.036278520950457em" x="65.38461538461539em" y="19.963721479049543em" fill="#aaa"/><rect width="0.9615384615384616em" height="4.999769306054114em" x="66.34615384615385em" y="25.000230693945888em" fill="#aaa"/><rect width="0.9615384615384616em" height="7.9742484593904495em" x="67.3076923076923em" y="22.02575154060955em" fill="#aaa"/><rect width="0.9615384615384616em" height="7.780067732108106em" x="68.26923076923077em" y="22.219932267891892em" fill="#aaa"/><rect width="0.9615384615384616em" height="7.500631060109852em" x="69.23076923076923em" y="22.499368939890147em" fill="#aaa"/><rect width="0.9615384615384616em" height="14.783326130926785em" x="70.1923076923077em" y="15.216673869073215em" fill="#aaa"/><rect width="0.9615384615384616em" height="15.283646017402065em" x="71.15384615384616em" y="14.716353982597935em" fill="#aaa"/><rect width="0.9615384615384616em" height="18.58502962470141em" x="72.11538461538461em" y="11.41497037529859em" fill="#aaa"/><rect width="0.9615384615384616em" height="20.748223831583378em" x="73.07692307692308em" y="9.251776168416622em" fill="#aaa"/><rect width="0.9615384615384616em" height="23.50656950670633em" x="74.03846153846155em" y="6.493430493293669em" fill="#aaa"/><rect width="0.9615384615384616em" height="12.64152247130138em" x="75em" y="17.35847752869862em" fill="#aaa"/><rect width="0.9615384615384616em" height="30em" x="75.96153846153847em" y="0em" fill="#aaa"/><rect width="0.9615384615384616em" height="22.4685701088806em" x="76.92307692307692em" y="7.5314298911194015em" fill="#aaa"/><rect width="0.9615384615384616em" height="6.102841704062593em" x="77.88461538461539em" y="23.89715829593741em" fill="#aaa"/><rect width="0.9615384615384616em" height="8.395122160813766em" x="78.84615384615385em" y="21.604877839186234em" fill="#aaa"/><rect width="0.9615384615384616em" height="7.599040652917843em" x="79.8076923076923em" y="22.400959347082157em" fill="#aaa"/><rect width="0.9615384615384616em" height="5.979393268808694em" x="80.76923076923077em" y="24.020606731191307em" fill="#aaa"/><rect width="0.9615384615384616em" height="7.19745537384321em" x="81.73076923076923em" y="22.802544626156788em" fill="#aaa"/><rect width="0.9615384615384616em" height="6.743958284431057em" x="82.6923076923077em" y="23.256041715568944em" fill="#aaa"/><rect width="0.9615384615384616em" height="7.572996657835302em" x="83.65384615384616em" y="22.4270033421647em" fill="#aaa"/><rect width="0.9615384615384616em" height="7.076332940705329em" x="84.61538461538461em" y="22.923667059294672em" fill="#aaa"/><rect width="0.9615384615384616em" height="5.60790996532106em" x="85.57692307692308em" y="24.39209003467894em" fill="#aaa"/><rect width="0.9615384615384616em" height="8.058418617873059em" x="86.53846153846155em" y="21.94158138212694em" fill="#aaa"/><rect width="0.9615384615384616em" height="14.74467636317948em" x="87.5em" y="15.25532363682052em" fill="#aaa"/><rect width="0.9615384615384616em" height="18.610235232929714em" x="88.46153846153847em" y="11.389764767070286em" fill="#aaa"/><rect width="0.9615384615384616em" height="14.005561778376551em" x="89.42307692307692em" y="15.994438221623449em" fill="#aaa"/><rect width="0.9615384615384616em" height="9.43904631664061em" x="90.38461538461539em" y="20.56095368335939em" fill="#aaa"/><rect width="0.9615384615384616em" height="25.5532432397448em" x="91.34615384615385em" y="4.446756760255202em" fill="#aaa"/><rect width="0.9615384615384616em" height="11.155452356362764em" x="92.3076923076923em" y="18.844547643637235em" fill="#aaa"/><rect width="0.9615384615384616em" height="6.760362522970653em" x="93.26923076923077em" y="23.239637477029348em" fill="#aaa"/><rect width="0.9615384615384616em" height="3.4581617808035197em" x="94.23076923076923em" y="26.54183821919648em" fill="#aaa"/><rect width="0.9615384615384616em" height="7.330068529100291em" x="95.1923076923077em" y="22.66993147089971em" fill="#aaa"/><rect width="0.9615384615384616em" height="6.086491188462485em" x="96.15384615384616em" y="23.913508811537515em" fill="#aaa"/><rect width="0.9615384615384616em" height="5.385684948228515em" x="97.11538461538461em" y="24.614315051771484em" fill="#aaa"/><rect width="0.9615384615384616em" height="4.5681330568611935em" x="98.07692307692308em" y="25.431866943138807em" fill="#aaa"/><rect width="0.9615384615384616em" height="3.746419446081971em" x="99.03846153846155em" y="26.253580553918027em" fill="#aaa"/></svg>