<?xml version="1.0" standalone="no"?>
<svg xmlns:xlink="http://www.w3.org/1999/xlink" xmlns="http://www.w3.org/2000/svg" class="topic-graph" style="width: 10vw; height: 3em; text-align: center;"><rect width="0.09615384615384616em" height="1.0661649485984144em" x="0vw" y="1.9338350514015856em" fill="#aaa"/><rect width="0.09615384615384616em" height="0.7868718276717348em" x="0.09615384615384616vw" y="2.213128172328265em" fill="#aaa"/><rect width="0.09615384615384616em" height="0.46825127413297574em" x="0.19230769230769232vw" y="2.531748725867024em" fill="#aaa"/><rect width="0.09615384615384616em" height="3em" x="0.2884615384615385vw" y="0em" fill="#aaa"/><rect width="0.09615384615384616em" height="1.2567624099870043em" x="0.38461538461538464vw" y="1.7432375900129957em" fill="#aaa"/><rect width="0.09615384615384616em" height="1.4418136788860414em" x="0.4807692307692308vw" y="1.5581863211139586em" fill="#aaa"/><rect width="0.09615384615384616em" height="1.7766588821205391em" x="0.576923076923077vw" y="1.2233411178794609em" fill="#aaa"/><rect width="0.09615384615384616em" height="2.0924772223339865em" x="0.6730769230769231vw" y="0.9075227776660135em" fill="#aaa"/><rect width="0.09615384615384616em" height="0.7247236363939362em" x="0.7692307692307693vw" y="2.275276363606064em" fill="#aaa"/><rect width="0.09615384615384616em" height="1.4557375048838297em" x="0.8653846153846154vw" y="1.5442624951161703em" fill="#aaa"/><rect width="0.09615384615384616em" height="0.7180477490824584em" x="0.9615384615384616vw" y="2.2819522509175414em" fill="#aaa"/><rect width="0.09615384615384616em" height="1.031403666567651em" x="1.0576923076923077vw" y="1.968596333432349em" fill="#aaa"/><rect width="0.09615384615384616em" height="1.4184016512866742em" x="1.153846153846154vw" y="1.5815983487133258em" fill="#aaa"/><rect width="0.09615384615384616em" height="2.9277322278126228em" x="1.25vw" y="0.07226777218737723em" fill="#aaa"/><rect width="0.09615384615384616em" height="1.0541499352636357em" x="1.3461538461538463vw" y="1.9458500647363643em" fill="#aaa"/><rect width="0.09615384615384616em" height="2.3246510374836307em" x="1.4423076923076923vw" y="0.6753489625163693em" fill="#aaa"/><rect width="0.09615384615384616em" height="1.63663818242398em" x="1.5384615384615385vw" y="1.36336181757602em" fill="#aaa"/><rect width="0.09615384615384616em" height="0.626475353206366em" x="1.6346153846153848vw" y="2.373524646793634em" fill="#aaa"/><rect width="0.09615384615384616em" height="0.68822733112867em" x="1.7307692307692308vw" y="2.3117726688713303em" fill="#aaa"/><rect width="0.09615384615384616em" height="1.4336282505030593em" x="1.826923076923077vw" y="1.5663717494969407em" fill="#aaa"/><rect width="0.09615384615384616em" height="1.513453149245437em" x="1.9230769230769231vw" y="1.486546850754563em" fill="#aaa"/><rect width="0.09615384615384616em" height="1.1094595039389175em" x="2.019230769230769vw" y="1.8905404960610825em" fill="#aaa"/><rect width="0.09615384615384616em" height="1.2019638407601168em" x="2.1153846153846154vw" y="1.7980361592398832em" fill="#aaa"/><rect width="0.09615384615384616em" height="1.287545718626593em" x="2.2115384615384617vw" y="1.712454281373407em" fill="#aaa"/><rect width="0.09615384615384616em" height="1.9880604653141358em" x="2.307692307692308vw" y="1.0119395346858642em" fill="#aaa"/><rect width="0.09615384615384616em" height="0.8414263010304318em" x="2.403846153846154vw" y="2.158573698969568em" fill="#aaa"/><rect width="0.09615384615384616em" height="0.9366968003953988em" x="2.5vw" y="2.063303199604601em" fill="#aaa"/><rect width="0.09615384615384616em" height="0.9413742711586788em" x="2.5961538461538463vw" y="2.0586257288413212em" fill="#aaa"/><rect width="0.09615384615384616em" height="0.7402968825524412em" x="2.6923076923076925vw" y="2.259703117447559em" fill="#aaa"/><rect width="0.09615384615384616em" height="0.9098668360186962em" x="2.7884615384615388vw" y="2.090133163981304em" fill="#aaa"/><rect width="0.09615384615384616em" height="1.4735735624625859em" x="2.8846153846153846vw" y="1.5264264375374141em" fill="#aaa"/><rect width="0.09615384615384616em" height="0.8220642878305944em" x="2.980769230769231vw" y="2.177935712169406em" fill="#aaa"/><rect width="0.09615384615384616em" height="1.4274862569195128em" x="3.076923076923077vw" y="1.5725137430804872em" fill="#aaa"/><rect width="0.09615384615384616em" height="0.5515517223460783em" x="3.1730769230769234vw" y="2.4484482776539216em" fill="#aaa"/><rect width="0.09615384615384616em" height="0.5949919063507313em" x="3.2692307692307696vw" y="2.405008093649269em" fill="#aaa"/><rect width="0.09615384615384616em" height="0.9571736972581919em" x="3.3653846153846154vw" y="2.0428263027418083em" fill="#aaa"/><rect width="0.09615384615384616em" height="1.0820779771748987em" x="3.4615384615384617vw" y="1.9179220228251013em" fill="#aaa"/><rect width="0.09615384615384616em" height="0.8011818950874445em" x="3.557692307692308vw" y="2.1988181049125552em" fill="#aaa"/><rect width="0.09615384615384616em" height="2.2245082595906998em" x="3.653846153846154vw" y="0.7754917404093002em" fill="#aaa"/><rect width="0.09615384615384616em" height="1.5831230824902738em" x="3.75vw" y="1.4168769175097262em" fill="#aaa"/><rect width="0.09615384615384616em" height="1.3787938911953082em" x="3.8461538461538463vw" y="1.6212061088046918em" fill="#aaa"/><rect width="0.09615384615384616em" height="1.6806510908983987em" x="3.9423076923076925vw" y="1.3193489091016013em" fill="#aaa"/><rect width="0.09615384615384616em" height="1.0123771778109805em" x="4.038461538461538vw" y="1.9876228221890195em" fill="#aaa"/><rect width="0.09615384615384616em" height="2.0161531529329144em" x="4.134615384615385vw" y="0.9838468470670856em" fill="#aaa"/><rect width="0.09615384615384616em" height="0.7237394112166132em" x="4.230769230769231vw" y="2.2762605887833867em" fill="#aaa"/><rect width="0.09615384615384616em" height="1.1236270349534998em" x="4.3269230769230775vw" y="1.8763729650465002em" fill="#aaa"/><rect width="0.09615384615384616em" height="1.4395251582564221em" x="4.423076923076923vw" y="1.5604748417435779em" fill="#aaa"/><rect width="0.09615384615384616em" height="2.131745036634981em" x="4.519230769230769vw" y="0.8682549633650192em" fill="#aaa"/><rect width="0.09615384615384616em" height="0.9549249525706702em" x="4.615384615384616vw" y="2.0450750474293296em" fill="#aaa"/><rect width="0.09615384615384616em" height="1.460935077014836em" x="4.711538461538462vw" y="1.539064922985164em" fill="#aaa"/><rect width="0.09615384615384616em" height="1.9026301016927776em" x="4.807692307692308vw" y="1.0973698983072224em" fill="#aaa"/><rect width="0.09615384615384616em" height="1.7100595732500996em" x="4.903846153846154vw" y="1.2899404267499004em" fill="#aaa"/><rect width="0.09615384615384616em" height="1.4960785291163816em" x="5vw" y="1.5039214708836184em" fill="#aaa"/><rect width="0.09615384615384616em" height="1.6950005269007438em" x="5.096153846153847vw" y="1.3049994730992562em" fill="#aaa"/><rect width="0.09615384615384616em" height="1.6680169051085205em" x="5.1923076923076925vw" y="1.3319830948914795em" fill="#aaa"/><rect width="0.09615384615384616em" height="0.8573461889665124em" x="5.288461538461538vw" y="2.1426538110334876em" fill="#aaa"/><rect width="0.09615384615384616em" height="2.0324252583231077em" x="5.384615384615385vw" y="0.9675747416768923em" fill="#aaa"/><rect width="0.09615384615384616em" height="1.1808145158218255em" x="5.480769230769231vw" y="1.8191854841781745em" fill="#aaa"/><rect width="0.09615384615384616em" height="1.179680192679968em" x="5.5769230769230775vw" y="1.820319807320032em" fill="#aaa"/><rect width="0.09615384615384616em" height="1.3955196569462718em" x="5.673076923076923vw" y="1.6044803430537282em" fill="#aaa"/><rect width="0.09615384615384616em" height="1.3941143334535455em" x="5.769230769230769vw" y="1.6058856665464545em" fill="#aaa"/><rect width="0.09615384615384616em" height="2.0108385113804434em" x="5.865384615384616vw" y="0.9891614886195566em" fill="#aaa"/><rect width="0.09615384615384616em" height="1.23441020372777em" x="5.961538461538462vw" y="1.76558979627223em" fill="#aaa"/><rect width="0.09615384615384616em" height="1.2742763406089255em" x="6.057692307692308vw" y="1.7257236593910745em" fill="#aaa"/><rect width="0.09615384615384616em" height="1.1304233229340377em" x="6.153846153846154vw" y="1.8695766770659623em" fill="#aaa"/><rect width="0.09615384615384616em" height="1.2153513755935477em" x="6.25vw" y="1.7846486244064523em" fill="#aaa"/><rect width="0.09615384615384616em" height="0.9687059128366291em" x="6.346153846153847vw" y="2.0312940871633707em" fill="#aaa"/><rect width="0.09615384615384616em" height="1.2648952811567964em" x="6.4423076923076925vw" y="1.7351047188432036em" fill="#aaa"/><rect width="0.09615384615384616em" height="0.8346555057030176em" x="6.538461538461539vw" y="2.165344494296982em" fill="#aaa"/><rect width="0.09615384615384616em" height="1.1631421315386659em" x="6.634615384615385vw" y="1.8368578684613341em" fill="#aaa"/><rect width="0.09615384615384616em" height="1.030227754689057em" x="6.730769230769231vw" y="1.969772245310943em" fill="#aaa"/><rect width="0.09615384615384616em" height="0.6718436275090358em" x="6.8269230769230775vw" y="2.328156372490964em" fill="#aaa"/><rect width="0.09615384615384616em" height="0.48993010703146556em" x="6.923076923076923vw" y="2.5100698929685343em" fill="#aaa"/><rect width="0.09615384615384616em" height="1.1094277809211672em" x="7.01923076923077vw" y="1.8905722190788328em" fill="#aaa"/><rect width="0.09615384615384616em" height="0.4483706577762034em" x="7.115384615384616vw" y="2.5516293422237966em" fill="#aaa"/><rect width="0.09615384615384616em" height="0.5122678619119937em" x="7.211538461538462vw" y="2.487732138088006em" fill="#aaa"/><rect width="0.09615384615384616em" height="0.9107547041338844em" x="7.307692307692308vw" y="2.0892452958661156em" fill="#aaa"/><rect width="0.09615384615384616em" height="0.625434088858065em" x="7.403846153846154vw" y="2.374565911141935em" fill="#aaa"/><rect width="0.09615384615384616em" height="0.5052494945100511em" x="7.5vw" y="2.494750505489949em" fill="#aaa"/><rect width="0.09615384615384616em" height="0.7024140750988493em" x="7.596153846153847vw" y="2.2975859249011505em" fill="#aaa"/><rect width="0.09615384615384616em" height="0.7091227655591128em" x="7.6923076923076925vw" y="2.290877234440887em" fill="#aaa"/><rect width="0.09615384615384616em" height="0.7028913623003198em" x="7.788461538461539vw" y="2.2971086376996803em" fill="#aaa"/><rect width="0.09615384615384616em" height="0.36964711605905354em" x="7.884615384615385vw" y="2.6303528839409465em" fill="#aaa"/><rect width="0.09615384615384616em" height="0.4308729239026568em" x="7.980769230769231vw" y="2.569127076097343em" fill="#aaa"/><rect width="0.09615384615384616em" height="0.46333293781949464em" x="8.076923076923077vw" y="2.536667062180505em" fill="#aaa"/><rect width="0.09615384615384616em" height="0.34240970975254764em" x="8.173076923076923vw" y="2.657590290247452em" fill="#aaa"/><rect width="0.09615384615384616em" height="0.2412272026954059em" x="8.26923076923077vw" y="2.758772797304594em" fill="#aaa"/><rect width="0.09615384615384616em" height="0.4520417050862065em" x="8.365384615384615vw" y="2.5479582949137933em" fill="#aaa"/><rect width="0.09615384615384616em" height="0.3823769437834945em" x="8.461538461538462vw" y="2.6176230562165053em" fill="#aaa"/><rect width="0.09615384615384616em" height="0.34651074690453704em" x="8.557692307692308vw" y="2.653489253095463em" fill="#aaa"/><rect width="0.09615384615384616em" height="0.5229919914678394em" x="8.653846153846155vw" y="2.4770080085321604em" fill="#aaa"/><rect width="0.09615384615384616em" height="0.39284858714584703em" x="8.75vw" y="2.607151412854153em" fill="#aaa"/><rect width="0.09615384615384616em" height="0.4225759579043724em" x="8.846153846153847vw" y="2.5774240420956276em" fill="#aaa"/><rect width="0.09615384615384616em" height="0.28647367764015186em" x="8.942307692307693vw" y="2.713526322359848em" fill="#aaa"/><rect width="0.09615384615384616em" height="0.3961799576105477em" x="9.038461538461538vw" y="2.603820042389452em" fill="#aaa"/><rect width="0.09615384615384616em" height="0.4782853262656327em" x="9.134615384615385vw" y="2.521714673734367em" fill="#aaa"/><rect width="0.09615384615384616em" height="0.3923234958965696em" x="9.230769230769232vw" y="2.60767650410343em" fill="#aaa"/><rect width="0.09615384615384616em" height="0.42940788914291095em" x="9.326923076923077vw" y="2.5705921108570893em" fill="#aaa"/><rect width="0.09615384615384616em" height="0.35783109904374333em" x="9.423076923076923vw" y="2.6421689009562566em" fill="#aaa"/><rect width="0.09615384615384616em" height="0.35025727779630156em" x="9.51923076923077vw" y="2.6497427222036984em" fill="#aaa"/><rect width="0.09615384615384616em" height="0.3482258397783758em" x="9.615384615384617vw" y="2.651774160221624em" fill="#aaa"/><rect width="0.09615384615384616em" height="0.31488162588346125em" x="9.711538461538462vw" y="2.6851183741165388em" fill="#aaa"/><rect width="0.09615384615384616em" height="0.29213488890583994em" x="9.807692307692308vw" y="2.70786511109416em" fill="#aaa"/><rect width="0.09615384615384616em" height="0.32309779449758225em" x="9.903846153846155vw" y="2.676902205502418em" fill="#aaa"/></svg>