<?xml version="1.0" standalone="no"?>
<svg xmlns:xlink="http://www.w3.org/1999/xlink" xmlns="http://www.w3.org/2000/svg" class="topic-graph" style="width: 100em; height: 30em; text-align: center;"><rect width="0.9615384615384616em" height="19.637586279939857em" x="0em" y="10.362413720060143em" fill="#aaa"/><rect width="0.9615384615384616em" height="12.557233732178899em" x="0.9615384615384616em" y="17.4427662678211em" fill="#aaa"/><rect width="0.9615384615384616em" height="18.722931419975346em" x="1.9230769230769231em" y="11.277068580024654em" fill="#aaa"/><rect width="0.9615384615384616em" height="14.550816485958826em" x="2.8846153846153846em" y="15.449183514041174em" fill="#aaa"/><rect width="0.9615384615384616em" height="11.563061690201653em" x="3.8461538461538463em" y="18.436938309798347em" fill="#aaa"/><rect width="0.9615384615384616em" height="30em" x="4.8076923076923075em" y="0em" fill="#aaa"/><rect width="0.9615384615384616em" height="22.28629720107741em" x="5.769230769230769em" y="7.71370279892259em" fill="#aaa"/><rect width="0.9615384615384616em" height="14.000496553339943em" x="6.730769230769231em" y="15.999503446660057em" fill="#aaa"/><rect width="0.9615384615384616em" height="17.40362132685503em" x="7.6923076923076925em" y="12.596378673144969em" fill="#aaa"/><rect width="0.9615384615384616em" height="18.45517312849916em" x="8.653846153846153em" y="11.544826871500842em" fill="#aaa"/><rect width="0.9615384615384616em" height="21.408998402930283em" x="9.615384615384615em" y="8.591001597069717em" fill="#aaa"/><rect width="0.9615384615384616em" height="10.527749279026324em" x="10.576923076923077em" y="19.472250720973676em" fill="#aaa"/><rect width="0.9615384615384616em" height="29.20705887207771em" x="11.538461538461538em" y="0.7929411279222904em" fill="#aaa"/><rect width="0.9615384615384616em" height="6.1264952579457335em" x="12.5em" y="23.873504742054266em" fill="#aaa"/><rect width="0.9615384615384616em" height="10.419057024483838em" x="13.461538461538462em" y="19.580942975516162em" fill="#aaa"/><rect width="0.9615384615384616em" height="6.8277048278915515em" x="14.423076923076923em" y="23.17229517210845em" fill="#aaa"/><rect width="0.9615384615384616em" height="4.078356282038036em" x="15.384615384615385em" y="25.921643717961963em" fill="#aaa"/><rect width="0.9615384615384616em" height="10.784454469222572em" x="16.346153846153847em" y="19.215545530777426em" fill="#aaa"/><rect width="0.9615384615384616em" height="5.394722334584647em" x="17.307692307692307em" y="24.605277665415354em" fill="#aaa"/><rect width="0.9615384615384616em" height="17.008772527443128em" x="18.26923076923077em" y="12.991227472556872em" fill="#aaa"/><rect width="0.9615384615384616em" height="5.088232182799973em" x="19.23076923076923em" y="24.911767817200026em" fill="#aaa"/><rect width="0.9615384615384616em" height="12.017035812662144em" x="20.192307692307693em" y="17.982964187337856em" fill="#aaa"/><rect width="0.9615384615384616em" height="9.195420376052134em" x="21.153846153846153em" y="20.804579623947866em" fill="#aaa"/><rect width="0.9615384615384616em" height="8.376579006477662em" x="22.115384615384617em" y="21.623420993522338em" fill="#aaa"/><rect width="0.9615384615384616em" height="10.872401409131786em" x="23.076923076923077em" y="19.127598590868214em" fill="#aaa"/><rect width="0.9615384615384616em" height="3.7019663092516724em" x="24.03846153846154em" y="26.298033690748326em" fill="#aaa"/><rect width="0.9615384615384616em" height="4.209908502559215em" x="25em" y="25.790091497440784em" fill="#aaa"/><rect width="0.9615384615384616em" height="3.819792179602643em" x="25.961538461538463em" y="26.180207820397356em" fill="#aaa"/><rect width="0.9615384615384616em" height="4.155255141556971em" x="26.923076923076923em" y="25.84474485844303em" fill="#aaa"/><rect width="0.9615384615384616em" height="3.048694818542274em" x="27.884615384615387em" y="26.951305181457727em" fill="#aaa"/><rect width="0.9615384615384616em" height="1.587248919658195em" x="28.846153846153847em" y="28.412751080341806em" fill="#aaa"/><rect width="0.9615384615384616em" height="2.3803389588625943em" x="29.80769230769231em" y="27.619661041137405em" fill="#aaa"/><rect width="0.9615384615384616em" height="3.9740766859417054em" x="30.76923076923077em" y="26.025923314058296em" fill="#aaa"/><rect width="0.9615384615384616em" height="2.7668665624914106em" x="31.73076923076923em" y="27.233133437508588em" fill="#aaa"/><rect width="0.9615384615384616em" height="8.614080818290912em" x="32.69230769230769em" y="21.385919181709088em" fill="#aaa"/><rect width="0.9615384615384616em" height="6.904375215964753em" x="33.65384615384615em" y="23.095624784035248em" fill="#aaa"/><rect width="0.9615384615384616em" height="7.170797667424687em" x="34.61538461538461em" y="22.829202332575314em" fill="#aaa"/><rect width="0.9615384615384616em" height="2.4644134014596135em" x="35.57692307692308em" y="27.535586598540387em" fill="#aaa"/><rect width="0.9615384615384616em" height="4.26450787073177em" x="36.53846153846154em" y="25.73549212926823em" fill="#aaa"/><rect width="0.9615384615384616em" height="6.2761944555179054em" x="37.5em" y="23.723805544482094em" fill="#aaa"/><rect width="0.9615384615384616em" height="4.461239344545819em" x="38.46153846153846em" y="25.53876065545418em" fill="#aaa"/><rect width="0.9615384615384616em" height="5.34536308764192em" x="39.42307692307693em" y="24.65463691235808em" fill="#aaa"/><rect width="0.9615384615384616em" height="5.685765351239739em" x="40.38461538461539em" y="24.314234648760262em" fill="#aaa"/><rect width="0.9615384615384616em" height="10.60445289049828em" x="41.34615384615385em" y="19.39554710950172em" fill="#aaa"/><rect width="0.9615384615384616em" height="5.8780942095138435em" x="42.30769230769231em" y="24.121905790486156em" fill="#aaa"/><rect width="0.9615384615384616em" height="5.746608373031567em" x="43.269230769230774em" y="24.253391626968433em" fill="#aaa"/><rect width="0.9615384615384616em" height="7.7278693510956895em" x="44.23076923076923em" y="22.27213064890431em" fill="#aaa"/><rect width="0.9615384615384616em" height="13.231925198037695em" x="45.19230769230769em" y="16.768074801962307em" fill="#aaa"/><rect width="0.9615384615384616em" height="8.29177709903085em" x="46.15384615384615em" y="21.708222900969147em" fill="#aaa"/><rect width="0.9615384615384616em" height="20.634716230466754em" x="47.11538461538461em" y="9.365283769533246em" fill="#aaa"/><rect width="0.9615384615384616em" height="14.938039181789927em" x="48.07692307692308em" y="15.061960818210073em" fill="#aaa"/><rect width="0.9615384615384616em" height="9.986483321243147em" x="49.03846153846154em" y="20.01351667875685em" fill="#aaa"/><rect width="0.9615384615384616em" height="10.02093805531917em" x="50em" y="19.97906194468083em" fill="#aaa"/><rect width="0.9615384615384616em" height="6.750326809747288em" x="50.96153846153846em" y="23.24967319025271em" fill="#aaa"/><rect width="0.9615384615384616em" height="17.85551995677869em" x="51.92307692307693em" y="12.14448004322131em" fill="#aaa"/><rect width="0.9615384615384616em" height="12.232576001397371em" x="52.88461538461539em" y="17.76742399860263em" fill="#aaa"/><rect width="0.9615384615384616em" height="6.868307615225129em" x="53.84615384615385em" y="23.131692384774873em" fill="#aaa"/><rect width="0.9615384615384616em" height="10.843843027999107em" x="54.80769230769231em" y="19.156156972000893em" fill="#aaa"/><rect width="0.9615384615384616em" height="4.52160224249032em" x="55.769230769230774em" y="25.47839775750968em" fill="#aaa"/><rect width="0.9615384615384616em" height="5.267349687063539em" x="56.73076923076923em" y="24.73265031293646em" fill="#aaa"/><rect width="0.9615384615384616em" height="7.554680916184634em" x="57.69230769230769em" y="22.445319083815367em" fill="#aaa"/><rect width="0.9615384615384616em" height="5.813741141159022em" x="58.65384615384615em" y="24.18625885884098em" fill="#aaa"/><rect width="0.9615384615384616em" height="3.296001649255149em" x="59.61538461538462em" y="26.70399835074485em" fill="#aaa"/><rect width="0.9615384615384616em" height="3.055890227287357em" x="60.57692307692308em" y="26.944109772712643em" fill="#aaa"/><rect width="0.9615384615384616em" height="3.4403165724387805em" x="61.53846153846154em" y="26.559683427561218em" fill="#aaa"/><rect width="0.9615384615384616em" height="4.749401435713566em" x="62.5em" y="25.250598564286435em" fill="#aaa"/><rect width="0.9615384615384616em" height="7.080392147865606em" x="63.46153846153846em" y="22.919607852134394em" fill="#aaa"/><rect width="0.9615384615384616em" height="3.8973786826105354em" x="64.42307692307692em" y="26.102621317389463em" fill="#aaa"/><rect width="0.9615384615384616em" height="4.832977594956031em" x="65.38461538461539em" y="25.16702240504397em" fill="#aaa"/><rect width="0.9615384615384616em" height="4.258915993673921em" x="66.34615384615385em" y="25.74108400632608em" fill="#aaa"/><rect width="0.9615384615384616em" height="3.2558540428032443em" x="67.3076923076923em" y="26.744145957196757em" fill="#aaa"/><rect width="0.9615384615384616em" height="3.5483418442117927em" x="68.26923076923077em" y="26.45165815578821em" fill="#aaa"/><rect width="0.9615384615384616em" height="4.004641037718527em" x="69.23076923076923em" y="25.995358962281472em" fill="#aaa"/><rect width="0.9615384615384616em" height="5.790577969773225em" x="70.1923076923077em" y="24.209422030226776em" fill="#aaa"/><rect width="0.9615384615384616em" height="3.8398301974120166em" x="71.15384615384616em" y="26.160169802587983em" fill="#aaa"/><rect width="0.9615384615384616em" height="2.8823083550343753em" x="72.11538461538461em" y="27.117691644965625em" fill="#aaa"/><rect width="0.9615384615384616em" height="3.356009396955618em" x="73.07692307692308em" y="26.643990603044383em" fill="#aaa"/><rect width="0.9615384615384616em" height="2.374274705229456em" x="74.03846153846155em" y="27.625725294770543em" fill="#aaa"/><rect width="0.9615384615384616em" height="2.246883651953288em" x="75em" y="27.75311634804671em" fill="#aaa"/><rect width="0.9615384615384616em" height="3.1988372730057315em" x="75.96153846153847em" y="26.801162726994267em" fill="#aaa"/><rect width="0.9615384615384616em" height="2.9006740177928356em" x="76.92307692307692em" y="27.099325982207166em" fill="#aaa"/><rect width="0.9615384615384616em" height="2.3119784837143955em" x="77.88461538461539em" y="27.688021516285605em" fill="#aaa"/><rect width="0.9615384615384616em" height="1.547275979993362em" x="78.84615384615385em" y="28.452724020006638em" fill="#aaa"/><rect width="0.9615384615384616em" height="2.6052967216044682em" x="79.8076923076923em" y="27.394703278395532em" fill="#aaa"/><rect width="0.9615384615384616em" height="2.6450536183628883em" x="80.76923076923077em" y="27.354946381637113em" fill="#aaa"/><rect width="0.9615384615384616em" height="1.7975568986261254em" x="81.73076923076923em" y="28.202443101373873em" fill="#aaa"/><rect width="0.9615384615384616em" height="1.381630101445179em" x="82.6923076923077em" y="28.61836989855482em" fill="#aaa"/><rect width="0.9615384615384616em" height="2.0460506159243286em" x="83.65384615384616em" y="27.95394938407567em" fill="#aaa"/><rect width="0.9615384615384616em" height="1.9981456587995101em" x="84.61538461538461em" y="28.00185434120049em" fill="#aaa"/><rect width="0.9615384615384616em" height="2.069854140835709em" x="85.57692307692308em" y="27.93014585916429em" fill="#aaa"/><rect width="0.9615384615384616em" height="1.8167669649487368em" x="86.53846153846155em" y="28.183233035051263em" fill="#aaa"/><rect width="0.9615384615384616em" height="1.571736657134145em" x="87.5em" y="28.428263342865854em" fill="#aaa"/><rect width="0.9615384615384616em" height="2.4165191359760816em" x="88.46153846153847em" y="27.58348086402392em" fill="#aaa"/><rect width="0.9615384615384616em" height="3.584941671366296em" x="89.42307692307692em" y="26.415058328633705em" fill="#aaa"/><rect width="0.9615384615384616em" height="2.192828091174787em" x="90.38461538461539em" y="27.807171908825215em" fill="#aaa"/><rect width="0.9615384615384616em" height="4.0605399410616em" x="91.34615384615385em" y="25.9394600589384em" fill="#aaa"/><rect width="0.9615384615384616em" height="2.669476166824806em" x="92.3076923076923em" y="27.330523833175192em" fill="#aaa"/><rect width="0.9615384615384616em" height="2.657010369451667em" x="93.26923076923077em" y="27.34298963054833em" fill="#aaa"/><rect width="0.9615384615384616em" height="2.8272505039501925em" x="94.23076923076923em" y="27.172749496049807em" fill="#aaa"/><rect width="0.9615384615384616em" height="2.2939356573513905em" x="95.1923076923077em" y="27.70606434264861em" fill="#aaa"/><rect width="0.9615384615384616em" height="2.851437081337468em" x="96.15384615384616em" y="27.14856291866253em" fill="#aaa"/><rect width="0.9615384615384616em" height="2.1585226951170124em" x="97.11538461538461em" y="27.841477304882986em" fill="#aaa"/><rect width="0.9615384615384616em" height="3.112914939645368em" x="98.07692307692308em" y="26.887085060354632em" fill="#aaa"/><rect width="0.9615384615384616em" height="2.1144319014251467em" x="99.03846153846155em" y="27.885568098574854em" fill="#aaa"/></svg>