<?xml version="1.0" standalone="no"?>
<svg xmlns:xlink="http://www.w3.org/1999/xlink" xmlns="http://www.w3.org/2000/svg" class="topic-graph" style="width: 100em; height: 30em; text-align: center;"><rect width="0.9615384615384616em" height="3.9725374238500426em" x="0em" y="26.027462576149958em" fill="#aaa"/><rect width="0.9615384615384616em" height="3.2082573332213467em" x="0.9615384615384616em" y="26.791742666778653em" fill="#aaa"/><rect width="0.9615384615384616em" height="3.3093868606011654em" x="1.9230769230769231em" y="26.690613139398835em" fill="#aaa"/><rect width="0.9615384615384616em" height="3.1481742704329654em" x="2.8846153846153846em" y="26.851825729567036em" fill="#aaa"/><rect width="0.9615384615384616em" height="5.239189298853761em" x="3.8461538461538463em" y="24.76081070114624em" fill="#aaa"/><rect width="0.9615384615384616em" height="9.72356952981254em" x="4.8076923076923075em" y="20.27643047018746em" fill="#aaa"/><rect width="0.9615384615384616em" height="19.5576099418626em" x="5.769230769230769em" y="10.442390058137399em" fill="#aaa"/><rect width="0.9615384615384616em" height="30em" x="6.730769230769231em" y="0em" fill="#aaa"/><rect width="0.9615384615384616em" height="7.97136903545609em" x="7.6923076923076925em" y="22.02863096454391em" fill="#aaa"/><rect width="0.9615384615384616em" height="7.006119475847503em" x="8.653846153846153em" y="22.993880524152498em" fill="#aaa"/><rect width="0.9615384615384616em" height="6.796519621674254em" x="9.615384615384615em" y="23.203480378325747em" fill="#aaa"/><rect width="0.9615384615384616em" height="4.482696453839718em" x="10.576923076923077em" y="25.51730354616028em" fill="#aaa"/><rect width="0.9615384615384616em" height="6.2107492600101555em" x="11.538461538461538em" y="23.789250739989846em" fill="#aaa"/><rect width="0.9615384615384616em" height="2.571734386340091em" x="12.5em" y="27.42826561365991em" fill="#aaa"/><rect width="0.9615384615384616em" height="0.7736680120031704em" x="13.461538461538462em" y="29.22633198799683em" fill="#aaa"/><rect width="0.9615384615384616em" height="1.4674204119648904em" x="14.423076923076923em" y="28.53257958803511em" fill="#aaa"/><rect width="0.9615384615384616em" height="0.41937510244969456em" x="15.384615384615385em" y="29.580624897550305em" fill="#aaa"/><rect width="0.9615384615384616em" height="1.078775538044481em" x="16.346153846153847em" y="28.921224461955518em" fill="#aaa"/><rect width="0.9615384615384616em" height="0.9738561937795016em" x="17.307692307692307em" y="29.0261438062205em" fill="#aaa"/><rect width="0.9615384615384616em" height="1.0964028042150646em" x="18.26923076923077em" y="28.903597195784936em" fill="#aaa"/><rect width="0.9615384615384616em" height="1.096668661847738em" x="19.23076923076923em" y="28.903331338152263em" fill="#aaa"/><rect width="0.9615384615384616em" height="0.4075849955238297em" x="20.192307692307693em" y="29.59241500447617em" fill="#aaa"/><rect width="0.9615384615384616em" height="0.17987220796956147em" x="21.153846153846153em" y="29.820127792030437em" fill="#aaa"/><rect width="0.9615384615384616em" height="3.2887984727475197em" x="22.115384615384617em" y="26.71120152725248em" fill="#aaa"/><rect width="0.9615384615384616em" height="0.7977192914223706em" x="23.076923076923077em" y="29.20228070857763em" fill="#aaa"/><rect width="0.9615384615384616em" height="1.1643254676844894em" x="24.03846153846154em" y="28.83567453231551em" fill="#aaa"/><rect width="0.9615384615384616em" height="0.6201663536861061em" x="25em" y="29.379833646313894em" fill="#aaa"/><rect width="0.9615384615384616em" height="0.7440084584026482em" x="25.961538461538463em" y="29.255991541597353em" fill="#aaa"/><rect width="0.9615384615384616em" height="0.45410261333168456em" x="26.923076923076923em" y="29.545897386668315em" fill="#aaa"/><rect width="0.9615384615384616em" height="0.5892188526115613em" x="27.884615384615387em" y="29.410781147388438em" fill="#aaa"/><rect width="0.9615384615384616em" height="0.5910582380920355em" x="28.846153846153847em" y="29.408941761907965em" fill="#aaa"/><rect width="0.9615384615384616em" height="1.1636894518386691em" x="29.80769230769231em" y="28.836310548161332em" fill="#aaa"/><rect width="0.9615384615384616em" height="0.8335721366093904em" x="30.76923076923077em" y="29.16642786339061em" fill="#aaa"/><rect width="0.9615384615384616em" height="1.9489926943930573em" x="31.73076923076923em" y="28.051007305606944em" fill="#aaa"/><rect width="0.9615384615384616em" height="1.4524877998497665em" x="32.69230769230769em" y="28.547512200150233em" fill="#aaa"/><rect width="0.9615384615384616em" height="0.9809037953330101em" x="33.65384615384615em" y="29.01909620466699em" fill="#aaa"/><rect width="0.9615384615384616em" height="2.4508038157961534em" x="34.61538461538461em" y="27.549196184203847em" fill="#aaa"/><rect width="0.9615384615384616em" height="0.851848685798742em" x="35.57692307692308em" y="29.148151314201257em" fill="#aaa"/><rect width="0.9615384615384616em" height="1.831598637415139em" x="36.53846153846154em" y="28.16840136258486em" fill="#aaa"/><rect width="0.9615384615384616em" height="1.2196543623067004em" x="37.5em" y="28.7803456376933em" fill="#aaa"/><rect width="0.9615384615384616em" height="1.1783753453109829em" x="38.46153846153846em" y="28.821624654689018em" fill="#aaa"/><rect width="0.9615384615384616em" height="0.624974835180034em" x="39.42307692307693em" y="29.375025164819967em" fill="#aaa"/><rect width="0.9615384615384616em" height="0.6397720847104852em" x="40.38461538461539em" y="29.360227915289514em" fill="#aaa"/><rect width="0.9615384615384616em" height="1.0965288639315027em" x="41.34615384615385em" y="28.903471136068497em" fill="#aaa"/><rect width="0.9615384615384616em" height="1.383474429920569em" x="42.30769230769231em" y="28.616525570079432em" fill="#aaa"/><rect width="0.9615384615384616em" height="1.553560324118589em" x="43.269230769230774em" y="28.44643967588141em" fill="#aaa"/><rect width="0.9615384615384616em" height="0.9751865683400472em" x="44.23076923076923em" y="29.024813431659954em" fill="#aaa"/><rect width="0.9615384615384616em" height="2.165771344875477em" x="45.19230769230769em" y="27.834228655124523em" fill="#aaa"/><rect width="0.9615384615384616em" height="0.8438577141436688em" x="46.15384615384615em" y="29.15614228585633em" fill="#aaa"/><rect width="0.9615384615384616em" height="4.136264331844316em" x="47.11538461538461em" y="25.863735668155684em" fill="#aaa"/><rect width="0.9615384615384616em" height="4.702829964011925em" x="48.07692307692308em" y="25.297170035988074em" fill="#aaa"/><rect width="0.9615384615384616em" height="2.29849808060177em" x="49.03846153846154em" y="27.70150191939823em" fill="#aaa"/><rect width="0.9615384615384616em" height="2.3439139011912506em" x="50em" y="27.65608609880875em" fill="#aaa"/><rect width="0.9615384615384616em" height="0.8927408196494568em" x="50.96153846153846em" y="29.107259180350542em" fill="#aaa"/><rect width="0.9615384615384616em" height="0.3919837336982793em" x="51.92307692307693em" y="29.60801626630172em" fill="#aaa"/><rect width="0.9615384615384616em" height="2.1485338184307463em" x="52.88461538461539em" y="27.851466181569254em" fill="#aaa"/><rect width="0.9615384615384616em" height="0.8993405551237325em" x="53.84615384615385em" y="29.100659444876268em" fill="#aaa"/><rect width="0.9615384615384616em" height="1.7588146862034557em" x="54.80769230769231em" y="28.241185313796546em" fill="#aaa"/><rect width="0.9615384615384616em" height="0.6846808470820617em" x="55.769230769230774em" y="29.315319152917937em" fill="#aaa"/><rect width="0.9615384615384616em" height="0.9112623950757941em" x="56.73076923076923em" y="29.088737604924205em" fill="#aaa"/><rect width="0.9615384615384616em" height="1.1585199475323178em" x="57.69230769230769em" y="28.84148005246768em" fill="#aaa"/><rect width="0.9615384615384616em" height="0.6010759872615212em" x="58.65384615384615em" y="29.39892401273848em" fill="#aaa"/><rect width="0.9615384615384616em" height="0.5047673672174335em" x="59.61538461538462em" y="29.495232632782567em" fill="#aaa"/><rect width="0.9615384615384616em" height="1.3168696410295844em" x="60.57692307692308em" y="28.683130358970416em" fill="#aaa"/><rect width="0.9615384615384616em" height="1.4749129079764334em" x="61.53846153846154em" y="28.52508709202357em" fill="#aaa"/><rect width="0.9615384615384616em" height="0.6304556387929694em" x="62.5em" y="29.36954436120703em" fill="#aaa"/><rect width="0.9615384615384616em" height="1.0413800841631724em" x="63.46153846153846em" y="28.958619915836827em" fill="#aaa"/><rect width="0.9615384615384616em" height="0.6954974082469917em" x="64.42307692307692em" y="29.304502591753007em" fill="#aaa"/><rect width="0.9615384615384616em" height="0.7365207199181145em" x="65.38461538461539em" y="29.263479280081885em" fill="#aaa"/><rect width="0.9615384615384616em" height="1.0800706904942774em" x="66.34615384615385em" y="28.919929309505722em" fill="#aaa"/><rect width="0.9615384615384616em" height="2.656313775358719em" x="67.3076923076923em" y="27.34368622464128em" fill="#aaa"/><rect width="0.9615384615384616em" height="0.8850762915221398em" x="68.26923076923077em" y="29.11492370847786em" fill="#aaa"/><rect width="0.9615384615384616em" height="1.7349054031038924em" x="69.23076923076923em" y="28.26509459689611em" fill="#aaa"/><rect width="0.9615384615384616em" height="1.1979994487404828em" x="70.1923076923077em" y="28.802000551259518em" fill="#aaa"/><rect width="0.9615384615384616em" height="1.2943745863497509em" x="71.15384615384616em" y="28.70562541365025em" fill="#aaa"/><rect width="0.9615384615384616em" height="0.6945555209304395em" x="72.11538461538461em" y="29.30544447906956em" fill="#aaa"/><rect width="0.9615384615384616em" height="0.7956798594587098em" x="73.07692307692308em" y="29.20432014054129em" fill="#aaa"/><rect width="0.9615384615384616em" height="0.7146596895776338em" x="74.03846153846155em" y="29.285340310422367em" fill="#aaa"/><rect width="0.9615384615384616em" height="0.9172620730801062em" x="75em" y="29.082737926919894em" fill="#aaa"/><rect width="0.9615384615384616em" height="2.193697575194449em" x="75.96153846153847em" y="27.80630242480555em" fill="#aaa"/><rect width="0.9615384615384616em" height="1.4191078574990394em" x="76.92307692307692em" y="28.58089214250096em" fill="#aaa"/><rect width="0.9615384615384616em" height="0.7468337504482675em" x="77.88461538461539em" y="29.253166249551732em" fill="#aaa"/><rect width="0.9615384615384616em" height="0.9894673027915495em" x="78.84615384615385em" y="29.01053269720845em" fill="#aaa"/><rect width="0.9615384615384616em" height="0.7463660310707552em" x="79.8076923076923em" y="29.253633968929243em" fill="#aaa"/><rect width="0.9615384615384616em" height="0.730184962777478em" x="80.76923076923077em" y="29.26981503722252em" fill="#aaa"/><rect width="0.9615384615384616em" height="0.8431829958934419em" x="81.73076923076923em" y="29.156817004106557em" fill="#aaa"/><rect width="0.9615384615384616em" height="0.31190963296170704em" x="82.6923076923077em" y="29.688090367038292em" fill="#aaa"/><rect width="0.9615384615384616em" height="0.5039931210239349em" x="83.65384615384616em" y="29.496006878976065em" fill="#aaa"/><rect width="0.9615384615384616em" height="0.8390785141508561em" x="84.61538461538461em" y="29.160921485849144em" fill="#aaa"/><rect width="0.9615384615384616em" height="0.43411807684813425em" x="85.57692307692308em" y="29.565881923151867em" fill="#aaa"/><rect width="0.9615384615384616em" height="0.8582094369054305em" x="86.53846153846155em" y="29.14179056309457em" fill="#aaa"/><rect width="0.9615384615384616em" height="1.3625753861799292em" x="87.5em" y="28.63742461382007em" fill="#aaa"/><rect width="0.9615384615384616em" height="0.8003084685715701em" x="88.46153846153847em" y="29.19969153142843em" fill="#aaa"/><rect width="0.9615384615384616em" height="0.9791883840512329em" x="89.42307692307692em" y="29.020811615948766em" fill="#aaa"/><rect width="0.9615384615384616em" height="0.9998668208352801em" x="90.38461538461539em" y="29.00013317916472em" fill="#aaa"/><rect width="0.9615384615384616em" height="1.2124749295055075em" x="91.34615384615385em" y="28.787525070494492em" fill="#aaa"/><rect width="0.9615384615384616em" height="0.5418764877320464em" x="92.3076923076923em" y="29.458123512267953em" fill="#aaa"/><rect width="0.9615384615384616em" height="0.8041943357426373em" x="93.26923076923077em" y="29.195805664257364em" fill="#aaa"/><rect width="0.9615384615384616em" height="1.0672264682109873em" x="94.23076923076923em" y="28.932773531789014em" fill="#aaa"/><rect width="0.9615384615384616em" height="1.1507455750486675em" x="95.1923076923077em" y="28.849254424951333em" fill="#aaa"/><rect width="0.9615384615384616em" height="1.0414572410174987em" x="96.15384615384616em" y="28.958542758982503em" fill="#aaa"/><rect width="0.9615384615384616em" height="0.6298713189933561em" x="97.11538461538461em" y="29.370128681006644em" fill="#aaa"/><rect width="0.9615384615384616em" height="0.7316674579962278em" x="98.07692307692308em" y="29.268332542003773em" fill="#aaa"/><rect width="0.9615384615384616em" height="0.7089317446007264em" x="99.03846153846155em" y="29.291068255399274em" fill="#aaa"/></svg>