<?xml version="1.0" standalone="no"?>
<svg xmlns:xlink="http://www.w3.org/1999/xlink" xmlns="http://www.w3.org/2000/svg" class="topic-graph" style="width: 10vw; height: 3em; text-align: center;"><rect width="0.09615384615384616em" height="0.19457315239999431em" x="0vw" y="2.8054268476000055em" fill="#aaa"/><rect width="0.09615384615384616em" height="0.823460409393783em" x="0.09615384615384616vw" y="2.1765395906062173em" fill="#aaa"/><rect width="0.09615384615384616em" height="0.16868895421535712em" x="0.19230769230769232vw" y="2.831311045784643em" fill="#aaa"/><rect width="0.09615384615384616em" height="0.46972372369815674em" x="0.2884615384615385vw" y="2.5302762763018434em" fill="#aaa"/><rect width="0.09615384615384616em" height="0.2945416311345248em" x="0.38461538461538464vw" y="2.705458368865475em" fill="#aaa"/><rect width="0.09615384615384616em" height="0.47470252779369326em" x="0.4807692307692308vw" y="2.5252974722063066em" fill="#aaa"/><rect width="0.09615384615384616em" height="0.3586568674903839em" x="0.576923076923077vw" y="2.641343132509616em" fill="#aaa"/><rect width="0.09615384615384616em" height="0.057274551510905936em" x="0.6730769230769231vw" y="2.942725448489094em" fill="#aaa"/><rect width="0.09615384615384616em" height="0.8664944429344812em" x="0.7692307692307693vw" y="2.1335055570655186em" fill="#aaa"/><rect width="0.09615384615384616em" height="1.1062289004680006em" x="0.8653846153846154vw" y="1.8937710995319994em" fill="#aaa"/><rect width="0.09615384615384616em" height="1.1122438616915495em" x="0.9615384615384616vw" y="1.8877561383084505em" fill="#aaa"/><rect width="0.09615384615384616em" height="1.5397710795499762em" x="1.0576923076923077vw" y="1.4602289204500238em" fill="#aaa"/><rect width="0.09615384615384616em" height="0.3547981496257999em" x="1.153846153846154vw" y="2.6452018503742em" fill="#aaa"/><rect width="0.09615384615384616em" height="0.4797624289223278em" x="1.25vw" y="2.520237571077672em" fill="#aaa"/><rect width="0.09615384615384616em" height="0.850436938142049em" x="1.3461538461538463vw" y="2.149563061857951em" fill="#aaa"/><rect width="0.09615384615384616em" height="0.8550274954511381em" x="1.4423076923076923vw" y="2.144972504548862em" fill="#aaa"/><rect width="0.09615384615384616em" height="0.7038017866656772em" x="1.5384615384615385vw" y="2.296198213334323em" fill="#aaa"/><rect width="0.09615384615384616em" height="0.731352279000489em" x="1.6346153846153848vw" y="2.268647720999511em" fill="#aaa"/><rect width="0.09615384615384616em" height="0.42667086815957217em" x="1.7307692307692308vw" y="2.5733291318404277em" fill="#aaa"/><rect width="0.09615384615384616em" height="2.317793936050764em" x="1.826923076923077vw" y="0.682206063949236em" fill="#aaa"/><rect width="0.09615384615384616em" height="1.199852321782131em" x="1.9230769230769231vw" y="1.800147678217869em" fill="#aaa"/><rect width="0.09615384615384616em" height="3em" x="2.019230769230769vw" y="0em" fill="#aaa"/><rect width="0.09615384615384616em" height="0.4658117016214717em" x="2.1153846153846154vw" y="2.5341882983785284em" fill="#aaa"/><rect width="0.09615384615384616em" height="0.4535017796667792em" x="2.2115384615384617vw" y="2.5464982203332207em" fill="#aaa"/><rect width="0.09615384615384616em" height="0.2384797361743844em" x="2.307692307692308vw" y="2.7615202638256156em" fill="#aaa"/><rect width="0.09615384615384616em" height="1.5435550223038685em" x="2.403846153846154vw" y="1.4564449776961315em" fill="#aaa"/><rect width="0.09615384615384616em" height="0.9601979427885345em" x="2.5vw" y="2.0398020572114657em" fill="#aaa"/><rect width="0.09615384615384616em" height="0.2565129744397677em" x="2.5961538461538463vw" y="2.743487025560232em" fill="#aaa"/><rect width="0.09615384615384616em" height="0.4841385729506067em" x="2.6923076923076925vw" y="2.5158614270493933em" fill="#aaa"/><rect width="0.09615384615384616em" height="0.9013490059395115em" x="2.7884615384615388vw" y="2.0986509940604883em" fill="#aaa"/><rect width="0.09615384615384616em" height="0.42656388089229114em" x="2.8846153846153846vw" y="2.5734361191077086em" fill="#aaa"/><rect width="0.09615384615384616em" height="0.11154558344839072em" x="2.980769230769231vw" y="2.8884544165516095em" fill="#aaa"/><rect width="0.09615384615384616em" height="0.6228803617251801em" x="3.076923076923077vw" y="2.37711963827482em" fill="#aaa"/><rect width="0.09615384615384616em" height="0.3352938155818571em" x="3.1730769230769234vw" y="2.6647061844181428em" fill="#aaa"/><rect width="0.09615384615384616em" height="0.3727778068711201em" x="3.2692307692307696vw" y="2.6272221931288797em" fill="#aaa"/><rect width="0.09615384615384616em" height="0.24898794290161147em" x="3.3653846153846154vw" y="2.7510120570983885em" fill="#aaa"/><rect width="0.09615384615384616em" height="0.21589756478920474em" x="3.4615384615384617vw" y="2.7841024352107953em" fill="#aaa"/><rect width="0.09615384615384616em" height="0.9099910364563474em" x="3.557692307692308vw" y="2.0900089635436525em" fill="#aaa"/><rect width="0.09615384615384616em" height="0.8278028200555742em" x="3.653846153846154vw" y="2.1721971799444257em" fill="#aaa"/><rect width="0.09615384615384616em" height="0.43734629934328717em" x="3.75vw" y="2.5626537006567127em" fill="#aaa"/><rect width="0.09615384615384616em" height="0.7089120072380592em" x="3.8461538461538463vw" y="2.2910879927619408em" fill="#aaa"/><rect width="0.09615384615384616em" height="0.42932679046576394em" x="3.9423076923076925vw" y="2.570673209534236em" fill="#aaa"/><rect width="0.09615384615384616em" height="0.8139490751119702em" x="4.038461538461538vw" y="2.18605092488803em" fill="#aaa"/><rect width="0.09615384615384616em" height="0.6116937828206146em" x="4.134615384615385vw" y="2.3883062171793856em" fill="#aaa"/><rect width="0.09615384615384616em" height="0.37724415244319043em" x="4.230769230769231vw" y="2.6227558475568093em" fill="#aaa"/><rect width="0.09615384615384616em" height="0.44458053107997103em" x="4.3269230769230775vw" y="2.555419468920029em" fill="#aaa"/><rect width="0.09615384615384616em" height="0.8817338986322956em" x="4.423076923076923vw" y="2.1182661013677047em" fill="#aaa"/><rect width="0.09615384615384616em" height="0.3545205540807925em" x="4.519230769230769vw" y="2.6454794459192073em" fill="#aaa"/><rect width="0.09615384615384616em" height="0.9791525378503366em" x="4.615384615384616vw" y="2.0208474621496633em" fill="#aaa"/><rect width="0.09615384615384616em" height="0.8377981234515574em" x="4.711538461538462vw" y="2.1622018765484428em" fill="#aaa"/><rect width="0.09615384615384616em" height="0.7657044807094597em" x="4.807692307692308vw" y="2.2342955192905403em" fill="#aaa"/><rect width="0.09615384615384616em" height="0.5950577388512881em" x="4.903846153846154vw" y="2.4049422611487117em" fill="#aaa"/><rect width="0.09615384615384616em" height="0.44736681741642037em" x="5vw" y="2.5526331825835795em" fill="#aaa"/><rect width="0.09615384615384616em" height="0.3401539440715672em" x="5.096153846153847vw" y="2.659846055928433em" fill="#aaa"/><rect width="0.09615384615384616em" height="0.3891385539501347em" x="5.1923076923076925vw" y="2.6108614460498654em" fill="#aaa"/><rect width="0.09615384615384616em" height="0.2928973285208396em" x="5.288461538461538vw" y="2.70710267147916em" fill="#aaa"/><rect width="0.09615384615384616em" height="0.7650547051031384em" x="5.384615384615385vw" y="2.2349452948968613em" fill="#aaa"/><rect width="0.09615384615384616em" height="0.49473373938344467em" x="5.480769230769231vw" y="2.505266260616555em" fill="#aaa"/><rect width="0.09615384615384616em" height="0.9833634141988759em" x="5.5769230769230775vw" y="2.016636585801124em" fill="#aaa"/><rect width="0.09615384615384616em" height="0.6090841886374843em" x="5.673076923076923vw" y="2.3909158113625155em" fill="#aaa"/><rect width="0.09615384615384616em" height="0.9513329276627711em" x="5.769230769230769vw" y="2.0486670723372287em" fill="#aaa"/><rect width="0.09615384615384616em" height="0.7333469499638663em" x="5.865384615384616vw" y="2.2666530500361337em" fill="#aaa"/><rect width="0.09615384615384616em" height="0.8283221581607241em" x="5.961538461538462vw" y="2.171677841839276em" fill="#aaa"/><rect width="0.09615384615384616em" height="0.5633678266945967em" x="6.057692307692308vw" y="2.4366321733054033em" fill="#aaa"/><rect width="0.09615384615384616em" height="0.5861056463155745em" x="6.153846153846154vw" y="2.4138943536844257em" fill="#aaa"/><rect width="0.09615384615384616em" height="1.0213078754172966em" x="6.25vw" y="1.9786921245827034em" fill="#aaa"/><rect width="0.09615384615384616em" height="0.5702338120576464em" x="6.346153846153847vw" y="2.4297661879423536em" fill="#aaa"/><rect width="0.09615384615384616em" height="0.9767849612000314em" x="6.4423076923076925vw" y="2.0232150387999686em" fill="#aaa"/><rect width="0.09615384615384616em" height="0.646094148402005em" x="6.538461538461539vw" y="2.353905851597995em" fill="#aaa"/><rect width="0.09615384615384616em" height="0.5531784706309774em" x="6.634615384615385vw" y="2.4468215293690228em" fill="#aaa"/><rect width="0.09615384615384616em" height="1.381209244109767em" x="6.730769230769231vw" y="1.618790755890233em" fill="#aaa"/><rect width="0.09615384615384616em" height="0.5306700706737892em" x="6.8269230769230775vw" y="2.4693299293262108em" fill="#aaa"/><rect width="0.09615384615384616em" height="0.35407462569966675em" x="6.923076923076923vw" y="2.645925374300333em" fill="#aaa"/><rect width="0.09615384615384616em" height="0.6741375476374803em" x="7.01923076923077vw" y="2.3258624523625198em" fill="#aaa"/><rect width="0.09615384615384616em" height="0.35530967074721725em" x="7.115384615384616vw" y="2.6446903292527826em" fill="#aaa"/><rect width="0.09615384615384616em" height="0.5778609402441862em" x="7.211538461538462vw" y="2.4221390597558137em" fill="#aaa"/><rect width="0.09615384615384616em" height="0.463740541723744em" x="7.307692307692308vw" y="2.536259458276256em" fill="#aaa"/><rect width="0.09615384615384616em" height="0.31979225875234674em" x="7.403846153846154vw" y="2.6802077412476533em" fill="#aaa"/><rect width="0.09615384615384616em" height="0.6232645761445774em" x="7.5vw" y="2.376735423855423em" fill="#aaa"/><rect width="0.09615384615384616em" height="0.34289353703492187em" x="7.596153846153847vw" y="2.657106462965078em" fill="#aaa"/><rect width="0.09615384615384616em" height="0.5214978450033757em" x="7.6923076923076925vw" y="2.478502154996624em" fill="#aaa"/><rect width="0.09615384615384616em" height="0.9173574635033437em" x="7.788461538461539vw" y="2.0826425364966563em" fill="#aaa"/><rect width="0.09615384615384616em" height="0.7905183329794545em" x="7.884615384615385vw" y="2.2094816670205457em" fill="#aaa"/><rect width="0.09615384615384616em" height="1.2181972790616316em" x="7.980769230769231vw" y="1.7818027209383684em" fill="#aaa"/><rect width="0.09615384615384616em" height="0.9663895203245223em" x="8.076923076923077vw" y="2.0336104796754775em" fill="#aaa"/><rect width="0.09615384615384616em" height="0.6642179717463474em" x="8.173076923076923vw" y="2.3357820282536528em" fill="#aaa"/><rect width="0.09615384615384616em" height="0.7507728481312588em" x="8.26923076923077vw" y="2.249227151868741em" fill="#aaa"/><rect width="0.09615384615384616em" height="0.4523182898289776em" x="8.365384615384615vw" y="2.5476817101710223em" fill="#aaa"/><rect width="0.09615384615384616em" height="0.7918588534637507em" x="8.461538461538462vw" y="2.2081411465362493em" fill="#aaa"/><rect width="0.09615384615384616em" height="0.9301894916675683em" x="8.557692307692308vw" y="2.0698105083324316em" fill="#aaa"/><rect width="0.09615384615384616em" height="0.7652468084381928em" x="8.653846153846155vw" y="2.2347531915618073em" fill="#aaa"/><rect width="0.09615384615384616em" height="0.8864263762391371em" x="8.75vw" y="2.113573623760863em" fill="#aaa"/><rect width="0.09615384615384616em" height="0.8355588600143342em" x="8.846153846153847vw" y="2.164441139985666em" fill="#aaa"/><rect width="0.09615384615384616em" height="1.0879376524324071em" x="8.942307692307693vw" y="1.9120623475675929em" fill="#aaa"/><rect width="0.09615384615384616em" height="1.0040638882970785em" x="9.038461538461538vw" y="1.9959361117029215em" fill="#aaa"/><rect width="0.09615384615384616em" height="0.516568982796754em" x="9.134615384615385vw" y="2.483431017203246em" fill="#aaa"/><rect width="0.09615384615384616em" height="0.6905336514114091em" x="9.230769230769232vw" y="2.309466348588591em" fill="#aaa"/><rect width="0.09615384615384616em" height="0.6602183959974491em" x="9.326923076923077vw" y="2.339781604002551em" fill="#aaa"/><rect width="0.09615384615384616em" height="0.5647200008494557em" x="9.423076923076923vw" y="2.435279999150544em" fill="#aaa"/><rect width="0.09615384615384616em" height="0.5962576053754056em" x="9.51923076923077vw" y="2.4037423946245946em" fill="#aaa"/><rect width="0.09615384615384616em" height="0.47929155158616366em" x="9.615384615384617vw" y="2.5207084484138362em" fill="#aaa"/><rect width="0.09615384615384616em" height="1.066584768780416em" x="9.711538461538462vw" y="1.933415231219584em" fill="#aaa"/><rect width="0.09615384615384616em" height="0.8404303887835212em" x="9.807692307692308vw" y="2.1595696112164786em" fill="#aaa"/><rect width="0.09615384615384616em" height="1.0741386494665366em" x="9.903846153846155vw" y="1.9258613505334634em" fill="#aaa"/></svg>