<?xml version="1.0" standalone="no"?>
<svg xmlns:xlink="http://www.w3.org/1999/xlink" xmlns="http://www.w3.org/2000/svg" class="topic-graph" style="width: 100em; height: 30em; text-align: center;"><rect width="0.9615384615384616em" height="30em" x="0em" y="0em" fill="#aaa"/><rect width="0.9615384615384616em" height="12.853027855415537em" x="0.9615384615384616em" y="17.146972144584463em" fill="#aaa"/><rect width="0.9615384615384616em" height="10.682514438085917em" x="1.9230769230769231em" y="19.317485561914083em" fill="#aaa"/><rect width="0.9615384615384616em" height="13.48505443942208em" x="2.8846153846153846em" y="16.51494556057792em" fill="#aaa"/><rect width="0.9615384615384616em" height="17.368526482361155em" x="3.8461538461538463em" y="12.631473517638845em" fill="#aaa"/><rect width="0.9615384615384616em" height="7.721206712022068em" x="4.8076923076923075em" y="22.278793287977933em" fill="#aaa"/><rect width="0.9615384615384616em" height="8.333462812408136em" x="5.769230769230769em" y="21.666537187591864em" fill="#aaa"/><rect width="0.9615384615384616em" height="10.57101524582848em" x="6.730769230769231em" y="19.42898475417152em" fill="#aaa"/><rect width="0.9615384615384616em" height="12.077626610458807em" x="7.6923076923076925em" y="17.922373389541193em" fill="#aaa"/><rect width="0.9615384615384616em" height="12.21007405147606em" x="8.653846153846153em" y="17.78992594852394em" fill="#aaa"/><rect width="0.9615384615384616em" height="21.180453430326747em" x="9.615384615384615em" y="8.819546569673253em" fill="#aaa"/><rect width="0.9615384615384616em" height="18.16695203481464em" x="10.576923076923077em" y="11.833047965185362em" fill="#aaa"/><rect width="0.9615384615384616em" height="12.80304674271269em" x="11.538461538461538em" y="17.196953257287312em" fill="#aaa"/><rect width="0.9615384615384616em" height="9.862787553205271em" x="12.5em" y="20.137212446794727em" fill="#aaa"/><rect width="0.9615384615384616em" height="11.41672817091347em" x="13.461538461538462em" y="18.58327182908653em" fill="#aaa"/><rect width="0.9615384615384616em" height="12.51580588706233em" x="14.423076923076923em" y="17.484194112937672em" fill="#aaa"/><rect width="0.9615384615384616em" height="10.907361370471301em" x="15.384615384615385em" y="19.0926386295287em" fill="#aaa"/><rect width="0.9615384615384616em" height="7.582569641408253em" x="16.346153846153847em" y="22.417430358591748em" fill="#aaa"/><rect width="0.9615384615384616em" height="7.638339919368146em" x="17.307692307692307em" y="22.361660080631854em" fill="#aaa"/><rect width="0.9615384615384616em" height="8.95822570598843em" x="18.26923076923077em" y="21.04177429401157em" fill="#aaa"/><rect width="0.9615384615384616em" height="11.500269376657736em" x="19.23076923076923em" y="18.499730623342266em" fill="#aaa"/><rect width="0.9615384615384616em" height="7.630090949956575em" x="20.192307692307693em" y="22.369909050043425em" fill="#aaa"/><rect width="0.9615384615384616em" height="8.934656807262927em" x="21.153846153846153em" y="21.065343192737075em" fill="#aaa"/><rect width="0.9615384615384616em" height="8.377534671548055em" x="22.115384615384617em" y="21.622465328451945em" fill="#aaa"/><rect width="0.9615384615384616em" height="7.4774636141519215em" x="23.076923076923077em" y="22.522536385848078em" fill="#aaa"/><rect width="0.9615384615384616em" height="9.190634039920585em" x="24.03846153846154em" y="20.809365960079415em" fill="#aaa"/><rect width="0.9615384615384616em" height="7.148801841681181em" x="25em" y="22.85119815831882em" fill="#aaa"/><rect width="0.9615384615384616em" height="8.80072504691793em" x="25.961538461538463em" y="21.199274953082067em" fill="#aaa"/><rect width="0.9615384615384616em" height="9.160686231189185em" x="26.923076923076923em" y="20.839313768810815em" fill="#aaa"/><rect width="0.9615384615384616em" height="8.53504533040487em" x="27.884615384615387em" y="21.46495466959513em" fill="#aaa"/><rect width="0.9615384615384616em" height="9.443422389261546em" x="28.846153846153847em" y="20.556577610738454em" fill="#aaa"/><rect width="0.9615384615384616em" height="9.530995150405655em" x="29.80769230769231em" y="20.469004849594345em" fill="#aaa"/><rect width="0.9615384615384616em" height="9.41660241336453em" x="30.76923076923077em" y="20.58339758663547em" fill="#aaa"/><rect width="0.9615384615384616em" height="10.76910261436311em" x="31.73076923076923em" y="19.23089738563689em" fill="#aaa"/><rect width="0.9615384615384616em" height="12.9033106228613em" x="32.69230769230769em" y="17.096689377138702em" fill="#aaa"/><rect width="0.9615384615384616em" height="13.90492037367942em" x="33.65384615384615em" y="16.09507962632058em" fill="#aaa"/><rect width="0.9615384615384616em" height="12.189812285648483em" x="34.61538461538461em" y="17.810187714351517em" fill="#aaa"/><rect width="0.9615384615384616em" height="12.4733849426961em" x="35.57692307692308em" y="17.5266150573039em" fill="#aaa"/><rect width="0.9615384615384616em" height="11.674855542766148em" x="36.53846153846154em" y="18.325144457233854em" fill="#aaa"/><rect width="0.9615384615384616em" height="11.589142030532612em" x="37.5em" y="18.410857969467386em" fill="#aaa"/><rect width="0.9615384615384616em" height="13.514545463853405em" x="38.46153846153846em" y="16.485454536146595em" fill="#aaa"/><rect width="0.9615384615384616em" height="13.561854592966545em" x="39.42307692307693em" y="16.438145407033453em" fill="#aaa"/><rect width="0.9615384615384616em" height="12.346504173833418em" x="40.38461538461539em" y="17.653495826166584em" fill="#aaa"/><rect width="0.9615384615384616em" height="13.720142409124888em" x="41.34615384615385em" y="16.27985759087511em" fill="#aaa"/><rect width="0.9615384615384616em" height="11.391992967765455em" x="42.30769230769231em" y="18.608007032234546em" fill="#aaa"/><rect width="0.9615384615384616em" height="12.512932487582805em" x="43.269230769230774em" y="17.487067512417195em" fill="#aaa"/><rect width="0.9615384615384616em" height="10.087356469295953em" x="44.23076923076923em" y="19.912643530704045em" fill="#aaa"/><rect width="0.9615384615384616em" height="11.148469367177585em" x="45.19230769230769em" y="18.851530632822417em" fill="#aaa"/><rect width="0.9615384615384616em" height="13.94808174540075em" x="46.15384615384615em" y="16.05191825459925em" fill="#aaa"/><rect width="0.9615384615384616em" height="15.364862214880892em" x="47.11538461538461em" y="14.635137785119108em" fill="#aaa"/><rect width="0.9615384615384616em" height="16.405570926244586em" x="48.07692307692308em" y="13.594429073755414em" fill="#aaa"/><rect width="0.9615384615384616em" height="16.229133793038343em" x="49.03846153846154em" y="13.770866206961657em" fill="#aaa"/><rect width="0.9615384615384616em" height="13.583593223469494em" x="50em" y="16.416406776530508em" fill="#aaa"/><rect width="0.9615384615384616em" height="13.495648611335064em" x="50.96153846153846em" y="16.504351388664936em" fill="#aaa"/><rect width="0.9615384615384616em" height="14.29050163974441em" x="51.92307692307693em" y="15.70949836025559em" fill="#aaa"/><rect width="0.9615384615384616em" height="14.49687534705401em" x="52.88461538461539em" y="15.50312465294599em" fill="#aaa"/><rect width="0.9615384615384616em" height="13.377654559055799em" x="53.84615384615385em" y="16.6223454409442em" fill="#aaa"/><rect width="0.9615384615384616em" height="14.761053052903536em" x="54.80769230769231em" y="15.238946947096464em" fill="#aaa"/><rect width="0.9615384615384616em" height="12.065780569318587em" x="55.769230769230774em" y="17.934219430681413em" fill="#aaa"/><rect width="0.9615384615384616em" height="11.655677869979229em" x="56.73076923076923em" y="18.34432213002077em" fill="#aaa"/><rect width="0.9615384615384616em" height="15.822525114549602em" x="57.69230769230769em" y="14.177474885450398em" fill="#aaa"/><rect width="0.9615384615384616em" height="12.478185774676373em" x="58.65384615384615em" y="17.521814225323627em" fill="#aaa"/><rect width="0.9615384615384616em" height="14.624621813897065em" x="59.61538461538462em" y="15.375378186102935em" fill="#aaa"/><rect width="0.9615384615384616em" height="13.98038186213869em" x="60.57692307692308em" y="16.019618137861308em" fill="#aaa"/><rect width="0.9615384615384616em" height="13.16387914756223em" x="61.53846153846154em" y="16.83612085243777em" fill="#aaa"/><rect width="0.9615384615384616em" height="15.974304694710263em" x="62.5em" y="14.025695305289737em" fill="#aaa"/><rect width="0.9615384615384616em" height="17.859152945754293em" x="63.46153846153846em" y="12.140847054245707em" fill="#aaa"/><rect width="0.9615384615384616em" height="13.770012762723221em" x="64.42307692307692em" y="16.22998723727678em" fill="#aaa"/><rect width="0.9615384615384616em" height="16.27307771490711em" x="65.38461538461539em" y="13.72692228509289em" fill="#aaa"/><rect width="0.9615384615384616em" height="16.515548971060223em" x="66.34615384615385em" y="13.484451028939777em" fill="#aaa"/><rect width="0.9615384615384616em" height="15.992328716525243em" x="67.3076923076923em" y="14.007671283474757em" fill="#aaa"/><rect width="0.9615384615384616em" height="17.207030124673906em" x="68.26923076923077em" y="12.792969875326094em" fill="#aaa"/><rect width="0.9615384615384616em" height="14.24278896829572em" x="69.23076923076923em" y="15.75721103170428em" fill="#aaa"/><rect width="0.9615384615384616em" height="12.615979880452647em" x="70.1923076923077em" y="17.38402011954735em" fill="#aaa"/><rect width="0.9615384615384616em" height="15.579709114687981em" x="71.15384615384616em" y="14.420290885312019em" fill="#aaa"/><rect width="0.9615384615384616em" height="15.635081678229254em" x="72.11538461538461em" y="14.364918321770746em" fill="#aaa"/><rect width="0.9615384615384616em" height="18.19654472253807em" x="73.07692307692308em" y="11.803455277461929em" fill="#aaa"/><rect width="0.9615384615384616em" height="18.49353748071071em" x="74.03846153846155em" y="11.50646251928929em" fill="#aaa"/><rect width="0.9615384615384616em" height="17.246357731449528em" x="75em" y="12.753642268550472em" fill="#aaa"/><rect width="0.9615384615384616em" height="16.13608246096125em" x="75.96153846153847em" y="13.863917539038749em" fill="#aaa"/><rect width="0.9615384615384616em" height="14.867817371845483em" x="76.92307692307692em" y="15.132182628154517em" fill="#aaa"/><rect width="0.9615384615384616em" height="15.877070419135702em" x="77.88461538461539em" y="14.122929580864298em" fill="#aaa"/><rect width="0.9615384615384616em" height="17.520242487678814em" x="78.84615384615385em" y="12.479757512321186em" fill="#aaa"/><rect width="0.9615384615384616em" height="18.283025157599486em" x="79.8076923076923em" y="11.716974842400514em" fill="#aaa"/><rect width="0.9615384615384616em" height="18.90988223254326em" x="80.76923076923077em" y="11.09011776745674em" fill="#aaa"/><rect width="0.9615384615384616em" height="17.88206272426886em" x="81.73076923076923em" y="12.11793727573114em" fill="#aaa"/><rect width="0.9615384615384616em" height="17.044797184005024em" x="82.6923076923077em" y="12.955202815994976em" fill="#aaa"/><rect width="0.9615384615384616em" height="20.360278525032076em" x="83.65384615384616em" y="9.639721474967924em" fill="#aaa"/><rect width="0.9615384615384616em" height="21.227227609049667em" x="84.61538461538461em" y="8.772772390950333em" fill="#aaa"/><rect width="0.9615384615384616em" height="22.695596701252256em" x="85.57692307692308em" y="7.304403298747744em" fill="#aaa"/><rect width="0.9615384615384616em" height="20.56517054878683em" x="86.53846153846155em" y="9.434829451213169em" fill="#aaa"/><rect width="0.9615384615384616em" height="19.4488731320083em" x="87.5em" y="10.551126867991702em" fill="#aaa"/><rect width="0.9615384615384616em" height="20.690552963880574em" x="88.46153846153847em" y="9.309447036119426em" fill="#aaa"/><rect width="0.9615384615384616em" height="23.00812557681801em" x="89.42307692307692em" y="6.99187442318199em" fill="#aaa"/><rect width="0.9615384615384616em" height="22.62365251968987em" x="90.38461538461539em" y="7.37634748031013em" fill="#aaa"/><rect width="0.9615384615384616em" height="19.94852621840351em" x="91.34615384615385em" y="10.051473781596489em" fill="#aaa"/><rect width="0.9615384615384616em" height="24.230706999064946em" x="92.3076923076923em" y="5.769293000935054em" fill="#aaa"/><rect width="0.9615384615384616em" height="21.752089823790726em" x="93.26923076923077em" y="8.247910176209274em" fill="#aaa"/><rect width="0.9615384615384616em" height="23.967612715027077em" x="94.23076923076923em" y="6.032387284972923em" fill="#aaa"/><rect width="0.9615384615384616em" height="27.02252753512623em" x="95.1923076923077em" y="2.9774724648737703em" fill="#aaa"/><rect width="0.9615384615384616em" height="23.66266636313096em" x="96.15384615384616em" y="6.33733363686904em" fill="#aaa"/><rect width="0.9615384615384616em" height="23.1422668792517em" x="97.11538461538461em" y="6.8577331207483em" fill="#aaa"/><rect width="0.9615384615384616em" height="22.538029717079507em" x="98.07692307692308em" y="7.461970282920493em" fill="#aaa"/><rect width="0.9615384615384616em" height="22.90161229275825em" x="99.03846153846155em" y="7.0983877072417485em" fill="#aaa"/></svg>