<?xml version="1.0" standalone="no"?>
<svg xmlns:xlink="http://www.w3.org/1999/xlink" xmlns="http://www.w3.org/2000/svg" class="topic-graph" style="width: 100em; height: 30em; text-align: center;"><rect width="0.9615384615384616em" height="14.886933617403898em" x="0em" y="15.113066382596102em" fill="#aaa"/><rect width="0.9615384615384616em" height="9.66915093513514em" x="0.9615384615384616em" y="20.33084906486486em" fill="#aaa"/><rect width="0.9615384615384616em" height="8.7934060274578em" x="1.9230769230769231em" y="21.2065939725422em" fill="#aaa"/><rect width="0.9615384615384616em" height="7.099361778789363em" x="2.8846153846153846em" y="22.900638221210638em" fill="#aaa"/><rect width="0.9615384615384616em" height="5.086887625306806em" x="3.8461538461538463em" y="24.913112374693192em" fill="#aaa"/><rect width="0.9615384615384616em" height="9.300651666744042em" x="4.8076923076923075em" y="20.69934833325596em" fill="#aaa"/><rect width="0.9615384615384616em" height="14.633427156058039em" x="5.769230769230769em" y="15.366572843941961em" fill="#aaa"/><rect width="0.9615384615384616em" height="16.392988200390235em" x="6.730769230769231em" y="13.607011799609765em" fill="#aaa"/><rect width="0.9615384615384616em" height="12.785041325061695em" x="7.6923076923076925em" y="17.214958674938305em" fill="#aaa"/><rect width="0.9615384615384616em" height="10.03983264516998em" x="8.653846153846153em" y="19.96016735483002em" fill="#aaa"/><rect width="0.9615384615384616em" height="5.230738505992801em" x="9.615384615384615em" y="24.7692614940072em" fill="#aaa"/><rect width="0.9615384615384616em" height="14.5772534043114em" x="10.576923076923077em" y="15.4227465956886em" fill="#aaa"/><rect width="0.9615384615384616em" height="8.041198918598418em" x="11.538461538461538em" y="21.95880108140158em" fill="#aaa"/><rect width="0.9615384615384616em" height="17.517805333452635em" x="12.5em" y="12.482194666547365em" fill="#aaa"/><rect width="0.9615384615384616em" height="11.167454242902465em" x="13.461538461538462em" y="18.832545757097535em" fill="#aaa"/><rect width="0.9615384615384616em" height="13.470730630776233em" x="14.423076923076923em" y="16.52926936922377em" fill="#aaa"/><rect width="0.9615384615384616em" height="21.556973299099994em" x="15.384615384615385em" y="8.443026700900006em" fill="#aaa"/><rect width="0.9615384615384616em" height="13.714459493592004em" x="16.346153846153847em" y="16.285540506407997em" fill="#aaa"/><rect width="0.9615384615384616em" height="8.342362593423056em" x="17.307692307692307em" y="21.657637406576946em" fill="#aaa"/><rect width="0.9615384615384616em" height="13.921949065099186em" x="18.26923076923077em" y="16.078050934900816em" fill="#aaa"/><rect width="0.9615384615384616em" height="15.680285279580813em" x="19.23076923076923em" y="14.319714720419187em" fill="#aaa"/><rect width="0.9615384615384616em" height="15.079158361201245em" x="20.192307692307693em" y="14.920841638798755em" fill="#aaa"/><rect width="0.9615384615384616em" height="21.5387926030017em" x="21.153846153846153em" y="8.4612073969983em" fill="#aaa"/><rect width="0.9615384615384616em" height="15.007194139697937em" x="22.115384615384617em" y="14.992805860302063em" fill="#aaa"/><rect width="0.9615384615384616em" height="13.896730552612041em" x="23.076923076923077em" y="16.10326944738796em" fill="#aaa"/><rect width="0.9615384615384616em" height="14.819866704944053em" x="24.03846153846154em" y="15.180133295055947em" fill="#aaa"/><rect width="0.9615384615384616em" height="15.905410659924796em" x="25em" y="14.094589340075204em" fill="#aaa"/><rect width="0.9615384615384616em" height="21.06375958637721em" x="25.961538461538463em" y="8.93624041362279em" fill="#aaa"/><rect width="0.9615384615384616em" height="20.24330219198167em" x="26.923076923076923em" y="9.75669780801833em" fill="#aaa"/><rect width="0.9615384615384616em" height="23.060083654208945em" x="27.884615384615387em" y="6.939916345791055em" fill="#aaa"/><rect width="0.9615384615384616em" height="28.544180686842502em" x="28.846153846153847em" y="1.4558193131574981em" fill="#aaa"/><rect width="0.9615384615384616em" height="26.210589071103975em" x="29.80769230769231em" y="3.789410928896025em" fill="#aaa"/><rect width="0.9615384615384616em" height="27.425726881307373em" x="30.76923076923077em" y="2.574273118692627em" fill="#aaa"/><rect width="0.9615384615384616em" height="28.052063668449076em" x="31.73076923076923em" y="1.947936331550924em" fill="#aaa"/><rect width="0.9615384615384616em" height="26.94986536454104em" x="32.69230769230769em" y="3.05013463545896em" fill="#aaa"/><rect width="0.9615384615384616em" height="30em" x="33.65384615384615em" y="0em" fill="#aaa"/><rect width="0.9615384615384616em" height="20.136594559035565em" x="34.61538461538461em" y="9.863405440964435em" fill="#aaa"/><rect width="0.9615384615384616em" height="21.601171842372654em" x="35.57692307692308em" y="8.398828157627346em" fill="#aaa"/><rect width="0.9615384615384616em" height="20.303756330216373em" x="36.53846153846154em" y="9.696243669783627em" fill="#aaa"/><rect width="0.9615384615384616em" height="19.754627885351223em" x="37.5em" y="10.245372114648777em" fill="#aaa"/><rect width="0.9615384615384616em" height="22.565369101554346em" x="38.46153846153846em" y="7.434630898445654em" fill="#aaa"/><rect width="0.9615384615384616em" height="21.73602985393015em" x="39.42307692307693em" y="8.263970146069848em" fill="#aaa"/><rect width="0.9615384615384616em" height="18.0046063791682em" x="40.38461538461539em" y="11.995393620831798em" fill="#aaa"/><rect width="0.9615384615384616em" height="17.888601660141443em" x="41.34615384615385em" y="12.111398339858557em" fill="#aaa"/><rect width="0.9615384615384616em" height="18.81164289005832em" x="42.30769230769231em" y="11.18835710994168em" fill="#aaa"/><rect width="0.9615384615384616em" height="17.44844185402486em" x="43.269230769230774em" y="12.55155814597514em" fill="#aaa"/><rect width="0.9615384615384616em" height="15.375369202254744em" x="44.23076923076923em" y="14.624630797745256em" fill="#aaa"/><rect width="0.9615384615384616em" height="16.914951426369296em" x="45.19230769230769em" y="13.085048573630704em" fill="#aaa"/><rect width="0.9615384615384616em" height="18.331017649927144em" x="46.15384615384615em" y="11.668982350072856em" fill="#aaa"/><rect width="0.9615384615384616em" height="21.94159825596023em" x="47.11538461538461em" y="8.05840174403977em" fill="#aaa"/><rect width="0.9615384615384616em" height="16.94716616988977em" x="48.07692307692308em" y="13.052833830110231em" fill="#aaa"/><rect width="0.9615384615384616em" height="16.474700377496102em" x="49.03846153846154em" y="13.525299622503898em" fill="#aaa"/><rect width="0.9615384615384616em" height="17.893151956460088em" x="50em" y="12.106848043539912em" fill="#aaa"/><rect width="0.9615384615384616em" height="19.36882654460449em" x="50.96153846153846em" y="10.631173455395508em" fill="#aaa"/><rect width="0.9615384615384616em" height="18.128648479093197em" x="51.92307692307693em" y="11.871351520906803em" fill="#aaa"/><rect width="0.9615384615384616em" height="16.848549408086292em" x="52.88461538461539em" y="13.151450591913708em" fill="#aaa"/><rect width="0.9615384615384616em" height="16.29602122363697em" x="53.84615384615385em" y="13.70397877636303em" fill="#aaa"/><rect width="0.9615384615384616em" height="12.047213015587237em" x="54.80769230769231em" y="17.95278698441276em" fill="#aaa"/><rect width="0.9615384615384616em" height="15.953356114499718em" x="55.769230769230774em" y="14.046643885500282em" fill="#aaa"/><rect width="0.9615384615384616em" height="11.418753340136881em" x="56.73076923076923em" y="18.58124665986312em" fill="#aaa"/><rect width="0.9615384615384616em" height="15.046262371961445em" x="57.69230769230769em" y="14.953737628038555em" fill="#aaa"/><rect width="0.9615384615384616em" height="10.40676814442242em" x="58.65384615384615em" y="19.593231855577578em" fill="#aaa"/><rect width="0.9615384615384616em" height="16.747437430217207em" x="59.61538461538462em" y="13.252562569782793em" fill="#aaa"/><rect width="0.9615384615384616em" height="11.772554833601491em" x="60.57692307692308em" y="18.22744516639851em" fill="#aaa"/><rect width="0.9615384615384616em" height="12.530771196405922em" x="61.53846153846154em" y="17.469228803594078em" fill="#aaa"/><rect width="0.9615384615384616em" height="10.36548499573869em" x="62.5em" y="19.63451500426131em" fill="#aaa"/><rect width="0.9615384615384616em" height="12.70851092347939em" x="63.46153846153846em" y="17.291489076520612em" fill="#aaa"/><rect width="0.9615384615384616em" height="10.74847373256421em" x="64.42307692307692em" y="19.25152626743579em" fill="#aaa"/><rect width="0.9615384615384616em" height="12.104371268436607em" x="65.38461538461539em" y="17.89562873156339em" fill="#aaa"/><rect width="0.9615384615384616em" height="11.663026676922703em" x="66.34615384615385em" y="18.336973323077295em" fill="#aaa"/><rect width="0.9615384615384616em" height="8.529153474202706em" x="67.3076923076923em" y="21.470846525797292em" fill="#aaa"/><rect width="0.9615384615384616em" height="9.258783540778042em" x="68.26923076923077em" y="20.74121645922196em" fill="#aaa"/><rect width="0.9615384615384616em" height="9.439970106756771em" x="69.23076923076923em" y="20.56002989324323em" fill="#aaa"/><rect width="0.9615384615384616em" height="8.053345143747933em" x="70.1923076923077em" y="21.946654856252067em" fill="#aaa"/><rect width="0.9615384615384616em" height="6.382261053643801em" x="71.15384615384616em" y="23.617738946356198em" fill="#aaa"/><rect width="0.9615384615384616em" height="6.737393525096777em" x="72.11538461538461em" y="23.262606474903222em" fill="#aaa"/><rect width="0.9615384615384616em" height="6.979719226369621em" x="73.07692307692308em" y="23.02028077363038em" fill="#aaa"/><rect width="0.9615384615384616em" height="6.376101515801519em" x="74.03846153846155em" y="23.62389848419848em" fill="#aaa"/><rect width="0.9615384615384616em" height="5.671626631775047em" x="75em" y="24.328373368224952em" fill="#aaa"/><rect width="0.9615384615384616em" height="5.6062591912349315em" x="75.96153846153847em" y="24.393740808765067em" fill="#aaa"/><rect width="0.9615384615384616em" height="5.2953512094478015em" x="76.92307692307692em" y="24.7046487905522em" fill="#aaa"/><rect width="0.9615384615384616em" height="4.90721577629839em" x="77.88461538461539em" y="25.09278422370161em" fill="#aaa"/><rect width="0.9615384615384616em" height="4.1104017953660525em" x="78.84615384615385em" y="25.88959820463395em" fill="#aaa"/><rect width="0.9615384615384616em" height="4.223089145422467em" x="79.8076923076923em" y="25.776910854577533em" fill="#aaa"/><rect width="0.9615384615384616em" height="4.529393770999004em" x="80.76923076923077em" y="25.470606229000996em" fill="#aaa"/><rect width="0.9615384615384616em" height="4.340218178880571em" x="81.73076923076923em" y="25.65978182111943em" fill="#aaa"/><rect width="0.9615384615384616em" height="4.221189029253664em" x="82.6923076923077em" y="25.778810970746335em" fill="#aaa"/><rect width="0.9615384615384616em" height="4.581536347541442em" x="83.65384615384616em" y="25.41846365245856em" fill="#aaa"/><rect width="0.9615384615384616em" height="4.33233327627446em" x="84.61538461538461em" y="25.66766672372554em" fill="#aaa"/><rect width="0.9615384615384616em" height="3.8547010762093032em" x="85.57692307692308em" y="26.145298923790698em" fill="#aaa"/><rect width="0.9615384615384616em" height="4.321129198690948em" x="86.53846153846155em" y="25.678870801309053em" fill="#aaa"/><rect width="0.9615384615384616em" height="4.0171169935627615em" x="87.5em" y="25.982883006437238em" fill="#aaa"/><rect width="0.9615384615384616em" height="3.368186626000555em" x="88.46153846153847em" y="26.631813373999446em" fill="#aaa"/><rect width="0.9615384615384616em" height="3.569257198135242em" x="89.42307692307692em" y="26.43074280186476em" fill="#aaa"/><rect width="0.9615384615384616em" height="3.9407120654352594em" x="90.38461538461539em" y="26.05928793456474em" fill="#aaa"/><rect width="0.9615384615384616em" height="3.4346866694817444em" x="91.34615384615385em" y="26.565313330518254em" fill="#aaa"/><rect width="0.9615384615384616em" height="3.0816047744484467em" x="92.3076923076923em" y="26.918395225551553em" fill="#aaa"/><rect width="0.9615384615384616em" height="3.4664378764891635em" x="93.26923076923077em" y="26.533562123510837em" fill="#aaa"/><rect width="0.9615384615384616em" height="3.758967366480995em" x="94.23076923076923em" y="26.241032633519005em" fill="#aaa"/><rect width="0.9615384615384616em" height="3.54609379665318em" x="95.1923076923077em" y="26.45390620334682em" fill="#aaa"/><rect width="0.9615384615384616em" height="3.530880823007972em" x="96.15384615384616em" y="26.469119176992027em" fill="#aaa"/><rect width="0.9615384615384616em" height="3.4425224473944382em" x="97.11538461538461em" y="26.55747755260556em" fill="#aaa"/><rect width="0.9615384615384616em" height="3.349686551461236em" x="98.07692307692308em" y="26.650313448538764em" fill="#aaa"/><rect width="0.9615384615384616em" height="3.278910976839837em" x="99.03846153846155em" y="26.721089023160165em" fill="#aaa"/></svg>