<?xml version="1.0" standalone="no"?>
<svg xmlns:xlink="http://www.w3.org/1999/xlink" xmlns="http://www.w3.org/2000/svg" class="topic-graph" style="width: 100em; height: 30em; text-align: center;"><rect width="0.9615384615384616em" height="0.7191045945907055em" x="0em" y="29.280895405409293em" fill="#aaa"/><rect width="0.9615384615384616em" height="1.7770020681920566em" x="0.9615384615384616em" y="28.222997931807942em" fill="#aaa"/><rect width="0.9615384615384616em" height="15.463791786364439em" x="1.9230769230769231em" y="14.536208213635561em" fill="#aaa"/><rect width="0.9615384615384616em" height="21.1371427125701em" x="2.8846153846153846em" y="8.8628572874299em" fill="#aaa"/><rect width="0.9615384615384616em" height="3.8781923223381334em" x="3.8461538461538463em" y="26.121807677661867em" fill="#aaa"/><rect width="0.9615384615384616em" height="0.9109969946150515em" x="4.8076923076923075em" y="29.08900300538495em" fill="#aaa"/><rect width="0.9615384615384616em" height="5.8863495864983415em" x="5.769230769230769em" y="24.11365041350166em" fill="#aaa"/><rect width="0.9615384615384616em" height="6.277141773621934em" x="6.730769230769231em" y="23.722858226378065em" fill="#aaa"/><rect width="0.9615384615384616em" height="5.485774056895644em" x="7.6923076923076925em" y="24.514225943104357em" fill="#aaa"/><rect width="0.9615384615384616em" height="3.118816073171214em" x="8.653846153846153em" y="26.881183926828786em" fill="#aaa"/><rect width="0.9615384615384616em" height="2.33560055971698em" x="9.615384615384615em" y="27.66439944028302em" fill="#aaa"/><rect width="0.9615384615384616em" height="20.592429259109437em" x="10.576923076923077em" y="9.407570740890563em" fill="#aaa"/><rect width="0.9615384615384616em" height="2.1309192589647274em" x="11.538461538461538em" y="27.869080741035273em" fill="#aaa"/><rect width="0.9615384615384616em" height="2.292594146601687em" x="12.5em" y="27.707405853398313em" fill="#aaa"/><rect width="0.9615384615384616em" height="4.395759172607497em" x="13.461538461538462em" y="25.604240827392502em" fill="#aaa"/><rect width="0.9615384615384616em" height="2.6168771081062485em" x="14.423076923076923em" y="27.383122891893752em" fill="#aaa"/><rect width="0.9615384615384616em" height="11.640261027706694em" x="15.384615384615385em" y="18.359738972293307em" fill="#aaa"/><rect width="0.9615384615384616em" height="5.710797848011639em" x="16.346153846153847em" y="24.289202151988363em" fill="#aaa"/><rect width="0.9615384615384616em" height="18.424448704090498em" x="17.307692307692307em" y="11.575551295909502em" fill="#aaa"/><rect width="0.9615384615384616em" height="3.2363316437797183em" x="18.26923076923077em" y="26.763668356220283em" fill="#aaa"/><rect width="0.9615384615384616em" height="13.147360120065832em" x="19.23076923076923em" y="16.852639879934166em" fill="#aaa"/><rect width="0.9615384615384616em" height="2.4812348985878785em" x="20.192307692307693em" y="27.51876510141212em" fill="#aaa"/><rect width="0.9615384615384616em" height="2.074217063393935em" x="21.153846153846153em" y="27.925782936606065em" fill="#aaa"/><rect width="0.9615384615384616em" height="2.239486367124149em" x="22.115384615384617em" y="27.76051363287585em" fill="#aaa"/><rect width="0.9615384615384616em" height="13.92317663463945em" x="23.076923076923077em" y="16.07682336536055em" fill="#aaa"/><rect width="0.9615384615384616em" height="5.124711460012693em" x="24.03846153846154em" y="24.875288539987306em" fill="#aaa"/><rect width="0.9615384615384616em" height="6.762896137453465em" x="25em" y="23.237103862546533em" fill="#aaa"/><rect width="0.9615384615384616em" height="13.33054401127331em" x="25.961538461538463em" y="16.66945598872669em" fill="#aaa"/><rect width="0.9615384615384616em" height="2.0381513026927673em" x="26.923076923076923em" y="27.961848697307232em" fill="#aaa"/><rect width="0.9615384615384616em" height="5.849730727572987em" x="27.884615384615387em" y="24.150269272427014em" fill="#aaa"/><rect width="0.9615384615384616em" height="8.123810149372641em" x="28.846153846153847em" y="21.87618985062736em" fill="#aaa"/><rect width="0.9615384615384616em" height="3.1488326574726218em" x="29.80769230769231em" y="26.85116734252738em" fill="#aaa"/><rect width="0.9615384615384616em" height="3.9968326859197756em" x="30.76923076923077em" y="26.003167314080223em" fill="#aaa"/><rect width="0.9615384615384616em" height="3.554855225033657em" x="31.73076923076923em" y="26.445144774966344em" fill="#aaa"/><rect width="0.9615384615384616em" height="2.897517545294046em" x="32.69230769230769em" y="27.102482454705953em" fill="#aaa"/><rect width="0.9615384615384616em" height="9.441680638542195em" x="33.65384615384615em" y="20.558319361457805em" fill="#aaa"/><rect width="0.9615384615384616em" height="8.975422620923808em" x="34.61538461538461em" y="21.02457737907619em" fill="#aaa"/><rect width="0.9615384615384616em" height="3.3323045055184046em" x="35.57692307692308em" y="26.667695494481595em" fill="#aaa"/><rect width="0.9615384615384616em" height="10.222088902913578em" x="36.53846153846154em" y="19.777911097086424em" fill="#aaa"/><rect width="0.9615384615384616em" height="2.0836750821058945em" x="37.5em" y="27.916324917894105em" fill="#aaa"/><rect width="0.9615384615384616em" height="6.206442625395083em" x="38.46153846153846em" y="23.793557374604916em" fill="#aaa"/><rect width="0.9615384615384616em" height="9.869118602239228em" x="39.42307692307693em" y="20.130881397760774em" fill="#aaa"/><rect width="0.9615384615384616em" height="10.040789174901356em" x="40.38461538461539em" y="19.959210825098644em" fill="#aaa"/><rect width="0.9615384615384616em" height="11.368336623908519em" x="41.34615384615385em" y="18.63166337609148em" fill="#aaa"/><rect width="0.9615384615384616em" height="6.490240564273648em" x="42.30769230769231em" y="23.50975943572635em" fill="#aaa"/><rect width="0.9615384615384616em" height="6.388352118202946em" x="43.269230769230774em" y="23.611647881797055em" fill="#aaa"/><rect width="0.9615384615384616em" height="10.997961859728624em" x="44.23076923076923em" y="19.002038140271374em" fill="#aaa"/><rect width="0.9615384615384616em" height="2.954742591419051em" x="45.19230769230769em" y="27.045257408580948em" fill="#aaa"/><rect width="0.9615384615384616em" height="4.595743623705192em" x="46.15384615384615em" y="25.404256376294807em" fill="#aaa"/><rect width="0.9615384615384616em" height="1.8988796713053848em" x="47.11538461538461em" y="28.101120328694616em" fill="#aaa"/><rect width="0.9615384615384616em" height="8.237756860868156em" x="48.07692307692308em" y="21.762243139131844em" fill="#aaa"/><rect width="0.9615384615384616em" height="30em" x="49.03846153846154em" y="0em" fill="#aaa"/><rect width="0.9615384615384616em" height="3.1442433784389263em" x="50em" y="26.855756621561074em" fill="#aaa"/><rect width="0.9615384615384616em" height="5.179272272195925em" x="50.96153846153846em" y="24.820727727804076em" fill="#aaa"/><rect width="0.9615384615384616em" height="3.7785848631537284em" x="51.92307692307693em" y="26.22141513684627em" fill="#aaa"/><rect width="0.9615384615384616em" height="2.688172304503646em" x="52.88461538461539em" y="27.311827695496355em" fill="#aaa"/><rect width="0.9615384615384616em" height="1.5443087959073465em" x="53.84615384615385em" y="28.455691204092652em" fill="#aaa"/><rect width="0.9615384615384616em" height="0.3422148755249066em" x="54.80769230769231em" y="29.657785124475094em" fill="#aaa"/><rect width="0.9615384615384616em" height="1.714809477317725em" x="55.769230769230774em" y="28.285190522682274em" fill="#aaa"/><rect width="0.9615384615384616em" height="1.9437815536491743em" x="56.73076923076923em" y="28.056218446350826em" fill="#aaa"/><rect width="0.9615384615384616em" height="3.5528447191675587em" x="57.69230769230769em" y="26.44715528083244em" fill="#aaa"/><rect width="0.9615384615384616em" height="1.3018419813562991em" x="58.65384615384615em" y="28.6981580186437em" fill="#aaa"/><rect width="0.9615384615384616em" height="3.2048616514644395em" x="59.61538461538462em" y="26.79513834853556em" fill="#aaa"/><rect width="0.9615384615384616em" height="3.623095055197553em" x="60.57692307692308em" y="26.376904944802448em" fill="#aaa"/><rect width="0.9615384615384616em" height="17.31167788389519em" x="61.53846153846154em" y="12.68832211610481em" fill="#aaa"/><rect width="0.9615384615384616em" height="2.5656142291481636em" x="62.5em" y="27.434385770851836em" fill="#aaa"/><rect width="0.9615384615384616em" height="3.519185191399511em" x="63.46153846153846em" y="26.48081480860049em" fill="#aaa"/><rect width="0.9615384615384616em" height="2.3539802680082795em" x="64.42307692307692em" y="27.64601973199172em" fill="#aaa"/><rect width="0.9615384615384616em" height="6.99737846222856em" x="65.38461538461539em" y="23.00262153777144em" fill="#aaa"/><rect width="0.9615384615384616em" height="6.113445973790292em" x="66.34615384615385em" y="23.88655402620971em" fill="#aaa"/><rect width="0.9615384615384616em" height="3.68056222197004em" x="67.3076923076923em" y="26.31943777802996em" fill="#aaa"/><rect width="0.9615384615384616em" height="10.974837292919677em" x="68.26923076923077em" y="19.025162707080323em" fill="#aaa"/><rect width="0.9615384615384616em" height="8.640493412831285em" x="69.23076923076923em" y="21.359506587168717em" fill="#aaa"/><rect width="0.9615384615384616em" height="1.3924574333511117em" x="70.1923076923077em" y="28.60754256664889em" fill="#aaa"/><rect width="0.9615384615384616em" height="3.114560059846551em" x="71.15384615384616em" y="26.88543994015345em" fill="#aaa"/><rect width="0.9615384615384616em" height="7.039902043005643em" x="72.11538461538461em" y="22.960097956994357em" fill="#aaa"/><rect width="0.9615384615384616em" height="2.974259240094966em" x="73.07692307692308em" y="27.025740759905034em" fill="#aaa"/><rect width="0.9615384615384616em" height="5.80135651242774em" x="74.03846153846155em" y="24.19864348757226em" fill="#aaa"/><rect width="0.9615384615384616em" height="6.091127660292833em" x="75em" y="23.908872339707166em" fill="#aaa"/><rect width="0.9615384615384616em" height="4.865210434043768em" x="75.96153846153847em" y="25.134789565956233em" fill="#aaa"/><rect width="0.9615384615384616em" height="3.0366087470114em" x="76.92307692307692em" y="26.9633912529886em" fill="#aaa"/><rect width="0.9615384615384616em" height="2.4423270855858723em" x="77.88461538461539em" y="27.557672914414127em" fill="#aaa"/><rect width="0.9615384615384616em" height="3.2621913015618054em" x="78.84615384615385em" y="26.737808698438194em" fill="#aaa"/><rect width="0.9615384615384616em" height="2.7598543133601243em" x="79.8076923076923em" y="27.240145686639877em" fill="#aaa"/><rect width="0.9615384615384616em" height="2.6116955819346077em" x="80.76923076923077em" y="27.388304418065392em" fill="#aaa"/><rect width="0.9615384615384616em" height="1.931580608184312em" x="81.73076923076923em" y="28.068419391815688em" fill="#aaa"/><rect width="0.9615384615384616em" height="3.8474703845816474em" x="82.6923076923077em" y="26.152529615418352em" fill="#aaa"/><rect width="0.9615384615384616em" height="2.552901225116608em" x="83.65384615384616em" y="27.447098774883393em" fill="#aaa"/><rect width="0.9615384615384616em" height="1.2122561881732967em" x="84.61538461538461em" y="28.787743811826704em" fill="#aaa"/><rect width="0.9615384615384616em" height="2.2589642328999053em" x="85.57692307692308em" y="27.741035767100094em" fill="#aaa"/><rect width="0.9615384615384616em" height="4.319507720970053em" x="86.53846153846155em" y="25.68049227902995em" fill="#aaa"/><rect width="0.9615384615384616em" height="1.7163289002235083em" x="87.5em" y="28.28367109977649em" fill="#aaa"/><rect width="0.9615384615384616em" height="1.3589482104922896em" x="88.46153846153847em" y="28.64105178950771em" fill="#aaa"/><rect width="0.9615384615384616em" height="1.8144032834007595em" x="89.42307692307692em" y="28.18559671659924em" fill="#aaa"/><rect width="0.9615384615384616em" height="2.719321828232949em" x="90.38461538461539em" y="27.28067817176705em" fill="#aaa"/><rect width="0.9615384615384616em" height="2.0701216874651722em" x="91.34615384615385em" y="27.92987831253483em" fill="#aaa"/><rect width="0.9615384615384616em" height="0.8429664093709202em" x="92.3076923076923em" y="29.15703359062908em" fill="#aaa"/><rect width="0.9615384615384616em" height="1.909917788644097em" x="93.26923076923077em" y="28.090082211355902em" fill="#aaa"/><rect width="0.9615384615384616em" height="1.6291100104531642em" x="94.23076923076923em" y="28.370889989546836em" fill="#aaa"/><rect width="0.9615384615384616em" height="1.8851667953297402em" x="95.1923076923077em" y="28.11483320467026em" fill="#aaa"/><rect width="0.9615384615384616em" height="2.831688039417742em" x="96.15384615384616em" y="27.16831196058226em" fill="#aaa"/><rect width="0.9615384615384616em" height="1.7113149068090967em" x="97.11538461538461em" y="28.288685093190903em" fill="#aaa"/><rect width="0.9615384615384616em" height="2.538062921549936em" x="98.07692307692308em" y="27.461937078450063em" fill="#aaa"/><rect width="0.9615384615384616em" height="3.3622857768802135em" x="99.03846153846155em" y="26.637714223119787em" fill="#aaa"/></svg>