<?xml version="1.0" standalone="no"?>
<svg xmlns:xlink="http://www.w3.org/1999/xlink" xmlns="http://www.w3.org/2000/svg" class="topic-graph" style="width: 10vw; height: 3em; text-align: center;"><rect width="0.09615384615384616em" height="2.170523102694548em" x="0vw" y="0.8294768973054518em" fill="#aaa"/><rect width="0.09615384615384616em" height="1.0937763314555273em" x="0.09615384615384616vw" y="1.9062236685444727em" fill="#aaa"/><rect width="0.09615384615384616em" height="0.7049031693542567em" x="0.19230769230769232vw" y="2.2950968306457433em" fill="#aaa"/><rect width="0.09615384615384616em" height="0.4789685087075623em" x="0.2884615384615385vw" y="2.5210314912924376em" fill="#aaa"/><rect width="0.09615384615384616em" height="0.6316113550417926em" x="0.38461538461538464vw" y="2.3683886449582072em" fill="#aaa"/><rect width="0.09615384615384616em" height="0.41747203661266097em" x="0.4807692307692308vw" y="2.582527963387339em" fill="#aaa"/><rect width="0.09615384615384616em" height="0.6382975159771253em" x="0.576923076923077vw" y="2.361702484022875em" fill="#aaa"/><rect width="0.09615384615384616em" height="0.44965265927776427em" x="0.6730769230769231vw" y="2.5503473407222357em" fill="#aaa"/><rect width="0.09615384615384616em" height="0.6087343378696801em" x="0.7692307692307693vw" y="2.39126566213032em" fill="#aaa"/><rect width="0.09615384615384616em" height="0.45321076973550456em" x="0.8653846153846154vw" y="2.5467892302644954em" fill="#aaa"/><rect width="0.09615384615384616em" height="0.73242021262223em" x="0.9615384615384616vw" y="2.26757978737777em" fill="#aaa"/><rect width="0.09615384615384616em" height="0.346480300019133em" x="1.0576923076923077vw" y="2.6535196999808672em" fill="#aaa"/><rect width="0.09615384615384616em" height="0.5278013573968439em" x="1.153846153846154vw" y="2.472198642603156em" fill="#aaa"/><rect width="0.09615384615384616em" height="0.55325496496921em" x="1.25vw" y="2.4467450350307898em" fill="#aaa"/><rect width="0.09615384615384616em" height="0.6321263032597807em" x="1.3461538461538463vw" y="2.367873696740219em" fill="#aaa"/><rect width="0.09615384615384616em" height="0.6216184285632573em" x="1.4423076923076923vw" y="2.3783815714367424em" fill="#aaa"/><rect width="0.09615384615384616em" height="0.5299899230424233em" x="1.5384615384615385vw" y="2.4700100769575766em" fill="#aaa"/><rect width="0.09615384615384616em" height="0.2744756531120171em" x="1.6346153846153848vw" y="2.725524346887983em" fill="#aaa"/><rect width="0.09615384615384616em" height="0.5239904373491756em" x="1.7307692307692308vw" y="2.4760095626508245em" fill="#aaa"/><rect width="0.09615384615384616em" height="0.7629948372853537em" x="1.826923076923077vw" y="2.237005162714646em" fill="#aaa"/><rect width="0.09615384615384616em" height="0.4362067559350795em" x="1.9230769230769231vw" y="2.5637932440649207em" fill="#aaa"/><rect width="0.09615384615384616em" height="0.5767664950413511em" x="2.019230769230769vw" y="2.423233504958649em" fill="#aaa"/><rect width="0.09615384615384616em" height="0.2911918600054836em" x="2.1153846153846154vw" y="2.7088081399945163em" fill="#aaa"/><rect width="0.09615384615384616em" height="0.47226910250833526em" x="2.2115384615384617vw" y="2.5277308974916646em" fill="#aaa"/><rect width="0.09615384615384616em" height="0.42181819020867484em" x="2.307692307692308vw" y="2.5781818097913254em" fill="#aaa"/><rect width="0.09615384615384616em" height="0.7256179081229414em" x="2.403846153846154vw" y="2.2743820918770585em" fill="#aaa"/><rect width="0.09615384615384616em" height="0.6864692088132014em" x="2.5vw" y="2.313530791186799em" fill="#aaa"/><rect width="0.09615384615384616em" height="0.49814942638338966em" x="2.5961538461538463vw" y="2.5018505736166103em" fill="#aaa"/><rect width="0.09615384615384616em" height="0.9193464116989531em" x="2.6923076923076925vw" y="2.080653588301047em" fill="#aaa"/><rect width="0.09615384615384616em" height="0.6067794456245792em" x="2.7884615384615388vw" y="2.3932205543754206em" fill="#aaa"/><rect width="0.09615384615384616em" height="0.9371736392939576em" x="2.8846153846153846vw" y="2.062826360706042em" fill="#aaa"/><rect width="0.09615384615384616em" height="0.7276275686770686em" x="2.980769230769231vw" y="2.2723724313229314em" fill="#aaa"/><rect width="0.09615384615384616em" height="0.6011631902739566em" x="3.076923076923077vw" y="2.3988368097260433em" fill="#aaa"/><rect width="0.09615384615384616em" height="0.6389712949312175em" x="3.1730769230769234vw" y="2.3610287050687826em" fill="#aaa"/><rect width="0.09615384615384616em" height="0.5535478709807594em" x="3.2692307692307696vw" y="2.4464521290192405em" fill="#aaa"/><rect width="0.09615384615384616em" height="0.764949163530728em" x="3.3653846153846154vw" y="2.235050836469272em" fill="#aaa"/><rect width="0.09615384615384616em" height="0.7927265342542917em" x="3.4615384615384617vw" y="2.2072734657457085em" fill="#aaa"/><rect width="0.09615384615384616em" height="0.7713881264932347em" x="3.557692307692308vw" y="2.2286118735067655em" fill="#aaa"/><rect width="0.09615384615384616em" height="0.869717808901745em" x="3.653846153846154vw" y="2.130282191098255em" fill="#aaa"/><rect width="0.09615384615384616em" height="0.5972747111741749em" x="3.75vw" y="2.4027252888258253em" fill="#aaa"/><rect width="0.09615384615384616em" height="0.7902713729401818em" x="3.8461538461538463vw" y="2.2097286270598184em" fill="#aaa"/><rect width="0.09615384615384616em" height="0.9727926284454198em" x="3.9423076923076925vw" y="2.02720737155458em" fill="#aaa"/><rect width="0.09615384615384616em" height="1.0964744494310041em" x="4.038461538461538vw" y="1.9035255505689959em" fill="#aaa"/><rect width="0.09615384615384616em" height="0.8312309973766803em" x="4.134615384615385vw" y="2.1687690026233195em" fill="#aaa"/><rect width="0.09615384615384616em" height="0.933591365248611em" x="4.230769230769231vw" y="2.0664086347513893em" fill="#aaa"/><rect width="0.09615384615384616em" height="1.0640645697236577em" x="4.3269230769230775vw" y="1.9359354302763423em" fill="#aaa"/><rect width="0.09615384615384616em" height="1.0432911652014418em" x="4.423076923076923vw" y="1.9567088347985582em" fill="#aaa"/><rect width="0.09615384615384616em" height="0.9701565349201444em" x="4.519230769230769vw" y="2.0298434650798556em" fill="#aaa"/><rect width="0.09615384615384616em" height="1.300636869637199em" x="4.615384615384616vw" y="1.699363130362801em" fill="#aaa"/><rect width="0.09615384615384616em" height="1.6438784074261872em" x="4.711538461538462vw" y="1.3561215925738128em" fill="#aaa"/><rect width="0.09615384615384616em" height="1.1852293795166147em" x="4.807692307692308vw" y="1.8147706204833853em" fill="#aaa"/><rect width="0.09615384615384616em" height="1.2409368395577087em" x="4.903846153846154vw" y="1.7590631604422913em" fill="#aaa"/><rect width="0.09615384615384616em" height="1.0843656246667757em" x="5vw" y="1.9156343753332243em" fill="#aaa"/><rect width="0.09615384615384616em" height="1.0847796361430937em" x="5.096153846153847vw" y="1.9152203638569063em" fill="#aaa"/><rect width="0.09615384615384616em" height="0.9422944811142742em" x="5.1923076923076925vw" y="2.057705518885726em" fill="#aaa"/><rect width="0.09615384615384616em" height="1.910861672707779em" x="5.288461538461538vw" y="1.089138327292221em" fill="#aaa"/><rect width="0.09615384615384616em" height="1.6874409509598793em" x="5.384615384615385vw" y="1.3125590490401207em" fill="#aaa"/><rect width="0.09615384615384616em" height="1.9524775269853982em" x="5.480769230769231vw" y="1.0475224730146018em" fill="#aaa"/><rect width="0.09615384615384616em" height="1.8654967854274207em" x="5.5769230769230775vw" y="1.1345032145725793em" fill="#aaa"/><rect width="0.09615384615384616em" height="1.7612802028074555em" x="5.673076923076923vw" y="1.2387197971925445em" fill="#aaa"/><rect width="0.09615384615384616em" height="1.7283077900479347em" x="5.769230769230769vw" y="1.2716922099520653em" fill="#aaa"/><rect width="0.09615384615384616em" height="2.553617150331076em" x="5.865384615384616vw" y="0.44638284966892394em" fill="#aaa"/><rect width="0.09615384615384616em" height="2.2928140477946117em" x="5.961538461538462vw" y="0.7071859522053883em" fill="#aaa"/><rect width="0.09615384615384616em" height="2.22583082095915em" x="6.057692307692308vw" y="0.7741691790408498em" fill="#aaa"/><rect width="0.09615384615384616em" height="2.649502538082221em" x="6.153846153846154vw" y="0.350497461917779em" fill="#aaa"/><rect width="0.09615384615384616em" height="2.908153904437225em" x="6.25vw" y="0.0918460955627749em" fill="#aaa"/><rect width="0.09615384615384616em" height="2.4015359294065446em" x="6.346153846153847vw" y="0.5984640705934554em" fill="#aaa"/><rect width="0.09615384615384616em" height="2.366607855042391em" x="6.4423076923076925vw" y="0.6333921449576092em" fill="#aaa"/><rect width="0.09615384615384616em" height="2.196341840504111em" x="6.538461538461539vw" y="0.8036581594958889em" fill="#aaa"/><rect width="0.09615384615384616em" height="2.678445238937368em" x="6.634615384615385vw" y="0.3215547610626319em" fill="#aaa"/><rect width="0.09615384615384616em" height="2.5575410414400346em" x="6.730769230769231vw" y="0.4424589585599654em" fill="#aaa"/><rect width="0.09615384615384616em" height="2.10042679713927em" x="6.8269230769230775vw" y="0.8995732028607302em" fill="#aaa"/><rect width="0.09615384615384616em" height="2.2045715639574652em" x="6.923076923076923vw" y="0.7954284360425348em" fill="#aaa"/><rect width="0.09615384615384616em" height="2.726765110120378em" x="7.01923076923077vw" y="0.27323488987962197em" fill="#aaa"/><rect width="0.09615384615384616em" height="3em" x="7.115384615384616vw" y="0em" fill="#aaa"/><rect width="0.09615384615384616em" height="2.56643398340496em" x="7.211538461538462vw" y="0.4335660165950399em" fill="#aaa"/><rect width="0.09615384615384616em" height="2.258110553865918em" x="7.307692307692308vw" y="0.7418894461340821em" fill="#aaa"/><rect width="0.09615384615384616em" height="1.9455910334851914em" x="7.403846153846154vw" y="1.0544089665148086em" fill="#aaa"/><rect width="0.09615384615384616em" height="2.377136349970261em" x="7.5vw" y="0.6228636500297391em" fill="#aaa"/><rect width="0.09615384615384616em" height="1.9823029778660173em" x="7.596153846153847vw" y="1.0176970221339827em" fill="#aaa"/><rect width="0.09615384615384616em" height="2.0134675290442168em" x="7.6923076923076925vw" y="0.9865324709557832em" fill="#aaa"/><rect width="0.09615384615384616em" height="2.3018370695320445em" x="7.788461538461539vw" y="0.6981629304679555em" fill="#aaa"/><rect width="0.09615384615384616em" height="1.709965210861846em" x="7.884615384615385vw" y="1.290034789138154em" fill="#aaa"/><rect width="0.09615384615384616em" height="1.9398658503868167em" x="7.980769230769231vw" y="1.0601341496131833em" fill="#aaa"/><rect width="0.09615384615384616em" height="1.8564488004304862em" x="8.076923076923077vw" y="1.1435511995695138em" fill="#aaa"/><rect width="0.09615384615384616em" height="1.9908661575386195em" x="8.173076923076923vw" y="1.0091338424613805em" fill="#aaa"/><rect width="0.09615384615384616em" height="2.4916850703727444em" x="8.26923076923077vw" y="0.5083149296272556em" fill="#aaa"/><rect width="0.09615384615384616em" height="2.2189623685713507em" x="8.365384615384615vw" y="0.7810376314286493em" fill="#aaa"/><rect width="0.09615384615384616em" height="1.8211335347135593em" x="8.461538461538462vw" y="1.1788664652864407em" fill="#aaa"/><rect width="0.09615384615384616em" height="1.9877163679578393em" x="8.557692307692308vw" y="1.0122836320421607em" fill="#aaa"/><rect width="0.09615384615384616em" height="1.9434884381956006em" x="8.653846153846155vw" y="1.0565115618043994em" fill="#aaa"/><rect width="0.09615384615384616em" height="1.6309970651818042em" x="8.75vw" y="1.3690029348181958em" fill="#aaa"/><rect width="0.09615384615384616em" height="1.6915440870291243em" x="8.846153846153847vw" y="1.3084559129708757em" fill="#aaa"/><rect width="0.09615384615384616em" height="1.8345361511702016em" x="8.942307692307693vw" y="1.1654638488297984em" fill="#aaa"/><rect width="0.09615384615384616em" height="1.8782037586579032em" x="9.038461538461538vw" y="1.1217962413420968em" fill="#aaa"/><rect width="0.09615384615384616em" height="2.103602667262662em" x="9.134615384615385vw" y="0.896397332737338em" fill="#aaa"/><rect width="0.09615384615384616em" height="1.5383448171906093em" x="9.230769230769232vw" y="1.4616551828093907em" fill="#aaa"/><rect width="0.09615384615384616em" height="1.5012637398844393em" x="9.326923076923077vw" y="1.4987362601155607em" fill="#aaa"/><rect width="0.09615384615384616em" height="1.7665901853167383em" x="9.423076923076923vw" y="1.2334098146832617em" fill="#aaa"/><rect width="0.09615384615384616em" height="1.5174610273255025em" x="9.51923076923077vw" y="1.4825389726744975em" fill="#aaa"/><rect width="0.09615384615384616em" height="1.4036822571087417em" x="9.615384615384617vw" y="1.5963177428912583em" fill="#aaa"/><rect width="0.09615384615384616em" height="1.5484532185167512em" x="9.711538461538462vw" y="1.4515467814832488em" fill="#aaa"/><rect width="0.09615384615384616em" height="1.539892037043313em" x="9.807692307692308vw" y="1.460107962956687em" fill="#aaa"/><rect width="0.09615384615384616em" height="1.676641036953738em" x="9.903846153846155vw" y="1.323358963046262em" fill="#aaa"/></svg>