<?xml version="1.0" standalone="no"?>
<svg xmlns:xlink="http://www.w3.org/1999/xlink" xmlns="http://www.w3.org/2000/svg" class="topic-graph" style="width: 10vw; height: 3em; text-align: center;"><rect width="0.09615384615384616em" height="0.06115401872405138em" x="0vw" y="2.9388459812759486em" fill="#aaa"/><rect width="0.09615384615384616em" height="0.3725663994294792em" x="0.09615384615384616vw" y="2.6274336005705208em" fill="#aaa"/><rect width="0.09615384615384616em" height="0.09378149565021501em" x="0.19230769230769232vw" y="2.906218504349785em" fill="#aaa"/><rect width="0.09615384615384616em" height="0.0050475669159702145em" x="0.2884615384615385vw" y="2.9949524330840296em" fill="#aaa"/><rect width="0.09615384615384616em" height="0.34351209034242053em" x="0.38461538461538464vw" y="2.6564879096575793em" fill="#aaa"/><rect width="0.09615384615384616em" height="0.012023748224208512em" x="0.4807692307692308vw" y="2.9879762517757915em" fill="#aaa"/><rect width="0.09615384615384616em" height="0.012816829787775867em" x="0.576923076923077vw" y="2.9871831702122242em" fill="#aaa"/><rect width="0.09615384615384616em" height="0.009688244978886311em" x="0.6730769230769231vw" y="2.990311755021114em" fill="#aaa"/><rect width="0.09615384615384616em" height="0.1044393761396983em" x="0.7692307692307693vw" y="2.8955606238603018em" fill="#aaa"/><rect width="0.09615384615384616em" height="0.050813432598894995em" x="0.8653846153846154vw" y="2.949186567401105em" fill="#aaa"/><rect width="0.09615384615384616em" height="0.15948973740499375em" x="0.9615384615384616vw" y="2.8405102625950063em" fill="#aaa"/><rect width="0.09615384615384616em" height="0.019294907447622415em" x="1.0576923076923077vw" y="2.9807050925523777em" fill="#aaa"/><rect width="0.09615384615384616em" height="0.48839128760462036em" x="1.153846153846154vw" y="2.51160871239538em" fill="#aaa"/><rect width="0.09615384615384616em" height="0.1699989931026163em" x="1.25vw" y="2.8300010068973838em" fill="#aaa"/><rect width="0.09615384615384616em" height="0.17972033711446816em" x="1.3461538461538463vw" y="2.820279662885532em" fill="#aaa"/><rect width="0.09615384615384616em" height="0.11502826918532313em" x="1.4423076923076923vw" y="2.884971730814677em" fill="#aaa"/><rect width="0.09615384615384616em" height="0.047994257294553096em" x="1.5384615384615385vw" y="2.9520057427054467em" fill="#aaa"/><rect width="0.09615384615384616em" height="0.3282768246537535em" x="1.6346153846153848vw" y="2.6717231753462465em" fill="#aaa"/><rect width="0.09615384615384616em" height="0.05097498939578673em" x="1.7307692307692308vw" y="2.9490250106042133em" fill="#aaa"/><rect width="0.09615384615384616em" height="0.06972824458332869em" x="1.826923076923077vw" y="2.9302717554166713em" fill="#aaa"/><rect width="0.09615384615384616em" height="0.3411913754635762em" x="1.9230769230769231vw" y="2.658808624536424em" fill="#aaa"/><rect width="0.09615384615384616em" height="0.07949992403189055em" x="2.019230769230769vw" y="2.9205000759681097em" fill="#aaa"/><rect width="0.09615384615384616em" height="0.42912149276159967em" x="2.1153846153846154vw" y="2.5708785072384em" fill="#aaa"/><rect width="0.09615384615384616em" height="0.3836310521751859em" x="2.2115384615384617vw" y="2.616368947824814em" fill="#aaa"/><rect width="0.09615384615384616em" height="1.0563719787867993em" x="2.307692307692308vw" y="1.9436280212132007em" fill="#aaa"/><rect width="0.09615384615384616em" height="0.4025653629345092em" x="2.403846153846154vw" y="2.597434637065491em" fill="#aaa"/><rect width="0.09615384615384616em" height="0.5238419558462383em" x="2.5vw" y="2.476158044153762em" fill="#aaa"/><rect width="0.09615384615384616em" height="0.163035247036438em" x="2.5961538461538463vw" y="2.8369647529635618em" fill="#aaa"/><rect width="0.09615384615384616em" height="0.7796693729459647em" x="2.6923076923076925vw" y="2.220330627054035em" fill="#aaa"/><rect width="0.09615384615384616em" height="1.9585228660848633em" x="2.7884615384615388vw" y="1.0414771339151367em" fill="#aaa"/><rect width="0.09615384615384616em" height="1.712173911123678em" x="2.8846153846153846vw" y="1.287826088876322em" fill="#aaa"/><rect width="0.09615384615384616em" height="0.9128533440966662em" x="2.980769230769231vw" y="2.087146655903334em" fill="#aaa"/><rect width="0.09615384615384616em" height="2.5776568226567487em" x="3.076923076923077vw" y="0.42234317734325133em" fill="#aaa"/><rect width="0.09615384615384616em" height="0.3457895638661867em" x="3.1730769230769234vw" y="2.6542104361338135em" fill="#aaa"/><rect width="0.09615384615384616em" height="0.5364029176051475em" x="3.2692307692307696vw" y="2.4635970823948528em" fill="#aaa"/><rect width="0.09615384615384616em" height="1.305658650300069em" x="3.3653846153846154vw" y="1.694341349699931em" fill="#aaa"/><rect width="0.09615384615384616em" height="0.9036631266905544em" x="3.4615384615384617vw" y="2.0963368733094456em" fill="#aaa"/><rect width="0.09615384615384616em" height="0.6943220239849687em" x="3.557692307692308vw" y="2.305677976015031em" fill="#aaa"/><rect width="0.09615384615384616em" height="0.18075050243070634em" x="3.653846153846154vw" y="2.8192494975692934em" fill="#aaa"/><rect width="0.09615384615384616em" height="0.15634534883044848em" x="3.75vw" y="2.8436546511695515em" fill="#aaa"/><rect width="0.09615384615384616em" height="0.47210205400685706em" x="3.8461538461538463vw" y="2.5278979459931428em" fill="#aaa"/><rect width="0.09615384615384616em" height="0.355297969625469em" x="3.9423076923076925vw" y="2.644702030374531em" fill="#aaa"/><rect width="0.09615384615384616em" height="0.21953720544823935em" x="4.038461538461538vw" y="2.780462794551761em" fill="#aaa"/><rect width="0.09615384615384616em" height="0.30620854745470305em" x="4.134615384615385vw" y="2.693791452545297em" fill="#aaa"/><rect width="0.09615384615384616em" height="0.5094587568683266em" x="4.230769230769231vw" y="2.4905412431316734em" fill="#aaa"/><rect width="0.09615384615384616em" height="0.27060684021975223em" x="4.3269230769230775vw" y="2.7293931597802477em" fill="#aaa"/><rect width="0.09615384615384616em" height="1.027812663406208em" x="4.423076923076923vw" y="1.972187336593792em" fill="#aaa"/><rect width="0.09615384615384616em" height="0.24368233846676396em" x="4.519230769230769vw" y="2.756317661533236em" fill="#aaa"/><rect width="0.09615384615384616em" height="0.5379895838406834em" x="4.615384615384616vw" y="2.4620104161593166em" fill="#aaa"/><rect width="0.09615384615384616em" height="1.541079207219584em" x="4.711538461538462vw" y="1.458920792780416em" fill="#aaa"/><rect width="0.09615384615384616em" height="1.359823400434234em" x="4.807692307692308vw" y="1.640176599565766em" fill="#aaa"/><rect width="0.09615384615384616em" height="1.4895200110973708em" x="4.903846153846154vw" y="1.5104799889026292em" fill="#aaa"/><rect width="0.09615384615384616em" height="0.5443931102494868em" x="5vw" y="2.455606889750513em" fill="#aaa"/><rect width="0.09615384615384616em" height="1.8375099385232285em" x="5.096153846153847vw" y="1.1624900614767715em" fill="#aaa"/><rect width="0.09615384615384616em" height="3em" x="5.1923076923076925vw" y="0em" fill="#aaa"/><rect width="0.09615384615384616em" height="1.4401594869106835em" x="5.288461538461538vw" y="1.5598405130893165em" fill="#aaa"/><rect width="0.09615384615384616em" height="1.3838081116935692em" x="5.384615384615385vw" y="1.6161918883064308em" fill="#aaa"/><rect width="0.09615384615384616em" height="0.5991902931718639em" x="5.480769230769231vw" y="2.400809706828136em" fill="#aaa"/><rect width="0.09615384615384616em" height="1.130507294352801em" x="5.5769230769230775vw" y="1.869492705647199em" fill="#aaa"/><rect width="0.09615384615384616em" height="0.5051866831702806em" x="5.673076923076923vw" y="2.4948133168297195em" fill="#aaa"/><rect width="0.09615384615384616em" height="0.3900814387126126em" x="5.769230769230769vw" y="2.6099185612873876em" fill="#aaa"/><rect width="0.09615384615384616em" height="1.2004197096753024em" x="5.865384615384616vw" y="1.7995802903246976em" fill="#aaa"/><rect width="0.09615384615384616em" height="0.6989825316009691em" x="5.961538461538462vw" y="2.301017468399031em" fill="#aaa"/><rect width="0.09615384615384616em" height="1.4045437925557014em" x="6.057692307692308vw" y="1.5954562074442986em" fill="#aaa"/><rect width="0.09615384615384616em" height="0.35293578687508514em" x="6.153846153846154vw" y="2.647064213124915em" fill="#aaa"/><rect width="0.09615384615384616em" height="0.5702737511229581em" x="6.25vw" y="2.429726248877042em" fill="#aaa"/><rect width="0.09615384615384616em" height="0.5668076665823504em" x="6.346153846153847vw" y="2.4331923334176495em" fill="#aaa"/><rect width="0.09615384615384616em" height="0.4663904054686074em" x="6.4423076923076925vw" y="2.533609594531393em" fill="#aaa"/><rect width="0.09615384615384616em" height="0.54406275146179em" x="6.538461538461539vw" y="2.45593724853821em" fill="#aaa"/><rect width="0.09615384615384616em" height="0.5191765422738563em" x="6.634615384615385vw" y="2.4808234577261437em" fill="#aaa"/><rect width="0.09615384615384616em" height="0.24147392083667113em" x="6.730769230769231vw" y="2.758526079163329em" fill="#aaa"/><rect width="0.09615384615384616em" height="0.5099184414650652em" x="6.8269230769230775vw" y="2.4900815585349347em" fill="#aaa"/><rect width="0.09615384615384616em" height="0.37879397693902617em" x="6.923076923076923vw" y="2.621206023060974em" fill="#aaa"/><rect width="0.09615384615384616em" height="0.14697294293088953em" x="7.01923076923077vw" y="2.8530270570691103em" fill="#aaa"/><rect width="0.09615384615384616em" height="0.07437357895156174em" x="7.115384615384616vw" y="2.925626421048438em" fill="#aaa"/><rect width="0.09615384615384616em" height="0.4254164747345043em" x="7.211538461538462vw" y="2.5745835252654956em" fill="#aaa"/><rect width="0.09615384615384616em" height="0.14321835664429208em" x="7.307692307692308vw" y="2.856781643355708em" fill="#aaa"/><rect width="0.09615384615384616em" height="0.12195348893220849em" x="7.403846153846154vw" y="2.8780465110677915em" fill="#aaa"/><rect width="0.09615384615384616em" height="0.07686734192119075em" x="7.5vw" y="2.923132658078809em" fill="#aaa"/><rect width="0.09615384615384616em" height="0.10341886643857096em" x="7.596153846153847vw" y="2.896581133561429em" fill="#aaa"/><rect width="0.09615384615384616em" height="0.07856217217501994em" x="7.6923076923076925vw" y="2.92143782782498em" fill="#aaa"/><rect width="0.09615384615384616em" height="0.14593074952264426em" x="7.788461538461539vw" y="2.8540692504773557em" fill="#aaa"/><rect width="0.09615384615384616em" height="0.17163407569001332em" x="7.884615384615385vw" y="2.8283659243099866em" fill="#aaa"/><rect width="0.09615384615384616em" height="0.14665827977017337em" x="7.980769230769231vw" y="2.853341720229827em" fill="#aaa"/><rect width="0.09615384615384616em" height="0.0645383940368516em" x="8.076923076923077vw" y="2.935461605963148em" fill="#aaa"/><rect width="0.09615384615384616em" height="0.1774281307602985em" x="8.173076923076923vw" y="2.8225718692397015em" fill="#aaa"/><rect width="0.09615384615384616em" height="0.09425215652730234em" x="8.26923076923077vw" y="2.9057478434726978em" fill="#aaa"/><rect width="0.09615384615384616em" height="0.07811917465308982em" x="8.365384615384615vw" y="2.92188082534691em" fill="#aaa"/><rect width="0.09615384615384616em" height="0.17911283130953634em" x="8.461538461538462vw" y="2.8208871686904637em" fill="#aaa"/><rect width="0.09615384615384616em" height="0.15918055677742704em" x="8.557692307692308vw" y="2.840819443222573em" fill="#aaa"/><rect width="0.09615384615384616em" height="0.16238895085097751em" x="8.653846153846155vw" y="2.8376110491490225em" fill="#aaa"/><rect width="0.09615384615384616em" height="0.09363038468394372em" x="8.75vw" y="2.906369615316056em" fill="#aaa"/><rect width="0.09615384615384616em" height="0.1306289775533044em" x="8.846153846153847vw" y="2.8693710224466957em" fill="#aaa"/><rect width="0.09615384615384616em" height="0.1377558263096263em" x="8.942307692307693vw" y="2.8622441736903736em" fill="#aaa"/><rect width="0.09615384615384616em" height="0.24409392229827193em" x="9.038461538461538vw" y="2.755906077701728em" fill="#aaa"/><rect width="0.09615384615384616em" height="0.1530106192346245em" x="9.134615384615385vw" y="2.8469893807653754em" fill="#aaa"/><rect width="0.09615384615384616em" height="0.08435630654907979em" x="9.230769230769232vw" y="2.91564369345092em" fill="#aaa"/><rect width="0.09615384615384616em" height="0.10956874097625377em" x="9.326923076923077vw" y="2.8904312590237464em" fill="#aaa"/><rect width="0.09615384615384616em" height="0.19149535450065994em" x="9.423076923076923vw" y="2.80850464549934em" fill="#aaa"/><rect width="0.09615384615384616em" height="0.10663386442170295em" x="9.51923076923077vw" y="2.893366135578297em" fill="#aaa"/><rect width="0.09615384615384616em" height="0.20230054499110736em" x="9.615384615384617vw" y="2.7976994550088925em" fill="#aaa"/><rect width="0.09615384615384616em" height="0.12050380779082323em" x="9.711538461538462vw" y="2.8794961922091766em" fill="#aaa"/><rect width="0.09615384615384616em" height="0.15407066180621204em" x="9.807692307692308vw" y="2.845929338193788em" fill="#aaa"/><rect width="0.09615384615384616em" height="0.10083118942858192em" x="9.903846153846155vw" y="2.899168810571418em" fill="#aaa"/></svg>