<?xml version="1.0" standalone="no"?>
<svg xmlns:xlink="http://www.w3.org/1999/xlink" xmlns="http://www.w3.org/2000/svg" class="topic-graph" style="width: 100em; height: 30em; text-align: center;"><rect width="0.9615384615384616em" height="4.649681394723825em" x="0em" y="25.350318605276176em" fill="#aaa"/><rect width="0.9615384615384616em" height="1.4160188161402993em" x="0.9615384615384616em" y="28.583981183859702em" fill="#aaa"/><rect width="0.9615384615384616em" height="11.968300186540032em" x="1.9230769230769231em" y="18.031699813459966em" fill="#aaa"/><rect width="0.9615384615384616em" height="4.78656847050411em" x="2.8846153846153846em" y="25.21343152949589em" fill="#aaa"/><rect width="0.9615384615384616em" height="2.418681716419298em" x="3.8461538461538463em" y="27.581318283580703em" fill="#aaa"/><rect width="0.9615384615384616em" height="0.8784452310758293em" x="4.8076923076923075em" y="29.12155476892417em" fill="#aaa"/><rect width="0.9615384615384616em" height="0.17259556258966777em" x="5.769230769230769em" y="29.827404437410333em" fill="#aaa"/><rect width="0.9615384615384616em" height="0.12293358550382466em" x="6.730769230769231em" y="29.877066414496177em" fill="#aaa"/><rect width="0.9615384615384616em" height="0.3873960985311191em" x="7.6923076923076925em" y="29.61260390146888em" fill="#aaa"/><rect width="0.9615384615384616em" height="0.3547322144767589em" x="8.653846153846153em" y="29.64526778552324em" fill="#aaa"/><rect width="0.9615384615384616em" height="0.3927315383066814em" x="9.615384615384615em" y="29.60726846169332em" fill="#aaa"/><rect width="0.9615384615384616em" height="9.467175332645294em" x="10.576923076923077em" y="20.532824667354706em" fill="#aaa"/><rect width="0.9615384615384616em" height="0.45043530228013917em" x="11.538461538461538em" y="29.549564697719862em" fill="#aaa"/><rect width="0.9615384615384616em" height="10.863769829657976em" x="12.5em" y="19.136230170342024em" fill="#aaa"/><rect width="0.9615384615384616em" height="18.62371270079335em" x="13.461538461538462em" y="11.376287299206648em" fill="#aaa"/><rect width="0.9615384615384616em" height="7.885345455127984em" x="14.423076923076923em" y="22.114654544872018em" fill="#aaa"/><rect width="0.9615384615384616em" height="3.6456046053899467em" x="15.384615384615385em" y="26.35439539461005em" fill="#aaa"/><rect width="0.9615384615384616em" height="1.0464335664319215em" x="16.346153846153847em" y="28.953566433568078em" fill="#aaa"/><rect width="0.9615384615384616em" height="3.0145282568813037em" x="17.307692307692307em" y="26.985471743118698em" fill="#aaa"/><rect width="0.9615384615384616em" height="2.6371244985848468em" x="18.26923076923077em" y="27.362875501415154em" fill="#aaa"/><rect width="0.9615384615384616em" height="2.277234707544969em" x="19.23076923076923em" y="27.72276529245503em" fill="#aaa"/><rect width="0.9615384615384616em" height="0.7786137808801493em" x="20.192307692307693em" y="29.22138621911985em" fill="#aaa"/><rect width="0.9615384615384616em" height="0.5878315228398681em" x="21.153846153846153em" y="29.412168477160133em" fill="#aaa"/><rect width="0.9615384615384616em" height="8.235242073693916em" x="22.115384615384617em" y="21.764757926306082em" fill="#aaa"/><rect width="0.9615384615384616em" height="17.536869807604095em" x="23.076923076923077em" y="12.463130192395905em" fill="#aaa"/><rect width="0.9615384615384616em" height="11.069156820428875em" x="24.03846153846154em" y="18.930843179571127em" fill="#aaa"/><rect width="0.9615384615384616em" height="9.149434581614955em" x="25em" y="20.850565418385045em" fill="#aaa"/><rect width="0.9615384615384616em" height="2.9284230518250407em" x="25.961538461538463em" y="27.071576948174958em" fill="#aaa"/><rect width="0.9615384615384616em" height="9.533560601723432em" x="26.923076923076923em" y="20.46643939827657em" fill="#aaa"/><rect width="0.9615384615384616em" height="4.291559850415672em" x="27.884615384615387em" y="25.708440149584327em" fill="#aaa"/><rect width="0.9615384615384616em" height="27.051249346600727em" x="28.846153846153847em" y="2.948750653399273em" fill="#aaa"/><rect width="0.9615384615384616em" height="16.52815348011584em" x="29.80769230769231em" y="13.47184651988416em" fill="#aaa"/><rect width="0.9615384615384616em" height="9.919967904348075em" x="30.76923076923077em" y="20.080032095651923em" fill="#aaa"/><rect width="0.9615384615384616em" height="14.851954734945494em" x="31.73076923076923em" y="15.148045265054506em" fill="#aaa"/><rect width="0.9615384615384616em" height="5.939471474136418em" x="32.69230769230769em" y="24.06052852586358em" fill="#aaa"/><rect width="0.9615384615384616em" height="2.146034370294391em" x="33.65384615384615em" y="27.85396562970561em" fill="#aaa"/><rect width="0.9615384615384616em" height="4.397756215146732em" x="34.61538461538461em" y="25.60224378485327em" fill="#aaa"/><rect width="0.9615384615384616em" height="3.9644908108000103em" x="35.57692307692308em" y="26.03550918919999em" fill="#aaa"/><rect width="0.9615384615384616em" height="2.4084310298548477em" x="36.53846153846154em" y="27.591568970145154em" fill="#aaa"/><rect width="0.9615384615384616em" height="2.222386809943064em" x="37.5em" y="27.777613190056936em" fill="#aaa"/><rect width="0.9615384615384616em" height="0.34133193786677435em" x="38.46153846153846em" y="29.658668062133227em" fill="#aaa"/><rect width="0.9615384615384616em" height="4.758077477398107em" x="39.42307692307693em" y="25.241922522601893em" fill="#aaa"/><rect width="0.9615384615384616em" height="3.2160028588329976em" x="40.38461538461539em" y="26.783997141167003em" fill="#aaa"/><rect width="0.9615384615384616em" height="3.6284076857223018em" x="41.34615384615385em" y="26.3715923142777em" fill="#aaa"/><rect width="0.9615384615384616em" height="3.431326104197262em" x="42.30769230769231em" y="26.56867389580274em" fill="#aaa"/><rect width="0.9615384615384616em" height="4.603505077640443em" x="43.269230769230774em" y="25.396494922359558em" fill="#aaa"/><rect width="0.9615384615384616em" height="0.20556730210001184em" x="44.23076923076923em" y="29.79443269789999em" fill="#aaa"/><rect width="0.9615384615384616em" height="13.153052298465148em" x="45.19230769230769em" y="16.84694770153485em" fill="#aaa"/><rect width="0.9615384615384616em" height="14.531364149990566em" x="46.15384615384615em" y="15.468635850009434em" fill="#aaa"/><rect width="0.9615384615384616em" height="10.440000802296131em" x="47.11538461538461em" y="19.559999197703867em" fill="#aaa"/><rect width="0.9615384615384616em" height="2.5180159066911285em" x="48.07692307692308em" y="27.48198409330887em" fill="#aaa"/><rect width="0.9615384615384616em" height="2.7746902876788964em" x="49.03846153846154em" y="27.225309712321103em" fill="#aaa"/><rect width="0.9615384615384616em" height="3.332385771366556em" x="50em" y="26.667614228633443em" fill="#aaa"/><rect width="0.9615384615384616em" height="8.709158601343066em" x="50.96153846153846em" y="21.290841398656934em" fill="#aaa"/><rect width="0.9615384615384616em" height="7.867369734396882em" x="51.92307692307693em" y="22.13263026560312em" fill="#aaa"/><rect width="0.9615384615384616em" height="6.877110192270969em" x="52.88461538461539em" y="23.12288980772903em" fill="#aaa"/><rect width="0.9615384615384616em" height="6.928793849343638em" x="53.84615384615385em" y="23.071206150656362em" fill="#aaa"/><rect width="0.9615384615384616em" height="6.833762598167138em" x="54.80769230769231em" y="23.166237401832863em" fill="#aaa"/><rect width="0.9615384615384616em" height="3.855863845565329em" x="55.769230769230774em" y="26.14413615443467em" fill="#aaa"/><rect width="0.9615384615384616em" height="1.7819267897519275em" x="56.73076923076923em" y="28.218073210248072em" fill="#aaa"/><rect width="0.9615384615384616em" height="4.212758778056737em" x="57.69230769230769em" y="25.787241221943262em" fill="#aaa"/><rect width="0.9615384615384616em" height="7.0151346827692285em" x="58.65384615384615em" y="22.98486531723077em" fill="#aaa"/><rect width="0.9615384615384616em" height="5.51903407850164em" x="59.61538461538462em" y="24.48096592149836em" fill="#aaa"/><rect width="0.9615384615384616em" height="8.203795204020949em" x="60.57692307692308em" y="21.79620479597905em" fill="#aaa"/><rect width="0.9615384615384616em" height="5.346006096539188em" x="61.53846153846154em" y="24.65399390346081em" fill="#aaa"/><rect width="0.9615384615384616em" height="8.133174944001562em" x="62.5em" y="21.86682505599844em" fill="#aaa"/><rect width="0.9615384615384616em" height="28.246146845376973em" x="63.46153846153846em" y="1.7538531546230267em" fill="#aaa"/><rect width="0.9615384615384616em" height="30em" x="64.42307692307692em" y="0em" fill="#aaa"/><rect width="0.9615384615384616em" height="4.394299179221706em" x="65.38461538461539em" y="25.605700820778296em" fill="#aaa"/><rect width="0.9615384615384616em" height="8.239767001011442em" x="66.34615384615385em" y="21.760232998988556em" fill="#aaa"/><rect width="0.9615384615384616em" height="2.7010359470607277em" x="67.3076923076923em" y="27.298964052939272em" fill="#aaa"/><rect width="0.9615384615384616em" height="0.9313474474893684em" x="68.26923076923077em" y="29.06865255251063em" fill="#aaa"/><rect width="0.9615384615384616em" height="4.157110650670737em" x="69.23076923076923em" y="25.842889349329262em" fill="#aaa"/><rect width="0.9615384615384616em" height="4.550211159077709em" x="70.1923076923077em" y="25.44978884092229em" fill="#aaa"/><rect width="0.9615384615384616em" height="2.017280522419494em" x="71.15384615384616em" y="27.982719477580506em" fill="#aaa"/><rect width="0.9615384615384616em" height="9.716864492406211em" x="72.11538461538461em" y="20.28313550759379em" fill="#aaa"/><rect width="0.9615384615384616em" height="2.920453851461662em" x="73.07692307692308em" y="27.079546148538338em" fill="#aaa"/><rect width="0.9615384615384616em" height="3.0301845079640946em" x="74.03846153846155em" y="26.969815492035906em" fill="#aaa"/><rect width="0.9615384615384616em" height="10.729025196417728em" x="75em" y="19.27097480358227em" fill="#aaa"/><rect width="0.9615384615384616em" height="4.477365534053355em" x="75.96153846153847em" y="25.522634465946645em" fill="#aaa"/><rect width="0.9615384615384616em" height="9.519247159130002em" x="76.92307692307692em" y="20.480752840869997em" fill="#aaa"/><rect width="0.9615384615384616em" height="12.70726371645534em" x="77.88461538461539em" y="17.29273628354466em" fill="#aaa"/><rect width="0.9615384615384616em" height="3.30803229091048em" x="78.84615384615385em" y="26.69196770908952em" fill="#aaa"/><rect width="0.9615384615384616em" height="3.267036747534066em" x="79.8076923076923em" y="26.732963252465936em" fill="#aaa"/><rect width="0.9615384615384616em" height="3.5396337240488394em" x="80.76923076923077em" y="26.46036627595116em" fill="#aaa"/><rect width="0.9615384615384616em" height="3.3665202937858636em" x="81.73076923076923em" y="26.633479706214136em" fill="#aaa"/><rect width="0.9615384615384616em" height="1.2211546976064356em" x="82.6923076923077em" y="28.778845302393563em" fill="#aaa"/><rect width="0.9615384615384616em" height="11.462481923404544em" x="83.65384615384616em" y="18.537518076595454em" fill="#aaa"/><rect width="0.9615384615384616em" height="2.7662004162095895em" x="84.61538461538461em" y="27.23379958379041em" fill="#aaa"/><rect width="0.9615384615384616em" height="2.268866721156577em" x="85.57692307692308em" y="27.731133278843423em" fill="#aaa"/><rect width="0.9615384615384616em" height="5.264837432270784em" x="86.53846153846155em" y="24.735162567729216em" fill="#aaa"/><rect width="0.9615384615384616em" height="4.010543038346207em" x="87.5em" y="25.989456961653794em" fill="#aaa"/><rect width="0.9615384615384616em" height="2.7932383000761853em" x="88.46153846153847em" y="27.206761699923813em" fill="#aaa"/><rect width="0.9615384615384616em" height="1.8727080135993721em" x="89.42307692307692em" y="28.12729198640063em" fill="#aaa"/><rect width="0.9615384615384616em" height="4.246136765067923em" x="90.38461538461539em" y="25.753863234932076em" fill="#aaa"/><rect width="0.9615384615384616em" height="1.4828123842093277em" x="91.34615384615385em" y="28.51718761579067em" fill="#aaa"/><rect width="0.9615384615384616em" height="1.6416313847383481em" x="92.3076923076923em" y="28.358368615261654em" fill="#aaa"/><rect width="0.9615384615384616em" height="2.0869922616289407em" x="93.26923076923077em" y="27.91300773837106em" fill="#aaa"/><rect width="0.9615384615384616em" height="1.0698585894496793em" x="94.23076923076923em" y="28.93014141055032em" fill="#aaa"/><rect width="0.9615384615384616em" height="1.766465423255361em" x="95.1923076923077em" y="28.23353457674464em" fill="#aaa"/><rect width="0.9615384615384616em" height="2.9185868605281042em" x="96.15384615384616em" y="27.081413139471895em" fill="#aaa"/><rect width="0.9615384615384616em" height="3.5127994560210363em" x="97.11538461538461em" y="26.487200543978965em" fill="#aaa"/><rect width="0.9615384615384616em" height="2.160534654031875em" x="98.07692307692308em" y="27.839465345968126em" fill="#aaa"/><rect width="0.9615384615384616em" height="1.4849139634924537em" x="99.03846153846155em" y="28.515086036507547em" fill="#aaa"/></svg>