<?xml version="1.0" standalone="no"?>
<svg xmlns:xlink="http://www.w3.org/1999/xlink" xmlns="http://www.w3.org/2000/svg" class="topic-graph" style="width: 100em; height: 30em; text-align: center;"><rect width="0.9615384615384616em" height="24.483012821569865em" x="0em" y="5.516987178430135em" fill="#aaa"/><rect width="0.9615384615384616em" height="12.468739164644852em" x="0.9615384615384616em" y="17.53126083535515em" fill="#aaa"/><rect width="0.9615384615384616em" height="20.665167679486935em" x="1.9230769230769231em" y="9.334832320513065em" fill="#aaa"/><rect width="0.9615384615384616em" height="11.839375665100118em" x="2.8846153846153846em" y="18.160624334899882em" fill="#aaa"/><rect width="0.9615384615384616em" height="11.828707232797873em" x="3.8461538461538463em" y="18.171292767202125em" fill="#aaa"/><rect width="0.9615384615384616em" height="18.61764683298072em" x="4.8076923076923075em" y="11.382353167019279em" fill="#aaa"/><rect width="0.9615384615384616em" height="17.455104320470163em" x="5.769230769230769em" y="12.544895679529837em" fill="#aaa"/><rect width="0.9615384615384616em" height="30em" x="6.730769230769231em" y="0em" fill="#aaa"/><rect width="0.9615384615384616em" height="14.935625402967222em" x="7.6923076923076925em" y="15.064374597032778em" fill="#aaa"/><rect width="0.9615384615384616em" height="20.270016131830463em" x="8.653846153846153em" y="9.729983868169537em" fill="#aaa"/><rect width="0.9615384615384616em" height="16.2489904764014em" x="9.615384615384615em" y="13.7510095235986em" fill="#aaa"/><rect width="0.9615384615384616em" height="9.619317299632428em" x="10.576923076923077em" y="20.380682700367572em" fill="#aaa"/><rect width="0.9615384615384616em" height="17.03791693542945em" x="11.538461538461538em" y="12.96208306457055em" fill="#aaa"/><rect width="0.9615384615384616em" height="12.889001583927064em" x="12.5em" y="17.11099841607294em" fill="#aaa"/><rect width="0.9615384615384616em" height="21.811949835737693em" x="13.461538461538462em" y="8.188050164262307em" fill="#aaa"/><rect width="0.9615384615384616em" height="14.127045399091537em" x="14.423076923076923em" y="15.872954600908463em" fill="#aaa"/><rect width="0.9615384615384616em" height="19.364836250791633em" x="15.384615384615385em" y="10.635163749208367em" fill="#aaa"/><rect width="0.9615384615384616em" height="22.062216515443502em" x="16.346153846153847em" y="7.937783484556498em" fill="#aaa"/><rect width="0.9615384615384616em" height="16.262942911912162em" x="17.307692307692307em" y="13.737057088087838em" fill="#aaa"/><rect width="0.9615384615384616em" height="17.928064086268453em" x="18.26923076923077em" y="12.071935913731547em" fill="#aaa"/><rect width="0.9615384615384616em" height="17.21128106958216em" x="19.23076923076923em" y="12.78871893041784em" fill="#aaa"/><rect width="0.9615384615384616em" height="10.464059942430918em" x="20.192307692307693em" y="19.535940057569082em" fill="#aaa"/><rect width="0.9615384615384616em" height="11.548526721909274em" x="21.153846153846153em" y="18.451473278090724em" fill="#aaa"/><rect width="0.9615384615384616em" height="14.629447306187688em" x="22.115384615384617em" y="15.370552693812312em" fill="#aaa"/><rect width="0.9615384615384616em" height="7.0104892349119226em" x="23.076923076923077em" y="22.989510765088077em" fill="#aaa"/><rect width="0.9615384615384616em" height="14.336676801401634em" x="24.03846153846154em" y="15.663323198598366em" fill="#aaa"/><rect width="0.9615384615384616em" height="12.000430462673872em" x="25em" y="17.999569537326128em" fill="#aaa"/><rect width="0.9615384615384616em" height="15.638341763242522em" x="25.961538461538463em" y="14.361658236757478em" fill="#aaa"/><rect width="0.9615384615384616em" height="17.541495029977828em" x="26.923076923076923em" y="12.458504970022172em" fill="#aaa"/><rect width="0.9615384615384616em" height="22.617774489159974em" x="27.884615384615387em" y="7.382225510840026em" fill="#aaa"/><rect width="0.9615384615384616em" height="14.90123406896419em" x="28.846153846153847em" y="15.09876593103581em" fill="#aaa"/><rect width="0.9615384615384616em" height="19.061641701718194em" x="29.80769230769231em" y="10.938358298281806em" fill="#aaa"/><rect width="0.9615384615384616em" height="21.502805127961803em" x="30.76923076923077em" y="8.497194872038197em" fill="#aaa"/><rect width="0.9615384615384616em" height="19.19571243697164em" x="31.73076923076923em" y="10.80428756302836em" fill="#aaa"/><rect width="0.9615384615384616em" height="16.077130416738413em" x="32.69230769230769em" y="13.922869583261587em" fill="#aaa"/><rect width="0.9615384615384616em" height="19.28243478958176em" x="33.65384615384615em" y="10.71756521041824em" fill="#aaa"/><rect width="0.9615384615384616em" height="15.917800400733157em" x="34.61538461538461em" y="14.082199599266843em" fill="#aaa"/><rect width="0.9615384615384616em" height="15.585752847581878em" x="35.57692307692308em" y="14.414247152418122em" fill="#aaa"/><rect width="0.9615384615384616em" height="12.843207943511166em" x="36.53846153846154em" y="17.156792056488833em" fill="#aaa"/><rect width="0.9615384615384616em" height="9.266509174702586em" x="37.5em" y="20.733490825297416em" fill="#aaa"/><rect width="0.9615384615384616em" height="13.939954680997158em" x="38.46153846153846em" y="16.060045319002842em" fill="#aaa"/><rect width="0.9615384615384616em" height="9.643267575434528em" x="39.42307692307693em" y="20.35673242456547em" fill="#aaa"/><rect width="0.9615384615384616em" height="11.923004137617246em" x="40.38461538461539em" y="18.076995862382752em" fill="#aaa"/><rect width="0.9615384615384616em" height="9.400458969357919em" x="41.34615384615385em" y="20.59954103064208em" fill="#aaa"/><rect width="0.9615384615384616em" height="13.61450257871834em" x="42.30769230769231em" y="16.38549742128166em" fill="#aaa"/><rect width="0.9615384615384616em" height="15.155221923718228em" x="43.269230769230774em" y="14.844778076281772em" fill="#aaa"/><rect width="0.9615384615384616em" height="17.56705537881272em" x="44.23076923076923em" y="12.432944621187278em" fill="#aaa"/><rect width="0.9615384615384616em" height="10.806046925181224em" x="45.19230769230769em" y="19.193953074818776em" fill="#aaa"/><rect width="0.9615384615384616em" height="8.413854359840679em" x="46.15384615384615em" y="21.586145640159323em" fill="#aaa"/><rect width="0.9615384615384616em" height="9.656745173842415em" x="47.11538461538461em" y="20.343254826157583em" fill="#aaa"/><rect width="0.9615384615384616em" height="12.594276403048568em" x="48.07692307692308em" y="17.405723596951432em" fill="#aaa"/><rect width="0.9615384615384616em" height="7.83521499669772em" x="49.03846153846154em" y="22.16478500330228em" fill="#aaa"/><rect width="0.9615384615384616em" height="9.556890583345874em" x="50em" y="20.443109416654124em" fill="#aaa"/><rect width="0.9615384615384616em" height="9.743545002490173em" x="50.96153846153846em" y="20.256454997509827em" fill="#aaa"/><rect width="0.9615384615384616em" height="10.506369274031918em" x="51.92307692307693em" y="19.49363072596808em" fill="#aaa"/><rect width="0.9615384615384616em" height="7.775099515512624em" x="52.88461538461539em" y="22.224900484487378em" fill="#aaa"/><rect width="0.9615384615384616em" height="9.45734586160948em" x="53.84615384615385em" y="20.542654138390517em" fill="#aaa"/><rect width="0.9615384615384616em" height="10.50578573057312em" x="54.80769230769231em" y="19.49421426942688em" fill="#aaa"/><rect width="0.9615384615384616em" height="7.390612866227492em" x="55.769230769230774em" y="22.609387133772508em" fill="#aaa"/><rect width="0.9615384615384616em" height="7.230263937840332em" x="56.73076923076923em" y="22.769736062159666em" fill="#aaa"/><rect width="0.9615384615384616em" height="9.249355093928255em" x="57.69230769230769em" y="20.750644906071745em" fill="#aaa"/><rect width="0.9615384615384616em" height="6.683499672850482em" x="58.65384615384615em" y="23.31650032714952em" fill="#aaa"/><rect width="0.9615384615384616em" height="6.217227199540584em" x="59.61538461538462em" y="23.782772800459416em" fill="#aaa"/><rect width="0.9615384615384616em" height="10.367940335247436em" x="60.57692307692308em" y="19.632059664752564em" fill="#aaa"/><rect width="0.9615384615384616em" height="8.985393761818809em" x="61.53846153846154em" y="21.01460623818119em" fill="#aaa"/><rect width="0.9615384615384616em" height="8.798980133109257em" x="62.5em" y="21.201019866890743em" fill="#aaa"/><rect width="0.9615384615384616em" height="8.067418836013477em" x="63.46153846153846em" y="21.932581163986523em" fill="#aaa"/><rect width="0.9615384615384616em" height="6.4905372853492755em" x="64.42307692307692em" y="23.509462714650724em" fill="#aaa"/><rect width="0.9615384615384616em" height="8.260816551630416em" x="65.38461538461539em" y="21.739183448369584em" fill="#aaa"/><rect width="0.9615384615384616em" height="7.8057970484043775em" x="66.34615384615385em" y="22.19420295159562em" fill="#aaa"/><rect width="0.9615384615384616em" height="7.320888869017124em" x="67.3076923076923em" y="22.679111130982875em" fill="#aaa"/><rect width="0.9615384615384616em" height="6.2703938317103765em" x="68.26923076923077em" y="23.729606168289624em" fill="#aaa"/><rect width="0.9615384615384616em" height="10.733898237048118em" x="69.23076923076923em" y="19.266101762951884em" fill="#aaa"/><rect width="0.9615384615384616em" height="6.77011022417431em" x="70.1923076923077em" y="23.22988977582569em" fill="#aaa"/><rect width="0.9615384615384616em" height="6.02295060728161em" x="71.15384615384616em" y="23.977049392718392em" fill="#aaa"/><rect width="0.9615384615384616em" height="4.776660460581779em" x="72.11538461538461em" y="25.22333953941822em" fill="#aaa"/><rect width="0.9615384615384616em" height="6.000722123461434em" x="73.07692307692308em" y="23.999277876538567em" fill="#aaa"/><rect width="0.9615384615384616em" height="6.721247655280935em" x="74.03846153846155em" y="23.278752344719067em" fill="#aaa"/><rect width="0.9615384615384616em" height="4.805709173814923em" x="75em" y="25.194290826185078em" fill="#aaa"/><rect width="0.9615384615384616em" height="4.049562108969974em" x="75.96153846153847em" y="25.950437891030028em" fill="#aaa"/><rect width="0.9615384615384616em" height="4.391178119502371em" x="76.92307692307692em" y="25.60882188049763em" fill="#aaa"/><rect width="0.9615384615384616em" height="4.834320821360169em" x="77.88461538461539em" y="25.16567917863983em" fill="#aaa"/><rect width="0.9615384615384616em" height="4.383309470511505em" x="78.84615384615385em" y="25.616690529488494em" fill="#aaa"/><rect width="0.9615384615384616em" height="4.381718109845563em" x="79.8076923076923em" y="25.618281890154435em" fill="#aaa"/><rect width="0.9615384615384616em" height="3.9547698230176604em" x="80.76923076923077em" y="26.04523017698234em" fill="#aaa"/><rect width="0.9615384615384616em" height="4.6132691646585275em" x="81.73076923076923em" y="25.386730835341474em" fill="#aaa"/><rect width="0.9615384615384616em" height="4.5277111568708905em" x="82.6923076923077em" y="25.47228884312911em" fill="#aaa"/><rect width="0.9615384615384616em" height="4.918608260323926em" x="83.65384615384616em" y="25.081391739676075em" fill="#aaa"/><rect width="0.9615384615384616em" height="4.2429393133597415em" x="84.61538461538461em" y="25.75706068664026em" fill="#aaa"/><rect width="0.9615384615384616em" height="4.268151682529655em" x="85.57692307692308em" y="25.731848317470345em" fill="#aaa"/><rect width="0.9615384615384616em" height="4.766875614679619em" x="86.53846153846155em" y="25.23312438532038em" fill="#aaa"/><rect width="0.9615384615384616em" height="3.8341247707471764em" x="87.5em" y="26.165875229252823em" fill="#aaa"/><rect width="0.9615384615384616em" height="3.3971717386903437em" x="88.46153846153847em" y="26.602828261309657em" fill="#aaa"/><rect width="0.9615384615384616em" height="3.108707843687542em" x="89.42307692307692em" y="26.89129215631246em" fill="#aaa"/><rect width="0.9615384615384616em" height="3.927158901894837em" x="90.38461538461539em" y="26.07284109810516em" fill="#aaa"/><rect width="0.9615384615384616em" height="3.600390721271005em" x="91.34615384615385em" y="26.399609278728995em" fill="#aaa"/><rect width="0.9615384615384616em" height="3.0700891879263468em" x="92.3076923076923em" y="26.929910812073654em" fill="#aaa"/><rect width="0.9615384615384616em" height="3.380904040652574em" x="93.26923076923077em" y="26.619095959347426em" fill="#aaa"/><rect width="0.9615384615384616em" height="3.5242644544313926em" x="94.23076923076923em" y="26.475735545568607em" fill="#aaa"/><rect width="0.9615384615384616em" height="3.1215744769182083em" x="95.1923076923077em" y="26.87842552308179em" fill="#aaa"/><rect width="0.9615384615384616em" height="3.4137180792329858em" x="96.15384615384616em" y="26.586281920767014em" fill="#aaa"/><rect width="0.9615384615384616em" height="2.9489939819493647em" x="97.11538461538461em" y="27.051006018050636em" fill="#aaa"/><rect width="0.9615384615384616em" height="2.951351005059594em" x="98.07692307692308em" y="27.048648994940407em" fill="#aaa"/><rect width="0.9615384615384616em" height="2.9562427555645256em" x="99.03846153846155em" y="27.043757244435476em" fill="#aaa"/></svg>