<?xml version="1.0" standalone="no"?>
<svg xmlns:xlink="http://www.w3.org/1999/xlink" xmlns="http://www.w3.org/2000/svg" class="topic-graph" style="width: 10vw; height: 3em; text-align: center;"><rect width="0.09615384615384616em" height="0.061437701106832054em" x="0vw" y="2.938562298893168em" fill="#aaa"/><rect width="0.09615384615384616em" height="0.32233801023214603em" x="0.09615384615384616vw" y="2.677661989767854em" fill="#aaa"/><rect width="0.09615384615384616em" height="0.299221911154559em" x="0.19230769230769232vw" y="2.700778088845441em" fill="#aaa"/><rect width="0.09615384615384616em" height="0.30255618624502334em" x="0.2884615384615385vw" y="2.6974438137549765em" fill="#aaa"/><rect width="0.09615384615384616em" height="0.3674655731445074em" x="0.38461538461538464vw" y="2.6325344268554924em" fill="#aaa"/><rect width="0.09615384615384616em" height="0.831131144103264em" x="0.4807692307692308vw" y="2.168868855896736em" fill="#aaa"/><rect width="0.09615384615384616em" height="0.3966143370002131em" x="0.576923076923077vw" y="2.603385662999787em" fill="#aaa"/><rect width="0.09615384615384616em" height="1.989252617132363em" x="0.6730769230769231vw" y="1.010747382867637em" fill="#aaa"/><rect width="0.09615384615384616em" height="0.4725322659923564em" x="0.7692307692307693vw" y="2.5274677340076437em" fill="#aaa"/><rect width="0.09615384615384616em" height="0.6957214600427402em" x="0.8653846153846154vw" y="2.30427853995726em" fill="#aaa"/><rect width="0.09615384615384616em" height="0.06815456628789081em" x="0.9615384615384616vw" y="2.9318454337121094em" fill="#aaa"/><rect width="0.09615384615384616em" height="0.1903686113560902em" x="1.0576923076923077vw" y="2.80963138864391em" fill="#aaa"/><rect width="0.09615384615384616em" height="0.5149882625457083em" x="1.153846153846154vw" y="2.4850117374542915em" fill="#aaa"/><rect width="0.09615384615384616em" height="0.17887000820045537em" x="1.25vw" y="2.8211299917995447em" fill="#aaa"/><rect width="0.09615384615384616em" height="0.4062066100218218em" x="1.3461538461538463vw" y="2.5937933899781784em" fill="#aaa"/><rect width="0.09615384615384616em" height="0.6345491364085852em" x="1.4423076923076923vw" y="2.365450863591415em" fill="#aaa"/><rect width="0.09615384615384616em" height="0.6224323144166136em" x="1.5384615384615385vw" y="2.3775676855833865em" fill="#aaa"/><rect width="0.09615384615384616em" height="0.5840431099295484em" x="1.6346153846153848vw" y="2.4159568900704516em" fill="#aaa"/><rect width="0.09615384615384616em" height="0.44259196916576904em" x="1.7307692307692308vw" y="2.557408030834231em" fill="#aaa"/><rect width="0.09615384615384616em" height="0.5536827202447374em" x="1.826923076923077vw" y="2.4463172797552626em" fill="#aaa"/><rect width="0.09615384615384616em" height="1.0509263639436282em" x="1.9230769230769231vw" y="1.9490736360563718em" fill="#aaa"/><rect width="0.09615384615384616em" height="0.45990962296886523em" x="2.019230769230769vw" y="2.540090377031135em" fill="#aaa"/><rect width="0.09615384615384616em" height="0.822476817356393em" x="2.1153846153846154vw" y="2.177523182643607em" fill="#aaa"/><rect width="0.09615384615384616em" height="0.9384973838663099em" x="2.2115384615384617vw" y="2.0615026161336902em" fill="#aaa"/><rect width="0.09615384615384616em" height="0.7944791440899498em" x="2.307692307692308vw" y="2.2055208559100503em" fill="#aaa"/><rect width="0.09615384615384616em" height="0.9414776283882008em" x="2.403846153846154vw" y="2.058522371611799em" fill="#aaa"/><rect width="0.09615384615384616em" height="0.5521830544837971em" x="2.5vw" y="2.4478169455162027em" fill="#aaa"/><rect width="0.09615384615384616em" height="0.6769674205308154em" x="2.5961538461538463vw" y="2.3230325794691846em" fill="#aaa"/><rect width="0.09615384615384616em" height="0.8395133302926849em" x="2.6923076923076925vw" y="2.160486669707315em" fill="#aaa"/><rect width="0.09615384615384616em" height="0.7563784632867508em" x="2.7884615384615388vw" y="2.243621536713249em" fill="#aaa"/><rect width="0.09615384615384616em" height="0.932600784831066em" x="2.8846153846153846vw" y="2.067399215168934em" fill="#aaa"/><rect width="0.09615384615384616em" height="0.5692845431325682em" x="2.980769230769231vw" y="2.430715456867432em" fill="#aaa"/><rect width="0.09615384615384616em" height="1.2922459298720548em" x="3.076923076923077vw" y="1.7077540701279452em" fill="#aaa"/><rect width="0.09615384615384616em" height="1.3599950395863982em" x="3.1730769230769234vw" y="1.6400049604136018em" fill="#aaa"/><rect width="0.09615384615384616em" height="1.0247821573238607em" x="3.2692307692307696vw" y="1.9752178426761393em" fill="#aaa"/><rect width="0.09615384615384616em" height="0.8138249683588098em" x="3.3653846153846154vw" y="2.18617503164119em" fill="#aaa"/><rect width="0.09615384615384616em" height="0.9510610059120829em" x="3.4615384615384617vw" y="2.048938994087917em" fill="#aaa"/><rect width="0.09615384615384616em" height="0.6917343017523119em" x="3.557692307692308vw" y="2.308265698247688em" fill="#aaa"/><rect width="0.09615384615384616em" height="1.220040176526658em" x="3.653846153846154vw" y="1.779959823473342em" fill="#aaa"/><rect width="0.09615384615384616em" height="1.1163913289822893em" x="3.75vw" y="1.8836086710177107em" fill="#aaa"/><rect width="0.09615384615384616em" height="1.4350436536736622em" x="3.8461538461538463vw" y="1.5649563463263378em" fill="#aaa"/><rect width="0.09615384615384616em" height="1.404570664998313em" x="3.9423076923076925vw" y="1.595429335001687em" fill="#aaa"/><rect width="0.09615384615384616em" height="1.1382708537236206em" x="4.038461538461538vw" y="1.8617291462763794em" fill="#aaa"/><rect width="0.09615384615384616em" height="1.120720723108788em" x="4.134615384615385vw" y="1.879279276891212em" fill="#aaa"/><rect width="0.09615384615384616em" height="1.1499362631406371em" x="4.230769230769231vw" y="1.8500637368593629em" fill="#aaa"/><rect width="0.09615384615384616em" height="1.2730068397602572em" x="4.3269230769230775vw" y="1.7269931602397428em" fill="#aaa"/><rect width="0.09615384615384616em" height="1.4797360838149638em" x="4.423076923076923vw" y="1.5202639161850362em" fill="#aaa"/><rect width="0.09615384615384616em" height="3em" x="4.519230769230769vw" y="0em" fill="#aaa"/><rect width="0.09615384615384616em" height="1.0969430857960947em" x="4.615384615384616vw" y="1.9030569142039053em" fill="#aaa"/><rect width="0.09615384615384616em" height="1.8777556621698315em" x="4.711538461538462vw" y="1.1222443378301685em" fill="#aaa"/><rect width="0.09615384615384616em" height="2.4481206216728784em" x="4.807692307692308vw" y="0.5518793783271216em" fill="#aaa"/><rect width="0.09615384615384616em" height="1.179048302252625em" x="4.903846153846154vw" y="1.820951697747375em" fill="#aaa"/><rect width="0.09615384615384616em" height="1.4919183836199692em" x="5vw" y="1.5080816163800308em" fill="#aaa"/><rect width="0.09615384615384616em" height="1.7168244829798693em" x="5.096153846153847vw" y="1.2831755170201307em" fill="#aaa"/><rect width="0.09615384615384616em" height="2.127648446860145em" x="5.1923076923076925vw" y="0.8723515531398549em" fill="#aaa"/><rect width="0.09615384615384616em" height="1.742052036164135em" x="5.288461538461538vw" y="1.257947963835865em" fill="#aaa"/><rect width="0.09615384615384616em" height="1.2537916447082595em" x="5.384615384615385vw" y="1.7462083552917405em" fill="#aaa"/><rect width="0.09615384615384616em" height="1.1579665466489866em" x="5.480769230769231vw" y="1.8420334533510134em" fill="#aaa"/><rect width="0.09615384615384616em" height="0.9109157891138815em" x="5.5769230769230775vw" y="2.0890842108861185em" fill="#aaa"/><rect width="0.09615384615384616em" height="1.713931047466017em" x="5.673076923076923vw" y="1.286068952533983em" fill="#aaa"/><rect width="0.09615384615384616em" height="0.6472784478959862em" x="5.769230769230769vw" y="2.352721552104014em" fill="#aaa"/><rect width="0.09615384615384616em" height="1.1019228633059468em" x="5.865384615384616vw" y="1.8980771366940532em" fill="#aaa"/><rect width="0.09615384615384616em" height="0.8363189769239412em" x="5.961538461538462vw" y="2.163681023076059em" fill="#aaa"/><rect width="0.09615384615384616em" height="1.7350286559782477em" x="6.057692307692308vw" y="1.2649713440217523em" fill="#aaa"/><rect width="0.09615384615384616em" height="1.0718360466906907em" x="6.153846153846154vw" y="1.9281639533093093em" fill="#aaa"/><rect width="0.09615384615384616em" height="0.9775684227691634em" x="6.25vw" y="2.0224315772308366em" fill="#aaa"/><rect width="0.09615384615384616em" height="1.560811914959064em" x="6.346153846153847vw" y="1.439188085040936em" fill="#aaa"/><rect width="0.09615384615384616em" height="1.1041690619924873em" x="6.4423076923076925vw" y="1.8958309380075127em" fill="#aaa"/><rect width="0.09615384615384616em" height="1.1084172722863261em" x="6.538461538461539vw" y="1.8915827277136739em" fill="#aaa"/><rect width="0.09615384615384616em" height="0.8146982580911952em" x="6.634615384615385vw" y="2.1853017419088046em" fill="#aaa"/><rect width="0.09615384615384616em" height="0.4430079587937902em" x="6.730769230769231vw" y="2.5569920412062097em" fill="#aaa"/><rect width="0.09615384615384616em" height="0.8800603113024259em" x="6.8269230769230775vw" y="2.119939688697574em" fill="#aaa"/><rect width="0.09615384615384616em" height="0.6939870060904474em" x="6.923076923076923vw" y="2.306012993909553em" fill="#aaa"/><rect width="0.09615384615384616em" height="0.8013838551489689em" x="7.01923076923077vw" y="2.198616144851031em" fill="#aaa"/><rect width="0.09615384615384616em" height="0.9013849936370908em" x="7.115384615384616vw" y="2.098615006362909em" fill="#aaa"/><rect width="0.09615384615384616em" height="0.5150683044214956em" x="7.211538461538462vw" y="2.4849316955785046em" fill="#aaa"/><rect width="0.09615384615384616em" height="0.6894356992392732em" x="7.307692307692308vw" y="2.310564300760727em" fill="#aaa"/><rect width="0.09615384615384616em" height="0.8489549286538814em" x="7.403846153846154vw" y="2.1510450713461187em" fill="#aaa"/><rect width="0.09615384615384616em" height="0.47511650599795524em" x="7.5vw" y="2.5248834940020446em" fill="#aaa"/><rect width="0.09615384615384616em" height="0.834125457973149em" x="7.596153846153847vw" y="2.165874542026851em" fill="#aaa"/><rect width="0.09615384615384616em" height="0.542126616663323em" x="7.6923076923076925vw" y="2.4578733833366773em" fill="#aaa"/><rect width="0.09615384615384616em" height="0.5004435825188697em" x="7.788461538461539vw" y="2.49955641748113em" fill="#aaa"/><rect width="0.09615384615384616em" height="0.42448558844617856em" x="7.884615384615385vw" y="2.5755144115538213em" fill="#aaa"/><rect width="0.09615384615384616em" height="0.37261624335339666em" x="7.980769230769231vw" y="2.627383756646603em" fill="#aaa"/><rect width="0.09615384615384616em" height="0.5257905190917356em" x="8.076923076923077vw" y="2.4742094809082644em" fill="#aaa"/><rect width="0.09615384615384616em" height="0.5304771137181856em" x="8.173076923076923vw" y="2.4695228862818146em" fill="#aaa"/><rect width="0.09615384615384616em" height="0.4328514322458904em" x="8.26923076923077vw" y="2.5671485677541095em" fill="#aaa"/><rect width="0.09615384615384616em" height="0.4292909026401469em" x="8.365384615384615vw" y="2.570709097359853em" fill="#aaa"/><rect width="0.09615384615384616em" height="0.4700729413015421em" x="8.461538461538462vw" y="2.529927058698458em" fill="#aaa"/><rect width="0.09615384615384616em" height="0.5749358105435456em" x="8.557692307692308vw" y="2.4250641894564544em" fill="#aaa"/><rect width="0.09615384615384616em" height="0.5149562890537346em" x="8.653846153846155vw" y="2.4850437109462655em" fill="#aaa"/><rect width="0.09615384615384616em" height="0.36552002116722304em" x="8.75vw" y="2.634479978832777em" fill="#aaa"/><rect width="0.09615384615384616em" height="0.5738506555359038em" x="8.846153846153847vw" y="2.426149344464096em" fill="#aaa"/><rect width="0.09615384615384616em" height="0.4799152545273525em" x="8.942307692307693vw" y="2.5200847454726474em" fill="#aaa"/><rect width="0.09615384615384616em" height="0.4081186577237252em" x="9.038461538461538vw" y="2.5918813422762748em" fill="#aaa"/><rect width="0.09615384615384616em" height="0.44134923142367827em" x="9.134615384615385vw" y="2.558650768576322em" fill="#aaa"/><rect width="0.09615384615384616em" height="0.39386958613767187em" x="9.230769230769232vw" y="2.6061304138623282em" fill="#aaa"/><rect width="0.09615384615384616em" height="0.37499406276055486em" x="9.326923076923077vw" y="2.625005937239445em" fill="#aaa"/><rect width="0.09615384615384616em" height="0.5664786980982239em" x="9.423076923076923vw" y="2.4335213019017763em" fill="#aaa"/><rect width="0.09615384615384616em" height="0.5399927658814883em" x="9.51923076923077vw" y="2.4600072341185117em" fill="#aaa"/><rect width="0.09615384615384616em" height="0.6516654240409576em" x="9.615384615384617vw" y="2.3483345759590426em" fill="#aaa"/><rect width="0.09615384615384616em" height="0.4411219657546316em" x="9.711538461538462vw" y="2.5588780342453683em" fill="#aaa"/><rect width="0.09615384615384616em" height="0.36603804998130335em" x="9.807692307692308vw" y="2.633961950018697em" fill="#aaa"/><rect width="0.09615384615384616em" height="0.34456428831435654em" x="9.903846153846155vw" y="2.6554357116856435em" fill="#aaa"/></svg>