<?xml version="1.0" standalone="no"?>
<svg xmlns:xlink="http://www.w3.org/1999/xlink" xmlns="http://www.w3.org/2000/svg" class="topic-graph" style="width: 10vw; height: 3em; text-align: center;"><rect width="0.09615384615384616em" height="1.2018996834749132em" x="0vw" y="1.7981003165250868em" fill="#aaa"/><rect width="0.09615384615384616em" height="0.2498381866522267em" x="0.09615384615384616vw" y="2.7501618133477734em" fill="#aaa"/><rect width="0.09615384615384616em" height="1.879700854611868em" x="0.19230769230769232vw" y="1.120299145388132em" fill="#aaa"/><rect width="0.09615384615384616em" height="2.9955492761977895em" x="0.2884615384615385vw" y="0.0044507238022104545em" fill="#aaa"/><rect width="0.09615384615384616em" height="2.316509117491858em" x="0.38461538461538464vw" y="0.683490882508142em" fill="#aaa"/><rect width="0.09615384615384616em" height="0.9783343009280631em" x="0.4807692307692308vw" y="2.021665699071937em" fill="#aaa"/><rect width="0.09615384615384616em" height="0.9249619379357521em" x="0.576923076923077vw" y="2.075038062064248em" fill="#aaa"/><rect width="0.09615384615384616em" height="0.16244868353668182em" x="0.6730769230769231vw" y="2.837551316463318em" fill="#aaa"/><rect width="0.09615384615384616em" height="0.8595388285619234em" x="0.7692307692307693vw" y="2.1404611714380763em" fill="#aaa"/><rect width="0.09615384615384616em" height="0.8014390977990593em" x="0.8653846153846154vw" y="2.1985609022009407em" fill="#aaa"/><rect width="0.09615384615384616em" height="3em" x="0.9615384615384616vw" y="0em" fill="#aaa"/><rect width="0.09615384615384616em" height="1.154694196394261em" x="1.0576923076923077vw" y="1.845305803605739em" fill="#aaa"/><rect width="0.09615384615384616em" height="1.538682439233975em" x="1.153846153846154vw" y="1.461317560766025em" fill="#aaa"/><rect width="0.09615384615384616em" height="1.1668099999824262em" x="1.25vw" y="1.8331900000175738em" fill="#aaa"/><rect width="0.09615384615384616em" height="2.1181388904722276em" x="1.3461538461538463vw" y="0.8818611095277724em" fill="#aaa"/><rect width="0.09615384615384616em" height="1.847334569453329em" x="1.4423076923076923vw" y="1.152665430546671em" fill="#aaa"/><rect width="0.09615384615384616em" height="0.7518635468958863em" x="1.5384615384615385vw" y="2.248136453104114em" fill="#aaa"/><rect width="0.09615384615384616em" height="1.3062319231518695em" x="1.6346153846153848vw" y="1.6937680768481305em" fill="#aaa"/><rect width="0.09615384615384616em" height="2.0621840421270545em" x="1.7307692307692308vw" y="0.9378159578729455em" fill="#aaa"/><rect width="0.09615384615384616em" height="2.284455712114007em" x="1.826923076923077vw" y="0.7155442878859928em" fill="#aaa"/><rect width="0.09615384615384616em" height="0.6549618864656623em" x="1.9230769230769231vw" y="2.3450381135343377em" fill="#aaa"/><rect width="0.09615384615384616em" height="0.11213027327437741em" x="2.019230769230769vw" y="2.8878697267256226em" fill="#aaa"/><rect width="0.09615384615384616em" height="0.34649784141903917em" x="2.1153846153846154vw" y="2.653502158580961em" fill="#aaa"/><rect width="0.09615384615384616em" height="0.6918676782392552em" x="2.2115384615384617vw" y="2.308132321760745em" fill="#aaa"/><rect width="0.09615384615384616em" height="1.976990483353652em" x="2.307692307692308vw" y="1.023009516646348em" fill="#aaa"/><rect width="0.09615384615384616em" height="0.1594360714060764em" x="2.403846153846154vw" y="2.8405639285939235em" fill="#aaa"/><rect width="0.09615384615384616em" height="0.16642217997956726em" x="2.5vw" y="2.833577820020433em" fill="#aaa"/><rect width="0.09615384615384616em" height="0.07696906485387638em" x="2.5961538461538463vw" y="2.9230309351461234em" fill="#aaa"/><rect width="0.09615384615384616em" height="0.23327555737344624em" x="2.6923076923076925vw" y="2.7667244426265536em" fill="#aaa"/><rect width="0.09615384615384616em" height="0.10824859106834214em" x="2.7884615384615388vw" y="2.891751408931658em" fill="#aaa"/><rect width="0.09615384615384616em" height="0.08921084181587396em" x="2.8846153846153846vw" y="2.910789158184126em" fill="#aaa"/><rect width="0.09615384615384616em" height="0.17382328661090185em" x="2.980769230769231vw" y="2.8261767133890983em" fill="#aaa"/><rect width="0.09615384615384616em" height="0.16237175351535996em" x="3.076923076923077vw" y="2.83762824648464em" fill="#aaa"/><rect width="0.09615384615384616em" height="0.30120227000428096em" x="3.1730769230769234vw" y="2.698797729995719em" fill="#aaa"/><rect width="0.09615384615384616em" height="0.17960648430499815em" x="3.2692307692307696vw" y="2.820393515695002em" fill="#aaa"/><rect width="0.09615384615384616em" height="0.3997300063290629em" x="3.3653846153846154vw" y="2.600269993670937em" fill="#aaa"/><rect width="0.09615384615384616em" height="0.40646184764187165em" x="3.4615384615384617vw" y="2.5935381523581285em" fill="#aaa"/><rect width="0.09615384615384616em" height="0.3030148364627683em" x="3.557692307692308vw" y="2.6969851635372315em" fill="#aaa"/><rect width="0.09615384615384616em" height="0.13654874876716258em" x="3.653846153846154vw" y="2.8634512512328376em" fill="#aaa"/><rect width="0.09615384615384616em" height="0.017197658241344803em" x="3.75vw" y="2.982802341758655em" fill="#aaa"/><rect width="0.09615384615384616em" height="0.04745550825899484em" x="3.8461538461538463vw" y="2.9525444917410053em" fill="#aaa"/><rect width="0.09615384615384616em" height="0.21439251785330377em" x="3.9423076923076925vw" y="2.785607482146696em" fill="#aaa"/><rect width="0.09615384615384616em" height="0.17699558426126258em" x="4.038461538461538vw" y="2.8230044157387373em" fill="#aaa"/><rect width="0.09615384615384616em" height="0.2500893502150305em" x="4.134615384615385vw" y="2.7499106497849697em" fill="#aaa"/><rect width="0.09615384615384616em" height="0.23452653176346655em" x="4.230769230769231vw" y="2.7654734682365336em" fill="#aaa"/><rect width="0.09615384615384616em" height="0.0828881943087627em" x="4.3269230769230775vw" y="2.9171118056912375em" fill="#aaa"/><rect width="0.09615384615384616em" height="0.12075779122355863em" x="4.423076923076923vw" y="2.8792422087764415em" fill="#aaa"/><rect width="0.09615384615384616em" height="0.05823558767725258em" x="4.519230769230769vw" y="2.9417644123227475em" fill="#aaa"/><rect width="0.09615384615384616em" height="0.20565484467987122em" x="4.615384615384616vw" y="2.7943451553201286em" fill="#aaa"/><rect width="0.09615384615384616em" height="0.32417577427906963em" x="4.711538461538462vw" y="2.6758242257209304em" fill="#aaa"/><rect width="0.09615384615384616em" height="0.5163269315859972em" x="4.807692307692308vw" y="2.483673068414003em" fill="#aaa"/><rect width="0.09615384615384616em" height="0.24059776493482732em" x="4.903846153846154vw" y="2.759402235065173em" fill="#aaa"/><rect width="0.09615384615384616em" height="0.265418178969625em" x="5vw" y="2.734581821030375em" fill="#aaa"/><rect width="0.09615384615384616em" height="0.40604883414956694em" x="5.096153846153847vw" y="2.593951165850433em" fill="#aaa"/><rect width="0.09615384615384616em" height="0.4256130633003647em" x="5.1923076923076925vw" y="2.5743869366996353em" fill="#aaa"/><rect width="0.09615384615384616em" height="0.3784976080546808em" x="5.288461538461538vw" y="2.6215023919453193em" fill="#aaa"/><rect width="0.09615384615384616em" height="0.37455407566190624em" x="5.384615384615385vw" y="2.6254459243380937em" fill="#aaa"/><rect width="0.09615384615384616em" height="0.2468114738697782em" x="5.480769230769231vw" y="2.753188526130222em" fill="#aaa"/><rect width="0.09615384615384616em" height="0.21237875698452266em" x="5.5769230769230775vw" y="2.787621243015477em" fill="#aaa"/><rect width="0.09615384615384616em" height="0.13336769948801314em" x="5.673076923076923vw" y="2.866632300511987em" fill="#aaa"/><rect width="0.09615384615384616em" height="0.19941467124741413em" x="5.769230769230769vw" y="2.800585328752586em" fill="#aaa"/><rect width="0.09615384615384616em" height="0.15772698110064126em" x="5.865384615384616vw" y="2.8422730188993586em" fill="#aaa"/><rect width="0.09615384615384616em" height="0.20714317204768712em" x="5.961538461538462vw" y="2.792856827952313em" fill="#aaa"/><rect width="0.09615384615384616em" height="0.06921732695633567em" x="6.057692307692308vw" y="2.930782673043664em" fill="#aaa"/><rect width="0.09615384615384616em" height="0.1748596890603188em" x="6.153846153846154vw" y="2.8251403109396813em" fill="#aaa"/><rect width="0.09615384615384616em" height="0.24700755138688807em" x="6.25vw" y="2.752992448613112em" fill="#aaa"/><rect width="0.09615384615384616em" height="0.2014241922787803em" x="6.346153846153847vw" y="2.7985758077212197em" fill="#aaa"/><rect width="0.09615384615384616em" height="0.0715977703545301em" x="6.4423076923076925vw" y="2.92840222964547em" fill="#aaa"/><rect width="0.09615384615384616em" height="0.08048573883949763em" x="6.538461538461539vw" y="2.9195142611605025em" fill="#aaa"/><rect width="0.09615384615384616em" height="0.18996435386594732em" x="6.634615384615385vw" y="2.8100356461340525em" fill="#aaa"/><rect width="0.09615384615384616em" height="0.2950491262086073em" x="6.730769230769231vw" y="2.7049508737913928em" fill="#aaa"/><rect width="0.09615384615384616em" height="0.3086950982679007em" x="6.8269230769230775vw" y="2.6913049017320994em" fill="#aaa"/><rect width="0.09615384615384616em" height="0.244207820384245em" x="6.923076923076923vw" y="2.755792179615755em" fill="#aaa"/><rect width="0.09615384615384616em" height="0.3050666043564668em" x="7.01923076923077vw" y="2.6949333956435333em" fill="#aaa"/><rect width="0.09615384615384616em" height="0.45847483070313794em" x="7.115384615384616vw" y="2.541525169296862em" fill="#aaa"/><rect width="0.09615384615384616em" height="0.27738590079200787em" x="7.211538461538462vw" y="2.722614099207992em" fill="#aaa"/><rect width="0.09615384615384616em" height="0.1393763306585727em" x="7.307692307692308vw" y="2.860623669341427em" fill="#aaa"/><rect width="0.09615384615384616em" height="0.16908096749165505em" x="7.403846153846154vw" y="2.830919032508345em" fill="#aaa"/><rect width="0.09615384615384616em" height="0.22407831585106694em" x="7.5vw" y="2.775921684148933em" fill="#aaa"/><rect width="0.09615384615384616em" height="0.09459089975594825em" x="7.596153846153847vw" y="2.905409100244052em" fill="#aaa"/><rect width="0.09615384615384616em" height="0.20477244219813212em" x="7.6923076923076925vw" y="2.795227557801868em" fill="#aaa"/><rect width="0.09615384615384616em" height="0.12612236723072717em" x="7.788461538461539vw" y="2.8738776327692728em" fill="#aaa"/><rect width="0.09615384615384616em" height="0.1579366884963615em" x="7.884615384615385vw" y="2.8420633115036384em" fill="#aaa"/><rect width="0.09615384615384616em" height="0.11729977695149138em" x="7.980769230769231vw" y="2.882700223048509em" fill="#aaa"/><rect width="0.09615384615384616em" height="0.1826005649967452em" x="8.076923076923077vw" y="2.8173994350032547em" fill="#aaa"/><rect width="0.09615384615384616em" height="0.12660679641996792em" x="8.173076923076923vw" y="2.873393203580032em" fill="#aaa"/><rect width="0.09615384615384616em" height="0.17452180530201325em" x="8.26923076923077vw" y="2.8254781946979866em" fill="#aaa"/><rect width="0.09615384615384616em" height="0.148755767605874em" x="8.365384615384615vw" y="2.851244232394126em" fill="#aaa"/><rect width="0.09615384615384616em" height="0.1393102720923704em" x="8.461538461538462vw" y="2.8606897279076295em" fill="#aaa"/><rect width="0.09615384615384616em" height="0.14612386779167483em" x="8.557692307692308vw" y="2.8538761322083253em" fill="#aaa"/><rect width="0.09615384615384616em" height="0.17100913307709487em" x="8.653846153846155vw" y="2.828990866922905em" fill="#aaa"/><rect width="0.09615384615384616em" height="0.18762154934525516em" x="8.75vw" y="2.812378450654745em" fill="#aaa"/><rect width="0.09615384615384616em" height="0.2458324037524879em" x="8.846153846153847vw" y="2.754167596247512em" fill="#aaa"/><rect width="0.09615384615384616em" height="0.24188745705488335em" x="8.942307692307693vw" y="2.7581125429451165em" fill="#aaa"/><rect width="0.09615384615384616em" height="0.15531505859519398em" x="9.038461538461538vw" y="2.844684941404806em" fill="#aaa"/><rect width="0.09615384615384616em" height="0.22345027467226605em" x="9.134615384615385vw" y="2.776549725327734em" fill="#aaa"/><rect width="0.09615384615384616em" height="0.19020410276213862em" x="9.230769230769232vw" y="2.809795897237861em" fill="#aaa"/><rect width="0.09615384615384616em" height="0.18196059407980958em" x="9.326923076923077vw" y="2.8180394059201905em" fill="#aaa"/><rect width="0.09615384615384616em" height="0.14088869312362534em" x="9.423076923076923vw" y="2.8591113068763745em" fill="#aaa"/><rect width="0.09615384615384616em" height="0.3604937373129378em" x="9.51923076923077vw" y="2.6395062626870622em" fill="#aaa"/><rect width="0.09615384615384616em" height="0.42155331741646884em" x="9.615384615384617vw" y="2.578446682583531em" fill="#aaa"/><rect width="0.09615384615384616em" height="0.11987920977080811em" x="9.711538461538462vw" y="2.880120790229192em" fill="#aaa"/><rect width="0.09615384615384616em" height="0.2589125405330821em" x="9.807692307692308vw" y="2.741087459466918em" fill="#aaa"/><rect width="0.09615384615384616em" height="0.2403713423630273em" x="9.903846153846155vw" y="2.7596286576369726em" fill="#aaa"/></svg>