<?xml version="1.0" standalone="no"?>
<svg xmlns:xlink="http://www.w3.org/1999/xlink" xmlns="http://www.w3.org/2000/svg" class="topic-graph" style="width: 10vw; height: 3em; text-align: center;"><rect width="0.09615384615384616em" height="0.044885513275036176em" x="0vw" y="2.955114486724964em" fill="#aaa"/><rect width="0.09615384615384616em" height="0.07506291871187444em" x="0.09615384615384616vw" y="2.9249370812881255em" fill="#aaa"/><rect width="0.09615384615384616em" height="0.14168062158387984em" x="0.19230769230769232vw" y="2.85831937841612em" fill="#aaa"/><rect width="0.09615384615384616em" height="0.22890742894191618em" x="0.2884615384615385vw" y="2.771092571058084em" fill="#aaa"/><rect width="0.09615384615384616em" height="0.09362960744817432em" x="0.38461538461538464vw" y="2.9063703925518256em" fill="#aaa"/><rect width="0.09615384615384616em" height="0.6375981556680501em" x="0.4807692307692308vw" y="2.36240184433195em" fill="#aaa"/><rect width="0.09615384615384616em" height="1.8065082153927214em" x="0.576923076923077vw" y="1.1934917846072786em" fill="#aaa"/><rect width="0.09615384615384616em" height="0.024095364247807116em" x="0.6730769230769231vw" y="2.975904635752193em" fill="#aaa"/><rect width="0.09615384615384616em" height="0.5569682111414862em" x="0.7692307692307693vw" y="2.443031788858514em" fill="#aaa"/><rect width="0.09615384615384616em" height="1.21075696558492em" x="0.8653846153846154vw" y="1.78924303441508em" fill="#aaa"/><rect width="0.09615384615384616em" height="0.37297512975818614em" x="0.9615384615384616vw" y="2.6270248702418137em" fill="#aaa"/><rect width="0.09615384615384616em" height="0.5747792276209038em" x="1.0576923076923077vw" y="2.425220772379096em" fill="#aaa"/><rect width="0.09615384615384616em" height="1.4954924357077197em" x="1.153846153846154vw" y="1.5045075642922803em" fill="#aaa"/><rect width="0.09615384615384616em" height="3em" x="1.25vw" y="0em" fill="#aaa"/><rect width="0.09615384615384616em" height="2.901194373037593em" x="1.3461538461538463vw" y="0.09880562696240691em" fill="#aaa"/><rect width="0.09615384615384616em" height="2.055232817839416em" x="1.4423076923076923vw" y="0.9447671821605841em" fill="#aaa"/><rect width="0.09615384615384616em" height="1.370308627685338em" x="1.5384615384615385vw" y="1.629691372314662em" fill="#aaa"/><rect width="0.09615384615384616em" height="1.4018456141728022em" x="1.6346153846153848vw" y="1.5981543858271978em" fill="#aaa"/><rect width="0.09615384615384616em" height="1.8840767697927738em" x="1.7307692307692308vw" y="1.1159232302072262em" fill="#aaa"/><rect width="0.09615384615384616em" height="0.4371125494980329em" x="1.826923076923077vw" y="2.562887450501967em" fill="#aaa"/><rect width="0.09615384615384616em" height="1.4050582629813222em" x="1.9230769230769231vw" y="1.5949417370186778em" fill="#aaa"/><rect width="0.09615384615384616em" height="0.37494024283329863em" x="2.019230769230769vw" y="2.625059757166701em" fill="#aaa"/><rect width="0.09615384615384616em" height="0.708326503329928em" x="2.1153846153846154vw" y="2.291673496670072em" fill="#aaa"/><rect width="0.09615384615384616em" height="0.4162125921642836em" x="2.2115384615384617vw" y="2.5837874078357164em" fill="#aaa"/><rect width="0.09615384615384616em" height="1.1143653138187637em" x="2.307692307692308vw" y="1.8856346861812363em" fill="#aaa"/><rect width="0.09615384615384616em" height="0.3808400886140955em" x="2.403846153846154vw" y="2.6191599113859043em" fill="#aaa"/><rect width="0.09615384615384616em" height="0.35641931595783366em" x="2.5vw" y="2.6435806840421665em" fill="#aaa"/><rect width="0.09615384615384616em" height="0.5157550601071725em" x="2.5961538461538463vw" y="2.4842449398928275em" fill="#aaa"/><rect width="0.09615384615384616em" height="0.31904519780718693em" x="2.6923076923076925vw" y="2.680954802192813em" fill="#aaa"/><rect width="0.09615384615384616em" height="0.8544849151778247em" x="2.7884615384615388vw" y="2.1455150848221756em" fill="#aaa"/><rect width="0.09615384615384616em" height="0.53169053891938em" x="2.8846153846153846vw" y="2.46830946108062em" fill="#aaa"/><rect width="0.09615384615384616em" height="0.6746244335053706em" x="2.980769230769231vw" y="2.325375566494629em" fill="#aaa"/><rect width="0.09615384615384616em" height="0.8566069455451313em" x="3.076923076923077vw" y="2.1433930544548687em" fill="#aaa"/><rect width="0.09615384615384616em" height="1.0177565159911666em" x="3.1730769230769234vw" y="1.9822434840088334em" fill="#aaa"/><rect width="0.09615384615384616em" height="0.3582381444638874em" x="3.2692307692307696vw" y="2.6417618555361124em" fill="#aaa"/><rect width="0.09615384615384616em" height="1.0732966358993314em" x="3.3653846153846154vw" y="1.9267033641006686em" fill="#aaa"/><rect width="0.09615384615384616em" height="0.5384629050418683em" x="3.4615384615384617vw" y="2.461537094958132em" fill="#aaa"/><rect width="0.09615384615384616em" height="0.7208730657505176em" x="3.557692307692308vw" y="2.2791269342494824em" fill="#aaa"/><rect width="0.09615384615384616em" height="0.7131785456143417em" x="3.653846153846154vw" y="2.286821454385658em" fill="#aaa"/><rect width="0.09615384615384616em" height="0.8740595321683902em" x="3.75vw" y="2.12594046783161em" fill="#aaa"/><rect width="0.09615384615384616em" height="0.7628780204732466em" x="3.8461538461538463vw" y="2.237121979526753em" fill="#aaa"/><rect width="0.09615384615384616em" height="0.8600400390959402em" x="3.9423076923076925vw" y="2.1399599609040596em" fill="#aaa"/><rect width="0.09615384615384616em" height="1.0973888250518438em" x="4.038461538461538vw" y="1.9026111749481562em" fill="#aaa"/><rect width="0.09615384615384616em" height="1.1782670567259173em" x="4.134615384615385vw" y="1.8217329432740827em" fill="#aaa"/><rect width="0.09615384615384616em" height="0.645498581316807em" x="4.230769230769231vw" y="2.354501418683193em" fill="#aaa"/><rect width="0.09615384615384616em" height="0.6422054451657757em" x="4.3269230769230775vw" y="2.357794554834224em" fill="#aaa"/><rect width="0.09615384615384616em" height="0.4013104871845905em" x="4.423076923076923vw" y="2.5986895128154095em" fill="#aaa"/><rect width="0.09615384615384616em" height="0.5585624691102788em" x="4.519230769230769vw" y="2.441437530889721em" fill="#aaa"/><rect width="0.09615384615384616em" height="0.8243623873446985em" x="4.615384615384616vw" y="2.1756376126553016em" fill="#aaa"/><rect width="0.09615384615384616em" height="0.8117502091432436em" x="4.711538461538462vw" y="2.1882497908567564em" fill="#aaa"/><rect width="0.09615384615384616em" height="0.25588566379787936em" x="4.807692307692308vw" y="2.7441143362021205em" fill="#aaa"/><rect width="0.09615384615384616em" height="0.611215700293889em" x="4.903846153846154vw" y="2.388784299706111em" fill="#aaa"/><rect width="0.09615384615384616em" height="1.1808063347870106em" x="5vw" y="1.8191936652129894em" fill="#aaa"/><rect width="0.09615384615384616em" height="0.6338171278642515em" x="5.096153846153847vw" y="2.3661828721357487em" fill="#aaa"/><rect width="0.09615384615384616em" height="0.5244597852359401em" x="5.1923076923076925vw" y="2.47554021476406em" fill="#aaa"/><rect width="0.09615384615384616em" height="0.6362259844194097em" x="5.288461538461538vw" y="2.3637740155805904em" fill="#aaa"/><rect width="0.09615384615384616em" height="0.5012071548020353em" x="5.384615384615385vw" y="2.498792845197965em" fill="#aaa"/><rect width="0.09615384615384616em" height="0.47808348618699326em" x="5.480769230769231vw" y="2.521916513813007em" fill="#aaa"/><rect width="0.09615384615384616em" height="0.6290272156982867em" x="5.5769230769230775vw" y="2.3709727843017134em" fill="#aaa"/><rect width="0.09615384615384616em" height="0.4580766313530943em" x="5.673076923076923vw" y="2.5419233686469056em" fill="#aaa"/><rect width="0.09615384615384616em" height="0.6951809233618665em" x="5.769230769230769vw" y="2.3048190766381333em" fill="#aaa"/><rect width="0.09615384615384616em" height="0.6990083205119401em" x="5.865384615384616vw" y="2.30099167948806em" fill="#aaa"/><rect width="0.09615384615384616em" height="0.4452607512653033em" x="5.961538461538462vw" y="2.5547392487346965em" fill="#aaa"/><rect width="0.09615384615384616em" height="0.64927208518589em" x="6.057692307692308vw" y="2.35072791481411em" fill="#aaa"/><rect width="0.09615384615384616em" height="0.9371758495851534em" x="6.153846153846154vw" y="2.062824150414847em" fill="#aaa"/><rect width="0.09615384615384616em" height="0.6939846439197259em" x="6.25vw" y="2.306015356080274em" fill="#aaa"/><rect width="0.09615384615384616em" height="0.6305268008724734em" x="6.346153846153847vw" y="2.3694731991275266em" fill="#aaa"/><rect width="0.09615384615384616em" height="0.8884766145247471em" x="6.4423076923076925vw" y="2.1115233854752526em" fill="#aaa"/><rect width="0.09615384615384616em" height="0.599166452529255em" x="6.538461538461539vw" y="2.4008335474707447em" fill="#aaa"/><rect width="0.09615384615384616em" height="0.5428407056847565em" x="6.634615384615385vw" y="2.4571592943152436em" fill="#aaa"/><rect width="0.09615384615384616em" height="0.6872559401678098em" x="6.730769230769231vw" y="2.3127440598321902em" fill="#aaa"/><rect width="0.09615384615384616em" height="0.5055308330049625em" x="6.8269230769230775vw" y="2.4944691669950374em" fill="#aaa"/><rect width="0.09615384615384616em" height="0.5558872206428154em" x="6.923076923076923vw" y="2.4441127793571846em" fill="#aaa"/><rect width="0.09615384615384616em" height="0.2598912294888692em" x="7.01923076923077vw" y="2.7401087705111307em" fill="#aaa"/><rect width="0.09615384615384616em" height="0.4365702177867784em" x="7.115384615384616vw" y="2.5634297822132215em" fill="#aaa"/><rect width="0.09615384615384616em" height="0.2765028482843575em" x="7.211538461538462vw" y="2.7234971517156423em" fill="#aaa"/><rect width="0.09615384615384616em" height="0.9724978462022776em" x="7.307692307692308vw" y="2.0275021537977223em" fill="#aaa"/><rect width="0.09615384615384616em" height="0.41946628024140425em" x="7.403846153846154vw" y="2.580533719758596em" fill="#aaa"/><rect width="0.09615384615384616em" height="0.869640919811171em" x="7.5vw" y="2.1303590801888292em" fill="#aaa"/><rect width="0.09615384615384616em" height="1.1092570987781998em" x="7.596153846153847vw" y="1.8907429012218002em" fill="#aaa"/><rect width="0.09615384615384616em" height="1.852301979233275em" x="7.6923076923076925vw" y="1.147698020766725em" fill="#aaa"/><rect width="0.09615384615384616em" height="0.6451704644044268em" x="7.788461538461539vw" y="2.3548295355955733em" fill="#aaa"/><rect width="0.09615384615384616em" height="0.9007669782992359em" x="7.884615384615385vw" y="2.099233021700764em" fill="#aaa"/><rect width="0.09615384615384616em" height="0.854772969816002em" x="7.980769230769231vw" y="2.1452270301839977em" fill="#aaa"/><rect width="0.09615384615384616em" height="0.7041644691365685em" x="8.076923076923077vw" y="2.2958355308634317em" fill="#aaa"/><rect width="0.09615384615384616em" height="0.5869676451952762em" x="8.173076923076923vw" y="2.4130323548047237em" fill="#aaa"/><rect width="0.09615384615384616em" height="0.6879332851322368em" x="8.26923076923077vw" y="2.312066714867763em" fill="#aaa"/><rect width="0.09615384615384616em" height="0.35553930002389084em" x="8.365384615384615vw" y="2.644460699976109em" fill="#aaa"/><rect width="0.09615384615384616em" height="0.45825305655901516em" x="8.461538461538462vw" y="2.5417469434409847em" fill="#aaa"/><rect width="0.09615384615384616em" height="0.6243701025921624em" x="8.557692307692308vw" y="2.375629897407838em" fill="#aaa"/><rect width="0.09615384615384616em" height="0.4696665808275527em" x="8.653846153846155vw" y="2.530333419172447em" fill="#aaa"/><rect width="0.09615384615384616em" height="0.4284732901622884em" x="8.75vw" y="2.5715267098377117em" fill="#aaa"/><rect width="0.09615384615384616em" height="0.36613933651365543em" x="8.846153846153847vw" y="2.6338606634863444em" fill="#aaa"/><rect width="0.09615384615384616em" height="0.37203031039583756em" x="8.942307692307693vw" y="2.6279696896041624em" fill="#aaa"/><rect width="0.09615384615384616em" height="0.6237942110314163em" x="9.038461538461538vw" y="2.3762057889685835em" fill="#aaa"/><rect width="0.09615384615384616em" height="0.33661728698506194em" x="9.134615384615385vw" y="2.663382713014938em" fill="#aaa"/><rect width="0.09615384615384616em" height="0.30132767022217033em" x="9.230769230769232vw" y="2.6986723297778297em" fill="#aaa"/><rect width="0.09615384615384616em" height="0.3598943838803415em" x="9.326923076923077vw" y="2.6401056161196585em" fill="#aaa"/><rect width="0.09615384615384616em" height="0.2311622269006331em" x="9.423076923076923vw" y="2.7688377730993667em" fill="#aaa"/><rect width="0.09615384615384616em" height="0.31381435477683217em" x="9.51923076923077vw" y="2.686185645223168em" fill="#aaa"/><rect width="0.09615384615384616em" height="0.4277955607487031em" x="9.615384615384617vw" y="2.572204439251297em" fill="#aaa"/><rect width="0.09615384615384616em" height="0.3985527054139767em" x="9.711538461538462vw" y="2.6014472945860234em" fill="#aaa"/><rect width="0.09615384615384616em" height="0.5009715076932614em" x="9.807692307692308vw" y="2.4990284923067385em" fill="#aaa"/><rect width="0.09615384615384616em" height="0.5099061822648001em" x="9.903846153846155vw" y="2.4900938177352em" fill="#aaa"/></svg>