<?xml version="1.0" standalone="no"?>
<svg xmlns:xlink="http://www.w3.org/1999/xlink" xmlns="http://www.w3.org/2000/svg" class="topic-graph" style="width: 100em; height: 30em; text-align: center;"><rect width="0.9615384615384616em" height="0.40276666719441406em" x="0em" y="29.597233332805587em" fill="#aaa"/><rect width="0.9615384615384616em" height="3.246204402698062em" x="0.9615384615384616em" y="26.753795597301938em" fill="#aaa"/><rect width="0.9615384615384616em" height="5.208685220864947em" x="1.9230769230769231em" y="24.791314779135053em" fill="#aaa"/><rect width="0.9615384615384616em" height="3.760357831765801em" x="2.8846153846153846em" y="26.239642168234198em" fill="#aaa"/><rect width="0.9615384615384616em" height="2.073162228940921em" x="3.8461538461538463em" y="27.92683777105908em" fill="#aaa"/><rect width="0.9615384615384616em" height="1.3336536386207412em" x="4.8076923076923075em" y="28.666346361379258em" fill="#aaa"/><rect width="0.9615384615384616em" height="2.023320822538927em" x="5.769230769230769em" y="27.976679177461072em" fill="#aaa"/><rect width="0.9615384615384616em" height="10.44679355966886em" x="6.730769230769231em" y="19.553206440331138em" fill="#aaa"/><rect width="0.9615384615384616em" height="1.0446926532536351em" x="7.6923076923076925em" y="28.955307346746366em" fill="#aaa"/><rect width="0.9615384615384616em" height="1.1769732668309092em" x="8.653846153846153em" y="28.82302673316909em" fill="#aaa"/><rect width="0.9615384615384616em" height="1.455222013467224em" x="9.615384615384615em" y="28.544777986532775em" fill="#aaa"/><rect width="0.9615384615384616em" height="0.43060434645700435em" x="10.576923076923077em" y="29.569395653542994em" fill="#aaa"/><rect width="0.9615384615384616em" height="3.4711426733154123em" x="11.538461538461538em" y="26.528857326684587em" fill="#aaa"/><rect width="0.9615384615384616em" height="3.432182137934001em" x="12.5em" y="26.567817862066em" fill="#aaa"/><rect width="0.9615384615384616em" height="0.3459415288903763em" x="13.461538461538462em" y="29.654058471109625em" fill="#aaa"/><rect width="0.9615384615384616em" height="3.1238379588985006em" x="14.423076923076923em" y="26.876162041101498em" fill="#aaa"/><rect width="0.9615384615384616em" height="1.4401783082036477em" x="15.384615384615385em" y="28.55982169179635em" fill="#aaa"/><rect width="0.9615384615384616em" height="5.531227571962998em" x="16.346153846153847em" y="24.468772428037003em" fill="#aaa"/><rect width="0.9615384615384616em" height="2.4175519012951425em" x="17.307692307692307em" y="27.58244809870486em" fill="#aaa"/><rect width="0.9615384615384616em" height="2.549716307731492em" x="18.26923076923077em" y="27.450283692268506em" fill="#aaa"/><rect width="0.9615384615384616em" height="9.26624762108902em" x="19.23076923076923em" y="20.733752378910978em" fill="#aaa"/><rect width="0.9615384615384616em" height="1.03629196715571em" x="20.192307692307693em" y="28.96370803284429em" fill="#aaa"/><rect width="0.9615384615384616em" height="1.6698312748405049em" x="21.153846153846153em" y="28.330168725159496em" fill="#aaa"/><rect width="0.9615384615384616em" height="3.2645547558261763em" x="22.115384615384617em" y="26.735445244173825em" fill="#aaa"/><rect width="0.9615384615384616em" height="9.313790633305826em" x="23.076923076923077em" y="20.68620936669417em" fill="#aaa"/><rect width="0.9615384615384616em" height="5.696155916775672em" x="24.03846153846154em" y="24.303844083224327em" fill="#aaa"/><rect width="0.9615384615384616em" height="2.3818012583743555em" x="25em" y="27.618198741625644em" fill="#aaa"/><rect width="0.9615384615384616em" height="2.3808002408881106em" x="25.961538461538463em" y="27.61919975911189em" fill="#aaa"/><rect width="0.9615384615384616em" height="1.1718927318499948em" x="26.923076923076923em" y="28.828107268150006em" fill="#aaa"/><rect width="0.9615384615384616em" height="2.50890692015114em" x="27.884615384615387em" y="27.49109307984886em" fill="#aaa"/><rect width="0.9615384615384616em" height="3.602620472088438em" x="28.846153846153847em" y="26.39737952791156em" fill="#aaa"/><rect width="0.9615384615384616em" height="4.399774258150933em" x="29.80769230769231em" y="25.600225741849066em" fill="#aaa"/><rect width="0.9615384615384616em" height="1.9494091108682072em" x="30.76923076923077em" y="28.050590889131794em" fill="#aaa"/><rect width="0.9615384615384616em" height="3.7664763111721795em" x="31.73076923076923em" y="26.23352368882782em" fill="#aaa"/><rect width="0.9615384615384616em" height="3.689927710521194em" x="32.69230769230769em" y="26.310072289478807em" fill="#aaa"/><rect width="0.9615384615384616em" height="4.979547033221559em" x="33.65384615384615em" y="25.020452966778443em" fill="#aaa"/><rect width="0.9615384615384616em" height="15.921907657598883em" x="34.61538461538461em" y="14.078092342401117em" fill="#aaa"/><rect width="0.9615384615384616em" height="2.5781777298941293em" x="35.57692307692308em" y="27.42182227010587em" fill="#aaa"/><rect width="0.9615384615384616em" height="4.805074780339561em" x="36.53846153846154em" y="25.19492521966044em" fill="#aaa"/><rect width="0.9615384615384616em" height="3.421162801968689em" x="37.5em" y="26.578837198031312em" fill="#aaa"/><rect width="0.9615384615384616em" height="4.2326992307034175em" x="38.46153846153846em" y="25.767300769296583em" fill="#aaa"/><rect width="0.9615384615384616em" height="4.030783841867455em" x="39.42307692307693em" y="25.969216158132546em" fill="#aaa"/><rect width="0.9615384615384616em" height="3.167969717076694em" x="40.38461538461539em" y="26.832030282923306em" fill="#aaa"/><rect width="0.9615384615384616em" height="6.669601221147853em" x="41.34615384615385em" y="23.330398778852146em" fill="#aaa"/><rect width="0.9615384615384616em" height="4.3670391528172114em" x="42.30769230769231em" y="25.632960847182787em" fill="#aaa"/><rect width="0.9615384615384616em" height="2.973776178935647em" x="43.269230769230774em" y="27.026223821064352em" fill="#aaa"/><rect width="0.9615384615384616em" height="8.952650329838344em" x="44.23076923076923em" y="21.04734967016166em" fill="#aaa"/><rect width="0.9615384615384616em" height="4.004658386318101em" x="45.19230769230769em" y="25.995341613681898em" fill="#aaa"/><rect width="0.9615384615384616em" height="2.2448298778290843em" x="46.15384615384615em" y="27.755170122170917em" fill="#aaa"/><rect width="0.9615384615384616em" height="10.871616308419883em" x="47.11538461538461em" y="19.12838369158012em" fill="#aaa"/><rect width="0.9615384615384616em" height="17.506905298492146em" x="48.07692307692308em" y="12.493094701507854em" fill="#aaa"/><rect width="0.9615384615384616em" height="6.981474153029242em" x="49.03846153846154em" y="23.018525846970757em" fill="#aaa"/><rect width="0.9615384615384616em" height="30em" x="50em" y="0em" fill="#aaa"/><rect width="0.9615384615384616em" height="8.838052194578172em" x="50.96153846153846em" y="21.16194780542183em" fill="#aaa"/><rect width="0.9615384615384616em" height="1.0843707944821404em" x="51.92307692307693em" y="28.91562920551786em" fill="#aaa"/><rect width="0.9615384615384616em" height="11.096129447748517em" x="52.88461538461539em" y="18.903870552251483em" fill="#aaa"/><rect width="0.9615384615384616em" height="6.3926040536508em" x="53.84615384615385em" y="23.6073959463492em" fill="#aaa"/><rect width="0.9615384615384616em" height="7.616852843338722em" x="54.80769230769231em" y="22.383147156661277em" fill="#aaa"/><rect width="0.9615384615384616em" height="7.572624037169699em" x="55.769230769230774em" y="22.4273759628303em" fill="#aaa"/><rect width="0.9615384615384616em" height="4.155103003253647em" x="56.73076923076923em" y="25.844896996746353em" fill="#aaa"/><rect width="0.9615384615384616em" height="5.2267890770076635em" x="57.69230769230769em" y="24.773210922992337em" fill="#aaa"/><rect width="0.9615384615384616em" height="5.5682981510932015em" x="58.65384615384615em" y="24.431701848906798em" fill="#aaa"/><rect width="0.9615384615384616em" height="2.2731742094212213em" x="59.61538461538462em" y="27.72682579057878em" fill="#aaa"/><rect width="0.9615384615384616em" height="6.0931460764868675em" x="60.57692307692308em" y="23.906853923513133em" fill="#aaa"/><rect width="0.9615384615384616em" height="5.367464971220802em" x="61.53846153846154em" y="24.6325350287792em" fill="#aaa"/><rect width="0.9615384615384616em" height="7.77385010253063em" x="62.5em" y="22.22614989746937em" fill="#aaa"/><rect width="0.9615384615384616em" height="9.62123136540236em" x="63.46153846153846em" y="20.37876863459764em" fill="#aaa"/><rect width="0.9615384615384616em" height="15.061988410510166em" x="64.42307692307692em" y="14.938011589489834em" fill="#aaa"/><rect width="0.9615384615384616em" height="23.137678462094488em" x="65.38461538461539em" y="6.862321537905512em" fill="#aaa"/><rect width="0.9615384615384616em" height="12.89308225270534em" x="66.34615384615385em" y="17.10691774729466em" fill="#aaa"/><rect width="0.9615384615384616em" height="9.775668680687128em" x="67.3076923076923em" y="20.224331319312874em" fill="#aaa"/><rect width="0.9615384615384616em" height="7.408138494788899em" x="68.26923076923077em" y="22.5918615052111em" fill="#aaa"/><rect width="0.9615384615384616em" height="14.106613077749987em" x="69.23076923076923em" y="15.893386922250013em" fill="#aaa"/><rect width="0.9615384615384616em" height="9.964166257806689em" x="70.1923076923077em" y="20.03583374219331em" fill="#aaa"/><rect width="0.9615384615384616em" height="5.825055180268493em" x="71.15384615384616em" y="24.174944819731508em" fill="#aaa"/><rect width="0.9615384615384616em" height="10.502962347100782em" x="72.11538461538461em" y="19.497037652899216em" fill="#aaa"/><rect width="0.9615384615384616em" height="11.249249544458761em" x="73.07692307692308em" y="18.750750455541237em" fill="#aaa"/><rect width="0.9615384615384616em" height="3.7864025368642973em" x="74.03846153846155em" y="26.213597463135702em" fill="#aaa"/><rect width="0.9615384615384616em" height="7.80494862821965em" x="75em" y="22.19505137178035em" fill="#aaa"/><rect width="0.9615384615384616em" height="8.712452480874898em" x="75.96153846153847em" y="21.287547519125102em" fill="#aaa"/><rect width="0.9615384615384616em" height="5.636097294067519em" x="76.92307692307692em" y="24.36390270593248em" fill="#aaa"/><rect width="0.9615384615384616em" height="9.903104215123156em" x="77.88461538461539em" y="20.096895784876843em" fill="#aaa"/><rect width="0.9615384615384616em" height="9.678846932626072em" x="78.84615384615385em" y="20.321153067373928em" fill="#aaa"/><rect width="0.9615384615384616em" height="8.258381815442831em" x="79.8076923076923em" y="21.74161818455717em" fill="#aaa"/><rect width="0.9615384615384616em" height="10.026946863729753em" x="80.76923076923077em" y="19.973053136270245em" fill="#aaa"/><rect width="0.9615384615384616em" height="12.512618856315287em" x="81.73076923076923em" y="17.487381143684715em" fill="#aaa"/><rect width="0.9615384615384616em" height="17.193890619956356em" x="82.6923076923077em" y="12.806109380043644em" fill="#aaa"/><rect width="0.9615384615384616em" height="10.215489146987359em" x="83.65384615384616em" y="19.78451085301264em" fill="#aaa"/><rect width="0.9615384615384616em" height="9.09773738031215em" x="84.61538461538461em" y="20.90226261968785em" fill="#aaa"/><rect width="0.9615384615384616em" height="13.053221824411173em" x="85.57692307692308em" y="16.946778175588825em" fill="#aaa"/><rect width="0.9615384615384616em" height="9.532379119571882em" x="86.53846153846155em" y="20.467620880428118em" fill="#aaa"/><rect width="0.9615384615384616em" height="7.052072255748292em" x="87.5em" y="22.947927744251707em" fill="#aaa"/><rect width="0.9615384615384616em" height="6.543784720219561em" x="88.46153846153847em" y="23.456215279780437em" fill="#aaa"/><rect width="0.9615384615384616em" height="6.330035540396785em" x="89.42307692307692em" y="23.669964459603214em" fill="#aaa"/><rect width="0.9615384615384616em" height="12.725784479232107em" x="90.38461538461539em" y="17.274215520767893em" fill="#aaa"/><rect width="0.9615384615384616em" height="6.922021656281367em" x="91.34615384615385em" y="23.077978343718634em" fill="#aaa"/><rect width="0.9615384615384616em" height="13.38944358614094em" x="92.3076923076923em" y="16.610556413859058em" fill="#aaa"/><rect width="0.9615384615384616em" height="8.438882344031368em" x="93.26923076923077em" y="21.56111765596863em" fill="#aaa"/><rect width="0.9615384615384616em" height="4.807640650909092em" x="94.23076923076923em" y="25.192359349090907em" fill="#aaa"/><rect width="0.9615384615384616em" height="6.524700202640515em" x="95.1923076923077em" y="23.475299797359483em" fill="#aaa"/><rect width="0.9615384615384616em" height="7.779670718635254em" x="96.15384615384616em" y="22.220329281364748em" fill="#aaa"/><rect width="0.9615384615384616em" height="11.066127521263706em" x="97.11538461538461em" y="18.933872478736294em" fill="#aaa"/><rect width="0.9615384615384616em" height="8.671048285198406em" x="98.07692307692308em" y="21.328951714801594em" fill="#aaa"/><rect width="0.9615384615384616em" height="6.654261196633069em" x="99.03846153846155em" y="23.34573880336693em" fill="#aaa"/></svg>