<?xml version="1.0" standalone="no"?>
<svg xmlns:xlink="http://www.w3.org/1999/xlink" xmlns="http://www.w3.org/2000/svg" class="topic-graph" style="width: 10vw; height: 3em; text-align: center;"><rect width="0.09615384615384616em" height="0.1310696416162922em" x="0vw" y="2.868930358383708em" fill="#aaa"/><rect width="0.09615384615384616em" height="1.166906392273301em" x="0.09615384615384616vw" y="1.833093607726699em" fill="#aaa"/><rect width="0.09615384615384616em" height="0.2711805324114597em" x="0.19230769230769232vw" y="2.7288194675885404em" fill="#aaa"/><rect width="0.09615384615384616em" height="0.10821204593374115em" x="0.2884615384615385vw" y="2.8917879540662588em" fill="#aaa"/><rect width="0.09615384615384616em" height="0.5026527847319642em" x="0.38461538461538464vw" y="2.497347215268036em" fill="#aaa"/><rect width="0.09615384615384616em" height="0.306251305991305em" x="0.4807692307692308vw" y="2.693748694008695em" fill="#aaa"/><rect width="0.09615384615384616em" height="0.2716185807196027em" x="0.576923076923077vw" y="2.7283814192803972em" fill="#aaa"/><rect width="0.09615384615384616em" height="0.22102870303280586em" x="0.6730769230769231vw" y="2.7789712969671942em" fill="#aaa"/><rect width="0.09615384615384616em" height="0.1290747952757168em" x="0.7692307692307693vw" y="2.870925204724283em" fill="#aaa"/><rect width="0.09615384615384616em" height="0.2396032706375238em" x="0.8653846153846154vw" y="2.7603967293624763em" fill="#aaa"/><rect width="0.09615384615384616em" height="0.12472721020158864em" x="0.9615384615384616vw" y="2.8752727897984114em" fill="#aaa"/><rect width="0.09615384615384616em" height="0.5979417712393551em" x="1.0576923076923077vw" y="2.402058228760645em" fill="#aaa"/><rect width="0.09615384615384616em" height="0.2733030735002713em" x="1.153846153846154vw" y="2.726696926499729em" fill="#aaa"/><rect width="0.09615384615384616em" height="0.4559561556213799em" x="1.25vw" y="2.54404384437862em" fill="#aaa"/><rect width="0.09615384615384616em" height="0.24577348865694376em" x="1.3461538461538463vw" y="2.7542265113430564em" fill="#aaa"/><rect width="0.09615384615384616em" height="0.18204667811477515em" x="1.4423076923076923vw" y="2.817953321885225em" fill="#aaa"/><rect width="0.09615384615384616em" height="0.27185961079437504em" x="1.5384615384615385vw" y="2.728140389205625em" fill="#aaa"/><rect width="0.09615384615384616em" height="0.11305520073121797em" x="1.6346153846153848vw" y="2.886944799268782em" fill="#aaa"/><rect width="0.09615384615384616em" height="0.1655694872076952em" x="1.7307692307692308vw" y="2.834430512792305em" fill="#aaa"/><rect width="0.09615384615384616em" height="0.38875761465957426em" x="1.826923076923077vw" y="2.6112423853404256em" fill="#aaa"/><rect width="0.09615384615384616em" height="0.44866584587270253em" x="1.9230769230769231vw" y="2.5513341541272974em" fill="#aaa"/><rect width="0.09615384615384616em" height="0.09581371476848619em" x="2.019230769230769vw" y="2.9041862852315137em" fill="#aaa"/><rect width="0.09615384615384616em" height="0.07185221782739094em" x="2.1153846153846154vw" y="2.928147782172609em" fill="#aaa"/><rect width="0.09615384615384616em" height="0.3895819143207604em" x="2.2115384615384617vw" y="2.61041808567924em" fill="#aaa"/><rect width="0.09615384615384616em" height="0.2903115893989481em" x="2.307692307692308vw" y="2.7096884106010517em" fill="#aaa"/><rect width="0.09615384615384616em" height="0.3834300219272548em" x="2.403846153846154vw" y="2.616569978072745em" fill="#aaa"/><rect width="0.09615384615384616em" height="0.2887905359555947em" x="2.5vw" y="2.7112094640444053em" fill="#aaa"/><rect width="0.09615384615384616em" height="0.3161625913581838em" x="2.5961538461538463vw" y="2.683837408641816em" fill="#aaa"/><rect width="0.09615384615384616em" height="0.2949970525008201em" x="2.6923076923076925vw" y="2.70500294749918em" fill="#aaa"/><rect width="0.09615384615384616em" height="0.1858804035954595em" x="2.7884615384615388vw" y="2.8141195964045407em" fill="#aaa"/><rect width="0.09615384615384616em" height="0.24362727127108647em" x="2.8846153846153846vw" y="2.7563727287289135em" fill="#aaa"/><rect width="0.09615384615384616em" height="0.2695350723858918em" x="2.980769230769231vw" y="2.730464927614108em" fill="#aaa"/><rect width="0.09615384615384616em" height="0.38074633959068527em" x="3.076923076923077vw" y="2.619253660409315em" fill="#aaa"/><rect width="0.09615384615384616em" height="0.325043957161234em" x="3.1730769230769234vw" y="2.674956042838766em" fill="#aaa"/><rect width="0.09615384615384616em" height="0.1673286967106817em" x="3.2692307692307696vw" y="2.8326713032893185em" fill="#aaa"/><rect width="0.09615384615384616em" height="0.3887133827397682em" x="3.3653846153846154vw" y="2.611286617260232em" fill="#aaa"/><rect width="0.09615384615384616em" height="0.37643209534374855em" x="3.4615384615384617vw" y="2.6235679046562517em" fill="#aaa"/><rect width="0.09615384615384616em" height="0.6079119908310793em" x="3.557692307692308vw" y="2.392088009168921em" fill="#aaa"/><rect width="0.09615384615384616em" height="0.187718264810953em" x="3.653846153846154vw" y="2.812281735189047em" fill="#aaa"/><rect width="0.09615384615384616em" height="0.16941027259780211em" x="3.75vw" y="2.830589727402198em" fill="#aaa"/><rect width="0.09615384615384616em" height="0.2120615669015421em" x="3.8461538461538463vw" y="2.787938433098458em" fill="#aaa"/><rect width="0.09615384615384616em" height="0.2259525225571908em" x="3.9423076923076925vw" y="2.774047477442809em" fill="#aaa"/><rect width="0.09615384615384616em" height="0.45524096235377187em" x="4.038461538461538vw" y="2.5447590376462284em" fill="#aaa"/><rect width="0.09615384615384616em" height="0.5839927076461557em" x="4.134615384615385vw" y="2.4160072923538443em" fill="#aaa"/><rect width="0.09615384615384616em" height="0.519015032423034em" x="4.230769230769231vw" y="2.480984967576966em" fill="#aaa"/><rect width="0.09615384615384616em" height="0.33483689963464847em" x="4.3269230769230775vw" y="2.6651631003653513em" fill="#aaa"/><rect width="0.09615384615384616em" height="0.3208205915051064em" x="4.423076923076923vw" y="2.6791794084948934em" fill="#aaa"/><rect width="0.09615384615384616em" height="0.5693963453749163em" x="4.519230769230769vw" y="2.4306036546250835em" fill="#aaa"/><rect width="0.09615384615384616em" height="0.3225280668247311em" x="4.615384615384616vw" y="2.6774719331752688em" fill="#aaa"/><rect width="0.09615384615384616em" height="0.4405995010241708em" x="4.711538461538462vw" y="2.559400498975829em" fill="#aaa"/><rect width="0.09615384615384616em" height="0.6779770476132521em" x="4.807692307692308vw" y="2.3220229523867477em" fill="#aaa"/><rect width="0.09615384615384616em" height="0.6596270481200084em" x="4.903846153846154vw" y="2.3403729518799916em" fill="#aaa"/><rect width="0.09615384615384616em" height="0.4762828644638203em" x="5vw" y="2.5237171355361796em" fill="#aaa"/><rect width="0.09615384615384616em" height="0.4113591664616967em" x="5.096153846153847vw" y="2.588640833538303em" fill="#aaa"/><rect width="0.09615384615384616em" height="0.45266008045966644em" x="5.1923076923076925vw" y="2.5473399195403337em" fill="#aaa"/><rect width="0.09615384615384616em" height="0.3638596268412984em" x="5.288461538461538vw" y="2.6361403731587014em" fill="#aaa"/><rect width="0.09615384615384616em" height="0.42147548065445894em" x="5.384615384615385vw" y="2.578524519345541em" fill="#aaa"/><rect width="0.09615384615384616em" height="0.48505570618641275em" x="5.480769230769231vw" y="2.514944293813587em" fill="#aaa"/><rect width="0.09615384615384616em" height="0.7799357513830769em" x="5.5769230769230775vw" y="2.2200642486169233em" fill="#aaa"/><rect width="0.09615384615384616em" height="0.283216343687406em" x="5.673076923076923vw" y="2.716783656312594em" fill="#aaa"/><rect width="0.09615384615384616em" height="0.4695033826261431em" x="5.769230769230769vw" y="2.530496617373857em" fill="#aaa"/><rect width="0.09615384615384616em" height="0.4954622861077324em" x="5.865384615384616vw" y="2.5045377138922675em" fill="#aaa"/><rect width="0.09615384615384616em" height="0.5638375903892633em" x="5.961538461538462vw" y="2.436162409610737em" fill="#aaa"/><rect width="0.09615384615384616em" height="0.5594780345237166em" x="6.057692307692308vw" y="2.4405219654762833em" fill="#aaa"/><rect width="0.09615384615384616em" height="0.3522879611357344em" x="6.153846153846154vw" y="2.6477120388642654em" fill="#aaa"/><rect width="0.09615384615384616em" height="0.67161520391438em" x="6.25vw" y="2.32838479608562em" fill="#aaa"/><rect width="0.09615384615384616em" height="0.5498068057671777em" x="6.346153846153847vw" y="2.4501931942328223em" fill="#aaa"/><rect width="0.09615384615384616em" height="0.6603515592959612em" x="6.4423076923076925vw" y="2.339648440704039em" fill="#aaa"/><rect width="0.09615384615384616em" height="0.4779342432942135em" x="6.538461538461539vw" y="2.5220657567057865em" fill="#aaa"/><rect width="0.09615384615384616em" height="0.3624839642936001em" x="6.634615384615385vw" y="2.6375160357064em" fill="#aaa"/><rect width="0.09615384615384616em" height="0.4183213457680329em" x="6.730769230769231vw" y="2.581678654231967em" fill="#aaa"/><rect width="0.09615384615384616em" height="0.5978647543279156em" x="6.8269230769230775vw" y="2.4021352456720844em" fill="#aaa"/><rect width="0.09615384615384616em" height="0.4632949535783183em" x="6.923076923076923vw" y="2.5367050464216816em" fill="#aaa"/><rect width="0.09615384615384616em" height="0.33875085439408464em" x="7.01923076923077vw" y="2.6612491456059155em" fill="#aaa"/><rect width="0.09615384615384616em" height="0.3492165104478093em" x="7.115384615384616vw" y="2.6507834895521905em" fill="#aaa"/><rect width="0.09615384615384616em" height="0.5349831467218777em" x="7.211538461538462vw" y="2.4650168532781223em" fill="#aaa"/><rect width="0.09615384615384616em" height="0.6489734305079862em" x="7.307692307692308vw" y="2.3510265694920136em" fill="#aaa"/><rect width="0.09615384615384616em" height="0.43955627966786714em" x="7.403846153846154vw" y="2.560443720332133em" fill="#aaa"/><rect width="0.09615384615384616em" height="0.5851830651313545em" x="7.5vw" y="2.4148169348686457em" fill="#aaa"/><rect width="0.09615384615384616em" height="0.5432477141348218em" x="7.596153846153847vw" y="2.4567522858651785em" fill="#aaa"/><rect width="0.09615384615384616em" height="0.6639955466653329em" x="7.6923076923076925vw" y="2.336004453334667em" fill="#aaa"/><rect width="0.09615384615384616em" height="0.4915527256301462em" x="7.788461538461539vw" y="2.508447274369854em" fill="#aaa"/><rect width="0.09615384615384616em" height="0.5291895705402646em" x="7.884615384615385vw" y="2.4708104294597355em" fill="#aaa"/><rect width="0.09615384615384616em" height="0.579569260942523em" x="7.980769230769231vw" y="2.420430739057477em" fill="#aaa"/><rect width="0.09615384615384616em" height="0.626175803950578em" x="8.076923076923077vw" y="2.373824196049422em" fill="#aaa"/><rect width="0.09615384615384616em" height="1.0464735795497209em" x="8.173076923076923vw" y="1.9535264204502791em" fill="#aaa"/><rect width="0.09615384615384616em" height="1.5303231084313453em" x="8.26923076923077vw" y="1.4696768915686547em" fill="#aaa"/><rect width="0.09615384615384616em" height="1.282876184670019em" x="8.365384615384615vw" y="1.717123815329981em" fill="#aaa"/><rect width="0.09615384615384616em" height="1.166714187449816em" x="8.461538461538462vw" y="1.833285812550184em" fill="#aaa"/><rect width="0.09615384615384616em" height="1.2729981539630832em" x="8.557692307692308vw" y="1.7270018460369168em" fill="#aaa"/><rect width="0.09615384615384616em" height="1.5626161565067516em" x="8.653846153846155vw" y="1.4373838434932484em" fill="#aaa"/><rect width="0.09615384615384616em" height="1.555806277001209em" x="8.75vw" y="1.444193722998791em" fill="#aaa"/><rect width="0.09615384615384616em" height="1.799489123999151em" x="8.846153846153847vw" y="1.200510876000849em" fill="#aaa"/><rect width="0.09615384615384616em" height="1.3196996631114626em" x="8.942307692307693vw" y="1.6803003368885374em" fill="#aaa"/><rect width="0.09615384615384616em" height="1.8813004688534436em" x="9.038461538461538vw" y="1.1186995311465564em" fill="#aaa"/><rect width="0.09615384615384616em" height="1.9978643818025736em" x="9.134615384615385vw" y="1.0021356181974264em" fill="#aaa"/><rect width="0.09615384615384616em" height="1.8852439955511189em" x="9.230769230769232vw" y="1.1147560044488811em" fill="#aaa"/><rect width="0.09615384615384616em" height="2.0592828364835256em" x="9.326923076923077vw" y="0.9407171635164744em" fill="#aaa"/><rect width="0.09615384615384616em" height="3em" x="9.423076923076923vw" y="0em" fill="#aaa"/><rect width="0.09615384615384616em" height="2.71036350145675em" x="9.51923076923077vw" y="0.28963649854325em" fill="#aaa"/><rect width="0.09615384615384616em" height="2.6811101870207086em" x="9.615384615384617vw" y="0.3188898129792914em" fill="#aaa"/><rect width="0.09615384615384616em" height="2.6186048291873716em" x="9.711538461538462vw" y="0.3813951708126284em" fill="#aaa"/><rect width="0.09615384615384616em" height="2.7470658622549853em" x="9.807692307692308vw" y="0.2529341377450147em" fill="#aaa"/><rect width="0.09615384615384616em" height="2.4445648278842893em" x="9.903846153846155vw" y="0.5554351721157107em" fill="#aaa"/></svg>