<?xml version="1.0" standalone="no"?>
<svg xmlns:xlink="http://www.w3.org/1999/xlink" xmlns="http://www.w3.org/2000/svg" class="topic-graph" style="width: 10vw; height: 3em; text-align: center;"><rect width="0.09615384615384616em" height="0.7978234422477413em" x="0vw" y="2.2021765577522587em" fill="#aaa"/><rect width="0.09615384615384616em" height="0.55297493488384em" x="0.09615384615384616vw" y="2.44702506511616em" fill="#aaa"/><rect width="0.09615384615384616em" height="0.4866754093277956em" x="0.19230769230769232vw" y="2.5133245906722044em" fill="#aaa"/><rect width="0.09615384615384616em" height="0.6547995181513298em" x="0.2884615384615385vw" y="2.3452004818486705em" fill="#aaa"/><rect width="0.09615384615384616em" height="0.6472443280723558em" x="0.38461538461538464vw" y="2.3527556719276443em" fill="#aaa"/><rect width="0.09615384615384616em" height="0.36269328935289974em" x="0.4807692307692308vw" y="2.6373067106471004em" fill="#aaa"/><rect width="0.09615384615384616em" height="0.4170215589247701em" x="0.576923076923077vw" y="2.58297844107523em" fill="#aaa"/><rect width="0.09615384615384616em" height="1.7602945694500716em" x="0.6730769230769231vw" y="1.2397054305499284em" fill="#aaa"/><rect width="0.09615384615384616em" height="0.5480412066129983em" x="0.7692307692307693vw" y="2.4519587933870017em" fill="#aaa"/><rect width="0.09615384615384616em" height="0.15786690222109476em" x="0.8653846153846154vw" y="2.8421330977789054em" fill="#aaa"/><rect width="0.09615384615384616em" height="0.5056685171749383em" x="0.9615384615384616vw" y="2.4943314828250616em" fill="#aaa"/><rect width="0.09615384615384616em" height="0.2875110418588866em" x="1.0576923076923077vw" y="2.7124889581411136em" fill="#aaa"/><rect width="0.09615384615384616em" height="0.5698182627128837em" x="1.153846153846154vw" y="2.4301817372871164em" fill="#aaa"/><rect width="0.09615384615384616em" height="0.2911110391853713em" x="1.25vw" y="2.7088889608146287em" fill="#aaa"/><rect width="0.09615384615384616em" height="0.6844630604278434em" x="1.3461538461538463vw" y="2.315536939572157em" fill="#aaa"/><rect width="0.09615384615384616em" height="0.6679334338478657em" x="1.4423076923076923vw" y="2.3320665661521343em" fill="#aaa"/><rect width="0.09615384615384616em" height="0.4655116244707659em" x="1.5384615384615385vw" y="2.534488375529234em" fill="#aaa"/><rect width="0.09615384615384616em" height="0.9010543600927376em" x="1.6346153846153848vw" y="2.0989456399072624em" fill="#aaa"/><rect width="0.09615384615384616em" height="0.28433632436799505em" x="1.7307692307692308vw" y="2.7156636756320047em" fill="#aaa"/><rect width="0.09615384615384616em" height="0.8887583739754672em" x="1.826923076923077vw" y="2.111241626024533em" fill="#aaa"/><rect width="0.09615384615384616em" height="0.6286512397469761em" x="1.9230769230769231vw" y="2.371348760253024em" fill="#aaa"/><rect width="0.09615384615384616em" height="0.592239478594296em" x="2.019230769230769vw" y="2.407760521405704em" fill="#aaa"/><rect width="0.09615384615384616em" height="0.37773315117316597em" x="2.1153846153846154vw" y="2.622266848826834em" fill="#aaa"/><rect width="0.09615384615384616em" height="0.71251495107297em" x="2.2115384615384617vw" y="2.2874850489270298em" fill="#aaa"/><rect width="0.09615384615384616em" height="0.42903773476304885em" x="2.307692307692308vw" y="2.5709622652369513em" fill="#aaa"/><rect width="0.09615384615384616em" height="1.2711413501496187em" x="2.403846153846154vw" y="1.7288586498503813em" fill="#aaa"/><rect width="0.09615384615384616em" height="1.4235146113731507em" x="2.5vw" y="1.5764853886268493em" fill="#aaa"/><rect width="0.09615384615384616em" height="1.590293418368808em" x="2.5961538461538463vw" y="1.409706581631192em" fill="#aaa"/><rect width="0.09615384615384616em" height="1.6884059031097878em" x="2.6923076923076925vw" y="1.3115940968902122em" fill="#aaa"/><rect width="0.09615384615384616em" height="1.0029078260884319em" x="2.7884615384615388vw" y="1.9970921739115681em" fill="#aaa"/><rect width="0.09615384615384616em" height="3em" x="2.8846153846153846vw" y="0em" fill="#aaa"/><rect width="0.09615384615384616em" height="2.9941482898270966em" x="2.980769230769231vw" y="0.005851710172903424em" fill="#aaa"/><rect width="0.09615384615384616em" height="2.378048039995749em" x="3.076923076923077vw" y="0.6219519600042509em" fill="#aaa"/><rect width="0.09615384615384616em" height="2.980073652760944em" x="3.1730769230769234vw" y="0.019926347239056064em" fill="#aaa"/><rect width="0.09615384615384616em" height="2.358231874211696em" x="3.2692307692307696vw" y="0.6417681257883041em" fill="#aaa"/><rect width="0.09615384615384616em" height="2.118376152112327em" x="3.3653846153846154vw" y="0.8816238478876728em" fill="#aaa"/><rect width="0.09615384615384616em" height="2.1515007181200394em" x="3.4615384615384617vw" y="0.8484992818799606em" fill="#aaa"/><rect width="0.09615384615384616em" height="1.8521016013407894em" x="3.557692307692308vw" y="1.1478983986592106em" fill="#aaa"/><rect width="0.09615384615384616em" height="0.905234743180276em" x="3.653846153846154vw" y="2.094765256819724em" fill="#aaa"/><rect width="0.09615384615384616em" height="0.9599792005895846em" x="3.75vw" y="2.0400207994104154em" fill="#aaa"/><rect width="0.09615384615384616em" height="1.1554375965123584em" x="3.8461538461538463vw" y="1.8445624034876416em" fill="#aaa"/><rect width="0.09615384615384616em" height="0.7133459084823703em" x="3.9423076923076925vw" y="2.2866540915176294em" fill="#aaa"/><rect width="0.09615384615384616em" height="0.7506376791063426em" x="4.038461538461538vw" y="2.2493623208936575em" fill="#aaa"/><rect width="0.09615384615384616em" height="1.333809429878539em" x="4.134615384615385vw" y="1.666190570121461em" fill="#aaa"/><rect width="0.09615384615384616em" height="0.9319100971534451em" x="4.230769230769231vw" y="2.068089902846555em" fill="#aaa"/><rect width="0.09615384615384616em" height="1.0295496957510215em" x="4.3269230769230775vw" y="1.9704503042489785em" fill="#aaa"/><rect width="0.09615384615384616em" height="0.6782241363236812em" x="4.423076923076923vw" y="2.3217758636763186em" fill="#aaa"/><rect width="0.09615384615384616em" height="0.8375151933343767em" x="4.519230769230769vw" y="2.1624848066656233em" fill="#aaa"/><rect width="0.09615384615384616em" height="1.185431247795339em" x="4.615384615384616vw" y="1.814568752204661em" fill="#aaa"/><rect width="0.09615384615384616em" height="1.0951575808022693em" x="4.711538461538462vw" y="1.9048424191977307em" fill="#aaa"/><rect width="0.09615384615384616em" height="1.0022309582230846em" x="4.807692307692308vw" y="1.9977690417769154em" fill="#aaa"/><rect width="0.09615384615384616em" height="0.7089949208636008em" x="4.903846153846154vw" y="2.291005079136399em" fill="#aaa"/><rect width="0.09615384615384616em" height="0.8287591277452749em" x="5vw" y="2.171240872254725em" fill="#aaa"/><rect width="0.09615384615384616em" height="1.043098666194615em" x="5.096153846153847vw" y="1.956901333805385em" fill="#aaa"/><rect width="0.09615384615384616em" height="2.13652898005312em" x="5.1923076923076925vw" y="0.8634710199468798em" fill="#aaa"/><rect width="0.09615384615384616em" height="0.9636299837845913em" x="5.288461538461538vw" y="2.036370016215409em" fill="#aaa"/><rect width="0.09615384615384616em" height="0.9641094447428542em" x="5.384615384615385vw" y="2.035890555257146em" fill="#aaa"/><rect width="0.09615384615384616em" height="0.9023236941094346em" x="5.480769230769231vw" y="2.097676305890565em" fill="#aaa"/><rect width="0.09615384615384616em" height="0.9329966760981098em" x="5.5769230769230775vw" y="2.0670033239018903em" fill="#aaa"/><rect width="0.09615384615384616em" height="0.7873893169879033em" x="5.673076923076923vw" y="2.212610683012097em" fill="#aaa"/><rect width="0.09615384615384616em" height="0.591961204318427em" x="5.769230769230769vw" y="2.408038795681573em" fill="#aaa"/><rect width="0.09615384615384616em" height="0.6740520886133637em" x="5.865384615384616vw" y="2.325947911386636em" fill="#aaa"/><rect width="0.09615384615384616em" height="1.0545824214331851em" x="5.961538461538462vw" y="1.9454175785668149em" fill="#aaa"/><rect width="0.09615384615384616em" height="0.916317059604288em" x="6.057692307692308vw" y="2.083682940395712em" fill="#aaa"/><rect width="0.09615384615384616em" height="1.734095500060611em" x="6.153846153846154vw" y="1.265904499939389em" fill="#aaa"/><rect width="0.09615384615384616em" height="1.0556021165345872em" x="6.25vw" y="1.9443978834654128em" fill="#aaa"/><rect width="0.09615384615384616em" height="1.2055015372278142em" x="6.346153846153847vw" y="1.7944984627721858em" fill="#aaa"/><rect width="0.09615384615384616em" height="1.2197030055065374em" x="6.4423076923076925vw" y="1.7802969944934626em" fill="#aaa"/><rect width="0.09615384615384616em" height="0.8616021584496637em" x="6.538461538461539vw" y="2.1383978415503364em" fill="#aaa"/><rect width="0.09615384615384616em" height="1.2880971794780018em" x="6.634615384615385vw" y="1.7119028205219982em" fill="#aaa"/><rect width="0.09615384615384616em" height="0.7976818492751786em" x="6.730769230769231vw" y="2.2023181507248215em" fill="#aaa"/><rect width="0.09615384615384616em" height="1.3226563616618265em" x="6.8269230769230775vw" y="1.6773436383381735em" fill="#aaa"/><rect width="0.09615384615384616em" height="0.9949415569184985em" x="6.923076923076923vw" y="2.0050584430815013em" fill="#aaa"/><rect width="0.09615384615384616em" height="1.2798625788786988em" x="7.01923076923077vw" y="1.7201374211213012em" fill="#aaa"/><rect width="0.09615384615384616em" height="0.7585291470001522em" x="7.115384615384616vw" y="2.2414708529998477em" fill="#aaa"/><rect width="0.09615384615384616em" height="1.3099687374374063em" x="7.211538461538462vw" y="1.6900312625625937em" fill="#aaa"/><rect width="0.09615384615384616em" height="1.2886178166527387em" x="7.307692307692308vw" y="1.7113821833472613em" fill="#aaa"/><rect width="0.09615384615384616em" height="1.2646208838251em" x="7.403846153846154vw" y="1.7353791161749em" fill="#aaa"/><rect width="0.09615384615384616em" height="1.0240816261758305em" x="7.5vw" y="1.9759183738241695em" fill="#aaa"/><rect width="0.09615384615384616em" height="1.5893890870235698em" x="7.596153846153847vw" y="1.4106109129764302em" fill="#aaa"/><rect width="0.09615384615384616em" height="2.3432947494068745em" x="7.6923076923076925vw" y="0.6567052505931255em" fill="#aaa"/><rect width="0.09615384615384616em" height="1.3947434890352464em" x="7.788461538461539vw" y="1.6052565109647536em" fill="#aaa"/><rect width="0.09615384615384616em" height="1.01271614756412em" x="7.884615384615385vw" y="1.98728385243588em" fill="#aaa"/><rect width="0.09615384615384616em" height="1.1158639121878782em" x="7.980769230769231vw" y="1.8841360878121218em" fill="#aaa"/><rect width="0.09615384615384616em" height="1.2102827947174146em" x="8.076923076923077vw" y="1.7897172052825854em" fill="#aaa"/><rect width="0.09615384615384616em" height="0.8999782691356979em" x="8.173076923076923vw" y="2.1000217308643023em" fill="#aaa"/><rect width="0.09615384615384616em" height="1.3749045854603903em" x="8.26923076923077vw" y="1.6250954145396097em" fill="#aaa"/><rect width="0.09615384615384616em" height="0.9873093928307133em" x="8.365384615384615vw" y="2.0126906071692865em" fill="#aaa"/><rect width="0.09615384615384616em" height="1.9295315511792006em" x="8.461538461538462vw" y="1.0704684488207994em" fill="#aaa"/><rect width="0.09615384615384616em" height="1.055780973836733em" x="8.557692307692308vw" y="1.944219026163267em" fill="#aaa"/><rect width="0.09615384615384616em" height="1.3921849017510484em" x="8.653846153846155vw" y="1.6078150982489516em" fill="#aaa"/><rect width="0.09615384615384616em" height="1.0066602111370766em" x="8.75vw" y="1.9933397888629234em" fill="#aaa"/><rect width="0.09615384615384616em" height="0.7496820878577881em" x="8.846153846153847vw" y="2.250317912142212em" fill="#aaa"/><rect width="0.09615384615384616em" height="0.6253001581579902em" x="8.942307692307693vw" y="2.37469984184201em" fill="#aaa"/><rect width="0.09615384615384616em" height="0.7962827731373642em" x="9.038461538461538vw" y="2.203717226862636em" fill="#aaa"/><rect width="0.09615384615384616em" height="0.718095792015387em" x="9.134615384615385vw" y="2.281904207984613em" fill="#aaa"/><rect width="0.09615384615384616em" height="0.6555356146762668em" x="9.230769230769232vw" y="2.3444643853237332em" fill="#aaa"/><rect width="0.09615384615384616em" height="0.6317562489791873em" x="9.326923076923077vw" y="2.3682437510208127em" fill="#aaa"/><rect width="0.09615384615384616em" height="0.6460407175814189em" x="9.423076923076923vw" y="2.353959282418581em" fill="#aaa"/><rect width="0.09615384615384616em" height="0.6795889623827679em" x="9.51923076923077vw" y="2.320411037617232em" fill="#aaa"/><rect width="0.09615384615384616em" height="0.6548998146990235em" x="9.615384615384617vw" y="2.3451001853009767em" fill="#aaa"/><rect width="0.09615384615384616em" height="1.2610913483253432em" x="9.711538461538462vw" y="1.7389086516746568em" fill="#aaa"/><rect width="0.09615384615384616em" height="0.9675191094508588em" x="9.807692307692308vw" y="2.032480890549141em" fill="#aaa"/><rect width="0.09615384615384616em" height="1.1284578596389028em" x="9.903846153846155vw" y="1.8715421403610972em" fill="#aaa"/></svg>