<?xml version="1.0" standalone="no"?>
<svg xmlns:xlink="http://www.w3.org/1999/xlink" xmlns="http://www.w3.org/2000/svg" class="topic-graph" style="width: 100em; height: 30em; text-align: center;"><rect width="0.9615384615384616em" height="23.616732326328943em" x="0em" y="6.383267673671057em" fill="#aaa"/><rect width="0.9615384615384616em" height="19.676023466370076em" x="0.9615384615384616em" y="10.323976533629924em" fill="#aaa"/><rect width="0.9615384615384616em" height="4.002853107856571em" x="1.9230769230769231em" y="25.99714689214343em" fill="#aaa"/><rect width="0.9615384615384616em" height="3.165211508922474em" x="2.8846153846153846em" y="26.834788491077525em" fill="#aaa"/><rect width="0.9615384615384616em" height="8.153975819239035em" x="3.8461538461538463em" y="21.846024180760963em" fill="#aaa"/><rect width="0.9615384615384616em" height="0.8066883405448763em" x="4.8076923076923075em" y="29.193311659455123em" fill="#aaa"/><rect width="0.9615384615384616em" height="6.510547042387638em" x="5.769230769230769em" y="23.48945295761236em" fill="#aaa"/><rect width="0.9615384615384616em" height="1.1387423074144327em" x="6.730769230769231em" y="28.861257692585568em" fill="#aaa"/><rect width="0.9615384615384616em" height="3.4587875410798348em" x="7.6923076923076925em" y="26.541212458920164em" fill="#aaa"/><rect width="0.9615384615384616em" height="8.503650297579812em" x="8.653846153846153em" y="21.49634970242019em" fill="#aaa"/><rect width="0.9615384615384616em" height="3.5816534857614184em" x="9.615384615384615em" y="26.418346514238582em" fill="#aaa"/><rect width="0.9615384615384616em" height="2.3528101078282577em" x="10.576923076923077em" y="27.647189892171742em" fill="#aaa"/><rect width="0.9615384615384616em" height="4.1993069883419185em" x="11.538461538461538em" y="25.800693011658083em" fill="#aaa"/><rect width="0.9615384615384616em" height="3.2854595382947345em" x="12.5em" y="26.714540461705266em" fill="#aaa"/><rect width="0.9615384615384616em" height="0.9505403844302106em" x="13.461538461538462em" y="29.049459615569788em" fill="#aaa"/><rect width="0.9615384615384616em" height="3.1092966288485333em" x="14.423076923076923em" y="26.890703371151467em" fill="#aaa"/><rect width="0.9615384615384616em" height="3.273664710318499em" x="15.384615384615385em" y="26.7263352896815em" fill="#aaa"/><rect width="0.9615384615384616em" height="3.257284476454024em" x="16.346153846153847em" y="26.742715523545975em" fill="#aaa"/><rect width="0.9615384615384616em" height="6.271850363991621em" x="17.307692307692307em" y="23.72814963600838em" fill="#aaa"/><rect width="0.9615384615384616em" height="4.713469556954444em" x="18.26923076923077em" y="25.286530443045557em" fill="#aaa"/><rect width="0.9615384615384616em" height="0.966272081979044em" x="19.23076923076923em" y="29.033727918020958em" fill="#aaa"/><rect width="0.9615384615384616em" height="3.070837325898425em" x="20.192307692307693em" y="26.929162674101576em" fill="#aaa"/><rect width="0.9615384615384616em" height="2.490057222066787em" x="21.153846153846153em" y="27.50994277793321em" fill="#aaa"/><rect width="0.9615384615384616em" height="3.606498005410009em" x="22.115384615384617em" y="26.39350199458999em" fill="#aaa"/><rect width="0.9615384615384616em" height="3.1462094789538093em" x="23.076923076923077em" y="26.85379052104619em" fill="#aaa"/><rect width="0.9615384615384616em" height="3.465737770066291em" x="24.03846153846154em" y="26.53426222993371em" fill="#aaa"/><rect width="0.9615384615384616em" height="2.3535163558647327em" x="25em" y="27.646483644135266em" fill="#aaa"/><rect width="0.9615384615384616em" height="1.860595115213966em" x="25.961538461538463em" y="28.139404884786035em" fill="#aaa"/><rect width="0.9615384615384616em" height="1.4438938815312001em" x="26.923076923076923em" y="28.5561061184688em" fill="#aaa"/><rect width="0.9615384615384616em" height="1.0159526603613456em" x="27.884615384615387em" y="28.984047339638654em" fill="#aaa"/><rect width="0.9615384615384616em" height="3.0261184674560626em" x="28.846153846153847em" y="26.97388153254394em" fill="#aaa"/><rect width="0.9615384615384616em" height="2.433644083196917em" x="29.80769230769231em" y="27.566355916803083em" fill="#aaa"/><rect width="0.9615384615384616em" height="1.9940400570431793em" x="30.76923076923077em" y="28.00595994295682em" fill="#aaa"/><rect width="0.9615384615384616em" height="1.3992492625224133em" x="31.73076923076923em" y="28.600750737477586em" fill="#aaa"/><rect width="0.9615384615384616em" height="1.613287915159153em" x="32.69230769230769em" y="28.38671208484085em" fill="#aaa"/><rect width="0.9615384615384616em" height="2.185132817529222em" x="33.65384615384615em" y="27.814867182470778em" fill="#aaa"/><rect width="0.9615384615384616em" height="6.153167767691108em" x="34.61538461538461em" y="23.84683223230889em" fill="#aaa"/><rect width="0.9615384615384616em" height="3.0795588686392623em" x="35.57692307692308em" y="26.92044113136074em" fill="#aaa"/><rect width="0.9615384615384616em" height="3.3634266598621334em" x="36.53846153846154em" y="26.636573340137865em" fill="#aaa"/><rect width="0.9615384615384616em" height="2.6977037657751657em" x="37.5em" y="27.302296234224833em" fill="#aaa"/><rect width="0.9615384615384616em" height="4.125613811001122em" x="38.46153846153846em" y="25.874386188998876em" fill="#aaa"/><rect width="0.9615384615384616em" height="2.0692812758924557em" x="39.42307692307693em" y="27.930718724107543em" fill="#aaa"/><rect width="0.9615384615384616em" height="4.822964375361851em" x="40.38461538461539em" y="25.17703562463815em" fill="#aaa"/><rect width="0.9615384615384616em" height="5.120157252218998em" x="41.34615384615385em" y="24.879842747781em" fill="#aaa"/><rect width="0.9615384615384616em" height="4.930872364604359em" x="42.30769230769231em" y="25.069127635395642em" fill="#aaa"/><rect width="0.9615384615384616em" height="6.206101481913058em" x="43.269230769230774em" y="23.79389851808694em" fill="#aaa"/><rect width="0.9615384615384616em" height="2.2026347794359764em" x="44.23076923076923em" y="27.797365220564025em" fill="#aaa"/><rect width="0.9615384615384616em" height="4.754697718501438em" x="45.19230769230769em" y="25.24530228149856em" fill="#aaa"/><rect width="0.9615384615384616em" height="2.5048408749926576em" x="46.15384615384615em" y="27.49515912500734em" fill="#aaa"/><rect width="0.9615384615384616em" height="3.102062579200783em" x="47.11538461538461em" y="26.897937420799217em" fill="#aaa"/><rect width="0.9615384615384616em" height="7.052707047005234em" x="48.07692307692308em" y="22.947292952994765em" fill="#aaa"/><rect width="0.9615384615384616em" height="6.169460404826557em" x="49.03846153846154em" y="23.83053959517344em" fill="#aaa"/><rect width="0.9615384615384616em" height="4.926719601338486em" x="50em" y="25.073280398661513em" fill="#aaa"/><rect width="0.9615384615384616em" height="4.42888029608767em" x="50.96153846153846em" y="25.57111970391233em" fill="#aaa"/><rect width="0.9615384615384616em" height="9.114478382470574em" x="51.92307692307693em" y="20.885521617529427em" fill="#aaa"/><rect width="0.9615384615384616em" height="9.63736184050181em" x="52.88461538461539em" y="20.36263815949819em" fill="#aaa"/><rect width="0.9615384615384616em" height="7.12237620144112em" x="53.84615384615385em" y="22.87762379855888em" fill="#aaa"/><rect width="0.9615384615384616em" height="9.421409509224995em" x="54.80769230769231em" y="20.578590490775007em" fill="#aaa"/><rect width="0.9615384615384616em" height="8.883434052124652em" x="55.769230769230774em" y="21.116565947875348em" fill="#aaa"/><rect width="0.9615384615384616em" height="4.050327599733785em" x="56.73076923076923em" y="25.949672400266216em" fill="#aaa"/><rect width="0.9615384615384616em" height="6.14877019637162em" x="57.69230769230769em" y="23.851229803628378em" fill="#aaa"/><rect width="0.9615384615384616em" height="5.351001965932724em" x="58.65384615384615em" y="24.648998034067276em" fill="#aaa"/><rect width="0.9615384615384616em" height="5.997607119046768em" x="59.61538461538462em" y="24.00239288095323em" fill="#aaa"/><rect width="0.9615384615384616em" height="15.50763103631416em" x="60.57692307692308em" y="14.49236896368584em" fill="#aaa"/><rect width="0.9615384615384616em" height="10.860021283123334em" x="61.53846153846154em" y="19.139978716876666em" fill="#aaa"/><rect width="0.9615384615384616em" height="10.435815835521648em" x="62.5em" y="19.564184164478352em" fill="#aaa"/><rect width="0.9615384615384616em" height="9.803932902394298em" x="63.46153846153846em" y="20.196067097605702em" fill="#aaa"/><rect width="0.9615384615384616em" height="7.112606028656793em" x="64.42307692307692em" y="22.887393971343208em" fill="#aaa"/><rect width="0.9615384615384616em" height="6.050745427070649em" x="65.38461538461539em" y="23.949254572929352em" fill="#aaa"/><rect width="0.9615384615384616em" height="8.536726361294205em" x="66.34615384615385em" y="21.463273638705793em" fill="#aaa"/><rect width="0.9615384615384616em" height="7.753678595376287em" x="67.3076923076923em" y="22.246321404623714em" fill="#aaa"/><rect width="0.9615384615384616em" height="10.716749672483624em" x="68.26923076923077em" y="19.283250327516377em" fill="#aaa"/><rect width="0.9615384615384616em" height="7.566746324026597em" x="69.23076923076923em" y="22.433253675973404em" fill="#aaa"/><rect width="0.9615384615384616em" height="12.869507504132347em" x="70.1923076923077em" y="17.130492495867653em" fill="#aaa"/><rect width="0.9615384615384616em" height="8.107223577757024em" x="71.15384615384616em" y="21.892776422242974em" fill="#aaa"/><rect width="0.9615384615384616em" height="8.146515760289468em" x="72.11538461538461em" y="21.853484239710532em" fill="#aaa"/><rect width="0.9615384615384616em" height="10.444506018857453em" x="73.07692307692308em" y="19.555493981142547em" fill="#aaa"/><rect width="0.9615384615384616em" height="7.038106932704636em" x="74.03846153846155em" y="22.961893067295364em" fill="#aaa"/><rect width="0.9615384615384616em" height="10.044813778385029em" x="75em" y="19.955186221614973em" fill="#aaa"/><rect width="0.9615384615384616em" height="8.326284088296859em" x="75.96153846153847em" y="21.67371591170314em" fill="#aaa"/><rect width="0.9615384615384616em" height="12.759782420375176em" x="76.92307692307692em" y="17.240217579624826em" fill="#aaa"/><rect width="0.9615384615384616em" height="10.146311144511028em" x="77.88461538461539em" y="19.853688855488972em" fill="#aaa"/><rect width="0.9615384615384616em" height="13.637060874670956em" x="78.84615384615385em" y="16.362939125329042em" fill="#aaa"/><rect width="0.9615384615384616em" height="10.973999283329356em" x="79.8076923076923em" y="19.026000716670644em" fill="#aaa"/><rect width="0.9615384615384616em" height="11.375767258291898em" x="80.76923076923077em" y="18.624232741708102em" fill="#aaa"/><rect width="0.9615384615384616em" height="11.884478877106273em" x="81.73076923076923em" y="18.115521122893725em" fill="#aaa"/><rect width="0.9615384615384616em" height="12.880579382608357em" x="82.6923076923077em" y="17.119420617391643em" fill="#aaa"/><rect width="0.9615384615384616em" height="14.405383496789957em" x="83.65384615384616em" y="15.594616503210043em" fill="#aaa"/><rect width="0.9615384615384616em" height="15.249595734656754em" x="84.61538461538461em" y="14.750404265343246em" fill="#aaa"/><rect width="0.9615384615384616em" height="14.697990241214573em" x="85.57692307692308em" y="15.302009758785427em" fill="#aaa"/><rect width="0.9615384615384616em" height="10.961124042575769em" x="86.53846153846155em" y="19.03887595742423em" fill="#aaa"/><rect width="0.9615384615384616em" height="13.749166317842317em" x="87.5em" y="16.250833682157683em" fill="#aaa"/><rect width="0.9615384615384616em" height="15.046656972028213em" x="88.46153846153847em" y="14.953343027971787em" fill="#aaa"/><rect width="0.9615384615384616em" height="14.288473828078915em" x="89.42307692307692em" y="15.711526171921085em" fill="#aaa"/><rect width="0.9615384615384616em" height="16.140324041276834em" x="90.38461538461539em" y="13.859675958723166em" fill="#aaa"/><rect width="0.9615384615384616em" height="14.768134523250461em" x="91.34615384615385em" y="15.231865476749539em" fill="#aaa"/><rect width="0.9615384615384616em" height="19.7366416113321em" x="92.3076923076923em" y="10.2633583886679em" fill="#aaa"/><rect width="0.9615384615384616em" height="17.60519803268618em" x="93.26923076923077em" y="12.394801967313821em" fill="#aaa"/><rect width="0.9615384615384616em" height="25.476755999723363em" x="94.23076923076923em" y="4.523244000276637em" fill="#aaa"/><rect width="0.9615384615384616em" height="30em" x="95.1923076923077em" y="0em" fill="#aaa"/><rect width="0.9615384615384616em" height="20.756199669185808em" x="96.15384615384616em" y="9.243800330814192em" fill="#aaa"/><rect width="0.9615384615384616em" height="21.414434313334525em" x="97.11538461538461em" y="8.585565686665475em" fill="#aaa"/><rect width="0.9615384615384616em" height="26.64492503603998em" x="98.07692307692308em" y="3.3550749639600213em" fill="#aaa"/><rect width="0.9615384615384616em" height="23.511645365227714em" x="99.03846153846155em" y="6.488354634772286em" fill="#aaa"/></svg>