<?xml version="1.0" standalone="no"?>
<svg xmlns:xlink="http://www.w3.org/1999/xlink" xmlns="http://www.w3.org/2000/svg" class="topic-graph" style="width: 100em; height: 30em; text-align: center;"><rect width="0.9615384615384616em" height="1.242663419686752em" x="0em" y="28.757336580313247em" fill="#aaa"/><rect width="0.9615384615384616em" height="0.48125469710640456em" x="0.9615384615384616em" y="29.518745302893596em" fill="#aaa"/><rect width="0.9615384615384616em" height="0.1557060785314835em" x="1.9230769230769231em" y="29.844293921468516em" fill="#aaa"/><rect width="0.9615384615384616em" height="0.292113374758721em" x="2.8846153846153846em" y="29.70788662524128em" fill="#aaa"/><rect width="0.9615384615384616em" height="1.917966776143001em" x="3.8461538461538463em" y="28.082033223857em" fill="#aaa"/><rect width="0.9615384615384616em" height="0.1969158177688529em" x="4.8076923076923075em" y="29.803084182231146em" fill="#aaa"/><rect width="0.9615384615384616em" height="0.26662412503577176em" x="5.769230769230769em" y="29.733375874964228em" fill="#aaa"/><rect width="0.9615384615384616em" height="0.13321589343311105em" x="6.730769230769231em" y="29.86678410656689em" fill="#aaa"/><rect width="0.9615384615384616em" height="0.17268344378964787em" x="7.6923076923076925em" y="29.827316556210352em" fill="#aaa"/><rect width="0.9615384615384616em" height="0.2040619096820175em" x="8.653846153846153em" y="29.795938090317982em" fill="#aaa"/><rect width="0.9615384615384616em" height="0.2752889272122982em" x="9.615384615384615em" y="29.724711072787702em" fill="#aaa"/><rect width="0.9615384615384616em" height="2.1636240272647065em" x="10.576923076923077em" y="27.836375972735294em" fill="#aaa"/><rect width="0.9615384615384616em" height="0.3683316536641966em" x="11.538461538461538em" y="29.631668346335804em" fill="#aaa"/><rect width="0.9615384615384616em" height="0.6988423575584728em" x="12.5em" y="29.301157642441527em" fill="#aaa"/><rect width="0.9615384615384616em" height="0.41560272015892574em" x="13.461538461538462em" y="29.584397279841074em" fill="#aaa"/><rect width="0.9615384615384616em" height="0.9328864915373435em" x="14.423076923076923em" y="29.067113508462658em" fill="#aaa"/><rect width="0.9615384615384616em" height="0.3319232846298866em" x="15.384615384615385em" y="29.668076715370113em" fill="#aaa"/><rect width="0.9615384615384616em" height="0.5122066785473467em" x="16.346153846153847em" y="29.487793321452653em" fill="#aaa"/><rect width="0.9615384615384616em" height="0.12027821496131291em" x="17.307692307692307em" y="29.879721785038686em" fill="#aaa"/><rect width="0.9615384615384616em" height="1.339539517479547em" x="18.26923076923077em" y="28.660460482520453em" fill="#aaa"/><rect width="0.9615384615384616em" height="0.3974382811613092em" x="19.23076923076923em" y="29.60256171883869em" fill="#aaa"/><rect width="0.9615384615384616em" height="2.157840668861679em" x="20.192307692307693em" y="27.84215933113832em" fill="#aaa"/><rect width="0.9615384615384616em" height="3.245907250889807em" x="21.153846153846153em" y="26.754092749110193em" fill="#aaa"/><rect width="0.9615384615384616em" height="0.27923602651335006em" x="22.115384615384617em" y="29.72076397348665em" fill="#aaa"/><rect width="0.9615384615384616em" height="0.20718137421365335em" x="23.076923076923077em" y="29.792818625786346em" fill="#aaa"/><rect width="0.9615384615384616em" height="0.47732980507414524em" x="24.03846153846154em" y="29.522670194925855em" fill="#aaa"/><rect width="0.9615384615384616em" height="0.43687881628330466em" x="25em" y="29.563121183716696em" fill="#aaa"/><rect width="0.9615384615384616em" height="0.44383238830280225em" x="25.961538461538463em" y="29.556167611697198em" fill="#aaa"/><rect width="0.9615384615384616em" height="0.36674383640307195em" x="26.923076923076923em" y="29.63325616359693em" fill="#aaa"/><rect width="0.9615384615384616em" height="0.13577779691423034em" x="27.884615384615387em" y="29.86422220308577em" fill="#aaa"/><rect width="0.9615384615384616em" height="0.6341169893928704em" x="28.846153846153847em" y="29.365883010607128em" fill="#aaa"/><rect width="0.9615384615384616em" height="1.4101810171567686em" x="29.80769230769231em" y="28.58981898284323em" fill="#aaa"/><rect width="0.9615384615384616em" height="0.7194265794046844em" x="30.76923076923077em" y="29.280573420595317em" fill="#aaa"/><rect width="0.9615384615384616em" height="0.36136691221943845em" x="31.73076923076923em" y="29.638633087780562em" fill="#aaa"/><rect width="0.9615384615384616em" height="1.391897288896446em" x="32.69230769230769em" y="28.608102711103555em" fill="#aaa"/><rect width="0.9615384615384616em" height="0.9351920704155644em" x="33.65384615384615em" y="29.064807929584436em" fill="#aaa"/><rect width="0.9615384615384616em" height="0.8237148544574524em" x="34.61538461538461em" y="29.176285145542547em" fill="#aaa"/><rect width="0.9615384615384616em" height="3.2710033592499896em" x="35.57692307692308em" y="26.72899664075001em" fill="#aaa"/><rect width="0.9615384615384616em" height="0.7757121259779276em" x="36.53846153846154em" y="29.22428787402207em" fill="#aaa"/><rect width="0.9615384615384616em" height="0.5138472671811349em" x="37.5em" y="29.486152732818866em" fill="#aaa"/><rect width="0.9615384615384616em" height="1.6170403483333526em" x="38.46153846153846em" y="28.382959651666646em" fill="#aaa"/><rect width="0.9615384615384616em" height="0.5518298709371303em" x="39.42307692307693em" y="29.44817012906287em" fill="#aaa"/><rect width="0.9615384615384616em" height="1.3696881553355063em" x="40.38461538461539em" y="28.630311844664494em" fill="#aaa"/><rect width="0.9615384615384616em" height="0.5329947166525498em" x="41.34615384615385em" y="29.46700528334745em" fill="#aaa"/><rect width="0.9615384615384616em" height="1.5202176705807704em" x="42.30769230769231em" y="28.47978232941923em" fill="#aaa"/><rect width="0.9615384615384616em" height="0.9846110488085893em" x="43.269230769230774em" y="29.01538895119141em" fill="#aaa"/><rect width="0.9615384615384616em" height="1.13923558191952em" x="44.23076923076923em" y="28.86076441808048em" fill="#aaa"/><rect width="0.9615384615384616em" height="0.40400007859233455em" x="45.19230769230769em" y="29.595999921407664em" fill="#aaa"/><rect width="0.9615384615384616em" height="0.4080075255565614em" x="46.15384615384615em" y="29.591992474443437em" fill="#aaa"/><rect width="0.9615384615384616em" height="0.4568730810720163em" x="47.11538461538461em" y="29.543126918927985em" fill="#aaa"/><rect width="0.9615384615384616em" height="4.417013810629376em" x="48.07692307692308em" y="25.582986189370622em" fill="#aaa"/><rect width="0.9615384615384616em" height="0.8657405698102797em" x="49.03846153846154em" y="29.13425943018972em" fill="#aaa"/><rect width="0.9615384615384616em" height="0.9643403240451275em" x="50em" y="29.03565967595487em" fill="#aaa"/><rect width="0.9615384615384616em" height="1.8720662998833362em" x="50.96153846153846em" y="28.127933700116664em" fill="#aaa"/><rect width="0.9615384615384616em" height="5.2752990998734335em" x="51.92307692307693em" y="24.724700900126567em" fill="#aaa"/><rect width="0.9615384615384616em" height="1.3507688149882697em" x="52.88461538461539em" y="28.64923118501173em" fill="#aaa"/><rect width="0.9615384615384616em" height="2.9547076715902962em" x="53.84615384615385em" y="27.045292328409705em" fill="#aaa"/><rect width="0.9615384615384616em" height="25.302498201330955em" x="54.80769230769231em" y="4.697501798669045em" fill="#aaa"/><rect width="0.9615384615384616em" height="8.205165171400207em" x="55.769230769230774em" y="21.794834828599793em" fill="#aaa"/><rect width="0.9615384615384616em" height="8.56462255169827em" x="56.73076923076923em" y="21.43537744830173em" fill="#aaa"/><rect width="0.9615384615384616em" height="8.097750897444469em" x="57.69230769230769em" y="21.90224910255553em" fill="#aaa"/><rect width="0.9615384615384616em" height="3.656075884270463em" x="58.65384615384615em" y="26.343924115729536em" fill="#aaa"/><rect width="0.9615384615384616em" height="5.400755305409963em" x="59.61538461538462em" y="24.599244694590038em" fill="#aaa"/><rect width="0.9615384615384616em" height="3.1052862702103528em" x="60.57692307692308em" y="26.894713729789647em" fill="#aaa"/><rect width="0.9615384615384616em" height="4.717733464689036em" x="61.53846153846154em" y="25.282266535310963em" fill="#aaa"/><rect width="0.9615384615384616em" height="8.745728687498122em" x="62.5em" y="21.254271312501878em" fill="#aaa"/><rect width="0.9615384615384616em" height="30em" x="63.46153846153846em" y="0em" fill="#aaa"/><rect width="0.9615384615384616em" height="15.985149348442144em" x="64.42307692307692em" y="14.014850651557856em" fill="#aaa"/><rect width="0.9615384615384616em" height="8.077284735459276em" x="65.38461538461539em" y="21.922715264540724em" fill="#aaa"/><rect width="0.9615384615384616em" height="9.388150304063208em" x="66.34615384615385em" y="20.61184969593679em" fill="#aaa"/><rect width="0.9615384615384616em" height="17.75793466727608em" x="67.3076923076923em" y="12.242065332723922em" fill="#aaa"/><rect width="0.9615384615384616em" height="13.229852182343834em" x="68.26923076923077em" y="16.770147817656166em" fill="#aaa"/><rect width="0.9615384615384616em" height="16.75148052692217em" x="69.23076923076923em" y="13.248519473077831em" fill="#aaa"/><rect width="0.9615384615384616em" height="7.2548312447391625em" x="70.1923076923077em" y="22.74516875526084em" fill="#aaa"/><rect width="0.9615384615384616em" height="4.917160701109071em" x="71.15384615384616em" y="25.082839298890928em" fill="#aaa"/><rect width="0.9615384615384616em" height="13.239023767186115em" x="72.11538461538461em" y="16.760976232813885em" fill="#aaa"/><rect width="0.9615384615384616em" height="8.75189578233318em" x="73.07692307692308em" y="21.24810421766682em" fill="#aaa"/><rect width="0.9615384615384616em" height="4.885990526147866em" x="74.03846153846155em" y="25.114009473852136em" fill="#aaa"/><rect width="0.9615384615384616em" height="8.57271972078921em" x="75em" y="21.42728027921079em" fill="#aaa"/><rect width="0.9615384615384616em" height="10.803465234302951em" x="75.96153846153847em" y="19.19653476569705em" fill="#aaa"/><rect width="0.9615384615384616em" height="5.0866264929811065em" x="76.92307692307692em" y="24.913373507018893em" fill="#aaa"/><rect width="0.9615384615384616em" height="11.377804359478777em" x="77.88461538461539em" y="18.622195640521223em" fill="#aaa"/><rect width="0.9615384615384616em" height="8.51779191502613em" x="78.84615384615385em" y="21.48220808497387em" fill="#aaa"/><rect width="0.9615384615384616em" height="8.228224146890593em" x="79.8076923076923em" y="21.771775853109407em" fill="#aaa"/><rect width="0.9615384615384616em" height="12.101977433574618em" x="80.76923076923077em" y="17.898022566425382em" fill="#aaa"/><rect width="0.9615384615384616em" height="18.256581429918594em" x="81.73076923076923em" y="11.743418570081406em" fill="#aaa"/><rect width="0.9615384615384616em" height="14.657957564829779em" x="82.6923076923077em" y="15.342042435170221em" fill="#aaa"/><rect width="0.9615384615384616em" height="11.032604718283633em" x="83.65384615384616em" y="18.967395281716367em" fill="#aaa"/><rect width="0.9615384615384616em" height="14.531078748690422em" x="84.61538461538461em" y="15.468921251309578em" fill="#aaa"/><rect width="0.9615384615384616em" height="24.142385336577608em" x="85.57692307692308em" y="5.8576146634223925em" fill="#aaa"/><rect width="0.9615384615384616em" height="14.667762971008198em" x="86.53846153846155em" y="15.332237028991802em" fill="#aaa"/><rect width="0.9615384615384616em" height="9.44893119311984em" x="87.5em" y="20.55106880688016em" fill="#aaa"/><rect width="0.9615384615384616em" height="9.191684990926138em" x="88.46153846153847em" y="20.808315009073862em" fill="#aaa"/><rect width="0.9615384615384616em" height="7.798152910535003em" x="89.42307692307692em" y="22.201847089464998em" fill="#aaa"/><rect width="0.9615384615384616em" height="9.376236214179002em" x="90.38461538461539em" y="20.623763785820998em" fill="#aaa"/><rect width="0.9615384615384616em" height="7.304116173246257em" x="91.34615384615385em" y="22.695883826753743em" fill="#aaa"/><rect width="0.9615384615384616em" height="10.309584177299005em" x="92.3076923076923em" y="19.690415822700995em" fill="#aaa"/><rect width="0.9615384615384616em" height="7.912110613371031em" x="93.26923076923077em" y="22.08788938662897em" fill="#aaa"/><rect width="0.9615384615384616em" height="11.466590430081299em" x="94.23076923076923em" y="18.533409569918703em" fill="#aaa"/><rect width="0.9615384615384616em" height="12.728640211370127em" x="95.1923076923077em" y="17.271359788629873em" fill="#aaa"/><rect width="0.9615384615384616em" height="8.60882112101695em" x="96.15384615384616em" y="21.391178878983048em" fill="#aaa"/><rect width="0.9615384615384616em" height="8.139769015247484em" x="97.11538461538461em" y="21.860230984752516em" fill="#aaa"/><rect width="0.9615384615384616em" height="9.513494625443082em" x="98.07692307692308em" y="20.48650537455692em" fill="#aaa"/><rect width="0.9615384615384616em" height="9.139855454462305em" x="99.03846153846155em" y="20.860144545537693em" fill="#aaa"/></svg>