<?xml version="1.0" standalone="no"?>
<svg xmlns:xlink="http://www.w3.org/1999/xlink" xmlns="http://www.w3.org/2000/svg" class="topic-graph" style="width: 10vw; height: 3em; text-align: center;"><rect width="0.09615384615384616em" height="0.029372895954653803em" x="0vw" y="2.970627104045346em" fill="#aaa"/><rect width="0.09615384615384616em" height="0.4813851378338445em" x="0.09615384615384616vw" y="2.5186148621661557em" fill="#aaa"/><rect width="0.09615384615384616em" height="0.09887712841935815em" x="0.19230769230769232vw" y="2.901122871580642em" fill="#aaa"/><rect width="0.09615384615384616em" height="0.7416173275472735em" x="0.2884615384615385vw" y="2.2583826724527265em" fill="#aaa"/><rect width="0.09615384615384616em" height="0.11677724789243904em" x="0.38461538461538464vw" y="2.883222752107561em" fill="#aaa"/><rect width="0.09615384615384616em" height="0.30961401161241775em" x="0.4807692307692308vw" y="2.6903859883875825em" fill="#aaa"/><rect width="0.09615384615384616em" height="0.053142846876620166em" x="0.576923076923077vw" y="2.94685715312338em" fill="#aaa"/><rect width="0.09615384615384616em" height="0.03436981067088167em" x="0.6730769230769231vw" y="2.965630189329118em" fill="#aaa"/><rect width="0.09615384615384616em" height="0.07239078016826458em" x="0.7692307692307693vw" y="2.9276092198317354em" fill="#aaa"/><rect width="0.09615384615384616em" height="0.2439238103757178em" x="0.8653846153846154vw" y="2.7560761896242822em" fill="#aaa"/><rect width="0.09615384615384616em" height="0.04916968379886007em" x="0.9615384615384616vw" y="2.95083031620114em" fill="#aaa"/><rect width="0.09615384615384616em" height="0.9709082598508616em" x="1.0576923076923077vw" y="2.0290917401491386em" fill="#aaa"/><rect width="0.09615384615384616em" height="0.2650264331643406em" x="1.153846153846154vw" y="2.7349735668356594em" fill="#aaa"/><rect width="0.09615384615384616em" height="0.2423441591243482em" x="1.25vw" y="2.757655840875652em" fill="#aaa"/><rect width="0.09615384615384616em" height="0.1542348245898364em" x="1.3461538461538463vw" y="2.845765175410164em" fill="#aaa"/><rect width="0.09615384615384616em" height="0.34362609232590435em" x="1.4423076923076923vw" y="2.6563739076740958em" fill="#aaa"/><rect width="0.09615384615384616em" height="0.11921291380341892em" x="1.5384615384615385vw" y="2.880787086196581em" fill="#aaa"/><rect width="0.09615384615384616em" height="0.47920296922555505em" x="1.6346153846153848vw" y="2.520797030774445em" fill="#aaa"/><rect width="0.09615384615384616em" height="0.14556196868501156em" x="1.7307692307692308vw" y="2.8544380313149884em" fill="#aaa"/><rect width="0.09615384615384616em" height="0.16981244805724915em" x="1.826923076923077vw" y="2.8301875519427506em" fill="#aaa"/><rect width="0.09615384615384616em" height="0.22690217761190523em" x="1.9230769230769231vw" y="2.773097822388095em" fill="#aaa"/><rect width="0.09615384615384616em" height="0.47192945143045023em" x="2.019230769230769vw" y="2.52807054856955em" fill="#aaa"/><rect width="0.09615384615384616em" height="0.2596177940651515em" x="2.1153846153846154vw" y="2.7403822059348486em" fill="#aaa"/><rect width="0.09615384615384616em" height="0.43188585705661753em" x="2.2115384615384617vw" y="2.5681141429433825em" fill="#aaa"/><rect width="0.09615384615384616em" height="0.04883257831527084em" x="2.307692307692308vw" y="2.9511674216847292em" fill="#aaa"/><rect width="0.09615384615384616em" height="0.2734650302464927em" x="2.403846153846154vw" y="2.7265349697535073em" fill="#aaa"/><rect width="0.09615384615384616em" height="0.11315107762576324em" x="2.5vw" y="2.8868489223742366em" fill="#aaa"/><rect width="0.09615384615384616em" height="0.4073234470760334em" x="2.5961538461538463vw" y="2.5926765529239666em" fill="#aaa"/><rect width="0.09615384615384616em" height="0.18771061362025704em" x="2.6923076923076925vw" y="2.812289386379743em" fill="#aaa"/><rect width="0.09615384615384616em" height="0.14965240459096263em" x="2.7884615384615388vw" y="2.8503475954090374em" fill="#aaa"/><rect width="0.09615384615384616em" height="0.1815594918920827em" x="2.8846153846153846vw" y="2.8184405081079174em" fill="#aaa"/><rect width="0.09615384615384616em" height="0.2206995077551557em" x="2.980769230769231vw" y="2.779300492244844em" fill="#aaa"/><rect width="0.09615384615384616em" height="0.17310233338946612em" x="3.076923076923077vw" y="2.8268976666105337em" fill="#aaa"/><rect width="0.09615384615384616em" height="1.0545184456242067em" x="3.1730769230769234vw" y="1.9454815543757933em" fill="#aaa"/><rect width="0.09615384615384616em" height="0.5579387532900476em" x="3.2692307692307696vw" y="2.4420612467099523em" fill="#aaa"/><rect width="0.09615384615384616em" height="1.0715382037368077em" x="3.3653846153846154vw" y="1.9284617962631923em" fill="#aaa"/><rect width="0.09615384615384616em" height="0.7155779231934585em" x="3.4615384615384617vw" y="2.2844220768065417em" fill="#aaa"/><rect width="0.09615384615384616em" height="0.7698305979967446em" x="3.557692307692308vw" y="2.2301694020032556em" fill="#aaa"/><rect width="0.09615384615384616em" height="1.5090453345321988em" x="3.653846153846154vw" y="1.4909546654678012em" fill="#aaa"/><rect width="0.09615384615384616em" height="0.6502503873787928em" x="3.75vw" y="2.349749612621207em" fill="#aaa"/><rect width="0.09615384615384616em" height="0.7466999918921091em" x="3.8461538461538463vw" y="2.2533000081078907em" fill="#aaa"/><rect width="0.09615384615384616em" height="0.8677123148252602em" x="3.9423076923076925vw" y="2.13228768517474em" fill="#aaa"/><rect width="0.09615384615384616em" height="0.8351327987387767em" x="4.038461538461538vw" y="2.1648672012612233em" fill="#aaa"/><rect width="0.09615384615384616em" height="1.4425370017707408em" x="4.134615384615385vw" y="1.5574629982292592em" fill="#aaa"/><rect width="0.09615384615384616em" height="1.4598124886177128em" x="4.230769230769231vw" y="1.5401875113822872em" fill="#aaa"/><rect width="0.09615384615384616em" height="0.42079838355337107em" x="4.3269230769230775vw" y="2.579201616446629em" fill="#aaa"/><rect width="0.09615384615384616em" height="0.916484424626449em" x="4.423076923076923vw" y="2.083515575373551em" fill="#aaa"/><rect width="0.09615384615384616em" height="1.540673323450866em" x="4.519230769230769vw" y="1.459326676549134em" fill="#aaa"/><rect width="0.09615384615384616em" height="0.5996437174307035em" x="4.615384615384616vw" y="2.4003562825692963em" fill="#aaa"/><rect width="0.09615384615384616em" height="0.42839163309736505em" x="4.711538461538462vw" y="2.571608366902635em" fill="#aaa"/><rect width="0.09615384615384616em" height="0.49060797584721383em" x="4.807692307692308vw" y="2.509392024152786em" fill="#aaa"/><rect width="0.09615384615384616em" height="0.4130438279431554em" x="4.903846153846154vw" y="2.5869561720568446em" fill="#aaa"/><rect width="0.09615384615384616em" height="1.0897225455354302em" x="5vw" y="1.9102774544645698em" fill="#aaa"/><rect width="0.09615384615384616em" height="3em" x="5.096153846153847vw" y="0em" fill="#aaa"/><rect width="0.09615384615384616em" height="1.132748750601868em" x="5.1923076923076925vw" y="1.867251249398132em" fill="#aaa"/><rect width="0.09615384615384616em" height="0.7844725812075972em" x="5.288461538461538vw" y="2.215527418792403em" fill="#aaa"/><rect width="0.09615384615384616em" height="1.4108676282230324em" x="5.384615384615385vw" y="1.5891323717769676em" fill="#aaa"/><rect width="0.09615384615384616em" height="0.6924649740239478em" x="5.480769230769231vw" y="2.307535025976052em" fill="#aaa"/><rect width="0.09615384615384616em" height="0.82160059618138em" x="5.5769230769230775vw" y="2.17839940381862em" fill="#aaa"/><rect width="0.09615384615384616em" height="1.072871091766263em" x="5.673076923076923vw" y="1.927128908233737em" fill="#aaa"/><rect width="0.09615384615384616em" height="0.7906398636292331em" x="5.769230769230769vw" y="2.209360136370767em" fill="#aaa"/><rect width="0.09615384615384616em" height="0.35125017959150134em" x="5.865384615384616vw" y="2.6487498204084985em" fill="#aaa"/><rect width="0.09615384615384616em" height="0.5149698711606795em" x="5.961538461538462vw" y="2.4850301288393206em" fill="#aaa"/><rect width="0.09615384615384616em" height="1.1031989927992245em" x="6.057692307692308vw" y="1.8968010072007755em" fill="#aaa"/><rect width="0.09615384615384616em" height="0.41150335824094886em" x="6.153846153846154vw" y="2.5884966417590514em" fill="#aaa"/><rect width="0.09615384615384616em" height="0.707617107597779em" x="6.25vw" y="2.292382892402221em" fill="#aaa"/><rect width="0.09615384615384616em" height="0.7171668963528639em" x="6.346153846153847vw" y="2.2828331036471363em" fill="#aaa"/><rect width="0.09615384615384616em" height="0.807968065474276em" x="6.4423076923076925vw" y="2.192031934525724em" fill="#aaa"/><rect width="0.09615384615384616em" height="0.42832021920366536em" x="6.538461538461539vw" y="2.5716797807963347em" fill="#aaa"/><rect width="0.09615384615384616em" height="0.36912548155067687em" x="6.634615384615385vw" y="2.630874518449323em" fill="#aaa"/><rect width="0.09615384615384616em" height="0.4129661642712249em" x="6.730769230769231vw" y="2.587033835728775em" fill="#aaa"/><rect width="0.09615384615384616em" height="0.600944279145857em" x="6.8269230769230775vw" y="2.399055720854143em" fill="#aaa"/><rect width="0.09615384615384616em" height="0.5485525042311148em" x="6.923076923076923vw" y="2.4514474957688854em" fill="#aaa"/><rect width="0.09615384615384616em" height="0.5437748863109704em" x="7.01923076923077vw" y="2.4562251136890296em" fill="#aaa"/><rect width="0.09615384615384616em" height="1.213427403303836em" x="7.115384615384616vw" y="1.786572596696164em" fill="#aaa"/><rect width="0.09615384615384616em" height="0.5939012658344118em" x="7.211538461538462vw" y="2.406098734165588em" fill="#aaa"/><rect width="0.09615384615384616em" height="0.5274180087103642em" x="7.307692307692308vw" y="2.472581991289636em" fill="#aaa"/><rect width="0.09615384615384616em" height="0.5116496154328565em" x="7.403846153846154vw" y="2.4883503845671435em" fill="#aaa"/><rect width="0.09615384615384616em" height="0.7607705434403951em" x="7.5vw" y="2.239229456559605em" fill="#aaa"/><rect width="0.09615384615384616em" height="0.5911003085639192em" x="7.596153846153847vw" y="2.4088996914360807em" fill="#aaa"/><rect width="0.09615384615384616em" height="0.5313177647510506em" x="7.6923076923076925vw" y="2.4686822352489495em" fill="#aaa"/><rect width="0.09615384615384616em" height="0.24174401366022472em" x="7.788461538461539vw" y="2.7582559863397753em" fill="#aaa"/><rect width="0.09615384615384616em" height="0.33460678792493254em" x="7.884615384615385vw" y="2.6653932120750676em" fill="#aaa"/><rect width="0.09615384615384616em" height="0.37066178834149865em" x="7.980769230769231vw" y="2.629338211658501em" fill="#aaa"/><rect width="0.09615384615384616em" height="0.38811218265366554em" x="8.076923076923077vw" y="2.6118878173463345em" fill="#aaa"/><rect width="0.09615384615384616em" height="0.3648737848284431em" x="8.173076923076923vw" y="2.6351262151715567em" fill="#aaa"/><rect width="0.09615384615384616em" height="0.19740476595216389em" x="8.26923076923077vw" y="2.802595234047836em" fill="#aaa"/><rect width="0.09615384615384616em" height="0.29362025849747175em" x="8.365384615384615vw" y="2.7063797415025284em" fill="#aaa"/><rect width="0.09615384615384616em" height="0.46490025983836347em" x="8.461538461538462vw" y="2.5350997401616366em" fill="#aaa"/><rect width="0.09615384615384616em" height="0.36636786406353183em" x="8.557692307692308vw" y="2.6336321359364683em" fill="#aaa"/><rect width="0.09615384615384616em" height="0.29261281315653853em" x="8.653846153846155vw" y="2.7073871868434614em" fill="#aaa"/><rect width="0.09615384615384616em" height="0.2163447615667683em" x="8.75vw" y="2.783655238433232em" fill="#aaa"/><rect width="0.09615384615384616em" height="0.26285808624332596em" x="8.846153846153847vw" y="2.737141913756674em" fill="#aaa"/><rect width="0.09615384615384616em" height="0.270864947940644em" x="8.942307692307693vw" y="2.7291350520593562em" fill="#aaa"/><rect width="0.09615384615384616em" height="0.29768267011020616em" x="9.038461538461538vw" y="2.702317329889794em" fill="#aaa"/><rect width="0.09615384615384616em" height="0.539132175414376em" x="9.134615384615385vw" y="2.460867824585624em" fill="#aaa"/><rect width="0.09615384615384616em" height="0.34617228294133273em" x="9.230769230769232vw" y="2.6538277170586673em" fill="#aaa"/><rect width="0.09615384615384616em" height="0.36308943010041633em" x="9.326923076923077vw" y="2.636910569899584em" fill="#aaa"/><rect width="0.09615384615384616em" height="0.3087273400839403em" x="9.423076923076923vw" y="2.6912726599160597em" fill="#aaa"/><rect width="0.09615384615384616em" height="0.3259667768212616em" x="9.51923076923077vw" y="2.6740332231787383em" fill="#aaa"/><rect width="0.09615384615384616em" height="0.30640767371817673em" x="9.615384615384617vw" y="2.693592326281823em" fill="#aaa"/><rect width="0.09615384615384616em" height="0.2764710725210614em" x="9.711538461538462vw" y="2.7235289274789385em" fill="#aaa"/><rect width="0.09615384615384616em" height="0.28250879430457126em" x="9.807692307692308vw" y="2.7174912056954286em" fill="#aaa"/><rect width="0.09615384615384616em" height="0.23001946501981857em" x="9.903846153846155vw" y="2.7699805349801814em" fill="#aaa"/></svg>