<?xml version="1.0" standalone="no"?>
<svg xmlns:xlink="http://www.w3.org/1999/xlink" xmlns="http://www.w3.org/2000/svg" class="topic-graph" style="width: 100em; height: 30em; text-align: center;"><rect width="0.9615384615384616em" height="2.024799228988129em" x="0em" y="27.97520077101187em" fill="#aaa"/><rect width="0.9615384615384616em" height="16.874547022172685em" x="0.9615384615384616em" y="13.125452977827315em" fill="#aaa"/><rect width="0.9615384615384616em" height="0.4359538161669863em" x="1.9230769230769231em" y="29.564046183833014em" fill="#aaa"/><rect width="0.9615384615384616em" height="0.48513651461281926em" x="2.8846153846153846em" y="29.51486348538718em" fill="#aaa"/><rect width="0.9615384615384616em" height="1.236525956969948em" x="3.8461538461538463em" y="28.76347404303005em" fill="#aaa"/><rect width="0.9615384615384616em" height="9.368193063858913em" x="4.8076923076923075em" y="20.63180693614109em" fill="#aaa"/><rect width="0.9615384615384616em" height="11.179387888686387em" x="5.769230769230769em" y="18.820612111313615em" fill="#aaa"/><rect width="0.9615384615384616em" height="1.2907812937521153em" x="6.730769230769231em" y="28.709218706247885em" fill="#aaa"/><rect width="0.9615384615384616em" height="3.948545256720804em" x="7.6923076923076925em" y="26.051454743279194em" fill="#aaa"/><rect width="0.9615384615384616em" height="1.313034123244229em" x="8.653846153846153em" y="28.68696587675577em" fill="#aaa"/><rect width="0.9615384615384616em" height="2.867425964838206em" x="9.615384615384615em" y="27.132574035161795em" fill="#aaa"/><rect width="0.9615384615384616em" height="17.240678664991314em" x="10.576923076923077em" y="12.759321335008686em" fill="#aaa"/><rect width="0.9615384615384616em" height="6.469485849118916em" x="11.538461538461538em" y="23.530514150881082em" fill="#aaa"/><rect width="0.9615384615384616em" height="0.5629523956128476em" x="12.5em" y="29.437047604387153em" fill="#aaa"/><rect width="0.9615384615384616em" height="6.6324865929759085em" x="13.461538461538462em" y="23.36751340702409em" fill="#aaa"/><rect width="0.9615384615384616em" height="1.151644752549726em" x="14.423076923076923em" y="28.848355247450275em" fill="#aaa"/><rect width="0.9615384615384616em" height="11.814597297488612em" x="15.384615384615385em" y="18.18540270251139em" fill="#aaa"/><rect width="0.9615384615384616em" height="0.9688095505054205em" x="16.346153846153847em" y="29.03119044949458em" fill="#aaa"/><rect width="0.9615384615384616em" height="2.255925904166244em" x="17.307692307692307em" y="27.744074095833756em" fill="#aaa"/><rect width="0.9615384615384616em" height="0.597443289128878em" x="18.26923076923077em" y="29.40255671087112em" fill="#aaa"/><rect width="0.9615384615384616em" height="4.452760563716583em" x="19.23076923076923em" y="25.547239436283416em" fill="#aaa"/><rect width="0.9615384615384616em" height="1.4056307658666938em" x="20.192307692307693em" y="28.594369234133307em" fill="#aaa"/><rect width="0.9615384615384616em" height="2.670258579480593em" x="21.153846153846153em" y="27.329741420519408em" fill="#aaa"/><rect width="0.9615384615384616em" height="1.0574593201139644em" x="22.115384615384617em" y="28.942540679886037em" fill="#aaa"/><rect width="0.9615384615384616em" height="2.0278217561395566em" x="23.076923076923077em" y="27.972178243860444em" fill="#aaa"/><rect width="0.9615384615384616em" height="9.412560475297646em" x="24.03846153846154em" y="20.587439524702354em" fill="#aaa"/><rect width="0.9615384615384616em" height="2.775216815755049em" x="25em" y="27.224783184244952em" fill="#aaa"/><rect width="0.9615384615384616em" height="8.931659459500969em" x="25.961538461538463em" y="21.06834054049903em" fill="#aaa"/><rect width="0.9615384615384616em" height="2.317234499680466em" x="26.923076923076923em" y="27.682765500319533em" fill="#aaa"/><rect width="0.9615384615384616em" height="9.38965530580007em" x="27.884615384615387em" y="20.61034469419993em" fill="#aaa"/><rect width="0.9615384615384616em" height="4.828158494797709em" x="28.846153846153847em" y="25.17184150520229em" fill="#aaa"/><rect width="0.9615384615384616em" height="12.08510928834848em" x="29.80769230769231em" y="17.91489071165152em" fill="#aaa"/><rect width="0.9615384615384616em" height="5.573761561535089em" x="30.76923076923077em" y="24.42623843846491em" fill="#aaa"/><rect width="0.9615384615384616em" height="10.853087473954428em" x="31.73076923076923em" y="19.146912526045572em" fill="#aaa"/><rect width="0.9615384615384616em" height="8.802618490822569em" x="32.69230769230769em" y="21.197381509177433em" fill="#aaa"/><rect width="0.9615384615384616em" height="4.006151353464456em" x="33.65384615384615em" y="25.993848646535543em" fill="#aaa"/><rect width="0.9615384615384616em" height="16.173908725937782em" x="34.61538461538461em" y="13.826091274062218em" fill="#aaa"/><rect width="0.9615384615384616em" height="6.495350510151904em" x="35.57692307692308em" y="23.504649489848095em" fill="#aaa"/><rect width="0.9615384615384616em" height="9.449700207235736em" x="36.53846153846154em" y="20.550299792764264em" fill="#aaa"/><rect width="0.9615384615384616em" height="6.210114829836466em" x="37.5em" y="23.789885170163533em" fill="#aaa"/><rect width="0.9615384615384616em" height="10.595780305727322em" x="38.46153846153846em" y="19.404219694272676em" fill="#aaa"/><rect width="0.9615384615384616em" height="3.184308043013694em" x="39.42307692307693em" y="26.815691956986306em" fill="#aaa"/><rect width="0.9615384615384616em" height="6.3183786352582985em" x="40.38461538461539em" y="23.6816213647417em" fill="#aaa"/><rect width="0.9615384615384616em" height="4.639202106156915em" x="41.34615384615385em" y="25.360797893843085em" fill="#aaa"/><rect width="0.9615384615384616em" height="9.386323173658502em" x="42.30769230769231em" y="20.613676826341496em" fill="#aaa"/><rect width="0.9615384615384616em" height="12.780252525526068em" x="43.269230769230774em" y="17.219747474473934em" fill="#aaa"/><rect width="0.9615384615384616em" height="15.364633330849161em" x="44.23076923076923em" y="14.635366669150839em" fill="#aaa"/><rect width="0.9615384615384616em" height="10.337218256756715em" x="45.19230769230769em" y="19.662781743243286em" fill="#aaa"/><rect width="0.9615384615384616em" height="7.559359869856256em" x="46.15384615384615em" y="22.440640130143745em" fill="#aaa"/><rect width="0.9615384615384616em" height="10.463912489371145em" x="47.11538461538461em" y="19.536087510628853em" fill="#aaa"/><rect width="0.9615384615384616em" height="10.318013143522158em" x="48.07692307692308em" y="19.68198685647784em" fill="#aaa"/><rect width="0.9615384615384616em" height="11.412728154653397em" x="49.03846153846154em" y="18.587271845346603em" fill="#aaa"/><rect width="0.9615384615384616em" height="6.5812641993880945em" x="50em" y="23.418735800611906em" fill="#aaa"/><rect width="0.9615384615384616em" height="13.974506183946557em" x="50.96153846153846em" y="16.02549381605344em" fill="#aaa"/><rect width="0.9615384615384616em" height="15.002237367244513em" x="51.92307692307693em" y="14.997762632755487em" fill="#aaa"/><rect width="0.9615384615384616em" height="16.070925674159838em" x="52.88461538461539em" y="13.929074325840162em" fill="#aaa"/><rect width="0.9615384615384616em" height="10.222599975747876em" x="53.84615384615385em" y="19.777400024252124em" fill="#aaa"/><rect width="0.9615384615384616em" height="26.718585983608126em" x="54.80769230769231em" y="3.2814140163918744em" fill="#aaa"/><rect width="0.9615384615384616em" height="20.379742693628675em" x="55.769230769230774em" y="9.620257306371325em" fill="#aaa"/><rect width="0.9615384615384616em" height="14.770134379654953em" x="56.73076923076923em" y="15.229865620345047em" fill="#aaa"/><rect width="0.9615384615384616em" height="24.31547137635689em" x="57.69230769230769em" y="5.684528623643111em" fill="#aaa"/><rect width="0.9615384615384616em" height="22.722574690707333em" x="58.65384615384615em" y="7.277425309292667em" fill="#aaa"/><rect width="0.9615384615384616em" height="12.692086690799353em" x="59.61538461538462em" y="17.307913309200647em" fill="#aaa"/><rect width="0.9615384615384616em" height="6.833778326609783em" x="60.57692307692308em" y="23.16622167339022em" fill="#aaa"/><rect width="0.9615384615384616em" height="10.405840483295774em" x="61.53846153846154em" y="19.594159516704224em" fill="#aaa"/><rect width="0.9615384615384616em" height="30em" x="62.5em" y="0em" fill="#aaa"/><rect width="0.9615384615384616em" height="25.96278475647484em" x="63.46153846153846em" y="4.037215243525161em" fill="#aaa"/><rect width="0.9615384615384616em" height="7.800988461836383em" x="64.42307692307692em" y="22.199011538163617em" fill="#aaa"/><rect width="0.9615384615384616em" height="13.072701358788798em" x="65.38461538461539em" y="16.927298641211202em" fill="#aaa"/><rect width="0.9615384615384616em" height="20.976160842507966em" x="66.34615384615385em" y="9.023839157492034em" fill="#aaa"/><rect width="0.9615384615384616em" height="15.424456167641956em" x="67.3076923076923em" y="14.575543832358044em" fill="#aaa"/><rect width="0.9615384615384616em" height="24.070433428244773em" x="68.26923076923077em" y="5.9295665717552275em" fill="#aaa"/><rect width="0.9615384615384616em" height="13.555478108298784em" x="69.23076923076923em" y="16.444521891701214em" fill="#aaa"/><rect width="0.9615384615384616em" height="7.429652437773867em" x="70.1923076923077em" y="22.570347562226132em" fill="#aaa"/><rect width="0.9615384615384616em" height="3.963211227159515em" x="71.15384615384616em" y="26.036788772840485em" fill="#aaa"/><rect width="0.9615384615384616em" height="4.79517473534257em" x="72.11538461538461em" y="25.20482526465743em" fill="#aaa"/><rect width="0.9615384615384616em" height="4.593683295885281em" x="73.07692307692308em" y="25.40631670411472em" fill="#aaa"/><rect width="0.9615384615384616em" height="4.594872643324057em" x="74.03846153846155em" y="25.405127356675944em" fill="#aaa"/><rect width="0.9615384615384616em" height="23.17170554268443em" x="75em" y="6.828294457315572em" fill="#aaa"/><rect width="0.9615384615384616em" height="8.289954395300622em" x="75.96153846153847em" y="21.710045604699378em" fill="#aaa"/><rect width="0.9615384615384616em" height="8.759408323634089em" x="76.92307692307692em" y="21.24059167636591em" fill="#aaa"/><rect width="0.9615384615384616em" height="13.378580759128758em" x="77.88461538461539em" y="16.62141924087124em" fill="#aaa"/><rect width="0.9615384615384616em" height="13.2552763119581em" x="78.84615384615385em" y="16.7447236880419em" fill="#aaa"/><rect width="0.9615384615384616em" height="8.618739904740043em" x="79.8076923076923em" y="21.381260095259957em" fill="#aaa"/><rect width="0.9615384615384616em" height="7.129137505803013em" x="80.76923076923077em" y="22.870862494196988em" fill="#aaa"/><rect width="0.9615384615384616em" height="7.942507853515862em" x="81.73076923076923em" y="22.057492146484137em" fill="#aaa"/><rect width="0.9615384615384616em" height="8.258633835185679em" x="82.6923076923077em" y="21.741366164814323em" fill="#aaa"/><rect width="0.9615384615384616em" height="12.230930075462961em" x="83.65384615384616em" y="17.76906992453704em" fill="#aaa"/><rect width="0.9615384615384616em" height="15.04217894388656em" x="84.61538461538461em" y="14.95782105611344em" fill="#aaa"/><rect width="0.9615384615384616em" height="16.431991423280532em" x="85.57692307692308em" y="13.568008576719468em" fill="#aaa"/><rect width="0.9615384615384616em" height="18.682015427768494em" x="86.53846153846155em" y="11.317984572231506em" fill="#aaa"/><rect width="0.9615384615384616em" height="11.952677425583216em" x="87.5em" y="18.047322574416782em" fill="#aaa"/><rect width="0.9615384615384616em" height="12.077209779004662em" x="88.46153846153847em" y="17.92279022099534em" fill="#aaa"/><rect width="0.9615384615384616em" height="7.961529157435642em" x="89.42307692307692em" y="22.038470842564358em" fill="#aaa"/><rect width="0.9615384615384616em" height="8.069408881610766em" x="90.38461538461539em" y="21.930591118389234em" fill="#aaa"/><rect width="0.9615384615384616em" height="8.378786493118117em" x="91.34615384615385em" y="21.621213506881883em" fill="#aaa"/><rect width="0.9615384615384616em" height="12.491622357287044em" x="92.3076923076923em" y="17.508377642712958em" fill="#aaa"/><rect width="0.9615384615384616em" height="14.432814498290961em" x="93.26923076923077em" y="15.567185501709039em" fill="#aaa"/><rect width="0.9615384615384616em" height="12.96383581882196em" x="94.23076923076923em" y="17.03616418117804em" fill="#aaa"/><rect width="0.9615384615384616em" height="8.778408797086627em" x="95.1923076923077em" y="21.221591202913373em" fill="#aaa"/><rect width="0.9615384615384616em" height="11.293703691925916em" x="96.15384615384616em" y="18.706296308074084em" fill="#aaa"/><rect width="0.9615384615384616em" height="14.20091486658603em" x="97.11538461538461em" y="15.79908513341397em" fill="#aaa"/><rect width="0.9615384615384616em" height="12.269512338793431em" x="98.07692307692308em" y="17.730487661206567em" fill="#aaa"/><rect width="0.9615384615384616em" height="19.628169241783805em" x="99.03846153846155em" y="10.371830758216195em" fill="#aaa"/></svg>