<?xml version="1.0" standalone="no"?>
<svg xmlns:xlink="http://www.w3.org/1999/xlink" xmlns="http://www.w3.org/2000/svg" class="topic-graph" style="width: 10vw; height: 3em; text-align: center;"><rect width="0.09615384615384616em" height="0.3038930681209295em" x="0vw" y="2.6961069318790707em" fill="#aaa"/><rect width="0.09615384615384616em" height="1.7543840825954196em" x="0.09615384615384616vw" y="1.2456159174045804em" fill="#aaa"/><rect width="0.09615384615384616em" height="0.2574826662137071em" x="0.19230769230769232vw" y="2.742517333786293em" fill="#aaa"/><rect width="0.09615384615384616em" height="0.40586515451239014em" x="0.2884615384615385vw" y="2.59413484548761em" fill="#aaa"/><rect width="0.09615384615384616em" height="0.886740612388133em" x="0.38461538461538464vw" y="2.1132593876118673em" fill="#aaa"/><rect width="0.09615384615384616em" height="0.436538813859355em" x="0.4807692307692308vw" y="2.563461186140645em" fill="#aaa"/><rect width="0.09615384615384616em" height="0.5551627556546075em" x="0.576923076923077vw" y="2.4448372443453925em" fill="#aaa"/><rect width="0.09615384615384616em" height="0.568485216002148em" x="0.6730769230769231vw" y="2.431514783997852em" fill="#aaa"/><rect width="0.09615384615384616em" height="0.8332658530214949em" x="0.7692307692307693vw" y="2.166734146978505em" fill="#aaa"/><rect width="0.09615384615384616em" height="0.9579046943329977em" x="0.8653846153846154vw" y="2.042095305667002em" fill="#aaa"/><rect width="0.09615384615384616em" height="0.5485392190695623em" x="0.9615384615384616vw" y="2.4514607809304376em" fill="#aaa"/><rect width="0.09615384615384616em" height="0.9575869221308312em" x="1.0576923076923077vw" y="2.0424130778691687em" fill="#aaa"/><rect width="0.09615384615384616em" height="0.6158805688107083em" x="1.153846153846154vw" y="2.3841194311892915em" fill="#aaa"/><rect width="0.09615384615384616em" height="0.6429255374303371em" x="1.25vw" y="2.357074462569663em" fill="#aaa"/><rect width="0.09615384615384616em" height="0.5026376030534943em" x="1.3461538461538463vw" y="2.4973623969465057em" fill="#aaa"/><rect width="0.09615384615384616em" height="0.4937681355371537em" x="1.4423076923076923vw" y="2.5062318644628463em" fill="#aaa"/><rect width="0.09615384615384616em" height="0.6008611161397353em" x="1.5384615384615385vw" y="2.3991388838602647em" fill="#aaa"/><rect width="0.09615384615384616em" height="1.0156134751586121em" x="1.6346153846153848vw" y="1.9843865248413879em" fill="#aaa"/><rect width="0.09615384615384616em" height="1.0843920300070298em" x="1.7307692307692308vw" y="1.9156079699929702em" fill="#aaa"/><rect width="0.09615384615384616em" height="1.0952139140893153em" x="1.826923076923077vw" y="1.9047860859106847em" fill="#aaa"/><rect width="0.09615384615384616em" height="0.7216516594824612em" x="1.9230769230769231vw" y="2.278348340517539em" fill="#aaa"/><rect width="0.09615384615384616em" height="0.6867358473500199em" x="2.019230769230769vw" y="2.31326415264998em" fill="#aaa"/><rect width="0.09615384615384616em" height="0.969629374236499em" x="2.1153846153846154vw" y="2.030370625763501em" fill="#aaa"/><rect width="0.09615384615384616em" height="0.4440901643165015em" x="2.2115384615384617vw" y="2.5559098356834986em" fill="#aaa"/><rect width="0.09615384615384616em" height="0.841553401674364em" x="2.307692307692308vw" y="2.158446598325636em" fill="#aaa"/><rect width="0.09615384615384616em" height="1.2040565558981082em" x="2.403846153846154vw" y="1.7959434441018918em" fill="#aaa"/><rect width="0.09615384615384616em" height="1.524734318337564em" x="2.5vw" y="1.475265681662436em" fill="#aaa"/><rect width="0.09615384615384616em" height="1.6003911861372715em" x="2.5961538461538463vw" y="1.3996088138627285em" fill="#aaa"/><rect width="0.09615384615384616em" height="1.268632658349522em" x="2.6923076923076925vw" y="1.731367341650478em" fill="#aaa"/><rect width="0.09615384615384616em" height="1.2290205850328682em" x="2.7884615384615388vw" y="1.7709794149671318em" fill="#aaa"/><rect width="0.09615384615384616em" height="1.2664925697861413em" x="2.8846153846153846vw" y="1.7335074302138587em" fill="#aaa"/><rect width="0.09615384615384616em" height="1.143602440947979em" x="2.980769230769231vw" y="1.856397559052021em" fill="#aaa"/><rect width="0.09615384615384616em" height="1.3786281657364743em" x="3.076923076923077vw" y="1.6213718342635257em" fill="#aaa"/><rect width="0.09615384615384616em" height="1.4756375294821704em" x="3.1730769230769234vw" y="1.5243624705178296em" fill="#aaa"/><rect width="0.09615384615384616em" height="1.2892790156555183em" x="3.2692307692307696vw" y="1.7107209843444817em" fill="#aaa"/><rect width="0.09615384615384616em" height="1.4833702148991796em" x="3.3653846153846154vw" y="1.5166297851008204em" fill="#aaa"/><rect width="0.09615384615384616em" height="1.3929234147421448em" x="3.4615384615384617vw" y="1.6070765852578552em" fill="#aaa"/><rect width="0.09615384615384616em" height="2.0838771152447406em" x="3.557692307692308vw" y="0.9161228847552594em" fill="#aaa"/><rect width="0.09615384615384616em" height="2.5742347605967804em" x="3.653846153846154vw" y="0.42576523940321964em" fill="#aaa"/><rect width="0.09615384615384616em" height="2.1508465500148075em" x="3.75vw" y="0.8491534499851925em" fill="#aaa"/><rect width="0.09615384615384616em" height="2.028734710741599em" x="3.8461538461538463vw" y="0.971265289258401em" fill="#aaa"/><rect width="0.09615384615384616em" height="1.9689801601436232em" x="3.9423076923076925vw" y="1.0310198398563768em" fill="#aaa"/><rect width="0.09615384615384616em" height="2.2780397343761463em" x="4.038461538461538vw" y="0.7219602656238537em" fill="#aaa"/><rect width="0.09615384615384616em" height="2.127011393203805em" x="4.134615384615385vw" y="0.8729886067961949em" fill="#aaa"/><rect width="0.09615384615384616em" height="2.145230579388488em" x="4.230769230769231vw" y="0.854769420611512em" fill="#aaa"/><rect width="0.09615384615384616em" height="1.342841787320894em" x="4.3269230769230775vw" y="1.657158212679106em" fill="#aaa"/><rect width="0.09615384615384616em" height="2.1019476403958373em" x="4.423076923076923vw" y="0.8980523596041627em" fill="#aaa"/><rect width="0.09615384615384616em" height="2.556063864818708em" x="4.519230769230769vw" y="0.4439361351812918em" fill="#aaa"/><rect width="0.09615384615384616em" height="2.3941308975811126em" x="4.615384615384616vw" y="0.6058691024188874em" fill="#aaa"/><rect width="0.09615384615384616em" height="1.8507987235225083em" x="4.711538461538462vw" y="1.1492012764774917em" fill="#aaa"/><rect width="0.09615384615384616em" height="2.1396310130436085em" x="4.807692307692308vw" y="0.8603689869563915em" fill="#aaa"/><rect width="0.09615384615384616em" height="2.478981406745589em" x="4.903846153846154vw" y="0.5210185932544111em" fill="#aaa"/><rect width="0.09615384615384616em" height="2.476306230404991em" x="5vw" y="0.5236937695950088em" fill="#aaa"/><rect width="0.09615384615384616em" height="2.384509478263094em" x="5.096153846153847vw" y="0.615490521736906em" fill="#aaa"/><rect width="0.09615384615384616em" height="2.7570969013339752em" x="5.1923076923076925vw" y="0.24290309866602477em" fill="#aaa"/><rect width="0.09615384615384616em" height="2.3864293186826755em" x="5.288461538461538vw" y="0.6135706813173245em" fill="#aaa"/><rect width="0.09615384615384616em" height="1.8638137848578915em" x="5.384615384615385vw" y="1.1361862151421085em" fill="#aaa"/><rect width="0.09615384615384616em" height="2.723269186615672em" x="5.480769230769231vw" y="0.27673081338432803em" fill="#aaa"/><rect width="0.09615384615384616em" height="2.489343750805732em" x="5.5769230769230775vw" y="0.5106562491942679em" fill="#aaa"/><rect width="0.09615384615384616em" height="1.7578215174879532em" x="5.673076923076923vw" y="1.2421784825120468em" fill="#aaa"/><rect width="0.09615384615384616em" height="1.8055914618103364em" x="5.769230769230769vw" y="1.1944085381896636em" fill="#aaa"/><rect width="0.09615384615384616em" height="2.685003855144388em" x="5.865384615384616vw" y="0.3149961448556118em" fill="#aaa"/><rect width="0.09615384615384616em" height="1.987110738886099em" x="5.961538461538462vw" y="1.012889261113901em" fill="#aaa"/><rect width="0.09615384615384616em" height="2.1815550078315256em" x="6.057692307692308vw" y="0.8184449921684744em" fill="#aaa"/><rect width="0.09615384615384616em" height="2.6371748965433817em" x="6.153846153846154vw" y="0.36282510345661834em" fill="#aaa"/><rect width="0.09615384615384616em" height="2.0561360191794726em" x="6.25vw" y="0.9438639808205274em" fill="#aaa"/><rect width="0.09615384615384616em" height="1.796240177749025em" x="6.346153846153847vw" y="1.203759822250975em" fill="#aaa"/><rect width="0.09615384615384616em" height="2.7727408965384344em" x="6.4423076923076925vw" y="0.22725910346156564em" fill="#aaa"/><rect width="0.09615384615384616em" height="2.161102803866352em" x="6.538461538461539vw" y="0.8388971961336482em" fill="#aaa"/><rect width="0.09615384615384616em" height="3em" x="6.634615384615385vw" y="0em" fill="#aaa"/><rect width="0.09615384615384616em" height="2.6480844032510387em" x="6.730769230769231vw" y="0.35191559674896133em" fill="#aaa"/><rect width="0.09615384615384616em" height="2.11181524747316em" x="6.8269230769230775vw" y="0.8881847525268398em" fill="#aaa"/><rect width="0.09615384615384616em" height="2.5446591066479014em" x="6.923076923076923vw" y="0.4553408933520986em" fill="#aaa"/><rect width="0.09615384615384616em" height="2.3548989313714124em" x="7.01923076923077vw" y="0.6451010686285876em" fill="#aaa"/><rect width="0.09615384615384616em" height="2.4858148330036633em" x="7.115384615384616vw" y="0.5141851669963367em" fill="#aaa"/><rect width="0.09615384615384616em" height="2.3970721021685653em" x="7.211538461538462vw" y="0.6029278978314347em" fill="#aaa"/><rect width="0.09615384615384616em" height="2.6039448460181425em" x="7.307692307692308vw" y="0.39605515398185753em" fill="#aaa"/><rect width="0.09615384615384616em" height="2.6419735531953483em" x="7.403846153846154vw" y="0.3580264468046517em" fill="#aaa"/><rect width="0.09615384615384616em" height="2.6228989007275576em" x="7.5vw" y="0.3771010992724424em" fill="#aaa"/><rect width="0.09615384615384616em" height="2.9270737421798705em" x="7.596153846153847vw" y="0.07292625782012951em" fill="#aaa"/><rect width="0.09615384615384616em" height="2.6918679758756596em" x="7.6923076923076925vw" y="0.3081320241243404em" fill="#aaa"/><rect width="0.09615384615384616em" height="2.3236393920582774em" x="7.788461538461539vw" y="0.6763606079417226em" fill="#aaa"/><rect width="0.09615384615384616em" height="2.2495645199776293em" x="7.884615384615385vw" y="0.7504354800223707em" fill="#aaa"/><rect width="0.09615384615384616em" height="2.1892052890269627em" x="7.980769230769231vw" y="0.8107947109730373em" fill="#aaa"/><rect width="0.09615384615384616em" height="2.0969179448579385em" x="8.076923076923077vw" y="0.9030820551420615em" fill="#aaa"/><rect width="0.09615384615384616em" height="2.007269895104867em" x="8.173076923076923vw" y="0.9927301048951329em" fill="#aaa"/><rect width="0.09615384615384616em" height="1.934450284473936em" x="8.26923076923077vw" y="1.065549715526064em" fill="#aaa"/><rect width="0.09615384615384616em" height="1.9081043509474531em" x="8.365384615384615vw" y="1.0918956490525469em" fill="#aaa"/><rect width="0.09615384615384616em" height="2.1572345829499526em" x="8.461538461538462vw" y="0.8427654170500474em" fill="#aaa"/><rect width="0.09615384615384616em" height="1.8555946597702673em" x="8.557692307692308vw" y="1.1444053402297327em" fill="#aaa"/><rect width="0.09615384615384616em" height="2.3278338677130996em" x="8.653846153846155vw" y="0.6721661322869004em" fill="#aaa"/><rect width="0.09615384615384616em" height="1.8398911442399557em" x="8.75vw" y="1.1601088557600443em" fill="#aaa"/><rect width="0.09615384615384616em" height="1.623796935540577em" x="8.846153846153847vw" y="1.376203064459423em" fill="#aaa"/><rect width="0.09615384615384616em" height="1.791503085416775em" x="8.942307692307693vw" y="1.208496914583225em" fill="#aaa"/><rect width="0.09615384615384616em" height="1.838460993103396em" x="9.038461538461538vw" y="1.161539006896604em" fill="#aaa"/><rect width="0.09615384615384616em" height="1.7287396185142148em" x="9.134615384615385vw" y="1.2712603814857852em" fill="#aaa"/><rect width="0.09615384615384616em" height="1.6012060018971481em" x="9.230769230769232vw" y="1.3987939981028519em" fill="#aaa"/><rect width="0.09615384615384616em" height="1.5654508067423398em" x="9.326923076923077vw" y="1.4345491932576602em" fill="#aaa"/><rect width="0.09615384615384616em" height="1.6853495312151217em" x="9.423076923076923vw" y="1.3146504687848783em" fill="#aaa"/><rect width="0.09615384615384616em" height="1.5362905929823711em" x="9.51923076923077vw" y="1.4637094070176289em" fill="#aaa"/><rect width="0.09615384615384616em" height="1.328650873715426em" x="9.615384615384617vw" y="1.671349126284574em" fill="#aaa"/><rect width="0.09615384615384616em" height="1.9007271506014338em" x="9.711538461538462vw" y="1.0992728493985662em" fill="#aaa"/><rect width="0.09615384615384616em" height="1.6383057641371137em" x="9.807692307692308vw" y="1.3616942358628863em" fill="#aaa"/><rect width="0.09615384615384616em" height="1.677546421351917em" x="9.903846153846155vw" y="1.322453578648083em" fill="#aaa"/></svg>