<?xml version="1.0" standalone="no"?>
<svg xmlns:xlink="http://www.w3.org/1999/xlink" xmlns="http://www.w3.org/2000/svg" class="topic-graph" style="width: 10vw; height: 3em; text-align: center;"><rect width="0.09615384615384616em" height="0.19336892052939691em" x="0vw" y="2.806631079470603em" fill="#aaa"/><rect width="0.09615384615384616em" height="0.7870780040738524em" x="0.09615384615384616vw" y="2.2129219959261475em" fill="#aaa"/><rect width="0.09615384615384616em" height="0.7283547421355071em" x="0.19230769230769232vw" y="2.271645257864493em" fill="#aaa"/><rect width="0.09615384615384616em" height="1.8852687113522757em" x="0.2884615384615385vw" y="1.1147312886477243em" fill="#aaa"/><rect width="0.09615384615384616em" height="1.1020733537682772em" x="0.38461538461538464vw" y="1.8979266462317228em" fill="#aaa"/><rect width="0.09615384615384616em" height="0.9047760037936321em" x="0.4807692307692308vw" y="2.095223996206368em" fill="#aaa"/><rect width="0.09615384615384616em" height="1.8225548803901197em" x="0.576923076923077vw" y="1.1774451196098803em" fill="#aaa"/><rect width="0.09615384615384616em" height="0.5670549570002362em" x="0.6730769230769231vw" y="2.432945042999764em" fill="#aaa"/><rect width="0.09615384615384616em" height="1.050840806602365em" x="0.7692307692307693vw" y="1.949159193397635em" fill="#aaa"/><rect width="0.09615384615384616em" height="0.9541835024432598em" x="0.8653846153846154vw" y="2.04581649755674em" fill="#aaa"/><rect width="0.09615384615384616em" height="1.7951215272531549em" x="0.9615384615384616vw" y="1.2048784727468451em" fill="#aaa"/><rect width="0.09615384615384616em" height="0.8100696987276514em" x="1.0576923076923077vw" y="2.189930301272349em" fill="#aaa"/><rect width="0.09615384615384616em" height="1.0717315640317593em" x="1.153846153846154vw" y="1.9282684359682407em" fill="#aaa"/><rect width="0.09615384615384616em" height="1.5383495207700557em" x="1.25vw" y="1.4616504792299443em" fill="#aaa"/><rect width="0.09615384615384616em" height="0.3149965969734841em" x="1.3461538461538463vw" y="2.6850034030265157em" fill="#aaa"/><rect width="0.09615384615384616em" height="0.7519052315443608em" x="1.4423076923076923vw" y="2.248094768455639em" fill="#aaa"/><rect width="0.09615384615384616em" height="0.9509901122650462em" x="1.5384615384615385vw" y="2.049009887734954em" fill="#aaa"/><rect width="0.09615384615384616em" height="1.1208180365451228em" x="1.6346153846153848vw" y="1.8791819634548772em" fill="#aaa"/><rect width="0.09615384615384616em" height="1.537656947719713em" x="1.7307692307692308vw" y="1.462343052280287em" fill="#aaa"/><rect width="0.09615384615384616em" height="1.9898244527880466em" x="1.826923076923077vw" y="1.0101755472119534em" fill="#aaa"/><rect width="0.09615384615384616em" height="1.660168951338994em" x="1.9230769230769231vw" y="1.339831048661006em" fill="#aaa"/><rect width="0.09615384615384616em" height="1.7064639247265498em" x="2.019230769230769vw" y="1.2935360752734502em" fill="#aaa"/><rect width="0.09615384615384616em" height="1.4276112529720857em" x="2.1153846153846154vw" y="1.5723887470279143em" fill="#aaa"/><rect width="0.09615384615384616em" height="2.3115641985973583em" x="2.2115384615384617vw" y="0.6884358014026417em" fill="#aaa"/><rect width="0.09615384615384616em" height="2.6789129415527295em" x="2.307692307692308vw" y="0.3210870584472705em" fill="#aaa"/><rect width="0.09615384615384616em" height="0.9869841892208275em" x="2.403846153846154vw" y="2.0130158107791725em" fill="#aaa"/><rect width="0.09615384615384616em" height="0.7722032130535477em" x="2.5vw" y="2.2277967869464526em" fill="#aaa"/><rect width="0.09615384615384616em" height="0.600113756081197em" x="2.5961538461538463vw" y="2.399886243918803em" fill="#aaa"/><rect width="0.09615384615384616em" height="0.7055781551998085em" x="2.6923076923076925vw" y="2.2944218448001914em" fill="#aaa"/><rect width="0.09615384615384616em" height="1.4103274014119191em" x="2.7884615384615388vw" y="1.5896725985880809em" fill="#aaa"/><rect width="0.09615384615384616em" height="1.6475568510873788em" x="2.8846153846153846vw" y="1.3524431489126212em" fill="#aaa"/><rect width="0.09615384615384616em" height="1.527094225839328em" x="2.980769230769231vw" y="1.472905774160672em" fill="#aaa"/><rect width="0.09615384615384616em" height="1.253072952093879em" x="3.076923076923077vw" y="1.746927047906121em" fill="#aaa"/><rect width="0.09615384615384616em" height="1.4813295582031016em" x="3.1730769230769234vw" y="1.5186704417968984em" fill="#aaa"/><rect width="0.09615384615384616em" height="1.6875510732398153em" x="3.2692307692307696vw" y="1.3124489267601847em" fill="#aaa"/><rect width="0.09615384615384616em" height="1.7092014323147002em" x="3.3653846153846154vw" y="1.2907985676852998em" fill="#aaa"/><rect width="0.09615384615384616em" height="1.6985631707164073em" x="3.4615384615384617vw" y="1.3014368292835927em" fill="#aaa"/><rect width="0.09615384615384616em" height="1.8309771159358554em" x="3.557692307692308vw" y="1.1690228840641446em" fill="#aaa"/><rect width="0.09615384615384616em" height="1.3912785967840056em" x="3.653846153846154vw" y="1.6087214032159944em" fill="#aaa"/><rect width="0.09615384615384616em" height="1.4119110166612985em" x="3.75vw" y="1.5880889833387015em" fill="#aaa"/><rect width="0.09615384615384616em" height="1.3721996468397912em" x="3.8461538461538463vw" y="1.6278003531602088em" fill="#aaa"/><rect width="0.09615384615384616em" height="1.3899316899455563em" x="3.9423076923076925vw" y="1.6100683100544437em" fill="#aaa"/><rect width="0.09615384615384616em" height="0.9338297140198275em" x="4.038461538461538vw" y="2.0661702859801725em" fill="#aaa"/><rect width="0.09615384615384616em" height="1.7113255950588644em" x="4.134615384615385vw" y="1.2886744049411356em" fill="#aaa"/><rect width="0.09615384615384616em" height="1.5946316988799407em" x="4.230769230769231vw" y="1.4053683011200593em" fill="#aaa"/><rect width="0.09615384615384616em" height="1.2463862033927535em" x="4.3269230769230775vw" y="1.7536137966072465em" fill="#aaa"/><rect width="0.09615384615384616em" height="1.4451129604510553em" x="4.423076923076923vw" y="1.5548870395489447em" fill="#aaa"/><rect width="0.09615384615384616em" height="3em" x="4.519230769230769vw" y="0em" fill="#aaa"/><rect width="0.09615384615384616em" height="1.9394234389200111em" x="4.615384615384616vw" y="1.0605765610799889em" fill="#aaa"/><rect width="0.09615384615384616em" height="1.7044543999498205em" x="4.711538461538462vw" y="1.2955456000501795em" fill="#aaa"/><rect width="0.09615384615384616em" height="1.903147737140516em" x="4.807692307692308vw" y="1.096852262859484em" fill="#aaa"/><rect width="0.09615384615384616em" height="1.8440179146884565em" x="4.903846153846154vw" y="1.1559820853115435em" fill="#aaa"/><rect width="0.09615384615384616em" height="1.9855807609029583em" x="5vw" y="1.0144192390970417em" fill="#aaa"/><rect width="0.09615384615384616em" height="2.1603973144105573em" x="5.096153846153847vw" y="0.8396026855894427em" fill="#aaa"/><rect width="0.09615384615384616em" height="1.5514385376092865em" x="5.1923076923076925vw" y="1.4485614623907135em" fill="#aaa"/><rect width="0.09615384615384616em" height="2.239126796084036em" x="5.288461538461538vw" y="0.7608732039159638em" fill="#aaa"/><rect width="0.09615384615384616em" height="2.038039903197518em" x="5.384615384615385vw" y="0.961960096802482em" fill="#aaa"/><rect width="0.09615384615384616em" height="2.053865063353965em" x="5.480769230769231vw" y="0.9461349366460352em" fill="#aaa"/><rect width="0.09615384615384616em" height="1.92057620754868em" x="5.5769230769230775vw" y="1.07942379245132em" fill="#aaa"/><rect width="0.09615384615384616em" height="1.5522307430501845em" x="5.673076923076923vw" y="1.4477692569498155em" fill="#aaa"/><rect width="0.09615384615384616em" height="1.7382637738811457em" x="5.769230769230769vw" y="1.2617362261188543em" fill="#aaa"/><rect width="0.09615384615384616em" height="1.890922740958747em" x="5.865384615384616vw" y="1.109077259041253em" fill="#aaa"/><rect width="0.09615384615384616em" height="2.2303127682846426em" x="5.961538461538462vw" y="0.7696872317153574em" fill="#aaa"/><rect width="0.09615384615384616em" height="2.127937010805533em" x="6.057692307692308vw" y="0.8720629891944669em" fill="#aaa"/><rect width="0.09615384615384616em" height="2.2950343908723037em" x="6.153846153846154vw" y="0.7049656091276963em" fill="#aaa"/><rect width="0.09615384615384616em" height="1.8415981096201306em" x="6.25vw" y="1.1584018903798694em" fill="#aaa"/><rect width="0.09615384615384616em" height="2.1680566703428896em" x="6.346153846153847vw" y="0.8319433296571104em" fill="#aaa"/><rect width="0.09615384615384616em" height="1.7679126997631984em" x="6.4423076923076925vw" y="1.2320873002368016em" fill="#aaa"/><rect width="0.09615384615384616em" height="1.8908340507749926em" x="6.538461538461539vw" y="1.1091659492250074em" fill="#aaa"/><rect width="0.09615384615384616em" height="1.0716860314740702em" x="6.634615384615385vw" y="1.9283139685259298em" fill="#aaa"/><rect width="0.09615384615384616em" height="1.0991610338716686em" x="6.730769230769231vw" y="1.9008389661283314em" fill="#aaa"/><rect width="0.09615384615384616em" height="1.0435873234696738em" x="6.8269230769230775vw" y="1.9564126765303262em" fill="#aaa"/><rect width="0.09615384615384616em" height="1.1075542354194243em" x="6.923076923076923vw" y="1.8924457645805757em" fill="#aaa"/><rect width="0.09615384615384616em" height="1.4054078186966799em" x="7.01923076923077vw" y="1.5945921813033201em" fill="#aaa"/><rect width="0.09615384615384616em" height="1.1325851688754778em" x="7.115384615384616vw" y="1.8674148311245222em" fill="#aaa"/><rect width="0.09615384615384616em" height="0.8072780011645434em" x="7.211538461538462vw" y="2.1927219988354567em" fill="#aaa"/><rect width="0.09615384615384616em" height="0.7231789661629164em" x="7.307692307692308vw" y="2.2768210338370833em" fill="#aaa"/><rect width="0.09615384615384616em" height="1.0007344450801448em" x="7.403846153846154vw" y="1.9992655549198552em" fill="#aaa"/><rect width="0.09615384615384616em" height="0.9249183313069295em" x="7.5vw" y="2.0750816686930706em" fill="#aaa"/><rect width="0.09615384615384616em" height="0.9373680331691767em" x="7.596153846153847vw" y="2.062631966830823em" fill="#aaa"/><rect width="0.09615384615384616em" height="0.6173686648764468em" x="7.6923076923076925vw" y="2.3826313351235533em" fill="#aaa"/><rect width="0.09615384615384616em" height="0.9923240805784483em" x="7.788461538461539vw" y="2.0076759194215517em" fill="#aaa"/><rect width="0.09615384615384616em" height="0.6028470078113168em" x="7.884615384615385vw" y="2.3971529921886834em" fill="#aaa"/><rect width="0.09615384615384616em" height="0.6126039388129777em" x="7.980769230769231vw" y="2.3873960611870224em" fill="#aaa"/><rect width="0.09615384615384616em" height="0.915733068836118em" x="8.076923076923077vw" y="2.084266931163882em" fill="#aaa"/><rect width="0.09615384615384616em" height="0.7986696761137123em" x="8.173076923076923vw" y="2.2013303238862876em" fill="#aaa"/><rect width="0.09615384615384616em" height="0.7208910973137247em" x="8.26923076923077vw" y="2.2791089026862754em" fill="#aaa"/><rect width="0.09615384615384616em" height="0.9820782656699258em" x="8.365384615384615vw" y="2.0179217343300744em" fill="#aaa"/><rect width="0.09615384615384616em" height="0.9404292726591397em" x="8.461538461538462vw" y="2.0595707273408603em" fill="#aaa"/><rect width="0.09615384615384616em" height="0.711454531241953em" x="8.557692307692308vw" y="2.288545468758047em" fill="#aaa"/><rect width="0.09615384615384616em" height="0.8478232979244913em" x="8.653846153846155vw" y="2.1521767020755087em" fill="#aaa"/><rect width="0.09615384615384616em" height="0.6501960455748372em" x="8.75vw" y="2.3498039544251625em" fill="#aaa"/><rect width="0.09615384615384616em" height="0.6396621497934928em" x="8.846153846153847vw" y="2.3603378502065073em" fill="#aaa"/><rect width="0.09615384615384616em" height="0.7291320750296973em" x="8.942307692307693vw" y="2.2708679249703025em" fill="#aaa"/><rect width="0.09615384615384616em" height="0.8141432942220619em" x="9.038461538461538vw" y="2.185856705777938em" fill="#aaa"/><rect width="0.09615384615384616em" height="0.6982566438253978em" x="9.134615384615385vw" y="2.3017433561746024em" fill="#aaa"/><rect width="0.09615384615384616em" height="0.6621098573427551em" x="9.230769230769232vw" y="2.337890142657245em" fill="#aaa"/><rect width="0.09615384615384616em" height="0.6170047285197582em" x="9.326923076923077vw" y="2.382995271480242em" fill="#aaa"/><rect width="0.09615384615384616em" height="0.8620576125132201em" x="9.423076923076923vw" y="2.13794238748678em" fill="#aaa"/><rect width="0.09615384615384616em" height="0.7315189600142138em" x="9.51923076923077vw" y="2.268481039985786em" fill="#aaa"/><rect width="0.09615384615384616em" height="0.6523873686461393em" x="9.615384615384617vw" y="2.3476126313538606em" fill="#aaa"/><rect width="0.09615384615384616em" height="0.7585492179297405em" x="9.711538461538462vw" y="2.2414507820702596em" fill="#aaa"/><rect width="0.09615384615384616em" height="0.7705842203984733em" x="9.807692307692308vw" y="2.229415779601527em" fill="#aaa"/><rect width="0.09615384615384616em" height="0.6691854217016638em" x="9.903846153846155vw" y="2.330814578298336em" fill="#aaa"/></svg>