<?xml version="1.0" standalone="no"?>
<svg xmlns:xlink="http://www.w3.org/1999/xlink" xmlns="http://www.w3.org/2000/svg" class="topic-graph" style="width: 10vw; height: 3em; text-align: center;"><rect width="0.09615384615384616em" height="0.041426160674366275em" x="0vw" y="2.958573839325634em" fill="#aaa"/><rect width="0.09615384615384616em" height="0.46105599958589205em" x="0.09615384615384616vw" y="2.5389440004141077em" fill="#aaa"/><rect width="0.09615384615384616em" height="0.14948977546611897em" x="0.19230769230769232vw" y="2.850510224533881em" fill="#aaa"/><rect width="0.09615384615384616em" height="0.12607487564317413em" x="0.2884615384615385vw" y="2.873925124356826em" fill="#aaa"/><rect width="0.09615384615384616em" height="0.19444024661581072em" x="0.38461538461538464vw" y="2.8055597533841894em" fill="#aaa"/><rect width="0.09615384615384616em" height="0.08467572872301464em" x="0.4807692307692308vw" y="2.9153242712769853em" fill="#aaa"/><rect width="0.09615384615384616em" height="0.11184864374548992em" x="0.576923076923077vw" y="2.88815135625451em" fill="#aaa"/><rect width="0.09615384615384616em" height="0.5481680985123603em" x="0.6730769230769231vw" y="2.4518319014876395em" fill="#aaa"/><rect width="0.09615384615384616em" height="0.35756027289991676em" x="0.7692307692307693vw" y="2.6424397271000832em" fill="#aaa"/><rect width="0.09615384615384616em" height="0.1263205246454141em" x="0.8653846153846154vw" y="2.873679475354586em" fill="#aaa"/><rect width="0.09615384615384616em" height="0.041234838483420466em" x="0.9615384615384616vw" y="2.9587651615165793em" fill="#aaa"/><rect width="0.09615384615384616em" height="0.020084641265212318em" x="1.0576923076923077vw" y="2.9799153587347877em" fill="#aaa"/><rect width="0.09615384615384616em" height="0.10240594102931143em" x="1.153846153846154vw" y="2.8975940589706886em" fill="#aaa"/><rect width="0.09615384615384616em" height="0.2057627880837078em" x="1.25vw" y="2.7942372119162924em" fill="#aaa"/><rect width="0.09615384615384616em" height="0.16082683517359495em" x="1.3461538461538463vw" y="2.839173164826405em" fill="#aaa"/><rect width="0.09615384615384616em" height="0.19321444070922456em" x="1.4423076923076923vw" y="2.8067855592907756em" fill="#aaa"/><rect width="0.09615384615384616em" height="0.06972317747234327em" x="1.5384615384615385vw" y="2.9302768225276568em" fill="#aaa"/><rect width="0.09615384615384616em" height="0.08152075971761em" x="1.6346153846153848vw" y="2.91847924028239em" fill="#aaa"/><rect width="0.09615384615384616em" height="0.06702418061684946em" x="1.7307692307692308vw" y="2.9329758193831506em" fill="#aaa"/><rect width="0.09615384615384616em" height="0.16212194184371365em" x="1.826923076923077vw" y="2.8378780581562864em" fill="#aaa"/><rect width="0.09615384615384616em" height="1.0547984593430035em" x="1.9230769230769231vw" y="1.9452015406569965em" fill="#aaa"/><rect width="0.09615384615384616em" height="3em" x="2.019230769230769vw" y="0em" fill="#aaa"/><rect width="0.09615384615384616em" height="1.01413824579426em" x="2.1153846153846154vw" y="1.98586175420574em" fill="#aaa"/><rect width="0.09615384615384616em" height="0.24368310345004235em" x="2.2115384615384617vw" y="2.756316896549958em" fill="#aaa"/><rect width="0.09615384615384616em" height="0.3409163488354936em" x="2.307692307692308vw" y="2.659083651164506em" fill="#aaa"/><rect width="0.09615384615384616em" height="0.11264267070044853em" x="2.403846153846154vw" y="2.8873573292995514em" fill="#aaa"/><rect width="0.09615384615384616em" height="0.06453407427880871em" x="2.5vw" y="2.9354659257211915em" fill="#aaa"/><rect width="0.09615384615384616em" height="0.06490096679101981em" x="2.5961538461538463vw" y="2.93509903320898em" fill="#aaa"/><rect width="0.09615384615384616em" height="0.09892111816928398em" x="2.6923076923076925vw" y="2.901078881830716em" fill="#aaa"/><rect width="0.09615384615384616em" height="0.09499341287218263em" x="2.7884615384615388vw" y="2.9050065871278172em" fill="#aaa"/><rect width="0.09615384615384616em" height="0.04981759361786868em" x="2.8846153846153846vw" y="2.9501824063821314em" fill="#aaa"/><rect width="0.09615384615384616em" height="0.3555409143058221em" x="2.980769230769231vw" y="2.644459085694178em" fill="#aaa"/><rect width="0.09615384615384616em" height="0.4561446182997864em" x="3.076923076923077vw" y="2.5438553817002134em" fill="#aaa"/><rect width="0.09615384615384616em" height="0.5434152670695411em" x="3.1730769230769234vw" y="2.456584732930459em" fill="#aaa"/><rect width="0.09615384615384616em" height="0.18119432763033172em" x="3.2692307692307696vw" y="2.818805672369668em" fill="#aaa"/><rect width="0.09615384615384616em" height="0.12938390598228613em" x="3.3653846153846154vw" y="2.8706160940177137em" fill="#aaa"/><rect width="0.09615384615384616em" height="0.25360946900136633em" x="3.4615384615384617vw" y="2.746390530998634em" fill="#aaa"/><rect width="0.09615384615384616em" height="0.09092689154239737em" x="3.557692307692308vw" y="2.9090731084576027em" fill="#aaa"/><rect width="0.09615384615384616em" height="0.09886795917965746em" x="3.653846153846154vw" y="2.9011320408203427em" fill="#aaa"/><rect width="0.09615384615384616em" height="0.6609640075049407em" x="3.75vw" y="2.3390359924950594em" fill="#aaa"/><rect width="0.09615384615384616em" height="0.8372357191908208em" x="3.8461538461538463vw" y="2.162764280809179em" fill="#aaa"/><rect width="0.09615384615384616em" height="0.8557975203166314em" x="3.9423076923076925vw" y="2.1442024796833685em" fill="#aaa"/><rect width="0.09615384615384616em" height="0.42534266597174697em" x="4.038461538461538vw" y="2.5746573340282533em" fill="#aaa"/><rect width="0.09615384615384616em" height="0.25529616707489605em" x="4.134615384615385vw" y="2.744703832925104em" fill="#aaa"/><rect width="0.09615384615384616em" height="0.42602335242115674em" x="4.230769230769231vw" y="2.573976647578843em" fill="#aaa"/><rect width="0.09615384615384616em" height="0.5279573067612642em" x="4.3269230769230775vw" y="2.472042693238736em" fill="#aaa"/><rect width="0.09615384615384616em" height="0.5291518793350227em" x="4.423076923076923vw" y="2.4708481206649773em" fill="#aaa"/><rect width="0.09615384615384616em" height="0.2794049237780281em" x="4.519230769230769vw" y="2.7205950762219717em" fill="#aaa"/><rect width="0.09615384615384616em" height="0.5261890401496716em" x="4.615384615384616vw" y="2.4738109598503284em" fill="#aaa"/><rect width="0.09615384615384616em" height="0.24808528896332765em" x="4.711538461538462vw" y="2.7519147110366724em" fill="#aaa"/><rect width="0.09615384615384616em" height="0.9016922103577194em" x="4.807692307692308vw" y="2.0983077896422806em" fill="#aaa"/><rect width="0.09615384615384616em" height="0.9358809730884361em" x="4.903846153846154vw" y="2.064119026911564em" fill="#aaa"/><rect width="0.09615384615384616em" height="0.7535040021457868em" x="5vw" y="2.246495997854213em" fill="#aaa"/><rect width="0.09615384615384616em" height="0.48570736320765273em" x="5.096153846153847vw" y="2.514292636792347em" fill="#aaa"/><rect width="0.09615384615384616em" height="0.2537789728240827em" x="5.1923076923076925vw" y="2.7462210271759173em" fill="#aaa"/><rect width="0.09615384615384616em" height="0.26544959790045675em" x="5.288461538461538vw" y="2.7345504020995435em" fill="#aaa"/><rect width="0.09615384615384616em" height="0.28241846995491293em" x="5.384615384615385vw" y="2.717581530045087em" fill="#aaa"/><rect width="0.09615384615384616em" height="0.5168070025378256em" x="5.480769230769231vw" y="2.4831929974621745em" fill="#aaa"/><rect width="0.09615384615384616em" height="0.35853793372413173em" x="5.5769230769230775vw" y="2.641462066275868em" fill="#aaa"/><rect width="0.09615384615384616em" height="0.6023747690780504em" x="5.673076923076923vw" y="2.3976252309219497em" fill="#aaa"/><rect width="0.09615384615384616em" height="0.6399962335613986em" x="5.769230769230769vw" y="2.3600037664386013em" fill="#aaa"/><rect width="0.09615384615384616em" height="0.46824883281679347em" x="5.865384615384616vw" y="2.5317511671832067em" fill="#aaa"/><rect width="0.09615384615384616em" height="0.7945080405112519em" x="5.961538461538462vw" y="2.2054919594887483em" fill="#aaa"/><rect width="0.09615384615384616em" height="0.3983991040523073em" x="6.057692307692308vw" y="2.601600895947693em" fill="#aaa"/><rect width="0.09615384615384616em" height="0.34175656741699956em" x="6.153846153846154vw" y="2.658243432583em" fill="#aaa"/><rect width="0.09615384615384616em" height="0.23495001690765926em" x="6.25vw" y="2.7650499830923407em" fill="#aaa"/><rect width="0.09615384615384616em" height="0.23392434972163284em" x="6.346153846153847vw" y="2.766075650278367em" fill="#aaa"/><rect width="0.09615384615384616em" height="0.11006175431566888em" x="6.4423076923076925vw" y="2.889938245684331em" fill="#aaa"/><rect width="0.09615384615384616em" height="0.1636863319889714em" x="6.538461538461539vw" y="2.836313668011029em" fill="#aaa"/><rect width="0.09615384615384616em" height="0.08868044365180719em" x="6.634615384615385vw" y="2.9113195563481926em" fill="#aaa"/><rect width="0.09615384615384616em" height="0.14013341154602965em" x="6.730769230769231vw" y="2.8598665884539702em" fill="#aaa"/><rect width="0.09615384615384616em" height="0.24789991524253024em" x="6.8269230769230775vw" y="2.75210008475747em" fill="#aaa"/><rect width="0.09615384615384616em" height="0.2601804237072324em" x="6.923076923076923vw" y="2.7398195762927675em" fill="#aaa"/><rect width="0.09615384615384616em" height="0.13115383978446885em" x="7.01923076923077vw" y="2.868846160215531em" fill="#aaa"/><rect width="0.09615384615384616em" height="0.4093141117472303em" x="7.115384615384616vw" y="2.5906858882527697em" fill="#aaa"/><rect width="0.09615384615384616em" height="0.27322447776914816em" x="7.211538461538462vw" y="2.726775522230852em" fill="#aaa"/><rect width="0.09615384615384616em" height="0.19642671305934561em" x="7.307692307692308vw" y="2.8035732869406544em" fill="#aaa"/><rect width="0.09615384615384616em" height="0.1272206762801872em" x="7.403846153846154vw" y="2.8727793237198127em" fill="#aaa"/><rect width="0.09615384615384616em" height="0.21436976764903715em" x="7.5vw" y="2.7856302323509627em" fill="#aaa"/><rect width="0.09615384615384616em" height="0.15817381298378128em" x="7.596153846153847vw" y="2.8418261870162187em" fill="#aaa"/><rect width="0.09615384615384616em" height="0.1311518412465386em" x="7.6923076923076925vw" y="2.8688481587534613em" fill="#aaa"/><rect width="0.09615384615384616em" height="0.22093501326236814em" x="7.788461538461539vw" y="2.779064986737632em" fill="#aaa"/><rect width="0.09615384615384616em" height="0.26238328408651695em" x="7.884615384615385vw" y="2.737616715913483em" fill="#aaa"/><rect width="0.09615384615384616em" height="0.43674084067034696em" x="7.980769230769231vw" y="2.563259159329653em" fill="#aaa"/><rect width="0.09615384615384616em" height="0.29443171646021893em" x="8.076923076923077vw" y="2.705568283539781em" fill="#aaa"/><rect width="0.09615384615384616em" height="0.3032042098464748em" x="8.173076923076923vw" y="2.696795790153525em" fill="#aaa"/><rect width="0.09615384615384616em" height="0.29776794350662583em" x="8.26923076923077vw" y="2.702232056493374em" fill="#aaa"/><rect width="0.09615384615384616em" height="0.16824516877991277em" x="8.365384615384615vw" y="2.831754831220087em" fill="#aaa"/><rect width="0.09615384615384616em" height="0.32618035745098706em" x="8.461538461538462vw" y="2.673819642549013em" fill="#aaa"/><rect width="0.09615384615384616em" height="0.2750607298454372em" x="8.557692307692308vw" y="2.7249392701545627em" fill="#aaa"/><rect width="0.09615384615384616em" height="0.19881578823889376em" x="8.653846153846155vw" y="2.801184211761106em" fill="#aaa"/><rect width="0.09615384615384616em" height="0.2657915699751669em" x="8.75vw" y="2.7342084300248333em" fill="#aaa"/><rect width="0.09615384615384616em" height="0.12287638840945561em" x="8.846153846153847vw" y="2.8771236115905445em" fill="#aaa"/><rect width="0.09615384615384616em" height="0.1810336284010554em" x="8.942307692307693vw" y="2.8189663715989446em" fill="#aaa"/><rect width="0.09615384615384616em" height="0.35524701392425506em" x="9.038461538461538vw" y="2.644752986075745em" fill="#aaa"/><rect width="0.09615384615384616em" height="0.36454330902964294em" x="9.134615384615385vw" y="2.635456690970357em" fill="#aaa"/><rect width="0.09615384615384616em" height="0.14461997313619973em" x="9.230769230769232vw" y="2.8553800268638003em" fill="#aaa"/><rect width="0.09615384615384616em" height="0.24013344857510205em" x="9.326923076923077vw" y="2.759866551424898em" fill="#aaa"/><rect width="0.09615384615384616em" height="0.23205273341681376em" x="9.423076923076923vw" y="2.767947266583186em" fill="#aaa"/><rect width="0.09615384615384616em" height="0.21435694178305784em" x="9.51923076923077vw" y="2.7856430582169422em" fill="#aaa"/><rect width="0.09615384615384616em" height="0.3058501752298357em" x="9.615384615384617vw" y="2.6941498247701645em" fill="#aaa"/><rect width="0.09615384615384616em" height="0.3164641987230483em" x="9.711538461538462vw" y="2.6835358012769515em" fill="#aaa"/><rect width="0.09615384615384616em" height="0.38216653310930426em" x="9.807692307692308vw" y="2.617833466890696em" fill="#aaa"/><rect width="0.09615384615384616em" height="0.313663397634488em" x="9.903846153846155vw" y="2.686336602365512em" fill="#aaa"/></svg>