<?xml version="1.0" standalone="no"?>
<svg xmlns:xlink="http://www.w3.org/1999/xlink" xmlns="http://www.w3.org/2000/svg" class="topic-graph" style="width: 100em; height: 30em; text-align: center;"><rect width="0.9615384615384616em" height="0.9482625282460956em" x="0em" y="29.051737471753903em" fill="#aaa"/><rect width="0.9615384615384616em" height="3.3944147441117707em" x="0.9615384615384616em" y="26.60558525588823em" fill="#aaa"/><rect width="0.9615384615384616em" height="3.768286499520795em" x="1.9230769230769231em" y="26.231713500479206em" fill="#aaa"/><rect width="0.9615384615384616em" height="1.647268430448333em" x="2.8846153846153846em" y="28.35273156955167em" fill="#aaa"/><rect width="0.9615384615384616em" height="4.79179168145261em" x="3.8461538461538463em" y="25.208208318547392em" fill="#aaa"/><rect width="0.9615384615384616em" height="7.395530305501327em" x="4.8076923076923075em" y="22.604469694498672em" fill="#aaa"/><rect width="0.9615384615384616em" height="2.907431574582457em" x="5.769230769230769em" y="27.092568425417543em" fill="#aaa"/><rect width="0.9615384615384616em" height="14.555261528958534em" x="6.730769230769231em" y="15.444738471041466em" fill="#aaa"/><rect width="0.9615384615384616em" height="14.357721668745588em" x="7.6923076923076925em" y="15.642278331254412em" fill="#aaa"/><rect width="0.9615384615384616em" height="15.508579143292106em" x="8.653846153846153em" y="14.491420856707894em" fill="#aaa"/><rect width="0.9615384615384616em" height="26.636035330315448em" x="9.615384615384615em" y="3.3639646696845524em" fill="#aaa"/><rect width="0.9615384615384616em" height="4.475842787979105em" x="10.576923076923077em" y="25.524157212020896em" fill="#aaa"/><rect width="0.9615384615384616em" height="4.613816474687683em" x="11.538461538461538em" y="25.38618352531232em" fill="#aaa"/><rect width="0.9615384615384616em" height="6.3748570134895886em" x="12.5em" y="23.62514298651041em" fill="#aaa"/><rect width="0.9615384615384616em" height="2.240107546035366em" x="13.461538461538462em" y="27.759892453964635em" fill="#aaa"/><rect width="0.9615384615384616em" height="11.797736582894345em" x="14.423076923076923em" y="18.202263417105655em" fill="#aaa"/><rect width="0.9615384615384616em" height="7.948546224307147em" x="15.384615384615385em" y="22.051453775692853em" fill="#aaa"/><rect width="0.9615384615384616em" height="14.654710392122526em" x="16.346153846153847em" y="15.345289607877474em" fill="#aaa"/><rect width="0.9615384615384616em" height="3.3010040453987237em" x="17.307692307692307em" y="26.698995954601276em" fill="#aaa"/><rect width="0.9615384615384616em" height="14.651814391491365em" x="18.26923076923077em" y="15.348185608508635em" fill="#aaa"/><rect width="0.9615384615384616em" height="16.28545144530269em" x="19.23076923076923em" y="13.71454855469731em" fill="#aaa"/><rect width="0.9615384615384616em" height="30em" x="20.192307692307693em" y="0em" fill="#aaa"/><rect width="0.9615384615384616em" height="18.864246223427177em" x="21.153846153846153em" y="11.135753776572823em" fill="#aaa"/><rect width="0.9615384615384616em" height="19.191710482710583em" x="22.115384615384617em" y="10.808289517289417em" fill="#aaa"/><rect width="0.9615384615384616em" height="22.03083820436709em" x="23.076923076923077em" y="7.96916179563291em" fill="#aaa"/><rect width="0.9615384615384616em" height="11.40432295999863em" x="24.03846153846154em" y="18.59567704000137em" fill="#aaa"/><rect width="0.9615384615384616em" height="8.253471523928072em" x="25em" y="21.74652847607193em" fill="#aaa"/><rect width="0.9615384615384616em" height="6.192915078067425em" x="25.961538461538463em" y="23.807084921932574em" fill="#aaa"/><rect width="0.9615384615384616em" height="26.213891616705215em" x="26.923076923076923em" y="3.786108383294785em" fill="#aaa"/><rect width="0.9615384615384616em" height="27.785588269904213em" x="27.884615384615387em" y="2.2144117300957866em" fill="#aaa"/><rect width="0.9615384615384616em" height="12.300316051241861em" x="28.846153846153847em" y="17.69968394875814em" fill="#aaa"/><rect width="0.9615384615384616em" height="14.765993115997858em" x="29.80769230769231em" y="15.234006884002142em" fill="#aaa"/><rect width="0.9615384615384616em" height="14.681873157175561em" x="30.76923076923077em" y="15.318126842824439em" fill="#aaa"/><rect width="0.9615384615384616em" height="8.265675459377297em" x="31.73076923076923em" y="21.7343245406227em" fill="#aaa"/><rect width="0.9615384615384616em" height="7.928757435441182em" x="32.69230769230769em" y="22.07124256455882em" fill="#aaa"/><rect width="0.9615384615384616em" height="13.640317349588344em" x="33.65384615384615em" y="16.359682650411656em" fill="#aaa"/><rect width="0.9615384615384616em" height="12.363655383378825em" x="34.61538461538461em" y="17.636344616621173em" fill="#aaa"/><rect width="0.9615384615384616em" height="3.654409496641224em" x="35.57692307692308em" y="26.345590503358775em" fill="#aaa"/><rect width="0.9615384615384616em" height="5.791474708674482em" x="36.53846153846154em" y="24.20852529132552em" fill="#aaa"/><rect width="0.9615384615384616em" height="6.725119214554817em" x="37.5em" y="23.274880785445184em" fill="#aaa"/><rect width="0.9615384615384616em" height="13.302469492950308em" x="38.46153846153846em" y="16.69753050704969em" fill="#aaa"/><rect width="0.9615384615384616em" height="5.444081825818091em" x="39.42307692307693em" y="24.555918174181908em" fill="#aaa"/><rect width="0.9615384615384616em" height="7.19362514711097em" x="40.38461538461539em" y="22.80637485288903em" fill="#aaa"/><rect width="0.9615384615384616em" height="8.881724724039703em" x="41.34615384615385em" y="21.118275275960297em" fill="#aaa"/><rect width="0.9615384615384616em" height="6.099758131552883em" x="42.30769230769231em" y="23.900241868447118em" fill="#aaa"/><rect width="0.9615384615384616em" height="7.591388642728409em" x="43.269230769230774em" y="22.40861135727159em" fill="#aaa"/><rect width="0.9615384615384616em" height="15.096628544995074em" x="44.23076923076923em" y="14.903371455004926em" fill="#aaa"/><rect width="0.9615384615384616em" height="5.802197131762935em" x="45.19230769230769em" y="24.197802868237066em" fill="#aaa"/><rect width="0.9615384615384616em" height="10.05517606941941em" x="46.15384615384615em" y="19.94482393058059em" fill="#aaa"/><rect width="0.9615384615384616em" height="8.18322334845923em" x="47.11538461538461em" y="21.81677665154077em" fill="#aaa"/><rect width="0.9615384615384616em" height="4.464289451962589em" x="48.07692307692308em" y="25.53571054803741em" fill="#aaa"/><rect width="0.9615384615384616em" height="6.153408100389537em" x="49.03846153846154em" y="23.846591899610463em" fill="#aaa"/><rect width="0.9615384615384616em" height="5.440409741008585em" x="50em" y="24.559590258991413em" fill="#aaa"/><rect width="0.9615384615384616em" height="9.978679585303333em" x="50.96153846153846em" y="20.021320414696667em" fill="#aaa"/><rect width="0.9615384615384616em" height="4.47074284732489em" x="51.92307692307693em" y="25.52925715267511em" fill="#aaa"/><rect width="0.9615384615384616em" height="6.5020537216705em" x="52.88461538461539em" y="23.4979462783295em" fill="#aaa"/><rect width="0.9615384615384616em" height="5.445241606486726em" x="53.84615384615385em" y="24.554758393513275em" fill="#aaa"/><rect width="0.9615384615384616em" height="3.0305683863879067em" x="54.80769230769231em" y="26.969431613612095em" fill="#aaa"/><rect width="0.9615384615384616em" height="4.012410155936728em" x="55.769230769230774em" y="25.987589844063272em" fill="#aaa"/><rect width="0.9615384615384616em" height="2.2600923144196425em" x="56.73076923076923em" y="27.739907685580356em" fill="#aaa"/><rect width="0.9615384615384616em" height="1.518609606842758em" x="57.69230769230769em" y="28.48139039315724em" fill="#aaa"/><rect width="0.9615384615384616em" height="3.294696760657153em" x="58.65384615384615em" y="26.705303239342847em" fill="#aaa"/><rect width="0.9615384615384616em" height="3.7866332577431194em" x="59.61538461538462em" y="26.21336674225688em" fill="#aaa"/><rect width="0.9615384615384616em" height="4.42835101517888em" x="60.57692307692308em" y="25.57164898482112em" fill="#aaa"/><rect width="0.9615384615384616em" height="2.8920043731976497em" x="61.53846153846154em" y="27.10799562680235em" fill="#aaa"/><rect width="0.9615384615384616em" height="4.345534767080668em" x="62.5em" y="25.654465232919332em" fill="#aaa"/><rect width="0.9615384615384616em" height="3.361820877108365em" x="63.46153846153846em" y="26.638179122891636em" fill="#aaa"/><rect width="0.9615384615384616em" height="2.7308342075949317em" x="64.42307692307692em" y="27.26916579240507em" fill="#aaa"/><rect width="0.9615384615384616em" height="1.6767000018879992em" x="65.38461538461539em" y="28.323299998112002em" fill="#aaa"/><rect width="0.9615384615384616em" height="1.0962422926489326em" x="66.34615384615385em" y="28.90375770735107em" fill="#aaa"/><rect width="0.9615384615384616em" height="1.945934018984078em" x="67.3076923076923em" y="28.05406598101592em" fill="#aaa"/><rect width="0.9615384615384616em" height="1.8165970043726243em" x="68.26923076923077em" y="28.183402995627375em" fill="#aaa"/><rect width="0.9615384615384616em" height="1.2709651118276128em" x="69.23076923076923em" y="28.729034888172386em" fill="#aaa"/><rect width="0.9615384615384616em" height="1.8442310485991102em" x="70.1923076923077em" y="28.15576895140089em" fill="#aaa"/><rect width="0.9615384615384616em" height="1.760027337817897em" x="71.15384615384616em" y="28.239972662182105em" fill="#aaa"/><rect width="0.9615384615384616em" height="3.8454553312658577em" x="72.11538461538461em" y="26.154544668734143em" fill="#aaa"/><rect width="0.9615384615384616em" height="1.3085509144475442em" x="73.07692307692308em" y="28.691449085552456em" fill="#aaa"/><rect width="0.9615384615384616em" height="2.0555486493805066em" x="74.03846153846155em" y="27.944451350619495em" fill="#aaa"/><rect width="0.9615384615384616em" height="2.0552168470388845em" x="75em" y="27.944783152961115em" fill="#aaa"/><rect width="0.9615384615384616em" height="2.0793788621702607em" x="75.96153846153847em" y="27.92062113782974em" fill="#aaa"/><rect width="0.9615384615384616em" height="1.317119501127603em" x="76.92307692307692em" y="28.682880498872397em" fill="#aaa"/><rect width="0.9615384615384616em" height="1.1971201831625424em" x="77.88461538461539em" y="28.802879816837457em" fill="#aaa"/><rect width="0.9615384615384616em" height="1.2839447658537082em" x="78.84615384615385em" y="28.716055234146292em" fill="#aaa"/><rect width="0.9615384615384616em" height="1.4998655638451839em" x="79.8076923076923em" y="28.500134436154816em" fill="#aaa"/><rect width="0.9615384615384616em" height="1.0117314282551397em" x="80.76923076923077em" y="28.98826857174486em" fill="#aaa"/><rect width="0.9615384615384616em" height="1.5436925976133746em" x="81.73076923076923em" y="28.456307402386624em" fill="#aaa"/><rect width="0.9615384615384616em" height="1.3786111128418712em" x="82.6923076923077em" y="28.62138888715813em" fill="#aaa"/><rect width="0.9615384615384616em" height="1.3497440776913683em" x="83.65384615384616em" y="28.65025592230863em" fill="#aaa"/><rect width="0.9615384615384616em" height="1.5489990238085305em" x="84.61538461538461em" y="28.45100097619147em" fill="#aaa"/><rect width="0.9615384615384616em" height="1.2524909918405371em" x="85.57692307692308em" y="28.74750900815946em" fill="#aaa"/><rect width="0.9615384615384616em" height="1.0427386046595897em" x="86.53846153846155em" y="28.95726139534041em" fill="#aaa"/><rect width="0.9615384615384616em" height="1.4162003693969463em" x="87.5em" y="28.583799630603053em" fill="#aaa"/><rect width="0.9615384615384616em" height="1.2897893288664808em" x="88.46153846153847em" y="28.71021067113352em" fill="#aaa"/><rect width="0.9615384615384616em" height="1.2393291432614557em" x="89.42307692307692em" y="28.760670856738543em" fill="#aaa"/><rect width="0.9615384615384616em" height="1.73768566277374em" x="90.38461538461539em" y="28.26231433722626em" fill="#aaa"/><rect width="0.9615384615384616em" height="1.1227696129300946em" x="91.34615384615385em" y="28.877230387069904em" fill="#aaa"/><rect width="0.9615384615384616em" height="1.4162960954310826em" x="92.3076923076923em" y="28.583703904568917em" fill="#aaa"/><rect width="0.9615384615384616em" height="1.6740210738111245em" x="93.26923076923077em" y="28.325978926188874em" fill="#aaa"/><rect width="0.9615384615384616em" height="0.9102955081281022em" x="94.23076923076923em" y="29.0897044918719em" fill="#aaa"/><rect width="0.9615384615384616em" height="1.2703204616423496em" x="95.1923076923077em" y="28.72967953835765em" fill="#aaa"/><rect width="0.9615384615384616em" height="0.8269636122811704em" x="96.15384615384616em" y="29.17303638771883em" fill="#aaa"/><rect width="0.9615384615384616em" height="1.516567296550608em" x="97.11538461538461em" y="28.48343270344939em" fill="#aaa"/><rect width="0.9615384615384616em" height="1.1822220203352778em" x="98.07692307692308em" y="28.817777979664722em" fill="#aaa"/><rect width="0.9615384615384616em" height="1.337736338582472em" x="99.03846153846155em" y="28.662263661417526em" fill="#aaa"/></svg>