<?xml version="1.0" standalone="no"?>
<svg xmlns:xlink="http://www.w3.org/1999/xlink" xmlns="http://www.w3.org/2000/svg" class="topic-graph" style="width: 100em; height: 30em; text-align: center;"><rect width="0.9615384615384616em" height="6.505956161966569em" x="0em" y="23.49404383803343em" fill="#aaa"/><rect width="0.9615384615384616em" height="4.3191210705194365em" x="0.9615384615384616em" y="25.680878929480563em" fill="#aaa"/><rect width="0.9615384615384616em" height="5.988204065483246em" x="1.9230769230769231em" y="24.011795934516755em" fill="#aaa"/><rect width="0.9615384615384616em" height="9.425507089296866em" x="2.8846153846153846em" y="20.574492910703135em" fill="#aaa"/><rect width="0.9615384615384616em" height="6.396332732391821em" x="3.8461538461538463em" y="23.60366726760818em" fill="#aaa"/><rect width="0.9615384615384616em" height="8.676136089476188em" x="4.8076923076923075em" y="21.323863910523812em" fill="#aaa"/><rect width="0.9615384615384616em" height="5.231593414421916em" x="5.769230769230769em" y="24.768406585578084em" fill="#aaa"/><rect width="0.9615384615384616em" height="5.878736141169834em" x="6.730769230769231em" y="24.121263858830165em" fill="#aaa"/><rect width="0.9615384615384616em" height="8.370593689536289em" x="7.6923076923076925em" y="21.62940631046371em" fill="#aaa"/><rect width="0.9615384615384616em" height="10.08625230506635em" x="8.653846153846153em" y="19.913747694933647em" fill="#aaa"/><rect width="0.9615384615384616em" height="30em" x="9.615384615384615em" y="0em" fill="#aaa"/><rect width="0.9615384615384616em" height="15.444589422487203em" x="10.576923076923077em" y="14.555410577512797em" fill="#aaa"/><rect width="0.9615384615384616em" height="5.612410529359965em" x="11.538461538461538em" y="24.387589470640034em" fill="#aaa"/><rect width="0.9615384615384616em" height="10.00174426800601em" x="12.5em" y="19.99825573199399em" fill="#aaa"/><rect width="0.9615384615384616em" height="10.265434598743608em" x="13.461538461538462em" y="19.73456540125639em" fill="#aaa"/><rect width="0.9615384615384616em" height="10.150877229550613em" x="14.423076923076923em" y="19.849122770449387em" fill="#aaa"/><rect width="0.9615384615384616em" height="7.96508814340938em" x="15.384615384615385em" y="22.034911856590618em" fill="#aaa"/><rect width="0.9615384615384616em" height="10.177314571256703em" x="16.346153846153847em" y="19.8226854287433em" fill="#aaa"/><rect width="0.9615384615384616em" height="9.937698521520598em" x="17.307692307692307em" y="20.0623014784794em" fill="#aaa"/><rect width="0.9615384615384616em" height="14.756970089791007em" x="18.26923076923077em" y="15.243029910208993em" fill="#aaa"/><rect width="0.9615384615384616em" height="11.317594549425909em" x="19.23076923076923em" y="18.68240545057409em" fill="#aaa"/><rect width="0.9615384615384616em" height="9.6975167231986em" x="20.192307692307693em" y="20.3024832768014em" fill="#aaa"/><rect width="0.9615384615384616em" height="5.679044676743214em" x="21.153846153846153em" y="24.320955323256786em" fill="#aaa"/><rect width="0.9615384615384616em" height="10.857512726450848em" x="22.115384615384617em" y="19.14248727354915em" fill="#aaa"/><rect width="0.9615384615384616em" height="14.589884463059985em" x="23.076923076923077em" y="15.410115536940015em" fill="#aaa"/><rect width="0.9615384615384616em" height="6.02849535242704em" x="24.03846153846154em" y="23.97150464757296em" fill="#aaa"/><rect width="0.9615384615384616em" height="5.341123323515407em" x="25em" y="24.658876676484592em" fill="#aaa"/><rect width="0.9615384615384616em" height="3.6172376832186046em" x="25.961538461538463em" y="26.382762316781395em" fill="#aaa"/><rect width="0.9615384615384616em" height="9.06805739078308em" x="26.923076923076923em" y="20.931942609216918em" fill="#aaa"/><rect width="0.9615384615384616em" height="8.885822933760059em" x="27.884615384615387em" y="21.11417706623994em" fill="#aaa"/><rect width="0.9615384615384616em" height="4.631281561439122em" x="28.846153846153847em" y="25.368718438560876em" fill="#aaa"/><rect width="0.9615384615384616em" height="6.111667835149679em" x="29.80769230769231em" y="23.888332164850322em" fill="#aaa"/><rect width="0.9615384615384616em" height="7.644504332950807em" x="30.76923076923077em" y="22.355495667049194em" fill="#aaa"/><rect width="0.9615384615384616em" height="6.4690618468361745em" x="31.73076923076923em" y="23.530938153163824em" fill="#aaa"/><rect width="0.9615384615384616em" height="4.918021861379974em" x="32.69230769230769em" y="25.081978138620027em" fill="#aaa"/><rect width="0.9615384615384616em" height="4.731770557554136em" x="33.65384615384615em" y="25.268229442445865em" fill="#aaa"/><rect width="0.9615384615384616em" height="5.517811649304153em" x="34.61538461538461em" y="24.482188350695846em" fill="#aaa"/><rect width="0.9615384615384616em" height="5.89527500077898em" x="35.57692307692308em" y="24.10472499922102em" fill="#aaa"/><rect width="0.9615384615384616em" height="9.505476989818241em" x="36.53846153846154em" y="20.49452301018176em" fill="#aaa"/><rect width="0.9615384615384616em" height="9.987506577762808em" x="37.5em" y="20.012493422237192em" fill="#aaa"/><rect width="0.9615384615384616em" height="5.709596770447836em" x="38.46153846153846em" y="24.290403229552165em" fill="#aaa"/><rect width="0.9615384615384616em" height="7.160490506782239em" x="39.42307692307693em" y="22.83950949321776em" fill="#aaa"/><rect width="0.9615384615384616em" height="6.721719014536543em" x="40.38461538461539em" y="23.278280985463457em" fill="#aaa"/><rect width="0.9615384615384616em" height="7.2598456764972585em" x="41.34615384615385em" y="22.740154323502743em" fill="#aaa"/><rect width="0.9615384615384616em" height="7.371235149835057em" x="42.30769230769231em" y="22.62876485016494em" fill="#aaa"/><rect width="0.9615384615384616em" height="6.910558273208636em" x="43.269230769230774em" y="23.089441726791364em" fill="#aaa"/><rect width="0.9615384615384616em" height="9.361056176636799em" x="44.23076923076923em" y="20.6389438233632em" fill="#aaa"/><rect width="0.9615384615384616em" height="7.916535388505755em" x="45.19230769230769em" y="22.083464611494243em" fill="#aaa"/><rect width="0.9615384615384616em" height="4.603405775950842em" x="46.15384615384615em" y="25.39659422404916em" fill="#aaa"/><rect width="0.9615384615384616em" height="5.517905168965807em" x="47.11538461538461em" y="24.482094831034193em" fill="#aaa"/><rect width="0.9615384615384616em" height="8.447465385453494em" x="48.07692307692308em" y="21.552534614546506em" fill="#aaa"/><rect width="0.9615384615384616em" height="5.007723427181202em" x="49.03846153846154em" y="24.9922765728188em" fill="#aaa"/><rect width="0.9615384615384616em" height="5.908469805908332em" x="50em" y="24.091530194091668em" fill="#aaa"/><rect width="0.9615384615384616em" height="5.891720830174492em" x="50.96153846153846em" y="24.108279169825508em" fill="#aaa"/><rect width="0.9615384615384616em" height="7.074367154475263em" x="51.92307692307693em" y="22.92563284552474em" fill="#aaa"/><rect width="0.9615384615384616em" height="8.059205818055728em" x="52.88461538461539em" y="21.94079418194427em" fill="#aaa"/><rect width="0.9615384615384616em" height="6.920199230134955em" x="53.84615384615385em" y="23.079800769865045em" fill="#aaa"/><rect width="0.9615384615384616em" height="4.792452523074902em" x="54.80769230769231em" y="25.207547476925097em" fill="#aaa"/><rect width="0.9615384615384616em" height="4.237421648193555em" x="55.769230769230774em" y="25.762578351806447em" fill="#aaa"/><rect width="0.9615384615384616em" height="4.728212803200525em" x="56.73076923076923em" y="25.271787196799476em" fill="#aaa"/><rect width="0.9615384615384616em" height="8.12286057436009em" x="57.69230769230769em" y="21.87713942563991em" fill="#aaa"/><rect width="0.9615384615384616em" height="7.152077634588166em" x="58.65384615384615em" y="22.847922365411833em" fill="#aaa"/><rect width="0.9615384615384616em" height="5.943989969175711em" x="59.61538461538462em" y="24.05601003082429em" fill="#aaa"/><rect width="0.9615384615384616em" height="5.061423236656129em" x="60.57692307692308em" y="24.93857676334387em" fill="#aaa"/><rect width="0.9615384615384616em" height="8.246339006924215em" x="61.53846153846154em" y="21.753660993075783em" fill="#aaa"/><rect width="0.9615384615384616em" height="6.754709328455189em" x="62.5em" y="23.24529067154481em" fill="#aaa"/><rect width="0.9615384615384616em" height="9.06021794025133em" x="63.46153846153846em" y="20.93978205974867em" fill="#aaa"/><rect width="0.9615384615384616em" height="5.280070518517044em" x="64.42307692307692em" y="24.719929481482957em" fill="#aaa"/><rect width="0.9615384615384616em" height="6.424357682209616em" x="65.38461538461539em" y="23.575642317790383em" fill="#aaa"/><rect width="0.9615384615384616em" height="3.8703877875344066em" x="66.34615384615385em" y="26.129612212465595em" fill="#aaa"/><rect width="0.9615384615384616em" height="6.548216239192543em" x="67.3076923076923em" y="23.45178376080746em" fill="#aaa"/><rect width="0.9615384615384616em" height="4.58215283049749em" x="68.26923076923077em" y="25.417847169502508em" fill="#aaa"/><rect width="0.9615384615384616em" height="4.614034782377183em" x="69.23076923076923em" y="25.385965217622818em" fill="#aaa"/><rect width="0.9615384615384616em" height="2.993440738416851em" x="70.1923076923077em" y="27.00655926158315em" fill="#aaa"/><rect width="0.9615384615384616em" height="2.874218662986394em" x="71.15384615384616em" y="27.125781337013606em" fill="#aaa"/><rect width="0.9615384615384616em" height="3.279952681803015em" x="72.11538461538461em" y="26.720047318196986em" fill="#aaa"/><rect width="0.9615384615384616em" height="3.4634751295611683em" x="73.07692307692308em" y="26.536524870438832em" fill="#aaa"/><rect width="0.9615384615384616em" height="3.3504479832662146em" x="74.03846153846155em" y="26.649552016733786em" fill="#aaa"/><rect width="0.9615384615384616em" height="2.455358404701302em" x="75em" y="27.5446415952987em" fill="#aaa"/><rect width="0.9615384615384616em" height="2.0910270621014786em" x="75.96153846153847em" y="27.908972937898522em" fill="#aaa"/><rect width="0.9615384615384616em" height="2.4353864403010097em" x="76.92307692307692em" y="27.56461355969899em" fill="#aaa"/><rect width="0.9615384615384616em" height="2.6297506004454942em" x="77.88461538461539em" y="27.370249399554506em" fill="#aaa"/><rect width="0.9615384615384616em" height="2.5938151402848146em" x="78.84615384615385em" y="27.406184859715186em" fill="#aaa"/><rect width="0.9615384615384616em" height="3.022863591996436em" x="79.8076923076923em" y="26.977136408003563em" fill="#aaa"/><rect width="0.9615384615384616em" height="3.166333111092712em" x="80.76923076923077em" y="26.83366688890729em" fill="#aaa"/><rect width="0.9615384615384616em" height="2.8719876422000383em" x="81.73076923076923em" y="27.12801235779996em" fill="#aaa"/><rect width="0.9615384615384616em" height="2.8936929018417854em" x="82.6923076923077em" y="27.106307098158215em" fill="#aaa"/><rect width="0.9615384615384616em" height="2.4182454891067855em" x="83.65384615384616em" y="27.581754510893216em" fill="#aaa"/><rect width="0.9615384615384616em" height="2.9079047999159em" x="84.61538461538461em" y="27.0920952000841em" fill="#aaa"/><rect width="0.9615384615384616em" height="2.3869718116787673em" x="85.57692307692308em" y="27.613028188321234em" fill="#aaa"/><rect width="0.9615384615384616em" height="2.668579020841988em" x="86.53846153846155em" y="27.33142097915801em" fill="#aaa"/><rect width="0.9615384615384616em" height="2.2838598237578474em" x="87.5em" y="27.716140176242153em" fill="#aaa"/><rect width="0.9615384615384616em" height="2.5956349757548502em" x="88.46153846153847em" y="27.40436502424515em" fill="#aaa"/><rect width="0.9615384615384616em" height="2.591572514241564em" x="89.42307692307692em" y="27.408427485758438em" fill="#aaa"/><rect width="0.9615384615384616em" height="2.4171813233131543em" x="90.38461538461539em" y="27.582818676686845em" fill="#aaa"/><rect width="0.9615384615384616em" height="2.282857782687758em" x="91.34615384615385em" y="27.717142217312244em" fill="#aaa"/><rect width="0.9615384615384616em" height="2.1957672702645907em" x="92.3076923076923em" y="27.80423272973541em" fill="#aaa"/><rect width="0.9615384615384616em" height="2.2856790398317344em" x="93.26923076923077em" y="27.714320960168266em" fill="#aaa"/><rect width="0.9615384615384616em" height="2.373693170190549em" x="94.23076923076923em" y="27.62630682980945em" fill="#aaa"/><rect width="0.9615384615384616em" height="2.483679136510744em" x="95.1923076923077em" y="27.516320863489256em" fill="#aaa"/><rect width="0.9615384615384616em" height="1.8879927818318234em" x="96.15384615384616em" y="28.112007218168177em" fill="#aaa"/><rect width="0.9615384615384616em" height="2.2299837710435257em" x="97.11538461538461em" y="27.770016228956475em" fill="#aaa"/><rect width="0.9615384615384616em" height="2.2437889403664775em" x="98.07692307692308em" y="27.75621105963352em" fill="#aaa"/><rect width="0.9615384615384616em" height="2.293521218133622em" x="99.03846153846155em" y="27.706478781866377em" fill="#aaa"/></svg>