<?xml version="1.0" standalone="no"?>
<svg xmlns:xlink="http://www.w3.org/1999/xlink" xmlns="http://www.w3.org/2000/svg" class="topic-graph" style="width: 100em; height: 30em; text-align: center;"><rect width="0.9615384615384616em" height="0.2532707775207253em" x="0em" y="29.746729222479274em" fill="#aaa"/><rect width="0.9615384615384616em" height="7.757604886268059em" x="0.9615384615384616em" y="22.24239511373194em" fill="#aaa"/><rect width="0.9615384615384616em" height="23.79801265573916em" x="1.9230769230769231em" y="6.201987344260839em" fill="#aaa"/><rect width="0.9615384615384616em" height="0.7788118041565725em" x="2.8846153846153846em" y="29.22118819584343em" fill="#aaa"/><rect width="0.9615384615384616em" height="1.1899743772319744em" x="3.8461538461538463em" y="28.810025622768027em" fill="#aaa"/><rect width="0.9615384615384616em" height="2.332805524798771em" x="4.8076923076923075em" y="27.667194475201228em" fill="#aaa"/><rect width="0.9615384615384616em" height="0.1798655079631681em" x="5.769230769230769em" y="29.820134492036832em" fill="#aaa"/><rect width="0.9615384615384616em" height="0.135960384373755em" x="6.730769230769231em" y="29.864039615626243em" fill="#aaa"/><rect width="0.9615384615384616em" height="0.16389407505925777em" x="7.6923076923076925em" y="29.836105924940743em" fill="#aaa"/><rect width="0.9615384615384616em" height="0.220009441151184em" x="8.653846153846153em" y="29.779990558848816em" fill="#aaa"/><rect width="0.9615384615384616em" height="0.29755850044470317em" x="9.615384615384615em" y="29.702441499555295em" fill="#aaa"/><rect width="0.9615384615384616em" height="0.2707758772359544em" x="10.576923076923077em" y="29.729224122764045em" fill="#aaa"/><rect width="0.9615384615384616em" height="10.713971154186494em" x="11.538461538461538em" y="19.286028845813505em" fill="#aaa"/><rect width="0.9615384615384616em" height="0.33101028012516703em" x="12.5em" y="29.668989719874833em" fill="#aaa"/><rect width="0.9615384615384616em" height="5.873420570091458em" x="13.461538461538462em" y="24.126579429908542em" fill="#aaa"/><rect width="0.9615384615384616em" height="0.8617797244975202em" x="14.423076923076923em" y="29.13822027550248em" fill="#aaa"/><rect width="0.9615384615384616em" height="8.361944350206365em" x="15.384615384615385em" y="21.638055649793635em" fill="#aaa"/><rect width="0.9615384615384616em" height="17.4336571830325em" x="16.346153846153847em" y="12.566342816967499em" fill="#aaa"/><rect width="0.9615384615384616em" height="3.4511749869502255em" x="17.307692307692307em" y="26.548825013049775em" fill="#aaa"/><rect width="0.9615384615384616em" height="30em" x="18.26923076923077em" y="0em" fill="#aaa"/><rect width="0.9615384615384616em" height="8.089151695536222em" x="19.23076923076923em" y="21.910848304463777em" fill="#aaa"/><rect width="0.9615384615384616em" height="20.0350364828523em" x="20.192307692307693em" y="9.964963517147702em" fill="#aaa"/><rect width="0.9615384615384616em" height="2.9369943220410737em" x="21.153846153846153em" y="27.063005677958927em" fill="#aaa"/><rect width="0.9615384615384616em" height="2.2228461650610836em" x="22.115384615384617em" y="27.777153834938915em" fill="#aaa"/><rect width="0.9615384615384616em" height="1.9262822552824086em" x="23.076923076923077em" y="28.07371774471759em" fill="#aaa"/><rect width="0.9615384615384616em" height="5.388063087666948em" x="24.03846153846154em" y="24.61193691233305em" fill="#aaa"/><rect width="0.9615384615384616em" height="3.166484721241101em" x="25em" y="26.8335152787589em" fill="#aaa"/><rect width="0.9615384615384616em" height="3.479379312328432em" x="25.961538461538463em" y="26.520620687671567em" fill="#aaa"/><rect width="0.9615384615384616em" height="10.531395509785707em" x="26.923076923076923em" y="19.468604490214293em" fill="#aaa"/><rect width="0.9615384615384616em" height="0.5613591580353388em" x="27.884615384615387em" y="29.438640841964663em" fill="#aaa"/><rect width="0.9615384615384616em" height="4.084808811727207em" x="28.846153846153847em" y="25.915191188272793em" fill="#aaa"/><rect width="0.9615384615384616em" height="7.818784376941746em" x="29.80769230769231em" y="22.181215623058254em" fill="#aaa"/><rect width="0.9615384615384616em" height="6.1702288386021085em" x="30.76923076923077em" y="23.829771161397893em" fill="#aaa"/><rect width="0.9615384615384616em" height="6.959284469999286em" x="31.73076923076923em" y="23.040715530000714em" fill="#aaa"/><rect width="0.9615384615384616em" height="0.7838215273514569em" x="32.69230769230769em" y="29.216178472648544em" fill="#aaa"/><rect width="0.9615384615384616em" height="6.713212104088814em" x="33.65384615384615em" y="23.286787895911186em" fill="#aaa"/><rect width="0.9615384615384616em" height="7.3618218713645485em" x="34.61538461538461em" y="22.638178128635452em" fill="#aaa"/><rect width="0.9615384615384616em" height="3.719897498825853em" x="35.57692307692308em" y="26.28010250117415em" fill="#aaa"/><rect width="0.9615384615384616em" height="7.705919764435223em" x="36.53846153846154em" y="22.294080235564778em" fill="#aaa"/><rect width="0.9615384615384616em" height="2.9727058532668504em" x="37.5em" y="27.027294146733148em" fill="#aaa"/><rect width="0.9615384615384616em" height="5.576272596035637em" x="38.46153846153846em" y="24.423727403964364em" fill="#aaa"/><rect width="0.9615384615384616em" height="7.262868598623755em" x="39.42307692307693em" y="22.737131401376246em" fill="#aaa"/><rect width="0.9615384615384616em" height="3.8292413437165136em" x="40.38461538461539em" y="26.170758656283486em" fill="#aaa"/><rect width="0.9615384615384616em" height="4.6750923926507em" x="41.34615384615385em" y="25.3249076073493em" fill="#aaa"/><rect width="0.9615384615384616em" height="7.826329314117466em" x="42.30769230769231em" y="22.173670685882534em" fill="#aaa"/><rect width="0.9615384615384616em" height="11.666064941355259em" x="43.269230769230774em" y="18.33393505864474em" fill="#aaa"/><rect width="0.9615384615384616em" height="3.650601457455293em" x="44.23076923076923em" y="26.349398542544705em" fill="#aaa"/><rect width="0.9615384615384616em" height="5.451479542650006em" x="45.19230769230769em" y="24.548520457349994em" fill="#aaa"/><rect width="0.9615384615384616em" height="1.9326780343501317em" x="46.15384615384615em" y="28.067321965649867em" fill="#aaa"/><rect width="0.9615384615384616em" height="3.222698503504953em" x="47.11538461538461em" y="26.777301496495046em" fill="#aaa"/><rect width="0.9615384615384616em" height="4.356265925697892em" x="48.07692307692308em" y="25.64373407430211em" fill="#aaa"/><rect width="0.9615384615384616em" height="6.37171616903931em" x="49.03846153846154em" y="23.62828383096069em" fill="#aaa"/><rect width="0.9615384615384616em" height="1.7997205345715306em" x="50em" y="28.20027946542847em" fill="#aaa"/><rect width="0.9615384615384616em" height="7.373398574859554em" x="50.96153846153846em" y="22.626601425140446em" fill="#aaa"/><rect width="0.9615384615384616em" height="16.96512679487921em" x="51.92307692307693em" y="13.034873205120789em" fill="#aaa"/><rect width="0.9615384615384616em" height="7.247240934629643em" x="52.88461538461539em" y="22.752759065370356em" fill="#aaa"/><rect width="0.9615384615384616em" height="3.41857735581559em" x="53.84615384615385em" y="26.58142264418441em" fill="#aaa"/><rect width="0.9615384615384616em" height="19.736213986207204em" x="54.80769230769231em" y="10.263786013792796em" fill="#aaa"/><rect width="0.9615384615384616em" height="3.722049904525031em" x="55.769230769230774em" y="26.27795009547497em" fill="#aaa"/><rect width="0.9615384615384616em" height="5.975421376398056em" x="56.73076923076923em" y="24.024578623601943em" fill="#aaa"/><rect width="0.9615384615384616em" height="19.614545501038386em" x="57.69230769230769em" y="10.385454498961614em" fill="#aaa"/><rect width="0.9615384615384616em" height="5.103183162173647em" x="58.65384615384615em" y="24.896816837826353em" fill="#aaa"/><rect width="0.9615384615384616em" height="3.970264348817658em" x="59.61538461538462em" y="26.029735651182342em" fill="#aaa"/><rect width="0.9615384615384616em" height="8.176738801663813em" x="60.57692307692308em" y="21.823261198336187em" fill="#aaa"/><rect width="0.9615384615384616em" height="12.479143555752882em" x="61.53846153846154em" y="17.520856444247116em" fill="#aaa"/><rect width="0.9615384615384616em" height="8.959232962076284em" x="62.5em" y="21.040767037923715em" fill="#aaa"/><rect width="0.9615384615384616em" height="7.425276594549663em" x="63.46153846153846em" y="22.574723405450335em" fill="#aaa"/><rect width="0.9615384615384616em" height="8.535782860454251em" x="64.42307692307692em" y="21.46421713954575em" fill="#aaa"/><rect width="0.9615384615384616em" height="15.118717075680271em" x="65.38461538461539em" y="14.881282924319729em" fill="#aaa"/><rect width="0.9615384615384616em" height="11.589664313901785em" x="66.34615384615385em" y="18.410335686098215em" fill="#aaa"/><rect width="0.9615384615384616em" height="6.139956602073993em" x="67.3076923076923em" y="23.860043397926006em" fill="#aaa"/><rect width="0.9615384615384616em" height="9.067884814065664em" x="68.26923076923077em" y="20.932115185934336em" fill="#aaa"/><rect width="0.9615384615384616em" height="13.050164957458827em" x="69.23076923076923em" y="16.949835042541174em" fill="#aaa"/><rect width="0.9615384615384616em" height="4.330170197420513em" x="70.1923076923077em" y="25.669829802579486em" fill="#aaa"/><rect width="0.9615384615384616em" height="12.155431077527302em" x="71.15384615384616em" y="17.844568922472696em" fill="#aaa"/><rect width="0.9615384615384616em" height="20.14879759058527em" x="72.11538461538461em" y="9.851202409414729em" fill="#aaa"/><rect width="0.9615384615384616em" height="12.033095522350102em" x="73.07692307692308em" y="17.966904477649898em" fill="#aaa"/><rect width="0.9615384615384616em" height="3.1705744744675086em" x="74.03846153846155em" y="26.829425525532493em" fill="#aaa"/><rect width="0.9615384615384616em" height="8.68039280115817em" x="75em" y="21.31960719884183em" fill="#aaa"/><rect width="0.9615384615384616em" height="3.816773195733429em" x="75.96153846153847em" y="26.18322680426657em" fill="#aaa"/><rect width="0.9615384615384616em" height="4.7934559464922994em" x="76.92307692307692em" y="25.2065440535077em" fill="#aaa"/><rect width="0.9615384615384616em" height="11.49911973484937em" x="77.88461538461539em" y="18.50088026515063em" fill="#aaa"/><rect width="0.9615384615384616em" height="4.886152760775256em" x="78.84615384615385em" y="25.113847239224743em" fill="#aaa"/><rect width="0.9615384615384616em" height="5.979522811501471em" x="79.8076923076923em" y="24.02047718849853em" fill="#aaa"/><rect width="0.9615384615384616em" height="3.1811518358256468em" x="80.76923076923077em" y="26.818848164174355em" fill="#aaa"/><rect width="0.9615384615384616em" height="3.4966057295317867em" x="81.73076923076923em" y="26.503394270468213em" fill="#aaa"/><rect width="0.9615384615384616em" height="6.798491465364009em" x="82.6923076923077em" y="23.20150853463599em" fill="#aaa"/><rect width="0.9615384615384616em" height="2.28140292357732em" x="83.65384615384616em" y="27.71859707642268em" fill="#aaa"/><rect width="0.9615384615384616em" height="3.3979267315869435em" x="84.61538461538461em" y="26.602073268413058em" fill="#aaa"/><rect width="0.9615384615384616em" height="3.1176136927377676em" x="85.57692307692308em" y="26.882386307262234em" fill="#aaa"/><rect width="0.9615384615384616em" height="3.4492544342859195em" x="86.53846153846155em" y="26.55074556571408em" fill="#aaa"/><rect width="0.9615384615384616em" height="8.04448338221246em" x="87.5em" y="21.955516617787538em" fill="#aaa"/><rect width="0.9615384615384616em" height="7.525151926150329em" x="88.46153846153847em" y="22.47484807384967em" fill="#aaa"/><rect width="0.9615384615384616em" height="5.819281962236204em" x="89.42307692307692em" y="24.180718037763796em" fill="#aaa"/><rect width="0.9615384615384616em" height="7.047258553396385em" x="90.38461538461539em" y="22.952741446603614em" fill="#aaa"/><rect width="0.9615384615384616em" height="7.402319905418789em" x="91.34615384615385em" y="22.59768009458121em" fill="#aaa"/><rect width="0.9615384615384616em" height="8.710380128622484em" x="92.3076923076923em" y="21.289619871377518em" fill="#aaa"/><rect width="0.9615384615384616em" height="4.988609363109058em" x="93.26923076923077em" y="25.011390636890944em" fill="#aaa"/><rect width="0.9615384615384616em" height="2.9496731635972298em" x="94.23076923076923em" y="27.05032683640277em" fill="#aaa"/><rect width="0.9615384615384616em" height="6.279418668009285em" x="95.1923076923077em" y="23.720581331990715em" fill="#aaa"/><rect width="0.9615384615384616em" height="3.362667665610245em" x="96.15384615384616em" y="26.637332334389754em" fill="#aaa"/><rect width="0.9615384615384616em" height="3.0263375346090524em" x="97.11538461538461em" y="26.973662465390948em" fill="#aaa"/><rect width="0.9615384615384616em" height="3.8305778218655147em" x="98.07692307692308em" y="26.169422178134486em" fill="#aaa"/><rect width="0.9615384615384616em" height="3.1925096135204276em" x="99.03846153846155em" y="26.80749038647957em" fill="#aaa"/></svg>