<?xml version="1.0" standalone="no"?>
<svg xmlns:xlink="http://www.w3.org/1999/xlink" xmlns="http://www.w3.org/2000/svg" class="topic-graph" style="width: 10vw; height: 3em; text-align: center;"><rect width="0.09615384615384616em" height="0.29393112823332807em" x="0vw" y="2.706068871766672em" fill="#aaa"/><rect width="0.09615384615384616em" height="0.358471562923248em" x="0.09615384615384616vw" y="2.641528437076752em" fill="#aaa"/><rect width="0.09615384615384616em" height="0.24499772004515613em" x="0.19230769230769232vw" y="2.755002279954844em" fill="#aaa"/><rect width="0.09615384615384616em" height="0.09841585363415624em" x="0.2884615384615385vw" y="2.9015841463658436em" fill="#aaa"/><rect width="0.09615384615384616em" height="0.08495094429230313em" x="0.38461538461538464vw" y="2.915049055707697em" fill="#aaa"/><rect width="0.09615384615384616em" height="0.24464378045297658em" x="0.4807692307692308vw" y="2.7553562195470236em" fill="#aaa"/><rect width="0.09615384615384616em" height="0.15636126814073184em" x="0.576923076923077vw" y="2.843638731859268em" fill="#aaa"/><rect width="0.09615384615384616em" height="0.041551120045581084em" x="0.6730769230769231vw" y="2.958448879954419em" fill="#aaa"/><rect width="0.09615384615384616em" height="0.21422101340710167em" x="0.7692307692307693vw" y="2.785778986592898em" fill="#aaa"/><rect width="0.09615384615384616em" height="0.1769805914207108em" x="0.8653846153846154vw" y="2.823019408579289em" fill="#aaa"/><rect width="0.09615384615384616em" height="0.20031654115964664em" x="0.9615384615384616vw" y="2.799683458840353em" fill="#aaa"/><rect width="0.09615384615384616em" height="0.07845166314537272em" x="1.0576923076923077vw" y="2.9215483368546273em" fill="#aaa"/><rect width="0.09615384615384616em" height="0.15872997081285986em" x="1.153846153846154vw" y="2.84127002918714em" fill="#aaa"/><rect width="0.09615384615384616em" height="0.09292014950500203em" x="1.25vw" y="2.907079850494998em" fill="#aaa"/><rect width="0.09615384615384616em" height="0.2594710730774198em" x="1.3461538461538463vw" y="2.7405289269225803em" fill="#aaa"/><rect width="0.09615384615384616em" height="0.17981406752362267em" x="1.4423076923076923vw" y="2.8201859324763774em" fill="#aaa"/><rect width="0.09615384615384616em" height="0.2515316521414217em" x="1.5384615384615385vw" y="2.7484683478585783em" fill="#aaa"/><rect width="0.09615384615384616em" height="0.11999237907635638em" x="1.6346153846153848vw" y="2.8800076209236436em" fill="#aaa"/><rect width="0.09615384615384616em" height="0.24033767953187646em" x="1.7307692307692308vw" y="2.7596623204681237em" fill="#aaa"/><rect width="0.09615384615384616em" height="0.12623384463709159em" x="1.826923076923077vw" y="2.8737661553629086em" fill="#aaa"/><rect width="0.09615384615384616em" height="0.4178720196496948em" x="1.9230769230769231vw" y="2.582127980350305em" fill="#aaa"/><rect width="0.09615384615384616em" height="0.3732425724869764em" x="2.019230769230769vw" y="2.6267574275130237em" fill="#aaa"/><rect width="0.09615384615384616em" height="0.0840710328903102em" x="2.1153846153846154vw" y="2.9159289671096897em" fill="#aaa"/><rect width="0.09615384615384616em" height="0.2989376137936653em" x="2.2115384615384617vw" y="2.7010623862063348em" fill="#aaa"/><rect width="0.09615384615384616em" height="0.5126337436187548em" x="2.307692307692308vw" y="2.4873662563812453em" fill="#aaa"/><rect width="0.09615384615384616em" height="0.4192346209042287em" x="2.403846153846154vw" y="2.580765379095771em" fill="#aaa"/><rect width="0.09615384615384616em" height="0.4289494051951428em" x="2.5vw" y="2.5710505948048574em" fill="#aaa"/><rect width="0.09615384615384616em" height="0.31330175837663315em" x="2.5961538461538463vw" y="2.686698241623367em" fill="#aaa"/><rect width="0.09615384615384616em" height="0.4202252799499246em" x="2.6923076923076925vw" y="2.5797747200500756em" fill="#aaa"/><rect width="0.09615384615384616em" height="0.39479294807333554em" x="2.7884615384615388vw" y="2.6052070519266644em" fill="#aaa"/><rect width="0.09615384615384616em" height="0.3923395686546388em" x="2.8846153846153846vw" y="2.6076604313453613em" fill="#aaa"/><rect width="0.09615384615384616em" height="0.4722476690023707em" x="2.980769230769231vw" y="2.5277523309976293em" fill="#aaa"/><rect width="0.09615384615384616em" height="0.6430461393489595em" x="3.076923076923077vw" y="2.3569538606510405em" fill="#aaa"/><rect width="0.09615384615384616em" height="0.1179399295662503em" x="3.1730769230769234vw" y="2.8820600704337496em" fill="#aaa"/><rect width="0.09615384615384616em" height="0.2886449273499153em" x="3.2692307692307696vw" y="2.711355072650085em" fill="#aaa"/><rect width="0.09615384615384616em" height="0.3537526759729806em" x="3.3653846153846154vw" y="2.6462473240270192em" fill="#aaa"/><rect width="0.09615384615384616em" height="0.45375166527409794em" x="3.4615384615384617vw" y="2.546248334725902em" fill="#aaa"/><rect width="0.09615384615384616em" height="0.4105562981052279em" x="3.557692307692308vw" y="2.5894437018947722em" fill="#aaa"/><rect width="0.09615384615384616em" height="0.4154144406185395em" x="3.653846153846154vw" y="2.5845855593814604em" fill="#aaa"/><rect width="0.09615384615384616em" height="0.10439093698592286em" x="3.75vw" y="2.895609063014077em" fill="#aaa"/><rect width="0.09615384615384616em" height="0.2848000955727369em" x="3.8461538461538463vw" y="2.715199904427263em" fill="#aaa"/><rect width="0.09615384615384616em" height="0.48315710276328505em" x="3.9423076923076925vw" y="2.5168428972367147em" fill="#aaa"/><rect width="0.09615384615384616em" height="0.4178494679955673em" x="4.038461538461538vw" y="2.582150532004433em" fill="#aaa"/><rect width="0.09615384615384616em" height="0.4197185387971498em" x="4.134615384615385vw" y="2.5802814612028504em" fill="#aaa"/><rect width="0.09615384615384616em" height="0.5518842751842301em" x="4.230769230769231vw" y="2.4481157248157697em" fill="#aaa"/><rect width="0.09615384615384616em" height="0.23051454892766077em" x="4.3269230769230775vw" y="2.769485451072339em" fill="#aaa"/><rect width="0.09615384615384616em" height="0.5470755527777675em" x="4.423076923076923vw" y="2.4529244472222325em" fill="#aaa"/><rect width="0.09615384615384616em" height="0.5432880901167356em" x="4.519230769230769vw" y="2.456711909883264em" fill="#aaa"/><rect width="0.09615384615384616em" height="0.6010734150313232em" x="4.615384615384616vw" y="2.398926584968677em" fill="#aaa"/><rect width="0.09615384615384616em" height="0.38288757246511973em" x="4.711538461538462vw" y="2.61711242753488em" fill="#aaa"/><rect width="0.09615384615384616em" height="0.554556510052873em" x="4.807692307692308vw" y="2.445443489947127em" fill="#aaa"/><rect width="0.09615384615384616em" height="0.6391379406872627em" x="4.903846153846154vw" y="2.3608620593127374em" fill="#aaa"/><rect width="0.09615384615384616em" height="0.4239355532796331em" x="5vw" y="2.576064446720367em" fill="#aaa"/><rect width="0.09615384615384616em" height="0.5144831529148328em" x="5.096153846153847vw" y="2.485516847085167em" fill="#aaa"/><rect width="0.09615384615384616em" height="0.4559589046422128em" x="5.1923076923076925vw" y="2.5440410953577874em" fill="#aaa"/><rect width="0.09615384615384616em" height="0.563412847580185em" x="5.288461538461538vw" y="2.436587152419815em" fill="#aaa"/><rect width="0.09615384615384616em" height="0.5441999482880828em" x="5.384615384615385vw" y="2.4558000517119174em" fill="#aaa"/><rect width="0.09615384615384616em" height="0.4820213541057177em" x="5.480769230769231vw" y="2.5179786458942823em" fill="#aaa"/><rect width="0.09615384615384616em" height="0.6896806801758397em" x="5.5769230769230775vw" y="2.3103193198241603em" fill="#aaa"/><rect width="0.09615384615384616em" height="0.4254915253461073em" x="5.673076923076923vw" y="2.574508474653893em" fill="#aaa"/><rect width="0.09615384615384616em" height="0.6329038468032229em" x="5.769230769230769vw" y="2.367096153196777em" fill="#aaa"/><rect width="0.09615384615384616em" height="0.3476632881372618em" x="5.865384615384616vw" y="2.652336711862738em" fill="#aaa"/><rect width="0.09615384615384616em" height="0.6468458460666432em" x="5.961538461538462vw" y="2.3531541539333567em" fill="#aaa"/><rect width="0.09615384615384616em" height="0.519942880699329em" x="6.057692307692308vw" y="2.480057119300671em" fill="#aaa"/><rect width="0.09615384615384616em" height="0.5703138828587955em" x="6.153846153846154vw" y="2.4296861171412045em" fill="#aaa"/><rect width="0.09615384615384616em" height="0.6165215689274044em" x="6.25vw" y="2.3834784310725956em" fill="#aaa"/><rect width="0.09615384615384616em" height="0.5866502062698351em" x="6.346153846153847vw" y="2.413349793730165em" fill="#aaa"/><rect width="0.09615384615384616em" height="0.7908598154831378em" x="6.4423076923076925vw" y="2.2091401845168623em" fill="#aaa"/><rect width="0.09615384615384616em" height="0.7574845421577456em" x="6.538461538461539vw" y="2.2425154578422544em" fill="#aaa"/><rect width="0.09615384615384616em" height="0.8047005360834423em" x="6.634615384615385vw" y="2.195299463916558em" fill="#aaa"/><rect width="0.09615384615384616em" height="0.5960317875644972em" x="6.730769230769231vw" y="2.403968212435503em" fill="#aaa"/><rect width="0.09615384615384616em" height="0.6395499382674631em" x="6.8269230769230775vw" y="2.360450061732537em" fill="#aaa"/><rect width="0.09615384615384616em" height="0.5435174380369041em" x="6.923076923076923vw" y="2.456482561963096em" fill="#aaa"/><rect width="0.09615384615384616em" height="0.7324369888408611em" x="7.01923076923077vw" y="2.267563011159139em" fill="#aaa"/><rect width="0.09615384615384616em" height="0.7266204039374958em" x="7.115384615384616vw" y="2.273379596062504em" fill="#aaa"/><rect width="0.09615384615384616em" height="1.0653183405372304em" x="7.211538461538462vw" y="1.9346816594627696em" fill="#aaa"/><rect width="0.09615384615384616em" height="1.1216284473603677em" x="7.307692307692308vw" y="1.8783715526396323em" fill="#aaa"/><rect width="0.09615384615384616em" height="1.205100998479572em" x="7.403846153846154vw" y="1.794899001520428em" fill="#aaa"/><rect width="0.09615384615384616em" height="1.058834299251141em" x="7.5vw" y="1.941165700748859em" fill="#aaa"/><rect width="0.09615384615384616em" height="1.1126672839860348em" x="7.596153846153847vw" y="1.8873327160139652em" fill="#aaa"/><rect width="0.09615384615384616em" height="0.8467924249087294em" x="7.6923076923076925vw" y="2.1532075750912707em" fill="#aaa"/><rect width="0.09615384615384616em" height="2.1932385740886926em" x="7.788461538461539vw" y="0.8067614259113074em" fill="#aaa"/><rect width="0.09615384615384616em" height="3em" x="7.884615384615385vw" y="0em" fill="#aaa"/><rect width="0.09615384615384616em" height="1.7856869847046415em" x="7.980769230769231vw" y="1.2143130152953585em" fill="#aaa"/><rect width="0.09615384615384616em" height="2.4492116762773875em" x="8.076923076923077vw" y="0.5507883237226125em" fill="#aaa"/><rect width="0.09615384615384616em" height="2.299974854626557em" x="8.173076923076923vw" y="0.7000251453734432em" fill="#aaa"/><rect width="0.09615384615384616em" height="2.5215402719923334em" x="8.26923076923077vw" y="0.47845972800766656em" fill="#aaa"/><rect width="0.09615384615384616em" height="1.9525093710285872em" x="8.365384615384615vw" y="1.0474906289714128em" fill="#aaa"/><rect width="0.09615384615384616em" height="1.4612514754279062em" x="8.461538461538462vw" y="1.5387485245720938em" fill="#aaa"/><rect width="0.09615384615384616em" height="1.1505664695207958em" x="8.557692307692308vw" y="1.8494335304792042em" fill="#aaa"/><rect width="0.09615384615384616em" height="1.3336623898955877em" x="8.653846153846155vw" y="1.6663376101044123em" fill="#aaa"/><rect width="0.09615384615384616em" height="1.0093726842489512em" x="8.75vw" y="1.9906273157510488em" fill="#aaa"/><rect width="0.09615384615384616em" height="0.9619410636501825em" x="8.846153846153847vw" y="2.0380589363498176em" fill="#aaa"/><rect width="0.09615384615384616em" height="0.9745641128806053em" x="8.942307692307693vw" y="2.0254358871193947em" fill="#aaa"/><rect width="0.09615384615384616em" height="1.138540576892954em" x="9.038461538461538vw" y="1.861459423107046em" fill="#aaa"/><rect width="0.09615384615384616em" height="1.1310166453366584em" x="9.134615384615385vw" y="1.8689833546633416em" fill="#aaa"/><rect width="0.09615384615384616em" height="1.0887408018475535em" x="9.230769230769232vw" y="1.9112591981524465em" fill="#aaa"/><rect width="0.09615384615384616em" height="1.1573923927911332em" x="9.326923076923077vw" y="1.8426076072088668em" fill="#aaa"/><rect width="0.09615384615384616em" height="0.7117443711315874em" x="9.423076923076923vw" y="2.288255628868413em" fill="#aaa"/><rect width="0.09615384615384616em" height="0.7495018408891524em" x="9.51923076923077vw" y="2.2504981591108475em" fill="#aaa"/><rect width="0.09615384615384616em" height="0.8968377706748559em" x="9.615384615384617vw" y="2.103162229325144em" fill="#aaa"/><rect width="0.09615384615384616em" height="0.7948037668848927em" x="9.711538461538462vw" y="2.205196233115107em" fill="#aaa"/><rect width="0.09615384615384616em" height="0.6784114610522916em" x="9.807692307692308vw" y="2.3215885389477084em" fill="#aaa"/><rect width="0.09615384615384616em" height="0.8714594391687256em" x="9.903846153846155vw" y="2.1285405608312744em" fill="#aaa"/></svg>