<?xml version="1.0" standalone="no"?>
<svg xmlns:xlink="http://www.w3.org/1999/xlink" xmlns="http://www.w3.org/2000/svg" class="topic-graph" style="width: 10vw; height: 3em; text-align: center;"><rect width="0.09615384615384616em" height="0.6843742249655433em" x="0vw" y="2.315625775034457em" fill="#aaa"/><rect width="0.09615384615384616em" height="0.40284327373268924em" x="0.09615384615384616vw" y="2.5971567262673108em" fill="#aaa"/><rect width="0.09615384615384616em" height="1.2132444223740906em" x="0.19230769230769232vw" y="1.7867555776259094em" fill="#aaa"/><rect width="0.09615384615384616em" height="0.8290690600957655em" x="0.2884615384615385vw" y="2.1709309399042347em" fill="#aaa"/><rect width="0.09615384615384616em" height="0.7039027071200029em" x="0.38461538461538464vw" y="2.296097292879997em" fill="#aaa"/><rect width="0.09615384615384616em" height="1.9512210538046353em" x="0.4807692307692308vw" y="1.0487789461953647em" fill="#aaa"/><rect width="0.09615384615384616em" height="1.9918217918710144em" x="0.576923076923077vw" y="1.0081782081289856em" fill="#aaa"/><rect width="0.09615384615384616em" height="2.2450099936799903em" x="0.6730769230769231vw" y="0.7549900063200097em" fill="#aaa"/><rect width="0.09615384615384616em" height="1.445009914077759em" x="0.7692307692307693vw" y="1.554990085922241em" fill="#aaa"/><rect width="0.09615384615384616em" height="1.3281284378199048em" x="0.8653846153846154vw" y="1.6718715621800952em" fill="#aaa"/><rect width="0.09615384615384616em" height="1.8218132449460132em" x="0.9615384615384616vw" y="1.1781867550539868em" fill="#aaa"/><rect width="0.09615384615384616em" height="1.1168859808838332em" x="1.0576923076923077vw" y="1.8831140191161668em" fill="#aaa"/><rect width="0.09615384615384616em" height="0.9836049974561388em" x="1.153846153846154vw" y="2.0163950025438613em" fill="#aaa"/><rect width="0.09615384615384616em" height="1.9682389563015537em" x="1.25vw" y="1.0317610436984463em" fill="#aaa"/><rect width="0.09615384615384616em" height="0.9957607758845368em" x="1.3461538461538463vw" y="2.004239224115463em" fill="#aaa"/><rect width="0.09615384615384616em" height="1.801913901392366em" x="1.4423076923076923vw" y="1.198086098607634em" fill="#aaa"/><rect width="0.09615384615384616em" height="1.7310946293785765em" x="1.5384615384615385vw" y="1.2689053706214235em" fill="#aaa"/><rect width="0.09615384615384616em" height="3em" x="1.6346153846153848vw" y="0em" fill="#aaa"/><rect width="0.09615384615384616em" height="1.8747756049974227em" x="1.7307692307692308vw" y="1.1252243950025773em" fill="#aaa"/><rect width="0.09615384615384616em" height="2.224086974669039em" x="1.826923076923077vw" y="0.775913025330961em" fill="#aaa"/><rect width="0.09615384615384616em" height="1.3768262543593865em" x="1.9230769230769231vw" y="1.6231737456406135em" fill="#aaa"/><rect width="0.09615384615384616em" height="2.9059788020222417em" x="2.019230769230769vw" y="0.09402119797775832em" fill="#aaa"/><rect width="0.09615384615384616em" height="1.7885135668713716em" x="2.1153846153846154vw" y="1.2114864331286284em" fill="#aaa"/><rect width="0.09615384615384616em" height="2.2416822552482674em" x="2.2115384615384617vw" y="0.7583177447517326em" fill="#aaa"/><rect width="0.09615384615384616em" height="1.6634801862963422em" x="2.307692307692308vw" y="1.3365198137036578em" fill="#aaa"/><rect width="0.09615384615384616em" height="1.5455999704398717em" x="2.403846153846154vw" y="1.4544000295601283em" fill="#aaa"/><rect width="0.09615384615384616em" height="2.76957157922148em" x="2.5vw" y="0.23042842077851988em" fill="#aaa"/><rect width="0.09615384615384616em" height="2.8593666474506994em" x="2.5961538461538463vw" y="0.14063335254930065em" fill="#aaa"/><rect width="0.09615384615384616em" height="2.1710443270490165em" x="2.6923076923076925vw" y="0.8289556729509835em" fill="#aaa"/><rect width="0.09615384615384616em" height="2.096041139616604em" x="2.7884615384615388vw" y="0.9039588603833959em" fill="#aaa"/><rect width="0.09615384615384616em" height="2.9567550813598866em" x="2.8846153846153846vw" y="0.04324491864011337em" fill="#aaa"/><rect width="0.09615384615384616em" height="2.310142629123219em" x="2.980769230769231vw" y="0.6898573708767808em" fill="#aaa"/><rect width="0.09615384615384616em" height="1.6243598726017399em" x="3.076923076923077vw" y="1.3756401273982601em" fill="#aaa"/><rect width="0.09615384615384616em" height="2.131796283757774em" x="3.1730769230769234vw" y="0.8682037162422258em" fill="#aaa"/><rect width="0.09615384615384616em" height="1.866901986322658em" x="3.2692307692307696vw" y="1.133098013677342em" fill="#aaa"/><rect width="0.09615384615384616em" height="1.0814488202169616em" x="3.3653846153846154vw" y="1.9185511797830384em" fill="#aaa"/><rect width="0.09615384615384616em" height="1.3977237899060764em" x="3.4615384615384617vw" y="1.6022762100939236em" fill="#aaa"/><rect width="0.09615384615384616em" height="1.7423761377552989em" x="3.557692307692308vw" y="1.2576238622447011em" fill="#aaa"/><rect width="0.09615384615384616em" height="1.4191946013591776em" x="3.653846153846154vw" y="1.5808053986408224em" fill="#aaa"/><rect width="0.09615384615384616em" height="2.665131969223293em" x="3.75vw" y="0.3348680307767071em" fill="#aaa"/><rect width="0.09615384615384616em" height="1.3745350789743667em" x="3.8461538461538463vw" y="1.6254649210256333em" fill="#aaa"/><rect width="0.09615384615384616em" height="1.5581935214131253em" x="3.9423076923076925vw" y="1.4418064785868747em" fill="#aaa"/><rect width="0.09615384615384616em" height="1.2158203088503046em" x="4.038461538461538vw" y="1.7841796911496954em" fill="#aaa"/><rect width="0.09615384615384616em" height="1.1319768628445186em" x="4.134615384615385vw" y="1.8680231371554814em" fill="#aaa"/><rect width="0.09615384615384616em" height="1.0136084585929552em" x="4.230769230769231vw" y="1.9863915414070448em" fill="#aaa"/><rect width="0.09615384615384616em" height="1.2030257061739285em" x="4.3269230769230775vw" y="1.7969742938260715em" fill="#aaa"/><rect width="0.09615384615384616em" height="1.04251342269449em" x="4.423076923076923vw" y="1.95748657730551em" fill="#aaa"/><rect width="0.09615384615384616em" height="0.9977099578874531em" x="4.519230769230769vw" y="2.0022900421125467em" fill="#aaa"/><rect width="0.09615384615384616em" height="1.0995362294080147em" x="4.615384615384616vw" y="1.9004637705919853em" fill="#aaa"/><rect width="0.09615384615384616em" height="1.020914166332585em" x="4.711538461538462vw" y="1.979085833667415em" fill="#aaa"/><rect width="0.09615384615384616em" height="1.0860369556078908em" x="4.807692307692308vw" y="1.9139630443921092em" fill="#aaa"/><rect width="0.09615384615384616em" height="0.8284988044585779em" x="4.903846153846154vw" y="2.1715011955414223em" fill="#aaa"/><rect width="0.09615384615384616em" height="1.0679389026109387em" x="5vw" y="1.9320610973890613em" fill="#aaa"/><rect width="0.09615384615384616em" height="1.1270952766575508em" x="5.096153846153847vw" y="1.8729047233424492em" fill="#aaa"/><rect width="0.09615384615384616em" height="0.9628418827219154em" x="5.1923076923076925vw" y="2.037158117278085em" fill="#aaa"/><rect width="0.09615384615384616em" height="0.8299506429666177em" x="5.288461538461538vw" y="2.170049357033382em" fill="#aaa"/><rect width="0.09615384615384616em" height="0.7906761880229544em" x="5.384615384615385vw" y="2.2093238119770455em" fill="#aaa"/><rect width="0.09615384615384616em" height="0.8378379588144413em" x="5.480769230769231vw" y="2.1621620411855584em" fill="#aaa"/><rect width="0.09615384615384616em" height="0.9024094360782795em" x="5.5769230769230775vw" y="2.0975905639217203em" fill="#aaa"/><rect width="0.09615384615384616em" height="0.7667540803786499em" x="5.673076923076923vw" y="2.23324591962135em" fill="#aaa"/><rect width="0.09615384615384616em" height="0.7090161225624547em" x="5.769230769230769vw" y="2.2909838774375455em" fill="#aaa"/><rect width="0.09615384615384616em" height="0.5592004367274536em" x="5.865384615384616vw" y="2.4407995632725465em" fill="#aaa"/><rect width="0.09615384615384616em" height="0.7914485066206383em" x="5.961538461538462vw" y="2.2085514933793617em" fill="#aaa"/><rect width="0.09615384615384616em" height="0.8170914468147376em" x="6.057692307692308vw" y="2.1829085531852623em" fill="#aaa"/><rect width="0.09615384615384616em" height="0.6177509959079823em" x="6.153846153846154vw" y="2.3822490040920177em" fill="#aaa"/><rect width="0.09615384615384616em" height="0.6375951633567928em" x="6.25vw" y="2.3624048366432073em" fill="#aaa"/><rect width="0.09615384615384616em" height="0.7047765426802431em" x="6.346153846153847vw" y="2.2952234573197567em" fill="#aaa"/><rect width="0.09615384615384616em" height="0.7438218077606388em" x="6.4423076923076925vw" y="2.256178192239361em" fill="#aaa"/><rect width="0.09615384615384616em" height="0.5354718509891918em" x="6.538461538461539vw" y="2.464528149010808em" fill="#aaa"/><rect width="0.09615384615384616em" height="0.5569487863577889em" x="6.634615384615385vw" y="2.443051213642211em" fill="#aaa"/><rect width="0.09615384615384616em" height="0.9059204669329879em" x="6.730769230769231vw" y="2.094079533067012em" fill="#aaa"/><rect width="0.09615384615384616em" height="0.6030104405029475em" x="6.8269230769230775vw" y="2.3969895594970527em" fill="#aaa"/><rect width="0.09615384615384616em" height="0.7839005586661467em" x="6.923076923076923vw" y="2.2160994413338533em" fill="#aaa"/><rect width="0.09615384615384616em" height="0.5934059153752864em" x="7.01923076923077vw" y="2.4065940846247136em" fill="#aaa"/><rect width="0.09615384615384616em" height="0.5647163216549049em" x="7.115384615384616vw" y="2.435283678345095em" fill="#aaa"/><rect width="0.09615384615384616em" height="0.5108601881735462em" x="7.211538461538462vw" y="2.489139811826454em" fill="#aaa"/><rect width="0.09615384615384616em" height="0.6328984250785528em" x="7.307692307692308vw" y="2.3671015749214472em" fill="#aaa"/><rect width="0.09615384615384616em" height="0.6903100217165674em" x="7.403846153846154vw" y="2.3096899782834326em" fill="#aaa"/><rect width="0.09615384615384616em" height="0.5138839780322189em" x="7.5vw" y="2.4861160219677814em" fill="#aaa"/><rect width="0.09615384615384616em" height="0.5520896689974064em" x="7.596153846153847vw" y="2.4479103310025936em" fill="#aaa"/><rect width="0.09615384615384616em" height="0.39228358379367056em" x="7.6923076923076925vw" y="2.6077164162063293em" fill="#aaa"/><rect width="0.09615384615384616em" height="0.3514166827348124em" x="7.788461538461539vw" y="2.648583317265188em" fill="#aaa"/><rect width="0.09615384615384616em" height="0.37541894414080224em" x="7.884615384615385vw" y="2.6245810558591978em" fill="#aaa"/><rect width="0.09615384615384616em" height="0.40192421925218247em" x="7.980769230769231vw" y="2.5980757807478176em" fill="#aaa"/><rect width="0.09615384615384616em" height="0.4264102578888482em" x="8.076923076923077vw" y="2.5735897421111518em" fill="#aaa"/><rect width="0.09615384615384616em" height="0.38383952229163176em" x="8.173076923076923vw" y="2.6161604777083682em" fill="#aaa"/><rect width="0.09615384615384616em" height="0.4446064497150577em" x="8.26923076923077vw" y="2.5553935502849425em" fill="#aaa"/><rect width="0.09615384615384616em" height="0.30827691082411157em" x="8.365384615384615vw" y="2.6917230891758885em" fill="#aaa"/><rect width="0.09615384615384616em" height="0.4097862917084947em" x="8.461538461538462vw" y="2.5902137082915053em" fill="#aaa"/><rect width="0.09615384615384616em" height="0.36850104533112354em" x="8.557692307692308vw" y="2.6314989546688765em" fill="#aaa"/><rect width="0.09615384615384616em" height="0.28576130174429765em" x="8.653846153846155vw" y="2.7142386982557025em" fill="#aaa"/><rect width="0.09615384615384616em" height="0.2597755982178087em" x="8.75vw" y="2.740224401782191em" fill="#aaa"/><rect width="0.09615384615384616em" height="0.35011987238742975em" x="8.846153846153847vw" y="2.6498801276125703em" fill="#aaa"/><rect width="0.09615384615384616em" height="0.3715143265371301em" x="8.942307692307693vw" y="2.62848567346287em" fill="#aaa"/><rect width="0.09615384615384616em" height="0.27926869154783335em" x="9.038461538461538vw" y="2.7207313084521667em" fill="#aaa"/><rect width="0.09615384615384616em" height="0.29700358206900446em" x="9.134615384615385vw" y="2.7029964179309953em" fill="#aaa"/><rect width="0.09615384615384616em" height="0.3241636666822184em" x="9.230769230769232vw" y="2.6758363333177817em" fill="#aaa"/><rect width="0.09615384615384616em" height="0.3154412222834131em" x="9.326923076923077vw" y="2.684558777716587em" fill="#aaa"/><rect width="0.09615384615384616em" height="0.239893606285293em" x="9.423076923076923vw" y="2.760106393714707em" fill="#aaa"/><rect width="0.09615384615384616em" height="0.24087124080510497em" x="9.51923076923077vw" y="2.759128759194895em" fill="#aaa"/><rect width="0.09615384615384616em" height="0.33558073909969205em" x="9.615384615384617vw" y="2.664419260900308em" fill="#aaa"/><rect width="0.09615384615384616em" height="0.32858973534234587em" x="9.711538461538462vw" y="2.6714102646576543em" fill="#aaa"/><rect width="0.09615384615384616em" height="0.29008708645212633em" x="9.807692307692308vw" y="2.709912913547874em" fill="#aaa"/><rect width="0.09615384615384616em" height="0.25300292167190724em" x="9.903846153846155vw" y="2.746997078328093em" fill="#aaa"/></svg>