<?xml version="1.0" standalone="no"?>
<svg xmlns:xlink="http://www.w3.org/1999/xlink" xmlns="http://www.w3.org/2000/svg" class="topic-graph" style="width: 100em; height: 30em; text-align: center;"><rect width="0.9615384615384616em" height="1.632047131268856em" x="0em" y="28.367952868731145em" fill="#aaa"/><rect width="0.9615384615384616em" height="2.7886658257005177em" x="0.9615384615384616em" y="27.21133417429948em" fill="#aaa"/><rect width="0.9615384615384616em" height="0.5712107613570866em" x="1.9230769230769231em" y="29.428789238642914em" fill="#aaa"/><rect width="0.9615384615384616em" height="0.3595615327517661em" x="2.8846153846153846em" y="29.640438467248234em" fill="#aaa"/><rect width="0.9615384615384616em" height="1.1765429615842509em" x="3.8461538461538463em" y="28.82345703841575em" fill="#aaa"/><rect width="0.9615384615384616em" height="1.332146665496306em" x="4.8076923076923075em" y="28.667853334503693em" fill="#aaa"/><rect width="0.9615384615384616em" height="1.9561194962023762em" x="5.769230769230769em" y="28.043880503797624em" fill="#aaa"/><rect width="0.9615384615384616em" height="0.9335295394642005em" x="6.730769230769231em" y="29.0664704605358em" fill="#aaa"/><rect width="0.9615384615384616em" height="0.44297393995587314em" x="7.6923076923076925em" y="29.557026060044127em" fill="#aaa"/><rect width="0.9615384615384616em" height="1.1285196165669371em" x="8.653846153846153em" y="28.871480383433063em" fill="#aaa"/><rect width="0.9615384615384616em" height="0.9322929509400255em" x="9.615384615384615em" y="29.067707049059976em" fill="#aaa"/><rect width="0.9615384615384616em" height="1.8594318899614888em" x="10.576923076923077em" y="28.14056811003851em" fill="#aaa"/><rect width="0.9615384615384616em" height="2.614796393649948em" x="11.538461538461538em" y="27.385203606350053em" fill="#aaa"/><rect width="0.9615384615384616em" height="2.5319195133152634em" x="12.5em" y="27.468080486684737em" fill="#aaa"/><rect width="0.9615384615384616em" height="3.1923331445158087em" x="13.461538461538462em" y="26.807666855484193em" fill="#aaa"/><rect width="0.9615384615384616em" height="3.054214702956789em" x="14.423076923076923em" y="26.945785297043212em" fill="#aaa"/><rect width="0.9615384615384616em" height="1.9371642285185917em" x="15.384615384615385em" y="28.06283577148141em" fill="#aaa"/><rect width="0.9615384615384616em" height="2.0830224524281897em" x="16.346153846153847em" y="27.91697754757181em" fill="#aaa"/><rect width="0.9615384615384616em" height="1.4117004296944122em" x="17.307692307692307em" y="28.588299570305587em" fill="#aaa"/><rect width="0.9615384615384616em" height="1.2025579436818856em" x="18.26923076923077em" y="28.797442056318115em" fill="#aaa"/><rect width="0.9615384615384616em" height="1.3611269294868351em" x="19.23076923076923em" y="28.638873070513164em" fill="#aaa"/><rect width="0.9615384615384616em" height="3.7579044743882744em" x="20.192307692307693em" y="26.242095525611724em" fill="#aaa"/><rect width="0.9615384615384616em" height="1.7663183343994904em" x="21.153846153846153em" y="28.23368166560051em" fill="#aaa"/><rect width="0.9615384615384616em" height="3.1472606780105488em" x="22.115384615384617em" y="26.85273932198945em" fill="#aaa"/><rect width="0.9615384615384616em" height="0.9526273901227988em" x="23.076923076923077em" y="29.0473726098772em" fill="#aaa"/><rect width="0.9615384615384616em" height="4.733209509937959em" x="24.03846153846154em" y="25.266790490062043em" fill="#aaa"/><rect width="0.9615384615384616em" height="3.694541994792808em" x="25em" y="26.305458005207193em" fill="#aaa"/><rect width="0.9615384615384616em" height="11.971506713394458em" x="25.961538461538463em" y="18.028493286605542em" fill="#aaa"/><rect width="0.9615384615384616em" height="3.270800299466745em" x="26.923076923076923em" y="26.729199700533254em" fill="#aaa"/><rect width="0.9615384615384616em" height="1.3337015723437584em" x="27.884615384615387em" y="28.66629842765624em" fill="#aaa"/><rect width="0.9615384615384616em" height="6.124371032693802em" x="28.846153846153847em" y="23.8756289673062em" fill="#aaa"/><rect width="0.9615384615384616em" height="5.328141317401928em" x="29.80769230769231em" y="24.67185868259807em" fill="#aaa"/><rect width="0.9615384615384616em" height="4.077777642248242em" x="30.76923076923077em" y="25.922222357751757em" fill="#aaa"/><rect width="0.9615384615384616em" height="6.009787338543513em" x="31.73076923076923em" y="23.990212661456486em" fill="#aaa"/><rect width="0.9615384615384616em" height="4.466387812094075em" x="32.69230769230769em" y="25.533612187905923em" fill="#aaa"/><rect width="0.9615384615384616em" height="4.782568225786574em" x="33.65384615384615em" y="25.217431774213427em" fill="#aaa"/><rect width="0.9615384615384616em" height="3.1860405910618725em" x="34.61538461538461em" y="26.81395940893813em" fill="#aaa"/><rect width="0.9615384615384616em" height="4.7291656209283905em" x="35.57692307692308em" y="25.27083437907161em" fill="#aaa"/><rect width="0.9615384615384616em" height="8.139357056623906em" x="36.53846153846154em" y="21.860642943376092em" fill="#aaa"/><rect width="0.9615384615384616em" height="1.4695004848460334em" x="37.5em" y="28.530499515153966em" fill="#aaa"/><rect width="0.9615384615384616em" height="6.181713768110216em" x="38.46153846153846em" y="23.818286231889786em" fill="#aaa"/><rect width="0.9615384615384616em" height="3.6197619124820464em" x="39.42307692307693em" y="26.380238087517952em" fill="#aaa"/><rect width="0.9615384615384616em" height="7.205918695813759em" x="40.38461538461539em" y="22.794081304186243em" fill="#aaa"/><rect width="0.9615384615384616em" height="3.5850808988837115em" x="41.34615384615385em" y="26.41491910111629em" fill="#aaa"/><rect width="0.9615384615384616em" height="3.943575596856965em" x="42.30769230769231em" y="26.056424403143033em" fill="#aaa"/><rect width="0.9615384615384616em" height="4.959606155508552em" x="43.269230769230774em" y="25.040393844491447em" fill="#aaa"/><rect width="0.9615384615384616em" height="2.3783816188202516em" x="44.23076923076923em" y="27.621618381179747em" fill="#aaa"/><rect width="0.9615384615384616em" height="5.028622553343243em" x="45.19230769230769em" y="24.971377446656756em" fill="#aaa"/><rect width="0.9615384615384616em" height="1.4473489915900903em" x="46.15384615384615em" y="28.55265100840991em" fill="#aaa"/><rect width="0.9615384615384616em" height="2.3576266956168315em" x="47.11538461538461em" y="27.64237330438317em" fill="#aaa"/><rect width="0.9615384615384616em" height="6.0978701134743325em" x="48.07692307692308em" y="23.902129886525668em" fill="#aaa"/><rect width="0.9615384615384616em" height="3.5750177508855776em" x="49.03846153846154em" y="26.42498224911442em" fill="#aaa"/><rect width="0.9615384615384616em" height="4.122688352353895em" x="50em" y="25.877311647646106em" fill="#aaa"/><rect width="0.9615384615384616em" height="3.8302435292486665em" x="50.96153846153846em" y="26.169756470751334em" fill="#aaa"/><rect width="0.9615384615384616em" height="4.7277425314939885em" x="51.92307692307693em" y="25.272257468506012em" fill="#aaa"/><rect width="0.9615384615384616em" height="2.933406092707586em" x="52.88461538461539em" y="27.066593907292415em" fill="#aaa"/><rect width="0.9615384615384616em" height="4.619529314628359em" x="53.84615384615385em" y="25.38047068537164em" fill="#aaa"/><rect width="0.9615384615384616em" height="2.6089921058556578em" x="54.80769230769231em" y="27.39100789414434em" fill="#aaa"/><rect width="0.9615384615384616em" height="6.037423420987549em" x="55.769230769230774em" y="23.96257657901245em" fill="#aaa"/><rect width="0.9615384615384616em" height="2.3468077119542556em" x="56.73076923076923em" y="27.653192288045744em" fill="#aaa"/><rect width="0.9615384615384616em" height="8.801485187278908em" x="57.69230769230769em" y="21.198514812721093em" fill="#aaa"/><rect width="0.9615384615384616em" height="4.6887997866092705em" x="58.65384615384615em" y="25.31120021339073em" fill="#aaa"/><rect width="0.9615384615384616em" height="7.296948560672663em" x="59.61538461538462em" y="22.703051439327336em" fill="#aaa"/><rect width="0.9615384615384616em" height="19.529307880926872em" x="60.57692307692308em" y="10.470692119073128em" fill="#aaa"/><rect width="0.9615384615384616em" height="4.17279975507943em" x="61.53846153846154em" y="25.82720024492057em" fill="#aaa"/><rect width="0.9615384615384616em" height="4.150453496838578em" x="62.5em" y="25.84954650316142em" fill="#aaa"/><rect width="0.9615384615384616em" height="4.424977830895217em" x="63.46153846153846em" y="25.575022169104784em" fill="#aaa"/><rect width="0.9615384615384616em" height="4.303389535035057em" x="64.42307692307692em" y="25.69661046496494em" fill="#aaa"/><rect width="0.9615384615384616em" height="12.562627879818228em" x="65.38461538461539em" y="17.43737212018177em" fill="#aaa"/><rect width="0.9615384615384616em" height="7.834159342800789em" x="66.34615384615385em" y="22.16584065719921em" fill="#aaa"/><rect width="0.9615384615384616em" height="5.774882692280012em" x="67.3076923076923em" y="24.225117307719987em" fill="#aaa"/><rect width="0.9615384615384616em" height="6.6066606850475065em" x="68.26923076923077em" y="23.39333931495249em" fill="#aaa"/><rect width="0.9615384615384616em" height="5.261324129425876em" x="69.23076923076923em" y="24.738675870574124em" fill="#aaa"/><rect width="0.9615384615384616em" height="6.359741033044918em" x="70.1923076923077em" y="23.64025896695508em" fill="#aaa"/><rect width="0.9615384615384616em" height="4.196952834197411em" x="71.15384615384616em" y="25.80304716580259em" fill="#aaa"/><rect width="0.9615384615384616em" height="3.6545250477713616em" x="72.11538461538461em" y="26.34547495222864em" fill="#aaa"/><rect width="0.9615384615384616em" height="7.599085685186157em" x="73.07692307692308em" y="22.400914314813843em" fill="#aaa"/><rect width="0.9615384615384616em" height="5.560795195012423em" x="74.03846153846155em" y="24.439204804987575em" fill="#aaa"/><rect width="0.9615384615384616em" height="5.763878090179887em" x="75em" y="24.236121909820113em" fill="#aaa"/><rect width="0.9615384615384616em" height="10.336190525958376em" x="75.96153846153847em" y="19.663809474041624em" fill="#aaa"/><rect width="0.9615384615384616em" height="30em" x="76.92307692307692em" y="0em" fill="#aaa"/><rect width="0.9615384615384616em" height="10.82967833628603em" x="77.88461538461539em" y="19.17032166371397em" fill="#aaa"/><rect width="0.9615384615384616em" height="13.456083350491337em" x="78.84615384615385em" y="16.543916649508663em" fill="#aaa"/><rect width="0.9615384615384616em" height="13.502006900736452em" x="79.8076923076923em" y="16.497993099263546em" fill="#aaa"/><rect width="0.9615384615384616em" height="8.17755575507335em" x="80.76923076923077em" y="21.82244424492665em" fill="#aaa"/><rect width="0.9615384615384616em" height="10.837166307179887em" x="81.73076923076923em" y="19.162833692820115em" fill="#aaa"/><rect width="0.9615384615384616em" height="7.28029456484532em" x="82.6923076923077em" y="22.71970543515468em" fill="#aaa"/><rect width="0.9615384615384616em" height="7.040857814434947em" x="83.65384615384616em" y="22.959142185565053em" fill="#aaa"/><rect width="0.9615384615384616em" height="6.487211966946399em" x="84.61538461538461em" y="23.512788033053603em" fill="#aaa"/><rect width="0.9615384615384616em" height="11.430039528987384em" x="85.57692307692308em" y="18.569960471012614em" fill="#aaa"/><rect width="0.9615384615384616em" height="9.917761333718312em" x="86.53846153846155em" y="20.08223866628169em" fill="#aaa"/><rect width="0.9615384615384616em" height="9.348831651966647em" x="87.5em" y="20.65116834803335em" fill="#aaa"/><rect width="0.9615384615384616em" height="8.488826919389968em" x="88.46153846153847em" y="21.511173080610032em" fill="#aaa"/><rect width="0.9615384615384616em" height="10.850319204565405em" x="89.42307692307692em" y="19.149680795434595em" fill="#aaa"/><rect width="0.9615384615384616em" height="8.939917560685133em" x="90.38461538461539em" y="21.06008243931487em" fill="#aaa"/><rect width="0.9615384615384616em" height="10.669975031564775em" x="91.34615384615385em" y="19.330024968435225em" fill="#aaa"/><rect width="0.9615384615384616em" height="9.865988345084984em" x="92.3076923076923em" y="20.134011654915014em" fill="#aaa"/><rect width="0.9615384615384616em" height="7.369690488411949em" x="93.26923076923077em" y="22.630309511588052em" fill="#aaa"/><rect width="0.9615384615384616em" height="10.555190225287875em" x="94.23076923076923em" y="19.444809774712127em" fill="#aaa"/><rect width="0.9615384615384616em" height="6.7303934175250415em" x="95.1923076923077em" y="23.269606582474957em" fill="#aaa"/><rect width="0.9615384615384616em" height="8.583794395548995em" x="96.15384615384616em" y="21.416205604451005em" fill="#aaa"/><rect width="0.9615384615384616em" height="7.930585405560558em" x="97.11538461538461em" y="22.069414594439444em" fill="#aaa"/><rect width="0.9615384615384616em" height="8.37866448967303em" x="98.07692307692308em" y="21.621335510326972em" fill="#aaa"/><rect width="0.9615384615384616em" height="9.805882610549762em" x="99.03846153846155em" y="20.194117389450238em" fill="#aaa"/></svg>