<?xml version="1.0" standalone="no"?>
<svg xmlns:xlink="http://www.w3.org/1999/xlink" xmlns="http://www.w3.org/2000/svg" class="topic-graph" style="width: 100em; height: 30em; text-align: center;"><rect width="0.9615384615384616em" height="1.0642199117568423em" x="0em" y="28.935780088243156em" fill="#aaa"/><rect width="0.9615384615384616em" height="4.22402115229914em" x="0.9615384615384616em" y="25.77597884770086em" fill="#aaa"/><rect width="0.9615384615384616em" height="2.1422949617402027em" x="1.9230769230769231em" y="27.857705038259798em" fill="#aaa"/><rect width="0.9615384615384616em" height="1.178803054215915em" x="2.8846153846153846em" y="28.821196945784084em" fill="#aaa"/><rect width="0.9615384615384616em" height="1.483821731878891em" x="3.8461538461538463em" y="28.51617826812111em" fill="#aaa"/><rect width="0.9615384615384616em" height="2.18057279260427em" x="4.8076923076923075em" y="27.81942720739573em" fill="#aaa"/><rect width="0.9615384615384616em" height="3.845903677502063em" x="5.769230769230769em" y="26.154096322497935em" fill="#aaa"/><rect width="0.9615384615384616em" height="2.748534306555102em" x="6.730769230769231em" y="27.2514656934449em" fill="#aaa"/><rect width="0.9615384615384616em" height="1.7396237050584569em" x="7.6923076923076925em" y="28.260376294941544em" fill="#aaa"/><rect width="0.9615384615384616em" height="1.4794700583533784em" x="8.653846153846153em" y="28.520529941646622em" fill="#aaa"/><rect width="0.9615384615384616em" height="6.03652114888003em" x="9.615384615384615em" y="23.96347885111997em" fill="#aaa"/><rect width="0.9615384615384616em" height="7.596969016630303em" x="10.576923076923077em" y="22.403030983369696em" fill="#aaa"/><rect width="0.9615384615384616em" height="2.83880846029926em" x="11.538461538461538em" y="27.16119153970074em" fill="#aaa"/><rect width="0.9615384615384616em" height="3.7084613355556635em" x="12.5em" y="26.291538664444335em" fill="#aaa"/><rect width="0.9615384615384616em" height="4.463600607870575em" x="13.461538461538462em" y="25.536399392129425em" fill="#aaa"/><rect width="0.9615384615384616em" height="2.706451340088318em" x="14.423076923076923em" y="27.293548659911682em" fill="#aaa"/><rect width="0.9615384615384616em" height="1.123609941554844em" x="15.384615384615385em" y="28.876390058445157em" fill="#aaa"/><rect width="0.9615384615384616em" height="1.9039928702496647em" x="16.346153846153847em" y="28.096007129750337em" fill="#aaa"/><rect width="0.9615384615384616em" height="2.1617235296418844em" x="17.307692307692307em" y="27.838276470358117em" fill="#aaa"/><rect width="0.9615384615384616em" height="3.2225230836191745em" x="18.26923076923077em" y="26.777476916380827em" fill="#aaa"/><rect width="0.9615384615384616em" height="1.8869158204314362em" x="19.23076923076923em" y="28.113084179568563em" fill="#aaa"/><rect width="0.9615384615384616em" height="1.3960020775238178em" x="20.192307692307693em" y="28.603997922476182em" fill="#aaa"/><rect width="0.9615384615384616em" height="3.297322984546481em" x="21.153846153846153em" y="26.702677015453517em" fill="#aaa"/><rect width="0.9615384615384616em" height="1.5598756536448926em" x="22.115384615384617em" y="28.44012434635511em" fill="#aaa"/><rect width="0.9615384615384616em" height="1.9735495070339386em" x="23.076923076923077em" y="28.026450492966063em" fill="#aaa"/><rect width="0.9615384615384616em" height="5.389350768849492em" x="24.03846153846154em" y="24.610649231150507em" fill="#aaa"/><rect width="0.9615384615384616em" height="4.125728284001683em" x="25em" y="25.87427171599832em" fill="#aaa"/><rect width="0.9615384615384616em" height="2.684249316245006em" x="25.961538461538463em" y="27.315750683754995em" fill="#aaa"/><rect width="0.9615384615384616em" height="5.174224142136071em" x="26.923076923076923em" y="24.82577585786393em" fill="#aaa"/><rect width="0.9615384615384616em" height="2.7529682197816348em" x="27.884615384615387em" y="27.247031780218364em" fill="#aaa"/><rect width="0.9615384615384616em" height="2.6715397226753113em" x="28.846153846153847em" y="27.328460277324687em" fill="#aaa"/><rect width="0.9615384615384616em" height="2.2418435163980908em" x="29.80769230769231em" y="27.75815648360191em" fill="#aaa"/><rect width="0.9615384615384616em" height="2.405058770863426em" x="30.76923076923077em" y="27.594941229136573em" fill="#aaa"/><rect width="0.9615384615384616em" height="2.0954553125008153em" x="31.73076923076923em" y="27.904544687499186em" fill="#aaa"/><rect width="0.9615384615384616em" height="3.165143650147707em" x="32.69230769230769em" y="26.834856349852295em" fill="#aaa"/><rect width="0.9615384615384616em" height="2.5885385025279em" x="33.65384615384615em" y="27.4114614974721em" fill="#aaa"/><rect width="0.9615384615384616em" height="2.730441616524032em" x="34.61538461538461em" y="27.269558383475967em" fill="#aaa"/><rect width="0.9615384615384616em" height="3.112340949089946em" x="35.57692307692308em" y="26.887659050910052em" fill="#aaa"/><rect width="0.9615384615384616em" height="4.534885149812381em" x="36.53846153846154em" y="25.465114850187618em" fill="#aaa"/><rect width="0.9615384615384616em" height="2.4031493257046757em" x="37.5em" y="27.596850674295325em" fill="#aaa"/><rect width="0.9615384615384616em" height="2.8505636278052786em" x="38.46153846153846em" y="27.14943637219472em" fill="#aaa"/><rect width="0.9615384615384616em" height="5.804572730677474em" x="39.42307692307693em" y="24.195427269322526em" fill="#aaa"/><rect width="0.9615384615384616em" height="3.1173141812438323em" x="40.38461538461539em" y="26.88268581875617em" fill="#aaa"/><rect width="0.9615384615384616em" height="2.4889992992804464em" x="41.34615384615385em" y="27.511000700719553em" fill="#aaa"/><rect width="0.9615384615384616em" height="3.639003721650428em" x="42.30769230769231em" y="26.36099627834957em" fill="#aaa"/><rect width="0.9615384615384616em" height="3.84607383589821em" x="43.269230769230774em" y="26.15392616410179em" fill="#aaa"/><rect width="0.9615384615384616em" height="3.3306013986290446em" x="44.23076923076923em" y="26.669398601370954em" fill="#aaa"/><rect width="0.9615384615384616em" height="2.4984753962829784em" x="45.19230769230769em" y="27.501524603717023em" fill="#aaa"/><rect width="0.9615384615384616em" height="2.6281310008896512em" x="46.15384615384615em" y="27.371868999110347em" fill="#aaa"/><rect width="0.9615384615384616em" height="4.100989010279024em" x="47.11538461538461em" y="25.899010989720978em" fill="#aaa"/><rect width="0.9615384615384616em" height="4.3833255312910975em" x="48.07692307692308em" y="25.6166744687089em" fill="#aaa"/><rect width="0.9615384615384616em" height="3.8124891412095163em" x="49.03846153846154em" y="26.187510858790482em" fill="#aaa"/><rect width="0.9615384615384616em" height="4.0271842356867875em" x="50em" y="25.97281576431321em" fill="#aaa"/><rect width="0.9615384615384616em" height="3.8624087258710866em" x="50.96153846153846em" y="26.137591274128912em" fill="#aaa"/><rect width="0.9615384615384616em" height="2.5621492173313505em" x="51.92307692307693em" y="27.43785078266865em" fill="#aaa"/><rect width="0.9615384615384616em" height="2.7025281944030577em" x="52.88461538461539em" y="27.297471805596942em" fill="#aaa"/><rect width="0.9615384615384616em" height="2.7859159587155844em" x="53.84615384615385em" y="27.214084041284416em" fill="#aaa"/><rect width="0.9615384615384616em" height="2.7498480721484535em" x="54.80769230769231em" y="27.250151927851547em" fill="#aaa"/><rect width="0.9615384615384616em" height="3.9029013391824634em" x="55.769230769230774em" y="26.097098660817537em" fill="#aaa"/><rect width="0.9615384615384616em" height="4.005357125950159em" x="56.73076923076923em" y="25.99464287404984em" fill="#aaa"/><rect width="0.9615384615384616em" height="1.8056096073766463em" x="57.69230769230769em" y="28.194390392623355em" fill="#aaa"/><rect width="0.9615384615384616em" height="2.553940593975697em" x="58.65384615384615em" y="27.446059406024304em" fill="#aaa"/><rect width="0.9615384615384616em" height="2.1443020807239903em" x="59.61538461538462em" y="27.85569791927601em" fill="#aaa"/><rect width="0.9615384615384616em" height="4.476786676484183em" x="60.57692307692308em" y="25.52321332351582em" fill="#aaa"/><rect width="0.9615384615384616em" height="5.332603726811883em" x="61.53846153846154em" y="24.667396273188118em" fill="#aaa"/><rect width="0.9615384615384616em" height="8.09584357243201em" x="62.5em" y="21.90415642756799em" fill="#aaa"/><rect width="0.9615384615384616em" height="6.998289572806513em" x="63.46153846153846em" y="23.001710427193487em" fill="#aaa"/><rect width="0.9615384615384616em" height="9.876948909450034em" x="64.42307692307692em" y="20.123051090549964em" fill="#aaa"/><rect width="0.9615384615384616em" height="6.5417742264975205em" x="65.38461538461539em" y="23.45822577350248em" fill="#aaa"/><rect width="0.9615384615384616em" height="7.160520627063629em" x="66.34615384615385em" y="22.83947937293637em" fill="#aaa"/><rect width="0.9615384615384616em" height="5.404580044680963em" x="67.3076923076923em" y="24.595419955319038em" fill="#aaa"/><rect width="0.9615384615384616em" height="7.729234544392845em" x="68.26923076923077em" y="22.270765455607155em" fill="#aaa"/><rect width="0.9615384615384616em" height="4.115320889199673em" x="69.23076923076923em" y="25.884679110800327em" fill="#aaa"/><rect width="0.9615384615384616em" height="5.2992563422367365em" x="70.1923076923077em" y="24.70074365776326em" fill="#aaa"/><rect width="0.9615384615384616em" height="4.471892430183685em" x="71.15384615384616em" y="25.528107569816314em" fill="#aaa"/><rect width="0.9615384615384616em" height="9.136301789948348em" x="72.11538461538461em" y="20.863698210051652em" fill="#aaa"/><rect width="0.9615384615384616em" height="20.69651532366128em" x="73.07692307692308em" y="9.30348467633872em" fill="#aaa"/><rect width="0.9615384615384616em" height="21.27998858410697em" x="74.03846153846155em" y="8.72001141589303em" fill="#aaa"/><rect width="0.9615384615384616em" height="18.201452118855254em" x="75em" y="11.798547881144746em" fill="#aaa"/><rect width="0.9615384615384616em" height="20.388633628722236em" x="75.96153846153847em" y="9.611366371277764em" fill="#aaa"/><rect width="0.9615384615384616em" height="13.7937124201861em" x="76.92307692307692em" y="16.2062875798139em" fill="#aaa"/><rect width="0.9615384615384616em" height="7.632059018710133em" x="77.88461538461539em" y="22.367940981289866em" fill="#aaa"/><rect width="0.9615384615384616em" height="5.5585370428464325em" x="78.84615384615385em" y="24.44146295715357em" fill="#aaa"/><rect width="0.9615384615384616em" height="5.9695015573074555em" x="79.8076923076923em" y="24.030498442692544em" fill="#aaa"/><rect width="0.9615384615384616em" height="4.627880804467148em" x="80.76923076923077em" y="25.372119195532854em" fill="#aaa"/><rect width="0.9615384615384616em" height="6.051233926229304em" x="81.73076923076923em" y="23.948766073770695em" fill="#aaa"/><rect width="0.9615384615384616em" height="3.6979671525176587em" x="82.6923076923077em" y="26.30203284748234em" fill="#aaa"/><rect width="0.9615384615384616em" height="3.881364241738723em" x="83.65384615384616em" y="26.118635758261277em" fill="#aaa"/><rect width="0.9615384615384616em" height="11.872044164077673em" x="84.61538461538461em" y="18.12795583592233em" fill="#aaa"/><rect width="0.9615384615384616em" height="5.838355855433761em" x="85.57692307692308em" y="24.16164414456624em" fill="#aaa"/><rect width="0.9615384615384616em" height="5.175024561924854em" x="86.53846153846155em" y="24.824975438075146em" fill="#aaa"/><rect width="0.9615384615384616em" height="5.669700718029655em" x="87.5em" y="24.330299281970344em" fill="#aaa"/><rect width="0.9615384615384616em" height="5.578418643472863em" x="88.46153846153847em" y="24.42158135652714em" fill="#aaa"/><rect width="0.9615384615384616em" height="6.311408849952552em" x="89.42307692307692em" y="23.688591150047447em" fill="#aaa"/><rect width="0.9615384615384616em" height="5.652790288720879em" x="90.38461538461539em" y="24.34720971127912em" fill="#aaa"/><rect width="0.9615384615384616em" height="6.0637229262550765em" x="91.34615384615385em" y="23.936277073744925em" fill="#aaa"/><rect width="0.9615384615384616em" height="6.368959355149065em" x="92.3076923076923em" y="23.631040644850934em" fill="#aaa"/><rect width="0.9615384615384616em" height="9.156558068858182em" x="93.26923076923077em" y="20.843441931141818em" fill="#aaa"/><rect width="0.9615384615384616em" height="14.270958375657417em" x="94.23076923076923em" y="15.729041624342583em" fill="#aaa"/><rect width="0.9615384615384616em" height="15.59781022422601em" x="95.1923076923077em" y="14.40218977577399em" fill="#aaa"/><rect width="0.9615384615384616em" height="13.794848319964027em" x="96.15384615384616em" y="16.205151680035975em" fill="#aaa"/><rect width="0.9615384615384616em" height="25.699760014220868em" x="97.11538461538461em" y="4.3002399857791325em" fill="#aaa"/><rect width="0.9615384615384616em" height="29.594380222389358em" x="98.07692307692308em" y="0.4056197776106423em" fill="#aaa"/><rect width="0.9615384615384616em" height="30em" x="99.03846153846155em" y="0em" fill="#aaa"/></svg>