<?xml version="1.0" standalone="no"?>
<svg xmlns:xlink="http://www.w3.org/1999/xlink" xmlns="http://www.w3.org/2000/svg" class="topic-graph" style="width: 100em; height: 30em; text-align: center;"><rect width="0.9615384615384616em" height="29.97100746562383em" x="0em" y="0.028992534376168777em" fill="#aaa"/><rect width="0.9615384615384616em" height="6.3372256500495805em" x="0.9615384615384616em" y="23.662774349950418em" fill="#aaa"/><rect width="0.9615384615384616em" height="16.95952907624811em" x="1.9230769230769231em" y="13.04047092375189em" fill="#aaa"/><rect width="0.9615384615384616em" height="22.895388720001232em" x="2.8846153846153846em" y="7.1046112799987675em" fill="#aaa"/><rect width="0.9615384615384616em" height="17.30534410045639em" x="3.8461538461538463em" y="12.694655899543609em" fill="#aaa"/><rect width="0.9615384615384616em" height="7.93801888181383em" x="4.8076923076923075em" y="22.061981118186168em" fill="#aaa"/><rect width="0.9615384615384616em" height="6.838418182206883em" x="5.769230769230769em" y="23.161581817793117em" fill="#aaa"/><rect width="0.9615384615384616em" height="26.53085928551151em" x="6.730769230769231em" y="3.469140714488489em" fill="#aaa"/><rect width="0.9615384615384616em" height="4.178677990468272em" x="7.6923076923076925em" y="25.821322009531727em" fill="#aaa"/><rect width="0.9615384615384616em" height="4.575172422766019em" x="8.653846153846153em" y="25.42482757723398em" fill="#aaa"/><rect width="0.9615384615384616em" height="16.718529109971428em" x="9.615384615384615em" y="13.281470890028572em" fill="#aaa"/><rect width="0.9615384615384616em" height="29.8127157318763em" x="10.576923076923077em" y="0.18728426812370103em" fill="#aaa"/><rect width="0.9615384615384616em" height="9.9249258354624em" x="11.538461538461538em" y="20.0750741645376em" fill="#aaa"/><rect width="0.9615384615384616em" height="8.509709796458992em" x="12.5em" y="21.490290203541008em" fill="#aaa"/><rect width="0.9615384615384616em" height="1.8011248979758658em" x="13.461538461538462em" y="28.198875102024132em" fill="#aaa"/><rect width="0.9615384615384616em" height="4.108368120096642em" x="14.423076923076923em" y="25.891631879903358em" fill="#aaa"/><rect width="0.9615384615384616em" height="8.021139704509713em" x="15.384615384615385em" y="21.978860295490286em" fill="#aaa"/><rect width="0.9615384615384616em" height="10.133440450431962em" x="16.346153846153847em" y="19.866559549568038em" fill="#aaa"/><rect width="0.9615384615384616em" height="4.159446985151583em" x="17.307692307692307em" y="25.840553014848417em" fill="#aaa"/><rect width="0.9615384615384616em" height="8.144884999468317em" x="18.26923076923077em" y="21.855115000531683em" fill="#aaa"/><rect width="0.9615384615384616em" height="3.0851179076422em" x="19.23076923076923em" y="26.9148820923578em" fill="#aaa"/><rect width="0.9615384615384616em" height="1.4550952393617784em" x="20.192307692307693em" y="28.54490476063822em" fill="#aaa"/><rect width="0.9615384615384616em" height="3.765585472368795em" x="21.153846153846153em" y="26.234414527631206em" fill="#aaa"/><rect width="0.9615384615384616em" height="6.77512922497861em" x="22.115384615384617em" y="23.22487077502139em" fill="#aaa"/><rect width="0.9615384615384616em" height="11.890287661850866em" x="23.076923076923077em" y="18.109712338149134em" fill="#aaa"/><rect width="0.9615384615384616em" height="14.625043277818547em" x="24.03846153846154em" y="15.374956722181453em" fill="#aaa"/><rect width="0.9615384615384616em" height="9.745743940515226em" x="25em" y="20.254256059484774em" fill="#aaa"/><rect width="0.9615384615384616em" height="10.96660531223371em" x="25.961538461538463em" y="19.03339468776629em" fill="#aaa"/><rect width="0.9615384615384616em" height="3.544437819080852em" x="26.923076923076923em" y="26.45556218091915em" fill="#aaa"/><rect width="0.9615384615384616em" height="3.7190425871563355em" x="27.884615384615387em" y="26.280957412843666em" fill="#aaa"/><rect width="0.9615384615384616em" height="11.106399089337321em" x="28.846153846153847em" y="18.893600910662677em" fill="#aaa"/><rect width="0.9615384615384616em" height="5.31591783681235em" x="29.80769230769231em" y="24.68408216318765em" fill="#aaa"/><rect width="0.9615384615384616em" height="3.320490255085561em" x="30.76923076923077em" y="26.67950974491444em" fill="#aaa"/><rect width="0.9615384615384616em" height="2.670526278088497em" x="31.73076923076923em" y="27.329473721911505em" fill="#aaa"/><rect width="0.9615384615384616em" height="5.749391049926194em" x="32.69230769230769em" y="24.250608950073804em" fill="#aaa"/><rect width="0.9615384615384616em" height="9.730857903451897em" x="33.65384615384615em" y="20.2691420965481em" fill="#aaa"/><rect width="0.9615384615384616em" height="11.714058536796907em" x="34.61538461538461em" y="18.285941463203095em" fill="#aaa"/><rect width="0.9615384615384616em" height="13.6741379388675em" x="35.57692307692308em" y="16.3258620611325em" fill="#aaa"/><rect width="0.9615384615384616em" height="6.830847590460234em" x="36.53846153846154em" y="23.169152409539766em" fill="#aaa"/><rect width="0.9615384615384616em" height="1.9066476804638661em" x="37.5em" y="28.093352319536134em" fill="#aaa"/><rect width="0.9615384615384616em" height="6.468686971309574em" x="38.46153846153846em" y="23.531313028690427em" fill="#aaa"/><rect width="0.9615384615384616em" height="5.652688696233849em" x="39.42307692307693em" y="24.34731130376615em" fill="#aaa"/><rect width="0.9615384615384616em" height="6.876443083372392em" x="40.38461538461539em" y="23.123556916627606em" fill="#aaa"/><rect width="0.9615384615384616em" height="8.616227492446292em" x="41.34615384615385em" y="21.383772507553708em" fill="#aaa"/><rect width="0.9615384615384616em" height="29.2847784647144em" x="42.30769230769231em" y="0.7152215352856004em" fill="#aaa"/><rect width="0.9615384615384616em" height="9.093185582259643em" x="43.269230769230774em" y="20.906814417740357em" fill="#aaa"/><rect width="0.9615384615384616em" height="15.94634718453012em" x="44.23076923076923em" y="14.05365281546988em" fill="#aaa"/><rect width="0.9615384615384616em" height="11.963066697347987em" x="45.19230769230769em" y="18.036933302652013em" fill="#aaa"/><rect width="0.9615384615384616em" height="4.777949239785508em" x="46.15384615384615em" y="25.222050760214493em" fill="#aaa"/><rect width="0.9615384615384616em" height="11.210069283014768em" x="47.11538461538461em" y="18.789930716985232em" fill="#aaa"/><rect width="0.9615384615384616em" height="13.179278056443843em" x="48.07692307692308em" y="16.82072194355616em" fill="#aaa"/><rect width="0.9615384615384616em" height="21.406148005524077em" x="49.03846153846154em" y="8.593851994475923em" fill="#aaa"/><rect width="0.9615384615384616em" height="26.202698054680912em" x="50em" y="3.797301945319088em" fill="#aaa"/><rect width="0.9615384615384616em" height="21.91790880818584em" x="50.96153846153846em" y="8.082091191814161em" fill="#aaa"/><rect width="0.9615384615384616em" height="23.33409837946516em" x="51.92307692307693em" y="6.665901620534839em" fill="#aaa"/><rect width="0.9615384615384616em" height="22.927496914746392em" x="52.88461538461539em" y="7.072503085253608em" fill="#aaa"/><rect width="0.9615384615384616em" height="30em" x="53.84615384615385em" y="0em" fill="#aaa"/><rect width="0.9615384615384616em" height="21.995084190508994em" x="54.80769230769231em" y="8.004915809491006em" fill="#aaa"/><rect width="0.9615384615384616em" height="21.83672402244139em" x="55.769230769230774em" y="8.163275977558609em" fill="#aaa"/><rect width="0.9615384615384616em" height="19.63895230196322em" x="56.73076923076923em" y="10.361047698036781em" fill="#aaa"/><rect width="0.9615384615384616em" height="18.926477918927322em" x="57.69230769230769em" y="11.073522081072678em" fill="#aaa"/><rect width="0.9615384615384616em" height="13.78657150676999em" x="58.65384615384615em" y="16.213428493230012em" fill="#aaa"/><rect width="0.9615384615384616em" height="19.659272088467937em" x="59.61538461538462em" y="10.340727911532063em" fill="#aaa"/><rect width="0.9615384615384616em" height="20.372794812043374em" x="60.57692307692308em" y="9.627205187956626em" fill="#aaa"/><rect width="0.9615384615384616em" height="11.386711340092901em" x="61.53846153846154em" y="18.6132886599071em" fill="#aaa"/><rect width="0.9615384615384616em" height="18.54057353081208em" x="62.5em" y="11.459426469187921em" fill="#aaa"/><rect width="0.9615384615384616em" height="22.155709674403614em" x="63.46153846153846em" y="7.844290325596386em" fill="#aaa"/><rect width="0.9615384615384616em" height="20.317906658465112em" x="64.42307692307692em" y="9.682093341534888em" fill="#aaa"/><rect width="0.9615384615384616em" height="9.44790143712126em" x="65.38461538461539em" y="20.55209856287874em" fill="#aaa"/><rect width="0.9615384615384616em" height="23.250083075514784em" x="66.34615384615385em" y="6.749916924485216em" fill="#aaa"/><rect width="0.9615384615384616em" height="17.829326000150047em" x="67.3076923076923em" y="12.170673999849953em" fill="#aaa"/><rect width="0.9615384615384616em" height="16.428523222641395em" x="68.26923076923077em" y="13.571476777358605em" fill="#aaa"/><rect width="0.9615384615384616em" height="20.147532732396865em" x="69.23076923076923em" y="9.852467267603135em" fill="#aaa"/><rect width="0.9615384615384616em" height="22.741494732805045em" x="70.1923076923077em" y="7.2585052671949555em" fill="#aaa"/><rect width="0.9615384615384616em" height="25.25256957728283em" x="71.15384615384616em" y="4.747430422717169em" fill="#aaa"/><rect width="0.9615384615384616em" height="16.675030336337763em" x="72.11538461538461em" y="13.324969663662237em" fill="#aaa"/><rect width="0.9615384615384616em" height="19.399362149240808em" x="73.07692307692308em" y="10.600637850759192em" fill="#aaa"/><rect width="0.9615384615384616em" height="18.619186371443977em" x="74.03846153846155em" y="11.380813628556023em" fill="#aaa"/><rect width="0.9615384615384616em" height="23.77287177436em" x="75em" y="6.227128225640001em" fill="#aaa"/><rect width="0.9615384615384616em" height="16.932382844383227em" x="75.96153846153847em" y="13.067617155616773em" fill="#aaa"/><rect width="0.9615384615384616em" height="18.080539191899426em" x="76.92307692307692em" y="11.919460808100574em" fill="#aaa"/><rect width="0.9615384615384616em" height="18.63158784243977em" x="77.88461538461539em" y="11.368412157560229em" fill="#aaa"/><rect width="0.9615384615384616em" height="19.38439348155886em" x="78.84615384615385em" y="10.61560651844114em" fill="#aaa"/><rect width="0.9615384615384616em" height="17.5596543005203em" x="79.8076923076923em" y="12.4403456994797em" fill="#aaa"/><rect width="0.9615384615384616em" height="15.833077785937203em" x="80.76923076923077em" y="14.166922214062797em" fill="#aaa"/><rect width="0.9615384615384616em" height="13.584370000459499em" x="81.73076923076923em" y="16.4156299995405em" fill="#aaa"/><rect width="0.9615384615384616em" height="13.942727962552436em" x="82.6923076923077em" y="16.057272037447564em" fill="#aaa"/><rect width="0.9615384615384616em" height="18.436083241497922em" x="83.65384615384616em" y="11.563916758502078em" fill="#aaa"/><rect width="0.9615384615384616em" height="13.676239629629817em" x="84.61538461538461em" y="16.32376037037018em" fill="#aaa"/><rect width="0.9615384615384616em" height="12.331185999758116em" x="85.57692307692308em" y="17.668814000241884em" fill="#aaa"/><rect width="0.9615384615384616em" height="19.42094111839494em" x="86.53846153846155em" y="10.57905888160506em" fill="#aaa"/><rect width="0.9615384615384616em" height="16.348898052401825em" x="87.5em" y="13.651101947598175em" fill="#aaa"/><rect width="0.9615384615384616em" height="21.47541669497723em" x="88.46153846153847em" y="8.52458330502277em" fill="#aaa"/><rect width="0.9615384615384616em" height="14.22963421017859em" x="89.42307692307692em" y="15.77036578982141em" fill="#aaa"/><rect width="0.9615384615384616em" height="18.99521418426639em" x="90.38461538461539em" y="11.004785815733609em" fill="#aaa"/><rect width="0.9615384615384616em" height="14.93236816326541em" x="91.34615384615385em" y="15.06763183673459em" fill="#aaa"/><rect width="0.9615384615384616em" height="14.437339650097964em" x="92.3076923076923em" y="15.562660349902036em" fill="#aaa"/><rect width="0.9615384615384616em" height="14.962827246542853em" x="93.26923076923077em" y="15.037172753457147em" fill="#aaa"/><rect width="0.9615384615384616em" height="15.40256400074812em" x="94.23076923076923em" y="14.59743599925188em" fill="#aaa"/><rect width="0.9615384615384616em" height="23.52079810741364em" x="95.1923076923077em" y="6.47920189258636em" fill="#aaa"/><rect width="0.9615384615384616em" height="16.087125408207704em" x="96.15384615384616em" y="13.912874591792296em" fill="#aaa"/><rect width="0.9615384615384616em" height="12.552733930938452em" x="97.11538461538461em" y="17.44726606906155em" fill="#aaa"/><rect width="0.9615384615384616em" height="11.921971054429537em" x="98.07692307692308em" y="18.078028945570463em" fill="#aaa"/><rect width="0.9615384615384616em" height="13.373811215189983em" x="99.03846153846155em" y="16.62618878481002em" fill="#aaa"/></svg>