<?xml version="1.0" standalone="no"?>
<svg xmlns:xlink="http://www.w3.org/1999/xlink" xmlns="http://www.w3.org/2000/svg" class="topic-graph" style="width: 10vw; height: 3em; text-align: center;"><rect width="0.09615384615384616em" height="0.2949034293082433em" x="0vw" y="2.7050965706917567em" fill="#aaa"/><rect width="0.09615384615384616em" height="0.26470840389885253em" x="0.09615384615384616vw" y="2.7352915961011472em" fill="#aaa"/><rect width="0.09615384615384616em" height="0.25288105246857884em" x="0.19230769230769232vw" y="2.7471189475314213em" fill="#aaa"/><rect width="0.09615384615384616em" height="0.2583256440392778em" x="0.2884615384615385vw" y="2.741674355960722em" fill="#aaa"/><rect width="0.09615384615384616em" height="0.5582027622926309em" x="0.38461538461538464vw" y="2.441797237707369em" fill="#aaa"/><rect width="0.09615384615384616em" height="0.48534625008536453em" x="0.4807692307692308vw" y="2.5146537499146353em" fill="#aaa"/><rect width="0.09615384615384616em" height="0.5215841747134251em" x="0.576923076923077vw" y="2.478415825286575em" fill="#aaa"/><rect width="0.09615384615384616em" height="0.22217120494239595em" x="0.6730769230769231vw" y="2.777828795057604em" fill="#aaa"/><rect width="0.09615384615384616em" height="0.3025613456054881em" x="0.7692307692307693vw" y="2.697438654394512em" fill="#aaa"/><rect width="0.09615384615384616em" height="0.6618421581670944em" x="0.8653846153846154vw" y="2.3381578418329054em" fill="#aaa"/><rect width="0.09615384615384616em" height="0.29721764092757724em" x="0.9615384615384616vw" y="2.702782359072423em" fill="#aaa"/><rect width="0.09615384615384616em" height="0.7257650418076023em" x="1.0576923076923077vw" y="2.2742349581923977em" fill="#aaa"/><rect width="0.09615384615384616em" height="0.4200541507199669em" x="1.153846153846154vw" y="2.5799458492800333em" fill="#aaa"/><rect width="0.09615384615384616em" height="1.1500458014861041em" x="1.25vw" y="1.8499541985138959em" fill="#aaa"/><rect width="0.09615384615384616em" height="0.8571174905982436em" x="1.3461538461538463vw" y="2.1428825094017565em" fill="#aaa"/><rect width="0.09615384615384616em" height="0.8632861116405957em" x="1.4423076923076923vw" y="2.136713888359404em" fill="#aaa"/><rect width="0.09615384615384616em" height="0.27843583464275634em" x="1.5384615384615385vw" y="2.7215641653572438em" fill="#aaa"/><rect width="0.09615384615384616em" height="1.4588367498454131em" x="1.6346153846153848vw" y="1.5411632501545869em" fill="#aaa"/><rect width="0.09615384615384616em" height="0.565026408695424em" x="1.7307692307692308vw" y="2.4349735913045762em" fill="#aaa"/><rect width="0.09615384615384616em" height="0.9096398152543588em" x="1.826923076923077vw" y="2.0903601847456414em" fill="#aaa"/><rect width="0.09615384615384616em" height="1.360014576856498em" x="1.9230769230769231vw" y="1.639985423143502em" fill="#aaa"/><rect width="0.09615384615384616em" height="1.1737943650630498em" x="2.019230769230769vw" y="1.8262056349369502em" fill="#aaa"/><rect width="0.09615384615384616em" height="1.2445896111406491em" x="2.1153846153846154vw" y="1.7554103888593509em" fill="#aaa"/><rect width="0.09615384615384616em" height="1.279629325844818em" x="2.2115384615384617vw" y="1.720370674155182em" fill="#aaa"/><rect width="0.09615384615384616em" height="0.8300949322373523em" x="2.307692307692308vw" y="2.169905067762648em" fill="#aaa"/><rect width="0.09615384615384616em" height="1.0365491735135943em" x="2.403846153846154vw" y="1.9634508264864057em" fill="#aaa"/><rect width="0.09615384615384616em" height="1.0931956606474267em" x="2.5vw" y="1.9068043393525733em" fill="#aaa"/><rect width="0.09615384615384616em" height="1.176105110057619em" x="2.5961538461538463vw" y="1.823894889942381em" fill="#aaa"/><rect width="0.09615384615384616em" height="3em" x="2.6923076923076925vw" y="0em" fill="#aaa"/><rect width="0.09615384615384616em" height="1.2376548346163228em" x="2.7884615384615388vw" y="1.7623451653836772em" fill="#aaa"/><rect width="0.09615384615384616em" height="1.4136522468836807em" x="2.8846153846153846vw" y="1.5863477531163193em" fill="#aaa"/><rect width="0.09615384615384616em" height="0.8588714072272168em" x="2.980769230769231vw" y="2.141128592772783em" fill="#aaa"/><rect width="0.09615384615384616em" height="1.4972479193455928em" x="3.076923076923077vw" y="1.5027520806544072em" fill="#aaa"/><rect width="0.09615384615384616em" height="0.7948708725223356em" x="3.1730769230769234vw" y="2.2051291274776643em" fill="#aaa"/><rect width="0.09615384615384616em" height="1.148104487890956em" x="3.2692307692307696vw" y="1.851895512109044em" fill="#aaa"/><rect width="0.09615384615384616em" height="0.6265202268571023em" x="3.3653846153846154vw" y="2.373479773142898em" fill="#aaa"/><rect width="0.09615384615384616em" height="0.7741669804580562em" x="3.4615384615384617vw" y="2.225833019541944em" fill="#aaa"/><rect width="0.09615384615384616em" height="0.9295798759837511em" x="3.557692307692308vw" y="2.0704201240162488em" fill="#aaa"/><rect width="0.09615384615384616em" height="0.8724691843829881em" x="3.653846153846154vw" y="2.127530815617012em" fill="#aaa"/><rect width="0.09615384615384616em" height="1.507146611690918em" x="3.75vw" y="1.492853388309082em" fill="#aaa"/><rect width="0.09615384615384616em" height="0.7871506063201599em" x="3.8461538461538463vw" y="2.21284939367984em" fill="#aaa"/><rect width="0.09615384615384616em" height="0.7588016266511399em" x="3.9423076923076925vw" y="2.24119837334886em" fill="#aaa"/><rect width="0.09615384615384616em" height="0.9847953857194336em" x="4.038461538461538vw" y="2.0152046142805666em" fill="#aaa"/><rect width="0.09615384615384616em" height="1.1738798862493771em" x="4.134615384615385vw" y="1.8261201137506229em" fill="#aaa"/><rect width="0.09615384615384616em" height="0.934015228171274em" x="4.230769230769231vw" y="2.065984771828726em" fill="#aaa"/><rect width="0.09615384615384616em" height="1.2345102252035214em" x="4.3269230769230775vw" y="1.7654897747964786em" fill="#aaa"/><rect width="0.09615384615384616em" height="0.8802233533403647em" x="4.423076923076923vw" y="2.119776646659635em" fill="#aaa"/><rect width="0.09615384615384616em" height="1.0066004158267803em" x="4.519230769230769vw" y="1.9933995841732197em" fill="#aaa"/><rect width="0.09615384615384616em" height="1.0815706361342174em" x="4.615384615384616vw" y="1.9184293638657826em" fill="#aaa"/><rect width="0.09615384615384616em" height="0.5759680797487859em" x="4.711538461538462vw" y="2.424031920251214em" fill="#aaa"/><rect width="0.09615384615384616em" height="0.698301184450056em" x="4.807692307692308vw" y="2.301698815549944em" fill="#aaa"/><rect width="0.09615384615384616em" height="0.4928437654351295em" x="4.903846153846154vw" y="2.5071562345648704em" fill="#aaa"/><rect width="0.09615384615384616em" height="0.690174421482046em" x="5vw" y="2.309825578517954em" fill="#aaa"/><rect width="0.09615384615384616em" height="0.6205739748813717em" x="5.096153846153847vw" y="2.3794260251186286em" fill="#aaa"/><rect width="0.09615384615384616em" height="0.546732893665762em" x="5.1923076923076925vw" y="2.4532671063342377em" fill="#aaa"/><rect width="0.09615384615384616em" height="0.7464882201850597em" x="5.288461538461538vw" y="2.25351177981494em" fill="#aaa"/><rect width="0.09615384615384616em" height="0.6699512589984072em" x="5.384615384615385vw" y="2.3300487410015926em" fill="#aaa"/><rect width="0.09615384615384616em" height="0.8117307605892727em" x="5.480769230769231vw" y="2.1882692394107273em" fill="#aaa"/><rect width="0.09615384615384616em" height="0.6537930451142819em" x="5.5769230769230775vw" y="2.346206954885718em" fill="#aaa"/><rect width="0.09615384615384616em" height="0.6264333549669419em" x="5.673076923076923vw" y="2.3735666450330584em" fill="#aaa"/><rect width="0.09615384615384616em" height="0.6801768276452906em" x="5.769230769230769vw" y="2.3198231723547096em" fill="#aaa"/><rect width="0.09615384615384616em" height="0.4404698091631555em" x="5.865384615384616vw" y="2.5595301908368446em" fill="#aaa"/><rect width="0.09615384615384616em" height="0.630878142747231em" x="5.961538461538462vw" y="2.369121857252769em" fill="#aaa"/><rect width="0.09615384615384616em" height="0.46340934125264244em" x="6.057692307692308vw" y="2.5365906587473575em" fill="#aaa"/><rect width="0.09615384615384616em" height="0.7177568905994802em" x="6.153846153846154vw" y="2.28224310940052em" fill="#aaa"/><rect width="0.09615384615384616em" height="0.5884769426748775em" x="6.25vw" y="2.4115230573251223em" fill="#aaa"/><rect width="0.09615384615384616em" height="0.6986103448680682em" x="6.346153846153847vw" y="2.3013896551319317em" fill="#aaa"/><rect width="0.09615384615384616em" height="0.6221231992540533em" x="6.4423076923076925vw" y="2.3778768007459465em" fill="#aaa"/><rect width="0.09615384615384616em" height="0.3708267132772736em" x="6.538461538461539vw" y="2.629173286722726em" fill="#aaa"/><rect width="0.09615384615384616em" height="0.5232088151077103em" x="6.634615384615385vw" y="2.4767911848922894em" fill="#aaa"/><rect width="0.09615384615384616em" height="0.6818918085677016em" x="6.730769230769231vw" y="2.3181081914322985em" fill="#aaa"/><rect width="0.09615384615384616em" height="0.5725456390370224em" x="6.8269230769230775vw" y="2.4274543609629777em" fill="#aaa"/><rect width="0.09615384615384616em" height="0.4674640939920336em" x="6.923076923076923vw" y="2.5325359060079666em" fill="#aaa"/><rect width="0.09615384615384616em" height="0.5159247841500199em" x="7.01923076923077vw" y="2.4840752158499804em" fill="#aaa"/><rect width="0.09615384615384616em" height="0.6179030619755586em" x="7.115384615384616vw" y="2.3820969380244414em" fill="#aaa"/><rect width="0.09615384615384616em" height="0.5724062748653627em" x="7.211538461538462vw" y="2.4275937251346376em" fill="#aaa"/><rect width="0.09615384615384616em" height="0.775093533274711em" x="7.307692307692308vw" y="2.224906466725289em" fill="#aaa"/><rect width="0.09615384615384616em" height="0.7436411251366886em" x="7.403846153846154vw" y="2.256358874863311em" fill="#aaa"/><rect width="0.09615384615384616em" height="0.6124357758361777em" x="7.5vw" y="2.3875642241638224em" fill="#aaa"/><rect width="0.09615384615384616em" height="0.7911453132817019em" x="7.596153846153847vw" y="2.208854686718298em" fill="#aaa"/><rect width="0.09615384615384616em" height="0.5441362959697279em" x="7.6923076923076925vw" y="2.455863704030272em" fill="#aaa"/><rect width="0.09615384615384616em" height="0.5497692206077954em" x="7.788461538461539vw" y="2.4502307793922045em" fill="#aaa"/><rect width="0.09615384615384616em" height="0.6030117560585875em" x="7.884615384615385vw" y="2.3969882439414123em" fill="#aaa"/><rect width="0.09615384615384616em" height="0.5024318986540771em" x="7.980769230769231vw" y="2.497568101345923em" fill="#aaa"/><rect width="0.09615384615384616em" height="0.5539214043073114em" x="8.076923076923077vw" y="2.4460785956926885em" fill="#aaa"/><rect width="0.09615384615384616em" height="0.5417705895827498em" x="8.173076923076923vw" y="2.45822941041725em" fill="#aaa"/><rect width="0.09615384615384616em" height="0.5730420505689853em" x="8.26923076923077vw" y="2.4269579494310145em" fill="#aaa"/><rect width="0.09615384615384616em" height="0.6429913018747829em" x="8.365384615384615vw" y="2.357008698125217em" fill="#aaa"/><rect width="0.09615384615384616em" height="0.3998228212939696em" x="8.461538461538462vw" y="2.6001771787060304em" fill="#aaa"/><rect width="0.09615384615384616em" height="0.44311687190868715em" x="8.557692307692308vw" y="2.5568831280913127em" fill="#aaa"/><rect width="0.09615384615384616em" height="0.3917542572511686em" x="8.653846153846155vw" y="2.6082457427488315em" fill="#aaa"/><rect width="0.09615384615384616em" height="0.4136944325537345em" x="8.75vw" y="2.5863055674462654em" fill="#aaa"/><rect width="0.09615384615384616em" height="0.47554733189079357em" x="8.846153846153847vw" y="2.5244526681092063em" fill="#aaa"/><rect width="0.09615384615384616em" height="0.43196586019724525em" x="8.942307692307693vw" y="2.5680341398027546em" fill="#aaa"/><rect width="0.09615384615384616em" height="0.39424454732546915em" x="9.038461538461538vw" y="2.605755452674531em" fill="#aaa"/><rect width="0.09615384615384616em" height="0.37529059428319445em" x="9.134615384615385vw" y="2.6247094057168057em" fill="#aaa"/><rect width="0.09615384615384616em" height="0.40212627745350565em" x="9.230769230769232vw" y="2.5978737225464945em" fill="#aaa"/><rect width="0.09615384615384616em" height="0.4052517454003258em" x="9.326923076923077vw" y="2.5947482545996743em" fill="#aaa"/><rect width="0.09615384615384616em" height="0.4374546631502563em" x="9.423076923076923vw" y="2.5625453368497437em" fill="#aaa"/><rect width="0.09615384615384616em" height="0.3587925742463887em" x="9.51923076923077vw" y="2.641207425753611em" fill="#aaa"/><rect width="0.09615384615384616em" height="0.37337657930371em" x="9.615384615384617vw" y="2.62662342069629em" fill="#aaa"/><rect width="0.09615384615384616em" height="0.366872085535633em" x="9.711538461538462vw" y="2.633127914464367em" fill="#aaa"/><rect width="0.09615384615384616em" height="0.39846506639356016em" x="9.807692307692308vw" y="2.6015349336064397em" fill="#aaa"/><rect width="0.09615384615384616em" height="0.35845188035337394em" x="9.903846153846155vw" y="2.641548119646626em" fill="#aaa"/></svg>