<?xml version="1.0" standalone="no"?>
<svg xmlns:xlink="http://www.w3.org/1999/xlink" xmlns="http://www.w3.org/2000/svg" class="topic-graph" style="width: 100em; height: 30em; text-align: center;"><rect width="0.9615384615384616em" height="11.204206753970078em" x="0em" y="18.795793246029923em" fill="#aaa"/><rect width="0.9615384615384616em" height="6.720561728663245em" x="0.9615384615384616em" y="23.279438271336755em" fill="#aaa"/><rect width="0.9615384615384616em" height="0.8547540862240647em" x="1.9230769230769231em" y="29.145245913775934em" fill="#aaa"/><rect width="0.9615384615384616em" height="3.428929910664772em" x="2.8846153846153846em" y="26.57107008933523em" fill="#aaa"/><rect width="0.9615384615384616em" height="3.9668122696532575em" x="3.8461538461538463em" y="26.033187730346743em" fill="#aaa"/><rect width="0.9615384615384616em" height="1.8716870636492753em" x="4.8076923076923075em" y="28.128312936350724em" fill="#aaa"/><rect width="0.9615384615384616em" height="1.9929860837915323em" x="5.769230769230769em" y="28.007013916208468em" fill="#aaa"/><rect width="0.9615384615384616em" height="7.155803289723176em" x="6.730769230769231em" y="22.844196710276826em" fill="#aaa"/><rect width="0.9615384615384616em" height="3.635631460082838em" x="7.6923076923076925em" y="26.364368539917162em" fill="#aaa"/><rect width="0.9615384615384616em" height="1.509037687892499em" x="8.653846153846153em" y="28.490962312107502em" fill="#aaa"/><rect width="0.9615384615384616em" height="1.3996593405124487em" x="9.615384615384615em" y="28.60034065948755em" fill="#aaa"/><rect width="0.9615384615384616em" height="2.2501489664838217em" x="10.576923076923077em" y="27.74985103351618em" fill="#aaa"/><rect width="0.9615384615384616em" height="4.457367997500106em" x="11.538461538461538em" y="25.542632002499893em" fill="#aaa"/><rect width="0.9615384615384616em" height="1.8125117458381357em" x="12.5em" y="28.187488254161863em" fill="#aaa"/><rect width="0.9615384615384616em" height="0.4844848543472484em" x="13.461538461538462em" y="29.515515145652753em" fill="#aaa"/><rect width="0.9615384615384616em" height="3.134717615076114em" x="14.423076923076923em" y="26.865282384923887em" fill="#aaa"/><rect width="0.9615384615384616em" height="3.1197393163639706em" x="15.384615384615385em" y="26.88026068363603em" fill="#aaa"/><rect width="0.9615384615384616em" height="1.6388154114374944em" x="16.346153846153847em" y="28.361184588562505em" fill="#aaa"/><rect width="0.9615384615384616em" height="2.428721025689533em" x="17.307692307692307em" y="27.571278974310466em" fill="#aaa"/><rect width="0.9615384615384616em" height="7.358582290103877em" x="18.26923076923077em" y="22.641417709896125em" fill="#aaa"/><rect width="0.9615384615384616em" height="1.5697780459611272em" x="19.23076923076923em" y="28.430221954038874em" fill="#aaa"/><rect width="0.9615384615384616em" height="5.287336691311269em" x="20.192307692307693em" y="24.712663308688732em" fill="#aaa"/><rect width="0.9615384615384616em" height="1.6117441679827742em" x="21.153846153846153em" y="28.388255832017226em" fill="#aaa"/><rect width="0.9615384615384616em" height="3.6032248824832647em" x="22.115384615384617em" y="26.396775117516736em" fill="#aaa"/><rect width="0.9615384615384616em" height="2.03519295003999em" x="23.076923076923077em" y="27.964807049960008em" fill="#aaa"/><rect width="0.9615384615384616em" height="6.154128827727796em" x="24.03846153846154em" y="23.845871172272204em" fill="#aaa"/><rect width="0.9615384615384616em" height="7.182597762663493em" x="25em" y="22.81740223733651em" fill="#aaa"/><rect width="0.9615384615384616em" height="7.7132462965598085em" x="25.961538461538463em" y="22.28675370344019em" fill="#aaa"/><rect width="0.9615384615384616em" height="4.340822557259847em" x="26.923076923076923em" y="25.65917744274015em" fill="#aaa"/><rect width="0.9615384615384616em" height="3.80136617563314em" x="27.884615384615387em" y="26.19863382436686em" fill="#aaa"/><rect width="0.9615384615384616em" height="6.83915604095454em" x="28.846153846153847em" y="23.160843959045458em" fill="#aaa"/><rect width="0.9615384615384616em" height="3.620930328037023em" x="29.80769230769231em" y="26.379069671962977em" fill="#aaa"/><rect width="0.9615384615384616em" height="3.8857306963472906em" x="30.76923076923077em" y="26.11426930365271em" fill="#aaa"/><rect width="0.9615384615384616em" height="6.822338963326373em" x="31.73076923076923em" y="23.177661036673626em" fill="#aaa"/><rect width="0.9615384615384616em" height="5.885967885517492em" x="32.69230769230769em" y="24.11403211448251em" fill="#aaa"/><rect width="0.9615384615384616em" height="2.780339168628028em" x="33.65384615384615em" y="27.21966083137197em" fill="#aaa"/><rect width="0.9615384615384616em" height="4.756774957314615em" x="34.61538461538461em" y="25.243225042685385em" fill="#aaa"/><rect width="0.9615384615384616em" height="4.019471277219571em" x="35.57692307692308em" y="25.980528722780427em" fill="#aaa"/><rect width="0.9615384615384616em" height="2.3916448766385585em" x="36.53846153846154em" y="27.60835512336144em" fill="#aaa"/><rect width="0.9615384615384616em" height="5.386166626442984em" x="37.5em" y="24.613833373557014em" fill="#aaa"/><rect width="0.9615384615384616em" height="4.541921803349092em" x="38.46153846153846em" y="25.45807819665091em" fill="#aaa"/><rect width="0.9615384615384616em" height="6.03185908956466em" x="39.42307692307693em" y="23.968140910435338em" fill="#aaa"/><rect width="0.9615384615384616em" height="4.366266951862492em" x="40.38461538461539em" y="25.633733048137508em" fill="#aaa"/><rect width="0.9615384615384616em" height="4.617160136439471em" x="41.34615384615385em" y="25.382839863560527em" fill="#aaa"/><rect width="0.9615384615384616em" height="3.7553281778532948em" x="42.30769230769231em" y="26.244671822146707em" fill="#aaa"/><rect width="0.9615384615384616em" height="6.49961057164123em" x="43.269230769230774em" y="23.50038942835877em" fill="#aaa"/><rect width="0.9615384615384616em" height="2.7960435507112447em" x="44.23076923076923em" y="27.203956449288754em" fill="#aaa"/><rect width="0.9615384615384616em" height="2.053257244860889em" x="45.19230769230769em" y="27.946742755139113em" fill="#aaa"/><rect width="0.9615384615384616em" height="4.104280194427113em" x="46.15384615384615em" y="25.895719805572888em" fill="#aaa"/><rect width="0.9615384615384616em" height="3.771283531275937em" x="47.11538461538461em" y="26.228716468724063em" fill="#aaa"/><rect width="0.9615384615384616em" height="2.5954915626584016em" x="48.07692307692308em" y="27.404508437341597em" fill="#aaa"/><rect width="0.9615384615384616em" height="6.981376895684232em" x="49.03846153846154em" y="23.01862310431577em" fill="#aaa"/><rect width="0.9615384615384616em" height="4.146338036916778em" x="50em" y="25.853661963083223em" fill="#aaa"/><rect width="0.9615384615384616em" height="3.855870193777769em" x="50.96153846153846em" y="26.14412980622223em" fill="#aaa"/><rect width="0.9615384615384616em" height="4.234720168578533em" x="51.92307692307693em" y="25.765279831421466em" fill="#aaa"/><rect width="0.9615384615384616em" height="3.6222811689553045em" x="52.88461538461539em" y="26.377718831044696em" fill="#aaa"/><rect width="0.9615384615384616em" height="6.756857416964108em" x="53.84615384615385em" y="23.24314258303589em" fill="#aaa"/><rect width="0.9615384615384616em" height="4.259628813672707em" x="54.80769230769231em" y="25.740371186327295em" fill="#aaa"/><rect width="0.9615384615384616em" height="3.491436030424849em" x="55.769230769230774em" y="26.50856396957515em" fill="#aaa"/><rect width="0.9615384615384616em" height="3.329608720746235em" x="56.73076923076923em" y="26.670391279253764em" fill="#aaa"/><rect width="0.9615384615384616em" height="6.998890092268832em" x="57.69230769230769em" y="23.00110990773117em" fill="#aaa"/><rect width="0.9615384615384616em" height="3.276682788377808em" x="58.65384615384615em" y="26.72331721162219em" fill="#aaa"/><rect width="0.9615384615384616em" height="4.561136235798213em" x="59.61538461538462em" y="25.438863764201788em" fill="#aaa"/><rect width="0.9615384615384616em" height="2.251303505635509em" x="60.57692307692308em" y="27.74869649436449em" fill="#aaa"/><rect width="0.9615384615384616em" height="3.621258819126121em" x="61.53846153846154em" y="26.37874118087388em" fill="#aaa"/><rect width="0.9615384615384616em" height="5.032050072187842em" x="62.5em" y="24.967949927812157em" fill="#aaa"/><rect width="0.9615384615384616em" height="4.675734113023912em" x="63.46153846153846em" y="25.324265886976086em" fill="#aaa"/><rect width="0.9615384615384616em" height="7.071005648308522em" x="64.42307692307692em" y="22.92899435169148em" fill="#aaa"/><rect width="0.9615384615384616em" height="4.294933411849487em" x="65.38461538461539em" y="25.705066588150512em" fill="#aaa"/><rect width="0.9615384615384616em" height="7.080996613983284em" x="66.34615384615385em" y="22.919003386016715em" fill="#aaa"/><rect width="0.9615384615384616em" height="4.238321859214347em" x="67.3076923076923em" y="25.761678140785655em" fill="#aaa"/><rect width="0.9615384615384616em" height="4.976298558737071em" x="68.26923076923077em" y="25.02370144126293em" fill="#aaa"/><rect width="0.9615384615384616em" height="5.7282726954172425em" x="69.23076923076923em" y="24.271727304582758em" fill="#aaa"/><rect width="0.9615384615384616em" height="3.4833429215828895em" x="70.1923076923077em" y="26.51665707841711em" fill="#aaa"/><rect width="0.9615384615384616em" height="3.149889657943323em" x="71.15384615384616em" y="26.850110342056677em" fill="#aaa"/><rect width="0.9615384615384616em" height="4.625454192856528em" x="72.11538461538461em" y="25.374545807143473em" fill="#aaa"/><rect width="0.9615384615384616em" height="7.209053284368574em" x="73.07692307692308em" y="22.790946715631428em" fill="#aaa"/><rect width="0.9615384615384616em" height="21.777765334076353em" x="74.03846153846155em" y="8.222234665923647em" fill="#aaa"/><rect width="0.9615384615384616em" height="9.719784665575213em" x="75em" y="20.28021533442479em" fill="#aaa"/><rect width="0.9615384615384616em" height="30em" x="75.96153846153847em" y="0em" fill="#aaa"/><rect width="0.9615384615384616em" height="11.557369925480636em" x="76.92307692307692em" y="18.442630074519364em" fill="#aaa"/><rect width="0.9615384615384616em" height="8.839399779616603em" x="77.88461538461539em" y="21.160600220383397em" fill="#aaa"/><rect width="0.9615384615384616em" height="9.790758726717915em" x="78.84615384615385em" y="20.209241273282085em" fill="#aaa"/><rect width="0.9615384615384616em" height="6.957698695200603em" x="79.8076923076923em" y="23.0423013047994em" fill="#aaa"/><rect width="0.9615384615384616em" height="8.929919479667701em" x="80.76923076923077em" y="21.070080520332297em" fill="#aaa"/><rect width="0.9615384615384616em" height="9.762089235454678em" x="81.73076923076923em" y="20.237910764545322em" fill="#aaa"/><rect width="0.9615384615384616em" height="7.016735258913607em" x="82.6923076923077em" y="22.983264741086394em" fill="#aaa"/><rect width="0.9615384615384616em" height="8.657753482792982em" x="83.65384615384616em" y="21.342246517207016em" fill="#aaa"/><rect width="0.9615384615384616em" height="14.329802757972958em" x="84.61538461538461em" y="15.670197242027042em" fill="#aaa"/><rect width="0.9615384615384616em" height="10.940860865515173em" x="85.57692307692308em" y="19.059139134484827em" fill="#aaa"/><rect width="0.9615384615384616em" height="9.257449982288158em" x="86.53846153846155em" y="20.742550017711842em" fill="#aaa"/><rect width="0.9615384615384616em" height="5.589919850095764em" x="87.5em" y="24.410080149904235em" fill="#aaa"/><rect width="0.9615384615384616em" height="4.932962432103167em" x="88.46153846153847em" y="25.067037567896833em" fill="#aaa"/><rect width="0.9615384615384616em" height="5.507875438910848em" x="89.42307692307692em" y="24.492124561089152em" fill="#aaa"/><rect width="0.9615384615384616em" height="7.127073031030636em" x="90.38461538461539em" y="22.872926968969363em" fill="#aaa"/><rect width="0.9615384615384616em" height="4.072582386466837em" x="91.34615384615385em" y="25.927417613533162em" fill="#aaa"/><rect width="0.9615384615384616em" height="8.016023594476337em" x="92.3076923076923em" y="21.983976405523663em" fill="#aaa"/><rect width="0.9615384615384616em" height="6.951764813117885em" x="93.26923076923077em" y="23.048235186882117em" fill="#aaa"/><rect width="0.9615384615384616em" height="7.087336753727626em" x="94.23076923076923em" y="22.912663246272373em" fill="#aaa"/><rect width="0.9615384615384616em" height="8.83821585653133em" x="95.1923076923077em" y="21.161784143468672em" fill="#aaa"/><rect width="0.9615384615384616em" height="7.197342784993475em" x="96.15384615384616em" y="22.802657215006526em" fill="#aaa"/><rect width="0.9615384615384616em" height="6.8289723803615825em" x="97.11538461538461em" y="23.171027619638416em" fill="#aaa"/><rect width="0.9615384615384616em" height="6.0188499895358145em" x="98.07692307692308em" y="23.981150010464184em" fill="#aaa"/><rect width="0.9615384615384616em" height="4.986368094190797em" x="99.03846153846155em" y="25.013631905809202em" fill="#aaa"/></svg>