<?xml version="1.0" standalone="no"?>
<svg xmlns:xlink="http://www.w3.org/1999/xlink" xmlns="http://www.w3.org/2000/svg" class="topic-graph" style="width: 10vw; height: 3em; text-align: center;"><rect width="0.09615384615384616em" height="1.5468911778088055em" x="0vw" y="1.4531088221911945em" fill="#aaa"/><rect width="0.09615384615384616em" height="0.9687141774702421em" x="0.09615384615384616vw" y="2.0312858225297576em" fill="#aaa"/><rect width="0.09615384615384616em" height="1.9036672509459802em" x="0.19230769230769232vw" y="1.0963327490540198em" fill="#aaa"/><rect width="0.09615384615384616em" height="1.4103072875678804em" x="0.2884615384615385vw" y="1.5896927124321196em" fill="#aaa"/><rect width="0.09615384615384616em" height="2.7202228704966336em" x="0.38461538461538464vw" y="0.2797771295033664em" fill="#aaa"/><rect width="0.09615384615384616em" height="0.7063633043395956em" x="0.4807692307692308vw" y="2.293636695660404em" fill="#aaa"/><rect width="0.09615384615384616em" height="0.17466216170444798em" x="0.576923076923077vw" y="2.825337838295552em" fill="#aaa"/><rect width="0.09615384615384616em" height="1.38007159015872em" x="0.6730769230769231vw" y="1.61992840984128em" fill="#aaa"/><rect width="0.09615384615384616em" height="1.1181206597622175em" x="0.7692307692307693vw" y="1.8818793402377825em" fill="#aaa"/><rect width="0.09615384615384616em" height="0.5028787702937665em" x="0.8653846153846154vw" y="2.4971212297062335em" fill="#aaa"/><rect width="0.09615384615384616em" height="0.4801634995178321em" x="0.9615384615384616vw" y="2.519836500482168em" fill="#aaa"/><rect width="0.09615384615384616em" height="1.8397141904128047em" x="1.0576923076923077vw" y="1.1602858095871953em" fill="#aaa"/><rect width="0.09615384615384616em" height="0.8230889363623769em" x="1.153846153846154vw" y="2.176911063637623em" fill="#aaa"/><rect width="0.09615384615384616em" height="1.2866991433956676em" x="1.25vw" y="1.7133008566043324em" fill="#aaa"/><rect width="0.09615384615384616em" height="3em" x="1.3461538461538463vw" y="0em" fill="#aaa"/><rect width="0.09615384615384616em" height="2.116122274694354em" x="1.4423076923076923vw" y="0.8838777253056458em" fill="#aaa"/><rect width="0.09615384615384616em" height="1.7733685030893533em" x="1.5384615384615385vw" y="1.2266314969106467em" fill="#aaa"/><rect width="0.09615384615384616em" height="2.24920834583508em" x="1.6346153846153848vw" y="0.75079165416492em" fill="#aaa"/><rect width="0.09615384615384616em" height="0.4547674104725004em" x="1.7307692307692308vw" y="2.5452325895274996em" fill="#aaa"/><rect width="0.09615384615384616em" height="0.8886186342770366em" x="1.826923076923077vw" y="2.1113813657229636em" fill="#aaa"/><rect width="0.09615384615384616em" height="0.4250268752802309em" x="1.9230769230769231vw" y="2.574973124719769em" fill="#aaa"/><rect width="0.09615384615384616em" height="1.0886507993063117em" x="2.019230769230769vw" y="1.9113492006936883em" fill="#aaa"/><rect width="0.09615384615384616em" height="1.0666905491809473em" x="2.1153846153846154vw" y="1.9333094508190527em" fill="#aaa"/><rect width="0.09615384615384616em" height="2.8902062792390892em" x="2.2115384615384617vw" y="0.10979372076091076em" fill="#aaa"/><rect width="0.09615384615384616em" height="2.921407090154909em" x="2.307692307692308vw" y="0.07859290984509082em" fill="#aaa"/><rect width="0.09615384615384616em" height="1.241481655160626em" x="2.403846153846154vw" y="1.758518344839374em" fill="#aaa"/><rect width="0.09615384615384616em" height="1.5993789193272634em" x="2.5vw" y="1.4006210806727366em" fill="#aaa"/><rect width="0.09615384615384616em" height="1.6436624698695228em" x="2.5961538461538463vw" y="1.3563375301304772em" fill="#aaa"/><rect width="0.09615384615384616em" height="2.4452737331656422em" x="2.6923076923076925vw" y="0.5547262668343578em" fill="#aaa"/><rect width="0.09615384615384616em" height="1.2261363916729686em" x="2.7884615384615388vw" y="1.7738636083270314em" fill="#aaa"/><rect width="0.09615384615384616em" height="1.6307989467572264em" x="2.8846153846153846vw" y="1.3692010532427736em" fill="#aaa"/><rect width="0.09615384615384616em" height="1.8508066251037585em" x="2.980769230769231vw" y="1.1491933748962415em" fill="#aaa"/><rect width="0.09615384615384616em" height="2.2568187893726206em" x="3.076923076923077vw" y="0.7431812106273794em" fill="#aaa"/><rect width="0.09615384615384616em" height="1.182960624197402em" x="3.1730769230769234vw" y="1.817039375802598em" fill="#aaa"/><rect width="0.09615384615384616em" height="1.1351221768390565em" x="3.2692307692307696vw" y="1.8648778231609435em" fill="#aaa"/><rect width="0.09615384615384616em" height="0.6171651455653243em" x="3.3653846153846154vw" y="2.382834854434676em" fill="#aaa"/><rect width="0.09615384615384616em" height="1.278171158197233em" x="3.4615384615384617vw" y="1.721828841802767em" fill="#aaa"/><rect width="0.09615384615384616em" height="1.3189448738996707em" x="3.557692307692308vw" y="1.6810551261003293em" fill="#aaa"/><rect width="0.09615384615384616em" height="0.8088035121609922em" x="3.653846153846154vw" y="2.191196487839008em" fill="#aaa"/><rect width="0.09615384615384616em" height="0.8088526938593164em" x="3.75vw" y="2.1911473061406834em" fill="#aaa"/><rect width="0.09615384615384616em" height="0.3620473355197936em" x="3.8461538461538463vw" y="2.6379526644802063em" fill="#aaa"/><rect width="0.09615384615384616em" height="0.7509405378495941em" x="3.9423076923076925vw" y="2.249059462150406em" fill="#aaa"/><rect width="0.09615384615384616em" height="1.2635005228478347em" x="4.038461538461538vw" y="1.7364994771521653em" fill="#aaa"/><rect width="0.09615384615384616em" height="1.1234844201323717em" x="4.134615384615385vw" y="1.8765155798676283em" fill="#aaa"/><rect width="0.09615384615384616em" height="0.5540330778934174em" x="4.230769230769231vw" y="2.4459669221065825em" fill="#aaa"/><rect width="0.09615384615384616em" height="0.5115125115128384em" x="4.3269230769230775vw" y="2.4884874884871615em" fill="#aaa"/><rect width="0.09615384615384616em" height="0.35071414064943224em" x="4.423076923076923vw" y="2.649285859350568em" fill="#aaa"/><rect width="0.09615384615384616em" height="1.076643472352353em" x="4.519230769230769vw" y="1.923356527647647em" fill="#aaa"/><rect width="0.09615384615384616em" height="2.348028822127584em" x="4.615384615384616vw" y="0.651971177872416em" fill="#aaa"/><rect width="0.09615384615384616em" height="0.9203999250311932em" x="4.711538461538462vw" y="2.079600074968807em" fill="#aaa"/><rect width="0.09615384615384616em" height="0.7109298000179641em" x="4.807692307692308vw" y="2.289070199982036em" fill="#aaa"/><rect width="0.09615384615384616em" height="0.6618821145265749em" x="4.903846153846154vw" y="2.3381178854734253em" fill="#aaa"/><rect width="0.09615384615384616em" height="0.8458754107696727em" x="5vw" y="2.154124589230327em" fill="#aaa"/><rect width="0.09615384615384616em" height="0.8221695894714263em" x="5.096153846153847vw" y="2.177830410528574em" fill="#aaa"/><rect width="0.09615384615384616em" height="0.9252174640708786em" x="5.1923076923076925vw" y="2.0747825359291214em" fill="#aaa"/><rect width="0.09615384615384616em" height="0.46729496543747706em" x="5.288461538461538vw" y="2.532705034562523em" fill="#aaa"/><rect width="0.09615384615384616em" height="0.6761887659015817em" x="5.384615384615385vw" y="2.323811234098418em" fill="#aaa"/><rect width="0.09615384615384616em" height="0.6258813992379424em" x="5.480769230769231vw" y="2.3741186007620576em" fill="#aaa"/><rect width="0.09615384615384616em" height="0.6233270296233493em" x="5.5769230769230775vw" y="2.3766729703766507em" fill="#aaa"/><rect width="0.09615384615384616em" height="0.43595864578703913em" x="5.673076923076923vw" y="2.5640413542129608em" fill="#aaa"/><rect width="0.09615384615384616em" height="0.4655588008554541em" x="5.769230769230769vw" y="2.534441199144546em" fill="#aaa"/><rect width="0.09615384615384616em" height="1.032761926351727em" x="5.865384615384616vw" y="1.967238073648273em" fill="#aaa"/><rect width="0.09615384615384616em" height="0.8107689310567172em" x="5.961538461538462vw" y="2.1892310689432826em" fill="#aaa"/><rect width="0.09615384615384616em" height="1.595991411589774em" x="6.057692307692308vw" y="1.404008588410226em" fill="#aaa"/><rect width="0.09615384615384616em" height="1.8297837491541027em" x="6.153846153846154vw" y="1.1702162508458973em" fill="#aaa"/><rect width="0.09615384615384616em" height="1.0631551718646em" x="6.25vw" y="1.9368448281354em" fill="#aaa"/><rect width="0.09615384615384616em" height="1.0119783548182442em" x="6.346153846153847vw" y="1.9880216451817558em" fill="#aaa"/><rect width="0.09615384615384616em" height="1.2634329209575716em" x="6.4423076923076925vw" y="1.7365670790424284em" fill="#aaa"/><rect width="0.09615384615384616em" height="0.6815191426549241em" x="6.538461538461539vw" y="2.318480857345076em" fill="#aaa"/><rect width="0.09615384615384616em" height="1.149560155427559em" x="6.634615384615385vw" y="1.850439844572441em" fill="#aaa"/><rect width="0.09615384615384616em" height="1.0721981468721256em" x="6.730769230769231vw" y="1.9278018531278744em" fill="#aaa"/><rect width="0.09615384615384616em" height="1.0087780739429633em" x="6.8269230769230775vw" y="1.9912219260570367em" fill="#aaa"/><rect width="0.09615384615384616em" height="0.6886866073543078em" x="6.923076923076923vw" y="2.311313392645692em" fill="#aaa"/><rect width="0.09615384615384616em" height="0.6946608194171356em" x="7.01923076923077vw" y="2.3053391805828642em" fill="#aaa"/><rect width="0.09615384615384616em" height="0.7415978934212362em" x="7.115384615384616vw" y="2.258402106578764em" fill="#aaa"/><rect width="0.09615384615384616em" height="1.401428907862271em" x="7.211538461538462vw" y="1.598571092137729em" fill="#aaa"/><rect width="0.09615384615384616em" height="0.817472638211032em" x="7.307692307692308vw" y="2.182527361788968em" fill="#aaa"/><rect width="0.09615384615384616em" height="0.8376343345822557em" x="7.403846153846154vw" y="2.1623656654177443em" fill="#aaa"/><rect width="0.09615384615384616em" height="1.5812349667552472em" x="7.5vw" y="1.4187650332447528em" fill="#aaa"/><rect width="0.09615384615384616em" height="1.5036976613155324em" x="7.596153846153847vw" y="1.4963023386844676em" fill="#aaa"/><rect width="0.09615384615384616em" height="2.1699106566218695em" x="7.6923076923076925vw" y="0.8300893433781305em" fill="#aaa"/><rect width="0.09615384615384616em" height="1.5056322886122189em" x="7.788461538461539vw" y="1.4943677113877811em" fill="#aaa"/><rect width="0.09615384615384616em" height="1.1147806904874433em" x="7.884615384615385vw" y="1.8852193095125567em" fill="#aaa"/><rect width="0.09615384615384616em" height="1.2891175375363704em" x="7.980769230769231vw" y="1.7108824624636296em" fill="#aaa"/><rect width="0.09615384615384616em" height="1.1464499350443702em" x="8.076923076923077vw" y="1.8535500649556298em" fill="#aaa"/><rect width="0.09615384615384616em" height="0.8187852563770781em" x="8.173076923076923vw" y="2.181214743622922em" fill="#aaa"/><rect width="0.09615384615384616em" height="1.1333007480114614em" x="8.26923076923077vw" y="1.8666992519885386em" fill="#aaa"/><rect width="0.09615384615384616em" height="1.692590054294411em" x="8.365384615384615vw" y="1.307409945705589em" fill="#aaa"/><rect width="0.09615384615384616em" height="0.9005508198386236em" x="8.461538461538462vw" y="2.0994491801613764em" fill="#aaa"/><rect width="0.09615384615384616em" height="1.4801800347263283em" x="8.557692307692308vw" y="1.5198199652736717em" fill="#aaa"/><rect width="0.09615384615384616em" height="1.5512832015919367em" x="8.653846153846155vw" y="1.4487167984080633em" fill="#aaa"/><rect width="0.09615384615384616em" height="1.2369664440611903em" x="8.75vw" y="1.7630335559388097em" fill="#aaa"/><rect width="0.09615384615384616em" height="1.192559223320105em" x="8.846153846153847vw" y="1.807440776679895em" fill="#aaa"/><rect width="0.09615384615384616em" height="0.9727629446767756em" x="8.942307692307693vw" y="2.0272370553232246em" fill="#aaa"/><rect width="0.09615384615384616em" height="1.3808645925740193em" x="9.038461538461538vw" y="1.6191354074259807em" fill="#aaa"/><rect width="0.09615384615384616em" height="0.8157116980667585em" x="9.134615384615385vw" y="2.1842883019332415em" fill="#aaa"/><rect width="0.09615384615384616em" height="0.7544026014392086em" x="9.230769230769232vw" y="2.2455973985607915em" fill="#aaa"/><rect width="0.09615384615384616em" height="0.7008032107259078em" x="9.326923076923077vw" y="2.299196789274092em" fill="#aaa"/><rect width="0.09615384615384616em" height="0.8451229252888786em" x="9.423076923076923vw" y="2.1548770747111217em" fill="#aaa"/><rect width="0.09615384615384616em" height="0.8994096532046875em" x="9.51923076923077vw" y="2.1005903467953124em" fill="#aaa"/><rect width="0.09615384615384616em" height="0.8174550971478767em" x="9.615384615384617vw" y="2.1825449028521233em" fill="#aaa"/><rect width="0.09615384615384616em" height="0.9518287974915836em" x="9.711538461538462vw" y="2.0481712025084162em" fill="#aaa"/><rect width="0.09615384615384616em" height="0.758263758218076em" x="9.807692307692308vw" y="2.2417362417819238em" fill="#aaa"/><rect width="0.09615384615384616em" height="0.6160545129906216em" x="9.903846153846155vw" y="2.3839454870093784em" fill="#aaa"/></svg>