<?xml version="1.0" standalone="no"?>
<svg xmlns:xlink="http://www.w3.org/1999/xlink" xmlns="http://www.w3.org/2000/svg" class="topic-graph" style="width: 100em; height: 30em; text-align: center;"><rect width="0.9615384615384616em" height="6.106102213497418em" x="0em" y="23.89389778650258em" fill="#aaa"/><rect width="0.9615384615384616em" height="7.894972763920819em" x="0.9615384615384616em" y="22.10502723607918em" fill="#aaa"/><rect width="0.9615384615384616em" height="5.613748820815097em" x="1.9230769230769231em" y="24.386251179184903em" fill="#aaa"/><rect width="0.9615384615384616em" height="7.273167357583726em" x="2.8846153846153846em" y="22.726832642416273em" fill="#aaa"/><rect width="0.9615384615384616em" height="10.351236562350449em" x="3.8461538461538463em" y="19.64876343764955em" fill="#aaa"/><rect width="0.9615384615384616em" height="8.33348603462652em" x="4.8076923076923075em" y="21.666513965373483em" fill="#aaa"/><rect width="0.9615384615384616em" height="1.8762580998751135em" x="5.769230769230769em" y="28.123741900124887em" fill="#aaa"/><rect width="0.9615384615384616em" height="4.156338979409752em" x="6.730769230769231em" y="25.843661020590247em" fill="#aaa"/><rect width="0.9615384615384616em" height="6.239442998567225em" x="7.6923076923076925em" y="23.760557001432776em" fill="#aaa"/><rect width="0.9615384615384616em" height="5.909743056528988em" x="8.653846153846153em" y="24.09025694347101em" fill="#aaa"/><rect width="0.9615384615384616em" height="9.315850653735449em" x="9.615384615384615em" y="20.68414934626455em" fill="#aaa"/><rect width="0.9615384615384616em" height="10.046409030418733em" x="10.576923076923077em" y="19.953590969581267em" fill="#aaa"/><rect width="0.9615384615384616em" height="8.915179339509155em" x="11.538461538461538em" y="21.084820660490845em" fill="#aaa"/><rect width="0.9615384615384616em" height="8.305161748986224em" x="12.5em" y="21.694838251013778em" fill="#aaa"/><rect width="0.9615384615384616em" height="7.987789612805577em" x="13.461538461538462em" y="22.012210387194422em" fill="#aaa"/><rect width="0.9615384615384616em" height="10.457112936555271em" x="14.423076923076923em" y="19.54288706344473em" fill="#aaa"/><rect width="0.9615384615384616em" height="8.32807195371567em" x="15.384615384615385em" y="21.67192804628433em" fill="#aaa"/><rect width="0.9615384615384616em" height="7.519179363521775em" x="16.346153846153847em" y="22.480820636478224em" fill="#aaa"/><rect width="0.9615384615384616em" height="9.291841743504307em" x="17.307692307692307em" y="20.708158256495693em" fill="#aaa"/><rect width="0.9615384615384616em" height="20.289071054405103em" x="18.26923076923077em" y="9.710928945594897em" fill="#aaa"/><rect width="0.9615384615384616em" height="14.664677438729745em" x="19.23076923076923em" y="15.335322561270255em" fill="#aaa"/><rect width="0.9615384615384616em" height="13.401737421355639em" x="20.192307692307693em" y="16.59826257864436em" fill="#aaa"/><rect width="0.9615384615384616em" height="11.041757427514767em" x="21.153846153846153em" y="18.958242572485233em" fill="#aaa"/><rect width="0.9615384615384616em" height="18.67635323802368em" x="22.115384615384617em" y="11.32364676197632em" fill="#aaa"/><rect width="0.9615384615384616em" height="17.214785861888174em" x="23.076923076923077em" y="12.785214138111826em" fill="#aaa"/><rect width="0.9615384615384616em" height="14.151140624552742em" x="24.03846153846154em" y="15.848859375447258em" fill="#aaa"/><rect width="0.9615384615384616em" height="14.237307000307831em" x="25em" y="15.762692999692169em" fill="#aaa"/><rect width="0.9615384615384616em" height="16.31579182760503em" x="25.961538461538463em" y="13.684208172394971em" fill="#aaa"/><rect width="0.9615384615384616em" height="15.847914340727085em" x="26.923076923076923em" y="14.152085659272915em" fill="#aaa"/><rect width="0.9615384615384616em" height="17.385938806908115em" x="27.884615384615387em" y="12.614061193091885em" fill="#aaa"/><rect width="0.9615384615384616em" height="9.978172068225241em" x="28.846153846153847em" y="20.02182793177476em" fill="#aaa"/><rect width="0.9615384615384616em" height="16.700330404816597em" x="29.80769230769231em" y="13.299669595183403em" fill="#aaa"/><rect width="0.9615384615384616em" height="16.100136495036526em" x="30.76923076923077em" y="13.899863504963474em" fill="#aaa"/><rect width="0.9615384615384616em" height="11.953211055972222em" x="31.73076923076923em" y="18.046788944027778em" fill="#aaa"/><rect width="0.9615384615384616em" height="6.988184253805357em" x="32.69230769230769em" y="23.011815746194642em" fill="#aaa"/><rect width="0.9615384615384616em" height="8.375350372920822em" x="33.65384615384615em" y="21.62464962707918em" fill="#aaa"/><rect width="0.9615384615384616em" height="8.943430427471991em" x="34.61538461538461em" y="21.05656957252801em" fill="#aaa"/><rect width="0.9615384615384616em" height="9.028258978044056em" x="35.57692307692308em" y="20.971741021955943em" fill="#aaa"/><rect width="0.9615384615384616em" height="9.677739333183267em" x="36.53846153846154em" y="20.32226066681673em" fill="#aaa"/><rect width="0.9615384615384616em" height="11.546230368376442em" x="37.5em" y="18.453769631623558em" fill="#aaa"/><rect width="0.9615384615384616em" height="17.75603812185405em" x="38.46153846153846em" y="12.24396187814595em" fill="#aaa"/><rect width="0.9615384615384616em" height="16.512827437940036em" x="39.42307692307693em" y="13.487172562059964em" fill="#aaa"/><rect width="0.9615384615384616em" height="16.60390199395144em" x="40.38461538461539em" y="13.396098006048561em" fill="#aaa"/><rect width="0.9615384615384616em" height="26.559201550962293em" x="41.34615384615385em" y="3.4407984490377075em" fill="#aaa"/><rect width="0.9615384615384616em" height="22.168310373157027em" x="42.30769230769231em" y="7.831689626842973em" fill="#aaa"/><rect width="0.9615384615384616em" height="30em" x="43.269230769230774em" y="0em" fill="#aaa"/><rect width="0.9615384615384616em" height="10.711251636832273em" x="44.23076923076923em" y="19.288748363167727em" fill="#aaa"/><rect width="0.9615384615384616em" height="10.827256751708521em" x="45.19230769230769em" y="19.17274324829148em" fill="#aaa"/><rect width="0.9615384615384616em" height="29.52425505349897em" x="46.15384615384615em" y="0.47574494650103105em" fill="#aaa"/><rect width="0.9615384615384616em" height="17.95709391491071em" x="47.11538461538461em" y="12.042906085089289em" fill="#aaa"/><rect width="0.9615384615384616em" height="11.247743674642594em" x="48.07692307692308em" y="18.752256325357408em" fill="#aaa"/><rect width="0.9615384615384616em" height="15.081677404527493em" x="49.03846153846154em" y="14.918322595472507em" fill="#aaa"/><rect width="0.9615384615384616em" height="15.116943968473338em" x="50em" y="14.883056031526662em" fill="#aaa"/><rect width="0.9615384615384616em" height="16.752727600433644em" x="50.96153846153846em" y="13.247272399566356em" fill="#aaa"/><rect width="0.9615384615384616em" height="10.712146772393407em" x="51.92307692307693em" y="19.287853227606593em" fill="#aaa"/><rect width="0.9615384615384616em" height="11.445071472336569em" x="52.88461538461539em" y="18.55492852766343em" fill="#aaa"/><rect width="0.9615384615384616em" height="11.80882806109537em" x="53.84615384615385em" y="18.19117193890463em" fill="#aaa"/><rect width="0.9615384615384616em" height="18.975787603355194em" x="54.80769230769231em" y="11.024212396644806em" fill="#aaa"/><rect width="0.9615384615384616em" height="14.381481235588097em" x="55.769230769230774em" y="15.618518764411903em" fill="#aaa"/><rect width="0.9615384615384616em" height="14.76454851728815em" x="56.73076923076923em" y="15.23545148271185em" fill="#aaa"/><rect width="0.9615384615384616em" height="16.35986419508901em" x="57.69230769230769em" y="13.64013580491099em" fill="#aaa"/><rect width="0.9615384615384616em" height="12.752373384694891em" x="58.65384615384615em" y="17.24762661530511em" fill="#aaa"/><rect width="0.9615384615384616em" height="9.204693049342762em" x="59.61538461538462em" y="20.79530695065724em" fill="#aaa"/><rect width="0.9615384615384616em" height="6.212225006772815em" x="60.57692307692308em" y="23.787774993227185em" fill="#aaa"/><rect width="0.9615384615384616em" height="12.915705306976312em" x="61.53846153846154em" y="17.084294693023686em" fill="#aaa"/><rect width="0.9615384615384616em" height="13.54338235773707em" x="62.5em" y="16.45661764226293em" fill="#aaa"/><rect width="0.9615384615384616em" height="7.713082290169574em" x="63.46153846153846em" y="22.286917709830426em" fill="#aaa"/><rect width="0.9615384615384616em" height="7.675019644543461em" x="64.42307692307692em" y="22.32498035545654em" fill="#aaa"/><rect width="0.9615384615384616em" height="12.554112616229752em" x="65.38461538461539em" y="17.44588738377025em" fill="#aaa"/><rect width="0.9615384615384616em" height="9.842568272319344em" x="66.34615384615385em" y="20.157431727680656em" fill="#aaa"/><rect width="0.9615384615384616em" height="15.123423877362242em" x="67.3076923076923em" y="14.876576122637758em" fill="#aaa"/><rect width="0.9615384615384616em" height="6.0646626667183146em" x="68.26923076923077em" y="23.935337333281687em" fill="#aaa"/><rect width="0.9615384615384616em" height="5.627668501112765em" x="69.23076923076923em" y="24.372331498887235em" fill="#aaa"/><rect width="0.9615384615384616em" height="6.652399284463312em" x="70.1923076923077em" y="23.347600715536686em" fill="#aaa"/><rect width="0.9615384615384616em" height="5.663177469479513em" x="71.15384615384616em" y="24.336822530520486em" fill="#aaa"/><rect width="0.9615384615384616em" height="9.755033160441927em" x="72.11538461538461em" y="20.244966839558074em" fill="#aaa"/><rect width="0.9615384615384616em" height="7.2804447057019255em" x="73.07692307692308em" y="22.719555294298075em" fill="#aaa"/><rect width="0.9615384615384616em" height="10.058478588491818em" x="74.03846153846155em" y="19.941521411508184em" fill="#aaa"/><rect width="0.9615384615384616em" height="5.247242267805058em" x="75em" y="24.752757732194944em" fill="#aaa"/><rect width="0.9615384615384616em" height="5.940296306904202em" x="75.96153846153847em" y="24.0597036930958em" fill="#aaa"/><rect width="0.9615384615384616em" height="6.841257971609763em" x="76.92307692307692em" y="23.158742028390236em" fill="#aaa"/><rect width="0.9615384615384616em" height="7.203041015258048em" x="77.88461538461539em" y="22.796958984741952em" fill="#aaa"/><rect width="0.9615384615384616em" height="8.058372908952743em" x="78.84615384615385em" y="21.94162709104726em" fill="#aaa"/><rect width="0.9615384615384616em" height="6.016252980413676em" x="79.8076923076923em" y="23.983747019586325em" fill="#aaa"/><rect width="0.9615384615384616em" height="6.667485505710879em" x="80.76923076923077em" y="23.33251449428912em" fill="#aaa"/><rect width="0.9615384615384616em" height="5.259071737795723em" x="81.73076923076923em" y="24.740928262204278em" fill="#aaa"/><rect width="0.9615384615384616em" height="5.79103935625291em" x="82.6923076923077em" y="24.20896064374709em" fill="#aaa"/><rect width="0.9615384615384616em" height="6.39021048014073em" x="83.65384615384616em" y="23.60978951985927em" fill="#aaa"/><rect width="0.9615384615384616em" height="5.319951264026622em" x="84.61538461538461em" y="24.68004873597338em" fill="#aaa"/><rect width="0.9615384615384616em" height="5.438801851216684em" x="85.57692307692308em" y="24.561198148783316em" fill="#aaa"/><rect width="0.9615384615384616em" height="5.663432951117805em" x="86.53846153846155em" y="24.336567048882195em" fill="#aaa"/><rect width="0.9615384615384616em" height="8.035958840142245em" x="87.5em" y="21.964041159857757em" fill="#aaa"/><rect width="0.9615384615384616em" height="6.534023895977627em" x="88.46153846153847em" y="23.465976104022374em" fill="#aaa"/><rect width="0.9615384615384616em" height="5.376268258850738em" x="89.42307692307692em" y="24.623731741149264em" fill="#aaa"/><rect width="0.9615384615384616em" height="6.676128514788334em" x="90.38461538461539em" y="23.323871485211665em" fill="#aaa"/><rect width="0.9615384615384616em" height="4.7787097574374275em" x="91.34615384615385em" y="25.221290242562574em" fill="#aaa"/><rect width="0.9615384615384616em" height="5.94948660800714em" x="92.3076923076923em" y="24.050513391992858em" fill="#aaa"/><rect width="0.9615384615384616em" height="4.916113548240106em" x="93.26923076923077em" y="25.083886451759895em" fill="#aaa"/><rect width="0.9615384615384616em" height="5.998889616379597em" x="94.23076923076923em" y="24.001110383620404em" fill="#aaa"/><rect width="0.9615384615384616em" height="5.35287527584186em" x="95.1923076923077em" y="24.64712472415814em" fill="#aaa"/><rect width="0.9615384615384616em" height="5.155727554678437em" x="96.15384615384616em" y="24.844272445321565em" fill="#aaa"/><rect width="0.9615384615384616em" height="5.5230344696192155em" x="97.11538461538461em" y="24.476965530380784em" fill="#aaa"/><rect width="0.9615384615384616em" height="6.578481307897485em" x="98.07692307692308em" y="23.421518692102516em" fill="#aaa"/><rect width="0.9615384615384616em" height="5.822653841343395em" x="99.03846153846155em" y="24.177346158656604em" fill="#aaa"/></svg>