<?xml version="1.0" standalone="no"?>
<svg xmlns:xlink="http://www.w3.org/1999/xlink" xmlns="http://www.w3.org/2000/svg" class="topic-graph" style="width: 100em; height: 30em; text-align: center;"><rect width="0.9615384615384616em" height="4.358459103110757em" x="0em" y="25.641540896889243em" fill="#aaa"/><rect width="0.9615384615384616em" height="1.6208057899000485em" x="0.9615384615384616em" y="28.37919421009995em" fill="#aaa"/><rect width="0.9615384615384616em" height="1.7172875503802116em" x="1.9230769230769231em" y="28.282712449619787em" fill="#aaa"/><rect width="0.9615384615384616em" height="0.6044558694385539em" x="2.8846153846153846em" y="29.395544130561447em" fill="#aaa"/><rect width="0.9615384615384616em" height="1.454195427462954em" x="3.8461538461538463em" y="28.545804572537048em" fill="#aaa"/><rect width="0.9615384615384616em" height="1.8452628794398722em" x="4.8076923076923075em" y="28.154737120560128em" fill="#aaa"/><rect width="0.9615384615384616em" height="5.059824855518179em" x="5.769230769230769em" y="24.94017514448182em" fill="#aaa"/><rect width="0.9615384615384616em" height="1.105294211226516em" x="6.730769230769231em" y="28.894705788773486em" fill="#aaa"/><rect width="0.9615384615384616em" height="3.6245932710621602em" x="7.6923076923076925em" y="26.37540672893784em" fill="#aaa"/><rect width="0.9615384615384616em" height="4.067786188929701em" x="8.653846153846153em" y="25.932213811070298em" fill="#aaa"/><rect width="0.9615384615384616em" height="2.2185780391160557em" x="9.615384615384615em" y="27.781421960883943em" fill="#aaa"/><rect width="0.9615384615384616em" height="4.419478238211397em" x="10.576923076923077em" y="25.580521761788603em" fill="#aaa"/><rect width="0.9615384615384616em" height="3.90955745214214em" x="11.538461538461538em" y="26.09044254785786em" fill="#aaa"/><rect width="0.9615384615384616em" height="4.977779139998402em" x="12.5em" y="25.022220860001596em" fill="#aaa"/><rect width="0.9615384615384616em" height="1.4769615779792518em" x="13.461538461538462em" y="28.523038422020747em" fill="#aaa"/><rect width="0.9615384615384616em" height="4.15396548097122em" x="14.423076923076923em" y="25.84603451902878em" fill="#aaa"/><rect width="0.9615384615384616em" height="3.0628428095449656em" x="15.384615384615385em" y="26.937157190455036em" fill="#aaa"/><rect width="0.9615384615384616em" height="9.310159387848708em" x="16.346153846153847em" y="20.689840612151293em" fill="#aaa"/><rect width="0.9615384615384616em" height="8.884274074559976em" x="17.307692307692307em" y="21.115725925440024em" fill="#aaa"/><rect width="0.9615384615384616em" height="5.501457052579682em" x="18.26923076923077em" y="24.49854294742032em" fill="#aaa"/><rect width="0.9615384615384616em" height="5.75982839094739em" x="19.23076923076923em" y="24.24017160905261em" fill="#aaa"/><rect width="0.9615384615384616em" height="18.976148330362776em" x="20.192307692307693em" y="11.023851669637224em" fill="#aaa"/><rect width="0.9615384615384616em" height="7.7508631274784925em" x="21.153846153846153em" y="22.249136872521508em" fill="#aaa"/><rect width="0.9615384615384616em" height="14.708407793081069em" x="22.115384615384617em" y="15.291592206918931em" fill="#aaa"/><rect width="0.9615384615384616em" height="8.108820424210005em" x="23.076923076923077em" y="21.891179575789995em" fill="#aaa"/><rect width="0.9615384615384616em" height="16.39130375977359em" x="24.03846153846154em" y="13.608696240226411em" fill="#aaa"/><rect width="0.9615384615384616em" height="21.487092425449408em" x="25em" y="8.512907574550592em" fill="#aaa"/><rect width="0.9615384615384616em" height="14.441140461261522em" x="25.961538461538463em" y="15.558859538738478em" fill="#aaa"/><rect width="0.9615384615384616em" height="22.47717805564806em" x="26.923076923076923em" y="7.522821944351939em" fill="#aaa"/><rect width="0.9615384615384616em" height="20.314271260150704em" x="27.884615384615387em" y="9.685728739849296em" fill="#aaa"/><rect width="0.9615384615384616em" height="19.06448689743076em" x="28.846153846153847em" y="10.935513102569239em" fill="#aaa"/><rect width="0.9615384615384616em" height="25.397778190468713em" x="29.80769230769231em" y="4.602221809531287em" fill="#aaa"/><rect width="0.9615384615384616em" height="30em" x="30.76923076923077em" y="0em" fill="#aaa"/><rect width="0.9615384615384616em" height="17.235966471797564em" x="31.73076923076923em" y="12.764033528202436em" fill="#aaa"/><rect width="0.9615384615384616em" height="21.06961973401286em" x="32.69230769230769em" y="8.93038026598714em" fill="#aaa"/><rect width="0.9615384615384616em" height="12.694038129863465em" x="33.65384615384615em" y="17.305961870136535em" fill="#aaa"/><rect width="0.9615384615384616em" height="18.487786754535588em" x="34.61538461538461em" y="11.512213245464412em" fill="#aaa"/><rect width="0.9615384615384616em" height="20.872448276409582em" x="35.57692307692308em" y="9.127551723590418em" fill="#aaa"/><rect width="0.9615384615384616em" height="14.411095042136687em" x="36.53846153846154em" y="15.588904957863313em" fill="#aaa"/><rect width="0.9615384615384616em" height="13.62342079213958em" x="37.5em" y="16.37657920786042em" fill="#aaa"/><rect width="0.9615384615384616em" height="14.443265573695982em" x="38.46153846153846em" y="15.556734426304018em" fill="#aaa"/><rect width="0.9615384615384616em" height="14.218781121664323em" x="39.42307692307693em" y="15.781218878335677em" fill="#aaa"/><rect width="0.9615384615384616em" height="14.267792638344712em" x="40.38461538461539em" y="15.732207361655288em" fill="#aaa"/><rect width="0.9615384615384616em" height="20.06631641639934em" x="41.34615384615385em" y="9.933683583600661em" fill="#aaa"/><rect width="0.9615384615384616em" height="20.641698581019458em" x="42.30769230769231em" y="9.358301418980542em" fill="#aaa"/><rect width="0.9615384615384616em" height="22.2039523289518em" x="43.269230769230774em" y="7.7960476710482em" fill="#aaa"/><rect width="0.9615384615384616em" height="12.538743720489416em" x="44.23076923076923em" y="17.461256279510586em" fill="#aaa"/><rect width="0.9615384615384616em" height="14.44237123791303em" x="45.19230769230769em" y="15.55762876208697em" fill="#aaa"/><rect width="0.9615384615384616em" height="11.79775506676432em" x="46.15384615384615em" y="18.20224493323568em" fill="#aaa"/><rect width="0.9615384615384616em" height="5.63339672009022em" x="47.11538461538461em" y="24.366603279909782em" fill="#aaa"/><rect width="0.9615384615384616em" height="10.125062565207879em" x="48.07692307692308em" y="19.874937434792123em" fill="#aaa"/><rect width="0.9615384615384616em" height="8.133535627934071em" x="49.03846153846154em" y="21.866464372065927em" fill="#aaa"/><rect width="0.9615384615384616em" height="7.658614972424858em" x="50em" y="22.341385027575143em" fill="#aaa"/><rect width="0.9615384615384616em" height="8.744639063502762em" x="50.96153846153846em" y="21.25536093649724em" fill="#aaa"/><rect width="0.9615384615384616em" height="10.448541906784634em" x="51.92307692307693em" y="19.551458093215366em" fill="#aaa"/><rect width="0.9615384615384616em" height="5.634456718213918em" x="52.88461538461539em" y="24.36554328178608em" fill="#aaa"/><rect width="0.9615384615384616em" height="7.891741636872196em" x="53.84615384615385em" y="22.108258363127803em" fill="#aaa"/><rect width="0.9615384615384616em" height="9.113321778032482em" x="54.80769230769231em" y="20.886678221967518em" fill="#aaa"/><rect width="0.9615384615384616em" height="9.406613872404044em" x="55.769230769230774em" y="20.593386127595956em" fill="#aaa"/><rect width="0.9615384615384616em" height="7.648370502677971em" x="56.73076923076923em" y="22.35162949732203em" fill="#aaa"/><rect width="0.9615384615384616em" height="9.001881587021792em" x="57.69230769230769em" y="20.998118412978208em" fill="#aaa"/><rect width="0.9615384615384616em" height="4.328206943023571em" x="58.65384615384615em" y="25.67179305697643em" fill="#aaa"/><rect width="0.9615384615384616em" height="6.909985270592831em" x="59.61538461538462em" y="23.09001472940717em" fill="#aaa"/><rect width="0.9615384615384616em" height="8.11934107517252em" x="60.57692307692308em" y="21.88065892482748em" fill="#aaa"/><rect width="0.9615384615384616em" height="5.134802369148301em" x="61.53846153846154em" y="24.8651976308517em" fill="#aaa"/><rect width="0.9615384615384616em" height="5.2182477830192875em" x="62.5em" y="24.781752216980713em" fill="#aaa"/><rect width="0.9615384615384616em" height="5.089146798401114em" x="63.46153846153846em" y="24.910853201598886em" fill="#aaa"/><rect width="0.9615384615384616em" height="3.9487983516888376em" x="64.42307692307692em" y="26.051201648311164em" fill="#aaa"/><rect width="0.9615384615384616em" height="4.7667008463899885em" x="65.38461538461539em" y="25.233299153610012em" fill="#aaa"/><rect width="0.9615384615384616em" height="5.300279344157974em" x="66.34615384615385em" y="24.699720655842025em" fill="#aaa"/><rect width="0.9615384615384616em" height="5.76607283677518em" x="67.3076923076923em" y="24.23392716322482em" fill="#aaa"/><rect width="0.9615384615384616em" height="5.405651126635426em" x="68.26923076923077em" y="24.594348873364574em" fill="#aaa"/><rect width="0.9615384615384616em" height="6.127259680714555em" x="69.23076923076923em" y="23.872740319285445em" fill="#aaa"/><rect width="0.9615384615384616em" height="6.6553843192576965em" x="70.1923076923077em" y="23.344615680742304em" fill="#aaa"/><rect width="0.9615384615384616em" height="5.333573951188206em" x="71.15384615384616em" y="24.666426048811793em" fill="#aaa"/><rect width="0.9615384615384616em" height="3.8946277706500325em" x="72.11538461538461em" y="26.105372229349967em" fill="#aaa"/><rect width="0.9615384615384616em" height="3.7933770937951183em" x="73.07692307692308em" y="26.20662290620488em" fill="#aaa"/><rect width="0.9615384615384616em" height="4.882410512827242em" x="74.03846153846155em" y="25.117589487172758em" fill="#aaa"/><rect width="0.9615384615384616em" height="3.407405833043943em" x="75em" y="26.592594166956058em" fill="#aaa"/><rect width="0.9615384615384616em" height="3.2759613756525314em" x="75.96153846153847em" y="26.724038624347468em" fill="#aaa"/><rect width="0.9615384615384616em" height="4.134471309876042em" x="76.92307692307692em" y="25.86552869012396em" fill="#aaa"/><rect width="0.9615384615384616em" height="3.2602942718238657em" x="77.88461538461539em" y="26.739705728176133em" fill="#aaa"/><rect width="0.9615384615384616em" height="3.001922463102379em" x="78.84615384615385em" y="26.998077536897622em" fill="#aaa"/><rect width="0.9615384615384616em" height="3.4663152192899283em" x="79.8076923076923em" y="26.53368478071007em" fill="#aaa"/><rect width="0.9615384615384616em" height="2.7477833118152573em" x="80.76923076923077em" y="27.252216688184742em" fill="#aaa"/><rect width="0.9615384615384616em" height="3.335466188799591em" x="81.73076923076923em" y="26.66453381120041em" fill="#aaa"/><rect width="0.9615384615384616em" height="2.436868111718653em" x="82.6923076923077em" y="27.563131888281347em" fill="#aaa"/><rect width="0.9615384615384616em" height="3.675186391806787em" x="83.65384615384616em" y="26.324813608193214em" fill="#aaa"/><rect width="0.9615384615384616em" height="3.2655500089844542em" x="84.61538461538461em" y="26.734449991015545em" fill="#aaa"/><rect width="0.9615384615384616em" height="2.5649878193987843em" x="85.57692307692308em" y="27.435012180601216em" fill="#aaa"/><rect width="0.9615384615384616em" height="3.5481176872244324em" x="86.53846153846155em" y="26.451882312775567em" fill="#aaa"/><rect width="0.9615384615384616em" height="3.1500670359404266em" x="87.5em" y="26.849932964059573em" fill="#aaa"/><rect width="0.9615384615384616em" height="2.7367766670779123em" x="88.46153846153847em" y="27.263223332922088em" fill="#aaa"/><rect width="0.9615384615384616em" height="2.4523979652386605em" x="89.42307692307692em" y="27.54760203476134em" fill="#aaa"/><rect width="0.9615384615384616em" height="2.2659254365393284em" x="90.38461538461539em" y="27.734074563460673em" fill="#aaa"/><rect width="0.9615384615384616em" height="2.325717957626003em" x="91.34615384615385em" y="27.674282042373996em" fill="#aaa"/><rect width="0.9615384615384616em" height="2.902696485280573em" x="92.3076923076923em" y="27.097303514719428em" fill="#aaa"/><rect width="0.9615384615384616em" height="2.532386907068655em" x="93.26923076923077em" y="27.467613092931344em" fill="#aaa"/><rect width="0.9615384615384616em" height="2.271277801587026em" x="94.23076923076923em" y="27.728722198412974em" fill="#aaa"/><rect width="0.9615384615384616em" height="2.2919696209912437em" x="95.1923076923077em" y="27.708030379008758em" fill="#aaa"/><rect width="0.9615384615384616em" height="2.6537261812634823em" x="96.15384615384616em" y="27.346273818736517em" fill="#aaa"/><rect width="0.9615384615384616em" height="2.6663256579538075em" x="97.11538461538461em" y="27.333674342046194em" fill="#aaa"/><rect width="0.9615384615384616em" height="2.54915410616384em" x="98.07692307692308em" y="27.45084589383616em" fill="#aaa"/><rect width="0.9615384615384616em" height="2.1559224939457184em" x="99.03846153846155em" y="27.844077506054283em" fill="#aaa"/></svg>