<?xml version="1.0" standalone="no"?>
<svg xmlns:xlink="http://www.w3.org/1999/xlink" xmlns="http://www.w3.org/2000/svg" class="topic-graph" style="width: 10vw; height: 3em; text-align: center;"><rect width="0.09615384615384616em" height="0.06787222749516822em" x="0vw" y="2.9321277725048316em" fill="#aaa"/><rect width="0.09615384615384616em" height="0.6608426703939849em" x="0.09615384615384616vw" y="2.339157329606015em" fill="#aaa"/><rect width="0.09615384615384616em" height="0.35727099709364085em" x="0.19230769230769232vw" y="2.6427290029063593em" fill="#aaa"/><rect width="0.09615384615384616em" height="0.170855965836583em" x="0.2884615384615385vw" y="2.829144034163417em" fill="#aaa"/><rect width="0.09615384615384616em" height="0.1284507856790098em" x="0.38461538461538464vw" y="2.87154921432099em" fill="#aaa"/><rect width="0.09615384615384616em" height="0.49529939579950955em" x="0.4807692307692308vw" y="2.5047006042004902em" fill="#aaa"/><rect width="0.09615384615384616em" height="0.5938525852660415em" x="0.576923076923077vw" y="2.4061474147339585em" fill="#aaa"/><rect width="0.09615384615384616em" height="0.5231972177220976em" x="0.6730769230769231vw" y="2.476802782277902em" fill="#aaa"/><rect width="0.09615384615384616em" height="0.44753850216128904em" x="0.7692307692307693vw" y="2.552461497838711em" fill="#aaa"/><rect width="0.09615384615384616em" height="0.8301174069071098em" x="0.8653846153846154vw" y="2.16988259309289em" fill="#aaa"/><rect width="0.09615384615384616em" height="0.2709602430713867em" x="0.9615384615384616vw" y="2.7290397569286133em" fill="#aaa"/><rect width="0.09615384615384616em" height="0.20834456634552992em" x="1.0576923076923077vw" y="2.79165543365447em" fill="#aaa"/><rect width="0.09615384615384616em" height="0.5535216656299855em" x="1.153846153846154vw" y="2.4464783343700143em" fill="#aaa"/><rect width="0.09615384615384616em" height="0.18121032594211717em" x="1.25vw" y="2.818789674057883em" fill="#aaa"/><rect width="0.09615384615384616em" height="0.4225406732393173em" x="1.3461538461538463vw" y="2.5774593267606827em" fill="#aaa"/><rect width="0.09615384615384616em" height="0.6053275958214913em" x="1.4423076923076923vw" y="2.394672404178509em" fill="#aaa"/><rect width="0.09615384615384616em" height="0.13669455075505324em" x="1.5384615384615385vw" y="2.8633054492449466em" fill="#aaa"/><rect width="0.09615384615384616em" height="0.6526797138264994em" x="1.6346153846153848vw" y="2.3473202861735007em" fill="#aaa"/><rect width="0.09615384615384616em" height="0.4862060735530501em" x="1.7307692307692308vw" y="2.51379392644695em" fill="#aaa"/><rect width="0.09615384615384616em" height="0.3360599335431991em" x="1.826923076923077vw" y="2.663940066456801em" fill="#aaa"/><rect width="0.09615384615384616em" height="0.6828534224781883em" x="1.9230769230769231vw" y="2.317146577521812em" fill="#aaa"/><rect width="0.09615384615384616em" height="0.5075411049754697em" x="2.019230769230769vw" y="2.49245889502453em" fill="#aaa"/><rect width="0.09615384615384616em" height="0.24330737875690173em" x="2.1153846153846154vw" y="2.7566926212430984em" fill="#aaa"/><rect width="0.09615384615384616em" height="0.6487659715487791em" x="2.2115384615384617vw" y="2.3512340284512208em" fill="#aaa"/><rect width="0.09615384615384616em" height="0.5475614511805715em" x="2.307692307692308vw" y="2.4524385488194285em" fill="#aaa"/><rect width="0.09615384615384616em" height="0.8462531064362038em" x="2.403846153846154vw" y="2.1537468935637962em" fill="#aaa"/><rect width="0.09615384615384616em" height="0.5181367116576889em" x="2.5vw" y="2.481863288342311em" fill="#aaa"/><rect width="0.09615384615384616em" height="0.20361504825503268em" x="2.5961538461538463vw" y="2.7963849517449675em" fill="#aaa"/><rect width="0.09615384615384616em" height="0.19073498808608397em" x="2.6923076923076925vw" y="2.809265011913916em" fill="#aaa"/><rect width="0.09615384615384616em" height="0.2394764664518667em" x="2.7884615384615388vw" y="2.7605235335481333em" fill="#aaa"/><rect width="0.09615384615384616em" height="0.37286531867286804em" x="2.8846153846153846vw" y="2.627134681327132em" fill="#aaa"/><rect width="0.09615384615384616em" height="0.6726783000934076em" x="2.980769230769231vw" y="2.3273216999065927em" fill="#aaa"/><rect width="0.09615384615384616em" height="0.5339700562461496em" x="3.076923076923077vw" y="2.4660299437538504em" fill="#aaa"/><rect width="0.09615384615384616em" height="0.4983172355471085em" x="3.1730769230769234vw" y="2.5016827644528914em" fill="#aaa"/><rect width="0.09615384615384616em" height="0.652170362376813em" x="3.2692307692307696vw" y="2.347829637623187em" fill="#aaa"/><rect width="0.09615384615384616em" height="0.5213358124592489em" x="3.3653846153846154vw" y="2.478664187540751em" fill="#aaa"/><rect width="0.09615384615384616em" height="1.5160265513909725em" x="3.4615384615384617vw" y="1.4839734486090275em" fill="#aaa"/><rect width="0.09615384615384616em" height="0.7181514487876034em" x="3.557692307692308vw" y="2.2818485512123967em" fill="#aaa"/><rect width="0.09615384615384616em" height="1.6761021559993092em" x="3.653846153846154vw" y="1.3238978440006908em" fill="#aaa"/><rect width="0.09615384615384616em" height="0.8684444904737437em" x="3.75vw" y="2.1315555095262564em" fill="#aaa"/><rect width="0.09615384615384616em" height="1.1022466179182033em" x="3.8461538461538463vw" y="1.8977533820817967em" fill="#aaa"/><rect width="0.09615384615384616em" height="1.1470533921256651em" x="3.9423076923076925vw" y="1.8529466078743349em" fill="#aaa"/><rect width="0.09615384615384616em" height="0.8469768858860314em" x="4.038461538461538vw" y="2.1530231141139686em" fill="#aaa"/><rect width="0.09615384615384616em" height="0.4917677694539489em" x="4.134615384615385vw" y="2.508232230546051em" fill="#aaa"/><rect width="0.09615384615384616em" height="0.6016143248429284em" x="4.230769230769231vw" y="2.398385675157072em" fill="#aaa"/><rect width="0.09615384615384616em" height="0.6673014110173777em" x="4.3269230769230775vw" y="2.3326985889826224em" fill="#aaa"/><rect width="0.09615384615384616em" height="0.8867549327511068em" x="4.423076923076923vw" y="2.113245067248893em" fill="#aaa"/><rect width="0.09615384615384616em" height="0.6161996294550721em" x="4.519230769230769vw" y="2.383800370544928em" fill="#aaa"/><rect width="0.09615384615384616em" height="0.8424966908612512em" x="4.615384615384616vw" y="2.1575033091387485em" fill="#aaa"/><rect width="0.09615384615384616em" height="0.700923103181058em" x="4.711538461538462vw" y="2.299076896818942em" fill="#aaa"/><rect width="0.09615384615384616em" height="0.7751411261496188em" x="4.807692307692308vw" y="2.224858873850381em" fill="#aaa"/><rect width="0.09615384615384616em" height="1.5424026930702268em" x="4.903846153846154vw" y="1.4575973069297732em" fill="#aaa"/><rect width="0.09615384615384616em" height="0.8269866530952401em" x="5vw" y="2.17301334690476em" fill="#aaa"/><rect width="0.09615384615384616em" height="0.6378004177104435em" x="5.096153846153847vw" y="2.3621995822895565em" fill="#aaa"/><rect width="0.09615384615384616em" height="0.6932576404920308em" x="5.1923076923076925vw" y="2.306742359507969em" fill="#aaa"/><rect width="0.09615384615384616em" height="0.8550984014315011em" x="5.288461538461538vw" y="2.1449015985684987em" fill="#aaa"/><rect width="0.09615384615384616em" height="1.7717448393723596em" x="5.384615384615385vw" y="1.2282551606276404em" fill="#aaa"/><rect width="0.09615384615384616em" height="1.8639081218373663em" x="5.480769230769231vw" y="1.1360918781626337em" fill="#aaa"/><rect width="0.09615384615384616em" height="2.1151582323235467em" x="5.5769230769230775vw" y="0.8848417676764533em" fill="#aaa"/><rect width="0.09615384615384616em" height="2.3022239049672955em" x="5.673076923076923vw" y="0.6977760950327045em" fill="#aaa"/><rect width="0.09615384615384616em" height="3em" x="5.769230769230769vw" y="0em" fill="#aaa"/><rect width="0.09615384615384616em" height="0.9409625516259059em" x="5.865384615384616vw" y="2.0590374483740943em" fill="#aaa"/><rect width="0.09615384615384616em" height="1.349284164582928em" x="5.961538461538462vw" y="1.650715835417072em" fill="#aaa"/><rect width="0.09615384615384616em" height="1.0881786485653566em" x="6.057692307692308vw" y="1.9118213514346434em" fill="#aaa"/><rect width="0.09615384615384616em" height="1.0246478182586123em" x="6.153846153846154vw" y="1.9753521817413877em" fill="#aaa"/><rect width="0.09615384615384616em" height="1.3889717698159032em" x="6.25vw" y="1.6110282301840968em" fill="#aaa"/><rect width="0.09615384615384616em" height="1.156417148944895em" x="6.346153846153847vw" y="1.843582851055105em" fill="#aaa"/><rect width="0.09615384615384616em" height="2.2962610780544503em" x="6.4423076923076925vw" y="0.7037389219455497em" fill="#aaa"/><rect width="0.09615384615384616em" height="1.3306402604677983em" x="6.538461538461539vw" y="1.6693597395322017em" fill="#aaa"/><rect width="0.09615384615384616em" height="1.5336990268257258em" x="6.634615384615385vw" y="1.4663009731742742em" fill="#aaa"/><rect width="0.09615384615384616em" height="0.4743821392009393em" x="6.730769230769231vw" y="2.525617860799061em" fill="#aaa"/><rect width="0.09615384615384616em" height="1.3312895562712206em" x="6.8269230769230775vw" y="1.6687104437287794em" fill="#aaa"/><rect width="0.09615384615384616em" height="0.8158505926645334em" x="6.923076923076923vw" y="2.1841494073354664em" fill="#aaa"/><rect width="0.09615384615384616em" height="0.7699713536838416em" x="7.01923076923077vw" y="2.2300286463161583em" fill="#aaa"/><rect width="0.09615384615384616em" height="0.673499582112507em" x="7.115384615384616vw" y="2.326500417887493em" fill="#aaa"/><rect width="0.09615384615384616em" height="0.9577028304427095em" x="7.211538461538462vw" y="2.0422971695572905em" fill="#aaa"/><rect width="0.09615384615384616em" height="0.8327763288496715em" x="7.307692307692308vw" y="2.1672236711503285em" fill="#aaa"/><rect width="0.09615384615384616em" height="0.6862955893327876em" x="7.403846153846154vw" y="2.3137044106672127em" fill="#aaa"/><rect width="0.09615384615384616em" height="0.8577790541438062em" x="7.5vw" y="2.142220945856194em" fill="#aaa"/><rect width="0.09615384615384616em" height="0.7044234296848729em" x="7.596153846153847vw" y="2.295576570315127em" fill="#aaa"/><rect width="0.09615384615384616em" height="0.9892977563665954em" x="7.6923076923076925vw" y="2.0107022436334043em" fill="#aaa"/><rect width="0.09615384615384616em" height="1.1825404200457177em" x="7.788461538461539vw" y="1.8174595799542823em" fill="#aaa"/><rect width="0.09615384615384616em" height="0.9422346481511863em" x="7.884615384615385vw" y="2.057765351848814em" fill="#aaa"/><rect width="0.09615384615384616em" height="0.9231669678211814em" x="7.980769230769231vw" y="2.0768330321788184em" fill="#aaa"/><rect width="0.09615384615384616em" height="0.8640929522280637em" x="8.076923076923077vw" y="2.135907047771936em" fill="#aaa"/><rect width="0.09615384615384616em" height="0.9409715503571066em" x="8.173076923076923vw" y="2.059028449642893em" fill="#aaa"/><rect width="0.09615384615384616em" height="0.9325509245766543em" x="8.26923076923077vw" y="2.0674490754233457em" fill="#aaa"/><rect width="0.09615384615384616em" height="1.161570954124959em" x="8.365384615384615vw" y="1.838429045875041em" fill="#aaa"/><rect width="0.09615384615384616em" height="1.0525962857418427em" x="8.461538461538462vw" y="1.9474037142581573em" fill="#aaa"/><rect width="0.09615384615384616em" height="0.9908417102707032em" x="8.557692307692308vw" y="2.0091582897292968em" fill="#aaa"/><rect width="0.09615384615384616em" height="1.1521446028472786em" x="8.653846153846155vw" y="1.8478553971527214em" fill="#aaa"/><rect width="0.09615384615384616em" height="1.0312193234312876em" x="8.75vw" y="1.9687806765687124em" fill="#aaa"/><rect width="0.09615384615384616em" height="0.9255088195379003em" x="8.846153846153847vw" y="2.0744911804620996em" fill="#aaa"/><rect width="0.09615384615384616em" height="1.432168245062243em" x="8.942307692307693vw" y="1.567831754937757em" fill="#aaa"/><rect width="0.09615384615384616em" height="1.0682982660250324em" x="9.038461538461538vw" y="1.9317017339749676em" fill="#aaa"/><rect width="0.09615384615384616em" height="1.0002307918298408em" x="9.134615384615385vw" y="1.9997692081701592em" fill="#aaa"/><rect width="0.09615384615384616em" height="1.0917902966410251em" x="9.230769230769232vw" y="1.9082097033589749em" fill="#aaa"/><rect width="0.09615384615384616em" height="1.2251098308019066em" x="9.326923076923077vw" y="1.7748901691980934em" fill="#aaa"/><rect width="0.09615384615384616em" height="1.4473049493140437em" x="9.423076923076923vw" y="1.5526950506859563em" fill="#aaa"/><rect width="0.09615384615384616em" height="0.7738380756235191em" x="9.51923076923077vw" y="2.226161924376481em" fill="#aaa"/><rect width="0.09615384615384616em" height="0.912381593025934em" x="9.615384615384617vw" y="2.087618406974066em" fill="#aaa"/><rect width="0.09615384615384616em" height="1.009721373979513em" x="9.711538461538462vw" y="1.990278626020487em" fill="#aaa"/><rect width="0.09615384615384616em" height="1.147972816610173em" x="9.807692307692308vw" y="1.852027183389827em" fill="#aaa"/><rect width="0.09615384615384616em" height="1.2860748796300596em" x="9.903846153846155vw" y="1.7139251203699404em" fill="#aaa"/></svg>