<?xml version="1.0" standalone="no"?>
<svg xmlns:xlink="http://www.w3.org/1999/xlink" xmlns="http://www.w3.org/2000/svg" class="topic-graph" style="width: 10vw; height: 3em; text-align: center;"><rect width="0.09615384615384616em" height="0.2476611902405767em" x="0vw" y="2.7523388097594235em" fill="#aaa"/><rect width="0.09615384615384616em" height="0.06151758228025142em" x="0.09615384615384616vw" y="2.9384824177197486em" fill="#aaa"/><rect width="0.09615384615384616em" height="0.022576164231258994em" x="0.19230769230769232vw" y="2.977423835768741em" fill="#aaa"/><rect width="0.09615384615384616em" height="0.05391701047945285em" x="0.2884615384615385vw" y="2.9460829895205474em" fill="#aaa"/><rect width="0.09615384615384616em" height="0.06355548224369122em" x="0.38461538461538464vw" y="2.9364445177563088em" fill="#aaa"/><rect width="0.09615384615384616em" height="1.0203445150286068em" x="0.4807692307692308vw" y="1.9796554849713932em" fill="#aaa"/><rect width="0.09615384615384616em" height="0.7960447139132281em" x="0.576923076923077vw" y="2.2039552860867717em" fill="#aaa"/><rect width="0.09615384615384616em" height="0.43669118795490913em" x="0.6730769230769231vw" y="2.563308812045091em" fill="#aaa"/><rect width="0.09615384615384616em" height="0.08335651776904635em" x="0.7692307692307693vw" y="2.9166434822309535em" fill="#aaa"/><rect width="0.09615384615384616em" height="0.6797820976942491em" x="0.8653846153846154vw" y="2.320217902305751em" fill="#aaa"/><rect width="0.09615384615384616em" height="1.0175970273084185em" x="0.9615384615384616vw" y="1.9824029726915815em" fill="#aaa"/><rect width="0.09615384615384616em" height="0.4790423687371911em" x="1.0576923076923077vw" y="2.520957631262809em" fill="#aaa"/><rect width="0.09615384615384616em" height="1.2436736044603882em" x="1.153846153846154vw" y="1.7563263955396118em" fill="#aaa"/><rect width="0.09615384615384616em" height="0.5540301120828084em" x="1.25vw" y="2.4459698879171916em" fill="#aaa"/><rect width="0.09615384615384616em" height="0.0902122146545772em" x="1.3461538461538463vw" y="2.9097877853454226em" fill="#aaa"/><rect width="0.09615384615384616em" height="1.0408401804097014em" x="1.4423076923076923vw" y="1.9591598195902986em" fill="#aaa"/><rect width="0.09615384615384616em" height="0.5069353847206222em" x="1.5384615384615385vw" y="2.493064615279378em" fill="#aaa"/><rect width="0.09615384615384616em" height="2.8856727094416623em" x="1.6346153846153848vw" y="0.11432729055833768em" fill="#aaa"/><rect width="0.09615384615384616em" height="1.3530484101221147em" x="1.7307692307692308vw" y="1.6469515898778853em" fill="#aaa"/><rect width="0.09615384615384616em" height="3em" x="1.826923076923077vw" y="0em" fill="#aaa"/><rect width="0.09615384615384616em" height="1.2735652871669192em" x="1.9230769230769231vw" y="1.7264347128330808em" fill="#aaa"/><rect width="0.09615384615384616em" height="0.40915284492756876em" x="2.019230769230769vw" y="2.5908471550724315em" fill="#aaa"/><rect width="0.09615384615384616em" height="0.9529612373798766em" x="2.1153846153846154vw" y="2.047038762620123em" fill="#aaa"/><rect width="0.09615384615384616em" height="0.504939704551588em" x="2.2115384615384617vw" y="2.495060295448412em" fill="#aaa"/><rect width="0.09615384615384616em" height="1.2417352935586545em" x="2.307692307692308vw" y="1.7582647064413455em" fill="#aaa"/><rect width="0.09615384615384616em" height="1.125503133659464em" x="2.403846153846154vw" y="1.874496866340536em" fill="#aaa"/><rect width="0.09615384615384616em" height="0.6992381941108188em" x="2.5vw" y="2.300761805889181em" fill="#aaa"/><rect width="0.09615384615384616em" height="1.171474122481876em" x="2.5961538461538463vw" y="1.828525877518124em" fill="#aaa"/><rect width="0.09615384615384616em" height="0.8639520703291129em" x="2.6923076923076925vw" y="2.136047929670887em" fill="#aaa"/><rect width="0.09615384615384616em" height="1.191141873403263em" x="2.7884615384615388vw" y="1.808858126596737em" fill="#aaa"/><rect width="0.09615384615384616em" height="0.9208412311502183em" x="2.8846153846153846vw" y="2.0791587688497817em" fill="#aaa"/><rect width="0.09615384615384616em" height="1.6950572612505215em" x="2.980769230769231vw" y="1.3049427387494785em" fill="#aaa"/><rect width="0.09615384615384616em" height="1.3567189052493807em" x="3.076923076923077vw" y="1.6432810947506193em" fill="#aaa"/><rect width="0.09615384615384616em" height="0.7897046053880337em" x="3.1730769230769234vw" y="2.2102953946119666em" fill="#aaa"/><rect width="0.09615384615384616em" height="0.7330562188398524em" x="3.2692307692307696vw" y="2.2669437811601476em" fill="#aaa"/><rect width="0.09615384615384616em" height="0.5509912490462288em" x="3.3653846153846154vw" y="2.4490087509537712em" fill="#aaa"/><rect width="0.09615384615384616em" height="0.13210491394385537em" x="3.4615384615384617vw" y="2.8678950860561447em" fill="#aaa"/><rect width="0.09615384615384616em" height="0.32907130733734785em" x="3.557692307692308vw" y="2.670928692662652em" fill="#aaa"/><rect width="0.09615384615384616em" height="0.548988327056095em" x="3.653846153846154vw" y="2.451011672943905em" fill="#aaa"/><rect width="0.09615384615384616em" height="0.5323450835665051em" x="3.75vw" y="2.467654916433495em" fill="#aaa"/><rect width="0.09615384615384616em" height="0.44736676514313956em" x="3.8461538461538463vw" y="2.5526332348568603em" fill="#aaa"/><rect width="0.09615384615384616em" height="0.28088873604311165em" x="3.9423076923076925vw" y="2.719111263956888em" fill="#aaa"/><rect width="0.09615384615384616em" height="2.0902759135752493em" x="4.038461538461538vw" y="0.9097240864247507em" fill="#aaa"/><rect width="0.09615384615384616em" height="2.0395735269338227em" x="4.134615384615385vw" y="0.9604264730661773em" fill="#aaa"/><rect width="0.09615384615384616em" height="1.4015833053551972em" x="4.230769230769231vw" y="1.5984166946448028em" fill="#aaa"/><rect width="0.09615384615384616em" height="0.2632259804161565em" x="4.3269230769230775vw" y="2.7367740195838435em" fill="#aaa"/><rect width="0.09615384615384616em" height="0.29056475936790815em" x="4.423076923076923vw" y="2.709435240632092em" fill="#aaa"/><rect width="0.09615384615384616em" height="0.291247407574032em" x="4.519230769230769vw" y="2.708752592425968em" fill="#aaa"/><rect width="0.09615384615384616em" height="0.273189618771542em" x="4.615384615384616vw" y="2.726810381228458em" fill="#aaa"/><rect width="0.09615384615384616em" height="0.17085558599766773em" x="4.711538461538462vw" y="2.8291444140023323em" fill="#aaa"/><rect width="0.09615384615384616em" height="0.02666900867633775em" x="4.807692307692308vw" y="2.973330991323662em" fill="#aaa"/><rect width="0.09615384615384616em" height="0.31865839175509164em" x="4.903846153846154vw" y="2.6813416082449084em" fill="#aaa"/><rect width="0.09615384615384616em" height="0.18099057114793915em" x="5vw" y="2.819009428852061em" fill="#aaa"/><rect width="0.09615384615384616em" height="0.17475140887918864em" x="5.096153846153847vw" y="2.825248591120811em" fill="#aaa"/><rect width="0.09615384615384616em" height="0.34431871195343977em" x="5.1923076923076925vw" y="2.6556812880465603em" fill="#aaa"/><rect width="0.09615384615384616em" height="0.3612135134265475em" x="5.288461538461538vw" y="2.6387864865734523em" fill="#aaa"/><rect width="0.09615384615384616em" height="0.5167735457774829em" x="5.384615384615385vw" y="2.483226454222517em" fill="#aaa"/><rect width="0.09615384615384616em" height="0.3448548555214833em" x="5.480769230769231vw" y="2.655145144478517em" fill="#aaa"/><rect width="0.09615384615384616em" height="0.25201365094587397em" x="5.5769230769230775vw" y="2.747986349054126em" fill="#aaa"/><rect width="0.09615384615384616em" height="0.6148284095194432em" x="5.673076923076923vw" y="2.3851715904805566em" fill="#aaa"/><rect width="0.09615384615384616em" height="0.13233516212433175em" x="5.769230769230769vw" y="2.8676648378756684em" fill="#aaa"/><rect width="0.09615384615384616em" height="0.13902718701402048em" x="5.865384615384616vw" y="2.8609728129859797em" fill="#aaa"/><rect width="0.09615384615384616em" height="0.22422875223191635em" x="5.961538461538462vw" y="2.7757712477680836em" fill="#aaa"/><rect width="0.09615384615384616em" height="0.22558662082168657em" x="6.057692307692308vw" y="2.7744133791783137em" fill="#aaa"/><rect width="0.09615384615384616em" height="0.10653973600532728em" x="6.153846153846154vw" y="2.893460263994673em" fill="#aaa"/><rect width="0.09615384615384616em" height="0.2746812083028066em" x="6.25vw" y="2.7253187916971933em" fill="#aaa"/><rect width="0.09615384615384616em" height="0.16744260065985467em" x="6.346153846153847vw" y="2.8325573993401454em" fill="#aaa"/><rect width="0.09615384615384616em" height="0.05136481499804646em" x="6.4423076923076925vw" y="2.9486351850019537em" fill="#aaa"/><rect width="0.09615384615384616em" height="0.31047207572617325em" x="6.538461538461539vw" y="2.689527924273827em" fill="#aaa"/><rect width="0.09615384615384616em" height="0.17075370143179341em" x="6.634615384615385vw" y="2.8292462985682065em" fill="#aaa"/><rect width="0.09615384615384616em" height="0.3699993310403226em" x="6.730769230769231vw" y="2.6300006689596773em" fill="#aaa"/><rect width="0.09615384615384616em" height="0.1689993859612629em" x="6.8269230769230775vw" y="2.831000614038737em" fill="#aaa"/><rect width="0.09615384615384616em" height="0.14300681579026567em" x="6.923076923076923vw" y="2.8569931842097342em" fill="#aaa"/><rect width="0.09615384615384616em" height="0.18441238567393592em" x="7.01923076923077vw" y="2.815587614326064em" fill="#aaa"/><rect width="0.09615384615384616em" height="0.05604630320246101em" x="7.115384615384616vw" y="2.943953696797539em" fill="#aaa"/><rect width="0.09615384615384616em" height="0.0829296533545356em" x="7.211538461538462vw" y="2.9170703466454646em" fill="#aaa"/><rect width="0.09615384615384616em" height="0.11653517823514775em" x="7.307692307692308vw" y="2.883464821764852em" fill="#aaa"/><rect width="0.09615384615384616em" height="0.21727262042118528em" x="7.403846153846154vw" y="2.7827273795788146em" fill="#aaa"/><rect width="0.09615384615384616em" height="0.11931508607290303em" x="7.5vw" y="2.880684913927097em" fill="#aaa"/><rect width="0.09615384615384616em" height="0.12267762682583212em" x="7.596153846153847vw" y="2.877322373174168em" fill="#aaa"/><rect width="0.09615384615384616em" height="0.05524507924077758em" x="7.6923076923076925vw" y="2.9447549207592223em" fill="#aaa"/><rect width="0.09615384615384616em" height="0.11425782835850679em" x="7.788461538461539vw" y="2.885742171641493em" fill="#aaa"/><rect width="0.09615384615384616em" height="0.08164987359783228em" x="7.884615384615385vw" y="2.9183501264021676em" fill="#aaa"/><rect width="0.09615384615384616em" height="0.09812426719741653em" x="7.980769230769231vw" y="2.9018757328025835em" fill="#aaa"/><rect width="0.09615384615384616em" height="0.09193758689607687em" x="8.076923076923077vw" y="2.908062413103923em" fill="#aaa"/><rect width="0.09615384615384616em" height="0.1032164109884386em" x="8.173076923076923vw" y="2.8967835890115614em" fill="#aaa"/><rect width="0.09615384615384616em" height="0.04309633731486565em" x="8.26923076923077vw" y="2.9569036626851344em" fill="#aaa"/><rect width="0.09615384615384616em" height="0.07557960328188137em" x="8.365384615384615vw" y="2.924420396718119em" fill="#aaa"/><rect width="0.09615384615384616em" height="0.06088239820370503em" x="8.461538461538462vw" y="2.939117601796295em" fill="#aaa"/><rect width="0.09615384615384616em" height="0.0508079846275123em" x="8.557692307692308vw" y="2.9491920153724878em" fill="#aaa"/><rect width="0.09615384615384616em" height="0.09111430079087474em" x="8.653846153846155vw" y="2.9088856992091254em" fill="#aaa"/><rect width="0.09615384615384616em" height="0.08313345755924564em" x="8.75vw" y="2.9168665424407543em" fill="#aaa"/><rect width="0.09615384615384616em" height="0.06726143714649765em" x="8.846153846153847vw" y="2.9327385628535025em" fill="#aaa"/><rect width="0.09615384615384616em" height="0.11330110560718111em" x="8.942307692307693vw" y="2.886698894392819em" fill="#aaa"/><rect width="0.09615384615384616em" height="0.0852356980810943em" x="9.038461538461538vw" y="2.914764301918906em" fill="#aaa"/><rect width="0.09615384615384616em" height="0.09760785916733472em" x="9.134615384615385vw" y="2.9023921408326654em" fill="#aaa"/><rect width="0.09615384615384616em" height="0.08108968961499309em" x="9.230769230769232vw" y="2.918910310385007em" fill="#aaa"/><rect width="0.09615384615384616em" height="0.07928382515770427em" x="9.326923076923077vw" y="2.920716174842296em" fill="#aaa"/><rect width="0.09615384615384616em" height="0.050954739979489475em" x="9.423076923076923vw" y="2.9490452600205104em" fill="#aaa"/><rect width="0.09615384615384616em" height="0.04673455000028322em" x="9.51923076923077vw" y="2.9532654499997166em" fill="#aaa"/><rect width="0.09615384615384616em" height="0.04481253988553559em" x="9.615384615384617vw" y="2.9551874601144643em" fill="#aaa"/><rect width="0.09615384615384616em" height="0.07908991110557542em" x="9.711538461538462vw" y="2.9209100888944244em" fill="#aaa"/><rect width="0.09615384615384616em" height="0.09506217191131314em" x="9.807692307692308vw" y="2.904937828088687em" fill="#aaa"/><rect width="0.09615384615384616em" height="0.10295671912038294em" x="9.903846153846155vw" y="2.897043280879617em" fill="#aaa"/></svg>