<?xml version="1.0" standalone="no"?>
<svg xmlns:xlink="http://www.w3.org/1999/xlink" xmlns="http://www.w3.org/2000/svg" class="topic-graph" style="width: 10vw; height: 3em; text-align: center;"><rect width="0.09615384615384616em" height="0.9417388864464913em" x="0vw" y="2.0582611135535087em" fill="#aaa"/><rect width="0.09615384615384616em" height="2.5878466550071253em" x="0.09615384615384616vw" y="0.4121533449928747em" fill="#aaa"/><rect width="0.09615384615384616em" height="1.4033983845393794em" x="0.19230769230769232vw" y="1.5966016154606206em" fill="#aaa"/><rect width="0.09615384615384616em" height="1.3455113989578957em" x="0.2884615384615385vw" y="1.6544886010421043em" fill="#aaa"/><rect width="0.09615384615384616em" height="1.1440530290660986em" x="0.38461538461538464vw" y="1.8559469709339014em" fill="#aaa"/><rect width="0.09615384615384616em" height="1.5707502189497276em" x="0.4807692307692308vw" y="1.4292497810502724em" fill="#aaa"/><rect width="0.09615384615384616em" height="0.991615559519375em" x="0.576923076923077vw" y="2.008384440480625em" fill="#aaa"/><rect width="0.09615384615384616em" height="2.3636321548399675em" x="0.6730769230769231vw" y="0.6363678451600325em" fill="#aaa"/><rect width="0.09615384615384616em" height="1.7600215093456621em" x="0.7692307692307693vw" y="1.2399784906543379em" fill="#aaa"/><rect width="0.09615384615384616em" height="1.6544316744781722em" x="0.8653846153846154vw" y="1.3455683255218278em" fill="#aaa"/><rect width="0.09615384615384616em" height="1.2786205273877493em" x="0.9615384615384616vw" y="1.7213794726122507em" fill="#aaa"/><rect width="0.09615384615384616em" height="3em" x="1.0576923076923077vw" y="0em" fill="#aaa"/><rect width="0.09615384615384616em" height="1.6252374656178912em" x="1.153846153846154vw" y="1.3747625343821088em" fill="#aaa"/><rect width="0.09615384615384616em" height="1.4462387158617886em" x="1.25vw" y="1.5537612841382114em" fill="#aaa"/><rect width="0.09615384615384616em" height="1.9210707170012697em" x="1.3461538461538463vw" y="1.0789292829987303em" fill="#aaa"/><rect width="0.09615384615384616em" height="1.6844357251315842em" x="1.4423076923076923vw" y="1.3155642748684158em" fill="#aaa"/><rect width="0.09615384615384616em" height="1.6253259910061495em" x="1.5384615384615385vw" y="1.3746740089938505em" fill="#aaa"/><rect width="0.09615384615384616em" height="1.04168619342081em" x="1.6346153846153848vw" y="1.95831380657919em" fill="#aaa"/><rect width="0.09615384615384616em" height="1.6527634231107438em" x="1.7307692307692308vw" y="1.3472365768892562em" fill="#aaa"/><rect width="0.09615384615384616em" height="1.6304609152701892em" x="1.826923076923077vw" y="1.3695390847298108em" fill="#aaa"/><rect width="0.09615384615384616em" height="1.8518210377409887em" x="1.9230769230769231vw" y="1.1481789622590113em" fill="#aaa"/><rect width="0.09615384615384616em" height="2.4799286814006862em" x="2.019230769230769vw" y="0.5200713185993138em" fill="#aaa"/><rect width="0.09615384615384616em" height="1.9423329507053622em" x="2.1153846153846154vw" y="1.0576670492946378em" fill="#aaa"/><rect width="0.09615384615384616em" height="1.4984586189982732em" x="2.2115384615384617vw" y="1.5015413810017268em" fill="#aaa"/><rect width="0.09615384615384616em" height="1.9951405969237874em" x="2.307692307692308vw" y="1.0048594030762126em" fill="#aaa"/><rect width="0.09615384615384616em" height="1.9924023296373208em" x="2.403846153846154vw" y="1.0075976703626792em" fill="#aaa"/><rect width="0.09615384615384616em" height="1.862333801759895em" x="2.5vw" y="1.137666198240105em" fill="#aaa"/><rect width="0.09615384615384616em" height="1.3247831134976695em" x="2.5961538461538463vw" y="1.6752168865023305em" fill="#aaa"/><rect width="0.09615384615384616em" height="1.7699068838236665em" x="2.6923076923076925vw" y="1.2300931161763335em" fill="#aaa"/><rect width="0.09615384615384616em" height="2.2018564548968893em" x="2.7884615384615388vw" y="0.7981435451031107em" fill="#aaa"/><rect width="0.09615384615384616em" height="1.8840107234467518em" x="2.8846153846153846vw" y="1.1159892765532482em" fill="#aaa"/><rect width="0.09615384615384616em" height="2.335398100079784em" x="2.980769230769231vw" y="0.6646018999202159em" fill="#aaa"/><rect width="0.09615384615384616em" height="2.0155645969393787em" x="3.076923076923077vw" y="0.9844354030606213em" fill="#aaa"/><rect width="0.09615384615384616em" height="2.17439114415708em" x="3.1730769230769234vw" y="0.82560885584292em" fill="#aaa"/><rect width="0.09615384615384616em" height="2.1211674681395296em" x="3.2692307692307696vw" y="0.8788325318604704em" fill="#aaa"/><rect width="0.09615384615384616em" height="2.301997581251869em" x="3.3653846153846154vw" y="0.6980024187481311em" fill="#aaa"/><rect width="0.09615384615384616em" height="2.548073520107512em" x="3.4615384615384617vw" y="0.4519264798924878em" fill="#aaa"/><rect width="0.09615384615384616em" height="2.704183242606251em" x="3.557692307692308vw" y="0.2958167573937489em" fill="#aaa"/><rect width="0.09615384615384616em" height="2.1470567185562333em" x="3.653846153846154vw" y="0.8529432814437667em" fill="#aaa"/><rect width="0.09615384615384616em" height="2.798955160216318em" x="3.75vw" y="0.20104483978368215em" fill="#aaa"/><rect width="0.09615384615384616em" height="1.9407318058962335em" x="3.8461538461538463vw" y="1.0592681941037665em" fill="#aaa"/><rect width="0.09615384615384616em" height="1.944604360462717em" x="3.9423076923076925vw" y="1.055395639537283em" fill="#aaa"/><rect width="0.09615384615384616em" height="2.0481621554496607em" x="4.038461538461538vw" y="0.9518378445503393em" fill="#aaa"/><rect width="0.09615384615384616em" height="1.6359082305881585em" x="4.134615384615385vw" y="1.3640917694118415em" fill="#aaa"/><rect width="0.09615384615384616em" height="1.5589574752207884em" x="4.230769230769231vw" y="1.4410425247792116em" fill="#aaa"/><rect width="0.09615384615384616em" height="1.7325678423457562em" x="4.3269230769230775vw" y="1.2674321576542438em" fill="#aaa"/><rect width="0.09615384615384616em" height="2.000901943952em" x="4.423076923076923vw" y="0.9990980560480001em" fill="#aaa"/><rect width="0.09615384615384616em" height="2.596305990090313em" x="4.519230769230769vw" y="0.40369400990968707em" fill="#aaa"/><rect width="0.09615384615384616em" height="2.5656152771022573em" x="4.615384615384616vw" y="0.43438472289774266em" fill="#aaa"/><rect width="0.09615384615384616em" height="2.3714193950919205em" x="4.711538461538462vw" y="0.6285806049080795em" fill="#aaa"/><rect width="0.09615384615384616em" height="2.3392791225136715em" x="4.807692307692308vw" y="0.6607208774863285em" fill="#aaa"/><rect width="0.09615384615384616em" height="1.9535243381981164em" x="4.903846153846154vw" y="1.0464756618018836em" fill="#aaa"/><rect width="0.09615384615384616em" height="2.0148071308632924em" x="5vw" y="0.9851928691367076em" fill="#aaa"/><rect width="0.09615384615384616em" height="2.7709397532547677em" x="5.096153846153847vw" y="0.2290602467452323em" fill="#aaa"/><rect width="0.09615384615384616em" height="2.6573913712527792em" x="5.1923076923076925vw" y="0.34260862874722076em" fill="#aaa"/><rect width="0.09615384615384616em" height="2.005253319405299em" x="5.288461538461538vw" y="0.9947466805947012em" fill="#aaa"/><rect width="0.09615384615384616em" height="2.2473867226252695em" x="5.384615384615385vw" y="0.7526132773747305em" fill="#aaa"/><rect width="0.09615384615384616em" height="2.1570245172137805em" x="5.480769230769231vw" y="0.8429754827862195em" fill="#aaa"/><rect width="0.09615384615384616em" height="1.9745195349960127em" x="5.5769230769230775vw" y="1.0254804650039873em" fill="#aaa"/><rect width="0.09615384615384616em" height="1.7841720781608792em" x="5.673076923076923vw" y="1.2158279218391208em" fill="#aaa"/><rect width="0.09615384615384616em" height="2.011023864454805em" x="5.769230769230769vw" y="0.9889761355451951em" fill="#aaa"/><rect width="0.09615384615384616em" height="2.222468747717378em" x="5.865384615384616vw" y="0.7775312522826221em" fill="#aaa"/><rect width="0.09615384615384616em" height="1.8775474209028002em" x="5.961538461538462vw" y="1.1224525790971998em" fill="#aaa"/><rect width="0.09615384615384616em" height="2.541811427301584em" x="6.057692307692308vw" y="0.45818857269841606em" fill="#aaa"/><rect width="0.09615384615384616em" height="2.0240510177358257em" x="6.153846153846154vw" y="0.9759489822641743em" fill="#aaa"/><rect width="0.09615384615384616em" height="2.020492512650151em" x="6.25vw" y="0.9795074873498488em" fill="#aaa"/><rect width="0.09615384615384616em" height="2.368142341081948em" x="6.346153846153847vw" y="0.6318576589180518em" fill="#aaa"/><rect width="0.09615384615384616em" height="2.0777616086520823em" x="6.4423076923076925vw" y="0.9222383913479177em" fill="#aaa"/><rect width="0.09615384615384616em" height="2.0414828909066376em" x="6.538461538461539vw" y="0.9585171090933624em" fill="#aaa"/><rect width="0.09615384615384616em" height="1.8828124910838593em" x="6.634615384615385vw" y="1.1171875089161407em" fill="#aaa"/><rect width="0.09615384615384616em" height="2.357217589567607em" x="6.730769230769231vw" y="0.6427824104323929em" fill="#aaa"/><rect width="0.09615384615384616em" height="2.7115302589775334em" x="6.8269230769230775vw" y="0.2884697410224666em" fill="#aaa"/><rect width="0.09615384615384616em" height="2.1662929784860485em" x="6.923076923076923vw" y="0.8337070215139515em" fill="#aaa"/><rect width="0.09615384615384616em" height="2.472727759577696em" x="7.01923076923077vw" y="0.5272722404223038em" fill="#aaa"/><rect width="0.09615384615384616em" height="2.4938172564546095em" x="7.115384615384616vw" y="0.5061827435453905em" fill="#aaa"/><rect width="0.09615384615384616em" height="2.531508957598198em" x="7.211538461538462vw" y="0.46849104240180184em" fill="#aaa"/><rect width="0.09615384615384616em" height="2.202128711714179em" x="7.307692307692308vw" y="0.7978712882858212em" fill="#aaa"/><rect width="0.09615384615384616em" height="2.198748042887742em" x="7.403846153846154vw" y="0.801251957112258em" fill="#aaa"/><rect width="0.09615384615384616em" height="2.1760510729250746em" x="7.5vw" y="0.8239489270749254em" fill="#aaa"/><rect width="0.09615384615384616em" height="2.1107337676943256em" x="7.596153846153847vw" y="0.8892662323056744em" fill="#aaa"/><rect width="0.09615384615384616em" height="2.2929959197692513em" x="7.6923076923076925vw" y="0.7070040802307487em" fill="#aaa"/><rect width="0.09615384615384616em" height="2.360709639103439em" x="7.788461538461539vw" y="0.639290360896561em" fill="#aaa"/><rect width="0.09615384615384616em" height="2.016980067266466em" x="7.884615384615385vw" y="0.983019932733534em" fill="#aaa"/><rect width="0.09615384615384616em" height="1.7977286143862106em" x="7.980769230769231vw" y="1.2022713856137894em" fill="#aaa"/><rect width="0.09615384615384616em" height="2.15458664909688em" x="8.076923076923077vw" y="0.8454133509031201em" fill="#aaa"/><rect width="0.09615384615384616em" height="2.457836586932503em" x="8.173076923076923vw" y="0.542163413067497em" fill="#aaa"/><rect width="0.09615384615384616em" height="2.077824255614418em" x="8.26923076923077vw" y="0.9221757443855818em" fill="#aaa"/><rect width="0.09615384615384616em" height="1.86176457608507em" x="8.365384615384615vw" y="1.13823542391493em" fill="#aaa"/><rect width="0.09615384615384616em" height="2.2806307393909346em" x="8.461538461538462vw" y="0.7193692606090654em" fill="#aaa"/><rect width="0.09615384615384616em" height="2.2682395638636117em" x="8.557692307692308vw" y="0.7317604361363883em" fill="#aaa"/><rect width="0.09615384615384616em" height="2.2814500680297085em" x="8.653846153846155vw" y="0.7185499319702915em" fill="#aaa"/><rect width="0.09615384615384616em" height="1.8814655736640424em" x="8.75vw" y="1.1185344263359576em" fill="#aaa"/><rect width="0.09615384615384616em" height="2.0831762287770266em" x="8.846153846153847vw" y="0.9168237712229734em" fill="#aaa"/><rect width="0.09615384615384616em" height="1.8592961874508989em" x="8.942307692307693vw" y="1.1407038125491011em" fill="#aaa"/><rect width="0.09615384615384616em" height="1.7105066806020726em" x="9.038461538461538vw" y="1.2894933193979274em" fill="#aaa"/><rect width="0.09615384615384616em" height="1.7329806739666802em" x="9.134615384615385vw" y="1.2670193260333198em" fill="#aaa"/><rect width="0.09615384615384616em" height="1.7084008302459042em" x="9.230769230769232vw" y="1.2915991697540958em" fill="#aaa"/><rect width="0.09615384615384616em" height="1.7242514304599412em" x="9.326923076923077vw" y="1.2757485695400588em" fill="#aaa"/><rect width="0.09615384615384616em" height="1.6299840503741287em" x="9.423076923076923vw" y="1.3700159496258713em" fill="#aaa"/><rect width="0.09615384615384616em" height="1.7450309809893207em" x="9.51923076923077vw" y="1.2549690190106793em" fill="#aaa"/><rect width="0.09615384615384616em" height="1.5712839656877735em" x="9.615384615384617vw" y="1.4287160343122265em" fill="#aaa"/><rect width="0.09615384615384616em" height="2.127615500215148em" x="9.711538461538462vw" y="0.872384499784852em" fill="#aaa"/><rect width="0.09615384615384616em" height="1.8663960643731445em" x="9.807692307692308vw" y="1.1336039356268555em" fill="#aaa"/><rect width="0.09615384615384616em" height="1.8219092267217678em" x="9.903846153846155vw" y="1.1780907732782322em" fill="#aaa"/></svg>