<?xml version="1.0" standalone="no"?>
<svg xmlns:xlink="http://www.w3.org/1999/xlink" xmlns="http://www.w3.org/2000/svg" class="topic-graph" style="width: 10vw; height: 3em; text-align: center;"><rect width="0.09615384615384616em" height="0.5670838168985091em" x="0vw" y="2.432916183101491em" fill="#aaa"/><rect width="0.09615384615384616em" height="0.8103952569325807em" x="0.09615384615384616vw" y="2.1896047430674193em" fill="#aaa"/><rect width="0.09615384615384616em" height="0.40541063912218445em" x="0.19230769230769232vw" y="2.5945893608778157em" fill="#aaa"/><rect width="0.09615384615384616em" height="0.17038260516675172em" x="0.2884615384615385vw" y="2.829617394833248em" fill="#aaa"/><rect width="0.09615384615384616em" height="0.37543270635618214em" x="0.38461538461538464vw" y="2.624567293643818em" fill="#aaa"/><rect width="0.09615384615384616em" height="0.3432920143151969em" x="0.4807692307692308vw" y="2.656707985684803em" fill="#aaa"/><rect width="0.09615384615384616em" height="0.2562517733749494em" x="0.576923076923077vw" y="2.7437482266250504em" fill="#aaa"/><rect width="0.09615384615384616em" height="0.4079827568161211em" x="0.6730769230769231vw" y="2.592017243183879em" fill="#aaa"/><rect width="0.09615384615384616em" height="0.39725167616665136em" x="0.7692307692307693vw" y="2.6027483238333486em" fill="#aaa"/><rect width="0.09615384615384616em" height="0.38051613191688305em" x="0.8653846153846154vw" y="2.619483868083117em" fill="#aaa"/><rect width="0.09615384615384616em" height="0.24374908747141988em" x="0.9615384615384616vw" y="2.7562509125285803em" fill="#aaa"/><rect width="0.09615384615384616em" height="0.6264183752244621em" x="1.0576923076923077vw" y="2.3735816247755377em" fill="#aaa"/><rect width="0.09615384615384616em" height="0.4299574568161374em" x="1.153846153846154vw" y="2.5700425431838627em" fill="#aaa"/><rect width="0.09615384615384616em" height="0.3294939102143949em" x="1.25vw" y="2.670506089785605em" fill="#aaa"/><rect width="0.09615384615384616em" height="0.16527750552381346em" x="1.3461538461538463vw" y="2.8347224944761864em" fill="#aaa"/><rect width="0.09615384615384616em" height="0.41647485699563835em" x="1.4423076923076923vw" y="2.5835251430043615em" fill="#aaa"/><rect width="0.09615384615384616em" height="0.30627187575792836em" x="1.5384615384615385vw" y="2.693728124242072em" fill="#aaa"/><rect width="0.09615384615384616em" height="0.3699713877514439em" x="1.6346153846153848vw" y="2.630028612248556em" fill="#aaa"/><rect width="0.09615384615384616em" height="0.34128541658175465em" x="1.7307692307692308vw" y="2.6587145834182455em" fill="#aaa"/><rect width="0.09615384615384616em" height="0.5446038308481354em" x="1.826923076923077vw" y="2.4553961691518644em" fill="#aaa"/><rect width="0.09615384615384616em" height="0.49866228726093464em" x="1.9230769230769231vw" y="2.5013377127390655em" fill="#aaa"/><rect width="0.09615384615384616em" height="0.6392854645375833em" x="2.019230769230769vw" y="2.360714535462417em" fill="#aaa"/><rect width="0.09615384615384616em" height="0.2483587350443309em" x="2.1153846153846154vw" y="2.751641264955669em" fill="#aaa"/><rect width="0.09615384615384616em" height="0.17534037139844033em" x="2.2115384615384617vw" y="2.8246596286015597em" fill="#aaa"/><rect width="0.09615384615384616em" height="0.23684107208566801em" x="2.307692307692308vw" y="2.763158927914332em" fill="#aaa"/><rect width="0.09615384615384616em" height="0.6241052043038273em" x="2.403846153846154vw" y="2.3758947956961727em" fill="#aaa"/><rect width="0.09615384615384616em" height="0.4331868542877614em" x="2.5vw" y="2.5668131457122385em" fill="#aaa"/><rect width="0.09615384615384616em" height="0.3138507337551763em" x="2.5961538461538463vw" y="2.686149266244824em" fill="#aaa"/><rect width="0.09615384615384616em" height="0.2786715747612731em" x="2.6923076923076925vw" y="2.721328425238727em" fill="#aaa"/><rect width="0.09615384615384616em" height="0.36533028166259546em" x="2.7884615384615388vw" y="2.6346697183374044em" fill="#aaa"/><rect width="0.09615384615384616em" height="0.3686910207405213em" x="2.8846153846153846vw" y="2.6313089792594786em" fill="#aaa"/><rect width="0.09615384615384616em" height="0.40622318358225434em" x="2.980769230769231vw" y="2.5937768164177455em" fill="#aaa"/><rect width="0.09615384615384616em" height="0.6040232462610162em" x="3.076923076923077vw" y="2.3959767537389838em" fill="#aaa"/><rect width="0.09615384615384616em" height="0.2531705610908258em" x="3.1730769230769234vw" y="2.7468294389091743em" fill="#aaa"/><rect width="0.09615384615384616em" height="0.5028263033790644em" x="3.2692307692307696vw" y="2.4971736966209357em" fill="#aaa"/><rect width="0.09615384615384616em" height="0.3549290681822556em" x="3.3653846153846154vw" y="2.6450709318177443em" fill="#aaa"/><rect width="0.09615384615384616em" height="0.4763049062158645em" x="3.4615384615384617vw" y="2.5236950937841356em" fill="#aaa"/><rect width="0.09615384615384616em" height="0.7412992325279879em" x="3.557692307692308vw" y="2.2587007674720123em" fill="#aaa"/><rect width="0.09615384615384616em" height="0.7666877309267701em" x="3.653846153846154vw" y="2.23331226907323em" fill="#aaa"/><rect width="0.09615384615384616em" height="0.32610334503093835em" x="3.75vw" y="2.6738966549690617em" fill="#aaa"/><rect width="0.09615384615384616em" height="0.45922323992684455em" x="3.8461538461538463vw" y="2.5407767600731557em" fill="#aaa"/><rect width="0.09615384615384616em" height="0.26362504165198053em" x="3.9423076923076925vw" y="2.7363749583480192em" fill="#aaa"/><rect width="0.09615384615384616em" height="0.5230895349737815em" x="4.038461538461538vw" y="2.4769104650262186em" fill="#aaa"/><rect width="0.09615384615384616em" height="0.745304583636593em" x="4.134615384615385vw" y="2.2546954163634068em" fill="#aaa"/><rect width="0.09615384615384616em" height="0.667011834156436em" x="4.230769230769231vw" y="2.332988165843564em" fill="#aaa"/><rect width="0.09615384615384616em" height="0.5853829252110976em" x="4.3269230769230775vw" y="2.4146170747889024em" fill="#aaa"/><rect width="0.09615384615384616em" height="0.7686263478069932em" x="4.423076923076923vw" y="2.2313736521930068em" fill="#aaa"/><rect width="0.09615384615384616em" height="0.7829173859997565em" x="4.519230769230769vw" y="2.2170826140002435em" fill="#aaa"/><rect width="0.09615384615384616em" height="0.6108848817876893em" x="4.615384615384616vw" y="2.3891151182123105em" fill="#aaa"/><rect width="0.09615384615384616em" height="0.5050962694603018em" x="4.711538461538462vw" y="2.494903730539698em" fill="#aaa"/><rect width="0.09615384615384616em" height="0.4921123181194602em" x="4.807692307692308vw" y="2.50788768188054em" fill="#aaa"/><rect width="0.09615384615384616em" height="0.661044455603754em" x="4.903846153846154vw" y="2.3389555443962458em" fill="#aaa"/><rect width="0.09615384615384616em" height="0.47643702122532916em" x="5vw" y="2.5235629787746707em" fill="#aaa"/><rect width="0.09615384615384616em" height="0.3969393379296785em" x="5.096153846153847vw" y="2.6030606620703214em" fill="#aaa"/><rect width="0.09615384615384616em" height="0.548838798855209em" x="5.1923076923076925vw" y="2.451161201144791em" fill="#aaa"/><rect width="0.09615384615384616em" height="0.6094687755506718em" x="5.288461538461538vw" y="2.390531224449328em" fill="#aaa"/><rect width="0.09615384615384616em" height="0.6107800341071608em" x="5.384615384615385vw" y="2.3892199658928392em" fill="#aaa"/><rect width="0.09615384615384616em" height="0.7798899249137261em" x="5.480769230769231vw" y="2.220110075086274em" fill="#aaa"/><rect width="0.09615384615384616em" height="0.7197603667708958em" x="5.5769230769230775vw" y="2.280239633229104em" fill="#aaa"/><rect width="0.09615384615384616em" height="0.7518483452798028em" x="5.673076923076923vw" y="2.248151654720197em" fill="#aaa"/><rect width="0.09615384615384616em" height="0.5573399214211823em" x="5.769230769230769vw" y="2.4426600785788177em" fill="#aaa"/><rect width="0.09615384615384616em" height="0.7151734999529407em" x="5.865384615384616vw" y="2.2848265000470596em" fill="#aaa"/><rect width="0.09615384615384616em" height="0.7809294724995312em" x="5.961538461538462vw" y="2.219070527500469em" fill="#aaa"/><rect width="0.09615384615384616em" height="0.7705374194555865em" x="6.057692307692308vw" y="2.2294625805444133em" fill="#aaa"/><rect width="0.09615384615384616em" height="0.7837583918123493em" x="6.153846153846154vw" y="2.2162416081876506em" fill="#aaa"/><rect width="0.09615384615384616em" height="1.0046978347849977em" x="6.25vw" y="1.9953021652150023em" fill="#aaa"/><rect width="0.09615384615384616em" height="0.7965230070466032em" x="6.346153846153847vw" y="2.203476992953397em" fill="#aaa"/><rect width="0.09615384615384616em" height="0.895967941228452em" x="6.4423076923076925vw" y="2.1040320587715478em" fill="#aaa"/><rect width="0.09615384615384616em" height="1.1425488372641759em" x="6.538461538461539vw" y="1.8574511627358241em" fill="#aaa"/><rect width="0.09615384615384616em" height="0.969072720228924em" x="6.634615384615385vw" y="2.030927279771076em" fill="#aaa"/><rect width="0.09615384615384616em" height="0.8777136753130382em" x="6.730769230769231vw" y="2.1222863246869617em" fill="#aaa"/><rect width="0.09615384615384616em" height="0.8441264461974909em" x="6.8269230769230775vw" y="2.1558735538025093em" fill="#aaa"/><rect width="0.09615384615384616em" height="0.847584098332336em" x="6.923076923076923vw" y="2.152415901667664em" fill="#aaa"/><rect width="0.09615384615384616em" height="1.123402349938237em" x="7.01923076923077vw" y="1.876597650061763em" fill="#aaa"/><rect width="0.09615384615384616em" height="0.9970208846591005em" x="7.115384615384616vw" y="2.0029791153408993em" fill="#aaa"/><rect width="0.09615384615384616em" height="1.1393644936691154em" x="7.211538461538462vw" y="1.8606355063308846em" fill="#aaa"/><rect width="0.09615384615384616em" height="1.1357190538445379em" x="7.307692307692308vw" y="1.8642809461554621em" fill="#aaa"/><rect width="0.09615384615384616em" height="1.3076473747406905em" x="7.403846153846154vw" y="1.6923526252593095em" fill="#aaa"/><rect width="0.09615384615384616em" height="1.1685484608389083em" x="7.5vw" y="1.8314515391610917em" fill="#aaa"/><rect width="0.09615384615384616em" height="1.3897819451053233em" x="7.596153846153847vw" y="1.6102180548946767em" fill="#aaa"/><rect width="0.09615384615384616em" height="1.478794947037707em" x="7.6923076923076925vw" y="1.521205052962293em" fill="#aaa"/><rect width="0.09615384615384616em" height="1.1870267748185213em" x="7.788461538461539vw" y="1.8129732251814787em" fill="#aaa"/><rect width="0.09615384615384616em" height="1.1236896436040569em" x="7.884615384615385vw" y="1.8763103563959431em" fill="#aaa"/><rect width="0.09615384615384616em" height="1.4513738580306743em" x="7.980769230769231vw" y="1.5486261419693257em" fill="#aaa"/><rect width="0.09615384615384616em" height="1.7417744108881685em" x="8.076923076923077vw" y="1.2582255891118315em" fill="#aaa"/><rect width="0.09615384615384616em" height="2.1910035267121573em" x="8.173076923076923vw" y="0.8089964732878427em" fill="#aaa"/><rect width="0.09615384615384616em" height="2.01634057958904em" x="8.26923076923077vw" y="0.9836594204109601em" fill="#aaa"/><rect width="0.09615384615384616em" height="2.268577322653277em" x="8.365384615384615vw" y="0.731422677346723em" fill="#aaa"/><rect width="0.09615384615384616em" height="2.7601570722082376em" x="8.461538461538462vw" y="0.23984292779176242em" fill="#aaa"/><rect width="0.09615384615384616em" height="2.166438740301367em" x="8.557692307692308vw" y="0.8335612596986328em" fill="#aaa"/><rect width="0.09615384615384616em" height="2.6464729427659455em" x="8.653846153846155vw" y="0.35352705723405453em" fill="#aaa"/><rect width="0.09615384615384616em" height="2.321665909613944em" x="8.75vw" y="0.678334090386056em" fill="#aaa"/><rect width="0.09615384615384616em" height="2.6341671834031755em" x="8.846153846153847vw" y="0.36583281659682454em" fill="#aaa"/><rect width="0.09615384615384616em" height="2.5360866770635373em" x="8.942307692307693vw" y="0.4639133229364627em" fill="#aaa"/><rect width="0.09615384615384616em" height="2.857550500997316em" x="9.038461538461538vw" y="0.1424494990026841em" fill="#aaa"/><rect width="0.09615384615384616em" height="2.9112139035861766em" x="9.134615384615385vw" y="0.0887860964138234em" fill="#aaa"/><rect width="0.09615384615384616em" height="2.6859773787635053em" x="9.230769230769232vw" y="0.3140226212364947em" fill="#aaa"/><rect width="0.09615384615384616em" height="2.704398589901954em" x="9.326923076923077vw" y="0.2956014100980462em" fill="#aaa"/><rect width="0.09615384615384616em" height="3em" x="9.423076923076923vw" y="0em" fill="#aaa"/><rect width="0.09615384615384616em" height="2.7053156172251325em" x="9.51923076923077vw" y="0.2946843827748675em" fill="#aaa"/><rect width="0.09615384615384616em" height="2.754508882017077em" x="9.615384615384617vw" y="0.2454911179829229em" fill="#aaa"/><rect width="0.09615384615384616em" height="2.478899992991476em" x="9.711538461538462vw" y="0.5211000070085241em" fill="#aaa"/><rect width="0.09615384615384616em" height="2.37016955547337em" x="9.807692307692308vw" y="0.6298304445266298em" fill="#aaa"/><rect width="0.09615384615384616em" height="2.5908748601225446em" x="9.903846153846155vw" y="0.40912513987745536em" fill="#aaa"/></svg>