<?xml version="1.0" standalone="no"?>
<svg xmlns:xlink="http://www.w3.org/1999/xlink" xmlns="http://www.w3.org/2000/svg" class="topic-graph" style="width: 100em; height: 30em; text-align: center;"><rect width="0.9615384615384616em" height="0.27857647431074517em" x="0em" y="29.721423525689254em" fill="#aaa"/><rect width="0.9615384615384616em" height="2.2845228130472406em" x="0.9615384615384616em" y="27.71547718695276em" fill="#aaa"/><rect width="0.9615384615384616em" height="0.2281508406977805em" x="1.9230769230769231em" y="29.77184915930222em" fill="#aaa"/><rect width="0.9615384615384616em" height="0.07791278183841141em" x="2.8846153846153846em" y="29.92208721816159em" fill="#aaa"/><rect width="0.9615384615384616em" height="0.4002031016546621em" x="3.8461538461538463em" y="29.59979689834534em" fill="#aaa"/><rect width="0.9615384615384616em" height="0.7683349437953072em" x="4.8076923076923075em" y="29.231665056204694em" fill="#aaa"/><rect width="0.9615384615384616em" height="0.4672356373543435em" x="5.769230769230769em" y="29.532764362645658em" fill="#aaa"/><rect width="0.9615384615384616em" height="0.14954494511975444em" x="6.730769230769231em" y="29.850455054880246em" fill="#aaa"/><rect width="0.9615384615384616em" height="3.6003994727770436em" x="7.6923076923076925em" y="26.399600527222958em" fill="#aaa"/><rect width="0.9615384615384616em" height="1.1030106654580079em" x="8.653846153846153em" y="28.896989334541992em" fill="#aaa"/><rect width="0.9615384615384616em" height="1.0728866767107372em" x="9.615384615384615em" y="28.927113323289262em" fill="#aaa"/><rect width="0.9615384615384616em" height="0.29783060622782975em" x="10.576923076923077em" y="29.70216939377217em" fill="#aaa"/><rect width="0.9615384615384616em" height="1.3520756361621529em" x="11.538461538461538em" y="28.64792436383785em" fill="#aaa"/><rect width="0.9615384615384616em" height="1.6055248389781844em" x="12.5em" y="28.394475161021816em" fill="#aaa"/><rect width="0.9615384615384616em" height="0.8041234611219452em" x="13.461538461538462em" y="29.195876538878053em" fill="#aaa"/><rect width="0.9615384615384616em" height="2.5450567318536734em" x="14.423076923076923em" y="27.454943268146327em" fill="#aaa"/><rect width="0.9615384615384616em" height="1.0367277383916909em" x="15.384615384615385em" y="28.96327226160831em" fill="#aaa"/><rect width="0.9615384615384616em" height="1.9525762438875136em" x="16.346153846153847em" y="28.047423756112487em" fill="#aaa"/><rect width="0.9615384615384616em" height="0.30040516402552914em" x="17.307692307692307em" y="29.69959483597447em" fill="#aaa"/><rect width="0.9615384615384616em" height="1.2236199393600742em" x="18.26923076923077em" y="28.776380060639926em" fill="#aaa"/><rect width="0.9615384615384616em" height="1.415667279490271em" x="19.23076923076923em" y="28.584332720509728em" fill="#aaa"/><rect width="0.9615384615384616em" height="0.7784520115725937em" x="20.192307692307693em" y="29.221547988427407em" fill="#aaa"/><rect width="0.9615384615384616em" height="7.2662454563206875em" x="21.153846153846153em" y="22.73375454367931em" fill="#aaa"/><rect width="0.9615384615384616em" height="0.29368214499233813em" x="22.115384615384617em" y="29.70631785500766em" fill="#aaa"/><rect width="0.9615384615384616em" height="0.14773389862540384em" x="23.076923076923077em" y="29.852266101374596em" fill="#aaa"/><rect width="0.9615384615384616em" height="1.661876943082299em" x="24.03846153846154em" y="28.338123056917702em" fill="#aaa"/><rect width="0.9615384615384616em" height="0.4533061611702103em" x="25em" y="29.54669383882979em" fill="#aaa"/><rect width="0.9615384615384616em" height="0.3607947075114362em" x="25.961538461538463em" y="29.639205292488565em" fill="#aaa"/><rect width="0.9615384615384616em" height="0.27470426818097016em" x="26.923076923076923em" y="29.72529573181903em" fill="#aaa"/><rect width="0.9615384615384616em" height="0.4622128861364595em" x="27.884615384615387em" y="29.53778711386354em" fill="#aaa"/><rect width="0.9615384615384616em" height="3.516592549987412em" x="28.846153846153847em" y="26.48340745001259em" fill="#aaa"/><rect width="0.9615384615384616em" height="1.4203955177371639em" x="29.80769230769231em" y="28.579604482262837em" fill="#aaa"/><rect width="0.9615384615384616em" height="0.6579060165404255em" x="30.76923076923077em" y="29.342093983459574em" fill="#aaa"/><rect width="0.9615384615384616em" height="1.1455407986993782em" x="31.73076923076923em" y="28.85445920130062em" fill="#aaa"/><rect width="0.9615384615384616em" height="2.0695177988592968em" x="32.69230769230769em" y="27.930482201140702em" fill="#aaa"/><rect width="0.9615384615384616em" height="1.1881481482029197em" x="33.65384615384615em" y="28.81185185179708em" fill="#aaa"/><rect width="0.9615384615384616em" height="1.1941138867434737em" x="34.61538461538461em" y="28.805886113256527em" fill="#aaa"/><rect width="0.9615384615384616em" height="1.99631309069671em" x="35.57692307692308em" y="28.00368690930329em" fill="#aaa"/><rect width="0.9615384615384616em" height="2.706346972122731em" x="36.53846153846154em" y="27.29365302787727em" fill="#aaa"/><rect width="0.9615384615384616em" height="1.7373250291930435em" x="37.5em" y="28.262674970806955em" fill="#aaa"/><rect width="0.9615384615384616em" height="1.8730238174671903em" x="38.46153846153846em" y="28.12697618253281em" fill="#aaa"/><rect width="0.9615384615384616em" height="2.4745427931676627em" x="39.42307692307693em" y="27.525457206832336em" fill="#aaa"/><rect width="0.9615384615384616em" height="1.2162441622235054em" x="40.38461538461539em" y="28.783755837776496em" fill="#aaa"/><rect width="0.9615384615384616em" height="0.6936686249093381em" x="41.34615384615385em" y="29.30633137509066em" fill="#aaa"/><rect width="0.9615384615384616em" height="0.5044522753322223em" x="42.30769230769231em" y="29.495547724667777em" fill="#aaa"/><rect width="0.9615384615384616em" height="0.8289548836006494em" x="43.269230769230774em" y="29.171045116399352em" fill="#aaa"/><rect width="0.9615384615384616em" height="1.662904710038671em" x="44.23076923076923em" y="28.33709528996133em" fill="#aaa"/><rect width="0.9615384615384616em" height="1.4875016528673943em" x="45.19230769230769em" y="28.512498347132606em" fill="#aaa"/><rect width="0.9615384615384616em" height="0.7844152946774563em" x="46.15384615384615em" y="29.215584705322545em" fill="#aaa"/><rect width="0.9615384615384616em" height="6.889836046404203em" x="47.11538461538461em" y="23.110163953595798em" fill="#aaa"/><rect width="0.9615384615384616em" height="2.189804242682435em" x="48.07692307692308em" y="27.810195757317565em" fill="#aaa"/><rect width="0.9615384615384616em" height="3.1944791574910587em" x="49.03846153846154em" y="26.80552084250894em" fill="#aaa"/><rect width="0.9615384615384616em" height="9.16243495656208em" x="50em" y="20.83756504343792em" fill="#aaa"/><rect width="0.9615384615384616em" height="5.371280109500535em" x="50.96153846153846em" y="24.628719890499465em" fill="#aaa"/><rect width="0.9615384615384616em" height="8.142437068481165em" x="51.92307692307693em" y="21.857562931518835em" fill="#aaa"/><rect width="0.9615384615384616em" height="4.6143724524977685em" x="52.88461538461539em" y="25.38562754750223em" fill="#aaa"/><rect width="0.9615384615384616em" height="5.921741497145698em" x="53.84615384615385em" y="24.078258502854304em" fill="#aaa"/><rect width="0.9615384615384616em" height="1.7292294251148639em" x="54.80769230769231em" y="28.270770574885137em" fill="#aaa"/><rect width="0.9615384615384616em" height="5.648118254416707em" x="55.769230769230774em" y="24.35188174558329em" fill="#aaa"/><rect width="0.9615384615384616em" height="12.411768111798915em" x="56.73076923076923em" y="17.588231888201086em" fill="#aaa"/><rect width="0.9615384615384616em" height="7.466285386932055em" x="57.69230769230769em" y="22.533714613067943em" fill="#aaa"/><rect width="0.9615384615384616em" height="3.0405958992679882em" x="58.65384615384615em" y="26.959404100732012em" fill="#aaa"/><rect width="0.9615384615384616em" height="3.5575002432012184em" x="59.61538461538462em" y="26.44249975679878em" fill="#aaa"/><rect width="0.9615384615384616em" height="19.273698399644307em" x="60.57692307692308em" y="10.726301600355693em" fill="#aaa"/><rect width="0.9615384615384616em" height="21.20387145612434em" x="61.53846153846154em" y="8.79612854387566em" fill="#aaa"/><rect width="0.9615384615384616em" height="13.291807804042033em" x="62.5em" y="16.708192195957967em" fill="#aaa"/><rect width="0.9615384615384616em" height="23.836847380473813em" x="63.46153846153846em" y="6.163152619526187em" fill="#aaa"/><rect width="0.9615384615384616em" height="14.165442364654163em" x="64.42307692307692em" y="15.834557635345837em" fill="#aaa"/><rect width="0.9615384615384616em" height="23.28525726582903em" x="65.38461538461539em" y="6.714742734170969em" fill="#aaa"/><rect width="0.9615384615384616em" height="30em" x="66.34615384615385em" y="0em" fill="#aaa"/><rect width="0.9615384615384616em" height="10.065976616554154em" x="67.3076923076923em" y="19.934023383445847em" fill="#aaa"/><rect width="0.9615384615384616em" height="15.01530584095444em" x="68.26923076923077em" y="14.98469415904556em" fill="#aaa"/><rect width="0.9615384615384616em" height="13.343450941543962em" x="69.23076923076923em" y="16.656549058456037em" fill="#aaa"/><rect width="0.9615384615384616em" height="10.37014119256996em" x="70.1923076923077em" y="19.62985880743004em" fill="#aaa"/><rect width="0.9615384615384616em" height="4.611811440431159em" x="71.15384615384616em" y="25.38818855956884em" fill="#aaa"/><rect width="0.9615384615384616em" height="17.510503953447593em" x="72.11538461538461em" y="12.489496046552407em" fill="#aaa"/><rect width="0.9615384615384616em" height="10.564823469732834em" x="73.07692307692308em" y="19.435176530267164em" fill="#aaa"/><rect width="0.9615384615384616em" height="13.537432911788825em" x="74.03846153846155em" y="16.462567088211173em" fill="#aaa"/><rect width="0.9615384615384616em" height="8.48963829345065em" x="75em" y="21.51036170654935em" fill="#aaa"/><rect width="0.9615384615384616em" height="12.484759048823454em" x="75.96153846153847em" y="17.515240951176544em" fill="#aaa"/><rect width="0.9615384615384616em" height="14.84868159347969em" x="76.92307692307692em" y="15.15131840652031em" fill="#aaa"/><rect width="0.9615384615384616em" height="10.833187235617915em" x="77.88461538461539em" y="19.166812764382087em" fill="#aaa"/><rect width="0.9615384615384616em" height="8.959436498666307em" x="78.84615384615385em" y="21.040563501333693em" fill="#aaa"/><rect width="0.9615384615384616em" height="13.74726207589799em" x="79.8076923076923em" y="16.25273792410201em" fill="#aaa"/><rect width="0.9615384615384616em" height="13.592885971874141em" x="80.76923076923077em" y="16.40711402812586em" fill="#aaa"/><rect width="0.9615384615384616em" height="17.802604402931262em" x="81.73076923076923em" y="12.197395597068738em" fill="#aaa"/><rect width="0.9615384615384616em" height="15.436076696034736em" x="82.6923076923077em" y="14.563923303965264em" fill="#aaa"/><rect width="0.9615384615384616em" height="7.571520231904988em" x="83.65384615384616em" y="22.428479768095013em" fill="#aaa"/><rect width="0.9615384615384616em" height="16.955452758013518em" x="84.61538461538461em" y="13.044547241986482em" fill="#aaa"/><rect width="0.9615384615384616em" height="14.927927847680385em" x="85.57692307692308em" y="15.072072152319615em" fill="#aaa"/><rect width="0.9615384615384616em" height="7.811501520214926em" x="86.53846153846155em" y="22.188498479785075em" fill="#aaa"/><rect width="0.9615384615384616em" height="13.037349252382967em" x="87.5em" y="16.962650747617033em" fill="#aaa"/><rect width="0.9615384615384616em" height="11.918394065485499em" x="88.46153846153847em" y="18.0816059345145em" fill="#aaa"/><rect width="0.9615384615384616em" height="3.3469217295568896em" x="89.42307692307692em" y="26.65307827044311em" fill="#aaa"/><rect width="0.9615384615384616em" height="4.539066926282305em" x="90.38461538461539em" y="25.460933073717694em" fill="#aaa"/><rect width="0.9615384615384616em" height="4.881537034787985em" x="91.34615384615385em" y="25.118462965212014em" fill="#aaa"/><rect width="0.9615384615384616em" height="5.320000835283436em" x="92.3076923076923em" y="24.679999164716563em" fill="#aaa"/><rect width="0.9615384615384616em" height="5.728751542718305em" x="93.26923076923077em" y="24.271248457281693em" fill="#aaa"/><rect width="0.9615384615384616em" height="3.652000362413863em" x="94.23076923076923em" y="26.34799963758614em" fill="#aaa"/><rect width="0.9615384615384616em" height="4.293114718247076em" x="95.1923076923077em" y="25.706885281752925em" fill="#aaa"/><rect width="0.9615384615384616em" height="1.8048707846568302em" x="96.15384615384616em" y="28.19512921534317em" fill="#aaa"/><rect width="0.9615384615384616em" height="4.473525601824694em" x="97.11538461538461em" y="25.526474398175306em" fill="#aaa"/><rect width="0.9615384615384616em" height="3.9507801937706963em" x="98.07692307692308em" y="26.049219806229303em" fill="#aaa"/><rect width="0.9615384615384616em" height="5.330835257799656em" x="99.03846153846155em" y="24.669164742200344em" fill="#aaa"/></svg>