<?xml version="1.0" standalone="no"?>
<svg xmlns:xlink="http://www.w3.org/1999/xlink" xmlns="http://www.w3.org/2000/svg" class="topic-graph" style="width: 100em; height: 30em; text-align: center;"><rect width="0.9615384615384616em" height="7.796506266737513em" x="0em" y="22.203493733262487em" fill="#aaa"/><rect width="0.9615384615384616em" height="18.28775573236366em" x="0.9615384615384616em" y="11.71224426763634em" fill="#aaa"/><rect width="0.9615384615384616em" height="2.2419981534770423em" x="1.9230769230769231em" y="27.75800184652296em" fill="#aaa"/><rect width="0.9615384615384616em" height="3.2667190484065456em" x="2.8846153846153846em" y="26.733280951593454em" fill="#aaa"/><rect width="0.9615384615384616em" height="11.482612615608137em" x="3.8461538461538463em" y="18.517387384391863em" fill="#aaa"/><rect width="0.9615384615384616em" height="3.5254854003793925em" x="4.8076923076923075em" y="26.47451459962061em" fill="#aaa"/><rect width="0.9615384615384616em" height="11.055331817694496em" x="5.769230769230769em" y="18.944668182305506em" fill="#aaa"/><rect width="0.9615384615384616em" height="1.0770087884551092em" x="6.730769230769231em" y="28.92299121154489em" fill="#aaa"/><rect width="0.9615384615384616em" height="6.116880547658877em" x="7.6923076923076925em" y="23.883119452341123em" fill="#aaa"/><rect width="0.9615384615384616em" height="8.495508978090115em" x="8.653846153846153em" y="21.504491021909885em" fill="#aaa"/><rect width="0.9615384615384616em" height="6.627743810540149em" x="9.615384615384615em" y="23.37225618945985em" fill="#aaa"/><rect width="0.9615384615384616em" height="10.146885375426416em" x="10.576923076923077em" y="19.853114624573585em" fill="#aaa"/><rect width="0.9615384615384616em" height="12.765686804040591em" x="11.538461538461538em" y="17.23431319595941em" fill="#aaa"/><rect width="0.9615384615384616em" height="2.9334825134154294em" x="12.5em" y="27.06651748658457em" fill="#aaa"/><rect width="0.9615384615384616em" height="9.160176029337007em" x="13.461538461538462em" y="20.83982397066299em" fill="#aaa"/><rect width="0.9615384615384616em" height="8.210950476519786em" x="14.423076923076923em" y="21.789049523480216em" fill="#aaa"/><rect width="0.9615384615384616em" height="6.893903286752141em" x="15.384615384615385em" y="23.106096713247858em" fill="#aaa"/><rect width="0.9615384615384616em" height="4.695962127071006em" x="16.346153846153847em" y="25.304037872928994em" fill="#aaa"/><rect width="0.9615384615384616em" height="1.453480103281191em" x="17.307692307692307em" y="28.54651989671881em" fill="#aaa"/><rect width="0.9615384615384616em" height="5.119832447160289em" x="18.26923076923077em" y="24.880167552839712em" fill="#aaa"/><rect width="0.9615384615384616em" height="12.547476226422287em" x="19.23076923076923em" y="17.452523773577713em" fill="#aaa"/><rect width="0.9615384615384616em" height="10.774960563148657em" x="20.192307692307693em" y="19.225039436851343em" fill="#aaa"/><rect width="0.9615384615384616em" height="7.331939154769411em" x="21.153846153846153em" y="22.66806084523059em" fill="#aaa"/><rect width="0.9615384615384616em" height="4.078103012909193em" x="22.115384615384617em" y="25.921896987090808em" fill="#aaa"/><rect width="0.9615384615384616em" height="4.042130062171929em" x="23.076923076923077em" y="25.95786993782807em" fill="#aaa"/><rect width="0.9615384615384616em" height="5.698331030127596em" x="24.03846153846154em" y="24.301668969872402em" fill="#aaa"/><rect width="0.9615384615384616em" height="9.220880608080344em" x="25em" y="20.779119391919657em" fill="#aaa"/><rect width="0.9615384615384616em" height="8.16902815681302em" x="25.961538461538463em" y="21.83097184318698em" fill="#aaa"/><rect width="0.9615384615384616em" height="5.923497758955418em" x="26.923076923076923em" y="24.076502241044583em" fill="#aaa"/><rect width="0.9615384615384616em" height="7.850783358321255em" x="27.884615384615387em" y="22.149216641678745em" fill="#aaa"/><rect width="0.9615384615384616em" height="9.985111785351904em" x="28.846153846153847em" y="20.014888214648096em" fill="#aaa"/><rect width="0.9615384615384616em" height="4.482334610251178em" x="29.80769230769231em" y="25.51766538974882em" fill="#aaa"/><rect width="0.9615384615384616em" height="7.409711110252248em" x="30.76923076923077em" y="22.590288889747754em" fill="#aaa"/><rect width="0.9615384615384616em" height="3.9978411364615467em" x="31.73076923076923em" y="26.002158863538455em" fill="#aaa"/><rect width="0.9615384615384616em" height="5.654689067565457em" x="32.69230769230769em" y="24.345310932434543em" fill="#aaa"/><rect width="0.9615384615384616em" height="7.3393338044304715em" x="33.65384615384615em" y="22.66066619556953em" fill="#aaa"/><rect width="0.9615384615384616em" height="12.685233376217479em" x="34.61538461538461em" y="17.31476662378252em" fill="#aaa"/><rect width="0.9615384615384616em" height="4.203614500030099em" x="35.57692307692308em" y="25.7963854999699em" fill="#aaa"/><rect width="0.9615384615384616em" height="10.214706872153734em" x="36.53846153846154em" y="19.785293127846266em" fill="#aaa"/><rect width="0.9615384615384616em" height="5.039251479977761em" x="37.5em" y="24.96074852002224em" fill="#aaa"/><rect width="0.9615384615384616em" height="10.001543529976342em" x="38.46153846153846em" y="19.99845647002366em" fill="#aaa"/><rect width="0.9615384615384616em" height="9.027716594023024em" x="39.42307692307693em" y="20.972283405976974em" fill="#aaa"/><rect width="0.9615384615384616em" height="8.289664825635407em" x="40.38461538461539em" y="21.710335174364594em" fill="#aaa"/><rect width="0.9615384615384616em" height="5.1099017041760835em" x="41.34615384615385em" y="24.89009829582392em" fill="#aaa"/><rect width="0.9615384615384616em" height="13.148929379029875em" x="42.30769230769231em" y="16.851070620970127em" fill="#aaa"/><rect width="0.9615384615384616em" height="16.941548887010214em" x="43.269230769230774em" y="13.058451112989786em" fill="#aaa"/><rect width="0.9615384615384616em" height="9.916407287857618em" x="44.23076923076923em" y="20.083592712142384em" fill="#aaa"/><rect width="0.9615384615384616em" height="12.815769292164502em" x="45.19230769230769em" y="17.184230707835496em" fill="#aaa"/><rect width="0.9615384615384616em" height="6.019795620572256em" x="46.15384615384615em" y="23.980204379427743em" fill="#aaa"/><rect width="0.9615384615384616em" height="16.673987906070035em" x="47.11538461538461em" y="13.326012093929965em" fill="#aaa"/><rect width="0.9615384615384616em" height="23.866733489239678em" x="48.07692307692308em" y="6.133266510760322em" fill="#aaa"/><rect width="0.9615384615384616em" height="16.318873561638345em" x="49.03846153846154em" y="13.681126438361655em" fill="#aaa"/><rect width="0.9615384615384616em" height="14.58374729186859em" x="50em" y="15.41625270813141em" fill="#aaa"/><rect width="0.9615384615384616em" height="14.73345710147762em" x="50.96153846153846em" y="15.26654289852238em" fill="#aaa"/><rect width="0.9615384615384616em" height="13.154169704585035em" x="51.92307692307693em" y="16.845830295414963em" fill="#aaa"/><rect width="0.9615384615384616em" height="14.18144166668286em" x="52.88461538461539em" y="15.81855833331714em" fill="#aaa"/><rect width="0.9615384615384616em" height="17.367669471043374em" x="53.84615384615385em" y="12.632330528956626em" fill="#aaa"/><rect width="0.9615384615384616em" height="17.706934782775452em" x="54.80769230769231em" y="12.293065217224548em" fill="#aaa"/><rect width="0.9615384615384616em" height="20.746603228630484em" x="55.769230769230774em" y="9.253396771369516em" fill="#aaa"/><rect width="0.9615384615384616em" height="21.78378334270541em" x="56.73076923076923em" y="8.216216657294591em" fill="#aaa"/><rect width="0.9615384615384616em" height="28.983669229128026em" x="57.69230769230769em" y="1.0163307708719742em" fill="#aaa"/><rect width="0.9615384615384616em" height="17.333852608840505em" x="58.65384615384615em" y="12.666147391159495em" fill="#aaa"/><rect width="0.9615384615384616em" height="16.552567329214234em" x="59.61538461538462em" y="13.447432670785766em" fill="#aaa"/><rect width="0.9615384615384616em" height="16.787627192300683em" x="60.57692307692308em" y="13.212372807699317em" fill="#aaa"/><rect width="0.9615384615384616em" height="15.837515486505385em" x="61.53846153846154em" y="14.162484513494615em" fill="#aaa"/><rect width="0.9615384615384616em" height="20.252272509119454em" x="62.5em" y="9.747727490880546em" fill="#aaa"/><rect width="0.9615384615384616em" height="16.0788492153428em" x="63.46153846153846em" y="13.9211507846572em" fill="#aaa"/><rect width="0.9615384615384616em" height="14.36006779507217em" x="64.42307692307692em" y="15.63993220492783em" fill="#aaa"/><rect width="0.9615384615384616em" height="21.31538776345188em" x="65.38461538461539em" y="8.68461223654812em" fill="#aaa"/><rect width="0.9615384615384616em" height="30em" x="66.34615384615385em" y="0em" fill="#aaa"/><rect width="0.9615384615384616em" height="18.818022544672807em" x="67.3076923076923em" y="11.181977455327193em" fill="#aaa"/><rect width="0.9615384615384616em" height="13.946784626134361em" x="68.26923076923077em" y="16.05321537386564em" fill="#aaa"/><rect width="0.9615384615384616em" height="16.343047232012378em" x="69.23076923076923em" y="13.656952767987622em" fill="#aaa"/><rect width="0.9615384615384616em" height="11.6433727570728em" x="70.1923076923077em" y="18.3566272429272em" fill="#aaa"/><rect width="0.9615384615384616em" height="8.836253790177945em" x="71.15384615384616em" y="21.163746209822055em" fill="#aaa"/><rect width="0.9615384615384616em" height="11.303671864985137em" x="72.11538461538461em" y="18.696328135014863em" fill="#aaa"/><rect width="0.9615384615384616em" height="13.322615492672776em" x="73.07692307692308em" y="16.677384507327226em" fill="#aaa"/><rect width="0.9615384615384616em" height="14.259101907891804em" x="74.03846153846155em" y="15.740898092108196em" fill="#aaa"/><rect width="0.9615384615384616em" height="17.672698615958264em" x="75em" y="12.327301384041736em" fill="#aaa"/><rect width="0.9615384615384616em" height="16.31424919389768em" x="75.96153846153847em" y="13.68575080610232em" fill="#aaa"/><rect width="0.9615384615384616em" height="12.911090642107428em" x="76.92307692307692em" y="17.08890935789257em" fill="#aaa"/><rect width="0.9615384615384616em" height="20.663210708078115em" x="77.88461538461539em" y="9.336789291921885em" fill="#aaa"/><rect width="0.9615384615384616em" height="19.303892620469103em" x="78.84615384615385em" y="10.696107379530897em" fill="#aaa"/><rect width="0.9615384615384616em" height="16.792730440870884em" x="79.8076923076923em" y="13.207269559129116em" fill="#aaa"/><rect width="0.9615384615384616em" height="20.04017459562363em" x="80.76923076923077em" y="9.959825404376371em" fill="#aaa"/><rect width="0.9615384615384616em" height="17.213034414034357em" x="81.73076923076923em" y="12.786965585965643em" fill="#aaa"/><rect width="0.9615384615384616em" height="20.993180082401835em" x="82.6923076923077em" y="9.006819917598165em" fill="#aaa"/><rect width="0.9615384615384616em" height="18.996510500687997em" x="83.65384615384616em" y="11.003489499312003em" fill="#aaa"/><rect width="0.9615384615384616em" height="23.032999589750528em" x="84.61538461538461em" y="6.967000410249472em" fill="#aaa"/><rect width="0.9615384615384616em" height="23.517258399908993em" x="85.57692307692308em" y="6.482741600091007em" fill="#aaa"/><rect width="0.9615384615384616em" height="20.268554176367587em" x="86.53846153846155em" y="9.731445823632413em" fill="#aaa"/><rect width="0.9615384615384616em" height="20.136596084401937em" x="87.5em" y="9.863403915598063em" fill="#aaa"/><rect width="0.9615384615384616em" height="28.9843610879149em" x="88.46153846153847em" y="1.0156389120851017em" fill="#aaa"/><rect width="0.9615384615384616em" height="29.614060426996637em" x="89.42307692307692em" y="0.38593957300336257em" fill="#aaa"/><rect width="0.9615384615384616em" height="24.642803980058492em" x="90.38461538461539em" y="5.357196019941508em" fill="#aaa"/><rect width="0.9615384615384616em" height="26.152415048595312em" x="91.34615384615385em" y="3.847584951404688em" fill="#aaa"/><rect width="0.9615384615384616em" height="21.68186907192159em" x="92.3076923076923em" y="8.31813092807841em" fill="#aaa"/><rect width="0.9615384615384616em" height="22.87858046764283em" x="93.26923076923077em" y="7.121419532357169em" fill="#aaa"/><rect width="0.9615384615384616em" height="23.318367170657936em" x="94.23076923076923em" y="6.681632829342064em" fill="#aaa"/><rect width="0.9615384615384616em" height="23.263844174498196em" x="95.1923076923077em" y="6.736155825501804em" fill="#aaa"/><rect width="0.9615384615384616em" height="19.467302535234467em" x="96.15384615384616em" y="10.532697464765533em" fill="#aaa"/><rect width="0.9615384615384616em" height="23.974137061216087em" x="97.11538461538461em" y="6.025862938783913em" fill="#aaa"/><rect width="0.9615384615384616em" height="22.952273417847827em" x="98.07692307692308em" y="7.047726582152173em" fill="#aaa"/><rect width="0.9615384615384616em" height="17.381284372323815em" x="99.03846153846155em" y="12.618715627676185em" fill="#aaa"/></svg>