<?xml version="1.0" standalone="no"?>
<svg xmlns:xlink="http://www.w3.org/1999/xlink" xmlns="http://www.w3.org/2000/svg" class="topic-graph" style="width: 10vw; height: 3em; text-align: center;"><rect width="0.09615384615384616em" height="0.650595616196657em" x="0vw" y="2.349404383803343em" fill="#aaa"/><rect width="0.09615384615384616em" height="0.4319121070519436em" x="0.09615384615384616vw" y="2.568087892948056em" fill="#aaa"/><rect width="0.09615384615384616em" height="0.5988204065483247em" x="0.19230769230769232vw" y="2.4011795934516753em" fill="#aaa"/><rect width="0.09615384615384616em" height="0.9425507089296865em" x="0.2884615384615385vw" y="2.0574492910703137em" fill="#aaa"/><rect width="0.09615384615384616em" height="0.6396332732391822em" x="0.38461538461538464vw" y="2.3603667267608177em" fill="#aaa"/><rect width="0.09615384615384616em" height="0.8676136089476189em" x="0.4807692307692308vw" y="2.132386391052381em" fill="#aaa"/><rect width="0.09615384615384616em" height="0.5231593414421916em" x="0.576923076923077vw" y="2.4768406585578084em" fill="#aaa"/><rect width="0.09615384615384616em" height="0.5878736141169835em" x="0.6730769230769231vw" y="2.4121263858830164em" fill="#aaa"/><rect width="0.09615384615384616em" height="0.837059368953629em" x="0.7692307692307693vw" y="2.162940631046371em" fill="#aaa"/><rect width="0.09615384615384616em" height="1.008625230506635em" x="0.8653846153846154vw" y="1.991374769493365em" fill="#aaa"/><rect width="0.09615384615384616em" height="3em" x="0.9615384615384616vw" y="0em" fill="#aaa"/><rect width="0.09615384615384616em" height="1.5444589422487203em" x="1.0576923076923077vw" y="1.4555410577512797em" fill="#aaa"/><rect width="0.09615384615384616em" height="0.5612410529359966em" x="1.153846153846154vw" y="2.438758947064003em" fill="#aaa"/><rect width="0.09615384615384616em" height="1.0001744268006012em" x="1.25vw" y="1.9998255731993988em" fill="#aaa"/><rect width="0.09615384615384616em" height="1.0265434598743608em" x="1.3461538461538463vw" y="1.9734565401256392em" fill="#aaa"/><rect width="0.09615384615384616em" height="1.0150877229550612em" x="1.4423076923076923vw" y="1.9849122770449388em" fill="#aaa"/><rect width="0.09615384615384616em" height="0.796508814340938em" x="1.5384615384615385vw" y="2.203491185659062em" fill="#aaa"/><rect width="0.09615384615384616em" height="1.0177314571256704em" x="1.6346153846153848vw" y="1.9822685428743296em" fill="#aaa"/><rect width="0.09615384615384616em" height="0.9937698521520599em" x="1.7307692307692308vw" y="2.00623014784794em" fill="#aaa"/><rect width="0.09615384615384616em" height="1.4756970089791008em" x="1.826923076923077vw" y="1.5243029910208992em" fill="#aaa"/><rect width="0.09615384615384616em" height="1.131759454942591em" x="1.9230769230769231vw" y="1.868240545057409em" fill="#aaa"/><rect width="0.09615384615384616em" height="0.96975167231986em" x="2.019230769230769vw" y="2.03024832768014em" fill="#aaa"/><rect width="0.09615384615384616em" height="0.5679044676743215em" x="2.1153846153846154vw" y="2.4320955323256785em" fill="#aaa"/><rect width="0.09615384615384616em" height="1.0857512726450849em" x="2.2115384615384617vw" y="1.9142487273549151em" fill="#aaa"/><rect width="0.09615384615384616em" height="1.4589884463059986em" x="2.307692307692308vw" y="1.5410115536940014em" fill="#aaa"/><rect width="0.09615384615384616em" height="0.602849535242704em" x="2.403846153846154vw" y="2.397150464757296em" fill="#aaa"/><rect width="0.09615384615384616em" height="0.5341123323515407em" x="2.5vw" y="2.4658876676484596em" fill="#aaa"/><rect width="0.09615384615384616em" height="0.36172376832186043em" x="2.5961538461538463vw" y="2.6382762316781396em" fill="#aaa"/><rect width="0.09615384615384616em" height="0.906805739078308em" x="2.6923076923076925vw" y="2.093194260921692em" fill="#aaa"/><rect width="0.09615384615384616em" height="0.8885822933760059em" x="2.7884615384615388vw" y="2.1114177066239943em" fill="#aaa"/><rect width="0.09615384615384616em" height="0.46312815614391223em" x="2.8846153846153846vw" y="2.5368718438560878em" fill="#aaa"/><rect width="0.09615384615384616em" height="0.6111667835149679em" x="2.980769230769231vw" y="2.388833216485032em" fill="#aaa"/><rect width="0.09615384615384616em" height="0.7644504332950808em" x="3.076923076923077vw" y="2.2355495667049192em" fill="#aaa"/><rect width="0.09615384615384616em" height="0.6469061846836175em" x="3.1730769230769234vw" y="2.3530938153163827em" fill="#aaa"/><rect width="0.09615384615384616em" height="0.4918021861379974em" x="3.2692307692307696vw" y="2.5081978138620027em" fill="#aaa"/><rect width="0.09615384615384616em" height="0.4731770557554137em" x="3.3653846153846154vw" y="2.526822944244586em" fill="#aaa"/><rect width="0.09615384615384616em" height="0.5517811649304153em" x="3.4615384615384617vw" y="2.448218835069585em" fill="#aaa"/><rect width="0.09615384615384616em" height="0.5895275000778981em" x="3.557692307692308vw" y="2.410472499922102em" fill="#aaa"/><rect width="0.09615384615384616em" height="0.9505476989818242em" x="3.653846153846154vw" y="2.0494523010181758em" fill="#aaa"/><rect width="0.09615384615384616em" height="0.9987506577762808em" x="3.75vw" y="2.001249342223719em" fill="#aaa"/><rect width="0.09615384615384616em" height="0.5709596770447836em" x="3.8461538461538463vw" y="2.4290403229552164em" fill="#aaa"/><rect width="0.09615384615384616em" height="0.7160490506782239em" x="3.9423076923076925vw" y="2.2839509493217762em" fill="#aaa"/><rect width="0.09615384615384616em" height="0.6721719014536544em" x="4.038461538461538vw" y="2.3278280985463455em" fill="#aaa"/><rect width="0.09615384615384616em" height="0.7259845676497259em" x="4.134615384615385vw" y="2.274015432350274em" fill="#aaa"/><rect width="0.09615384615384616em" height="0.7371235149835056em" x="4.230769230769231vw" y="2.2628764850164944em" fill="#aaa"/><rect width="0.09615384615384616em" height="0.6910558273208636em" x="4.3269230769230775vw" y="2.308944172679136em" fill="#aaa"/><rect width="0.09615384615384616em" height="0.93610561766368em" x="4.423076923076923vw" y="2.0638943823363203em" fill="#aaa"/><rect width="0.09615384615384616em" height="0.7916535388505754em" x="4.519230769230769vw" y="2.2083464611494246em" fill="#aaa"/><rect width="0.09615384615384616em" height="0.4603405775950842em" x="4.615384615384616vw" y="2.539659422404916em" fill="#aaa"/><rect width="0.09615384615384616em" height="0.5517905168965808em" x="4.711538461538462vw" y="2.4482094831034193em" fill="#aaa"/><rect width="0.09615384615384616em" height="0.8447465385453494em" x="4.807692307692308vw" y="2.1552534614546506em" fill="#aaa"/><rect width="0.09615384615384616em" height="0.5007723427181202em" x="4.903846153846154vw" y="2.49922765728188em" fill="#aaa"/><rect width="0.09615384615384616em" height="0.5908469805908332em" x="5vw" y="2.4091530194091666em" fill="#aaa"/><rect width="0.09615384615384616em" height="0.5891720830174492em" x="5.096153846153847vw" y="2.4108279169825506em" fill="#aaa"/><rect width="0.09615384615384616em" height="0.7074367154475264em" x="5.1923076923076925vw" y="2.2925632845524735em" fill="#aaa"/><rect width="0.09615384615384616em" height="0.8059205818055728em" x="5.288461538461538vw" y="2.194079418194427em" fill="#aaa"/><rect width="0.09615384615384616em" height="0.6920199230134956em" x="5.384615384615385vw" y="2.3079800769865044em" fill="#aaa"/><rect width="0.09615384615384616em" height="0.4792452523074902em" x="5.480769230769231vw" y="2.52075474769251em" fill="#aaa"/><rect width="0.09615384615384616em" height="0.4237421648193555em" x="5.5769230769230775vw" y="2.5762578351806447em" fill="#aaa"/><rect width="0.09615384615384616em" height="0.4728212803200525em" x="5.673076923076923vw" y="2.5271787196799473em" fill="#aaa"/><rect width="0.09615384615384616em" height="0.8122860574360089em" x="5.769230769230769vw" y="2.187713942563991em" fill="#aaa"/><rect width="0.09615384615384616em" height="0.7152077634588166em" x="5.865384615384616vw" y="2.2847922365411835em" fill="#aaa"/><rect width="0.09615384615384616em" height="0.5943989969175711em" x="5.961538461538462vw" y="2.405601003082429em" fill="#aaa"/><rect width="0.09615384615384616em" height="0.5061423236656128em" x="6.057692307692308vw" y="2.493857676334387em" fill="#aaa"/><rect width="0.09615384615384616em" height="0.8246339006924215em" x="6.153846153846154vw" y="2.1753660993075785em" fill="#aaa"/><rect width="0.09615384615384616em" height="0.675470932845519em" x="6.25vw" y="2.324529067154481em" fill="#aaa"/><rect width="0.09615384615384616em" height="0.906021794025133em" x="6.346153846153847vw" y="2.093978205974867em" fill="#aaa"/><rect width="0.09615384615384616em" height="0.5280070518517044em" x="6.4423076923076925vw" y="2.4719929481482956em" fill="#aaa"/><rect width="0.09615384615384616em" height="0.6424357682209615em" x="6.538461538461539vw" y="2.3575642317790386em" fill="#aaa"/><rect width="0.09615384615384616em" height="0.3870387787534406em" x="6.634615384615385vw" y="2.612961221246559em" fill="#aaa"/><rect width="0.09615384615384616em" height="0.6548216239192544em" x="6.730769230769231vw" y="2.345178376080746em" fill="#aaa"/><rect width="0.09615384615384616em" height="0.458215283049749em" x="6.8269230769230775vw" y="2.541784716950251em" fill="#aaa"/><rect width="0.09615384615384616em" height="0.4614034782377182em" x="6.923076923076923vw" y="2.538596521762282em" fill="#aaa"/><rect width="0.09615384615384616em" height="0.2993440738416851em" x="7.01923076923077vw" y="2.7006559261583147em" fill="#aaa"/><rect width="0.09615384615384616em" height="0.2874218662986394em" x="7.115384615384616vw" y="2.712578133701361em" fill="#aaa"/><rect width="0.09615384615384616em" height="0.32799526818030156em" x="7.211538461538462vw" y="2.6720047318196984em" fill="#aaa"/><rect width="0.09615384615384616em" height="0.3463475129561168em" x="7.307692307692308vw" y="2.653652487043883em" fill="#aaa"/><rect width="0.09615384615384616em" height="0.3350447983266215em" x="7.403846153846154vw" y="2.6649552016733784em" fill="#aaa"/><rect width="0.09615384615384616em" height="0.24553584047013022em" x="7.5vw" y="2.75446415952987em" fill="#aaa"/><rect width="0.09615384615384616em" height="0.20910270621014784em" x="7.596153846153847vw" y="2.790897293789852em" fill="#aaa"/><rect width="0.09615384615384616em" height="0.24353864403010098em" x="7.6923076923076925vw" y="2.756461355969899em" fill="#aaa"/><rect width="0.09615384615384616em" height="0.2629750600445494em" x="7.788461538461539vw" y="2.7370249399554507em" fill="#aaa"/><rect width="0.09615384615384616em" height="0.2593815140284814em" x="7.884615384615385vw" y="2.7406184859715186em" fill="#aaa"/><rect width="0.09615384615384616em" height="0.3022863591996436em" x="7.980769230769231vw" y="2.6977136408003566em" fill="#aaa"/><rect width="0.09615384615384616em" height="0.31663331110927123em" x="8.076923076923077vw" y="2.683366688890729em" fill="#aaa"/><rect width="0.09615384615384616em" height="0.28719876422000384em" x="8.173076923076923vw" y="2.712801235779996em" fill="#aaa"/><rect width="0.09615384615384616em" height="0.28936929018417856em" x="8.26923076923077vw" y="2.7106307098158213em" fill="#aaa"/><rect width="0.09615384615384616em" height="0.24182454891067853em" x="8.365384615384615vw" y="2.7581754510893215em" fill="#aaa"/><rect width="0.09615384615384616em" height="0.29079047999159em" x="8.461538461538462vw" y="2.70920952000841em" fill="#aaa"/><rect width="0.09615384615384616em" height="0.23869718116787672em" x="8.557692307692308vw" y="2.761302818832123em" fill="#aaa"/><rect width="0.09615384615384616em" height="0.2668579020841988em" x="8.653846153846155vw" y="2.733142097915801em" fill="#aaa"/><rect width="0.09615384615384616em" height="0.22838598237578472em" x="8.75vw" y="2.7716140176242154em" fill="#aaa"/><rect width="0.09615384615384616em" height="0.259563497575485em" x="8.846153846153847vw" y="2.740436502424515em" fill="#aaa"/><rect width="0.09615384615384616em" height="0.2591572514241564em" x="8.942307692307693vw" y="2.7408427485758438em" fill="#aaa"/><rect width="0.09615384615384616em" height="0.2417181323313154em" x="9.038461538461538vw" y="2.7582818676686847em" fill="#aaa"/><rect width="0.09615384615384616em" height="0.22828577826877577em" x="9.134615384615385vw" y="2.7717142217312243em" fill="#aaa"/><rect width="0.09615384615384616em" height="0.21957672702645906em" x="9.230769230769232vw" y="2.780423272973541em" fill="#aaa"/><rect width="0.09615384615384616em" height="0.22856790398317342em" x="9.326923076923077vw" y="2.7714320960168264em" fill="#aaa"/><rect width="0.09615384615384616em" height="0.23736931701905492em" x="9.423076923076923vw" y="2.7626306829809453em" fill="#aaa"/><rect width="0.09615384615384616em" height="0.24836791365107438em" x="9.51923076923077vw" y="2.7516320863489256em" fill="#aaa"/><rect width="0.09615384615384616em" height="0.18879927818318232em" x="9.615384615384617vw" y="2.811200721816818em" fill="#aaa"/><rect width="0.09615384615384616em" height="0.22299837710435255em" x="9.711538461538462vw" y="2.7770016228956473em" fill="#aaa"/><rect width="0.09615384615384616em" height="0.22437889403664774em" x="9.807692307692308vw" y="2.7756211059633524em" fill="#aaa"/><rect width="0.09615384615384616em" height="0.22935212181336218em" x="9.903846153846155vw" y="2.770647878186638em" fill="#aaa"/></svg>