<?xml version="1.0" standalone="no"?>
<svg xmlns:xlink="http://www.w3.org/1999/xlink" xmlns="http://www.w3.org/2000/svg" class="topic-graph" style="width: 10vw; height: 3em; text-align: center;"><rect width="0.09615384615384616em" height="1.2787611047836769em" x="0vw" y="1.7212388952163231em" fill="#aaa"/><rect width="0.09615384615384616em" height="1.2660045851381343em" x="0.09615384615384616vw" y="1.7339954148618657em" fill="#aaa"/><rect width="0.09615384615384616em" height="1.9752995442634664em" x="0.19230769230769232vw" y="1.0247004557365336em" fill="#aaa"/><rect width="0.09615384615384616em" height="2.8448917317276394em" x="0.2884615384615385vw" y="0.15510826827236057em" fill="#aaa"/><rect width="0.09615384615384616em" height="1.822742287178012em" x="0.38461538461538464vw" y="1.177257712821988em" fill="#aaa"/><rect width="0.09615384615384616em" height="1.94474836819428em" x="0.4807692307692308vw" y="1.05525163180572em" fill="#aaa"/><rect width="0.09615384615384616em" height="1.7244755991231135em" x="0.576923076923077vw" y="1.2755244008768865em" fill="#aaa"/><rect width="0.09615384615384616em" height="3em" x="0.6730769230769231vw" y="0em" fill="#aaa"/><rect width="0.09615384615384616em" height="0.7578092915862065em" x="0.7692307692307693vw" y="2.2421907084137933em" fill="#aaa"/><rect width="0.09615384615384616em" height="1.4630022040911121em" x="0.8653846153846154vw" y="1.5369977959088879em" fill="#aaa"/><rect width="0.09615384615384616em" height="1.848274933465461em" x="0.9615384615384616vw" y="1.151725066534539em" fill="#aaa"/><rect width="0.09615384615384616em" height="0.7831259744667138em" x="1.0576923076923077vw" y="2.2168740255332864em" fill="#aaa"/><rect width="0.09615384615384616em" height="1.8046207747777498em" x="1.153846153846154vw" y="1.1953792252222502em" fill="#aaa"/><rect width="0.09615384615384616em" height="1.8639562895778194em" x="1.25vw" y="1.1360437104221806em" fill="#aaa"/><rect width="0.09615384615384616em" height="0.5105193480021748em" x="1.3461538461538463vw" y="2.489480651997825em" fill="#aaa"/><rect width="0.09615384615384616em" height="1.4032419431798502em" x="1.4423076923076923vw" y="1.5967580568201498em" fill="#aaa"/><rect width="0.09615384615384616em" height="2.352218855199282em" x="1.5384615384615385vw" y="0.6477811448007178em" fill="#aaa"/><rect width="0.09615384615384616em" height="0.4551523245188741em" x="1.6346153846153848vw" y="2.544847675481126em" fill="#aaa"/><rect width="0.09615384615384616em" height="0.668414858476489em" x="1.7307692307692308vw" y="2.331585141523511em" fill="#aaa"/><rect width="0.09615384615384616em" height="0.37395863522399475em" x="1.826923076923077vw" y="2.6260413647760052em" fill="#aaa"/><rect width="0.09615384615384616em" height="0.5931813286500363em" x="1.9230769230769231vw" y="2.4068186713499635em" fill="#aaa"/><rect width="0.09615384615384616em" height="0.43724049334883863em" x="2.019230769230769vw" y="2.5627595066511613em" fill="#aaa"/><rect width="0.09615384615384616em" height="0.5952146952709337em" x="2.1153846153846154vw" y="2.4047853047290664em" fill="#aaa"/><rect width="0.09615384615384616em" height="0.8734802109577153em" x="2.2115384615384617vw" y="2.126519789042285em" fill="#aaa"/><rect width="0.09615384615384616em" height="0.6776059329790768em" x="2.307692307692308vw" y="2.322394067020923em" fill="#aaa"/><rect width="0.09615384615384616em" height="1.1307523115805291em" x="2.403846153846154vw" y="1.8692476884194709em" fill="#aaa"/><rect width="0.09615384615384616em" height="2.8188034700261895em" x="2.5vw" y="0.18119652997381053em" fill="#aaa"/><rect width="0.09615384615384616em" height="2.679292231378814em" x="2.5961538461538463vw" y="0.3207077686211859em" fill="#aaa"/><rect width="0.09615384615384616em" height="1.981669351692855em" x="2.6923076923076925vw" y="1.018330648307145em" fill="#aaa"/><rect width="0.09615384615384616em" height="1.4454342246834604em" x="2.7884615384615388vw" y="1.5545657753165396em" fill="#aaa"/><rect width="0.09615384615384616em" height="2.1219093436620113em" x="2.8846153846153846vw" y="0.8780906563379887em" fill="#aaa"/><rect width="0.09615384615384616em" height="2.116963193911073em" x="2.980769230769231vw" y="0.8830368060889269em" fill="#aaa"/><rect width="0.09615384615384616em" height="2.7651538957896014em" x="3.076923076923077vw" y="0.23484610421039864em" fill="#aaa"/><rect width="0.09615384615384616em" height="2.813499430749788em" x="3.1730769230769234vw" y="0.18650056925021197em" fill="#aaa"/><rect width="0.09615384615384616em" height="2.681561066697487em" x="3.2692307692307696vw" y="0.31843893330251305em" fill="#aaa"/><rect width="0.09615384615384616em" height="2.7189054590492683em" x="3.3653846153846154vw" y="0.2810945409507317em" fill="#aaa"/><rect width="0.09615384615384616em" height="2.648270618350999em" x="3.4615384615384617vw" y="0.351729381649001em" fill="#aaa"/><rect width="0.09615384615384616em" height="1.9856084318073983em" x="3.557692307692308vw" y="1.0143915681926017em" fill="#aaa"/><rect width="0.09615384615384616em" height="1.9699646811885692em" x="3.653846153846154vw" y="1.0300353188114308em" fill="#aaa"/><rect width="0.09615384615384616em" height="1.8680463768723925em" x="3.75vw" y="1.1319536231276075em" fill="#aaa"/><rect width="0.09615384615384616em" height="1.6943947906535117em" x="3.8461538461538463vw" y="1.3056052093464883em" fill="#aaa"/><rect width="0.09615384615384616em" height="1.9390114038980528em" x="3.9423076923076925vw" y="1.0609885961019472em" fill="#aaa"/><rect width="0.09615384615384616em" height="2.3444622037751115em" x="4.038461538461538vw" y="0.6555377962248885em" fill="#aaa"/><rect width="0.09615384615384616em" height="2.214631329423485em" x="4.134615384615385vw" y="0.7853686705765148em" fill="#aaa"/><rect width="0.09615384615384616em" height="1.8474231741056744em" x="4.230769230769231vw" y="1.1525768258943256em" fill="#aaa"/><rect width="0.09615384615384616em" height="1.8715343818246728em" x="4.3269230769230775vw" y="1.1284656181753272em" fill="#aaa"/><rect width="0.09615384615384616em" height="2.8135898358227065em" x="4.423076923076923vw" y="0.1864101641772935em" fill="#aaa"/><rect width="0.09615384615384616em" height="1.9728567845345455em" x="4.519230769230769vw" y="1.0271432154654545em" fill="#aaa"/><rect width="0.09615384615384616em" height="2.208342157544953em" x="4.615384615384616vw" y="0.7916578424550469em" fill="#aaa"/><rect width="0.09615384615384616em" height="1.8741873364689723em" x="4.711538461538462vw" y="1.1258126635310277em" fill="#aaa"/><rect width="0.09615384615384616em" height="1.8980235355211579em" x="4.807692307692308vw" y="1.1019764644788421em" fill="#aaa"/><rect width="0.09615384615384616em" height="1.3628960846966394em" x="4.903846153846154vw" y="1.6371039153033606em" fill="#aaa"/><rect width="0.09615384615384616em" height="1.4181677909659673em" x="5vw" y="1.5818322090340327em" fill="#aaa"/><rect width="0.09615384615384616em" height="1.3850236031156182em" x="5.096153846153847vw" y="1.6149763968843818em" fill="#aaa"/><rect width="0.09615384615384616em" height="1.2921978659969666em" x="5.1923076923076925vw" y="1.7078021340030334em" fill="#aaa"/><rect width="0.09615384615384616em" height="1.271711891539515em" x="5.288461538461538vw" y="1.728288108460485em" fill="#aaa"/><rect width="0.09615384615384616em" height="1.2688890762266738em" x="5.384615384615385vw" y="1.7311109237733262em" fill="#aaa"/><rect width="0.09615384615384616em" height="0.8925525066350872em" x="5.480769230769231vw" y="2.107447493364913em" fill="#aaa"/><rect width="0.09615384615384616em" height="1.0887575625944865em" x="5.5769230769230775vw" y="1.9112424374055135em" fill="#aaa"/><rect width="0.09615384615384616em" height="0.9276555484069916em" x="5.673076923076923vw" y="2.0723444515930085em" fill="#aaa"/><rect width="0.09615384615384616em" height="0.835884713149502em" x="5.769230769230769vw" y="2.164115286850498em" fill="#aaa"/><rect width="0.09615384615384616em" height="0.8913824844978847em" x="5.865384615384616vw" y="2.1086175155021154em" fill="#aaa"/><rect width="0.09615384615384616em" height="0.7086886649953237em" x="5.961538461538462vw" y="2.2913113350046763em" fill="#aaa"/><rect width="0.09615384615384616em" height="0.8241507737343945em" x="6.057692307692308vw" y="2.1758492262656057em" fill="#aaa"/><rect width="0.09615384615384616em" height="0.6671970573055824em" x="6.153846153846154vw" y="2.3328029426944177em" fill="#aaa"/><rect width="0.09615384615384616em" height="0.7665375105078374em" x="6.25vw" y="2.2334624894921626em" fill="#aaa"/><rect width="0.09615384615384616em" height="0.5445121872831797em" x="6.346153846153847vw" y="2.4554878127168203em" fill="#aaa"/><rect width="0.09615384615384616em" height="0.6239846076866974em" x="6.4423076923076925vw" y="2.3760153923133025em" fill="#aaa"/><rect width="0.09615384615384616em" height="0.7491632635163192em" x="6.538461538461539vw" y="2.2508367364836808em" fill="#aaa"/><rect width="0.09615384615384616em" height="0.6822116380207586em" x="6.634615384615385vw" y="2.3177883619792414em" fill="#aaa"/><rect width="0.09615384615384616em" height="0.6536307236554384em" x="6.730769230769231vw" y="2.3463692763445616em" fill="#aaa"/><rect width="0.09615384615384616em" height="0.5866272051877655em" x="6.8269230769230775vw" y="2.4133727948122345em" fill="#aaa"/><rect width="0.09615384615384616em" height="0.5431612129574048em" x="6.923076923076923vw" y="2.456838787042595em" fill="#aaa"/><rect width="0.09615384615384616em" height="0.5328556607977724em" x="7.01923076923077vw" y="2.4671443392022274em" fill="#aaa"/><rect width="0.09615384615384616em" height="0.4632567324509745em" x="7.115384615384616vw" y="2.5367432675490256em" fill="#aaa"/><rect width="0.09615384615384616em" height="0.6710861550489546em" x="7.211538461538462vw" y="2.328913844951045em" fill="#aaa"/><rect width="0.09615384615384616em" height="0.632475227940629em" x="7.307692307692308vw" y="2.367524772059371em" fill="#aaa"/><rect width="0.09615384615384616em" height="0.5623415970077132em" x="7.403846153846154vw" y="2.4376584029922865em" fill="#aaa"/><rect width="0.09615384615384616em" height="0.6091393047962569em" x="7.5vw" y="2.390860695203743em" fill="#aaa"/><rect width="0.09615384615384616em" height="0.8466709164213959em" x="7.596153846153847vw" y="2.153329083578604em" fill="#aaa"/><rect width="0.09615384615384616em" height="0.512883087068482em" x="7.6923076923076925vw" y="2.4871169129315183em" fill="#aaa"/><rect width="0.09615384615384616em" height="0.43879580787059813em" x="7.788461538461539vw" y="2.5612041921294018em" fill="#aaa"/><rect width="0.09615384615384616em" height="0.4528837183402242em" x="7.884615384615385vw" y="2.547116281659776em" fill="#aaa"/><rect width="0.09615384615384616em" height="0.45154926064476253em" x="7.980769230769231vw" y="2.5484507393552374em" fill="#aaa"/><rect width="0.09615384615384616em" height="0.5244090430907653em" x="8.076923076923077vw" y="2.475590956909235em" fill="#aaa"/><rect width="0.09615384615384616em" height="0.4275175769442904em" x="8.173076923076923vw" y="2.5724824230557095em" fill="#aaa"/><rect width="0.09615384615384616em" height="0.4720943165777163em" x="8.26923076923077vw" y="2.5279056834222837em" fill="#aaa"/><rect width="0.09615384615384616em" height="0.5295352931761045em" x="8.365384615384615vw" y="2.4704647068238956em" fill="#aaa"/><rect width="0.09615384615384616em" height="0.3466396149650893em" x="8.461538461538462vw" y="2.653360385034911em" fill="#aaa"/><rect width="0.09615384615384616em" height="0.3400205011723597em" x="8.557692307692308vw" y="2.6599794988276404em" fill="#aaa"/><rect width="0.09615384615384616em" height="0.31762666669817785em" x="8.653846153846155vw" y="2.6823733333018223em" fill="#aaa"/><rect width="0.09615384615384616em" height="0.37187130994626855em" x="8.75vw" y="2.6281286900537313em" fill="#aaa"/><rect width="0.09615384615384616em" height="0.3624011572182618em" x="8.846153846153847vw" y="2.6375988427817383em" fill="#aaa"/><rect width="0.09615384615384616em" height="0.4272455689386785em" x="8.942307692307693vw" y="2.5727544310613215em" fill="#aaa"/><rect width="0.09615384615384616em" height="0.4648655276957947em" x="9.038461538461538vw" y="2.5351344723042053em" fill="#aaa"/><rect width="0.09615384615384616em" height="0.4023279797010998em" x="9.134615384615385vw" y="2.5976720202989em" fill="#aaa"/><rect width="0.09615384615384616em" height="0.5418732147145924em" x="9.230769230769232vw" y="2.4581267852854074em" fill="#aaa"/><rect width="0.09615384615384616em" height="0.5475472971380567em" x="9.326923076923077vw" y="2.4524527028619434em" fill="#aaa"/><rect width="0.09615384615384616em" height="0.4805066702877975em" x="9.423076923076923vw" y="2.5194933297122026em" fill="#aaa"/><rect width="0.09615384615384616em" height="0.37246921305585523em" x="9.51923076923077vw" y="2.6275307869441447em" fill="#aaa"/><rect width="0.09615384615384616em" height="0.3823618519255484em" x="9.615384615384617vw" y="2.6176381480744517em" fill="#aaa"/><rect width="0.09615384615384616em" height="0.32490849562065016em" x="9.711538461538462vw" y="2.67509150437935em" fill="#aaa"/><rect width="0.09615384615384616em" height="0.37962002233560976em" x="9.807692307692308vw" y="2.62037997766439em" fill="#aaa"/><rect width="0.09615384615384616em" height="0.4102977074845001em" x="9.903846153846155vw" y="2.5897022925154998em" fill="#aaa"/></svg>