<?xml version="1.0" standalone="no"?>
<svg xmlns:xlink="http://www.w3.org/1999/xlink" xmlns="http://www.w3.org/2000/svg" class="topic-graph" style="width: 100em; height: 30em; text-align: center;"><rect width="0.9615384615384616em" height="1.931119475031872em" x="0em" y="28.06888052496813em" fill="#aaa"/><rect width="0.9615384615384616em" height="7.978885824053811em" x="0.9615384615384616em" y="22.021114175946188em" fill="#aaa"/><rect width="0.9615384615384616em" height="21.35611846407298em" x="1.9230769230769231em" y="8.643881535927019em" fill="#aaa"/><rect width="0.9615384615384616em" height="2.39503967402414em" x="2.8846153846153846em" y="27.60496032597586em" fill="#aaa"/><rect width="0.9615384615384616em" height="6.132056820892632em" x="3.8461538461538463em" y="23.867943179107368em" fill="#aaa"/><rect width="0.9615384615384616em" height="9.222241782514109em" x="4.8076923076923075em" y="20.77775821748589em" fill="#aaa"/><rect width="0.9615384615384616em" height="3.566461600046479em" x="5.769230769230769em" y="26.43353839995352em" fill="#aaa"/><rect width="0.9615384615384616em" height="3.1574614969854853em" x="6.730769230769231em" y="26.842538503014516em" fill="#aaa"/><rect width="0.9615384615384616em" height="1.6163953949695267em" x="7.6923076923076925em" y="28.383604605030474em" fill="#aaa"/><rect width="0.9615384615384616em" height="1.255866022861281em" x="8.653846153846153em" y="28.74413397713872em" fill="#aaa"/><rect width="0.9615384615384616em" height="9.30849322140872em" x="9.615384615384615em" y="20.691506778591283em" fill="#aaa"/><rect width="0.9615384615384616em" height="3.6392590889166714em" x="10.576923076923077em" y="26.36074091108333em" fill="#aaa"/><rect width="0.9615384615384616em" height="11.219420589492248em" x="11.538461538461538em" y="18.78057941050775em" fill="#aaa"/><rect width="0.9615384615384616em" height="7.186049764116046em" x="12.5em" y="22.813950235883954em" fill="#aaa"/><rect width="0.9615384615384616em" height="6.041570037801053em" x="13.461538461538462em" y="23.95842996219895em" fill="#aaa"/><rect width="0.9615384615384616em" height="2.510757464676506em" x="14.423076923076923em" y="27.489242535323495em" fill="#aaa"/><rect width="0.9615384615384616em" height="2.105047639984585em" x="15.384615384615385em" y="27.894952360015417em" fill="#aaa"/><rect width="0.9615384615384616em" height="1.6033248659344266em" x="16.346153846153847em" y="28.396675134065575em" fill="#aaa"/><rect width="0.9615384615384616em" height="1.3076698611784243em" x="17.307692307692307em" y="28.692330138821575em" fill="#aaa"/><rect width="0.9615384615384616em" height="4.4536272693827215em" x="18.26923076923077em" y="25.54637273061728em" fill="#aaa"/><rect width="0.9615384615384616em" height="2.9899437647317373em" x="19.23076923076923em" y="27.010056235268262em" fill="#aaa"/><rect width="0.9615384615384616em" height="1.7338472532684799em" x="20.192307692307693em" y="28.26615274673152em" fill="#aaa"/><rect width="0.9615384615384616em" height="3.5600937517089486em" x="21.153846153846153em" y="26.439906248291052em" fill="#aaa"/><rect width="0.9615384615384616em" height="1.2747836610736614em" x="22.115384615384617em" y="28.725216338926337em" fill="#aaa"/><rect width="0.9615384615384616em" height="1.3607312507460536em" x="23.076923076923077em" y="28.639268749253947em" fill="#aaa"/><rect width="0.9615384615384616em" height="1.1212991058034958em" x="24.03846153846154em" y="28.878700894196506em" fill="#aaa"/><rect width="0.9615384615384616em" height="5.234735277701137em" x="25em" y="24.765264722298863em" fill="#aaa"/><rect width="0.9615384615384616em" height="4.646836341094289em" x="25.961538461538463em" y="25.35316365890571em" fill="#aaa"/><rect width="0.9615384615384616em" height="3.4198534868274706em" x="26.923076923076923em" y="26.58014651317253em" fill="#aaa"/><rect width="0.9615384615384616em" height="3.384469375508699em" x="27.884615384615387em" y="26.6155306244913em" fill="#aaa"/><rect width="0.9615384615384616em" height="5.303355528078786em" x="28.846153846153847em" y="24.696644471921214em" fill="#aaa"/><rect width="0.9615384615384616em" height="8.017698897560694em" x="29.80769230769231em" y="21.98230110243931em" fill="#aaa"/><rect width="0.9615384615384616em" height="6.0414619318746805em" x="30.76923076923077em" y="23.95853806812532em" fill="#aaa"/><rect width="0.9615384615384616em" height="4.037816184936618em" x="31.73076923076923em" y="25.962183815063383em" fill="#aaa"/><rect width="0.9615384615384616em" height="2.966155336072727em" x="32.69230769230769em" y="27.033844663927272em" fill="#aaa"/><rect width="0.9615384615384616em" height="15.1686635199398em" x="33.65384615384615em" y="14.8313364800602em" fill="#aaa"/><rect width="0.9615384615384616em" height="5.598924681944262em" x="34.61538461538461em" y="24.40107531805574em" fill="#aaa"/><rect width="0.9615384615384616em" height="5.951745814861099em" x="35.57692307692308em" y="24.0482541851389em" fill="#aaa"/><rect width="0.9615384615384616em" height="4.8516068768638405em" x="36.53846153846154em" y="25.14839312313616em" fill="#aaa"/><rect width="0.9615384615384616em" height="6.539859696289902em" x="37.5em" y="23.460140303710098em" fill="#aaa"/><rect width="0.9615384615384616em" height="6.831758401597979em" x="38.46153846153846em" y="23.16824159840202em" fill="#aaa"/><rect width="0.9615384615384616em" height="4.787050293894106em" x="39.42307692307693em" y="25.212949706105896em" fill="#aaa"/><rect width="0.9615384615384616em" height="2.698126910205542em" x="40.38461538461539em" y="27.30187308979446em" fill="#aaa"/><rect width="0.9615384615384616em" height="4.2839319513238845em" x="41.34615384615385em" y="25.716068048676114em" fill="#aaa"/><rect width="0.9615384615384616em" height="5.786252910002003em" x="42.30769230769231em" y="24.213747089997998em" fill="#aaa"/><rect width="0.9615384615384616em" height="7.521460043481276em" x="43.269230769230774em" y="22.478539956518723em" fill="#aaa"/><rect width="0.9615384615384616em" height="8.511371550811416em" x="44.23076923076923em" y="21.48862844918858em" fill="#aaa"/><rect width="0.9615384615384616em" height="7.733300929990799em" x="45.19230769230769em" y="22.266699070009203em" fill="#aaa"/><rect width="0.9615384615384616em" height="6.2348314154036935em" x="46.15384615384615em" y="23.765168584596307em" fill="#aaa"/><rect width="0.9615384615384616em" height="6.514009999298749em" x="47.11538461538461em" y="23.48599000070125em" fill="#aaa"/><rect width="0.9615384615384616em" height="6.368885343031138em" x="48.07692307692308em" y="23.63111465696886em" fill="#aaa"/><rect width="0.9615384615384616em" height="4.3182604133356435em" x="49.03846153846154em" y="25.681739586664357em" fill="#aaa"/><rect width="0.9615384615384616em" height="9.598337218974262em" x="50em" y="20.40166278102574em" fill="#aaa"/><rect width="0.9615384615384616em" height="6.505154961552827em" x="50.96153846153846em" y="23.494845038447174em" fill="#aaa"/><rect width="0.9615384615384616em" height="12.401106795826035em" x="51.92307692307693em" y="17.598893204173965em" fill="#aaa"/><rect width="0.9615384615384616em" height="7.768410828269001em" x="52.88461538461539em" y="22.231589171731em" fill="#aaa"/><rect width="0.9615384615384616em" height="9.953808768196994em" x="53.84615384615385em" y="20.046191231803007em" fill="#aaa"/><rect width="0.9615384615384616em" height="8.231901118960199em" x="54.80769230769231em" y="21.7680988810398em" fill="#aaa"/><rect width="0.9615384615384616em" height="17.05256765951997em" x="55.769230769230774em" y="12.94743234048003em" fill="#aaa"/><rect width="0.9615384615384616em" height="10.919074470647649em" x="56.73076923076923em" y="19.08092552935235em" fill="#aaa"/><rect width="0.9615384615384616em" height="8.553622277955888em" x="57.69230769230769em" y="21.44637772204411em" fill="#aaa"/><rect width="0.9615384615384616em" height="12.817097136569295em" x="58.65384615384615em" y="17.182902863430705em" fill="#aaa"/><rect width="0.9615384615384616em" height="12.026318869515217em" x="59.61538461538462em" y="17.973681130484785em" fill="#aaa"/><rect width="0.9615384615384616em" height="9.316126461783755em" x="60.57692307692308em" y="20.683873538216247em" fill="#aaa"/><rect width="0.9615384615384616em" height="5.813193565488959em" x="61.53846153846154em" y="24.18680643451104em" fill="#aaa"/><rect width="0.9615384615384616em" height="9.429697420985029em" x="62.5em" y="20.57030257901497em" fill="#aaa"/><rect width="0.9615384615384616em" height="11.704347072543987em" x="63.46153846153846em" y="18.29565292745601em" fill="#aaa"/><rect width="0.9615384615384616em" height="11.35543271614373em" x="64.42307692307692em" y="18.64456728385627em" fill="#aaa"/><rect width="0.9615384615384616em" height="17.102278677591958em" x="65.38461538461539em" y="12.897721322408042em" fill="#aaa"/><rect width="0.9615384615384616em" height="20.76562125909873em" x="66.34615384615385em" y="9.23437874090127em" fill="#aaa"/><rect width="0.9615384615384616em" height="19.215219326834827em" x="67.3076923076923em" y="10.784780673165173em" fill="#aaa"/><rect width="0.9615384615384616em" height="13.166434866455138em" x="68.26923076923077em" y="16.833565133544862em" fill="#aaa"/><rect width="0.9615384615384616em" height="18.432739665376797em" x="69.23076923076923em" y="11.567260334623203em" fill="#aaa"/><rect width="0.9615384615384616em" height="30em" x="70.1923076923077em" y="0em" fill="#aaa"/><rect width="0.9615384615384616em" height="27.770514015492726em" x="71.15384615384616em" y="2.2294859845072743em" fill="#aaa"/><rect width="0.9615384615384616em" height="10.283026147800378em" x="72.11538461538461em" y="19.716973852199622em" fill="#aaa"/><rect width="0.9615384615384616em" height="18.05942265484493em" x="73.07692307692308em" y="11.94057734515507em" fill="#aaa"/><rect width="0.9615384615384616em" height="6.015639766288096em" x="74.03846153846155em" y="23.984360233711904em" fill="#aaa"/><rect width="0.9615384615384616em" height="12.772489468859222em" x="75em" y="17.22751053114078em" fill="#aaa"/><rect width="0.9615384615384616em" height="5.8825316718183105em" x="75.96153846153847em" y="24.11746832818169em" fill="#aaa"/><rect width="0.9615384615384616em" height="16.242046460010663em" x="76.92307692307692em" y="13.757953539989337em" fill="#aaa"/><rect width="0.9615384615384616em" height="8.864108260028587em" x="77.88461538461539em" y="21.135891739971413em" fill="#aaa"/><rect width="0.9615384615384616em" height="11.951088429145564em" x="78.84615384615385em" y="18.048911570854436em" fill="#aaa"/><rect width="0.9615384615384616em" height="11.99956325833176em" x="79.8076923076923em" y="18.00043674166824em" fill="#aaa"/><rect width="0.9615384615384616em" height="14.520749623201326em" x="80.76923076923077em" y="15.479250376798674em" fill="#aaa"/><rect width="0.9615384615384616em" height="17.478538082274646em" x="81.73076923076923em" y="12.521461917725354em" fill="#aaa"/><rect width="0.9615384615384616em" height="19.780856523268447em" x="82.6923076923077em" y="10.219143476731553em" fill="#aaa"/><rect width="0.9615384615384616em" height="18.026447495425725em" x="83.65384615384616em" y="11.973552504574275em" fill="#aaa"/><rect width="0.9615384615384616em" height="11.029763082896675em" x="84.61538461538461em" y="18.970236917103325em" fill="#aaa"/><rect width="0.9615384615384616em" height="8.130887871086891em" x="85.57692307692308em" y="21.86911212891311em" fill="#aaa"/><rect width="0.9615384615384616em" height="9.787878987617791em" x="86.53846153846155em" y="20.21212101238221em" fill="#aaa"/><rect width="0.9615384615384616em" height="11.884095868470872em" x="87.5em" y="18.115904131529128em" fill="#aaa"/><rect width="0.9615384615384616em" height="11.938432693285542em" x="88.46153846153847em" y="18.06156730671446em" fill="#aaa"/><rect width="0.9615384615384616em" height="9.51724633732835em" x="89.42307692307692em" y="20.482753662671648em" fill="#aaa"/><rect width="0.9615384615384616em" height="6.88380627756208em" x="90.38461538461539em" y="23.11619372243792em" fill="#aaa"/><rect width="0.9615384615384616em" height="8.435066648273466em" x="91.34615384615385em" y="21.564933351726534em" fill="#aaa"/><rect width="0.9615384615384616em" height="5.084023050504045em" x="92.3076923076923em" y="24.915976949495956em" fill="#aaa"/><rect width="0.9615384615384616em" height="6.547389349189806em" x="93.26923076923077em" y="23.452610650810193em" fill="#aaa"/><rect width="0.9615384615384616em" height="6.369905814799192em" x="94.23076923076923em" y="23.630094185200807em" fill="#aaa"/><rect width="0.9615384615384616em" height="4.1637630045193585em" x="95.1923076923077em" y="25.83623699548064em" fill="#aaa"/><rect width="0.9615384615384616em" height="5.308304549166817em" x="96.15384615384616em" y="24.691695450833183em" fill="#aaa"/><rect width="0.9615384615384616em" height="5.330869499169023em" x="97.11538461538461em" y="24.669130500830978em" fill="#aaa"/><rect width="0.9615384615384616em" height="4.4198643425585615em" x="98.07692307692308em" y="25.58013565744144em" fill="#aaa"/><rect width="0.9615384615384616em" height="6.9569877845864925em" x="99.03846153846155em" y="23.04301221541351em" fill="#aaa"/></svg>