<?xml version="1.0" standalone="no"?>
<svg xmlns:xlink="http://www.w3.org/1999/xlink" xmlns="http://www.w3.org/2000/svg" class="topic-graph" style="width: 10vw; height: 3em; text-align: center;"><rect width="0.09615384615384616em" height="0.033183346742124545em" x="0vw" y="2.9668166532578755em" fill="#aaa"/><rect width="0.09615384615384616em" height="1.3422596919292835em" x="0.09615384615384616vw" y="1.6577403080707165em" fill="#aaa"/><rect width="0.09615384615384616em" height="0.1675536053116355em" x="0.19230769230769232vw" y="2.8324463946883647em" fill="#aaa"/><rect width="0.09615384615384616em" height="0.1762796418130594em" x="0.2884615384615385vw" y="2.823720358186941em" fill="#aaa"/><rect width="0.09615384615384616em" height="0.22251798542781548em" x="0.38461538461538464vw" y="2.7774820145721844em" fill="#aaa"/><rect width="0.09615384615384616em" height="0.05794112096726413em" x="0.4807692307692308vw" y="2.9420588790327358em" fill="#aaa"/><rect width="0.09615384615384616em" height="0.21807874796131532em" x="0.576923076923077vw" y="2.7819212520386847em" fill="#aaa"/><rect width="0.09615384615384616em" height="0.4919462135857778em" x="0.6730769230769231vw" y="2.508053786414222em" fill="#aaa"/><rect width="0.09615384615384616em" height="0.3574022637508303em" x="0.7692307692307693vw" y="2.6425977362491695em" fill="#aaa"/><rect width="0.09615384615384616em" height="0.5684167586753737em" x="0.8653846153846154vw" y="2.4315832413246263em" fill="#aaa"/><rect width="0.09615384615384616em" height="0.11785156134341078em" x="0.9615384615384616vw" y="2.882148438656589em" fill="#aaa"/><rect width="0.09615384615384616em" height="0.2226215854044622em" x="1.0576923076923077vw" y="2.777378414595538em" fill="#aaa"/><rect width="0.09615384615384616em" height="0.16354323408696841em" x="1.153846153846154vw" y="2.8364567659130318em" fill="#aaa"/><rect width="0.09615384615384616em" height="0.80313582308126em" x="1.25vw" y="2.19686417691874em" fill="#aaa"/><rect width="0.09615384615384616em" height="0.40741950023137796em" x="1.3461538461538463vw" y="2.592580499768622em" fill="#aaa"/><rect width="0.09615384615384616em" height="0.2850258655212747em" x="1.4423076923076923vw" y="2.7149741344787253em" fill="#aaa"/><rect width="0.09615384615384616em" height="0.2702615794733296em" x="1.5384615384615385vw" y="2.7297384205266706em" fill="#aaa"/><rect width="0.09615384615384616em" height="0.3186945572960096em" x="1.6346153846153848vw" y="2.6813054427039904em" fill="#aaa"/><rect width="0.09615384615384616em" height="0.7063496415550979em" x="1.7307692307692308vw" y="2.293650358444902em" fill="#aaa"/><rect width="0.09615384615384616em" height="0.2992166659484287em" x="1.826923076923077vw" y="2.7007833340515712em" fill="#aaa"/><rect width="0.09615384615384616em" height="0.824962913640457em" x="1.9230769230769231vw" y="2.175037086359543em" fill="#aaa"/><rect width="0.09615384615384616em" height="0.2658891762779456em" x="2.019230769230769vw" y="2.7341108237220544em" fill="#aaa"/><rect width="0.09615384615384616em" height="0.15225733837579097em" x="2.1153846153846154vw" y="2.847742661624209em" fill="#aaa"/><rect width="0.09615384615384616em" height="1.6356690904623883em" x="2.2115384615384617vw" y="1.3643309095376117em" fill="#aaa"/><rect width="0.09615384615384616em" height="0.9596624140218933em" x="2.307692307692308vw" y="2.0403375859781065em" fill="#aaa"/><rect width="0.09615384615384616em" height="0.35595881916458383em" x="2.403846153846154vw" y="2.644041180835416em" fill="#aaa"/><rect width="0.09615384615384616em" height="0.6376787619716637em" x="2.5vw" y="2.3623212380283363em" fill="#aaa"/><rect width="0.09615384615384616em" height="0.8255931137328123em" x="2.5961538461538463vw" y="2.174406886267188em" fill="#aaa"/><rect width="0.09615384615384616em" height="2.2313246356140413em" x="2.6923076923076925vw" y="0.7686753643859587em" fill="#aaa"/><rect width="0.09615384615384616em" height="1.2292407373152279em" x="2.7884615384615388vw" y="1.7707592626847721em" fill="#aaa"/><rect width="0.09615384615384616em" height="0.8199295970266494em" x="2.8846153846153846vw" y="2.1800704029733504em" fill="#aaa"/><rect width="0.09615384615384616em" height="0.4299714343717376em" x="2.980769230769231vw" y="2.570028565628262em" fill="#aaa"/><rect width="0.09615384615384616em" height="0.9180168639338622em" x="3.076923076923077vw" y="2.081983136066138em" fill="#aaa"/><rect width="0.09615384615384616em" height="0.6463293605284212em" x="3.1730769230769234vw" y="2.353670639471579em" fill="#aaa"/><rect width="0.09615384615384616em" height="1.6184507006928843em" x="3.2692307692307696vw" y="1.3815492993071157em" fill="#aaa"/><rect width="0.09615384615384616em" height="0.5488408827202949em" x="3.3653846153846154vw" y="2.451159117279705em" fill="#aaa"/><rect width="0.09615384615384616em" height="0.3924285819289852em" x="3.4615384615384617vw" y="2.607571418071015em" fill="#aaa"/><rect width="0.09615384615384616em" height="0.8117670024356656em" x="3.557692307692308vw" y="2.1882329975643344em" fill="#aaa"/><rect width="0.09615384615384616em" height="0.878240450390577em" x="3.653846153846154vw" y="2.121759549609423em" fill="#aaa"/><rect width="0.09615384615384616em" height="1.202052396051037em" x="3.75vw" y="1.797947603948963em" fill="#aaa"/><rect width="0.09615384615384616em" height="0.4650541658984991em" x="3.8461538461538463vw" y="2.5349458341015008em" fill="#aaa"/><rect width="0.09615384615384616em" height="2.890299628644456em" x="3.9423076923076925vw" y="0.10970037135554378em" fill="#aaa"/><rect width="0.09615384615384616em" height="1.3367874348177136em" x="4.038461538461538vw" y="1.6632125651822864em" fill="#aaa"/><rect width="0.09615384615384616em" height="0.5511977654507395em" x="4.134615384615385vw" y="2.4488022345492606em" fill="#aaa"/><rect width="0.09615384615384616em" height="0.4153156842824292em" x="4.230769230769231vw" y="2.584684315717571em" fill="#aaa"/><rect width="0.09615384615384616em" height="0.7926271595123174em" x="4.3269230769230775vw" y="2.2073728404876825em" fill="#aaa"/><rect width="0.09615384615384616em" height="0.38979273673357123em" x="4.423076923076923vw" y="2.6102072632664286em" fill="#aaa"/><rect width="0.09615384615384616em" height="1.2608614776691365em" x="4.519230769230769vw" y="1.7391385223308635em" fill="#aaa"/><rect width="0.09615384615384616em" height="0.4341144176027264em" x="4.615384615384616vw" y="2.5658855823972737em" fill="#aaa"/><rect width="0.09615384615384616em" height="0.589967362468989em" x="4.711538461538462vw" y="2.4100326375310113em" fill="#aaa"/><rect width="0.09615384615384616em" height="0.48771671555267637em" x="4.807692307692308vw" y="2.5122832844473235em" fill="#aaa"/><rect width="0.09615384615384616em" height="0.7463115644504341em" x="4.903846153846154vw" y="2.2536884355495657em" fill="#aaa"/><rect width="0.09615384615384616em" height="0.5083077736046233em" x="5vw" y="2.4916922263953767em" fill="#aaa"/><rect width="0.09615384615384616em" height="0.6168754521324169em" x="5.096153846153847vw" y="2.383124547867583em" fill="#aaa"/><rect width="0.09615384615384616em" height="0.2685387356864421em" x="5.1923076923076925vw" y="2.731461264313558em" fill="#aaa"/><rect width="0.09615384615384616em" height="0.7064423597030893em" x="5.288461538461538vw" y="2.2935576402969104em" fill="#aaa"/><rect width="0.09615384615384616em" height="1.0904522213680132em" x="5.384615384615385vw" y="1.9095477786319868em" fill="#aaa"/><rect width="0.09615384615384616em" height="2.4190655247199055em" x="5.480769230769231vw" y="0.5809344752800945em" fill="#aaa"/><rect width="0.09615384615384616em" height="0.5881211360036221em" x="5.5769230769230775vw" y="2.4118788639963777em" fill="#aaa"/><rect width="0.09615384615384616em" height="0.6999624689352401em" x="5.673076923076923vw" y="2.30003753106476em" fill="#aaa"/><rect width="0.09615384615384616em" height="0.8409978453731635em" x="5.769230769230769vw" y="2.1590021546268368em" fill="#aaa"/><rect width="0.09615384615384616em" height="0.24344320046982276em" x="5.865384615384616vw" y="2.7565567995301774em" fill="#aaa"/><rect width="0.09615384615384616em" height="0.5215069663413829em" x="5.961538461538462vw" y="2.478493033658617em" fill="#aaa"/><rect width="0.09615384615384616em" height="0.6981937998947062em" x="6.057692307692308vw" y="2.3018062001052937em" fill="#aaa"/><rect width="0.09615384615384616em" height="1.3639456478343215em" x="6.153846153846154vw" y="1.6360543521656785em" fill="#aaa"/><rect width="0.09615384615384616em" height="1.2535473573679472em" x="6.25vw" y="1.7464526426320528em" fill="#aaa"/><rect width="0.09615384615384616em" height="1.2350630338986568em" x="6.346153846153847vw" y="1.7649369661013432em" fill="#aaa"/><rect width="0.09615384615384616em" height="0.715809240134143em" x="6.4423076923076925vw" y="2.284190759865857em" fill="#aaa"/><rect width="0.09615384615384616em" height="0.6167827666922293em" x="6.538461538461539vw" y="2.3832172333077706em" fill="#aaa"/><rect width="0.09615384615384616em" height="0.5649161878135731em" x="6.634615384615385vw" y="2.435083812186427em" fill="#aaa"/><rect width="0.09615384615384616em" height="0.98642302576446em" x="6.730769230769231vw" y="2.01357697423554em" fill="#aaa"/><rect width="0.09615384615384616em" height="0.5500658744420837em" x="6.8269230769230775vw" y="2.4499341255579163em" fill="#aaa"/><rect width="0.09615384615384616em" height="0.9362025373355451em" x="6.923076923076923vw" y="2.063797462664455em" fill="#aaa"/><rect width="0.09615384615384616em" height="0.5315965238281222em" x="7.01923076923077vw" y="2.468403476171878em" fill="#aaa"/><rect width="0.09615384615384616em" height="0.40363186859534095em" x="7.115384615384616vw" y="2.596368131404659em" fill="#aaa"/><rect width="0.09615384615384616em" height="1.2181743859966736em" x="7.211538461538462vw" y="1.7818256140033264em" fill="#aaa"/><rect width="0.09615384615384616em" height="1.584405311290929em" x="7.307692307692308vw" y="1.415594688709071em" fill="#aaa"/><rect width="0.09615384615384616em" height="3em" x="7.403846153846154vw" y="0em" fill="#aaa"/><rect width="0.09615384615384616em" height="1.3333924646987179em" x="7.5vw" y="1.6666075353012821em" fill="#aaa"/><rect width="0.09615384615384616em" height="0.957588279256118em" x="7.596153846153847vw" y="2.042411720743882em" fill="#aaa"/><rect width="0.09615384615384616em" height="0.37989111009479404em" x="7.6923076923076925vw" y="2.620108889905206em" fill="#aaa"/><rect width="0.09615384615384616em" height="0.9394269721600855em" x="7.788461538461539vw" y="2.0605730278399146em" fill="#aaa"/><rect width="0.09615384615384616em" height="0.9495711262202213em" x="7.884615384615385vw" y="2.0504288737797784em" fill="#aaa"/><rect width="0.09615384615384616em" height="0.5979808796196031em" x="7.980769230769231vw" y="2.402019120380397em" fill="#aaa"/><rect width="0.09615384615384616em" height="0.6349636889736725em" x="8.076923076923077vw" y="2.3650363110263273em" fill="#aaa"/><rect width="0.09615384615384616em" height="0.6023052615619308em" x="8.173076923076923vw" y="2.3976947384380694em" fill="#aaa"/><rect width="0.09615384615384616em" height="0.313944779866708em" x="8.26923076923077vw" y="2.686055220133292em" fill="#aaa"/><rect width="0.09615384615384616em" height="0.2712200221837478em" x="8.365384615384615vw" y="2.7287799778162523em" fill="#aaa"/><rect width="0.09615384615384616em" height="1.244474837354348em" x="8.461538461538462vw" y="1.755525162645652em" fill="#aaa"/><rect width="0.09615384615384616em" height="0.5506877979299063em" x="8.557692307692308vw" y="2.449312202070094em" fill="#aaa"/><rect width="0.09615384615384616em" height="0.32462601257296675em" x="8.653846153846155vw" y="2.675373987427033em" fill="#aaa"/><rect width="0.09615384615384616em" height="0.35245986795365447em" x="8.75vw" y="2.6475401320463456em" fill="#aaa"/><rect width="0.09615384615384616em" height="0.3083849722413572em" x="8.846153846153847vw" y="2.691615027758643em" fill="#aaa"/><rect width="0.09615384615384616em" height="0.34864193026649504em" x="8.942307692307693vw" y="2.651358069733505em" fill="#aaa"/><rect width="0.09615384615384616em" height="0.35113561953045336em" x="9.038461538461538vw" y="2.6488643804695466em" fill="#aaa"/><rect width="0.09615384615384616em" height="0.39030780621682104em" x="9.134615384615385vw" y="2.6096921937831787em" fill="#aaa"/><rect width="0.09615384615384616em" height="0.3914283245142667em" x="9.230769230769232vw" y="2.6085716754857335em" fill="#aaa"/><rect width="0.09615384615384616em" height="0.5588465976066306em" x="9.326923076923077vw" y="2.441153402393369em" fill="#aaa"/><rect width="0.09615384615384616em" height="0.278712147410995em" x="9.423076923076923vw" y="2.721287852589005em" fill="#aaa"/><rect width="0.09615384615384616em" height="0.22355079407455014em" x="9.51923076923077vw" y="2.77644920592545em" fill="#aaa"/><rect width="0.09615384615384616em" height="0.7123520412260177em" x="9.615384615384617vw" y="2.287647958773982em" fill="#aaa"/><rect width="0.09615384615384616em" height="0.6403872002645266em" x="9.711538461538462vw" y="2.3596127997354737em" fill="#aaa"/><rect width="0.09615384615384616em" height="0.7652826250383118em" x="9.807692307692308vw" y="2.234717374961688em" fill="#aaa"/><rect width="0.09615384615384616em" height="1.1310174541885838em" x="9.903846153846155vw" y="1.8689825458114162em" fill="#aaa"/></svg>