<?xml version="1.0" standalone="no"?>
<svg xmlns:xlink="http://www.w3.org/1999/xlink" xmlns="http://www.w3.org/2000/svg" class="topic-graph" style="width: 100em; height: 30em; text-align: center;"><rect width="0.9615384615384616em" height="3.367877469278073em" x="0em" y="26.632122530721926em" fill="#aaa"/><rect width="0.9615384615384616em" height="13.429675425489737em" x="0.9615384615384616em" y="16.570324574510263em" fill="#aaa"/><rect width="0.9615384615384616em" height="3.1106675406735653em" x="1.9230769230769231em" y="26.889332459326436em" fill="#aaa"/><rect width="0.9615384615384616em" height="1.5444647423170486em" x="2.8846153846153846em" y="28.45553525768295em" fill="#aaa"/><rect width="0.9615384615384616em" height="3.8306612877614294em" x="3.8461538461538463em" y="26.16933871223857em" fill="#aaa"/><rect width="0.9615384615384616em" height="2.3192372446698193em" x="4.8076923076923075em" y="27.680762755330182em" fill="#aaa"/><rect width="0.9615384615384616em" height="3.132796357636435em" x="5.769230769230769em" y="26.867203642363563em" fill="#aaa"/><rect width="0.9615384615384616em" height="2.601871274675032em" x="6.730769230769231em" y="27.398128725324966em" fill="#aaa"/><rect width="0.9615384615384616em" height="1.365678779259552em" x="7.6923076923076925em" y="28.634321220740446em" fill="#aaa"/><rect width="0.9615384615384616em" height="4.777489566315637em" x="8.653846153846153em" y="25.222510433684363em" fill="#aaa"/><rect width="0.9615384615384616em" height="3.321943102551863em" x="9.615384615384615em" y="26.678056897448137em" fill="#aaa"/><rect width="0.9615384615384616em" height="4.557062481743838em" x="10.576923076923077em" y="25.442937518256162em" fill="#aaa"/><rect width="0.9615384615384616em" height="2.862784169912857em" x="11.538461538461538em" y="27.137215830087143em" fill="#aaa"/><rect width="0.9615384615384616em" height="3.136004117400213em" x="12.5em" y="26.863995882599788em" fill="#aaa"/><rect width="0.9615384615384616em" height="2.686476892214419em" x="13.461538461538462em" y="27.31352310778558em" fill="#aaa"/><rect width="0.9615384615384616em" height="2.08532081733305em" x="14.423076923076923em" y="27.91467918266695em" fill="#aaa"/><rect width="0.9615384615384616em" height="1.5284235997497946em" x="15.384615384615385em" y="28.471576400250207em" fill="#aaa"/><rect width="0.9615384615384616em" height="2.2701479218520135em" x="16.346153846153847em" y="27.729852078147985em" fill="#aaa"/><rect width="0.9615384615384616em" height="2.050136276551244em" x="17.307692307692307em" y="27.949863723448757em" fill="#aaa"/><rect width="0.9615384615384616em" height="1.816870303874372em" x="18.26923076923077em" y="28.18312969612563em" fill="#aaa"/><rect width="0.9615384615384616em" height="3.4138343106923412em" x="19.23076923076923em" y="26.58616568930766em" fill="#aaa"/><rect width="0.9615384615384616em" height="2.0830934823223837em" x="20.192307692307693em" y="27.916906517677617em" fill="#aaa"/><rect width="0.9615384615384616em" height="2.4945410239993824em" x="21.153846153846153em" y="27.505458976000618em" fill="#aaa"/><rect width="0.9615384615384616em" height="3.8991648540326485em" x="22.115384615384617em" y="26.100835145967352em" fill="#aaa"/><rect width="0.9615384615384616em" height="4.165663529794704em" x="23.076923076923077em" y="25.834336470205297em" fill="#aaa"/><rect width="0.9615384615384616em" height="5.4138633161334715em" x="24.03846153846154em" y="24.586136683866528em" fill="#aaa"/><rect width="0.9615384615384616em" height="3.1439234616119944em" x="25em" y="26.856076538388006em" fill="#aaa"/><rect width="0.9615384615384616em" height="2.9774445436039256em" x="25.961538461538463em" y="27.022555456396073em" fill="#aaa"/><rect width="0.9615384615384616em" height="1.5920282235673746em" x="26.923076923076923em" y="28.407971776432625em" fill="#aaa"/><rect width="0.9615384615384616em" height="1.8282070827595962em" x="27.884615384615387em" y="28.171792917240403em" fill="#aaa"/><rect width="0.9615384615384616em" height="3.56159264517628em" x="28.846153846153847em" y="26.43840735482372em" fill="#aaa"/><rect width="0.9615384615384616em" height="4.24213291076121em" x="29.80769230769231em" y="25.75786708923879em" fill="#aaa"/><rect width="0.9615384615384616em" height="4.175136202760137em" x="30.76923076923077em" y="25.824863797239864em" fill="#aaa"/><rect width="0.9615384615384616em" height="3.2650074848557225em" x="31.73076923076923em" y="26.734992515144278em" fill="#aaa"/><rect width="0.9615384615384616em" height="4.308736330799638em" x="32.69230769230769em" y="25.69126366920036em" fill="#aaa"/><rect width="0.9615384615384616em" height="3.7318689119625112em" x="33.65384615384615em" y="26.26813108803749em" fill="#aaa"/><rect width="0.9615384615384616em" height="7.8692642587914em" x="34.61538461538461em" y="22.1307357412086em" fill="#aaa"/><rect width="0.9615384615384616em" height="8.059328085730144em" x="35.57692307692308em" y="21.940671914269856em" fill="#aaa"/><rect width="0.9615384615384616em" height="9.031970610348626em" x="36.53846153846154em" y="20.968029389651374em" fill="#aaa"/><rect width="0.9615384615384616em" height="5.603909196658822em" x="37.5em" y="24.396090803341178em" fill="#aaa"/><rect width="0.9615384615384616em" height="7.1801072983469645em" x="38.46153846153846em" y="22.819892701653036em" fill="#aaa"/><rect width="0.9615384615384616em" height="7.468046042290394em" x="39.42307692307693em" y="22.531953957709607em" fill="#aaa"/><rect width="0.9615384615384616em" height="7.670236213945113em" x="40.38461538461539em" y="22.329763786054887em" fill="#aaa"/><rect width="0.9615384615384616em" height="5.543303514154108em" x="41.34615384615385em" y="24.456696485845892em" fill="#aaa"/><rect width="0.9615384615384616em" height="6.50743538335647em" x="42.30769230769231em" y="23.49256461664353em" fill="#aaa"/><rect width="0.9615384615384616em" height="5.078951015833088em" x="43.269230769230774em" y="24.921048984166912em" fill="#aaa"/><rect width="0.9615384615384616em" height="5.9968010914241825em" x="44.23076923076923em" y="24.00319890857582em" fill="#aaa"/><rect width="0.9615384615384616em" height="6.753976956903812em" x="45.19230769230769em" y="23.246023043096187em" fill="#aaa"/><rect width="0.9615384615384616em" height="5.056125920133263em" x="46.15384615384615em" y="24.943874079866738em" fill="#aaa"/><rect width="0.9615384615384616em" height="6.348090540239771em" x="47.11538461538461em" y="23.65190945976023em" fill="#aaa"/><rect width="0.9615384615384616em" height="8.889836859333231em" x="48.07692307692308em" y="21.11016314066677em" fill="#aaa"/><rect width="0.9615384615384616em" height="10.321317300451296em" x="49.03846153846154em" y="19.678682699548702em" fill="#aaa"/><rect width="0.9615384615384616em" height="7.953053670522288em" x="50em" y="22.046946329477713em" fill="#aaa"/><rect width="0.9615384615384616em" height="9.926718777966203em" x="50.96153846153846em" y="20.0732812220338em" fill="#aaa"/><rect width="0.9615384615384616em" height="9.42218626077756em" x="51.92307692307693em" y="20.577813739222442em" fill="#aaa"/><rect width="0.9615384615384616em" height="11.156933180024176em" x="52.88461538461539em" y="18.843066819975824em" fill="#aaa"/><rect width="0.9615384615384616em" height="12.95217283386211em" x="53.84615384615385em" y="17.047827166137893em" fill="#aaa"/><rect width="0.9615384615384616em" height="11.998108432736005em" x="54.80769230769231em" y="18.001891567263996em" fill="#aaa"/><rect width="0.9615384615384616em" height="13.01865730646969em" x="55.769230769230774em" y="16.98134269353031em" fill="#aaa"/><rect width="0.9615384615384616em" height="11.340540728690963em" x="56.73076923076923em" y="18.65945927130904em" fill="#aaa"/><rect width="0.9615384615384616em" height="13.542740173767998em" x="57.69230769230769em" y="16.457259826232004em" fill="#aaa"/><rect width="0.9615384615384616em" height="18.06139913674541em" x="58.65384615384615em" y="11.938600863254589em" fill="#aaa"/><rect width="0.9615384615384616em" height="18.242601854401762em" x="59.61538461538462em" y="11.757398145598238em" fill="#aaa"/><rect width="0.9615384615384616em" height="13.611438243956272em" x="60.57692307692308em" y="16.388561756043728em" fill="#aaa"/><rect width="0.9615384615384616em" height="18.746690513328303em" x="61.53846153846154em" y="11.253309486671697em" fill="#aaa"/><rect width="0.9615384615384616em" height="18.033329659960266em" x="62.5em" y="11.966670340039734em" fill="#aaa"/><rect width="0.9615384615384616em" height="12.663752591757648em" x="63.46153846153846em" y="17.33624740824235em" fill="#aaa"/><rect width="0.9615384615384616em" height="13.668302465947697em" x="64.42307692307692em" y="16.331697534052303em" fill="#aaa"/><rect width="0.9615384615384616em" height="13.046555988841003em" x="65.38461538461539em" y="16.953444011158997em" fill="#aaa"/><rect width="0.9615384615384616em" height="22.21569578806316em" x="66.34615384615385em" y="7.784304211936838em" fill="#aaa"/><rect width="0.9615384615384616em" height="19.421357931971286em" x="67.3076923076923em" y="10.578642068028714em" fill="#aaa"/><rect width="0.9615384615384616em" height="19.607603374535998em" x="68.26923076923077em" y="10.392396625464002em" fill="#aaa"/><rect width="0.9615384615384616em" height="23.129634537962097em" x="69.23076923076923em" y="6.870365462037903em" fill="#aaa"/><rect width="0.9615384615384616em" height="19.52643469570012em" x="70.1923076923077em" y="10.473565304299878em" fill="#aaa"/><rect width="0.9615384615384616em" height="19.213733244727898em" x="71.15384615384616em" y="10.786266755272102em" fill="#aaa"/><rect width="0.9615384615384616em" height="20.801045607736967em" x="72.11538461538461em" y="9.198954392263033em" fill="#aaa"/><rect width="0.9615384615384616em" height="16.39327645017413em" x="73.07692307692308em" y="13.606723549825869em" fill="#aaa"/><rect width="0.9615384615384616em" height="16.077841493356186em" x="74.03846153846155em" y="13.922158506643814em" fill="#aaa"/><rect width="0.9615384615384616em" height="17.225190720969547em" x="75em" y="12.774809279030453em" fill="#aaa"/><rect width="0.9615384615384616em" height="13.112006317101727em" x="75.96153846153847em" y="16.887993682898273em" fill="#aaa"/><rect width="0.9615384615384616em" height="24.01176871329068em" x="76.92307692307692em" y="5.988231286709318em" fill="#aaa"/><rect width="0.9615384615384616em" height="24.148525270680672em" x="77.88461538461539em" y="5.851474729319328em" fill="#aaa"/><rect width="0.9615384615384616em" height="24.97267546899675em" x="78.84615384615385em" y="5.027324531003249em" fill="#aaa"/><rect width="0.9615384615384616em" height="27.38264204741422em" x="79.8076923076923em" y="2.617357952585781em" fill="#aaa"/><rect width="0.9615384615384616em" height="20.56770234083948em" x="80.76923076923077em" y="9.432297659160518em" fill="#aaa"/><rect width="0.9615384615384616em" height="19.212858486248646em" x="81.73076923076923em" y="10.787141513751354em" fill="#aaa"/><rect width="0.9615384615384616em" height="24.505138810415403em" x="82.6923076923077em" y="5.494861189584597em" fill="#aaa"/><rect width="0.9615384615384616em" height="18.941028613318196em" x="83.65384615384616em" y="11.058971386681804em" fill="#aaa"/><rect width="0.9615384615384616em" height="21.89514275501228em" x="84.61538461538461em" y="8.10485724498772em" fill="#aaa"/><rect width="0.9615384615384616em" height="21.13644862943339em" x="85.57692307692308em" y="8.863551370566611em" fill="#aaa"/><rect width="0.9615384615384616em" height="20.035952351593053em" x="86.53846153846155em" y="9.964047648406947em" fill="#aaa"/><rect width="0.9615384615384616em" height="18.855033166949255em" x="87.5em" y="11.144966833050745em" fill="#aaa"/><rect width="0.9615384615384616em" height="19.283865842072093em" x="88.46153846153847em" y="10.716134157927907em" fill="#aaa"/><rect width="0.9615384615384616em" height="30em" x="89.42307692307692em" y="0em" fill="#aaa"/><rect width="0.9615384615384616em" height="21.61608845389378em" x="90.38461538461539em" y="8.38391154610622em" fill="#aaa"/><rect width="0.9615384615384616em" height="16.500656842543727em" x="91.34615384615385em" y="13.499343157456273em" fill="#aaa"/><rect width="0.9615384615384616em" height="17.68561650976021em" x="92.3076923076923em" y="12.314383490239791em" fill="#aaa"/><rect width="0.9615384615384616em" height="19.411277161638147em" x="93.26923076923077em" y="10.588722838361853em" fill="#aaa"/><rect width="0.9615384615384616em" height="21.532743463600845em" x="94.23076923076923em" y="8.467256536399155em" fill="#aaa"/><rect width="0.9615384615384616em" height="18.618273249133704em" x="95.1923076923077em" y="11.381726750866296em" fill="#aaa"/><rect width="0.9615384615384616em" height="19.457341712758094em" x="96.15384615384616em" y="10.542658287241906em" fill="#aaa"/><rect width="0.9615384615384616em" height="22.49659745834119em" x="97.11538461538461em" y="7.5034025416588115em" fill="#aaa"/><rect width="0.9615384615384616em" height="21.30829977227734em" x="98.07692307692308em" y="8.69170022772266em" fill="#aaa"/><rect width="0.9615384615384616em" height="20.36129992666301em" x="99.03846153846155em" y="9.638700073336992em" fill="#aaa"/></svg>