<?xml version="1.0" standalone="no"?>
<svg xmlns:xlink="http://www.w3.org/1999/xlink" xmlns="http://www.w3.org/2000/svg" class="topic-graph" style="width: 100em; height: 30em; text-align: center;"><rect width="0.9615384615384616em" height="7.662626643400442em" x="0em" y="22.337373356599556em" fill="#aaa"/><rect width="0.9615384615384616em" height="5.224324794164016em" x="0.9615384615384616em" y="24.775675205835984em" fill="#aaa"/><rect width="0.9615384615384616em" height="6.821319418392383em" x="1.9230769230769231em" y="23.178680581607615em" fill="#aaa"/><rect width="0.9615384615384616em" height="1.4157779003914062em" x="2.8846153846153846em" y="28.584222099608596em" fill="#aaa"/><rect width="0.9615384615384616em" height="1.7909992258599807em" x="3.8461538461538463em" y="28.20900077414002em" fill="#aaa"/><rect width="0.9615384615384616em" height="6.037430259390675em" x="4.8076923076923075em" y="23.962569740609325em" fill="#aaa"/><rect width="0.9615384615384616em" height="5.390212925004087em" x="5.769230769230769em" y="24.609787074995914em" fill="#aaa"/><rect width="0.9615384615384616em" height="0.4698117541905917em" x="6.730769230769231em" y="29.53018824580941em" fill="#aaa"/><rect width="0.9615384615384616em" height="6.924861564838168em" x="7.6923076923076925em" y="23.075138435161833em" fill="#aaa"/><rect width="0.9615384615384616em" height="3.2149137931888374em" x="8.653846153846153em" y="26.78508620681116em" fill="#aaa"/><rect width="0.9615384615384616em" height="1.5466315211724788em" x="9.615384615384615em" y="28.45336847882752em" fill="#aaa"/><rect width="0.9615384615384616em" height="5.278576269993248em" x="10.576923076923077em" y="24.72142373000675em" fill="#aaa"/><rect width="0.9615384615384616em" height="4.934807695381744em" x="11.538461538461538em" y="25.065192304618257em" fill="#aaa"/><rect width="0.9615384615384616em" height="2.188252566053338em" x="12.5em" y="27.811747433946664em" fill="#aaa"/><rect width="0.9615384615384616em" height="30em" x="13.461538461538462em" y="0em" fill="#aaa"/><rect width="0.9615384615384616em" height="2.9133088800778584em" x="14.423076923076923em" y="27.086691119922143em" fill="#aaa"/><rect width="0.9615384615384616em" height="2.2152686141543136em" x="15.384615384615385em" y="27.784731385845685em" fill="#aaa"/><rect width="0.9615384615384616em" height="5.564142127857029em" x="16.346153846153847em" y="24.43585787214297em" fill="#aaa"/><rect width="0.9615384615384616em" height="9.250452708734114em" x="17.307692307692307em" y="20.749547291265884em" fill="#aaa"/><rect width="0.9615384615384616em" height="2.4194002640593766em" x="18.26923076923077em" y="27.580599735940623em" fill="#aaa"/><rect width="0.9615384615384616em" height="2.969436541001898em" x="19.23076923076923em" y="27.030563458998103em" fill="#aaa"/><rect width="0.9615384615384616em" height="3.3014973500546883em" x="20.192307692307693em" y="26.69850264994531em" fill="#aaa"/><rect width="0.9615384615384616em" height="1.3200559689660059em" x="21.153846153846153em" y="28.679944031033994em" fill="#aaa"/><rect width="0.9615384615384616em" height="3.882831633968577em" x="22.115384615384617em" y="26.11716836603142em" fill="#aaa"/><rect width="0.9615384615384616em" height="1.852787755094587em" x="23.076923076923077em" y="28.14721224490541em" fill="#aaa"/><rect width="0.9615384615384616em" height="3.2219147039792824em" x="24.03846153846154em" y="26.778085296020716em" fill="#aaa"/><rect width="0.9615384615384616em" height="2.9348397863453064em" x="25em" y="27.065160213654693em" fill="#aaa"/><rect width="0.9615384615384616em" height="2.092011522343269em" x="25.961538461538463em" y="27.90798847765673em" fill="#aaa"/><rect width="0.9615384615384616em" height="3.327518272069067em" x="26.923076923076923em" y="26.672481727930933em" fill="#aaa"/><rect width="0.9615384615384616em" height="3.735272399901146em" x="27.884615384615387em" y="26.264727600098855em" fill="#aaa"/><rect width="0.9615384615384616em" height="1.7060095440520786em" x="28.846153846153847em" y="28.29399045594792em" fill="#aaa"/><rect width="0.9615384615384616em" height="1.2159954521771605em" x="29.80769230769231em" y="28.78400454782284em" fill="#aaa"/><rect width="0.9615384615384616em" height="3.651739060751604em" x="30.76923076923077em" y="26.348260939248398em" fill="#aaa"/><rect width="0.9615384615384616em" height="4.825353418423223em" x="31.73076923076923em" y="25.174646581576777em" fill="#aaa"/><rect width="0.9615384615384616em" height="4.542802203239409em" x="32.69230769230769em" y="25.45719779676059em" fill="#aaa"/><rect width="0.9615384615384616em" height="4.986000058340947em" x="33.65384615384615em" y="25.01399994165905em" fill="#aaa"/><rect width="0.9615384615384616em" height="4.937946120116803em" x="34.61538461538461em" y="25.062053879883198em" fill="#aaa"/><rect width="0.9615384615384616em" height="4.185563421808196em" x="35.57692307692308em" y="25.814436578191803em" fill="#aaa"/><rect width="0.9615384615384616em" height="5.215110124587409em" x="36.53846153846154em" y="24.784889875412592em" fill="#aaa"/><rect width="0.9615384615384616em" height="3.724298493344613em" x="37.5em" y="26.275701506655388em" fill="#aaa"/><rect width="0.9615384615384616em" height="3.6080683714767154em" x="38.46153846153846em" y="26.391931628523285em" fill="#aaa"/><rect width="0.9615384615384616em" height="5.281064229114119em" x="39.42307692307693em" y="24.71893577088588em" fill="#aaa"/><rect width="0.9615384615384616em" height="10.351291261292433em" x="40.38461538461539em" y="19.64870873870757em" fill="#aaa"/><rect width="0.9615384615384616em" height="9.564712417079592em" x="41.34615384615385em" y="20.43528758292041em" fill="#aaa"/><rect width="0.9615384615384616em" height="3.2676114712380833em" x="42.30769230769231em" y="26.732388528761916em" fill="#aaa"/><rect width="0.9615384615384616em" height="4.742090418572789em" x="43.269230769230774em" y="25.25790958142721em" fill="#aaa"/><rect width="0.9615384615384616em" height="3.612562845869915em" x="44.23076923076923em" y="26.387437154130083em" fill="#aaa"/><rect width="0.9615384615384616em" height="2.4002841937256028em" x="45.19230769230769em" y="27.599715806274396em" fill="#aaa"/><rect width="0.9615384615384616em" height="2.83694932826124em" x="46.15384615384615em" y="27.16305067173876em" fill="#aaa"/><rect width="0.9615384615384616em" height="4.164735601372073em" x="47.11538461538461em" y="25.835264398627928em" fill="#aaa"/><rect width="0.9615384615384616em" height="7.974246508339337em" x="48.07692307692308em" y="22.025753491660662em" fill="#aaa"/><rect width="0.9615384615384616em" height="1.647299166527676em" x="49.03846153846154em" y="28.352700833472323em" fill="#aaa"/><rect width="0.9615384615384616em" height="4.65484641422427em" x="50em" y="25.34515358577573em" fill="#aaa"/><rect width="0.9615384615384616em" height="3.67873979878637em" x="50.96153846153846em" y="26.32126020121363em" fill="#aaa"/><rect width="0.9615384615384616em" height="1.6482138169656322em" x="51.92307692307693em" y="28.351786183034367em" fill="#aaa"/><rect width="0.9615384615384616em" height="5.563866446111295em" x="52.88461538461539em" y="24.436133553888705em" fill="#aaa"/><rect width="0.9615384615384616em" height="3.3832990112789956em" x="53.84615384615385em" y="26.616700988721004em" fill="#aaa"/><rect width="0.9615384615384616em" height="2.294777192233451em" x="54.80769230769231em" y="27.70522280776655em" fill="#aaa"/><rect width="0.9615384615384616em" height="7.446935919554078em" x="55.769230769230774em" y="22.55306408044592em" fill="#aaa"/><rect width="0.9615384615384616em" height="4.16102627307439em" x="56.73076923076923em" y="25.83897372692561em" fill="#aaa"/><rect width="0.9615384615384616em" height="3.6287109818948227em" x="57.69230769230769em" y="26.371289018105177em" fill="#aaa"/><rect width="0.9615384615384616em" height="1.7808217956997994em" x="58.65384615384615em" y="28.2191782043002em" fill="#aaa"/><rect width="0.9615384615384616em" height="4.79642533169144em" x="59.61538461538462em" y="25.203574668308562em" fill="#aaa"/><rect width="0.9615384615384616em" height="1.898195257841868em" x="60.57692307692308em" y="28.101804742158134em" fill="#aaa"/><rect width="0.9615384615384616em" height="7.697346901786337em" x="61.53846153846154em" y="22.302653098213664em" fill="#aaa"/><rect width="0.9615384615384616em" height="4.5154074602459255em" x="62.5em" y="25.484592539754075em" fill="#aaa"/><rect width="0.9615384615384616em" height="4.537057319875695em" x="63.46153846153846em" y="25.462942680124307em" fill="#aaa"/><rect width="0.9615384615384616em" height="4.652984769901567em" x="64.42307692307692em" y="25.34701523009843em" fill="#aaa"/><rect width="0.9615384615384616em" height="7.133731648769608em" x="65.38461538461539em" y="22.866268351230392em" fill="#aaa"/><rect width="0.9615384615384616em" height="1.2372964085752411em" x="66.34615384615385em" y="28.76270359142476em" fill="#aaa"/><rect width="0.9615384615384616em" height="6.120904484807791em" x="67.3076923076923em" y="23.87909551519221em" fill="#aaa"/><rect width="0.9615384615384616em" height="7.401007265410628em" x="68.26923076923077em" y="22.598992734589373em" fill="#aaa"/><rect width="0.9615384615384616em" height="6.085658278066405em" x="69.23076923076923em" y="23.914341721933596em" fill="#aaa"/><rect width="0.9615384615384616em" height="4.539707450971706em" x="70.1923076923077em" y="25.460292549028296em" fill="#aaa"/><rect width="0.9615384615384616em" height="5.516744000337761em" x="71.15384615384616em" y="24.48325599966224em" fill="#aaa"/><rect width="0.9615384615384616em" height="4.416346240621688em" x="72.11538461538461em" y="25.58365375937831em" fill="#aaa"/><rect width="0.9615384615384616em" height="5.501566602772604em" x="73.07692307692308em" y="24.498433397227394em" fill="#aaa"/><rect width="0.9615384615384616em" height="6.047414813743575em" x="74.03846153846155em" y="23.952585186256425em" fill="#aaa"/><rect width="0.9615384615384616em" height="6.228449911514147em" x="75em" y="23.771550088485853em" fill="#aaa"/><rect width="0.9615384615384616em" height="3.7930359519681494em" x="75.96153846153847em" y="26.20696404803185em" fill="#aaa"/><rect width="0.9615384615384616em" height="5.520623025166381em" x="76.92307692307692em" y="24.47937697483362em" fill="#aaa"/><rect width="0.9615384615384616em" height="4.459762816847878em" x="77.88461538461539em" y="25.540237183152122em" fill="#aaa"/><rect width="0.9615384615384616em" height="4.9046869227744425em" x="78.84615384615385em" y="25.09531307722556em" fill="#aaa"/><rect width="0.9615384615384616em" height="7.204994858409098em" x="79.8076923076923em" y="22.795005141590902em" fill="#aaa"/><rect width="0.9615384615384616em" height="11.084931174305197em" x="80.76923076923077em" y="18.915068825694803em" fill="#aaa"/><rect width="0.9615384615384616em" height="8.250821090944775em" x="81.73076923076923em" y="21.749178909055225em" fill="#aaa"/><rect width="0.9615384615384616em" height="5.161204643906825em" x="82.6923076923077em" y="24.838795356093176em" fill="#aaa"/><rect width="0.9615384615384616em" height="4.615195018917808em" x="83.65384615384616em" y="25.38480498108219em" fill="#aaa"/><rect width="0.9615384615384616em" height="5.2678905144299515em" x="84.61538461538461em" y="24.73210948557005em" fill="#aaa"/><rect width="0.9615384615384616em" height="3.5821932899939983em" x="85.57692307692308em" y="26.417806710006em" fill="#aaa"/><rect width="0.9615384615384616em" height="6.185325511436755em" x="86.53846153846155em" y="23.814674488563245em" fill="#aaa"/><rect width="0.9615384615384616em" height="5.345663049975958em" x="87.5em" y="24.654336950024042em" fill="#aaa"/><rect width="0.9615384615384616em" height="4.533244538652503em" x="88.46153846153847em" y="25.466755461347496em" fill="#aaa"/><rect width="0.9615384615384616em" height="5.045995500180937em" x="89.42307692307692em" y="24.954004499819064em" fill="#aaa"/><rect width="0.9615384615384616em" height="6.277792297173522em" x="90.38461538461539em" y="23.722207702826477em" fill="#aaa"/><rect width="0.9615384615384616em" height="15.594678901937822em" x="91.34615384615385em" y="14.405321098062178em" fill="#aaa"/><rect width="0.9615384615384616em" height="10.619107628798933em" x="92.3076923076923em" y="19.380892371201067em" fill="#aaa"/><rect width="0.9615384615384616em" height="6.128400326495917em" x="93.26923076923077em" y="23.871599673504083em" fill="#aaa"/><rect width="0.9615384615384616em" height="7.841060730794035em" x="94.23076923076923em" y="22.158939269205966em" fill="#aaa"/><rect width="0.9615384615384616em" height="4.653241339774364em" x="95.1923076923077em" y="25.346758660225635em" fill="#aaa"/><rect width="0.9615384615384616em" height="5.9273403789385375em" x="96.15384615384616em" y="24.07265962106146em" fill="#aaa"/><rect width="0.9615384615384616em" height="7.242633730652299em" x="97.11538461538461em" y="22.7573662693477em" fill="#aaa"/><rect width="0.9615384615384616em" height="6.875257885070345em" x="98.07692307692308em" y="23.124742114929653em" fill="#aaa"/><rect width="0.9615384615384616em" height="6.588787370126709em" x="99.03846153846155em" y="23.41121262987329em" fill="#aaa"/></svg>