<?xml version="1.0" standalone="no"?>
<svg xmlns:xlink="http://www.w3.org/1999/xlink" xmlns="http://www.w3.org/2000/svg" class="topic-graph" style="width: 100em; height: 30em; text-align: center;"><rect width="0.9615384615384616em" height="0.3256198196255504em" x="0em" y="29.67438018037445em" fill="#aaa"/><rect width="0.9615384615384616em" height="6.487703448279853em" x="0.9615384615384616em" y="23.512296551720148em" fill="#aaa"/><rect width="0.9615384615384616em" height="0.23612925051056718em" x="1.9230769230769231em" y="29.76387074948943em" fill="#aaa"/><rect width="0.9615384615384616em" height="0.11945206101033021em" x="2.8846153846153846em" y="29.880547938989668em" fill="#aaa"/><rect width="0.9615384615384616em" height="0.44873424275161444em" x="3.8461538461538463em" y="29.551265757248384em" fill="#aaa"/><rect width="0.9615384615384616em" height="0.2717005654714506em" x="4.8076923076923075em" y="29.728299434528548em" fill="#aaa"/><rect width="0.9615384615384616em" height="0.3796421766822392em" x="5.769230769230769em" y="29.62035782331776em" fill="#aaa"/><rect width="0.9615384615384616em" height="0.16769371076788298em" x="6.730769230769231em" y="29.83230628923212em" fill="#aaa"/><rect width="0.9615384615384616em" height="0.3942084646440075em" x="7.6923076923076925em" y="29.605791535355994em" fill="#aaa"/><rect width="0.9615384615384616em" height="0.45611524422532007em" x="8.653846153846153em" y="29.54388475577468em" fill="#aaa"/><rect width="0.9615384615384616em" height="0.9436047668176104em" x="9.615384615384615em" y="29.05639523318239em" fill="#aaa"/><rect width="0.9615384615384616em" height="0.43014598971773227em" x="10.576923076923077em" y="29.569854010282267em" fill="#aaa"/><rect width="0.9615384615384616em" height="0.5844943524363164em" x="11.538461538461538em" y="29.415505647563684em" fill="#aaa"/><rect width="0.9615384615384616em" height="0.27546335375864717em" x="12.5em" y="29.724536646241354em" fill="#aaa"/><rect width="0.9615384615384616em" height="0.6026761783504326em" x="13.461538461538462em" y="29.397323821649568em" fill="#aaa"/><rect width="0.9615384615384616em" height="0.48779902991868274em" x="14.423076923076923em" y="29.512200970081317em" fill="#aaa"/><rect width="0.9615384615384616em" height="0.305911766046218em" x="15.384615384615385em" y="29.69408823395378em" fill="#aaa"/><rect width="0.9615384615384616em" height="0.6690569768171746em" x="16.346153846153847em" y="29.330943023182826em" fill="#aaa"/><rect width="0.9615384615384616em" height="0.44681767063987265em" x="17.307692307692307em" y="29.553182329360126em" fill="#aaa"/><rect width="0.9615384615384616em" height="0.29485529606460503em" x="18.26923076923077em" y="29.705144703935396em" fill="#aaa"/><rect width="0.9615384615384616em" height="0.34265034783647164em" x="19.23076923076923em" y="29.65734965216353em" fill="#aaa"/><rect width="0.9615384615384616em" height="0.20578357916634596em" x="20.192307692307693em" y="29.794216420833653em" fill="#aaa"/><rect width="0.9615384615384616em" height="0.40217419396581305em" x="21.153846153846153em" y="29.597825806034187em" fill="#aaa"/><rect width="0.9615384615384616em" height="0.2617946772979129em" x="22.115384615384617em" y="29.738205322702086em" fill="#aaa"/><rect width="0.9615384615384616em" height="0.6821001300772849em" x="23.076923076923077em" y="29.317899869922716em" fill="#aaa"/><rect width="0.9615384615384616em" height="1.3842833874579863em" x="24.03846153846154em" y="28.615716612542013em" fill="#aaa"/><rect width="0.9615384615384616em" height="0.7935735208437202em" x="25em" y="29.20642647915628em" fill="#aaa"/><rect width="0.9615384615384616em" height="0.7476647012659395em" x="25.961538461538463em" y="29.25233529873406em" fill="#aaa"/><rect width="0.9615384615384616em" height="0.6781834066040652em" x="26.923076923076923em" y="29.321816593395933em" fill="#aaa"/><rect width="0.9615384615384616em" height="0.9800369719650053em" x="27.884615384615387em" y="29.019963028034994em" fill="#aaa"/><rect width="0.9615384615384616em" height="1.3421635159442782em" x="28.846153846153847em" y="28.65783648405572em" fill="#aaa"/><rect width="0.9615384615384616em" height="3.345312681053572em" x="29.80769230769231em" y="26.65468731894643em" fill="#aaa"/><rect width="0.9615384615384616em" height="1.7493884766761079em" x="30.76923076923077em" y="28.250611523323894em" fill="#aaa"/><rect width="0.9615384615384616em" height="1.0758288333375914em" x="31.73076923076923em" y="28.924171166662408em" fill="#aaa"/><rect width="0.9615384615384616em" height="2.244926927742614em" x="32.69230769230769em" y="27.755073072257385em" fill="#aaa"/><rect width="0.9615384615384616em" height="2.7248780112511417em" x="33.65384615384615em" y="27.275121988748857em" fill="#aaa"/><rect width="0.9615384615384616em" height="1.855503554721219em" x="34.61538461538461em" y="28.14449644527878em" fill="#aaa"/><rect width="0.9615384615384616em" height="1.161952998180688em" x="35.57692307692308em" y="28.838047001819312em" fill="#aaa"/><rect width="0.9615384615384616em" height="1.8180092277772717em" x="36.53846153846154em" y="28.18199077222273em" fill="#aaa"/><rect width="0.9615384615384616em" height="0.4984135059433526em" x="37.5em" y="29.501586494056646em" fill="#aaa"/><rect width="0.9615384615384616em" height="2.469387675541648em" x="38.46153846153846em" y="27.530612324458353em" fill="#aaa"/><rect width="0.9615384615384616em" height="2.4613525749861958em" x="39.42307692307693em" y="27.538647425013803em" fill="#aaa"/><rect width="0.9615384615384616em" height="1.1769667199799356em" x="40.38461538461539em" y="28.823033280020063em" fill="#aaa"/><rect width="0.9615384615384616em" height="1.3627145504447393em" x="41.34615384615385em" y="28.63728544955526em" fill="#aaa"/><rect width="0.9615384615384616em" height="0.5107527481137708em" x="42.30769230769231em" y="29.48924725188623em" fill="#aaa"/><rect width="0.9615384615384616em" height="1.2301738668052047em" x="43.269230769230774em" y="28.769826133194794em" fill="#aaa"/><rect width="0.9615384615384616em" height="0.6182836425859547em" x="44.23076923076923em" y="29.381716357414046em" fill="#aaa"/><rect width="0.9615384615384616em" height="0.9176808725640626em" x="45.19230769230769em" y="29.082319127435937em" fill="#aaa"/><rect width="0.9615384615384616em" height="1.4670220408784567em" x="46.15384615384615em" y="28.532977959121542em" fill="#aaa"/><rect width="0.9615384615384616em" height="1.867473669216497em" x="47.11538461538461em" y="28.132526330783502em" fill="#aaa"/><rect width="0.9615384615384616em" height="1.697132414136133em" x="48.07692307692308em" y="28.30286758586387em" fill="#aaa"/><rect width="0.9615384615384616em" height="2.08501791013802em" x="49.03846153846154em" y="27.91498208986198em" fill="#aaa"/><rect width="0.9615384615384616em" height="3.720230828574102em" x="50em" y="26.279769171425897em" fill="#aaa"/><rect width="0.9615384615384616em" height="2.2061597495499115em" x="50.96153846153846em" y="27.79384025045009em" fill="#aaa"/><rect width="0.9615384615384616em" height="1.197593563203817em" x="51.92307692307693em" y="28.802406436796183em" fill="#aaa"/><rect width="0.9615384615384616em" height="1.9758345109783364em" x="52.88461538461539em" y="28.024165489021662em" fill="#aaa"/><rect width="0.9615384615384616em" height="1.7343844246416182em" x="53.84615384615385em" y="28.26561557535838em" fill="#aaa"/><rect width="0.9615384615384616em" height="4.13738214117318em" x="54.80769230769231em" y="25.86261785882682em" fill="#aaa"/><rect width="0.9615384615384616em" height="1.367162228735532em" x="55.769230769230774em" y="28.63283777126447em" fill="#aaa"/><rect width="0.9615384615384616em" height="2.4039880246818535em" x="56.73076923076923em" y="27.596011975318145em" fill="#aaa"/><rect width="0.9615384615384616em" height="7.449662644315717em" x="57.69230769230769em" y="22.550337355684285em" fill="#aaa"/><rect width="0.9615384615384616em" height="3.473795628860735em" x="58.65384615384615em" y="26.526204371139265em" fill="#aaa"/><rect width="0.9615384615384616em" height="4.220597079238369em" x="59.61538461538462em" y="25.77940292076163em" fill="#aaa"/><rect width="0.9615384615384616em" height="3.192323609038502em" x="60.57692307692308em" y="26.807676390961497em" fill="#aaa"/><rect width="0.9615384615384616em" height="2.920636946341562em" x="61.53846153846154em" y="27.079363053658437em" fill="#aaa"/><rect width="0.9615384615384616em" height="2.0644468130804197em" x="62.5em" y="27.93555318691958em" fill="#aaa"/><rect width="0.9615384615384616em" height="2.8335771600403517em" x="63.46153846153846em" y="27.166422839959647em" fill="#aaa"/><rect width="0.9615384615384616em" height="2.5570064192243325em" x="64.42307692307692em" y="27.442993580775667em" fill="#aaa"/><rect width="0.9615384615384616em" height="3.550090880234016em" x="65.38461538461539em" y="26.449909119765984em" fill="#aaa"/><rect width="0.9615384615384616em" height="5.741646344320026em" x="66.34615384615385em" y="24.258353655679976em" fill="#aaa"/><rect width="0.9615384615384616em" height="4.059408041847806em" x="67.3076923076923em" y="25.940591958152194em" fill="#aaa"/><rect width="0.9615384615384616em" height="4.086110385536564em" x="68.26923076923077em" y="25.913889614463436em" fill="#aaa"/><rect width="0.9615384615384616em" height="5.974630208241247em" x="69.23076923076923em" y="24.025369791758752em" fill="#aaa"/><rect width="0.9615384615384616em" height="2.5479105109735865em" x="70.1923076923077em" y="27.452089489026413em" fill="#aaa"/><rect width="0.9615384615384616em" height="5.395761550221508em" x="71.15384615384616em" y="24.604238449778492em" fill="#aaa"/><rect width="0.9615384615384616em" height="9.144555861642555em" x="72.11538461538461em" y="20.855444138357445em" fill="#aaa"/><rect width="0.9615384615384616em" height="10.553906392428985em" x="73.07692307692308em" y="19.446093607571015em" fill="#aaa"/><rect width="0.9615384615384616em" height="27.33780280794741em" x="74.03846153846155em" y="2.6621971920525915em" fill="#aaa"/><rect width="0.9615384615384616em" height="20.33001541561462em" x="75em" y="9.669984584385379em" fill="#aaa"/><rect width="0.9615384615384616em" height="26.363168034836583em" x="75.96153846153847em" y="3.6368319651634167em" fill="#aaa"/><rect width="0.9615384615384616em" height="30em" x="76.92307692307692em" y="0em" fill="#aaa"/><rect width="0.9615384615384616em" height="19.16024485776892em" x="77.88461538461539em" y="10.83975514223108em" fill="#aaa"/><rect width="0.9615384615384616em" height="27.51349095112284em" x="78.84615384615385em" y="2.48650904887716em" fill="#aaa"/><rect width="0.9615384615384616em" height="16.17274428277147em" x="79.8076923076923em" y="13.827255717228532em" fill="#aaa"/><rect width="0.9615384615384616em" height="18.606856423880995em" x="80.76923076923077em" y="11.393143576119005em" fill="#aaa"/><rect width="0.9615384615384616em" height="16.42786662410634em" x="81.73076923076923em" y="13.57213337589366em" fill="#aaa"/><rect width="0.9615384615384616em" height="11.772582173232703em" x="82.6923076923077em" y="18.227417826767297em" fill="#aaa"/><rect width="0.9615384615384616em" height="17.580114463315013em" x="83.65384615384616em" y="12.419885536684987em" fill="#aaa"/><rect width="0.9615384615384616em" height="10.810956569940855em" x="84.61538461538461em" y="19.189043430059144em" fill="#aaa"/><rect width="0.9615384615384616em" height="13.134974135814604em" x="85.57692307692308em" y="16.865025864185398em" fill="#aaa"/><rect width="0.9615384615384616em" height="10.034872094942912em" x="86.53846153846155em" y="19.965127905057088em" fill="#aaa"/><rect width="0.9615384615384616em" height="11.215041217794855em" x="87.5em" y="18.784958782205145em" fill="#aaa"/><rect width="0.9615384615384616em" height="11.41675475024601em" x="88.46153846153847em" y="18.58324524975399em" fill="#aaa"/><rect width="0.9615384615384616em" height="8.536803756046128em" x="89.42307692307692em" y="21.463196243953874em" fill="#aaa"/><rect width="0.9615384615384616em" height="11.29184487226229em" x="90.38461538461539em" y="18.70815512773771em" fill="#aaa"/><rect width="0.9615384615384616em" height="8.907676470268099em" x="91.34615384615385em" y="21.0923235297319em" fill="#aaa"/><rect width="0.9615384615384616em" height="18.49508681952997em" x="92.3076923076923em" y="11.50491318047003em" fill="#aaa"/><rect width="0.9615384615384616em" height="20.84182888856705em" x="93.26923076923077em" y="9.15817111143295em" fill="#aaa"/><rect width="0.9615384615384616em" height="10.366779856960566em" x="94.23076923076923em" y="19.633220143039434em" fill="#aaa"/><rect width="0.9615384615384616em" height="27.396483497936746em" x="95.1923076923077em" y="2.603516502063254em" fill="#aaa"/><rect width="0.9615384615384616em" height="24.717531993325103em" x="96.15384615384616em" y="5.282468006674897em" fill="#aaa"/><rect width="0.9615384615384616em" height="16.068900335703525em" x="97.11538461538461em" y="13.931099664296475em" fill="#aaa"/><rect width="0.9615384615384616em" height="14.294595742831333em" x="98.07692307692308em" y="15.705404257168667em" fill="#aaa"/><rect width="0.9615384615384616em" height="15.972801439320104em" x="99.03846153846155em" y="14.027198560679896em" fill="#aaa"/></svg>