<?xml version="1.0" standalone="no"?>
<svg xmlns:xlink="http://www.w3.org/1999/xlink" xmlns="http://www.w3.org/2000/svg" class="topic-graph" style="width: 100em; height: 30em; text-align: center;"><rect width="0.9615384615384616em" height="0.8047710025836826em" x="0em" y="29.19522899741632em" fill="#aaa"/><rect width="0.9615384615384616em" height="6.4168444646405005em" x="0.9615384615384616em" y="23.5831555353595em" fill="#aaa"/><rect width="0.9615384615384616em" height="14.218139408373847em" x="1.9230769230769231em" y="15.781860591626153em" fill="#aaa"/><rect width="0.9615384615384616em" height="3.167403278325965em" x="2.8846153846153846em" y="26.832596721674037em" fill="#aaa"/><rect width="0.9615384615384616em" height="27.403094419696046em" x="3.8461538461538463em" y="2.596905580303954em" fill="#aaa"/><rect width="0.9615384615384616em" height="5.346358282704575em" x="4.8076923076923075em" y="24.653641717295425em" fill="#aaa"/><rect width="0.9615384615384616em" height="1.3708570975425938em" x="5.769230769230769em" y="28.629142902457406em" fill="#aaa"/><rect width="0.9615384615384616em" height="8.69403717564128em" x="6.730769230769231em" y="21.30596282435872em" fill="#aaa"/><rect width="0.9615384615384616em" height="10.820255242685127em" x="7.6923076923076925em" y="19.17974475731487em" fill="#aaa"/><rect width="0.9615384615384616em" height="2.2145025094200452em" x="8.653846153846153em" y="27.785497490579957em" fill="#aaa"/><rect width="0.9615384615384616em" height="1.9002709719394681em" x="9.615384615384615em" y="28.099729028060533em" fill="#aaa"/><rect width="0.9615384615384616em" height="0.945012490520923em" x="10.576923076923077em" y="29.054987509479076em" fill="#aaa"/><rect width="0.9615384615384616em" height="10.025593732919843em" x="11.538461538461538em" y="19.974406267080155em" fill="#aaa"/><rect width="0.9615384615384616em" height="7.067548623167148em" x="12.5em" y="22.93245137683285em" fill="#aaa"/><rect width="0.9615384615384616em" height="9.218884629711397em" x="13.461538461538462em" y="20.781115370288603em" fill="#aaa"/><rect width="0.9615384615384616em" height="7.115752399228771em" x="14.423076923076923em" y="22.88424760077123em" fill="#aaa"/><rect width="0.9615384615384616em" height="0.8048404942874366em" x="15.384615384615385em" y="29.195159505712564em" fill="#aaa"/><rect width="0.9615384615384616em" height="8.06536262087755em" x="16.346153846153847em" y="21.93463737912245em" fill="#aaa"/><rect width="0.9615384615384616em" height="5.942995040206561em" x="17.307692307692307em" y="24.05700495979344em" fill="#aaa"/><rect width="0.9615384615384616em" height="6.334306273950592em" x="18.26923076923077em" y="23.66569372604941em" fill="#aaa"/><rect width="0.9615384615384616em" height="6.232058658754815em" x="19.23076923076923em" y="23.767941341245184em" fill="#aaa"/><rect width="0.9615384615384616em" height="4.831496712088687em" x="20.192307692307693em" y="25.168503287911314em" fill="#aaa"/><rect width="0.9615384615384616em" height="2.211336410377075em" x="21.153846153846153em" y="27.788663589622924em" fill="#aaa"/><rect width="0.9615384615384616em" height="7.3992702375947665em" x="22.115384615384617em" y="22.600729762405233em" fill="#aaa"/><rect width="0.9615384615384616em" height="3.9563263915187132em" x="23.076923076923077em" y="26.043673608481285em" fill="#aaa"/><rect width="0.9615384615384616em" height="6.07723730768739em" x="24.03846153846154em" y="23.92276269231261em" fill="#aaa"/><rect width="0.9615384615384616em" height="3.6287928040479174em" x="25em" y="26.37120719595208em" fill="#aaa"/><rect width="0.9615384615384616em" height="2.1392672636693133em" x="25.961538461538463em" y="27.860732736330686em" fill="#aaa"/><rect width="0.9615384615384616em" height="3.614910355945212em" x="26.923076923076923em" y="26.385089644054787em" fill="#aaa"/><rect width="0.9615384615384616em" height="4.6629563469016055em" x="27.884615384615387em" y="25.337043653098394em" fill="#aaa"/><rect width="0.9615384615384616em" height="2.809373799658853em" x="28.846153846153847em" y="27.190626200341146em" fill="#aaa"/><rect width="0.9615384615384616em" height="1.6008044675487316em" x="29.80769230769231em" y="28.39919553245127em" fill="#aaa"/><rect width="0.9615384615384616em" height="2.906575629203504em" x="30.76923076923077em" y="27.093424370796495em" fill="#aaa"/><rect width="0.9615384615384616em" height="2.47932346228219em" x="31.73076923076923em" y="27.52067653771781em" fill="#aaa"/><rect width="0.9615384615384616em" height="4.125048526692146em" x="32.69230769230769em" y="25.874951473307853em" fill="#aaa"/><rect width="0.9615384615384616em" height="6.253663355328366em" x="33.65384615384615em" y="23.746336644671633em" fill="#aaa"/><rect width="0.9615384615384616em" height="2.7025334889059516em" x="34.61538461538461em" y="27.297466511094047em" fill="#aaa"/><rect width="0.9615384615384616em" height="6.2395856342423635em" x="35.57692307692308em" y="23.760414365757637em" fill="#aaa"/><rect width="0.9615384615384616em" height="5.916527206856006em" x="36.53846153846154em" y="24.083472793143994em" fill="#aaa"/><rect width="0.9615384615384616em" height="2.6200551421898854em" x="37.5em" y="27.379944857810116em" fill="#aaa"/><rect width="0.9615384615384616em" height="5.691688485825208em" x="38.46153846153846em" y="24.308311514174793em" fill="#aaa"/><rect width="0.9615384615384616em" height="7.232067963059654em" x="39.42307692307693em" y="22.767932036940344em" fill="#aaa"/><rect width="0.9615384615384616em" height="4.42121180180084em" x="40.38461538461539em" y="25.57878819819916em" fill="#aaa"/><rect width="0.9615384615384616em" height="5.533888442780665em" x="41.34615384615385em" y="24.466111557219335em" fill="#aaa"/><rect width="0.9615384615384616em" height="13.84257628086808em" x="42.30769230769231em" y="16.15742371913192em" fill="#aaa"/><rect width="0.9615384615384616em" height="5.921219447230279em" x="43.269230769230774em" y="24.07878055276972em" fill="#aaa"/><rect width="0.9615384615384616em" height="7.43637132772929em" x="44.23076923076923em" y="22.56362867227071em" fill="#aaa"/><rect width="0.9615384615384616em" height="2.3608149136403167em" x="45.19230769230769em" y="27.63918508635968em" fill="#aaa"/><rect width="0.9615384615384616em" height="8.10949971833366em" x="46.15384615384615em" y="21.89050028166634em" fill="#aaa"/><rect width="0.9615384615384616em" height="3.2456612940469944em" x="47.11538461538461em" y="26.754338705953007em" fill="#aaa"/><rect width="0.9615384615384616em" height="6.963675423819854em" x="48.07692307692308em" y="23.036324576180146em" fill="#aaa"/><rect width="0.9615384615384616em" height="4.092350195106347em" x="49.03846153846154em" y="25.90764980489365em" fill="#aaa"/><rect width="0.9615384615384616em" height="5.035253630596262em" x="50em" y="24.964746369403738em" fill="#aaa"/><rect width="0.9615384615384616em" height="3.6942447339041355em" x="50.96153846153846em" y="26.305755266095865em" fill="#aaa"/><rect width="0.9615384615384616em" height="8.813468475884614em" x="51.92307692307693em" y="21.186531524115388em" fill="#aaa"/><rect width="0.9615384615384616em" height="6.235520374374061em" x="52.88461538461539em" y="23.76447962562594em" fill="#aaa"/><rect width="0.9615384615384616em" height="6.669389564275848em" x="53.84615384615385em" y="23.330610435724154em" fill="#aaa"/><rect width="0.9615384615384616em" height="9.88156370312913em" x="54.80769230769231em" y="20.11843629687087em" fill="#aaa"/><rect width="0.9615384615384616em" height="7.014785880484921em" x="55.769230769230774em" y="22.985214119515078em" fill="#aaa"/><rect width="0.9615384615384616em" height="7.773708063287211em" x="56.73076923076923em" y="22.22629193671279em" fill="#aaa"/><rect width="0.9615384615384616em" height="10.213134471550708em" x="57.69230769230769em" y="19.78686552844929em" fill="#aaa"/><rect width="0.9615384615384616em" height="10.936063320547404em" x="58.65384615384615em" y="19.063936679452596em" fill="#aaa"/><rect width="0.9615384615384616em" height="7.658124206613327em" x="59.61538461538462em" y="22.341875793386674em" fill="#aaa"/><rect width="0.9615384615384616em" height="6.190528478157628em" x="60.57692307692308em" y="23.809471521842372em" fill="#aaa"/><rect width="0.9615384615384616em" height="9.862757140952258em" x="61.53846153846154em" y="20.137242859047742em" fill="#aaa"/><rect width="0.9615384615384616em" height="8.83549104815146em" x="62.5em" y="21.16450895184854em" fill="#aaa"/><rect width="0.9615384615384616em" height="7.57742869614651em" x="63.46153846153846em" y="22.42257130385349em" fill="#aaa"/><rect width="0.9615384615384616em" height="7.049608044245977em" x="64.42307692307692em" y="22.95039195575402em" fill="#aaa"/><rect width="0.9615384615384616em" height="13.679694973553095em" x="65.38461538461539em" y="16.320305026446903em" fill="#aaa"/><rect width="0.9615384615384616em" height="8.637507792436892em" x="66.34615384615385em" y="21.362492207563108em" fill="#aaa"/><rect width="0.9615384615384616em" height="18.651309868687544em" x="67.3076923076923em" y="11.348690131312456em" fill="#aaa"/><rect width="0.9615384615384616em" height="11.980274548181896em" x="68.26923076923077em" y="18.019725451818104em" fill="#aaa"/><rect width="0.9615384615384616em" height="12.025358638237742em" x="69.23076923076923em" y="17.97464136176226em" fill="#aaa"/><rect width="0.9615384615384616em" height="13.733746235698531em" x="70.1923076923077em" y="16.266253764301467em" fill="#aaa"/><rect width="0.9615384615384616em" height="7.830643811352106em" x="71.15384615384616em" y="22.169356188647896em" fill="#aaa"/><rect width="0.9615384615384616em" height="9.170633093045241em" x="72.11538461538461em" y="20.82936690695476em" fill="#aaa"/><rect width="0.9615384615384616em" height="8.287862924248698em" x="73.07692307692308em" y="21.7121370757513em" fill="#aaa"/><rect width="0.9615384615384616em" height="4.704321675535118em" x="74.03846153846155em" y="25.29567832446488em" fill="#aaa"/><rect width="0.9615384615384616em" height="8.289624486149584em" x="75em" y="21.710375513850416em" fill="#aaa"/><rect width="0.9615384615384616em" height="6.015391834827797em" x="75.96153846153847em" y="23.984608165172205em" fill="#aaa"/><rect width="0.9615384615384616em" height="12.666045901754725em" x="76.92307692307692em" y="17.333954098245275em" fill="#aaa"/><rect width="0.9615384615384616em" height="10.567388325019364em" x="77.88461538461539em" y="19.432611674980635em" fill="#aaa"/><rect width="0.9615384615384616em" height="6.90539698781514em" x="78.84615384615385em" y="23.09460301218486em" fill="#aaa"/><rect width="0.9615384615384616em" height="10.738968954911712em" x="79.8076923076923em" y="19.261031045088288em" fill="#aaa"/><rect width="0.9615384615384616em" height="11.664847567454409em" x="80.76923076923077em" y="18.33515243254559em" fill="#aaa"/><rect width="0.9615384615384616em" height="18.02249447209474em" x="81.73076923076923em" y="11.977505527905262em" fill="#aaa"/><rect width="0.9615384615384616em" height="17.9575988244346em" x="82.6923076923077em" y="12.042401175565399em" fill="#aaa"/><rect width="0.9615384615384616em" height="13.604725290393462em" x="83.65384615384616em" y="16.39527470960654em" fill="#aaa"/><rect width="0.9615384615384616em" height="23.947693294889195em" x="84.61538461538461em" y="6.052306705110805em" fill="#aaa"/><rect width="0.9615384615384616em" height="18.25451422680392em" x="85.57692307692308em" y="11.74548577319608em" fill="#aaa"/><rect width="0.9615384615384616em" height="15.037978547595905em" x="86.53846153846155em" y="14.962021452404095em" fill="#aaa"/><rect width="0.9615384615384616em" height="16.878900777670093em" x="87.5em" y="13.121099222329907em" fill="#aaa"/><rect width="0.9615384615384616em" height="30em" x="88.46153846153847em" y="0em" fill="#aaa"/><rect width="0.9615384615384616em" height="17.488554593069775em" x="89.42307692307692em" y="12.511445406930225em" fill="#aaa"/><rect width="0.9615384615384616em" height="12.318437942075697em" x="90.38461538461539em" y="17.681562057924303em" fill="#aaa"/><rect width="0.9615384615384616em" height="14.213887081834816em" x="91.34615384615385em" y="15.786112918165184em" fill="#aaa"/><rect width="0.9615384615384616em" height="16.198796796069324em" x="92.3076923076923em" y="13.801203203930676em" fill="#aaa"/><rect width="0.9615384615384616em" height="12.514732571365649em" x="93.26923076923077em" y="17.48526742863435em" fill="#aaa"/><rect width="0.9615384615384616em" height="18.32075023563448em" x="94.23076923076923em" y="11.679249764365519em" fill="#aaa"/><rect width="0.9615384615384616em" height="13.299464596172632em" x="95.1923076923077em" y="16.700535403827367em" fill="#aaa"/><rect width="0.9615384615384616em" height="14.195908079671433em" x="96.15384615384616em" y="15.804091920328567em" fill="#aaa"/><rect width="0.9615384615384616em" height="13.469810334649969em" x="97.11538461538461em" y="16.53018966535003em" fill="#aaa"/><rect width="0.9615384615384616em" height="17.696168778212428em" x="98.07692307692308em" y="12.303831221787572em" fill="#aaa"/><rect width="0.9615384615384616em" height="12.967429735288146em" x="99.03846153846155em" y="17.032570264711854em" fill="#aaa"/></svg>