<?xml version="1.0" standalone="no"?>
<svg xmlns:xlink="http://www.w3.org/1999/xlink" xmlns="http://www.w3.org/2000/svg" class="topic-graph" style="width: 10vw; height: 3em; text-align: center;"><rect width="0.09615384615384616em" height="1.479833746629752em" x="0vw" y="1.520166253370248em" fill="#aaa"/><rect width="0.09615384615384616em" height="0.30124165730240293em" x="0.09615384615384616vw" y="2.698758342697597em" fill="#aaa"/><rect width="0.09615384615384616em" height="1.4018486376286565em" x="0.19230769230769232vw" y="1.5981513623713435em" fill="#aaa"/><rect width="0.09615384615384616em" height="0.6450301408175834em" x="0.2884615384615385vw" y="2.3549698591824164em" fill="#aaa"/><rect width="0.09615384615384616em" height="1.2935391444458584em" x="0.38461538461538464vw" y="1.7064608555541416em" fill="#aaa"/><rect width="0.09615384615384616em" height="0.912264083441267em" x="0.4807692307692308vw" y="2.0877359165587333em" fill="#aaa"/><rect width="0.09615384615384616em" height="0.6348195750804217em" x="0.576923076923077vw" y="2.3651804249195783em" fill="#aaa"/><rect width="0.09615384615384616em" height="1.041965145228733em" x="0.6730769230769231vw" y="1.958034854771267em" fill="#aaa"/><rect width="0.09615384615384616em" height="1.1726867190484114em" x="0.7692307692307693vw" y="1.8273132809515886em" fill="#aaa"/><rect width="0.09615384615384616em" height="0.6508035310934668em" x="0.8653846153846154vw" y="2.349196468906533em" fill="#aaa"/><rect width="0.09615384615384616em" height="1.8551171460344504em" x="0.9615384615384616vw" y="1.1448828539655496em" fill="#aaa"/><rect width="0.09615384615384616em" height="0.9759148757523997em" x="1.0576923076923077vw" y="2.0240851242476em" fill="#aaa"/><rect width="0.09615384615384616em" height="0.829898357389677em" x="1.153846153846154vw" y="2.170101642610323em" fill="#aaa"/><rect width="0.09615384615384616em" height="0.685823697954358em" x="1.25vw" y="2.314176302045642em" fill="#aaa"/><rect width="0.09615384615384616em" height="0.384819867014834em" x="1.3461538461538463vw" y="2.615180132985166em" fill="#aaa"/><rect width="0.09615384615384616em" height="0.6526267650051708em" x="1.4423076923076923vw" y="2.347373234994829em" fill="#aaa"/><rect width="0.09615384615384616em" height="0.6427103401297704em" x="1.5384615384615385vw" y="2.3572896598702298em" fill="#aaa"/><rect width="0.09615384615384616em" height="1.215052993675576em" x="1.6346153846153848vw" y="1.784947006324424em" fill="#aaa"/><rect width="0.09615384615384616em" height="0.8575156096675387em" x="1.7307692307692308vw" y="2.142484390332461em" fill="#aaa"/><rect width="0.09615384615384616em" height="1.094621605799269em" x="1.826923076923077vw" y="1.905378394200731em" fill="#aaa"/><rect width="0.09615384615384616em" height="0.9972951593366104em" x="1.9230769230769231vw" y="2.0027048406633896em" fill="#aaa"/><rect width="0.09615384615384616em" height="0.3470655613887494em" x="2.019230769230769vw" y="2.6529344386112506em" fill="#aaa"/><rect width="0.09615384615384616em" height="0.5956168694984657em" x="2.1153846153846154vw" y="2.404383130501534em" fill="#aaa"/><rect width="0.09615384615384616em" height="0.9689525601253011em" x="2.2115384615384617vw" y="2.031047439874699em" fill="#aaa"/><rect width="0.09615384615384616em" height="1.0679443008440763em" x="2.307692307692308vw" y="1.9320556991559237em" fill="#aaa"/><rect width="0.09615384615384616em" height="0.8860354990798585em" x="2.403846153846154vw" y="2.1139645009201415em" fill="#aaa"/><rect width="0.09615384615384616em" height="0.8780878202914179em" x="2.5vw" y="2.1219121797085823em" fill="#aaa"/><rect width="0.09615384615384616em" height="1.462008684067477em" x="2.5961538461538463vw" y="1.537991315932523em" fill="#aaa"/><rect width="0.09615384615384616em" height="1.5961471145269686em" x="2.6923076923076925vw" y="1.4038528854730314em" fill="#aaa"/><rect width="0.09615384615384616em" height="1.1054200511172478em" x="2.7884615384615388vw" y="1.8945799488827522em" fill="#aaa"/><rect width="0.09615384615384616em" height="1.298978157768353em" x="2.8846153846153846vw" y="1.701021842231647em" fill="#aaa"/><rect width="0.09615384615384616em" height="2.047076751586781em" x="2.980769230769231vw" y="0.9529232484132191em" fill="#aaa"/><rect width="0.09615384615384616em" height="0.8434791932233348em" x="3.076923076923077vw" y="2.1565208067766655em" fill="#aaa"/><rect width="0.09615384615384616em" height="1.9117937245888381em" x="3.1730769230769234vw" y="1.0882062754111619em" fill="#aaa"/><rect width="0.09615384615384616em" height="1.5441699601052914em" x="3.2692307692307696vw" y="1.4558300398947086em" fill="#aaa"/><rect width="0.09615384615384616em" height="1.5374629831085653em" x="3.3653846153846154vw" y="1.4625370168914347em" fill="#aaa"/><rect width="0.09615384615384616em" height="1.111767508916763em" x="3.4615384615384617vw" y="1.888232491083237em" fill="#aaa"/><rect width="0.09615384615384616em" height="0.5113356693393516em" x="3.557692307692308vw" y="2.488664330660648em" fill="#aaa"/><rect width="0.09615384615384616em" height="1.4456988426381379em" x="3.653846153846154vw" y="1.5543011573618621em" fill="#aaa"/><rect width="0.09615384615384616em" height="1.9798677981998087em" x="3.75vw" y="1.0201322018001913em" fill="#aaa"/><rect width="0.09615384615384616em" height="0.7290806346464354em" x="3.8461538461538463vw" y="2.2709193653535644em" fill="#aaa"/><rect width="0.09615384615384616em" height="0.624381009186842em" x="3.9423076923076925vw" y="2.375618990813158em" fill="#aaa"/><rect width="0.09615384615384616em" height="0.7071827217987248em" x="4.038461538461538vw" y="2.2928172782012752em" fill="#aaa"/><rect width="0.09615384615384616em" height="1.2880737613963493em" x="4.134615384615385vw" y="1.7119262386036507em" fill="#aaa"/><rect width="0.09615384615384616em" height="1.0069750908232533em" x="4.230769230769231vw" y="1.9930249091767467em" fill="#aaa"/><rect width="0.09615384615384616em" height="1.3324812948519564em" x="4.3269230769230775vw" y="1.6675187051480436em" fill="#aaa"/><rect width="0.09615384615384616em" height="0.9429686963494068em" x="4.423076923076923vw" y="2.057031303650593em" fill="#aaa"/><rect width="0.09615384615384616em" height="1.2452380773779264em" x="4.519230769230769vw" y="1.7547619226220736em" fill="#aaa"/><rect width="0.09615384615384616em" height="1.0518088549217863em" x="4.615384615384616vw" y="1.9481911450782137em" fill="#aaa"/><rect width="0.09615384615384616em" height="0.960635885338365em" x="4.711538461538462vw" y="2.039364114661635em" fill="#aaa"/><rect width="0.09615384615384616em" height="0.864617032483007em" x="4.807692307692308vw" y="2.135382967516993em" fill="#aaa"/><rect width="0.09615384615384616em" height="1.1638598279559669em" x="4.903846153846154vw" y="1.8361401720440331em" fill="#aaa"/><rect width="0.09615384615384616em" height="1.4014906140513284em" x="5vw" y="1.5985093859486716em" fill="#aaa"/><rect width="0.09615384615384616em" height="1.6636802461788616em" x="5.096153846153847vw" y="1.3363197538211384em" fill="#aaa"/><rect width="0.09615384615384616em" height="0.743341491958628em" x="5.1923076923076925vw" y="2.256658508041372em" fill="#aaa"/><rect width="0.09615384615384616em" height="1.3926340166862352em" x="5.288461538461538vw" y="1.6073659833137648em" fill="#aaa"/><rect width="0.09615384615384616em" height="1.4767789945984284em" x="5.384615384615385vw" y="1.5232210054015716em" fill="#aaa"/><rect width="0.09615384615384616em" height="0.7722794150466926em" x="5.480769230769231vw" y="2.2277205849533073em" fill="#aaa"/><rect width="0.09615384615384616em" height="2.1426523407252134em" x="5.5769230769230775vw" y="0.8573476592747866em" fill="#aaa"/><rect width="0.09615384615384616em" height="1.2783539102761032em" x="5.673076923076923vw" y="1.7216460897238968em" fill="#aaa"/><rect width="0.09615384615384616em" height="1.6029697623137542em" x="5.769230769230769vw" y="1.3970302376862458em" fill="#aaa"/><rect width="0.09615384615384616em" height="0.8578874761482014em" x="5.865384615384616vw" y="2.1421125238517984em" fill="#aaa"/><rect width="0.09615384615384616em" height="1.4891907562556492em" x="5.961538461538462vw" y="1.5108092437443508em" fill="#aaa"/><rect width="0.09615384615384616em" height="2.5686253150184313em" x="6.057692307692308vw" y="0.4313746849815687em" fill="#aaa"/><rect width="0.09615384615384616em" height="1.5108485601614636em" x="6.153846153846154vw" y="1.4891514398385364em" fill="#aaa"/><rect width="0.09615384615384616em" height="2.2260580435693393em" x="6.25vw" y="0.7739419564306607em" fill="#aaa"/><rect width="0.09615384615384616em" height="1.0676001877993346em" x="6.346153846153847vw" y="1.9323998122006654em" fill="#aaa"/><rect width="0.09615384615384616em" height="2.1500083108875367em" x="6.4423076923076925vw" y="0.8499916891124633em" fill="#aaa"/><rect width="0.09615384615384616em" height="2.702465112934544em" x="6.538461538461539vw" y="0.29753488706545594em" fill="#aaa"/><rect width="0.09615384615384616em" height="1.6710686000581148em" x="6.634615384615385vw" y="1.3289313999418852em" fill="#aaa"/><rect width="0.09615384615384616em" height="2.9505951831936206em" x="6.730769230769231vw" y="0.049404816806379426em" fill="#aaa"/><rect width="0.09615384615384616em" height="2.2034622692297052em" x="6.8269230769230775vw" y="0.7965377307702948em" fill="#aaa"/><rect width="0.09615384615384616em" height="2.133619487201835em" x="6.923076923076923vw" y="0.8663805127981652em" fill="#aaa"/><rect width="0.09615384615384616em" height="3em" x="7.01923076923077vw" y="0em" fill="#aaa"/><rect width="0.09615384615384616em" height="1.6288648718839567em" x="7.115384615384616vw" y="1.3711351281160433em" fill="#aaa"/><rect width="0.09615384615384616em" height="1.3959903500306985em" x="7.211538461538462vw" y="1.6040096499693015em" fill="#aaa"/><rect width="0.09615384615384616em" height="1.5230649407058832em" x="7.307692307692308vw" y="1.4769350592941168em" fill="#aaa"/><rect width="0.09615384615384616em" height="1.1886735528806747em" x="7.403846153846154vw" y="1.8113264471193253em" fill="#aaa"/><rect width="0.09615384615384616em" height="1.340021912173098em" x="7.5vw" y="1.659978087826902em" fill="#aaa"/><rect width="0.09615384615384616em" height="0.8886729590243391em" x="7.596153846153847vw" y="2.111327040975661em" fill="#aaa"/><rect width="0.09615384615384616em" height="1.932257063884486em" x="7.6923076923076925vw" y="1.067742936115514em" fill="#aaa"/><rect width="0.09615384615384616em" height="1.0512823734938883em" x="7.788461538461539vw" y="1.9487176265061117em" fill="#aaa"/><rect width="0.09615384615384616em" height="1.0972558189537647em" x="7.884615384615385vw" y="1.9027441810462353em" fill="#aaa"/><rect width="0.09615384615384616em" height="1.150680377603699em" x="7.980769230769231vw" y="1.849319622396301em" fill="#aaa"/><rect width="0.09615384615384616em" height="1.0929352813272024em" x="8.076923076923077vw" y="1.9070647186727976em" fill="#aaa"/><rect width="0.09615384615384616em" height="1.1306125032019954em" x="8.173076923076923vw" y="1.8693874967980046em" fill="#aaa"/><rect width="0.09615384615384616em" height="1.6120328536274386em" x="8.26923076923077vw" y="1.3879671463725614em" fill="#aaa"/><rect width="0.09615384615384616em" height="1.1032445030420874em" x="8.365384615384615vw" y="1.8967554969579126em" fill="#aaa"/><rect width="0.09615384615384616em" height="0.7985407941742803em" x="8.461538461538462vw" y="2.20145920582572em" fill="#aaa"/><rect width="0.09615384615384616em" height="1.0545820288384458em" x="8.557692307692308vw" y="1.9454179711615542em" fill="#aaa"/><rect width="0.09615384615384616em" height="0.8756006966377486em" x="8.653846153846155vw" y="2.1243993033622512em" fill="#aaa"/><rect width="0.09615384615384616em" height="1.6150725487922761em" x="8.75vw" y="1.3849274512077239em" fill="#aaa"/><rect width="0.09615384615384616em" height="1.8073356707358759em" x="8.846153846153847vw" y="1.1926643292641241em" fill="#aaa"/><rect width="0.09615384615384616em" height="0.9090287555382768em" x="8.942307692307693vw" y="2.0909712444617234em" fill="#aaa"/><rect width="0.09615384615384616em" height="1.0885999450951849em" x="9.038461538461538vw" y="1.9114000549048151em" fill="#aaa"/><rect width="0.09615384615384616em" height="0.7174006742220215em" x="9.134615384615385vw" y="2.2825993257779786em" fill="#aaa"/><rect width="0.09615384615384616em" height="0.7410063603873629em" x="9.230769230769232vw" y="2.258993639612637em" fill="#aaa"/><rect width="0.09615384615384616em" height="0.8807272925266212em" x="9.326923076923077vw" y="2.119272707473379em" fill="#aaa"/><rect width="0.09615384615384616em" height="0.8395745139711186em" x="9.423076923076923vw" y="2.160425486028881em" fill="#aaa"/><rect width="0.09615384615384616em" height="0.9042212121625257em" x="9.51923076923077vw" y="2.0957787878374745em" fill="#aaa"/><rect width="0.09615384615384616em" height="0.6710673759468622em" x="9.615384615384617vw" y="2.328932624053138em" fill="#aaa"/><rect width="0.09615384615384616em" height="1.210076355497176em" x="9.711538461538462vw" y="1.789923644502824em" fill="#aaa"/><rect width="0.09615384615384616em" height="1.1574273878571917em" x="9.807692307692308vw" y="1.8425726121428083em" fill="#aaa"/><rect width="0.09615384615384616em" height="0.9076955061827257em" x="9.903846153846155vw" y="2.0923044938172746em" fill="#aaa"/></svg>