<?xml version="1.0" standalone="no"?>
<svg xmlns:xlink="http://www.w3.org/1999/xlink" xmlns="http://www.w3.org/2000/svg" class="topic-graph" style="width: 100em; height: 30em; text-align: center;"><rect width="0.9615384615384616em" height="0.9731619615421395em" x="0em" y="29.02683803845786em" fill="#aaa"/><rect width="0.9615384615384616em" height="2.1666479102468283em" x="0.9615384615384616em" y="27.83335208975317em" fill="#aaa"/><rect width="0.9615384615384616em" height="3.080819011189407em" x="1.9230769230769231em" y="26.91918098881059em" fill="#aaa"/><rect width="0.9615384615384616em" height="1.4191228722474172em" x="2.8846153846153846em" y="28.580877127752583em" fill="#aaa"/><rect width="0.9615384615384616em" height="0.6377031204589048em" x="3.8461538461538463em" y="29.362296879541095em" fill="#aaa"/><rect width="0.9615384615384616em" height="0.16233536470492757em" x="4.8076923076923075em" y="29.837664635295074em" fill="#aaa"/><rect width="0.9615384615384616em" height="11.415746800154874em" x="5.769230769230769em" y="18.584253199845126em" fill="#aaa"/><rect width="0.9615384615384616em" height="0.10096363219919573em" x="6.730769230769231em" y="29.899036367800804em" fill="#aaa"/><rect width="0.9615384615384616em" height="4.640490314370778em" x="7.6923076923076925em" y="25.35950968562922em" fill="#aaa"/><rect width="0.9615384615384616em" height="1.3753972786303772em" x="8.653846153846153em" y="28.624602721369623em" fill="#aaa"/><rect width="0.9615384615384616em" height="0.9472149941033094em" x="9.615384615384615em" y="29.05278500589669em" fill="#aaa"/><rect width="0.9615384615384616em" height="1.686182521620013em" x="10.576923076923077em" y="28.31381747837999em" fill="#aaa"/><rect width="0.9615384615384616em" height="3.82679261874532em" x="11.538461538461538em" y="26.17320738125468em" fill="#aaa"/><rect width="0.9615384615384616em" height="2.3998285875871317em" x="12.5em" y="27.60017141241287em" fill="#aaa"/><rect width="0.9615384615384616em" height="1.4418638969819206em" x="13.461538461538462em" y="28.55813610301808em" fill="#aaa"/><rect width="0.9615384615384616em" height="1.5208039396043598em" x="14.423076923076923em" y="28.47919606039564em" fill="#aaa"/><rect width="0.9615384615384616em" height="20.404132175699072em" x="15.384615384615385em" y="9.595867824300928em" fill="#aaa"/><rect width="0.9615384615384616em" height="1.1453206419482866em" x="16.346153846153847em" y="28.854679358051712em" fill="#aaa"/><rect width="0.9615384615384616em" height="1.9390837156844323em" x="17.307692307692307em" y="28.060916284315567em" fill="#aaa"/><rect width="0.9615384615384616em" height="1.0113459246534935em" x="18.26923076923077em" y="28.988654075346506em" fill="#aaa"/><rect width="0.9615384615384616em" height="1.0959374236620456em" x="19.23076923076923em" y="28.904062576337953em" fill="#aaa"/><rect width="0.9615384615384616em" height="1.1073549271716545em" x="20.192307692307693em" y="28.892645072828344em" fill="#aaa"/><rect width="0.9615384615384616em" height="0.9103456557587883em" x="21.153846153846153em" y="29.08965434424121em" fill="#aaa"/><rect width="0.9615384615384616em" height="1.2922667595327137em" x="22.115384615384617em" y="28.707733240467284em" fill="#aaa"/><rect width="0.9615384615384616em" height="1.0430796872571888em" x="23.076923076923077em" y="28.95692031274281em" fill="#aaa"/><rect width="0.9615384615384616em" height="7.655002349875122em" x="24.03846153846154em" y="22.344997650124878em" fill="#aaa"/><rect width="0.9615384615384616em" height="5.787646409034339em" x="25em" y="24.212353590965662em" fill="#aaa"/><rect width="0.9615384615384616em" height="5.7764064645592965em" x="25.961538461538463em" y="24.223593535440703em" fill="#aaa"/><rect width="0.9615384615384616em" height="1.6884733365721334em" x="26.923076923076923em" y="28.311526663427866em" fill="#aaa"/><rect width="0.9615384615384616em" height="7.511108608777067em" x="27.884615384615387em" y="22.488891391222932em" fill="#aaa"/><rect width="0.9615384615384616em" height="5.553677209868512em" x="28.846153846153847em" y="24.44632279013149em" fill="#aaa"/><rect width="0.9615384615384616em" height="5.392817846926604em" x="29.80769230769231em" y="24.607182153073396em" fill="#aaa"/><rect width="0.9615384615384616em" height="3.154946463376109em" x="30.76923076923077em" y="26.84505353662389em" fill="#aaa"/><rect width="0.9615384615384616em" height="12.81474235327123em" x="31.73076923076923em" y="17.185257646728772em" fill="#aaa"/><rect width="0.9615384615384616em" height="8.243954039557565em" x="32.69230769230769em" y="21.756045960442435em" fill="#aaa"/><rect width="0.9615384615384616em" height="3.546541693729743em" x="33.65384615384615em" y="26.453458306270257em" fill="#aaa"/><rect width="0.9615384615384616em" height="1.9798737386906045em" x="34.61538461538461em" y="28.020126261309397em" fill="#aaa"/><rect width="0.9615384615384616em" height="1.7624327192143636em" x="35.57692307692308em" y="28.237567280785637em" fill="#aaa"/><rect width="0.9615384615384616em" height="6.945965600910119em" x="36.53846153846154em" y="23.05403439908988em" fill="#aaa"/><rect width="0.9615384615384616em" height="9.245852043770695em" x="37.5em" y="20.754147956229303em" fill="#aaa"/><rect width="0.9615384615384616em" height="3.0930936247613534em" x="38.46153846153846em" y="26.90690637523865em" fill="#aaa"/><rect width="0.9615384615384616em" height="2.3934563722360833em" x="39.42307692307693em" y="27.606543627763916em" fill="#aaa"/><rect width="0.9615384615384616em" height="0.7217915100715108em" x="40.38461538461539em" y="29.27820848992849em" fill="#aaa"/><rect width="0.9615384615384616em" height="1.8764504093763665em" x="41.34615384615385em" y="28.123549590623632em" fill="#aaa"/><rect width="0.9615384615384616em" height="1.7384744312962666em" x="42.30769230769231em" y="28.261525568703732em" fill="#aaa"/><rect width="0.9615384615384616em" height="1.102862286000409em" x="43.269230769230774em" y="28.89713771399959em" fill="#aaa"/><rect width="0.9615384615384616em" height="0.7727432372532094em" x="44.23076923076923em" y="29.22725676274679em" fill="#aaa"/><rect width="0.9615384615384616em" height="1.0089925266454527em" x="45.19230769230769em" y="28.991007473354546em" fill="#aaa"/><rect width="0.9615384615384616em" height="4.304063644800522em" x="46.15384615384615em" y="25.69593635519948em" fill="#aaa"/><rect width="0.9615384615384616em" height="8.922318505719236em" x="47.11538461538461em" y="21.077681494280764em" fill="#aaa"/><rect width="0.9615384615384616em" height="0.8140392010495657em" x="48.07692307692308em" y="29.185960798950433em" fill="#aaa"/><rect width="0.9615384615384616em" height="11.432490434920235em" x="49.03846153846154em" y="18.567509565079767em" fill="#aaa"/><rect width="0.9615384615384616em" height="30em" x="50em" y="0em" fill="#aaa"/><rect width="0.9615384615384616em" height="3.989392827884141em" x="50.96153846153846em" y="26.010607172115858em" fill="#aaa"/><rect width="0.9615384615384616em" height="11.839537402743566em" x="51.92307692307693em" y="18.160462597256434em" fill="#aaa"/><rect width="0.9615384615384616em" height="11.520485395308215em" x="52.88461538461539em" y="18.479514604691786em" fill="#aaa"/><rect width="0.9615384615384616em" height="3.044400187291761em" x="53.84615384615385em" y="26.95559981270824em" fill="#aaa"/><rect width="0.9615384615384616em" height="1.501077276429609em" x="54.80769230769231em" y="28.49892272357039em" fill="#aaa"/><rect width="0.9615384615384616em" height="2.3219673708992588em" x="55.769230769230774em" y="27.67803262910074em" fill="#aaa"/><rect width="0.9615384615384616em" height="1.028045843951892em" x="56.73076923076923em" y="28.971954156048106em" fill="#aaa"/><rect width="0.9615384615384616em" height="2.360124161002306em" x="57.69230769230769em" y="27.639875838997693em" fill="#aaa"/><rect width="0.9615384615384616em" height="6.075135076255345em" x="58.65384615384615em" y="23.924864923744657em" fill="#aaa"/><rect width="0.9615384615384616em" height="1.0874281004136193em" x="59.61538461538462em" y="28.912571899586382em" fill="#aaa"/><rect width="0.9615384615384616em" height="6.0356845029726935em" x="60.57692307692308em" y="23.964315497027307em" fill="#aaa"/><rect width="0.9615384615384616em" height="5.32614554988038em" x="61.53846153846154em" y="24.67385445011962em" fill="#aaa"/><rect width="0.9615384615384616em" height="6.191421362441193em" x="62.5em" y="23.808578637558806em" fill="#aaa"/><rect width="0.9615384615384616em" height="2.8331597942301294em" x="63.46153846153846em" y="27.16684020576987em" fill="#aaa"/><rect width="0.9615384615384616em" height="2.621551733501455em" x="64.42307692307692em" y="27.378448266498545em" fill="#aaa"/><rect width="0.9615384615384616em" height="6.662646946973696em" x="65.38461538461539em" y="23.337353053026305em" fill="#aaa"/><rect width="0.9615384615384616em" height="2.6908278639280345em" x="66.34615384615385em" y="27.309172136071965em" fill="#aaa"/><rect width="0.9615384615384616em" height="0.9735743017885248em" x="67.3076923076923em" y="29.026425698211476em" fill="#aaa"/><rect width="0.9615384615384616em" height="1.959960586995739em" x="68.26923076923077em" y="28.040039413004262em" fill="#aaa"/><rect width="0.9615384615384616em" height="4.987400968209126em" x="69.23076923076923em" y="25.012599031790874em" fill="#aaa"/><rect width="0.9615384615384616em" height="7.2822457573314em" x="70.1923076923077em" y="22.7177542426686em" fill="#aaa"/><rect width="0.9615384615384616em" height="2.7783225696908422em" x="71.15384615384616em" y="27.221677430309157em" fill="#aaa"/><rect width="0.9615384615384616em" height="2.5117549710980067em" x="72.11538461538461em" y="27.488245028901993em" fill="#aaa"/><rect width="0.9615384615384616em" height="4.5106338813276015em" x="73.07692307692308em" y="25.4893661186724em" fill="#aaa"/><rect width="0.9615384615384616em" height="2.201604226994236em" x="74.03846153846155em" y="27.798395773005765em" fill="#aaa"/><rect width="0.9615384615384616em" height="2.563060713888922em" x="75em" y="27.436939286111077em" fill="#aaa"/><rect width="0.9615384615384616em" height="2.06327809234109em" x="75.96153846153847em" y="27.93672190765891em" fill="#aaa"/><rect width="0.9615384615384616em" height="4.169016503043654em" x="76.92307692307692em" y="25.830983496956346em" fill="#aaa"/><rect width="0.9615384615384616em" height="4.67475830405078em" x="77.88461538461539em" y="25.32524169594922em" fill="#aaa"/><rect width="0.9615384615384616em" height="2.574238532960882em" x="78.84615384615385em" y="27.425761467039116em" fill="#aaa"/><rect width="0.9615384615384616em" height="2.062112401792564em" x="79.8076923076923em" y="27.937887598207436em" fill="#aaa"/><rect width="0.9615384615384616em" height="2.277793388067358em" x="80.76923076923077em" y="27.72220661193264em" fill="#aaa"/><rect width="0.9615384615384616em" height="2.2008655961327195em" x="81.73076923076923em" y="27.79913440386728em" fill="#aaa"/><rect width="0.9615384615384616em" height="3.112381042667931em" x="82.6923076923077em" y="26.88761895733207em" fill="#aaa"/><rect width="0.9615384615384616em" height="2.3360898556554885em" x="83.65384615384616em" y="27.663910144344513em" fill="#aaa"/><rect width="0.9615384615384616em" height="1.8744310062062421em" x="84.61538461538461em" y="28.125568993793756em" fill="#aaa"/><rect width="0.9615384615384616em" height="2.3603237192057094em" x="85.57692307692308em" y="27.63967628079429em" fill="#aaa"/><rect width="0.9615384615384616em" height="2.5895891587378603em" x="86.53846153846155em" y="27.41041084126214em" fill="#aaa"/><rect width="0.9615384615384616em" height="2.5666920268258813em" x="87.5em" y="27.43330797317412em" fill="#aaa"/><rect width="0.9615384615384616em" height="1.886289948074742em" x="88.46153846153847em" y="28.11371005192526em" fill="#aaa"/><rect width="0.9615384615384616em" height="1.5853230866042867em" x="89.42307692307692em" y="28.414676913395713em" fill="#aaa"/><rect width="0.9615384615384616em" height="1.6054356625056165em" x="90.38461538461539em" y="28.394564337494383em" fill="#aaa"/><rect width="0.9615384615384616em" height="3.1890100425331456em" x="91.34615384615385em" y="26.810989957466855em" fill="#aaa"/><rect width="0.9615384615384616em" height="2.9101767511502676em" x="92.3076923076923em" y="27.089823248849733em" fill="#aaa"/><rect width="0.9615384615384616em" height="2.1431590252772983em" x="93.26923076923077em" y="27.8568409747227em" fill="#aaa"/><rect width="0.9615384615384616em" height="0.9922932871176678em" x="94.23076923076923em" y="29.00770671288233em" fill="#aaa"/><rect width="0.9615384615384616em" height="2.077592929048193em" x="95.1923076923077em" y="27.922407070951806em" fill="#aaa"/><rect width="0.9615384615384616em" height="2.182666318852742em" x="96.15384615384616em" y="27.817333681147257em" fill="#aaa"/><rect width="0.9615384615384616em" height="2.1847877908781808em" x="97.11538461538461em" y="27.815212209121817em" fill="#aaa"/><rect width="0.9615384615384616em" height="2.1713213407319945em" x="98.07692307692308em" y="27.828678659268007em" fill="#aaa"/><rect width="0.9615384615384616em" height="4.754974532332612em" x="99.03846153846155em" y="25.24502546766739em" fill="#aaa"/></svg>