<?xml version="1.0" standalone="no"?>
<svg xmlns:xlink="http://www.w3.org/1999/xlink" xmlns="http://www.w3.org/2000/svg" class="topic-graph" style="width: 10vw; height: 3em; text-align: center;"><rect width="0.09615384615384616em" height="1.1720697861160803em" x="0vw" y="1.8279302138839197em" fill="#aaa"/><rect width="0.09615384615384616em" height="0.8138368087254256em" x="0.09615384615384616vw" y="2.1861631912745745em" fill="#aaa"/><rect width="0.09615384615384616em" height="0.45866114841338845em" x="0.19230769230769232vw" y="2.5413388515866115em" fill="#aaa"/><rect width="0.09615384615384616em" height="0.9465805988378785em" x="0.2884615384615385vw" y="2.0534194011621216em" fill="#aaa"/><rect width="0.09615384615384616em" height="0.8942594498522176em" x="0.38461538461538464vw" y="2.1057405501477824em" fill="#aaa"/><rect width="0.09615384615384616em" height="0.3409249846540042em" x="0.4807692307692308vw" y="2.6590750153459957em" fill="#aaa"/><rect width="0.09615384615384616em" height="0.4332036002945992em" x="0.576923076923077vw" y="2.566796399705401em" fill="#aaa"/><rect width="0.09615384615384616em" height="0.12283102428771836em" x="0.6730769230769231vw" y="2.877168975712282em" fill="#aaa"/><rect width="0.09615384615384616em" height="0.5424081145668308em" x="0.7692307692307693vw" y="2.4575918854331693em" fill="#aaa"/><rect width="0.09615384615384616em" height="0.8779046678231295em" x="0.8653846153846154vw" y="2.1220953321768707em" fill="#aaa"/><rect width="0.09615384615384616em" height="0.07150171293057571em" x="0.9615384615384616vw" y="2.9284982870694245em" fill="#aaa"/><rect width="0.09615384615384616em" height="0.4216984806081603em" x="1.0576923076923077vw" y="2.5783015193918395em" fill="#aaa"/><rect width="0.09615384615384616em" height="0.26359137829361423em" x="1.153846153846154vw" y="2.736408621706386em" fill="#aaa"/><rect width="0.09615384615384616em" height="0.35992038851092667em" x="1.25vw" y="2.640079611489073em" fill="#aaa"/><rect width="0.09615384615384616em" height="0.15823974458724932em" x="1.3461538461538463vw" y="2.841760255412751em" fill="#aaa"/><rect width="0.09615384615384616em" height="0.3008883414264958em" x="1.4423076923076923vw" y="2.6991116585735044em" fill="#aaa"/><rect width="0.09615384615384616em" height="0.21267906115085072em" x="1.5384615384615385vw" y="2.7873209388491493em" fill="#aaa"/><rect width="0.09615384615384616em" height="0.17179125723295846em" x="1.6346153846153848vw" y="2.8282087427670417em" fill="#aaa"/><rect width="0.09615384615384616em" height="0.24144942934483238em" x="1.7307692307692308vw" y="2.7585505706551676em" fill="#aaa"/><rect width="0.09615384615384616em" height="0.5776882754394074em" x="1.826923076923077vw" y="2.4223117245605925em" fill="#aaa"/><rect width="0.09615384615384616em" height="0.6069992117305565em" x="1.9230769230769231vw" y="2.3930007882694433em" fill="#aaa"/><rect width="0.09615384615384616em" height="1.329476150602619em" x="2.019230769230769vw" y="1.670523849397381em" fill="#aaa"/><rect width="0.09615384615384616em" height="1.192304542611939em" x="2.1153846153846154vw" y="1.807695457388061em" fill="#aaa"/><rect width="0.09615384615384616em" height="1.3163495998800592em" x="2.2115384615384617vw" y="1.6836504001199408em" fill="#aaa"/><rect width="0.09615384615384616em" height="0.3367473949275498em" x="2.307692307692308vw" y="2.6632526050724503em" fill="#aaa"/><rect width="0.09615384615384616em" height="0.36771379484580485em" x="2.403846153846154vw" y="2.632286205154195em" fill="#aaa"/><rect width="0.09615384615384616em" height="0.36951795861271564em" x="2.5vw" y="2.6304820413872845em" fill="#aaa"/><rect width="0.09615384615384616em" height="0.32843109699177586em" x="2.5961538461538463vw" y="2.6715689030082244em" fill="#aaa"/><rect width="0.09615384615384616em" height="0.29144002971882277em" x="2.6923076923076925vw" y="2.7085599702811773em" fill="#aaa"/><rect width="0.09615384615384616em" height="0.25051221276708724em" x="2.7884615384615388vw" y="2.749487787232913em" fill="#aaa"/><rect width="0.09615384615384616em" height="0.28916235247777194em" x="2.8846153846153846vw" y="2.710837647522228em" fill="#aaa"/><rect width="0.09615384615384616em" height="1.0795687187225271em" x="2.980769230769231vw" y="1.9204312812774729em" fill="#aaa"/><rect width="0.09615384615384616em" height="0.8681168424539975em" x="3.076923076923077vw" y="2.1318831575460027em" fill="#aaa"/><rect width="0.09615384615384616em" height="0.5903377792589951em" x="3.1730769230769234vw" y="2.409662220741005em" fill="#aaa"/><rect width="0.09615384615384616em" height="0.3753311972203802em" x="3.2692307692307696vw" y="2.62466880277962em" fill="#aaa"/><rect width="0.09615384615384616em" height="0.36481711762956803em" x="3.3653846153846154vw" y="2.635182882370432em" fill="#aaa"/><rect width="0.09615384615384616em" height="1.2339360199688212em" x="3.4615384615384617vw" y="1.7660639800311788em" fill="#aaa"/><rect width="0.09615384615384616em" height="0.43622074919147613em" x="3.557692307692308vw" y="2.563779250808524em" fill="#aaa"/><rect width="0.09615384615384616em" height="0.30504742565092896em" x="3.653846153846154vw" y="2.694952574349071em" fill="#aaa"/><rect width="0.09615384615384616em" height="1.0280569462173141em" x="3.75vw" y="1.9719430537826859em" fill="#aaa"/><rect width="0.09615384615384616em" height="1.4035577696438009em" x="3.8461538461538463vw" y="1.5964422303561991em" fill="#aaa"/><rect width="0.09615384615384616em" height="1.2977562787979866em" x="3.9423076923076925vw" y="1.7022437212020134em" fill="#aaa"/><rect width="0.09615384615384616em" height="1.3053165384491021em" x="4.038461538461538vw" y="1.6946834615508979em" fill="#aaa"/><rect width="0.09615384615384616em" height="0.28122899248988514em" x="4.134615384615385vw" y="2.718771007510115em" fill="#aaa"/><rect width="0.09615384615384616em" height="0.7159985584077457em" x="4.230769230769231vw" y="2.2840014415922543em" fill="#aaa"/><rect width="0.09615384615384616em" height="0.6872767073302126em" x="4.3269230769230775vw" y="2.312723292669787em" fill="#aaa"/><rect width="0.09615384615384616em" height="0.6008493673683641em" x="4.423076923076923vw" y="2.3991506326316356em" fill="#aaa"/><rect width="0.09615384615384616em" height="0.43887741484415693em" x="4.519230769230769vw" y="2.561122585155843em" fill="#aaa"/><rect width="0.09615384615384616em" height="0.4842333271234126em" x="4.615384615384616vw" y="2.5157666728765875em" fill="#aaa"/><rect width="0.09615384615384616em" height="0.5988004479790001em" x="4.711538461538462vw" y="2.4011995520209997em" fill="#aaa"/><rect width="0.09615384615384616em" height="0.3894206678575164em" x="4.807692307692308vw" y="2.6105793321424837em" fill="#aaa"/><rect width="0.09615384615384616em" height="0.631760489400586em" x="4.903846153846154vw" y="2.368239510599414em" fill="#aaa"/><rect width="0.09615384615384616em" height="0.546807847692564em" x="5vw" y="2.453192152307436em" fill="#aaa"/><rect width="0.09615384615384616em" height="0.9589934129390845em" x="5.096153846153847vw" y="2.0410065870609158em" fill="#aaa"/><rect width="0.09615384615384616em" height="0.9242937506664664em" x="5.1923076923076925vw" y="2.0757062493335336em" fill="#aaa"/><rect width="0.09615384615384616em" height="0.7180344831526915em" x="5.288461538461538vw" y="2.2819655168473085em" fill="#aaa"/><rect width="0.09615384615384616em" height="0.5924721011773479em" x="5.384615384615385vw" y="2.407527898822652em" fill="#aaa"/><rect width="0.09615384615384616em" height="0.9485636412231022em" x="5.480769230769231vw" y="2.051436358776898em" fill="#aaa"/><rect width="0.09615384615384616em" height="1.0178509160334341em" x="5.5769230769230775vw" y="1.9821490839665659em" fill="#aaa"/><rect width="0.09615384615384616em" height="0.9447212534247327em" x="5.673076923076923vw" y="2.0552787465752673em" fill="#aaa"/><rect width="0.09615384615384616em" height="2.722449978728934em" x="5.769230769230769vw" y="0.277550021271066em" fill="#aaa"/><rect width="0.09615384615384616em" height="0.41056537682959093em" x="5.865384615384616vw" y="2.5894346231704093em" fill="#aaa"/><rect width="0.09615384615384616em" height="0.7302905457462024em" x="5.961538461538462vw" y="2.2697094542537974em" fill="#aaa"/><rect width="0.09615384615384616em" height="0.7805703862023312em" x="6.057692307692308vw" y="2.2194296137976686em" fill="#aaa"/><rect width="0.09615384615384616em" height="0.6713932193892007em" x="6.153846153846154vw" y="2.3286067806107993em" fill="#aaa"/><rect width="0.09615384615384616em" height="0.6065459347378902em" x="6.25vw" y="2.3934540652621097em" fill="#aaa"/><rect width="0.09615384615384616em" height="0.8013542516119716em" x="6.346153846153847vw" y="2.1986457483880284em" fill="#aaa"/><rect width="0.09615384615384616em" height="1.0221469333704356em" x="6.4423076923076925vw" y="1.9778530666295644em" fill="#aaa"/><rect width="0.09615384615384616em" height="1.2442107373237754em" x="6.538461538461539vw" y="1.7557892626762246em" fill="#aaa"/><rect width="0.09615384615384616em" height="0.6105861730685032em" x="6.634615384615385vw" y="2.389413826931497em" fill="#aaa"/><rect width="0.09615384615384616em" height="0.476255388353802em" x="6.730769230769231vw" y="2.523744611646198em" fill="#aaa"/><rect width="0.09615384615384616em" height="1.7187990313525532em" x="6.8269230769230775vw" y="1.2812009686474468em" fill="#aaa"/><rect width="0.09615384615384616em" height="0.9100260956581374em" x="6.923076923076923vw" y="2.0899739043418624em" fill="#aaa"/><rect width="0.09615384615384616em" height="0.5228223170453672em" x="7.01923076923077vw" y="2.4771776829546326em" fill="#aaa"/><rect width="0.09615384615384616em" height="0.7335715908044226em" x="7.115384615384616vw" y="2.2664284091955773em" fill="#aaa"/><rect width="0.09615384615384616em" height="0.7494498138121407em" x="7.211538461538462vw" y="2.2505501861878594em" fill="#aaa"/><rect width="0.09615384615384616em" height="0.6581953385137063em" x="7.307692307692308vw" y="2.341804661486294em" fill="#aaa"/><rect width="0.09615384615384616em" height="0.8014128386305255em" x="7.403846153846154vw" y="2.1985871613694745em" fill="#aaa"/><rect width="0.09615384615384616em" height="0.8113667702952577em" x="7.5vw" y="2.188633229704742em" fill="#aaa"/><rect width="0.09615384615384616em" height="0.6992875516904612em" x="7.596153846153847vw" y="2.3007124483095387em" fill="#aaa"/><rect width="0.09615384615384616em" height="0.4575139780507411em" x="7.6923076923076925vw" y="2.5424860219492587em" fill="#aaa"/><rect width="0.09615384615384616em" height="0.80167725053266em" x="7.788461538461539vw" y="2.19832274946734em" fill="#aaa"/><rect width="0.09615384615384616em" height="0.5729999995440017em" x="7.884615384615385vw" y="2.4270000004559984em" fill="#aaa"/><rect width="0.09615384615384616em" height="0.7570349078611278em" x="7.980769230769231vw" y="2.2429650921388724em" fill="#aaa"/><rect width="0.09615384615384616em" height="0.7316312785866264em" x="8.076923076923077vw" y="2.2683687214133736em" fill="#aaa"/><rect width="0.09615384615384616em" height="0.6236685001648659em" x="8.173076923076923vw" y="2.376331499835134em" fill="#aaa"/><rect width="0.09615384615384616em" height="1.0134608451395437em" x="8.26923076923077vw" y="1.9865391548604563em" fill="#aaa"/><rect width="0.09615384615384616em" height="1.0285096577329798em" x="8.365384615384615vw" y="1.9714903422670202em" fill="#aaa"/><rect width="0.09615384615384616em" height="0.7350560537208121em" x="8.461538461538462vw" y="2.264943946279188em" fill="#aaa"/><rect width="0.09615384615384616em" height="0.8310039745826258em" x="8.557692307692308vw" y="2.1689960254173744em" fill="#aaa"/><rect width="0.09615384615384616em" height="0.8665123471361273em" x="8.653846153846155vw" y="2.133487652863873em" fill="#aaa"/><rect width="0.09615384615384616em" height="0.8172058064144971em" x="8.75vw" y="2.1827941935855026em" fill="#aaa"/><rect width="0.09615384615384616em" height="0.8565151427112949em" x="8.846153846153847vw" y="2.143484857288705em" fill="#aaa"/><rect width="0.09615384615384616em" height="1.6418296910159507em" x="8.942307692307693vw" y="1.3581703089840493em" fill="#aaa"/><rect width="0.09615384615384616em" height="3em" x="9.038461538461538vw" y="0em" fill="#aaa"/><rect width="0.09615384615384616em" height="1.7023378841333416em" x="9.134615384615385vw" y="1.2976621158666584em" fill="#aaa"/><rect width="0.09615384615384616em" height="1.343954359967588em" x="9.230769230769232vw" y="1.656045640032412em" fill="#aaa"/><rect width="0.09615384615384616em" height="2.0475405815932124em" x="9.326923076923077vw" y="0.9524594184067876em" fill="#aaa"/><rect width="0.09615384615384616em" height="1.1948256278584053em" x="9.423076923076923vw" y="1.8051743721415947em" fill="#aaa"/><rect width="0.09615384615384616em" height="1.451817502482006em" x="9.51923076923077vw" y="1.548182497517994em" fill="#aaa"/><rect width="0.09615384615384616em" height="1.8036906841445237em" x="9.615384615384617vw" y="1.1963093158554763em" fill="#aaa"/><rect width="0.09615384615384616em" height="0.7166093683238078em" x="9.711538461538462vw" y="2.283390631676192em" fill="#aaa"/><rect width="0.09615384615384616em" height="1.1024693320045735em" x="9.807692307692308vw" y="1.8975306679954265em" fill="#aaa"/><rect width="0.09615384615384616em" height="0.8661214587879806em" x="9.903846153846155vw" y="2.1338785412120194em" fill="#aaa"/></svg>