<?xml version="1.0" standalone="no"?>
<svg xmlns:xlink="http://www.w3.org/1999/xlink" xmlns="http://www.w3.org/2000/svg" class="topic-graph" style="width: 100em; height: 30em; text-align: center;"><rect width="0.9615384615384616em" height="0.11439565118683107em" x="0em" y="29.885604348813168em" fill="#aaa"/><rect width="0.9615384615384616em" height="1.6413688257779886em" x="0.9615384615384616em" y="28.358631174222012em" fill="#aaa"/><rect width="0.9615384615384616em" height="0.21156119187555372em" x="1.9230769230769231em" y="29.788438808124447em" fill="#aaa"/><rect width="0.9615384615384616em" height="1.4670032914044766em" x="2.8846153846153846em" y="28.532996708595523em" fill="#aaa"/><rect width="0.9615384615384616em" height="0.13819782911050701em" x="3.8461538461538463em" y="29.861802170889494em" fill="#aaa"/><rect width="0.9615384615384616em" height="4.264322341024731em" x="4.8076923076923075em" y="25.73567765897527em" fill="#aaa"/><rect width="0.9615384615384616em" height="0.9048995452429794em" x="5.769230769230769em" y="29.09510045475702em" fill="#aaa"/><rect width="0.9615384615384616em" height="1.275973334884692em" x="6.730769230769231em" y="28.724026665115307em" fill="#aaa"/><rect width="0.9615384615384616em" height="3.591293577931678em" x="7.6923076923076925em" y="26.40870642206832em" fill="#aaa"/><rect width="0.9615384615384616em" height="2.67899121084276em" x="8.653846153846153em" y="27.32100878915724em" fill="#aaa"/><rect width="0.9615384615384616em" height="0.2045368984360199em" x="9.615384615384615em" y="29.79546310156398em" fill="#aaa"/><rect width="0.9615384615384616em" height="0.8856218515482972em" x="10.576923076923077em" y="29.114378148451703em" fill="#aaa"/><rect width="0.9615384615384616em" height="11.509088321042208em" x="11.538461538461538em" y="18.490911678957794em" fill="#aaa"/><rect width="0.9615384615384616em" height="1.582051501599911em" x="12.5em" y="28.41794849840009em" fill="#aaa"/><rect width="0.9615384615384616em" height="1.2303862059330757em" x="13.461538461538462em" y="28.769613794066924em" fill="#aaa"/><rect width="0.9615384615384616em" height="8.331082355548345em" x="14.423076923076923em" y="21.668917644451653em" fill="#aaa"/><rect width="0.9615384615384616em" height="12.741435231401761em" x="15.384615384615385em" y="17.25856476859824em" fill="#aaa"/><rect width="0.9615384615384616em" height="2.231593458320665em" x="16.346153846153847em" y="27.768406541679333em" fill="#aaa"/><rect width="0.9615384615384616em" height="30em" x="17.307692307692307em" y="0em" fill="#aaa"/><rect width="0.9615384615384616em" height="21.655752003633943em" x="18.26923076923077em" y="8.344247996366057em" fill="#aaa"/><rect width="0.9615384615384616em" height="5.031971755871651em" x="19.23076923076923em" y="24.968028244128348em" fill="#aaa"/><rect width="0.9615384615384616em" height="6.158130662545867em" x="20.192307692307693em" y="23.841869337454135em" fill="#aaa"/><rect width="0.9615384615384616em" height="0.2886760764826501em" x="21.153846153846153em" y="29.71132392351735em" fill="#aaa"/><rect width="0.9615384615384616em" height="8.61471262214972em" x="22.115384615384617em" y="21.385287377850283em" fill="#aaa"/><rect width="0.9615384615384616em" height="1.014471685916174em" x="23.076923076923077em" y="28.985528314083826em" fill="#aaa"/><rect width="0.9615384615384616em" height="5.707469727895472em" x="24.03846153846154em" y="24.29253027210453em" fill="#aaa"/><rect width="0.9615384615384616em" height="2.0591501908314633em" x="25em" y="27.940849809168537em" fill="#aaa"/><rect width="0.9615384615384616em" height="1.2612723116694748em" x="25.961538461538463em" y="28.738727688330524em" fill="#aaa"/><rect width="0.9615384615384616em" height="4.458955352869193em" x="26.923076923076923em" y="25.541044647130807em" fill="#aaa"/><rect width="0.9615384615384616em" height="5.917670491518047em" x="27.884615384615387em" y="24.082329508481955em" fill="#aaa"/><rect width="0.9615384615384616em" height="14.132036748266678em" x="28.846153846153847em" y="15.867963251733322em" fill="#aaa"/><rect width="0.9615384615384616em" height="12.233559154975033em" x="29.80769230769231em" y="17.766440845024967em" fill="#aaa"/><rect width="0.9615384615384616em" height="4.24371130178061em" x="30.76923076923077em" y="25.75628869821939em" fill="#aaa"/><rect width="0.9615384615384616em" height="1.260753433270938em" x="31.73076923076923em" y="28.73924656672906em" fill="#aaa"/><rect width="0.9615384615384616em" height="4.707515374695323em" x="32.69230769230769em" y="25.292484625304677em" fill="#aaa"/><rect width="0.9615384615384616em" height="3.02345174779015em" x="33.65384615384615em" y="26.97654825220985em" fill="#aaa"/><rect width="0.9615384615384616em" height="2.4692295989526802em" x="34.61538461538461em" y="27.53077040104732em" fill="#aaa"/><rect width="0.9615384615384616em" height="8.403763530199052em" x="35.57692307692308em" y="21.59623646980095em" fill="#aaa"/><rect width="0.9615384615384616em" height="2.4549195648532334em" x="36.53846153846154em" y="27.545080435146765em" fill="#aaa"/><rect width="0.9615384615384616em" height="1.2476481436282112em" x="37.5em" y="28.75235185637179em" fill="#aaa"/><rect width="0.9615384615384616em" height="1.1347234319239146em" x="38.46153846153846em" y="28.865276568076084em" fill="#aaa"/><rect width="0.9615384615384616em" height="1.094763872282355em" x="39.42307692307693em" y="28.905236127717647em" fill="#aaa"/><rect width="0.9615384615384616em" height="4.715234089562222em" x="40.38461538461539em" y="25.284765910437777em" fill="#aaa"/><rect width="0.9615384615384616em" height="4.946439869332589em" x="41.34615384615385em" y="25.05356013066741em" fill="#aaa"/><rect width="0.9615384615384616em" height="10.368771945709884em" x="42.30769230769231em" y="19.631228054290116em" fill="#aaa"/><rect width="0.9615384615384616em" height="8.141253413162747em" x="43.269230769230774em" y="21.858746586837253em" fill="#aaa"/><rect width="0.9615384615384616em" height="9.682226726664405em" x="44.23076923076923em" y="20.317773273335597em" fill="#aaa"/><rect width="0.9615384615384616em" height="1.6175182098087584em" x="45.19230769230769em" y="28.382481790191243em" fill="#aaa"/><rect width="0.9615384615384616em" height="0.6688215566209759em" x="46.15384615384615em" y="29.331178443379024em" fill="#aaa"/><rect width="0.9615384615384616em" height="1.0163282473606978em" x="47.11538461538461em" y="28.983671752639303em" fill="#aaa"/><rect width="0.9615384615384616em" height="8.525161450045271em" x="48.07692307692308em" y="21.47483854995473em" fill="#aaa"/><rect width="0.9615384615384616em" height="8.035467352757442em" x="49.03846153846154em" y="21.964532647242557em" fill="#aaa"/><rect width="0.9615384615384616em" height="4.211592879993836em" x="50em" y="25.788407120006163em" fill="#aaa"/><rect width="0.9615384615384616em" height="8.407299440835397em" x="50.96153846153846em" y="21.592700559164605em" fill="#aaa"/><rect width="0.9615384615384616em" height="3.86086678389155em" x="51.92307692307693em" y="26.13913321610845em" fill="#aaa"/><rect width="0.9615384615384616em" height="4.243902654709991em" x="52.88461538461539em" y="25.75609734529001em" fill="#aaa"/><rect width="0.9615384615384616em" height="8.603846377032546em" x="53.84615384615385em" y="21.396153622967454em" fill="#aaa"/><rect width="0.9615384615384616em" height="6.312328565850212em" x="54.80769230769231em" y="23.687671434149788em" fill="#aaa"/><rect width="0.9615384615384616em" height="4.214880674706979em" x="55.769230769230774em" y="25.78511932529302em" fill="#aaa"/><rect width="0.9615384615384616em" height="0.5205318105755804em" x="56.73076923076923em" y="29.47946818942442em" fill="#aaa"/><rect width="0.9615384615384616em" height="3.362912487386037em" x="57.69230769230769em" y="26.637087512613963em" fill="#aaa"/><rect width="0.9615384615384616em" height="4.149955414635863em" x="58.65384615384615em" y="25.850044585364138em" fill="#aaa"/><rect width="0.9615384615384616em" height="4.75105002327889em" x="59.61538461538462em" y="25.24894997672111em" fill="#aaa"/><rect width="0.9615384615384616em" height="0.7222771846867946em" x="60.57692307692308em" y="29.277722815313204em" fill="#aaa"/><rect width="0.9615384615384616em" height="4.823317007085623em" x="61.53846153846154em" y="25.176682992914376em" fill="#aaa"/><rect width="0.9615384615384616em" height="4.978605685869669em" x="62.5em" y="25.021394314130333em" fill="#aaa"/><rect width="0.9615384615384616em" height="4.874270158136937em" x="63.46153846153846em" y="25.125729841863063em" fill="#aaa"/><rect width="0.9615384615384616em" height="2.3626760186729374em" x="64.42307692307692em" y="27.637323981327064em" fill="#aaa"/><rect width="0.9615384615384616em" height="4.986781290831959em" x="65.38461538461539em" y="25.01321870916804em" fill="#aaa"/><rect width="0.9615384615384616em" height="0.7229169256950133em" x="66.34615384615385em" y="29.277083074304986em" fill="#aaa"/><rect width="0.9615384615384616em" height="2.117575015979593em" x="67.3076923076923em" y="27.882424984020407em" fill="#aaa"/><rect width="0.9615384615384616em" height="1.7980281938015519em" x="68.26923076923077em" y="28.201971806198447em" fill="#aaa"/><rect width="0.9615384615384616em" height="2.0233892843951136em" x="69.23076923076923em" y="27.976610715604885em" fill="#aaa"/><rect width="0.9615384615384616em" height="1.9344170266577674em" x="70.1923076923077em" y="28.06558297334223em" fill="#aaa"/><rect width="0.9615384615384616em" height="3.5284651326886562em" x="71.15384615384616em" y="26.471534867311345em" fill="#aaa"/><rect width="0.9615384615384616em" height="1.8047229471856234em" x="72.11538461538461em" y="28.195277052814376em" fill="#aaa"/><rect width="0.9615384615384616em" height="0.9299539716053037em" x="73.07692307692308em" y="29.070046028394696em" fill="#aaa"/><rect width="0.9615384615384616em" height="2.1658608265755395em" x="74.03846153846155em" y="27.83413917342446em" fill="#aaa"/><rect width="0.9615384615384616em" height="2.3669125533222033em" x="75em" y="27.6330874466778em" fill="#aaa"/><rect width="0.9615384615384616em" height="1.8886910001193957em" x="75.96153846153847em" y="28.111308999880606em" fill="#aaa"/><rect width="0.9615384615384616em" height="1.158879979018514em" x="76.92307692307692em" y="28.841120020981485em" fill="#aaa"/><rect width="0.9615384615384616em" height="2.9995813163251697em" x="77.88461538461539em" y="27.00041868367483em" fill="#aaa"/><rect width="0.9615384615384616em" height="2.4710812974577823em" x="78.84615384615385em" y="27.528918702542217em" fill="#aaa"/><rect width="0.9615384615384616em" height="1.3708104412786577em" x="79.8076923076923em" y="28.629189558721343em" fill="#aaa"/><rect width="0.9615384615384616em" height="1.8959616582887042em" x="80.76923076923077em" y="28.104038341711295em" fill="#aaa"/><rect width="0.9615384615384616em" height="3.2352184017746484em" x="81.73076923076923em" y="26.76478159822535em" fill="#aaa"/><rect width="0.9615384615384616em" height="2.776334103176716em" x="82.6923076923077em" y="27.223665896823285em" fill="#aaa"/><rect width="0.9615384615384616em" height="1.921554446598054em" x="83.65384615384616em" y="28.078445553401945em" fill="#aaa"/><rect width="0.9615384615384616em" height="0.8097469222732315em" x="84.61538461538461em" y="29.19025307772677em" fill="#aaa"/><rect width="0.9615384615384616em" height="1.848644813935183em" x="85.57692307692308em" y="28.151355186064816em" fill="#aaa"/><rect width="0.9615384615384616em" height="1.9134592116409226em" x="86.53846153846155em" y="28.086540788359077em" fill="#aaa"/><rect width="0.9615384615384616em" height="2.0588764049050465em" x="87.5em" y="27.941123595094954em" fill="#aaa"/><rect width="0.9615384615384616em" height="0.640591675233798em" x="88.46153846153847em" y="29.359408324766203em" fill="#aaa"/><rect width="0.9615384615384616em" height="0.824869974587157em" x="89.42307692307692em" y="29.175130025412845em" fill="#aaa"/><rect width="0.9615384615384616em" height="1.8573259746007653em" x="90.38461538461539em" y="28.142674025399234em" fill="#aaa"/><rect width="0.9615384615384616em" height="1.493037528497367em" x="91.34615384615385em" y="28.506962471502632em" fill="#aaa"/><rect width="0.9615384615384616em" height="1.5046858608613167em" x="92.3076923076923em" y="28.495314139138685em" fill="#aaa"/><rect width="0.9615384615384616em" height="1.115094008178895em" x="93.26923076923077em" y="28.884905991821107em" fill="#aaa"/><rect width="0.9615384615384616em" height="1.486518161566657em" x="94.23076923076923em" y="28.513481838433343em" fill="#aaa"/><rect width="0.9615384615384616em" height="0.6308498412679422em" x="95.1923076923077em" y="29.369150158732058em" fill="#aaa"/><rect width="0.9615384615384616em" height="1.74400810827235em" x="96.15384615384616em" y="28.25599189172765em" fill="#aaa"/><rect width="0.9615384615384616em" height="1.5108677058111768em" x="97.11538461538461em" y="28.489132294188824em" fill="#aaa"/><rect width="0.9615384615384616em" height="2.140541310350883em" x="98.07692307692308em" y="27.859458689649117em" fill="#aaa"/><rect width="0.9615384615384616em" height="1.2422914908473002em" x="99.03846153846155em" y="28.7577085091527em" fill="#aaa"/></svg>