<?xml version="1.0" standalone="no"?>
<svg xmlns:xlink="http://www.w3.org/1999/xlink" xmlns="http://www.w3.org/2000/svg" class="topic-graph" style="width: 10vw; height: 3em; text-align: center;"><rect width="0.09615384615384616em" height="1.4736873309112315em" x="0vw" y="1.5263126690887685em" fill="#aaa"/><rect width="0.09615384615384616em" height="0.6048415200587007em" x="0.09615384615384616vw" y="2.3951584799412995em" fill="#aaa"/><rect width="0.09615384615384616em" height="0.4979651053692762em" x="0.19230769230769232vw" y="2.502034894630724em" fill="#aaa"/><rect width="0.09615384615384616em" height="0.9310533943764254em" x="0.2884615384615385vw" y="2.068946605623575em" fill="#aaa"/><rect width="0.09615384615384616em" height="1.042179239019345em" x="0.38461538461538464vw" y="1.957820760980655em" fill="#aaa"/><rect width="0.09615384615384616em" height="1.2303892351212236em" x="0.4807692307692308vw" y="1.7696107648787764em" fill="#aaa"/><rect width="0.09615384615384616em" height="1.6252674505248077em" x="0.576923076923077vw" y="1.3747325494751923em" fill="#aaa"/><rect width="0.09615384615384616em" height="0.8266589348904347em" x="0.6730769230769231vw" y="2.1733410651095655em" fill="#aaa"/><rect width="0.09615384615384616em" height="2.2026749563627277em" x="0.7692307692307693vw" y="0.7973250436372723em" fill="#aaa"/><rect width="0.09615384615384616em" height="1.7356811417078701em" x="0.8653846153846154vw" y="1.2643188582921299em" fill="#aaa"/><rect width="0.09615384615384616em" height="2.611201703404467em" x="0.9615384615384616vw" y="0.388798296595533em" fill="#aaa"/><rect width="0.09615384615384616em" height="1.5433840135731827em" x="1.0576923076923077vw" y="1.4566159864268173em" fill="#aaa"/><rect width="0.09615384615384616em" height="1.179500884770914em" x="1.153846153846154vw" y="1.820499115229086em" fill="#aaa"/><rect width="0.09615384615384616em" height="1.7705653687753862em" x="1.25vw" y="1.2294346312246138em" fill="#aaa"/><rect width="0.09615384615384616em" height="1.7643302566983303em" x="1.3461538461538463vw" y="1.2356697433016697em" fill="#aaa"/><rect width="0.09615384615384616em" height="1.9861639479031616em" x="1.4423076923076923vw" y="1.0138360520968384em" fill="#aaa"/><rect width="0.09615384615384616em" height="1.4821299823891663em" x="1.5384615384615385vw" y="1.5178700176108337em" fill="#aaa"/><rect width="0.09615384615384616em" height="1.3748156724283058em" x="1.6346153846153848vw" y="1.6251843275716942em" fill="#aaa"/><rect width="0.09615384615384616em" height="2.1216083601424693em" x="1.7307692307692308vw" y="0.8783916398575307em" fill="#aaa"/><rect width="0.09615384615384616em" height="1.857659342880724em" x="1.826923076923077vw" y="1.142340657119276em" fill="#aaa"/><rect width="0.09615384615384616em" height="2.777364759710416em" x="1.9230769230769231vw" y="0.22263524028958415em" fill="#aaa"/><rect width="0.09615384615384616em" height="2.7194942509176627em" x="2.019230769230769vw" y="0.2805057490823373em" fill="#aaa"/><rect width="0.09615384615384616em" height="3em" x="2.1153846153846154vw" y="0em" fill="#aaa"/><rect width="0.09615384615384616em" height="2.2203076273347686em" x="2.2115384615384617vw" y="0.7796923726652314em" fill="#aaa"/><rect width="0.09615384615384616em" height="2.644502213196058em" x="2.307692307692308vw" y="0.3554977868039422em" fill="#aaa"/><rect width="0.09615384615384616em" height="1.577265790517791em" x="2.403846153846154vw" y="1.422734209482209em" fill="#aaa"/><rect width="0.09615384615384616em" height="1.3553099778403117em" x="2.5vw" y="1.6446900221596883em" fill="#aaa"/><rect width="0.09615384615384616em" height="1.368624998176088em" x="2.5961538461538463vw" y="1.631375001823912em" fill="#aaa"/><rect width="0.09615384615384616em" height="1.4665251401030144em" x="2.6923076923076925vw" y="1.5334748598969856em" fill="#aaa"/><rect width="0.09615384615384616em" height="1.615296611028925em" x="2.7884615384615388vw" y="1.384703388971075em" fill="#aaa"/><rect width="0.09615384615384616em" height="1.7572707648382602em" x="2.8846153846153846vw" y="1.2427292351617398em" fill="#aaa"/><rect width="0.09615384615384616em" height="2.1133619079335633em" x="2.980769230769231vw" y="0.8866380920664367em" fill="#aaa"/><rect width="0.09615384615384616em" height="2.1976607611229em" x="3.076923076923077vw" y="0.8023392388770998em" fill="#aaa"/><rect width="0.09615384615384616em" height="1.9625318345254166em" x="3.1730769230769234vw" y="1.0374681654745834em" fill="#aaa"/><rect width="0.09615384615384616em" height="1.606928003564902em" x="3.2692307692307696vw" y="1.393071996435098em" fill="#aaa"/><rect width="0.09615384615384616em" height="1.7869842518934975em" x="3.3653846153846154vw" y="1.2130157481065025em" fill="#aaa"/><rect width="0.09615384615384616em" height="1.5355781152765626em" x="3.4615384615384617vw" y="1.4644218847234374em" fill="#aaa"/><rect width="0.09615384615384616em" height="1.4044717499153525em" x="3.557692307692308vw" y="1.5955282500846475em" fill="#aaa"/><rect width="0.09615384615384616em" height="1.2305493333640825em" x="3.653846153846154vw" y="1.7694506666359175em" fill="#aaa"/><rect width="0.09615384615384616em" height="1.645211532912358em" x="3.75vw" y="1.354788467087642em" fill="#aaa"/><rect width="0.09615384615384616em" height="1.9556718608158912em" x="3.8461538461538463vw" y="1.0443281391841088em" fill="#aaa"/><rect width="0.09615384615384616em" height="1.5659508936096593em" x="3.9423076923076925vw" y="1.4340491063903407em" fill="#aaa"/><rect width="0.09615384615384616em" height="1.4054731671298728em" x="4.038461538461538vw" y="1.5945268328701272em" fill="#aaa"/><rect width="0.09615384615384616em" height="2.260354759572656em" x="4.134615384615385vw" y="0.7396452404273441em" fill="#aaa"/><rect width="0.09615384615384616em" height="1.6932867035134116em" x="4.230769230769231vw" y="1.3067132964865884em" fill="#aaa"/><rect width="0.09615384615384616em" height="1.3752320153133146em" x="4.3269230769230775vw" y="1.6247679846866854em" fill="#aaa"/><rect width="0.09615384615384616em" height="1.9861351486934222em" x="4.423076923076923vw" y="1.0138648513065778em" fill="#aaa"/><rect width="0.09615384615384616em" height="1.5782262136675582em" x="4.519230769230769vw" y="1.4217737863324418em" fill="#aaa"/><rect width="0.09615384615384616em" height="1.5851960478899234em" x="4.615384615384616vw" y="1.4148039521100766em" fill="#aaa"/><rect width="0.09615384615384616em" height="1.654159706559018em" x="4.711538461538462vw" y="1.345840293440982em" fill="#aaa"/><rect width="0.09615384615384616em" height="1.3141498162641607em" x="4.807692307692308vw" y="1.6858501837358393em" fill="#aaa"/><rect width="0.09615384615384616em" height="1.1734348042752em" x="4.903846153846154vw" y="1.8265651957248em" fill="#aaa"/><rect width="0.09615384615384616em" height="1.4690826083912265em" x="5vw" y="1.5309173916087735em" fill="#aaa"/><rect width="0.09615384615384616em" height="1.2536938648323668em" x="5.096153846153847vw" y="1.7463061351676332em" fill="#aaa"/><rect width="0.09615384615384616em" height="1.0033779408707493em" x="5.1923076923076925vw" y="1.9966220591292507em" fill="#aaa"/><rect width="0.09615384615384616em" height="1.0369301922992025em" x="5.288461538461538vw" y="1.9630698077007975em" fill="#aaa"/><rect width="0.09615384615384616em" height="1.248416523401373em" x="5.384615384615385vw" y="1.751583476598627em" fill="#aaa"/><rect width="0.09615384615384616em" height="1.0330418548175802em" x="5.480769230769231vw" y="1.9669581451824198em" fill="#aaa"/><rect width="0.09615384615384616em" height="0.8120473976056344em" x="5.5769230769230775vw" y="2.1879526023943656em" fill="#aaa"/><rect width="0.09615384615384616em" height="1.0382908632284353em" x="5.673076923076923vw" y="1.9617091367715647em" fill="#aaa"/><rect width="0.09615384615384616em" height="1.2648862196630477em" x="5.769230769230769vw" y="1.7351137803369523em" fill="#aaa"/><rect width="0.09615384615384616em" height="0.9565129071691665em" x="5.865384615384616vw" y="2.0434870928308335em" fill="#aaa"/><rect width="0.09615384615384616em" height="0.9638643584733673em" x="5.961538461538462vw" y="2.0361356415266325em" fill="#aaa"/><rect width="0.09615384615384616em" height="0.8077797108134026em" x="6.057692307692308vw" y="2.192220289186597em" fill="#aaa"/><rect width="0.09615384615384616em" height="0.9525200517535208em" x="6.153846153846154vw" y="2.047479948246479em" fill="#aaa"/><rect width="0.09615384615384616em" height="0.6575102283603831em" x="6.25vw" y="2.3424897716396167em" fill="#aaa"/><rect width="0.09615384615384616em" height="0.7209952825348136em" x="6.346153846153847vw" y="2.2790047174651864em" fill="#aaa"/><rect width="0.09615384615384616em" height="0.677882246529887em" x="6.4423076923076925vw" y="2.322117753470113em" fill="#aaa"/><rect width="0.09615384615384616em" height="0.6023308229472074em" x="6.538461538461539vw" y="2.3976691770527925em" fill="#aaa"/><rect width="0.09615384615384616em" height="0.616309536849958em" x="6.634615384615385vw" y="2.383690463150042em" fill="#aaa"/><rect width="0.09615384615384616em" height="0.7443970998317229em" x="6.730769230769231vw" y="2.2556029001682774em" fill="#aaa"/><rect width="0.09615384615384616em" height="0.5923852072890898em" x="6.8269230769230775vw" y="2.40761479271091em" fill="#aaa"/><rect width="0.09615384615384616em" height="0.6724097725014209em" x="6.923076923076923vw" y="2.327590227498579em" fill="#aaa"/><rect width="0.09615384615384616em" height="0.4583639265036623em" x="7.01923076923077vw" y="2.5416360734963375em" fill="#aaa"/><rect width="0.09615384615384616em" height="0.5610573323687554em" x="7.115384615384616vw" y="2.4389426676312445em" fill="#aaa"/><rect width="0.09615384615384616em" height="0.43062082819072156em" x="7.211538461538462vw" y="2.5693791718092784em" fill="#aaa"/><rect width="0.09615384615384616em" height="0.4168601019802777em" x="7.307692307692308vw" y="2.583139898019722em" fill="#aaa"/><rect width="0.09615384615384616em" height="0.40407455918803536em" x="7.403846153846154vw" y="2.5959254408119645em" fill="#aaa"/><rect width="0.09615384615384616em" height="0.4507410608171184em" x="7.5vw" y="2.5492589391828817em" fill="#aaa"/><rect width="0.09615384615384616em" height="0.35824084980673054em" x="7.596153846153847vw" y="2.6417591501932693em" fill="#aaa"/><rect width="0.09615384615384616em" height="0.39860535725834356em" x="7.6923076923076925vw" y="2.6013946427416563em" fill="#aaa"/><rect width="0.09615384615384616em" height="0.4651064785269309em" x="7.788461538461539vw" y="2.534893521473069em" fill="#aaa"/><rect width="0.09615384615384616em" height="0.4365676998214947em" x="7.884615384615385vw" y="2.5634323001785053em" fill="#aaa"/><rect width="0.09615384615384616em" height="0.41567932096144683em" x="7.980769230769231vw" y="2.5843206790385533em" fill="#aaa"/><rect width="0.09615384615384616em" height="0.3941565516491392em" x="8.076923076923077vw" y="2.6058434483508606em" fill="#aaa"/><rect width="0.09615384615384616em" height="0.408162215525075em" x="8.173076923076923vw" y="2.591837784474925em" fill="#aaa"/><rect width="0.09615384615384616em" height="0.46911273317593827em" x="8.26923076923077vw" y="2.530887266824062em" fill="#aaa"/><rect width="0.09615384615384616em" height="0.37489704352654896em" x="8.365384615384615vw" y="2.625102956473451em" fill="#aaa"/><rect width="0.09615384615384616em" height="0.39652970979460267em" x="8.461538461538462vw" y="2.603470290205397em" fill="#aaa"/><rect width="0.09615384615384616em" height="0.42219821628610643em" x="8.557692307692308vw" y="2.577801783713894em" fill="#aaa"/><rect width="0.09615384615384616em" height="0.4136793481612778em" x="8.653846153846155vw" y="2.5863206518387223em" fill="#aaa"/><rect width="0.09615384615384616em" height="0.4241719866349917em" x="8.75vw" y="2.575828013365008em" fill="#aaa"/><rect width="0.09615384615384616em" height="0.4129393276614597em" x="8.846153846153847vw" y="2.5870606723385405em" fill="#aaa"/><rect width="0.09615384615384616em" height="0.3888081686640119em" x="8.942307692307693vw" y="2.6111918313359883em" fill="#aaa"/><rect width="0.09615384615384616em" height="0.36700544361057075em" x="9.038461538461538vw" y="2.6329945563894293em" fill="#aaa"/><rect width="0.09615384615384616em" height="0.397944081080214em" x="9.134615384615385vw" y="2.602055918919786em" fill="#aaa"/><rect width="0.09615384615384616em" height="0.3451813299665249em" x="9.230769230769232vw" y="2.654818670033475em" fill="#aaa"/><rect width="0.09615384615384616em" height="0.3215176678547016em" x="9.326923076923077vw" y="2.6784823321452986em" fill="#aaa"/><rect width="0.09615384615384616em" height="0.3713120351504518em" x="9.423076923076923vw" y="2.628687964849548em" fill="#aaa"/><rect width="0.09615384615384616em" height="0.3346845065264372em" x="9.51923076923077vw" y="2.665315493473563em" fill="#aaa"/><rect width="0.09615384615384616em" height="0.3163943428249161em" x="9.615384615384617vw" y="2.683605657175084em" fill="#aaa"/><rect width="0.09615384615384616em" height="0.390344381941129em" x="9.711538461538462vw" y="2.609655618058871em" fill="#aaa"/><rect width="0.09615384615384616em" height="0.3063989972654182em" x="9.807692307692308vw" y="2.6936010027345816em" fill="#aaa"/><rect width="0.09615384615384616em" height="0.28579526712351605em" x="9.903846153846155vw" y="2.714204732876484em" fill="#aaa"/></svg>