<?xml version="1.0" standalone="no"?>
<svg xmlns:xlink="http://www.w3.org/1999/xlink" xmlns="http://www.w3.org/2000/svg" class="topic-graph" style="width: 100em; height: 30em; text-align: center;"><rect width="0.9615384615384616em" height="0.7358433488979983em" x="0em" y="29.264156651102002em" fill="#aaa"/><rect width="0.9615384615384616em" height="5.409113063450796em" x="0.9615384615384616em" y="24.590886936549204em" fill="#aaa"/><rect width="0.9615384615384616em" height="1.2056642696377324em" x="1.9230769230769231em" y="28.794335730362267em" fill="#aaa"/><rect width="0.9615384615384616em" height="0.5774094804877405em" x="2.8846153846153846em" y="29.42259051951226em" fill="#aaa"/><rect width="0.9615384615384616em" height="2.185431416602567em" x="3.8461538461538463em" y="27.81456858339743em" fill="#aaa"/><rect width="0.9615384615384616em" height="1.3523996560209384em" x="4.8076923076923075em" y="28.64760034397906em" fill="#aaa"/><rect width="0.9615384615384616em" height="0.3667936039272996em" x="5.769230769230769em" y="29.6332063960727em" fill="#aaa"/><rect width="0.9615384615384616em" height="0.30463147087374504em" x="6.730769230769231em" y="29.695368529126256em" fill="#aaa"/><rect width="0.9615384615384616em" height="0.18597852778947874em" x="7.6923076923076925em" y="29.81402147221052em" fill="#aaa"/><rect width="0.9615384615384616em" height="0.6026248631512386em" x="8.653846153846153em" y="29.397375136848762em" fill="#aaa"/><rect width="0.9615384615384616em" height="1.671725204181183em" x="9.615384615384615em" y="28.328274795818817em" fill="#aaa"/><rect width="0.9615384615384616em" height="2.277576420284076em" x="10.576923076923077em" y="27.722423579715922em" fill="#aaa"/><rect width="0.9615384615384616em" height="3.1467724211748034em" x="11.538461538461538em" y="26.853227578825198em" fill="#aaa"/><rect width="0.9615384615384616em" height="1.7813285922495954em" x="12.5em" y="28.218671407750406em" fill="#aaa"/><rect width="0.9615384615384616em" height="0.3535885091332382em" x="13.461538461538462em" y="29.64641149086676em" fill="#aaa"/><rect width="0.9615384615384616em" height="2.163743488688353em" x="14.423076923076923em" y="27.836256511311646em" fill="#aaa"/><rect width="0.9615384615384616em" height="0.6951256630676939em" x="15.384615384615385em" y="29.304874336932308em" fill="#aaa"/><rect width="0.9615384615384616em" height="5.164983041115381em" x="16.346153846153847em" y="24.83501695888462em" fill="#aaa"/><rect width="0.9615384615384616em" height="2.1581967542502483em" x="17.307692307692307em" y="27.84180324574975em" fill="#aaa"/><rect width="0.9615384615384616em" height="11.59266970243533em" x="18.26923076923077em" y="18.40733029756467em" fill="#aaa"/><rect width="0.9615384615384616em" height="16.440014322532907em" x="19.23076923076923em" y="13.559985677467093em" fill="#aaa"/><rect width="0.9615384615384616em" height="8.874207158499665em" x="20.192307692307693em" y="21.125792841500335em" fill="#aaa"/><rect width="0.9615384615384616em" height="0.6873825831716731em" x="21.153846153846153em" y="29.312617416828328em" fill="#aaa"/><rect width="0.9615384615384616em" height="2.7313385352753774em" x="22.115384615384617em" y="27.268661464724623em" fill="#aaa"/><rect width="0.9615384615384616em" height="1.7018393473859947em" x="23.076923076923077em" y="28.298160652614005em" fill="#aaa"/><rect width="0.9615384615384616em" height="2.1009749128890487em" x="24.03846153846154em" y="27.89902508711095em" fill="#aaa"/><rect width="0.9615384615384616em" height="5.443656945369768em" x="25em" y="24.556343054630233em" fill="#aaa"/><rect width="0.9615384615384616em" height="12.538252284072303em" x="25.961538461538463em" y="17.461747715927697em" fill="#aaa"/><rect width="0.9615384615384616em" height="2.0099242985447394em" x="26.923076923076923em" y="27.99007570145526em" fill="#aaa"/><rect width="0.9615384615384616em" height="1.6683786728360808em" x="27.884615384615387em" y="28.33162132716392em" fill="#aaa"/><rect width="0.9615384615384616em" height="30em" x="28.846153846153847em" y="0em" fill="#aaa"/><rect width="0.9615384615384616em" height="11.795525655528106em" x="29.80769230769231em" y="18.204474344471894em" fill="#aaa"/><rect width="0.9615384615384616em" height="2.3020544127288676em" x="30.76923076923077em" y="27.697945587271132em" fill="#aaa"/><rect width="0.9615384615384616em" height="7.202435170615555em" x="31.73076923076923em" y="22.797564829384445em" fill="#aaa"/><rect width="0.9615384615384616em" height="4.367759300763697em" x="32.69230769230769em" y="25.632240699236302em" fill="#aaa"/><rect width="0.9615384615384616em" height="2.4886987934243723em" x="33.65384615384615em" y="27.511301206575627em" fill="#aaa"/><rect width="0.9615384615384616em" height="6.388447833963614em" x="34.61538461538461em" y="23.611552166036386em" fill="#aaa"/><rect width="0.9615384615384616em" height="2.603158204342832em" x="35.57692307692308em" y="27.396841795657167em" fill="#aaa"/><rect width="0.9615384615384616em" height="6.4661353801603845em" x="36.53846153846154em" y="23.533864619839616em" fill="#aaa"/><rect width="0.9615384615384616em" height="11.246531274153766em" x="37.5em" y="18.753468725846233em" fill="#aaa"/><rect width="0.9615384615384616em" height="4.806304082146815em" x="38.46153846153846em" y="25.193695917853184em" fill="#aaa"/><rect width="0.9615384615384616em" height="1.9745598305139498em" x="39.42307692307693em" y="28.02544016948605em" fill="#aaa"/><rect width="0.9615384615384616em" height="1.7115538000691133em" x="40.38461538461539em" y="28.28844619993089em" fill="#aaa"/><rect width="0.9615384615384616em" height="2.719156136101745em" x="41.34615384615385em" y="27.280843863898255em" fill="#aaa"/><rect width="0.9615384615384616em" height="8.717078924840465em" x="42.30769230769231em" y="21.282921075159535em" fill="#aaa"/><rect width="0.9615384615384616em" height="7.347259895638314em" x="43.269230769230774em" y="22.652740104361687em" fill="#aaa"/><rect width="0.9615384615384616em" height="4.0955946353974175em" x="44.23076923076923em" y="25.90440536460258em" fill="#aaa"/><rect width="0.9615384615384616em" height="5.167746330830615em" x="45.19230769230769em" y="24.832253669169386em" fill="#aaa"/><rect width="0.9615384615384616em" height="2.448995836202022em" x="46.15384615384615em" y="27.551004163797977em" fill="#aaa"/><rect width="0.9615384615384616em" height="1.1481722532744918em" x="47.11538461538461em" y="28.851827746725508em" fill="#aaa"/><rect width="0.9615384615384616em" height="2.258837528026188em" x="48.07692307692308em" y="27.741162471973812em" fill="#aaa"/><rect width="0.9615384615384616em" height="2.0673348428918783em" x="49.03846153846154em" y="27.932665157108122em" fill="#aaa"/><rect width="0.9615384615384616em" height="0.8529708607986729em" x="50em" y="29.147029139201326em" fill="#aaa"/><rect width="0.9615384615384616em" height="3.1332515504432217em" x="50.96153846153846em" y="26.866748449556777em" fill="#aaa"/><rect width="0.9615384615384616em" height="5.693420800782546em" x="51.92307692307693em" y="24.306579199217452em" fill="#aaa"/><rect width="0.9615384615384616em" height="4.483836105012216em" x="52.88461538461539em" y="25.516163894987784em" fill="#aaa"/><rect width="0.9615384615384616em" height="1.1047542571801858em" x="53.84615384615385em" y="28.895245742819814em" fill="#aaa"/><rect width="0.9615384615384616em" height="1.363918059909081em" x="54.80769230769231em" y="28.636081940090918em" fill="#aaa"/><rect width="0.9615384615384616em" height="3.608678420253293em" x="55.769230769230774em" y="26.39132157974671em" fill="#aaa"/><rect width="0.9615384615384616em" height="0.972533244693125em" x="56.73076923076923em" y="29.027466755306875em" fill="#aaa"/><rect width="0.9615384615384616em" height="3.188493703275581em" x="57.69230769230769em" y="26.811506296724417em" fill="#aaa"/><rect width="0.9615384615384616em" height="0.48267077880920095em" x="58.65384615384615em" y="29.5173292211908em" fill="#aaa"/><rect width="0.9615384615384616em" height="2.1889717368412085em" x="59.61538461538462em" y="27.811028263158793em" fill="#aaa"/><rect width="0.9615384615384616em" height="2.5649742217840887em" x="60.57692307692308em" y="27.435025778215913em" fill="#aaa"/><rect width="0.9615384615384616em" height="8.584676524950275em" x="61.53846153846154em" y="21.415323475049725em" fill="#aaa"/><rect width="0.9615384615384616em" height="4.473652220947997em" x="62.5em" y="25.526347779052003em" fill="#aaa"/><rect width="0.9615384615384616em" height="5.43138366090416em" x="63.46153846153846em" y="24.56861633909584em" fill="#aaa"/><rect width="0.9615384615384616em" height="4.905947128387507em" x="64.42307692307692em" y="25.094052871612494em" fill="#aaa"/><rect width="0.9615384615384616em" height="2.406889706929897em" x="65.38461538461539em" y="27.593110293070104em" fill="#aaa"/><rect width="0.9615384615384616em" height="3.49664626352141em" x="66.34615384615385em" y="26.50335373647859em" fill="#aaa"/><rect width="0.9615384615384616em" height="2.700013244758117em" x="67.3076923076923em" y="27.299986755241882em" fill="#aaa"/><rect width="0.9615384615384616em" height="1.6347851538091585em" x="68.26923076923077em" y="28.36521484619084em" fill="#aaa"/><rect width="0.9615384615384616em" height="1.7896547077139486em" x="69.23076923076923em" y="28.21034529228605em" fill="#aaa"/><rect width="0.9615384615384616em" height="1.720437810060283em" x="70.1923076923077em" y="28.279562189939718em" fill="#aaa"/><rect width="0.9615384615384616em" height="2.672285350575244em" x="71.15384615384616em" y="27.327714649424756em" fill="#aaa"/><rect width="0.9615384615384616em" height="3.668151725965917em" x="72.11538461538461em" y="26.331848274034083em" fill="#aaa"/><rect width="0.9615384615384616em" height="3.143290097829216em" x="73.07692307692308em" y="26.856709902170785em" fill="#aaa"/><rect width="0.9615384615384616em" height="6.024239738220814em" x="74.03846153846155em" y="23.975760261779186em" fill="#aaa"/><rect width="0.9615384615384616em" height="4.769318084231291em" x="75em" y="25.23068191576871em" fill="#aaa"/><rect width="0.9615384615384616em" height="18.003638602868836em" x="75.96153846153847em" y="11.996361397131164em" fill="#aaa"/><rect width="0.9615384615384616em" height="9.595242873398263em" x="76.92307692307692em" y="20.404757126601737em" fill="#aaa"/><rect width="0.9615384615384616em" height="6.779089909435377em" x="77.88461538461539em" y="23.220910090564622em" fill="#aaa"/><rect width="0.9615384615384616em" height="9.326365072422194em" x="78.84615384615385em" y="20.673634927577808em" fill="#aaa"/><rect width="0.9615384615384616em" height="4.636366249134963em" x="79.8076923076923em" y="25.363633750865038em" fill="#aaa"/><rect width="0.9615384615384616em" height="5.61239678818631em" x="80.76923076923077em" y="24.38760321181369em" fill="#aaa"/><rect width="0.9615384615384616em" height="3.6027180335121147em" x="81.73076923076923em" y="26.397281966487885em" fill="#aaa"/><rect width="0.9615384615384616em" height="6.280847891788594em" x="82.6923076923077em" y="23.719152108211407em" fill="#aaa"/><rect width="0.9615384615384616em" height="2.149570111453701em" x="83.65384615384616em" y="27.850429888546298em" fill="#aaa"/><rect width="0.9615384615384616em" height="5.452900101738016em" x="84.61538461538461em" y="24.547099898261983em" fill="#aaa"/><rect width="0.9615384615384616em" height="2.6036349058387476em" x="85.57692307692308em" y="27.396365094161254em" fill="#aaa"/><rect width="0.9615384615384616em" height="3.5170656131775178em" x="86.53846153846155em" y="26.482934386822482em" fill="#aaa"/><rect width="0.9615384615384616em" height="5.023294414898646em" x="87.5em" y="24.976705585101353em" fill="#aaa"/><rect width="0.9615384615384616em" height="11.674508663458791em" x="88.46153846153847em" y="18.32549133654121em" fill="#aaa"/><rect width="0.9615384615384616em" height="3.422012186802296em" x="89.42307692307692em" y="26.577987813197705em" fill="#aaa"/><rect width="0.9615384615384616em" height="3.820803852111797em" x="90.38461538461539em" y="26.179196147888202em" fill="#aaa"/><rect width="0.9615384615384616em" height="4.900331994560595em" x="91.34615384615385em" y="25.099668005439405em" fill="#aaa"/><rect width="0.9615384615384616em" height="3.0649072980677787em" x="92.3076923076923em" y="26.93509270193222em" fill="#aaa"/><rect width="0.9615384615384616em" height="5.180906284163001em" x="93.26923076923077em" y="24.819093715837em" fill="#aaa"/><rect width="0.9615384615384616em" height="2.5860652899058465em" x="94.23076923076923em" y="27.413934710094154em" fill="#aaa"/><rect width="0.9615384615384616em" height="6.751237531860747em" x="95.1923076923077em" y="23.248762468139255em" fill="#aaa"/><rect width="0.9615384615384616em" height="7.224747781802201em" x="96.15384615384616em" y="22.7752522181978em" fill="#aaa"/><rect width="0.9615384615384616em" height="4.748156399757174em" x="97.11538461538461em" y="25.251843600242825em" fill="#aaa"/><rect width="0.9615384615384616em" height="5.6556593833828845em" x="98.07692307692308em" y="24.344340616617117em" fill="#aaa"/><rect width="0.9615384615384616em" height="4.7858083016215875em" x="99.03846153846155em" y="25.214191698378414em" fill="#aaa"/></svg>