<?xml version="1.0" standalone="no"?>
<svg xmlns:xlink="http://www.w3.org/1999/xlink" xmlns="http://www.w3.org/2000/svg" class="topic-graph" style="width: 100em; height: 30em; text-align: center;"><rect width="0.9615384615384616em" height="1.111851556672026em" x="0em" y="28.888148443327974em" fill="#aaa"/><rect width="0.9615384615384616em" height="1.6177449847337695em" x="0.9615384615384616em" y="28.38225501526623em" fill="#aaa"/><rect width="0.9615384615384616em" height="0.9793334011342082em" x="1.9230769230769231em" y="29.02066659886579em" fill="#aaa"/><rect width="0.9615384615384616em" height="1.9105546541151512em" x="2.8846153846153846em" y="28.089445345884847em" fill="#aaa"/><rect width="0.9615384615384616em" height="0.3173836555351022em" x="3.8461538461538463em" y="29.682616344464897em" fill="#aaa"/><rect width="0.9615384615384616em" height="0.3086683302883461em" x="4.8076923076923075em" y="29.691331669711655em" fill="#aaa"/><rect width="0.9615384615384616em" height="0.21943466486293767em" x="5.769230769230769em" y="29.780565335137062em" fill="#aaa"/><rect width="0.9615384615384616em" height="0.31408100366820474em" x="6.730769230769231em" y="29.685918996331797em" fill="#aaa"/><rect width="0.9615384615384616em" height="0.42503570461286566em" x="7.6923076923076925em" y="29.574964295387133em" fill="#aaa"/><rect width="0.9615384615384616em" height="2.7548440518561352em" x="8.653846153846153em" y="27.245155948143864em" fill="#aaa"/><rect width="0.9615384615384616em" height="8.768438234635438em" x="9.615384615384615em" y="21.23156176536456em" fill="#aaa"/><rect width="0.9615384615384616em" height="0.44836900238535377em" x="10.576923076923077em" y="29.551630997614645em" fill="#aaa"/><rect width="0.9615384615384616em" height="1.4041826506534942em" x="11.538461538461538em" y="28.595817349346504em" fill="#aaa"/><rect width="0.9615384615384616em" height="0.3740994652717075em" x="12.5em" y="29.62590053472829em" fill="#aaa"/><rect width="0.9615384615384616em" height="4.743584439803974em" x="13.461538461538462em" y="25.256415560196025em" fill="#aaa"/><rect width="0.9615384615384616em" height="3.1000098043092352em" x="14.423076923076923em" y="26.899990195690766em" fill="#aaa"/><rect width="0.9615384615384616em" height="1.8709269895129819em" x="15.384615384615385em" y="28.12907301048702em" fill="#aaa"/><rect width="0.9615384615384616em" height="1.6303032591496731em" x="16.346153846153847em" y="28.369696740850326em" fill="#aaa"/><rect width="0.9615384615384616em" height="2.8951596178380994em" x="17.307692307692307em" y="27.1048403821619em" fill="#aaa"/><rect width="0.9615384615384616em" height="2.5654552139941886em" x="18.26923076923077em" y="27.434544786005812em" fill="#aaa"/><rect width="0.9615384615384616em" height="5.4640202718012905em" x="19.23076923076923em" y="24.53597972819871em" fill="#aaa"/><rect width="0.9615384615384616em" height="0.6412524285517027em" x="20.192307692307693em" y="29.358747571448298em" fill="#aaa"/><rect width="0.9615384615384616em" height="10.429712230635536em" x="21.153846153846153em" y="19.570287769364462em" fill="#aaa"/><rect width="0.9615384615384616em" height="9.494783851105872em" x="22.115384615384617em" y="20.505216148894128em" fill="#aaa"/><rect width="0.9615384615384616em" height="16.484666116939007em" x="23.076923076923077em" y="13.515333883060993em" fill="#aaa"/><rect width="0.9615384615384616em" height="6.686786469281118em" x="24.03846153846154em" y="23.313213530718883em" fill="#aaa"/><rect width="0.9615384615384616em" height="4.777791822675902em" x="25em" y="25.2222081773241em" fill="#aaa"/><rect width="0.9615384615384616em" height="6.793405113175669em" x="25.961538461538463em" y="23.20659488682433em" fill="#aaa"/><rect width="0.9615384615384616em" height="14.167081958430186em" x="26.923076923076923em" y="15.832918041569814em" fill="#aaa"/><rect width="0.9615384615384616em" height="3.460846079408895em" x="27.884615384615387em" y="26.539153920591104em" fill="#aaa"/><rect width="0.9615384615384616em" height="30em" x="28.846153846153847em" y="0em" fill="#aaa"/><rect width="0.9615384615384616em" height="27.821562082614452em" x="29.80769230769231em" y="2.1784379173855477em" fill="#aaa"/><rect width="0.9615384615384616em" height="11.311663978976007em" x="30.76923076923077em" y="18.688336021023993em" fill="#aaa"/><rect width="0.9615384615384616em" height="5.690210983056913em" x="31.73076923076923em" y="24.309789016943085em" fill="#aaa"/><rect width="0.9615384615384616em" height="11.579146156504631em" x="32.69230769230769em" y="18.42085384349537em" fill="#aaa"/><rect width="0.9615384615384616em" height="13.221029929963743em" x="33.65384615384615em" y="16.77897007003626em" fill="#aaa"/><rect width="0.9615384615384616em" height="7.797975099783022em" x="34.61538461538461em" y="22.202024900216976em" fill="#aaa"/><rect width="0.9615384615384616em" height="3.0801339885020385em" x="35.57692307692308em" y="26.919866011497962em" fill="#aaa"/><rect width="0.9615384615384616em" height="2.2079008235339677em" x="36.53846153846154em" y="27.79209917646603em" fill="#aaa"/><rect width="0.9615384615384616em" height="1.155893266185519em" x="37.5em" y="28.84410673381448em" fill="#aaa"/><rect width="0.9615384615384616em" height="2.39843166657153em" x="38.46153846153846em" y="27.60156833342847em" fill="#aaa"/><rect width="0.9615384615384616em" height="2.975919189335375em" x="39.42307692307693em" y="27.024080810664625em" fill="#aaa"/><rect width="0.9615384615384616em" height="2.3174220453074703em" x="40.38461538461539em" y="27.68257795469253em" fill="#aaa"/><rect width="0.9615384615384616em" height="0.9883627963404594em" x="41.34615384615385em" y="29.01163720365954em" fill="#aaa"/><rect width="0.9615384615384616em" height="3.9764033018898em" x="42.30769230769231em" y="26.0235966981102em" fill="#aaa"/><rect width="0.9615384615384616em" height="1.2569587797451114em" x="43.269230769230774em" y="28.743041220254888em" fill="#aaa"/><rect width="0.9615384615384616em" height="1.1606506210378886em" x="44.23076923076923em" y="28.839349378962112em" fill="#aaa"/><rect width="0.9615384615384616em" height="2.7313524023099833em" x="45.19230769230769em" y="27.268647597690016em" fill="#aaa"/><rect width="0.9615384615384616em" height="3.0132572587953685em" x="46.15384615384615em" y="26.98674274120463em" fill="#aaa"/><rect width="0.9615384615384616em" height="1.7354149928967941em" x="47.11538461538461em" y="28.264585007103207em" fill="#aaa"/><rect width="0.9615384615384616em" height="1.2018269045727583em" x="48.07692307692308em" y="28.79817309542724em" fill="#aaa"/><rect width="0.9615384615384616em" height="3.088535556763979em" x="49.03846153846154em" y="26.91146444323602em" fill="#aaa"/><rect width="0.9615384615384616em" height="2.0419467116638432em" x="50em" y="27.958053288336156em" fill="#aaa"/><rect width="0.9615384615384616em" height="2.3411432756908637em" x="50.96153846153846em" y="27.658856724309135em" fill="#aaa"/><rect width="0.9615384615384616em" height="2.666825852671203em" x="51.92307692307693em" y="27.333174147328798em" fill="#aaa"/><rect width="0.9615384615384616em" height="1.368029521564542em" x="52.88461538461539em" y="28.63197047843546em" fill="#aaa"/><rect width="0.9615384615384616em" height="2.5295026000347565em" x="53.84615384615385em" y="27.470497399965243em" fill="#aaa"/><rect width="0.9615384615384616em" height="1.0106506644458944em" x="54.80769230769231em" y="28.989349335554106em" fill="#aaa"/><rect width="0.9615384615384616em" height="1.5545880450018674em" x="55.769230769230774em" y="28.445411954998132em" fill="#aaa"/><rect width="0.9615384615384616em" height="1.873485265771577em" x="56.73076923076923em" y="28.126514734228422em" fill="#aaa"/><rect width="0.9615384615384616em" height="1.5228068886425066em" x="57.69230769230769em" y="28.477193111357494em" fill="#aaa"/><rect width="0.9615384615384616em" height="1.7577197913064366em" x="58.65384615384615em" y="28.242280208693565em" fill="#aaa"/><rect width="0.9615384615384616em" height="0.9089366124319511em" x="59.61538461538462em" y="29.09106338756805em" fill="#aaa"/><rect width="0.9615384615384616em" height="0.906009817112986em" x="60.57692307692308em" y="29.093990182887016em" fill="#aaa"/><rect width="0.9615384615384616em" height="2.7335722910377567em" x="61.53846153846154em" y="27.266427708962244em" fill="#aaa"/><rect width="0.9615384615384616em" height="1.9039160469514809em" x="62.5em" y="28.09608395304852em" fill="#aaa"/><rect width="0.9615384615384616em" height="1.1324842580071397em" x="63.46153846153846em" y="28.86751574199286em" fill="#aaa"/><rect width="0.9615384615384616em" height="3.3174156916326125em" x="64.42307692307692em" y="26.68258430836739em" fill="#aaa"/><rect width="0.9615384615384616em" height="1.6233079662792174em" x="65.38461538461539em" y="28.376692033720783em" fill="#aaa"/><rect width="0.9615384615384616em" height="3.934829866951277em" x="66.34615384615385em" y="26.065170133048724em" fill="#aaa"/><rect width="0.9615384615384616em" height="2.469167661296546em" x="67.3076923076923em" y="27.530832338703455em" fill="#aaa"/><rect width="0.9615384615384616em" height="3.9374099825835684em" x="68.26923076923077em" y="26.062590017416433em" fill="#aaa"/><rect width="0.9615384615384616em" height="1.0392887824938535em" x="69.23076923076923em" y="28.960711217506148em" fill="#aaa"/><rect width="0.9615384615384616em" height="2.4538293398240647em" x="70.1923076923077em" y="27.546170660175935em" fill="#aaa"/><rect width="0.9615384615384616em" height="1.136667310602933em" x="71.15384615384616em" y="28.863332689397065em" fill="#aaa"/><rect width="0.9615384615384616em" height="1.780146394999278em" x="72.11538461538461em" y="28.219853605000722em" fill="#aaa"/><rect width="0.9615384615384616em" height="2.1720897922606452em" x="73.07692307692308em" y="27.827910207739354em" fill="#aaa"/><rect width="0.9615384615384616em" height="1.4299428064824478em" x="74.03846153846155em" y="28.570057193517552em" fill="#aaa"/><rect width="0.9615384615384616em" height="2.3270626724585672em" x="75em" y="27.672937327541433em" fill="#aaa"/><rect width="0.9615384615384616em" height="1.8684954758885879em" x="75.96153846153847em" y="28.131504524111413em" fill="#aaa"/><rect width="0.9615384615384616em" height="1.967862099415357em" x="76.92307692307692em" y="28.032137900584644em" fill="#aaa"/><rect width="0.9615384615384616em" height="1.522088849061577em" x="77.88461538461539em" y="28.47791115093842em" fill="#aaa"/><rect width="0.9615384615384616em" height="1.7185314351235499em" x="78.84615384615385em" y="28.28146856487645em" fill="#aaa"/><rect width="0.9615384615384616em" height="1.980972489991769em" x="79.8076923076923em" y="28.019027510008232em" fill="#aaa"/><rect width="0.9615384615384616em" height="1.8358079070928977em" x="80.76923076923077em" y="28.1641920929071em" fill="#aaa"/><rect width="0.9615384615384616em" height="1.1533937617891072em" x="81.73076923076923em" y="28.846606238210892em" fill="#aaa"/><rect width="0.9615384615384616em" height="1.430714980514006em" x="82.6923076923077em" y="28.569285019485996em" fill="#aaa"/><rect width="0.9615384615384616em" height="2.0810667874817343em" x="83.65384615384616em" y="27.918933212518265em" fill="#aaa"/><rect width="0.9615384615384616em" height="1.5082958169053973em" x="84.61538461538461em" y="28.4917041830946em" fill="#aaa"/><rect width="0.9615384615384616em" height="1.5331174092335447em" x="85.57692307692308em" y="28.466882590766456em" fill="#aaa"/><rect width="0.9615384615384616em" height="1.9351179220237882em" x="86.53846153846155em" y="28.06488207797621em" fill="#aaa"/><rect width="0.9615384615384616em" height="2.4183663212424946em" x="87.5em" y="27.581633678757505em" fill="#aaa"/><rect width="0.9615384615384616em" height="2.28915451170194em" x="88.46153846153847em" y="27.71084548829806em" fill="#aaa"/><rect width="0.9615384615384616em" height="1.6385202279076831em" x="89.42307692307692em" y="28.361479772092316em" fill="#aaa"/><rect width="0.9615384615384616em" height="2.190737165724752em" x="90.38461538461539em" y="27.80926283427525em" fill="#aaa"/><rect width="0.9615384615384616em" height="2.3954133219630473em" x="91.34615384615385em" y="27.604586678036952em" fill="#aaa"/><rect width="0.9615384615384616em" height="1.528328205335178em" x="92.3076923076923em" y="28.47167179466482em" fill="#aaa"/><rect width="0.9615384615384616em" height="1.6736396805560707em" x="93.26923076923077em" y="28.32636031944393em" fill="#aaa"/><rect width="0.9615384615384616em" height="1.6638134558718436em" x="94.23076923076923em" y="28.336186544128157em" fill="#aaa"/><rect width="0.9615384615384616em" height="1.8685113522792152em" x="95.1923076923077em" y="28.131488647720786em" fill="#aaa"/><rect width="0.9615384615384616em" height="0.9955235805075285em" x="96.15384615384616em" y="29.004476419492473em" fill="#aaa"/><rect width="0.9615384615384616em" height="1.6311224156653426em" x="97.11538461538461em" y="28.36887758433466em" fill="#aaa"/><rect width="0.9615384615384616em" height="1.958963683328305em" x="98.07692307692308em" y="28.041036316671693em" fill="#aaa"/><rect width="0.9615384615384616em" height="1.3161683696108801em" x="99.03846153846155em" y="28.68383163038912em" fill="#aaa"/></svg>