<?xml version="1.0" standalone="no"?>
<svg xmlns:xlink="http://www.w3.org/1999/xlink" xmlns="http://www.w3.org/2000/svg" class="topic-graph" style="width: 100em; height: 30em; text-align: center;"><rect width="0.9615384615384616em" height="8.279139938164848em" x="0em" y="21.720860061835154em" fill="#aaa"/><rect width="0.9615384615384616em" height="11.131415964533126em" x="0.9615384615384616em" y="18.868584035466874em" fill="#aaa"/><rect width="0.9615384615384616em" height="30em" x="1.9230769230769231em" y="0em" fill="#aaa"/><rect width="0.9615384615384616em" height="19.96873149797542em" x="2.8846153846153846em" y="10.03126850202458em" fill="#aaa"/><rect width="0.9615384615384616em" height="9.775591325685408em" x="3.8461538461538463em" y="20.224408674314592em" fill="#aaa"/><rect width="0.9615384615384616em" height="11.378576901665387em" x="4.8076923076923075em" y="18.621423098334613em" fill="#aaa"/><rect width="0.9615384615384616em" height="14.505816824865297em" x="5.769230769230769em" y="15.494183175134703em" fill="#aaa"/><rect width="0.9615384615384616em" height="9.871995996907566em" x="6.730769230769231em" y="20.128004003092435em" fill="#aaa"/><rect width="0.9615384615384616em" height="13.39931430242302em" x="7.6923076923076925em" y="16.600685697576978em" fill="#aaa"/><rect width="0.9615384615384616em" height="11.352773095115763em" x="8.653846153846153em" y="18.647226904884235em" fill="#aaa"/><rect width="0.9615384615384616em" height="14.552726254033281em" x="9.615384615384615em" y="15.447273745966719em" fill="#aaa"/><rect width="0.9615384615384616em" height="19.868513336539333em" x="10.576923076923077em" y="10.131486663460667em" fill="#aaa"/><rect width="0.9615384615384616em" height="24.871487775098885em" x="11.538461538461538em" y="5.128512224901115em" fill="#aaa"/><rect width="0.9615384615384616em" height="11.605258963727984em" x="12.5em" y="18.394741036272016em" fill="#aaa"/><rect width="0.9615384615384616em" height="21.049373386986193em" x="13.461538461538462em" y="8.950626613013807em" fill="#aaa"/><rect width="0.9615384615384616em" height="16.34251713542749em" x="14.423076923076923em" y="13.657482864572511em" fill="#aaa"/><rect width="0.9615384615384616em" height="24.718455184491294em" x="15.384615384615385em" y="5.281544815508706em" fill="#aaa"/><rect width="0.9615384615384616em" height="16.628550050432832em" x="16.346153846153847em" y="13.371449949567168em" fill="#aaa"/><rect width="0.9615384615384616em" height="11.139490661585405em" x="17.307692307692307em" y="18.860509338414595em" fill="#aaa"/><rect width="0.9615384615384616em" height="14.44025920358112em" x="18.26923076923077em" y="15.55974079641888em" fill="#aaa"/><rect width="0.9615384615384616em" height="10.60318684905217em" x="19.23076923076923em" y="19.39681315094783em" fill="#aaa"/><rect width="0.9615384615384616em" height="11.11570022070969em" x="20.192307692307693em" y="18.88429977929031em" fill="#aaa"/><rect width="0.9615384615384616em" height="16.542683988796696em" x="21.153846153846153em" y="13.457316011203304em" fill="#aaa"/><rect width="0.9615384615384616em" height="14.27322333159834em" x="22.115384615384617em" y="15.72677666840166em" fill="#aaa"/><rect width="0.9615384615384616em" height="16.734531222385723em" x="23.076923076923077em" y="13.265468777614277em" fill="#aaa"/><rect width="0.9615384615384616em" height="18.46998893446022em" x="24.03846153846154em" y="11.530011065539782em" fill="#aaa"/><rect width="0.9615384615384616em" height="14.027784383848656em" x="25em" y="15.972215616151344em" fill="#aaa"/><rect width="0.9615384615384616em" height="15.99104728902146em" x="25.961538461538463em" y="14.00895271097854em" fill="#aaa"/><rect width="0.9615384615384616em" height="16.673521682490993em" x="26.923076923076923em" y="13.326478317509007em" fill="#aaa"/><rect width="0.9615384615384616em" height="13.875603910087596em" x="27.884615384615387em" y="16.124396089912402em" fill="#aaa"/><rect width="0.9615384615384616em" height="16.879830326307207em" x="28.846153846153847em" y="13.120169673692793em" fill="#aaa"/><rect width="0.9615384615384616em" height="24.02933173627415em" x="29.80769230769231em" y="5.970668263725852em" fill="#aaa"/><rect width="0.9615384615384616em" height="16.329593562853823em" x="30.76923076923077em" y="13.670406437146177em" fill="#aaa"/><rect width="0.9615384615384616em" height="24.277225640893032em" x="31.73076923076923em" y="5.7227743591069675em" fill="#aaa"/><rect width="0.9615384615384616em" height="17.318044853378044em" x="32.69230769230769em" y="12.681955146621956em" fill="#aaa"/><rect width="0.9615384615384616em" height="25.535888555981533em" x="33.65384615384615em" y="4.464111444018467em" fill="#aaa"/><rect width="0.9615384615384616em" height="18.73750177739254em" x="34.61538461538461em" y="11.262498222607459em" fill="#aaa"/><rect width="0.9615384615384616em" height="18.702083961387764em" x="35.57692307692308em" y="11.297916038612236em" fill="#aaa"/><rect width="0.9615384615384616em" height="18.83883139509279em" x="36.53846153846154em" y="11.16116860490721em" fill="#aaa"/><rect width="0.9615384615384616em" height="24.03117032003879em" x="37.5em" y="5.96882967996121em" fill="#aaa"/><rect width="0.9615384615384616em" height="20.747273889543077em" x="38.46153846153846em" y="9.252726110456923em" fill="#aaa"/><rect width="0.9615384615384616em" height="20.452949490142718em" x="39.42307692307693em" y="9.547050509857282em" fill="#aaa"/><rect width="0.9615384615384616em" height="22.751906379371853em" x="40.38461538461539em" y="7.248093620628147em" fill="#aaa"/><rect width="0.9615384615384616em" height="13.357303804620107em" x="41.34615384615385em" y="16.64269619537989em" fill="#aaa"/><rect width="0.9615384615384616em" height="24.81912134899838em" x="42.30769230769231em" y="5.1808786510016205em" fill="#aaa"/><rect width="0.9615384615384616em" height="23.298663506330154em" x="43.269230769230774em" y="6.701336493669846em" fill="#aaa"/><rect width="0.9615384615384616em" height="19.486841693737638em" x="44.23076923076923em" y="10.513158306262362em" fill="#aaa"/><rect width="0.9615384615384616em" height="21.178906620902907em" x="45.19230769230769em" y="8.821093379097093em" fill="#aaa"/><rect width="0.9615384615384616em" height="25.099247736325136em" x="46.15384615384615em" y="4.900752263674864em" fill="#aaa"/><rect width="0.9615384615384616em" height="23.069790684811206em" x="47.11538461538461em" y="6.930209315188794em" fill="#aaa"/><rect width="0.9615384615384616em" height="21.162087855007453em" x="48.07692307692308em" y="8.837912144992547em" fill="#aaa"/><rect width="0.9615384615384616em" height="17.522518065879193em" x="49.03846153846154em" y="12.477481934120807em" fill="#aaa"/><rect width="0.9615384615384616em" height="23.622278925530097em" x="50em" y="6.377721074469903em" fill="#aaa"/><rect width="0.9615384615384616em" height="21.704657933808303em" x="50.96153846153846em" y="8.295342066191697em" fill="#aaa"/><rect width="0.9615384615384616em" height="19.412775941037655em" x="51.92307692307693em" y="10.587224058962345em" fill="#aaa"/><rect width="0.9615384615384616em" height="23.949539215443096em" x="52.88461538461539em" y="6.050460784556904em" fill="#aaa"/><rect width="0.9615384615384616em" height="21.050055987996757em" x="53.84615384615385em" y="8.949944012003243em" fill="#aaa"/><rect width="0.9615384615384616em" height="16.32494866444924em" x="54.80769230769231em" y="13.675051335550759em" fill="#aaa"/><rect width="0.9615384615384616em" height="22.86330347898007em" x="55.769230769230774em" y="7.136696521019928em" fill="#aaa"/><rect width="0.9615384615384616em" height="19.7197485167174em" x="56.73076923076923em" y="10.280251483282601em" fill="#aaa"/><rect width="0.9615384615384616em" height="25.51570830873756em" x="57.69230769230769em" y="4.484291691262442em" fill="#aaa"/><rect width="0.9615384615384616em" height="27.191953945501538em" x="58.65384615384615em" y="2.808046054498462em" fill="#aaa"/><rect width="0.9615384615384616em" height="20.983486239382987em" x="59.61538461538462em" y="9.016513760617013em" fill="#aaa"/><rect width="0.9615384615384616em" height="21.746519068058888em" x="60.57692307692308em" y="8.253480931941112em" fill="#aaa"/><rect width="0.9615384615384616em" height="19.983178653723424em" x="61.53846153846154em" y="10.016821346276576em" fill="#aaa"/><rect width="0.9615384615384616em" height="19.126064620043167em" x="62.5em" y="10.873935379956833em" fill="#aaa"/><rect width="0.9615384615384616em" height="18.6699566335509em" x="63.46153846153846em" y="11.3300433664491em" fill="#aaa"/><rect width="0.9615384615384616em" height="19.897235232370647em" x="64.42307692307692em" y="10.102764767629353em" fill="#aaa"/><rect width="0.9615384615384616em" height="18.099067020005645em" x="65.38461538461539em" y="11.900932979994355em" fill="#aaa"/><rect width="0.9615384615384616em" height="17.09170718723947em" x="66.34615384615385em" y="12.908292812760529em" fill="#aaa"/><rect width="0.9615384615384616em" height="15.44648705491385em" x="67.3076923076923em" y="14.55351294508615em" fill="#aaa"/><rect width="0.9615384615384616em" height="16.565500878721828em" x="68.26923076923077em" y="13.434499121278172em" fill="#aaa"/><rect width="0.9615384615384616em" height="13.664016460692112em" x="69.23076923076923em" y="16.33598353930789em" fill="#aaa"/><rect width="0.9615384615384616em" height="19.76562787542584em" x="70.1923076923077em" y="10.234372124574161em" fill="#aaa"/><rect width="0.9615384615384616em" height="14.88521223209155em" x="71.15384615384616em" y="15.11478776790845em" fill="#aaa"/><rect width="0.9615384615384616em" height="21.24657223211984em" x="72.11538461538461em" y="8.753427767880162em" fill="#aaa"/><rect width="0.9615384615384616em" height="15.90856558891799em" x="73.07692307692308em" y="14.09143441108201em" fill="#aaa"/><rect width="0.9615384615384616em" height="13.922900487524858em" x="74.03846153846155em" y="16.077099512475144em" fill="#aaa"/><rect width="0.9615384615384616em" height="15.272210789005694em" x="75em" y="14.727789210994306em" fill="#aaa"/><rect width="0.9615384615384616em" height="16.96082261125757em" x="75.96153846153847em" y="13.03917738874243em" fill="#aaa"/><rect width="0.9615384615384616em" height="14.982114789118729em" x="76.92307692307692em" y="15.017885210881271em" fill="#aaa"/><rect width="0.9615384615384616em" height="11.120404311880609em" x="77.88461538461539em" y="18.87959568811939em" fill="#aaa"/><rect width="0.9615384615384616em" height="10.590780686065294em" x="78.84615384615385em" y="19.409219313934706em" fill="#aaa"/><rect width="0.9615384615384616em" height="10.89609922676241em" x="79.8076923076923em" y="19.10390077323759em" fill="#aaa"/><rect width="0.9615384615384616em" height="10.6403447638138em" x="80.76923076923077em" y="19.3596552361862em" fill="#aaa"/><rect width="0.9615384615384616em" height="13.123118462386598em" x="81.73076923076923em" y="16.8768815376134em" fill="#aaa"/><rect width="0.9615384615384616em" height="13.107553096419542em" x="82.6923076923077em" y="16.892446903580456em" fill="#aaa"/><rect width="0.9615384615384616em" height="12.546752543057499em" x="83.65384615384616em" y="17.4532474569425em" fill="#aaa"/><rect width="0.9615384615384616em" height="12.9032947927797em" x="84.61538461538461em" y="17.0967052072203em" fill="#aaa"/><rect width="0.9615384615384616em" height="12.118149809499709em" x="85.57692307692308em" y="17.88185019050029em" fill="#aaa"/><rect width="0.9615384615384616em" height="13.261530906453267em" x="86.53846153846155em" y="16.738469093546733em" fill="#aaa"/><rect width="0.9615384615384616em" height="11.824393485809786em" x="87.5em" y="18.175606514190214em" fill="#aaa"/><rect width="0.9615384615384616em" height="12.063533651845633em" x="88.46153846153847em" y="17.93646634815437em" fill="#aaa"/><rect width="0.9615384615384616em" height="11.672304775672417em" x="89.42307692307692em" y="18.327695224327584em" fill="#aaa"/><rect width="0.9615384615384616em" height="11.756799867396262em" x="90.38461538461539em" y="18.24320013260374em" fill="#aaa"/><rect width="0.9615384615384616em" height="10.011071410254097em" x="91.34615384615385em" y="19.988928589745903em" fill="#aaa"/><rect width="0.9615384615384616em" height="11.081721690859128em" x="92.3076923076923em" y="18.918278309140874em" fill="#aaa"/><rect width="0.9615384615384616em" height="11.74579855631454em" x="93.26923076923077em" y="18.25420144368546em" fill="#aaa"/><rect width="0.9615384615384616em" height="12.000932207349278em" x="94.23076923076923em" y="17.99906779265072em" fill="#aaa"/><rect width="0.9615384615384616em" height="11.922015529575491em" x="95.1923076923077em" y="18.07798447042451em" fill="#aaa"/><rect width="0.9615384615384616em" height="10.915638918436109em" x="96.15384615384616em" y="19.08436108156389em" fill="#aaa"/><rect width="0.9615384615384616em" height="11.291789943863412em" x="97.11538461538461em" y="18.708210056136586em" fill="#aaa"/><rect width="0.9615384615384616em" height="12.49068205096769em" x="98.07692307692308em" y="17.509317949032308em" fill="#aaa"/><rect width="0.9615384615384616em" height="11.290996546376125em" x="99.03846153846155em" y="18.709003453623875em" fill="#aaa"/></svg>