<?xml version="1.0" standalone="no"?>
<svg xmlns:xlink="http://www.w3.org/1999/xlink" xmlns="http://www.w3.org/2000/svg" class="topic-graph" style="width: 100em; height: 30em; text-align: center;"><rect width="0.9615384615384616em" height="14.384867067004611em" x="0em" y="15.615132932995389em" fill="#aaa"/><rect width="0.9615384615384616em" height="5.968571838658568em" x="0.9615384615384616em" y="24.03142816134143em" fill="#aaa"/><rect width="0.9615384615384616em" height="18.352693537924992em" x="1.9230769230769231em" y="11.647306462075008em" fill="#aaa"/><rect width="0.9615384615384616em" height="27.106358577120787em" x="2.8846153846153846em" y="2.893641422879213em" fill="#aaa"/><rect width="0.9615384615384616em" height="25.463389637550435em" x="3.8461538461538463em" y="4.536610362449565em" fill="#aaa"/><rect width="0.9615384615384616em" height="23.91251466854532em" x="4.8076923076923075em" y="6.08748533145468em" fill="#aaa"/><rect width="0.9615384615384616em" height="18.85958668300268em" x="5.769230769230769em" y="11.140413316997321em" fill="#aaa"/><rect width="0.9615384615384616em" height="27.039185970799345em" x="6.730769230769231em" y="2.9608140292006553em" fill="#aaa"/><rect width="0.9615384615384616em" height="20.567279082031607em" x="7.6923076923076925em" y="9.432720917968393em" fill="#aaa"/><rect width="0.9615384615384616em" height="27.234700265591677em" x="8.653846153846153em" y="2.765299734408323em" fill="#aaa"/><rect width="0.9615384615384616em" height="22.972364480515395em" x="9.615384615384615em" y="7.027635519484605em" fill="#aaa"/><rect width="0.9615384615384616em" height="18.185462154840142em" x="10.576923076923077em" y="11.814537845159858em" fill="#aaa"/><rect width="0.9615384615384616em" height="12.968934720538542em" x="11.538461538461538em" y="17.03106527946146em" fill="#aaa"/><rect width="0.9615384615384616em" height="25.373954320065366em" x="12.5em" y="4.626045679934634em" fill="#aaa"/><rect width="0.9615384615384616em" height="10.96325369032452em" x="13.461538461538462em" y="19.03674630967548em" fill="#aaa"/><rect width="0.9615384615384616em" height="20.29924478321745em" x="14.423076923076923em" y="9.70075521678255em" fill="#aaa"/><rect width="0.9615384615384616em" height="17.063915755853387em" x="15.384615384615385em" y="12.936084244146613em" fill="#aaa"/><rect width="0.9615384615384616em" height="24.44421952349133em" x="16.346153846153847em" y="5.555780476508669em" fill="#aaa"/><rect width="0.9615384615384616em" height="30em" x="17.307692307692307em" y="0em" fill="#aaa"/><rect width="0.9615384615384616em" height="21.005878406102518em" x="18.26923076923077em" y="8.994121593897482em" fill="#aaa"/><rect width="0.9615384615384616em" height="18.36458516622706em" x="19.23076923076923em" y="11.635414833772941em" fill="#aaa"/><rect width="0.9615384615384616em" height="26.376369473797737em" x="20.192307692307693em" y="3.6236305262022626em" fill="#aaa"/><rect width="0.9615384615384616em" height="18.057376980919685em" x="21.153846153846153em" y="11.942623019080315em" fill="#aaa"/><rect width="0.9615384615384616em" height="25.321697294114347em" x="22.115384615384617em" y="4.678302705885653em" fill="#aaa"/><rect width="0.9615384615384616em" height="23.02064209905121em" x="23.076923076923077em" y="6.979357900948791em" fill="#aaa"/><rect width="0.9615384615384616em" height="10.000263708820603em" x="24.03846153846154em" y="19.999736291179396em" fill="#aaa"/><rect width="0.9615384615384616em" height="13.547120073832495em" x="25em" y="16.452879926167505em" fill="#aaa"/><rect width="0.9615384615384616em" height="13.367236265912686em" x="25.961538461538463em" y="16.632763734087312em" fill="#aaa"/><rect width="0.9615384615384616em" height="13.053036384618753em" x="26.923076923076923em" y="16.946963615381247em" fill="#aaa"/><rect width="0.9615384615384616em" height="17.580401599986192em" x="27.884615384615387em" y="12.419598400013808em" fill="#aaa"/><rect width="0.9615384615384616em" height="11.21461848026487em" x="28.846153846153847em" y="18.785381519735132em" fill="#aaa"/><rect width="0.9615384615384616em" height="9.894381957260324em" x="29.80769230769231em" y="20.10561804273968em" fill="#aaa"/><rect width="0.9615384615384616em" height="12.249890168031124em" x="30.76923076923077em" y="17.750109831968878em" fill="#aaa"/><rect width="0.9615384615384616em" height="10.32436483270222em" x="31.73076923076923em" y="19.67563516729778em" fill="#aaa"/><rect width="0.9615384615384616em" height="11.587332142757115em" x="32.69230769230769em" y="18.412667857242887em" fill="#aaa"/><rect width="0.9615384615384616em" height="8.834075718246462em" x="33.65384615384615em" y="21.16592428175354em" fill="#aaa"/><rect width="0.9615384615384616em" height="8.612429630988164em" x="34.61538461538461em" y="21.387570369011836em" fill="#aaa"/><rect width="0.9615384615384616em" height="7.761176900948818em" x="35.57692307692308em" y="22.23882309905118em" fill="#aaa"/><rect width="0.9615384615384616em" height="11.138303898340721em" x="36.53846153846154em" y="18.861696101659277em" fill="#aaa"/><rect width="0.9615384615384616em" height="11.64020971431402em" x="37.5em" y="18.359790285685982em" fill="#aaa"/><rect width="0.9615384615384616em" height="9.739797935234689em" x="38.46153846153846em" y="20.26020206476531em" fill="#aaa"/><rect width="0.9615384615384616em" height="12.260000750026087em" x="39.42307692307693em" y="17.739999249973913em" fill="#aaa"/><rect width="0.9615384615384616em" height="8.339655616777966em" x="40.38461538461539em" y="21.660344383222032em" fill="#aaa"/><rect width="0.9615384615384616em" height="13.303758223911323em" x="41.34615384615385em" y="16.696241776088677em" fill="#aaa"/><rect width="0.9615384615384616em" height="10.23326559236021em" x="42.30769230769231em" y="19.766734407639788em" fill="#aaa"/><rect width="0.9615384615384616em" height="8.741077823739497em" x="43.269230769230774em" y="21.258922176260505em" fill="#aaa"/><rect width="0.9615384615384616em" height="9.424347197242804em" x="44.23076923076923em" y="20.575652802757197em" fill="#aaa"/><rect width="0.9615384615384616em" height="10.401052438603912em" x="45.19230769230769em" y="19.598947561396088em" fill="#aaa"/><rect width="0.9615384615384616em" height="8.769084093271694em" x="46.15384615384615em" y="21.230915906728306em" fill="#aaa"/><rect width="0.9615384615384616em" height="9.046219261936482em" x="47.11538461538461em" y="20.953780738063518em" fill="#aaa"/><rect width="0.9615384615384616em" height="8.485046786995838em" x="48.07692307692308em" y="21.514953213004162em" fill="#aaa"/><rect width="0.9615384615384616em" height="8.195863835986446em" x="49.03846153846154em" y="21.804136164013556em" fill="#aaa"/><rect width="0.9615384615384616em" height="6.6294819432692975em" x="50em" y="23.370518056730702em" fill="#aaa"/><rect width="0.9615384615384616em" height="8.491646467091956em" x="50.96153846153846em" y="21.508353532908046em" fill="#aaa"/><rect width="0.9615384615384616em" height="7.022904248666094em" x="51.92307692307693em" y="22.977095751333906em" fill="#aaa"/><rect width="0.9615384615384616em" height="9.489441789602601em" x="52.88461538461539em" y="20.5105582103974em" fill="#aaa"/><rect width="0.9615384615384616em" height="8.169162421440637em" x="53.84615384615385em" y="21.83083757855936em" fill="#aaa"/><rect width="0.9615384615384616em" height="7.561835628236361em" x="54.80769230769231em" y="22.43816437176364em" fill="#aaa"/><rect width="0.9615384615384616em" height="8.80179954836203em" x="55.769230769230774em" y="21.19820045163797em" fill="#aaa"/><rect width="0.9615384615384616em" height="8.399922403777897em" x="56.73076923076923em" y="21.600077596222103em" fill="#aaa"/><rect width="0.9615384615384616em" height="7.285645185116645em" x="57.69230769230769em" y="22.714354814883354em" fill="#aaa"/><rect width="0.9615384615384616em" height="8.942073453611458em" x="58.65384615384615em" y="21.057926546388543em" fill="#aaa"/><rect width="0.9615384615384616em" height="7.876624097393806em" x="59.61538461538462em" y="22.123375902606192em" fill="#aaa"/><rect width="0.9615384615384616em" height="7.981221792436654em" x="60.57692307692308em" y="22.018778207563347em" fill="#aaa"/><rect width="0.9615384615384616em" height="8.98649788629198em" x="61.53846153846154em" y="21.01350211370802em" fill="#aaa"/><rect width="0.9615384615384616em" height="7.7908338041687895em" x="62.5em" y="22.20916619583121em" fill="#aaa"/><rect width="0.9615384615384616em" height="7.572310593431516em" x="63.46153846153846em" y="22.427689406568483em" fill="#aaa"/><rect width="0.9615384615384616em" height="6.276829009711669em" x="64.42307692307692em" y="23.72317099028833em" fill="#aaa"/><rect width="0.9615384615384616em" height="7.634183440761545em" x="65.38461538461539em" y="22.365816559238453em" fill="#aaa"/><rect width="0.9615384615384616em" height="7.355106552720082em" x="66.34615384615385em" y="22.64489344727992em" fill="#aaa"/><rect width="0.9615384615384616em" height="5.631372405697427em" x="67.3076923076923em" y="24.368627594302573em" fill="#aaa"/><rect width="0.9615384615384616em" height="6.205153029784742em" x="68.26923076923077em" y="23.794846970215257em" fill="#aaa"/><rect width="0.9615384615384616em" height="5.4037770095717em" x="69.23076923076923em" y="24.596222990428302em" fill="#aaa"/><rect width="0.9615384615384616em" height="5.768220993908727em" x="70.1923076923077em" y="24.231779006091273em" fill="#aaa"/><rect width="0.9615384615384616em" height="5.21791003689328em" x="71.15384615384616em" y="24.78208996310672em" fill="#aaa"/><rect width="0.9615384615384616em" height="4.457275611293545em" x="72.11538461538461em" y="25.542724388706453em" fill="#aaa"/><rect width="0.9615384615384616em" height="3.8410982055828082em" x="73.07692307692308em" y="26.15890179441719em" fill="#aaa"/><rect width="0.9615384615384616em" height="3.554577900225336em" x="74.03846153846155em" y="26.445422099774664em" fill="#aaa"/><rect width="0.9615384615384616em" height="3.4935389893478646em" x="75em" y="26.506461010652135em" fill="#aaa"/><rect width="0.9615384615384616em" height="3.6331231677131193em" x="75.96153846153847em" y="26.36687683228688em" fill="#aaa"/><rect width="0.9615384615384616em" height="3.8066865169685853em" x="76.92307692307692em" y="26.193313483031414em" fill="#aaa"/><rect width="0.9615384615384616em" height="3.0316750868976308em" x="77.88461538461539em" y="26.968324913102368em" fill="#aaa"/><rect width="0.9615384615384616em" height="2.6542160145501383em" x="78.84615384615385em" y="27.345783985449863em" fill="#aaa"/><rect width="0.9615384615384616em" height="2.861224893621673em" x="79.8076923076923em" y="27.138775106378326em" fill="#aaa"/><rect width="0.9615384615384616em" height="2.9764620854700703em" x="80.76923076923077em" y="27.02353791452993em" fill="#aaa"/><rect width="0.9615384615384616em" height="3.4069292314562354em" x="81.73076923076923em" y="26.593070768543765em" fill="#aaa"/><rect width="0.9615384615384616em" height="4.046878905034302em" x="82.6923076923077em" y="25.9531210949657em" fill="#aaa"/><rect width="0.9615384615384616em" height="2.288576954546552em" x="83.65384615384616em" y="27.711423045453447em" fill="#aaa"/><rect width="0.9615384615384616em" height="3.3721265572130936em" x="84.61538461538461em" y="26.627873442786907em" fill="#aaa"/><rect width="0.9615384615384616em" height="2.132837174341738em" x="85.57692307692308em" y="27.867162825658262em" fill="#aaa"/><rect width="0.9615384615384616em" height="2.704474377947366em" x="86.53846153846155em" y="27.295525622052633em" fill="#aaa"/><rect width="0.9615384615384616em" height="2.486378929888431em" x="87.5em" y="27.51362107011157em" fill="#aaa"/><rect width="0.9615384615384616em" height="2.772967005181074em" x="88.46153846153847em" y="27.227032994818927em" fill="#aaa"/><rect width="0.9615384615384616em" height="2.639090354177449em" x="89.42307692307692em" y="27.360909645822552em" fill="#aaa"/><rect width="0.9615384615384616em" height="2.3600553332042495em" x="90.38461538461539em" y="27.63994466679575em" fill="#aaa"/><rect width="0.9615384615384616em" height="2.5998771803790826em" x="91.34615384615385em" y="27.40012281962092em" fill="#aaa"/><rect width="0.9615384615384616em" height="2.7524327403388718em" x="92.3076923076923em" y="27.24756725966113em" fill="#aaa"/><rect width="0.9615384615384616em" height="2.5959430487130772em" x="93.26923076923077em" y="27.404056951286922em" fill="#aaa"/><rect width="0.9615384615384616em" height="3.0082591810504025em" x="94.23076923076923em" y="26.991740818949598em" fill="#aaa"/><rect width="0.9615384615384616em" height="2.7795125659593793em" x="95.1923076923077em" y="27.22048743404062em" fill="#aaa"/><rect width="0.9615384615384616em" height="2.722857831053751em" x="96.15384615384616em" y="27.27714216894625em" fill="#aaa"/><rect width="0.9615384615384616em" height="3.038571618685108em" x="97.11538461538461em" y="26.961428381314892em" fill="#aaa"/><rect width="0.9615384615384616em" height="2.9406527596495073em" x="98.07692307692308em" y="27.059347240350494em" fill="#aaa"/><rect width="0.9615384615384616em" height="2.721983418788271em" x="99.03846153846155em" y="27.27801658121173em" fill="#aaa"/></svg>