<?xml version="1.0" standalone="no"?>
<svg xmlns:xlink="http://www.w3.org/1999/xlink" xmlns="http://www.w3.org/2000/svg" class="topic-graph" style="width: 100em; height: 30em; text-align: center;"><rect width="0.9615384615384616em" height="0.09730432039930167em" x="0em" y="29.902695679600697em" fill="#aaa"/><rect width="0.9615384615384616em" height="0.5081379104576509em" x="0.9615384615384616em" y="29.491862089542348em" fill="#aaa"/><rect width="0.9615384615384616em" height="5.542656501534608em" x="1.9230769230769231em" y="24.45734349846539em" fill="#aaa"/><rect width="0.9615384615384616em" height="3.6746817280942556em" x="2.8846153846153846em" y="26.325318271905743em" fill="#aaa"/><rect width="0.9615384615384616em" height="5.049263962329334em" x="3.8461538461538463em" y="24.950736037670666em" fill="#aaa"/><rect width="0.9615384615384616em" height="7.484492160993845em" x="4.8076923076923075em" y="22.515507839006155em" fill="#aaa"/><rect width="0.9615384615384616em" height="4.275708870859729em" x="5.769230769230769em" y="25.72429112914027em" fill="#aaa"/><rect width="0.9615384615384616em" height="13.294909087644832em" x="6.730769230769231em" y="16.705090912355168em" fill="#aaa"/><rect width="0.9615384615384616em" height="9.726290120232703em" x="7.6923076923076925em" y="20.273709879767296em" fill="#aaa"/><rect width="0.9615384615384616em" height="13.979340155456264em" x="8.653846153846153em" y="16.020659844543736em" fill="#aaa"/><rect width="0.9615384615384616em" height="13.119979621223864em" x="9.615384615384615em" y="16.880020378776138em" fill="#aaa"/><rect width="0.9615384615384616em" height="10.297319515877179em" x="10.576923076923077em" y="19.702680484122823em" fill="#aaa"/><rect width="0.9615384615384616em" height="6.6257337907283285em" x="11.538461538461538em" y="23.37426620927167em" fill="#aaa"/><rect width="0.9615384615384616em" height="18.749711299050965em" x="12.5em" y="11.250288700949035em" fill="#aaa"/><rect width="0.9615384615384616em" height="30em" x="13.461538461538462em" y="0em" fill="#aaa"/><rect width="0.9615384615384616em" height="20.619575582969077em" x="14.423076923076923em" y="9.380424417030923em" fill="#aaa"/><rect width="0.9615384615384616em" height="13.582436178242089em" x="15.384615384615385em" y="16.41756382175791em" fill="#aaa"/><rect width="0.9615384615384616em" height="9.260788213097566em" x="16.346153846153847em" y="20.739211786902434em" fill="#aaa"/><rect width="0.9615384615384616em" height="9.272683700443686em" x="17.307692307692307em" y="20.727316299556314em" fill="#aaa"/><rect width="0.9615384615384616em" height="13.005423396354892em" x="18.26923076923077em" y="16.994576603645108em" fill="#aaa"/><rect width="0.9615384615384616em" height="18.762991386111942em" x="19.23076923076923em" y="11.237008613888058em" fill="#aaa"/><rect width="0.9615384615384616em" height="10.781923209352414em" x="20.192307692307693em" y="19.218076790647586em" fill="#aaa"/><rect width="0.9615384615384616em" height="20.120230287868882em" x="21.153846153846153em" y="9.879769712131118em" fill="#aaa"/><rect width="0.9615384615384616em" height="15.31429867317733em" x="22.115384615384617em" y="14.68570132682267em" fill="#aaa"/><rect width="0.9615384615384616em" height="9.98359690286939em" x="23.076923076923077em" y="20.01640309713061em" fill="#aaa"/><rect width="0.9615384615384616em" height="21.09938812461184em" x="24.03846153846154em" y="8.900611875388162em" fill="#aaa"/><rect width="0.9615384615384616em" height="15.461170168921996em" x="25em" y="14.538829831078004em" fill="#aaa"/><rect width="0.9615384615384616em" height="13.22058013531051em" x="25.961538461538463em" y="16.77941986468949em" fill="#aaa"/><rect width="0.9615384615384616em" height="15.684657148525357em" x="26.923076923076923em" y="14.315342851474643em" fill="#aaa"/><rect width="0.9615384615384616em" height="8.635824339367916em" x="27.884615384615387em" y="21.364175660632085em" fill="#aaa"/><rect width="0.9615384615384616em" height="8.95799062964465em" x="28.846153846153847em" y="21.042009370355352em" fill="#aaa"/><rect width="0.9615384615384616em" height="10.070860714512394em" x="29.80769230769231em" y="19.929139285487608em" fill="#aaa"/><rect width="0.9615384615384616em" height="7.224923897798545em" x="30.76923076923077em" y="22.775076102201453em" fill="#aaa"/><rect width="0.9615384615384616em" height="4.306116989071393em" x="31.73076923076923em" y="25.69388301092861em" fill="#aaa"/><rect width="0.9615384615384616em" height="4.846223444004952em" x="32.69230769230769em" y="25.153776555995048em" fill="#aaa"/><rect width="0.9615384615384616em" height="6.318569313924727em" x="33.65384615384615em" y="23.681430686075274em" fill="#aaa"/><rect width="0.9615384615384616em" height="4.205447414769882em" x="34.61538461538461em" y="25.794552585230118em" fill="#aaa"/><rect width="0.9615384615384616em" height="4.610894198123423em" x="35.57692307692308em" y="25.38910580187658em" fill="#aaa"/><rect width="0.9615384615384616em" height="2.241169475929289em" x="36.53846153846154em" y="27.75883052407071em" fill="#aaa"/><rect width="0.9615384615384616em" height="1.7641417758435534em" x="37.5em" y="28.235858224156445em" fill="#aaa"/><rect width="0.9615384615384616em" height="4.333892283536674em" x="38.46153846153846em" y="25.666107716463326em" fill="#aaa"/><rect width="0.9615384615384616em" height="3.2349142174493672em" x="39.42307692307693em" y="26.76508578255063em" fill="#aaa"/><rect width="0.9615384615384616em" height="2.173113410290832em" x="40.38461538461539em" y="27.82688658970917em" fill="#aaa"/><rect width="0.9615384615384616em" height="2.1422860735622504em" x="41.34615384615385em" y="27.85771392643775em" fill="#aaa"/><rect width="0.9615384615384616em" height="1.908274213918927em" x="42.30769230769231em" y="28.091725786081074em" fill="#aaa"/><rect width="0.9615384615384616em" height="2.0984625232626426em" x="43.269230769230774em" y="27.901537476737357em" fill="#aaa"/><rect width="0.9615384615384616em" height="2.4233959289912397em" x="44.23076923076923em" y="27.57660407100876em" fill="#aaa"/><rect width="0.9615384615384616em" height="2.396003801862877em" x="45.19230769230769em" y="27.603996198137125em" fill="#aaa"/><rect width="0.9615384615384616em" height="1.9834843108774665em" x="46.15384615384615em" y="28.016515689122535em" fill="#aaa"/><rect width="0.9615384615384616em" height="1.7636714501432416em" x="47.11538461538461em" y="28.236328549856758em" fill="#aaa"/><rect width="0.9615384615384616em" height="1.1227687264594155em" x="48.07692307692308em" y="28.877231273540584em" fill="#aaa"/><rect width="0.9615384615384616em" height="1.3201738306968063em" x="49.03846153846154em" y="28.679826169303194em" fill="#aaa"/><rect width="0.9615384615384616em" height="1.89149811359197em" x="50em" y="28.10850188640803em" fill="#aaa"/><rect width="0.9615384615384616em" height="1.5670177091910096em" x="50.96153846153846em" y="28.43298229080899em" fill="#aaa"/><rect width="0.9615384615384616em" height="2.2187365374530112em" x="51.92307692307693em" y="27.78126346254699em" fill="#aaa"/><rect width="0.9615384615384616em" height="1.3625445736821775em" x="52.88461538461539em" y="28.63745542631782em" fill="#aaa"/><rect width="0.9615384615384616em" height="1.3748773485449852em" x="53.84615384615385em" y="28.625122651455015em" fill="#aaa"/><rect width="0.9615384615384616em" height="1.558710158945045em" x="54.80769230769231em" y="28.441289841054957em" fill="#aaa"/><rect width="0.9615384615384616em" height="1.0182844054722489em" x="55.769230769230774em" y="28.981715594527753em" fill="#aaa"/><rect width="0.9615384615384616em" height="1.2556425788178445em" x="56.73076923076923em" y="28.744357421182155em" fill="#aaa"/><rect width="0.9615384615384616em" height="1.3995244287047408em" x="57.69230769230769em" y="28.60047557129526em" fill="#aaa"/><rect width="0.9615384615384616em" height="1.662164561363186em" x="58.65384615384615em" y="28.337835438636816em" fill="#aaa"/><rect width="0.9615384615384616em" height="1.0351233900320238em" x="59.61538461538462em" y="28.964876609967977em" fill="#aaa"/><rect width="0.9615384615384616em" height="0.6907688369469369em" x="60.57692307692308em" y="29.309231163053063em" fill="#aaa"/><rect width="0.9615384615384616em" height="0.9851290535325529em" x="61.53846153846154em" y="29.014870946467447em" fill="#aaa"/><rect width="0.9615384615384616em" height="0.5478761932380856em" x="62.5em" y="29.452123806761914em" fill="#aaa"/><rect width="0.9615384615384616em" height="0.7131989924633407em" x="63.46153846153846em" y="29.28680100753666em" fill="#aaa"/><rect width="0.9615384615384616em" height="0.2629040904234987em" x="64.42307692307692em" y="29.737095909576503em" fill="#aaa"/><rect width="0.9615384615384616em" height="0.3468085659446104em" x="65.38461538461539em" y="29.65319143405539em" fill="#aaa"/><rect width="0.9615384615384616em" height="0.4317223392066723em" x="66.34615384615385em" y="29.568277660793328em" fill="#aaa"/><rect width="0.9615384615384616em" height="0.6153384576072424em" x="67.3076923076923em" y="29.384661542392756em" fill="#aaa"/><rect width="0.9615384615384616em" height="0.6938304378326307em" x="68.26923076923077em" y="29.30616956216737em" fill="#aaa"/><rect width="0.9615384615384616em" height="0.3358888643468054em" x="69.23076923076923em" y="29.664111135653194em" fill="#aaa"/><rect width="0.9615384615384616em" height="0.5855124867889516em" x="70.1923076923077em" y="29.41448751321105em" fill="#aaa"/><rect width="0.9615384615384616em" height="0.40676653103345023em" x="71.15384615384616em" y="29.59323346896655em" fill="#aaa"/><rect width="0.9615384615384616em" height="0.5924588311152857em" x="72.11538461538461em" y="29.407541168884713em" fill="#aaa"/><rect width="0.9615384615384616em" height="0.6548918274731872em" x="73.07692307692308em" y="29.345108172526814em" fill="#aaa"/><rect width="0.9615384615384616em" height="0.5140512761485334em" x="74.03846153846155em" y="29.485948723851468em" fill="#aaa"/><rect width="0.9615384615384616em" height="0.5143568718249985em" x="75em" y="29.485643128175003em" fill="#aaa"/><rect width="0.9615384615384616em" height="0.5182024442827521em" x="75.96153846153847em" y="29.481797555717247em" fill="#aaa"/><rect width="0.9615384615384616em" height="0.4169365629204187em" x="76.92307692307692em" y="29.58306343707958em" fill="#aaa"/><rect width="0.9615384615384616em" height="0.4777906944733126em" x="77.88461538461539em" y="29.522209305526687em" fill="#aaa"/><rect width="0.9615384615384616em" height="0.45520148707930835em" x="78.84615384615385em" y="29.544798512920693em" fill="#aaa"/><rect width="0.9615384615384616em" height="0.3404755566678198em" x="79.8076923076923em" y="29.65952444333218em" fill="#aaa"/><rect width="0.9615384615384616em" height="0.4458630404330669em" x="80.76923076923077em" y="29.554136959566932em" fill="#aaa"/><rect width="0.9615384615384616em" height="0.47178315326728065em" x="81.73076923076923em" y="29.528216846732718em" fill="#aaa"/><rect width="0.9615384615384616em" height="0.6586883909035838em" x="82.6923076923077em" y="29.341311609096415em" fill="#aaa"/><rect width="0.9615384615384616em" height="0.6298779009876962em" x="83.65384615384616em" y="29.370122099012303em" fill="#aaa"/><rect width="0.9615384615384616em" height="0.6572918912222075em" x="84.61538461538461em" y="29.342708108777792em" fill="#aaa"/><rect width="0.9615384615384616em" height="0.6138454422320926em" x="85.57692307692308em" y="29.386154557767906em" fill="#aaa"/><rect width="0.9615384615384616em" height="0.5760959951624992em" x="86.53846153846155em" y="29.4239040048375em" fill="#aaa"/><rect width="0.9615384615384616em" height="0.6097305400832107em" x="87.5em" y="29.39026945991679em" fill="#aaa"/><rect width="0.9615384615384616em" height="0.5243507838268808em" x="88.46153846153847em" y="29.475649216173117em" fill="#aaa"/><rect width="0.9615384615384616em" height="0.555409259253626em" x="89.42307692307692em" y="29.444590740746374em" fill="#aaa"/><rect width="0.9615384615384616em" height="0.6305307271806917em" x="90.38461538461539em" y="29.36946927281931em" fill="#aaa"/><rect width="0.9615384615384616em" height="0.46962580908102364em" x="91.34615384615385em" y="29.530374190918977em" fill="#aaa"/><rect width="0.9615384615384616em" height="0.5107022003235477em" x="92.3076923076923em" y="29.489297799676454em" fill="#aaa"/><rect width="0.9615384615384616em" height="0.5409849022248301em" x="93.26923076923077em" y="29.45901509777517em" fill="#aaa"/><rect width="0.9615384615384616em" height="0.4121342869302598em" x="94.23076923076923em" y="29.58786571306974em" fill="#aaa"/><rect width="0.9615384615384616em" height="0.4879644187562302em" x="95.1923076923077em" y="29.51203558124377em" fill="#aaa"/><rect width="0.9615384615384616em" height="0.4756253126044261em" x="96.15384615384616em" y="29.524374687395575em" fill="#aaa"/><rect width="0.9615384615384616em" height="0.5603083099826364em" x="97.11538461538461em" y="29.439691690017362em" fill="#aaa"/><rect width="0.9615384615384616em" height="0.5083952500396619em" x="98.07692307692308em" y="29.491604749960338em" fill="#aaa"/><rect width="0.9615384615384616em" height="0.4145002165867446em" x="99.03846153846155em" y="29.585499783413255em" fill="#aaa"/></svg>