<?xml version="1.0" standalone="no"?>
<svg xmlns:xlink="http://www.w3.org/1999/xlink" xmlns="http://www.w3.org/2000/svg" class="topic-graph" style="width: 100em; height: 30em; text-align: center;"><rect width="0.9615384615384616em" height="0.5319924112285507em" x="0em" y="29.46800758877145em" fill="#aaa"/><rect width="0.9615384615384616em" height="2.7326442029506266em" x="0.9615384615384616em" y="27.267355797049373em" fill="#aaa"/><rect width="0.9615384615384616em" height="4.243138604968373em" x="1.9230769230769231em" y="25.756861395031628em" fill="#aaa"/><rect width="0.9615384615384616em" height="0.3753110892405344em" x="2.8846153846153846em" y="29.624688910759467em" fill="#aaa"/><rect width="0.9615384615384616em" height="7.355766220490616em" x="3.8461538461538463em" y="22.644233779509385em" fill="#aaa"/><rect width="0.9615384615384616em" height="3.893287502043922em" x="4.8076923076923075em" y="26.106712497956078em" fill="#aaa"/><rect width="0.9615384615384616em" height="1.5394351330364042em" x="5.769230769230769em" y="28.460564866963594em" fill="#aaa"/><rect width="0.9615384615384616em" height="0.8735539227981945em" x="6.730769230769231em" y="29.126446077201805em" fill="#aaa"/><rect width="0.9615384615384616em" height="3.204230630376217em" x="7.6923076923076925em" y="26.795769369623784em" fill="#aaa"/><rect width="0.9615384615384616em" height="0.4635123561559044em" x="8.653846153846153em" y="29.536487643844097em" fill="#aaa"/><rect width="0.9615384615384616em" height="1.3082207529340248em" x="9.615384615384615em" y="28.691779247065973em" fill="#aaa"/><rect width="0.9615384615384616em" height="0.7811337133519405em" x="10.576923076923077em" y="29.21886628664806em" fill="#aaa"/><rect width="0.9615384615384616em" height="1.5366556439017598em" x="11.538461538461538em" y="28.46334435609824em" fill="#aaa"/><rect width="0.9615384615384616em" height="1.8907901941291183em" x="12.5em" y="28.109209805870883em" fill="#aaa"/><rect width="0.9615384615384616em" height="0.7939876237483122em" x="13.461538461538462em" y="29.20601237625169em" fill="#aaa"/><rect width="0.9615384615384616em" height="1.8846193187630946em" x="14.423076923076923em" y="28.115380681236907em" fill="#aaa"/><rect width="0.9615384615384616em" height="1.1627131680938296em" x="15.384615384615385em" y="28.83728683190617em" fill="#aaa"/><rect width="0.9615384615384616em" height="0.5907125623562756em" x="16.346153846153847em" y="29.409287437643723em" fill="#aaa"/><rect width="0.9615384615384616em" height="1.2522908407233337em" x="17.307692307692307em" y="28.747709159276667em" fill="#aaa"/><rect width="0.9615384615384616em" height="0.850609734804828em" x="18.26923076923077em" y="29.149390265195173em" fill="#aaa"/><rect width="0.9615384615384616em" height="1.2785023001599132em" x="19.23076923076923em" y="28.721497699840086em" fill="#aaa"/><rect width="0.9615384615384616em" height="1.1148319014118717em" x="20.192307692307693em" y="28.885168098588128em" fill="#aaa"/><rect width="0.9615384615384616em" height="0.9289345142190655em" x="21.153846153846153em" y="29.071065485780935em" fill="#aaa"/><rect width="0.9615384615384616em" height="0.4307543556033313em" x="22.115384615384617em" y="29.56924564439667em" fill="#aaa"/><rect width="0.9615384615384616em" height="0.6953021939794147em" x="23.076923076923077em" y="29.304697806020584em" fill="#aaa"/><rect width="0.9615384615384616em" height="2.1656252221446417em" x="24.03846153846154em" y="27.83437477785536em" fill="#aaa"/><rect width="0.9615384615384616em" height="1.2098809294392514em" x="25em" y="28.79011907056075em" fill="#aaa"/><rect width="0.9615384615384616em" height="0.8025588544399288em" x="25.961538461538463em" y="29.19744114556007em" fill="#aaa"/><rect width="0.9615384615384616em" height="3.423798252147813em" x="26.923076923076923em" y="26.57620174785219em" fill="#aaa"/><rect width="0.9615384615384616em" height="5.135307781944257em" x="27.884615384615387em" y="24.864692218055744em" fill="#aaa"/><rect width="0.9615384615384616em" height="4.359814235537721em" x="28.846153846153847em" y="25.64018576446228em" fill="#aaa"/><rect width="0.9615384615384616em" height="4.514726514365681em" x="29.80769230769231em" y="25.48527348563432em" fill="#aaa"/><rect width="0.9615384615384616em" height="6.070189363765307em" x="30.76923076923077em" y="23.92981063623469em" fill="#aaa"/><rect width="0.9615384615384616em" height="3.9429762997371998em" x="31.73076923076923em" y="26.0570237002628em" fill="#aaa"/><rect width="0.9615384615384616em" height="3.190897488751911em" x="32.69230769230769em" y="26.80910251124809em" fill="#aaa"/><rect width="0.9615384615384616em" height="3.05102748814009em" x="33.65384615384615em" y="26.94897251185991em" fill="#aaa"/><rect width="0.9615384615384616em" height="2.1218847773673284em" x="34.61538461538461em" y="27.878115222632672em" fill="#aaa"/><rect width="0.9615384615384616em" height="3.3298694734073693em" x="35.57692307692308em" y="26.67013052659263em" fill="#aaa"/><rect width="0.9615384615384616em" height="1.4250795695733591em" x="36.53846153846154em" y="28.57492043042664em" fill="#aaa"/><rect width="0.9615384615384616em" height="1.0387562046179724em" x="37.5em" y="28.96124379538203em" fill="#aaa"/><rect width="0.9615384615384616em" height="6.415859265336112em" x="38.46153846153846em" y="23.584140734663887em" fill="#aaa"/><rect width="0.9615384615384616em" height="4.522034882097998em" x="39.42307692307693em" y="25.477965117902002em" fill="#aaa"/><rect width="0.9615384615384616em" height="7.13566129766102em" x="40.38461538461539em" y="22.86433870233898em" fill="#aaa"/><rect width="0.9615384615384616em" height="8.224329487066775em" x="41.34615384615385em" y="21.775670512933225em" fill="#aaa"/><rect width="0.9615384615384616em" height="25.022794317862143em" x="42.30769230769231em" y="4.977205682137857em" fill="#aaa"/><rect width="0.9615384615384616em" height="13.159683742989063em" x="43.269230769230774em" y="16.840316257010937em" fill="#aaa"/><rect width="0.9615384615384616em" height="14.38153102924711em" x="44.23076923076923em" y="15.61846897075289em" fill="#aaa"/><rect width="0.9615384615384616em" height="8.80359479349912em" x="45.19230769230769em" y="21.19640520650088em" fill="#aaa"/><rect width="0.9615384615384616em" height="9.406351109391217em" x="46.15384615384615em" y="20.593648890608783em" fill="#aaa"/><rect width="0.9615384615384616em" height="8.014052267939483em" x="47.11538461538461em" y="21.985947732060517em" fill="#aaa"/><rect width="0.9615384615384616em" height="5.8984733779973375em" x="48.07692307692308em" y="24.101526622002662em" fill="#aaa"/><rect width="0.9615384615384616em" height="7.906854276707426em" x="49.03846153846154em" y="22.093145723292572em" fill="#aaa"/><rect width="0.9615384615384616em" height="5.269764580544353em" x="50em" y="24.730235419455646em" fill="#aaa"/><rect width="0.9615384615384616em" height="4.075667068037559em" x="50.96153846153846em" y="25.92433293196244em" fill="#aaa"/><rect width="0.9615384615384616em" height="9.640167425637319em" x="51.92307692307693em" y="20.35983257436268em" fill="#aaa"/><rect width="0.9615384615384616em" height="3.679140645139049em" x="52.88461538461539em" y="26.32085935486095em" fill="#aaa"/><rect width="0.9615384615384616em" height="4.563155841830366em" x="53.84615384615385em" y="25.436844158169635em" fill="#aaa"/><rect width="0.9615384615384616em" height="8.431270611349918em" x="54.80769230769231em" y="21.568729388650084em" fill="#aaa"/><rect width="0.9615384615384616em" height="3.8055940984320484em" x="55.769230769230774em" y="26.19440590156795em" fill="#aaa"/><rect width="0.9615384615384616em" height="12.103562957450862em" x="56.73076923076923em" y="17.896437042549138em" fill="#aaa"/><rect width="0.9615384615384616em" height="11.533321865821243em" x="57.69230769230769em" y="18.466678134178757em" fill="#aaa"/><rect width="0.9615384615384616em" height="8.446857871010717em" x="58.65384615384615em" y="21.553142128989283em" fill="#aaa"/><rect width="0.9615384615384616em" height="7.104244676681305em" x="59.61538461538462em" y="22.895755323318696em" fill="#aaa"/><rect width="0.9615384615384616em" height="17.048043436173682em" x="60.57692307692308em" y="12.951956563826318em" fill="#aaa"/><rect width="0.9615384615384616em" height="18.295566048055612em" x="61.53846153846154em" y="11.704433951944388em" fill="#aaa"/><rect width="0.9615384615384616em" height="16.414402771948673em" x="62.5em" y="13.585597228051327em" fill="#aaa"/><rect width="0.9615384615384616em" height="10.377768201552126em" x="63.46153846153846em" y="19.622231798447874em" fill="#aaa"/><rect width="0.9615384615384616em" height="18.80535054048255em" x="64.42307692307692em" y="11.19464945951745em" fill="#aaa"/><rect width="0.9615384615384616em" height="23.11052712234863em" x="65.38461538461539em" y="6.889472877651372em" fill="#aaa"/><rect width="0.9615384615384616em" height="18.88002408635784em" x="66.34615384615385em" y="11.119975913642161em" fill="#aaa"/><rect width="0.9615384615384616em" height="11.06553140080612em" x="67.3076923076923em" y="18.934468599193877em" fill="#aaa"/><rect width="0.9615384615384616em" height="11.310750772563498em" x="68.26923076923077em" y="18.689249227436502em" fill="#aaa"/><rect width="0.9615384615384616em" height="7.837170214037994em" x="69.23076923076923em" y="22.162829785962007em" fill="#aaa"/><rect width="0.9615384615384616em" height="11.840491913988489em" x="70.1923076923077em" y="18.159508086011513em" fill="#aaa"/><rect width="0.9615384615384616em" height="12.826409166586052em" x="71.15384615384616em" y="17.173590833413947em" fill="#aaa"/><rect width="0.9615384615384616em" height="14.727149613663281em" x="72.11538461538461em" y="15.272850386336719em" fill="#aaa"/><rect width="0.9615384615384616em" height="5.67574734374519em" x="73.07692307692308em" y="24.32425265625481em" fill="#aaa"/><rect width="0.9615384615384616em" height="8.721143552175063em" x="74.03846153846155em" y="21.278856447824936em" fill="#aaa"/><rect width="0.9615384615384616em" height="6.854215116937405em" x="75em" y="23.145784883062596em" fill="#aaa"/><rect width="0.9615384615384616em" height="4.353479342020288em" x="75.96153846153847em" y="25.646520657979714em" fill="#aaa"/><rect width="0.9615384615384616em" height="12.787950687151547em" x="76.92307692307692em" y="17.212049312848453em" fill="#aaa"/><rect width="0.9615384615384616em" height="10.779570878854353em" x="77.88461538461539em" y="19.22042912114565em" fill="#aaa"/><rect width="0.9615384615384616em" height="7.47805293936818em" x="78.84615384615385em" y="22.52194706063182em" fill="#aaa"/><rect width="0.9615384615384616em" height="11.585640058683857em" x="79.8076923076923em" y="18.414359941316143em" fill="#aaa"/><rect width="0.9615384615384616em" height="6.459655244882785em" x="80.76923076923077em" y="23.540344755117214em" fill="#aaa"/><rect width="0.9615384615384616em" height="12.790368696881082em" x="81.73076923076923em" y="17.20963130311892em" fill="#aaa"/><rect width="0.9615384615384616em" height="8.515252533839197em" x="82.6923076923077em" y="21.484747466160805em" fill="#aaa"/><rect width="0.9615384615384616em" height="12.05418269065245em" x="83.65384615384616em" y="17.94581730934755em" fill="#aaa"/><rect width="0.9615384615384616em" height="8.026325383749807em" x="84.61538461538461em" y="21.973674616250193em" fill="#aaa"/><rect width="0.9615384615384616em" height="12.603069848175315em" x="85.57692307692308em" y="17.396930151824684em" fill="#aaa"/><rect width="0.9615384615384616em" height="7.62662716745772em" x="86.53846153846155em" y="22.37337283254228em" fill="#aaa"/><rect width="0.9615384615384616em" height="30em" x="87.5em" y="0em" fill="#aaa"/><rect width="0.9615384615384616em" height="10.896375171035574em" x="88.46153846153847em" y="19.103624828964428em" fill="#aaa"/><rect width="0.9615384615384616em" height="8.614218646471373em" x="89.42307692307692em" y="21.38578135352863em" fill="#aaa"/><rect width="0.9615384615384616em" height="10.601959469687204em" x="90.38461538461539em" y="19.398040530312798em" fill="#aaa"/><rect width="0.9615384615384616em" height="8.282227797756804em" x="91.34615384615385em" y="21.717772202243196em" fill="#aaa"/><rect width="0.9615384615384616em" height="7.179488823433266em" x="92.3076923076923em" y="22.820511176566733em" fill="#aaa"/><rect width="0.9615384615384616em" height="6.940988809092664em" x="93.26923076923077em" y="23.059011190907334em" fill="#aaa"/><rect width="0.9615384615384616em" height="6.008447711165316em" x="94.23076923076923em" y="23.991552288834683em" fill="#aaa"/><rect width="0.9615384615384616em" height="7.153609021312572em" x="95.1923076923077em" y="22.846390978687428em" fill="#aaa"/><rect width="0.9615384615384616em" height="6.337577605999091em" x="96.15384615384616em" y="23.66242239400091em" fill="#aaa"/><rect width="0.9615384615384616em" height="8.520530248751712em" x="97.11538461538461em" y="21.47946975124829em" fill="#aaa"/><rect width="0.9615384615384616em" height="6.6516915426406795em" x="98.07692307692308em" y="23.34830845735932em" fill="#aaa"/><rect width="0.9615384615384616em" height="10.203806559982338em" x="99.03846153846155em" y="19.79619344001766em" fill="#aaa"/></svg>