<?xml version="1.0" standalone="no"?>
<svg xmlns:xlink="http://www.w3.org/1999/xlink" xmlns="http://www.w3.org/2000/svg" class="topic-graph" style="width: 10vw; height: 3em; text-align: center;"><rect width="0.09615384615384616em" height="0.04816980492746045em" x="0vw" y="2.9518301950725396em" fill="#aaa"/><rect width="0.09615384615384616em" height="0.39797902031035015em" x="0.09615384615384616vw" y="2.60202097968965em" fill="#aaa"/><rect width="0.09615384615384616em" height="0.07224378153389685em" x="0.19230769230769232vw" y="2.927756218466103em" fill="#aaa"/><rect width="0.09615384615384616em" height="0.5040933121693503em" x="0.2884615384615385vw" y="2.49590668783065em" fill="#aaa"/><rect width="0.09615384615384616em" height="0.41206537912017416em" x="0.38461538461538464vw" y="2.587934620879826em" fill="#aaa"/><rect width="0.09615384615384616em" height="0.8733699550031153em" x="0.4807692307692308vw" y="2.126630044996885em" fill="#aaa"/><rect width="0.09615384615384616em" height="1.0400682099896965em" x="0.576923076923077vw" y="1.9599317900103035em" fill="#aaa"/><rect width="0.09615384615384616em" height="1.1620331647986162em" x="0.6730769230769231vw" y="1.8379668352013838em" fill="#aaa"/><rect width="0.09615384615384616em" height="1.2912488645737108em" x="0.7692307692307693vw" y="1.7087511354262892em" fill="#aaa"/><rect width="0.09615384615384616em" height="0.14237072038652268em" x="0.8653846153846154vw" y="2.8576292796134775em" fill="#aaa"/><rect width="0.09615384615384616em" height="0.20190779795308275em" x="0.9615384615384616vw" y="2.7980922020469174em" fill="#aaa"/><rect width="0.09615384615384616em" height="0.5228033759803911em" x="1.0576923076923077vw" y="2.477196624019609em" fill="#aaa"/><rect width="0.09615384615384616em" height="1.504051187236832em" x="1.153846153846154vw" y="1.495948812763168em" fill="#aaa"/><rect width="0.09615384615384616em" height="0.31827358997020444em" x="1.25vw" y="2.6817264100297957em" fill="#aaa"/><rect width="0.09615384615384616em" height="1.3525740581380197em" x="1.3461538461538463vw" y="1.6474259418619803em" fill="#aaa"/><rect width="0.09615384615384616em" height="0.6585164358732889em" x="1.4423076923076923vw" y="2.341483564126711em" fill="#aaa"/><rect width="0.09615384615384616em" height="0.1932739531808087em" x="1.5384615384615385vw" y="2.8067260468191915em" fill="#aaa"/><rect width="0.09615384615384616em" height="0.25090532979242997em" x="1.6346153846153848vw" y="2.74909467020757em" fill="#aaa"/><rect width="0.09615384615384616em" height="0.7162276953054703em" x="1.7307692307692308vw" y="2.28377230469453em" fill="#aaa"/><rect width="0.09615384615384616em" height="1.0974891993872515em" x="1.826923076923077vw" y="1.9025108006127485em" fill="#aaa"/><rect width="0.09615384615384616em" height="3em" x="1.9230769230769231vw" y="0em" fill="#aaa"/><rect width="0.09615384615384616em" height="0.5429103620058314em" x="2.019230769230769vw" y="2.4570896379941685em" fill="#aaa"/><rect width="0.09615384615384616em" height="0.951900321482076em" x="2.1153846153846154vw" y="2.048099678517924em" fill="#aaa"/><rect width="0.09615384615384616em" height="1.9545794430902617em" x="2.2115384615384617vw" y="1.0454205569097383em" fill="#aaa"/><rect width="0.09615384615384616em" height="0.8265077703913422em" x="2.307692307692308vw" y="2.173492229608658em" fill="#aaa"/><rect width="0.09615384615384616em" height="0.7035006690720685em" x="2.403846153846154vw" y="2.2964993309279316em" fill="#aaa"/><rect width="0.09615384615384616em" height="1.2269355112833145em" x="2.5vw" y="1.7730644887166855em" fill="#aaa"/><rect width="0.09615384615384616em" height="0.49774165719743646em" x="2.5961538461538463vw" y="2.5022583428025635em" fill="#aaa"/><rect width="0.09615384615384616em" height="1.6539099311984122em" x="2.6923076923076925vw" y="1.3460900688015878em" fill="#aaa"/><rect width="0.09615384615384616em" height="2.4308878335800617em" x="2.7884615384615388vw" y="0.5691121664199383em" fill="#aaa"/><rect width="0.09615384615384616em" height="1.5603279638143355em" x="2.8846153846153846vw" y="1.4396720361856645em" fill="#aaa"/><rect width="0.09615384615384616em" height="1.3657364235064953em" x="2.980769230769231vw" y="1.6342635764935047em" fill="#aaa"/><rect width="0.09615384615384616em" height="1.9481755578527185em" x="3.076923076923077vw" y="1.0518244421472815em" fill="#aaa"/><rect width="0.09615384615384616em" height="1.7961353886795983em" x="3.1730769230769234vw" y="1.2038646113204017em" fill="#aaa"/><rect width="0.09615384615384616em" height="1.1901482417748612em" x="3.2692307692307696vw" y="1.8098517582251388em" fill="#aaa"/><rect width="0.09615384615384616em" height="1.0811019294976132em" x="3.3653846153846154vw" y="1.9188980705023868em" fill="#aaa"/><rect width="0.09615384615384616em" height="0.6580310292069664em" x="3.4615384615384617vw" y="2.3419689707930336em" fill="#aaa"/><rect width="0.09615384615384616em" height="1.2548660298381136em" x="3.557692307692308vw" y="1.7451339701618864em" fill="#aaa"/><rect width="0.09615384615384616em" height="0.6770875428427667em" x="3.653846153846154vw" y="2.3229124571572335em" fill="#aaa"/><rect width="0.09615384615384616em" height="1.325050032483913em" x="3.75vw" y="1.674949967516087em" fill="#aaa"/><rect width="0.09615384615384616em" height="1.259119115679006em" x="3.8461538461538463vw" y="1.740880884320994em" fill="#aaa"/><rect width="0.09615384615384616em" height="1.2276180079133467em" x="3.9423076923076925vw" y="1.7723819920866533em" fill="#aaa"/><rect width="0.09615384615384616em" height="1.2936943892901815em" x="4.038461538461538vw" y="1.7063056107098185em" fill="#aaa"/><rect width="0.09615384615384616em" height="0.5382530473799942em" x="4.134615384615385vw" y="2.4617469526200058em" fill="#aaa"/><rect width="0.09615384615384616em" height="1.53677076530116em" x="4.230769230769231vw" y="1.46322923469884em" fill="#aaa"/><rect width="0.09615384615384616em" height="0.5991135623990188em" x="4.3269230769230775vw" y="2.400886437600981em" fill="#aaa"/><rect width="0.09615384615384616em" height="1.250445881675643em" x="4.423076923076923vw" y="1.749554118324357em" fill="#aaa"/><rect width="0.09615384615384616em" height="0.7808853975717105em" x="4.519230769230769vw" y="2.2191146024282897em" fill="#aaa"/><rect width="0.09615384615384616em" height="0.7029712547783921em" x="4.615384615384616vw" y="2.297028745221608em" fill="#aaa"/><rect width="0.09615384615384616em" height="1.8729005998040518em" x="4.711538461538462vw" y="1.1270994001959482em" fill="#aaa"/><rect width="0.09615384615384616em" height="2.3176481456111087em" x="4.807692307692308vw" y="0.6823518543888913em" fill="#aaa"/><rect width="0.09615384615384616em" height="1.3338890460536408em" x="4.903846153846154vw" y="1.6661109539463592em" fill="#aaa"/><rect width="0.09615384615384616em" height="0.628315500075993em" x="5vw" y="2.371684499924007em" fill="#aaa"/><rect width="0.09615384615384616em" height="1.114926082717997em" x="5.096153846153847vw" y="1.885073917282003em" fill="#aaa"/><rect width="0.09615384615384616em" height="0.7616890628278651em" x="5.1923076923076925vw" y="2.238310937172135em" fill="#aaa"/><rect width="0.09615384615384616em" height="2.293229306282612em" x="5.288461538461538vw" y="0.7067706937173881em" fill="#aaa"/><rect width="0.09615384615384616em" height="1.1186815771190417em" x="5.384615384615385vw" y="1.8813184228809583em" fill="#aaa"/><rect width="0.09615384615384616em" height="1.0119333627171005em" x="5.480769230769231vw" y="1.9880666372828995em" fill="#aaa"/><rect width="0.09615384615384616em" height="1.7183104872683956em" x="5.5769230769230775vw" y="1.2816895127316044em" fill="#aaa"/><rect width="0.09615384615384616em" height="1.4220491214385858em" x="5.673076923076923vw" y="1.5779508785614142em" fill="#aaa"/><rect width="0.09615384615384616em" height="2.465965856030506em" x="5.769230769230769vw" y="0.5340341439694938em" fill="#aaa"/><rect width="0.09615384615384616em" height="0.26836735148961666em" x="5.865384615384616vw" y="2.7316326485103835em" fill="#aaa"/><rect width="0.09615384615384616em" height="1.438173684131018em" x="5.961538461538462vw" y="1.561826315868982em" fill="#aaa"/><rect width="0.09615384615384616em" height="1.2780833515866616em" x="6.057692307692308vw" y="1.7219166484133384em" fill="#aaa"/><rect width="0.09615384615384616em" height="1.2478617070980096em" x="6.153846153846154vw" y="1.7521382929019904em" fill="#aaa"/><rect width="0.09615384615384616em" height="1.5499343050185803em" x="6.25vw" y="1.4500656949814197em" fill="#aaa"/><rect width="0.09615384615384616em" height="1.5372631714631124em" x="6.346153846153847vw" y="1.4627368285368876em" fill="#aaa"/><rect width="0.09615384615384616em" height="1.4580569416536293em" x="6.4423076923076925vw" y="1.5419430583463707em" fill="#aaa"/><rect width="0.09615384615384616em" height="1.1065561876595407em" x="6.538461538461539vw" y="1.8934438123404593em" fill="#aaa"/><rect width="0.09615384615384616em" height="1.6656219925074842em" x="6.634615384615385vw" y="1.3343780074925158em" fill="#aaa"/><rect width="0.09615384615384616em" height="1.1071600724021429em" x="6.730769230769231vw" y="1.8928399275978571em" fill="#aaa"/><rect width="0.09615384615384616em" height="1.1573734915091878em" x="6.8269230769230775vw" y="1.8426265084908122em" fill="#aaa"/><rect width="0.09615384615384616em" height="1.0625990713413374em" x="6.923076923076923vw" y="1.9374009286586626em" fill="#aaa"/><rect width="0.09615384615384616em" height="0.32158960446614426em" x="7.01923076923077vw" y="2.678410395533856em" fill="#aaa"/><rect width="0.09615384615384616em" height="0.6024467624399749em" x="7.115384615384616vw" y="2.3975532375600253em" fill="#aaa"/><rect width="0.09615384615384616em" height="0.4600522927362398em" x="7.211538461538462vw" y="2.53994770726376em" fill="#aaa"/><rect width="0.09615384615384616em" height="0.5772314670907983em" x="7.307692307692308vw" y="2.4227685329092017em" fill="#aaa"/><rect width="0.09615384615384616em" height="0.4272805778730365em" x="7.403846153846154vw" y="2.5727194221269634em" fill="#aaa"/><rect width="0.09615384615384616em" height="0.6236282914340572em" x="7.5vw" y="2.3763717085659426em" fill="#aaa"/><rect width="0.09615384615384616em" height="0.6391562871063936em" x="7.596153846153847vw" y="2.3608437128936064em" fill="#aaa"/><rect width="0.09615384615384616em" height="0.3399340479126408em" x="7.6923076923076925vw" y="2.660065952087359em" fill="#aaa"/><rect width="0.09615384615384616em" height="0.8773044129973968em" x="7.788461538461539vw" y="2.122695587002603em" fill="#aaa"/><rect width="0.09615384615384616em" height="0.9455769613624971em" x="7.884615384615385vw" y="2.054423038637503em" fill="#aaa"/><rect width="0.09615384615384616em" height="0.848790523369238em" x="7.980769230769231vw" y="2.151209476630762em" fill="#aaa"/><rect width="0.09615384615384616em" height="0.93357015542169em" x="8.076923076923077vw" y="2.06642984457831em" fill="#aaa"/><rect width="0.09615384615384616em" height="0.6260907826453463em" x="8.173076923076923vw" y="2.3739092173546537em" fill="#aaa"/><rect width="0.09615384615384616em" height="0.7625385864511972em" x="8.26923076923077vw" y="2.237461413548803em" fill="#aaa"/><rect width="0.09615384615384616em" height="0.5862615528128962em" x="8.365384615384615vw" y="2.4137384471871037em" fill="#aaa"/><rect width="0.09615384615384616em" height="0.5680295014837977em" x="8.461538461538462vw" y="2.4319704985162023em" fill="#aaa"/><rect width="0.09615384615384616em" height="0.6315498692818673em" x="8.557692307692308vw" y="2.3684501307181325em" fill="#aaa"/><rect width="0.09615384615384616em" height="0.802246159632836em" x="8.653846153846155vw" y="2.197753840367164em" fill="#aaa"/><rect width="0.09615384615384616em" height="0.6265245040642569em" x="8.75vw" y="2.373475495935743em" fill="#aaa"/><rect width="0.09615384615384616em" height="0.43205591989083375em" x="8.846153846153847vw" y="2.567944080109166em" fill="#aaa"/><rect width="0.09615384615384616em" height="0.7399765510996743em" x="8.942307692307693vw" y="2.2600234489003257em" fill="#aaa"/><rect width="0.09615384615384616em" height="1.797446280832168em" x="9.038461538461538vw" y="1.202553719167832em" fill="#aaa"/><rect width="0.09615384615384616em" height="0.7906085565309358em" x="9.134615384615385vw" y="2.2093914434690642em" fill="#aaa"/><rect width="0.09615384615384616em" height="0.4522593804599678em" x="9.230769230769232vw" y="2.5477406195400323em" fill="#aaa"/><rect width="0.09615384615384616em" height="0.4854689739974539em" x="9.326923076923077vw" y="2.514531026002546em" fill="#aaa"/><rect width="0.09615384615384616em" height="0.5585804089169182em" x="9.423076923076923vw" y="2.441419591083082em" fill="#aaa"/><rect width="0.09615384615384616em" height="0.8129937800971383em" x="9.51923076923077vw" y="2.1870062199028615em" fill="#aaa"/><rect width="0.09615384615384616em" height="0.6937899361878128em" x="9.615384615384617vw" y="2.306210063812187em" fill="#aaa"/><rect width="0.09615384615384616em" height="0.6259700733359831em" x="9.711538461538462vw" y="2.374029926664017em" fill="#aaa"/><rect width="0.09615384615384616em" height="0.5180808214806827em" x="9.807692307692308vw" y="2.481919178519317em" fill="#aaa"/><rect width="0.09615384615384616em" height="0.5817084865877776em" x="9.903846153846155vw" y="2.4182915134122225em" fill="#aaa"/></svg>