<?xml version="1.0" standalone="no"?>
<svg xmlns:xlink="http://www.w3.org/1999/xlink" xmlns="http://www.w3.org/2000/svg" class="topic-graph" style="width: 100em; height: 30em; text-align: center;"><rect width="0.9615384615384616em" height="4.653985897251553em" x="0em" y="25.34601410274845em" fill="#aaa"/><rect width="0.9615384615384616em" height="7.8738665800049885em" x="0.9615384615384616em" y="22.12613341999501em" fill="#aaa"/><rect width="0.9615384615384616em" height="12.97740993396437em" x="1.9230769230769231em" y="17.02259006603563em" fill="#aaa"/><rect width="0.9615384615384616em" height="4.384935242940413em" x="2.8846153846153846em" y="25.615064757059585em" fill="#aaa"/><rect width="0.9615384615384616em" height="8.175996889731497em" x="3.8461538461538463em" y="21.824003110268503em" fill="#aaa"/><rect width="0.9615384615384616em" height="10.440103677262801em" x="4.8076923076923075em" y="19.5598963227372em" fill="#aaa"/><rect width="0.9615384615384616em" height="10.593477871840937em" x="5.769230769230769em" y="19.40652212815906em" fill="#aaa"/><rect width="0.9615384615384616em" height="30em" x="6.730769230769231em" y="0em" fill="#aaa"/><rect width="0.9615384615384616em" height="13.240517625208632em" x="7.6923076923076925em" y="16.759482374791368em" fill="#aaa"/><rect width="0.9615384615384616em" height="2.701696585393459em" x="8.653846153846153em" y="27.29830341460654em" fill="#aaa"/><rect width="0.9615384615384616em" height="1.6526446906013177em" x="9.615384615384615em" y="28.347355309398683em" fill="#aaa"/><rect width="0.9615384615384616em" height="2.665714854682729em" x="10.576923076923077em" y="27.33428514531727em" fill="#aaa"/><rect width="0.9615384615384616em" height="14.52646347172486em" x="11.538461538461538em" y="15.47353652827514em" fill="#aaa"/><rect width="0.9615384615384616em" height="7.76721629827834em" x="12.5em" y="22.232783701721658em" fill="#aaa"/><rect width="0.9615384615384616em" height="13.020926587865173em" x="13.461538461538462em" y="16.979073412134827em" fill="#aaa"/><rect width="0.9615384615384616em" height="5.592443817033434em" x="14.423076923076923em" y="24.407556182966566em" fill="#aaa"/><rect width="0.9615384615384616em" height="9.486334837293008em" x="15.384615384615385em" y="20.513665162706992em" fill="#aaa"/><rect width="0.9615384615384616em" height="19.380045787902304em" x="16.346153846153847em" y="10.619954212097696em" fill="#aaa"/><rect width="0.9615384615384616em" height="8.852805612664598em" x="17.307692307692307em" y="21.147194387335404em" fill="#aaa"/><rect width="0.9615384615384616em" height="5.130544806933122em" x="18.26923076923077em" y="24.869455193066877em" fill="#aaa"/><rect width="0.9615384615384616em" height="12.797061781043833em" x="19.23076923076923em" y="17.202938218956167em" fill="#aaa"/><rect width="0.9615384615384616em" height="27.186947392857498em" x="20.192307692307693em" y="2.8130526071425024em" fill="#aaa"/><rect width="0.9615384615384616em" height="9.638354159782764em" x="21.153846153846153em" y="20.361645840217236em" fill="#aaa"/><rect width="0.9615384615384616em" height="8.191822005869776em" x="22.115384615384617em" y="21.808177994130226em" fill="#aaa"/><rect width="0.9615384615384616em" height="13.44377248371264em" x="23.076923076923077em" y="16.556227516287358em" fill="#aaa"/><rect width="0.9615384615384616em" height="13.773160679375872em" x="24.03846153846154em" y="16.22683932062413em" fill="#aaa"/><rect width="0.9615384615384616em" height="20.99023357492221em" x="25em" y="9.009766425077789em" fill="#aaa"/><rect width="0.9615384615384616em" height="14.315873749915747em" x="25.961538461538463em" y="15.684126250084253em" fill="#aaa"/><rect width="0.9615384615384616em" height="13.09286480887886em" x="26.923076923076923em" y="16.907135191121142em" fill="#aaa"/><rect width="0.9615384615384616em" height="9.357322863497876em" x="27.884615384615387em" y="20.642677136502122em" fill="#aaa"/><rect width="0.9615384615384616em" height="7.300291891445138em" x="28.846153846153847em" y="22.699708108554862em" fill="#aaa"/><rect width="0.9615384615384616em" height="14.459334133591371em" x="29.80769230769231em" y="15.540665866408629em" fill="#aaa"/><rect width="0.9615384615384616em" height="10.975712409922933em" x="30.76923076923077em" y="19.024287590077066em" fill="#aaa"/><rect width="0.9615384615384616em" height="14.079512308248777em" x="31.73076923076923em" y="15.920487691751223em" fill="#aaa"/><rect width="0.9615384615384616em" height="20.188513603316125em" x="32.69230769230769em" y="9.811486396683875em" fill="#aaa"/><rect width="0.9615384615384616em" height="14.809643215764224em" x="33.65384615384615em" y="15.190356784235776em" fill="#aaa"/><rect width="0.9615384615384616em" height="27.65698584675982em" x="34.61538461538461em" y="2.34301415324018em" fill="#aaa"/><rect width="0.9615384615384616em" height="11.861554665128615em" x="35.57692307692308em" y="18.138445334871385em" fill="#aaa"/><rect width="0.9615384615384616em" height="17.776747543668698em" x="36.53846153846154em" y="12.223252456331302em" fill="#aaa"/><rect width="0.9615384615384616em" height="9.38252911944918em" x="37.5em" y="20.61747088055082em" fill="#aaa"/><rect width="0.9615384615384616em" height="18.605554461621818em" x="38.46153846153846em" y="11.394445538378182em" fill="#aaa"/><rect width="0.9615384615384616em" height="10.862806729204003em" x="39.42307692307693em" y="19.137193270795997em" fill="#aaa"/><rect width="0.9615384615384616em" height="14.83108773186558em" x="40.38461538461539em" y="15.16891226813442em" fill="#aaa"/><rect width="0.9615384615384616em" height="13.120062321967911em" x="41.34615384615385em" y="16.87993767803209em" fill="#aaa"/><rect width="0.9615384615384616em" height="10.846743979489942em" x="42.30769230769231em" y="19.153256020510057em" fill="#aaa"/><rect width="0.9615384615384616em" height="24.974945220472065em" x="43.269230769230774em" y="5.025054779527935em" fill="#aaa"/><rect width="0.9615384615384616em" height="25.925102572463338em" x="44.23076923076923em" y="4.074897427536662em" fill="#aaa"/><rect width="0.9615384615384616em" height="16.189336893260645em" x="45.19230769230769em" y="13.810663106739355em" fill="#aaa"/><rect width="0.9615384615384616em" height="8.315059020068306em" x="46.15384615384615em" y="21.684940979931696em" fill="#aaa"/><rect width="0.9615384615384616em" height="10.018958189135901em" x="47.11538461538461em" y="19.9810418108641em" fill="#aaa"/><rect width="0.9615384615384616em" height="13.287004753656557em" x="48.07692307692308em" y="16.712995246343443em" fill="#aaa"/><rect width="0.9615384615384616em" height="14.858513175341065em" x="49.03846153846154em" y="15.141486824658935em" fill="#aaa"/><rect width="0.9615384615384616em" height="11.678694606770136em" x="50em" y="18.321305393229864em" fill="#aaa"/><rect width="0.9615384615384616em" height="15.614866609333136em" x="50.96153846153846em" y="14.385133390666864em" fill="#aaa"/><rect width="0.9615384615384616em" height="20.66011485882027em" x="51.92307692307693em" y="9.339885141179732em" fill="#aaa"/><rect width="0.9615384615384616em" height="11.458074713610802em" x="52.88461538461539em" y="18.541925286389198em" fill="#aaa"/><rect width="0.9615384615384616em" height="15.669979281001762em" x="53.84615384615385em" y="14.330020718998238em" fill="#aaa"/><rect width="0.9615384615384616em" height="9.958471286356158em" x="54.80769230769231em" y="20.041528713643842em" fill="#aaa"/><rect width="0.9615384615384616em" height="15.469547952038136em" x="55.769230769230774em" y="14.530452047961864em" fill="#aaa"/><rect width="0.9615384615384616em" height="13.666316818174796em" x="56.73076923076923em" y="16.333683181825204em" fill="#aaa"/><rect width="0.9615384615384616em" height="11.756034209780525em" x="57.69230769230769em" y="18.243965790219477em" fill="#aaa"/><rect width="0.9615384615384616em" height="9.040040038338686em" x="58.65384615384615em" y="20.959959961661312em" fill="#aaa"/><rect width="0.9615384615384616em" height="8.636811114533081em" x="59.61538461538462em" y="21.36318888546692em" fill="#aaa"/><rect width="0.9615384615384616em" height="16.822696525532834em" x="60.57692307692308em" y="13.177303474467166em" fill="#aaa"/><rect width="0.9615384615384616em" height="7.450075221937228em" x="61.53846153846154em" y="22.549924778062774em" fill="#aaa"/><rect width="0.9615384615384616em" height="5.551590434458047em" x="62.5em" y="24.44840956554195em" fill="#aaa"/><rect width="0.9615384615384616em" height="14.273721577335406em" x="63.46153846153846em" y="15.726278422664594em" fill="#aaa"/><rect width="0.9615384615384616em" height="9.254542462009196em" x="64.42307692307692em" y="20.745457537990802em" fill="#aaa"/><rect width="0.9615384615384616em" height="13.961260153237067em" x="65.38461538461539em" y="16.038739846762933em" fill="#aaa"/><rect width="0.9615384615384616em" height="9.538444660084728em" x="66.34615384615385em" y="20.46155533991527em" fill="#aaa"/><rect width="0.9615384615384616em" height="8.883670383776634em" x="67.3076923076923em" y="21.116329616223368em" fill="#aaa"/><rect width="0.9615384615384616em" height="13.332801135620574em" x="68.26923076923077em" y="16.667198864379426em" fill="#aaa"/><rect width="0.9615384615384616em" height="20.785015807673087em" x="69.23076923076923em" y="9.214984192326913em" fill="#aaa"/><rect width="0.9615384615384616em" height="24.972958464485004em" x="70.1923076923077em" y="5.027041535514996em" fill="#aaa"/><rect width="0.9615384615384616em" height="18.067534820027944em" x="71.15384615384616em" y="11.932465179972056em" fill="#aaa"/><rect width="0.9615384615384616em" height="15.39013920054998em" x="72.11538461538461em" y="14.60986079945002em" fill="#aaa"/><rect width="0.9615384615384616em" height="18.342314208173626em" x="73.07692307692308em" y="11.657685791826374em" fill="#aaa"/><rect width="0.9615384615384616em" height="16.2095515771816em" x="74.03846153846155em" y="13.7904484228184em" fill="#aaa"/><rect width="0.9615384615384616em" height="13.36787545440107em" x="75em" y="16.63212454559893em" fill="#aaa"/><rect width="0.9615384615384616em" height="14.32394458376333em" x="75.96153846153847em" y="15.67605541623667em" fill="#aaa"/><rect width="0.9615384615384616em" height="19.394688746557776em" x="76.92307692307692em" y="10.605311253442224em" fill="#aaa"/><rect width="0.9615384615384616em" height="11.535990980233693em" x="77.88461538461539em" y="18.46400901976631em" fill="#aaa"/><rect width="0.9615384615384616em" height="14.602423191233036em" x="78.84615384615385em" y="15.397576808766964em" fill="#aaa"/><rect width="0.9615384615384616em" height="14.484619550117058em" x="79.8076923076923em" y="15.515380449882942em" fill="#aaa"/><rect width="0.9615384615384616em" height="16.448516843731802em" x="80.76923076923077em" y="13.551483156268198em" fill="#aaa"/><rect width="0.9615384615384616em" height="15.625343494759111em" x="81.73076923076923em" y="14.374656505240889em" fill="#aaa"/><rect width="0.9615384615384616em" height="20.961300603034335em" x="82.6923076923077em" y="9.038699396965665em" fill="#aaa"/><rect width="0.9615384615384616em" height="20.285637216785837em" x="83.65384615384616em" y="9.714362783214163em" fill="#aaa"/><rect width="0.9615384615384616em" height="16.051919865994385em" x="84.61538461538461em" y="13.948080134005615em" fill="#aaa"/><rect width="0.9615384615384616em" height="12.6549803067355em" x="85.57692307692308em" y="17.3450196932645em" fill="#aaa"/><rect width="0.9615384615384616em" height="10.69390893869731em" x="86.53846153846155em" y="19.306091061302688em" fill="#aaa"/><rect width="0.9615384615384616em" height="14.36503863335871em" x="87.5em" y="15.63496136664129em" fill="#aaa"/><rect width="0.9615384615384616em" height="12.841351855384854em" x="88.46153846153847em" y="17.158648144615146em" fill="#aaa"/><rect width="0.9615384615384616em" height="14.377706634290877em" x="89.42307692307692em" y="15.622293365709123em" fill="#aaa"/><rect width="0.9615384615384616em" height="12.999459689286478em" x="90.38461538461539em" y="17.00054031071352em" fill="#aaa"/><rect width="0.9615384615384616em" height="10.120409697167045em" x="91.34615384615385em" y="19.879590302832955em" fill="#aaa"/><rect width="0.9615384615384616em" height="9.775949498939795em" x="92.3076923076923em" y="20.224050501060205em" fill="#aaa"/><rect width="0.9615384615384616em" height="8.649861327199375em" x="93.26923076923077em" y="21.350138672800625em" fill="#aaa"/><rect width="0.9615384615384616em" height="11.272631978352557em" x="94.23076923076923em" y="18.727368021647443em" fill="#aaa"/><rect width="0.9615384615384616em" height="8.181899973768456em" x="95.1923076923077em" y="21.818100026231544em" fill="#aaa"/><rect width="0.9615384615384616em" height="8.400775319272602em" x="96.15384615384616em" y="21.599224680727396em" fill="#aaa"/><rect width="0.9615384615384616em" height="7.618922877722129em" x="97.11538461538461em" y="22.381077122277873em" fill="#aaa"/><rect width="0.9615384615384616em" height="9.299188976428638em" x="98.07692307692308em" y="20.70081102357136em" fill="#aaa"/><rect width="0.9615384615384616em" height="7.27927461488978em" x="99.03846153846155em" y="22.72072538511022em" fill="#aaa"/></svg>