<?xml version="1.0" standalone="no"?>
<svg xmlns:xlink="http://www.w3.org/1999/xlink" xmlns="http://www.w3.org/2000/svg" class="topic-graph" style="width: 10vw; height: 3em; text-align: center;"><rect width="0.09615384615384616em" height="0.9656277345775718em" x="0vw" y="2.0343722654224283em" fill="#aaa"/><rect width="0.09615384615384616em" height="1.9362475003697008em" x="0.09615384615384616vw" y="1.0637524996302992em" fill="#aaa"/><rect width="0.09615384615384616em" height="0.8542220292683615em" x="0.19230769230769232vw" y="2.1457779707316385em" fill="#aaa"/><rect width="0.09615384615384616em" height="1.0947577548149545em" x="0.2884615384615385vw" y="1.9052422451850455em" fill="#aaa"/><rect width="0.09615384615384616em" height="0.6781705921473106em" x="0.38461538461538464vw" y="2.3218294078526895em" fill="#aaa"/><rect width="0.09615384615384616em" height="0.9873159558466691em" x="0.4807692307692308vw" y="2.012684044153331em" fill="#aaa"/><rect width="0.09615384615384616em" height="1.9461657706115836em" x="0.576923076923077vw" y="1.0538342293884164em" fill="#aaa"/><rect width="0.09615384615384616em" height="1.4870982440915783em" x="0.6730769230769231vw" y="1.5129017559084217em" fill="#aaa"/><rect width="0.09615384615384616em" height="0.6925129055270222em" x="0.7692307692307693vw" y="2.307487094472978em" fill="#aaa"/><rect width="0.09615384615384616em" height="1.801682335138809em" x="0.8653846153846154vw" y="1.198317664861191em" fill="#aaa"/><rect width="0.09615384615384616em" height="0.9413710276781326em" x="0.9615384615384616vw" y="2.058628972321867em" fill="#aaa"/><rect width="0.09615384615384616em" height="1.40997404130766em" x="1.0576923076923077vw" y="1.59002595869234em" fill="#aaa"/><rect width="0.09615384615384616em" height="0.6027229037484096em" x="1.153846153846154vw" y="2.3972770962515906em" fill="#aaa"/><rect width="0.09615384615384616em" height="0.8814642050512828em" x="1.25vw" y="2.118535794948717em" fill="#aaa"/><rect width="0.09615384615384616em" height="0.8734894546935453em" x="1.3461538461538463vw" y="2.126510545306455em" fill="#aaa"/><rect width="0.09615384615384616em" height="1.021570891259803em" x="1.4423076923076923vw" y="1.978429108740197em" fill="#aaa"/><rect width="0.09615384615384616em" height="1.132901997920182em" x="1.5384615384615385vw" y="1.867098002079818em" fill="#aaa"/><rect width="0.09615384615384616em" height="0.8262885569183047em" x="1.6346153846153848vw" y="2.1737114430816953em" fill="#aaa"/><rect width="0.09615384615384616em" height="0.7979272853390929em" x="1.7307692307692308vw" y="2.202072714660907em" fill="#aaa"/><rect width="0.09615384615384616em" height="0.9735703118619734em" x="1.826923076923077vw" y="2.026429688138027em" fill="#aaa"/><rect width="0.09615384615384616em" height="0.9778140389048792em" x="1.9230769230769231vw" y="2.0221859610951207em" fill="#aaa"/><rect width="0.09615384615384616em" height="0.8631310715208806em" x="2.019230769230769vw" y="2.136868928479119em" fill="#aaa"/><rect width="0.09615384615384616em" height="0.8465743004334305em" x="2.1153846153846154vw" y="2.1534256995665695em" fill="#aaa"/><rect width="0.09615384615384616em" height="0.791987564501851em" x="2.2115384615384617vw" y="2.2080124354981487em" fill="#aaa"/><rect width="0.09615384615384616em" height="0.780785938145277em" x="2.307692307692308vw" y="2.219214061854723em" fill="#aaa"/><rect width="0.09615384615384616em" height="1.7907049760781741em" x="2.403846153846154vw" y="1.2092950239218259em" fill="#aaa"/><rect width="0.09615384615384616em" height="1.1773160486545666em" x="2.5vw" y="1.8226839513454334em" fill="#aaa"/><rect width="0.09615384615384616em" height="1.3040436267028856em" x="2.5961538461538463vw" y="1.6959563732971144em" fill="#aaa"/><rect width="0.09615384615384616em" height="1.0950247798034036em" x="2.6923076923076925vw" y="1.9049752201965964em" fill="#aaa"/><rect width="0.09615384615384616em" height="1.3172214295470395em" x="2.7884615384615388vw" y="1.6827785704529605em" fill="#aaa"/><rect width="0.09615384615384616em" height="1.9987038676189846em" x="2.8846153846153846vw" y="1.0012961323810154em" fill="#aaa"/><rect width="0.09615384615384616em" height="1.507723560595649em" x="2.980769230769231vw" y="1.492276439404351em" fill="#aaa"/><rect width="0.09615384615384616em" height="2.169268131683264em" x="3.076923076923077vw" y="0.830731868316736em" fill="#aaa"/><rect width="0.09615384615384616em" height="2.3247258299292555em" x="3.1730769230769234vw" y="0.6752741700707445em" fill="#aaa"/><rect width="0.09615384615384616em" height="1.9984186389997265em" x="3.2692307692307696vw" y="1.0015813610002735em" fill="#aaa"/><rect width="0.09615384615384616em" height="1.3937812173661632em" x="3.3653846153846154vw" y="1.6062187826338368em" fill="#aaa"/><rect width="0.09615384615384616em" height="2.3098915108727507em" x="3.4615384615384617vw" y="0.6901084891272493em" fill="#aaa"/><rect width="0.09615384615384616em" height="1.271685045160298em" x="3.557692307692308vw" y="1.728314954839702em" fill="#aaa"/><rect width="0.09615384615384616em" height="1.2748150937854748em" x="3.653846153846154vw" y="1.7251849062145252em" fill="#aaa"/><rect width="0.09615384615384616em" height="1.550869470092968em" x="3.75vw" y="1.449130529907032em" fill="#aaa"/><rect width="0.09615384615384616em" height="1.548888603089284em" x="3.8461538461538463vw" y="1.451111396910716em" fill="#aaa"/><rect width="0.09615384615384616em" height="1.5365800901852809em" x="3.9423076923076925vw" y="1.4634199098147191em" fill="#aaa"/><rect width="0.09615384615384616em" height="1.6970252333599727em" x="4.038461538461538vw" y="1.3029747666400273em" fill="#aaa"/><rect width="0.09615384615384616em" height="1.3665278696788306em" x="4.134615384615385vw" y="1.6334721303211694em" fill="#aaa"/><rect width="0.09615384615384616em" height="0.985413131021841em" x="4.230769230769231vw" y="2.014586868978159em" fill="#aaa"/><rect width="0.09615384615384616em" height="2.1843233999432154em" x="4.3269230769230775vw" y="0.8156766000567846em" fill="#aaa"/><rect width="0.09615384615384616em" height="1.4372794094277233em" x="4.423076923076923vw" y="1.5627205905722767em" fill="#aaa"/><rect width="0.09615384615384616em" height="1.1045371016414396em" x="4.519230769230769vw" y="1.8954628983585604em" fill="#aaa"/><rect width="0.09615384615384616em" height="1.2156473078178902em" x="4.615384615384616vw" y="1.7843526921821098em" fill="#aaa"/><rect width="0.09615384615384616em" height="1.576242683287072em" x="4.711538461538462vw" y="1.423757316712928em" fill="#aaa"/><rect width="0.09615384615384616em" height="2.3892705445281512em" x="4.807692307692308vw" y="0.6107294554718488em" fill="#aaa"/><rect width="0.09615384615384616em" height="2.2207633746924746em" x="4.903846153846154vw" y="0.7792366253075254em" fill="#aaa"/><rect width="0.09615384615384616em" height="1.8531306665950424em" x="5vw" y="1.1468693334049576em" fill="#aaa"/><rect width="0.09615384615384616em" height="1.2994727822073922em" x="5.096153846153847vw" y="1.7005272177926078em" fill="#aaa"/><rect width="0.09615384615384616em" height="2.1765362437190072em" x="5.1923076923076925vw" y="0.8234637562809928em" fill="#aaa"/><rect width="0.09615384615384616em" height="1.3173259058858602em" x="5.288461538461538vw" y="1.6826740941141398em" fill="#aaa"/><rect width="0.09615384615384616em" height="1.6246083967330598em" x="5.384615384615385vw" y="1.3753916032669402em" fill="#aaa"/><rect width="0.09615384615384616em" height="1.1653887509526348em" x="5.480769230769231vw" y="1.8346112490473652em" fill="#aaa"/><rect width="0.09615384615384616em" height="1.9256135046381895em" x="5.5769230769230775vw" y="1.0743864953618105em" fill="#aaa"/><rect width="0.09615384615384616em" height="1.2952358458766084em" x="5.673076923076923vw" y="1.7047641541233916em" fill="#aaa"/><rect width="0.09615384615384616em" height="1.9179141508657986em" x="5.769230769230769vw" y="1.0820858491342014em" fill="#aaa"/><rect width="0.09615384615384616em" height="1.1187762300779618em" x="5.865384615384616vw" y="1.8812237699220382em" fill="#aaa"/><rect width="0.09615384615384616em" height="1.6819212347634156em" x="5.961538461538462vw" y="1.3180787652365844em" fill="#aaa"/><rect width="0.09615384615384616em" height="1.8206750600621087em" x="6.057692307692308vw" y="1.1793249399378913em" fill="#aaa"/><rect width="0.09615384615384616em" height="1.747981485623945em" x="6.153846153846154vw" y="1.252018514376055em" fill="#aaa"/><rect width="0.09615384615384616em" height="1.7185965280884399em" x="6.25vw" y="1.2814034719115601em" fill="#aaa"/><rect width="0.09615384615384616em" height="2.5337764152821247em" x="6.346153846153847vw" y="0.4662235847178753em" fill="#aaa"/><rect width="0.09615384615384616em" height="2.372215602685642em" x="6.4423076923076925vw" y="0.627784397314358em" fill="#aaa"/><rect width="0.09615384615384616em" height="1.6158132078521632em" x="6.538461538461539vw" y="1.3841867921478368em" fill="#aaa"/><rect width="0.09615384615384616em" height="2.0020477353759336em" x="6.634615384615385vw" y="0.9979522646240664em" fill="#aaa"/><rect width="0.09615384615384616em" height="2.27968631219386em" x="6.730769230769231vw" y="0.72031368780614em" fill="#aaa"/><rect width="0.09615384615384616em" height="2.5896294265391964em" x="6.8269230769230775vw" y="0.41037057346080363em" fill="#aaa"/><rect width="0.09615384615384616em" height="2.1576162011365314em" x="6.923076923076923vw" y="0.8423837988634686em" fill="#aaa"/><rect width="0.09615384615384616em" height="2.1821962548308544em" x="7.01923076923077vw" y="0.8178037451691456em" fill="#aaa"/><rect width="0.09615384615384616em" height="2.1329529562890017em" x="7.115384615384616vw" y="0.8670470437109983em" fill="#aaa"/><rect width="0.09615384615384616em" height="1.8306150425914174em" x="7.211538461538462vw" y="1.1693849574085826em" fill="#aaa"/><rect width="0.09615384615384616em" height="1.9290561236643886em" x="7.307692307692308vw" y="1.0709438763356114em" fill="#aaa"/><rect width="0.09615384615384616em" height="2.890023694155398em" x="7.403846153846154vw" y="0.10997630584460216em" fill="#aaa"/><rect width="0.09615384615384616em" height="2.329981851287643em" x="7.5vw" y="0.6700181487123569em" fill="#aaa"/><rect width="0.09615384615384616em" height="2.492292839408458em" x="7.596153846153847vw" y="0.5077071605915422em" fill="#aaa"/><rect width="0.09615384615384616em" height="2.503044516964907em" x="7.6923076923076925vw" y="0.49695548303509307em" fill="#aaa"/><rect width="0.09615384615384616em" height="2.562667874533587em" x="7.788461538461539vw" y="0.43733212546641287em" fill="#aaa"/><rect width="0.09615384615384616em" height="2.6058401980784476em" x="7.884615384615385vw" y="0.3941598019215524em" fill="#aaa"/><rect width="0.09615384615384616em" height="2.360788204537551em" x="7.980769230769231vw" y="0.6392117954624492em" fill="#aaa"/><rect width="0.09615384615384616em" height="2.8251677195903424em" x="8.076923076923077vw" y="0.1748322804096576em" fill="#aaa"/><rect width="0.09615384615384616em" height="2.481718046915984em" x="8.173076923076923vw" y="0.5182819530840161em" fill="#aaa"/><rect width="0.09615384615384616em" height="1.8194405612903366em" x="8.26923076923077vw" y="1.1805594387096634em" fill="#aaa"/><rect width="0.09615384615384616em" height="2.9897868866979924em" x="8.365384615384615vw" y="0.010213113302007581em" fill="#aaa"/><rect width="0.09615384615384616em" height="2.3634650725963793em" x="8.461538461538462vw" y="0.6365349274036207em" fill="#aaa"/><rect width="0.09615384615384616em" height="2.628501619696155em" x="8.557692307692308vw" y="0.3714983803038452em" fill="#aaa"/><rect width="0.09615384615384616em" height="2.5211430398259225em" x="8.653846153846155vw" y="0.47885696017407753em" fill="#aaa"/><rect width="0.09615384615384616em" height="2.4377529902446113em" x="8.75vw" y="0.5622470097553887em" fill="#aaa"/><rect width="0.09615384615384616em" height="2.032087266445816em" x="8.846153846153847vw" y="0.9679127335541842em" fill="#aaa"/><rect width="0.09615384615384616em" height="2.532582962502771em" x="8.942307692307693vw" y="0.46741703749722907em" fill="#aaa"/><rect width="0.09615384615384616em" height="2.6393206744064837em" x="9.038461538461538vw" y="0.36067932559351634em" fill="#aaa"/><rect width="0.09615384615384616em" height="2.5043591672224896em" x="9.134615384615385vw" y="0.49564083277751037em" fill="#aaa"/><rect width="0.09615384615384616em" height="2.9406070345344975em" x="9.230769230769232vw" y="0.059392965465502545em" fill="#aaa"/><rect width="0.09615384615384616em" height="2.5645483513078347em" x="9.326923076923077vw" y="0.43545164869216535em" fill="#aaa"/><rect width="0.09615384615384616em" height="2.1354372484474275em" x="9.423076923076923vw" y="0.8645627515525725em" fill="#aaa"/><rect width="0.09615384615384616em" height="2.6505756440604133em" x="9.51923076923077vw" y="0.34942435593958665em" fill="#aaa"/><rect width="0.09615384615384616em" height="2.8388357976457534em" x="9.615384615384617vw" y="0.16116420235424656em" fill="#aaa"/><rect width="0.09615384615384616em" height="2.5674782787447827em" x="9.711538461538462vw" y="0.43252172125521726em" fill="#aaa"/><rect width="0.09615384615384616em" height="3em" x="9.807692307692308vw" y="0em" fill="#aaa"/><rect width="0.09615384615384616em" height="2.0438917811759545em" x="9.903846153846155vw" y="0.9561082188240455em" fill="#aaa"/></svg>