<?xml version="1.0" standalone="no"?>
<svg xmlns:xlink="http://www.w3.org/1999/xlink" xmlns="http://www.w3.org/2000/svg" class="topic-graph" style="width: 10vw; height: 3em; text-align: center;"><rect width="0.09615384615384616em" height="0.052761654460210125em" x="0vw" y="2.9472383455397897em" fill="#aaa"/><rect width="0.09615384615384616em" height="1.511515039514142em" x="0.09615384615384616vw" y="1.488484960485858em" fill="#aaa"/><rect width="0.09615384615384616em" height="0.26513644006745807em" x="0.19230769230769232vw" y="2.734863559932542em" fill="#aaa"/><rect width="0.09615384615384616em" height="0.2685396988960942em" x="0.2884615384615385vw" y="2.7314603011039056em" fill="#aaa"/><rect width="0.09615384615384616em" height="0.017800832340592133em" x="0.38461538461538464vw" y="2.9821991676594077em" fill="#aaa"/><rect width="0.09615384615384616em" height="0.01739604838383781em" x="0.4807692307692308vw" y="2.982603951616162em" fill="#aaa"/><rect width="0.09615384615384616em" height="0.018582077647878753em" x="0.576923076923077vw" y="2.9814179223521213em" fill="#aaa"/><rect width="0.09615384615384616em" height="0.018864655935717276em" x="0.6730769230769231vw" y="2.981135344064283em" fill="#aaa"/><rect width="0.09615384615384616em" height="0.05421201954766637em" x="0.7692307692307693vw" y="2.9457879804523337em" fill="#aaa"/><rect width="0.09615384615384616em" height="0.03035383022708718em" x="0.8653846153846154vw" y="2.9696461697729126em" fill="#aaa"/><rect width="0.09615384615384616em" height="0.036690078977490576em" x="0.9615384615384616vw" y="2.9633099210225096em" fill="#aaa"/><rect width="0.09615384615384616em" height="0.013364854876093017em" x="1.0576923076923077vw" y="2.986635145123907em" fill="#aaa"/><rect width="0.09615384615384616em" height="0.12900162851516295em" x="1.153846153846154vw" y="2.870998371484837em" fill="#aaa"/><rect width="0.09615384615384616em" height="0.22121666093291875em" x="1.25vw" y="2.7787833390670813em" fill="#aaa"/><rect width="0.09615384615384616em" height="0.11036176288279922em" x="1.3461538461538463vw" y="2.8896382371172007em" fill="#aaa"/><rect width="0.09615384615384616em" height="0.20365843889540802em" x="1.4423076923076923vw" y="2.796341561104592em" fill="#aaa"/><rect width="0.09615384615384616em" height="0.30605833195887916em" x="1.5384615384615385vw" y="2.693941668041121em" fill="#aaa"/><rect width="0.09615384615384616em" height="0.10274180425321588em" x="1.6346153846153848vw" y="2.897258195746784em" fill="#aaa"/><rect width="0.09615384615384616em" height="0.03930309955524918em" x="1.7307692307692308vw" y="2.9606969004447508em" fill="#aaa"/><rect width="0.09615384615384616em" height="0.04148729502210559em" x="1.826923076923077vw" y="2.9585127049778945em" fill="#aaa"/><rect width="0.09615384615384616em" height="0.00888262327097054em" x="1.9230769230769231vw" y="2.9911173767290293em" fill="#aaa"/><rect width="0.09615384615384616em" height="0.12482993088183021em" x="2.019230769230769vw" y="2.8751700691181696em" fill="#aaa"/><rect width="0.09615384615384616em" height="0.03201898446644168em" x="2.1153846153846154vw" y="2.9679810155335584em" fill="#aaa"/><rect width="0.09615384615384616em" height="0.23121635361294776em" x="2.2115384615384617vw" y="2.7687836463870523em" fill="#aaa"/><rect width="0.09615384615384616em" height="0.0069294823020370645em" x="2.307692307692308vw" y="2.993070517697963em" fill="#aaa"/><rect width="0.09615384615384616em" height="0.036034940475873925em" x="2.403846153846154vw" y="2.963965059524126em" fill="#aaa"/><rect width="0.09615384615384616em" height="0.06297716037073858em" x="2.5vw" y="2.9370228396292615em" fill="#aaa"/><rect width="0.09615384615384616em" height="0.047280512720060536em" x="2.5961538461538463vw" y="2.9527194872799396em" fill="#aaa"/><rect width="0.09615384615384616em" height="0.03820794183998723em" x="2.6923076923076925vw" y="2.961792058160013em" fill="#aaa"/><rect width="0.09615384615384616em" height="0.008190898682458087em" x="2.7884615384615388vw" y="2.991809101317542em" fill="#aaa"/><rect width="0.09615384615384616em" height="0.07472407304761804em" x="2.8846153846153846vw" y="2.925275926952382em" fill="#aaa"/><rect width="0.09615384615384616em" height="0.05994303800854675em" x="2.980769230769231vw" y="2.9400569619914534em" fill="#aaa"/><rect width="0.09615384615384616em" height="0.15533053687114132em" x="3.076923076923077vw" y="2.8446694631288585em" fill="#aaa"/><rect width="0.09615384615384616em" height="0.01533037225403134em" x="3.1730769230769234vw" y="2.984669627745969em" fill="#aaa"/><rect width="0.09615384615384616em" height="0.05427815777658103em" x="3.2692307692307696vw" y="2.945721842223419em" fill="#aaa"/><rect width="0.09615384615384616em" height="0.042937763368638464em" x="3.3653846153846154vw" y="2.9570622366313617em" fill="#aaa"/><rect width="0.09615384615384616em" height="0.06942801447469418em" x="3.4615384615384617vw" y="2.930571985525306em" fill="#aaa"/><rect width="0.09615384615384616em" height="0.16937492826270856em" x="3.557692307692308vw" y="2.8306250717372916em" fill="#aaa"/><rect width="0.09615384615384616em" height="0.21753493727932632em" x="3.653846153846154vw" y="2.7824650627206737em" fill="#aaa"/><rect width="0.09615384615384616em" height="0.31148842608325866em" x="3.75vw" y="2.6885115739167413em" fill="#aaa"/><rect width="0.09615384615384616em" height="0.323774590203838em" x="3.8461538461538463vw" y="2.676225409796162em" fill="#aaa"/><rect width="0.09615384615384616em" height="0.47145081955722645em" x="3.9423076923076925vw" y="2.5285491804427735em" fill="#aaa"/><rect width="0.09615384615384616em" height="0.534428939583101em" x="4.038461538461538vw" y="2.4655710604168988em" fill="#aaa"/><rect width="0.09615384615384616em" height="0.04799472735328106em" x="4.134615384615385vw" y="2.9520052726467187em" fill="#aaa"/><rect width="0.09615384615384616em" height="0.13502978554574666em" x="4.230769230769231vw" y="2.8649702144542535em" fill="#aaa"/><rect width="0.09615384615384616em" height="0.1212257274120021em" x="4.3269230769230775vw" y="2.878774272587998em" fill="#aaa"/><rect width="0.09615384615384616em" height="0.11716403988300558em" x="4.423076923076923vw" y="2.8828359601169944em" fill="#aaa"/><rect width="0.09615384615384616em" height="0.1791370236416555em" x="4.519230769230769vw" y="2.8208629763583444em" fill="#aaa"/><rect width="0.09615384615384616em" height="0.14291456648876597em" x="4.615384615384616vw" y="2.857085433511234em" fill="#aaa"/><rect width="0.09615384615384616em" height="0.2534936611651038em" x="4.711538461538462vw" y="2.7465063388348963em" fill="#aaa"/><rect width="0.09615384615384616em" height="0.5155774257686956em" x="4.807692307692308vw" y="2.4844225742313046em" fill="#aaa"/><rect width="0.09615384615384616em" height="0.20157149345173742em" x="4.903846153846154vw" y="2.7984285065482624em" fill="#aaa"/><rect width="0.09615384615384616em" height="0.31077748562029045em" x="5vw" y="2.6892225143797095em" fill="#aaa"/><rect width="0.09615384615384616em" height="0.21499827566512086em" x="5.096153846153847vw" y="2.785001724334879em" fill="#aaa"/><rect width="0.09615384615384616em" height="0.3910200114427158em" x="5.1923076923076925vw" y="2.608979988557284em" fill="#aaa"/><rect width="0.09615384615384616em" height="0.42529028753401443em" x="5.288461538461538vw" y="2.5747097124659857em" fill="#aaa"/><rect width="0.09615384615384616em" height="1.622559298872728em" x="5.384615384615385vw" y="1.377440701127272em" fill="#aaa"/><rect width="0.09615384615384616em" height="3em" x="5.480769230769231vw" y="0em" fill="#aaa"/><rect width="0.09615384615384616em" height="1.2714730425735339em" x="5.5769230769230775vw" y="1.7285269574264661em" fill="#aaa"/><rect width="0.09615384615384616em" height="2.526243138528004em" x="5.673076923076923vw" y="0.4737568614719958em" fill="#aaa"/><rect width="0.09615384615384616em" height="1.256075083772665em" x="5.769230769230769vw" y="1.743924916227335em" fill="#aaa"/><rect width="0.09615384615384616em" height="1.841510454799523em" x="5.865384615384616vw" y="1.158489545200477em" fill="#aaa"/><rect width="0.09615384615384616em" height="0.8130044181836349em" x="5.961538461538462vw" y="2.1869955818163653em" fill="#aaa"/><rect width="0.09615384615384616em" height="1.3996724132199023em" x="6.057692307692308vw" y="1.6003275867800977em" fill="#aaa"/><rect width="0.09615384615384616em" height="0.49846938646795047em" x="6.153846153846154vw" y="2.5015306135320494em" fill="#aaa"/><rect width="0.09615384615384616em" height="0.9422064812410776em" x="6.25vw" y="2.0577935187589222em" fill="#aaa"/><rect width="0.09615384615384616em" height="1.2955679599403345em" x="6.346153846153847vw" y="1.7044320400596655em" fill="#aaa"/><rect width="0.09615384615384616em" height="0.6323039589009432em" x="6.4423076923076925vw" y="2.367696041099057em" fill="#aaa"/><rect width="0.09615384615384616em" height="1.0008685773223145em" x="6.538461538461539vw" y="1.9991314226776855em" fill="#aaa"/><rect width="0.09615384615384616em" height="0.462900570753092em" x="6.634615384615385vw" y="2.537099429246908em" fill="#aaa"/><rect width="0.09615384615384616em" height="0.5974911533036295em" x="6.730769230769231vw" y="2.4025088466963704em" fill="#aaa"/><rect width="0.09615384615384616em" height="0.7683061107956859em" x="6.8269230769230775vw" y="2.231693889204314em" fill="#aaa"/><rect width="0.09615384615384616em" height="0.8198265698601527em" x="6.923076923076923vw" y="2.180173430139847em" fill="#aaa"/><rect width="0.09615384615384616em" height="0.6186871905948301em" x="7.01923076923077vw" y="2.38131280940517em" fill="#aaa"/><rect width="0.09615384615384616em" height="0.26367942422248075em" x="7.115384615384616vw" y="2.736320575777519em" fill="#aaa"/><rect width="0.09615384615384616em" height="0.3969673907446581em" x="7.211538461538462vw" y="2.603032609255342em" fill="#aaa"/><rect width="0.09615384615384616em" height="0.3311698223155947em" x="7.307692307692308vw" y="2.6688301776844052em" fill="#aaa"/><rect width="0.09615384615384616em" height="0.2726891415794749em" x="7.403846153846154vw" y="2.727310858420525em" fill="#aaa"/><rect width="0.09615384615384616em" height="0.3077882200998921em" x="7.5vw" y="2.692211779900108em" fill="#aaa"/><rect width="0.09615384615384616em" height="0.34290996597226464em" x="7.596153846153847vw" y="2.6570900340277355em" fill="#aaa"/><rect width="0.09615384615384616em" height="0.5493106939105743em" x="7.6923076923076925vw" y="2.4506893060894255em" fill="#aaa"/><rect width="0.09615384615384616em" height="0.4316212947634895em" x="7.788461538461539vw" y="2.5683787052365106em" fill="#aaa"/><rect width="0.09615384615384616em" height="0.25876256490063027em" x="7.884615384615385vw" y="2.74123743509937em" fill="#aaa"/><rect width="0.09615384615384616em" height="0.25273833954896796em" x="7.980769230769231vw" y="2.747261660451032em" fill="#aaa"/><rect width="0.09615384615384616em" height="0.5284638660827239em" x="8.076923076923077vw" y="2.471536133917276em" fill="#aaa"/><rect width="0.09615384615384616em" height="0.30278122070371316em" x="8.173076923076923vw" y="2.697218779296287em" fill="#aaa"/><rect width="0.09615384615384616em" height="0.06593019813889882em" x="8.26923076923077vw" y="2.934069801861101em" fill="#aaa"/><rect width="0.09615384615384616em" height="0.17695036592856783em" x="8.365384615384615vw" y="2.823049634071432em" fill="#aaa"/><rect width="0.09615384615384616em" height="0.3365777151872937em" x="8.461538461538462vw" y="2.6634222848127065em" fill="#aaa"/><rect width="0.09615384615384616em" height="0.36783367247914833em" x="8.557692307692308vw" y="2.6321663275208516em" fill="#aaa"/><rect width="0.09615384615384616em" height="0.20185476234433608em" x="8.653846153846155vw" y="2.798145237655664em" fill="#aaa"/><rect width="0.09615384615384616em" height="0.0839132221898265em" x="8.75vw" y="2.9160867778101736em" fill="#aaa"/><rect width="0.09615384615384616em" height="0.1416361790525304em" x="8.846153846153847vw" y="2.8583638209474698em" fill="#aaa"/><rect width="0.09615384615384616em" height="0.23943261455236314em" x="8.942307692307693vw" y="2.760567385447637em" fill="#aaa"/><rect width="0.09615384615384616em" height="0.10539697367788489em" x="9.038461538461538vw" y="2.894603026322115em" fill="#aaa"/><rect width="0.09615384615384616em" height="0.2607980240470342em" x="9.134615384615385vw" y="2.739201975952966em" fill="#aaa"/><rect width="0.09615384615384616em" height="0.19010042736387456em" x="9.230769230769232vw" y="2.8098995726361253em" fill="#aaa"/><rect width="0.09615384615384616em" height="0.1757761906905329em" x="9.326923076923077vw" y="2.824223809309467em" fill="#aaa"/><rect width="0.09615384615384616em" height="0.3279602470707821em" x="9.423076923076923vw" y="2.672039752929218em" fill="#aaa"/><rect width="0.09615384615384616em" height="0.18466140133231157em" x="9.51923076923077vw" y="2.8153385986676884em" fill="#aaa"/><rect width="0.09615384615384616em" height="0.12339310083307908em" x="9.615384615384617vw" y="2.876606899166921em" fill="#aaa"/><rect width="0.09615384615384616em" height="0.13320321659783635em" x="9.711538461538462vw" y="2.8667967834021635em" fill="#aaa"/><rect width="0.09615384615384616em" height="0.19826796535866953em" x="9.807692307692308vw" y="2.8017320346413306em" fill="#aaa"/><rect width="0.09615384615384616em" height="0.13744816355814612em" x="9.903846153846155vw" y="2.862551836441854em" fill="#aaa"/></svg>