<?xml version="1.0" standalone="no"?>
<svg xmlns:xlink="http://www.w3.org/1999/xlink" xmlns="http://www.w3.org/2000/svg" class="topic-graph" style="width: 100em; height: 30em; text-align: center;"><rect width="0.9615384615384616em" height="0.2592518408552501em" x="0em" y="29.74074815914475em" fill="#aaa"/><rect width="0.9615384615384616em" height="0.41546127904594393em" x="0.9615384615384616em" y="29.584538720954058em" fill="#aaa"/><rect width="0.9615384615384616em" height="0.1626667067299713em" x="1.9230769230769231em" y="29.837333293270028em" fill="#aaa"/><rect width="0.9615384615384616em" height="0.7823016419558497em" x="2.8846153846153846em" y="29.21769835804415em" fill="#aaa"/><rect width="0.9615384615384616em" height="0.38332414052135144em" x="3.8461538461538463em" y="29.616675859478647em" fill="#aaa"/><rect width="0.9615384615384616em" height="9.226626324984752em" x="4.8076923076923075em" y="20.77337367501525em" fill="#aaa"/><rect width="0.9615384615384616em" height="0.18411308443193833em" x="5.769230769230769em" y="29.81588691556806em" fill="#aaa"/><rect width="0.9615384615384616em" height="0.1391711285341595em" x="6.730769230769231em" y="29.86082887146584em" fill="#aaa"/><rect width="0.9615384615384616em" height="0.35575860160347317em" x="7.6923076923076925em" y="29.644241398396527em" fill="#aaa"/><rect width="0.9615384615384616em" height="1.0179037044426793em" x="8.653846153846153em" y="28.98209629555732em" fill="#aaa"/><rect width="0.9615384615384616em" height="0.2875953438118143em" x="9.615384615384615em" y="29.712404656188184em" fill="#aaa"/><rect width="0.9615384615384616em" height="0.27717032860955293em" x="10.576923076923077em" y="29.722829671390446em" fill="#aaa"/><rect width="0.9615384615384616em" height="2.5484675539904527em" x="11.538461538461538em" y="27.451532446009548em" fill="#aaa"/><rect width="0.9615384615384616em" height="0.8654299404677721em" x="12.5em" y="29.134570059532226em" fill="#aaa"/><rect width="0.9615384615384616em" height="1.0715862686937372em" x="13.461538461538462em" y="28.928413731306264em" fill="#aaa"/><rect width="0.9615384615384616em" height="0.44903969082942535em" x="14.423076923076923em" y="29.550960309170573em" fill="#aaa"/><rect width="0.9615384615384616em" height="0.5202490295156543em" x="15.384615384615385em" y="29.479750970484346em" fill="#aaa"/><rect width="0.9615384615384616em" height="1.4490998428989836em" x="16.346153846153847em" y="28.550900157101015em" fill="#aaa"/><rect width="0.9615384615384616em" height="4.020988738981986em" x="17.307692307692307em" y="25.979011261018016em" fill="#aaa"/><rect width="0.9615384615384616em" height="8.256651119592737em" x="18.26923076923077em" y="21.74334888040726em" fill="#aaa"/><rect width="0.9615384615384616em" height="10.576093967639139em" x="19.23076923076923em" y="19.42390603236086em" fill="#aaa"/><rect width="0.9615384615384616em" height="2.471011675209943em" x="20.192307692307693em" y="27.528988324790056em" fill="#aaa"/><rect width="0.9615384615384616em" height="0.3307656990062081em" x="21.153846153846153em" y="29.669234300993793em" fill="#aaa"/><rect width="0.9615384615384616em" height="0.6990042827370345em" x="22.115384615384617em" y="29.300995717262964em" fill="#aaa"/><rect width="0.9615384615384616em" height="2.9819908476661694em" x="23.076923076923077em" y="27.018009152333832em" fill="#aaa"/><rect width="0.9615384615384616em" height="2.8027951538499183em" x="24.03846153846154em" y="27.197204846150083em" fill="#aaa"/><rect width="0.9615384615384616em" height="0.8650936869184354em" x="25em" y="29.134906313081565em" fill="#aaa"/><rect width="0.9615384615384616em" height="5.02369066573854em" x="25.961538461538463em" y="24.976309334261458em" fill="#aaa"/><rect width="0.9615384615384616em" height="1.3713120306190187em" x="26.923076923076923em" y="28.62868796938098em" fill="#aaa"/><rect width="0.9615384615384616em" height="8.215013841161218em" x="27.884615384615387em" y="21.784986158838784em" fill="#aaa"/><rect width="0.9615384615384616em" height="0.5954268589052156em" x="28.846153846153847em" y="29.404573141094783em" fill="#aaa"/><rect width="0.9615384615384616em" height="8.757727369154527em" x="29.80769230769231em" y="21.242272630845473em" fill="#aaa"/><rect width="0.9615384615384616em" height="8.456175783579981em" x="30.76923076923077em" y="21.54382421642002em" fill="#aaa"/><rect width="0.9615384615384616em" height="3.338605243213649em" x="31.73076923076923em" y="26.66139475678635em" fill="#aaa"/><rect width="0.9615384615384616em" height="1.2655928937402365em" x="32.69230769230769em" y="28.734407106259763em" fill="#aaa"/><rect width="0.9615384615384616em" height="0.60989787641243em" x="33.65384615384615em" y="29.39010212358757em" fill="#aaa"/><rect width="0.9615384615384616em" height="3.6002256912480997em" x="34.61538461538461em" y="26.3997743087519em" fill="#aaa"/><rect width="0.9615384615384616em" height="4.714759009762524em" x="35.57692307692308em" y="25.285240990237476em" fill="#aaa"/><rect width="0.9615384615384616em" height="1.2570740059405625em" x="36.53846153846154em" y="28.742925994059437em" fill="#aaa"/><rect width="0.9615384615384616em" height="4.0072208065595065em" x="37.5em" y="25.992779193440494em" fill="#aaa"/><rect width="0.9615384615384616em" height="7.1651776871909885em" x="38.46153846153846em" y="22.83482231280901em" fill="#aaa"/><rect width="0.9615384615384616em" height="2.197135989204452em" x="39.42307692307693em" y="27.80286401079555em" fill="#aaa"/><rect width="0.9615384615384616em" height="3.1166936974949246em" x="40.38461538461539em" y="26.883306302505076em" fill="#aaa"/><rect width="0.9615384615384616em" height="1.1044575719709933em" x="41.34615384615385em" y="28.895542428029007em" fill="#aaa"/><rect width="0.9615384615384616em" height="3.7893590696862316em" x="42.30769230769231em" y="26.21064093031377em" fill="#aaa"/><rect width="0.9615384615384616em" height="15.893178968923289em" x="43.269230769230774em" y="14.106821031076711em" fill="#aaa"/><rect width="0.9615384615384616em" height="7.587849365165055em" x="44.23076923076923em" y="22.412150634834944em" fill="#aaa"/><rect width="0.9615384615384616em" height="29.40989133275408em" x="45.19230769230769em" y="0.5901086672459215em" fill="#aaa"/><rect width="0.9615384615384616em" height="9.399683641972402em" x="46.15384615384615em" y="20.600316358027598em" fill="#aaa"/><rect width="0.9615384615384616em" height="12.986575425982434em" x="47.11538461538461em" y="17.013424574017566em" fill="#aaa"/><rect width="0.9615384615384616em" height="30em" x="48.07692307692308em" y="0em" fill="#aaa"/><rect width="0.9615384615384616em" height="20.408804536705em" x="49.03846153846154em" y="9.591195463295001em" fill="#aaa"/><rect width="0.9615384615384616em" height="13.983681491120098em" x="50em" y="16.016318508879902em" fill="#aaa"/><rect width="0.9615384615384616em" height="1.9966217471941574em" x="50.96153846153846em" y="28.00337825280584em" fill="#aaa"/><rect width="0.9615384615384616em" height="4.690970300874536em" x="51.92307692307693em" y="25.309029699125464em" fill="#aaa"/><rect width="0.9615384615384616em" height="5.677954727022646em" x="52.88461538461539em" y="24.322045272977356em" fill="#aaa"/><rect width="0.9615384615384616em" height="7.1589960126093795em" x="53.84615384615385em" y="22.84100398739062em" fill="#aaa"/><rect width="0.9615384615384616em" height="8.326906245630832em" x="54.80769230769231em" y="21.67309375436917em" fill="#aaa"/><rect width="0.9615384615384616em" height="5.493057946937851em" x="55.769230769230774em" y="24.506942053062147em" fill="#aaa"/><rect width="0.9615384615384616em" height="7.330582533197473em" x="56.73076923076923em" y="22.66941746680253em" fill="#aaa"/><rect width="0.9615384615384616em" height="2.294611774884264em" x="57.69230769230769em" y="27.705388225115737em" fill="#aaa"/><rect width="0.9615384615384616em" height="4.975912494988267em" x="58.65384615384615em" y="25.02408750501173em" fill="#aaa"/><rect width="0.9615384615384616em" height="15.366535364553892em" x="59.61538461538462em" y="14.633464635446108em" fill="#aaa"/><rect width="0.9615384615384616em" height="13.977634403139477em" x="60.57692307692308em" y="16.022365596860524em" fill="#aaa"/><rect width="0.9615384615384616em" height="2.406738288222149em" x="61.53846153846154em" y="27.59326171177785em" fill="#aaa"/><rect width="0.9615384615384616em" height="7.066418600352445em" x="62.5em" y="22.933581399647554em" fill="#aaa"/><rect width="0.9615384615384616em" height="9.865498675721888em" x="63.46153846153846em" y="20.134501324278112em" fill="#aaa"/><rect width="0.9615384615384616em" height="9.996027295219854em" x="64.42307692307692em" y="20.003972704780146em" fill="#aaa"/><rect width="0.9615384615384616em" height="9.588500895972642em" x="65.38461538461539em" y="20.411499104027357em" fill="#aaa"/><rect width="0.9615384615384616em" height="7.680301159014836em" x="66.34615384615385em" y="22.319698840985165em" fill="#aaa"/><rect width="0.9615384615384616em" height="6.816370679177037em" x="67.3076923076923em" y="23.183629320822963em" fill="#aaa"/><rect width="0.9615384615384616em" height="14.46396505742305em" x="68.26923076923077em" y="15.53603494257695em" fill="#aaa"/><rect width="0.9615384615384616em" height="19.377708442809986em" x="69.23076923076923em" y="10.622291557190014em" fill="#aaa"/><rect width="0.9615384615384616em" height="8.161645555278685em" x="70.1923076923077em" y="21.838354444721315em" fill="#aaa"/><rect width="0.9615384615384616em" height="7.131293717994672em" x="71.15384615384616em" y="22.868706282005327em" fill="#aaa"/><rect width="0.9615384615384616em" height="15.130889224193531em" x="72.11538461538461em" y="14.869110775806469em" fill="#aaa"/><rect width="0.9615384615384616em" height="5.233082075759935em" x="73.07692307692308em" y="24.766917924240065em" fill="#aaa"/><rect width="0.9615384615384616em" height="5.0740489757885445em" x="74.03846153846155em" y="24.925951024211457em" fill="#aaa"/><rect width="0.9615384615384616em" height="6.665302611170517em" x="75em" y="23.334697388829483em" fill="#aaa"/><rect width="0.9615384615384616em" height="7.991183991015634em" x="75.96153846153847em" y="22.008816008984365em" fill="#aaa"/><rect width="0.9615384615384616em" height="4.602900237901557em" x="76.92307692307692em" y="25.397099762098442em" fill="#aaa"/><rect width="0.9615384615384616em" height="8.284551664489584em" x="77.88461538461539em" y="21.715448335510416em" fill="#aaa"/><rect width="0.9615384615384616em" height="16.123233408189506em" x="78.84615384615385em" y="13.876766591810494em" fill="#aaa"/><rect width="0.9615384615384616em" height="6.547339577343579em" x="79.8076923076923em" y="23.45266042265642em" fill="#aaa"/><rect width="0.9615384615384616em" height="8.801494947752557em" x="80.76923076923077em" y="21.19850505224744em" fill="#aaa"/><rect width="0.9615384615384616em" height="10.608651304955213em" x="81.73076923076923em" y="19.391348695044787em" fill="#aaa"/><rect width="0.9615384615384616em" height="13.273945192228293em" x="82.6923076923077em" y="16.726054807771707em" fill="#aaa"/><rect width="0.9615384615384616em" height="4.507308919843586em" x="83.65384615384616em" y="25.492691080156412em" fill="#aaa"/><rect width="0.9615384615384616em" height="9.857381692598933em" x="84.61538461538461em" y="20.142618307401065em" fill="#aaa"/><rect width="0.9615384615384616em" height="6.7721183787164545em" x="85.57692307692308em" y="23.227881621283544em" fill="#aaa"/><rect width="0.9615384615384616em" height="7.027731642946297em" x="86.53846153846155em" y="22.972268357053704em" fill="#aaa"/><rect width="0.9615384615384616em" height="8.743164119248489em" x="87.5em" y="21.25683588075151em" fill="#aaa"/><rect width="0.9615384615384616em" height="4.053762869168923em" x="88.46153846153847em" y="25.946237130831076em" fill="#aaa"/><rect width="0.9615384615384616em" height="6.73991358179742em" x="89.42307692307692em" y="23.26008641820258em" fill="#aaa"/><rect width="0.9615384615384616em" height="6.863023562145802em" x="90.38461538461539em" y="23.136976437854198em" fill="#aaa"/><rect width="0.9615384615384616em" height="7.065707258118349em" x="91.34615384615385em" y="22.934292741881652em" fill="#aaa"/><rect width="0.9615384615384616em" height="10.078749853968988em" x="92.3076923076923em" y="19.921250146031014em" fill="#aaa"/><rect width="0.9615384615384616em" height="5.282146336474715em" x="93.26923076923077em" y="24.717853663525286em" fill="#aaa"/><rect width="0.9615384615384616em" height="2.758122339911055em" x="94.23076923076923em" y="27.241877660088946em" fill="#aaa"/><rect width="0.9615384615384616em" height="5.785411037251732em" x="95.1923076923077em" y="24.214588962748266em" fill="#aaa"/><rect width="0.9615384615384616em" height="3.2420575612028615em" x="96.15384615384616em" y="26.757942438797137em" fill="#aaa"/><rect width="0.9615384615384616em" height="3.179436908257771em" x="97.11538461538461em" y="26.82056309174223em" fill="#aaa"/><rect width="0.9615384615384616em" height="4.157903289822006em" x="98.07692307692308em" y="25.842096710177994em" fill="#aaa"/><rect width="0.9615384615384616em" height="4.31001897350849em" x="99.03846153846155em" y="25.68998102649151em" fill="#aaa"/></svg>