<?xml version="1.0" standalone="no"?>
<svg xmlns:xlink="http://www.w3.org/1999/xlink" xmlns="http://www.w3.org/2000/svg" class="topic-graph" style="width: 10vw; height: 3em; text-align: center;"><rect width="0.09615384615384616em" height="0.8649972979760547em" x="0vw" y="2.1350027020239453em" fill="#aaa"/><rect width="0.09615384615384616em" height="1.558870610914746em" x="0.09615384615384616vw" y="1.441129389085254em" fill="#aaa"/><rect width="0.09615384615384616em" height="2.4948948347358977em" x="0.19230769230769232vw" y="0.5051051652641023em" fill="#aaa"/><rect width="0.09615384615384616em" height="1.2707428900653444em" x="0.2884615384615385vw" y="1.7292571099346556em" fill="#aaa"/><rect width="0.09615384615384616em" height="0.9068354621945499em" x="0.38461538461538464vw" y="2.09316453780545em" fill="#aaa"/><rect width="0.09615384615384616em" height="1.3444563522288295em" x="0.4807692307692308vw" y="1.6555436477711705em" fill="#aaa"/><rect width="0.09615384615384616em" height="1.8573943274270897em" x="0.576923076923077vw" y="1.1426056725729103em" fill="#aaa"/><rect width="0.09615384615384616em" height="1.27872452616601em" x="0.6730769230769231vw" y="1.72127547383399em" fill="#aaa"/><rect width="0.09615384615384616em" height="2.874938404201302em" x="0.7692307692307693vw" y="0.12506159579869802em" fill="#aaa"/><rect width="0.09615384615384616em" height="1.583716549977075em" x="0.8653846153846154vw" y="1.416283450022925em" fill="#aaa"/><rect width="0.09615384615384616em" height="0.6909126498642684em" x="0.9615384615384616vw" y="2.309087350135732em" fill="#aaa"/><rect width="0.09615384615384616em" height="1.5874456563990562em" x="1.0576923076923077vw" y="1.4125543436009438em" fill="#aaa"/><rect width="0.09615384615384616em" height="2.680869500490858em" x="1.153846153846154vw" y="0.31913049950914196em" fill="#aaa"/><rect width="0.09615384615384616em" height="2.0562765120251996em" x="1.25vw" y="0.9437234879748004em" fill="#aaa"/><rect width="0.09615384615384616em" height="1.612540815628892em" x="1.3461538461538463vw" y="1.387459184371108em" fill="#aaa"/><rect width="0.09615384615384616em" height="2.0395759175522983em" x="1.4423076923076923vw" y="0.9604240824477017em" fill="#aaa"/><rect width="0.09615384615384616em" height="1.312034891829423em" x="1.5384615384615385vw" y="1.687965108170577em" fill="#aaa"/><rect width="0.09615384615384616em" height="2.495652807835516em" x="1.6346153846153848vw" y="0.504347192164484em" fill="#aaa"/><rect width="0.09615384615384616em" height="2.353040028409371em" x="1.7307692307692308vw" y="0.6469599715906291em" fill="#aaa"/><rect width="0.09615384615384616em" height="2.8686577197143888em" x="1.826923076923077vw" y="0.13134228028561123em" fill="#aaa"/><rect width="0.09615384615384616em" height="1.5914149745935302em" x="1.9230769230769231vw" y="1.4085850254064698em" fill="#aaa"/><rect width="0.09615384615384616em" height="2.2215978236322353em" x="2.019230769230769vw" y="0.7784021763677647em" fill="#aaa"/><rect width="0.09615384615384616em" height="3em" x="2.1153846153846154vw" y="0em" fill="#aaa"/><rect width="0.09615384615384616em" height="1.7010409547714047em" x="2.2115384615384617vw" y="1.2989590452285953em" fill="#aaa"/><rect width="0.09615384615384616em" height="1.1720211927412651em" x="2.307692307692308vw" y="1.8279788072587349em" fill="#aaa"/><rect width="0.09615384615384616em" height="1.5812679396195846em" x="2.403846153846154vw" y="1.4187320603804154em" fill="#aaa"/><rect width="0.09615384615384616em" height="1.4378791676001703em" x="2.5vw" y="1.5621208323998297em" fill="#aaa"/><rect width="0.09615384615384616em" height="1.6564998475404111em" x="2.5961538461538463vw" y="1.3435001524595889em" fill="#aaa"/><rect width="0.09615384615384616em" height="2.1969117544306456em" x="2.6923076923076925vw" y="0.8030882455693544em" fill="#aaa"/><rect width="0.09615384615384616em" height="1.7968847497809137em" x="2.7884615384615388vw" y="1.2031152502190863em" fill="#aaa"/><rect width="0.09615384615384616em" height="2.2399288342671353em" x="2.8846153846153846vw" y="0.7600711657328647em" fill="#aaa"/><rect width="0.09615384615384616em" height="2.621988478769756em" x="2.980769230769231vw" y="0.3780115212302442em" fill="#aaa"/><rect width="0.09615384615384616em" height="1.9901242514438993em" x="3.076923076923077vw" y="1.0098757485561007em" fill="#aaa"/><rect width="0.09615384615384616em" height="1.9608408907776225em" x="3.1730769230769234vw" y="1.0391591092223775em" fill="#aaa"/><rect width="0.09615384615384616em" height="1.2779292230863695em" x="3.2692307692307696vw" y="1.7220707769136305em" fill="#aaa"/><rect width="0.09615384615384616em" height="1.4934015113787786em" x="3.3653846153846154vw" y="1.5065984886212214em" fill="#aaa"/><rect width="0.09615384615384616em" height="1.5914753957612602em" x="3.4615384615384617vw" y="1.4085246042387398em" fill="#aaa"/><rect width="0.09615384615384616em" height="1.4916643810099617em" x="3.557692307692308vw" y="1.5083356189900383em" fill="#aaa"/><rect width="0.09615384615384616em" height="1.570518038749645em" x="3.653846153846154vw" y="1.429481961250355em" fill="#aaa"/><rect width="0.09615384615384616em" height="2.412165298268999em" x="3.75vw" y="0.5878347017310008em" fill="#aaa"/><rect width="0.09615384615384616em" height="2.2468039144724568em" x="3.8461538461538463vw" y="0.7531960855275432em" fill="#aaa"/><rect width="0.09615384615384616em" height="2.3591927296101103em" x="3.9423076923076925vw" y="0.6408072703898897em" fill="#aaa"/><rect width="0.09615384615384616em" height="1.991814000045204em" x="4.038461538461538vw" y="1.008185999954796em" fill="#aaa"/><rect width="0.09615384615384616em" height="1.8415837747997132em" x="4.134615384615385vw" y="1.1584162252002868em" fill="#aaa"/><rect width="0.09615384615384616em" height="1.4163848980788933em" x="4.230769230769231vw" y="1.5836151019211067em" fill="#aaa"/><rect width="0.09615384615384616em" height="2.3437682400742883em" x="4.3269230769230775vw" y="0.6562317599257117em" fill="#aaa"/><rect width="0.09615384615384616em" height="0.9786740242532409em" x="4.423076923076923vw" y="2.021325975746759em" fill="#aaa"/><rect width="0.09615384615384616em" height="1.705535904429361em" x="4.519230769230769vw" y="1.294464095570639em" fill="#aaa"/><rect width="0.09615384615384616em" height="1.2669760685453269em" x="4.615384615384616vw" y="1.7330239314546731em" fill="#aaa"/><rect width="0.09615384615384616em" height="1.0558957169060839em" x="4.711538461538462vw" y="1.9441042830939161em" fill="#aaa"/><rect width="0.09615384615384616em" height="1.2439260204078142em" x="4.807692307692308vw" y="1.7560739795921858em" fill="#aaa"/><rect width="0.09615384615384616em" height="1.301776054842684em" x="4.903846153846154vw" y="1.698223945157316em" fill="#aaa"/><rect width="0.09615384615384616em" height="1.2849192954394735em" x="5vw" y="1.7150807045605265em" fill="#aaa"/><rect width="0.09615384615384616em" height="0.9038861516482527em" x="5.096153846153847vw" y="2.0961138483517474em" fill="#aaa"/><rect width="0.09615384615384616em" height="0.8306765490113963em" x="5.1923076923076925vw" y="2.1693234509886037em" fill="#aaa"/><rect width="0.09615384615384616em" height="1.0640804386508256em" x="5.288461538461538vw" y="1.9359195613491744em" fill="#aaa"/><rect width="0.09615384615384616em" height="1.0319011793961446em" x="5.384615384615385vw" y="1.9680988206038554em" fill="#aaa"/><rect width="0.09615384615384616em" height="1.1324587848970153em" x="5.480769230769231vw" y="1.8675412151029847em" fill="#aaa"/><rect width="0.09615384615384616em" height="1.716859121679377em" x="5.5769230769230775vw" y="1.283140878320623em" fill="#aaa"/><rect width="0.09615384615384616em" height="1.3200346876754194em" x="5.673076923076923vw" y="1.6799653123245806em" fill="#aaa"/><rect width="0.09615384615384616em" height="1.7771700910985775em" x="5.769230769230769vw" y="1.2228299089014225em" fill="#aaa"/><rect width="0.09615384615384616em" height="0.8405430073742584em" x="5.865384615384616vw" y="2.1594569926257416em" fill="#aaa"/><rect width="0.09615384615384616em" height="1.0244645920565603em" x="5.961538461538462vw" y="1.9755354079434397em" fill="#aaa"/><rect width="0.09615384615384616em" height="1.6113779451517276em" x="6.057692307692308vw" y="1.3886220548482724em" fill="#aaa"/><rect width="0.09615384615384616em" height="1.1827919051647453em" x="6.153846153846154vw" y="1.8172080948352547em" fill="#aaa"/><rect width="0.09615384615384616em" height="1.207032720729367em" x="6.25vw" y="1.792967279270633em" fill="#aaa"/><rect width="0.09615384615384616em" height="1.3448333818497145em" x="6.346153846153847vw" y="1.6551666181502855em" fill="#aaa"/><rect width="0.09615384615384616em" height="1.2296683931329997em" x="6.4423076923076925vw" y="1.7703316068670003em" fill="#aaa"/><rect width="0.09615384615384616em" height="1.1484399719504836em" x="6.538461538461539vw" y="1.8515600280495164em" fill="#aaa"/><rect width="0.09615384615384616em" height="0.7030404249132483em" x="6.634615384615385vw" y="2.2969595750867517em" fill="#aaa"/><rect width="0.09615384615384616em" height="1.258908244414481em" x="6.730769230769231vw" y="1.741091755585519em" fill="#aaa"/><rect width="0.09615384615384616em" height="1.4701250906710879em" x="6.8269230769230775vw" y="1.5298749093289121em" fill="#aaa"/><rect width="0.09615384615384616em" height="1.3544718117880497em" x="6.923076923076923vw" y="1.6455281882119503em" fill="#aaa"/><rect width="0.09615384615384616em" height="0.7743374542013293em" x="7.01923076923077vw" y="2.225662545798671em" fill="#aaa"/><rect width="0.09615384615384616em" height="1.1697843668900028em" x="7.115384615384616vw" y="1.8302156331099972em" fill="#aaa"/><rect width="0.09615384615384616em" height="1.1842300956785468em" x="7.211538461538462vw" y="1.8157699043214532em" fill="#aaa"/><rect width="0.09615384615384616em" height="1.6362642485038705em" x="7.307692307692308vw" y="1.3637357514961295em" fill="#aaa"/><rect width="0.09615384615384616em" height="1.365514238918709em" x="7.403846153846154vw" y="1.634485761081291em" fill="#aaa"/><rect width="0.09615384615384616em" height="1.7015003232744212em" x="7.5vw" y="1.2984996767255788em" fill="#aaa"/><rect width="0.09615384615384616em" height="2.1252349887857407em" x="7.596153846153847vw" y="0.8747650112142593em" fill="#aaa"/><rect width="0.09615384615384616em" height="1.5335492439483382em" x="7.6923076923076925vw" y="1.4664507560516618em" fill="#aaa"/><rect width="0.09615384615384616em" height="1.5708714387219609em" x="7.788461538461539vw" y="1.4291285612780391em" fill="#aaa"/><rect width="0.09615384615384616em" height="2.0021883580166344em" x="7.884615384615385vw" y="0.9978116419833656em" fill="#aaa"/><rect width="0.09615384615384616em" height="1.5095328820785592em" x="7.980769230769231vw" y="1.4904671179214408em" fill="#aaa"/><rect width="0.09615384615384616em" height="1.2864001559374654em" x="8.076923076923077vw" y="1.7135998440625346em" fill="#aaa"/><rect width="0.09615384615384616em" height="2.4993448925167727em" x="8.173076923076923vw" y="0.5006551074832273em" fill="#aaa"/><rect width="0.09615384615384616em" height="1.361786137445163em" x="8.26923076923077vw" y="1.638213862554837em" fill="#aaa"/><rect width="0.09615384615384616em" height="1.3607519334762652em" x="8.365384615384615vw" y="1.6392480665237348em" fill="#aaa"/><rect width="0.09615384615384616em" height="1.197128441522915em" x="8.461538461538462vw" y="1.802871558477085em" fill="#aaa"/><rect width="0.09615384615384616em" height="1.2773430001299924em" x="8.557692307692308vw" y="1.7226569998700076em" fill="#aaa"/><rect width="0.09615384615384616em" height="1.1296792207552002em" x="8.653846153846155vw" y="1.8703207792447998em" fill="#aaa"/><rect width="0.09615384615384616em" height="0.9548358829777455em" x="8.75vw" y="2.0451641170222548em" fill="#aaa"/><rect width="0.09615384615384616em" height="1.0923308397678935em" x="8.846153846153847vw" y="1.9076691602321065em" fill="#aaa"/><rect width="0.09615384615384616em" height="1.0452571578022751em" x="8.942307692307693vw" y="1.9547428421977249em" fill="#aaa"/><rect width="0.09615384615384616em" height="0.9411305922958904em" x="9.038461538461538vw" y="2.0588694077041096em" fill="#aaa"/><rect width="0.09615384615384616em" height="1.0160268586972192em" x="9.134615384615385vw" y="1.9839731413027808em" fill="#aaa"/><rect width="0.09615384615384616em" height="1.193464033653012em" x="9.230769230769232vw" y="1.806535966346988em" fill="#aaa"/><rect width="0.09615384615384616em" height="1.0780534269286106em" x="9.326923076923077vw" y="1.9219465730713894em" fill="#aaa"/><rect width="0.09615384615384616em" height="1.0181967675505836em" x="9.423076923076923vw" y="1.9818032324494164em" fill="#aaa"/><rect width="0.09615384615384616em" height="1.0300202222653905em" x="9.51923076923077vw" y="1.9699797777346095em" fill="#aaa"/><rect width="0.09615384615384616em" height="1.1221105755850929em" x="9.615384615384617vw" y="1.8778894244149071em" fill="#aaa"/><rect width="0.09615384615384616em" height="1.1630673990006253em" x="9.711538461538462vw" y="1.8369326009993747em" fill="#aaa"/><rect width="0.09615384615384616em" height="1.0600775512684624em" x="9.807692307692308vw" y="1.9399224487315376em" fill="#aaa"/><rect width="0.09615384615384616em" height="0.881414306157458em" x="9.903846153846155vw" y="2.118585693842542em" fill="#aaa"/></svg>