<?xml version="1.0" standalone="no"?>
<svg xmlns:xlink="http://www.w3.org/1999/xlink" xmlns="http://www.w3.org/2000/svg" class="topic-graph" style="width: 10vw; height: 3em; text-align: center;"><rect width="0.09615384615384616em" height="0.7817329061413532em" x="0vw" y="2.218267093858647em" fill="#aaa"/><rect width="0.09615384615384616em" height="0.1772168338803775em" x="0.09615384615384616vw" y="2.8227831661196223em" fill="#aaa"/><rect width="0.09615384615384616em" height="0.3170886887502566em" x="0.19230769230769232vw" y="2.6829113112497436em" fill="#aaa"/><rect width="0.09615384615384616em" height="0.7630889012999884em" x="0.2884615384615385vw" y="2.236911098700012em" fill="#aaa"/><rect width="0.09615384615384616em" height="0.6643712785274511em" x="0.38461538461538464vw" y="2.335628721472549em" fill="#aaa"/><rect width="0.09615384615384616em" height="0.41338832991491037em" x="0.4807692307692308vw" y="2.5866116700850896em" fill="#aaa"/><rect width="0.09615384615384616em" height="1.3090217613711095em" x="0.576923076923077vw" y="1.6909782386288905em" fill="#aaa"/><rect width="0.09615384615384616em" height="3em" x="0.6730769230769231vw" y="0em" fill="#aaa"/><rect width="0.09615384615384616em" height="0.3375438882551244em" x="0.7692307692307693vw" y="2.6624561117448757em" fill="#aaa"/><rect width="0.09615384615384616em" height="0.6212040660726011em" x="0.8653846153846154vw" y="2.3787959339273987em" fill="#aaa"/><rect width="0.09615384615384616em" height="0.4788377451334056em" x="0.9615384615384616vw" y="2.5211622548665944em" fill="#aaa"/><rect width="0.09615384615384616em" height="0.12273861652867644em" x="1.0576923076923077vw" y="2.8772613834713234em" fill="#aaa"/><rect width="0.09615384615384616em" height="0.4941555971336622em" x="1.153846153846154vw" y="2.505844402866338em" fill="#aaa"/><rect width="0.09615384615384616em" height="0.6748764314103667em" x="1.25vw" y="2.325123568589633em" fill="#aaa"/><rect width="0.09615384615384616em" height="0.7162629741946622em" x="1.3461538461538463vw" y="2.2837370258053378em" fill="#aaa"/><rect width="0.09615384615384616em" height="1.7393636387364473em" x="1.4423076923076923vw" y="1.2606363612635527em" fill="#aaa"/><rect width="0.09615384615384616em" height="1.0347224726735056em" x="1.5384615384615385vw" y="1.9652775273264944em" fill="#aaa"/><rect width="0.09615384615384616em" height="0.9813374942712507em" x="1.6346153846153848vw" y="2.0186625057287495em" fill="#aaa"/><rect width="0.09615384615384616em" height="0.990814670694908em" x="1.7307692307692308vw" y="2.009185329305092em" fill="#aaa"/><rect width="0.09615384615384616em" height="0.34238626614308143em" x="1.826923076923077vw" y="2.657613733856919em" fill="#aaa"/><rect width="0.09615384615384616em" height="0.27152657742700936em" x="1.9230769230769231vw" y="2.7284734225729905em" fill="#aaa"/><rect width="0.09615384615384616em" height="0.26456548379049283em" x="2.019230769230769vw" y="2.7354345162095073em" fill="#aaa"/><rect width="0.09615384615384616em" height="0.5686648580895416em" x="2.1153846153846154vw" y="2.4313351419104583em" fill="#aaa"/><rect width="0.09615384615384616em" height="0.548664852856381em" x="2.2115384615384617vw" y="2.451335147143619em" fill="#aaa"/><rect width="0.09615384615384616em" height="0.3632848900410443em" x="2.307692307692308vw" y="2.636715109958956em" fill="#aaa"/><rect width="0.09615384615384616em" height="0.2523655727439016em" x="2.403846153846154vw" y="2.7476344272560986em" fill="#aaa"/><rect width="0.09615384615384616em" height="0.8309730150015124em" x="2.5vw" y="2.169026984998488em" fill="#aaa"/><rect width="0.09615384615384616em" height="0.8982865761798648em" x="2.5961538461538463vw" y="2.101713423820135em" fill="#aaa"/><rect width="0.09615384615384616em" height="0.5631660425373058em" x="2.6923076923076925vw" y="2.436833957462694em" fill="#aaa"/><rect width="0.09615384615384616em" height="0.8411119010756013em" x="2.7884615384615388vw" y="2.1588880989243986em" fill="#aaa"/><rect width="0.09615384615384616em" height="0.9506341209824484em" x="2.8846153846153846vw" y="2.0493658790175515em" fill="#aaa"/><rect width="0.09615384615384616em" height="0.18855205386808582em" x="2.980769230769231vw" y="2.8114479461319144em" fill="#aaa"/><rect width="0.09615384615384616em" height="1.1479099985579366em" x="3.076923076923077vw" y="1.8520900014420634em" fill="#aaa"/><rect width="0.09615384615384616em" height="0.39457339063718316em" x="3.1730769230769234vw" y="2.6054266093628167em" fill="#aaa"/><rect width="0.09615384615384616em" height="0.7436639590230194em" x="3.2692307692307696vw" y="2.2563360409769806em" fill="#aaa"/><rect width="0.09615384615384616em" height="2.8594307293357746em" x="3.3653846153846154vw" y="0.14056927066422542em" fill="#aaa"/><rect width="0.09615384615384616em" height="0.3701017431433811em" x="3.4615384615384617vw" y="2.629898256856619em" fill="#aaa"/><rect width="0.09615384615384616em" height="0.5432977492914224em" x="3.557692307692308vw" y="2.4567022507085774em" fill="#aaa"/><rect width="0.09615384615384616em" height="0.9765496939444541em" x="3.653846153846154vw" y="2.0234503060555458em" fill="#aaa"/><rect width="0.09615384615384616em" height="0.4036835039651048em" x="3.75vw" y="2.5963164960348952em" fill="#aaa"/><rect width="0.09615384615384616em" height="1.1414658538743834em" x="3.8461538461538463vw" y="1.8585341461256166em" fill="#aaa"/><rect width="0.09615384615384616em" height="0.3218344828428429em" x="3.9423076923076925vw" y="2.678165517157157em" fill="#aaa"/><rect width="0.09615384615384616em" height="0.3565365330623085em" x="4.038461538461538vw" y="2.6434634669376917em" fill="#aaa"/><rect width="0.09615384615384616em" height="0.36385790200792706em" x="4.134615384615385vw" y="2.636142097992073em" fill="#aaa"/><rect width="0.09615384615384616em" height="0.6756199044832568em" x="4.230769230769231vw" y="2.324380095516743em" fill="#aaa"/><rect width="0.09615384615384616em" height="0.3163729988485948em" x="4.3269230769230775vw" y="2.683627001151405em" fill="#aaa"/><rect width="0.09615384615384616em" height="0.8771394998402323em" x="4.423076923076923vw" y="2.1228605001597676em" fill="#aaa"/><rect width="0.09615384615384616em" height="0.36854289728301753em" x="4.519230769230769vw" y="2.6314571027169826em" fill="#aaa"/><rect width="0.09615384615384616em" height="0.2809498497110169em" x="4.615384615384616vw" y="2.7190501502889832em" fill="#aaa"/><rect width="0.09615384615384616em" height="0.19328098166356977em" x="4.711538461538462vw" y="2.8067190183364303em" fill="#aaa"/><rect width="0.09615384615384616em" height="0.1706558832801242em" x="4.807692307692308vw" y="2.829344116719876em" fill="#aaa"/><rect width="0.09615384615384616em" height="0.12819349142491776em" x="4.903846153846154vw" y="2.8718065085750824em" fill="#aaa"/><rect width="0.09615384615384616em" height="0.32099088252946384em" x="5vw" y="2.679009117470536em" fill="#aaa"/><rect width="0.09615384615384616em" height="0.27531502108084654em" x="5.096153846153847vw" y="2.7246849789191536em" fill="#aaa"/><rect width="0.09615384615384616em" height="0.18719164234660007em" x="5.1923076923076925vw" y="2.8128083576533998em" fill="#aaa"/><rect width="0.09615384615384616em" height="0.21409241897375564em" x="5.288461538461538vw" y="2.7859075810262444em" fill="#aaa"/><rect width="0.09615384615384616em" height="0.1358441690450725em" x="5.384615384615385vw" y="2.8641558309549273em" fill="#aaa"/><rect width="0.09615384615384616em" height="0.21134300132773653em" x="5.480769230769231vw" y="2.7886569986722636em" fill="#aaa"/><rect width="0.09615384615384616em" height="0.18263069694190892em" x="5.5769230769230775vw" y="2.817369303058091em" fill="#aaa"/><rect width="0.09615384615384616em" height="0.17275171726851146em" x="5.673076923076923vw" y="2.8272482827314884em" fill="#aaa"/><rect width="0.09615384615384616em" height="0.22356299490991866em" x="5.769230769230769vw" y="2.7764370050900813em" fill="#aaa"/><rect width="0.09615384615384616em" height="0.11680781112022104em" x="5.865384615384616vw" y="2.883192188879779em" fill="#aaa"/><rect width="0.09615384615384616em" height="0.12976750563013612em" x="5.961538461538462vw" y="2.870232494369864em" fill="#aaa"/><rect width="0.09615384615384616em" height="0.17751347268722467em" x="6.057692307692308vw" y="2.8224865273127753em" fill="#aaa"/><rect width="0.09615384615384616em" height="0.11216179527769059em" x="6.153846153846154vw" y="2.8878382047223092em" fill="#aaa"/><rect width="0.09615384615384616em" height="0.19064164122394395em" x="6.25vw" y="2.809358358776056em" fill="#aaa"/><rect width="0.09615384615384616em" height="0.2256324618673961em" x="6.346153846153847vw" y="2.774367538132604em" fill="#aaa"/><rect width="0.09615384615384616em" height="0.20798796026884914em" x="6.4423076923076925vw" y="2.792012039731151em" fill="#aaa"/><rect width="0.09615384615384616em" height="0.23869401941111812em" x="6.538461538461539vw" y="2.7613059805888818em" fill="#aaa"/><rect width="0.09615384615384616em" height="0.28488050015799055em" x="6.634615384615385vw" y="2.7151194998420096em" fill="#aaa"/><rect width="0.09615384615384616em" height="0.2866617059556901em" x="6.730769230769231vw" y="2.71333829404431em" fill="#aaa"/><rect width="0.09615384615384616em" height="0.1870813210305901em" x="6.8269230769230775vw" y="2.81291867896941em" fill="#aaa"/><rect width="0.09615384615384616em" height="0.16586202194328453em" x="6.923076923076923vw" y="2.8341379780567153em" fill="#aaa"/><rect width="0.09615384615384616em" height="0.1960354638728738em" x="7.01923076923077vw" y="2.8039645361271264em" fill="#aaa"/><rect width="0.09615384615384616em" height="0.2588688649097092em" x="7.115384615384616vw" y="2.7411311350902907em" fill="#aaa"/><rect width="0.09615384615384616em" height="0.27808230240882914em" x="7.211538461538462vw" y="2.721917697591171em" fill="#aaa"/><rect width="0.09615384615384616em" height="0.21271163603330337em" x="7.307692307692308vw" y="2.7872883639666965em" fill="#aaa"/><rect width="0.09615384615384616em" height="0.1703417936028926em" x="7.403846153846154vw" y="2.8296582063971076em" fill="#aaa"/><rect width="0.09615384615384616em" height="0.23411421207425487em" x="7.5vw" y="2.765885787925745em" fill="#aaa"/><rect width="0.09615384615384616em" height="0.10255988403692681em" x="7.596153846153847vw" y="2.8974401159630734em" fill="#aaa"/><rect width="0.09615384615384616em" height="0.10057400213785764em" x="7.6923076923076925vw" y="2.899425997862142em" fill="#aaa"/><rect width="0.09615384615384616em" height="0.1142887907472836em" x="7.788461538461539vw" y="2.885711209252716em" fill="#aaa"/><rect width="0.09615384615384616em" height="0.19907769177574378em" x="7.884615384615385vw" y="2.8009223082242563em" fill="#aaa"/><rect width="0.09615384615384616em" height="0.17026007213493122em" x="7.980769230769231vw" y="2.829739927865069em" fill="#aaa"/><rect width="0.09615384615384616em" height="0.14220947585933855em" x="8.076923076923077vw" y="2.8577905241406616em" fill="#aaa"/><rect width="0.09615384615384616em" height="0.10884247488376486em" x="8.173076923076923vw" y="2.891157525116235em" fill="#aaa"/><rect width="0.09615384615384616em" height="0.16301049442011123em" x="8.26923076923077vw" y="2.8369895055798886em" fill="#aaa"/><rect width="0.09615384615384616em" height="0.09770154988449822em" x="8.365384615384615vw" y="2.902298450115502em" fill="#aaa"/><rect width="0.09615384615384616em" height="0.12657743195864446em" x="8.461538461538462vw" y="2.8734225680413554em" fill="#aaa"/><rect width="0.09615384615384616em" height="0.11470797317811718em" x="8.557692307692308vw" y="2.8852920268218827em" fill="#aaa"/><rect width="0.09615384615384616em" height="0.13835044799857127em" x="8.653846153846155vw" y="2.861649552001429em" fill="#aaa"/><rect width="0.09615384615384616em" height="0.1573995951615983em" x="8.75vw" y="2.842600404838402em" fill="#aaa"/><rect width="0.09615384615384616em" height="0.1369058729805905em" x="8.846153846153847vw" y="2.8630941270194095em" fill="#aaa"/><rect width="0.09615384615384616em" height="0.15469023009872368em" x="8.942307692307693vw" y="2.8453097699012764em" fill="#aaa"/><rect width="0.09615384615384616em" height="0.1355046024045752em" x="9.038461538461538vw" y="2.864495397595425em" fill="#aaa"/><rect width="0.09615384615384616em" height="0.12191953038143852em" x="9.134615384615385vw" y="2.8780804696185616em" fill="#aaa"/><rect width="0.09615384615384616em" height="0.15029916168254837em" x="9.230769230769232vw" y="2.849700838317452em" fill="#aaa"/><rect width="0.09615384615384616em" height="0.12297905329852596em" x="9.326923076923077vw" y="2.877020946701474em" fill="#aaa"/><rect width="0.09615384615384616em" height="0.14719529741077725em" x="9.423076923076923vw" y="2.8528047025892227em" fill="#aaa"/><rect width="0.09615384615384616em" height="0.11148263785402746em" x="9.51923076923077vw" y="2.8885173621459725em" fill="#aaa"/><rect width="0.09615384615384616em" height="0.09822543273780085em" x="9.615384615384617vw" y="2.901774567262199em" fill="#aaa"/><rect width="0.09615384615384616em" height="0.1541081066622133em" x="9.711538461538462vw" y="2.845891893337787em" fill="#aaa"/><rect width="0.09615384615384616em" height="0.15218673943919442em" x="9.807692307692308vw" y="2.8478132605608057em" fill="#aaa"/><rect width="0.09615384615384616em" height="0.11779442446329286em" x="9.903846153846155vw" y="2.882205575536707em" fill="#aaa"/></svg>