<?xml version="1.0" standalone="no"?>
<svg xmlns:xlink="http://www.w3.org/1999/xlink" xmlns="http://www.w3.org/2000/svg" class="topic-graph" style="width: 10vw; height: 3em; text-align: center;"><rect width="0.09615384615384616em" height="0.04876517473009809em" x="0vw" y="2.951234825269902em" fill="#aaa"/><rect width="0.09615384615384616em" height="0.38576406776690836em" x="0.09615384615384616vw" y="2.6142359322330915em" fill="#aaa"/><rect width="0.09615384615384616em" height="0.5029929413207396em" x="0.19230769230769232vw" y="2.4970070586792605em" fill="#aaa"/><rect width="0.09615384615384616em" height="3em" x="0.2884615384615385vw" y="0em" fill="#aaa"/><rect width="0.09615384615384616em" height="0.4817756766119467em" x="0.38461538461538464vw" y="2.5182243233880532em" fill="#aaa"/><rect width="0.09615384615384616em" height="0.4045359312418747em" x="0.4807692307692308vw" y="2.595464068758125em" fill="#aaa"/><rect width="0.09615384615384616em" height="0.3346249637430994em" x="0.576923076923077vw" y="2.6653750362569006em" fill="#aaa"/><rect width="0.09615384615384616em" height="0.4828056368264827em" x="0.6730769230769231vw" y="2.5171943631735174em" fill="#aaa"/><rect width="0.09615384615384616em" height="0.22330347096807712em" x="0.7692307692307693vw" y="2.776696529031923em" fill="#aaa"/><rect width="0.09615384615384616em" height="1.1767794070430622em" x="0.8653846153846154vw" y="1.8232205929569378em" fill="#aaa"/><rect width="0.09615384615384616em" height="2.4368525811170594em" x="0.9615384615384616vw" y="0.5631474188829406em" fill="#aaa"/><rect width="0.09615384615384616em" height="0.7853042661520271em" x="1.0576923076923077vw" y="2.214695733847973em" fill="#aaa"/><rect width="0.09615384615384616em" height="1.628530216902783em" x="1.153846153846154vw" y="1.371469783097217em" fill="#aaa"/><rect width="0.09615384615384616em" height="0.37542180392948443em" x="1.25vw" y="2.6245781960705155em" fill="#aaa"/><rect width="0.09615384615384616em" height="0.5815671491959785em" x="1.3461538461538463vw" y="2.4184328508040216em" fill="#aaa"/><rect width="0.09615384615384616em" height="0.1306828177870298em" x="1.4423076923076923vw" y="2.86931718221297em" fill="#aaa"/><rect width="0.09615384615384616em" height="2.3321485735766014em" x="1.5384615384615385vw" y="0.6678514264233986em" fill="#aaa"/><rect width="0.09615384615384616em" height="2.4436497197885862em" x="1.6346153846153848vw" y="0.5563502802114138em" fill="#aaa"/><rect width="0.09615384615384616em" height="2.708160608047635em" x="1.7307692307692308vw" y="0.2918393919523652em" fill="#aaa"/><rect width="0.09615384615384616em" height="2.6106528801239177em" x="1.826923076923077vw" y="0.3893471198760823em" fill="#aaa"/><rect width="0.09615384615384616em" height="0.7884476595608336em" x="1.9230769230769231vw" y="2.2115523404391664em" fill="#aaa"/><rect width="0.09615384615384616em" height="1.5663240260095104em" x="2.019230769230769vw" y="1.4336759739904896em" fill="#aaa"/><rect width="0.09615384615384616em" height="2.2350294956438495em" x="2.1153846153846154vw" y="0.7649705043561505em" fill="#aaa"/><rect width="0.09615384615384616em" height="1.6514888898831726em" x="2.2115384615384617vw" y="1.3485111101168274em" fill="#aaa"/><rect width="0.09615384615384616em" height="0.5861361477244649em" x="2.307692307692308vw" y="2.413863852275535em" fill="#aaa"/><rect width="0.09615384615384616em" height="1.3636872158885331em" x="2.403846153846154vw" y="1.6363127841114669em" fill="#aaa"/><rect width="0.09615384615384616em" height="0.703435168758187em" x="2.5vw" y="2.296564831241813em" fill="#aaa"/><rect width="0.09615384615384616em" height="0.7157355119308716em" x="2.5961538461538463vw" y="2.2842644880691285em" fill="#aaa"/><rect width="0.09615384615384616em" height="1.1808011906521596em" x="2.6923076923076925vw" y="1.8191988093478404em" fill="#aaa"/><rect width="0.09615384615384616em" height="0.7017030432767996em" x="2.7884615384615388vw" y="2.2982969567232003em" fill="#aaa"/><rect width="0.09615384615384616em" height="0.49515068465438594em" x="2.8846153846153846vw" y="2.504849315345614em" fill="#aaa"/><rect width="0.09615384615384616em" height="0.8952702773114531em" x="2.980769230769231vw" y="2.104729722688547em" fill="#aaa"/><rect width="0.09615384615384616em" height="0.6143646246457002em" x="3.076923076923077vw" y="2.3856353753543em" fill="#aaa"/><rect width="0.09615384615384616em" height="0.5067352082041128em" x="3.1730769230769234vw" y="2.4932647917958874em" fill="#aaa"/><rect width="0.09615384615384616em" height="0.6954494742385926em" x="3.2692307692307696vw" y="2.3045505257614076em" fill="#aaa"/><rect width="0.09615384615384616em" height="0.9414643915189125em" x="3.3653846153846154vw" y="2.0585356084810877em" fill="#aaa"/><rect width="0.09615384615384616em" height="0.4853169688633275em" x="3.4615384615384617vw" y="2.5146830311366726em" fill="#aaa"/><rect width="0.09615384615384616em" height="0.7767303630957098em" x="3.557692307692308vw" y="2.2232696369042904em" fill="#aaa"/><rect width="0.09615384615384616em" height="0.5951243668101087em" x="3.653846153846154vw" y="2.4048756331898913em" fill="#aaa"/><rect width="0.09615384615384616em" height="1.3505141914309398em" x="3.75vw" y="1.6494858085690602em" fill="#aaa"/><rect width="0.09615384615384616em" height="0.48568933499939493em" x="3.8461538461538463vw" y="2.514310665000605em" fill="#aaa"/><rect width="0.09615384615384616em" height="1.1934534280275326em" x="3.9423076923076925vw" y="1.8065465719724674em" fill="#aaa"/><rect width="0.09615384615384616em" height="1.4641940281877506em" x="4.038461538461538vw" y="1.5358059718122494em" fill="#aaa"/><rect width="0.09615384615384616em" height="1.4400095883344575em" x="4.134615384615385vw" y="1.5599904116655425em" fill="#aaa"/><rect width="0.09615384615384616em" height="2.02719424925703em" x="4.230769230769231vw" y="0.9728057507429702em" fill="#aaa"/><rect width="0.09615384615384616em" height="0.8334565066582476em" x="4.3269230769230775vw" y="2.1665434933417522em" fill="#aaa"/><rect width="0.09615384615384616em" height="0.9850586999349985em" x="4.423076923076923vw" y="2.0149413000650016em" fill="#aaa"/><rect width="0.09615384615384616em" height="0.6207267664740903em" x="4.519230769230769vw" y="2.3792732335259097em" fill="#aaa"/><rect width="0.09615384615384616em" height="0.6558646328119476em" x="4.615384615384616vw" y="2.3441353671880525em" fill="#aaa"/><rect width="0.09615384615384616em" height="0.548790389007692em" x="4.711538461538462vw" y="2.451209610992308em" fill="#aaa"/><rect width="0.09615384615384616em" height="0.16516388899850498em" x="4.807692307692308vw" y="2.8348361110014952em" fill="#aaa"/><rect width="0.09615384615384616em" height="0.18250919336050864em" x="4.903846153846154vw" y="2.8174908066394915em" fill="#aaa"/><rect width="0.09615384615384616em" height="0.4067498936448529em" x="5vw" y="2.593250106355147em" fill="#aaa"/><rect width="0.09615384615384616em" height="0.20050548962201925em" x="5.096153846153847vw" y="2.799494510377981em" fill="#aaa"/><rect width="0.09615384615384616em" height="0.6497100829993177em" x="5.1923076923076925vw" y="2.3502899170006826em" fill="#aaa"/><rect width="0.09615384615384616em" height="0.6112371656219039em" x="5.288461538461538vw" y="2.3887628343780962em" fill="#aaa"/><rect width="0.09615384615384616em" height="0.28252326568257397em" x="5.384615384615385vw" y="2.717476734317426em" fill="#aaa"/><rect width="0.09615384615384616em" height="0.26415626959524285em" x="5.480769230769231vw" y="2.735843730404757em" fill="#aaa"/><rect width="0.09615384615384616em" height="0.13258694142438898em" x="5.5769230769230775vw" y="2.867413058575611em" fill="#aaa"/><rect width="0.09615384615384616em" height="0.24777458726126816em" x="5.673076923076923vw" y="2.752225412738732em" fill="#aaa"/><rect width="0.09615384615384616em" height="0.32249786264591035em" x="5.769230769230769vw" y="2.6775021373540895em" fill="#aaa"/><rect width="0.09615384615384616em" height="0.13948349221461853em" x="5.865384615384616vw" y="2.8605165077853814em" fill="#aaa"/><rect width="0.09615384615384616em" height="0.11702545436574917em" x="5.961538461538462vw" y="2.882974545634251em" fill="#aaa"/><rect width="0.09615384615384616em" height="0.3738985684192907em" x="6.057692307692308vw" y="2.626101431580709em" fill="#aaa"/><rect width="0.09615384615384616em" height="0.09529307607536307em" x="6.153846153846154vw" y="2.904706923924637em" fill="#aaa"/><rect width="0.09615384615384616em" height="0.2403091912066493em" x="6.25vw" y="2.7596908087933505em" fill="#aaa"/><rect width="0.09615384615384616em" height="0.1567861340871174em" x="6.346153846153847vw" y="2.8432138659128827em" fill="#aaa"/><rect width="0.09615384615384616em" height="0.422040955975115em" x="6.4423076923076925vw" y="2.577959044024885em" fill="#aaa"/><rect width="0.09615384615384616em" height="0.1835406430326106em" x="6.538461538461539vw" y="2.8164593569673895em" fill="#aaa"/><rect width="0.09615384615384616em" height="0.17682673009015948em" x="6.634615384615385vw" y="2.8231732699098404em" fill="#aaa"/><rect width="0.09615384615384616em" height="0.2025929452984817em" x="6.730769230769231vw" y="2.797407054701518em" fill="#aaa"/><rect width="0.09615384615384616em" height="0.21795856402456004em" x="6.8269230769230775vw" y="2.78204143597544em" fill="#aaa"/><rect width="0.09615384615384616em" height="0.2684186328943298em" x="6.923076923076923vw" y="2.73158136710567em" fill="#aaa"/><rect width="0.09615384615384616em" height="0.06580960277730794em" x="7.01923076923077vw" y="2.934190397222692em" fill="#aaa"/><rect width="0.09615384615384616em" height="0.16402926686388944em" x="7.115384615384616vw" y="2.8359707331361106em" fill="#aaa"/><rect width="0.09615384615384616em" height="0.24534957818093486em" x="7.211538461538462vw" y="2.7546504218190653em" fill="#aaa"/><rect width="0.09615384615384616em" height="0.10802311485966076em" x="7.307692307692308vw" y="2.8919768851403393em" fill="#aaa"/><rect width="0.09615384615384616em" height="0.27879672470323075em" x="7.403846153846154vw" y="2.7212032752967694em" fill="#aaa"/><rect width="0.09615384615384616em" height="0.12596575815642508em" x="7.5vw" y="2.874034241843575em" fill="#aaa"/><rect width="0.09615384615384616em" height="0.30295070654667194em" x="7.596153846153847vw" y="2.697049293453328em" fill="#aaa"/><rect width="0.09615384615384616em" height="0.10480447163930373em" x="7.6923076923076925vw" y="2.8951955283606963em" fill="#aaa"/><rect width="0.09615384615384616em" height="0.2319077624011054em" x="7.788461538461539vw" y="2.7680922375988946em" fill="#aaa"/><rect width="0.09615384615384616em" height="0.10729340658796555em" x="7.884615384615385vw" y="2.8927065934120346em" fill="#aaa"/><rect width="0.09615384615384616em" height="0.12090224470954222em" x="7.980769230769231vw" y="2.879097755290458em" fill="#aaa"/><rect width="0.09615384615384616em" height="0.1297089090725334em" x="8.076923076923077vw" y="2.8702910909274664em" fill="#aaa"/><rect width="0.09615384615384616em" height="0.11738895826778323em" x="8.173076923076923vw" y="2.8826110417322166em" fill="#aaa"/><rect width="0.09615384615384616em" height="0.1849286066531967em" x="8.26923076923077vw" y="2.8150713933468032em" fill="#aaa"/><rect width="0.09615384615384616em" height="0.11109319562183262em" x="8.365384615384615vw" y="2.888906804378167em" fill="#aaa"/><rect width="0.09615384615384616em" height="0.20987665782292908em" x="8.461538461538462vw" y="2.790123342177071em" fill="#aaa"/><rect width="0.09615384615384616em" height="0.1656931080266292em" x="8.557692307692308vw" y="2.834306891973371em" fill="#aaa"/><rect width="0.09615384615384616em" height="0.17919016417278902em" x="8.653846153846155vw" y="2.820809835827211em" fill="#aaa"/><rect width="0.09615384615384616em" height="0.10792280216765553em" x="8.75vw" y="2.8920771978323443em" fill="#aaa"/><rect width="0.09615384615384616em" height="0.14000135731799201em" x="8.846153846153847vw" y="2.859998642682008em" fill="#aaa"/><rect width="0.09615384615384616em" height="0.23201641869949957em" x="8.942307692307693vw" y="2.7679835813005003em" fill="#aaa"/><rect width="0.09615384615384616em" height="0.18861390708752346em" x="9.038461538461538vw" y="2.8113860929124765em" fill="#aaa"/><rect width="0.09615384615384616em" height="0.16773704553822116em" x="9.134615384615385vw" y="2.832262954461779em" fill="#aaa"/><rect width="0.09615384615384616em" height="0.18676475859519248em" x="9.230769230769232vw" y="2.8132352414048074em" fill="#aaa"/><rect width="0.09615384615384616em" height="0.229853954427995em" x="9.326923076923077vw" y="2.770146045572005em" fill="#aaa"/><rect width="0.09615384615384616em" height="0.42175812169914473em" x="9.423076923076923vw" y="2.5782418783008554em" fill="#aaa"/><rect width="0.09615384615384616em" height="0.1906165905318561em" x="9.51923076923077vw" y="2.809383409468144em" fill="#aaa"/><rect width="0.09615384615384616em" height="0.2618197499554417em" x="9.615384615384617vw" y="2.7381802500445582em" fill="#aaa"/><rect width="0.09615384615384616em" height="0.15690077422807278em" x="9.711538461538462vw" y="2.8430992257719274em" fill="#aaa"/><rect width="0.09615384615384616em" height="0.15493155434885283em" x="9.807692307692308vw" y="2.845068445651147em" fill="#aaa"/><rect width="0.09615384615384616em" height="0.1888248701621983em" x="9.903846153846155vw" y="2.811175129837802em" fill="#aaa"/></svg>