<?xml version="1.0" standalone="no"?>
<svg xmlns:xlink="http://www.w3.org/1999/xlink" xmlns="http://www.w3.org/2000/svg" class="topic-graph" style="width: 10vw; height: 3em; text-align: center;"><rect width="0.09615384615384616em" height="0.7545151624999533em" x="0vw" y="2.2454848375000465em" fill="#aaa"/><rect width="0.09615384615384616em" height="2.1976023419991555em" x="0.09615384615384616vw" y="0.8023976580008445em" fill="#aaa"/><rect width="0.09615384615384616em" height="1.4461310975102206em" x="0.19230769230769232vw" y="1.5538689024897794em" fill="#aaa"/><rect width="0.09615384615384616em" height="1.123523898811867em" x="0.2884615384615385vw" y="1.876476101188133em" fill="#aaa"/><rect width="0.09615384615384616em" height="0.9576521716708464em" x="0.38461538461538464vw" y="2.0423478283291536em" fill="#aaa"/><rect width="0.09615384615384616em" height="1.2322465939238243em" x="0.4807692307692308vw" y="1.7677534060761757em" fill="#aaa"/><rect width="0.09615384615384616em" height="1.308522699255347em" x="0.576923076923077vw" y="1.691477300744653em" fill="#aaa"/><rect width="0.09615384615384616em" height="0.8147762268051064em" x="0.6730769230769231vw" y="2.1852237731948936em" fill="#aaa"/><rect width="0.09615384615384616em" height="2.3271229505623845em" x="0.7692307692307693vw" y="0.6728770494376155em" fill="#aaa"/><rect width="0.09615384615384616em" height="1.0138559880893527em" x="0.8653846153846154vw" y="1.9861440119106473em" fill="#aaa"/><rect width="0.09615384615384616em" height="0.4600265844553829em" x="0.9615384615384616vw" y="2.539973415544617em" fill="#aaa"/><rect width="0.09615384615384616em" height="1.6942262759375235em" x="1.0576923076923077vw" y="1.3057737240624765em" fill="#aaa"/><rect width="0.09615384615384616em" height="1.1713544722167697em" x="1.153846153846154vw" y="1.8286455277832303em" fill="#aaa"/><rect width="0.09615384615384616em" height="2.4168902936642405em" x="1.25vw" y="0.5831097063357595em" fill="#aaa"/><rect width="0.09615384615384616em" height="2.9971648813441942em" x="1.3461538461538463vw" y="0.0028351186558057684em" fill="#aaa"/><rect width="0.09615384615384616em" height="1.5814360373326792em" x="1.4423076923076923vw" y="1.4185639626673208em" fill="#aaa"/><rect width="0.09615384615384616em" height="2.4323402793185225em" x="1.5384615384615385vw" y="0.5676597206814775em" fill="#aaa"/><rect width="0.09615384615384616em" height="1.5458596378276346em" x="1.6346153846153848vw" y="1.4541403621723654em" fill="#aaa"/><rect width="0.09615384615384616em" height="1.3387981932906736em" x="1.7307692307692308vw" y="1.6612018067093264em" fill="#aaa"/><rect width="0.09615384615384616em" height="2.1438859587701833em" x="1.826923076923077vw" y="0.8561140412298167em" fill="#aaa"/><rect width="0.09615384615384616em" height="1.9597459604471572em" x="1.9230769230769231vw" y="1.0402540395528428em" fill="#aaa"/><rect width="0.09615384615384616em" height="3em" x="2.019230769230769vw" y="0em" fill="#aaa"/><rect width="0.09615384615384616em" height="2.091756398896729em" x="2.1153846153846154vw" y="0.9082436011032708em" fill="#aaa"/><rect width="0.09615384615384616em" height="1.564197325418057em" x="2.2115384615384617vw" y="1.435802674581943em" fill="#aaa"/><rect width="0.09615384615384616em" height="1.8831557396224021em" x="2.307692307692308vw" y="1.1168442603775979em" fill="#aaa"/><rect width="0.09615384615384616em" height="1.2293910537843025em" x="2.403846153846154vw" y="1.7706089462156975em" fill="#aaa"/><rect width="0.09615384615384616em" height="1.3986636608110417em" x="2.5vw" y="1.6013363391889583em" fill="#aaa"/><rect width="0.09615384615384616em" height="1.0825308578903956em" x="2.5961538461538463vw" y="1.9174691421096044em" fill="#aaa"/><rect width="0.09615384615384616em" height="1.2563647659903543em" x="2.6923076923076925vw" y="1.7436352340096457em" fill="#aaa"/><rect width="0.09615384615384616em" height="1.7494021902179842em" x="2.7884615384615388vw" y="1.2505978097820158em" fill="#aaa"/><rect width="0.09615384615384616em" height="1.4486568455273672em" x="2.8846153846153846vw" y="1.5513431544726328em" fill="#aaa"/><rect width="0.09615384615384616em" height="1.3488745625984482em" x="2.980769230769231vw" y="1.6511254374015518em" fill="#aaa"/><rect width="0.09615384615384616em" height="1.5425961869948641em" x="3.076923076923077vw" y="1.4574038130051359em" fill="#aaa"/><rect width="0.09615384615384616em" height="1.084452398840726em" x="3.1730769230769234vw" y="1.915547601159274em" fill="#aaa"/><rect width="0.09615384615384616em" height="1.4762706092606739em" x="3.2692307692307696vw" y="1.5237293907393261em" fill="#aaa"/><rect width="0.09615384615384616em" height="1.4380638070884648em" x="3.3653846153846154vw" y="1.5619361929115352em" fill="#aaa"/><rect width="0.09615384615384616em" height="1.3201670813899318em" x="3.4615384615384617vw" y="1.6798329186100682em" fill="#aaa"/><rect width="0.09615384615384616em" height="1.722625753469625em" x="3.557692307692308vw" y="1.277374246530375em" fill="#aaa"/><rect width="0.09615384615384616em" height="1.8503348065076595em" x="3.653846153846154vw" y="1.1496651934923405em" fill="#aaa"/><rect width="0.09615384615384616em" height="1.2695067113922818em" x="3.75vw" y="1.7304932886077182em" fill="#aaa"/><rect width="0.09615384615384616em" height="1.6198741036469348em" x="3.8461538461538463vw" y="1.3801258963530652em" fill="#aaa"/><rect width="0.09615384615384616em" height="1.5708687466612892em" x="3.9423076923076925vw" y="1.4291312533387108em" fill="#aaa"/><rect width="0.09615384615384616em" height="1.515682476904948em" x="4.038461538461538vw" y="1.484317523095052em" fill="#aaa"/><rect width="0.09615384615384616em" height="1.530995666394328em" x="4.134615384615385vw" y="1.469004333605672em" fill="#aaa"/><rect width="0.09615384615384616em" height="1.4513804045095564em" x="4.230769230769231vw" y="1.5486195954904436em" fill="#aaa"/><rect width="0.09615384615384616em" height="1.9124321703847125em" x="4.3269230769230775vw" y="1.0875678296152875em" fill="#aaa"/><rect width="0.09615384615384616em" height="1.5911370535759053em" x="4.423076923076923vw" y="1.4088629464240947em" fill="#aaa"/><rect width="0.09615384615384616em" height="1.6927897729460817em" x="4.519230769230769vw" y="1.3072102270539183em" fill="#aaa"/><rect width="0.09615384615384616em" height="1.6635264768691918em" x="4.615384615384616vw" y="1.3364735231308082em" fill="#aaa"/><rect width="0.09615384615384616em" height="1.7847620602480359em" x="4.711538461538462vw" y="1.2152379397519641em" fill="#aaa"/><rect width="0.09615384615384616em" height="1.7909779013315625em" x="4.807692307692308vw" y="1.2090220986684375em" fill="#aaa"/><rect width="0.09615384615384616em" height="1.6097481722647657em" x="4.903846153846154vw" y="1.3902518277352343em" fill="#aaa"/><rect width="0.09615384615384616em" height="1.2927594564133105em" x="5vw" y="1.7072405435866895em" fill="#aaa"/><rect width="0.09615384615384616em" height="1.906188288721864em" x="5.096153846153847vw" y="1.093811711278136em" fill="#aaa"/><rect width="0.09615384615384616em" height="1.4932014234102218em" x="5.1923076923076925vw" y="1.5067985765897782em" fill="#aaa"/><rect width="0.09615384615384616em" height="1.9613263760528348em" x="5.288461538461538vw" y="1.0386736239471652em" fill="#aaa"/><rect width="0.09615384615384616em" height="2.0955077136072964em" x="5.384615384615385vw" y="0.9044922863927036em" fill="#aaa"/><rect width="0.09615384615384616em" height="1.9388327412089001em" x="5.480769230769231vw" y="1.0611672587910999em" fill="#aaa"/><rect width="0.09615384615384616em" height="2.314778046031345em" x="5.5769230769230775vw" y="0.685221953968655em" fill="#aaa"/><rect width="0.09615384615384616em" height="1.9338715896525653em" x="5.673076923076923vw" y="1.0661284103474347em" fill="#aaa"/><rect width="0.09615384615384616em" height="1.9388424340846555em" x="5.769230769230769vw" y="1.0611575659153445em" fill="#aaa"/><rect width="0.09615384615384616em" height="2.360303717332122em" x="5.865384615384616vw" y="0.6396962826678778em" fill="#aaa"/><rect width="0.09615384615384616em" height="1.4802450808480574em" x="5.961538461538462vw" y="1.5197549191519426em" fill="#aaa"/><rect width="0.09615384615384616em" height="1.3392768017282712em" x="6.057692307692308vw" y="1.6607231982717288em" fill="#aaa"/><rect width="0.09615384615384616em" height="2.059438229775075em" x="6.153846153846154vw" y="0.9405617702249249em" fill="#aaa"/><rect width="0.09615384615384616em" height="1.631672949681525em" x="6.25vw" y="1.368327050318475em" fill="#aaa"/><rect width="0.09615384615384616em" height="1.8619437102829628em" x="6.346153846153847vw" y="1.1380562897170372em" fill="#aaa"/><rect width="0.09615384615384616em" height="1.6500060126224145em" x="6.4423076923076925vw" y="1.3499939873775855em" fill="#aaa"/><rect width="0.09615384615384616em" height="1.5816387823947435em" x="6.538461538461539vw" y="1.4183612176052565em" fill="#aaa"/><rect width="0.09615384615384616em" height="1.4667961340427713em" x="6.634615384615385vw" y="1.5332038659572287em" fill="#aaa"/><rect width="0.09615384615384616em" height="1.917923749987441em" x="6.730769230769231vw" y="1.082076250012559em" fill="#aaa"/><rect width="0.09615384615384616em" height="1.8232575040947017em" x="6.8269230769230775vw" y="1.1767424959052983em" fill="#aaa"/><rect width="0.09615384615384616em" height="1.5865618944700937em" x="6.923076923076923vw" y="1.4134381055299063em" fill="#aaa"/><rect width="0.09615384615384616em" height="1.396094932736364em" x="7.01923076923077vw" y="1.603905067263636em" fill="#aaa"/><rect width="0.09615384615384616em" height="1.6075844677645654em" x="7.115384615384616vw" y="1.3924155322354346em" fill="#aaa"/><rect width="0.09615384615384616em" height="1.4349276085818146em" x="7.211538461538462vw" y="1.5650723914181854em" fill="#aaa"/><rect width="0.09615384615384616em" height="1.7645782622866175em" x="7.307692307692308vw" y="1.2354217377133825em" fill="#aaa"/><rect width="0.09615384615384616em" height="1.3414025031806696em" x="7.403846153846154vw" y="1.6585974968193304em" fill="#aaa"/><rect width="0.09615384615384616em" height="1.2427886440611107em" x="7.5vw" y="1.7572113559388893em" fill="#aaa"/><rect width="0.09615384615384616em" height="1.5423367507916899em" x="7.596153846153847vw" y="1.4576632492083101em" fill="#aaa"/><rect width="0.09615384615384616em" height="1.3432748718106378em" x="7.6923076923076925vw" y="1.6567251281893622em" fill="#aaa"/><rect width="0.09615384615384616em" height="1.1691859586076756em" x="7.788461538461539vw" y="1.8308140413923244em" fill="#aaa"/><rect width="0.09615384615384616em" height="1.240147147672909em" x="7.884615384615385vw" y="1.759852852327091em" fill="#aaa"/><rect width="0.09615384615384616em" height="1.1659459276013235em" x="7.980769230769231vw" y="1.8340540723986765em" fill="#aaa"/><rect width="0.09615384615384616em" height="1.3746952324209074em" x="8.076923076923077vw" y="1.6253047675790926em" fill="#aaa"/><rect width="0.09615384615384616em" height="1.4229481371411756em" x="8.173076923076923vw" y="1.5770518628588244em" fill="#aaa"/><rect width="0.09615384615384616em" height="1.158662047695653em" x="8.26923076923077vw" y="1.841337952304347em" fill="#aaa"/><rect width="0.09615384615384616em" height="1.2412252483303114em" x="8.365384615384615vw" y="1.7587747516696886em" fill="#aaa"/><rect width="0.09615384615384616em" height="1.1217233056334286em" x="8.461538461538462vw" y="1.8782766943665714em" fill="#aaa"/><rect width="0.09615384615384616em" height="1.131647145074223em" x="8.557692307692308vw" y="1.868352854925777em" fill="#aaa"/><rect width="0.09615384615384616em" height="1.258512292035877em" x="8.653846153846155vw" y="1.741487707964123em" fill="#aaa"/><rect width="0.09615384615384616em" height="0.990268631872514em" x="8.75vw" y="2.009731368127486em" fill="#aaa"/><rect width="0.09615384615384616em" height="1.0925593415940242em" x="8.846153846153847vw" y="1.9074406584059758em" fill="#aaa"/><rect width="0.09615384615384616em" height="1.0899352046912376em" x="8.942307692307693vw" y="1.9100647953087624em" fill="#aaa"/><rect width="0.09615384615384616em" height="0.944746998918875em" x="9.038461538461538vw" y="2.055253001081125em" fill="#aaa"/><rect width="0.09615384615384616em" height="1.080282331786316em" x="9.134615384615385vw" y="1.919717668213684em" fill="#aaa"/><rect width="0.09615384615384616em" height="0.9776939917468133em" x="9.230769230769232vw" y="2.022306008253187em" fill="#aaa"/><rect width="0.09615384615384616em" height="1.0008884415383779em" x="9.326923076923077vw" y="1.9991115584616221em" fill="#aaa"/><rect width="0.09615384615384616em" height="1.0272075822254871em" x="9.423076923076923vw" y="1.9727924177745129em" fill="#aaa"/><rect width="0.09615384615384616em" height="0.9156804698587052em" x="9.51923076923077vw" y="2.0843195301412947em" fill="#aaa"/><rect width="0.09615384615384616em" height="1.02701532680606em" x="9.615384615384617vw" y="1.97298467319394em" fill="#aaa"/><rect width="0.09615384615384616em" height="1.0333548017036094em" x="9.711538461538462vw" y="1.9666451982963906em" fill="#aaa"/><rect width="0.09615384615384616em" height="0.9313033511117359em" x="9.807692307692308vw" y="2.068696648888264em" fill="#aaa"/><rect width="0.09615384615384616em" height="0.9439039444336167em" x="9.903846153846155vw" y="2.056096055566383em" fill="#aaa"/></svg>