<?xml version="1.0" standalone="no"?>
<svg xmlns:xlink="http://www.w3.org/1999/xlink" xmlns="http://www.w3.org/2000/svg" class="topic-graph" style="width: 10vw; height: 3em; text-align: center;"><rect width="0.09615384615384616em" height="0.5697878299783579em" x="0vw" y="2.430212170021642em" fill="#aaa"/><rect width="0.09615384615384616em" height="0.7532633399378059em" x="0.09615384615384616vw" y="2.246736660062194em" fill="#aaa"/><rect width="0.09615384615384616em" height="0.8503211901564873em" x="0.19230769230769232vw" y="2.149678809843513em" fill="#aaa"/><rect width="0.09615384615384616em" height="0.5239425133785185em" x="0.2884615384615385vw" y="2.4760574866214817em" fill="#aaa"/><rect width="0.09615384615384616em" height="0.22123835967644429em" x="0.38461538461538464vw" y="2.7787616403235558em" fill="#aaa"/><rect width="0.09615384615384616em" height="0.6718427742068076em" x="0.4807692307692308vw" y="2.328157225793192em" fill="#aaa"/><rect width="0.09615384615384616em" height="0.8811555014171126em" x="0.576923076923077vw" y="2.118844498582887em" fill="#aaa"/><rect width="0.09615384615384616em" height="0.4919237359782209em" x="0.6730769230769231vw" y="2.508076264021779em" fill="#aaa"/><rect width="0.09615384615384616em" height="0.6265550242271277em" x="0.7692307692307693vw" y="2.3734449757728724em" fill="#aaa"/><rect width="0.09615384615384616em" height="0.3452539393312965em" x="0.8653846153846154vw" y="2.6547460606687037em" fill="#aaa"/><rect width="0.09615384615384616em" height="0.24729511753367295em" x="0.9615384615384616vw" y="2.752704882466327em" fill="#aaa"/><rect width="0.09615384615384616em" height="0.2887550756505852em" x="1.0576923076923077vw" y="2.7112449243494146em" fill="#aaa"/><rect width="0.09615384615384616em" height="0.4476022045788643em" x="1.153846153846154vw" y="2.5523977954211357em" fill="#aaa"/><rect width="0.09615384615384616em" height="0.6527071187943123em" x="1.25vw" y="2.3472928812056875em" fill="#aaa"/><rect width="0.09615384615384616em" height="0.35197443510190385em" x="1.3461538461538463vw" y="2.648025564898096em" fill="#aaa"/><rect width="0.09615384615384616em" height="0.3080785757463402em" x="1.4423076923076923vw" y="2.69192142425366em" fill="#aaa"/><rect width="0.09615384615384616em" height="0.7745144150302492em" x="1.5384615384615385vw" y="2.225485584969751em" fill="#aaa"/><rect width="0.09615384615384616em" height="0.5126092205583286em" x="1.6346153846153848vw" y="2.4873907794416716em" fill="#aaa"/><rect width="0.09615384615384616em" height="0.2090560468381203em" x="1.7307692307692308vw" y="2.7909439531618796em" fill="#aaa"/><rect width="0.09615384615384616em" height="0.34996591628448537em" x="1.826923076923077vw" y="2.6500340837155147em" fill="#aaa"/><rect width="0.09615384615384616em" height="0.6694486207276643em" x="1.9230769230769231vw" y="2.3305513792723356em" fill="#aaa"/><rect width="0.09615384615384616em" height="0.519951158312056em" x="2.019230769230769vw" y="2.4800488416879443em" fill="#aaa"/><rect width="0.09615384615384616em" height="0.5847712760672594em" x="2.1153846153846154vw" y="2.4152287239327404em" fill="#aaa"/><rect width="0.09615384615384616em" height="0.5892177266376109em" x="2.2115384615384617vw" y="2.410782273362389em" fill="#aaa"/><rect width="0.09615384615384616em" height="0.5201790747737265em" x="2.307692307692308vw" y="2.4798209252262735em" fill="#aaa"/><rect width="0.09615384615384616em" height="0.6423150215839684em" x="2.403846153846154vw" y="2.3576849784160316em" fill="#aaa"/><rect width="0.09615384615384616em" height="0.5608250590502091em" x="2.5vw" y="2.439174940949791em" fill="#aaa"/><rect width="0.09615384615384616em" height="0.5702851784451248em" x="2.5961538461538463vw" y="2.4297148215548754em" fill="#aaa"/><rect width="0.09615384615384616em" height="0.44035135879012605em" x="2.6923076923076925vw" y="2.559648641209874em" fill="#aaa"/><rect width="0.09615384615384616em" height="0.574847093875522em" x="2.7884615384615388vw" y="2.425152906124478em" fill="#aaa"/><rect width="0.09615384615384616em" height="0.626144288244539em" x="2.8846153846153846vw" y="2.373855711755461em" fill="#aaa"/><rect width="0.09615384615384616em" height="0.8572444093670315em" x="2.980769230769231vw" y="2.1427555906329685em" fill="#aaa"/><rect width="0.09615384615384616em" height="0.893727488574633em" x="3.076923076923077vw" y="2.106272511425367em" fill="#aaa"/><rect width="0.09615384615384616em" height="0.7855857302237272em" x="3.1730769230769234vw" y="2.214414269776273em" fill="#aaa"/><rect width="0.09615384615384616em" height="0.5873866307055734em" x="3.2692307692307696vw" y="2.4126133692944265em" fill="#aaa"/><rect width="0.09615384615384616em" height="0.610021452723208em" x="3.3653846153846154vw" y="2.389978547276792em" fill="#aaa"/><rect width="0.09615384615384616em" height="0.7708075282386981em" x="3.4615384615384617vw" y="2.229192471761302em" fill="#aaa"/><rect width="0.09615384615384616em" height="0.629797135284403em" x="3.557692307692308vw" y="2.370202864715597em" fill="#aaa"/><rect width="0.09615384615384616em" height="0.7988089078522235em" x="3.653846153846154vw" y="2.2011910921477766em" fill="#aaa"/><rect width="0.09615384615384616em" height="0.7768833805225444em" x="3.75vw" y="2.2231166194774556em" fill="#aaa"/><rect width="0.09615384615384616em" height="0.848708838506431em" x="3.8461538461538463vw" y="2.1512911614935692em" fill="#aaa"/><rect width="0.09615384615384616em" height="0.5871551994859043em" x="3.9423076923076925vw" y="2.4128448005140957em" fill="#aaa"/><rect width="0.09615384615384616em" height="0.590953272434275em" x="4.038461538461538vw" y="2.409046727565725em" fill="#aaa"/><rect width="0.09615384615384616em" height="0.8026813672898987em" x="4.134615384615385vw" y="2.1973186327101013em" fill="#aaa"/><rect width="0.09615384615384616em" height="0.8387767258815577em" x="4.230769230769231vw" y="2.1612232741184423em" fill="#aaa"/><rect width="0.09615384615384616em" height="0.8387030907956412em" x="4.3269230769230775vw" y="2.161296909204359em" fill="#aaa"/><rect width="0.09615384615384616em" height="0.6990405905546295em" x="4.423076923076923vw" y="2.3009594094453707em" fill="#aaa"/><rect width="0.09615384615384616em" height="0.6738603555007562em" x="4.519230769230769vw" y="2.3261396444992437em" fill="#aaa"/><rect width="0.09615384615384616em" height="0.8317685331466903em" x="4.615384615384616vw" y="2.16823146685331em" fill="#aaa"/><rect width="0.09615384615384616em" height="1.1108310846153608em" x="4.711538461538462vw" y="1.8891689153846392em" fill="#aaa"/><rect width="0.09615384615384616em" height="0.9421520713338732em" x="4.807692307692308vw" y="2.057847928666127em" fill="#aaa"/><rect width="0.09615384615384616em" height="0.9406378287746642em" x="4.903846153846154vw" y="2.059362171225336em" fill="#aaa"/><rect width="0.09615384615384616em" height="0.9559535412280334em" x="5vw" y="2.0440464587719664em" fill="#aaa"/><rect width="0.09615384615384616em" height="1.057368147235372em" x="5.096153846153847vw" y="1.942631852764628em" fill="#aaa"/><rect width="0.09615384615384616em" height="0.7987876170316144em" x="5.1923076923076925vw" y="2.201212382968386em" fill="#aaa"/><rect width="0.09615384615384616em" height="0.7677594850788039em" x="5.288461538461538vw" y="2.2322405149211964em" fill="#aaa"/><rect width="0.09615384615384616em" height="1.0503855937963356em" x="5.384615384615385vw" y="1.9496144062036644em" fill="#aaa"/><rect width="0.09615384615384616em" height="1.137695971035395em" x="5.480769230769231vw" y="1.862304028964605em" fill="#aaa"/><rect width="0.09615384615384616em" height="1.1056714870140067em" x="5.5769230769230775vw" y="1.8943285129859933em" fill="#aaa"/><rect width="0.09615384615384616em" height="1.209942302405961em" x="5.673076923076923vw" y="1.790057697594039em" fill="#aaa"/><rect width="0.09615384615384616em" height="1.1646055948109213em" x="5.769230769230769vw" y="1.8353944051890787em" fill="#aaa"/><rect width="0.09615384615384616em" height="0.9821296014229504em" x="5.865384615384616vw" y="2.01787039857705em" fill="#aaa"/><rect width="0.09615384615384616em" height="1.2303168070081028em" x="5.961538461538462vw" y="1.7696831929918972em" fill="#aaa"/><rect width="0.09615384615384616em" height="0.7759973079662426em" x="6.057692307692308vw" y="2.2240026920337574em" fill="#aaa"/><rect width="0.09615384615384616em" height="1.2024432527588855em" x="6.153846153846154vw" y="1.7975567472411145em" fill="#aaa"/><rect width="0.09615384615384616em" height="1.043533493696307em" x="6.25vw" y="1.956466506303693em" fill="#aaa"/><rect width="0.09615384615384616em" height="0.8305497786510313em" x="6.346153846153847vw" y="2.169450221348969em" fill="#aaa"/><rect width="0.09615384615384616em" height="1.043227056889314em" x="6.4423076923076925vw" y="1.956772943110686em" fill="#aaa"/><rect width="0.09615384615384616em" height="0.9402862628567248em" x="6.538461538461539vw" y="2.059713737143275em" fill="#aaa"/><rect width="0.09615384615384616em" height="0.6870424501516685em" x="6.634615384615385vw" y="2.3129575498483312em" fill="#aaa"/><rect width="0.09615384615384616em" height="1.0084214673794387em" x="6.730769230769231vw" y="1.9915785326205613em" fill="#aaa"/><rect width="0.09615384615384616em" height="1.124086526838784em" x="6.8269230769230775vw" y="1.875913473161216em" fill="#aaa"/><rect width="0.09615384615384616em" height="1.1407564745178447em" x="6.923076923076923vw" y="1.8592435254821553em" fill="#aaa"/><rect width="0.09615384615384616em" height="1.296914179421592em" x="7.01923076923077vw" y="1.703085820578408em" fill="#aaa"/><rect width="0.09615384615384616em" height="1.2683854571301214em" x="7.115384615384616vw" y="1.7316145428698786em" fill="#aaa"/><rect width="0.09615384615384616em" height="0.9481005879549951em" x="7.211538461538462vw" y="2.051899412045005em" fill="#aaa"/><rect width="0.09615384615384616em" height="1.0312447536639473em" x="7.307692307692308vw" y="1.9687552463360527em" fill="#aaa"/><rect width="0.09615384615384616em" height="1.2221858095317106em" x="7.403846153846154vw" y="1.7778141904682894em" fill="#aaa"/><rect width="0.09615384615384616em" height="1.1079685218852537em" x="7.5vw" y="1.8920314781147463em" fill="#aaa"/><rect width="0.09615384615384616em" height="0.9784255334109215em" x="7.596153846153847vw" y="2.0215744665890787em" fill="#aaa"/><rect width="0.09615384615384616em" height="1.003727549404845em" x="7.6923076923076925vw" y="1.996272450595155em" fill="#aaa"/><rect width="0.09615384615384616em" height="1.4011775886588813em" x="7.788461538461539vw" y="1.5988224113411187em" fill="#aaa"/><rect width="0.09615384615384616em" height="1.2929861091598385em" x="7.884615384615385vw" y="1.7070138908401615em" fill="#aaa"/><rect width="0.09615384615384616em" height="0.7762917741198463em" x="7.980769230769231vw" y="2.223708225880154em" fill="#aaa"/><rect width="0.09615384615384616em" height="1.584511188064376em" x="8.076923076923077vw" y="1.415488811935624em" fill="#aaa"/><rect width="0.09615384615384616em" height="2.0582013717470966em" x="8.173076923076923vw" y="0.9417986282529034em" fill="#aaa"/><rect width="0.09615384615384616em" height="3em" x="8.26923076923077vw" y="0em" fill="#aaa"/><rect width="0.09615384615384616em" height="2.6722311597383457em" x="8.365384615384615vw" y="0.3277688402616543em" fill="#aaa"/><rect width="0.09615384615384616em" height="1.2877676817831942em" x="8.461538461538462vw" y="1.7122323182168058em" fill="#aaa"/><rect width="0.09615384615384616em" height="1.2261688951800895em" x="8.557692307692308vw" y="1.7738311048199105em" fill="#aaa"/><rect width="0.09615384615384616em" height="1.2404151012237528em" x="8.653846153846155vw" y="1.7595848987762472em" fill="#aaa"/><rect width="0.09615384615384616em" height="1.0053107528768503em" x="8.75vw" y="1.9946892471231497em" fill="#aaa"/><rect width="0.09615384615384616em" height="0.9701959883550244em" x="8.846153846153847vw" y="2.0298040116449756em" fill="#aaa"/><rect width="0.09615384615384616em" height="2.2909220119142653em" x="8.942307692307693vw" y="0.7090779880857347em" fill="#aaa"/><rect width="0.09615384615384616em" height="1.7554362221576403em" x="9.038461538461538vw" y="1.2445637778423597em" fill="#aaa"/><rect width="0.09615384615384616em" height="1.7666064854313652em" x="9.134615384615385vw" y="1.2333935145686348em" fill="#aaa"/><rect width="0.09615384615384616em" height="1.2618928524508546em" x="9.230769230769232vw" y="1.7381071475491454em" fill="#aaa"/><rect width="0.09615384615384616em" height="1.1203040925905752em" x="9.326923076923077vw" y="1.8796959074094248em" fill="#aaa"/><rect width="0.09615384615384616em" height="1.1719471188427428em" x="9.423076923076923vw" y="1.8280528811572572em" fill="#aaa"/><rect width="0.09615384615384616em" height="1.0336553663219623em" x="9.51923076923077vw" y="1.9663446336780377em" fill="#aaa"/><rect width="0.09615384615384616em" height="0.9849297869766505em" x="9.615384615384617vw" y="2.0150702130233498em" fill="#aaa"/><rect width="0.09615384615384616em" height="1.0827397701024495em" x="9.711538461538462vw" y="1.9172602298975505em" fill="#aaa"/><rect width="0.09615384615384616em" height="1.0272903692047202em" x="9.807692307692308vw" y="1.9727096307952798em" fill="#aaa"/><rect width="0.09615384615384616em" height="1.1247784522311361em" x="9.903846153846155vw" y="1.8752215477688639em" fill="#aaa"/></svg>