<?xml version="1.0" standalone="no"?>
<svg xmlns:xlink="http://www.w3.org/1999/xlink" xmlns="http://www.w3.org/2000/svg" class="topic-graph" style="width: 100em; height: 30em; text-align: center;"><rect width="0.9615384615384616em" height="1.5267096956242447em" x="0em" y="28.473290304375755em" fill="#aaa"/><rect width="0.9615384615384616em" height="3.457835076660878em" x="0.9615384615384616em" y="26.542164923339122em" fill="#aaa"/><rect width="0.9615384615384616em" height="0.49756270935245356em" x="1.9230769230769231em" y="29.502437290647546em" fill="#aaa"/><rect width="0.9615384615384616em" height="0.35990721950163784em" x="2.8846153846153846em" y="29.640092780498364em" fill="#aaa"/><rect width="0.9615384615384616em" height="0.3350610543271485em" x="3.8461538461538463em" y="29.66493894567285em" fill="#aaa"/><rect width="0.9615384615384616em" height="2.6771782148188183em" x="4.8076923076923075em" y="27.322821785181183em" fill="#aaa"/><rect width="0.9615384615384616em" height="11.20211147258365em" x="5.769230769230769em" y="18.797888527416347em" fill="#aaa"/><rect width="0.9615384615384616em" height="0.698456316744481em" x="6.730769230769231em" y="29.30154368325552em" fill="#aaa"/><rect width="0.9615384615384616em" height="4.622608629700391em" x="7.6923076923076925em" y="25.37739137029961em" fill="#aaa"/><rect width="0.9615384615384616em" height="4.147831502769234em" x="8.653846153846153em" y="25.852168497230764em" fill="#aaa"/><rect width="0.9615384615384616em" height="2.5525122846549753em" x="9.615384615384615em" y="27.447487715345027em" fill="#aaa"/><rect width="0.9615384615384616em" height="4.349949869206709em" x="10.576923076923077em" y="25.65005013079329em" fill="#aaa"/><rect width="0.9615384615384616em" height="6.003340788662638em" x="11.538461538461538em" y="23.996659211337363em" fill="#aaa"/><rect width="0.9615384615384616em" height="2.7099507859533927em" x="12.5em" y="27.290049214046608em" fill="#aaa"/><rect width="0.9615384615384616em" height="0.5508890851243112em" x="13.461538461538462em" y="29.44911091487569em" fill="#aaa"/><rect width="0.9615384615384616em" height="1.274939664931289em" x="14.423076923076923em" y="28.72506033506871em" fill="#aaa"/><rect width="0.9615384615384616em" height="1.4792285213964593em" x="15.384615384615385em" y="28.520771478603542em" fill="#aaa"/><rect width="0.9615384615384616em" height="10.374169598144197em" x="16.346153846153847em" y="19.6258304018558em" fill="#aaa"/><rect width="0.9615384615384616em" height="15.1926827786932em" x="17.307692307692307em" y="14.8073172213068em" fill="#aaa"/><rect width="0.9615384615384616em" height="3.2138685151821287em" x="18.26923076923077em" y="26.786131484817872em" fill="#aaa"/><rect width="0.9615384615384616em" height="6.2980556371235465em" x="19.23076923076923em" y="23.701944362876453em" fill="#aaa"/><rect width="0.9615384615384616em" height="3.4384925416466174em" x="20.192307692307693em" y="26.561507458353383em" fill="#aaa"/><rect width="0.9615384615384616em" height="7.2651817975830335em" x="21.153846153846153em" y="22.734818202416967em" fill="#aaa"/><rect width="0.9615384615384616em" height="2.3238819495799605em" x="22.115384615384617em" y="27.67611805042004em" fill="#aaa"/><rect width="0.9615384615384616em" height="0.7039703733666506em" x="23.076923076923077em" y="29.29602962663335em" fill="#aaa"/><rect width="0.9615384615384616em" height="7.110246855447279em" x="24.03846153846154em" y="22.88975314455272em" fill="#aaa"/><rect width="0.9615384615384616em" height="3.257889209894256em" x="25em" y="26.742110790105745em" fill="#aaa"/><rect width="0.9615384615384616em" height="1.5095330170509205em" x="25.961538461538463em" y="28.49046698294908em" fill="#aaa"/><rect width="0.9615384615384616em" height="2.9751418250307156em" x="26.923076923076923em" y="27.024858174969285em" fill="#aaa"/><rect width="0.9615384615384616em" height="3.852188283530841em" x="27.884615384615387em" y="26.14781171646916em" fill="#aaa"/><rect width="0.9615384615384616em" height="4.454325722039791em" x="28.846153846153847em" y="25.54567427796021em" fill="#aaa"/><rect width="0.9615384615384616em" height="5.537004979641168em" x="29.80769230769231em" y="24.462995020358832em" fill="#aaa"/><rect width="0.9615384615384616em" height="5.148527446704829em" x="30.76923076923077em" y="24.85147255329517em" fill="#aaa"/><rect width="0.9615384615384616em" height="3.9267221675944346em" x="31.73076923076923em" y="26.073277832405566em" fill="#aaa"/><rect width="0.9615384615384616em" height="5.162305129520502em" x="32.69230769230769em" y="24.8376948704795em" fill="#aaa"/><rect width="0.9615384615384616em" height="4.601081781587767em" x="33.65384615384615em" y="25.398918218412234em" fill="#aaa"/><rect width="0.9615384615384616em" height="3.5159257334308447em" x="34.61538461538461em" y="26.484074266569156em" fill="#aaa"/><rect width="0.9615384615384616em" height="3.835835718921308em" x="35.57692307692308em" y="26.16416428107869em" fill="#aaa"/><rect width="0.9615384615384616em" height="3.2401099952582357em" x="36.53846153846154em" y="26.759890004741763em" fill="#aaa"/><rect width="0.9615384615384616em" height="10.815095038424477em" x="37.5em" y="19.184904961575523em" fill="#aaa"/><rect width="0.9615384615384616em" height="2.661609765344448em" x="38.46153846153846em" y="27.338390234655552em" fill="#aaa"/><rect width="0.9615384615384616em" height="1.6676101760148418em" x="39.42307692307693em" y="28.332389823985157em" fill="#aaa"/><rect width="0.9615384615384616em" height="3.9639139809931216em" x="40.38461538461539em" y="26.036086019006877em" fill="#aaa"/><rect width="0.9615384615384616em" height="7.4700742196033465em" x="41.34615384615385em" y="22.529925780396653em" fill="#aaa"/><rect width="0.9615384615384616em" height="8.09467647660632em" x="42.30769230769231em" y="21.90532352339368em" fill="#aaa"/><rect width="0.9615384615384616em" height="6.250038929874074em" x="43.269230769230774em" y="23.749961070125927em" fill="#aaa"/><rect width="0.9615384615384616em" height="7.930078336684067em" x="44.23076923076923em" y="22.06992166331593em" fill="#aaa"/><rect width="0.9615384615384616em" height="12.780024579635102em" x="45.19230769230769em" y="17.219975420364896em" fill="#aaa"/><rect width="0.9615384615384616em" height="3.777990622558783em" x="46.15384615384615em" y="26.222009377441218em" fill="#aaa"/><rect width="0.9615384615384616em" height="2.84170992968463em" x="47.11538461538461em" y="27.15829007031537em" fill="#aaa"/><rect width="0.9615384615384616em" height="9.900268764981062em" x="48.07692307692308em" y="20.099731235018936em" fill="#aaa"/><rect width="0.9615384615384616em" height="10.437978240533871em" x="49.03846153846154em" y="19.562021759466127em" fill="#aaa"/><rect width="0.9615384615384616em" height="9.52857688597496em" x="50em" y="20.47142311402504em" fill="#aaa"/><rect width="0.9615384615384616em" height="12.684714439502217em" x="50.96153846153846em" y="17.315285560497784em" fill="#aaa"/><rect width="0.9615384615384616em" height="7.530549198168332em" x="51.92307692307693em" y="22.46945080183167em" fill="#aaa"/><rect width="0.9615384615384616em" height="8.4172151907655em" x="52.88461538461539em" y="21.5827848092345em" fill="#aaa"/><rect width="0.9615384615384616em" height="17.152875605477313em" x="53.84615384615385em" y="12.847124394522687em" fill="#aaa"/><rect width="0.9615384615384616em" height="14.226410603960066em" x="54.80769230769231em" y="15.773589396039934em" fill="#aaa"/><rect width="0.9615384615384616em" height="7.958181618162813em" x="55.769230769230774em" y="22.04181838183719em" fill="#aaa"/><rect width="0.9615384615384616em" height="12.599589347856577em" x="56.73076923076923em" y="17.40041065214342em" fill="#aaa"/><rect width="0.9615384615384616em" height="13.20604524361777em" x="57.69230769230769em" y="16.793954756382227em" fill="#aaa"/><rect width="0.9615384615384616em" height="5.975059532832497em" x="58.65384615384615em" y="24.024940467167504em" fill="#aaa"/><rect width="0.9615384615384616em" height="7.756988116185619em" x="59.61538461538462em" y="22.243011883814383em" fill="#aaa"/><rect width="0.9615384615384616em" height="10.072320932141162em" x="60.57692307692308em" y="19.92767906785884em" fill="#aaa"/><rect width="0.9615384615384616em" height="12.092480906733247em" x="61.53846153846154em" y="17.907519093266753em" fill="#aaa"/><rect width="0.9615384615384616em" height="18.107764169020427em" x="62.5em" y="11.892235830979573em" fill="#aaa"/><rect width="0.9615384615384616em" height="20.12927867272425em" x="63.46153846153846em" y="9.87072132727575em" fill="#aaa"/><rect width="0.9615384615384616em" height="27.985436477041073em" x="64.42307692307692em" y="2.0145635229589267em" fill="#aaa"/><rect width="0.9615384615384616em" height="16.471842541065907em" x="65.38461538461539em" y="13.528157458934093em" fill="#aaa"/><rect width="0.9615384615384616em" height="10.721793334524193em" x="66.34615384615385em" y="19.278206665475807em" fill="#aaa"/><rect width="0.9615384615384616em" height="10.874207727213761em" x="67.3076923076923em" y="19.12579227278624em" fill="#aaa"/><rect width="0.9615384615384616em" height="15.080063345692256em" x="68.26923076923077em" y="14.919936654307744em" fill="#aaa"/><rect width="0.9615384615384616em" height="30em" x="69.23076923076923em" y="0em" fill="#aaa"/><rect width="0.9615384615384616em" height="10.838247592214977em" x="70.1923076923077em" y="19.161752407785023em" fill="#aaa"/><rect width="0.9615384615384616em" height="9.617264726904061em" x="71.15384615384616em" y="20.38273527309594em" fill="#aaa"/><rect width="0.9615384615384616em" height="11.364202559420113em" x="72.11538461538461em" y="18.635797440579886em" fill="#aaa"/><rect width="0.9615384615384616em" height="9.107732972318265em" x="73.07692307692308em" y="20.892267027681733em" fill="#aaa"/><rect width="0.9615384615384616em" height="9.1887723547417em" x="74.03846153846155em" y="20.8112276452583em" fill="#aaa"/><rect width="0.9615384615384616em" height="14.446345604090478em" x="75em" y="15.553654395909522em" fill="#aaa"/><rect width="0.9615384615384616em" height="6.377200354290209em" x="75.96153846153847em" y="23.62279964570979em" fill="#aaa"/><rect width="0.9615384615384616em" height="7.507406231762983em" x="76.92307692307692em" y="22.49259376823702em" fill="#aaa"/><rect width="0.9615384615384616em" height="14.1391245322995em" x="77.88461538461539em" y="15.8608754677005em" fill="#aaa"/><rect width="0.9615384615384616em" height="8.636903723516184em" x="78.84615384615385em" y="21.363096276483816em" fill="#aaa"/><rect width="0.9615384615384616em" height="8.568016042276184em" x="79.8076923076923em" y="21.431983957723816em" fill="#aaa"/><rect width="0.9615384615384616em" height="7.942515644797469em" x="80.76923076923077em" y="22.057484355202533em" fill="#aaa"/><rect width="0.9615384615384616em" height="6.736585393508645em" x="81.73076923076923em" y="23.263414606491356em" fill="#aaa"/><rect width="0.9615384615384616em" height="9.797888541993434em" x="82.6923076923077em" y="20.202111458006566em" fill="#aaa"/><rect width="0.9615384615384616em" height="7.982230151096364em" x="83.65384615384616em" y="22.017769848903637em" fill="#aaa"/><rect width="0.9615384615384616em" height="8.307984671132667em" x="84.61538461538461em" y="21.692015328867335em" fill="#aaa"/><rect width="0.9615384615384616em" height="5.661940120346481em" x="85.57692307692308em" y="24.33805987965352em" fill="#aaa"/><rect width="0.9615384615384616em" height="9.771251529190433em" x="86.53846153846155em" y="20.228748470809567em" fill="#aaa"/><rect width="0.9615384615384616em" height="7.6236271148931225em" x="87.5em" y="22.37637288510688em" fill="#aaa"/><rect width="0.9615384615384616em" height="6.249394182308989em" x="88.46153846153847em" y="23.75060581769101em" fill="#aaa"/><rect width="0.9615384615384616em" height="14.628439413836324em" x="89.42307692307692em" y="15.371560586163676em" fill="#aaa"/><rect width="0.9615384615384616em" height="13.134408319608248em" x="90.38461538461539em" y="16.865591680391752em" fill="#aaa"/><rect width="0.9615384615384616em" height="9.409827986192967em" x="91.34615384615385em" y="20.590172013807035em" fill="#aaa"/><rect width="0.9615384615384616em" height="7.543962270853312em" x="92.3076923076923em" y="22.456037729146686em" fill="#aaa"/><rect width="0.9615384615384616em" height="10.859111757718026em" x="93.26923076923077em" y="19.140888242281974em" fill="#aaa"/><rect width="0.9615384615384616em" height="12.041799845313838em" x="94.23076923076923em" y="17.95820015468616em" fill="#aaa"/><rect width="0.9615384615384616em" height="6.848068468850379em" x="95.1923076923077em" y="23.15193153114962em" fill="#aaa"/><rect width="0.9615384615384616em" height="4.706980236611571em" x="96.15384615384616em" y="25.29301976338843em" fill="#aaa"/><rect width="0.9615384615384616em" height="9.06754656033551em" x="97.11538461538461em" y="20.932453439664492em" fill="#aaa"/><rect width="0.9615384615384616em" height="11.565197261843768em" x="98.07692307692308em" y="18.434802738156232em" fill="#aaa"/><rect width="0.9615384615384616em" height="6.047564627131035em" x="99.03846153846155em" y="23.952435372868965em" fill="#aaa"/></svg>