<?xml version="1.0" standalone="no"?>
<svg xmlns:xlink="http://www.w3.org/1999/xlink" xmlns="http://www.w3.org/2000/svg" class="topic-graph" style="width: 10vw; height: 3em; text-align: center;"><rect width="0.09615384615384616em" height="1.1032352550725504em" x="0vw" y="1.8967647449274496em" fill="#aaa"/><rect width="0.09615384615384616em" height="0.9474816117850307em" x="0.09615384615384616vw" y="2.0525183882149696em" fill="#aaa"/><rect width="0.09615384615384616em" height="1.1833773853861695em" x="0.19230769230769232vw" y="1.8166226146138305em" fill="#aaa"/><rect width="0.09615384615384616em" height="1.4707218726740494em" x="0.2884615384615385vw" y="1.5292781273259506em" fill="#aaa"/><rect width="0.09615384615384616em" height="1.7138438269038365em" x="0.38461538461538464vw" y="1.2861561730961635em" fill="#aaa"/><rect width="0.09615384615384616em" height="1.8649373793367003em" x="0.4807692307692308vw" y="1.1350626206632997em" fill="#aaa"/><rect width="0.09615384615384616em" height="1.2653006110049327em" x="0.576923076923077vw" y="1.7346993889950673em" fill="#aaa"/><rect width="0.09615384615384616em" height="1.4648047917105986em" x="0.6730769230769231vw" y="1.5351952082894014em" fill="#aaa"/><rect width="0.09615384615384616em" height="2.2848095855603066em" x="0.7692307692307693vw" y="0.7151904144396934em" fill="#aaa"/><rect width="0.09615384615384616em" height="1.9463894383201827em" x="0.8653846153846154vw" y="1.0536105616798173em" fill="#aaa"/><rect width="0.09615384615384616em" height="1.8365356519312677em" x="0.9615384615384616vw" y="1.1634643480687323em" fill="#aaa"/><rect width="0.09615384615384616em" height="1.2998329993343458em" x="1.0576923076923077vw" y="1.7001670006656542em" fill="#aaa"/><rect width="0.09615384615384616em" height="1.5124980490384026em" x="1.153846153846154vw" y="1.4875019509615974em" fill="#aaa"/><rect width="0.09615384615384616em" height="1.7656321885974644em" x="1.25vw" y="1.2343678114025356em" fill="#aaa"/><rect width="0.09615384615384616em" height="1.2527887616788966em" x="1.3461538461538463vw" y="1.7472112383211034em" fill="#aaa"/><rect width="0.09615384615384616em" height="1.5525203336473121em" x="1.4423076923076923vw" y="1.4474796663526879em" fill="#aaa"/><rect width="0.09615384615384616em" height="1.80762009344968em" x="1.5384615384615385vw" y="1.19237990655032em" fill="#aaa"/><rect width="0.09615384615384616em" height="1.681639526098849em" x="1.6346153846153848vw" y="1.318360473901151em" fill="#aaa"/><rect width="0.09615384615384616em" height="2.0155330356246983em" x="1.7307692307692308vw" y="0.9844669643753017em" fill="#aaa"/><rect width="0.09615384615384616em" height="1.4963837290493416em" x="1.826923076923077vw" y="1.5036162709506584em" fill="#aaa"/><rect width="0.09615384615384616em" height="1.3443671765726684em" x="1.9230769230769231vw" y="1.6556328234273316em" fill="#aaa"/><rect width="0.09615384615384616em" height="1.2515255498732054em" x="2.019230769230769vw" y="1.7484744501267946em" fill="#aaa"/><rect width="0.09615384615384616em" height="3em" x="2.1153846153846154vw" y="0em" fill="#aaa"/><rect width="0.09615384615384616em" height="1.729475876624953em" x="2.2115384615384617vw" y="1.270524123375047em" fill="#aaa"/><rect width="0.09615384615384616em" height="2.2126966391186595em" x="2.307692307692308vw" y="0.7873033608813405em" fill="#aaa"/><rect width="0.09615384615384616em" height="1.1282692501778597em" x="2.403846153846154vw" y="1.8717307498221403em" fill="#aaa"/><rect width="0.09615384615384616em" height="1.0129712055928384em" x="2.5vw" y="1.9870287944071616em" fill="#aaa"/><rect width="0.09615384615384616em" height="1.5507395736967098em" x="2.5961538461538463vw" y="1.4492604263032902em" fill="#aaa"/><rect width="0.09615384615384616em" height="1.4478635537625568em" x="2.6923076923076925vw" y="1.5521364462374432em" fill="#aaa"/><rect width="0.09615384615384616em" height="1.375389655568775em" x="2.7884615384615388vw" y="1.624610344431225em" fill="#aaa"/><rect width="0.09615384615384616em" height="0.9834581371497477em" x="2.8846153846153846vw" y="2.0165418628502523em" fill="#aaa"/><rect width="0.09615384615384616em" height="1.2166150597068481em" x="2.980769230769231vw" y="1.7833849402931519em" fill="#aaa"/><rect width="0.09615384615384616em" height="1.3340646583174365em" x="3.076923076923077vw" y="1.6659353416825635em" fill="#aaa"/><rect width="0.09615384615384616em" height="1.5037962656946995em" x="3.1730769230769234vw" y="1.4962037343053005em" fill="#aaa"/><rect width="0.09615384615384616em" height="1.666239815865122em" x="3.2692307692307696vw" y="1.333760184134878em" fill="#aaa"/><rect width="0.09615384615384616em" height="1.7131240028957078em" x="3.3653846153846154vw" y="1.2868759971042922em" fill="#aaa"/><rect width="0.09615384615384616em" height="1.434366419970467em" x="3.4615384615384617vw" y="1.565633580029533em" fill="#aaa"/><rect width="0.09615384615384616em" height="1.3206732507724546em" x="3.557692307692308vw" y="1.6793267492275454em" fill="#aaa"/><rect width="0.09615384615384616em" height="1.3818448286170693em" x="3.653846153846154vw" y="1.6181551713829307em" fill="#aaa"/><rect width="0.09615384615384616em" height="1.3084909392384312em" x="3.75vw" y="1.6915090607615688em" fill="#aaa"/><rect width="0.09615384615384616em" height="1.3754462530041622em" x="3.8461538461538463vw" y="1.6245537469958378em" fill="#aaa"/><rect width="0.09615384615384616em" height="1.77832274388058em" x="3.9423076923076925vw" y="1.22167725611942em" fill="#aaa"/><rect width="0.09615384615384616em" height="2.027221776927735em" x="4.038461538461538vw" y="0.972778223072265em" fill="#aaa"/><rect width="0.09615384615384616em" height="2.0832781886568106em" x="4.134615384615385vw" y="0.9167218113431894em" fill="#aaa"/><rect width="0.09615384615384616em" height="1.8170946740832763em" x="4.230769230769231vw" y="1.1829053259167237em" fill="#aaa"/><rect width="0.09615384615384616em" height="1.4593881541767504em" x="4.3269230769230775vw" y="1.5406118458232496em" fill="#aaa"/><rect width="0.09615384615384616em" height="1.2354884369373467em" x="4.423076923076923vw" y="1.7645115630626533em" fill="#aaa"/><rect width="0.09615384615384616em" height="1.5338386442374032em" x="4.519230769230769vw" y="1.4661613557625968em" fill="#aaa"/><rect width="0.09615384615384616em" height="1.8549689748061682em" x="4.615384615384616vw" y="1.1450310251938318em" fill="#aaa"/><rect width="0.09615384615384616em" height="2.066861206930198em" x="4.711538461538462vw" y="0.9331387930698019em" fill="#aaa"/><rect width="0.09615384615384616em" height="1.5866999490249847em" x="4.807692307692308vw" y="1.4133000509750153em" fill="#aaa"/><rect width="0.09615384615384616em" height="1.2755944112873485em" x="4.903846153846154vw" y="1.7244055887126515em" fill="#aaa"/><rect width="0.09615384615384616em" height="1.708154976421767em" x="5vw" y="1.291845023578233em" fill="#aaa"/><rect width="0.09615384615384616em" height="1.2930909220804683em" x="5.096153846153847vw" y="1.7069090779195317em" fill="#aaa"/><rect width="0.09615384615384616em" height="1.3714059569021781em" x="5.1923076923076925vw" y="1.6285940430978219em" fill="#aaa"/><rect width="0.09615384615384616em" height="1.419590105104736em" x="5.288461538461538vw" y="1.580409894895264em" fill="#aaa"/><rect width="0.09615384615384616em" height="1.3538077169794838em" x="5.384615384615385vw" y="1.6461922830205162em" fill="#aaa"/><rect width="0.09615384615384616em" height="1.2053884648308908em" x="5.480769230769231vw" y="1.7946115351691092em" fill="#aaa"/><rect width="0.09615384615384616em" height="1.0067048236935818em" x="5.5769230769230775vw" y="1.9932951763064182em" fill="#aaa"/><rect width="0.09615384615384616em" height="1.1111017034226702em" x="5.673076923076923vw" y="1.8888982965773298em" fill="#aaa"/><rect width="0.09615384615384616em" height="1.0090840359411328em" x="5.769230769230769vw" y="1.9909159640588672em" fill="#aaa"/><rect width="0.09615384615384616em" height="1.1806990777544217em" x="5.865384615384616vw" y="1.8193009222455783em" fill="#aaa"/><rect width="0.09615384615384616em" height="1.213901451972725em" x="5.961538461538462vw" y="1.786098548027275em" fill="#aaa"/><rect width="0.09615384615384616em" height="1.0091196250789243em" x="6.057692307692308vw" y="1.9908803749210757em" fill="#aaa"/><rect width="0.09615384615384616em" height="1.1671793987374546em" x="6.153846153846154vw" y="1.8328206012625454em" fill="#aaa"/><rect width="0.09615384615384616em" height="1.0972378536071685em" x="6.25vw" y="1.9027621463928315em" fill="#aaa"/><rect width="0.09615384615384616em" height="1.0952362883575817em" x="6.346153846153847vw" y="1.9047637116424183em" fill="#aaa"/><rect width="0.09615384615384616em" height="0.7157330867392744em" x="6.4423076923076925vw" y="2.2842669132607254em" fill="#aaa"/><rect width="0.09615384615384616em" height="1.0886408914895667em" x="6.538461538461539vw" y="1.9113591085104333em" fill="#aaa"/><rect width="0.09615384615384616em" height="1.1478118124417593em" x="6.634615384615385vw" y="1.8521881875582407em" fill="#aaa"/><rect width="0.09615384615384616em" height="0.9268032117973309em" x="6.730769230769231vw" y="2.073196788202669em" fill="#aaa"/><rect width="0.09615384615384616em" height="0.7880620000232588em" x="6.8269230769230775vw" y="2.2119379999767412em" fill="#aaa"/><rect width="0.09615384615384616em" height="0.8332121462062353em" x="6.923076923076923vw" y="2.166787853793765em" fill="#aaa"/><rect width="0.09615384615384616em" height="0.8788183660769234em" x="7.01923076923077vw" y="2.1211816339230767em" fill="#aaa"/><rect width="0.09615384615384616em" height="0.9904275682190351em" x="7.115384615384616vw" y="2.009572431780965em" fill="#aaa"/><rect width="0.09615384615384616em" height="0.9224763095861015em" x="7.211538461538462vw" y="2.0775236904138987em" fill="#aaa"/><rect width="0.09615384615384616em" height="0.7721505359190157em" x="7.307692307692308vw" y="2.2278494640809843em" fill="#aaa"/><rect width="0.09615384615384616em" height="0.7479619762387025em" x="7.403846153846154vw" y="2.2520380237612976em" fill="#aaa"/><rect width="0.09615384615384616em" height="0.7334844418010802em" x="7.5vw" y="2.26651555819892em" fill="#aaa"/><rect width="0.09615384615384616em" height="0.6248527618161943em" x="7.596153846153847vw" y="2.3751472381838057em" fill="#aaa"/><rect width="0.09615384615384616em" height="0.6147717314849214em" x="7.6923076923076925vw" y="2.3852282685150787em" fill="#aaa"/><rect width="0.09615384615384616em" height="0.6641437006838836em" x="7.788461538461539vw" y="2.3358562993161165em" fill="#aaa"/><rect width="0.09615384615384616em" height="0.6182584267219732em" x="7.884615384615385vw" y="2.3817415732780267em" fill="#aaa"/><rect width="0.09615384615384616em" height="0.6153640405328678em" x="7.980769230769231vw" y="2.3846359594671322em" fill="#aaa"/><rect width="0.09615384615384616em" height="0.5759747027390497em" x="8.076923076923077vw" y="2.4240252972609504em" fill="#aaa"/><rect width="0.09615384615384616em" height="0.5279731125495282em" x="8.173076923076923vw" y="2.472026887450472em" fill="#aaa"/><rect width="0.09615384615384616em" height="0.6004926400198779em" x="8.26923076923077vw" y="2.399507359980122em" fill="#aaa"/><rect width="0.09615384615384616em" height="0.5271713211869963em" x="8.365384615384615vw" y="2.472828678813004em" fill="#aaa"/><rect width="0.09615384615384616em" height="0.7060368113535118em" x="8.461538461538462vw" y="2.2939631886464884em" fill="#aaa"/><rect width="0.09615384615384616em" height="0.617616641896723em" x="8.557692307692308vw" y="2.3823833581032767em" fill="#aaa"/><rect width="0.09615384615384616em" height="0.5209017901792077em" x="8.653846153846155vw" y="2.4790982098207923em" fill="#aaa"/><rect width="0.09615384615384616em" height="0.5925526383548222em" x="8.75vw" y="2.4074473616451777em" fill="#aaa"/><rect width="0.09615384615384616em" height="0.5963690169866532em" x="8.846153846153847vw" y="2.403630983013347em" fill="#aaa"/><rect width="0.09615384615384616em" height="0.5795285035338943em" x="8.942307692307693vw" y="2.4204714964661056em" fill="#aaa"/><rect width="0.09615384615384616em" height="0.5378537643354195em" x="9.038461538461538vw" y="2.4621462356645805em" fill="#aaa"/><rect width="0.09615384615384616em" height="0.614053416811307em" x="9.134615384615385vw" y="2.385946583188693em" fill="#aaa"/><rect width="0.09615384615384616em" height="0.5291599199603496em" x="9.230769230769232vw" y="2.4708400800396504em" fill="#aaa"/><rect width="0.09615384615384616em" height="0.5039619073550576em" x="9.326923076923077vw" y="2.4960380926449424em" fill="#aaa"/><rect width="0.09615384615384616em" height="0.5701650653852838em" x="9.423076923076923vw" y="2.4298349346147163em" fill="#aaa"/><rect width="0.09615384615384616em" height="0.49375814589009487em" x="9.51923076923077vw" y="2.506241854109905em" fill="#aaa"/><rect width="0.09615384615384616em" height="0.47843297624791176em" x="9.615384615384617vw" y="2.5215670237520884em" fill="#aaa"/><rect width="0.09615384615384616em" height="0.6085845204391933em" x="9.711538461538462vw" y="2.3914154795608065em" fill="#aaa"/><rect width="0.09615384615384616em" height="0.4842527982934774em" x="9.807692307692308vw" y="2.5157472017065228em" fill="#aaa"/><rect width="0.09615384615384616em" height="0.5486417119817943em" x="9.903846153846155vw" y="2.4513582880182057em" fill="#aaa"/></svg>