<?xml version="1.0" standalone="no"?>
<svg xmlns:xlink="http://www.w3.org/1999/xlink" xmlns="http://www.w3.org/2000/svg" class="topic-graph" style="width: 10vw; height: 3em; text-align: center;"><rect width="0.09615384615384616em" height="0.13537329928911887em" x="0vw" y="2.864626700710881em" fill="#aaa"/><rect width="0.09615384615384616em" height="0.1365151795123916em" x="0.09615384615384616vw" y="2.863484820487608em" fill="#aaa"/><rect width="0.09615384615384616em" height="0.23975624120976635em" x="0.19230769230769232vw" y="2.7602437587902338em" fill="#aaa"/><rect width="0.09615384615384616em" height="0.008928474921505811em" x="0.2884615384615385vw" y="2.9910715250784943em" fill="#aaa"/><rect width="0.09615384615384616em" height="0.5220352067830112em" x="0.38461538461538464vw" y="2.477964793216989em" fill="#aaa"/><rect width="0.09615384615384616em" height="0.756678101975208em" x="0.4807692307692308vw" y="2.243321898024792em" fill="#aaa"/><rect width="0.09615384615384616em" height="0.13807877515874178em" x="0.576923076923077vw" y="2.861921224841258em" fill="#aaa"/><rect width="0.09615384615384616em" height="0.22891742716071845em" x="0.6730769230769231vw" y="2.7710825728392816em" fill="#aaa"/><rect width="0.09615384615384616em" height="0.5409976719312347em" x="0.7692307692307693vw" y="2.4590023280687654em" fill="#aaa"/><rect width="0.09615384615384616em" height="0.9794783730170487em" x="0.8653846153846154vw" y="2.0205216269829513em" fill="#aaa"/><rect width="0.09615384615384616em" height="1.128734796934825em" x="0.9615384615384616vw" y="1.871265203065175em" fill="#aaa"/><rect width="0.09615384615384616em" height="0.48643618299925573em" x="1.0576923076923077vw" y="2.5135638170007444em" fill="#aaa"/><rect width="0.09615384615384616em" height="0.15351861773040132em" x="1.153846153846154vw" y="2.846481382269599em" fill="#aaa"/><rect width="0.09615384615384616em" height="0.31353975205905205em" x="1.25vw" y="2.686460247940948em" fill="#aaa"/><rect width="0.09615384615384616em" height="0.04618244711743928em" x="1.3461538461538463vw" y="2.9538175528825605em" fill="#aaa"/><rect width="0.09615384615384616em" height="0.22397250902165794em" x="1.4423076923076923vw" y="2.776027490978342em" fill="#aaa"/><rect width="0.09615384615384616em" height="0.10590262169134174em" x="1.5384615384615385vw" y="2.894097378308658em" fill="#aaa"/><rect width="0.09615384615384616em" height="0.6983697726016437em" x="1.6346153846153848vw" y="2.3016302273983564em" fill="#aaa"/><rect width="0.09615384615384616em" height="0.2417886257014738em" x="1.7307692307692308vw" y="2.758211374298526em" fill="#aaa"/><rect width="0.09615384615384616em" height="0.6181251577340742em" x="1.826923076923077vw" y="2.3818748422659257em" fill="#aaa"/><rect width="0.09615384615384616em" height="0.836062560084327em" x="1.9230769230769231vw" y="2.163937439915673em" fill="#aaa"/><rect width="0.09615384615384616em" height="3em" x="2.019230769230769vw" y="0em" fill="#aaa"/><rect width="0.09615384615384616em" height="0.7090760572449062em" x="2.1153846153846154vw" y="2.290923942755094em" fill="#aaa"/><rect width="0.09615384615384616em" height="2.294455773438627em" x="2.2115384615384617vw" y="0.705544226561373em" fill="#aaa"/><rect width="0.09615384615384616em" height="0.971001419175312em" x="2.307692307692308vw" y="2.028998580824688em" fill="#aaa"/><rect width="0.09615384615384616em" height="0.4353839192518245em" x="2.403846153846154vw" y="2.5646160807481753em" fill="#aaa"/><rect width="0.09615384615384616em" height="0.4907804614458291em" x="2.5vw" y="2.509219538554171em" fill="#aaa"/><rect width="0.09615384615384616em" height="0.6850844325101644em" x="2.5961538461538463vw" y="2.3149155674898356em" fill="#aaa"/><rect width="0.09615384615384616em" height="0.46372725919231816em" x="2.6923076923076925vw" y="2.5362727408076817em" fill="#aaa"/><rect width="0.09615384615384616em" height="0.38007493552552474em" x="2.7884615384615388vw" y="2.6199250644744754em" fill="#aaa"/><rect width="0.09615384615384616em" height="0.9164987822686086em" x="2.8846153846153846vw" y="2.083501217731391em" fill="#aaa"/><rect width="0.09615384615384616em" height="0.4955856165602247em" x="2.980769230769231vw" y="2.504414383439775em" fill="#aaa"/><rect width="0.09615384615384616em" height="0.399858801636363em" x="3.076923076923077vw" y="2.600141198363637em" fill="#aaa"/><rect width="0.09615384615384616em" height="0.4802941717874789em" x="3.1730769230769234vw" y="2.519705828212521em" fill="#aaa"/><rect width="0.09615384615384616em" height="0.3335319495881085em" x="3.2692307692307696vw" y="2.6664680504118916em" fill="#aaa"/><rect width="0.09615384615384616em" height="0.37628508331154265em" x="3.3653846153846154vw" y="2.6237149166884572em" fill="#aaa"/><rect width="0.09615384615384616em" height="0.32062682728652253em" x="3.4615384615384617vw" y="2.6793731727134773em" fill="#aaa"/><rect width="0.09615384615384616em" height="0.303703358804723em" x="3.557692307692308vw" y="2.696296641195277em" fill="#aaa"/><rect width="0.09615384615384616em" height="0.3779790626989211em" x="3.653846153846154vw" y="2.622020937301079em" fill="#aaa"/><rect width="0.09615384615384616em" height="0.611660050588448em" x="3.75vw" y="2.3883399494115523em" fill="#aaa"/><rect width="0.09615384615384616em" height="0.7581350299757921em" x="3.8461538461538463vw" y="2.241864970024208em" fill="#aaa"/><rect width="0.09615384615384616em" height="0.17460631313608288em" x="3.9423076923076925vw" y="2.825393686863917em" fill="#aaa"/><rect width="0.09615384615384616em" height="0.30746572009732204em" x="4.038461538461538vw" y="2.692534279902678em" fill="#aaa"/><rect width="0.09615384615384616em" height="0.3043604010874943em" x="4.134615384615385vw" y="2.6956395989125057em" fill="#aaa"/><rect width="0.09615384615384616em" height="0.24976629201802622em" x="4.230769230769231vw" y="2.7502337079819736em" fill="#aaa"/><rect width="0.09615384615384616em" height="0.2069680568763151em" x="4.3269230769230775vw" y="2.793031943123685em" fill="#aaa"/><rect width="0.09615384615384616em" height="0.30670624172851096em" x="4.423076923076923vw" y="2.693293758271489em" fill="#aaa"/><rect width="0.09615384615384616em" height="0.3380856584366426em" x="4.519230769230769vw" y="2.6619143415633575em" fill="#aaa"/><rect width="0.09615384615384616em" height="0.44459060727703276em" x="4.615384615384616vw" y="2.555409392722967em" fill="#aaa"/><rect width="0.09615384615384616em" height="0.40801328872662024em" x="4.711538461538462vw" y="2.5919867112733797em" fill="#aaa"/><rect width="0.09615384615384616em" height="0.30390885125216527em" x="4.807692307692308vw" y="2.6960911487478345em" fill="#aaa"/><rect width="0.09615384615384616em" height="0.23047506892327335em" x="4.903846153846154vw" y="2.7695249310767265em" fill="#aaa"/><rect width="0.09615384615384616em" height="0.22362530134043088em" x="5vw" y="2.776374698659569em" fill="#aaa"/><rect width="0.09615384615384616em" height="0.27360823850574517em" x="5.096153846153847vw" y="2.7263917614942548em" fill="#aaa"/><rect width="0.09615384615384616em" height="0.3481416929386299em" x="5.1923076923076925vw" y="2.65185830706137em" fill="#aaa"/><rect width="0.09615384615384616em" height="0.26381399398014116em" x="5.288461538461538vw" y="2.736186006019859em" fill="#aaa"/><rect width="0.09615384615384616em" height="0.36016168072705695em" x="5.384615384615385vw" y="2.639838319272943em" fill="#aaa"/><rect width="0.09615384615384616em" height="0.4598168110905422em" x="5.480769230769231vw" y="2.5401831889094577em" fill="#aaa"/><rect width="0.09615384615384616em" height="0.3851483431576822em" x="5.5769230769230775vw" y="2.6148516568423177em" fill="#aaa"/><rect width="0.09615384615384616em" height="0.14488047223882872em" x="5.673076923076923vw" y="2.8551195277611714em" fill="#aaa"/><rect width="0.09615384615384616em" height="0.27872708049630585em" x="5.769230769230769vw" y="2.721272919503694em" fill="#aaa"/><rect width="0.09615384615384616em" height="0.41955260776358466em" x="5.865384615384616vw" y="2.5804473922364153em" fill="#aaa"/><rect width="0.09615384615384616em" height="0.3494481096469643em" x="5.961538461538462vw" y="2.650551890353036em" fill="#aaa"/><rect width="0.09615384615384616em" height="0.611179451681247em" x="6.057692307692308vw" y="2.388820548318753em" fill="#aaa"/><rect width="0.09615384615384616em" height="0.4870484704343171em" x="6.153846153846154vw" y="2.512951529565683em" fill="#aaa"/><rect width="0.09615384615384616em" height="0.21079004072945812em" x="6.25vw" y="2.7892099592705417em" fill="#aaa"/><rect width="0.09615384615384616em" height="0.188510883028017em" x="6.346153846153847vw" y="2.811489116971983em" fill="#aaa"/><rect width="0.09615384615384616em" height="0.20308608462286065em" x="6.4423076923076925vw" y="2.7969139153771394em" fill="#aaa"/><rect width="0.09615384615384616em" height="0.23293660124585186em" x="6.538461538461539vw" y="2.767063398754148em" fill="#aaa"/><rect width="0.09615384615384616em" height="0.19381826355875673em" x="6.634615384615385vw" y="2.806181736441243em" fill="#aaa"/><rect width="0.09615384615384616em" height="0.1065709361291021em" x="6.730769230769231vw" y="2.8934290638708977em" fill="#aaa"/><rect width="0.09615384615384616em" height="0.22425886606155848em" x="6.8269230769230775vw" y="2.7757411339384417em" fill="#aaa"/><rect width="0.09615384615384616em" height="0.15590681866430273em" x="6.923076923076923vw" y="2.844093181335697em" fill="#aaa"/><rect width="0.09615384615384616em" height="0.1653829588050356em" x="7.01923076923077vw" y="2.8346170411949645em" fill="#aaa"/><rect width="0.09615384615384616em" height="0.29285761103461505em" x="7.115384615384616vw" y="2.707142388965385em" fill="#aaa"/><rect width="0.09615384615384616em" height="0.23352171963130325em" x="7.211538461538462vw" y="2.766478280368697em" fill="#aaa"/><rect width="0.09615384615384616em" height="0.2723936236894909em" x="7.307692307692308vw" y="2.727606376310509em" fill="#aaa"/><rect width="0.09615384615384616em" height="0.23642146943007494em" x="7.403846153846154vw" y="2.763578530569925em" fill="#aaa"/><rect width="0.09615384615384616em" height="0.23093228113734965em" x="7.5vw" y="2.7690677188626505em" fill="#aaa"/><rect width="0.09615384615384616em" height="0.3276050291551273em" x="7.596153846153847vw" y="2.6723949708448727em" fill="#aaa"/><rect width="0.09615384615384616em" height="0.22774236431613892em" x="7.6923076923076925vw" y="2.772257635683861em" fill="#aaa"/><rect width="0.09615384615384616em" height="0.3047975662891891em" x="7.788461538461539vw" y="2.695202433710811em" fill="#aaa"/><rect width="0.09615384615384616em" height="0.1749188494705434em" x="7.884615384615385vw" y="2.8250811505294564em" fill="#aaa"/><rect width="0.09615384615384616em" height="0.17327727379617838em" x="7.980769230769231vw" y="2.8267227262038217em" fill="#aaa"/><rect width="0.09615384615384616em" height="0.19886469318903982em" x="8.076923076923077vw" y="2.80113530681096em" fill="#aaa"/><rect width="0.09615384615384616em" height="0.24192127636309152em" x="8.173076923076923vw" y="2.7580787236369084em" fill="#aaa"/><rect width="0.09615384615384616em" height="0.1562549223060237em" x="8.26923076923077vw" y="2.8437450776939763em" fill="#aaa"/><rect width="0.09615384615384616em" height="0.223373735179698em" x="8.365384615384615vw" y="2.776626264820302em" fill="#aaa"/><rect width="0.09615384615384616em" height="0.21235223485541527em" x="8.461538461538462vw" y="2.787647765144585em" fill="#aaa"/><rect width="0.09615384615384616em" height="0.3081948762258777em" x="8.557692307692308vw" y="2.691805123774122em" fill="#aaa"/><rect width="0.09615384615384616em" height="0.18839054368996389em" x="8.653846153846155vw" y="2.8116094563100362em" fill="#aaa"/><rect width="0.09615384615384616em" height="0.17243473186302963em" x="8.75vw" y="2.8275652681369703em" fill="#aaa"/><rect width="0.09615384615384616em" height="0.21225277378434657em" x="8.846153846153847vw" y="2.7877472262156533em" fill="#aaa"/><rect width="0.09615384615384616em" height="0.20642784840427902em" x="8.942307692307693vw" y="2.793572151595721em" fill="#aaa"/><rect width="0.09615384615384616em" height="0.20224523672985534em" x="9.038461538461538vw" y="2.7977547632701447em" fill="#aaa"/><rect width="0.09615384615384616em" height="0.20742191589298542em" x="9.134615384615385vw" y="2.7925780841070145em" fill="#aaa"/><rect width="0.09615384615384616em" height="0.38541786558318114em" x="9.230769230769232vw" y="2.614582134416819em" fill="#aaa"/><rect width="0.09615384615384616em" height="0.18388209247258236em" x="9.326923076923077vw" y="2.816117907527418em" fill="#aaa"/><rect width="0.09615384615384616em" height="0.11376884131995657em" x="9.423076923076923vw" y="2.8862311586800433em" fill="#aaa"/><rect width="0.09615384615384616em" height="0.2758197372214161em" x="9.51923076923077vw" y="2.724180262778584em" fill="#aaa"/><rect width="0.09615384615384616em" height="0.21001926524034598em" x="9.615384615384617vw" y="2.789980734759654em" fill="#aaa"/><rect width="0.09615384615384616em" height="0.1632727594807644em" x="9.711538461538462vw" y="2.8367272405192354em" fill="#aaa"/><rect width="0.09615384615384616em" height="0.1390732004326371em" x="9.807692307692308vw" y="2.860926799567363em" fill="#aaa"/><rect width="0.09615384615384616em" height="0.18383965478699937em" x="9.903846153846155vw" y="2.8161603452130004em" fill="#aaa"/></svg>