<?xml version="1.0" standalone="no"?>
<svg xmlns:xlink="http://www.w3.org/1999/xlink" xmlns="http://www.w3.org/2000/svg" class="topic-graph" style="width: 10vw; height: 3em; text-align: center;"><rect width="0.09615384615384616em" height="1.6072736980866704em" x="0vw" y="1.3927263019133296em" fill="#aaa"/><rect width="0.09615384615384616em" height="0.592273857510913em" x="0.09615384615384616vw" y="2.407726142489087em" fill="#aaa"/><rect width="0.09615384615384616em" height="0.34132243710059873em" x="0.19230769230769232vw" y="2.6586775628994013em" fill="#aaa"/><rect width="0.09615384615384616em" height="0.6805046703426506em" x="0.2884615384615385vw" y="2.3194953296573493em" fill="#aaa"/><rect width="0.09615384615384616em" height="0.2583864567175742em" x="0.38461538461538464vw" y="2.741613543282426em" fill="#aaa"/><rect width="0.09615384615384616em" height="0.9582282116604655em" x="0.4807692307692308vw" y="2.0417717883395348em" fill="#aaa"/><rect width="0.09615384615384616em" height="0.19911763880200894em" x="0.576923076923077vw" y="2.800882361197991em" fill="#aaa"/><rect width="0.09615384615384616em" height="0.18649079370508648em" x="0.6730769230769231vw" y="2.8135092062949134em" fill="#aaa"/><rect width="0.09615384615384616em" height="0.8356025163455343em" x="0.7692307692307693vw" y="2.164397483654466em" fill="#aaa"/><rect width="0.09615384615384616em" height="0.3176268273215259em" x="0.8653846153846154vw" y="2.6823731726784743em" fill="#aaa"/><rect width="0.09615384615384616em" height="0.5349828354328565em" x="0.9615384615384616vw" y="2.4650171645671435em" fill="#aaa"/><rect width="0.09615384615384616em" height="0.7796291338766033em" x="1.0576923076923077vw" y="2.220370866123397em" fill="#aaa"/><rect width="0.09615384615384616em" height="0.27108786020119874em" x="1.153846153846154vw" y="2.728912139798801em" fill="#aaa"/><rect width="0.09615384615384616em" height="0.1750340996129351em" x="1.25vw" y="2.824965900387065em" fill="#aaa"/><rect width="0.09615384615384616em" height="0.5686307343308854em" x="1.3461538461538463vw" y="2.4313692656691144em" fill="#aaa"/><rect width="0.09615384615384616em" height="0.3964741357628081em" x="1.4423076923076923vw" y="2.603525864237192em" fill="#aaa"/><rect width="0.09615384615384616em" height="0.30352312096133943em" x="1.5384615384615385vw" y="2.6964768790386606em" fill="#aaa"/><rect width="0.09615384615384616em" height="0.4420762604728333em" x="1.6346153846153848vw" y="2.557923739527167em" fill="#aaa"/><rect width="0.09615384615384616em" height="3em" x="1.7307692307692308vw" y="0em" fill="#aaa"/><rect width="0.09615384615384616em" height="1.3022283006151696em" x="1.826923076923077vw" y="1.6977716993848304em" fill="#aaa"/><rect width="0.09615384615384616em" height="0.9123350861328681em" x="1.9230769230769231vw" y="2.087664913867132em" fill="#aaa"/><rect width="0.09615384615384616em" height="0.13576057455048135em" x="2.019230769230769vw" y="2.8642394254495187em" fill="#aaa"/><rect width="0.09615384615384616em" height="0.535551589182282em" x="2.1153846153846154vw" y="2.464448410817718em" fill="#aaa"/><rect width="0.09615384615384616em" height="0.07453479378235792em" x="2.2115384615384617vw" y="2.925465206217642em" fill="#aaa"/><rect width="0.09615384615384616em" height="0.9597260386257405em" x="2.307692307692308vw" y="2.0402739613742593em" fill="#aaa"/><rect width="0.09615384615384616em" height="0.27629351362683857em" x="2.403846153846154vw" y="2.7237064863731613em" fill="#aaa"/><rect width="0.09615384615384616em" height="0.09958323235938349em" x="2.5vw" y="2.9004167676406167em" fill="#aaa"/><rect width="0.09615384615384616em" height="0.17241852791712725em" x="2.5961538461538463vw" y="2.8275814720828727em" fill="#aaa"/><rect width="0.09615384615384616em" height="0.3230695472811768em" x="2.6923076923076925vw" y="2.6769304527188234em" fill="#aaa"/><rect width="0.09615384615384616em" height="0.9983612973101659em" x="2.7884615384615388vw" y="2.001638702689834em" fill="#aaa"/><rect width="0.09615384615384616em" height="0.17137264067798982em" x="2.8846153846153846vw" y="2.8286273593220104em" fill="#aaa"/><rect width="0.09615384615384616em" height="0.16980243852571353em" x="2.980769230769231vw" y="2.8301975614742867em" fill="#aaa"/><rect width="0.09615384615384616em" height="0.1410692119640682em" x="3.076923076923077vw" y="2.8589307880359316em" fill="#aaa"/><rect width="0.09615384615384616em" height="0.21586540623976908em" x="3.1730769230769234vw" y="2.784134593760231em" fill="#aaa"/><rect width="0.09615384615384616em" height="0.29013209733246914em" x="3.2692307692307696vw" y="2.709867902667531em" fill="#aaa"/><rect width="0.09615384615384616em" height="0.18126312261404232em" x="3.3653846153846154vw" y="2.8187368773859576em" fill="#aaa"/><rect width="0.09615384615384616em" height="0.31438279207526em" x="3.4615384615384617vw" y="2.6856172079247402em" fill="#aaa"/><rect width="0.09615384615384616em" height="0.20696470067386982em" x="3.557692307692308vw" y="2.7930352993261303em" fill="#aaa"/><rect width="0.09615384615384616em" height="0.23568599499194118em" x="3.653846153846154vw" y="2.764314005008059em" fill="#aaa"/><rect width="0.09615384615384616em" height="0.08365102146107786em" x="3.75vw" y="2.916348978538922em" fill="#aaa"/><rect width="0.09615384615384616em" height="0.18120814494159282em" x="3.8461538461538463vw" y="2.8187918550584072em" fill="#aaa"/><rect width="0.09615384615384616em" height="0.12207839315414035em" x="3.9423076923076925vw" y="2.8779216068458595em" fill="#aaa"/><rect width="0.09615384615384616em" height="0.23207025669755743em" x="4.038461538461538vw" y="2.7679297433024423em" fill="#aaa"/><rect width="0.09615384615384616em" height="0.12673372560028093em" x="4.134615384615385vw" y="2.873266274399719em" fill="#aaa"/><rect width="0.09615384615384616em" height="0.18173370881837989em" x="4.230769230769231vw" y="2.81826629118162em" fill="#aaa"/><rect width="0.09615384615384616em" height="0.10108956208161644em" x="4.3269230769230775vw" y="2.8989104379183837em" fill="#aaa"/><rect width="0.09615384615384616em" height="0.0343970036790238em" x="4.423076923076923vw" y="2.965602996320976em" fill="#aaa"/><rect width="0.09615384615384616em" height="0.3241422774655163em" x="4.519230769230769vw" y="2.6758577225344835em" fill="#aaa"/><rect width="0.09615384615384616em" height="1.569944028200282em" x="4.615384615384616vw" y="1.430055971799718em" fill="#aaa"/><rect width="0.09615384615384616em" height="0.4743631197902434em" x="4.711538461538462vw" y="2.5256368802097566em" fill="#aaa"/><rect width="0.09615384615384616em" height="0.5868766054671384em" x="4.807692307692308vw" y="2.4131233945328616em" fill="#aaa"/><rect width="0.09615384615384616em" height="0.23417871298520673em" x="4.903846153846154vw" y="2.765821287014793em" fill="#aaa"/><rect width="0.09615384615384616em" height="0.24996057429142682em" x="5vw" y="2.7500394257085734em" fill="#aaa"/><rect width="0.09615384615384616em" height="0.27545122120397003em" x="5.096153846153847vw" y="2.72454877879603em" fill="#aaa"/><rect width="0.09615384615384616em" height="0.21111451006904725em" x="5.1923076923076925vw" y="2.7888854899309528em" fill="#aaa"/><rect width="0.09615384615384616em" height="0.7520869363488759em" x="5.288461538461538vw" y="2.247913063651124em" fill="#aaa"/><rect width="0.09615384615384616em" height="0.43614819429229507em" x="5.384615384615385vw" y="2.563851805707705em" fill="#aaa"/><rect width="0.09615384615384616em" height="0.5463422187941477em" x="5.480769230769231vw" y="2.453657781205852em" fill="#aaa"/><rect width="0.09615384615384616em" height="0.8358386166356471em" x="5.5769230769230775vw" y="2.1641613833643527em" fill="#aaa"/><rect width="0.09615384615384616em" height="0.4496598551517922em" x="5.673076923076923vw" y="2.550340144848208em" fill="#aaa"/><rect width="0.09615384615384616em" height="0.40919793317536934em" x="5.769230769230769vw" y="2.5908020668246308em" fill="#aaa"/><rect width="0.09615384615384616em" height="0.8840203261300736em" x="5.865384615384616vw" y="2.1159796738699264em" fill="#aaa"/><rect width="0.09615384615384616em" height="0.4222423223589184em" x="5.961538461538462vw" y="2.5777576776410815em" fill="#aaa"/><rect width="0.09615384615384616em" height="0.14881875965300462em" x="6.057692307692308vw" y="2.851181240346995em" fill="#aaa"/><rect width="0.09615384615384616em" height="0.48843773554434033em" x="6.153846153846154vw" y="2.5115622644556597em" fill="#aaa"/><rect width="0.09615384615384616em" height="0.4191821192635971em" x="6.25vw" y="2.580817880736403em" fill="#aaa"/><rect width="0.09615384615384616em" height="0.5375610135499793em" x="6.346153846153847vw" y="2.462438986450021em" fill="#aaa"/><rect width="0.09615384615384616em" height="0.5284062187650546em" x="6.4423076923076925vw" y="2.4715937812349456em" fill="#aaa"/><rect width="0.09615384615384616em" height="0.19124985881144052em" x="6.538461538461539vw" y="2.8087501411885594em" fill="#aaa"/><rect width="0.09615384615384616em" height="0.6831192428714151em" x="6.634615384615385vw" y="2.316880757128585em" fill="#aaa"/><rect width="0.09615384615384616em" height="0.2127261048789036em" x="6.730769230769231vw" y="2.7872738951210962em" fill="#aaa"/><rect width="0.09615384615384616em" height="0.19821561080716898em" x="6.8269230769230775vw" y="2.801784389192831em" fill="#aaa"/><rect width="0.09615384615384616em" height="0.182380452641082em" x="6.923076923076923vw" y="2.817619547358918em" fill="#aaa"/><rect width="0.09615384615384616em" height="0.28015304422868836em" x="7.01923076923077vw" y="2.7198469557713114em" fill="#aaa"/><rect width="0.09615384615384616em" height="0.2624486571606936em" x="7.115384615384616vw" y="2.7375513428393066em" fill="#aaa"/><rect width="0.09615384615384616em" height="0.42979177733257656em" x="7.211538461538462vw" y="2.570208222667423em" fill="#aaa"/><rect width="0.09615384615384616em" height="0.3850641744364709em" x="7.307692307692308vw" y="2.614935825563529em" fill="#aaa"/><rect width="0.09615384615384616em" height="0.2359587421862943em" x="7.403846153846154vw" y="2.7640412578137057em" fill="#aaa"/><rect width="0.09615384615384616em" height="0.36805741297341416em" x="7.5vw" y="2.631942587026586em" fill="#aaa"/><rect width="0.09615384615384616em" height="0.8313008021574275em" x="7.596153846153847vw" y="2.1686991978425727em" fill="#aaa"/><rect width="0.09615384615384616em" height="0.2258140054264825em" x="7.6923076923076925vw" y="2.7741859945735174em" fill="#aaa"/><rect width="0.09615384615384616em" height="0.16666573100467338em" x="7.788461538461539vw" y="2.8333342689953267em" fill="#aaa"/><rect width="0.09615384615384616em" height="0.5093148677881869em" x="7.884615384615385vw" y="2.490685132211813em" fill="#aaa"/><rect width="0.09615384615384616em" height="0.8696653923468258em" x="7.980769230769231vw" y="2.1303346076531744em" fill="#aaa"/><rect width="0.09615384615384616em" height="0.5147366709067198em" x="8.076923076923077vw" y="2.4852633290932804em" fill="#aaa"/><rect width="0.09615384615384616em" height="0.27412493575853325em" x="8.173076923076923vw" y="2.7258750642414666em" fill="#aaa"/><rect width="0.09615384615384616em" height="0.24924779501893085em" x="8.26923076923077vw" y="2.7507522049810693em" fill="#aaa"/><rect width="0.09615384615384616em" height="0.41841950215868373em" x="8.365384615384615vw" y="2.5815804978413164em" fill="#aaa"/><rect width="0.09615384615384616em" height="0.35591985671481063em" x="8.461538461538462vw" y="2.6440801432851893em" fill="#aaa"/><rect width="0.09615384615384616em" height="0.3121432443273929em" x="8.557692307692308vw" y="2.687856755672607em" fill="#aaa"/><rect width="0.09615384615384616em" height="0.21901112164286143em" x="8.653846153846155vw" y="2.7809888783571384em" fill="#aaa"/><rect width="0.09615384615384616em" height="0.44630838796934924em" x="8.75vw" y="2.5536916120306508em" fill="#aaa"/><rect width="0.09615384615384616em" height="0.34309435434184665em" x="8.846153846153847vw" y="2.6569056456581532em" fill="#aaa"/><rect width="0.09615384615384616em" height="0.18431634825247864em" x="8.942307692307693vw" y="2.815683651747521em" fill="#aaa"/><rect width="0.09615384615384616em" height="0.3881311875525989em" x="9.038461538461538vw" y="2.611868812447401em" fill="#aaa"/><rect width="0.09615384615384616em" height="0.3782384840631907em" x="9.134615384615385vw" y="2.621761515936809em" fill="#aaa"/><rect width="0.09615384615384616em" height="0.24212749667243633em" x="9.230769230769232vw" y="2.7578725033275635em" fill="#aaa"/><rect width="0.09615384615384616em" height="0.16697857808440342em" x="9.326923076923077vw" y="2.8330214219155967em" fill="#aaa"/><rect width="0.09615384615384616em" height="0.3886810698665024em" x="9.423076923076923vw" y="2.6113189301334976em" fill="#aaa"/><rect width="0.09615384615384616em" height="0.48821758734905507em" x="9.51923076923077vw" y="2.5117824126509447em" fill="#aaa"/><rect width="0.09615384615384616em" height="0.4307451749141615em" x="9.615384615384617vw" y="2.5692548250858387em" fill="#aaa"/><rect width="0.09615384615384616em" height="0.3073265378550489em" x="9.711538461538462vw" y="2.6926734621449513em" fill="#aaa"/><rect width="0.09615384615384616em" height="0.4342908617176454em" x="9.807692307692308vw" y="2.5657091382823545em" fill="#aaa"/><rect width="0.09615384615384616em" height="0.4321356880439138em" x="9.903846153846155vw" y="2.567864311956086em" fill="#aaa"/></svg>