<?xml version="1.0" standalone="no"?>
<svg xmlns:xlink="http://www.w3.org/1999/xlink" xmlns="http://www.w3.org/2000/svg" class="topic-graph" style="width: 10vw; height: 3em; text-align: center;"><rect width="0.09615384615384616em" height="0.05319924112285507em" x="0vw" y="2.9468007588771448em" fill="#aaa"/><rect width="0.09615384615384616em" height="0.2732644202950627em" x="0.09615384615384616vw" y="2.726735579704937em" fill="#aaa"/><rect width="0.09615384615384616em" height="0.42431386049683734em" x="0.19230769230769232vw" y="2.5756861395031625em" fill="#aaa"/><rect width="0.09615384615384616em" height="0.037531108924053445em" x="0.2884615384615385vw" y="2.9624688910759467em" fill="#aaa"/><rect width="0.09615384615384616em" height="0.7355766220490616em" x="0.38461538461538464vw" y="2.2644233779509384em" fill="#aaa"/><rect width="0.09615384615384616em" height="0.38932875020439217em" x="0.4807692307692308vw" y="2.6106712497956077em" fill="#aaa"/><rect width="0.09615384615384616em" height="0.15394351330364042em" x="0.576923076923077vw" y="2.8460564866963596em" fill="#aaa"/><rect width="0.09615384615384616em" height="0.08735539227981946em" x="0.6730769230769231vw" y="2.9126446077201806em" fill="#aaa"/><rect width="0.09615384615384616em" height="0.3204230630376217em" x="0.7692307692307693vw" y="2.6795769369623783em" fill="#aaa"/><rect width="0.09615384615384616em" height="0.04635123561559044em" x="0.8653846153846154vw" y="2.9536487643844094em" fill="#aaa"/><rect width="0.09615384615384616em" height="0.13082207529340248em" x="0.9615384615384616vw" y="2.8691779247065976em" fill="#aaa"/><rect width="0.09615384615384616em" height="0.07811337133519404em" x="1.0576923076923077vw" y="2.9218866286648058em" fill="#aaa"/><rect width="0.09615384615384616em" height="0.15366556439017598em" x="1.153846153846154vw" y="2.846334435609824em" fill="#aaa"/><rect width="0.09615384615384616em" height="0.18907901941291183em" x="1.25vw" y="2.8109209805870883em" fill="#aaa"/><rect width="0.09615384615384616em" height="0.07939876237483122em" x="1.3461538461538463vw" y="2.920601237625169em" fill="#aaa"/><rect width="0.09615384615384616em" height="0.18846193187630947em" x="1.4423076923076923vw" y="2.8115380681236903em" fill="#aaa"/><rect width="0.09615384615384616em" height="0.11627131680938296em" x="1.5384615384615385vw" y="2.883728683190617em" fill="#aaa"/><rect width="0.09615384615384616em" height="0.05907125623562755em" x="1.6346153846153848vw" y="2.9409287437643723em" fill="#aaa"/><rect width="0.09615384615384616em" height="0.12522908407233338em" x="1.7307692307692308vw" y="2.8747709159276664em" fill="#aaa"/><rect width="0.09615384615384616em" height="0.0850609734804828em" x="1.826923076923077vw" y="2.914939026519517em" fill="#aaa"/><rect width="0.09615384615384616em" height="0.1278502300159913em" x="1.9230769230769231vw" y="2.872149769984009em" fill="#aaa"/><rect width="0.09615384615384616em" height="0.11148319014118717em" x="2.019230769230769vw" y="2.888516809858813em" fill="#aaa"/><rect width="0.09615384615384616em" height="0.09289345142190654em" x="2.1153846153846154vw" y="2.9071065485780934em" fill="#aaa"/><rect width="0.09615384615384616em" height="0.04307543556033313em" x="2.2115384615384617vw" y="2.956924564439667em" fill="#aaa"/><rect width="0.09615384615384616em" height="0.06953021939794148em" x="2.307692307692308vw" y="2.9304697806020585em" fill="#aaa"/><rect width="0.09615384615384616em" height="0.2165625222144642em" x="2.403846153846154vw" y="2.7834374777855357em" fill="#aaa"/><rect width="0.09615384615384616em" height="0.12098809294392515em" x="2.5vw" y="2.879011907056075em" fill="#aaa"/><rect width="0.09615384615384616em" height="0.08025588544399287em" x="2.5961538461538463vw" y="2.919744114556007em" fill="#aaa"/><rect width="0.09615384615384616em" height="0.3423798252147813em" x="2.6923076923076925vw" y="2.657620174785219em" fill="#aaa"/><rect width="0.09615384615384616em" height="0.5135307781944256em" x="2.7884615384615388vw" y="2.4864692218055744em" fill="#aaa"/><rect width="0.09615384615384616em" height="0.4359814235537721em" x="2.8846153846153846vw" y="2.564018576446228em" fill="#aaa"/><rect width="0.09615384615384616em" height="0.4514726514365681em" x="2.980769230769231vw" y="2.548527348563432em" fill="#aaa"/><rect width="0.09615384615384616em" height="0.6070189363765307em" x="3.076923076923077vw" y="2.3929810636234694em" fill="#aaa"/><rect width="0.09615384615384616em" height="0.39429762997372em" x="3.1730769230769234vw" y="2.60570237002628em" fill="#aaa"/><rect width="0.09615384615384616em" height="0.3190897488751911em" x="3.2692307692307696vw" y="2.680910251124809em" fill="#aaa"/><rect width="0.09615384615384616em" height="0.305102748814009em" x="3.3653846153846154vw" y="2.694897251185991em" fill="#aaa"/><rect width="0.09615384615384616em" height="0.21218847773673286em" x="3.4615384615384617vw" y="2.7878115222632673em" fill="#aaa"/><rect width="0.09615384615384616em" height="0.33298694734073697em" x="3.557692307692308vw" y="2.667013052659263em" fill="#aaa"/><rect width="0.09615384615384616em" height="0.14250795695733592em" x="3.653846153846154vw" y="2.8574920430426642em" fill="#aaa"/><rect width="0.09615384615384616em" height="0.10387562046179724em" x="3.75vw" y="2.8961243795382026em" fill="#aaa"/><rect width="0.09615384615384616em" height="0.6415859265336112em" x="3.8461538461538463vw" y="2.3584140734663888em" fill="#aaa"/><rect width="0.09615384615384616em" height="0.4522034882097997em" x="3.9423076923076925vw" y="2.5477965117902004em" fill="#aaa"/><rect width="0.09615384615384616em" height="0.713566129766102em" x="4.038461538461538vw" y="2.286433870233898em" fill="#aaa"/><rect width="0.09615384615384616em" height="0.8224329487066775em" x="4.134615384615385vw" y="2.1775670512933223em" fill="#aaa"/><rect width="0.09615384615384616em" height="2.5022794317862145em" x="4.230769230769231vw" y="0.4977205682137855em" fill="#aaa"/><rect width="0.09615384615384616em" height="1.3159683742989063em" x="4.3269230769230775vw" y="1.6840316257010937em" fill="#aaa"/><rect width="0.09615384615384616em" height="1.438153102924711em" x="4.423076923076923vw" y="1.561846897075289em" fill="#aaa"/><rect width="0.09615384615384616em" height="0.880359479349912em" x="4.519230769230769vw" y="2.119640520650088em" fill="#aaa"/><rect width="0.09615384615384616em" height="0.9406351109391216em" x="4.615384615384616vw" y="2.0593648890608787em" fill="#aaa"/><rect width="0.09615384615384616em" height="0.8014052267939483em" x="4.711538461538462vw" y="2.1985947732060516em" fill="#aaa"/><rect width="0.09615384615384616em" height="0.5898473377997338em" x="4.807692307692308vw" y="2.4101526622002662em" fill="#aaa"/><rect width="0.09615384615384616em" height="0.7906854276707426em" x="4.903846153846154vw" y="2.2093145723292573em" fill="#aaa"/><rect width="0.09615384615384616em" height="0.5269764580544354em" x="5vw" y="2.4730235419455644em" fill="#aaa"/><rect width="0.09615384615384616em" height="0.40756670680375595em" x="5.096153846153847vw" y="2.592433293196244em" fill="#aaa"/><rect width="0.09615384615384616em" height="0.964016742563732em" x="5.1923076923076925vw" y="2.0359832574362677em" fill="#aaa"/><rect width="0.09615384615384616em" height="0.3679140645139049em" x="5.288461538461538vw" y="2.6320859354860953em" fill="#aaa"/><rect width="0.09615384615384616em" height="0.45631558418303664em" x="5.384615384615385vw" y="2.5436844158169634em" fill="#aaa"/><rect width="0.09615384615384616em" height="0.8431270611349917em" x="5.480769230769231vw" y="2.1568729388650083em" fill="#aaa"/><rect width="0.09615384615384616em" height="0.38055940984320485em" x="5.5769230769230775vw" y="2.619440590156795em" fill="#aaa"/><rect width="0.09615384615384616em" height="1.2103562957450862em" x="5.673076923076923vw" y="1.7896437042549138em" fill="#aaa"/><rect width="0.09615384615384616em" height="1.1533321865821242em" x="5.769230769230769vw" y="1.8466678134178758em" fill="#aaa"/><rect width="0.09615384615384616em" height="0.8446857871010718em" x="5.865384615384616vw" y="2.1553142128989284em" fill="#aaa"/><rect width="0.09615384615384616em" height="0.7104244676681305em" x="5.961538461538462vw" y="2.2895755323318694em" fill="#aaa"/><rect width="0.09615384615384616em" height="1.704804343617368em" x="6.057692307692308vw" y="1.295195656382632em" fill="#aaa"/><rect width="0.09615384615384616em" height="1.8295566048055611em" x="6.153846153846154vw" y="1.1704433951944389em" fill="#aaa"/><rect width="0.09615384615384616em" height="1.6414402771948673em" x="6.25vw" y="1.3585597228051327em" fill="#aaa"/><rect width="0.09615384615384616em" height="1.0377768201552127em" x="6.346153846153847vw" y="1.9622231798447873em" fill="#aaa"/><rect width="0.09615384615384616em" height="1.8805350540482553em" x="6.4423076923076925vw" y="1.1194649459517447em" fill="#aaa"/><rect width="0.09615384615384616em" height="2.311052712234863em" x="6.538461538461539vw" y="0.6889472877651368em" fill="#aaa"/><rect width="0.09615384615384616em" height="1.8880024086357836em" x="6.634615384615385vw" y="1.1119975913642164em" fill="#aaa"/><rect width="0.09615384615384616em" height="1.1065531400806121em" x="6.730769230769231vw" y="1.8934468599193879em" fill="#aaa"/><rect width="0.09615384615384616em" height="1.1310750772563498em" x="6.8269230769230775vw" y="1.8689249227436502em" fill="#aaa"/><rect width="0.09615384615384616em" height="0.7837170214037994em" x="6.923076923076923vw" y="2.2162829785962006em" fill="#aaa"/><rect width="0.09615384615384616em" height="1.1840491913988487em" x="7.01923076923077vw" y="1.8159508086011513em" fill="#aaa"/><rect width="0.09615384615384616em" height="1.282640916658605em" x="7.115384615384616vw" y="1.717359083341395em" fill="#aaa"/><rect width="0.09615384615384616em" height="1.472714961366328em" x="7.211538461538462vw" y="1.527285038633672em" fill="#aaa"/><rect width="0.09615384615384616em" height="0.567574734374519em" x="7.307692307692308vw" y="2.432425265625481em" fill="#aaa"/><rect width="0.09615384615384616em" height="0.8721143552175062em" x="7.403846153846154vw" y="2.1278856447824936em" fill="#aaa"/><rect width="0.09615384615384616em" height="0.6854215116937404em" x="7.5vw" y="2.3145784883062595em" fill="#aaa"/><rect width="0.09615384615384616em" height="0.4353479342020288em" x="7.596153846153847vw" y="2.5646520657979712em" fill="#aaa"/><rect width="0.09615384615384616em" height="1.2787950687151548em" x="7.6923076923076925vw" y="1.7212049312848452em" fill="#aaa"/><rect width="0.09615384615384616em" height="1.0779570878854352em" x="7.788461538461539vw" y="1.9220429121145648em" fill="#aaa"/><rect width="0.09615384615384616em" height="0.747805293936818em" x="7.884615384615385vw" y="2.252194706063182em" fill="#aaa"/><rect width="0.09615384615384616em" height="1.1585640058683857em" x="7.980769230769231vw" y="1.8414359941316143em" fill="#aaa"/><rect width="0.09615384615384616em" height="0.6459655244882785em" x="8.076923076923077vw" y="2.3540344755117215em" fill="#aaa"/><rect width="0.09615384615384616em" height="1.279036869688108em" x="8.173076923076923vw" y="1.720963130311892em" fill="#aaa"/><rect width="0.09615384615384616em" height="0.8515252533839197em" x="8.26923076923077vw" y="2.1484747466160803em" fill="#aaa"/><rect width="0.09615384615384616em" height="1.205418269065245em" x="8.365384615384615vw" y="1.794581730934755em" fill="#aaa"/><rect width="0.09615384615384616em" height="0.8026325383749806em" x="8.461538461538462vw" y="2.1973674616250194em" fill="#aaa"/><rect width="0.09615384615384616em" height="1.2603069848175315em" x="8.557692307692308vw" y="1.7396930151824685em" fill="#aaa"/><rect width="0.09615384615384616em" height="0.762662716745772em" x="8.653846153846155vw" y="2.237337283254228em" fill="#aaa"/><rect width="0.09615384615384616em" height="3em" x="8.75vw" y="0em" fill="#aaa"/><rect width="0.09615384615384616em" height="1.0896375171035575em" x="8.846153846153847vw" y="1.9103624828964425em" fill="#aaa"/><rect width="0.09615384615384616em" height="0.8614218646471374em" x="8.942307692307693vw" y="2.1385781353528626em" fill="#aaa"/><rect width="0.09615384615384616em" height="1.0601959469687203em" x="9.038461538461538vw" y="1.9398040530312797em" fill="#aaa"/><rect width="0.09615384615384616em" height="0.8282227797756803em" x="9.134615384615385vw" y="2.1717772202243197em" fill="#aaa"/><rect width="0.09615384615384616em" height="0.7179488823433265em" x="9.230769230769232vw" y="2.2820511176566733em" fill="#aaa"/><rect width="0.09615384615384616em" height="0.6940988809092664em" x="9.326923076923077vw" y="2.3059011190907337em" fill="#aaa"/><rect width="0.09615384615384616em" height="0.6008447711165317em" x="9.423076923076923vw" y="2.399155228883468em" fill="#aaa"/><rect width="0.09615384615384616em" height="0.7153609021312571em" x="9.51923076923077vw" y="2.2846390978687428em" fill="#aaa"/><rect width="0.09615384615384616em" height="0.6337577605999091em" x="9.615384615384617vw" y="2.366242239400091em" fill="#aaa"/><rect width="0.09615384615384616em" height="0.8520530248751711em" x="9.711538461538462vw" y="2.147946975124829em" fill="#aaa"/><rect width="0.09615384615384616em" height="0.665169154264068em" x="9.807692307692308vw" y="2.334830845735932em" fill="#aaa"/><rect width="0.09615384615384616em" height="1.0203806559982338em" x="9.903846153846155vw" y="1.9796193440017662em" fill="#aaa"/></svg>