<?xml version="1.0" standalone="no"?>
<svg xmlns:xlink="http://www.w3.org/1999/xlink" xmlns="http://www.w3.org/2000/svg" class="topic-graph" style="width: 100em; height: 30em; text-align: center;"><rect width="0.9615384615384616em" height="0.28310179770374155em" x="0em" y="29.716898202296257em" fill="#aaa"/><rect width="0.9615384615384616em" height="0.4536817736228642em" x="0.9615384615384616em" y="29.546318226377135em" fill="#aaa"/><rect width="0.9615384615384616em" height="0.3156163232859815em" x="1.9230769230769231em" y="29.684383676714017em" fill="#aaa"/><rect width="0.9615384615384616em" height="7.168067890299512em" x="2.8846153846153846em" y="22.83193210970049em" fill="#aaa"/><rect width="0.9615384615384616em" height="2.401867301905866em" x="3.8461538461538463em" y="27.598132698094133em" fill="#aaa"/><rect width="0.9615384615384616em" height="18.881328013132197em" x="4.8076923076923075em" y="11.118671986867803em" fill="#aaa"/><rect width="0.9615384615384616em" height="0.2514967416986717em" x="5.769230769230769em" y="29.74850325830133em" fill="#aaa"/><rect width="0.9615384615384616em" height="0.15197422146166073em" x="6.730769230769231em" y="29.84802577853834em" fill="#aaa"/><rect width="0.9615384615384616em" height="0.36007217718388984em" x="7.6923076923076925em" y="29.63992782281611em" fill="#aaa"/><rect width="0.9615384615384616em" height="0.2159362170210422em" x="8.653846153846153em" y="29.784063782978958em" fill="#aaa"/><rect width="0.9615384615384616em" height="0.3140527703709126em" x="9.615384615384615em" y="29.685947229629086em" fill="#aaa"/><rect width="0.9615384615384616em" height="0.4707492128539186em" x="10.576923076923077em" y="29.529250787146083em" fill="#aaa"/><rect width="0.9615384615384616em" height="25.00370982550052em" x="11.538461538461538em" y="4.996290174499482em" fill="#aaa"/><rect width="0.9615384615384616em" height="0.32329951449341643em" x="12.5em" y="29.676700485506583em" fill="#aaa"/><rect width="0.9615384615384616em" height="2.851164398596471em" x="13.461538461538462em" y="27.14883560140353em" fill="#aaa"/><rect width="0.9615384615384616em" height="0.575787901794895em" x="14.423076923076923em" y="29.424212098205103em" fill="#aaa"/><rect width="0.9615384615384616em" height="0.25128066366081947em" x="15.384615384615385em" y="29.74871933633918em" fill="#aaa"/><rect width="0.9615384615384616em" height="0.3689360495306974em" x="16.346153846153847em" y="29.631063950469304em" fill="#aaa"/><rect width="0.9615384615384616em" height="0.15234497988859827em" x="17.307692307692307em" y="29.8476550201114em" fill="#aaa"/><rect width="0.9615384615384616em" height="0.2318030615357938em" x="18.26923076923077em" y="29.768196938464207em" fill="#aaa"/><rect width="0.9615384615384616em" height="0.29201338176088687em" x="19.23076923076923em" y="29.70798661823911em" fill="#aaa"/><rect width="0.9615384615384616em" height="0.12249269713447448em" x="20.192307692307693em" y="29.877507302865524em" fill="#aaa"/><rect width="0.9615384615384616em" height="0.16333216619651417em" x="21.153846153846153em" y="29.836667833803485em" fill="#aaa"/><rect width="0.9615384615384616em" height="2.0554814370047008em" x="22.115384615384617em" y="27.9445185629953em" fill="#aaa"/><rect width="0.9615384615384616em" height="0.34809200883502844em" x="23.076923076923077em" y="29.651907991164972em" fill="#aaa"/><rect width="0.9615384615384616em" height="3.9227654291995324em" x="24.03846153846154em" y="26.077234570800467em" fill="#aaa"/><rect width="0.9615384615384616em" height="1.0777470978923631em" x="25em" y="28.922252902107637em" fill="#aaa"/><rect width="0.9615384615384616em" height="0.9965950993658816em" x="25.961538461538463em" y="29.00340490063412em" fill="#aaa"/><rect width="0.9615384615384616em" height="0.314533675067698em" x="26.923076923076923em" y="29.685466324932303em" fill="#aaa"/><rect width="0.9615384615384616em" height="0.5723115640148945em" x="27.884615384615387em" y="29.427688435985104em" fill="#aaa"/><rect width="0.9615384615384616em" height="0.24842071661467308em" x="28.846153846153847em" y="29.751579283385325em" fill="#aaa"/><rect width="0.9615384615384616em" height="0.23200791549674252em" x="29.80769230769231em" y="29.76799208450326em" fill="#aaa"/><rect width="0.9615384615384616em" height="0.3539560926780987em" x="30.76923076923077em" y="29.6460439073219em" fill="#aaa"/><rect width="0.9615384615384616em" height="0.26661654095535714em" x="31.73076923076923em" y="29.733383459044642em" fill="#aaa"/><rect width="0.9615384615384616em" height="0.49595355458138995em" x="32.69230769230769em" y="29.50404644541861em" fill="#aaa"/><rect width="0.9615384615384616em" height="14.510422041820508em" x="33.65384615384615em" y="15.489577958179492em" fill="#aaa"/><rect width="0.9615384615384616em" height="0.5464619369953472em" x="34.61538461538461em" y="29.453538063004654em" fill="#aaa"/><rect width="0.9615384615384616em" height="0.3630559196327749em" x="35.57692307692308em" y="29.636944080367225em" fill="#aaa"/><rect width="0.9615384615384616em" height="0.9208319641386118em" x="36.53846153846154em" y="29.07916803586139em" fill="#aaa"/><rect width="0.9615384615384616em" height="0.30309429805071747em" x="37.5em" y="29.696905701949284em" fill="#aaa"/><rect width="0.9615384615384616em" height="0.3550416386766116em" x="38.46153846153846em" y="29.64495836132339em" fill="#aaa"/><rect width="0.9615384615384616em" height="0.38559345269945566em" x="39.42307692307693em" y="29.614406547300543em" fill="#aaa"/><rect width="0.9615384615384616em" height="0.3304022539690435em" x="40.38461538461539em" y="29.669597746030956em" fill="#aaa"/><rect width="0.9615384615384616em" height="1.5384795650169234em" x="41.34615384615385em" y="28.461520434983075em" fill="#aaa"/><rect width="0.9615384615384616em" height="0.28758404298364026em" x="42.30769230769231em" y="29.71241595701636em" fill="#aaa"/><rect width="0.9615384615384616em" height="0.8087749609561807em" x="43.269230769230774em" y="29.191225039043818em" fill="#aaa"/><rect width="0.9615384615384616em" height="0.2867355745640104em" x="44.23076923076923em" y="29.71326442543599em" fill="#aaa"/><rect width="0.9615384615384616em" height="0.4176389752738834em" x="45.19230769230769em" y="29.582361024726115em" fill="#aaa"/><rect width="0.9615384615384616em" height="5.169212320177863em" x="46.15384615384615em" y="24.830787679822137em" fill="#aaa"/><rect width="0.9615384615384616em" height="2.30700593730535em" x="47.11538461538461em" y="27.692994062694652em" fill="#aaa"/><rect width="0.9615384615384616em" height="0.4039435847375815em" x="48.07692307692308em" y="29.596056415262417em" fill="#aaa"/><rect width="0.9615384615384616em" height="10.191384627862421em" x="49.03846153846154em" y="19.80861537213758em" fill="#aaa"/><rect width="0.9615384615384616em" height="1.0826165440733955em" x="50em" y="28.917383455926604em" fill="#aaa"/><rect width="0.9615384615384616em" height="7.532734771618279em" x="50.96153846153846em" y="22.46726522838172em" fill="#aaa"/><rect width="0.9615384615384616em" height="3.0033745301364236em" x="51.92307692307693em" y="26.996625469863577em" fill="#aaa"/><rect width="0.9615384615384616em" height="0.8947468680043557em" x="52.88461538461539em" y="29.105253131995646em" fill="#aaa"/><rect width="0.9615384615384616em" height="2.9219919870818627em" x="53.84615384615385em" y="27.078008012918136em" fill="#aaa"/><rect width="0.9615384615384616em" height="0.4855382138199608em" x="54.80769230769231em" y="29.51446178618004em" fill="#aaa"/><rect width="0.9615384615384616em" height="9.56166551226537em" x="55.769230769230774em" y="20.43833448773463em" fill="#aaa"/><rect width="0.9615384615384616em" height="10.10442787952525em" x="56.73076923076923em" y="19.89557212047475em" fill="#aaa"/><rect width="0.9615384615384616em" height="2.415956728166054em" x="57.69230769230769em" y="27.584043271833945em" fill="#aaa"/><rect width="0.9615384615384616em" height="6.984100673376684em" x="58.65384615384615em" y="23.015899326623316em" fill="#aaa"/><rect width="0.9615384615384616em" height="6.849783654017327em" x="59.61538461538462em" y="23.150216345982674em" fill="#aaa"/><rect width="0.9615384615384616em" height="7.165965300741025em" x="60.57692307692308em" y="22.834034699258975em" fill="#aaa"/><rect width="0.9615384615384616em" height="2.1734830013064186em" x="61.53846153846154em" y="27.82651699869358em" fill="#aaa"/><rect width="0.9615384615384616em" height="4.411094402628352em" x="62.5em" y="25.58890559737165em" fill="#aaa"/><rect width="0.9615384615384616em" height="19.821711688836874em" x="63.46153846153846em" y="10.178288311163126em" fill="#aaa"/><rect width="0.9615384615384616em" height="2.8237061213866745em" x="64.42307692307692em" y="27.176293878613325em" fill="#aaa"/><rect width="0.9615384615384616em" height="1.3190379424483991em" x="65.38461538461539em" y="28.6809620575516em" fill="#aaa"/><rect width="0.9615384615384616em" height="19.846442406201234em" x="66.34615384615385em" y="10.153557593798766em" fill="#aaa"/><rect width="0.9615384615384616em" height="5.826329020157931em" x="67.3076923076923em" y="24.17367097984207em" fill="#aaa"/><rect width="0.9615384615384616em" height="13.233094558930777em" x="68.26923076923077em" y="16.766905441069223em" fill="#aaa"/><rect width="0.9615384615384616em" height="25.135913558141134em" x="69.23076923076923em" y="4.864086441858866em" fill="#aaa"/><rect width="0.9615384615384616em" height="13.510115862089952em" x="70.1923076923077em" y="16.489884137910046em" fill="#aaa"/><rect width="0.9615384615384616em" height="7.783191651684096em" x="71.15384615384616em" y="22.216808348315904em" fill="#aaa"/><rect width="0.9615384615384616em" height="10.332437641836108em" x="72.11538461538461em" y="19.66756235816389em" fill="#aaa"/><rect width="0.9615384615384616em" height="27.443597290411788em" x="73.07692307692308em" y="2.5564027095882125em" fill="#aaa"/><rect width="0.9615384615384616em" height="13.803113819392811em" x="74.03846153846155em" y="16.196886180607187em" fill="#aaa"/><rect width="0.9615384615384616em" height="22.453741288454186em" x="75em" y="7.546258711545814em" fill="#aaa"/><rect width="0.9615384615384616em" height="10.92727726989305em" x="75.96153846153847em" y="19.07272273010695em" fill="#aaa"/><rect width="0.9615384615384616em" height="17.618853643238033em" x="76.92307692307692em" y="12.381146356761967em" fill="#aaa"/><rect width="0.9615384615384616em" height="8.599295472884073em" x="77.88461538461539em" y="21.400704527115927em" fill="#aaa"/><rect width="0.9615384615384616em" height="9.588441518883004em" x="78.84615384615385em" y="20.411558481116998em" fill="#aaa"/><rect width="0.9615384615384616em" height="9.505219868104792em" x="79.8076923076923em" y="20.494780131895208em" fill="#aaa"/><rect width="0.9615384615384616em" height="12.353385702765179em" x="80.76923076923077em" y="17.64661429723482em" fill="#aaa"/><rect width="0.9615384615384616em" height="7.072255689639011em" x="81.73076923076923em" y="22.92774431036099em" fill="#aaa"/><rect width="0.9615384615384616em" height="14.50727865387874em" x="82.6923076923077em" y="15.49272134612126em" fill="#aaa"/><rect width="0.9615384615384616em" height="13.46313770746548em" x="83.65384615384616em" y="16.536862292534522em" fill="#aaa"/><rect width="0.9615384615384616em" height="16.721181024113136em" x="84.61538461538461em" y="13.278818975886864em" fill="#aaa"/><rect width="0.9615384615384616em" height="8.006672895716036em" x="85.57692307692308em" y="21.993327104283964em" fill="#aaa"/><rect width="0.9615384615384616em" height="9.378087720929882em" x="86.53846153846155em" y="20.621912279070116em" fill="#aaa"/><rect width="0.9615384615384616em" height="10.442160938427275em" x="87.5em" y="19.557839061572725em" fill="#aaa"/><rect width="0.9615384615384616em" height="8.70629024152143em" x="88.46153846153847em" y="21.29370975847857em" fill="#aaa"/><rect width="0.9615384615384616em" height="19.259362427327087em" x="89.42307692307692em" y="10.740637572672913em" fill="#aaa"/><rect width="0.9615384615384616em" height="23.161823386177858em" x="90.38461538461539em" y="6.838176613822142em" fill="#aaa"/><rect width="0.9615384615384616em" height="9.197200022707584em" x="91.34615384615385em" y="20.802799977292416em" fill="#aaa"/><rect width="0.9615384615384616em" height="15.75095718150551em" x="92.3076923076923em" y="14.24904281849449em" fill="#aaa"/><rect width="0.9615384615384616em" height="24.861242043364864em" x="93.26923076923077em" y="5.138757956635136em" fill="#aaa"/><rect width="0.9615384615384616em" height="24.06557843782085em" x="94.23076923076923em" y="5.93442156217915em" fill="#aaa"/><rect width="0.9615384615384616em" height="13.15404714059674em" x="95.1923076923077em" y="16.845952859403262em" fill="#aaa"/><rect width="0.9615384615384616em" height="14.4534218472279em" x="96.15384615384616em" y="15.5465781527721em" fill="#aaa"/><rect width="0.9615384615384616em" height="30em" x="97.11538461538461em" y="0em" fill="#aaa"/><rect width="0.9615384615384616em" height="19.625962628384016em" x="98.07692307692308em" y="10.374037371615984em" fill="#aaa"/><rect width="0.9615384615384616em" height="22.578949346735072em" x="99.03846153846155em" y="7.421050653264928em" fill="#aaa"/></svg>