<?xml version="1.0" standalone="no"?>
<svg xmlns:xlink="http://www.w3.org/1999/xlink" xmlns="http://www.w3.org/2000/svg" class="topic-graph" style="width: 100em; height: 30em; text-align: center;"><rect width="0.9615384615384616em" height="0.32931991941591676em" x="0em" y="29.670680080584084em" fill="#aaa"/><rect width="0.9615384615384616em" height="0.7063895436265453em" x="0.9615384615384616em" y="29.293610456373454em" fill="#aaa"/><rect width="0.9615384615384616em" height="0.32305349233257136em" x="1.9230769230769231em" y="29.676946507667427em" fill="#aaa"/><rect width="0.9615384615384616em" height="7.145514349286513em" x="2.8846153846153846em" y="22.854485650713485em" fill="#aaa"/><rect width="0.9615384615384616em" height="2.2162111327237377em" x="3.8461538461538463em" y="27.78378886727626em" fill="#aaa"/><rect width="0.9615384615384616em" height="1.5826235154345962em" x="4.8076923076923075em" y="28.417376484565402em" fill="#aaa"/><rect width="0.9615384615384616em" height="21.024522267727374em" x="5.769230769230769em" y="8.975477732272626em" fill="#aaa"/><rect width="0.9615384615384616em" height="0.17678495428497726em" x="6.730769230769231em" y="29.823215045715024em" fill="#aaa"/><rect width="0.9615384615384616em" height="11.619981787436991em" x="7.6923076923076925em" y="18.38001821256301em" fill="#aaa"/><rect width="0.9615384615384616em" height="12.316838216522893em" x="8.653846153846153em" y="17.683161783477107em" fill="#aaa"/><rect width="0.9615384615384616em" height="5.195255703823234em" x="9.615384615384615em" y="24.804744296176764em" fill="#aaa"/><rect width="0.9615384615384616em" height="0.38478355858083735em" x="10.576923076923077em" y="29.61521644141916em" fill="#aaa"/><rect width="0.9615384615384616em" height="3.4618163207360895em" x="11.538461538461538em" y="26.53818367926391em" fill="#aaa"/><rect width="0.9615384615384616em" height="26.635656286875236em" x="12.5em" y="3.3643437131247644em" fill="#aaa"/><rect width="0.9615384615384616em" height="14.10309405874472em" x="13.461538461538462em" y="15.89690594125528em" fill="#aaa"/><rect width="0.9615384615384616em" height="16.735394366879795em" x="14.423076923076923em" y="13.264605633120205em" fill="#aaa"/><rect width="0.9615384615384616em" height="5.401500158390153em" x="15.384615384615385em" y="24.598499841609847em" fill="#aaa"/><rect width="0.9615384615384616em" height="5.230267803171743em" x="16.346153846153847em" y="24.769732196828258em" fill="#aaa"/><rect width="0.9615384615384616em" height="4.97588602794134em" x="17.307692307692307em" y="25.02411397205866em" fill="#aaa"/><rect width="0.9615384615384616em" height="12.260514163629168em" x="18.26923076923077em" y="17.739485836370832em" fill="#aaa"/><rect width="0.9615384615384616em" height="3.6650175069704507em" x="19.23076923076923em" y="26.33498249302955em" fill="#aaa"/><rect width="0.9615384615384616em" height="0.6567218603490041em" x="20.192307692307693em" y="29.343278139650995em" fill="#aaa"/><rect width="0.9615384615384616em" height="14.221044438044991em" x="21.153846153846153em" y="15.778955561955009em" fill="#aaa"/><rect width="0.9615384615384616em" height="11.642944741881504em" x="22.115384615384617em" y="18.357055258118496em" fill="#aaa"/><rect width="0.9615384615384616em" height="2.4722409632133897em" x="23.076923076923077em" y="27.52775903678661em" fill="#aaa"/><rect width="0.9615384615384616em" height="3.9128915302914535em" x="24.03846153846154em" y="26.087108469708546em" fill="#aaa"/><rect width="0.9615384615384616em" height="19.399025523137375em" x="25em" y="10.600974476862625em" fill="#aaa"/><rect width="0.9615384615384616em" height="3.645631542552962em" x="25.961538461538463em" y="26.354368457447038em" fill="#aaa"/><rect width="0.9615384615384616em" height="3.544420641081455em" x="26.923076923076923em" y="26.455579358918545em" fill="#aaa"/><rect width="0.9615384615384616em" height="1.2939199646647792em" x="27.884615384615387em" y="28.70608003533522em" fill="#aaa"/><rect width="0.9615384615384616em" height="3.971399385291451em" x="28.846153846153847em" y="26.028600614708548em" fill="#aaa"/><rect width="0.9615384615384616em" height="2.0235343037636433em" x="29.80769230769231em" y="27.976465696236357em" fill="#aaa"/><rect width="0.9615384615384616em" height="4.0113884391765655em" x="30.76923076923077em" y="25.988611560823436em" fill="#aaa"/><rect width="0.9615384615384616em" height="5.256277196752727em" x="31.73076923076923em" y="24.743722803247273em" fill="#aaa"/><rect width="0.9615384615384616em" height="0.3169003396751503em" x="32.69230769230769em" y="29.68309966032485em" fill="#aaa"/><rect width="0.9615384615384616em" height="3.8589949454326em" x="33.65384615384615em" y="26.1410050545674em" fill="#aaa"/><rect width="0.9615384615384616em" height="12.546428357735683em" x="34.61538461538461em" y="17.453571642264315em" fill="#aaa"/><rect width="0.9615384615384616em" height="14.526086975016225em" x="35.57692307692308em" y="15.473913024983775em" fill="#aaa"/><rect width="0.9615384615384616em" height="5.681427643360208em" x="36.53846153846154em" y="24.31857235663979em" fill="#aaa"/><rect width="0.9615384615384616em" height="1.050483854431268em" x="37.5em" y="28.949516145568733em" fill="#aaa"/><rect width="0.9615384615384616em" height="1.8415339658617766em" x="38.46153846153846em" y="28.158466034138222em" fill="#aaa"/><rect width="0.9615384615384616em" height="9.928255530684744em" x="39.42307692307693em" y="20.071744469315256em" fill="#aaa"/><rect width="0.9615384615384616em" height="7.55639813272325em" x="40.38461538461539em" y="22.44360186727675em" fill="#aaa"/><rect width="0.9615384615384616em" height="8.76166997892234em" x="41.34615384615385em" y="21.238330021077658em" fill="#aaa"/><rect width="0.9615384615384616em" height="13.588402823800863em" x="42.30769230769231em" y="16.411597176199137em" fill="#aaa"/><rect width="0.9615384615384616em" height="3.6368682288051857em" x="43.269230769230774em" y="26.363131771194816em" fill="#aaa"/><rect width="0.9615384615384616em" height="5.875388517553337em" x="44.23076923076923em" y="24.124611482446664em" fill="#aaa"/><rect width="0.9615384615384616em" height="5.6225985717066616em" x="45.19230769230769em" y="24.37740142829334em" fill="#aaa"/><rect width="0.9615384615384616em" height="10.341751616753498em" x="46.15384615384615em" y="19.6582483832465em" fill="#aaa"/><rect width="0.9615384615384616em" height="18.361843069751874em" x="47.11538461538461em" y="11.638156930248126em" fill="#aaa"/><rect width="0.9615384615384616em" height="2.2686735607818496em" x="48.07692307692308em" y="27.73132643921815em" fill="#aaa"/><rect width="0.9615384615384616em" height="11.18368721597131em" x="49.03846153846154em" y="18.81631278402869em" fill="#aaa"/><rect width="0.9615384615384616em" height="19.50078182225124em" x="50em" y="10.499218177748759em" fill="#aaa"/><rect width="0.9615384615384616em" height="18.84312053416888em" x="50.96153846153846em" y="11.156879465831121em" fill="#aaa"/><rect width="0.9615384615384616em" height="11.873327397361841em" x="51.92307692307693em" y="18.12667260263816em" fill="#aaa"/><rect width="0.9615384615384616em" height="10.330304281743436em" x="52.88461538461539em" y="19.669695718256563em" fill="#aaa"/><rect width="0.9615384615384616em" height="30em" x="53.84615384615385em" y="0em" fill="#aaa"/><rect width="0.9615384615384616em" height="8.568781706198475em" x="54.80769230769231em" y="21.431218293801525em" fill="#aaa"/><rect width="0.9615384615384616em" height="4.09875384877555em" x="55.769230769230774em" y="25.90124615122445em" fill="#aaa"/><rect width="0.9615384615384616em" height="3.984664940328em" x="56.73076923076923em" y="26.015335059672em" fill="#aaa"/><rect width="0.9615384615384616em" height="19.572404419618177em" x="57.69230769230769em" y="10.427595580381823em" fill="#aaa"/><rect width="0.9615384615384616em" height="7.612900561233619em" x="58.65384615384615em" y="22.38709943876638em" fill="#aaa"/><rect width="0.9615384615384616em" height="8.002769902707813em" x="59.61538461538462em" y="21.99723009729219em" fill="#aaa"/><rect width="0.9615384615384616em" height="13.482190716337566em" x="60.57692307692308em" y="16.517809283662434em" fill="#aaa"/><rect width="0.9615384615384616em" height="27.70972922302737em" x="61.53846153846154em" y="2.29027077697263em" fill="#aaa"/><rect width="0.9615384615384616em" height="6.551178262548551em" x="62.5em" y="23.44882173745145em" fill="#aaa"/><rect width="0.9615384615384616em" height="4.572650668166824em" x="63.46153846153846em" y="25.427349331833177em" fill="#aaa"/><rect width="0.9615384615384616em" height="5.323529046545096em" x="64.42307692307692em" y="24.676470953454903em" fill="#aaa"/><rect width="0.9615384615384616em" height="1.1862046518696718em" x="65.38461538461539em" y="28.813795348130327em" fill="#aaa"/><rect width="0.9615384615384616em" height="1.4528179819995486em" x="66.34615384615385em" y="28.547182018000452em" fill="#aaa"/><rect width="0.9615384615384616em" height="2.673660915951922em" x="67.3076923076923em" y="27.32633908404808em" fill="#aaa"/><rect width="0.9615384615384616em" height="6.122875519719493em" x="68.26923076923077em" y="23.877124480280507em" fill="#aaa"/><rect width="0.9615384615384616em" height="11.545516899307305em" x="69.23076923076923em" y="18.454483100692695em" fill="#aaa"/><rect width="0.9615384615384616em" height="6.803450198284835em" x="70.1923076923077em" y="23.196549801715165em" fill="#aaa"/><rect width="0.9615384615384616em" height="15.946819510770688em" x="71.15384615384616em" y="14.053180489229312em" fill="#aaa"/><rect width="0.9615384615384616em" height="6.737808778895159em" x="72.11538461538461em" y="23.262191221104842em" fill="#aaa"/><rect width="0.9615384615384616em" height="4.499361573001949em" x="73.07692307692308em" y="25.50063842699805em" fill="#aaa"/><rect width="0.9615384615384616em" height="3.385263362832575em" x="74.03846153846155em" y="26.614736637167425em" fill="#aaa"/><rect width="0.9615384615384616em" height="8.77283387810031em" x="75em" y="21.227166121899693em" fill="#aaa"/><rect width="0.9615384615384616em" height="13.133754250864776em" x="75.96153846153847em" y="16.866245749135224em" fill="#aaa"/><rect width="0.9615384615384616em" height="5.488962880177716em" x="76.92307692307692em" y="24.511037119822284em" fill="#aaa"/><rect width="0.9615384615384616em" height="12.575946483103257em" x="77.88461538461539em" y="17.42405351689674em" fill="#aaa"/><rect width="0.9615384615384616em" height="11.90667274104822em" x="78.84615384615385em" y="18.09332725895178em" fill="#aaa"/><rect width="0.9615384615384616em" height="10.859219115954863em" x="79.8076923076923em" y="19.140780884045135em" fill="#aaa"/><rect width="0.9615384615384616em" height="6.292192551211744em" x="80.76923076923077em" y="23.707807448788255em" fill="#aaa"/><rect width="0.9615384615384616em" height="10.159728706990578em" x="81.73076923076923em" y="19.840271293009422em" fill="#aaa"/><rect width="0.9615384615384616em" height="4.973632118471577em" x="82.6923076923077em" y="25.026367881528422em" fill="#aaa"/><rect width="0.9615384615384616em" height="4.248924461179294em" x="83.65384615384616em" y="25.751075538820707em" fill="#aaa"/><rect width="0.9615384615384616em" height="5.582618071556881em" x="84.61538461538461em" y="24.41738192844312em" fill="#aaa"/><rect width="0.9615384615384616em" height="9.045951622483775em" x="85.57692307692308em" y="20.954048377516223em" fill="#aaa"/><rect width="0.9615384615384616em" height="6.789215113712417em" x="86.53846153846155em" y="23.210784886287584em" fill="#aaa"/><rect width="0.9615384615384616em" height="4.6645452269245045em" x="87.5em" y="25.335454773075497em" fill="#aaa"/><rect width="0.9615384615384616em" height="6.0429833942581475em" x="88.46153846153847em" y="23.957016605741853em" fill="#aaa"/><rect width="0.9615384615384616em" height="2.4104522522082963em" x="89.42307692307692em" y="27.589547747791705em" fill="#aaa"/><rect width="0.9615384615384616em" height="4.443520143266417em" x="90.38461538461539em" y="25.55647985673358em" fill="#aaa"/><rect width="0.9615384615384616em" height="2.642089215669369em" x="91.34615384615385em" y="27.35791078433063em" fill="#aaa"/><rect width="0.9615384615384616em" height="3.249910328863005em" x="92.3076923076923em" y="26.750089671136994em" fill="#aaa"/><rect width="0.9615384615384616em" height="4.793201837516497em" x="93.26923076923077em" y="25.2067981624835em" fill="#aaa"/><rect width="0.9615384615384616em" height="3.477563935193906em" x="94.23076923076923em" y="26.522436064806094em" fill="#aaa"/><rect width="0.9615384615384616em" height="2.6881270754593722em" x="95.1923076923077em" y="27.311872924540626em" fill="#aaa"/><rect width="0.9615384615384616em" height="1.9127826874973377em" x="96.15384615384616em" y="28.087217312502663em" fill="#aaa"/><rect width="0.9615384615384616em" height="2.8338976204823303em" x="97.11538461538461em" y="27.16610237951767em" fill="#aaa"/><rect width="0.9615384615384616em" height="4.872282883094508em" x="98.07692307692308em" y="25.127717116905494em" fill="#aaa"/><rect width="0.9615384615384616em" height="1.2400800813694397em" x="99.03846153846155em" y="28.759919918630562em" fill="#aaa"/></svg>