<?xml version="1.0" standalone="no"?>
<svg xmlns:xlink="http://www.w3.org/1999/xlink" xmlns="http://www.w3.org/2000/svg" class="topic-graph" style="width: 100em; height: 30em; text-align: center;"><rect width="0.9615384615384616em" height="4.087645911539896em" x="0em" y="25.912354088460106em" fill="#aaa"/><rect width="0.9615384615384616em" height="1.9791330651016605em" x="0.9615384615384616em" y="28.02086693489834em" fill="#aaa"/><rect width="0.9615384615384616em" height="1.5558115914617732em" x="1.9230769230769231em" y="28.444188408538228em" fill="#aaa"/><rect width="0.9615384615384616em" height="3.424418067529582em" x="2.8846153846153846em" y="26.575581932470417em" fill="#aaa"/><rect width="0.9615384615384616em" height="2.111465352257738em" x="3.8461538461538463em" y="27.88853464774226em" fill="#aaa"/><rect width="0.9615384615384616em" height="1.9621712447756259em" x="4.8076923076923075em" y="28.037828755224375em" fill="#aaa"/><rect width="0.9615384615384616em" height="3.751798363566748em" x="5.769230769230769em" y="26.24820163643325em" fill="#aaa"/><rect width="0.9615384615384616em" height="4.488562922367954em" x="6.730769230769231em" y="25.511437077632046em" fill="#aaa"/><rect width="0.9615384615384616em" height="12.658181017238197em" x="7.6923076923076925em" y="17.3418189827618em" fill="#aaa"/><rect width="0.9615384615384616em" height="3.421312426868112em" x="8.653846153846153em" y="26.578687573131887em" fill="#aaa"/><rect width="0.9615384615384616em" height="10.28993785020498em" x="9.615384615384615em" y="19.71006214979502em" fill="#aaa"/><rect width="0.9615384615384616em" height="4.394578653343403em" x="10.576923076923077em" y="25.6054213466566em" fill="#aaa"/><rect width="0.9615384615384616em" height="6.778784887137372em" x="11.538461538461538em" y="23.221215112862627em" fill="#aaa"/><rect width="0.9615384615384616em" height="10.513521111368975em" x="12.5em" y="19.486478888631027em" fill="#aaa"/><rect width="0.9615384615384616em" height="15.16437940530359em" x="13.461538461538462em" y="14.83562059469641em" fill="#aaa"/><rect width="0.9615384615384616em" height="7.279926790546515em" x="14.423076923076923em" y="22.720073209453485em" fill="#aaa"/><rect width="0.9615384615384616em" height="4.041204075980597em" x="15.384615384615385em" y="25.9587959240194em" fill="#aaa"/><rect width="0.9615384615384616em" height="5.535194368534023em" x="16.346153846153847em" y="24.46480563146598em" fill="#aaa"/><rect width="0.9615384615384616em" height="11.039625950989489em" x="17.307692307692307em" y="18.96037404901051em" fill="#aaa"/><rect width="0.9615384615384616em" height="4.165457400905838em" x="18.26923076923077em" y="25.834542599094164em" fill="#aaa"/><rect width="0.9615384615384616em" height="6.771176613150045em" x="19.23076923076923em" y="23.228823386849953em" fill="#aaa"/><rect width="0.9615384615384616em" height="2.022792240157453em" x="20.192307692307693em" y="27.977207759842546em" fill="#aaa"/><rect width="0.9615384615384616em" height="2.760156016935403em" x="21.153846153846153em" y="27.239843983064596em" fill="#aaa"/><rect width="0.9615384615384616em" height="1.0004224649967681em" x="22.115384615384617em" y="28.999577535003233em" fill="#aaa"/><rect width="0.9615384615384616em" height="2.3213856339697445em" x="23.076923076923077em" y="27.678614366030256em" fill="#aaa"/><rect width="0.9615384615384616em" height="1.2590111956512084em" x="24.03846153846154em" y="28.74098880434879em" fill="#aaa"/><rect width="0.9615384615384616em" height="2.787390460690582em" x="25em" y="27.21260953930942em" fill="#aaa"/><rect width="0.9615384615384616em" height="3.709868668655673em" x="25.961538461538463em" y="26.290131331344327em" fill="#aaa"/><rect width="0.9615384615384616em" height="2.5856684546620974em" x="26.923076923076923em" y="27.4143315453379em" fill="#aaa"/><rect width="0.9615384615384616em" height="2.016482490283341em" x="27.884615384615387em" y="27.98351750971666em" fill="#aaa"/><rect width="0.9615384615384616em" height="4.009057038362297em" x="28.846153846153847em" y="25.990942961637703em" fill="#aaa"/><rect width="0.9615384615384616em" height="3.916068815427858em" x="29.80769230769231em" y="26.083931184572144em" fill="#aaa"/><rect width="0.9615384615384616em" height="2.739683154476412em" x="30.76923076923077em" y="27.260316845523587em" fill="#aaa"/><rect width="0.9615384615384616em" height="7.850935223510124em" x="31.73076923076923em" y="22.149064776489876em" fill="#aaa"/><rect width="0.9615384615384616em" height="10.811431437923622em" x="32.69230769230769em" y="19.188568562076377em" fill="#aaa"/><rect width="0.9615384615384616em" height="10.230752752945904em" x="33.65384615384615em" y="19.769247247054096em" fill="#aaa"/><rect width="0.9615384615384616em" height="2.4587091619596815em" x="34.61538461538461em" y="27.541290838040318em" fill="#aaa"/><rect width="0.9615384615384616em" height="5.724303579720927em" x="35.57692307692308em" y="24.275696420279072em" fill="#aaa"/><rect width="0.9615384615384616em" height="6.970145946763098em" x="36.53846153846154em" y="23.029854053236903em" fill="#aaa"/><rect width="0.9615384615384616em" height="7.518579842630688em" x="37.5em" y="22.481420157369314em" fill="#aaa"/><rect width="0.9615384615384616em" height="4.201747023402592em" x="38.46153846153846em" y="25.798252976597407em" fill="#aaa"/><rect width="0.9615384615384616em" height="1.8197187686600167em" x="39.42307692307693em" y="28.180281231339983em" fill="#aaa"/><rect width="0.9615384615384616em" height="2.874210899015833em" x="40.38461538461539em" y="27.125789100984168em" fill="#aaa"/><rect width="0.9615384615384616em" height="6.043321264750147em" x="41.34615384615385em" y="23.956678735249852em" fill="#aaa"/><rect width="0.9615384615384616em" height="7.50981026235098em" x="42.30769230769231em" y="22.49018973764902em" fill="#aaa"/><rect width="0.9615384615384616em" height="1.7638532438937529em" x="43.269230769230774em" y="28.236146756106248em" fill="#aaa"/><rect width="0.9615384615384616em" height="1.85777049803264em" x="44.23076923076923em" y="28.14222950196736em" fill="#aaa"/><rect width="0.9615384615384616em" height="0.6282687089896135em" x="45.19230769230769em" y="29.371731291010388em" fill="#aaa"/><rect width="0.9615384615384616em" height="2.3184714104794666em" x="46.15384615384615em" y="27.681528589520532em" fill="#aaa"/><rect width="0.9615384615384616em" height="3.0812718818145446em" x="47.11538461538461em" y="26.918728118185456em" fill="#aaa"/><rect width="0.9615384615384616em" height="2.207523568886385em" x="48.07692307692308em" y="27.792476431113617em" fill="#aaa"/><rect width="0.9615384615384616em" height="2.3707804058143496em" x="49.03846153846154em" y="27.62921959418565em" fill="#aaa"/><rect width="0.9615384615384616em" height="2.45509092795613em" x="50em" y="27.544909072043872em" fill="#aaa"/><rect width="0.9615384615384616em" height="1.610304009281492em" x="50.96153846153846em" y="28.389695990718508em" fill="#aaa"/><rect width="0.9615384615384616em" height="3.1895763088190106em" x="51.92307692307693em" y="26.81042369118099em" fill="#aaa"/><rect width="0.9615384615384616em" height="2.5053637153211326em" x="52.88461538461539em" y="27.49463628467887em" fill="#aaa"/><rect width="0.9615384615384616em" height="3.2779181159498467em" x="53.84615384615385em" y="26.722081884050155em" fill="#aaa"/><rect width="0.9615384615384616em" height="4.093430012730929em" x="54.80769230769231em" y="25.906569987269073em" fill="#aaa"/><rect width="0.9615384615384616em" height="5.069269016715723em" x="55.769230769230774em" y="24.930730983284278em" fill="#aaa"/><rect width="0.9615384615384616em" height="4.137931838066466em" x="56.73076923076923em" y="25.862068161933536em" fill="#aaa"/><rect width="0.9615384615384616em" height="6.740517742916535em" x="57.69230769230769em" y="23.259482257083466em" fill="#aaa"/><rect width="0.9615384615384616em" height="4.293357244486099em" x="58.65384615384615em" y="25.7066427555139em" fill="#aaa"/><rect width="0.9615384615384616em" height="5.756293737896523em" x="59.61538461538462em" y="24.243706262103476em" fill="#aaa"/><rect width="0.9615384615384616em" height="6.310269194064498em" x="60.57692307692308em" y="23.689730805935504em" fill="#aaa"/><rect width="0.9615384615384616em" height="5.916757376214952em" x="61.53846153846154em" y="24.083242623785047em" fill="#aaa"/><rect width="0.9615384615384616em" height="4.576382245421041em" x="62.5em" y="25.42361775457896em" fill="#aaa"/><rect width="0.9615384615384616em" height="3.6325225615258168em" x="63.46153846153846em" y="26.367477438474182em" fill="#aaa"/><rect width="0.9615384615384616em" height="4.76168588082801em" x="64.42307692307692em" y="25.23831411917199em" fill="#aaa"/><rect width="0.9615384615384616em" height="4.874729440278604em" x="65.38461538461539em" y="25.125270559721397em" fill="#aaa"/><rect width="0.9615384615384616em" height="3.1645147949695462em" x="66.34615384615385em" y="26.835485205030455em" fill="#aaa"/><rect width="0.9615384615384616em" height="7.70878721413426em" x="67.3076923076923em" y="22.29121278586574em" fill="#aaa"/><rect width="0.9615384615384616em" height="7.377180643370482em" x="68.26923076923077em" y="22.622819356629517em" fill="#aaa"/><rect width="0.9615384615384616em" height="12.103529860999867em" x="69.23076923076923em" y="17.896470139000133em" fill="#aaa"/><rect width="0.9615384615384616em" height="7.6852430603708415em" x="70.1923076923077em" y="22.31475693962916em" fill="#aaa"/><rect width="0.9615384615384616em" height="7.102275758527012em" x="71.15384615384616em" y="22.897724241472986em" fill="#aaa"/><rect width="0.9615384615384616em" height="4.835279004428672em" x="72.11538461538461em" y="25.16472099557133em" fill="#aaa"/><rect width="0.9615384615384616em" height="12.428981295914916em" x="73.07692307692308em" y="17.571018704085084em" fill="#aaa"/><rect width="0.9615384615384616em" height="14.93814814461703em" x="74.03846153846155em" y="15.06185185538297em" fill="#aaa"/><rect width="0.9615384615384616em" height="7.70992623808451em" x="75em" y="22.29007376191549em" fill="#aaa"/><rect width="0.9615384615384616em" height="9.371350099065642em" x="75.96153846153847em" y="20.628649900934356em" fill="#aaa"/><rect width="0.9615384615384616em" height="4.304993164145626em" x="76.92307692307692em" y="25.695006835854375em" fill="#aaa"/><rect width="0.9615384615384616em" height="6.590281990895977em" x="77.88461538461539em" y="23.409718009104022em" fill="#aaa"/><rect width="0.9615384615384616em" height="6.919875252865996em" x="78.84615384615385em" y="23.080124747134004em" fill="#aaa"/><rect width="0.9615384615384616em" height="12.522053318404712em" x="79.8076923076923em" y="17.477946681595288em" fill="#aaa"/><rect width="0.9615384615384616em" height="30em" x="80.76923076923077em" y="0em" fill="#aaa"/><rect width="0.9615384615384616em" height="17.363911593890155em" x="81.73076923076923em" y="12.636088406109845em" fill="#aaa"/><rect width="0.9615384615384616em" height="10.69167563893954em" x="82.6923076923077em" y="19.30832436106046em" fill="#aaa"/><rect width="0.9615384615384616em" height="12.42342401545477em" x="83.65384615384616em" y="17.57657598454523em" fill="#aaa"/><rect width="0.9615384615384616em" height="5.814122757545212em" x="84.61538461538461em" y="24.185877242454787em" fill="#aaa"/><rect width="0.9615384615384616em" height="5.900763442005551em" x="85.57692307692308em" y="24.09923655799445em" fill="#aaa"/><rect width="0.9615384615384616em" height="5.874428837946933em" x="86.53846153846155em" y="24.125571162053067em" fill="#aaa"/><rect width="0.9615384615384616em" height="6.876885502656066em" x="87.5em" y="23.123114497343934em" fill="#aaa"/><rect width="0.9615384615384616em" height="10.345239758432927em" x="88.46153846153847em" y="19.654760241567075em" fill="#aaa"/><rect width="0.9615384615384616em" height="10.63868480378873em" x="89.42307692307692em" y="19.361315196211272em" fill="#aaa"/><rect width="0.9615384615384616em" height="6.899717271517955em" x="90.38461538461539em" y="23.100282728482046em" fill="#aaa"/><rect width="0.9615384615384616em" height="6.243858292686218em" x="91.34615384615385em" y="23.75614170731378em" fill="#aaa"/><rect width="0.9615384615384616em" height="5.197573068111737em" x="92.3076923076923em" y="24.802426931888263em" fill="#aaa"/><rect width="0.9615384615384616em" height="7.655866339287184em" x="93.26923076923077em" y="22.344133660712817em" fill="#aaa"/><rect width="0.9615384615384616em" height="5.143042784809038em" x="94.23076923076923em" y="24.856957215190963em" fill="#aaa"/><rect width="0.9615384615384616em" height="4.524392682444939em" x="95.1923076923077em" y="25.47560731755506em" fill="#aaa"/><rect width="0.9615384615384616em" height="3.425165699081363em" x="96.15384615384616em" y="26.57483430091864em" fill="#aaa"/><rect width="0.9615384615384616em" height="6.576208608626833em" x="97.11538461538461em" y="23.423791391373168em" fill="#aaa"/><rect width="0.9615384615384616em" height="5.329375071956032em" x="98.07692307692308em" y="24.670624928043967em" fill="#aaa"/><rect width="0.9615384615384616em" height="6.242129649894964em" x="99.03846153846155em" y="23.757870350105037em" fill="#aaa"/></svg>