<?xml version="1.0" standalone="no"?>
<svg xmlns:xlink="http://www.w3.org/1999/xlink" xmlns="http://www.w3.org/2000/svg" class="topic-graph" style="width: 10vw; height: 3em; text-align: center;"><rect width="0.09615384615384616em" height="3em" x="0vw" y="0em" fill="#aaa"/><rect width="0.09615384615384616em" height="0.42300459032868576em" x="0.09615384615384616vw" y="2.5769954096713144em" fill="#aaa"/><rect width="0.09615384615384616em" height="1.254875807811581em" x="0.19230769230769232vw" y="1.745124192188419em" fill="#aaa"/><rect width="0.09615384615384616em" height="2.2459608964785036em" x="0.2884615384615385vw" y="0.7540391035214964em" fill="#aaa"/><rect width="0.09615384615384616em" height="0.9414813055762734em" x="0.38461538461538464vw" y="2.058518694423727em" fill="#aaa"/><rect width="0.09615384615384616em" height="1.04629704647643em" x="0.4807692307692308vw" y="1.95370295352357em" fill="#aaa"/><rect width="0.09615384615384616em" height="0.7832118779991819em" x="0.576923076923077vw" y="2.216788122000818em" fill="#aaa"/><rect width="0.09615384615384616em" height="0.7843759300042317em" x="0.6730769230769231vw" y="2.2156240699957683em" fill="#aaa"/><rect width="0.09615384615384616em" height="1.2585394043422513em" x="0.7692307692307693vw" y="1.7414605956577487em" fill="#aaa"/><rect width="0.09615384615384616em" height="1.2355999286984094em" x="0.8653846153846154vw" y="1.7644000713015906em" fill="#aaa"/><rect width="0.09615384615384616em" height="1.0285115251491272em" x="0.9615384615384616vw" y="1.9714884748508728em" fill="#aaa"/><rect width="0.09615384615384616em" height="0.5783824813369648em" x="1.0576923076923077vw" y="2.421617518663035em" fill="#aaa"/><rect width="0.09615384615384616em" height="0.5536400185668467em" x="1.153846153846154vw" y="2.446359981433153em" fill="#aaa"/><rect width="0.09615384615384616em" height="0.8129108920859985em" x="1.25vw" y="2.1870891079140016em" fill="#aaa"/><rect width="0.09615384615384616em" height="1.1778358211932585em" x="1.3461538461538463vw" y="1.8221641788067415em" fill="#aaa"/><rect width="0.09615384615384616em" height="0.4015840829096601em" x="1.4423076923076923vw" y="2.59841591709034em" fill="#aaa"/><rect width="0.09615384615384616em" height="0.8703050093447027em" x="1.5384615384615385vw" y="2.129694990655297em" fill="#aaa"/><rect width="0.09615384615384616em" height="0.8425671893379563em" x="1.6346153846153848vw" y="2.1574328106620437em" fill="#aaa"/><rect width="0.09615384615384616em" height="0.8434810535664119em" x="1.7307692307692308vw" y="2.156518946433588em" fill="#aaa"/><rect width="0.09615384615384616em" height="1.2431862155727909em" x="1.826923076923077vw" y="1.7568137844272091em" fill="#aaa"/><rect width="0.09615384615384616em" height="1.8517361316225593em" x="1.9230769230769231vw" y="1.1482638683774407em" fill="#aaa"/><rect width="0.09615384615384616em" height="2.0458585251354853em" x="2.019230769230769vw" y="0.9541414748645147em" fill="#aaa"/><rect width="0.09615384615384616em" height="1.5224051396121605em" x="2.1153846153846154vw" y="1.4775948603878395em" fill="#aaa"/><rect width="0.09615384615384616em" height="1.2517203527190093em" x="2.2115384615384617vw" y="1.7482796472809907em" fill="#aaa"/><rect width="0.09615384615384616em" height="1.7758665436389869em" x="2.307692307692308vw" y="1.2241334563610131em" fill="#aaa"/><rect width="0.09615384615384616em" height="1.5362477915304744em" x="2.403846153846154vw" y="1.4637522084695256em" fill="#aaa"/><rect width="0.09615384615384616em" height="1.2072573205727262em" x="2.5vw" y="1.7927426794272738em" fill="#aaa"/><rect width="0.09615384615384616em" height="1.0040820821286278em" x="2.5961538461538463vw" y="1.9959179178713722em" fill="#aaa"/><rect width="0.09615384615384616em" height="0.9170567666549466em" x="2.6923076923076925vw" y="2.0829432333450533em" fill="#aaa"/><rect width="0.09615384615384616em" height="1.1666465546154985em" x="2.7884615384615388vw" y="1.8333534453845015em" fill="#aaa"/><rect width="0.09615384615384616em" height="0.9943485995101753em" x="2.8846153846153846vw" y="2.0056514004898247em" fill="#aaa"/><rect width="0.09615384615384616em" height="0.7572099346426078em" x="2.980769230769231vw" y="2.2427900653573922em" fill="#aaa"/><rect width="0.09615384615384616em" height="1.6213789931832265em" x="3.076923076923077vw" y="1.3786210068167735em" fill="#aaa"/><rect width="0.09615384615384616em" height="0.20907048182210536em" x="3.1730769230769234vw" y="2.7909295181778946em" fill="#aaa"/><rect width="0.09615384615384616em" height="1.0638648867634293em" x="3.2692307692307696vw" y="1.9361351132365707em" fill="#aaa"/><rect width="0.09615384615384616em" height="1.7953105861743377em" x="3.3653846153846154vw" y="1.2046894138256623em" fill="#aaa"/><rect width="0.09615384615384616em" height="1.3821406905713596em" x="3.4615384615384617vw" y="1.6178593094286404em" fill="#aaa"/><rect width="0.09615384615384616em" height="1.142973660383795em" x="3.557692307692308vw" y="1.857026339616205em" fill="#aaa"/><rect width="0.09615384615384616em" height="0.5424227446233831em" x="3.653846153846154vw" y="2.457577255376617em" fill="#aaa"/><rect width="0.09615384615384616em" height="1.1421655331896em" x="3.75vw" y="1.8578344668104em" fill="#aaa"/><rect width="0.09615384615384616em" height="1.2466445237381962em" x="3.8461538461538463vw" y="1.7533554762618038em" fill="#aaa"/><rect width="0.09615384615384616em" height="0.7299567086691122em" x="3.9423076923076925vw" y="2.2700432913308877em" fill="#aaa"/><rect width="0.09615384615384616em" height="0.8318573056467602em" x="4.038461538461538vw" y="2.16814269435324em" fill="#aaa"/><rect width="0.09615384615384616em" height="0.7050468033240616em" x="4.134615384615385vw" y="2.2949531966759382em" fill="#aaa"/><rect width="0.09615384615384616em" height="0.626504142379679em" x="4.230769230769231vw" y="2.373495857620321em" fill="#aaa"/><rect width="0.09615384615384616em" height="0.7742256784805501em" x="4.3269230769230775vw" y="2.2257743215194496em" fill="#aaa"/><rect width="0.09615384615384616em" height="0.8079656946359022em" x="4.423076923076923vw" y="2.192034305364098em" fill="#aaa"/><rect width="0.09615384615384616em" height="1.341846117447557em" x="4.519230769230769vw" y="1.658153882552443em" fill="#aaa"/><rect width="0.09615384615384616em" height="0.40477158042688277em" x="4.615384615384616vw" y="2.5952284195731172em" fill="#aaa"/><rect width="0.09615384615384616em" height="0.8723314962830093em" x="4.711538461538462vw" y="2.1276685037169907em" fill="#aaa"/><rect width="0.09615384615384616em" height="0.2897397976542095em" x="4.807692307692308vw" y="2.7102602023457907em" fill="#aaa"/><rect width="0.09615384615384616em" height="0.6719168183191768em" x="4.903846153846154vw" y="2.328083181680823em" fill="#aaa"/><rect width="0.09615384615384616em" height="0.8814696616623037em" x="5vw" y="2.1185303383376963em" fill="#aaa"/><rect width="0.09615384615384616em" height="0.4177765635289089em" x="5.096153846153847vw" y="2.582223436471091em" fill="#aaa"/><rect width="0.09615384615384616em" height="0.9879008145428473em" x="5.1923076923076925vw" y="2.012099185457153em" fill="#aaa"/><rect width="0.09615384615384616em" height="0.6928406906411348em" x="5.288461538461538vw" y="2.307159309358865em" fill="#aaa"/><rect width="0.09615384615384616em" height="0.5370992874877392em" x="5.384615384615385vw" y="2.462900712512261em" fill="#aaa"/><rect width="0.09615384615384616em" height="0.665654048352202em" x="5.480769230769231vw" y="2.334345951647798em" fill="#aaa"/><rect width="0.09615384615384616em" height="0.5911272208129961em" x="5.5769230769230775vw" y="2.408872779187004em" fill="#aaa"/><rect width="0.09615384615384616em" height="0.33903176582219774em" x="5.673076923076923vw" y="2.660968234177802em" fill="#aaa"/><rect width="0.09615384615384616em" height="0.5985013620929156em" x="5.769230769230769vw" y="2.4014986379070846em" fill="#aaa"/><rect width="0.09615384615384616em" height="0.48175380451001876em" x="5.865384615384616vw" y="2.518246195489981em" fill="#aaa"/><rect width="0.09615384615384616em" height="0.6735288718439503em" x="5.961538461538462vw" y="2.32647112815605em" fill="#aaa"/><rect width="0.09615384615384616em" height="0.4462847068979816em" x="6.057692307692308vw" y="2.5537152931020186em" fill="#aaa"/><rect width="0.09615384615384616em" height="0.6421322358925174em" x="6.153846153846154vw" y="2.3578677641074828em" fill="#aaa"/><rect width="0.09615384615384616em" height="0.5900313089392774em" x="6.25vw" y="2.4099686910607225em" fill="#aaa"/><rect width="0.09615384615384616em" height="0.27977861153861955em" x="6.346153846153847vw" y="2.7202213884613804em" fill="#aaa"/><rect width="0.09615384615384616em" height="0.47668265796458487em" x="6.4423076923076925vw" y="2.523317342035415em" fill="#aaa"/><rect width="0.09615384615384616em" height="0.6137096453393993em" x="6.538461538461539vw" y="2.3862903546606007em" fill="#aaa"/><rect width="0.09615384615384616em" height="0.5317109600761618em" x="6.634615384615385vw" y="2.468289039923838em" fill="#aaa"/><rect width="0.09615384615384616em" height="0.6848481623107086em" x="6.730769230769231vw" y="2.3151518376892914em" fill="#aaa"/><rect width="0.09615384615384616em" height="0.687207621807696em" x="6.8269230769230775vw" y="2.312792378192304em" fill="#aaa"/><rect width="0.09615384615384616em" height="0.5341436578511198em" x="6.923076923076923vw" y="2.4658563421488804em" fill="#aaa"/><rect width="0.09615384615384616em" height="0.542003908853856em" x="7.01923076923077vw" y="2.457996091146144em" fill="#aaa"/><rect width="0.09615384615384616em" height="0.25519774235586024em" x="7.115384615384616vw" y="2.7448022576441398em" fill="#aaa"/><rect width="0.09615384615384616em" height="0.7614456176931184em" x="7.211538461538462vw" y="2.238554382306882em" fill="#aaa"/><rect width="0.09615384615384616em" height="0.27398646614975225em" x="7.307692307692308vw" y="2.7260135338502476em" fill="#aaa"/><rect width="0.09615384615384616em" height="0.5364544182271499em" x="7.403846153846154vw" y="2.46354558177285em" fill="#aaa"/><rect width="0.09615384615384616em" height="0.32287056626935684em" x="7.5vw" y="2.6771294337306433em" fill="#aaa"/><rect width="0.09615384615384616em" height="0.6073332263804206em" x="7.596153846153847vw" y="2.3926667736195792em" fill="#aaa"/><rect width="0.09615384615384616em" height="0.29724964997322034em" x="7.6923076923076925vw" y="2.7027503500267795em" fill="#aaa"/><rect width="0.09615384615384616em" height="0.46085518369816636em" x="7.788461538461539vw" y="2.5391448163018335em" fill="#aaa"/><rect width="0.09615384615384616em" height="0.3414781990403447em" x="7.884615384615385vw" y="2.6585218009596554em" fill="#aaa"/><rect width="0.09615384615384616em" height="0.3156218525761281em" x="7.980769230769231vw" y="2.684378147423872em" fill="#aaa"/><rect width="0.09615384615384616em" height="0.32372324497200444em" x="8.076923076923077vw" y="2.6762767550279953em" fill="#aaa"/><rect width="0.09615384615384616em" height="0.3619153727710137em" x="8.173076923076923vw" y="2.638084627228986em" fill="#aaa"/><rect width="0.09615384615384616em" height="0.37153570790664253em" x="8.26923076923077vw" y="2.6284642920933576em" fill="#aaa"/><rect width="0.09615384615384616em" height="0.34129850796035144em" x="8.365384615384615vw" y="2.658701492039649em" fill="#aaa"/><rect width="0.09615384615384616em" height="0.2411151966228567em" x="8.461538461538462vw" y="2.758884803377143em" fill="#aaa"/><rect width="0.09615384615384616em" height="0.25570830809562833em" x="8.557692307692308vw" y="2.7442916919043716em" fill="#aaa"/><rect width="0.09615384615384616em" height="0.3456387066598718em" x="8.653846153846155vw" y="2.6543612933401284em" fill="#aaa"/><rect width="0.09615384615384616em" height="0.32167170432006587em" x="8.75vw" y="2.6783282956799344em" fill="#aaa"/><rect width="0.09615384615384616em" height="0.3673215136933121em" x="8.846153846153847vw" y="2.6326784863066877em" fill="#aaa"/><rect width="0.09615384615384616em" height="0.2302631733266668em" x="8.942307692307693vw" y="2.7697368266733333em" fill="#aaa"/><rect width="0.09615384615384616em" height="0.2030229089978587em" x="9.038461538461538vw" y="2.7969770910021414em" fill="#aaa"/><rect width="0.09615384615384616em" height="0.3181683783058119em" x="9.134615384615385vw" y="2.681831621694188em" fill="#aaa"/><rect width="0.09615384615384616em" height="0.30071907775540985em" x="9.230769230769232vw" y="2.69928092224459em" fill="#aaa"/><rect width="0.09615384615384616em" height="0.2745322571938665em" x="9.326923076923077vw" y="2.7254677428061336em" fill="#aaa"/><rect width="0.09615384615384616em" height="0.2710881914447073em" x="9.423076923076923vw" y="2.7289118085552926em" fill="#aaa"/><rect width="0.09615384615384616em" height="0.22151470722240135em" x="9.51923076923077vw" y="2.7784852927775985em" fill="#aaa"/><rect width="0.09615384615384616em" height="0.2630676325106222em" x="9.615384615384617vw" y="2.736932367489378em" fill="#aaa"/><rect width="0.09615384615384616em" height="0.2454216641480943em" x="9.711538461538462vw" y="2.754578335851906em" fill="#aaa"/><rect width="0.09615384615384616em" height="0.2717588572421573em" x="9.807692307692308vw" y="2.7282411427578426em" fill="#aaa"/><rect width="0.09615384615384616em" height="0.2930695668712957em" x="9.903846153846155vw" y="2.7069304331287043em" fill="#aaa"/></svg>