<?xml version="1.0" standalone="no"?>
<svg xmlns:xlink="http://www.w3.org/1999/xlink" xmlns="http://www.w3.org/2000/svg" class="topic-graph" style="width: 100em; height: 30em; text-align: center;"><rect width="0.9615384615384616em" height="0.1548876957642959em" x="0em" y="29.845112304235705em" fill="#aaa"/><rect width="0.9615384615384616em" height="0.6560737367403622em" x="0.9615384615384616em" y="29.34392626325964em" fill="#aaa"/><rect width="0.9615384615384616em" height="0.9725424098279831em" x="1.9230769230769231em" y="29.027457590172016em" fill="#aaa"/><rect width="0.9615384615384616em" height="0.3970301851498223em" x="2.8846153846153846em" y="29.602969814850177em" fill="#aaa"/><rect width="0.9615384615384616em" height="0.6964852892058043em" x="3.8461538461538463em" y="29.303514710794197em" fill="#aaa"/><rect width="0.9615384615384616em" height="2.209401399391137em" x="4.8076923076923075em" y="27.790598600608863em" fill="#aaa"/><rect width="0.9615384615384616em" height="0.3911135365629268em" x="5.769230769230769em" y="29.608886463437074em" fill="#aaa"/><rect width="0.9615384615384616em" height="0.7405823171139185em" x="6.730769230769231em" y="29.25941768288608em" fill="#aaa"/><rect width="0.9615384615384616em" height="0.20970494054667826em" x="7.6923076923076925em" y="29.79029505945332em" fill="#aaa"/><rect width="0.9615384615384616em" height="3.616215612458256em" x="8.653846153846153em" y="26.383784387541745em" fill="#aaa"/><rect width="0.9615384615384616em" height="0.18811053507111117em" x="9.615384615384615em" y="29.81188946492889em" fill="#aaa"/><rect width="0.9615384615384616em" height="5.0985803070912965em" x="10.576923076923077em" y="24.901419692908703em" fill="#aaa"/><rect width="0.9615384615384616em" height="0.4662342848247655em" x="11.538461538461538em" y="29.533765715175235em" fill="#aaa"/><rect width="0.9615384615384616em" height="2.855360171115063em" x="12.5em" y="27.144639828884937em" fill="#aaa"/><rect width="0.9615384615384616em" height="2.9940734782856318em" x="13.461538461538462em" y="27.00592652171437em" fill="#aaa"/><rect width="0.9615384615384616em" height="0.8836336522320907em" x="14.423076923076923em" y="29.116366347767908em" fill="#aaa"/><rect width="0.9615384615384616em" height="0.36687016785209303em" x="15.384615384615385em" y="29.633129832147908em" fill="#aaa"/><rect width="0.9615384615384616em" height="0.28615734818384797em" x="16.346153846153847em" y="29.71384265181615em" fill="#aaa"/><rect width="0.9615384615384616em" height="0.22763558974267645em" x="17.307692307692307em" y="29.772364410257325em" fill="#aaa"/><rect width="0.9615384615384616em" height="0.16483166374705566em" x="18.26923076923077em" y="29.835168336252945em" fill="#aaa"/><rect width="0.9615384615384616em" height="0.6994563079992508em" x="19.23076923076923em" y="29.300543692000748em" fill="#aaa"/><rect width="0.9615384615384616em" height="2.2846807304083834em" x="20.192307692307693em" y="27.715319269591618em" fill="#aaa"/><rect width="0.9615384615384616em" height="0.293499061622799em" x="21.153846153846153em" y="29.7065009383772em" fill="#aaa"/><rect width="0.9615384615384616em" height="0.4431359995452082em" x="22.115384615384617em" y="29.55686400045479em" fill="#aaa"/><rect width="0.9615384615384616em" height="0.4394222145063882em" x="23.076923076923077em" y="29.560577785493614em" fill="#aaa"/><rect width="0.9615384615384616em" height="0.5808717642757469em" x="24.03846153846154em" y="29.41912823572425em" fill="#aaa"/><rect width="0.9615384615384616em" height="4.581657986388124em" x="25em" y="25.418342013611877em" fill="#aaa"/><rect width="0.9615384615384616em" height="4.4174164174870025em" x="25.961538461538463em" y="25.582583582512996em" fill="#aaa"/><rect width="0.9615384615384616em" height="2.965264160513019em" x="26.923076923076923em" y="27.03473583948698em" fill="#aaa"/><rect width="0.9615384615384616em" height="26.43031447611356em" x="27.884615384615387em" y="3.5696855238864416em" fill="#aaa"/><rect width="0.9615384615384616em" height="12.170600638992482em" x="28.846153846153847em" y="17.829399361007518em" fill="#aaa"/><rect width="0.9615384615384616em" height="4.546050633525706em" x="29.80769230769231em" y="25.453949366474294em" fill="#aaa"/><rect width="0.9615384615384616em" height="5.7297644072995535em" x="30.76923076923077em" y="24.270235592700445em" fill="#aaa"/><rect width="0.9615384615384616em" height="2.3651790778819213em" x="31.73076923076923em" y="27.634820922118077em" fill="#aaa"/><rect width="0.9615384615384616em" height="0.8683357312290653em" x="32.69230769230769em" y="29.131664268770933em" fill="#aaa"/><rect width="0.9615384615384616em" height="2.7520855364519825em" x="33.65384615384615em" y="27.247914463548017em" fill="#aaa"/><rect width="0.9615384615384616em" height="2.3798151914032672em" x="34.61538461538461em" y="27.620184808596733em" fill="#aaa"/><rect width="0.9615384615384616em" height="1.0692192930679587em" x="35.57692307692308em" y="28.93078070693204em" fill="#aaa"/><rect width="0.9615384615384616em" height="4.814948960770069em" x="36.53846153846154em" y="25.185051039229933em" fill="#aaa"/><rect width="0.9615384615384616em" height="3.2083826973270444em" x="37.5em" y="26.791617302672954em" fill="#aaa"/><rect width="0.9615384615384616em" height="7.503323904726896em" x="38.46153846153846em" y="22.496676095273102em" fill="#aaa"/><rect width="0.9615384615384616em" height="1.8335600374141814em" x="39.42307692307693em" y="28.16643996258582em" fill="#aaa"/><rect width="0.9615384615384616em" height="1.0298856169209218em" x="40.38461538461539em" y="28.97011438307908em" fill="#aaa"/><rect width="0.9615384615384616em" height="0.7947925007329317em" x="41.34615384615385em" y="29.20520749926707em" fill="#aaa"/><rect width="0.9615384615384616em" height="0.6474458412836421em" x="42.30769230769231em" y="29.35255415871636em" fill="#aaa"/><rect width="0.9615384615384616em" height="5.777809715428078em" x="43.269230769230774em" y="24.222190284571923em" fill="#aaa"/><rect width="0.9615384615384616em" height="6.238858734373338em" x="44.23076923076923em" y="23.761141265626662em" fill="#aaa"/><rect width="0.9615384615384616em" height="5.967809368802984em" x="45.19230769230769em" y="24.032190631197018em" fill="#aaa"/><rect width="0.9615384615384616em" height="3.4145450081145325em" x="46.15384615384615em" y="26.585454991885467em" fill="#aaa"/><rect width="0.9615384615384616em" height="30em" x="47.11538461538461em" y="0em" fill="#aaa"/><rect width="0.9615384615384616em" height="5.882612307104827em" x="48.07692307692308em" y="24.11738769289517em" fill="#aaa"/><rect width="0.9615384615384616em" height="8.836485416334893em" x="49.03846153846154em" y="21.163514583665105em" fill="#aaa"/><rect width="0.9615384615384616em" height="2.3914382388383424em" x="50em" y="27.608561761161656em" fill="#aaa"/><rect width="0.9615384615384616em" height="5.590240510268767em" x="50.96153846153846em" y="24.409759489731233em" fill="#aaa"/><rect width="0.9615384615384616em" height="4.954283252765602em" x="51.92307692307693em" y="25.045716747234398em" fill="#aaa"/><rect width="0.9615384615384616em" height="1.9833409257878445em" x="52.88461538461539em" y="28.016659074212157em" fill="#aaa"/><rect width="0.9615384615384616em" height="4.577372014594944em" x="53.84615384615385em" y="25.422627985405057em" fill="#aaa"/><rect width="0.9615384615384616em" height="5.9731434984796365em" x="54.80769230769231em" y="24.026856501520363em" fill="#aaa"/><rect width="0.9615384615384616em" height="6.985778398272774em" x="55.769230769230774em" y="23.014221601727225em" fill="#aaa"/><rect width="0.9615384615384616em" height="11.401728738319683em" x="56.73076923076923em" y="18.598271261680317em" fill="#aaa"/><rect width="0.9615384615384616em" height="4.091928823440319em" x="57.69230769230769em" y="25.90807117655968em" fill="#aaa"/><rect width="0.9615384615384616em" height="7.389887004164911em" x="58.65384615384615em" y="22.610112995835088em" fill="#aaa"/><rect width="0.9615384615384616em" height="10.308542787864306em" x="59.61538461538462em" y="19.691457212135695em" fill="#aaa"/><rect width="0.9615384615384616em" height="5.278235161676245em" x="60.57692307692308em" y="24.721764838323754em" fill="#aaa"/><rect width="0.9615384615384616em" height="6.851600397534922em" x="61.53846153846154em" y="23.148399602465076em" fill="#aaa"/><rect width="0.9615384615384616em" height="7.324040075874844em" x="62.5em" y="22.675959924125156em" fill="#aaa"/><rect width="0.9615384615384616em" height="5.2234010175046315em" x="63.46153846153846em" y="24.77659898249537em" fill="#aaa"/><rect width="0.9615384615384616em" height="6.66334559055193em" x="64.42307692307692em" y="23.33665440944807em" fill="#aaa"/><rect width="0.9615384615384616em" height="7.15169445572717em" x="65.38461538461539em" y="22.84830554427283em" fill="#aaa"/><rect width="0.9615384615384616em" height="4.112423832173093em" x="66.34615384615385em" y="25.887576167826907em" fill="#aaa"/><rect width="0.9615384615384616em" height="2.0334472825684324em" x="67.3076923076923em" y="27.96655271743157em" fill="#aaa"/><rect width="0.9615384615384616em" height="7.654046511943235em" x="68.26923076923077em" y="22.345953488056765em" fill="#aaa"/><rect width="0.9615384615384616em" height="9.146639732898592em" x="69.23076923076923em" y="20.853360267101408em" fill="#aaa"/><rect width="0.9615384615384616em" height="1.9439295994745878em" x="70.1923076923077em" y="28.056070400525414em" fill="#aaa"/><rect width="0.9615384615384616em" height="2.1859765878596327em" x="71.15384615384616em" y="27.81402341214037em" fill="#aaa"/><rect width="0.9615384615384616em" height="0.9922702008326577em" x="72.11538461538461em" y="29.007729799167343em" fill="#aaa"/><rect width="0.9615384615384616em" height="2.379176434486362em" x="73.07692307692308em" y="27.62082356551364em" fill="#aaa"/><rect width="0.9615384615384616em" height="1.2884138817024848em" x="74.03846153846155em" y="28.711586118297515em" fill="#aaa"/><rect width="0.9615384615384616em" height="1.5097280575292862em" x="75em" y="28.490271942470713em" fill="#aaa"/><rect width="0.9615384615384616em" height="1.7412573955151025em" x="75.96153846153847em" y="28.258742604484897em" fill="#aaa"/><rect width="0.9615384615384616em" height="2.4591830285045977em" x="76.92307692307692em" y="27.540816971495403em" fill="#aaa"/><rect width="0.9615384615384616em" height="2.2970972128858342em" x="77.88461538461539em" y="27.702902787114166em" fill="#aaa"/><rect width="0.9615384615384616em" height="1.5417728252895304em" x="78.84615384615385em" y="28.45822717471047em" fill="#aaa"/><rect width="0.9615384615384616em" height="2.505515473999292em" x="79.8076923076923em" y="27.494484526000708em" fill="#aaa"/><rect width="0.9615384615384616em" height="3.215915577233099em" x="80.76923076923077em" y="26.784084422766902em" fill="#aaa"/><rect width="0.9615384615384616em" height="1.6616282369469328em" x="81.73076923076923em" y="28.33837176305307em" fill="#aaa"/><rect width="0.9615384615384616em" height="1.0545758263461442em" x="82.6923076923077em" y="28.945424173653855em" fill="#aaa"/><rect width="0.9615384615384616em" height="3.686800177565062em" x="83.65384615384616em" y="26.31319982243494em" fill="#aaa"/><rect width="0.9615384615384616em" height="1.1337503238378772em" x="84.61538461538461em" y="28.866249676162123em" fill="#aaa"/><rect width="0.9615384615384616em" height="3.136634033883944em" x="85.57692307692308em" y="26.863365966116056em" fill="#aaa"/><rect width="0.9615384615384616em" height="1.412678270469689em" x="86.53846153846155em" y="28.58732172953031em" fill="#aaa"/><rect width="0.9615384615384616em" height="1.273886573298385em" x="87.5em" y="28.726113426701616em" fill="#aaa"/><rect width="0.9615384615384616em" height="2.058858315607884em" x="88.46153846153847em" y="27.941141684392115em" fill="#aaa"/><rect width="0.9615384615384616em" height="1.6770047889701958em" x="89.42307692307692em" y="28.322995211029806em" fill="#aaa"/><rect width="0.9615384615384616em" height="2.0702647620075743em" x="90.38461538461539em" y="27.929735237992425em" fill="#aaa"/><rect width="0.9615384615384616em" height="1.407312772208681em" x="91.34615384615385em" y="28.59268722779132em" fill="#aaa"/><rect width="0.9615384615384616em" height="1.2357028930509555em" x="92.3076923076923em" y="28.764297106949044em" fill="#aaa"/><rect width="0.9615384615384616em" height="1.5118994375244048em" x="93.26923076923077em" y="28.488100562475594em" fill="#aaa"/><rect width="0.9615384615384616em" height="1.2932143093614812em" x="94.23076923076923em" y="28.70678569063852em" fill="#aaa"/><rect width="0.9615384615384616em" height="1.7673451933445519em" x="95.1923076923077em" y="28.232654806655447em" fill="#aaa"/><rect width="0.9615384615384616em" height="1.6627454218904183em" x="96.15384615384616em" y="28.337254578109583em" fill="#aaa"/><rect width="0.9615384615384616em" height="2.5128023826085264em" x="97.11538461538461em" y="27.487197617391473em" fill="#aaa"/><rect width="0.9615384615384616em" height="1.2806740146376958em" x="98.07692307692308em" y="28.719325985362303em" fill="#aaa"/><rect width="0.9615384615384616em" height="2.1858361432866222em" x="99.03846153846155em" y="27.814163856713378em" fill="#aaa"/></svg>