<?xml version="1.0" standalone="no"?>
<svg xmlns:xlink="http://www.w3.org/1999/xlink" xmlns="http://www.w3.org/2000/svg" class="topic-graph" style="width: 10vw; height: 3em; text-align: center;"><rect width="0.09615384615384616em" height="0.6785203193411349em" x="0vw" y="2.3214796806588653em" fill="#aaa"/><rect width="0.09615384615384616em" height="0.04432476397957845em" x="0.09615384615384616vw" y="2.9556752360204217em" fill="#aaa"/><rect width="0.09615384615384616em" height="1.5682606294927188em" x="0.19230769230769232vw" y="1.4317393705072812em" fill="#aaa"/><rect width="0.09615384615384616em" height="0.3994392056920252em" x="0.2884615384615385vw" y="2.6005607943079747em" fill="#aaa"/><rect width="0.09615384615384616em" height="0.18939707913819093em" x="0.38461538461538464vw" y="2.8106029208618093em" fill="#aaa"/><rect width="0.09615384615384616em" height="0.538348045302979em" x="0.4807692307692308vw" y="2.461651954697021em" fill="#aaa"/><rect width="0.09615384615384616em" height="0.9636898219161147em" x="0.576923076923077vw" y="2.0363101780838853em" fill="#aaa"/><rect width="0.09615384615384616em" height="1.1276023687485426em" x="0.6730769230769231vw" y="1.8723976312514574em" fill="#aaa"/><rect width="0.09615384615384616em" height="0.5927471788064658em" x="0.7692307692307693vw" y="2.4072528211935342em" fill="#aaa"/><rect width="0.09615384615384616em" height="0.7808611451105314em" x="0.8653846153846154vw" y="2.2191388548894686em" fill="#aaa"/><rect width="0.09615384615384616em" height="1.579620449111499em" x="0.9615384615384616vw" y="1.420379550888501em" fill="#aaa"/><rect width="0.09615384615384616em" height="0.7175797446276738em" x="1.0576923076923077vw" y="2.282420255372326em" fill="#aaa"/><rect width="0.09615384615384616em" height="0.5850733707939797em" x="1.153846153846154vw" y="2.41492662920602em" fill="#aaa"/><rect width="0.09615384615384616em" height="1.0075819566084432em" x="1.25vw" y="1.9924180433915568em" fill="#aaa"/><rect width="0.09615384615384616em" height="0.11600036921491441em" x="1.3461538461538463vw" y="2.8839996307850857em" fill="#aaa"/><rect width="0.09615384615384616em" height="1.0812685354173186em" x="1.4423076923076923vw" y="1.9187314645826814em" fill="#aaa"/><rect width="0.09615384615384616em" height="0.5953763014039757em" x="1.5384615384615385vw" y="2.4046236985960245em" fill="#aaa"/><rect width="0.09615384615384616em" height="0.9558032686285336em" x="1.6346153846153848vw" y="2.0441967313714664em" fill="#aaa"/><rect width="0.09615384615384616em" height="0.19971778830768755em" x="1.7307692307692308vw" y="2.8002822116923123em" fill="#aaa"/><rect width="0.09615384615384616em" height="1.486550284943766em" x="1.826923076923077vw" y="1.513449715056234em" fill="#aaa"/><rect width="0.09615384615384616em" height="0.9744989412498927em" x="1.9230769230769231vw" y="2.025501058750107em" fill="#aaa"/><rect width="0.09615384615384616em" height="0.6399299917926826em" x="2.019230769230769vw" y="2.3600700082073174em" fill="#aaa"/><rect width="0.09615384615384616em" height="0.5574466218067893em" x="2.1153846153846154vw" y="2.4425533781932107em" fill="#aaa"/><rect width="0.09615384615384616em" height="0.19913985559124675em" x="2.2115384615384617vw" y="2.800860144408753em" fill="#aaa"/><rect width="0.09615384615384616em" height="1.758762099054482em" x="2.307692307692308vw" y="1.241237900945518em" fill="#aaa"/><rect width="0.09615384615384616em" height="0.8600470004654871em" x="2.403846153846154vw" y="2.139952999534513em" fill="#aaa"/><rect width="0.09615384615384616em" height="1.1240651079124402em" x="2.5vw" y="1.8759348920875598em" fill="#aaa"/><rect width="0.09615384615384616em" height="0.3317070582886108em" x="2.5961538461538463vw" y="2.668292941711389em" fill="#aaa"/><rect width="0.09615384615384616em" height="2.7534030511723033em" x="2.6923076923076925vw" y="0.24659694882769667em" fill="#aaa"/><rect width="0.09615384615384616em" height="0.7553441805145935em" x="2.7884615384615388vw" y="2.2446558194854065em" fill="#aaa"/><rect width="0.09615384615384616em" height="1.3523622248829101em" x="2.8846153846153846vw" y="1.6476377751170899em" fill="#aaa"/><rect width="0.09615384615384616em" height="1.116364589304021em" x="2.980769230769231vw" y="1.883635410695979em" fill="#aaa"/><rect width="0.09615384615384616em" height="1.439768967869551em" x="3.076923076923077vw" y="1.560231032130449em" fill="#aaa"/><rect width="0.09615384615384616em" height="1.7356609599167276em" x="3.1730769230769234vw" y="1.2643390400832724em" fill="#aaa"/><rect width="0.09615384615384616em" height="0.5481983482164408em" x="3.2692307692307696vw" y="2.4518016517835592em" fill="#aaa"/><rect width="0.09615384615384616em" height="1.2111277774713245em" x="3.3653846153846154vw" y="1.7888722225286755em" fill="#aaa"/><rect width="0.09615384615384616em" height="0.8907716225585851em" x="3.4615384615384617vw" y="2.109228377441415em" fill="#aaa"/><rect width="0.09615384615384616em" height="1.197718998635104em" x="3.557692307692308vw" y="1.802281001364896em" fill="#aaa"/><rect width="0.09615384615384616em" height="0.8435242471331987em" x="3.653846153846154vw" y="2.1564757528668013em" fill="#aaa"/><rect width="0.09615384615384616em" height="0.5198560002734713em" x="3.75vw" y="2.4801439997265287em" fill="#aaa"/><rect width="0.09615384615384616em" height="0.8641399933407982em" x="3.8461538461538463vw" y="2.1358600066592017em" fill="#aaa"/><rect width="0.09615384615384616em" height="0.60898345941121em" x="3.9423076923076925vw" y="2.39101654058879em" fill="#aaa"/><rect width="0.09615384615384616em" height="0.38933055278650686em" x="4.038461538461538vw" y="2.610669447213493em" fill="#aaa"/><rect width="0.09615384615384616em" height="0.7934916164924424em" x="4.134615384615385vw" y="2.2065083835075576em" fill="#aaa"/><rect width="0.09615384615384616em" height="1.7449063217721448em" x="4.230769230769231vw" y="1.2550936782278552em" fill="#aaa"/><rect width="0.09615384615384616em" height="2.5766268481836967em" x="4.3269230769230775vw" y="0.4233731518163033em" fill="#aaa"/><rect width="0.09615384615384616em" height="1.152646897761296em" x="4.423076923076923vw" y="1.847353102238704em" fill="#aaa"/><rect width="0.09615384615384616em" height="0.8777229344772164em" x="4.519230769230769vw" y="2.1222770655227836em" fill="#aaa"/><rect width="0.09615384615384616em" height="1.7067720614720345em" x="4.615384615384616vw" y="1.2932279385279655em" fill="#aaa"/><rect width="0.09615384615384616em" height="1.4542977582056615em" x="4.711538461538462vw" y="1.5457022417943385em" fill="#aaa"/><rect width="0.09615384615384616em" height="0.4751777228579777em" x="4.807692307692308vw" y="2.524822277142022em" fill="#aaa"/><rect width="0.09615384615384616em" height="1.5711096174818313em" x="4.903846153846154vw" y="1.4288903825181687em" fill="#aaa"/><rect width="0.09615384615384616em" height="1.7967735582630469em" x="5vw" y="1.2032264417369531em" fill="#aaa"/><rect width="0.09615384615384616em" height="1.828252863823793em" x="5.096153846153847vw" y="1.171747136176207em" fill="#aaa"/><rect width="0.09615384615384616em" height="0.8140046622735302em" x="5.1923076923076925vw" y="2.18599533772647em" fill="#aaa"/><rect width="0.09615384615384616em" height="0.318751657011089em" x="5.288461538461538vw" y="2.681248342988911em" fill="#aaa"/><rect width="0.09615384615384616em" height="1.1660361711004512em" x="5.384615384615385vw" y="1.8339638288995488em" fill="#aaa"/><rect width="0.09615384615384616em" height="0.227737373135302em" x="5.480769230769231vw" y="2.772262626864698em" fill="#aaa"/><rect width="0.09615384615384616em" height="0.564805966474075em" x="5.5769230769230775vw" y="2.4351940335259252em" fill="#aaa"/><rect width="0.09615384615384616em" height="0.24287810867336695em" x="5.673076923076923vw" y="2.757121891326633em" fill="#aaa"/><rect width="0.09615384615384616em" height="1.8552914337022517em" x="5.769230769230769vw" y="1.1447085662977483em" fill="#aaa"/><rect width="0.09615384615384616em" height="3em" x="5.865384615384616vw" y="0em" fill="#aaa"/><rect width="0.09615384615384616em" height="0.36850212655998255em" x="5.961538461538462vw" y="2.6314978734400176em" fill="#aaa"/><rect width="0.09615384615384616em" height="0.9423860131084122em" x="6.057692307692308vw" y="2.057613986891588em" fill="#aaa"/><rect width="0.09615384615384616em" height="0.8750481036996458em" x="6.153846153846154vw" y="2.124951896300354em" fill="#aaa"/><rect width="0.09615384615384616em" height="0.24977101473213933em" x="6.25vw" y="2.7502289852678605em" fill="#aaa"/><rect width="0.09615384615384616em" height="0.4216857353959228em" x="6.346153846153847vw" y="2.578314264604077em" fill="#aaa"/><rect width="0.09615384615384616em" height="0.3843453937206719em" x="6.4423076923076925vw" y="2.615654606279328em" fill="#aaa"/><rect width="0.09615384615384616em" height="0.19934969690543286em" x="6.538461538461539vw" y="2.8006503030945673em" fill="#aaa"/><rect width="0.09615384615384616em" height="0.2530930453303851em" x="6.634615384615385vw" y="2.746906954669615em" fill="#aaa"/><rect width="0.09615384615384616em" height="0.27163806649484923em" x="6.730769230769231vw" y="2.728361933505151em" fill="#aaa"/><rect width="0.09615384615384616em" height="0.1662356227163725em" x="6.8269230769230775vw" y="2.8337643772836274em" fill="#aaa"/><rect width="0.09615384615384616em" height="0.21868714705116024em" x="6.923076923076923vw" y="2.78131285294884em" fill="#aaa"/><rect width="0.09615384615384616em" height="0.16692007073279422em" x="7.01923076923077vw" y="2.833079929267206em" fill="#aaa"/><rect width="0.09615384615384616em" height="0.2214747711929194em" x="7.115384615384616vw" y="2.7785252288070805em" fill="#aaa"/><rect width="0.09615384615384616em" height="1.4751133434007282em" x="7.211538461538462vw" y="1.5248866565992718em" fill="#aaa"/><rect width="0.09615384615384616em" height="0.6345676215950101em" x="7.307692307692308vw" y="2.3654323784049898em" fill="#aaa"/><rect width="0.09615384615384616em" height="0.6894361579738977em" x="7.403846153846154vw" y="2.3105638420261023em" fill="#aaa"/><rect width="0.09615384615384616em" height="0.6640881770368742em" x="7.5vw" y="2.335911822963126em" fill="#aaa"/><rect width="0.09615384615384616em" height="0.2975447443223432em" x="7.596153846153847vw" y="2.702455255677657em" fill="#aaa"/><rect width="0.09615384615384616em" height="0.3353268940666876em" x="7.6923076923076925vw" y="2.6646731059333124em" fill="#aaa"/><rect width="0.09615384615384616em" height="0.22301095508914415em" x="7.788461538461539vw" y="2.776989044910856em" fill="#aaa"/><rect width="0.09615384615384616em" height="0.32677539339958206em" x="7.884615384615385vw" y="2.673224606600418em" fill="#aaa"/><rect width="0.09615384615384616em" height="0.581997943013429em" x="7.980769230769231vw" y="2.418002056986571em" fill="#aaa"/><rect width="0.09615384615384616em" height="0.30859347166643436em" x="8.076923076923077vw" y="2.6914065283335655em" fill="#aaa"/><rect width="0.09615384615384616em" height="0.27211392395623235em" x="8.173076923076923vw" y="2.7278860760437675em" fill="#aaa"/><rect width="0.09615384615384616em" height="0.2663328881101564em" x="8.26923076923077vw" y="2.7336671118898437em" fill="#aaa"/><rect width="0.09615384615384616em" height="0.11538408866184019em" x="8.365384615384615vw" y="2.8846159113381598em" fill="#aaa"/><rect width="0.09615384615384616em" height="0.3230260210399629em" x="8.461538461538462vw" y="2.676973978960037em" fill="#aaa"/><rect width="0.09615384615384616em" height="0.14555039051496893em" x="8.557692307692308vw" y="2.854449609485031em" fill="#aaa"/><rect width="0.09615384615384616em" height="0.18333043377878142em" x="8.653846153846155vw" y="2.8166695662212184em" fill="#aaa"/><rect width="0.09615384615384616em" height="0.19710632104575615em" x="8.75vw" y="2.802893678954244em" fill="#aaa"/><rect width="0.09615384615384616em" height="0.23825274503918986em" x="8.846153846153847vw" y="2.76174725496081em" fill="#aaa"/><rect width="0.09615384615384616em" height="0.21851384191559672em" x="8.942307692307693vw" y="2.7814861580844035em" fill="#aaa"/><rect width="0.09615384615384616em" height="0.1603842450357285em" x="9.038461538461538vw" y="2.8396157549642713em" fill="#aaa"/><rect width="0.09615384615384616em" height="0.1764623608527979em" x="9.134615384615385vw" y="2.8235376391472022em" fill="#aaa"/><rect width="0.09615384615384616em" height="0.94945904911485em" x="9.230769230769232vw" y="2.05054095088515em" fill="#aaa"/><rect width="0.09615384615384616em" height="0.2388976680342919em" x="9.326923076923077vw" y="2.761102331965708em" fill="#aaa"/><rect width="0.09615384615384616em" height="0.33373108150666153em" x="9.423076923076923vw" y="2.6662689184933384em" fill="#aaa"/><rect width="0.09615384615384616em" height="0.15521668583393533em" x="9.51923076923077vw" y="2.844783314166065em" fill="#aaa"/><rect width="0.09615384615384616em" height="0.21184539395885224em" x="9.615384615384617vw" y="2.788154606041148em" fill="#aaa"/><rect width="0.09615384615384616em" height="0.2046648864904977em" x="9.711538461538462vw" y="2.7953351135095024em" fill="#aaa"/><rect width="0.09615384615384616em" height="0.20565859524399943em" x="9.807692307692308vw" y="2.7943414047560005em" fill="#aaa"/><rect width="0.09615384615384616em" height="0.18117367335184026em" x="9.903846153846155vw" y="2.8188263266481597em" fill="#aaa"/></svg>