<?xml version="1.0" standalone="no"?>
<svg xmlns:xlink="http://www.w3.org/1999/xlink" xmlns="http://www.w3.org/2000/svg" class="topic-graph" style="width: 10vw; height: 3em; text-align: center;"><rect width="0.09615384615384616em" height="0.24226034665339552em" x="0vw" y="2.7577396533466043em" fill="#aaa"/><rect width="0.09615384615384616em" height="0.4316264577732103em" x="0.09615384615384616vw" y="2.56837354222679em" fill="#aaa"/><rect width="0.09615384615384616em" height="0.44534997447815977em" x="0.19230769230769232vw" y="2.5546500255218403em" fill="#aaa"/><rect width="0.09615384615384616em" height="3em" x="0.2884615384615385vw" y="0em" fill="#aaa"/><rect width="0.09615384615384616em" height="0.8607723163987979em" x="0.38461538461538464vw" y="2.1392276836012023em" fill="#aaa"/><rect width="0.09615384615384616em" height="1.1587793591366036em" x="0.4807692307692308vw" y="1.8412206408633964em" fill="#aaa"/><rect width="0.09615384615384616em" height="0.7216558445519965em" x="0.576923076923077vw" y="2.2783441554480035em" fill="#aaa"/><rect width="0.09615384615384616em" height="0.09144371938755888em" x="0.6730769230769231vw" y="2.908556280612441em" fill="#aaa"/><rect width="0.09615384615384616em" height="0.8931199556326116em" x="0.7692307692307693vw" y="2.1068800443673883em" fill="#aaa"/><rect width="0.09615384615384616em" height="1.9185056000219558em" x="0.8653846153846154vw" y="1.0814943999780442em" fill="#aaa"/><rect width="0.09615384615384616em" height="1.5585809404901765em" x="0.9615384615384616vw" y="1.4414190595098235em" fill="#aaa"/><rect width="0.09615384615384616em" height="0.2850331691600689em" x="1.0576923076923077vw" y="2.714966830839931em" fill="#aaa"/><rect width="0.09615384615384616em" height="0.5837195343040422em" x="1.153846153846154vw" y="2.416280465695958em" fill="#aaa"/><rect width="0.09615384615384616em" height="0.139951131733313em" x="1.25vw" y="2.860048868266687em" fill="#aaa"/><rect width="0.09615384615384616em" height="0.19085855065062907em" x="1.3461538461538463vw" y="2.809141449349371em" fill="#aaa"/><rect width="0.09615384615384616em" height="0.20779151108834423em" x="1.4423076923076923vw" y="2.7922084889116556em" fill="#aaa"/><rect width="0.09615384615384616em" height="0.18646088091393653em" x="1.5384615384615385vw" y="2.8135391190860632em" fill="#aaa"/><rect width="0.09615384615384616em" height="0.4845496607257584em" x="1.6346153846153848vw" y="2.5154503392742416em" fill="#aaa"/><rect width="0.09615384615384616em" height="0.293905101604674em" x="1.7307692307692308vw" y="2.706094898395326em" fill="#aaa"/><rect width="0.09615384615384616em" height="0.25771922620472976em" x="1.826923076923077vw" y="2.74228077379527em" fill="#aaa"/><rect width="0.09615384615384616em" height="0.15261143612035796em" x="1.9230769230769231vw" y="2.847388563879642em" fill="#aaa"/><rect width="0.09615384615384616em" height="0.32629029612535765em" x="2.019230769230769vw" y="2.6737097038746422em" fill="#aaa"/><rect width="0.09615384615384616em" height="0.5240894059552145em" x="2.1153846153846154vw" y="2.4759105940447856em" fill="#aaa"/><rect width="0.09615384615384616em" height="0.3129756451863452em" x="2.2115384615384617vw" y="2.687024354813655em" fill="#aaa"/><rect width="0.09615384615384616em" height="0.7342861001919911em" x="2.307692307692308vw" y="2.265713899808009em" fill="#aaa"/><rect width="0.09615384615384616em" height="0.4738802082935123em" x="2.403846153846154vw" y="2.5261197917064875em" fill="#aaa"/><rect width="0.09615384615384616em" height="0.3191140753621331em" x="2.5vw" y="2.6808859246378667em" fill="#aaa"/><rect width="0.09615384615384616em" height="0.4861138943783272em" x="2.5961538461538463vw" y="2.5138861056216726em" fill="#aaa"/><rect width="0.09615384615384616em" height="0.8981655831913269em" x="2.6923076923076925vw" y="2.101834416808673em" fill="#aaa"/><rect width="0.09615384615384616em" height="0.2976208675748602em" x="2.7884615384615388vw" y="2.70237913242514em" fill="#aaa"/><rect width="0.09615384615384616em" height="0.4672176046225339em" x="2.8846153846153846vw" y="2.532782395377466em" fill="#aaa"/><rect width="0.09615384615384616em" height="0.38865326485137053em" x="2.980769230769231vw" y="2.6113467351486293em" fill="#aaa"/><rect width="0.09615384615384616em" height="0.6583134494505429em" x="3.076923076923077vw" y="2.341686550549457em" fill="#aaa"/><rect width="0.09615384615384616em" height="0.5129048415196338em" x="3.1730769230769234vw" y="2.487095158480366em" fill="#aaa"/><rect width="0.09615384615384616em" height="0.13933913928479552em" x="3.2692307692307696vw" y="2.8606608607152046em" fill="#aaa"/><rect width="0.09615384615384616em" height="0.5461527899711967em" x="3.3653846153846154vw" y="2.4538472100288033em" fill="#aaa"/><rect width="0.09615384615384616em" height="0.7241272083250803em" x="3.4615384615384617vw" y="2.27587279167492em" fill="#aaa"/><rect width="0.09615384615384616em" height="0.5355756895976428em" x="3.557692307692308vw" y="2.4644243104023573em" fill="#aaa"/><rect width="0.09615384615384616em" height="0.22945879051849155em" x="3.653846153846154vw" y="2.7705412094815083em" fill="#aaa"/><rect width="0.09615384615384616em" height="0.12297138319137699em" x="3.75vw" y="2.877028616808623em" fill="#aaa"/><rect width="0.09615384615384616em" height="0.7099682410575486em" x="3.8461538461538463vw" y="2.2900317589424515em" fill="#aaa"/><rect width="0.09615384615384616em" height="0.42026412523380485em" x="3.9423076923076925vw" y="2.579735874766195em" fill="#aaa"/><rect width="0.09615384615384616em" height="0.48998267659994066em" x="4.038461538461538vw" y="2.510017323400059em" fill="#aaa"/><rect width="0.09615384615384616em" height="0.20834499712131638em" x="4.134615384615385vw" y="2.7916550028786835em" fill="#aaa"/><rect width="0.09615384615384616em" height="0.8022451310546361em" x="4.230769230769231vw" y="2.197754868945364em" fill="#aaa"/><rect width="0.09615384615384616em" height="0.4638640162621298em" x="4.3269230769230775vw" y="2.53613598373787em" fill="#aaa"/><rect width="0.09615384615384616em" height="0.7174931610865823em" x="4.423076923076923vw" y="2.2825068389134175em" fill="#aaa"/><rect width="0.09615384615384616em" height="0.5345084321075612em" x="4.519230769230769vw" y="2.465491567892439em" fill="#aaa"/><rect width="0.09615384615384616em" height="1.4636323745038422em" x="4.615384615384616vw" y="1.5363676254961578em" fill="#aaa"/><rect width="0.09615384615384616em" height="0.18268220996999132em" x="4.711538461538462vw" y="2.8173177900300086em" fill="#aaa"/><rect width="0.09615384615384616em" height="0.5345435998523098em" x="4.807692307692308vw" y="2.46545640014769em" fill="#aaa"/><rect width="0.09615384615384616em" height="1.4750193924397073em" x="4.903846153846154vw" y="1.5249806075602927em" fill="#aaa"/><rect width="0.09615384615384616em" height="1.3409243099698673em" x="5vw" y="1.6590756900301327em" fill="#aaa"/><rect width="0.09615384615384616em" height="1.5790188651597983em" x="5.096153846153847vw" y="1.4209811348402017em" fill="#aaa"/><rect width="0.09615384615384616em" height="0.2479399132740715em" x="5.1923076923076925vw" y="2.7520600867259284em" fill="#aaa"/><rect width="0.09615384615384616em" height="0.41975226614017813em" x="5.288461538461538vw" y="2.5802477338598218em" fill="#aaa"/><rect width="0.09615384615384616em" height="0.31415463028192264em" x="5.384615384615385vw" y="2.6858453697180775em" fill="#aaa"/><rect width="0.09615384615384616em" height="0.16052027538867056em" x="5.480769230769231vw" y="2.8394797246113295em" fill="#aaa"/><rect width="0.09615384615384616em" height="0.2140359001231083em" x="5.5769230769230775vw" y="2.7859640998768915em" fill="#aaa"/><rect width="0.09615384615384616em" height="0.12776279326655351em" x="5.673076923076923vw" y="2.8722372067334465em" fill="#aaa"/><rect width="0.09615384615384616em" height="0.09816679980414987em" x="5.769230769230769vw" y="2.90183320019585em" fill="#aaa"/><rect width="0.09615384615384616em" height="0.17426956535051397em" x="5.865384615384616vw" y="2.8257304346494863em" fill="#aaa"/><rect width="0.09615384615384616em" height="0.1131192615106158em" x="5.961538461538462vw" y="2.886880738489384em" fill="#aaa"/><rect width="0.09615384615384616em" height="0.11279162731421634em" x="6.057692307692308vw" y="2.887208372685784em" fill="#aaa"/><rect width="0.09615384615384616em" height="0.12396523584423895em" x="6.153846153846154vw" y="2.876034764155761em" fill="#aaa"/><rect width="0.09615384615384616em" height="0.10809668149772866em" x="6.25vw" y="2.8919033185022713em" fill="#aaa"/><rect width="0.09615384615384616em" height="0.1718181557981169em" x="6.346153846153847vw" y="2.828181844201883em" fill="#aaa"/><rect width="0.09615384615384616em" height="0.1741913815222247em" x="6.4423076923076925vw" y="2.825808618477775em" fill="#aaa"/><rect width="0.09615384615384616em" height="0.17905055347942897em" x="6.538461538461539vw" y="2.820949446520571em" fill="#aaa"/><rect width="0.09615384615384616em" height="0.32862057137342804em" x="6.634615384615385vw" y="2.671379428626572em" fill="#aaa"/><rect width="0.09615384615384616em" height="0.15777357807409076em" x="6.730769230769231vw" y="2.8422264219259095em" fill="#aaa"/><rect width="0.09615384615384616em" height="0.19073821665593405em" x="6.8269230769230775vw" y="2.809261783344066em" fill="#aaa"/><rect width="0.09615384615384616em" height="0.09333517435895805em" x="6.923076923076923vw" y="2.906664825641042em" fill="#aaa"/><rect width="0.09615384615384616em" height="0.12180277159000732em" x="7.01923076923077vw" y="2.878197228409993em" fill="#aaa"/><rect width="0.09615384615384616em" height="0.21652364903526444em" x="7.115384615384616vw" y="2.783476350964736em" fill="#aaa"/><rect width="0.09615384615384616em" height="0.11754953558591939em" x="7.211538461538462vw" y="2.8824504644140805em" fill="#aaa"/><rect width="0.09615384615384616em" height="0.0807616734629449em" x="7.307692307692308vw" y="2.919238326537055em" fill="#aaa"/><rect width="0.09615384615384616em" height="0.161121159968868em" x="7.403846153846154vw" y="2.838878840031132em" fill="#aaa"/><rect width="0.09615384615384616em" height="0.22180006955577858em" x="7.5vw" y="2.7781999304442215em" fill="#aaa"/><rect width="0.09615384615384616em" height="0.1423936421661663em" x="7.596153846153847vw" y="2.8576063578338338em" fill="#aaa"/><rect width="0.09615384615384616em" height="0.10106101509458928em" x="7.6923076923076925vw" y="2.898938984905411em" fill="#aaa"/><rect width="0.09615384615384616em" height="0.18186443623242982em" x="7.788461538461539vw" y="2.8181355637675702em" fill="#aaa"/><rect width="0.09615384615384616em" height="0.21841143784308503em" x="7.884615384615385vw" y="2.781588562156915em" fill="#aaa"/><rect width="0.09615384615384616em" height="0.30086912862823123em" x="7.980769230769231vw" y="2.6991308713717688em" fill="#aaa"/><rect width="0.09615384615384616em" height="0.18797455787081824em" x="8.076923076923077vw" y="2.812025442129182em" fill="#aaa"/><rect width="0.09615384615384616em" height="0.18990335057110963em" x="8.173076923076923vw" y="2.8100966494288904em" fill="#aaa"/><rect width="0.09615384615384616em" height="0.2022104773260739em" x="8.26923076923077vw" y="2.797789522673926em" fill="#aaa"/><rect width="0.09615384615384616em" height="0.2955534582742314em" x="8.365384615384615vw" y="2.7044465417257686em" fill="#aaa"/><rect width="0.09615384615384616em" height="0.25204117302425055em" x="8.461538461538462vw" y="2.7479588269757493em" fill="#aaa"/><rect width="0.09615384615384616em" height="0.2300586163193395em" x="8.557692307692308vw" y="2.7699413836806603em" fill="#aaa"/><rect width="0.09615384615384616em" height="0.20169625945319575em" x="8.653846153846155vw" y="2.798303740546804em" fill="#aaa"/><rect width="0.09615384615384616em" height="0.38541299789782024em" x="8.75vw" y="2.61458700210218em" fill="#aaa"/><rect width="0.09615384615384616em" height="0.161486684708827em" x="8.846153846153847vw" y="2.838513315291173em" fill="#aaa"/><rect width="0.09615384615384616em" height="0.2752886950070907em" x="8.942307692307693vw" y="2.7247113049929093em" fill="#aaa"/><rect width="0.09615384615384616em" height="0.26475740346517096em" x="9.038461538461538vw" y="2.735242596534829em" fill="#aaa"/><rect width="0.09615384615384616em" height="0.2557845184466153em" x="9.134615384615385vw" y="2.744215481553385em" fill="#aaa"/><rect width="0.09615384615384616em" height="0.19711207518867632em" x="9.230769230769232vw" y="2.8028879248113236em" fill="#aaa"/><rect width="0.09615384615384616em" height="0.1979939430808385em" x="9.326923076923077vw" y="2.8020060569191614em" fill="#aaa"/><rect width="0.09615384615384616em" height="0.27144699557150637em" x="9.423076923076923vw" y="2.728553004428494em" fill="#aaa"/><rect width="0.09615384615384616em" height="0.2628220772355997em" x="9.51923076923077vw" y="2.7371779227644004em" fill="#aaa"/><rect width="0.09615384615384616em" height="0.21073796779922913em" x="9.615384615384617vw" y="2.789262032200771em" fill="#aaa"/><rect width="0.09615384615384616em" height="0.21542674300682607em" x="9.711538461538462vw" y="2.784573256993174em" fill="#aaa"/><rect width="0.09615384615384616em" height="0.21829195332676105em" x="9.807692307692308vw" y="2.781708046673239em" fill="#aaa"/><rect width="0.09615384615384616em" height="0.26359348882415373em" x="9.903846153846155vw" y="2.736406511175846em" fill="#aaa"/></svg>