<?xml version="1.0" standalone="no"?>
<svg xmlns:xlink="http://www.w3.org/1999/xlink" xmlns="http://www.w3.org/2000/svg" class="topic-graph" style="width: 100em; height: 30em; text-align: center;"><rect width="0.9615384615384616em" height="0.1033747197558693em" x="0em" y="29.89662528024413em" fill="#aaa"/><rect width="0.9615384615384616em" height="0.6008067143517487em" x="0.9615384615384616em" y="29.399193285648252em" fill="#aaa"/><rect width="0.9615384615384616em" height="1.1020033819147372em" x="1.9230769230769231em" y="28.897996618085262em" fill="#aaa"/><rect width="0.9615384615384616em" height="0.24172981912352978em" x="2.8846153846153846em" y="29.75827018087647em" fill="#aaa"/><rect width="0.9615384615384616em" height="1.6948005567443802em" x="3.8461538461538463em" y="28.30519944325562em" fill="#aaa"/><rect width="0.9615384615384616em" height="0.8074619348622614em" x="4.8076923076923075em" y="29.19253806513774em" fill="#aaa"/><rect width="0.9615384615384616em" height="1.3107101351423034em" x="5.769230769230769em" y="28.689289864857695em" fill="#aaa"/><rect width="0.9615384615384616em" height="0.10315828184953428em" x="6.730769230769231em" y="29.896841718150466em" fill="#aaa"/><rect width="0.9615384615384616em" height="3.676498453054972em" x="7.6923076923076925em" y="26.323501546945028em" fill="#aaa"/><rect width="0.9615384615384616em" height="1.9568764710970252em" x="8.653846153846153em" y="28.043123528902974em" fill="#aaa"/><rect width="0.9615384615384616em" height="0.18539121650399398em" x="9.615384615384615em" y="29.814608783496006em" fill="#aaa"/><rect width="0.9615384615384616em" height="1.695033258402891em" x="10.576923076923077em" y="28.30496674159711em" fill="#aaa"/><rect width="0.9615384615384616em" height="1.0482247748960856em" x="11.538461538461538em" y="28.951775225103916em" fill="#aaa"/><rect width="0.9615384615384616em" height="9.599861895704366em" x="12.5em" y="20.400138104295635em" fill="#aaa"/><rect width="0.9615384615384616em" height="8.160060072483168em" x="13.461538461538462em" y="21.83993992751683em" fill="#aaa"/><rect width="0.9615384615384616em" height="4.480168889452435em" x="14.423076923076923em" y="25.519831110547564em" fill="#aaa"/><rect width="0.9615384615384616em" height="1.5374602685763747em" x="15.384615384615385em" y="28.462539731423625em" fill="#aaa"/><rect width="0.9615384615384616em" height="2.026568905568761em" x="16.346153846153847em" y="27.973431094431238em" fill="#aaa"/><rect width="0.9615384615384616em" height="10.40911526509203em" x="17.307692307692307em" y="19.59088473490797em" fill="#aaa"/><rect width="0.9615384615384616em" height="3.4380406271704183em" x="18.26923076923077em" y="26.56195937282958em" fill="#aaa"/><rect width="0.9615384615384616em" height="2.371299016156982em" x="19.23076923076923em" y="27.628700983843018em" fill="#aaa"/><rect width="0.9615384615384616em" height="4.170462789741523em" x="20.192307692307693em" y="25.829537210258476em" fill="#aaa"/><rect width="0.9615384615384616em" height="8.004178080693071em" x="21.153846153846153em" y="21.995821919306927em" fill="#aaa"/><rect width="0.9615384615384616em" height="6.248341309856388em" x="22.115384615384617em" y="23.751658690143614em" fill="#aaa"/><rect width="0.9615384615384616em" height="8.159975277338678em" x="23.076923076923077em" y="21.840024722661322em" fill="#aaa"/><rect width="0.9615384615384616em" height="7.458181572524363em" x="24.03846153846154em" y="22.541818427475636em" fill="#aaa"/><rect width="0.9615384615384616em" height="7.750270400330149em" x="25em" y="22.249729599669852em" fill="#aaa"/><rect width="0.9615384615384616em" height="2.835679736831375em" x="25.961538461538463em" y="27.164320263168626em" fill="#aaa"/><rect width="0.9615384615384616em" height="8.053865979544788em" x="26.923076923076923em" y="21.94613402045521em" fill="#aaa"/><rect width="0.9615384615384616em" height="6.870011615817886em" x="27.884615384615387em" y="23.129988384182113em" fill="#aaa"/><rect width="0.9615384615384616em" height="5.283635342918318em" x="28.846153846153847em" y="24.716364657081684em" fill="#aaa"/><rect width="0.9615384615384616em" height="2.9093262722214197em" x="29.80769230769231em" y="27.09067372777858em" fill="#aaa"/><rect width="0.9615384615384616em" height="5.347473777239991em" x="30.76923076923077em" y="24.65252622276001em" fill="#aaa"/><rect width="0.9615384615384616em" height="5.574676044692021em" x="31.73076923076923em" y="24.42532395530798em" fill="#aaa"/><rect width="0.9615384615384616em" height="2.4811928388080147em" x="32.69230769230769em" y="27.518807161191987em" fill="#aaa"/><rect width="0.9615384615384616em" height="2.3095161708716274em" x="33.65384615384615em" y="27.69048382912837em" fill="#aaa"/><rect width="0.9615384615384616em" height="3.0589278227526804em" x="34.61538461538461em" y="26.94107217724732em" fill="#aaa"/><rect width="0.9615384615384616em" height="4.115817806069943em" x="35.57692307692308em" y="25.88418219393006em" fill="#aaa"/><rect width="0.9615384615384616em" height="6.107927148384253em" x="36.53846153846154em" y="23.892072851615747em" fill="#aaa"/><rect width="0.9615384615384616em" height="3.731391753361078em" x="37.5em" y="26.268608246638923em" fill="#aaa"/><rect width="0.9615384615384616em" height="3.754505981866015em" x="38.46153846153846em" y="26.245494018133986em" fill="#aaa"/><rect width="0.9615384615384616em" height="12.20607116225717em" x="39.42307692307693em" y="17.793928837742833em" fill="#aaa"/><rect width="0.9615384615384616em" height="30em" x="40.38461538461539em" y="0em" fill="#aaa"/><rect width="0.9615384615384616em" height="16.6524980235354em" x="41.34615384615385em" y="13.3475019764646em" fill="#aaa"/><rect width="0.9615384615384616em" height="21.70907255832963em" x="42.30769230769231em" y="8.29092744167037em" fill="#aaa"/><rect width="0.9615384615384616em" height="6.830088441741423em" x="43.269230769230774em" y="23.169911558258576em" fill="#aaa"/><rect width="0.9615384615384616em" height="3.6441967296721334em" x="44.23076923076923em" y="26.35580327032787em" fill="#aaa"/><rect width="0.9615384615384616em" height="2.2038602886523875em" x="45.19230769230769em" y="27.796139711347614em" fill="#aaa"/><rect width="0.9615384615384616em" height="1.9854221060906065em" x="46.15384615384615em" y="28.014577893909394em" fill="#aaa"/><rect width="0.9615384615384616em" height="1.872957113362322em" x="47.11538461538461em" y="28.12704288663768em" fill="#aaa"/><rect width="0.9615384615384616em" height="0.8506037454709391em" x="48.07692307692308em" y="29.149396254529062em" fill="#aaa"/><rect width="0.9615384615384616em" height="1.1042299364746797em" x="49.03846153846154em" y="28.89577006352532em" fill="#aaa"/><rect width="0.9615384615384616em" height="1.0420263145845479em" x="50em" y="28.957973685415453em" fill="#aaa"/><rect width="0.9615384615384616em" height="1.0300503239467402em" x="50.96153846153846em" y="28.96994967605326em" fill="#aaa"/><rect width="0.9615384615384616em" height="0.5800962078859118em" x="51.92307692307693em" y="29.419903792114088em" fill="#aaa"/><rect width="0.9615384615384616em" height="1.0053461907328687em" x="52.88461538461539em" y="28.99465380926713em" fill="#aaa"/><rect width="0.9615384615384616em" height="0.9351764410250428em" x="53.84615384615385em" y="29.064823558974958em" fill="#aaa"/><rect width="0.9615384615384616em" height="1.7054949571581357em" x="54.80769230769231em" y="28.294505042841863em" fill="#aaa"/><rect width="0.9615384615384616em" height="1.7411590537207946em" x="55.769230769230774em" y="28.258840946279207em" fill="#aaa"/><rect width="0.9615384615384616em" height="2.1992513840051364em" x="56.73076923076923em" y="27.800748615994863em" fill="#aaa"/><rect width="0.9615384615384616em" height="0.960084300775305em" x="57.69230769230769em" y="29.039915699224697em" fill="#aaa"/><rect width="0.9615384615384616em" height="0.44115858599916813em" x="58.65384615384615em" y="29.55884141400083em" fill="#aaa"/><rect width="0.9615384615384616em" height="1.2636421134666478em" x="59.61538461538462em" y="28.73635788653335em" fill="#aaa"/><rect width="0.9615384615384616em" height="0.7772337095375323em" x="60.57692307692308em" y="29.222766290462467em" fill="#aaa"/><rect width="0.9615384615384616em" height="1.648752640768487em" x="61.53846153846154em" y="28.351247359231515em" fill="#aaa"/><rect width="0.9615384615384616em" height="1.0682897800129116em" x="62.5em" y="28.93171021998709em" fill="#aaa"/><rect width="0.9615384615384616em" height="0.7159181460976974em" x="63.46153846153846em" y="29.284081853902304em" fill="#aaa"/><rect width="0.9615384615384616em" height="0.9136038574266281em" x="64.42307692307692em" y="29.08639614257337em" fill="#aaa"/><rect width="0.9615384615384616em" height="0.5496982227494228em" x="65.38461538461539em" y="29.450301777250576em" fill="#aaa"/><rect width="0.9615384615384616em" height="0.5433545588256592em" x="66.34615384615385em" y="29.45664544117434em" fill="#aaa"/><rect width="0.9615384615384616em" height="0.3546206109343769em" x="67.3076923076923em" y="29.645379389065624em" fill="#aaa"/><rect width="0.9615384615384616em" height="0.6988907771810069em" x="68.26923076923077em" y="29.301109222818994em" fill="#aaa"/><rect width="0.9615384615384616em" height="0.33160090172999684em" x="69.23076923076923em" y="29.668399098270005em" fill="#aaa"/><rect width="0.9615384615384616em" height="0.7812049155285147em" x="70.1923076923077em" y="29.218795084471484em" fill="#aaa"/><rect width="0.9615384615384616em" height="0.47654977100138085em" x="71.15384615384616em" y="29.52345022899862em" fill="#aaa"/><rect width="0.9615384615384616em" height="1.6072024522979427em" x="72.11538461538461em" y="28.392797547702056em" fill="#aaa"/><rect width="0.9615384615384616em" height="0.8147873086551154em" x="73.07692307692308em" y="29.185212691344883em" fill="#aaa"/><rect width="0.9615384615384616em" height="0.932391533292032em" x="74.03846153846155em" y="29.067608466707966em" fill="#aaa"/><rect width="0.9615384615384616em" height="0.8548433369199561em" x="75em" y="29.145156663080044em" fill="#aaa"/><rect width="0.9615384615384616em" height="0.7838704196111503em" x="75.96153846153847em" y="29.21612958038885em" fill="#aaa"/><rect width="0.9615384615384616em" height="0.6191788558480685em" x="76.92307692307692em" y="29.38082114415193em" fill="#aaa"/><rect width="0.9615384615384616em" height="0.976978372210502em" x="77.88461538461539em" y="29.023021627789497em" fill="#aaa"/><rect width="0.9615384615384616em" height="0.7403669533757694em" x="78.84615384615385em" y="29.25963304662423em" fill="#aaa"/><rect width="0.9615384615384616em" height="0.6000404915609387em" x="79.8076923076923em" y="29.39995950843906em" fill="#aaa"/><rect width="0.9615384615384616em" height="0.5937741808228599em" x="80.76923076923077em" y="29.40622581917714em" fill="#aaa"/><rect width="0.9615384615384616em" height="0.7654076989759526em" x="81.73076923076923em" y="29.234592301024048em" fill="#aaa"/><rect width="0.9615384615384616em" height="0.5990175057092266em" x="82.6923076923077em" y="29.400982494290773em" fill="#aaa"/><rect width="0.9615384615384616em" height="0.8042582987439871em" x="83.65384615384616em" y="29.19574170125601em" fill="#aaa"/><rect width="0.9615384615384616em" height="0.7851385577558788em" x="84.61538461538461em" y="29.21486144224412em" fill="#aaa"/><rect width="0.9615384615384616em" height="0.37461942021288697em" x="85.57692307692308em" y="29.625380579787112em" fill="#aaa"/><rect width="0.9615384615384616em" height="0.4588255939711239em" x="86.53846153846155em" y="29.541174406028876em" fill="#aaa"/><rect width="0.9615384615384616em" height="0.5861460332454459em" x="87.5em" y="29.413853966754555em" fill="#aaa"/><rect width="0.9615384615384616em" height="0.5652685807207469em" x="88.46153846153847em" y="29.434731419279252em" fill="#aaa"/><rect width="0.9615384615384616em" height="1.0267370979203791em" x="89.42307692307692em" y="28.97326290207962em" fill="#aaa"/><rect width="0.9615384615384616em" height="0.5577401579254191em" x="90.38461538461539em" y="29.44225984207458em" fill="#aaa"/><rect width="0.9615384615384616em" height="0.5208429696142184em" x="91.34615384615385em" y="29.47915703038578em" fill="#aaa"/><rect width="0.9615384615384616em" height="0.5254731091170333em" x="92.3076923076923em" y="29.474526890882967em" fill="#aaa"/><rect width="0.9615384615384616em" height="0.7842474575401415em" x="93.26923076923077em" y="29.21575254245986em" fill="#aaa"/><rect width="0.9615384615384616em" height="0.7704086613025187em" x="94.23076923076923em" y="29.22959133869748em" fill="#aaa"/><rect width="0.9615384615384616em" height="0.5517351117280361em" x="95.1923076923077em" y="29.448264888271964em" fill="#aaa"/><rect width="0.9615384615384616em" height="0.6315414562070616em" x="96.15384615384616em" y="29.36845854379294em" fill="#aaa"/><rect width="0.9615384615384616em" height="0.5416865558162273em" x="97.11538461538461em" y="29.458313444183773em" fill="#aaa"/><rect width="0.9615384615384616em" height="0.7026463484306842em" x="98.07692307692308em" y="29.297353651569317em" fill="#aaa"/><rect width="0.9615384615384616em" height="0.737397132946288em" x="99.03846153846155em" y="29.26260286705371em" fill="#aaa"/></svg>