<?xml version="1.0" standalone="no"?>
<svg xmlns:xlink="http://www.w3.org/1999/xlink" xmlns="http://www.w3.org/2000/svg" class="topic-graph" style="width: 100em; height: 30em; text-align: center;"><rect width="0.9615384615384616em" height="7.7874751375225895em" x="0em" y="22.21252486247741em" fill="#aaa"/><rect width="0.9615384615384616em" height="0.5003820432987358em" x="0.9615384615384616em" y="29.499617956701265em" fill="#aaa"/><rect width="0.9615384615384616em" height="2.2492064933441105em" x="1.9230769230769231em" y="27.75079350665589em" fill="#aaa"/><rect width="0.9615384615384616em" height="6.388671959421648em" x="2.8846153846153846em" y="23.61132804057835em" fill="#aaa"/><rect width="0.9615384615384616em" height="3.6702583540715em" x="3.8461538461538463em" y="26.3297416459285em" fill="#aaa"/><rect width="0.9615384615384616em" height="7.434016937210124em" x="4.8076923076923075em" y="22.565983062789876em" fill="#aaa"/><rect width="0.9615384615384616em" height="12.048008462937565em" x="5.769230769230769em" y="17.951991537062433em" fill="#aaa"/><rect width="0.9615384615384616em" height="3.1114099940851534em" x="6.730769230769231em" y="26.888590005914846em" fill="#aaa"/><rect width="0.9615384615384616em" height="7.180568920583009em" x="7.6923076923076925em" y="22.81943107941699em" fill="#aaa"/><rect width="0.9615384615384616em" height="2.6510787850278716em" x="8.653846153846153em" y="27.34892121497213em" fill="#aaa"/><rect width="0.9615384615384616em" height="18.032849434046543em" x="9.615384615384615em" y="11.967150565953457em" fill="#aaa"/><rect width="0.9615384615384616em" height="2.388481692750824em" x="10.576923076923077em" y="27.611518307249177em" fill="#aaa"/><rect width="0.9615384615384616em" height="0.22651099279563291em" x="11.538461538461538em" y="29.77348900720437em" fill="#aaa"/><rect width="0.9615384615384616em" height="1.4358711460806834em" x="12.5em" y="28.564128853919318em" fill="#aaa"/><rect width="0.9615384615384616em" height="1.5733607415251245em" x="13.461538461538462em" y="28.426639258474875em" fill="#aaa"/><rect width="0.9615384615384616em" height="0.2628688797159178em" x="14.423076923076923em" y="29.737131120284083em" fill="#aaa"/><rect width="0.9615384615384616em" height="1.864777638497202em" x="15.384615384615385em" y="28.135222361502798em" fill="#aaa"/><rect width="0.9615384615384616em" height="5.749606205534207em" x="16.346153846153847em" y="24.250393794465793em" fill="#aaa"/><rect width="0.9615384615384616em" height="4.710151761925362em" x="17.307692307692307em" y="25.28984823807464em" fill="#aaa"/><rect width="0.9615384615384616em" height="5.13570134065564em" x="18.26923076923077em" y="24.86429865934436em" fill="#aaa"/><rect width="0.9615384615384616em" height="10.740784072678297em" x="19.23076923076923em" y="19.259215927321705em" fill="#aaa"/><rect width="0.9615384615384616em" height="6.394923493836755em" x="20.192307692307693em" y="23.605076506163243em" fill="#aaa"/><rect width="0.9615384615384616em" height="0.9156755926503315em" x="21.153846153846153em" y="29.08432440734967em" fill="#aaa"/><rect width="0.9615384615384616em" height="1.4412997026602674em" x="22.115384615384617em" y="28.558700297339733em" fill="#aaa"/><rect width="0.9615384615384616em" height="6.0003318540298em" x="23.076923076923077em" y="23.9996681459702em" fill="#aaa"/><rect width="0.9615384615384616em" height="6.705126805455575em" x="24.03846153846154em" y="23.294873194544426em" fill="#aaa"/><rect width="0.9615384615384616em" height="6.398407936027094em" x="25em" y="23.601592063972905em" fill="#aaa"/><rect width="0.9615384615384616em" height="2.27910127888803em" x="25.961538461538463em" y="27.720898721111972em" fill="#aaa"/><rect width="0.9615384615384616em" height="10.38720903007338em" x="26.923076923076923em" y="19.61279096992662em" fill="#aaa"/><rect width="0.9615384615384616em" height="2.663325431860103em" x="27.884615384615387em" y="27.336674568139898em" fill="#aaa"/><rect width="0.9615384615384616em" height="3.564394288708848em" x="28.846153846153847em" y="26.435605711291153em" fill="#aaa"/><rect width="0.9615384615384616em" height="6.228032835873023em" x="29.80769230769231em" y="23.771967164126977em" fill="#aaa"/><rect width="0.9615384615384616em" height="4.190603162724924em" x="30.76923076923077em" y="25.809396837275077em" fill="#aaa"/><rect width="0.9615384615384616em" height="0.3440336590693291em" x="31.73076923076923em" y="29.65596634093067em" fill="#aaa"/><rect width="0.9615384615384616em" height="3.4278572780377154em" x="32.69230769230769em" y="26.572142721962283em" fill="#aaa"/><rect width="0.9615384615384616em" height="13.260274600960072em" x="33.65384615384615em" y="16.739725399039926em" fill="#aaa"/><rect width="0.9615384615384616em" height="18.175536777649278em" x="34.61538461538461em" y="11.824463222350722em" fill="#aaa"/><rect width="0.9615384615384616em" height="3.3005451026570167em" x="35.57692307692308em" y="26.69945489734298em" fill="#aaa"/><rect width="0.9615384615384616em" height="4.636683434339179em" x="36.53846153846154em" y="25.36331656566082em" fill="#aaa"/><rect width="0.9615384615384616em" height="8.177590174113504em" x="37.5em" y="21.822409825886496em" fill="#aaa"/><rect width="0.9615384615384616em" height="16.225862428263092em" x="38.46153846153846em" y="13.774137571736908em" fill="#aaa"/><rect width="0.9615384615384616em" height="11.331977766014024em" x="39.42307692307693em" y="18.668022233985976em" fill="#aaa"/><rect width="0.9615384615384616em" height="7.071028386689966em" x="40.38461538461539em" y="22.928971613310033em" fill="#aaa"/><rect width="0.9615384615384616em" height="30em" x="41.34615384615385em" y="0em" fill="#aaa"/><rect width="0.9615384615384616em" height="3.287152023350787em" x="42.30769230769231em" y="26.712847976649215em" fill="#aaa"/><rect width="0.9615384615384616em" height="3.2964152229642436em" x="43.269230769230774em" y="26.703584777035758em" fill="#aaa"/><rect width="0.9615384615384616em" height="2.431624573756318em" x="44.23076923076923em" y="27.568375426243684em" fill="#aaa"/><rect width="0.9615384615384616em" height="3.843708910967858em" x="45.19230769230769em" y="26.15629108903214em" fill="#aaa"/><rect width="0.9615384615384616em" height="1.2124152915513em" x="46.15384615384615em" y="28.7875847084487em" fill="#aaa"/><rect width="0.9615384615384616em" height="5.159737598646257em" x="47.11538461538461em" y="24.840262401353744em" fill="#aaa"/><rect width="0.9615384615384616em" height="2.700814554564533em" x="48.07692307692308em" y="27.299185445435466em" fill="#aaa"/><rect width="0.9615384615384616em" height="0.2333272581339903em" x="49.03846153846154em" y="29.76667274186601em" fill="#aaa"/><rect width="0.9615384615384616em" height="1.4114916326920226em" x="50em" y="28.588508367307977em" fill="#aaa"/><rect width="0.9615384615384616em" height="0.3838198883556461em" x="50.96153846153846em" y="29.616180111644354em" fill="#aaa"/><rect width="0.9615384615384616em" height="0.8025526560293953em" x="51.92307692307693em" y="29.197447343970605em" fill="#aaa"/><rect width="0.9615384615384616em" height="1.8917089006199252em" x="52.88461538461539em" y="28.108291099380075em" fill="#aaa"/><rect width="0.9615384615384616em" height="1.3789514554082225em" x="53.84615384615385em" y="28.621048544591776em" fill="#aaa"/><rect width="0.9615384615384616em" height="0.6995541985757368em" x="54.80769230769231em" y="29.300445801424264em" fill="#aaa"/><rect width="0.9615384615384616em" height="1.6994377511230552em" x="55.769230769230774em" y="28.300562248876943em" fill="#aaa"/><rect width="0.9615384615384616em" height="4.067105693112127em" x="56.73076923076923em" y="25.932894306887874em" fill="#aaa"/><rect width="0.9615384615384616em" height="1.2983969408297111em" x="57.69230769230769em" y="28.70160305917029em" fill="#aaa"/><rect width="0.9615384615384616em" height="0.6826889715259883em" x="58.65384615384615em" y="29.317311028474013em" fill="#aaa"/><rect width="0.9615384615384616em" height="2.2638884643195976em" x="59.61538461538462em" y="27.7361115356804em" fill="#aaa"/><rect width="0.9615384615384616em" height="0.31701491522686104em" x="60.57692307692308em" y="29.68298508477314em" fill="#aaa"/><rect width="0.9615384615384616em" height="0.355316068211973em" x="61.53846153846154em" y="29.644683931788027em" fill="#aaa"/><rect width="0.9615384615384616em" height="1.4176020934662812em" x="62.5em" y="28.582397906533718em" fill="#aaa"/><rect width="0.9615384615384616em" height="0.4134158105509213em" x="63.46153846153846em" y="29.586584189449077em" fill="#aaa"/><rect width="0.9615384615384616em" height="0.8798770626121994em" x="64.42307692307692em" y="29.1201229373878em" fill="#aaa"/><rect width="0.9615384615384616em" height="3.0391615482774292em" x="65.38461538461539em" y="26.96083845172257em" fill="#aaa"/><rect width="0.9615384615384616em" height="6.864559249740434em" x="66.34615384615385em" y="23.135440750259566em" fill="#aaa"/><rect width="0.9615384615384616em" height="2.3259492573183316em" x="67.3076923076923em" y="27.67405074268167em" fill="#aaa"/><rect width="0.9615384615384616em" height="0.8160765132702839em" x="68.26923076923077em" y="29.183923486729718em" fill="#aaa"/><rect width="0.9615384615384616em" height="0.862438458343635em" x="69.23076923076923em" y="29.137561541656364em" fill="#aaa"/><rect width="0.9615384615384616em" height="0.9493832523350358em" x="70.1923076923077em" y="29.050616747664964em" fill="#aaa"/><rect width="0.9615384615384616em" height="1.3229807353840008em" x="71.15384615384616em" y="28.677019264616em" fill="#aaa"/><rect width="0.9615384615384616em" height="1.6441826915314834em" x="72.11538461538461em" y="28.355817308468517em" fill="#aaa"/><rect width="0.9615384615384616em" height="1.7465979927879907em" x="73.07692307692308em" y="28.25340200721201em" fill="#aaa"/><rect width="0.9615384615384616em" height="1.3655662593088456em" x="74.03846153846155em" y="28.634433740691154em" fill="#aaa"/><rect width="0.9615384615384616em" height="1.15047605467526em" x="75em" y="28.84952394532474em" fill="#aaa"/><rect width="0.9615384615384616em" height="1.100469826228575em" x="75.96153846153847em" y="28.899530173771424em" fill="#aaa"/><rect width="0.9615384615384616em" height="1.2859303076150914em" x="76.92307692307692em" y="28.714069692384907em" fill="#aaa"/><rect width="0.9615384615384616em" height="2.236331393508635em" x="77.88461538461539em" y="27.763668606491365em" fill="#aaa"/><rect width="0.9615384615384616em" height="1.7540310219630126em" x="78.84615384615385em" y="28.245968978036988em" fill="#aaa"/><rect width="0.9615384615384616em" height="2.3039928354958903em" x="79.8076923076923em" y="27.69600716450411em" fill="#aaa"/><rect width="0.9615384615384616em" height="6.92039961639387em" x="80.76923076923077em" y="23.07960038360613em" fill="#aaa"/><rect width="0.9615384615384616em" height="1.6970471568403414em" x="81.73076923076923em" y="28.30295284315966em" fill="#aaa"/><rect width="0.9615384615384616em" height="0.9272107456029893em" x="82.6923076923077em" y="29.072789254397012em" fill="#aaa"/><rect width="0.9615384615384616em" height="0.3885373839326936em" x="83.65384615384616em" y="29.611462616067307em" fill="#aaa"/><rect width="0.9615384615384616em" height="0.8122653799871833em" x="84.61538461538461em" y="29.187734620012815em" fill="#aaa"/><rect width="0.9615384615384616em" height="0.5662856112860372em" x="85.57692307692308em" y="29.433714388713963em" fill="#aaa"/><rect width="0.9615384615384616em" height="1.5651705707276775em" x="86.53846153846155em" y="28.434829429272323em" fill="#aaa"/><rect width="0.9615384615384616em" height="1.8861286342920636em" x="87.5em" y="28.113871365707936em" fill="#aaa"/><rect width="0.9615384615384616em" height="0.7442965057494515em" x="88.46153846153847em" y="29.255703494250547em" fill="#aaa"/><rect width="0.9615384615384616em" height="3.519517760399174em" x="89.42307692307692em" y="26.480482239600825em" fill="#aaa"/><rect width="0.9615384615384616em" height="9.092686943269811em" x="90.38461538461539em" y="20.90731305673019em" fill="#aaa"/><rect width="0.9615384615384616em" height="2.90290317217877em" x="91.34615384615385em" y="27.09709682782123em" fill="#aaa"/><rect width="0.9615384615384616em" height="4.096435394611094em" x="92.3076923076923em" y="25.903564605388908em" fill="#aaa"/><rect width="0.9615384615384616em" height="4.245682336715589em" x="93.26923076923077em" y="25.75431766328441em" fill="#aaa"/><rect width="0.9615384615384616em" height="10.825040065336879em" x="94.23076923076923em" y="19.17495993466312em" fill="#aaa"/><rect width="0.9615384615384616em" height="6.324382878151251em" x="95.1923076923077em" y="23.67561712184875em" fill="#aaa"/><rect width="0.9615384615384616em" height="7.3896417873360445em" x="96.15384615384616em" y="22.610358212663954em" fill="#aaa"/><rect width="0.9615384615384616em" height="1.2700959618422691em" x="97.11538461538461em" y="28.72990403815773em" fill="#aaa"/><rect width="0.9615384615384616em" height="4.225208210082548em" x="98.07692307692308em" y="25.77479178991745em" fill="#aaa"/><rect width="0.9615384615384616em" height="2.141455633563131em" x="99.03846153846155em" y="27.85854436643687em" fill="#aaa"/></svg>