<?xml version="1.0" standalone="no"?>
<svg xmlns:xlink="http://www.w3.org/1999/xlink" xmlns="http://www.w3.org/2000/svg" class="topic-graph" style="width: 10vw; height: 3em; text-align: center;"><rect width="0.09615384615384616em" height="0.028952543746822282em" x="0vw" y="2.971047456253178em" fill="#aaa"/><rect width="0.09615384615384616em" height="0.05710770834257001em" x="0.09615384615384616vw" y="2.94289229165743em" fill="#aaa"/><rect width="0.09615384615384616em" height="0.04382130404732066em" x="0.19230769230769232vw" y="2.9561786959526795em" fill="#aaa"/><rect width="0.09615384615384616em" height="0.00809750080366431em" x="0.2884615384615385vw" y="2.991902499196336em" fill="#aaa"/><rect width="0.09615384615384616em" height="0.5047417879203074em" x="0.38461538461538464vw" y="2.4952582120796927em" fill="#aaa"/><rect width="0.09615384615384616em" height="0.05180563322622714em" x="0.4807692307692308vw" y="2.9481943667737727em" fill="#aaa"/><rect width="0.09615384615384616em" height="0.0868425863158789em" x="0.576923076923077vw" y="2.913157413684121em" fill="#aaa"/><rect width="0.09615384615384616em" height="0.049629086248469435em" x="0.6730769230769231vw" y="2.9503709137515304em" fill="#aaa"/><rect width="0.09615384615384616em" height="0.047006727346429994em" x="0.7692307692307693vw" y="2.95299327265357em" fill="#aaa"/><rect width="0.09615384615384616em" height="0.06263919676490953em" x="0.8653846153846154vw" y="2.9373608032350904em" fill="#aaa"/><rect width="0.09615384615384616em" height="0.10925648065483021em" x="0.9615384615384616vw" y="2.8907435193451696em" fill="#aaa"/><rect width="0.09615384615384616em" height="0.030953631950755275em" x="1.0576923076923077vw" y="2.969046368049245em" fill="#aaa"/><rect width="0.09615384615384616em" height="0.03768209982835835em" x="1.153846153846154vw" y="2.9623179001716418em" fill="#aaa"/><rect width="0.09615384615384616em" height="0.7496025298343243em" x="1.25vw" y="2.2503974701656757em" fill="#aaa"/><rect width="0.09615384615384616em" height="0.16483573430962753em" x="1.3461538461538463vw" y="2.8351642656903726em" fill="#aaa"/><rect width="0.09615384615384616em" height="0.34308635335566207em" x="1.4423076923076923vw" y="2.656913646644338em" fill="#aaa"/><rect width="0.09615384615384616em" height="0.37497443868432084em" x="1.5384615384615385vw" y="2.625025561315679em" fill="#aaa"/><rect width="0.09615384615384616em" height="0.537009760225774em" x="1.6346153846153848vw" y="2.462990239774226em" fill="#aaa"/><rect width="0.09615384615384616em" height="0.06490434213953719em" x="1.7307692307692308vw" y="2.935095657860463em" fill="#aaa"/><rect width="0.09615384615384616em" height="0.09073994199331892em" x="1.826923076923077vw" y="2.909260058006681em" fill="#aaa"/><rect width="0.09615384615384616em" height="0.05884428084886748em" x="1.9230769230769231vw" y="2.9411557191511326em" fill="#aaa"/><rect width="0.09615384615384616em" height="0.03915803500741197em" x="2.019230769230769vw" y="2.960841964992588em" fill="#aaa"/><rect width="0.09615384615384616em" height="0.11073644254207199em" x="2.1153846153846154vw" y="2.889263557457928em" fill="#aaa"/><rect width="0.09615384615384616em" height="0.10556100885348405em" x="2.2115384615384617vw" y="2.894438991146516em" fill="#aaa"/><rect width="0.09615384615384616em" height="0.10087486667666204em" x="2.307692307692308vw" y="2.899125133323338em" fill="#aaa"/><rect width="0.09615384615384616em" height="0.08897119448930434em" x="2.403846153846154vw" y="2.911028805510696em" fill="#aaa"/><rect width="0.09615384615384616em" height="0.323999054583054em" x="2.5vw" y="2.6760009454169458em" fill="#aaa"/><rect width="0.09615384615384616em" height="0.14740276668373478em" x="2.5961538461538463vw" y="2.8525972333162652em" fill="#aaa"/><rect width="0.09615384615384616em" height="0.04828671593596317em" x="2.6923076923076925vw" y="2.951713284064037em" fill="#aaa"/><rect width="0.09615384615384616em" height="0.09464989203056239em" x="2.7884615384615388vw" y="2.9053501079694377em" fill="#aaa"/><rect width="0.09615384615384616em" height="0.060353936910713404em" x="2.8846153846153846vw" y="2.9396460630892864em" fill="#aaa"/><rect width="0.09615384615384616em" height="0.18941043377828892em" x="2.980769230769231vw" y="2.810589566221711em" fill="#aaa"/><rect width="0.09615384615384616em" height="0.3188046248577878em" x="3.076923076923077vw" y="2.681195375142212em" fill="#aaa"/><rect width="0.09615384615384616em" height="0.046770716823543626em" x="3.1730769230769234vw" y="2.9532292831764564em" fill="#aaa"/><rect width="0.09615384615384616em" height="0.11786802882686165em" x="3.2692307692307696vw" y="2.8821319711731386em" fill="#aaa"/><rect width="0.09615384615384616em" height="0.11129143339050349em" x="3.3653846153846154vw" y="2.8887085666094965em" fill="#aaa"/><rect width="0.09615384615384616em" height="0.060852919899172596em" x="3.4615384615384617vw" y="2.9391470801008275em" fill="#aaa"/><rect width="0.09615384615384616em" height="0.05519963497481409em" x="3.557692307692308vw" y="2.944800365025186em" fill="#aaa"/><rect width="0.09615384615384616em" height="0.07161336979480765em" x="3.653846153846154vw" y="2.928386630205192em" fill="#aaa"/><rect width="0.09615384615384616em" height="0.0480881520673423em" x="3.75vw" y="2.951911847932658em" fill="#aaa"/><rect width="0.09615384615384616em" height="0.48201727690276414em" x="3.8461538461538463vw" y="2.517982723097236em" fill="#aaa"/><rect width="0.09615384615384616em" height="0.09281586263614824em" x="3.9423076923076925vw" y="2.907184137363852em" fill="#aaa"/><rect width="0.09615384615384616em" height="0.12095237123325264em" x="4.038461538461538vw" y="2.8790476287667475em" fill="#aaa"/><rect width="0.09615384615384616em" height="0.04694908828886017em" x="4.134615384615385vw" y="2.9530509117111396em" fill="#aaa"/><rect width="0.09615384615384616em" height="0.1631316089970838em" x="4.230769230769231vw" y="2.836868391002916em" fill="#aaa"/><rect width="0.09615384615384616em" height="0.1767338877610331em" x="4.3269230769230775vw" y="2.823266112238967em" fill="#aaa"/><rect width="0.09615384615384616em" height="0.3010436268242783em" x="4.423076923076923vw" y="2.698956373175722em" fill="#aaa"/><rect width="0.09615384615384616em" height="0.16573130342655007em" x="4.519230769230769vw" y="2.83426869657345em" fill="#aaa"/><rect width="0.09615384615384616em" height="0.10174615224449328em" x="4.615384615384616vw" y="2.8982538477555067em" fill="#aaa"/><rect width="0.09615384615384616em" height="0.11495354671137425em" x="4.711538461538462vw" y="2.8850464532886257em" fill="#aaa"/><rect width="0.09615384615384616em" height="0.2805891427952648em" x="4.807692307692308vw" y="2.719410857204735em" fill="#aaa"/><rect width="0.09615384615384616em" height="0.23530078326656517em" x="4.903846153846154vw" y="2.764699216733435em" fill="#aaa"/><rect width="0.09615384615384616em" height="0.5404316949560404em" x="5vw" y="2.45956830504396em" fill="#aaa"/><rect width="0.09615384615384616em" height="0.6348937912051621em" x="5.096153846153847vw" y="2.365106208794838em" fill="#aaa"/><rect width="0.09615384615384616em" height="0.1724380503925902em" x="5.1923076923076925vw" y="2.82756194960741em" fill="#aaa"/><rect width="0.09615384615384616em" height="0.2193405599201336em" x="5.288461538461538vw" y="2.7806594400798663em" fill="#aaa"/><rect width="0.09615384615384616em" height="0.204115243775858em" x="5.384615384615385vw" y="2.795884756224142em" fill="#aaa"/><rect width="0.09615384615384616em" height="0.4385637639024904em" x="5.480769230769231vw" y="2.5614362360975096em" fill="#aaa"/><rect width="0.09615384615384616em" height="0.2767429591277326em" x="5.5769230769230775vw" y="2.7232570408722676em" fill="#aaa"/><rect width="0.09615384615384616em" height="0.42587980473909337em" x="5.673076923076923vw" y="2.5741201952609067em" fill="#aaa"/><rect width="0.09615384615384616em" height="0.3274993717026213em" x="5.769230769230769vw" y="2.672500628297379em" fill="#aaa"/><rect width="0.09615384615384616em" height="0.2058936600715972em" x="5.865384615384616vw" y="2.794106339928403em" fill="#aaa"/><rect width="0.09615384615384616em" height="0.48099260962096146em" x="5.961538461538462vw" y="2.5190073903790386em" fill="#aaa"/><rect width="0.09615384615384616em" height="0.1408815075936754em" x="6.057692307692308vw" y="2.8591184924063247em" fill="#aaa"/><rect width="0.09615384615384616em" height="0.0866333684858892em" x="6.153846153846154vw" y="2.9133666315141107em" fill="#aaa"/><rect width="0.09615384615384616em" height="0.19948102090782038em" x="6.25vw" y="2.8005189790921796em" fill="#aaa"/><rect width="0.09615384615384616em" height="0.5039622033079457em" x="6.346153846153847vw" y="2.4960377966920544em" fill="#aaa"/><rect width="0.09615384615384616em" height="0.5392792005721034em" x="6.4423076923076925vw" y="2.4607207994278966em" fill="#aaa"/><rect width="0.09615384615384616em" height="0.2986742858675286em" x="6.538461538461539vw" y="2.7013257141324716em" fill="#aaa"/><rect width="0.09615384615384616em" height="0.17789653988564466em" x="6.634615384615385vw" y="2.8221034601143553em" fill="#aaa"/><rect width="0.09615384615384616em" height="0.2908381468399543em" x="6.730769230769231vw" y="2.7091618531600457em" fill="#aaa"/><rect width="0.09615384615384616em" height="0.33144428811278587em" x="6.8269230769230775vw" y="2.668555711887214em" fill="#aaa"/><rect width="0.09615384615384616em" height="0.8246707767285213em" x="6.923076923076923vw" y="2.1753292232714787em" fill="#aaa"/><rect width="0.09615384615384616em" height="0.45550685005502434em" x="7.01923076923077vw" y="2.5444931499449757em" fill="#aaa"/><rect width="0.09615384615384616em" height="0.21981368395490536em" x="7.115384615384616vw" y="2.7801863160450946em" fill="#aaa"/><rect width="0.09615384615384616em" height="0.5749792404892843em" x="7.211538461538462vw" y="2.4250207595107156em" fill="#aaa"/><rect width="0.09615384615384616em" height="0.5598557910567419em" x="7.307692307692308vw" y="2.4401442089432583em" fill="#aaa"/><rect width="0.09615384615384616em" height="0.3452045970173411em" x="7.403846153846154vw" y="2.654795402982659em" fill="#aaa"/><rect width="0.09615384615384616em" height="0.5548563906507475em" x="7.5vw" y="2.4451436093492527em" fill="#aaa"/><rect width="0.09615384615384616em" height="0.28964741912870084em" x="7.596153846153847vw" y="2.710352580871299em" fill="#aaa"/><rect width="0.09615384615384616em" height="0.46379805395495055em" x="7.6923076923076925vw" y="2.5362019460450496em" fill="#aaa"/><rect width="0.09615384615384616em" height="0.5169693223387657em" x="7.788461538461539vw" y="2.483030677661234em" fill="#aaa"/><rect width="0.09615384615384616em" height="0.6965256242187087em" x="7.884615384615385vw" y="2.3034743757812914em" fill="#aaa"/><rect width="0.09615384615384616em" height="0.8671279701186053em" x="7.980769230769231vw" y="2.1328720298813946em" fill="#aaa"/><rect width="0.09615384615384616em" height="0.630942711616267em" x="8.076923076923077vw" y="2.369057288383733em" fill="#aaa"/><rect width="0.09615384615384616em" height="0.8847300827354587em" x="8.173076923076923vw" y="2.1152699172645413em" fill="#aaa"/><rect width="0.09615384615384616em" height="0.723559811899738em" x="8.26923076923077vw" y="2.276440188100262em" fill="#aaa"/><rect width="0.09615384615384616em" height="1.1768944900128808em" x="8.365384615384615vw" y="1.8231055099871192em" fill="#aaa"/><rect width="0.09615384615384616em" height="0.9587065886070073em" x="8.461538461538462vw" y="2.0412934113929926em" fill="#aaa"/><rect width="0.09615384615384616em" height="1.2374017265987627em" x="8.557692307692308vw" y="1.7625982734012373em" fill="#aaa"/><rect width="0.09615384615384616em" height="1.849877899227665em" x="8.653846153846155vw" y="1.150122100772335em" fill="#aaa"/><rect width="0.09615384615384616em" height="0.8888030118619202em" x="8.75vw" y="2.11119698813808em" fill="#aaa"/><rect width="0.09615384615384616em" height="0.6060845328047282em" x="8.846153846153847vw" y="2.3939154671952716em" fill="#aaa"/><rect width="0.09615384615384616em" height="1.6486176465389675em" x="8.942307692307693vw" y="1.3513823534610325em" fill="#aaa"/><rect width="0.09615384615384616em" height="1.4513382954510607em" x="9.038461538461538vw" y="1.5486617045489393em" fill="#aaa"/><rect width="0.09615384615384616em" height="1.8435102299652368em" x="9.134615384615385vw" y="1.1564897700347632em" fill="#aaa"/><rect width="0.09615384615384616em" height="1.2903492326743928em" x="9.230769230769232vw" y="1.7096507673256072em" fill="#aaa"/><rect width="0.09615384615384616em" height="3em" x="9.326923076923077vw" y="0em" fill="#aaa"/><rect width="0.09615384615384616em" height="1.4594776449679507em" x="9.423076923076923vw" y="1.5405223550320493em" fill="#aaa"/><rect width="0.09615384615384616em" height="0.5458834390519154em" x="9.51923076923077vw" y="2.4541165609480844em" fill="#aaa"/><rect width="0.09615384615384616em" height="0.6353065555004089em" x="9.615384615384617vw" y="2.364693444499591em" fill="#aaa"/><rect width="0.09615384615384616em" height="0.6937260115945509em" x="9.711538461538462vw" y="2.306273988405449em" fill="#aaa"/><rect width="0.09615384615384616em" height="0.7970907525391154em" x="9.807692307692308vw" y="2.2029092474608847em" fill="#aaa"/><rect width="0.09615384615384616em" height="0.7997086083274385em" x="9.903846153846155vw" y="2.2002913916725615em" fill="#aaa"/></svg>