<?xml version="1.0" standalone="no"?>
<svg xmlns:xlink="http://www.w3.org/1999/xlink" xmlns="http://www.w3.org/2000/svg" class="topic-graph" style="width: 100em; height: 30em; text-align: center;"><rect width="0.9615384615384616em" height="2.2275873050785173em" x="0em" y="27.77241269492148em" fill="#aaa"/><rect width="0.9615384615384616em" height="8.337222701256973em" x="0.9615384615384616em" y="21.662777298743027em" fill="#aaa"/><rect width="0.9615384615384616em" height="4.026380562096101em" x="1.9230769230769231em" y="25.9736194379039em" fill="#aaa"/><rect width="0.9615384615384616em" height="4.775116126753799em" x="2.8846153846153846em" y="25.2248838732462em" fill="#aaa"/><rect width="0.9615384615384616em" height="3.818492099494276em" x="3.8461538461538463em" y="26.181507900505725em" fill="#aaa"/><rect width="0.9615384615384616em" height="5.968127781401465em" x="4.8076923076923075em" y="24.031872218598537em" fill="#aaa"/><rect width="0.9615384615384616em" height="1.8292237732254795em" x="5.769230769230769em" y="28.17077622677452em" fill="#aaa"/><rect width="0.9615384615384616em" height="3.016318113908073em" x="6.730769230769231em" y="26.983681886091926em" fill="#aaa"/><rect width="0.9615384615384616em" height="6.061711244141328em" x="7.6923076923076925em" y="23.93828875585867em" fill="#aaa"/><rect width="0.9615384615384616em" height="5.507361263633615em" x="8.653846153846153em" y="24.492638736366384em" fill="#aaa"/><rect width="0.9615384615384616em" height="5.322942451130796em" x="9.615384615384615em" y="24.677057548869204em" fill="#aaa"/><rect width="0.9615384615384616em" height="3.7248556965567046em" x="10.576923076923077em" y="26.275144303443295em" fill="#aaa"/><rect width="0.9615384615384616em" height="4.446313964761819em" x="11.538461538461538em" y="25.55368603523818em" fill="#aaa"/><rect width="0.9615384615384616em" height="4.95230043587187em" x="12.5em" y="25.04769956412813em" fill="#aaa"/><rect width="0.9615384615384616em" height="2.367012523229949em" x="13.461538461538462em" y="27.63298747677005em" fill="#aaa"/><rect width="0.9615384615384616em" height="2.504138307679839em" x="14.423076923076923em" y="27.49586169232016em" fill="#aaa"/><rect width="0.9615384615384616em" height="4.826601695897653em" x="15.384615384615385em" y="25.173398304102346em" fill="#aaa"/><rect width="0.9615384615384616em" height="9.784898612676617em" x="16.346153846153847em" y="20.215101387323383em" fill="#aaa"/><rect width="0.9615384615384616em" height="4.308259071897726em" x="17.307692307692307em" y="25.691740928102274em" fill="#aaa"/><rect width="0.9615384615384616em" height="4.1585473521228495em" x="18.26923076923077em" y="25.84145264787715em" fill="#aaa"/><rect width="0.9615384615384616em" height="3.6990188923083283em" x="19.23076923076923em" y="26.300981107691673em" fill="#aaa"/><rect width="0.9615384615384616em" height="5.9372336991920465em" x="20.192307692307693em" y="24.062766300807954em" fill="#aaa"/><rect width="0.9615384615384616em" height="8.991600177187426em" x="21.153846153846153em" y="21.008399822812574em" fill="#aaa"/><rect width="0.9615384615384616em" height="3.5613648886897993em" x="22.115384615384617em" y="26.4386351113102em" fill="#aaa"/><rect width="0.9615384615384616em" height="5.279148510156174em" x="23.076923076923077em" y="24.720851489843824em" fill="#aaa"/><rect width="0.9615384615384616em" height="5.708273092608337em" x="24.03846153846154em" y="24.291726907391663em" fill="#aaa"/><rect width="0.9615384615384616em" height="5.648788390870909em" x="25em" y="24.35121160912909em" fill="#aaa"/><rect width="0.9615384615384616em" height="7.005563782368118em" x="25.961538461538463em" y="22.994436217631883em" fill="#aaa"/><rect width="0.9615384615384616em" height="5.802678169869022em" x="26.923076923076923em" y="24.197321830130978em" fill="#aaa"/><rect width="0.9615384615384616em" height="5.652792109574908em" x="27.884615384615387em" y="24.347207890425093em" fill="#aaa"/><rect width="0.9615384615384616em" height="8.110241718117127em" x="28.846153846153847em" y="21.889758281882873em" fill="#aaa"/><rect width="0.9615384615384616em" height="4.624283355076047em" x="29.80769230769231em" y="25.375716644923955em" fill="#aaa"/><rect width="0.9615384615384616em" height="5.382300115267333em" x="30.76923076923077em" y="24.617699884732666em" fill="#aaa"/><rect width="0.9615384615384616em" height="7.216971725029483em" x="31.73076923076923em" y="22.78302827497052em" fill="#aaa"/><rect width="0.9615384615384616em" height="6.218262439212922em" x="32.69230769230769em" y="23.78173756078708em" fill="#aaa"/><rect width="0.9615384615384616em" height="4.701288887725961em" x="33.65384615384615em" y="25.298711112274038em" fill="#aaa"/><rect width="0.9615384615384616em" height="5.768222550131423em" x="34.61538461538461em" y="24.231777449868577em" fill="#aaa"/><rect width="0.9615384615384616em" height="7.139026242259793em" x="35.57692307692308em" y="22.860973757740208em" fill="#aaa"/><rect width="0.9615384615384616em" height="3.6023220605381168em" x="36.53846153846154em" y="26.397677939461882em" fill="#aaa"/><rect width="0.9615384615384616em" height="5.22076956127529em" x="37.5em" y="24.77923043872471em" fill="#aaa"/><rect width="0.9615384615384616em" height="6.765067686035736em" x="38.46153846153846em" y="23.234932313964265em" fill="#aaa"/><rect width="0.9615384615384616em" height="4.722295303252888em" x="39.42307692307693em" y="25.27770469674711em" fill="#aaa"/><rect width="0.9615384615384616em" height="3.7316262428671902em" x="40.38461538461539em" y="26.26837375713281em" fill="#aaa"/><rect width="0.9615384615384616em" height="5.782476135669894em" x="41.34615384615385em" y="24.217523864330104em" fill="#aaa"/><rect width="0.9615384615384616em" height="8.456247243716481em" x="42.30769230769231em" y="21.543752756283517em" fill="#aaa"/><rect width="0.9615384615384616em" height="5.156170426127726em" x="43.269230769230774em" y="24.843829573872274em" fill="#aaa"/><rect width="0.9615384615384616em" height="9.946506024293162em" x="44.23076923076923em" y="20.053493975706836em" fill="#aaa"/><rect width="0.9615384615384616em" height="9.640699169511475em" x="45.19230769230769em" y="20.359300830488525em" fill="#aaa"/><rect width="0.9615384615384616em" height="7.1524421029739615em" x="46.15384615384615em" y="22.84755789702604em" fill="#aaa"/><rect width="0.9615384615384616em" height="8.44747976881048em" x="47.11538461538461em" y="21.55252023118952em" fill="#aaa"/><rect width="0.9615384615384616em" height="8.646176023065275em" x="48.07692307692308em" y="21.353823976934727em" fill="#aaa"/><rect width="0.9615384615384616em" height="6.392979138033782em" x="49.03846153846154em" y="23.60702086196622em" fill="#aaa"/><rect width="0.9615384615384616em" height="11.256867797333546em" x="50em" y="18.74313220266645em" fill="#aaa"/><rect width="0.9615384615384616em" height="11.530065764422226em" x="50.96153846153846em" y="18.469934235577774em" fill="#aaa"/><rect width="0.9615384615384616em" height="6.7750060376368415em" x="51.92307692307693em" y="23.224993962363158em" fill="#aaa"/><rect width="0.9615384615384616em" height="9.984696292201273em" x="52.88461538461539em" y="20.01530370779873em" fill="#aaa"/><rect width="0.9615384615384616em" height="12.454307919486196em" x="53.84615384615385em" y="17.545692080513803em" fill="#aaa"/><rect width="0.9615384615384616em" height="10.911410687580315em" x="54.80769230769231em" y="19.088589312419685em" fill="#aaa"/><rect width="0.9615384615384616em" height="7.062122939827378em" x="55.769230769230774em" y="22.93787706017262em" fill="#aaa"/><rect width="0.9615384615384616em" height="15.390447189587277em" x="56.73076923076923em" y="14.609552810412723em" fill="#aaa"/><rect width="0.9615384615384616em" height="16.397999379289487em" x="57.69230769230769em" y="13.602000620710513em" fill="#aaa"/><rect width="0.9615384615384616em" height="13.874131319714374em" x="58.65384615384615em" y="16.125868680285627em" fill="#aaa"/><rect width="0.9615384615384616em" height="9.320867313286941em" x="59.61538461538462em" y="20.67913268671306em" fill="#aaa"/><rect width="0.9615384615384616em" height="19.337409652514996em" x="60.57692307692308em" y="10.662590347485004em" fill="#aaa"/><rect width="0.9615384615384616em" height="13.568823253380264em" x="61.53846153846154em" y="16.431176746619734em" fill="#aaa"/><rect width="0.9615384615384616em" height="17.017880184222612em" x="62.5em" y="12.982119815777388em" fill="#aaa"/><rect width="0.9615384615384616em" height="15.11173372803963em" x="63.46153846153846em" y="14.88826627196037em" fill="#aaa"/><rect width="0.9615384615384616em" height="13.896950632184843em" x="64.42307692307692em" y="16.103049367815157em" fill="#aaa"/><rect width="0.9615384615384616em" height="15.357487363330836em" x="65.38461538461539em" y="14.642512636669164em" fill="#aaa"/><rect width="0.9615384615384616em" height="13.423601368499433em" x="66.34615384615385em" y="16.576398631500567em" fill="#aaa"/><rect width="0.9615384615384616em" height="17.35931624564011em" x="67.3076923076923em" y="12.640683754359891em" fill="#aaa"/><rect width="0.9615384615384616em" height="21.89566026817329em" x="68.26923076923077em" y="8.104339731826709em" fill="#aaa"/><rect width="0.9615384615384616em" height="30em" x="69.23076923076923em" y="0em" fill="#aaa"/><rect width="0.9615384615384616em" height="16.998472253107238em" x="70.1923076923077em" y="13.001527746892762em" fill="#aaa"/><rect width="0.9615384615384616em" height="21.728530053466063em" x="71.15384615384616em" y="8.271469946533937em" fill="#aaa"/><rect width="0.9615384615384616em" height="16.90890587424784em" x="72.11538461538461em" y="13.09109412575216em" fill="#aaa"/><rect width="0.9615384615384616em" height="23.540898831437207em" x="73.07692307692308em" y="6.459101168562793em" fill="#aaa"/><rect width="0.9615384615384616em" height="16.6993308002398em" x="74.03846153846155em" y="13.3006691997602em" fill="#aaa"/><rect width="0.9615384615384616em" height="20.181382094477975em" x="75em" y="9.818617905522025em" fill="#aaa"/><rect width="0.9615384615384616em" height="13.857438910420997em" x="75.96153846153847em" y="16.142561089579004em" fill="#aaa"/><rect width="0.9615384615384616em" height="17.80471152576454em" x="76.92307692307692em" y="12.195288474235461em" fill="#aaa"/><rect width="0.9615384615384616em" height="21.996699242213772em" x="77.88461538461539em" y="8.003300757786228em" fill="#aaa"/><rect width="0.9615384615384616em" height="15.617199263192486em" x="78.84615384615385em" y="14.382800736807514em" fill="#aaa"/><rect width="0.9615384615384616em" height="15.208483362183982em" x="79.8076923076923em" y="14.791516637816018em" fill="#aaa"/><rect width="0.9615384615384616em" height="18.165280650846864em" x="80.76923076923077em" y="11.834719349153136em" fill="#aaa"/><rect width="0.9615384615384616em" height="18.24952862198214em" x="81.73076923076923em" y="11.75047137801786em" fill="#aaa"/><rect width="0.9615384615384616em" height="25.751349645871176em" x="82.6923076923077em" y="4.248650354128824em" fill="#aaa"/><rect width="0.9615384615384616em" height="21.30275063248524em" x="83.65384615384616em" y="8.697249367514761em" fill="#aaa"/><rect width="0.9615384615384616em" height="22.435525043767953em" x="84.61538461538461em" y="7.564474956232047em" fill="#aaa"/><rect width="0.9615384615384616em" height="23.851149433341394em" x="85.57692307692308em" y="6.148850566658606em" fill="#aaa"/><rect width="0.9615384615384616em" height="21.366891723529058em" x="86.53846153846155em" y="8.633108276470942em" fill="#aaa"/><rect width="0.9615384615384616em" height="17.158446041872583em" x="87.5em" y="12.841553958127417em" fill="#aaa"/><rect width="0.9615384615384616em" height="18.084230295247316em" x="88.46153846153847em" y="11.915769704752684em" fill="#aaa"/><rect width="0.9615384615384616em" height="23.21709305900012em" x="89.42307692307692em" y="6.7829069409998795em" fill="#aaa"/><rect width="0.9615384615384616em" height="24.90346406433568em" x="90.38461538461539em" y="5.0965359356643205em" fill="#aaa"/><rect width="0.9615384615384616em" height="18.57787193218857em" x="91.34615384615385em" y="11.422128067811428em" fill="#aaa"/><rect width="0.9615384615384616em" height="16.66977166203449em" x="92.3076923076923em" y="13.330228337965512em" fill="#aaa"/><rect width="0.9615384615384616em" height="15.918364633497484em" x="93.26923076923077em" y="14.081635366502516em" fill="#aaa"/><rect width="0.9615384615384616em" height="18.265639029650536em" x="94.23076923076923em" y="11.734360970349464em" fill="#aaa"/><rect width="0.9615384615384616em" height="18.26677542937037em" x="95.1923076923077em" y="11.73322457062963em" fill="#aaa"/><rect width="0.9615384615384616em" height="13.095708133217105em" x="96.15384615384616em" y="16.904291866782895em" fill="#aaa"/><rect width="0.9615384615384616em" height="13.016034882495257em" x="97.11538461538461em" y="16.983965117504745em" fill="#aaa"/><rect width="0.9615384615384616em" height="12.793378451264767em" x="98.07692307692308em" y="17.206621548735235em" fill="#aaa"/><rect width="0.9615384615384616em" height="12.431291740414341em" x="99.03846153846155em" y="17.56870825958566em" fill="#aaa"/></svg>