<?xml version="1.0" standalone="no"?>
<svg xmlns:xlink="http://www.w3.org/1999/xlink" xmlns="http://www.w3.org/2000/svg" class="topic-graph" style="width: 100em; height: 30em; text-align: center;"><rect width="0.9615384615384616em" height="0.3264474598380909em" x="0em" y="29.67355254016191em" fill="#aaa"/><rect width="0.9615384615384616em" height="7.739278483582953em" x="0.9615384615384616em" y="22.260721516417046em" fill="#aaa"/><rect width="0.9615384615384616em" height="0.21351663975265786em" x="1.9230769230769231em" y="29.786483360247342em" fill="#aaa"/><rect width="0.9615384615384616em" height="0.09130142731183141em" x="2.8846153846153846em" y="29.90869857268817em" fill="#aaa"/><rect width="0.9615384615384616em" height="0.8621358665550095em" x="3.8461538461538463em" y="29.13786413344499em" fill="#aaa"/><rect width="0.9615384615384616em" height="0.26960643266059725em" x="4.8076923076923075em" y="29.7303935673394em" fill="#aaa"/><rect width="0.9615384615384616em" height="0.2739728298557718em" x="5.769230769230769em" y="29.726027170144228em" fill="#aaa"/><rect width="0.9615384615384616em" height="0.17524296546130683em" x="6.730769230769231em" y="29.824757034538692em" fill="#aaa"/><rect width="0.9615384615384616em" height="1.0030245690312631em" x="7.6923076923076925em" y="28.996975430968735em" fill="#aaa"/><rect width="0.9615384615384616em" height="0.5354812063659454em" x="8.653846153846153em" y="29.464518793634056em" fill="#aaa"/><rect width="0.9615384615384616em" height="0.800986141648073em" x="9.615384615384615em" y="29.199013858351925em" fill="#aaa"/><rect width="0.9615384615384616em" height="1.4036406195063051em" x="10.576923076923077em" y="28.596359380493695em" fill="#aaa"/><rect width="0.9615384615384616em" height="1.267679576083588em" x="11.538461538461538em" y="28.732320423916413em" fill="#aaa"/><rect width="0.9615384615384616em" height="0.4699811052079774em" x="12.5em" y="29.530018894792022em" fill="#aaa"/><rect width="0.9615384615384616em" height="0.42461624767451844em" x="13.461538461538462em" y="29.575383752325482em" fill="#aaa"/><rect width="0.9615384615384616em" height="0.3768346120007061em" x="14.423076923076923em" y="29.623165387999293em" fill="#aaa"/><rect width="0.9615384615384616em" height="0.41529395123405555em" x="15.384615384615385em" y="29.584706048765945em" fill="#aaa"/><rect width="0.9615384615384616em" height="0.20131769715602935em" x="16.346153846153847em" y="29.79868230284397em" fill="#aaa"/><rect width="0.9615384615384616em" height="0.4762073536644284em" x="17.307692307692307em" y="29.523792646335572em" fill="#aaa"/><rect width="0.9615384615384616em" height="0.2533622210578707em" x="18.26923076923077em" y="29.74663777894213em" fill="#aaa"/><rect width="0.9615384615384616em" height="0.314358721282287em" x="19.23076923076923em" y="29.685641278717714em" fill="#aaa"/><rect width="0.9615384615384616em" height="0.1531178094634981em" x="20.192307692307693em" y="29.8468821905365em" fill="#aaa"/><rect width="0.9615384615384616em" height="0.15778032300589298em" x="21.153846153846153em" y="29.842219676994105em" fill="#aaa"/><rect width="0.9615384615384616em" height="0.7831590888983978em" x="22.115384615384617em" y="29.216840911101603em" fill="#aaa"/><rect width="0.9615384615384616em" height="0.22643944805667346em" x="23.076923076923077em" y="29.773560551943326em" fill="#aaa"/><rect width="0.9615384615384616em" height="0.48351383214783505em" x="24.03846153846154em" y="29.516486167852165em" fill="#aaa"/><rect width="0.9615384615384616em" height="0.7874409171338481em" x="25em" y="29.21255908286615em" fill="#aaa"/><rect width="0.9615384615384616em" height="0.2428138414334692em" x="25.961538461538463em" y="29.75718615856653em" fill="#aaa"/><rect width="0.9615384615384616em" height="0.6179215759233173em" x="26.923076923076923em" y="29.38207842407668em" fill="#aaa"/><rect width="0.9615384615384616em" height="0.9027578152192745em" x="27.884615384615387em" y="29.097242184780725em" fill="#aaa"/><rect width="0.9615384615384616em" height="0.7530337466454409em" x="28.846153846153847em" y="29.246966253354557em" fill="#aaa"/><rect width="0.9615384615384616em" height="0.7171862418774657em" x="29.80769230769231em" y="29.282813758122533em" fill="#aaa"/><rect width="0.9615384615384616em" height="0.29353040383501394em" x="30.76923076923077em" y="29.706469596164986em" fill="#aaa"/><rect width="0.9615384615384616em" height="0.26063196488657364em" x="31.73076923076923em" y="29.739368035113426em" fill="#aaa"/><rect width="0.9615384615384616em" height="0.39788432171967747em" x="32.69230769230769em" y="29.602115678280324em" fill="#aaa"/><rect width="0.9615384615384616em" height="1.7880017227859355em" x="33.65384615384615em" y="28.211998277214065em" fill="#aaa"/><rect width="0.9615384615384616em" height="0.8394604033362846em" x="34.61538461538461em" y="29.160539596663714em" fill="#aaa"/><rect width="0.9615384615384616em" height="0.5921552080891063em" x="35.57692307692308em" y="29.407844791910893em" fill="#aaa"/><rect width="0.9615384615384616em" height="0.458098947313463em" x="36.53846153846154em" y="29.541901052686537em" fill="#aaa"/><rect width="0.9615384615384616em" height="0.3357794145785797em" x="37.5em" y="29.664220585421422em" fill="#aaa"/><rect width="0.9615384615384616em" height="0.5134564067430487em" x="38.46153846153846em" y="29.48654359325695em" fill="#aaa"/><rect width="0.9615384615384616em" height="1.7592662420420746em" x="39.42307692307693em" y="28.240733757957926em" fill="#aaa"/><rect width="0.9615384615384616em" height="0.4720136506354562em" x="40.38461538461539em" y="29.527986349364543em" fill="#aaa"/><rect width="0.9615384615384616em" height="3.4713968361584437em" x="41.34615384615385em" y="26.528603163841556em" fill="#aaa"/><rect width="0.9615384615384616em" height="0.4563960130107566em" x="42.30769230769231em" y="29.543603986989243em" fill="#aaa"/><rect width="0.9615384615384616em" height="0.938810277357771em" x="43.269230769230774em" y="29.06118972264223em" fill="#aaa"/><rect width="0.9615384615384616em" height="0.2886994345395431em" x="44.23076923076923em" y="29.71130056546046em" fill="#aaa"/><rect width="0.9615384615384616em" height="0.9661718559789559em" x="45.19230769230769em" y="29.033828144021044em" fill="#aaa"/><rect width="0.9615384615384616em" height="1.019264971743365em" x="46.15384615384615em" y="28.980735028256635em" fill="#aaa"/><rect width="0.9615384615384616em" height="0.5254684392593902em" x="47.11538461538461em" y="29.47453156074061em" fill="#aaa"/><rect width="0.9615384615384616em" height="2.7856886226997917em" x="48.07692307692308em" y="27.21431137730021em" fill="#aaa"/><rect width="0.9615384615384616em" height="2.026877610638871em" x="49.03846153846154em" y="27.97312238936113em" fill="#aaa"/><rect width="0.9615384615384616em" height="4.932728316963131em" x="50em" y="25.067271683036868em" fill="#aaa"/><rect width="0.9615384615384616em" height="5.346906894554195em" x="50.96153846153846em" y="24.653093105445805em" fill="#aaa"/><rect width="0.9615384615384616em" height="8.489914163867672em" x="51.92307692307693em" y="21.510085836132326em" fill="#aaa"/><rect width="0.9615384615384616em" height="5.179531061690338em" x="52.88461538461539em" y="24.820468938309663em" fill="#aaa"/><rect width="0.9615384615384616em" height="5.656154337024064em" x="53.84615384615385em" y="24.343845662975937em" fill="#aaa"/><rect width="0.9615384615384616em" height="6.106803013409576em" x="54.80769230769231em" y="23.893196986590425em" fill="#aaa"/><rect width="0.9615384615384616em" height="6.711036756150791em" x="55.769230769230774em" y="23.28896324384921em" fill="#aaa"/><rect width="0.9615384615384616em" height="3.469411800475326em" x="56.73076923076923em" y="26.530588199524672em" fill="#aaa"/><rect width="0.9615384615384616em" height="1.6905998395772202em" x="57.69230769230769em" y="28.30940016042278em" fill="#aaa"/><rect width="0.9615384615384616em" height="1.5945899455126578em" x="58.65384615384615em" y="28.40541005448734em" fill="#aaa"/><rect width="0.9615384615384616em" height="2.5737291352087257em" x="59.61538461538462em" y="27.426270864791274em" fill="#aaa"/><rect width="0.9615384615384616em" height="10.587072663310746em" x="60.57692307692308em" y="19.412927336689254em" fill="#aaa"/><rect width="0.9615384615384616em" height="8.01674733847515em" x="61.53846153846154em" y="21.98325266152485em" fill="#aaa"/><rect width="0.9615384615384616em" height="10.988887930977098em" x="62.5em" y="19.0111120690229em" fill="#aaa"/><rect width="0.9615384615384616em" height="12.132395990122273em" x="63.46153846153846em" y="17.867604009877727em" fill="#aaa"/><rect width="0.9615384615384616em" height="5.8197455640787314em" x="64.42307692307692em" y="24.18025443592127em" fill="#aaa"/><rect width="0.9615384615384616em" height="14.425608553896915em" x="65.38461538461539em" y="15.574391446103085em" fill="#aaa"/><rect width="0.9615384615384616em" height="10.621943341960062em" x="66.34615384615385em" y="19.378056658039938em" fill="#aaa"/><rect width="0.9615384615384616em" height="12.07057394277189em" x="67.3076923076923em" y="17.92942605722811em" fill="#aaa"/><rect width="0.9615384615384616em" height="12.531721817611109em" x="68.26923076923077em" y="17.468278182388893em" fill="#aaa"/><rect width="0.9615384615384616em" height="11.407035915432987em" x="69.23076923076923em" y="18.592964084567015em" fill="#aaa"/><rect width="0.9615384615384616em" height="10.03793477234284em" x="70.1923076923077em" y="19.96206522765716em" fill="#aaa"/><rect width="0.9615384615384616em" height="5.481834213804765em" x="71.15384615384616em" y="24.518165786195233em" fill="#aaa"/><rect width="0.9615384615384616em" height="8.165243763151548em" x="72.11538461538461em" y="21.834756236848452em" fill="#aaa"/><rect width="0.9615384615384616em" height="11.413897261377429em" x="73.07692307692308em" y="18.58610273862257em" fill="#aaa"/><rect width="0.9615384615384616em" height="10.75440246572785em" x="74.03846153846155em" y="19.24559753427215em" fill="#aaa"/><rect width="0.9615384615384616em" height="10.286531970366504em" x="75em" y="19.713468029633496em" fill="#aaa"/><rect width="0.9615384615384616em" height="12.87903466477643em" x="75.96153846153847em" y="17.12096533522357em" fill="#aaa"/><rect width="0.9615384615384616em" height="10.432025172437527em" x="76.92307692307692em" y="19.567974827562473em" fill="#aaa"/><rect width="0.9615384615384616em" height="17.4700316667557em" x="77.88461538461539em" y="12.529968333244302em" fill="#aaa"/><rect width="0.9615384615384616em" height="17.927822284511326em" x="78.84615384615385em" y="12.072177715488674em" fill="#aaa"/><rect width="0.9615384615384616em" height="12.014702734526137em" x="79.8076923076923em" y="17.98529726547386em" fill="#aaa"/><rect width="0.9615384615384616em" height="15.379933946399929em" x="80.76923076923077em" y="14.620066053600071em" fill="#aaa"/><rect width="0.9615384615384616em" height="12.40012465954187em" x="81.73076923076923em" y="17.59987534045813em" fill="#aaa"/><rect width="0.9615384615384616em" height="20.29877495722979em" x="82.6923076923077em" y="9.701225042770211em" fill="#aaa"/><rect width="0.9615384615384616em" height="18.084581820007994em" x="83.65384615384616em" y="11.915418179992006em" fill="#aaa"/><rect width="0.9615384615384616em" height="10.086386266836715em" x="84.61538461538461em" y="19.913613733163285em" fill="#aaa"/><rect width="0.9615384615384616em" height="10.271369540488934em" x="85.57692307692308em" y="19.728630459511066em" fill="#aaa"/><rect width="0.9615384615384616em" height="17.79238835618432em" x="86.53846153846155em" y="12.207611643815682em" fill="#aaa"/><rect width="0.9615384615384616em" height="20.837775600062784em" x="87.5em" y="9.162224399937216em" fill="#aaa"/><rect width="0.9615384615384616em" height="23.240656880641758em" x="88.46153846153847em" y="6.759343119358242em" fill="#aaa"/><rect width="0.9615384615384616em" height="17.50644101210555em" x="89.42307692307692em" y="12.493558987894449em" fill="#aaa"/><rect width="0.9615384615384616em" height="22.12233265540717em" x="90.38461538461539em" y="7.87766734459283em" fill="#aaa"/><rect width="0.9615384615384616em" height="30em" x="91.34615384615385em" y="0em" fill="#aaa"/><rect width="0.9615384615384616em" height="19.704639984772264em" x="92.3076923076923em" y="10.295360015227736em" fill="#aaa"/><rect width="0.9615384615384616em" height="21.36183782815509em" x="93.26923076923077em" y="8.638162171844911em" fill="#aaa"/><rect width="0.9615384615384616em" height="25.53155878763665em" x="94.23076923076923em" y="4.468441212363349em" fill="#aaa"/><rect width="0.9615384615384616em" height="18.742024026744627em" x="95.1923076923077em" y="11.257975973255373em" fill="#aaa"/><rect width="0.9615384615384616em" height="16.955132695855745em" x="96.15384615384616em" y="13.044867304144255em" fill="#aaa"/><rect width="0.9615384615384616em" height="13.958954251364942em" x="97.11538461538461em" y="16.041045748635057em" fill="#aaa"/><rect width="0.9615384615384616em" height="14.767230647491335em" x="98.07692307692308em" y="15.232769352508665em" fill="#aaa"/><rect width="0.9615384615384616em" height="11.859821921320417em" x="99.03846153846155em" y="18.140178078679583em" fill="#aaa"/></svg>