<?xml version="1.0" standalone="no"?>
<svg xmlns:xlink="http://www.w3.org/1999/xlink" xmlns="http://www.w3.org/2000/svg" class="topic-graph" style="width: 10vw; height: 3em; text-align: center;"><rect width="0.09615384615384616em" height="0.10851481191898742em" x="0vw" y="2.8914851880810124em" fill="#aaa"/><rect width="0.09615384615384616em" height="0.14677498761114469em" x="0.09615384615384616vw" y="2.8532250123888554em" fill="#aaa"/><rect width="0.09615384615384616em" height="0.3218699918277588em" x="0.19230769230769232vw" y="2.678130008172241em" fill="#aaa"/><rect width="0.09615384615384616em" height="0.19324397853215042em" x="0.2884615384615385vw" y="2.8067560214678497em" fill="#aaa"/><rect width="0.09615384615384616em" height="0.04706160713544983em" x="0.38461538461538464vw" y="2.9529383928645503em" fill="#aaa"/><rect width="0.09615384615384616em" height="1.0009484759354212em" x="0.4807692307692308vw" y="1.9990515240645788em" fill="#aaa"/><rect width="0.09615384615384616em" height="0.2609500515702118em" x="0.576923076923077vw" y="2.739049948429788em" fill="#aaa"/><rect width="0.09615384615384616em" height="1.1820950447745513em" x="0.6730769230769231vw" y="1.8179049552254487em" fill="#aaa"/><rect width="0.09615384615384616em" height="0.39267803602888784em" x="0.7692307692307693vw" y="2.607321963971112em" fill="#aaa"/><rect width="0.09615384615384616em" height="0.6771537729298336em" x="0.8653846153846154vw" y="2.3228462270701664em" fill="#aaa"/><rect width="0.09615384615384616em" height="0.07726509674871701em" x="0.9615384615384616vw" y="2.922734903251283em" fill="#aaa"/><rect width="0.09615384615384616em" height="1.5415500712898274em" x="1.0576923076923077vw" y="1.4584499287101726em" fill="#aaa"/><rect width="0.09615384615384616em" height="0.7603314554267517em" x="1.153846153846154vw" y="2.2396685445732483em" fill="#aaa"/><rect width="0.09615384615384616em" height="0.36938219664150257em" x="1.25vw" y="2.6306178033584975em" fill="#aaa"/><rect width="0.09615384615384616em" height="0.012430218000614167em" x="1.3461538461538463vw" y="2.987569781999386em" fill="#aaa"/><rect width="0.09615384615384616em" height="0.1721851558407485em" x="1.4423076923076923vw" y="2.8278148441592514em" fill="#aaa"/><rect width="0.09615384615384616em" height="0.3328902644174298em" x="1.5384615384615385vw" y="2.6671097355825704em" fill="#aaa"/><rect width="0.09615384615384616em" height="0.3253854430770084em" x="1.6346153846153848vw" y="2.6746145569229918em" fill="#aaa"/><rect width="0.09615384615384616em" height="1.5899187478269383em" x="1.7307692307692308vw" y="1.4100812521730617em" fill="#aaa"/><rect width="0.09615384615384616em" height="0.16587761423855638em" x="1.826923076923077vw" y="2.8341223857614435em" fill="#aaa"/><rect width="0.09615384615384616em" height="0.331249217414858em" x="1.9230769230769231vw" y="2.6687507825851418em" fill="#aaa"/><rect width="0.09615384615384616em" height="0.7163661906041486em" x="2.019230769230769vw" y="2.2836338093958513em" fill="#aaa"/><rect width="0.09615384615384616em" height="2.095034764012734em" x="2.1153846153846154vw" y="0.904965235987266em" fill="#aaa"/><rect width="0.09615384615384616em" height="3em" x="2.2115384615384617vw" y="0em" fill="#aaa"/><rect width="0.09615384615384616em" height="1.3334426453130184em" x="2.307692307692308vw" y="1.6665573546869816em" fill="#aaa"/><rect width="0.09615384615384616em" height="0.4264563435740549em" x="2.403846153846154vw" y="2.573543656425945em" fill="#aaa"/><rect width="0.09615384615384616em" height="0.14957100043962857em" x="2.5vw" y="2.8504289995603713em" fill="#aaa"/><rect width="0.09615384615384616em" height="0.0692597473897905em" x="2.5961538461538463vw" y="2.9307402526102093em" fill="#aaa"/><rect width="0.09615384615384616em" height="0.1374421759517539em" x="2.6923076923076925vw" y="2.8625578240482463em" fill="#aaa"/><rect width="0.09615384615384616em" height="0.2423332426485371em" x="2.7884615384615388vw" y="2.757666757351463em" fill="#aaa"/><rect width="0.09615384615384616em" height="0.13544505328236814em" x="2.8846153846153846vw" y="2.864554946717632em" fill="#aaa"/><rect width="0.09615384615384616em" height="0.09371690310506313em" x="2.980769230769231vw" y="2.9062830968949367em" fill="#aaa"/><rect width="0.09615384615384616em" height="0.16778379323587833em" x="3.076923076923077vw" y="2.8322162067641217em" fill="#aaa"/><rect width="0.09615384615384616em" height="0.14502754439043605em" x="3.1730769230769234vw" y="2.854972455609564em" fill="#aaa"/><rect width="0.09615384615384616em" height="0.30713551698746944em" x="3.2692307692307696vw" y="2.6928644830125306em" fill="#aaa"/><rect width="0.09615384615384616em" height="0.28318636718295065em" x="3.3653846153846154vw" y="2.7168136328170496em" fill="#aaa"/><rect width="0.09615384615384616em" height="0.7191304869802508em" x="3.4615384615384617vw" y="2.2808695130197494em" fill="#aaa"/><rect width="0.09615384615384616em" height="1.471254533576167em" x="3.557692307692308vw" y="1.528745466423833em" fill="#aaa"/><rect width="0.09615384615384616em" height="0.7997453580044105em" x="3.653846153846154vw" y="2.2002546419955893em" fill="#aaa"/><rect width="0.09615384615384616em" height="0.1371411919030378em" x="3.75vw" y="2.8628588080969624em" fill="#aaa"/><rect width="0.09615384615384616em" height="0.11452100152902793em" x="3.8461538461538463vw" y="2.885478998470972em" fill="#aaa"/><rect width="0.09615384615384616em" height="0.8426069456155463em" x="3.9423076923076925vw" y="2.1573930543844537em" fill="#aaa"/><rect width="0.09615384615384616em" height="0.6270265548543149em" x="4.038461538461538vw" y="2.372973445145685em" fill="#aaa"/><rect width="0.09615384615384616em" height="0.12741288187435043em" x="4.134615384615385vw" y="2.8725871181256495em" fill="#aaa"/><rect width="0.09615384615384616em" height="0.1060757334132959em" x="4.230769230769231vw" y="2.893924266586704em" fill="#aaa"/><rect width="0.09615384615384616em" height="0.25555106860479093em" x="4.3269230769230775vw" y="2.744448931395209em" fill="#aaa"/><rect width="0.09615384615384616em" height="0.14790076730601884em" x="4.423076923076923vw" y="2.8520992326939814em" fill="#aaa"/><rect width="0.09615384615384616em" height="0.09456092926582474em" x="4.519230769230769vw" y="2.9054390707341753em" fill="#aaa"/><rect width="0.09615384615384616em" height="0.04787891822220948em" x="4.615384615384616vw" y="2.9521210817777903em" fill="#aaa"/><rect width="0.09615384615384616em" height="0.08729271993569745em" x="4.711538461538462vw" y="2.9127072800643026em" fill="#aaa"/><rect width="0.09615384615384616em" height="0.04982130601013121em" x="4.807692307692308vw" y="2.950178693989869em" fill="#aaa"/><rect width="0.09615384615384616em" height="0.05988886597904092em" x="4.903846153846154vw" y="2.940111134020959em" fill="#aaa"/><rect width="0.09615384615384616em" height="0.05852487020298608em" x="5vw" y="2.941475129797014em" fill="#aaa"/><rect width="0.09615384615384616em" height="0.042566214465042225em" x="5.096153846153847vw" y="2.957433785534958em" fill="#aaa"/><rect width="0.09615384615384616em" height="0.04165570161800716em" x="5.1923076923076925vw" y="2.9583442983819928em" fill="#aaa"/><rect width="0.09615384615384616em" height="0.02963658935344587em" x="5.288461538461538vw" y="2.970363410646554em" fill="#aaa"/><rect width="0.09615384615384616em" height="0.06385723521206653em" x="5.384615384615385vw" y="2.9361427647879337em" fill="#aaa"/><rect width="0.09615384615384616em" height="0.02965591369405158em" x="5.480769230769231vw" y="2.9703440863059485em" fill="#aaa"/><rect width="0.09615384615384616em" height="0.02807522138289252em" x="5.5769230769230775vw" y="2.9719247786171077em" fill="#aaa"/><rect width="0.09615384615384616em" height="0.11203646546545241em" x="5.673076923076923vw" y="2.887963534534548em" fill="#aaa"/><rect width="0.09615384615384616em" height="0.05675972923280463em" x="5.769230769230769vw" y="2.943240270767195em" fill="#aaa"/><rect width="0.09615384615384616em" height="0.03332758961141012em" x="5.865384615384616vw" y="2.9666724103885898em" fill="#aaa"/><rect width="0.09615384615384616em" height="0.02644524637871852em" x="5.961538461538462vw" y="2.9735547536212814em" fill="#aaa"/><rect width="0.09615384615384616em" height="0.016476826900858357em" x="6.057692307692308vw" y="2.9835231730991416em" fill="#aaa"/><rect width="0.09615384615384616em" height="0.07810367636311052em" x="6.153846153846154vw" y="2.9218963236368896em" fill="#aaa"/><rect width="0.09615384615384616em" height="0.028343694507841924em" x="6.25vw" y="2.971656305492158em" fill="#aaa"/><rect width="0.09615384615384616em" height="0.027474199123825288em" x="6.346153846153847vw" y="2.972525800876175em" fill="#aaa"/><rect width="0.09615384615384616em" height="0.026865748309393735em" x="6.4423076923076925vw" y="2.973134251690606em" fill="#aaa"/><rect width="0.09615384615384616em" height="0.044454633633405516em" x="6.538461538461539vw" y="2.9555453663665947em" fill="#aaa"/><rect width="0.09615384615384616em" height="0.020226190533557533em" x="6.634615384615385vw" y="2.9797738094664425em" fill="#aaa"/><rect width="0.09615384615384616em" height="0.02614210617837223em" x="6.730769230769231vw" y="2.9738578938216276em" fill="#aaa"/><rect width="0.09615384615384616em" height="0.02395169137410187em" x="6.8269230769230775vw" y="2.976048308625898em" fill="#aaa"/><rect width="0.09615384615384616em" height="0.02712386131104358em" x="6.923076923076923vw" y="2.9728761386889566em" fill="#aaa"/><rect width="0.09615384615384616em" height="0.03104267259365346em" x="7.01923076923077vw" y="2.9689573274063465em" fill="#aaa"/><rect width="0.09615384615384616em" height="0.05295803908652423em" x="7.115384615384616vw" y="2.947041960913476em" fill="#aaa"/><rect width="0.09615384615384616em" height="0.07619384950464216em" x="7.211538461538462vw" y="2.923806150495358em" fill="#aaa"/><rect width="0.09615384615384616em" height="0.018175955920717572em" x="7.307692307692308vw" y="2.9818240440792825em" fill="#aaa"/><rect width="0.09615384615384616em" height="0.04848382600139402em" x="7.403846153846154vw" y="2.951516173998606em" fill="#aaa"/><rect width="0.09615384615384616em" height="0.027692386765678645em" x="7.5vw" y="2.9723076132343214em" fill="#aaa"/><rect width="0.09615384615384616em" height="0.029540683855910025em" x="7.596153846153847vw" y="2.97045931614409em" fill="#aaa"/><rect width="0.09615384615384616em" height="0.05003093112767229em" x="7.6923076923076925vw" y="2.9499690688723277em" fill="#aaa"/><rect width="0.09615384615384616em" height="0.022978681157272137em" x="7.788461538461539vw" y="2.977021318842728em" fill="#aaa"/><rect width="0.09615384615384616em" height="0.03133099639111403em" x="7.884615384615385vw" y="2.968669003608886em" fill="#aaa"/><rect width="0.09615384615384616em" height="0.06499345177459744em" x="7.980769230769231vw" y="2.9350065482254024em" fill="#aaa"/><rect width="0.09615384615384616em" height="0.03225629691008084em" x="8.076923076923077vw" y="2.967743703089919em" fill="#aaa"/><rect width="0.09615384615384616em" height="0.06191128449168128em" x="8.173076923076923vw" y="2.938088715508319em" fill="#aaa"/><rect width="0.09615384615384616em" height="0.041206960735723955em" x="8.26923076923077vw" y="2.958793039264276em" fill="#aaa"/><rect width="0.09615384615384616em" height="0.05169857542107525em" x="8.365384615384615vw" y="2.9483014245789247em" fill="#aaa"/><rect width="0.09615384615384616em" height="0.04131466049283786em" x="8.461538461538462vw" y="2.958685339507162em" fill="#aaa"/><rect width="0.09615384615384616em" height="0.020933075867596376em" x="8.557692307692308vw" y="2.9790669241324035em" fill="#aaa"/><rect width="0.09615384615384616em" height="0.051077077540780114em" x="8.653846153846155vw" y="2.9489229224592197em" fill="#aaa"/><rect width="0.09615384615384616em" height="0.05604478291856023em" x="8.75vw" y="2.94395521708144em" fill="#aaa"/><rect width="0.09615384615384616em" height="0.03917040770375886em" x="8.846153846153847vw" y="2.9608295922962413em" fill="#aaa"/><rect width="0.09615384615384616em" height="0.046895433954132204em" x="8.942307692307693vw" y="2.9531045660458677em" fill="#aaa"/><rect width="0.09615384615384616em" height="0.021456473422109483em" x="9.038461538461538vw" y="2.9785435265778903em" fill="#aaa"/><rect width="0.09615384615384616em" height="0.0545063905329161em" x="9.134615384615385vw" y="2.945493609467084em" fill="#aaa"/><rect width="0.09615384615384616em" height="0.05176644081525211em" x="9.230769230769232vw" y="2.948233559184748em" fill="#aaa"/><rect width="0.09615384615384616em" height="0.13027294620218838em" x="9.326923076923077vw" y="2.8697270537978117em" fill="#aaa"/><rect width="0.09615384615384616em" height="0.2809270490050523em" x="9.423076923076923vw" y="2.719072950994948em" fill="#aaa"/><rect width="0.09615384615384616em" height="0.09098577955878046em" x="9.51923076923077vw" y="2.9090142204412195em" fill="#aaa"/><rect width="0.09615384615384616em" height="0.0783191390097797em" x="9.615384615384617vw" y="2.9216808609902203em" fill="#aaa"/><rect width="0.09615384615384616em" height="0.05014854500678005em" x="9.711538461538462vw" y="2.9498514549932198em" fill="#aaa"/><rect width="0.09615384615384616em" height="0.0779289296817005em" x="9.807692307692308vw" y="2.9220710703182995em" fill="#aaa"/><rect width="0.09615384615384616em" height="0.07939250195976562em" x="9.903846153846155vw" y="2.9206074980402343em" fill="#aaa"/></svg>