<?xml version="1.0" standalone="no"?>
<svg xmlns:xlink="http://www.w3.org/1999/xlink" xmlns="http://www.w3.org/2000/svg" class="topic-graph" style="width: 10vw; height: 3em; text-align: center;"><rect width="0.09615384615384616em" height="0.0976360189100709em" x="0vw" y="2.902363981089929em" fill="#aaa"/><rect width="0.09615384615384616em" height="1.1598468763775627em" x="0.09615384615384616vw" y="1.8401531236224373em" fill="#aaa"/><rect width="0.09615384615384616em" height="0.9403965558967001em" x="0.19230769230769232vw" y="2.0596034441033em" fill="#aaa"/><rect width="0.09615384615384616em" height="1.3226090210783594em" x="0.2884615384615385vw" y="1.6773909789216406em" fill="#aaa"/><rect width="0.09615384615384616em" height="1.338053345724548em" x="0.38461538461538464vw" y="1.661946654275452em" fill="#aaa"/><rect width="0.09615384615384616em" height="1.0808127038247488em" x="0.4807692307692308vw" y="1.9191872961752512em" fill="#aaa"/><rect width="0.09615384615384616em" height="0.3693272439255099em" x="0.576923076923077vw" y="2.6306727560744902em" fill="#aaa"/><rect width="0.09615384615384616em" height="1.4196499689331816em" x="0.6730769230769231vw" y="1.5803500310668184em" fill="#aaa"/><rect width="0.09615384615384616em" height="0.9203395455844906em" x="0.7692307692307693vw" y="2.0796604544155093em" fill="#aaa"/><rect width="0.09615384615384616em" height="0.5803947998501819em" x="0.8653846153846154vw" y="2.4196052001498183em" fill="#aaa"/><rect width="0.09615384615384616em" height="0.6457533862311273em" x="0.9615384615384616vw" y="2.354246613768873em" fill="#aaa"/><rect width="0.09615384615384616em" height="3em" x="1.0576923076923077vw" y="0em" fill="#aaa"/><rect width="0.09615384615384616em" height="0.9410681552336473em" x="1.153846153846154vw" y="2.0589318447663527em" fill="#aaa"/><rect width="0.09615384615384616em" height="2.3498037623888366em" x="1.25vw" y="0.6501962376111634em" fill="#aaa"/><rect width="0.09615384615384616em" height="2.2467676235594682em" x="1.3461538461538463vw" y="0.7532323764405318em" fill="#aaa"/><rect width="0.09615384615384616em" height="0.6121747280127753em" x="1.4423076923076923vw" y="2.3878252719872246em" fill="#aaa"/><rect width="0.09615384615384616em" height="0.516125080505805em" x="1.5384615384615385vw" y="2.483874919494195em" fill="#aaa"/><rect width="0.09615384615384616em" height="0.8787336992908472em" x="1.6346153846153848vw" y="2.121266300709153em" fill="#aaa"/><rect width="0.09615384615384616em" height="0.8289409401404859em" x="1.7307692307692308vw" y="2.1710590598595143em" fill="#aaa"/><rect width="0.09615384615384616em" height="0.35327269345172774em" x="1.826923076923077vw" y="2.6467273065482724em" fill="#aaa"/><rect width="0.09615384615384616em" height="0.5459423838495262em" x="1.9230769230769231vw" y="2.454057616150474em" fill="#aaa"/><rect width="0.09615384615384616em" height="0.914688181464027em" x="2.019230769230769vw" y="2.085311818535973em" fill="#aaa"/><rect width="0.09615384615384616em" height="0.6473261366085745em" x="2.1153846153846154vw" y="2.3526738633914253em" fill="#aaa"/><rect width="0.09615384615384616em" height="0.34691695301937897em" x="2.2115384615384617vw" y="2.653083046980621em" fill="#aaa"/><rect width="0.09615384615384616em" height="0.3864901236776572em" x="2.307692307692308vw" y="2.6135098763223428em" fill="#aaa"/><rect width="0.09615384615384616em" height="1.3016159604432973em" x="2.403846153846154vw" y="1.6983840395567027em" fill="#aaa"/><rect width="0.09615384615384616em" height="1.0922474659680652em" x="2.5vw" y="1.9077525340319348em" fill="#aaa"/><rect width="0.09615384615384616em" height="1.1837780364685189em" x="2.5961538461538463vw" y="1.8162219635314811em" fill="#aaa"/><rect width="0.09615384615384616em" height="0.734534716530848em" x="2.6923076923076925vw" y="2.265465283469152em" fill="#aaa"/><rect width="0.09615384615384616em" height="0.5983871256919786em" x="2.7884615384615388vw" y="2.4016128743080216em" fill="#aaa"/><rect width="0.09615384615384616em" height="0.8214836541222748em" x="2.8846153846153846vw" y="2.1785163458777252em" fill="#aaa"/><rect width="0.09615384615384616em" height="1.954605870706614em" x="2.980769230769231vw" y="1.045394129293386em" fill="#aaa"/><rect width="0.09615384615384616em" height="1.6181898543186377em" x="3.076923076923077vw" y="1.3818101456813623em" fill="#aaa"/><rect width="0.09615384615384616em" height="0.4387365464137647em" x="3.1730769230769234vw" y="2.5612634535862355em" fill="#aaa"/><rect width="0.09615384615384616em" height="1.5902387036298424em" x="3.2692307692307696vw" y="1.4097612963701576em" fill="#aaa"/><rect width="0.09615384615384616em" height="1.8306622212880885em" x="3.3653846153846154vw" y="1.1693377787119115em" fill="#aaa"/><rect width="0.09615384615384616em" height="2.0785539791199126em" x="3.4615384615384617vw" y="0.9214460208800874em" fill="#aaa"/><rect width="0.09615384615384616em" height="0.9228503657868394em" x="3.557692307692308vw" y="2.0771496342131606em" fill="#aaa"/><rect width="0.09615384615384616em" height="1.2297488567412795em" x="3.653846153846154vw" y="1.7702511432587205em" fill="#aaa"/><rect width="0.09615384615384616em" height="0.9833980111750245em" x="3.75vw" y="2.0166019888249753em" fill="#aaa"/><rect width="0.09615384615384616em" height="0.9277067612583862em" x="3.8461538461538463vw" y="2.0722932387416138em" fill="#aaa"/><rect width="0.09615384615384616em" height="0.8948638084872956em" x="3.9423076923076925vw" y="2.1051361915127043em" fill="#aaa"/><rect width="0.09615384615384616em" height="1.277996925223465em" x="4.038461538461538vw" y="1.722003074776535em" fill="#aaa"/><rect width="0.09615384615384616em" height="0.5122404538603649em" x="4.134615384615385vw" y="2.4877595461396353em" fill="#aaa"/><rect width="0.09615384615384616em" height="1.3701862670538685em" x="4.230769230769231vw" y="1.6298137329461315em" fill="#aaa"/><rect width="0.09615384615384616em" height="1.4323202406534483em" x="4.3269230769230775vw" y="1.5676797593465517em" fill="#aaa"/><rect width="0.09615384615384616em" height="1.0237925933073584em" x="4.423076923076923vw" y="1.9762074066926416em" fill="#aaa"/><rect width="0.09615384615384616em" height="1.030862132930085em" x="4.519230769230769vw" y="1.969137867069915em" fill="#aaa"/><rect width="0.09615384615384616em" height="0.5915389355209679em" x="4.615384615384616vw" y="2.408461064479032em" fill="#aaa"/><rect width="0.09615384615384616em" height="0.7791596967895349em" x="4.711538461538462vw" y="2.220840303210465em" fill="#aaa"/><rect width="0.09615384615384616em" height="0.811217720311282em" x="4.807692307692308vw" y="2.188782279688718em" fill="#aaa"/><rect width="0.09615384615384616em" height="0.7792433700875956em" x="4.903846153846154vw" y="2.2207566299124046em" fill="#aaa"/><rect width="0.09615384615384616em" height="1.286743134975199em" x="5vw" y="1.713256865024801em" fill="#aaa"/><rect width="0.09615384615384616em" height="1.127239052852232em" x="5.096153846153847vw" y="1.872760947147768em" fill="#aaa"/><rect width="0.09615384615384616em" height="1.4682637469641358em" x="5.1923076923076925vw" y="1.5317362530358642em" fill="#aaa"/><rect width="0.09615384615384616em" height="1.177951899980519em" x="5.288461538461538vw" y="1.822048100019481em" fill="#aaa"/><rect width="0.09615384615384616em" height="0.9945438553055208em" x="5.384615384615385vw" y="2.005456144694479em" fill="#aaa"/><rect width="0.09615384615384616em" height="1.717846945029182em" x="5.480769230769231vw" y="1.282153054970818em" fill="#aaa"/><rect width="0.09615384615384616em" height="1.288691337799898em" x="5.5769230769230775vw" y="1.711308662200102em" fill="#aaa"/><rect width="0.09615384615384616em" height="1.0636056665533742em" x="5.673076923076923vw" y="1.9363943334466258em" fill="#aaa"/><rect width="0.09615384615384616em" height="2.1896006561083032em" x="5.769230769230769vw" y="0.8103993438916968em" fill="#aaa"/><rect width="0.09615384615384616em" height="1.3162626738427856em" x="5.865384615384616vw" y="1.6837373261572144em" fill="#aaa"/><rect width="0.09615384615384616em" height="1.5512484580608756em" x="5.961538461538462vw" y="1.4487515419391244em" fill="#aaa"/><rect width="0.09615384615384616em" height="2.2572970801205816em" x="6.057692307692308vw" y="0.7427029198794184em" fill="#aaa"/><rect width="0.09615384615384616em" height="1.3233139992895995em" x="6.153846153846154vw" y="1.6766860007104005em" fill="#aaa"/><rect width="0.09615384615384616em" height="1.6832185321903868em" x="6.25vw" y="1.3167814678096132em" fill="#aaa"/><rect width="0.09615384615384616em" height="1.0630957680458621em" x="6.346153846153847vw" y="1.9369042319541379em" fill="#aaa"/><rect width="0.09615384615384616em" height="2.311277321082633em" x="6.4423076923076925vw" y="0.688722678917367em" fill="#aaa"/><rect width="0.09615384615384616em" height="1.4167945799018737em" x="6.538461538461539vw" y="1.5832054200981263em" fill="#aaa"/><rect width="0.09615384615384616em" height="0.7491493193845299em" x="6.634615384615385vw" y="2.25085068061547em" fill="#aaa"/><rect width="0.09615384615384616em" height="1.301203155549391em" x="6.730769230769231vw" y="1.698796844450609em" fill="#aaa"/><rect width="0.09615384615384616em" height="1.6124974829239336em" x="6.8269230769230775vw" y="1.3875025170760664em" fill="#aaa"/><rect width="0.09615384615384616em" height="2.094259809711251em" x="6.923076923076923vw" y="0.905740190288749em" fill="#aaa"/><rect width="0.09615384615384616em" height="1.4745056844364455em" x="7.01923076923077vw" y="1.5254943155635545em" fill="#aaa"/><rect width="0.09615384615384616em" height="2.2391864605659375em" x="7.115384615384616vw" y="0.7608135394340625em" fill="#aaa"/><rect width="0.09615384615384616em" height="1.990606528444896em" x="7.211538461538462vw" y="1.009393471555104em" fill="#aaa"/><rect width="0.09615384615384616em" height="2.3967227807588563em" x="7.307692307692308vw" y="0.6032772192411437em" fill="#aaa"/><rect width="0.09615384615384616em" height="2.076134270775163em" x="7.403846153846154vw" y="0.9238657292248371em" fill="#aaa"/><rect width="0.09615384615384616em" height="2.688847618314518em" x="7.5vw" y="0.3111523816854822em" fill="#aaa"/><rect width="0.09615384615384616em" height="2.2270937412504357em" x="7.596153846153847vw" y="0.7729062587495643em" fill="#aaa"/><rect width="0.09615384615384616em" height="2.037493930852964em" x="7.6923076923076925vw" y="0.962506069147036em" fill="#aaa"/><rect width="0.09615384615384616em" height="1.7088050640128603em" x="7.788461538461539vw" y="1.2911949359871397em" fill="#aaa"/><rect width="0.09615384615384616em" height="2.2791036677883296em" x="7.884615384615385vw" y="0.7208963322116704em" fill="#aaa"/><rect width="0.09615384615384616em" height="2.045652667941957em" x="7.980769230769231vw" y="0.9543473320580431em" fill="#aaa"/><rect width="0.09615384615384616em" height="2.3573321154375524em" x="8.076923076923077vw" y="0.6426678845624476em" fill="#aaa"/><rect width="0.09615384615384616em" height="2.7440472344829465em" x="8.173076923076923vw" y="0.2559527655170535em" fill="#aaa"/><rect width="0.09615384615384616em" height="1.981899836131512em" x="8.26923076923077vw" y="1.018100163868488em" fill="#aaa"/><rect width="0.09615384615384616em" height="2.366966414253419em" x="8.365384615384615vw" y="0.6330335857465812em" fill="#aaa"/><rect width="0.09615384615384616em" height="2.5982676402223355em" x="8.461538461538462vw" y="0.4017323597776645em" fill="#aaa"/><rect width="0.09615384615384616em" height="2.412136442541589em" x="8.557692307692308vw" y="0.587863557458411em" fill="#aaa"/><rect width="0.09615384615384616em" height="2.35149976786711em" x="8.653846153846155vw" y="0.6485002321328901em" fill="#aaa"/><rect width="0.09615384615384616em" height="2.3594775996354342em" x="8.75vw" y="0.6405224003645658em" fill="#aaa"/><rect width="0.09615384615384616em" height="2.3291151216579267em" x="8.846153846153847vw" y="0.6708848783420733em" fill="#aaa"/><rect width="0.09615384615384616em" height="2.480498289928894em" x="8.942307692307693vw" y="0.5195017100711059em" fill="#aaa"/><rect width="0.09615384615384616em" height="2.754354513202939em" x="9.038461538461538vw" y="0.245645486797061em" fill="#aaa"/><rect width="0.09615384615384616em" height="2.5113050264442656em" x="9.134615384615385vw" y="0.48869497355573444em" fill="#aaa"/><rect width="0.09615384615384616em" height="2.5081733656540397em" x="9.230769230769232vw" y="0.4918266343459603em" fill="#aaa"/><rect width="0.09615384615384616em" height="2.3674794702754665em" x="9.326923076923077vw" y="0.6325205297245335em" fill="#aaa"/><rect width="0.09615384615384616em" height="2.0955197643340773em" x="9.423076923076923vw" y="0.9044802356659227em" fill="#aaa"/><rect width="0.09615384615384616em" height="2.2694266997377914em" x="9.51923076923077vw" y="0.7305733002622086em" fill="#aaa"/><rect width="0.09615384615384616em" height="2.2222716901142574em" x="9.615384615384617vw" y="0.7777283098857426em" fill="#aaa"/><rect width="0.09615384615384616em" height="1.771284164153901em" x="9.711538461538462vw" y="1.228715835846099em" fill="#aaa"/><rect width="0.09615384615384616em" height="1.99813416865729em" x="9.807692307692308vw" y="1.00186583134271em" fill="#aaa"/><rect width="0.09615384615384616em" height="2.0751441926793888em" x="9.903846153846155vw" y="0.9248558073206112em" fill="#aaa"/></svg>