<?xml version="1.0" standalone="no"?>
<svg xmlns:xlink="http://www.w3.org/1999/xlink" xmlns="http://www.w3.org/2000/svg" class="topic-graph" style="width: 100em; height: 30em; text-align: center;"><rect width="0.9615384615384616em" height="0.3030532452035999em" x="0em" y="29.6969467547964em" fill="#aaa"/><rect width="0.9615384615384616em" height="8.513136679075522em" x="0.9615384615384616em" y="21.486863320924478em" fill="#aaa"/><rect width="0.9615384615384616em" height="5.977075098426867em" x="1.9230769230769231em" y="24.022924901573134em" fill="#aaa"/><rect width="0.9615384615384616em" height="10.573117947088672em" x="2.8846153846153846em" y="19.426882052911328em" fill="#aaa"/><rect width="0.9615384615384616em" height="16.242195307116397em" x="3.8461538461538463em" y="13.757804692883603em" fill="#aaa"/><rect width="0.9615384615384616em" height="4.672352564871398em" x="4.8076923076923075em" y="25.327647435128604em" fill="#aaa"/><rect width="0.9615384615384616em" height="5.076842390924263em" x="5.769230769230769em" y="24.923157609075737em" fill="#aaa"/><rect width="0.9615384615384616em" height="14.889863284756704em" x="6.730769230769231em" y="15.110136715243296em" fill="#aaa"/><rect width="0.9615384615384616em" height="1.9933309421556382em" x="7.6923076923076925em" y="28.006669057844363em" fill="#aaa"/><rect width="0.9615384615384616em" height="1.9888013476798714em" x="8.653846153846153em" y="28.01119865232013em" fill="#aaa"/><rect width="0.9615384615384616em" height="3.1306150541704487em" x="9.615384615384615em" y="26.86938494582955em" fill="#aaa"/><rect width="0.9615384615384616em" height="6.102462255886137em" x="10.576923076923077em" y="23.897537744113862em" fill="#aaa"/><rect width="0.9615384615384616em" height="2.65945748922097em" x="11.538461538461538em" y="27.34054251077903em" fill="#aaa"/><rect width="0.9615384615384616em" height="3.437168467815421em" x="12.5em" y="26.56283153218458em" fill="#aaa"/><rect width="0.9615384615384616em" height="1.5868112448004321em" x="13.461538461538462em" y="28.413188755199567em" fill="#aaa"/><rect width="0.9615384615384616em" height="1.1503416525157206em" x="14.423076923076923em" y="28.84965834748428em" fill="#aaa"/><rect width="0.9615384615384616em" height="1.9466955245543873em" x="15.384615384615385em" y="28.053304475445614em" fill="#aaa"/><rect width="0.9615384615384616em" height="2.1015504203038575em" x="16.346153846153847em" y="27.89844957969614em" fill="#aaa"/><rect width="0.9615384615384616em" height="2.235144933989308em" x="17.307692307692307em" y="27.764855066010693em" fill="#aaa"/><rect width="0.9615384615384616em" height="4.507308248202499em" x="18.26923076923077em" y="25.4926917517975em" fill="#aaa"/><rect width="0.9615384615384616em" height="1.0088962530024816em" x="19.23076923076923em" y="28.991103746997517em" fill="#aaa"/><rect width="0.9615384615384616em" height="3.3424104262453374em" x="20.192307692307693em" y="26.657589573754663em" fill="#aaa"/><rect width="0.9615384615384616em" height="0.5193383294173538em" x="21.153846153846153em" y="29.480661670582645em" fill="#aaa"/><rect width="0.9615384615384616em" height="30em" x="22.115384615384617em" y="0em" fill="#aaa"/><rect width="0.9615384615384616em" height="17.109330275302398em" x="23.076923076923077em" y="12.890669724697602em" fill="#aaa"/><rect width="0.9615384615384616em" height="11.078028441519159em" x="24.03846153846154em" y="18.92197155848084em" fill="#aaa"/><rect width="0.9615384615384616em" height="4.0615021822118695em" x="25em" y="25.938497817788132em" fill="#aaa"/><rect width="0.9615384615384616em" height="7.6037218535811775em" x="25.961538461538463em" y="22.396278146418823em" fill="#aaa"/><rect width="0.9615384615384616em" height="3.7339943802227498em" x="26.923076923076923em" y="26.26600561977725em" fill="#aaa"/><rect width="0.9615384615384616em" height="14.747915226115074em" x="27.884615384615387em" y="15.252084773884926em" fill="#aaa"/><rect width="0.9615384615384616em" height="9.679396244083296em" x="28.846153846153847em" y="20.320603755916704em" fill="#aaa"/><rect width="0.9615384615384616em" height="1.4194011513428821em" x="29.80769230769231em" y="28.580598848657118em" fill="#aaa"/><rect width="0.9615384615384616em" height="3.261411413844925em" x="30.76923076923077em" y="26.738588586155075em" fill="#aaa"/><rect width="0.9615384615384616em" height="5.010119025018412em" x="31.73076923076923em" y="24.98988097498159em" fill="#aaa"/><rect width="0.9615384615384616em" height="9.338756214493543em" x="32.69230769230769em" y="20.661243785506457em" fill="#aaa"/><rect width="0.9615384615384616em" height="5.517197066070945em" x="33.65384615384615em" y="24.482802933929054em" fill="#aaa"/><rect width="0.9615384615384616em" height="5.749842295732949em" x="34.61538461538461em" y="24.25015770426705em" fill="#aaa"/><rect width="0.9615384615384616em" height="4.919210145154287em" x="35.57692307692308em" y="25.08078985484571em" fill="#aaa"/><rect width="0.9615384615384616em" height="3.881418821127901em" x="36.53846153846154em" y="26.1185811788721em" fill="#aaa"/><rect width="0.9615384615384616em" height="2.3873899680025565em" x="37.5em" y="27.612610031997445em" fill="#aaa"/><rect width="0.9615384615384616em" height="2.839988133021857em" x="38.46153846153846em" y="27.16001186697814em" fill="#aaa"/><rect width="0.9615384615384616em" height="8.644365090271664em" x="39.42307692307693em" y="21.355634909728337em" fill="#aaa"/><rect width="0.9615384615384616em" height="4.163709128848558em" x="40.38461538461539em" y="25.83629087115144em" fill="#aaa"/><rect width="0.9615384615384616em" height="3.629053729701729em" x="41.34615384615385em" y="26.37094627029827em" fill="#aaa"/><rect width="0.9615384615384616em" height="2.524837297332815em" x="42.30769230769231em" y="27.475162702667184em" fill="#aaa"/><rect width="0.9615384615384616em" height="3.0230201393602814em" x="43.269230769230774em" y="26.97697986063972em" fill="#aaa"/><rect width="0.9615384615384616em" height="9.256329023028584em" x="44.23076923076923em" y="20.743670976971416em" fill="#aaa"/><rect width="0.9615384615384616em" height="5.955923785176219em" x="45.19230769230769em" y="24.044076214823782em" fill="#aaa"/><rect width="0.9615384615384616em" height="5.401690307758501em" x="46.15384615384615em" y="24.5983096922415em" fill="#aaa"/><rect width="0.9615384615384616em" height="6.3032589956293705em" x="47.11538461538461em" y="23.69674100437063em" fill="#aaa"/><rect width="0.9615384615384616em" height="10.825252293264706em" x="48.07692307692308em" y="19.174747706735296em" fill="#aaa"/><rect width="0.9615384615384616em" height="3.216401608468842em" x="49.03846153846154em" y="26.783598391531157em" fill="#aaa"/><rect width="0.9615384615384616em" height="2.6043623626638426em" x="50em" y="27.395637637336158em" fill="#aaa"/><rect width="0.9615384615384616em" height="5.984462212828383em" x="50.96153846153846em" y="24.015537787171617em" fill="#aaa"/><rect width="0.9615384615384616em" height="10.418788899013254em" x="51.92307692307693em" y="19.581211100986746em" fill="#aaa"/><rect width="0.9615384615384616em" height="4.115032357265942em" x="52.88461538461539em" y="25.884967642734058em" fill="#aaa"/><rect width="0.9615384615384616em" height="3.3642085444216567em" x="53.84615384615385em" y="26.635791455578342em" fill="#aaa"/><rect width="0.9615384615384616em" height="3.0132504930297452em" x="54.80769230769231em" y="26.986749506970256em" fill="#aaa"/><rect width="0.9615384615384616em" height="4.170994126545162em" x="55.769230769230774em" y="25.82900587345484em" fill="#aaa"/><rect width="0.9615384615384616em" height="2.6403002390166757em" x="56.73076923076923em" y="27.359699760983325em" fill="#aaa"/><rect width="0.9615384615384616em" height="5.259122179518109em" x="57.69230769230769em" y="24.74087782048189em" fill="#aaa"/><rect width="0.9615384615384616em" height="3.9221996905659076em" x="58.65384615384615em" y="26.077800309434092em" fill="#aaa"/><rect width="0.9615384615384616em" height="5.842514145985323em" x="59.61538461538462em" y="24.157485854014677em" fill="#aaa"/><rect width="0.9615384615384616em" height="5.8196539144103525em" x="60.57692307692308em" y="24.180346085589647em" fill="#aaa"/><rect width="0.9615384615384616em" height="4.027593993187386em" x="61.53846153846154em" y="25.972406006812612em" fill="#aaa"/><rect width="0.9615384615384616em" height="5.032576269247187em" x="62.5em" y="24.967423730752813em" fill="#aaa"/><rect width="0.9615384615384616em" height="4.678097629499678em" x="63.46153846153846em" y="25.32190237050032em" fill="#aaa"/><rect width="0.9615384615384616em" height="3.4142127481171207em" x="64.42307692307692em" y="26.58578725188288em" fill="#aaa"/><rect width="0.9615384615384616em" height="3.0969058823082736em" x="65.38461538461539em" y="26.903094117691726em" fill="#aaa"/><rect width="0.9615384615384616em" height="3.2481691229316625em" x="66.34615384615385em" y="26.751830877068336em" fill="#aaa"/><rect width="0.9615384615384616em" height="3.915972571678851em" x="67.3076923076923em" y="26.08402742832115em" fill="#aaa"/><rect width="0.9615384615384616em" height="3.816491223821596em" x="68.26923076923077em" y="26.183508776178403em" fill="#aaa"/><rect width="0.9615384615384616em" height="3.5271419164054323em" x="69.23076923076923em" y="26.472858083594566em" fill="#aaa"/><rect width="0.9615384615384616em" height="3.746580868982019em" x="70.1923076923077em" y="26.25341913101798em" fill="#aaa"/><rect width="0.9615384615384616em" height="3.0922256871837868em" x="71.15384615384616em" y="26.907774312816212em" fill="#aaa"/><rect width="0.9615384615384616em" height="3.018107265498016em" x="72.11538461538461em" y="26.981892734501983em" fill="#aaa"/><rect width="0.9615384615384616em" height="3.511892731707139em" x="73.07692307692308em" y="26.48810726829286em" fill="#aaa"/><rect width="0.9615384615384616em" height="6.626614419862955em" x="74.03846153846155em" y="23.373385580137047em" fill="#aaa"/><rect width="0.9615384615384616em" height="4.495152123399294em" x="75em" y="25.504847876600707em" fill="#aaa"/><rect width="0.9615384615384616em" height="3.749887253982763em" x="75.96153846153847em" y="26.250112746017237em" fill="#aaa"/><rect width="0.9615384615384616em" height="3.7731637718342146em" x="76.92307692307692em" y="26.226836228165787em" fill="#aaa"/><rect width="0.9615384615384616em" height="3.4868657588011076em" x="77.88461538461539em" y="26.51313424119889em" fill="#aaa"/><rect width="0.9615384615384616em" height="3.675944552317348em" x="78.84615384615385em" y="26.324055447682653em" fill="#aaa"/><rect width="0.9615384615384616em" height="2.86276583835622em" x="79.8076923076923em" y="27.13723416164378em" fill="#aaa"/><rect width="0.9615384615384616em" height="3.1954044292199146em" x="80.76923076923077em" y="26.804595570780087em" fill="#aaa"/><rect width="0.9615384615384616em" height="3.6127231643842137em" x="81.73076923076923em" y="26.387276835615786em" fill="#aaa"/><rect width="0.9615384615384616em" height="3.657855329978158em" x="82.6923076923077em" y="26.342144670021842em" fill="#aaa"/><rect width="0.9615384615384616em" height="2.3627222720410797em" x="83.65384615384616em" y="27.63727772795892em" fill="#aaa"/><rect width="0.9615384615384616em" height="2.221252563933811em" x="84.61538461538461em" y="27.77874743606619em" fill="#aaa"/><rect width="0.9615384615384616em" height="3.126772671223814em" x="85.57692307692308em" y="26.873227328776185em" fill="#aaa"/><rect width="0.9615384615384616em" height="3.4158298297093994em" x="86.53846153846155em" y="26.5841701702906em" fill="#aaa"/><rect width="0.9615384615384616em" height="3.0775525939475408em" x="87.5em" y="26.92244740605246em" fill="#aaa"/><rect width="0.9615384615384616em" height="2.4981334948964293em" x="88.46153846153847em" y="27.50186650510357em" fill="#aaa"/><rect width="0.9615384615384616em" height="2.4307620837920694em" x="89.42307692307692em" y="27.569237916207932em" fill="#aaa"/><rect width="0.9615384615384616em" height="3.508082099957338em" x="90.38461538461539em" y="26.49191790004266em" fill="#aaa"/><rect width="0.9615384615384616em" height="3.79809314042881em" x="91.34615384615385em" y="26.20190685957119em" fill="#aaa"/><rect width="0.9615384615384616em" height="3.0668101909639165em" x="92.3076923076923em" y="26.933189809036083em" fill="#aaa"/><rect width="0.9615384615384616em" height="3.1042125886068015em" x="93.26923076923077em" y="26.895787411393197em" fill="#aaa"/><rect width="0.9615384615384616em" height="4.22191696875693em" x="94.23076923076923em" y="25.77808303124307em" fill="#aaa"/><rect width="0.9615384615384616em" height="3.937335362269824em" x="95.1923076923077em" y="26.062664637730176em" fill="#aaa"/><rect width="0.9615384615384616em" height="4.946947238265204em" x="96.15384615384616em" y="25.053052761734797em" fill="#aaa"/><rect width="0.9615384615384616em" height="3.370291211441679em" x="97.11538461538461em" y="26.62970878855832em" fill="#aaa"/><rect width="0.9615384615384616em" height="2.7009882789296413em" x="98.07692307692308em" y="27.299011721070357em" fill="#aaa"/><rect width="0.9615384615384616em" height="2.426600286875996em" x="99.03846153846155em" y="27.573399713124005em" fill="#aaa"/></svg>