<?xml version="1.0" standalone="no"?>
<svg xmlns:xlink="http://www.w3.org/1999/xlink" xmlns="http://www.w3.org/2000/svg" class="topic-graph" style="width: 10vw; height: 3em; text-align: center;"><rect width="0.09615384615384616em" height="0.5303950145770573em" x="0vw" y="2.4696049854229427em" fill="#aaa"/><rect width="0.09615384615384616em" height="0.6051575862903926em" x="0.09615384615384616vw" y="2.3948424137096076em" fill="#aaa"/><rect width="0.09615384615384616em" height="0.43280085061001755em" x="0.19230769230769232vw" y="2.5671991493899826em" fill="#aaa"/><rect width="0.09615384615384616em" height="0.5278299259545371em" x="0.2884615384615385vw" y="2.472170074045463em" fill="#aaa"/><rect width="0.09615384615384616em" height="0.15148096173334885em" x="0.38461538461538464vw" y="2.848519038266651em" fill="#aaa"/><rect width="0.09615384615384616em" height="0.15558987875364572em" x="0.4807692307692308vw" y="2.844410121246354em" fill="#aaa"/><rect width="0.09615384615384616em" height="0.06925841815654074em" x="0.576923076923077vw" y="2.9307415818434595em" fill="#aaa"/><rect width="0.09615384615384616em" height="0.24182870788977306em" x="0.6730769230769231vw" y="2.758171292110227em" fill="#aaa"/><rect width="0.09615384615384616em" height="0.2076646703929831em" x="0.7692307692307693vw" y="2.792335329607017em" fill="#aaa"/><rect width="0.09615384615384616em" height="0.2150750621430346em" x="0.8653846153846154vw" y="2.7849249378569656em" fill="#aaa"/><rect width="0.09615384615384616em" height="0.7335433655518717em" x="0.9615384615384616vw" y="2.2664566344481285em" fill="#aaa"/><rect width="0.09615384615384616em" height="0.08964182651754518em" x="1.0576923076923077vw" y="2.9103581734824546em" fill="#aaa"/><rect width="0.09615384615384616em" height="0.05994508832630506em" x="1.153846153846154vw" y="2.940054911673695em" fill="#aaa"/><rect width="0.09615384615384616em" height="0.12140766174080983em" x="1.25vw" y="2.8785923382591903em" fill="#aaa"/><rect width="0.09615384615384616em" height="1.3983399012350688em" x="1.3461538461538463vw" y="1.6016600987649312em" fill="#aaa"/><rect width="0.09615384615384616em" height="0.21698948340702495em" x="1.4423076923076923vw" y="2.783010516592975em" fill="#aaa"/><rect width="0.09615384615384616em" height="0.05588353317599158em" x="1.5384615384615385vw" y="2.9441164668240085em" fill="#aaa"/><rect width="0.09615384615384616em" height="0.4018092402568533em" x="1.6346153846153848vw" y="2.598190759743147em" fill="#aaa"/><rect width="0.09615384615384616em" height="0.12756385022948283em" x="1.7307692307692308vw" y="2.8724361497705173em" fill="#aaa"/><rect width="0.09615384615384616em" height="0.1642807957784911em" x="1.826923076923077vw" y="2.8357192042215087em" fill="#aaa"/><rect width="0.09615384615384616em" height="0.11372422091242472em" x="1.9230769230769231vw" y="2.8862757790875753em" fill="#aaa"/><rect width="0.09615384615384616em" height="1.7610506397804289em" x="2.019230769230769vw" y="1.2389493602195711em" fill="#aaa"/><rect width="0.09615384615384616em" height="0.09982685631692897em" x="2.1153846153846154vw" y="2.900173143683071em" fill="#aaa"/><rect width="0.09615384615384616em" height="1.5493578198528482em" x="2.2115384615384617vw" y="1.4506421801471518em" fill="#aaa"/><rect width="0.09615384615384616em" height="3em" x="2.307692307692308vw" y="0em" fill="#aaa"/><rect width="0.09615384615384616em" height="0.24614255798670476em" x="2.403846153846154vw" y="2.7538574420132953em" fill="#aaa"/><rect width="0.09615384615384616em" height="0.13319055895767085em" x="2.5vw" y="2.8668094410423293em" fill="#aaa"/><rect width="0.09615384615384616em" height="0.2825738868197328em" x="2.5961538461538463vw" y="2.717426113180267em" fill="#aaa"/><rect width="0.09615384615384616em" height="0.07983653962870498em" x="2.6923076923076925vw" y="2.920163460371295em" fill="#aaa"/><rect width="0.09615384615384616em" height="0.044049427120609774em" x="2.7884615384615388vw" y="2.9559505728793902em" fill="#aaa"/><rect width="0.09615384615384616em" height="0.40990384688903114em" x="2.8846153846153846vw" y="2.5900961531109687em" fill="#aaa"/><rect width="0.09615384615384616em" height="0.15213826779519574em" x="2.980769230769231vw" y="2.8478617322048043em" fill="#aaa"/><rect width="0.09615384615384616em" height="0.17746500187555198em" x="3.076923076923077vw" y="2.822534998124448em" fill="#aaa"/><rect width="0.09615384615384616em" height="0.1331233326590647em" x="3.1730769230769234vw" y="2.8668766673409354em" fill="#aaa"/><rect width="0.09615384615384616em" height="0.16805616850797678em" x="3.2692307692307696vw" y="2.831943831492023em" fill="#aaa"/><rect width="0.09615384615384616em" height="0.24285470432636494em" x="3.3653846153846154vw" y="2.757145295673635em" fill="#aaa"/><rect width="0.09615384615384616em" height="0.20056904691701027em" x="3.4615384615384617vw" y="2.7994309530829895em" fill="#aaa"/><rect width="0.09615384615384616em" height="0.09660043708106082em" x="3.557692307692308vw" y="2.9033995629189393em" fill="#aaa"/><rect width="0.09615384615384616em" height="0.08607079512076703em" x="3.653846153846154vw" y="2.913929204879233em" fill="#aaa"/><rect width="0.09615384615384616em" height="0.24739327120146995em" x="3.75vw" y="2.75260672879853em" fill="#aaa"/><rect width="0.09615384615384616em" height="0.17053997680911362em" x="3.8461538461538463vw" y="2.829460023190886em" fill="#aaa"/><rect width="0.09615384615384616em" height="0.22539044088545945em" x="3.9423076923076925vw" y="2.7746095591145403em" fill="#aaa"/><rect width="0.09615384615384616em" height="0.14306750135262297em" x="4.038461538461538vw" y="2.856932498647377em" fill="#aaa"/><rect width="0.09615384615384616em" height="0.07960590738568249em" x="4.134615384615385vw" y="2.9203940926143175em" fill="#aaa"/><rect width="0.09615384615384616em" height="0.5629937117474145em" x="4.230769230769231vw" y="2.4370062882525856em" fill="#aaa"/><rect width="0.09615384615384616em" height="0.6164511781708771em" x="4.3269230769230775vw" y="2.3835488218291228em" fill="#aaa"/><rect width="0.09615384615384616em" height="1.0348374486411478em" x="4.423076923076923vw" y="1.9651625513588522em" fill="#aaa"/><rect width="0.09615384615384616em" height="1.123945634489987em" x="4.519230769230769vw" y="1.876054365510013em" fill="#aaa"/><rect width="0.09615384615384616em" height="0.538116585493579em" x="4.615384615384616vw" y="2.461883414506421em" fill="#aaa"/><rect width="0.09615384615384616em" height="0.5617464345249698em" x="4.711538461538462vw" y="2.4382535654750304em" fill="#aaa"/><rect width="0.09615384615384616em" height="0.4430594312246843em" x="4.807692307692308vw" y="2.5569405687753157em" fill="#aaa"/><rect width="0.09615384615384616em" height="0.20241767908895553em" x="4.903846153846154vw" y="2.7975823209110446em" fill="#aaa"/><rect width="0.09615384615384616em" height="0.3645801965355666em" x="5vw" y="2.6354198034644334em" fill="#aaa"/><rect width="0.09615384615384616em" height="0.2845931006030062em" x="5.096153846153847vw" y="2.715406899396994em" fill="#aaa"/><rect width="0.09615384615384616em" height="0.5165387141461242em" x="5.1923076923076925vw" y="2.483461285853876em" fill="#aaa"/><rect width="0.09615384615384616em" height="0.4246281797027316em" x="5.288461538461538vw" y="2.5753718202972684em" fill="#aaa"/><rect width="0.09615384615384616em" height="0.32700126717849626em" x="5.384615384615385vw" y="2.6729987328215037em" fill="#aaa"/><rect width="0.09615384615384616em" height="0.23282031842876075em" x="5.480769230769231vw" y="2.767179681571239em" fill="#aaa"/><rect width="0.09615384615384616em" height="0.301934042854013em" x="5.5769230769230775vw" y="2.698065957145987em" fill="#aaa"/><rect width="0.09615384615384616em" height="1.0268734058785909em" x="5.673076923076923vw" y="1.9731265941214091em" fill="#aaa"/><rect width="0.09615384615384616em" height="0.566562557107035em" x="5.769230769230769vw" y="2.433437442892965em" fill="#aaa"/><rect width="0.09615384615384616em" height="0.8518598048189046em" x="5.865384615384616vw" y="2.1481401951810954em" fill="#aaa"/><rect width="0.09615384615384616em" height="0.4685044285165979em" x="5.961538461538462vw" y="2.531495571483402em" fill="#aaa"/><rect width="0.09615384615384616em" height="0.3456051524373118em" x="6.057692307692308vw" y="2.6543948475626884em" fill="#aaa"/><rect width="0.09615384615384616em" height="0.4022694760147575em" x="6.153846153846154vw" y="2.5977305239852426em" fill="#aaa"/><rect width="0.09615384615384616em" height="0.6793190697524628em" x="6.25vw" y="2.320680930247537em" fill="#aaa"/><rect width="0.09615384615384616em" height="0.7210149527294576em" x="6.346153846153847vw" y="2.2789850472705426em" fill="#aaa"/><rect width="0.09615384615384616em" height="1.1269076554172428em" x="6.4423076923076925vw" y="1.8730923445827572em" fill="#aaa"/><rect width="0.09615384615384616em" height="0.6043531387270153em" x="6.538461538461539vw" y="2.3956468612729847em" fill="#aaa"/><rect width="0.09615384615384616em" height="0.6295703951294171em" x="6.634615384615385vw" y="2.3704296048705826em" fill="#aaa"/><rect width="0.09615384615384616em" height="0.8544000224091793em" x="6.730769230769231vw" y="2.1455999775908206em" fill="#aaa"/><rect width="0.09615384615384616em" height="0.6182950315757381em" x="6.8269230769230775vw" y="2.3817049684242617em" fill="#aaa"/><rect width="0.09615384615384616em" height="0.6904950289172075em" x="6.923076923076923vw" y="2.3095049710827924em" fill="#aaa"/><rect width="0.09615384615384616em" height="1.0107955842543817em" x="7.01923076923077vw" y="1.9892044157456183em" fill="#aaa"/><rect width="0.09615384615384616em" height="0.8493401841253956em" x="7.115384615384616vw" y="2.1506598158746044em" fill="#aaa"/><rect width="0.09615384615384616em" height="0.8967119135852617em" x="7.211538461538462vw" y="2.1032880864147385em" fill="#aaa"/><rect width="0.09615384615384616em" height="0.980605568554669em" x="7.307692307692308vw" y="2.019394431445331em" fill="#aaa"/><rect width="0.09615384615384616em" height="0.4007375845649802em" x="7.403846153846154vw" y="2.5992624154350197em" fill="#aaa"/><rect width="0.09615384615384616em" height="0.7108900494507507em" x="7.5vw" y="2.2891099505492494em" fill="#aaa"/><rect width="0.09615384615384616em" height="0.8140482207510757em" x="7.596153846153847vw" y="2.1859517792489243em" fill="#aaa"/><rect width="0.09615384615384616em" height="0.5304439684354263em" x="7.6923076923076925vw" y="2.469556031564574em" fill="#aaa"/><rect width="0.09615384615384616em" height="0.5848573968922423em" x="7.788461538461539vw" y="2.415142603107758em" fill="#aaa"/><rect width="0.09615384615384616em" height="0.7138624521677626em" x="7.884615384615385vw" y="2.2861375478322374em" fill="#aaa"/><rect width="0.09615384615384616em" height="0.5532406920771687em" x="7.980769230769231vw" y="2.4467593079228314em" fill="#aaa"/><rect width="0.09615384615384616em" height="0.5767486456170163em" x="8.076923076923077vw" y="2.423251354382984em" fill="#aaa"/><rect width="0.09615384615384616em" height="0.7064708290686178em" x="8.173076923076923vw" y="2.2935291709313823em" fill="#aaa"/><rect width="0.09615384615384616em" height="1.4099222159696776em" x="8.26923076923077vw" y="1.5900777840303224em" fill="#aaa"/><rect width="0.09615384615384616em" height="0.7753092569860579em" x="8.365384615384615vw" y="2.224690743013942em" fill="#aaa"/><rect width="0.09615384615384616em" height="0.8325488676007169em" x="8.461538461538462vw" y="2.1674511323992833em" fill="#aaa"/><rect width="0.09615384615384616em" height="1.101194018028483em" x="8.557692307692308vw" y="1.898805981971517em" fill="#aaa"/><rect width="0.09615384615384616em" height="1.5384684936480895em" x="8.653846153846155vw" y="1.4615315063519105em" fill="#aaa"/><rect width="0.09615384615384616em" height="1.3915005628257244em" x="8.75vw" y="1.6084994371742756em" fill="#aaa"/><rect width="0.09615384615384616em" height="1.597561880355569em" x="8.846153846153847vw" y="1.402438119644431em" fill="#aaa"/><rect width="0.09615384615384616em" height="0.9719508669135886em" x="8.942307692307693vw" y="2.0280491330864114em" fill="#aaa"/><rect width="0.09615384615384616em" height="1.1398302988379752em" x="9.038461538461538vw" y="1.8601697011620248em" fill="#aaa"/><rect width="0.09615384615384616em" height="0.9079479324193416em" x="9.134615384615385vw" y="2.092052067580658em" fill="#aaa"/><rect width="0.09615384615384616em" height="0.837226255549206em" x="9.230769230769232vw" y="2.162773744450794em" fill="#aaa"/><rect width="0.09615384615384616em" height="0.9877638190949756em" x="9.326923076923077vw" y="2.0122361809050244em" fill="#aaa"/><rect width="0.09615384615384616em" height="0.6395815460365774em" x="9.423076923076923vw" y="2.3604184539634225em" fill="#aaa"/><rect width="0.09615384615384616em" height="0.769227425960804em" x="9.51923076923077vw" y="2.230772574039196em" fill="#aaa"/><rect width="0.09615384615384616em" height="0.7138459493499514em" x="9.615384615384617vw" y="2.2861540506500484em" fill="#aaa"/><rect width="0.09615384615384616em" height="0.5899766066942006em" x="9.711538461538462vw" y="2.4100233933057993em" fill="#aaa"/><rect width="0.09615384615384616em" height="0.7445668638712645em" x="9.807692307692308vw" y="2.2554331361287354em" fill="#aaa"/><rect width="0.09615384615384616em" height="0.4939848925799604em" x="9.903846153846155vw" y="2.5060151074200396em" fill="#aaa"/></svg>