<?xml version="1.0" standalone="no"?>
<svg xmlns:xlink="http://www.w3.org/1999/xlink" xmlns="http://www.w3.org/2000/svg" class="topic-graph" style="width: 10vw; height: 3em; text-align: center;"><rect width="0.09615384615384616em" height="0.2780377782160992em" x="0vw" y="2.721962221783901em" fill="#aaa"/><rect width="0.09615384615384616em" height="0.6461152182802979em" x="0.09615384615384616vw" y="2.353884781719702em" fill="#aaa"/><rect width="0.09615384615384616em" height="0.9123761150593193em" x="0.19230769230769232vw" y="2.0876238849406805em" fill="#aaa"/><rect width="0.09615384615384616em" height="0.3983217953480246em" x="0.2884615384615385vw" y="2.6016782046519755em" fill="#aaa"/><rect width="0.09615384615384616em" height="0.575223068672184em" x="0.38461538461538464vw" y="2.4247769313278162em" fill="#aaa"/><rect width="0.09615384615384616em" height="0.6196129351235631em" x="0.4807692307692308vw" y="2.380387064876437em" fill="#aaa"/><rect width="0.09615384615384616em" height="0.8099730292852674em" x="0.576923076923077vw" y="2.1900269707147326em" fill="#aaa"/><rect width="0.09615384615384616em" height="3em" x="0.6730769230769231vw" y="0em" fill="#aaa"/><rect width="0.09615384615384616em" height="0.29860781320190033em" x="0.7692307692307693vw" y="2.7013921867981em" fill="#aaa"/><rect width="0.09615384615384616em" height="0.22776593012657384em" x="0.8653846153846154vw" y="2.7722340698734262em" fill="#aaa"/><rect width="0.09615384615384616em" height="0.1300124522795407em" x="0.9615384615384616vw" y="2.8699875477204593em" fill="#aaa"/><rect width="0.09615384615384616em" height="0.34886540120657955em" x="1.0576923076923077vw" y="2.6511345987934205em" fill="#aaa"/><rect width="0.09615384615384616em" height="0.2606527889159619em" x="1.153846153846154vw" y="2.7393472110840382em" fill="#aaa"/><rect width="0.09615384615384616em" height="0.3445007004961029em" x="1.25vw" y="2.655499299503897em" fill="#aaa"/><rect width="0.09615384615384616em" height="0.7915116069076155em" x="1.3461538461538463vw" y="2.2084883930923844em" fill="#aaa"/><rect width="0.09615384615384616em" height="0.28980161120201886em" x="1.4423076923076923vw" y="2.710198388797981em" fill="#aaa"/><rect width="0.09615384615384616em" height="0.21932366942392384em" x="1.5384615384615385vw" y="2.780676330576076em" fill="#aaa"/><rect width="0.09615384615384616em" height="0.6272144436363596em" x="1.6346153846153848vw" y="2.3727855563636404em" fill="#aaa"/><rect width="0.09615384615384616em" height="0.3185354865552767em" x="1.7307692307692308vw" y="2.6814645134447233em" fill="#aaa"/><rect width="0.09615384615384616em" height="0.22092126393768952em" x="1.826923076923077vw" y="2.7790787360623104em" fill="#aaa"/><rect width="0.09615384615384616em" height="0.2225391359777877em" x="1.9230769230769231vw" y="2.7774608640222125em" fill="#aaa"/><rect width="0.09615384615384616em" height="0.5613730082831035em" x="2.019230769230769vw" y="2.4386269917168963em" fill="#aaa"/><rect width="0.09615384615384616em" height="0.5848933552107585em" x="2.1153846153846154vw" y="2.4151066447892413em" fill="#aaa"/><rect width="0.09615384615384616em" height="0.776014163300168em" x="2.2115384615384617vw" y="2.223985836699832em" fill="#aaa"/><rect width="0.09615384615384616em" height="0.31285772390158406em" x="2.307692307692308vw" y="2.687142276098416em" fill="#aaa"/><rect width="0.09615384615384616em" height="0.21348210589399577em" x="2.403846153846154vw" y="2.7865178941060043em" fill="#aaa"/><rect width="0.09615384615384616em" height="0.4219318268798519em" x="2.5vw" y="2.578068173120148em" fill="#aaa"/><rect width="0.09615384615384616em" height="0.44610330695424416em" x="2.5961538461538463vw" y="2.553896693045756em" fill="#aaa"/><rect width="0.09615384615384616em" height="0.23120683018552143em" x="2.6923076923076925vw" y="2.7687931698144785em" fill="#aaa"/><rect width="0.09615384615384616em" height="0.11975519800364015em" x="2.7884615384615388vw" y="2.88024480199636em" fill="#aaa"/><rect width="0.09615384615384616em" height="0.2342415849643771em" x="2.8846153846153846vw" y="2.7657584150356227em" fill="#aaa"/><rect width="0.09615384615384616em" height="0.16711440065580174em" x="2.980769230769231vw" y="2.8328855993441984em" fill="#aaa"/><rect width="0.09615384615384616em" height="0.3324087504224148em" x="3.076923076923077vw" y="2.667591249577585em" fill="#aaa"/><rect width="0.09615384615384616em" height="0.8090386181930919em" x="3.1730769230769234vw" y="2.190961381806908em" fill="#aaa"/><rect width="0.09615384615384616em" height="0.5126795551736169em" x="3.2692307692307696vw" y="2.4873204448263833em" fill="#aaa"/><rect width="0.09615384615384616em" height="0.3337103638192954em" x="3.3653846153846154vw" y="2.6662896361807045em" fill="#aaa"/><rect width="0.09615384615384616em" height="0.24186341223612645em" x="3.4615384615384617vw" y="2.7581365877638735em" fill="#aaa"/><rect width="0.09615384615384616em" height="0.40560881869643195em" x="3.557692307692308vw" y="2.594391181303568em" fill="#aaa"/><rect width="0.09615384615384616em" height="0.5304558733429571em" x="3.653846153846154vw" y="2.469544126657043em" fill="#aaa"/><rect width="0.09615384615384616em" height="0.6845420231056029em" x="3.75vw" y="2.3154579768943973em" fill="#aaa"/><rect width="0.09615384615384616em" height="0.15968147146212164em" x="3.8461538461538463vw" y="2.8403185285378783em" fill="#aaa"/><rect width="0.09615384615384616em" height="0.32034295199856205em" x="3.9423076923076925vw" y="2.679657048001438em" fill="#aaa"/><rect width="0.09615384615384616em" height="0.2124316187612171em" x="4.038461538461538vw" y="2.787568381238783em" fill="#aaa"/><rect width="0.09615384615384616em" height="0.3997364853498175em" x="4.134615384615385vw" y="2.6002635146501825em" fill="#aaa"/><rect width="0.09615384615384616em" height="0.612753188375073em" x="4.230769230769231vw" y="2.387246811624927em" fill="#aaa"/><rect width="0.09615384615384616em" height="0.29297848659504433em" x="4.3269230769230775vw" y="2.7070215134049556em" fill="#aaa"/><rect width="0.09615384615384616em" height="0.5579845182407465em" x="4.423076923076923vw" y="2.4420154817592534em" fill="#aaa"/><rect width="0.09615384615384616em" height="0.37499414158324773em" x="4.519230769230769vw" y="2.625005858416752em" fill="#aaa"/><rect width="0.09615384615384616em" height="0.4338907517823394em" x="4.615384615384616vw" y="2.5661092482176606em" fill="#aaa"/><rect width="0.09615384615384616em" height="1.7573257179974338em" x="4.711538461538462vw" y="1.2426742820025662em" fill="#aaa"/><rect width="0.09615384615384616em" height="1.6739708821732497em" x="4.807692307692308vw" y="1.3260291178267503em" fill="#aaa"/><rect width="0.09615384615384616em" height="1.4863485411344137em" x="4.903846153846154vw" y="1.5136514588655863em" fill="#aaa"/><rect width="0.09615384615384616em" height="2.843937076487263em" x="5vw" y="0.15606292351273687em" fill="#aaa"/><rect width="0.09615384615384616em" height="1.4783819191462166em" x="5.096153846153847vw" y="1.5216180808537834em" fill="#aaa"/><rect width="0.09615384615384616em" height="1.510582007028664em" x="5.1923076923076925vw" y="1.489417992971336em" fill="#aaa"/><rect width="0.09615384615384616em" height="1.876139602193423em" x="5.288461538461538vw" y="1.123860397806577em" fill="#aaa"/><rect width="0.09615384615384616em" height="1.1036626303619512em" x="5.384615384615385vw" y="1.8963373696380488em" fill="#aaa"/><rect width="0.09615384615384616em" height="1.1121297457819206em" x="5.480769230769231vw" y="1.8878702542180794em" fill="#aaa"/><rect width="0.09615384615384616em" height="0.6076349714982405em" x="5.5769230769230775vw" y="2.3923650285017595em" fill="#aaa"/><rect width="0.09615384615384616em" height="1.2153176633809903em" x="5.673076923076923vw" y="1.7846823366190097em" fill="#aaa"/><rect width="0.09615384615384616em" height="0.9328213623893523em" x="5.769230769230769vw" y="2.0671786376106476em" fill="#aaa"/><rect width="0.09615384615384616em" height="0.35887101978192737em" x="5.865384615384616vw" y="2.6411289802180726em" fill="#aaa"/><rect width="0.09615384615384616em" height="0.7963494534130393em" x="5.961538461538462vw" y="2.2036505465869607em" fill="#aaa"/><rect width="0.09615384615384616em" height="0.8709630232525156em" x="6.057692307692308vw" y="2.1290369767474844em" fill="#aaa"/><rect width="0.09615384615384616em" height="0.5526310421776764em" x="6.153846153846154vw" y="2.4473689578223237em" fill="#aaa"/><rect width="0.09615384615384616em" height="0.8719015752783505em" x="6.25vw" y="2.1280984247216495em" fill="#aaa"/><rect width="0.09615384615384616em" height="0.4561851231210905em" x="6.346153846153847vw" y="2.5438148768789093em" fill="#aaa"/><rect width="0.09615384615384616em" height="0.4941984907980512em" x="6.4423076923076925vw" y="2.505801509201949em" fill="#aaa"/><rect width="0.09615384615384616em" height="0.4798773551807064em" x="6.538461538461539vw" y="2.5201226448192937em" fill="#aaa"/><rect width="0.09615384615384616em" height="0.5506841906811999em" x="6.634615384615385vw" y="2.4493158093188em" fill="#aaa"/><rect width="0.09615384615384616em" height="0.22359055979046194em" x="6.730769230769231vw" y="2.7764094402095383em" fill="#aaa"/><rect width="0.09615384615384616em" height="0.4608913083096158em" x="6.8269230769230775vw" y="2.5391086916903842em" fill="#aaa"/><rect width="0.09615384615384616em" height="0.5335731054276189em" x="6.923076923076923vw" y="2.466426894572381em" fill="#aaa"/><rect width="0.09615384615384616em" height="1.8773856659655879em" x="7.01923076923077vw" y="1.1226143340344121em" fill="#aaa"/><rect width="0.09615384615384616em" height="1.929762318095011em" x="7.115384615384616vw" y="1.070237681904989em" fill="#aaa"/><rect width="0.09615384615384616em" height="0.6309222947595188em" x="7.211538461538462vw" y="2.369077705240481em" fill="#aaa"/><rect width="0.09615384615384616em" height="0.9101820349124098em" x="7.307692307692308vw" y="2.0898179650875903em" fill="#aaa"/><rect width="0.09615384615384616em" height="0.9056948645339453em" x="7.403846153846154vw" y="2.0943051354660547em" fill="#aaa"/><rect width="0.09615384615384616em" height="0.6686122109690713em" x="7.5vw" y="2.331387789030929em" fill="#aaa"/><rect width="0.09615384615384616em" height="1.3272764129347057em" x="7.596153846153847vw" y="1.6727235870652943em" fill="#aaa"/><rect width="0.09615384615384616em" height="1.3626637459229065em" x="7.6923076923076925vw" y="1.6373362540770935em" fill="#aaa"/><rect width="0.09615384615384616em" height="0.803508418178985em" x="7.788461538461539vw" y="2.196491581821015em" fill="#aaa"/><rect width="0.09615384615384616em" height="0.5400820694165275em" x="7.884615384615385vw" y="2.4599179305834724em" fill="#aaa"/><rect width="0.09615384615384616em" height="0.5586391694307178em" x="7.980769230769231vw" y="2.441360830569282em" fill="#aaa"/><rect width="0.09615384615384616em" height="0.4547495588741153em" x="8.076923076923077vw" y="2.5452504411258845em" fill="#aaa"/><rect width="0.09615384615384616em" height="0.3976645011680377em" x="8.173076923076923vw" y="2.6023354988319625em" fill="#aaa"/><rect width="0.09615384615384616em" height="0.4332569134793942em" x="8.26923076923077vw" y="2.5667430865206056em" fill="#aaa"/><rect width="0.09615384615384616em" height="0.265672802922484em" x="8.365384615384615vw" y="2.734327197077516em" fill="#aaa"/><rect width="0.09615384615384616em" height="0.6052812330217039em" x="8.461538461538462vw" y="2.394718766978296em" fill="#aaa"/><rect width="0.09615384615384616em" height="0.4109264234011665em" x="8.557692307692308vw" y="2.5890735765988335em" fill="#aaa"/><rect width="0.09615384615384616em" height="0.4326237606161736em" x="8.653846153846155vw" y="2.5673762393838264em" fill="#aaa"/><rect width="0.09615384615384616em" height="0.8939250915653085em" x="8.75vw" y="2.1060749084346915em" fill="#aaa"/><rect width="0.09615384615384616em" height="0.7777501067685886em" x="8.846153846153847vw" y="2.222249893231411em" fill="#aaa"/><rect width="0.09615384615384616em" height="0.7863570524075587em" x="8.942307692307693vw" y="2.213642947592441em" fill="#aaa"/><rect width="0.09615384615384616em" height="0.6764779825892918em" x="9.038461538461538vw" y="2.323522017410708em" fill="#aaa"/><rect width="0.09615384615384616em" height="1.4820786399202264em" x="9.134615384615385vw" y="1.5179213600797736em" fill="#aaa"/><rect width="0.09615384615384616em" height="0.987955973679342em" x="9.230769230769232vw" y="2.012044026320658em" fill="#aaa"/><rect width="0.09615384615384616em" height="0.7218343673811136em" x="9.326923076923077vw" y="2.2781656326188866em" fill="#aaa"/><rect width="0.09615384615384616em" height="0.7466391790261001em" x="9.423076923076923vw" y="2.2533608209739em" fill="#aaa"/><rect width="0.09615384615384616em" height="0.591257174231069em" x="9.51923076923077vw" y="2.4087428257689307em" fill="#aaa"/><rect width="0.09615384615384616em" height="0.4141334768301355em" x="9.615384615384617vw" y="2.5858665231698645em" fill="#aaa"/><rect width="0.09615384615384616em" height="0.4433333846399841em" x="9.711538461538462vw" y="2.5566666153600157em" fill="#aaa"/><rect width="0.09615384615384616em" height="0.44603933861471673em" x="9.807692307692308vw" y="2.5539606613852834em" fill="#aaa"/><rect width="0.09615384615384616em" height="0.44340878648573145em" x="9.903846153846155vw" y="2.5565912135142685em" fill="#aaa"/></svg>