<?xml version="1.0" standalone="no"?>
<svg xmlns:xlink="http://www.w3.org/1999/xlink" xmlns="http://www.w3.org/2000/svg" class="topic-graph" style="width: 10vw; height: 3em; text-align: center;"><rect width="0.09615384615384616em" height="0.5253796232313241em" x="0vw" y="2.4746203767686756em" fill="#aaa"/><rect width="0.09615384615384616em" height="1.315396267421003em" x="0.09615384615384616vw" y="1.684603732578997em" fill="#aaa"/><rect width="0.09615384615384616em" height="0.37015757514230263em" x="0.19230769230769232vw" y="2.6298424248576975em" fill="#aaa"/><rect width="0.09615384615384616em" height="0.18708712231657354em" x="0.2884615384615385vw" y="2.8129128776834262em" fill="#aaa"/><rect width="0.09615384615384616em" height="0.1913502243554165em" x="0.38461538461538464vw" y="2.8086497756445836em" fill="#aaa"/><rect width="0.09615384615384616em" height="0.21163152001020835em" x="0.4807692307692308vw" y="2.7883684799897916em" fill="#aaa"/><rect width="0.09615384615384616em" height="0.15799080107401112em" x="0.576923076923077vw" y="2.842009198925989em" fill="#aaa"/><rect width="0.09615384615384616em" height="0.17064408137087086em" x="0.6730769230769231vw" y="2.8293559186291293em" fill="#aaa"/><rect width="0.09615384615384616em" height="0.47670352512822867em" x="0.7692307692307693vw" y="2.5232964748717714em" fill="#aaa"/><rect width="0.09615384615384616em" height="0.22766672636237123em" x="0.8653846153846154vw" y="2.7723332736376287em" fill="#aaa"/><rect width="0.09615384615384616em" height="0.2771617411928422em" x="0.9615384615384616vw" y="2.722838258807158em" fill="#aaa"/><rect width="0.09615384615384616em" height="0.31778216085443706em" x="1.0576923076923077vw" y="2.682217839145563em" fill="#aaa"/><rect width="0.09615384615384616em" height="0.32861143539030524em" x="1.153846153846154vw" y="2.671388564609695em" fill="#aaa"/><rect width="0.09615384615384616em" height="0.5559852491930404em" x="1.25vw" y="2.44401475080696em" fill="#aaa"/><rect width="0.09615384615384616em" height="0.5162785750137053em" x="1.3461538461538463vw" y="2.4837214249862947em" fill="#aaa"/><rect width="0.09615384615384616em" height="0.4414022616127213em" x="1.4423076923076923vw" y="2.5585977383872787em" fill="#aaa"/><rect width="0.09615384615384616em" height="0.3432671916315944em" x="1.5384615384615385vw" y="2.6567328083684054em" fill="#aaa"/><rect width="0.09615384615384616em" height="0.7565840342169035em" x="1.6346153846153848vw" y="2.2434159657830968em" fill="#aaa"/><rect width="0.09615384615384616em" height="0.23962789551791536em" x="1.7307692307692308vw" y="2.7603721044820846em" fill="#aaa"/><rect width="0.09615384615384616em" height="0.36501140586555436em" x="1.826923076923077vw" y="2.6349885941344455em" fill="#aaa"/><rect width="0.09615384615384616em" height="0.2879920084445986em" x="1.9230769230769231vw" y="2.712007991555401em" fill="#aaa"/><rect width="0.09615384615384616em" height="0.31249472101470727em" x="2.019230769230769vw" y="2.687505278985293em" fill="#aaa"/><rect width="0.09615384615384616em" height="0.3195648994459652em" x="2.1153846153846154vw" y="2.6804351005540346em" fill="#aaa"/><rect width="0.09615384615384616em" height="0.22010532096462881em" x="2.2115384615384617vw" y="2.779894679035371em" fill="#aaa"/><rect width="0.09615384615384616em" height="0.2988448585783537em" x="2.307692307692308vw" y="2.7011551414216464em" fill="#aaa"/><rect width="0.09615384615384616em" height="0.15420238754692928em" x="2.403846153846154vw" y="2.8457976124530706em" fill="#aaa"/><rect width="0.09615384615384616em" height="0.34718177979216286em" x="2.5vw" y="2.652818220207837em" fill="#aaa"/><rect width="0.09615384615384616em" height="0.17988158955108455em" x="2.5961538461538463vw" y="2.8201184104489156em" fill="#aaa"/><rect width="0.09615384615384616em" height="0.4180255294684181em" x="2.6923076923076925vw" y="2.581974470531582em" fill="#aaa"/><rect width="0.09615384615384616em" height="0.5344737264858146em" x="2.7884615384615388vw" y="2.465526273514185em" fill="#aaa"/><rect width="0.09615384615384616em" height="0.3522666869918815em" x="2.8846153846153846vw" y="2.6477333130081186em" fill="#aaa"/><rect width="0.09615384615384616em" height="0.24645532261596503em" x="2.980769230769231vw" y="2.753544677384035em" fill="#aaa"/><rect width="0.09615384615384616em" height="0.16917139108556525em" x="3.076923076923077vw" y="2.8308286089144348em" fill="#aaa"/><rect width="0.09615384615384616em" height="0.2924965920224052em" x="3.1730769230769234vw" y="2.707503407977595em" fill="#aaa"/><rect width="0.09615384615384616em" height="0.29232248346167505em" x="3.2692307692307696vw" y="2.707677516538325em" fill="#aaa"/><rect width="0.09615384615384616em" height="0.3127399922110615em" x="3.3653846153846154vw" y="2.6872600077889386em" fill="#aaa"/><rect width="0.09615384615384616em" height="0.31395314099836724em" x="3.4615384615384617vw" y="2.6860468590016326em" fill="#aaa"/><rect width="0.09615384615384616em" height="0.4230864757172147em" x="3.557692307692308vw" y="2.5769135242827854em" fill="#aaa"/><rect width="0.09615384615384616em" height="0.310603171121585em" x="3.653846153846154vw" y="2.689396828878415em" fill="#aaa"/><rect width="0.09615384615384616em" height="0.30534428071733727em" x="3.75vw" y="2.694655719282663em" fill="#aaa"/><rect width="0.09615384615384616em" height="0.364613952565373em" x="3.8461538461538463vw" y="2.635386047434627em" fill="#aaa"/><rect width="0.09615384615384616em" height="0.408548159218153em" x="3.9423076923076925vw" y="2.591451840781847em" fill="#aaa"/><rect width="0.09615384615384616em" height="0.3700976542417594em" x="4.038461538461538vw" y="2.6299023457582407em" fill="#aaa"/><rect width="0.09615384615384616em" height="0.17818237424847072em" x="4.134615384615385vw" y="2.821817625751529em" fill="#aaa"/><rect width="0.09615384615384616em" height="0.4004023377300274em" x="4.230769230769231vw" y="2.5995976622699724em" fill="#aaa"/><rect width="0.09615384615384616em" height="0.2612410597000421em" x="4.3269230769230775vw" y="2.7387589402999577em" fill="#aaa"/><rect width="0.09615384615384616em" height="0.7469545478534076em" x="4.423076923076923vw" y="2.2530454521465924em" fill="#aaa"/><rect width="0.09615384615384616em" height="0.30246841567951543em" x="4.519230769230769vw" y="2.6975315843204846em" fill="#aaa"/><rect width="0.09615384615384616em" height="0.5297840223343226em" x="4.615384615384616vw" y="2.4702159776656774em" fill="#aaa"/><rect width="0.09615384615384616em" height="0.33946253297756407em" x="4.711538461538462vw" y="2.660537467022436em" fill="#aaa"/><rect width="0.09615384615384616em" height="0.39816660099303114em" x="4.807692307692308vw" y="2.601833399006969em" fill="#aaa"/><rect width="0.09615384615384616em" height="0.32597876719745em" x="4.903846153846154vw" y="2.67402123280255em" fill="#aaa"/><rect width="0.09615384615384616em" height="0.42331654875336466em" x="5vw" y="2.5766834512466352em" fill="#aaa"/><rect width="0.09615384615384616em" height="0.4457979544192806em" x="5.096153846153847vw" y="2.5542020455807193em" fill="#aaa"/><rect width="0.09615384615384616em" height="0.12104242410594378em" x="5.1923076923076925vw" y="2.878957575894056em" fill="#aaa"/><rect width="0.09615384615384616em" height="0.4332529751458445em" x="5.288461538461538vw" y="2.5667470248541555em" fill="#aaa"/><rect width="0.09615384615384616em" height="0.21342899148334915em" x="5.384615384615385vw" y="2.786571008516651em" fill="#aaa"/><rect width="0.09615384615384616em" height="0.34930221646066845em" x="5.480769230769231vw" y="2.6506977835393317em" fill="#aaa"/><rect width="0.09615384615384616em" height="0.42982353722302635em" x="5.5769230769230775vw" y="2.5701764627769736em" fill="#aaa"/><rect width="0.09615384615384616em" height="0.45510945881177467em" x="5.673076923076923vw" y="2.5448905411882254em" fill="#aaa"/><rect width="0.09615384615384616em" height="0.2198572718660171em" x="5.769230769230769vw" y="2.780142728133983em" fill="#aaa"/><rect width="0.09615384615384616em" height="0.6229797854548095em" x="5.865384615384616vw" y="2.3770202145451904em" fill="#aaa"/><rect width="0.09615384615384616em" height="0.5208894340150543em" x="5.961538461538462vw" y="2.4791105659849455em" fill="#aaa"/><rect width="0.09615384615384616em" height="0.31132526205128835em" x="6.057692307692308vw" y="2.6886747379487117em" fill="#aaa"/><rect width="0.09615384615384616em" height="0.5375450680644985em" x="6.153846153846154vw" y="2.4624549319355014em" fill="#aaa"/><rect width="0.09615384615384616em" height="0.3881910515294176em" x="6.25vw" y="2.6118089484705824em" fill="#aaa"/><rect width="0.09615384615384616em" height="0.6045154213432345em" x="6.346153846153847vw" y="2.3954845786567653em" fill="#aaa"/><rect width="0.09615384615384616em" height="0.9446900190420471em" x="6.4423076923076925vw" y="2.055309980957953em" fill="#aaa"/><rect width="0.09615384615384616em" height="1.319969426616133em" x="6.538461538461539vw" y="1.680030573383867em" fill="#aaa"/><rect width="0.09615384615384616em" height="0.39945145432890283em" x="6.634615384615385vw" y="2.600548545671097em" fill="#aaa"/><rect width="0.09615384615384616em" height="1.0294672636968267em" x="6.730769230769231vw" y="1.9705327363031733em" fill="#aaa"/><rect width="0.09615384615384616em" height="0.7829885272752974em" x="6.8269230769230775vw" y="2.2170114727247023em" fill="#aaa"/><rect width="0.09615384615384616em" height="1.3680917914969515em" x="6.923076923076923vw" y="1.6319082085030485em" fill="#aaa"/><rect width="0.09615384615384616em" height="0.5871898735238411em" x="7.01923076923077vw" y="2.412810126476159em" fill="#aaa"/><rect width="0.09615384615384616em" height="0.6669829264034486em" x="7.115384615384616vw" y="2.3330170735965514em" fill="#aaa"/><rect width="0.09615384615384616em" height="1.2495401153668542em" x="7.211538461538462vw" y="1.7504598846331458em" fill="#aaa"/><rect width="0.09615384615384616em" height="1.4030756206046522em" x="7.307692307692308vw" y="1.5969243793953478em" fill="#aaa"/><rect width="0.09615384615384616em" height="1.56334543639861em" x="7.403846153846154vw" y="1.43665456360139em" fill="#aaa"/><rect width="0.09615384615384616em" height="1.3667006869750988em" x="7.5vw" y="1.6332993130249012em" fill="#aaa"/><rect width="0.09615384615384616em" height="1.9755275228780498em" x="7.596153846153847vw" y="1.0244724771219502em" fill="#aaa"/><rect width="0.09615384615384616em" height="1.6222977405007681em" x="7.6923076923076925vw" y="1.3777022594992319em" fill="#aaa"/><rect width="0.09615384615384616em" height="1.46808529377959em" x="7.788461538461539vw" y="1.53191470622041em" fill="#aaa"/><rect width="0.09615384615384616em" height="2.599847149730686em" x="7.884615384615385vw" y="0.4001528502693139em" fill="#aaa"/><rect width="0.09615384615384616em" height="3em" x="7.980769230769231vw" y="0em" fill="#aaa"/><rect width="0.09615384615384616em" height="2.632154843738838em" x="8.076923076923077vw" y="0.3678451562611622em" fill="#aaa"/><rect width="0.09615384615384616em" height="2.249240891765141em" x="8.173076923076923vw" y="0.7507591082348588em" fill="#aaa"/><rect width="0.09615384615384616em" height="1.5019298034937314em" x="8.26923076923077vw" y="1.4980701965062686em" fill="#aaa"/><rect width="0.09615384615384616em" height="1.992713868859572em" x="8.365384615384615vw" y="1.007286131140428em" fill="#aaa"/><rect width="0.09615384615384616em" height="1.0266386556608715em" x="8.461538461538462vw" y="1.9733613443391285em" fill="#aaa"/><rect width="0.09615384615384616em" height="1.6860700842657006em" x="8.557692307692308vw" y="1.3139299157342994em" fill="#aaa"/><rect width="0.09615384615384616em" height="1.3817235023196672em" x="8.653846153846155vw" y="1.6182764976803328em" fill="#aaa"/><rect width="0.09615384615384616em" height="1.5093055013516685em" x="8.75vw" y="1.4906944986483315em" fill="#aaa"/><rect width="0.09615384615384616em" height="1.1937555229455992em" x="8.846153846153847vw" y="1.8062444770544008em" fill="#aaa"/><rect width="0.09615384615384616em" height="1.0819147524279709em" x="8.942307692307693vw" y="1.9180852475720291em" fill="#aaa"/><rect width="0.09615384615384616em" height="1.1358171284369505em" x="9.038461538461538vw" y="1.8641828715630495em" fill="#aaa"/><rect width="0.09615384615384616em" height="0.8485585014059627em" x="9.134615384615385vw" y="2.1514414985940373em" fill="#aaa"/><rect width="0.09615384615384616em" height="1.742468607063513em" x="9.230769230769232vw" y="1.257531392936487em" fill="#aaa"/><rect width="0.09615384615384616em" height="1.5875827460279832em" x="9.326923076923077vw" y="1.4124172539720168em" fill="#aaa"/><rect width="0.09615384615384616em" height="0.903698865003217em" x="9.423076923076923vw" y="2.096301134996783em" fill="#aaa"/><rect width="0.09615384615384616em" height="1.0907946181614068em" x="9.51923076923077vw" y="1.9092053818385932em" fill="#aaa"/><rect width="0.09615384615384616em" height="1.5197305155801382em" x="9.615384615384617vw" y="1.4802694844198618em" fill="#aaa"/><rect width="0.09615384615384616em" height="1.3108219052616354em" x="9.711538461538462vw" y="1.6891780947383646em" fill="#aaa"/><rect width="0.09615384615384616em" height="1.6982034158267738em" x="9.807692307692308vw" y="1.3017965841732262em" fill="#aaa"/><rect width="0.09615384615384616em" height="1.5078135216490736em" x="9.903846153846155vw" y="1.4921864783509264em" fill="#aaa"/></svg>