<?xml version="1.0" standalone="no"?>
<svg xmlns:xlink="http://www.w3.org/1999/xlink" xmlns="http://www.w3.org/2000/svg" class="topic-graph" style="width: 10vw; height: 3em; text-align: center;"><rect width="0.09615384615384616em" height="0.03249432175912723em" x="0vw" y="2.967505678240873em" fill="#aaa"/><rect width="0.09615384615384616em" height="2.1522256305568184em" x="0.09615384615384616vw" y="0.8477743694431816em" fill="#aaa"/><rect width="0.09615384615384616em" height="0.026867185774022084em" x="0.19230769230769232vw" y="2.973132814225978em" fill="#aaa"/><rect width="0.09615384615384616em" height="0.09220765956712719em" x="0.2884615384615385vw" y="2.9077923404328727em" fill="#aaa"/><rect width="0.09615384615384616em" height="0.9216883949011974em" x="0.38461538461538464vw" y="2.0783116050988024em" fill="#aaa"/><rect width="0.09615384615384616em" height="0.07992492772771864em" x="0.4807692307692308vw" y="2.9200750722722812em" fill="#aaa"/><rect width="0.09615384615384616em" height="0.0629118242210239em" x="0.576923076923077vw" y="2.937088175778976em" fill="#aaa"/><rect width="0.09615384615384616em" height="0.015973887430841348em" x="0.6730769230769231vw" y="2.9840261125691585em" fill="#aaa"/><rect width="0.09615384615384616em" height="0.04536274729940251em" x="0.7692307692307693vw" y="2.9546372527005973em" fill="#aaa"/><rect width="0.09615384615384616em" height="0.10704654371404645em" x="0.8653846153846154vw" y="2.8929534562859534em" fill="#aaa"/><rect width="0.09615384615384616em" height="0.05157689398193169em" x="0.9615384615384616vw" y="2.948423106018068em" fill="#aaa"/><rect width="0.09615384615384616em" height="0.09324906791405194em" x="1.0576923076923077vw" y="2.906750932085948em" fill="#aaa"/><rect width="0.09615384615384616em" height="0.04269869296856084em" x="1.153846153846154vw" y="2.957301307031439em" fill="#aaa"/><rect width="0.09615384615384616em" height="0.12434198944243315em" x="1.25vw" y="2.875658010557567em" fill="#aaa"/><rect width="0.09615384615384616em" height="0.02674455831944607em" x="1.3461538461538463vw" y="2.973255441680554em" fill="#aaa"/><rect width="0.09615384615384616em" height="0.09562520226162194em" x="1.4423076923076923vw" y="2.9043747977383783em" fill="#aaa"/><rect width="0.09615384615384616em" height="0.03535728571212449em" x="1.5384615384615385vw" y="2.9646427142878755em" fill="#aaa"/><rect width="0.09615384615384616em" height="0.026132844970090295em" x="1.6346153846153848vw" y="2.9738671550299096em" fill="#aaa"/><rect width="0.09615384615384616em" height="0.01867990781045388em" x="1.7307692307692308vw" y="2.981320092189546em" fill="#aaa"/><rect width="0.09615384615384616em" height="0.04914611750046486em" x="1.826923076923077vw" y="2.950853882499535em" fill="#aaa"/><rect width="0.09615384615384616em" height="0.052964423825382745em" x="1.9230769230769231vw" y="2.9470355761746174em" fill="#aaa"/><rect width="0.09615384615384616em" height="0.014489910842198429em" x="2.019230769230769vw" y="2.9855100891578017em" fill="#aaa"/><rect width="0.09615384615384616em" height="0.11933941358143212em" x="2.1153846153846154vw" y="2.8806605864185677em" fill="#aaa"/><rect width="0.09615384615384616em" height="0.015513010190967248em" x="2.2115384615384617vw" y="2.984486989809033em" fill="#aaa"/><rect width="0.09615384615384616em" height="0.020908872976367933em" x="2.307692307692308vw" y="2.979091127023632em" fill="#aaa"/><rect width="0.09615384615384616em" height="0.03975084742726259em" x="2.403846153846154vw" y="2.9602491525727372em" fill="#aaa"/><rect width="0.09615384615384616em" height="0.0564399276091191em" x="2.5vw" y="2.943560072390881em" fill="#aaa"/><rect width="0.09615384615384616em" height="0.1552415876136416em" x="2.5961538461538463vw" y="2.8447584123863585em" fill="#aaa"/><rect width="0.09615384615384616em" height="0.04545377629393349em" x="2.6923076923076925vw" y="2.9545462237060667em" fill="#aaa"/><rect width="0.09615384615384616em" height="0.029793747671277033em" x="2.7884615384615388vw" y="2.970206252328723em" fill="#aaa"/><rect width="0.09615384615384616em" height="0.18794921212145213em" x="2.8846153846153846vw" y="2.812050787878548em" fill="#aaa"/><rect width="0.09615384615384616em" height="0.1634331819814784em" x="2.980769230769231vw" y="2.8365668180185217em" fill="#aaa"/><rect width="0.09615384615384616em" height="0.16358426853422736em" x="3.076923076923077vw" y="2.8364157314657725em" fill="#aaa"/><rect width="0.09615384615384616em" height="0.12490902893887479em" x="3.1730769230769234vw" y="2.875090971061125em" fill="#aaa"/><rect width="0.09615384615384616em" height="0.060357910761759934em" x="3.2692307692307696vw" y="2.93964208923824em" fill="#aaa"/><rect width="0.09615384615384616em" height="0.0999348553729823em" x="3.3653846153846154vw" y="2.9000651446270176em" fill="#aaa"/><rect width="0.09615384615384616em" height="0.125661602550816em" x="3.4615384615384617vw" y="2.874338397449184em" fill="#aaa"/><rect width="0.09615384615384616em" height="0.08962076525379106em" x="3.557692307692308vw" y="2.910379234746209em" fill="#aaa"/><rect width="0.09615384615384616em" height="0.05652033853354181em" x="3.653846153846154vw" y="2.943479661466458em" fill="#aaa"/><rect width="0.09615384615384616em" height="0.3265657927611303em" x="3.75vw" y="2.67343420723887em" fill="#aaa"/><rect width="0.09615384615384616em" height="0.1767748986778133em" x="3.8461538461538463vw" y="2.8232251013221865em" fill="#aaa"/><rect width="0.09615384615384616em" height="0.2083217752888154em" x="3.9423076923076925vw" y="2.7916782247111844em" fill="#aaa"/><rect width="0.09615384615384616em" height="0.09620109717937297em" x="4.038461538461538vw" y="2.9037989028206272em" fill="#aaa"/><rect width="0.09615384615384616em" height="0.11997835693728723em" x="4.134615384615385vw" y="2.8800216430627126em" fill="#aaa"/><rect width="0.09615384615384616em" height="0.30750804480567784em" x="4.230769230769231vw" y="2.6924919551943223em" fill="#aaa"/><rect width="0.09615384615384616em" height="0.1942188165597225em" x="4.3269230769230775vw" y="2.8057811834402777em" fill="#aaa"/><rect width="0.09615384615384616em" height="0.049800738805818395em" x="4.423076923076923vw" y="2.9501992611941814em" fill="#aaa"/><rect width="0.09615384615384616em" height="0.13990260785116154em" x="4.519230769230769vw" y="2.8600973921488384em" fill="#aaa"/><rect width="0.09615384615384616em" height="0.09834713973852516em" x="4.615384615384616vw" y="2.901652860261475em" fill="#aaa"/><rect width="0.09615384615384616em" height="0.2123381707078722em" x="4.711538461538462vw" y="2.787661829292128em" fill="#aaa"/><rect width="0.09615384615384616em" height="0.22488632058897212em" x="4.807692307692308vw" y="2.775113679411028em" fill="#aaa"/><rect width="0.09615384615384616em" height="0.15286394862327327em" x="4.903846153846154vw" y="2.8471360513767268em" fill="#aaa"/><rect width="0.09615384615384616em" height="0.259890395892104em" x="5vw" y="2.740109604107896em" fill="#aaa"/><rect width="0.09615384615384616em" height="0.1892752639104306em" x="5.096153846153847vw" y="2.8107247360895693em" fill="#aaa"/><rect width="0.09615384615384616em" height="0.1370226952757339em" x="5.1923076923076925vw" y="2.862977304724266em" fill="#aaa"/><rect width="0.09615384615384616em" height="0.10825651080318335em" x="5.288461538461538vw" y="2.891743489196817em" fill="#aaa"/><rect width="0.09615384615384616em" height="0.28569086718239417em" x="5.384615384615385vw" y="2.714309132817606em" fill="#aaa"/><rect width="0.09615384615384616em" height="0.402026830326927em" x="5.480769230769231vw" y="2.597973169673073em" fill="#aaa"/><rect width="0.09615384615384616em" height="0.2587702933266497em" x="5.5769230769230775vw" y="2.74122970667335em" fill="#aaa"/><rect width="0.09615384615384616em" height="0.18409577130378735em" x="5.673076923076923vw" y="2.815904228696213em" fill="#aaa"/><rect width="0.09615384615384616em" height="0.07158857081077519em" x="5.769230769230769vw" y="2.9284114291892247em" fill="#aaa"/><rect width="0.09615384615384616em" height="0.19524659283930207em" x="5.865384615384616vw" y="2.804753407160698em" fill="#aaa"/><rect width="0.09615384615384616em" height="0.20816339101011208em" x="5.961538461538462vw" y="2.791836608989888em" fill="#aaa"/><rect width="0.09615384615384616em" height="0.229067214493519em" x="6.057692307692308vw" y="2.770932785506481em" fill="#aaa"/><rect width="0.09615384615384616em" height="0.3652643464411628em" x="6.153846153846154vw" y="2.6347356535588373em" fill="#aaa"/><rect width="0.09615384615384616em" height="0.9247174885370251em" x="6.25vw" y="2.0752825114629747em" fill="#aaa"/><rect width="0.09615384615384616em" height="0.7947423677907631em" x="6.346153846153847vw" y="2.205257632209237em" fill="#aaa"/><rect width="0.09615384615384616em" height="1.7730059329503893em" x="6.4423076923076925vw" y="1.2269940670496107em" fill="#aaa"/><rect width="0.09615384615384616em" height="1.1501017164382652em" x="6.538461538461539vw" y="1.8498982835617348em" fill="#aaa"/><rect width="0.09615384615384616em" height="0.8133677137300666em" x="6.634615384615385vw" y="2.1866322862699334em" fill="#aaa"/><rect width="0.09615384615384616em" height="1.0815478910981733em" x="6.730769230769231vw" y="1.9184521089018267em" fill="#aaa"/><rect width="0.09615384615384616em" height="2.0662327620361975em" x="6.8269230769230775vw" y="0.9337672379638025em" fill="#aaa"/><rect width="0.09615384615384616em" height="0.5144943538798173em" x="6.923076923076923vw" y="2.4855056461201825em" fill="#aaa"/><rect width="0.09615384615384616em" height="0.7077056484276731em" x="7.01923076923077vw" y="2.292294351572327em" fill="#aaa"/><rect width="0.09615384615384616em" height="0.7707040870662378em" x="7.115384615384616vw" y="2.229295912933762em" fill="#aaa"/><rect width="0.09615384615384616em" height="0.3428227815120349em" x="7.211538461538462vw" y="2.657177218487965em" fill="#aaa"/><rect width="0.09615384615384616em" height="0.4870077199656499em" x="7.307692307692308vw" y="2.51299228003435em" fill="#aaa"/><rect width="0.09615384615384616em" height="0.6300256047209212em" x="7.403846153846154vw" y="2.369974395279079em" fill="#aaa"/><rect width="0.09615384615384616em" height="0.538619687928526em" x="7.5vw" y="2.461380312071474em" fill="#aaa"/><rect width="0.09615384615384616em" height="0.7422559650055252em" x="7.596153846153847vw" y="2.2577440349944746em" fill="#aaa"/><rect width="0.09615384615384616em" height="0.8156940200183046em" x="7.6923076923076925vw" y="2.1843059799816955em" fill="#aaa"/><rect width="0.09615384615384616em" height="0.6779952343402935em" x="7.788461538461539vw" y="2.3220047656597065em" fill="#aaa"/><rect width="0.09615384615384616em" height="0.4730611719912878em" x="7.884615384615385vw" y="2.526938828008712em" fill="#aaa"/><rect width="0.09615384615384616em" height="0.37635424730709266em" x="7.980769230769231vw" y="2.6236457526929073em" fill="#aaa"/><rect width="0.09615384615384616em" height="0.780331775192282em" x="8.076923076923077vw" y="2.2196682248077177em" fill="#aaa"/><rect width="0.09615384615384616em" height="1.0246684700492346em" x="8.173076923076923vw" y="1.9753315299507654em" fill="#aaa"/><rect width="0.09615384615384616em" height="1.2984724508545473em" x="8.26923076923077vw" y="1.7015275491454527em" fill="#aaa"/><rect width="0.09615384615384616em" height="1.1284069856878496em" x="8.365384615384615vw" y="1.8715930143121504em" fill="#aaa"/><rect width="0.09615384615384616em" height="2.371752110408889em" x="8.461538461538462vw" y="0.628247889591111em" fill="#aaa"/><rect width="0.09615384615384616em" height="1.729381387748584em" x="8.557692307692308vw" y="1.270618612251416em" fill="#aaa"/><rect width="0.09615384615384616em" height="1.1327406337593382em" x="8.653846153846155vw" y="1.8672593662406618em" fill="#aaa"/><rect width="0.09615384615384616em" height="1.3118556601061286em" x="8.75vw" y="1.6881443398938714em" fill="#aaa"/><rect width="0.09615384615384616em" height="3em" x="8.846153846153847vw" y="0em" fill="#aaa"/><rect width="0.09615384615384616em" height="1.0769072073407466em" x="8.942307692307693vw" y="1.9230927926592534em" fill="#aaa"/><rect width="0.09615384615384616em" height="1.5544693880935925em" x="9.038461538461538vw" y="1.4455306119064075em" fill="#aaa"/><rect width="0.09615384615384616em" height="0.9144235936090315em" x="9.134615384615385vw" y="2.0855764063909685em" fill="#aaa"/><rect width="0.09615384615384616em" height="1.1458194060364912em" x="9.230769230769232vw" y="1.8541805939635088em" fill="#aaa"/><rect width="0.09615384615384616em" height="1.9036595321041492em" x="9.326923076923077vw" y="1.0963404678958508em" fill="#aaa"/><rect width="0.09615384615384616em" height="1.8789253868972866em" x="9.423076923076923vw" y="1.1210746131027134em" fill="#aaa"/><rect width="0.09615384615384616em" height="1.1700555938446877em" x="9.51923076923077vw" y="1.8299444061553123em" fill="#aaa"/><rect width="0.09615384615384616em" height="1.641267149451421em" x="9.615384615384617vw" y="1.358732850548579em" fill="#aaa"/><rect width="0.09615384615384616em" height="1.7761173286195566em" x="9.711538461538462vw" y="1.2238826713804434em" fill="#aaa"/><rect width="0.09615384615384616em" height="1.7517893702011054em" x="9.807692307692308vw" y="1.2482106297988946em" fill="#aaa"/><rect width="0.09615384615384616em" height="1.2886392352329232em" x="9.903846153846155vw" y="1.7113607647670768em" fill="#aaa"/></svg>