<?xml version="1.0" standalone="no"?>
<svg xmlns:xlink="http://www.w3.org/1999/xlink" xmlns="http://www.w3.org/2000/svg" class="topic-graph" style="width: 10vw; height: 3em; text-align: center;"><rect width="0.09615384615384616em" height="0.6788808946122284em" x="0vw" y="2.3211191053877718em" fill="#aaa"/><rect width="0.09615384615384616em" height="1.0106289584851709em" x="0.09615384615384616vw" y="1.9893710415148291em" fill="#aaa"/><rect width="0.09615384615384616em" height="0.4984358074591062em" x="0.19230769230769232vw" y="2.5015641925408936em" fill="#aaa"/><rect width="0.09615384615384616em" height="1.0392746697685054em" x="0.2884615384615385vw" y="1.9607253302314946em" fill="#aaa"/><rect width="0.09615384615384616em" height="1.2188720236377377em" x="0.38461538461538464vw" y="1.7811279763622623em" fill="#aaa"/><rect width="0.09615384615384616em" height="0.4800410185717341em" x="0.4807692307692308vw" y="2.5199589814282657em" fill="#aaa"/><rect width="0.09615384615384616em" height="0.398627451387942em" x="0.576923076923077vw" y="2.601372548612058em" fill="#aaa"/><rect width="0.09615384615384616em" height="0.06970348408332899em" x="0.6730769230769231vw" y="2.930296515916671em" fill="#aaa"/><rect width="0.09615384615384616em" height="0.7308848254740049em" x="0.7692307692307693vw" y="2.269115174525995em" fill="#aaa"/><rect width="0.09615384615384616em" height="0.30908447728690003em" x="0.8653846153846154vw" y="2.6909155227131em" fill="#aaa"/><rect width="0.09615384615384616em" height="0.07389138400344611em" x="0.9615384615384616vw" y="2.926108615996554em" fill="#aaa"/><rect width="0.09615384615384616em" height="0.9728410220810793em" x="1.0576923076923077vw" y="2.027158977918921em" fill="#aaa"/><rect width="0.09615384615384616em" height="0.5821238367343817em" x="1.153846153846154vw" y="2.4178761632656185em" fill="#aaa"/><rect width="0.09615384615384616em" height="0.4382394534991704em" x="1.25vw" y="2.5617605465008295em" fill="#aaa"/><rect width="0.09615384615384616em" height="0.964322234780473em" x="1.3461538461538463vw" y="2.035677765219527em" fill="#aaa"/><rect width="0.09615384615384616em" height="0.845796459799061em" x="1.4423076923076923vw" y="2.154203540200939em" fill="#aaa"/><rect width="0.09615384615384616em" height="0.375047309895162em" x="1.5384615384615385vw" y="2.624952690104838em" fill="#aaa"/><rect width="0.09615384615384616em" height="0.24634965375341103em" x="1.6346153846153848vw" y="2.753650346246589em" fill="#aaa"/><rect width="0.09615384615384616em" height="0.35860604223132597em" x="1.7307692307692308vw" y="2.641393957768674em" fill="#aaa"/><rect width="0.09615384615384616em" height="1.1702449352268762em" x="1.826923076923077vw" y="1.8297550647731238em" fill="#aaa"/><rect width="0.09615384615384616em" height="1.3507367989904484em" x="1.9230769230769231vw" y="1.6492632010095516em" fill="#aaa"/><rect width="0.09615384615384616em" height="0.5950990817987633em" x="2.019230769230769vw" y="2.404900918201237em" fill="#aaa"/><rect width="0.09615384615384616em" height="1.3093920021978303em" x="2.1153846153846154vw" y="1.6906079978021697em" fill="#aaa"/><rect width="0.09615384615384616em" height="0.5658350654411932em" x="2.2115384615384617vw" y="2.434164934558807em" fill="#aaa"/><rect width="0.09615384615384616em" height="1.5806514675361174em" x="2.307692307692308vw" y="1.4193485324638826em" fill="#aaa"/><rect width="0.09615384615384616em" height="3em" x="2.403846153846154vw" y="0em" fill="#aaa"/><rect width="0.09615384615384616em" height="2.059687804659362em" x="2.5vw" y="0.9403121953406379em" fill="#aaa"/><rect width="0.09615384615384616em" height="1.3009730703202413em" x="2.5961538461538463vw" y="1.6990269296797587em" fill="#aaa"/><rect width="0.09615384615384616em" height="1.1474122483700637em" x="2.6923076923076925vw" y="1.8525877516299363em" fill="#aaa"/><rect width="0.09615384615384616em" height="2.078259470792616em" x="2.7884615384615388vw" y="0.9217405292073839em" fill="#aaa"/><rect width="0.09615384615384616em" height="1.4007907602318899em" x="2.8846153846153846vw" y="1.5992092397681101em" fill="#aaa"/><rect width="0.09615384615384616em" height="1.0245462043767066em" x="2.980769230769231vw" y="1.9754537956232934em" fill="#aaa"/><rect width="0.09615384615384616em" height="0.7573202855638702em" x="3.076923076923077vw" y="2.2426797144361297em" fill="#aaa"/><rect width="0.09615384615384616em" height="1.033732451148498em" x="3.1730769230769234vw" y="1.966267548851502em" fill="#aaa"/><rect width="0.09615384615384616em" height="0.7004347588666402em" x="3.2692307692307696vw" y="2.29956524113336em" fill="#aaa"/><rect width="0.09615384615384616em" height="0.3926326158195933em" x="3.3653846153846154vw" y="2.6073673841804066em" fill="#aaa"/><rect width="0.09615384615384616em" height="0.8535607124909212em" x="3.4615384615384617vw" y="2.1464392875090788em" fill="#aaa"/><rect width="0.09615384615384616em" height="0.785115973976211em" x="3.557692307692308vw" y="2.214884026023789em" fill="#aaa"/><rect width="0.09615384615384616em" height="0.5278469239775259em" x="3.653846153846154vw" y="2.472153076022474em" fill="#aaa"/><rect width="0.09615384615384616em" height="0.6570276540712837em" x="3.75vw" y="2.3429723459287164em" fill="#aaa"/><rect width="0.09615384615384616em" height="0.9086408215810164em" x="3.8461538461538463vw" y="2.0913591784189833em" fill="#aaa"/><rect width="0.09615384615384616em" height="0.8740608091144824em" x="3.9423076923076925vw" y="2.125939190885518em" fill="#aaa"/><rect width="0.09615384615384616em" height="0.4244784083369775em" x="4.038461538461538vw" y="2.5755215916630227em" fill="#aaa"/><rect width="0.09615384615384616em" height="0.7376974608997031em" x="4.134615384615385vw" y="2.262302539100297em" fill="#aaa"/><rect width="0.09615384615384616em" height="1.008326848185881em" x="4.230769230769231vw" y="1.991673151814119em" fill="#aaa"/><rect width="0.09615384615384616em" height="0.6321345094661539em" x="4.3269230769230775vw" y="2.367865490533846em" fill="#aaa"/><rect width="0.09615384615384616em" height="0.4486345850868012em" x="4.423076923076923vw" y="2.5513654149131986em" fill="#aaa"/><rect width="0.09615384615384616em" height="0.5967080319468341em" x="4.519230769230769vw" y="2.403291968053166em" fill="#aaa"/><rect width="0.09615384615384616em" height="0.22963093003691226em" x="4.615384615384616vw" y="2.770369069963088em" fill="#aaa"/><rect width="0.09615384615384616em" height="0.7419004719140485em" x="4.711538461538462vw" y="2.2580995280859515em" fill="#aaa"/><rect width="0.09615384615384616em" height="1.1143863622838255em" x="4.807692307692308vw" y="1.8856136377161745em" fill="#aaa"/><rect width="0.09615384615384616em" height="0.8769105101165957em" x="4.903846153846154vw" y="2.1230894898834043em" fill="#aaa"/><rect width="0.09615384615384616em" height="0.4480229206112954em" x="5vw" y="2.5519770793887044em" fill="#aaa"/><rect width="0.09615384615384616em" height="0.4948009219816213em" x="5.096153846153847vw" y="2.5051990780183786em" fill="#aaa"/><rect width="0.09615384615384616em" height="0.44184916318480866em" x="5.1923076923076925vw" y="2.5581508368151913em" fill="#aaa"/><rect width="0.09615384615384616em" height="0.5117703407230849em" x="5.288461538461538vw" y="2.4882296592769153em" fill="#aaa"/><rect width="0.09615384615384616em" height="1.115654633081397em" x="5.384615384615385vw" y="1.884345366918603em" fill="#aaa"/><rect width="0.09615384615384616em" height="0.6096332149850671em" x="5.480769230769231vw" y="2.390366785014933em" fill="#aaa"/><rect width="0.09615384615384616em" height="0.7015807180820733em" x="5.5769230769230775vw" y="2.2984192819179268em" fill="#aaa"/><rect width="0.09615384615384616em" height="0.5283932005641642em" x="5.673076923076923vw" y="2.4716067994358357em" fill="#aaa"/><rect width="0.09615384615384616em" height="1.16972902316855em" x="5.769230769230769vw" y="1.83027097683145em" fill="#aaa"/><rect width="0.09615384615384616em" height="0.7963423398441629em" x="5.865384615384616vw" y="2.2036576601558373em" fill="#aaa"/><rect width="0.09615384615384616em" height="0.5344711329169899em" x="5.961538461538462vw" y="2.4655288670830102em" fill="#aaa"/><rect width="0.09615384615384616em" height="0.8523587599007663em" x="6.057692307692308vw" y="2.147641240099234em" fill="#aaa"/><rect width="0.09615384615384616em" height="0.8035963286303314em" x="6.153846153846154vw" y="2.1964036713696684em" fill="#aaa"/><rect width="0.09615384615384616em" height="0.898236076189447em" x="6.25vw" y="2.101763923810553em" fill="#aaa"/><rect width="0.09615384615384616em" height="0.47968290716129147em" x="6.346153846153847vw" y="2.5203170928387086em" fill="#aaa"/><rect width="0.09615384615384616em" height="0.6253390684744469em" x="6.4423076923076925vw" y="2.374660931525553em" fill="#aaa"/><rect width="0.09615384615384616em" height="0.5736802063305366em" x="6.538461538461539vw" y="2.4263197936694634em" fill="#aaa"/><rect width="0.09615384615384616em" height="0.5365014059390448em" x="6.634615384615385vw" y="2.463498594060955em" fill="#aaa"/><rect width="0.09615384615384616em" height="0.43134711940858106em" x="6.730769230769231vw" y="2.568652880591419em" fill="#aaa"/><rect width="0.09615384615384616em" height="0.45854417216809995em" x="6.8269230769230775vw" y="2.5414558278319em" fill="#aaa"/><rect width="0.09615384615384616em" height="0.33189393445790094em" x="6.923076923076923vw" y="2.668106065542099em" fill="#aaa"/><rect width="0.09615384615384616em" height="0.49219284563007426em" x="7.01923076923077vw" y="2.507807154369926em" fill="#aaa"/><rect width="0.09615384615384616em" height="0.3151639619202245em" x="7.115384615384616vw" y="2.6848360380797756em" fill="#aaa"/><rect width="0.09615384615384616em" height="0.5882969714094297em" x="7.211538461538462vw" y="2.41170302859057em" fill="#aaa"/><rect width="0.09615384615384616em" height="0.5199138298335516em" x="7.307692307692308vw" y="2.4800861701664485em" fill="#aaa"/><rect width="0.09615384615384616em" height="0.5017294146716671em" x="7.403846153846154vw" y="2.498270585328333em" fill="#aaa"/><rect width="0.09615384615384616em" height="0.4982438717723316em" x="7.5vw" y="2.5017561282276684em" fill="#aaa"/><rect width="0.09615384615384616em" height="0.38622286071734246em" x="7.596153846153847vw" y="2.6137771392826576em" fill="#aaa"/><rect width="0.09615384615384616em" height="0.5475596429918625em" x="7.6923076923076925vw" y="2.4524403570081375em" fill="#aaa"/><rect width="0.09615384615384616em" height="0.5903542600976284em" x="7.788461538461539vw" y="2.4096457399023716em" fill="#aaa"/><rect width="0.09615384615384616em" height="0.5584959051627197em" x="7.884615384615385vw" y="2.4415040948372804em" fill="#aaa"/><rect width="0.09615384615384616em" height="0.5562220866329971em" x="7.980769230769231vw" y="2.443777913367003em" fill="#aaa"/><rect width="0.09615384615384616em" height="0.7145255699092614em" x="8.076923076923077vw" y="2.285474430090739em" fill="#aaa"/><rect width="0.09615384615384616em" height="0.6956240684418644em" x="8.173076923076923vw" y="2.304375931558136em" fill="#aaa"/><rect width="0.09615384615384616em" height="0.8474382131573144em" x="8.26923076923077vw" y="2.1525617868426856em" fill="#aaa"/><rect width="0.09615384615384616em" height="0.5743612121509893em" x="8.365384615384615vw" y="2.4256387878490107em" fill="#aaa"/><rect width="0.09615384615384616em" height="0.8787873982453862em" x="8.461538461538462vw" y="2.121212601754614em" fill="#aaa"/><rect width="0.09615384615384616em" height="1.1240407282138687em" x="8.557692307692308vw" y="1.8759592717861313em" fill="#aaa"/><rect width="0.09615384615384616em" height="2.3082601630223607em" x="8.653846153846155vw" y="0.6917398369776393em" fill="#aaa"/><rect width="0.09615384615384616em" height="1.038444941816681em" x="8.75vw" y="1.961555058183319em" fill="#aaa"/><rect width="0.09615384615384616em" height="1.0104596509649657em" x="8.846153846153847vw" y="1.9895403490350343em" fill="#aaa"/><rect width="0.09615384615384616em" height="0.8702699369202122em" x="8.942307692307693vw" y="2.129730063079788em" fill="#aaa"/><rect width="0.09615384615384616em" height="0.5893750373300654em" x="9.038461538461538vw" y="2.4106249626699348em" fill="#aaa"/><rect width="0.09615384615384616em" height="0.48027006695916286em" x="9.134615384615385vw" y="2.5197299330408374em" fill="#aaa"/><rect width="0.09615384615384616em" height="0.4800947073888181em" x="9.230769230769232vw" y="2.519905292611182em" fill="#aaa"/><rect width="0.09615384615384616em" height="0.42665923947218276em" x="9.326923076923077vw" y="2.573340760527817em" fill="#aaa"/><rect width="0.09615384615384616em" height="0.358649740587612em" x="9.423076923076923vw" y="2.641350259412388em" fill="#aaa"/><rect width="0.09615384615384616em" height="0.4234132502091337em" x="9.51923076923077vw" y="2.5765867497908665em" fill="#aaa"/><rect width="0.09615384615384616em" height="0.48902163148909317em" x="9.615384615384617vw" y="2.510978368510907em" fill="#aaa"/><rect width="0.09615384615384616em" height="0.3997415246925569em" x="9.711538461538462vw" y="2.600258475307443em" fill="#aaa"/><rect width="0.09615384615384616em" height="0.5113354717548141em" x="9.807692307692308vw" y="2.488664528245186em" fill="#aaa"/><rect width="0.09615384615384616em" height="0.38693789465247447em" x="9.903846153846155vw" y="2.6130621053475256em" fill="#aaa"/></svg>