<?xml version="1.0" standalone="no"?>
<svg xmlns:xlink="http://www.w3.org/1999/xlink" xmlns="http://www.w3.org/2000/svg" class="topic-graph" style="width: 10vw; height: 3em; text-align: center;"><rect width="0.09615384615384616em" height="0.118218311074788em" x="0vw" y="2.881781688925212em" fill="#aaa"/><rect width="0.09615384615384616em" height="0.22440521413593137em" x="0.09615384615384616vw" y="2.775594785864069em" fill="#aaa"/><rect width="0.09615384615384616em" height="0.033505948951584145em" x="0.19230769230769232vw" y="2.9664940510484157em" fill="#aaa"/><rect width="0.09615384615384616em" height="0.14963696344455157em" x="0.2884615384615385vw" y="2.850363036555448em" fill="#aaa"/><rect width="0.09615384615384616em" height="0.11233586621187147em" x="0.38461538461538464vw" y="2.8876641337881286em" fill="#aaa"/><rect width="0.09615384615384616em" height="0.08308965654600717em" x="0.4807692307692308vw" y="2.916910343453993em" fill="#aaa"/><rect width="0.09615384615384616em" height="0.12030793936785743em" x="0.576923076923077vw" y="2.879692060632143em" fill="#aaa"/><rect width="0.09615384615384616em" height="0.006623061331138973em" x="0.6730769230769231vw" y="2.993376938668861em" fill="#aaa"/><rect width="0.09615384615384616em" height="0.09000684931458894em" x="0.7692307692307693vw" y="2.909993150685411em" fill="#aaa"/><rect width="0.09615384615384616em" height="0.16097921891569283em" x="0.8653846153846154vw" y="2.839020781084307em" fill="#aaa"/><rect width="0.09615384615384616em" height="0.05633683393068328em" x="0.9615384615384616vw" y="2.943663166069317em" fill="#aaa"/><rect width="0.09615384615384616em" height="0.041462068501976014em" x="1.0576923076923077vw" y="2.958537931498024em" fill="#aaa"/><rect width="0.09615384615384616em" height="0.01215926928097669em" x="1.153846153846154vw" y="2.9878407307190233em" fill="#aaa"/><rect width="0.09615384615384616em" height="0.022863006237818537em" x="1.25vw" y="2.9771369937621817em" fill="#aaa"/><rect width="0.09615384615384616em" height="0.010543629018279186em" x="1.3461538461538463vw" y="2.989456370981721em" fill="#aaa"/><rect width="0.09615384615384616em" height="0.06450174584385407em" x="1.4423076923076923vw" y="2.935498254156146em" fill="#aaa"/><rect width="0.09615384615384616em" height="0.08893031344177674em" x="1.5384615384615385vw" y="2.911069686558223em" fill="#aaa"/><rect width="0.09615384615384616em" height="0.05367295475866954em" x="1.6346153846153848vw" y="2.9463270452413304em" fill="#aaa"/><rect width="0.09615384615384616em" height="0.011122971855622778em" x="1.7307692307692308vw" y="2.988877028144377em" fill="#aaa"/><rect width="0.09615384615384616em" height="0.07807634690924353em" x="1.826923076923077vw" y="2.9219236530907566em" fill="#aaa"/><rect width="0.09615384615384616em" height="0.1679790373664805em" x="1.9230769230769231vw" y="2.8320209626335195em" fill="#aaa"/><rect width="0.09615384615384616em" height="0.1708121982322609em" x="2.019230769230769vw" y="2.829187801767739em" fill="#aaa"/><rect width="0.09615384615384616em" height="0.16939187904477165em" x="2.1153846153846154vw" y="2.8306081209552283em" fill="#aaa"/><rect width="0.09615384615384616em" height="0.16358765177696077em" x="2.2115384615384617vw" y="2.836412348223039em" fill="#aaa"/><rect width="0.09615384615384616em" height="0.08663571815218435em" x="2.307692307692308vw" y="2.913364281847816em" fill="#aaa"/><rect width="0.09615384615384616em" height="0.18050753008711817em" x="2.403846153846154vw" y="2.819492469912882em" fill="#aaa"/><rect width="0.09615384615384616em" height="0.1633096165291572em" x="2.5vw" y="2.8366903834708426em" fill="#aaa"/><rect width="0.09615384615384616em" height="0.20240605365524322em" x="2.5961538461538463vw" y="2.7975939463447568em" fill="#aaa"/><rect width="0.09615384615384616em" height="0.8556918906854716em" x="2.6923076923076925vw" y="2.1443081093145286em" fill="#aaa"/><rect width="0.09615384615384616em" height="0.010946477814826164em" x="2.7884615384615388vw" y="2.989053522185174em" fill="#aaa"/><rect width="0.09615384615384616em" height="0.06858614068696073em" x="2.8846153846153846vw" y="2.9314138593130394em" fill="#aaa"/><rect width="0.09615384615384616em" height="0.17699684415225747em" x="2.980769230769231vw" y="2.8230031558477426em" fill="#aaa"/><rect width="0.09615384615384616em" height="0.032198616916019454em" x="3.076923076923077vw" y="2.9678013830839807em" fill="#aaa"/><rect width="0.09615384615384616em" height="0.26605555238886625em" x="3.1730769230769234vw" y="2.7339444476111336em" fill="#aaa"/><rect width="0.09615384615384616em" height="0.02538966392492209em" x="3.2692307692307696vw" y="2.9746103360750777em" fill="#aaa"/><rect width="0.09615384615384616em" height="0.12734421250973937em" x="3.3653846153846154vw" y="2.8726557874902605em" fill="#aaa"/><rect width="0.09615384615384616em" height="0.14853059274362623em" x="3.4615384615384617vw" y="2.8514694072563738em" fill="#aaa"/><rect width="0.09615384615384616em" height="0.10629471767084867em" x="3.557692307692308vw" y="2.8937052823291514em" fill="#aaa"/><rect width="0.09615384615384616em" height="0.11353172314185847em" x="3.653846153846154vw" y="2.8864682768581416em" fill="#aaa"/><rect width="0.09615384615384616em" height="0.06574306020411118em" x="3.75vw" y="2.9342569397958886em" fill="#aaa"/><rect width="0.09615384615384616em" height="0.3299575732230263em" x="3.8461538461538463vw" y="2.670042426776974em" fill="#aaa"/><rect width="0.09615384615384616em" height="0.05962573250796993em" x="3.9423076923076925vw" y="2.94037426749203em" fill="#aaa"/><rect width="0.09615384615384616em" height="0.04212609860223084em" x="4.038461538461538vw" y="2.957873901397769em" fill="#aaa"/><rect width="0.09615384615384616em" height="0.06815350537127751em" x="4.134615384615385vw" y="2.9318464946287226em" fill="#aaa"/><rect width="0.09615384615384616em" height="0.19088023849135372em" x="4.230769230769231vw" y="2.8091197615086463em" fill="#aaa"/><rect width="0.09615384615384616em" height="0.15154783101680705em" x="4.3269230769230775vw" y="2.8484521689831928em" fill="#aaa"/><rect width="0.09615384615384616em" height="0.28319833235196146em" x="4.423076923076923vw" y="2.7168016676480384em" fill="#aaa"/><rect width="0.09615384615384616em" height="0.445060675129177em" x="4.519230769230769vw" y="2.5549393248708228em" fill="#aaa"/><rect width="0.09615384615384616em" height="3em" x="4.615384615384616vw" y="0em" fill="#aaa"/><rect width="0.09615384615384616em" height="0.21532099313212755em" x="4.711538461538462vw" y="2.7846790068678726em" fill="#aaa"/><rect width="0.09615384615384616em" height="0.22865839493493043em" x="4.807692307692308vw" y="2.7713416050650697em" fill="#aaa"/><rect width="0.09615384615384616em" height="0.3793960994274841em" x="4.903846153846154vw" y="2.620603900572516em" fill="#aaa"/><rect width="0.09615384615384616em" height="0.7739269982234915em" x="5vw" y="2.2260730017765082em" fill="#aaa"/><rect width="0.09615384615384616em" height="2.3945254671940104em" x="5.096153846153847vw" y="0.6054745328059896em" fill="#aaa"/><rect width="0.09615384615384616em" height="0.6171048710717775em" x="5.1923076923076925vw" y="2.3828951289282223em" fill="#aaa"/><rect width="0.09615384615384616em" height="0.9682305577119288em" x="5.288461538461538vw" y="2.031769442288071em" fill="#aaa"/><rect width="0.09615384615384616em" height="2.094810656821752em" x="5.384615384615385vw" y="0.9051893431782481em" fill="#aaa"/><rect width="0.09615384615384616em" height="0.26292387065487316em" x="5.480769230769231vw" y="2.7370761293451267em" fill="#aaa"/><rect width="0.09615384615384616em" height="0.22827854119200885em" x="5.5769230769230775vw" y="2.771721458807991em" fill="#aaa"/><rect width="0.09615384615384616em" height="0.3844991600583364em" x="5.673076923076923vw" y="2.6155008399416637em" fill="#aaa"/><rect width="0.09615384615384616em" height="0.16479962221035824em" x="5.769230769230769vw" y="2.8352003777896417em" fill="#aaa"/><rect width="0.09615384615384616em" height="0.20423735624331602em" x="5.865384615384616vw" y="2.795762643756684em" fill="#aaa"/><rect width="0.09615384615384616em" height="0.16145766053586455em" x="5.961538461538462vw" y="2.8385423394641354em" fill="#aaa"/><rect width="0.09615384615384616em" height="0.8042644963945687em" x="6.057692307692308vw" y="2.195735503605431em" fill="#aaa"/><rect width="0.09615384615384616em" height="0.7963681666083499em" x="6.153846153846154vw" y="2.20363183339165em" fill="#aaa"/><rect width="0.09615384615384616em" height="0.43904026538682106em" x="6.25vw" y="2.5609597346131787em" fill="#aaa"/><rect width="0.09615384615384616em" height="0.2091048703017493em" x="6.346153846153847vw" y="2.7908951296982507em" fill="#aaa"/><rect width="0.09615384615384616em" height="0.1281184117870564em" x="6.4423076923076925vw" y="2.8718815882129434em" fill="#aaa"/><rect width="0.09615384615384616em" height="0.20453750535340967em" x="6.538461538461539vw" y="2.7954624946465905em" fill="#aaa"/><rect width="0.09615384615384616em" height="0.13878815117706464em" x="6.634615384615385vw" y="2.8612118488229354em" fill="#aaa"/><rect width="0.09615384615384616em" height="0.10890709756496025em" x="6.730769230769231vw" y="2.8910929024350396em" fill="#aaa"/><rect width="0.09615384615384616em" height="0.330174982035779em" x="6.8269230769230775vw" y="2.669825017964221em" fill="#aaa"/><rect width="0.09615384615384616em" height="0.19270648294549492em" x="6.923076923076923vw" y="2.807293517054505em" fill="#aaa"/><rect width="0.09615384615384616em" height="0.2048636958070182em" x="7.01923076923077vw" y="2.7951363041929818em" fill="#aaa"/><rect width="0.09615384615384616em" height="0.26029948665495073em" x="7.115384615384616vw" y="2.739700513345049em" fill="#aaa"/><rect width="0.09615384615384616em" height="0.20129220446571766em" x="7.211538461538462vw" y="2.7987077955342823em" fill="#aaa"/><rect width="0.09615384615384616em" height="0.19322204777115157em" x="7.307692307692308vw" y="2.8067779522288485em" fill="#aaa"/><rect width="0.09615384615384616em" height="0.18019686293017367em" x="7.403846153846154vw" y="2.8198031370698264em" fill="#aaa"/><rect width="0.09615384615384616em" height="0.24067384704346498em" x="7.5vw" y="2.759326152956535em" fill="#aaa"/><rect width="0.09615384615384616em" height="0.21340499052635392em" x="7.596153846153847vw" y="2.786595009473646em" fill="#aaa"/><rect width="0.09615384615384616em" height="0.03960773498367084em" x="7.6923076923076925vw" y="2.960392265016329em" fill="#aaa"/><rect width="0.09615384615384616em" height="0.1686924658295503em" x="7.788461538461539vw" y="2.83130753417045em" fill="#aaa"/><rect width="0.09615384615384616em" height="0.20822276934761516em" x="7.884615384615385vw" y="2.791777230652385em" fill="#aaa"/><rect width="0.09615384615384616em" height="0.13888038789921836em" x="7.980769230769231vw" y="2.8611196121007816em" fill="#aaa"/><rect width="0.09615384615384616em" height="0.1494448130588096em" x="8.076923076923077vw" y="2.8505551869411905em" fill="#aaa"/><rect width="0.09615384615384616em" height="0.1179533757793777em" x="8.173076923076923vw" y="2.882046624220622em" fill="#aaa"/><rect width="0.09615384615384616em" height="0.29121584428872216em" x="8.26923076923077vw" y="2.7087841557112777em" fill="#aaa"/><rect width="0.09615384615384616em" height="0.11593663938119556em" x="8.365384615384615vw" y="2.8840633606188044em" fill="#aaa"/><rect width="0.09615384615384616em" height="0.2516693246523729em" x="8.461538461538462vw" y="2.748330675347627em" fill="#aaa"/><rect width="0.09615384615384616em" height="0.12836218092476906em" x="8.557692307692308vw" y="2.871637819075231em" fill="#aaa"/><rect width="0.09615384615384616em" height="0.19088813165905852em" x="8.653846153846155vw" y="2.8091118683409415em" fill="#aaa"/><rect width="0.09615384615384616em" height="0.057841282052913764em" x="8.75vw" y="2.9421587179470863em" fill="#aaa"/><rect width="0.09615384615384616em" height="0.22774657029011802em" x="8.846153846153847vw" y="2.772253429709882em" fill="#aaa"/><rect width="0.09615384615384616em" height="0.12639913849256612em" x="8.942307692307693vw" y="2.873600861507434em" fill="#aaa"/><rect width="0.09615384615384616em" height="0.2224321962827872em" x="9.038461538461538vw" y="2.7775678037172127em" fill="#aaa"/><rect width="0.09615384615384616em" height="0.10717899109157952em" x="9.134615384615385vw" y="2.8928210089084203em" fill="#aaa"/><rect width="0.09615384615384616em" height="0.07465466146308941em" x="9.230769230769232vw" y="2.9253453385369106em" fill="#aaa"/><rect width="0.09615384615384616em" height="0.09472825737720109em" x="9.326923076923077vw" y="2.9052717426227987em" fill="#aaa"/><rect width="0.09615384615384616em" height="0.06758432310236043em" x="9.423076923076923vw" y="2.9324156768976395em" fill="#aaa"/><rect width="0.09615384615384616em" height="0.09419668115767595em" x="9.51923076923077vw" y="2.9058033188423242em" fill="#aaa"/><rect width="0.09615384615384616em" height="0.1573439202252144em" x="9.615384615384617vw" y="2.8426560797747857em" fill="#aaa"/><rect width="0.09615384615384616em" height="0.17889559127630922em" x="9.711538461538462vw" y="2.821104408723691em" fill="#aaa"/><rect width="0.09615384615384616em" height="0.10219005016410784em" x="9.807692307692308vw" y="2.8978099498358922em" fill="#aaa"/><rect width="0.09615384615384616em" height="0.21046076114399337em" x="9.903846153846155vw" y="2.7895392388560065em" fill="#aaa"/></svg>