<?xml version="1.0" standalone="no"?>
<svg xmlns:xlink="http://www.w3.org/1999/xlink" xmlns="http://www.w3.org/2000/svg" class="topic-graph" style="width: 100em; height: 30em; text-align: center;"><rect width="0.9615384615384616em" height="0.5601003258016318em" x="0em" y="29.43989967419837em" fill="#aaa"/><rect width="0.9615384615384616em" height="0.8975828174794742em" x="0.9615384615384616em" y="29.102417182520526em" fill="#aaa"/><rect width="0.9615384615384616em" height="2.957896940675065em" x="1.9230769230769231em" y="27.042103059324937em" fill="#aaa"/><rect width="0.9615384615384616em" height="1.4798780292796316em" x="2.8846153846153846em" y="28.520121970720368em" fill="#aaa"/><rect width="0.9615384615384616em" height="2.9977104233675647em" x="3.8461538461538463em" y="27.002289576632435em" fill="#aaa"/><rect width="0.9615384615384616em" height="5.805369646093305em" x="4.8076923076923075em" y="24.194630353906696em" fill="#aaa"/><rect width="0.9615384615384616em" height="1.066726077506754em" x="5.769230769230769em" y="28.933273922493246em" fill="#aaa"/><rect width="0.9615384615384616em" height="0.343959090614892em" x="6.730769230769231em" y="29.65604090938511em" fill="#aaa"/><rect width="0.9615384615384616em" height="6.411276381754629em" x="7.6923076923076925em" y="23.58872361824537em" fill="#aaa"/><rect width="0.9615384615384616em" height="2.284561072657222em" x="8.653846153846153em" y="27.715438927342777em" fill="#aaa"/><rect width="0.9615384615384616em" height="0.6213350124598255em" x="9.615384615384615em" y="29.378664987540173em" fill="#aaa"/><rect width="0.9615384615384616em" height="12.416705501589211em" x="10.576923076923077em" y="17.583294498410787em" fill="#aaa"/><rect width="0.9615384615384616em" height="13.77811540763568em" x="11.538461538461538em" y="16.22188459236432em" fill="#aaa"/><rect width="0.9615384615384616em" height="16.743440019531775em" x="12.5em" y="13.256559980468225em" fill="#aaa"/><rect width="0.9615384615384616em" height="5.17903939401095em" x="13.461538461538462em" y="24.82096060598905em" fill="#aaa"/><rect width="0.9615384615384616em" height="10.931449900822642em" x="14.423076923076923em" y="19.068550099177358em" fill="#aaa"/><rect width="0.9615384615384616em" height="3.2733752586300144em" x="15.384615384615385em" y="26.726624741369985em" fill="#aaa"/><rect width="0.9615384615384616em" height="2.545758224619961em" x="16.346153846153847em" y="27.45424177538004em" fill="#aaa"/><rect width="0.9615384615384616em" height="0.9631447372657888em" x="17.307692307692307em" y="29.03685526273421em" fill="#aaa"/><rect width="0.9615384615384616em" height="10.58164221545383em" x="18.26923076923077em" y="19.41835778454617em" fill="#aaa"/><rect width="0.9615384615384616em" height="5.987797049158175em" x="19.23076923076923em" y="24.012202950841825em" fill="#aaa"/><rect width="0.9615384615384616em" height="0.5862514171418851em" x="20.192307692307693em" y="29.413748582858116em" fill="#aaa"/><rect width="0.9615384615384616em" height="3.1524740704932923em" x="21.153846153846153em" y="26.84752592950671em" fill="#aaa"/><rect width="0.9615384615384616em" height="13.013395827014948em" x="22.115384615384617em" y="16.986604172985054em" fill="#aaa"/><rect width="0.9615384615384616em" height="16.824692738244316em" x="23.076923076923077em" y="13.175307261755684em" fill="#aaa"/><rect width="0.9615384615384616em" height="7.522598144604579em" x="24.03846153846154em" y="22.47740185539542em" fill="#aaa"/><rect width="0.9615384615384616em" height="7.638022892917933em" x="25em" y="22.36197710708207em" fill="#aaa"/><rect width="0.9615384615384616em" height="1.322376491387368em" x="25.961538461538463em" y="28.677623508612633em" fill="#aaa"/><rect width="0.9615384615384616em" height="1.7973732105246651em" x="26.923076923076923em" y="28.202626789475335em" fill="#aaa"/><rect width="0.9615384615384616em" height="1.8609797642980939em" x="27.884615384615387em" y="28.139020235701906em" fill="#aaa"/><rect width="0.9615384615384616em" height="1.0796413907110989em" x="28.846153846153847em" y="28.9203586092889em" fill="#aaa"/><rect width="0.9615384615384616em" height="2.546164927139122em" x="29.80769230769231em" y="27.453835072860876em" fill="#aaa"/><rect width="0.9615384615384616em" height="4.852639179367829em" x="30.76923076923077em" y="25.147360820632173em" fill="#aaa"/><rect width="0.9615384615384616em" height="7.5814705497533845em" x="31.73076923076923em" y="22.418529450246616em" fill="#aaa"/><rect width="0.9615384615384616em" height="4.498538984783001em" x="32.69230769230769em" y="25.501461015217em" fill="#aaa"/><rect width="0.9615384615384616em" height="2.9846767623857486em" x="33.65384615384615em" y="27.01532323761425em" fill="#aaa"/><rect width="0.9615384615384616em" height="9.257131956285642em" x="34.61538461538461em" y="20.74286804371436em" fill="#aaa"/><rect width="0.9615384615384616em" height="10.085713560959203em" x="35.57692307692308em" y="19.914286439040797em" fill="#aaa"/><rect width="0.9615384615384616em" height="14.065627293130483em" x="36.53846153846154em" y="15.934372706869517em" fill="#aaa"/><rect width="0.9615384615384616em" height="22.66559086066387em" x="37.5em" y="7.334409139336131em" fill="#aaa"/><rect width="0.9615384615384616em" height="26.115690528962936em" x="38.46153846153846em" y="3.8843094710370636em" fill="#aaa"/><rect width="0.9615384615384616em" height="4.7869727533456174em" x="39.42307692307693em" y="25.213027246654384em" fill="#aaa"/><rect width="0.9615384615384616em" height="12.685820600009666em" x="40.38461538461539em" y="17.314179399990334em" fill="#aaa"/><rect width="0.9615384615384616em" height="1.0938186256849591em" x="41.34615384615385em" y="28.90618137431504em" fill="#aaa"/><rect width="0.9615384615384616em" height="5.498178533963187em" x="42.30769230769231em" y="24.501821466036812em" fill="#aaa"/><rect width="0.9615384615384616em" height="3.7195273395517763em" x="43.269230769230774em" y="26.280472660448225em" fill="#aaa"/><rect width="0.9615384615384616em" height="3.0837099128781813em" x="44.23076923076923em" y="26.91629008712182em" fill="#aaa"/><rect width="0.9615384615384616em" height="12.967908384715486em" x="45.19230769230769em" y="17.032091615284514em" fill="#aaa"/><rect width="0.9615384615384616em" height="21.59403075682401em" x="46.15384615384615em" y="8.405969243175988em" fill="#aaa"/><rect width="0.9615384615384616em" height="2.998876318552569em" x="47.11538461538461em" y="27.00112368144743em" fill="#aaa"/><rect width="0.9615384615384616em" height="6.556229941747674em" x="48.07692307692308em" y="23.443770058252326em" fill="#aaa"/><rect width="0.9615384615384616em" height="10.467031542668575em" x="49.03846153846154em" y="19.532968457331425em" fill="#aaa"/><rect width="0.9615384615384616em" height="15.079413283894079em" x="50em" y="14.920586716105921em" fill="#aaa"/><rect width="0.9615384615384616em" height="9.859860043873864em" x="50.96153846153846em" y="20.140139956126134em" fill="#aaa"/><rect width="0.9615384615384616em" height="6.790717045558647em" x="51.92307692307693em" y="23.209282954441353em" fill="#aaa"/><rect width="0.9615384615384616em" height="3.3973485618950723em" x="52.88461538461539em" y="26.602651438104928em" fill="#aaa"/><rect width="0.9615384615384616em" height="14.97877724149327em" x="53.84615384615385em" y="15.02122275850673em" fill="#aaa"/><rect width="0.9615384615384616em" height="14.509381087620916em" x="54.80769230769231em" y="15.490618912379084em" fill="#aaa"/><rect width="0.9615384615384616em" height="11.25319172300118em" x="55.769230769230774em" y="18.74680827699882em" fill="#aaa"/><rect width="0.9615384615384616em" height="8.18569066614559em" x="56.73076923076923em" y="21.81430933385441em" fill="#aaa"/><rect width="0.9615384615384616em" height="15.920579648188886em" x="57.69230769230769em" y="14.079420351811114em" fill="#aaa"/><rect width="0.9615384615384616em" height="5.4347530791313945em" x="58.65384615384615em" y="24.565246920868606em" fill="#aaa"/><rect width="0.9615384615384616em" height="20.692636968068435em" x="59.61538461538462em" y="9.307363031931565em" fill="#aaa"/><rect width="0.9615384615384616em" height="6.743249536664945em" x="60.57692307692308em" y="23.256750463335056em" fill="#aaa"/><rect width="0.9615384615384616em" height="8.124156048893648em" x="61.53846153846154em" y="21.875843951106354em" fill="#aaa"/><rect width="0.9615384615384616em" height="8.390040931092658em" x="62.5em" y="21.609959068907344em" fill="#aaa"/><rect width="0.9615384615384616em" height="8.822846816372326em" x="63.46153846153846em" y="21.177153183627674em" fill="#aaa"/><rect width="0.9615384615384616em" height="6.752281220941068em" x="64.42307692307692em" y="23.247718779058932em" fill="#aaa"/><rect width="0.9615384615384616em" height="3.592597960535108em" x="65.38461538461539em" y="26.40740203946489em" fill="#aaa"/><rect width="0.9615384615384616em" height="26.008934347316572em" x="66.34615384615385em" y="3.991065652683428em" fill="#aaa"/><rect width="0.9615384615384616em" height="19.59334054083073em" x="67.3076923076923em" y="10.40665945916927em" fill="#aaa"/><rect width="0.9615384615384616em" height="8.261450702670304em" x="68.26923076923077em" y="21.738549297329698em" fill="#aaa"/><rect width="0.9615384615384616em" height="15.839822539950772em" x="69.23076923076923em" y="14.160177460049228em" fill="#aaa"/><rect width="0.9615384615384616em" height="14.700429776182151em" x="70.1923076923077em" y="15.299570223817849em" fill="#aaa"/><rect width="0.9615384615384616em" height="22.43192263846471em" x="71.15384615384616em" y="7.568077361535291em" fill="#aaa"/><rect width="0.9615384615384616em" height="9.11364942224931em" x="72.11538461538461em" y="20.88635057775069em" fill="#aaa"/><rect width="0.9615384615384616em" height="10.750573729130814em" x="73.07692307692308em" y="19.249426270869186em" fill="#aaa"/><rect width="0.9615384615384616em" height="6.624742035608527em" x="74.03846153846155em" y="23.375257964391473em" fill="#aaa"/><rect width="0.9615384615384616em" height="16.031013905139375em" x="75em" y="13.968986094860625em" fill="#aaa"/><rect width="0.9615384615384616em" height="13.310184239399515em" x="75.96153846153847em" y="16.689815760600485em" fill="#aaa"/><rect width="0.9615384615384616em" height="22.477831454456595em" x="76.92307692307692em" y="7.522168545543405em" fill="#aaa"/><rect width="0.9615384615384616em" height="18.321517412921054em" x="77.88461538461539em" y="11.678482587078946em" fill="#aaa"/><rect width="0.9615384615384616em" height="19.147840771934455em" x="78.84615384615385em" y="10.852159228065545em" fill="#aaa"/><rect width="0.9615384615384616em" height="15.709018863549861em" x="79.8076923076923em" y="14.290981136450139em" fill="#aaa"/><rect width="0.9615384615384616em" height="8.020950555269124em" x="80.76923076923077em" y="21.979049444730876em" fill="#aaa"/><rect width="0.9615384615384616em" height="18.877192954996517em" x="81.73076923076923em" y="11.122807045003483em" fill="#aaa"/><rect width="0.9615384615384616em" height="15.811551774645535em" x="82.6923076923077em" y="14.188448225354465em" fill="#aaa"/><rect width="0.9615384615384616em" height="13.93282388552553em" x="83.65384615384616em" y="16.06717611447447em" fill="#aaa"/><rect width="0.9615384615384616em" height="14.1938957837516em" x="84.61538461538461em" y="15.8061042162484em" fill="#aaa"/><rect width="0.9615384615384616em" height="24.65615823236592em" x="85.57692307692308em" y="5.343841767634078em" fill="#aaa"/><rect width="0.9615384615384616em" height="13.521151773934774em" x="86.53846153846155em" y="16.478848226065224em" fill="#aaa"/><rect width="0.9615384615384616em" height="30em" x="87.5em" y="0em" fill="#aaa"/><rect width="0.9615384615384616em" height="24.11862747310073em" x="88.46153846153847em" y="5.88137252689927em" fill="#aaa"/><rect width="0.9615384615384616em" height="24.937807834024277em" x="89.42307692307692em" y="5.062192165975723em" fill="#aaa"/><rect width="0.9615384615384616em" height="16.800746022043633em" x="90.38461538461539em" y="13.199253977956367em" fill="#aaa"/><rect width="0.9615384615384616em" height="19.922128567826864em" x="91.34615384615385em" y="10.077871432173136em" fill="#aaa"/><rect width="0.9615384615384616em" height="18.547136411306624em" x="92.3076923076923em" y="11.452863588693376em" fill="#aaa"/><rect width="0.9615384615384616em" height="11.481530145786925em" x="93.26923076923077em" y="18.518469854213073em" fill="#aaa"/><rect width="0.9615384615384616em" height="18.12503593526834em" x="94.23076923076923em" y="11.87496406473166em" fill="#aaa"/><rect width="0.9615384615384616em" height="11.501974464823945em" x="95.1923076923077em" y="18.498025535176055em" fill="#aaa"/><rect width="0.9615384615384616em" height="12.533105952204647em" x="96.15384615384616em" y="17.466894047795353em" fill="#aaa"/><rect width="0.9615384615384616em" height="15.62082529555212em" x="97.11538461538461em" y="14.37917470444788em" fill="#aaa"/><rect width="0.9615384615384616em" height="13.449231941832382em" x="98.07692307692308em" y="16.55076805816762em" fill="#aaa"/><rect width="0.9615384615384616em" height="11.402151302062551em" x="99.03846153846155em" y="18.59784869793745em" fill="#aaa"/></svg>