<?xml version="1.0" standalone="no"?>
<svg xmlns:xlink="http://www.w3.org/1999/xlink" xmlns="http://www.w3.org/2000/svg" class="topic-graph" style="width: 100em; height: 30em; text-align: center;"><rect width="0.9615384615384616em" height="2.2827015192053293em" x="0em" y="27.71729848079467em" fill="#aaa"/><rect width="0.9615384615384616em" height="0.5978562676767168em" x="0.9615384615384616em" y="29.40214373232328em" fill="#aaa"/><rect width="0.9615384615384616em" height="1.28169416796976em" x="1.9230769230769231em" y="28.71830583203024em" fill="#aaa"/><rect width="0.9615384615384616em" height="1.3962732523140073em" x="2.8846153846153846em" y="28.603726747685993em" fill="#aaa"/><rect width="0.9615384615384616em" height="1.0920785796839716em" x="3.8461538461538463em" y="28.90792142031603em" fill="#aaa"/><rect width="0.9615384615384616em" height="4.467584256313776em" x="4.8076923076923075em" y="25.532415743686222em" fill="#aaa"/><rect width="0.9615384615384616em" height="1.1605079582243867em" x="5.769230769230769em" y="28.839492041775614em" fill="#aaa"/><rect width="0.9615384615384616em" height="1.309987412956955em" x="6.730769230769231em" y="28.690012587043046em" fill="#aaa"/><rect width="0.9615384615384616em" height="10.356934012753424em" x="7.6923076923076925em" y="19.643065987246576em" fill="#aaa"/><rect width="0.9615384615384616em" height="13.702557350068863em" x="8.653846153846153em" y="16.297442649931135em" fill="#aaa"/><rect width="0.9615384615384616em" height="2.723503644576986em" x="9.615384615384615em" y="27.276496355423014em" fill="#aaa"/><rect width="0.9615384615384616em" height="3.1423428576118524em" x="10.576923076923077em" y="26.85765714238815em" fill="#aaa"/><rect width="0.9615384615384616em" height="2.0053531907961544em" x="11.538461538461538em" y="27.994646809203847em" fill="#aaa"/><rect width="0.9615384615384616em" height="17.505546880541672em" x="12.5em" y="12.494453119458328em" fill="#aaa"/><rect width="0.9615384615384616em" height="6.5516207466004435em" x="13.461538461538462em" y="23.44837925339956em" fill="#aaa"/><rect width="0.9615384615384616em" height="9.27240349480473em" x="14.423076923076923em" y="20.727596505195272em" fill="#aaa"/><rect width="0.9615384615384616em" height="12.628524809414422em" x="15.384615384615385em" y="17.371475190585578em" fill="#aaa"/><rect width="0.9615384615384616em" height="15.233770430746358em" x="16.346153846153847em" y="14.766229569253642em" fill="#aaa"/><rect width="0.9615384615384616em" height="30em" x="17.307692307692307em" y="0em" fill="#aaa"/><rect width="0.9615384615384616em" height="13.38554123025907em" x="18.26923076923077em" y="16.614458769740928em" fill="#aaa"/><rect width="0.9615384615384616em" height="5.0004159972422615em" x="19.23076923076923em" y="24.99958400275774em" fill="#aaa"/><rect width="0.9615384615384616em" height="7.802674357334632em" x="20.192307692307693em" y="22.19732564266537em" fill="#aaa"/><rect width="0.9615384615384616em" height="22.35550419213936em" x="21.153846153846153em" y="7.64449580786064em" fill="#aaa"/><rect width="0.9615384615384616em" height="15.884261980770283em" x="22.115384615384617em" y="14.115738019229717em" fill="#aaa"/><rect width="0.9615384615384616em" height="6.239471860892166em" x="23.076923076923077em" y="23.760528139107834em" fill="#aaa"/><rect width="0.9615384615384616em" height="22.04909189826958em" x="24.03846153846154em" y="7.95090810173042em" fill="#aaa"/><rect width="0.9615384615384616em" height="4.964686786780146em" x="25em" y="25.035313213219855em" fill="#aaa"/><rect width="0.9615384615384616em" height="3.9235113046195274em" x="25.961538461538463em" y="26.076488695380473em" fill="#aaa"/><rect width="0.9615384615384616em" height="6.224490063984262em" x="26.923076923076923em" y="23.775509936015737em" fill="#aaa"/><rect width="0.9615384615384616em" height="6.202995523575042em" x="27.884615384615387em" y="23.79700447642496em" fill="#aaa"/><rect width="0.9615384615384616em" height="2.538828660617775em" x="28.846153846153847em" y="27.461171339382226em" fill="#aaa"/><rect width="0.9615384615384616em" height="2.0419850715443464em" x="29.80769230769231em" y="27.958014928455654em" fill="#aaa"/><rect width="0.9615384615384616em" height="2.305798500219074em" x="30.76923076923077em" y="27.694201499780927em" fill="#aaa"/><rect width="0.9615384615384616em" height="1.6454313270875334em" x="31.73076923076923em" y="28.354568672912468em" fill="#aaa"/><rect width="0.9615384615384616em" height="1.8572337792937461em" x="32.69230769230769em" y="28.142766220706253em" fill="#aaa"/><rect width="0.9615384615384616em" height="1.7166544318820602em" x="33.65384615384615em" y="28.28334556811794em" fill="#aaa"/><rect width="0.9615384615384616em" height="4.995619957125365em" x="34.61538461538461em" y="25.004380042874637em" fill="#aaa"/><rect width="0.9615384615384616em" height="6.292770378248284em" x="35.57692307692308em" y="23.707229621751715em" fill="#aaa"/><rect width="0.9615384615384616em" height="3.6455586085945395em" x="36.53846153846154em" y="26.35444139140546em" fill="#aaa"/><rect width="0.9615384615384616em" height="1.2709723044664107em" x="37.5em" y="28.72902769553359em" fill="#aaa"/><rect width="0.9615384615384616em" height="1.9511922662285697em" x="38.46153846153846em" y="28.04880773377143em" fill="#aaa"/><rect width="0.9615384615384616em" height="0.950447945055167em" x="39.42307692307693em" y="29.049552054944833em" fill="#aaa"/><rect width="0.9615384615384616em" height="2.2458906664054377em" x="40.38461538461539em" y="27.754109333594563em" fill="#aaa"/><rect width="0.9615384615384616em" height="2.15907809675231em" x="41.34615384615385em" y="27.84092190324769em" fill="#aaa"/><rect width="0.9615384615384616em" height="1.5387663107341472em" x="42.30769230769231em" y="28.461233689265853em" fill="#aaa"/><rect width="0.9615384615384616em" height="2.7406877435404793em" x="43.269230769230774em" y="27.25931225645952em" fill="#aaa"/><rect width="0.9615384615384616em" height="1.9966505405081187em" x="44.23076923076923em" y="28.003349459491883em" fill="#aaa"/><rect width="0.9615384615384616em" height="1.382044933091848em" x="45.19230769230769em" y="28.617955066908152em" fill="#aaa"/><rect width="0.9615384615384616em" height="0.5164575108774409em" x="46.15384615384615em" y="29.48354248912256em" fill="#aaa"/><rect width="0.9615384615384616em" height="0.2875673665567552em" x="47.11538461538461em" y="29.712432633443246em" fill="#aaa"/><rect width="0.9615384615384616em" height="0.36898526771386037em" x="48.07692307692308em" y="29.63101473228614em" fill="#aaa"/><rect width="0.9615384615384616em" height="0.5770520922011865em" x="49.03846153846154em" y="29.422947907798815em" fill="#aaa"/><rect width="0.9615384615384616em" height="0.81467145567637em" x="50em" y="29.18532854432363em" fill="#aaa"/><rect width="0.9615384615384616em" height="0.3555646341445061em" x="50.96153846153846em" y="29.644435365855493em" fill="#aaa"/><rect width="0.9615384615384616em" height="0.4043590211000739em" x="51.92307692307693em" y="29.595640978899926em" fill="#aaa"/><rect width="0.9615384615384616em" height="0.3775035653712599em" x="52.88461538461539em" y="29.62249643462874em" fill="#aaa"/><rect width="0.9615384615384616em" height="0.59598821995551em" x="53.84615384615385em" y="29.404011780044492em" fill="#aaa"/><rect width="0.9615384615384616em" height="1.22681452583867em" x="54.80769230769231em" y="28.77318547416133em" fill="#aaa"/><rect width="0.9615384615384616em" height="1.3967075385653938em" x="55.769230769230774em" y="28.603292461434606em" fill="#aaa"/><rect width="0.9615384615384616em" height="0.405380936806303em" x="56.73076923076923em" y="29.594619063193697em" fill="#aaa"/><rect width="0.9615384615384616em" height="0.5954126738426658em" x="57.69230769230769em" y="29.404587326157333em" fill="#aaa"/><rect width="0.9615384615384616em" height="0.25119968731310627em" x="58.65384615384615em" y="29.748800312686893em" fill="#aaa"/><rect width="0.9615384615384616em" height="0.5557119558464837em" x="59.61538461538462em" y="29.444288044153517em" fill="#aaa"/><rect width="0.9615384615384616em" height="0.30262268878281817em" x="60.57692307692308em" y="29.69737731121718em" fill="#aaa"/><rect width="0.9615384615384616em" height="0.5388318529673017em" x="61.53846153846154em" y="29.461168147032698em" fill="#aaa"/><rect width="0.9615384615384616em" height="0.5296310169936814em" x="62.5em" y="29.470368983006317em" fill="#aaa"/><rect width="0.9615384615384616em" height="0.5241529685899128em" x="63.46153846153846em" y="29.475847031410087em" fill="#aaa"/><rect width="0.9615384615384616em" height="0.2745387867710677em" x="64.42307692307692em" y="29.725461213228932em" fill="#aaa"/><rect width="0.9615384615384616em" height="0.31115194528432em" x="65.38461538461539em" y="29.68884805471568em" fill="#aaa"/><rect width="0.9615384615384616em" height="0.3960085058004297em" x="66.34615384615385em" y="29.60399149419957em" fill="#aaa"/><rect width="0.9615384615384616em" height="0.27194334326789976em" x="67.3076923076923em" y="29.7280566567321em" fill="#aaa"/><rect width="0.9615384615384616em" height="0.3989240314421159em" x="68.26923076923077em" y="29.601075968557883em" fill="#aaa"/><rect width="0.9615384615384616em" height="0.4679872934719274em" x="69.23076923076923em" y="29.53201270652807em" fill="#aaa"/><rect width="0.9615384615384616em" height="0.4551860968628917em" x="70.1923076923077em" y="29.544813903137108em" fill="#aaa"/><rect width="0.9615384615384616em" height="0.9824255723700497em" x="71.15384615384616em" y="29.01757442762995em" fill="#aaa"/><rect width="0.9615384615384616em" height="0.8514950205303098em" x="72.11538461538461em" y="29.148504979469692em" fill="#aaa"/><rect width="0.9615384615384616em" height="0.4782908196748337em" x="73.07692307692308em" y="29.521709180325168em" fill="#aaa"/><rect width="0.9615384615384616em" height="0.34008803074982347em" x="74.03846153846155em" y="29.659911969250178em" fill="#aaa"/><rect width="0.9615384615384616em" height="0.45820746259165174em" x="75em" y="29.541792537408348em" fill="#aaa"/><rect width="0.9615384615384616em" height="0.48574344358201327em" x="75.96153846153847em" y="29.514256556417987em" fill="#aaa"/><rect width="0.9615384615384616em" height="0.3688384881154139em" x="76.92307692307692em" y="29.631161511884585em" fill="#aaa"/><rect width="0.9615384615384616em" height="0.6775590953160583em" x="77.88461538461539em" y="29.32244090468394em" fill="#aaa"/><rect width="0.9615384615384616em" height="0.3765635425542782em" x="78.84615384615385em" y="29.62343645744572em" fill="#aaa"/><rect width="0.9615384615384616em" height="0.3705738773178923em" x="79.8076923076923em" y="29.62942612268211em" fill="#aaa"/><rect width="0.9615384615384616em" height="0.3239778103315117em" x="80.76923076923077em" y="29.676022189668487em" fill="#aaa"/><rect width="0.9615384615384616em" height="0.33223344832486706em" x="81.73076923076923em" y="29.667766551675133em" fill="#aaa"/><rect width="0.9615384615384616em" height="0.4932608259843717em" x="82.6923076923077em" y="29.506739174015628em" fill="#aaa"/><rect width="0.9615384615384616em" height="0.4632614549033219em" x="83.65384615384616em" y="29.53673854509668em" fill="#aaa"/><rect width="0.9615384615384616em" height="0.37680539669288543em" x="84.61538461538461em" y="29.623194603307116em" fill="#aaa"/><rect width="0.9615384615384616em" height="0.33374973677833664em" x="85.57692307692308em" y="29.666250263221663em" fill="#aaa"/><rect width="0.9615384615384616em" height="0.4550308299572053em" x="86.53846153846155em" y="29.544969170042794em" fill="#aaa"/><rect width="0.9615384615384616em" height="0.45356175978886415em" x="87.5em" y="29.546438240211135em" fill="#aaa"/><rect width="0.9615384615384616em" height="0.5299792267570488em" x="88.46153846153847em" y="29.47002077324295em" fill="#aaa"/><rect width="0.9615384615384616em" height="0.4585198773429915em" x="89.42307692307692em" y="29.54148012265701em" fill="#aaa"/><rect width="0.9615384615384616em" height="0.40583334762133627em" x="90.38461538461539em" y="29.594166652378664em" fill="#aaa"/><rect width="0.9615384615384616em" height="0.4405954098928644em" x="91.34615384615385em" y="29.559404590107135em" fill="#aaa"/><rect width="0.9615384615384616em" height="0.4404983845007534em" x="92.3076923076923em" y="29.559501615499247em" fill="#aaa"/><rect width="0.9615384615384616em" height="0.3694334308520292em" x="93.26923076923077em" y="29.63056656914797em" fill="#aaa"/><rect width="0.9615384615384616em" height="0.38782295693847046em" x="94.23076923076923em" y="29.61217704306153em" fill="#aaa"/><rect width="0.9615384615384616em" height="0.25693368733999067em" x="95.1923076923077em" y="29.74306631266001em" fill="#aaa"/><rect width="0.9615384615384616em" height="0.47552604944904575em" x="96.15384615384616em" y="29.524473950550956em" fill="#aaa"/><rect width="0.9615384615384616em" height="0.4601787055016199em" x="97.11538461538461em" y="29.53982129449838em" fill="#aaa"/><rect width="0.9615384615384616em" height="0.4460832816944574em" x="98.07692307692308em" y="29.553916718305544em" fill="#aaa"/><rect width="0.9615384615384616em" height="0.6908055814906587em" x="99.03846153846155em" y="29.309194418509342em" fill="#aaa"/></svg>