<?xml version="1.0" standalone="no"?>
<svg xmlns:xlink="http://www.w3.org/1999/xlink" xmlns="http://www.w3.org/2000/svg" class="topic-graph" style="width: 10vw; height: 3em; text-align: center;"><rect width="0.09615384615384616em" height="0.11334835539587691em" x="0vw" y="2.886651644604123em" fill="#aaa"/><rect width="0.09615384615384616em" height="0.258644663021924em" x="0.09615384615384616vw" y="2.741355336978076em" fill="#aaa"/><rect width="0.09615384615384616em" height="2.7981782386237417em" x="0.19230769230769232vw" y="0.2018217613762583em" fill="#aaa"/><rect width="0.09615384615384616em" height="3em" x="0.2884615384615385vw" y="0em" fill="#aaa"/><rect width="0.09615384615384616em" height="0.7744738081160392em" x="0.38461538461538464vw" y="2.2255261918839606em" fill="#aaa"/><rect width="0.09615384615384616em" height="1.882758389338819em" x="0.4807692307692308vw" y="1.117241610661181em" fill="#aaa"/><rect width="0.09615384615384616em" height="1.989839124348891em" x="0.576923076923077vw" y="1.010160875651109em" fill="#aaa"/><rect width="0.09615384615384616em" height="0.9812866045654371em" x="0.6730769230769231vw" y="2.018713395434563em" fill="#aaa"/><rect width="0.09615384615384616em" height="1.1504334473010305em" x="0.7692307692307693vw" y="1.8495665526989695em" fill="#aaa"/><rect width="0.09615384615384616em" height="0.4229540831692143em" x="0.8653846153846154vw" y="2.5770459168307855em" fill="#aaa"/><rect width="0.09615384615384616em" height="0.6710533265149972em" x="0.9615384615384616vw" y="2.328946673485003em" fill="#aaa"/><rect width="0.09615384615384616em" height="0.8167795060045336em" x="1.0576923076923077vw" y="2.1832204939954662em" fill="#aaa"/><rect width="0.09615384615384616em" height="0.6650220124054085em" x="1.153846153846154vw" y="2.3349779875945913em" fill="#aaa"/><rect width="0.09615384615384616em" height="1.7175588402002828em" x="1.25vw" y="1.2824411597997172em" fill="#aaa"/><rect width="0.09615384615384616em" height="1.6167407750542844em" x="1.3461538461538463vw" y="1.3832592249457156em" fill="#aaa"/><rect width="0.09615384615384616em" height="1.6511812837518378em" x="1.4423076923076923vw" y="1.3488187162481622em" fill="#aaa"/><rect width="0.09615384615384616em" height="2.793487795817313em" x="1.5384615384615385vw" y="0.2065122041826868em" fill="#aaa"/><rect width="0.09615384615384616em" height="1.812812080583441em" x="1.6346153846153848vw" y="1.187187919416559em" fill="#aaa"/><rect width="0.09615384615384616em" height="2.0339147748999693em" x="1.7307692307692308vw" y="0.9660852251000307em" fill="#aaa"/><rect width="0.09615384615384616em" height="2.604894749304181em" x="1.826923076923077vw" y="0.3951052506958188em" fill="#aaa"/><rect width="0.09615384615384616em" height="2.297531431678807em" x="1.9230769230769231vw" y="0.7024685683211929em" fill="#aaa"/><rect width="0.09615384615384616em" height="2.18858549140757em" x="2.019230769230769vw" y="0.81141450859243em" fill="#aaa"/><rect width="0.09615384615384616em" height="1.4640260588325873em" x="2.1153846153846154vw" y="1.5359739411674127em" fill="#aaa"/><rect width="0.09615384615384616em" height="0.35778690288297693em" x="2.2115384615384617vw" y="2.6422130971170232em" fill="#aaa"/><rect width="0.09615384615384616em" height="1.0027534081344567em" x="2.307692307692308vw" y="1.9972465918655433em" fill="#aaa"/><rect width="0.09615384615384616em" height="2.371150806697557em" x="2.403846153846154vw" y="0.6288491933024432em" fill="#aaa"/><rect width="0.09615384615384616em" height="1.1174531732995692em" x="2.5vw" y="1.8825468267004308em" fill="#aaa"/><rect width="0.09615384615384616em" height="1.930054857636504em" x="2.5961538461538463vw" y="1.069945142363496em" fill="#aaa"/><rect width="0.09615384615384616em" height="2.163422373507013em" x="2.6923076923076925vw" y="0.836577626492987em" fill="#aaa"/><rect width="0.09615384615384616em" height="2.105456209300927em" x="2.7884615384615388vw" y="0.894543790699073em" fill="#aaa"/><rect width="0.09615384615384616em" height="1.420673631719019em" x="2.8846153846153846vw" y="1.579326368280981em" fill="#aaa"/><rect width="0.09615384615384616em" height="1.132265442623091em" x="2.980769230769231vw" y="1.867734557376909em" fill="#aaa"/><rect width="0.09615384615384616em" height="1.5899009374223074em" x="3.076923076923077vw" y="1.4100990625776926em" fill="#aaa"/><rect width="0.09615384615384616em" height="1.4462890498635304em" x="3.1730769230769234vw" y="1.5537109501364696em" fill="#aaa"/><rect width="0.09615384615384616em" height="2.4003317755347693em" x="3.2692307692307696vw" y="0.5996682244652307em" fill="#aaa"/><rect width="0.09615384615384616em" height="2.7235663758683284em" x="3.3653846153846154vw" y="0.2764336241316716em" fill="#aaa"/><rect width="0.09615384615384616em" height="1.4431854465282514em" x="3.4615384615384617vw" y="1.5568145534717486em" fill="#aaa"/><rect width="0.09615384615384616em" height="1.59905482595468em" x="3.557692307692308vw" y="1.40094517404532em" fill="#aaa"/><rect width="0.09615384615384616em" height="1.8458183249128894em" x="3.653846153846154vw" y="1.1541816750871106em" fill="#aaa"/><rect width="0.09615384615384616em" height="2.0833316721538915em" x="3.75vw" y="0.9166683278461085em" fill="#aaa"/><rect width="0.09615384615384616em" height="1.0999688611129905em" x="3.8461538461538463vw" y="1.9000311388870095em" fill="#aaa"/><rect width="0.09615384615384616em" height="1.0519773679999127em" x="3.9423076923076925vw" y="1.9480226320000873em" fill="#aaa"/><rect width="0.09615384615384616em" height="0.6007380036937182em" x="4.038461538461538vw" y="2.399261996306282em" fill="#aaa"/><rect width="0.09615384615384616em" height="1.4468349910684117em" x="4.134615384615385vw" y="1.5531650089315883em" fill="#aaa"/><rect width="0.09615384615384616em" height="0.7682949438695357em" x="4.230769230769231vw" y="2.2317050561304645em" fill="#aaa"/><rect width="0.09615384615384616em" height="1.213110936369341em" x="4.3269230769230775vw" y="1.786889063630659em" fill="#aaa"/><rect width="0.09615384615384616em" height="2.0048514140331326em" x="4.423076923076923vw" y="0.9951485859668674em" fill="#aaa"/><rect width="0.09615384615384616em" height="0.7722878791794363em" x="4.519230769230769vw" y="2.2277121208205637em" fill="#aaa"/><rect width="0.09615384615384616em" height="1.5890010097216503em" x="4.615384615384616vw" y="1.4109989902783497em" fill="#aaa"/><rect width="0.09615384615384616em" height="1.0310277186881733em" x="4.711538461538462vw" y="1.9689722813118267em" fill="#aaa"/><rect width="0.09615384615384616em" height="1.1750805665190907em" x="4.807692307692308vw" y="1.8249194334809093em" fill="#aaa"/><rect width="0.09615384615384616em" height="2.118874027749725em" x="4.903846153846154vw" y="0.8811259722502749em" fill="#aaa"/><rect width="0.09615384615384616em" height="1.4358953479830592em" x="5vw" y="1.5641046520169408em" fill="#aaa"/><rect width="0.09615384615384616em" height="1.0676089715459116em" x="5.096153846153847vw" y="1.9323910284540884em" fill="#aaa"/><rect width="0.09615384615384616em" height="2.4954912001227685em" x="5.1923076923076925vw" y="0.5045087998772315em" fill="#aaa"/><rect width="0.09615384615384616em" height="0.9751847800455129em" x="5.288461538461538vw" y="2.024815219954487em" fill="#aaa"/><rect width="0.09615384615384616em" height="1.470398210022795em" x="5.384615384615385vw" y="1.529601789977205em" fill="#aaa"/><rect width="0.09615384615384616em" height="0.8955081887190491em" x="5.480769230769231vw" y="2.1044918112809508em" fill="#aaa"/><rect width="0.09615384615384616em" height="1.1693463952716525em" x="5.5769230769230775vw" y="1.8306536047283475em" fill="#aaa"/><rect width="0.09615384615384616em" height="0.6404931528911378em" x="5.673076923076923vw" y="2.3595068471088623em" fill="#aaa"/><rect width="0.09615384615384616em" height="0.7833960551815635em" x="5.769230769230769vw" y="2.2166039448184365em" fill="#aaa"/><rect width="0.09615384615384616em" height="1.665827959593798em" x="5.865384615384616vw" y="1.334172040406202em" fill="#aaa"/><rect width="0.09615384615384616em" height="1.2054309778169265em" x="5.961538461538462vw" y="1.7945690221830735em" fill="#aaa"/><rect width="0.09615384615384616em" height="1.106262958467651em" x="6.057692307692308vw" y="1.893737041532349em" fill="#aaa"/><rect width="0.09615384615384616em" height="1.518696131774841em" x="6.153846153846154vw" y="1.481303868225159em" fill="#aaa"/><rect width="0.09615384615384616em" height="1.6915470259956589em" x="6.25vw" y="1.3084529740043411em" fill="#aaa"/><rect width="0.09615384615384616em" height="0.9507231050109324em" x="6.346153846153847vw" y="2.0492768949890676em" fill="#aaa"/><rect width="0.09615384615384616em" height="1.9208808251096605em" x="6.4423076923076925vw" y="1.0791191748903395em" fill="#aaa"/><rect width="0.09615384615384616em" height="1.748875328271911em" x="6.538461538461539vw" y="1.251124671728089em" fill="#aaa"/><rect width="0.09615384615384616em" height="2.64120931966511em" x="6.634615384615385vw" y="0.35879068033489014em" fill="#aaa"/><rect width="0.09615384615384616em" height="2.197591715956226em" x="6.730769230769231vw" y="0.8024082840437741em" fill="#aaa"/><rect width="0.09615384615384616em" height="2.3773822749402513em" x="6.8269230769230775vw" y="0.6226177250597487em" fill="#aaa"/><rect width="0.09615384615384616em" height="2.2709666084510025em" x="6.923076923076923vw" y="0.7290333915489975em" fill="#aaa"/><rect width="0.09615384615384616em" height="1.0813716604920391em" x="7.01923076923077vw" y="1.9186283395079609em" fill="#aaa"/><rect width="0.09615384615384616em" height="0.8851086092851577em" x="7.115384615384616vw" y="2.1148913907148423em" fill="#aaa"/><rect width="0.09615384615384616em" height="1.043585099769878em" x="7.211538461538462vw" y="1.956414900230122em" fill="#aaa"/><rect width="0.09615384615384616em" height="1.2705315277107725em" x="7.307692307692308vw" y="1.7294684722892275em" fill="#aaa"/><rect width="0.09615384615384616em" height="1.3060156508022929em" x="7.403846153846154vw" y="1.6939843491977071em" fill="#aaa"/><rect width="0.09615384615384616em" height="1.2247798709524964em" x="7.5vw" y="1.7752201290475036em" fill="#aaa"/><rect width="0.09615384615384616em" height="1.1000070381379048em" x="7.596153846153847vw" y="1.8999929618620952em" fill="#aaa"/><rect width="0.09615384615384616em" height="1.183127868926518em" x="7.6923076923076925vw" y="1.816872131073482em" fill="#aaa"/><rect width="0.09615384615384616em" height="1.2712188768437476em" x="7.788461538461539vw" y="1.7287811231562524em" fill="#aaa"/><rect width="0.09615384615384616em" height="1.2111228425576277em" x="7.884615384615385vw" y="1.7888771574423723em" fill="#aaa"/><rect width="0.09615384615384616em" height="1.5035974086638086em" x="7.980769230769231vw" y="1.4964025913361914em" fill="#aaa"/><rect width="0.09615384615384616em" height="1.4503813994368977em" x="8.076923076923077vw" y="1.5496186005631023em" fill="#aaa"/><rect width="0.09615384615384616em" height="1.1563535506627711em" x="8.173076923076923vw" y="1.8436464493372289em" fill="#aaa"/><rect width="0.09615384615384616em" height="1.2738230484342383em" x="8.26923076923077vw" y="1.7261769515657617em" fill="#aaa"/><rect width="0.09615384615384616em" height="0.8582443898749648em" x="8.365384615384615vw" y="2.1417556101250352em" fill="#aaa"/><rect width="0.09615384615384616em" height="1.0598828988319342em" x="8.461538461538462vw" y="1.9401171011680658em" fill="#aaa"/><rect width="0.09615384615384616em" height="0.6826012541947742em" x="8.557692307692308vw" y="2.317398745805226em" fill="#aaa"/><rect width="0.09615384615384616em" height="0.6146227592207225em" x="8.653846153846155vw" y="2.3853772407792775em" fill="#aaa"/><rect width="0.09615384615384616em" height="1.0125698881670426em" x="8.75vw" y="1.9874301118329574em" fill="#aaa"/><rect width="0.09615384615384616em" height="1.3082165341116774em" x="8.846153846153847vw" y="1.6917834658883226em" fill="#aaa"/><rect width="0.09615384615384616em" height="0.882977460569897em" x="8.942307692307693vw" y="2.1170225394301028em" fill="#aaa"/><rect width="0.09615384615384616em" height="1.1231017291501524em" x="9.038461538461538vw" y="1.8768982708498476em" fill="#aaa"/><rect width="0.09615384615384616em" height="0.6868169403443732em" x="9.134615384615385vw" y="2.3131830596556266em" fill="#aaa"/><rect width="0.09615384615384616em" height="0.7219428340717029em" x="9.230769230769232vw" y="2.2780571659282973em" fill="#aaa"/><rect width="0.09615384615384616em" height="0.8603265503689597em" x="9.326923076923077vw" y="2.13967344963104em" fill="#aaa"/><rect width="0.09615384615384616em" height="0.6000333418364185em" x="9.423076923076923vw" y="2.3999666581635815em" fill="#aaa"/><rect width="0.09615384615384616em" height="0.7936476298552377em" x="9.51923076923077vw" y="2.2063523701447623em" fill="#aaa"/><rect width="0.09615384615384616em" height="0.5952008525619816em" x="9.615384615384617vw" y="2.4047991474380184em" fill="#aaa"/><rect width="0.09615384615384616em" height="0.6208177387576528em" x="9.711538461538462vw" y="2.379182261242347em" fill="#aaa"/><rect width="0.09615384615384616em" height="0.8709195515379989em" x="9.807692307692308vw" y="2.129080448462001em" fill="#aaa"/><rect width="0.09615384615384616em" height="0.8140627027630583em" x="9.903846153846155vw" y="2.1859372972369417em" fill="#aaa"/></svg>