<?xml version="1.0" standalone="no"?>
<svg xmlns:xlink="http://www.w3.org/1999/xlink" xmlns="http://www.w3.org/2000/svg" class="topic-graph" style="width: 100em; height: 30em; text-align: center;"><rect width="0.9615384615384616em" height="6.868346517235243em" x="0em" y="23.131653482764758em" fill="#aaa"/><rect width="0.9615384615384616em" height="7.205594078537452em" x="0.9615384615384616em" y="22.79440592146255em" fill="#aaa"/><rect width="0.9615384615384616em" height="6.2252734990085346em" x="1.9230769230769231em" y="23.774726500991466em" fill="#aaa"/><rect width="0.9615384615384616em" height="0.8186608751833939em" x="2.8846153846153846em" y="29.181339124816606em" fill="#aaa"/><rect width="0.9615384615384616em" height="6.1556073456971445em" x="3.8461538461538463em" y="23.844392654302855em" fill="#aaa"/><rect width="0.9615384615384616em" height="6.388134584194311em" x="4.8076923076923075em" y="23.61186541580569em" fill="#aaa"/><rect width="0.9615384615384616em" height="11.866415433423098em" x="5.769230769230769em" y="18.1335845665769em" fill="#aaa"/><rect width="0.9615384615384616em" height="30em" x="6.730769230769231em" y="0em" fill="#aaa"/><rect width="0.9615384615384616em" height="3.2900009454308146em" x="7.6923076923076925em" y="26.709999054569185em" fill="#aaa"/><rect width="0.9615384615384616em" height="3.616773428729139em" x="8.653846153846153em" y="26.38322657127086em" fill="#aaa"/><rect width="0.9615384615384616em" height="3.555554631681963em" x="9.615384615384615em" y="26.444445368318036em" fill="#aaa"/><rect width="0.9615384615384616em" height="10.62682291281375em" x="10.576923076923077em" y="19.37317708718625em" fill="#aaa"/><rect width="0.9615384615384616em" height="14.092556987052246em" x="11.538461538461538em" y="15.907443012947754em" fill="#aaa"/><rect width="0.9615384615384616em" height="3.7110958833015304em" x="12.5em" y="26.28890411669847em" fill="#aaa"/><rect width="0.9615384615384616em" height="1.8952552656975454em" x="13.461538461538462em" y="28.104744734302454em" fill="#aaa"/><rect width="0.9615384615384616em" height="6.076215825990626em" x="14.423076923076923em" y="23.923784174009374em" fill="#aaa"/><rect width="0.9615384615384616em" height="5.9149492775734585em" x="15.384615384615385em" y="24.08505072242654em" fill="#aaa"/><rect width="0.9615384615384616em" height="4.918186754348273em" x="16.346153846153847em" y="25.081813245651727em" fill="#aaa"/><rect width="0.9615384615384616em" height="1.586896572344967em" x="17.307692307692307em" y="28.413103427655034em" fill="#aaa"/><rect width="0.9615384615384616em" height="3.270615246883685em" x="18.26923076923077em" y="26.729384753116314em" fill="#aaa"/><rect width="0.9615384615384616em" height="5.1650670949572195em" x="19.23076923076923em" y="24.83493290504278em" fill="#aaa"/><rect width="0.9615384615384616em" height="2.547536738415288em" x="20.192307692307693em" y="27.45246326158471em" fill="#aaa"/><rect width="0.9615384615384616em" height="7.903296600414991em" x="21.153846153846153em" y="22.09670339958501em" fill="#aaa"/><rect width="0.9615384615384616em" height="4.409270376904393em" x="22.115384615384617em" y="25.590729623095605em" fill="#aaa"/><rect width="0.9615384615384616em" height="4.657183078422245em" x="23.076923076923077em" y="25.342816921577754em" fill="#aaa"/><rect width="0.9615384615384616em" height="3.4541663744055393em" x="24.03846153846154em" y="26.54583362559446em" fill="#aaa"/><rect width="0.9615384615384616em" height="4.068072355947795em" x="25em" y="25.931927644052205em" fill="#aaa"/><rect width="0.9615384615384616em" height="5.465520349600321em" x="25.961538461538463em" y="24.53447965039968em" fill="#aaa"/><rect width="0.9615384615384616em" height="6.925872234098524em" x="26.923076923076923em" y="23.074127765901476em" fill="#aaa"/><rect width="0.9615384615384616em" height="4.542198648827591em" x="27.884615384615387em" y="25.45780135117241em" fill="#aaa"/><rect width="0.9615384615384616em" height="10.893410334192703em" x="28.846153846153847em" y="19.1065896658073em" fill="#aaa"/><rect width="0.9615384615384616em" height="11.805452830782338em" x="29.80769230769231em" y="18.194547169217664em" fill="#aaa"/><rect width="0.9615384615384616em" height="5.727589432463521em" x="30.76923076923077em" y="24.27241056753648em" fill="#aaa"/><rect width="0.9615384615384616em" height="16.30960843825373em" x="31.73076923076923em" y="13.69039156174627em" fill="#aaa"/><rect width="0.9615384615384616em" height="12.741807094799075em" x="32.69230769230769em" y="17.258192905200925em" fill="#aaa"/><rect width="0.9615384615384616em" height="15.247039949773745em" x="33.65384615384615em" y="14.752960050226255em" fill="#aaa"/><rect width="0.9615384615384616em" height="10.589907343097298em" x="34.61538461538461em" y="19.4100926569027em" fill="#aaa"/><rect width="0.9615384615384616em" height="13.360477640031506em" x="35.57692307692308em" y="16.639522359968495em" fill="#aaa"/><rect width="0.9615384615384616em" height="11.197686280687396em" x="36.53846153846154em" y="18.802313719312604em" fill="#aaa"/><rect width="0.9615384615384616em" height="18.259089264344038em" x="37.5em" y="11.740910735655962em" fill="#aaa"/><rect width="0.9615384615384616em" height="10.828299483610403em" x="38.46153846153846em" y="19.1717005163896em" fill="#aaa"/><rect width="0.9615384615384616em" height="11.168237401499322em" x="39.42307692307693em" y="18.831762598500678em" fill="#aaa"/><rect width="0.9615384615384616em" height="6.33674229049606em" x="40.38461538461539em" y="23.663257709503938em" fill="#aaa"/><rect width="0.9615384615384616em" height="10.964787075080274em" x="41.34615384615385em" y="19.035212924919726em" fill="#aaa"/><rect width="0.9615384615384616em" height="11.446927805157985em" x="42.30769230769231em" y="18.553072194842017em" fill="#aaa"/><rect width="0.9615384615384616em" height="4.800453673161336em" x="43.269230769230774em" y="25.199546326838664em" fill="#aaa"/><rect width="0.9615384615384616em" height="4.705538508820336em" x="44.23076923076923em" y="25.294461491179664em" fill="#aaa"/><rect width="0.9615384615384616em" height="9.430855937691874em" x="45.19230769230769em" y="20.569144062308126em" fill="#aaa"/><rect width="0.9615384615384616em" height="9.232839016834165em" x="46.15384615384615em" y="20.767160983165837em" fill="#aaa"/><rect width="0.9615384615384616em" height="9.859860976509502em" x="47.11538461538461em" y="20.140139023490498em" fill="#aaa"/><rect width="0.9615384615384616em" height="17.2110704797939em" x="48.07692307692308em" y="12.7889295202061em" fill="#aaa"/><rect width="0.9615384615384616em" height="10.175425281223074em" x="49.03846153846154em" y="19.824574718776926em" fill="#aaa"/><rect width="0.9615384615384616em" height="9.03833288085746em" x="50em" y="20.96166711914254em" fill="#aaa"/><rect width="0.9615384615384616em" height="9.675709884966906em" x="50.96153846153846em" y="20.324290115033094em" fill="#aaa"/><rect width="0.9615384615384616em" height="12.585046370300653em" x="51.92307692307693em" y="17.414953629699347em" fill="#aaa"/><rect width="0.9615384615384616em" height="10.587819820179103em" x="52.88461538461539em" y="19.412180179820897em" fill="#aaa"/><rect width="0.9615384615384616em" height="12.019883699795182em" x="53.84615384615385em" y="17.98011630020482em" fill="#aaa"/><rect width="0.9615384615384616em" height="7.812382748937007em" x="54.80769230769231em" y="22.187617251062992em" fill="#aaa"/><rect width="0.9615384615384616em" height="11.578145665359475em" x="55.769230769230774em" y="18.421854334640525em" fill="#aaa"/><rect width="0.9615384615384616em" height="16.547246602175463em" x="56.73076923076923em" y="13.452753397824537em" fill="#aaa"/><rect width="0.9615384615384616em" height="10.326904241421428em" x="57.69230769230769em" y="19.673095758578572em" fill="#aaa"/><rect width="0.9615384615384616em" height="12.87535592011186em" x="58.65384615384615em" y="17.124644079888142em" fill="#aaa"/><rect width="0.9615384615384616em" height="12.388806704612117em" x="59.61538461538462em" y="17.611193295387885em" fill="#aaa"/><rect width="0.9615384615384616em" height="15.738248032669919em" x="60.57692307692308em" y="14.261751967330081em" fill="#aaa"/><rect width="0.9615384615384616em" height="12.080439508621929em" x="61.53846153846154em" y="17.91956049137807em" fill="#aaa"/><rect width="0.9615384615384616em" height="7.98584620335397em" x="62.5em" y="22.01415379664603em" fill="#aaa"/><rect width="0.9615384615384616em" height="18.01473988173737em" x="63.46153846153846em" y="11.98526011826263em" fill="#aaa"/><rect width="0.9615384615384616em" height="15.45273236205009em" x="64.42307692307692em" y="14.54726763794991em" fill="#aaa"/><rect width="0.9615384615384616em" height="14.25109165847719em" x="65.38461538461539em" y="15.74890834152281em" fill="#aaa"/><rect width="0.9615384615384616em" height="6.323197153042657em" x="66.34615384615385em" y="23.676802846957344em" fill="#aaa"/><rect width="0.9615384615384616em" height="14.609709742080408em" x="67.3076923076923em" y="15.390290257919592em" fill="#aaa"/><rect width="0.9615384615384616em" height="17.021175418402695em" x="68.26923076923077em" y="12.978824581597305em" fill="#aaa"/><rect width="0.9615384615384616em" height="11.761096974932032em" x="69.23076923076923em" y="18.23890302506797em" fill="#aaa"/><rect width="0.9615384615384616em" height="8.175997843275221em" x="70.1923076923077em" y="21.82400215672478em" fill="#aaa"/><rect width="0.9615384615384616em" height="18.279351290180983em" x="71.15384615384616em" y="11.720648709819017em" fill="#aaa"/><rect width="0.9615384615384616em" height="21.963029360149065em" x="72.11538461538461em" y="8.036970639850935em" fill="#aaa"/><rect width="0.9615384615384616em" height="15.202915516832006em" x="73.07692307692308em" y="14.797084483167994em" fill="#aaa"/><rect width="0.9615384615384616em" height="16.797620738359665em" x="74.03846153846155em" y="13.202379261640335em" fill="#aaa"/><rect width="0.9615384615384616em" height="13.846118308609487em" x="75em" y="16.153881691390513em" fill="#aaa"/><rect width="0.9615384615384616em" height="17.481156773742594em" x="75.96153846153847em" y="12.518843226257406em" fill="#aaa"/><rect width="0.9615384615384616em" height="16.92113633514537em" x="76.92307692307692em" y="13.07886366485463em" fill="#aaa"/><rect width="0.9615384615384616em" height="16.98993021871168em" x="77.88461538461539em" y="13.010069781288319em" fill="#aaa"/><rect width="0.9615384615384616em" height="17.228787878724525em" x="78.84615384615385em" y="12.771212121275475em" fill="#aaa"/><rect width="0.9615384615384616em" height="16.165486424250233em" x="79.8076923076923em" y="13.834513575749767em" fill="#aaa"/><rect width="0.9615384615384616em" height="19.713864958119043em" x="80.76923076923077em" y="10.286135041880957em" fill="#aaa"/><rect width="0.9615384615384616em" height="18.575095485930838em" x="81.73076923076923em" y="11.424904514069162em" fill="#aaa"/><rect width="0.9615384615384616em" height="19.557564350110738em" x="82.6923076923077em" y="10.442435649889262em" fill="#aaa"/><rect width="0.9615384615384616em" height="19.26641614687472em" x="83.65384615384616em" y="10.733583853125278em" fill="#aaa"/><rect width="0.9615384615384616em" height="17.331843607810985em" x="84.61538461538461em" y="12.668156392189015em" fill="#aaa"/><rect width="0.9615384615384616em" height="16.33157885071658em" x="85.57692307692308em" y="13.668421149283422em" fill="#aaa"/><rect width="0.9615384615384616em" height="16.46125203751588em" x="86.53846153846155em" y="13.53874796248412em" fill="#aaa"/><rect width="0.9615384615384616em" height="16.304773754927083em" x="87.5em" y="13.695226245072917em" fill="#aaa"/><rect width="0.9615384615384616em" height="16.572386595032825em" x="88.46153846153847em" y="13.427613404967175em" fill="#aaa"/><rect width="0.9615384615384616em" height="17.033214924887464em" x="89.42307692307692em" y="12.966785075112536em" fill="#aaa"/><rect width="0.9615384615384616em" height="16.961855109888877em" x="90.38461538461539em" y="13.038144890111123em" fill="#aaa"/><rect width="0.9615384615384616em" height="19.918010535825886em" x="91.34615384615385em" y="10.081989464174114em" fill="#aaa"/><rect width="0.9615384615384616em" height="21.03852649184061em" x="92.3076923076923em" y="8.96147350815939em" fill="#aaa"/><rect width="0.9615384615384616em" height="19.538781152352207em" x="93.26923076923077em" y="10.461218847647793em" fill="#aaa"/><rect width="0.9615384615384616em" height="19.040479810792853em" x="94.23076923076923em" y="10.959520189207147em" fill="#aaa"/><rect width="0.9615384615384616em" height="24.279066008398942em" x="95.1923076923077em" y="5.720933991601058em" fill="#aaa"/><rect width="0.9615384615384616em" height="24.309499928442936em" x="96.15384615384616em" y="5.690500071557064em" fill="#aaa"/><rect width="0.9615384615384616em" height="22.692932018536432em" x="97.11538461538461em" y="7.307067981463568em" fill="#aaa"/><rect width="0.9615384615384616em" height="17.989709277371805em" x="98.07692307692308em" y="12.010290722628195em" fill="#aaa"/><rect width="0.9615384615384616em" height="22.01440380448677em" x="99.03846153846155em" y="7.9855961955132315em" fill="#aaa"/></svg>