<?xml version="1.0" standalone="no"?>
<svg xmlns:xlink="http://www.w3.org/1999/xlink" xmlns="http://www.w3.org/2000/svg" class="topic-graph" style="width: 10vw; height: 3em; text-align: center;"><rect width="0.09615384615384616em" height="0.5920071864557843em" x="0vw" y="2.4079928135442157em" fill="#aaa"/><rect width="0.09615384615384616em" height="0.627359537020652em" x="0.09615384615384616vw" y="2.372640462979348em" fill="#aaa"/><rect width="0.09615384615384616em" height="1.8219322399926932em" x="0.19230769230769232vw" y="1.1780677600073068em" fill="#aaa"/><rect width="0.09615384615384616em" height="2.1729325603678813em" x="0.2884615384615385vw" y="0.8270674396321187em" fill="#aaa"/><rect width="0.09615384615384616em" height="2.123228418418338em" x="0.38461538461538464vw" y="0.8767715815816621em" fill="#aaa"/><rect width="0.09615384615384616em" height="3em" x="0.4807692307692308vw" y="0em" fill="#aaa"/><rect width="0.09615384615384616em" height="1.7056611782816606em" x="0.576923076923077vw" y="1.2943388217183394em" fill="#aaa"/><rect width="0.09615384615384616em" height="1.3920205868728752em" x="0.6730769230769231vw" y="1.6079794131271248em" fill="#aaa"/><rect width="0.09615384615384616em" height="1.7503288586903971em" x="0.7692307692307693vw" y="1.2496711413096029em" fill="#aaa"/><rect width="0.09615384615384616em" height="1.9536431437808508em" x="0.8653846153846154vw" y="1.0463568562191492em" fill="#aaa"/><rect width="0.09615384615384616em" height="1.5501602830739616em" x="0.9615384615384616vw" y="1.4498397169260384em" fill="#aaa"/><rect width="0.09615384615384616em" height="1.3271138500788444em" x="1.0576923076923077vw" y="1.6728861499211556em" fill="#aaa"/><rect width="0.09615384615384616em" height="1.5009429502743026em" x="1.153846153846154vw" y="1.4990570497256974em" fill="#aaa"/><rect width="0.09615384615384616em" height="1.3542251684752784em" x="1.25vw" y="1.6457748315247216em" fill="#aaa"/><rect width="0.09615384615384616em" height="1.1760749315209353em" x="1.3461538461538463vw" y="1.8239250684790647em" fill="#aaa"/><rect width="0.09615384615384616em" height="1.4867872099364534em" x="1.4423076923076923vw" y="1.5132127900635466em" fill="#aaa"/><rect width="0.09615384615384616em" height="0.9781153507168387em" x="1.5384615384615385vw" y="2.0218846492831615em" fill="#aaa"/><rect width="0.09615384615384616em" height="2.0721958623968098em" x="1.6346153846153848vw" y="0.9278041376031902em" fill="#aaa"/><rect width="0.09615384615384616em" height="2.5665290013554625em" x="1.7307692307692308vw" y="0.43347099864453753em" fill="#aaa"/><rect width="0.09615384615384616em" height="2.274127429899497em" x="1.826923076923077vw" y="0.7258725701005031em" fill="#aaa"/><rect width="0.09615384615384616em" height="1.2909923819470008em" x="1.9230769230769231vw" y="1.7090076180529992em" fill="#aaa"/><rect width="0.09615384615384616em" height="1.6531145059174879em" x="2.019230769230769vw" y="1.3468854940825121em" fill="#aaa"/><rect width="0.09615384615384616em" height="1.818903581293568em" x="2.1153846153846154vw" y="1.181096418706432em" fill="#aaa"/><rect width="0.09615384615384616em" height="1.988430298931093em" x="2.2115384615384617vw" y="1.011569701068907em" fill="#aaa"/><rect width="0.09615384615384616em" height="1.5247296872696272em" x="2.307692307692308vw" y="1.4752703127303728em" fill="#aaa"/><rect width="0.09615384615384616em" height="0.7172459715149109em" x="2.403846153846154vw" y="2.282754028485089em" fill="#aaa"/><rect width="0.09615384615384616em" height="1.044889376438367em" x="2.5vw" y="1.955110623561633em" fill="#aaa"/><rect width="0.09615384615384616em" height="1.5056330788051957em" x="2.5961538461538463vw" y="1.4943669211948043em" fill="#aaa"/><rect width="0.09615384615384616em" height="1.7341774230365012em" x="2.6923076923076925vw" y="1.2658225769634988em" fill="#aaa"/><rect width="0.09615384615384616em" height="1.8018659821443117em" x="2.7884615384615388vw" y="1.1981340178556883em" fill="#aaa"/><rect width="0.09615384615384616em" height="1.353810742570395em" x="2.8846153846153846vw" y="1.646189257429605em" fill="#aaa"/><rect width="0.09615384615384616em" height="1.3216913132391879em" x="2.980769230769231vw" y="1.6783086867608121em" fill="#aaa"/><rect width="0.09615384615384616em" height="1.2141623991373742em" x="3.076923076923077vw" y="1.7858376008626258em" fill="#aaa"/><rect width="0.09615384615384616em" height="1.5851565995724144em" x="3.1730769230769234vw" y="1.4148434004275856em" fill="#aaa"/><rect width="0.09615384615384616em" height="1.1867456273424961em" x="3.2692307692307696vw" y="1.8132543726575039em" fill="#aaa"/><rect width="0.09615384615384616em" height="1.0207859801765182em" x="3.3653846153846154vw" y="1.9792140198234818em" fill="#aaa"/><rect width="0.09615384615384616em" height="0.8155123586735362em" x="3.4615384615384617vw" y="2.184487641326464em" fill="#aaa"/><rect width="0.09615384615384616em" height="0.809348152458511em" x="3.557692307692308vw" y="2.190651847541489em" fill="#aaa"/><rect width="0.09615384615384616em" height="1.0716912977412163em" x="3.653846153846154vw" y="1.9283087022587837em" fill="#aaa"/><rect width="0.09615384615384616em" height="0.9281090940646659em" x="3.75vw" y="2.071890905935334em" fill="#aaa"/><rect width="0.09615384615384616em" height="0.8674273344237758em" x="3.8461538461538463vw" y="2.132572665576224em" fill="#aaa"/><rect width="0.09615384615384616em" height="0.734606289261176em" x="3.9423076923076925vw" y="2.265393710738824em" fill="#aaa"/><rect width="0.09615384615384616em" height="0.7254446240175659em" x="4.038461538461538vw" y="2.274555375982434em" fill="#aaa"/><rect width="0.09615384615384616em" height="1.1566408181416001em" x="4.134615384615385vw" y="1.8433591818583999em" fill="#aaa"/><rect width="0.09615384615384616em" height="0.9269176561938118em" x="4.230769230769231vw" y="2.0730823438061883em" fill="#aaa"/><rect width="0.09615384615384616em" height="0.9033128269756387em" x="4.3269230769230775vw" y="2.0966871730243613em" fill="#aaa"/><rect width="0.09615384615384616em" height="0.8015049536621448em" x="4.423076923076923vw" y="2.198495046337855em" fill="#aaa"/><rect width="0.09615384615384616em" height="0.7448898631494748em" x="4.519230769230769vw" y="2.2551101368505253em" fill="#aaa"/><rect width="0.09615384615384616em" height="0.9231911955308416em" x="4.615384615384616vw" y="2.0768088044691586em" fill="#aaa"/><rect width="0.09615384615384616em" height="0.824938774506732em" x="4.711538461538462vw" y="2.175061225493268em" fill="#aaa"/><rect width="0.09615384615384616em" height="0.6667837067090374em" x="4.807692307692308vw" y="2.3332162932909624em" fill="#aaa"/><rect width="0.09615384615384616em" height="0.7360906065221149em" x="4.903846153846154vw" y="2.263909393477885em" fill="#aaa"/><rect width="0.09615384615384616em" height="0.6274373461143263em" x="5vw" y="2.372562653885674em" fill="#aaa"/><rect width="0.09615384615384616em" height="0.6336558956099264em" x="5.096153846153847vw" y="2.3663441043900737em" fill="#aaa"/><rect width="0.09615384615384616em" height="0.5156437327465965em" x="5.1923076923076925vw" y="2.4843562672534034em" fill="#aaa"/><rect width="0.09615384615384616em" height="0.6224562689871618em" x="5.288461538461538vw" y="2.377543731012838em" fill="#aaa"/><rect width="0.09615384615384616em" height="0.7609186828096799em" x="5.384615384615385vw" y="2.23908131719032em" fill="#aaa"/><rect width="0.09615384615384616em" height="0.7107535369688275em" x="5.480769230769231vw" y="2.2892464630311724em" fill="#aaa"/><rect width="0.09615384615384616em" height="0.6907876449791734em" x="5.5769230769230775vw" y="2.3092123550208266em" fill="#aaa"/><rect width="0.09615384615384616em" height="1.026652860259315em" x="5.673076923076923vw" y="1.973347139740685em" fill="#aaa"/><rect width="0.09615384615384616em" height="0.5773110703753761em" x="5.769230769230769vw" y="2.422688929624624em" fill="#aaa"/><rect width="0.09615384615384616em" height="0.49307311502511214em" x="5.865384615384616vw" y="2.506926884974888em" fill="#aaa"/><rect width="0.09615384615384616em" height="0.4369011694695091em" x="5.961538461538462vw" y="2.5630988305304907em" fill="#aaa"/><rect width="0.09615384615384616em" height="0.6015725431751862em" x="6.057692307692308vw" y="2.398427456824814em" fill="#aaa"/><rect width="0.09615384615384616em" height="0.5743431103924004em" x="6.153846153846154vw" y="2.4256568896075996em" fill="#aaa"/><rect width="0.09615384615384616em" height="0.5615283650382621em" x="6.25vw" y="2.438471634961738em" fill="#aaa"/><rect width="0.09615384615384616em" height="0.4960149867246784em" x="6.346153846153847vw" y="2.5039850132753214em" fill="#aaa"/><rect width="0.09615384615384616em" height="0.34529595155751497em" x="6.4423076923076925vw" y="2.654704048442485em" fill="#aaa"/><rect width="0.09615384615384616em" height="0.5124133650121973em" x="6.538461538461539vw" y="2.4875866349878026em" fill="#aaa"/><rect width="0.09615384615384616em" height="0.5695421434713628em" x="6.634615384615385vw" y="2.430457856528637em" fill="#aaa"/><rect width="0.09615384615384616em" height="0.3512175043265246em" x="6.730769230769231vw" y="2.6487824956734753em" fill="#aaa"/><rect width="0.09615384615384616em" height="0.380982264171596em" x="6.8269230769230775vw" y="2.619017735828404em" fill="#aaa"/><rect width="0.09615384615384616em" height="0.34361961950514164em" x="6.923076923076923vw" y="2.6563803804948583em" fill="#aaa"/><rect width="0.09615384615384616em" height="0.4364073414682711em" x="7.01923076923077vw" y="2.563592658531729em" fill="#aaa"/><rect width="0.09615384615384616em" height="0.3667581916146627em" x="7.115384615384616vw" y="2.6332418083853373em" fill="#aaa"/><rect width="0.09615384615384616em" height="0.37743803286265765em" x="7.211538461538462vw" y="2.6225619671373424em" fill="#aaa"/><rect width="0.09615384615384616em" height="0.390770593022174em" x="7.307692307692308vw" y="2.609229406977826em" fill="#aaa"/><rect width="0.09615384615384616em" height="0.39092498555154914em" x="7.403846153846154vw" y="2.6090750144484507em" fill="#aaa"/><rect width="0.09615384615384616em" height="0.3511647534833531em" x="7.5vw" y="2.648835246516647em" fill="#aaa"/><rect width="0.09615384615384616em" height="0.3298878211303807em" x="7.596153846153847vw" y="2.670112178869619em" fill="#aaa"/><rect width="0.09615384615384616em" height="0.26355325256354944em" x="7.6923076923076925vw" y="2.7364467474364504em" fill="#aaa"/><rect width="0.09615384615384616em" height="0.34385654062149984em" x="7.788461538461539vw" y="2.6561434593785003em" fill="#aaa"/><rect width="0.09615384615384616em" height="0.2838205607737887em" x="7.884615384615385vw" y="2.7161794392262113em" fill="#aaa"/><rect width="0.09615384615384616em" height="0.27170338549787676em" x="7.980769230769231vw" y="2.7282966145021232em" fill="#aaa"/><rect width="0.09615384615384616em" height="0.31855485355319035em" x="8.076923076923077vw" y="2.6814451464468094em" fill="#aaa"/><rect width="0.09615384615384616em" height="0.30689464878911804em" x="8.173076923076923vw" y="2.693105351210882em" fill="#aaa"/><rect width="0.09615384615384616em" height="0.3612087361209066em" x="8.26923076923077vw" y="2.6387912638790936em" fill="#aaa"/><rect width="0.09615384615384616em" height="0.25597336858543296em" x="8.365384615384615vw" y="2.744026631414567em" fill="#aaa"/><rect width="0.09615384615384616em" height="0.303126775661302em" x="8.461538461538462vw" y="2.696873224338698em" fill="#aaa"/><rect width="0.09615384615384616em" height="0.2951083452219892em" x="8.557692307692308vw" y="2.704891654778011em" fill="#aaa"/><rect width="0.09615384615384616em" height="0.2578734518765256em" x="8.653846153846155vw" y="2.7421265481234744em" fill="#aaa"/><rect width="0.09615384615384616em" height="0.27763314320885224em" x="8.75vw" y="2.722366856791148em" fill="#aaa"/><rect width="0.09615384615384616em" height="0.2571524635724044em" x="8.846153846153847vw" y="2.7428475364275955em" fill="#aaa"/><rect width="0.09615384615384616em" height="0.2626714555562225em" x="8.942307692307693vw" y="2.7373285444437774em" fill="#aaa"/><rect width="0.09615384615384616em" height="0.2730183222969817em" x="9.038461538461538vw" y="2.7269816777030185em" fill="#aaa"/><rect width="0.09615384615384616em" height="0.2589775786013478em" x="9.134615384615385vw" y="2.741022421398652em" fill="#aaa"/><rect width="0.09615384615384616em" height="0.2627588062357925em" x="9.230769230769232vw" y="2.7372411937642074em" fill="#aaa"/><rect width="0.09615384615384616em" height="0.23178497830888045em" x="9.326923076923077vw" y="2.7682150216911197em" fill="#aaa"/><rect width="0.09615384615384616em" height="0.2584780454795774em" x="9.423076923076923vw" y="2.7415219545204224em" fill="#aaa"/><rect width="0.09615384615384616em" height="0.2617476564691631em" x="9.51923076923077vw" y="2.738252343530837em" fill="#aaa"/><rect width="0.09615384615384616em" height="0.2848792029399937em" x="9.615384615384617vw" y="2.715120797060006em" fill="#aaa"/><rect width="0.09615384615384616em" height="0.256094996566357em" x="9.711538461538462vw" y="2.743905003433643em" fill="#aaa"/><rect width="0.09615384615384616em" height="0.2608151640382584em" x="9.807692307692308vw" y="2.7391848359617414em" fill="#aaa"/><rect width="0.09615384615384616em" height="0.23021492197577115em" x="9.903846153846155vw" y="2.769785078024229em" fill="#aaa"/></svg>