<?xml version="1.0" standalone="no"?>
<svg xmlns:xlink="http://www.w3.org/1999/xlink" xmlns="http://www.w3.org/2000/svg" class="topic-graph" style="width: 100em; height: 30em; text-align: center;"><rect width="0.9615384615384616em" height="1.2810107617709616em" x="0em" y="28.71898923822904em" fill="#aaa"/><rect width="0.9615384615384616em" height="29.815801954255576em" x="0.9615384615384616em" y="0.18419804574442367em" fill="#aaa"/><rect width="0.9615384615384616em" height="0.33057207143922634em" x="1.9230769230769231em" y="29.669427928560772em" fill="#aaa"/><rect width="0.9615384615384616em" height="3.2933610227196897em" x="2.8846153846153846em" y="26.70663897728031em" fill="#aaa"/><rect width="0.9615384615384616em" height="8.582491919442347em" x="3.8461538461538463em" y="21.417508080557653em" fill="#aaa"/><rect width="0.9615384615384616em" height="4.929387166824171em" x="4.8076923076923075em" y="25.07061283317583em" fill="#aaa"/><rect width="0.9615384615384616em" height="12.18955255576968em" x="5.769230769230769em" y="17.81044744423032em" fill="#aaa"/><rect width="0.9615384615384616em" height="0.6998350212101179em" x="6.730769230769231em" y="29.300164978789883em" fill="#aaa"/><rect width="0.9615384615384616em" height="5.7207921188434625em" x="7.6923076923076925em" y="24.279207881156537em" fill="#aaa"/><rect width="0.9615384615384616em" height="1.4061794523434925em" x="8.653846153846153em" y="28.593820547656506em" fill="#aaa"/><rect width="0.9615384615384616em" height="0.7392010336358491em" x="9.615384615384615em" y="29.260798966364153em" fill="#aaa"/><rect width="0.9615384615384616em" height="15.461813550896869em" x="10.576923076923077em" y="14.538186449103131em" fill="#aaa"/><rect width="0.9615384615384616em" height="2.206730203124223em" x="11.538461538461538em" y="27.793269796875776em" fill="#aaa"/><rect width="0.9615384615384616em" height="1.6739304509862842em" x="12.5em" y="28.326069549013717em" fill="#aaa"/><rect width="0.9615384615384616em" height="1.4706496397834117em" x="13.461538461538462em" y="28.52935036021659em" fill="#aaa"/><rect width="0.9615384615384616em" height="3.292277732882361em" x="14.423076923076923em" y="26.70772226711764em" fill="#aaa"/><rect width="0.9615384615384616em" height="6.839417878365278em" x="15.384615384615385em" y="23.16058212163472em" fill="#aaa"/><rect width="0.9615384615384616em" height="0.6567943604816122em" x="16.346153846153847em" y="29.343205639518388em" fill="#aaa"/><rect width="0.9615384615384616em" height="2.0476555748893275em" x="17.307692307692307em" y="27.952344425110674em" fill="#aaa"/><rect width="0.9615384615384616em" height="0.5837523610950754em" x="18.26923076923077em" y="29.416247638904924em" fill="#aaa"/><rect width="0.9615384615384616em" height="1.2661191483749974em" x="19.23076923076923em" y="28.733880851625003em" fill="#aaa"/><rect width="0.9615384615384616em" height="1.1811673523978996em" x="20.192307692307693em" y="28.8188326476021em" fill="#aaa"/><rect width="0.9615384615384616em" height="0.7076767733976594em" x="21.153846153846153em" y="29.292323226602342em" fill="#aaa"/><rect width="0.9615384615384616em" height="1.6572981352031173em" x="22.115384615384617em" y="28.342701864796883em" fill="#aaa"/><rect width="0.9615384615384616em" height="1.6908101407603375em" x="23.076923076923077em" y="28.309189859239662em" fill="#aaa"/><rect width="0.9615384615384616em" height="3.7099701946072887em" x="24.03846153846154em" y="26.290029805392713em" fill="#aaa"/><rect width="0.9615384615384616em" height="1.0998557353862322em" x="25em" y="28.90014426461377em" fill="#aaa"/><rect width="0.9615384615384616em" height="3.892657358466261em" x="25.961538461538463em" y="26.10734264153374em" fill="#aaa"/><rect width="0.9615384615384616em" height="1.3219079701044911em" x="26.923076923076923em" y="28.67809202989551em" fill="#aaa"/><rect width="0.9615384615384616em" height="5.522786683233463em" x="27.884615384615387em" y="24.477213316766537em" fill="#aaa"/><rect width="0.9615384615384616em" height="1.1871054018846425em" x="28.846153846153847em" y="28.812894598115356em" fill="#aaa"/><rect width="0.9615384615384616em" height="1.5043693597282972em" x="29.80769230769231em" y="28.495630640271703em" fill="#aaa"/><rect width="0.9615384615384616em" height="2.4991996291047345em" x="30.76923076923077em" y="27.500800370895266em" fill="#aaa"/><rect width="0.9615384615384616em" height="6.8973934081314em" x="31.73076923076923em" y="23.1026065918686em" fill="#aaa"/><rect width="0.9615384615384616em" height="0.8902876545443524em" x="32.69230769230769em" y="29.109712345455648em" fill="#aaa"/><rect width="0.9615384615384616em" height="0.8648243392147666em" x="33.65384615384615em" y="29.135175660785233em" fill="#aaa"/><rect width="0.9615384615384616em" height="1.6784603595932592em" x="34.61538461538461em" y="28.32153964040674em" fill="#aaa"/><rect width="0.9615384615384616em" height="1.8954826253427028em" x="35.57692307692308em" y="28.1045173746573em" fill="#aaa"/><rect width="0.9615384615384616em" height="3.435735597419998em" x="36.53846153846154em" y="26.56426440258em" fill="#aaa"/><rect width="0.9615384615384616em" height="1.9704811042670873em" x="37.5em" y="28.029518895732913em" fill="#aaa"/><rect width="0.9615384615384616em" height="2.033811125227114em" x="38.46153846153846em" y="27.966188874772886em" fill="#aaa"/><rect width="0.9615384615384616em" height="4.225457685086536em" x="39.42307692307693em" y="25.774542314913464em" fill="#aaa"/><rect width="0.9615384615384616em" height="3.4325411885725075em" x="40.38461538461539em" y="26.567458811427493em" fill="#aaa"/><rect width="0.9615384615384616em" height="1.8741253465493697em" x="41.34615384615385em" y="28.12587465345063em" fill="#aaa"/><rect width="0.9615384615384616em" height="1.8542964173139094em" x="42.30769230769231em" y="28.14570358268609em" fill="#aaa"/><rect width="0.9615384615384616em" height="5.667013065259357em" x="43.269230769230774em" y="24.332986934740642em" fill="#aaa"/><rect width="0.9615384615384616em" height="7.8923969880278095em" x="44.23076923076923em" y="22.10760301197219em" fill="#aaa"/><rect width="0.9615384615384616em" height="4.9916571438400235em" x="45.19230769230769em" y="25.008342856159977em" fill="#aaa"/><rect width="0.9615384615384616em" height="4.05407827796393em" x="46.15384615384615em" y="25.94592172203607em" fill="#aaa"/><rect width="0.9615384615384616em" height="6.235712968596466em" x="47.11538461538461em" y="23.764287031403533em" fill="#aaa"/><rect width="0.9615384615384616em" height="29.42408108783081em" x="48.07692307692308em" y="0.5759189121691897em" fill="#aaa"/><rect width="0.9615384615384616em" height="3.4026212754804157em" x="49.03846153846154em" y="26.597378724519583em" fill="#aaa"/><rect width="0.9615384615384616em" height="6.705683275207575em" x="50em" y="23.294316724792424em" fill="#aaa"/><rect width="0.9615384615384616em" height="6.558877079549601em" x="50.96153846153846em" y="23.441122920450397em" fill="#aaa"/><rect width="0.9615384615384616em" height="10.04921149198061em" x="51.92307692307693em" y="19.95078850801939em" fill="#aaa"/><rect width="0.9615384615384616em" height="2.669647943134608em" x="52.88461538461539em" y="27.330352056865394em" fill="#aaa"/><rect width="0.9615384615384616em" height="8.578422846463482em" x="53.84615384615385em" y="21.421577153536518em" fill="#aaa"/><rect width="0.9615384615384616em" height="2.9768685502160768em" x="54.80769230769231em" y="27.023131449783925em" fill="#aaa"/><rect width="0.9615384615384616em" height="7.36002267162925em" x="55.769230769230774em" y="22.63997732837075em" fill="#aaa"/><rect width="0.9615384615384616em" height="4.72265581840927em" x="56.73076923076923em" y="25.27734418159073em" fill="#aaa"/><rect width="0.9615384615384616em" height="13.166536970834969em" x="57.69230769230769em" y="16.83346302916503em" fill="#aaa"/><rect width="0.9615384615384616em" height="8.421407298130488em" x="58.65384615384615em" y="21.57859270186951em" fill="#aaa"/><rect width="0.9615384615384616em" height="9.71574173907487em" x="59.61538461538462em" y="20.284258260925128em" fill="#aaa"/><rect width="0.9615384615384616em" height="9.872468990817174em" x="60.57692307692308em" y="20.127531009182825em" fill="#aaa"/><rect width="0.9615384615384616em" height="10.924493857796957em" x="61.53846153846154em" y="19.075506142203043em" fill="#aaa"/><rect width="0.9615384615384616em" height="6.908905187902203em" x="62.5em" y="23.091094812097797em" fill="#aaa"/><rect width="0.9615384615384616em" height="4.275418024252635em" x="63.46153846153846em" y="25.724581975747366em" fill="#aaa"/><rect width="0.9615384615384616em" height="2.8404557962766774em" x="64.42307692307692em" y="27.15954420372332em" fill="#aaa"/><rect width="0.9615384615384616em" height="10.366368847976272em" x="65.38461538461539em" y="19.633631152023728em" fill="#aaa"/><rect width="0.9615384615384616em" height="4.832535475804866em" x="66.34615384615385em" y="25.167464524195132em" fill="#aaa"/><rect width="0.9615384615384616em" height="5.544956525264678em" x="67.3076923076923em" y="24.455043474735323em" fill="#aaa"/><rect width="0.9615384615384616em" height="5.581897846356092em" x="68.26923076923077em" y="24.418102153643908em" fill="#aaa"/><rect width="0.9615384615384616em" height="9.055337884331598em" x="69.23076923076923em" y="20.9446621156684em" fill="#aaa"/><rect width="0.9615384615384616em" height="8.077425330282308em" x="70.1923076923077em" y="21.92257466971769em" fill="#aaa"/><rect width="0.9615384615384616em" height="8.296802739356325em" x="71.15384615384616em" y="21.703197260643677em" fill="#aaa"/><rect width="0.9615384615384616em" height="5.381066269381461em" x="72.11538461538461em" y="24.61893373061854em" fill="#aaa"/><rect width="0.9615384615384616em" height="17.009349979373912em" x="73.07692307692308em" y="12.990650020626088em" fill="#aaa"/><rect width="0.9615384615384616em" height="5.306056912487091em" x="74.03846153846155em" y="24.69394308751291em" fill="#aaa"/><rect width="0.9615384615384616em" height="17.130734846267696em" x="75em" y="12.869265153732304em" fill="#aaa"/><rect width="0.9615384615384616em" height="11.398578646205323em" x="75.96153846153847em" y="18.601421353794677em" fill="#aaa"/><rect width="0.9615384615384616em" height="14.495541337097823em" x="76.92307692307692em" y="15.504458662902177em" fill="#aaa"/><rect width="0.9615384615384616em" height="10.662939693779862em" x="77.88461538461539em" y="19.33706030622014em" fill="#aaa"/><rect width="0.9615384615384616em" height="9.188116775117505em" x="78.84615384615385em" y="20.811883224882493em" fill="#aaa"/><rect width="0.9615384615384616em" height="11.3062625291036em" x="79.8076923076923em" y="18.6937374708964em" fill="#aaa"/><rect width="0.9615384615384616em" height="8.727392387969417em" x="80.76923076923077em" y="21.272607612030583em" fill="#aaa"/><rect width="0.9615384615384616em" height="13.908278615364186em" x="81.73076923076923em" y="16.091721384635814em" fill="#aaa"/><rect width="0.9615384615384616em" height="7.229288488469601em" x="82.6923076923077em" y="22.7707115115304em" fill="#aaa"/><rect width="0.9615384615384616em" height="9.930841505391655em" x="83.65384615384616em" y="20.069158494608345em" fill="#aaa"/><rect width="0.9615384615384616em" height="11.562481433076435em" x="84.61538461538461em" y="18.437518566923565em" fill="#aaa"/><rect width="0.9615384615384616em" height="13.11688446555797em" x="85.57692307692308em" y="16.88311553444203em" fill="#aaa"/><rect width="0.9615384615384616em" height="9.212020158862602em" x="86.53846153846155em" y="20.7879798411374em" fill="#aaa"/><rect width="0.9615384615384616em" height="14.113226249472028em" x="87.5em" y="15.886773750527972em" fill="#aaa"/><rect width="0.9615384615384616em" height="14.379950680171339em" x="88.46153846153847em" y="15.620049319828661em" fill="#aaa"/><rect width="0.9615384615384616em" height="21.221261890505232em" x="89.42307692307692em" y="8.778738109494768em" fill="#aaa"/><rect width="0.9615384615384616em" height="17.596585401676013em" x="90.38461538461539em" y="12.403414598323987em" fill="#aaa"/><rect width="0.9615384615384616em" height="30em" x="91.34615384615385em" y="0em" fill="#aaa"/><rect width="0.9615384615384616em" height="23.75372125095869em" x="92.3076923076923em" y="6.246278749041309em" fill="#aaa"/><rect width="0.9615384615384616em" height="14.631054094684266em" x="93.26923076923077em" y="15.368945905315734em" fill="#aaa"/><rect width="0.9615384615384616em" height="11.649610570915em" x="94.23076923076923em" y="18.350389429085em" fill="#aaa"/><rect width="0.9615384615384616em" height="9.83312409912436em" x="95.1923076923077em" y="20.166875900875638em" fill="#aaa"/><rect width="0.9615384615384616em" height="7.703026636162805em" x="96.15384615384616em" y="22.296973363837196em" fill="#aaa"/><rect width="0.9615384615384616em" height="8.897935793652758em" x="97.11538461538461em" y="21.102064206347244em" fill="#aaa"/><rect width="0.9615384615384616em" height="7.804202415382335em" x="98.07692307692308em" y="22.195797584617665em" fill="#aaa"/><rect width="0.9615384615384616em" height="10.517744192675188em" x="99.03846153846155em" y="19.48225580732481em" fill="#aaa"/></svg>