<?xml version="1.0" standalone="no"?>
<svg xmlns:xlink="http://www.w3.org/1999/xlink" xmlns="http://www.w3.org/2000/svg" class="topic-graph" style="width: 10vw; height: 3em; text-align: center;"><rect width="0.09615384615384616em" height="2.3369725350139463em" x="0vw" y="0.6630274649860537em" fill="#aaa"/><rect width="0.09615384615384616em" height="1.445644793284908em" x="0.09615384615384616vw" y="1.554355206715092em" fill="#aaa"/><rect width="0.09615384615384616em" height="0.18762882574057627em" x="0.19230769230769232vw" y="2.8123711742594235em" fill="#aaa"/><rect width="0.09615384615384616em" height="0.665529117540435em" x="0.2884615384615385vw" y="2.334470882459565em" fill="#aaa"/><rect width="0.09615384615384616em" height="1.914657702866091em" x="0.38461538461538464vw" y="1.085342297133909em" fill="#aaa"/><rect width="0.09615384615384616em" height="0.09899309545983148em" x="0.4807692307692308vw" y="2.9010069045401687em" fill="#aaa"/><rect width="0.09615384615384616em" height="0.23241538157150854em" x="0.576923076923077vw" y="2.7675846184284913em" fill="#aaa"/><rect width="0.09615384615384616em" height="0.361190432461364em" x="0.6730769230769231vw" y="2.638809567538636em" fill="#aaa"/><rect width="0.09615384615384616em" height="0.10887147953174955em" x="0.7692307692307693vw" y="2.8911285204682504em" fill="#aaa"/><rect width="0.09615384615384616em" height="0.7055454472331055em" x="0.8653846153846154vw" y="2.2944545527668945em" fill="#aaa"/><rect width="0.09615384615384616em" height="0.3688163451202632em" x="0.9615384615384616vw" y="2.6311836548797367em" fill="#aaa"/><rect width="0.09615384615384616em" height="0.04911552281155209em" x="1.0576923076923077vw" y="2.9508844771884477em" fill="#aaa"/><rect width="0.09615384615384616em" height="0.24159704101913299em" x="1.153846153846154vw" y="2.758402958980867em" fill="#aaa"/><rect width="0.09615384615384616em" height="0.18640662507630668em" x="1.25vw" y="2.8135933749236934em" fill="#aaa"/><rect width="0.09615384615384616em" height="0.0385377976370206em" x="1.3461538461538463vw" y="2.9614622023629793em" fill="#aaa"/><rect width="0.09615384615384616em" height="0.07561015816989354em" x="1.4423076923076923vw" y="2.9243898418301066em" fill="#aaa"/><rect width="0.09615384615384616em" height="0.7741751643983704em" x="1.5384615384615385vw" y="2.2258248356016295em" fill="#aaa"/><rect width="0.09615384615384616em" height="0.21601696385480515em" x="1.6346153846153848vw" y="2.783983036145195em" fill="#aaa"/><rect width="0.09615384615384616em" height="0.3284927949808em" x="1.7307692307692308vw" y="2.6715072050192em" fill="#aaa"/><rect width="0.09615384615384616em" height="0.1346857645275072em" x="1.826923076923077vw" y="2.8653142354724928em" fill="#aaa"/><rect width="0.09615384615384616em" height="0.45671320117724085em" x="1.9230769230769231vw" y="2.543286798822759em" fill="#aaa"/><rect width="0.09615384615384616em" height="0.04939522457558405em" x="2.019230769230769vw" y="2.950604775424416em" fill="#aaa"/><rect width="0.09615384615384616em" height="0.18542011659786856em" x="2.1153846153846154vw" y="2.8145798834021316em" fill="#aaa"/><rect width="0.09615384615384616em" height="0.22811466640805564em" x="2.2115384615384617vw" y="2.7718853335919444em" fill="#aaa"/><rect width="0.09615384615384616em" height="0.03145424334669296em" x="2.307692307692308vw" y="2.968545756653307em" fill="#aaa"/><rect width="0.09615384615384616em" height="0.16493649573226737em" x="2.403846153846154vw" y="2.835063504267733em" fill="#aaa"/><rect width="0.09615384615384616em" height="0.13625736950078007em" x="2.5vw" y="2.8637426304992197em" fill="#aaa"/><rect width="0.09615384615384616em" height="0.17092502794091824em" x="2.5961538461538463vw" y="2.8290749720590815em" fill="#aaa"/><rect width="0.09615384615384616em" height="0.04674417379696676em" x="2.6923076923076925vw" y="2.953255826203033em" fill="#aaa"/><rect width="0.09615384615384616em" height="0.11423917700167747em" x="2.7884615384615388vw" y="2.8857608229983227em" fill="#aaa"/><rect width="0.09615384615384616em" height="0.06790568341819922em" x="2.8846153846153846vw" y="2.932094316581801em" fill="#aaa"/><rect width="0.09615384615384616em" height="0.10292904525230792em" x="2.980769230769231vw" y="2.8970709547476923em" fill="#aaa"/><rect width="0.09615384615384616em" height="0.10134150080777901em" x="3.076923076923077vw" y="2.898658499192221em" fill="#aaa"/><rect width="0.09615384615384616em" height="0.07263178364322274em" x="3.1730769230769234vw" y="2.9273682163567774em" fill="#aaa"/><rect width="0.09615384615384616em" height="0.17719947184246282em" x="3.2692307692307696vw" y="2.8228005281575372em" fill="#aaa"/><rect width="0.09615384615384616em" height="0.1504904797595803em" x="3.3653846153846154vw" y="2.84950952024042em" fill="#aaa"/><rect width="0.09615384615384616em" height="0.29705089543074814em" x="3.4615384615384617vw" y="2.7029491045692517em" fill="#aaa"/><rect width="0.09615384615384616em" height="0.16294651079119266em" x="3.557692307692308vw" y="2.8370534892088073em" fill="#aaa"/><rect width="0.09615384615384616em" height="0.29478089895010884em" x="3.653846153846154vw" y="2.705219101049891em" fill="#aaa"/><rect width="0.09615384615384616em" height="0.2552031709438724em" x="3.75vw" y="2.7447968290561278em" fill="#aaa"/><rect width="0.09615384615384616em" height="0.05290723812137633em" x="3.8461538461538463vw" y="2.947092761878624em" fill="#aaa"/><rect width="0.09615384615384616em" height="0.05854843095849552em" x="3.9423076923076925vw" y="2.9414515690415044em" fill="#aaa"/><rect width="0.09615384615384616em" height="0.4286474681861665em" x="4.038461538461538vw" y="2.5713525318138335em" fill="#aaa"/><rect width="0.09615384615384616em" height="0.34378076979364336em" x="4.134615384615385vw" y="2.6562192302063568em" fill="#aaa"/><rect width="0.09615384615384616em" height="0.10186228064239755em" x="4.230769230769231vw" y="2.8981377193576026em" fill="#aaa"/><rect width="0.09615384615384616em" height="0.11676413687161526em" x="4.3269230769230775vw" y="2.8832358631283848em" fill="#aaa"/><rect width="0.09615384615384616em" height="0.08079328848048917em" x="4.423076923076923vw" y="2.919206711519511em" fill="#aaa"/><rect width="0.09615384615384616em" height="0.11682362469887206em" x="4.519230769230769vw" y="2.883176375301128em" fill="#aaa"/><rect width="0.09615384615384616em" height="0.17958356949857554em" x="4.615384615384616vw" y="2.8204164305014245em" fill="#aaa"/><rect width="0.09615384615384616em" height="0.4328415342447506em" x="4.711538461538462vw" y="2.5671584657552495em" fill="#aaa"/><rect width="0.09615384615384616em" height="2.184977262210069em" x="4.807692307692308vw" y="0.8150227377899308em" fill="#aaa"/><rect width="0.09615384615384616em" height="0.7992308300861296em" x="4.903846153846154vw" y="2.2007691699138703em" fill="#aaa"/><rect width="0.09615384615384616em" height="1.3029851496606661em" x="5vw" y="1.6970148503393339em" fill="#aaa"/><rect width="0.09615384615384616em" height="1.4183204822077267em" x="5.096153846153847vw" y="1.5816795177922733em" fill="#aaa"/><rect width="0.09615384615384616em" height="0.9641875613698754em" x="5.1923076923076925vw" y="2.0358124386301246em" fill="#aaa"/><rect width="0.09615384615384616em" height="0.37092861015988005em" x="5.288461538461538vw" y="2.62907138984012em" fill="#aaa"/><rect width="0.09615384615384616em" height="0.5100681807014282em" x="5.384615384615385vw" y="2.4899318192985715em" fill="#aaa"/><rect width="0.09615384615384616em" height="1.3603080908111163em" x="5.480769230769231vw" y="1.6396919091888837em" fill="#aaa"/><rect width="0.09615384615384616em" height="0.43076561945762326em" x="5.5769230769230775vw" y="2.569234380542377em" fill="#aaa"/><rect width="0.09615384615384616em" height="1.1157455247663328em" x="5.673076923076923vw" y="1.8842544752336672em" fill="#aaa"/><rect width="0.09615384615384616em" height="0.38120033838553646em" x="5.769230769230769vw" y="2.6187996616144638em" fill="#aaa"/><rect width="0.09615384615384616em" height="0.3559673353980324em" x="5.865384615384616vw" y="2.6440326646019674em" fill="#aaa"/><rect width="0.09615384615384616em" height="1.3015314511127025em" x="5.961538461538462vw" y="1.6984685488872975em" fill="#aaa"/><rect width="0.09615384615384616em" height="0.6933334713708863em" x="6.057692307692308vw" y="2.3066665286291137em" fill="#aaa"/><rect width="0.09615384615384616em" height="0.7728880651612837em" x="6.153846153846154vw" y="2.2271119348387165em" fill="#aaa"/><rect width="0.09615384615384616em" height="0.5677782431356241em" x="6.25vw" y="2.432221756864376em" fill="#aaa"/><rect width="0.09615384615384616em" height="1.7028475426620844em" x="6.346153846153847vw" y="1.2971524573379156em" fill="#aaa"/><rect width="0.09615384615384616em" height="3em" x="6.4423076923076925vw" y="0em" fill="#aaa"/><rect width="0.09615384615384616em" height="1.131116073641884em" x="6.538461538461539vw" y="1.868883926358116em" fill="#aaa"/><rect width="0.09615384615384616em" height="1.8506080383737888em" x="6.634615384615385vw" y="1.1493919616262112em" fill="#aaa"/><rect width="0.09615384615384616em" height="1.133206575769904em" x="6.730769230769231vw" y="1.866793424230096em" fill="#aaa"/><rect width="0.09615384615384616em" height="1.1211377974904901em" x="6.8269230769230775vw" y="1.8788622025095099em" fill="#aaa"/><rect width="0.09615384615384616em" height="0.5909186036074654em" x="6.923076923076923vw" y="2.4090813963925344em" fill="#aaa"/><rect width="0.09615384615384616em" height="0.741849953824326em" x="7.01923076923077vw" y="2.258150046175674em" fill="#aaa"/><rect width="0.09615384615384616em" height="0.6137791313787491em" x="7.115384615384616vw" y="2.386220868621251em" fill="#aaa"/><rect width="0.09615384615384616em" height="0.7851229693070902em" x="7.211538461538462vw" y="2.21487703069291em" fill="#aaa"/><rect width="0.09615384615384616em" height="0.4354426255662124em" x="7.307692307692308vw" y="2.5645573744337877em" fill="#aaa"/><rect width="0.09615384615384616em" height="0.6755270351666316em" x="7.403846153846154vw" y="2.3244729648333684em" fill="#aaa"/><rect width="0.09615384615384616em" height="0.5809954567901845em" x="7.5vw" y="2.4190045432098155em" fill="#aaa"/><rect width="0.09615384615384616em" height="0.8396353267826906em" x="7.596153846153847vw" y="2.1603646732173094em" fill="#aaa"/><rect width="0.09615384615384616em" height="0.8081746012657873em" x="7.6923076923076925vw" y="2.1918253987342124em" fill="#aaa"/><rect width="0.09615384615384616em" height="1.066368978155453em" x="7.788461538461539vw" y="1.933631021844547em" fill="#aaa"/><rect width="0.09615384615384616em" height="1.048457031491423em" x="7.884615384615385vw" y="1.951542968508577em" fill="#aaa"/><rect width="0.09615384615384616em" height="0.9704608848717793em" x="7.980769230769231vw" y="2.0295391151282205em" fill="#aaa"/><rect width="0.09615384615384616em" height="1.7510694580219697em" x="8.076923076923077vw" y="1.2489305419780303em" fill="#aaa"/><rect width="0.09615384615384616em" height="1.368716763993557em" x="8.173076923076923vw" y="1.631283236006443em" fill="#aaa"/><rect width="0.09615384615384616em" height="0.7987760667678612em" x="8.26923076923077vw" y="2.201223933232139em" fill="#aaa"/><rect width="0.09615384615384616em" height="1.8618589039534954em" x="8.365384615384615vw" y="1.1381410960465046em" fill="#aaa"/><rect width="0.09615384615384616em" height="2.0567635554695127em" x="8.461538461538462vw" y="0.9432364445304873em" fill="#aaa"/><rect width="0.09615384615384616em" height="1.4622193070540865em" x="8.557692307692308vw" y="1.5377806929459135em" fill="#aaa"/><rect width="0.09615384615384616em" height="1.8470476105550322em" x="8.653846153846155vw" y="1.1529523894449678em" fill="#aaa"/><rect width="0.09615384615384616em" height="1.7840845386606263em" x="8.75vw" y="1.2159154613393737em" fill="#aaa"/><rect width="0.09615384615384616em" height="2.204227222672333em" x="8.846153846153847vw" y="0.795772777327667em" fill="#aaa"/><rect width="0.09615384615384616em" height="2.3628020689810905em" x="8.942307692307693vw" y="0.6371979310189095em" fill="#aaa"/><rect width="0.09615384615384616em" height="2.5829833789614827em" x="9.038461538461538vw" y="0.41701662103851733em" fill="#aaa"/><rect width="0.09615384615384616em" height="1.8749566048952016em" x="9.134615384615385vw" y="1.1250433951047984em" fill="#aaa"/><rect width="0.09615384615384616em" height="1.807196358102618em" x="9.230769230769232vw" y="1.192803641897382em" fill="#aaa"/><rect width="0.09615384615384616em" height="2.1951846292860857em" x="9.326923076923077vw" y="0.8048153707139143em" fill="#aaa"/><rect width="0.09615384615384616em" height="1.8813754475545772em" x="9.423076923076923vw" y="1.1186245524454228em" fill="#aaa"/><rect width="0.09615384615384616em" height="1.966721484721686em" x="9.51923076923077vw" y="1.033278515278314em" fill="#aaa"/><rect width="0.09615384615384616em" height="1.3238433292901843em" x="9.615384615384617vw" y="1.6761566707098157em" fill="#aaa"/><rect width="0.09615384615384616em" height="2.3670396257627706em" x="9.711538461538462vw" y="0.6329603742372294em" fill="#aaa"/><rect width="0.09615384615384616em" height="1.9683600717472163em" x="9.807692307692308vw" y="1.0316399282527837em" fill="#aaa"/><rect width="0.09615384615384616em" height="1.8810748270805464em" x="9.903846153846155vw" y="1.1189251729194536em" fill="#aaa"/></svg>