<?xml version="1.0" standalone="no"?>
<svg xmlns:xlink="http://www.w3.org/1999/xlink" xmlns="http://www.w3.org/2000/svg" class="topic-graph" style="width: 100em; height: 30em; text-align: center;"><rect width="0.9615384615384616em" height="0.45128050611388415em" x="0em" y="29.548719493886114em" fill="#aaa"/><rect width="0.9615384615384616em" height="4.922799147668233em" x="0.9615384615384616em" y="25.077200852331767em" fill="#aaa"/><rect width="0.9615384615384616em" height="2.3797513449112015em" x="1.9230769230769231em" y="27.620248655088798em" fill="#aaa"/><rect width="0.9615384615384616em" height="2.8688279170202273em" x="2.8846153846153846em" y="27.131172082979774em" fill="#aaa"/><rect width="0.9615384615384616em" height="2.0735898723318913em" x="3.8461538461538463em" y="27.92641012766811em" fill="#aaa"/><rect width="0.9615384615384616em" height="1.195499804632753em" x="4.8076923076923075em" y="28.804500195367247em" fill="#aaa"/><rect width="0.9615384615384616em" height="7.749169323832181em" x="5.769230769230769em" y="22.25083067616782em" fill="#aaa"/><rect width="0.9615384615384616em" height="0.5851981885334997em" x="6.730769230769231em" y="29.4148018114665em" fill="#aaa"/><rect width="0.9615384615384616em" height="4.334504329070246em" x="7.6923076923076925em" y="25.665495670929754em" fill="#aaa"/><rect width="0.9615384615384616em" height="5.6806768052793615em" x="8.653846153846153em" y="24.31932319472064em" fill="#aaa"/><rect width="0.9615384615384616em" height="6.038130159827377em" x="9.615384615384615em" y="23.961869840172625em" fill="#aaa"/><rect width="0.9615384615384616em" height="4.432973652062313em" x="10.576923076923077em" y="25.567026347937688em" fill="#aaa"/><rect width="0.9615384615384616em" height="18.358760917948725em" x="11.538461538461538em" y="11.641239082051275em" fill="#aaa"/><rect width="0.9615384615384616em" height="4.449664671389127em" x="12.5em" y="25.550335328610874em" fill="#aaa"/><rect width="0.9615384615384616em" height="3.6720240535330673em" x="13.461538461538462em" y="26.327975946466932em" fill="#aaa"/><rect width="0.9615384615384616em" height="6.420569328194005em" x="14.423076923076923em" y="23.579430671805994em" fill="#aaa"/><rect width="0.9615384615384616em" height="7.457683728762104em" x="15.384615384615385em" y="22.542316271237894em" fill="#aaa"/><rect width="0.9615384615384616em" height="7.897687749082552em" x="16.346153846153847em" y="22.10231225091745em" fill="#aaa"/><rect width="0.9615384615384616em" height="3.46899070369521em" x="17.307692307692307em" y="26.53100929630479em" fill="#aaa"/><rect width="0.9615384615384616em" height="8.786776260605786em" x="18.26923076923077em" y="21.213223739394216em" fill="#aaa"/><rect width="0.9615384615384616em" height="6.170863176050571em" x="19.23076923076923em" y="23.82913682394943em" fill="#aaa"/><rect width="0.9615384615384616em" height="30em" x="20.192307692307693em" y="0em" fill="#aaa"/><rect width="0.9615384615384616em" height="3.2555136623312153em" x="21.153846153846153em" y="26.744486337668786em" fill="#aaa"/><rect width="0.9615384615384616em" height="9.693657143502591em" x="22.115384615384617em" y="20.30634285649741em" fill="#aaa"/><rect width="0.9615384615384616em" height="0.8367394996693726em" x="23.076923076923077em" y="29.163260500330626em" fill="#aaa"/><rect width="0.9615384615384616em" height="4.05981584296329em" x="24.03846153846154em" y="25.94018415703671em" fill="#aaa"/><rect width="0.9615384615384616em" height="3.8757553497626747em" x="25em" y="26.124244650237326em" fill="#aaa"/><rect width="0.9615384615384616em" height="6.838198473198855em" x="25.961538461538463em" y="23.161801526801145em" fill="#aaa"/><rect width="0.9615384615384616em" height="6.895359790974367em" x="26.923076923076923em" y="23.104640209025632em" fill="#aaa"/><rect width="0.9615384615384616em" height="6.292521588330316em" x="27.884615384615387em" y="23.707478411669683em" fill="#aaa"/><rect width="0.9615384615384616em" height="7.540334902307155em" x="28.846153846153847em" y="22.459665097692845em" fill="#aaa"/><rect width="0.9615384615384616em" height="3.028063780658289em" x="29.80769230769231em" y="26.97193621934171em" fill="#aaa"/><rect width="0.9615384615384616em" height="3.9679714503084234em" x="30.76923076923077em" y="26.032028549691578em" fill="#aaa"/><rect width="0.9615384615384616em" height="8.502519193589647em" x="31.73076923076923em" y="21.49748080641035em" fill="#aaa"/><rect width="0.9615384615384616em" height="4.295678020295927em" x="32.69230769230769em" y="25.704321979704073em" fill="#aaa"/><rect width="0.9615384615384616em" height="3.1559074954061246em" x="33.65384615384615em" y="26.844092504593874em" fill="#aaa"/><rect width="0.9615384615384616em" height="5.489062546341396em" x="34.61538461538461em" y="24.510937453658606em" fill="#aaa"/><rect width="0.9615384615384616em" height="5.002874683219474em" x="35.57692307692308em" y="24.997125316780526em" fill="#aaa"/><rect width="0.9615384615384616em" height="9.125079204595236em" x="36.53846153846154em" y="20.874920795404762em" fill="#aaa"/><rect width="0.9615384615384616em" height="6.108759670785945em" x="37.5em" y="23.891240329214057em" fill="#aaa"/><rect width="0.9615384615384616em" height="4.7798951970520935em" x="38.46153846153846em" y="25.22010480294791em" fill="#aaa"/><rect width="0.9615384615384616em" height="5.553756175664196em" x="39.42307692307693em" y="24.446243824335802em" fill="#aaa"/><rect width="0.9615384615384616em" height="6.177544863371281em" x="40.38461538461539em" y="23.82245513662872em" fill="#aaa"/><rect width="0.9615384615384616em" height="5.397378770974141em" x="41.34615384615385em" y="24.602621229025857em" fill="#aaa"/><rect width="0.9615384615384616em" height="5.526312263686364em" x="42.30769230769231em" y="24.473687736313636em" fill="#aaa"/><rect width="0.9615384615384616em" height="5.690298403088305em" x="43.269230769230774em" y="24.309701596911694em" fill="#aaa"/><rect width="0.9615384615384616em" height="4.938004092549788em" x="44.23076923076923em" y="25.06199590745021em" fill="#aaa"/><rect width="0.9615384615384616em" height="7.851162234251781em" x="45.19230769230769em" y="22.14883776574822em" fill="#aaa"/><rect width="0.9615384615384616em" height="6.401139066273679em" x="46.15384615384615em" y="23.59886093372632em" fill="#aaa"/><rect width="0.9615384615384616em" height="5.6742166636004026em" x="47.11538461538461em" y="24.325783336399596em" fill="#aaa"/><rect width="0.9615384615384616em" height="3.6890434350674677em" x="48.07692307692308em" y="26.310956564932532em" fill="#aaa"/><rect width="0.9615384615384616em" height="6.534949286575527em" x="49.03846153846154em" y="23.465050713424475em" fill="#aaa"/><rect width="0.9615384615384616em" height="9.858881067361517em" x="50em" y="20.141118932638484em" fill="#aaa"/><rect width="0.9615384615384616em" height="7.523386653761907em" x="50.96153846153846em" y="22.476613346238093em" fill="#aaa"/><rect width="0.9615384615384616em" height="6.507191863183337em" x="51.92307692307693em" y="23.492808136816663em" fill="#aaa"/><rect width="0.9615384615384616em" height="12.985511034420668em" x="52.88461538461539em" y="17.014488965579332em" fill="#aaa"/><rect width="0.9615384615384616em" height="7.840115202650378em" x="53.84615384615385em" y="22.159884797349623em" fill="#aaa"/><rect width="0.9615384615384616em" height="5.032828633474018em" x="54.80769230769231em" y="24.96717136652598em" fill="#aaa"/><rect width="0.9615384615384616em" height="3.8901788172909324em" x="55.769230769230774em" y="26.10982118270907em" fill="#aaa"/><rect width="0.9615384615384616em" height="2.828313698384537em" x="56.73076923076923em" y="27.171686301615463em" fill="#aaa"/><rect width="0.9615384615384616em" height="2.943202266121997em" x="57.69230769230769em" y="27.056797733878003em" fill="#aaa"/><rect width="0.9615384615384616em" height="2.545362636852439em" x="58.65384615384615em" y="27.45463736314756em" fill="#aaa"/><rect width="0.9615384615384616em" height="6.971427855971739em" x="59.61538461538462em" y="23.02857214402826em" fill="#aaa"/><rect width="0.9615384615384616em" height="2.8536055678729424em" x="60.57692307692308em" y="27.146394432127057em" fill="#aaa"/><rect width="0.9615384615384616em" height="5.121196730651028em" x="61.53846153846154em" y="24.87880326934897em" fill="#aaa"/><rect width="0.9615384615384616em" height="5.527934165746912em" x="62.5em" y="24.472065834253087em" fill="#aaa"/><rect width="0.9615384615384616em" height="11.24269212700511em" x="63.46153846153846em" y="18.75730787299489em" fill="#aaa"/><rect width="0.9615384615384616em" height="3.085908747790822em" x="64.42307692307692em" y="26.91409125220918em" fill="#aaa"/><rect width="0.9615384615384616em" height="17.787387390164167em" x="65.38461538461539em" y="12.212612609835833em" fill="#aaa"/><rect width="0.9615384615384616em" height="7.140816188397051em" x="66.34615384615385em" y="22.85918381160295em" fill="#aaa"/><rect width="0.9615384615384616em" height="21.71078391523541em" x="67.3076923076923em" y="8.28921608476459em" fill="#aaa"/><rect width="0.9615384615384616em" height="8.015197149421937em" x="68.26923076923077em" y="21.984802850578063em" fill="#aaa"/><rect width="0.9615384615384616em" height="3.9084662233299143em" x="69.23076923076923em" y="26.091533776670087em" fill="#aaa"/><rect width="0.9615384615384616em" height="7.133971011421202em" x="70.1923076923077em" y="22.866028988578798em" fill="#aaa"/><rect width="0.9615384615384616em" height="10.36811729325997em" x="71.15384615384616em" y="19.63188270674003em" fill="#aaa"/><rect width="0.9615384615384616em" height="3.438420028989451em" x="72.11538461538461em" y="26.56157997101055em" fill="#aaa"/><rect width="0.9615384615384616em" height="12.50037936591297em" x="73.07692307692308em" y="17.49962063408703em" fill="#aaa"/><rect width="0.9615384615384616em" height="16.664275422456512em" x="74.03846153846155em" y="13.335724577543488em" fill="#aaa"/><rect width="0.9615384615384616em" height="13.21808641249203em" x="75em" y="16.781913587507972em" fill="#aaa"/><rect width="0.9615384615384616em" height="8.19975235738888em" x="75.96153846153847em" y="21.80024764261112em" fill="#aaa"/><rect width="0.9615384615384616em" height="9.411881741734488em" x="76.92307692307692em" y="20.58811825826551em" fill="#aaa"/><rect width="0.9615384615384616em" height="3.48548018043994em" x="77.88461538461539em" y="26.51451981956006em" fill="#aaa"/><rect width="0.9615384615384616em" height="16.887887015861896em" x="78.84615384615385em" y="13.112112984138104em" fill="#aaa"/><rect width="0.9615384615384616em" height="13.378490949816724em" x="79.8076923076923em" y="16.621509050183278em" fill="#aaa"/><rect width="0.9615384615384616em" height="10.278174715645369em" x="80.76923076923077em" y="19.72182528435463em" fill="#aaa"/><rect width="0.9615384615384616em" height="10.119616331701868em" x="81.73076923076923em" y="19.88038366829813em" fill="#aaa"/><rect width="0.9615384615384616em" height="6.919188039586746em" x="82.6923076923077em" y="23.080811960413254em" fill="#aaa"/><rect width="0.9615384615384616em" height="10.67929890441826em" x="83.65384615384616em" y="19.32070109558174em" fill="#aaa"/><rect width="0.9615384615384616em" height="5.318812079433892em" x="84.61538461538461em" y="24.68118792056611em" fill="#aaa"/><rect width="0.9615384615384616em" height="4.113606741048127em" x="85.57692307692308em" y="25.886393258951873em" fill="#aaa"/><rect width="0.9615384615384616em" height="4.015572971223849em" x="86.53846153846155em" y="25.984427028776153em" fill="#aaa"/><rect width="0.9615384615384616em" height="3.757253682626952em" x="87.5em" y="26.242746317373047em" fill="#aaa"/><rect width="0.9615384615384616em" height="4.116643553054751em" x="88.46153846153847em" y="25.88335644694525em" fill="#aaa"/><rect width="0.9615384615384616em" height="4.8812282126161595em" x="89.42307692307692em" y="25.118771787383842em" fill="#aaa"/><rect width="0.9615384615384616em" height="3.9126749402371686em" x="90.38461538461539em" y="26.087325059762833em" fill="#aaa"/><rect width="0.9615384615384616em" height="4.895226005238839em" x="91.34615384615385em" y="25.10477399476116em" fill="#aaa"/><rect width="0.9615384615384616em" height="4.3311030296593em" x="92.3076923076923em" y="25.6688969703407em" fill="#aaa"/><rect width="0.9615384615384616em" height="8.425387149897329em" x="93.26923076923077em" y="21.57461285010267em" fill="#aaa"/><rect width="0.9615384615384616em" height="2.877056353930408em" x="94.23076923076923em" y="27.122943646069594em" fill="#aaa"/><rect width="0.9615384615384616em" height="5.23615548947917em" x="95.1923076923077em" y="24.76384451052083em" fill="#aaa"/><rect width="0.9615384615384616em" height="5.33535793001681em" x="96.15384615384616em" y="24.664642069983188em" fill="#aaa"/><rect width="0.9615384615384616em" height="6.381024303420199em" x="97.11538461538461em" y="23.618975696579803em" fill="#aaa"/><rect width="0.9615384615384616em" height="6.3084747161989405em" x="98.07692307692308em" y="23.69152528380106em" fill="#aaa"/><rect width="0.9615384615384616em" height="7.750257311098574em" x="99.03846153846155em" y="22.249742688901428em" fill="#aaa"/></svg>