<?xml version="1.0" standalone="no"?>
<svg xmlns:xlink="http://www.w3.org/1999/xlink" xmlns="http://www.w3.org/2000/svg" class="topic-graph" style="width: 10vw; height: 3em; text-align: center;"><rect width="0.09615384615384616em" height="2.691599723492452em" x="0vw" y="0.3084002765075482em" fill="#aaa"/><rect width="0.09615384615384616em" height="1.7388571430519923em" x="0.09615384615384616vw" y="1.2611428569480077em" fill="#aaa"/><rect width="0.09615384615384616em" height="1.7808309382079361em" x="0.19230769230769232vw" y="1.2191690617920639em" fill="#aaa"/><rect width="0.09615384615384616em" height="2.995751203946996em" x="0.2884615384615385vw" y="0.004248796053003989em" fill="#aaa"/><rect width="0.09615384615384616em" height="1.7808966493531004em" x="0.38461538461538464vw" y="1.2191033506468996em" fill="#aaa"/><rect width="0.09615384615384616em" height="1.7695877278105367em" x="0.4807692307692308vw" y="1.2304122721894633em" fill="#aaa"/><rect width="0.09615384615384616em" height="1.6048962206866615em" x="0.576923076923077vw" y="1.3951037793133385em" fill="#aaa"/><rect width="0.09615384615384616em" height="3em" x="0.6730769230769231vw" y="0em" fill="#aaa"/><rect width="0.09615384615384616em" height="1.241751064016873em" x="0.7692307692307693vw" y="1.758248935983127em" fill="#aaa"/><rect width="0.09615384615384616em" height="1.6481211826069608em" x="0.8653846153846154vw" y="1.3518788173930392em" fill="#aaa"/><rect width="0.09615384615384616em" height="1.9501571764943895em" x="0.9615384615384616vw" y="1.0498428235056105em" fill="#aaa"/><rect width="0.09615384615384616em" height="0.9994807568801936em" x="1.0576923076923077vw" y="2.0005192431198067em" fill="#aaa"/><rect width="0.09615384615384616em" height="1.3425874056413214em" x="1.153846153846154vw" y="1.6574125943586786em" fill="#aaa"/><rect width="0.09615384615384616em" height="1.1064005956695262em" x="1.25vw" y="1.8935994043304738em" fill="#aaa"/><rect width="0.09615384615384616em" height="0.17665102992058881em" x="1.3461538461538463vw" y="2.823348970079411em" fill="#aaa"/><rect width="0.09615384615384616em" height="0.6774139281949876em" x="1.4423076923076923vw" y="2.3225860718050124em" fill="#aaa"/><rect width="0.09615384615384616em" height="2.196532040451417em" x="1.5384615384615385vw" y="0.8034679595485832em" fill="#aaa"/><rect width="0.09615384615384616em" height="1.2643009019870817em" x="1.6346153846153848vw" y="1.7356990980129183em" fill="#aaa"/><rect width="0.09615384615384616em" height="0.3959695363411297em" x="1.7307692307692308vw" y="2.6040304636588703em" fill="#aaa"/><rect width="0.09615384615384616em" height="0.6485828071017924em" x="1.826923076923077vw" y="2.3514171928982077em" fill="#aaa"/><rect width="0.09615384615384616em" height="0.3145943685446571em" x="1.9230769230769231vw" y="2.685405631455343em" fill="#aaa"/><rect width="0.09615384615384616em" height="0.40012326103828877em" x="2.019230769230769vw" y="2.5998767389617115em" fill="#aaa"/><rect width="0.09615384615384616em" height="0.9355245156769834em" x="2.1153846153846154vw" y="2.0644754843230166em" fill="#aaa"/><rect width="0.09615384615384616em" height="0.9521610750198546em" x="2.2115384615384617vw" y="2.0478389249801454em" fill="#aaa"/><rect width="0.09615384615384616em" height="0.48202999557776566em" x="2.307692307692308vw" y="2.517970004422234em" fill="#aaa"/><rect width="0.09615384615384616em" height="1.258284424205642em" x="2.403846153846154vw" y="1.741715575794358em" fill="#aaa"/><rect width="0.09615384615384616em" height="1.2145290884068696em" x="2.5vw" y="1.7854709115931304em" fill="#aaa"/><rect width="0.09615384615384616em" height="0.8376891423903846em" x="2.5961538461538463vw" y="2.1623108576096155em" fill="#aaa"/><rect width="0.09615384615384616em" height="0.9578552456994185em" x="2.6923076923076925vw" y="2.0421447543005815em" fill="#aaa"/><rect width="0.09615384615384616em" height="1.0456923480215048em" x="2.7884615384615388vw" y="1.9543076519784952em" fill="#aaa"/><rect width="0.09615384615384616em" height="1.1802635410507873em" x="2.8846153846153846vw" y="1.8197364589492127em" fill="#aaa"/><rect width="0.09615384615384616em" height="0.6403623291888161em" x="2.980769230769231vw" y="2.3596376708111837em" fill="#aaa"/><rect width="0.09615384615384616em" height="2.4018016709726413em" x="3.076923076923077vw" y="0.5981983290273587em" fill="#aaa"/><rect width="0.09615384615384616em" height="0.761004995081389em" x="3.1730769230769234vw" y="2.238995004918611em" fill="#aaa"/><rect width="0.09615384615384616em" height="1.2266614872207229em" x="3.2692307692307696vw" y="1.7733385127792771em" fill="#aaa"/><rect width="0.09615384615384616em" height="1.877989498496688em" x="3.3653846153846154vw" y="1.122010501503312em" fill="#aaa"/><rect width="0.09615384615384616em" height="1.9817952732712139em" x="3.4615384615384617vw" y="1.0182047267287861em" fill="#aaa"/><rect width="0.09615384615384616em" height="1.3319854674068057em" x="3.557692307692308vw" y="1.6680145325931943em" fill="#aaa"/><rect width="0.09615384615384616em" height="1.0991441214702404em" x="3.653846153846154vw" y="1.9008558785297596em" fill="#aaa"/><rect width="0.09615384615384616em" height="2.7692023444903957em" x="3.75vw" y="0.2307976555096043em" fill="#aaa"/><rect width="0.09615384615384616em" height="1.189043055934598em" x="3.8461538461538463vw" y="1.810956944065402em" fill="#aaa"/><rect width="0.09615384615384616em" height="1.142394249988516em" x="3.9423076923076925vw" y="1.857605750011484em" fill="#aaa"/><rect width="0.09615384615384616em" height="1.4545757580399692em" x="4.038461538461538vw" y="1.5454242419600308em" fill="#aaa"/><rect width="0.09615384615384616em" height="1.075268394286052em" x="4.134615384615385vw" y="1.924731605713948em" fill="#aaa"/><rect width="0.09615384615384616em" height="0.9301687165347561em" x="4.230769230769231vw" y="2.069831283465244em" fill="#aaa"/><rect width="0.09615384615384616em" height="1.3147501083458455em" x="4.3269230769230775vw" y="1.6852498916541545em" fill="#aaa"/><rect width="0.09615384615384616em" height="1.0300655655825492em" x="4.423076923076923vw" y="1.9699344344174508em" fill="#aaa"/><rect width="0.09615384615384616em" height="1.9451440433597718em" x="4.519230769230769vw" y="1.0548559566402282em" fill="#aaa"/><rect width="0.09615384615384616em" height="0.6019652833864226em" x="4.615384615384616vw" y="2.3980347166135774em" fill="#aaa"/><rect width="0.09615384615384616em" height="1.4535051476778618em" x="4.711538461538462vw" y="1.5464948523221382em" fill="#aaa"/><rect width="0.09615384615384616em" height="1.086754602090396em" x="4.807692307692308vw" y="1.913245397909604em" fill="#aaa"/><rect width="0.09615384615384616em" height="0.8457095652532403em" x="4.903846153846154vw" y="2.15429043474676em" fill="#aaa"/><rect width="0.09615384615384616em" height="1.9908380275872424em" x="5vw" y="1.0091619724127576em" fill="#aaa"/><rect width="0.09615384615384616em" height="1.1116815344600302em" x="5.096153846153847vw" y="1.8883184655399698em" fill="#aaa"/><rect width="0.09615384615384616em" height="1.7480557516271162em" x="5.1923076923076925vw" y="1.2519442483728838em" fill="#aaa"/><rect width="0.09615384615384616em" height="1.5604628648459749em" x="5.288461538461538vw" y="1.4395371351540251em" fill="#aaa"/><rect width="0.09615384615384616em" height="1.2494027328476445em" x="5.384615384615385vw" y="1.7505972671523555em" fill="#aaa"/><rect width="0.09615384615384616em" height="0.697267167280939em" x="5.480769230769231vw" y="2.302732832719061em" fill="#aaa"/><rect width="0.09615384615384616em" height="0.8123143674108586em" x="5.5769230769230775vw" y="2.187685632589141em" fill="#aaa"/><rect width="0.09615384615384616em" height="0.3523679148148087em" x="5.673076923076923vw" y="2.647632085185191em" fill="#aaa"/><rect width="0.09615384615384616em" height="0.9881009654275836em" x="5.769230769230769vw" y="2.0118990345724166em" fill="#aaa"/><rect width="0.09615384615384616em" height="1.4080273497946356em" x="5.865384615384616vw" y="1.5919726502053644em" fill="#aaa"/><rect width="0.09615384615384616em" height="0.9019399114731843em" x="5.961538461538462vw" y="2.0980600885268155em" fill="#aaa"/><rect width="0.09615384615384616em" height="1.3640559125673257em" x="6.057692307692308vw" y="1.6359440874326743em" fill="#aaa"/><rect width="0.09615384615384616em" height="0.7924200904692631em" x="6.153846153846154vw" y="2.207579909530737em" fill="#aaa"/><rect width="0.09615384615384616em" height="0.8616436401624505em" x="6.25vw" y="2.1383563598375495em" fill="#aaa"/><rect width="0.09615384615384616em" height="0.7712889361436203em" x="6.346153846153847vw" y="2.22871106385638em" fill="#aaa"/><rect width="0.09615384615384616em" height="1.1374074646462673em" x="6.4423076923076925vw" y="1.8625925353537327em" fill="#aaa"/><rect width="0.09615384615384616em" height="0.8387890242994893em" x="6.538461538461539vw" y="2.1612109757005107em" fill="#aaa"/><rect width="0.09615384615384616em" height="1.6039530626482867em" x="6.634615384615385vw" y="1.3960469373517133em" fill="#aaa"/><rect width="0.09615384615384616em" height="0.7104751059321593em" x="6.730769230769231vw" y="2.2895248940678408em" fill="#aaa"/><rect width="0.09615384615384616em" height="0.6911698522771637em" x="6.8269230769230775vw" y="2.308830147722836em" fill="#aaa"/><rect width="0.09615384615384616em" height="0.7257695730068938em" x="6.923076923076923vw" y="2.274230426993106em" fill="#aaa"/><rect width="0.09615384615384616em" height="0.9758136197120377em" x="7.01923076923077vw" y="2.0241863802879623em" fill="#aaa"/><rect width="0.09615384615384616em" height="0.5544517349479694em" x="7.115384615384616vw" y="2.4455482650520306em" fill="#aaa"/><rect width="0.09615384615384616em" height="0.8341109974451995em" x="7.211538461538462vw" y="2.1658890025548008em" fill="#aaa"/><rect width="0.09615384615384616em" height="0.39794920429916014em" x="7.307692307692308vw" y="2.6020507957008396em" fill="#aaa"/><rect width="0.09615384615384616em" height="0.6580004448178283em" x="7.403846153846154vw" y="2.3419995551821717em" fill="#aaa"/><rect width="0.09615384615384616em" height="0.43401356584453876em" x="7.5vw" y="2.5659864341554615em" fill="#aaa"/><rect width="0.09615384615384616em" height="0.6138785822479464em" x="7.596153846153847vw" y="2.3861214177520536em" fill="#aaa"/><rect width="0.09615384615384616em" height="0.3703771529008397em" x="7.6923076923076925vw" y="2.62962284709916em" fill="#aaa"/><rect width="0.09615384615384616em" height="0.7267139939380073em" x="7.788461538461539vw" y="2.273286006061993em" fill="#aaa"/><rect width="0.09615384615384616em" height="0.521557598016007em" x="7.884615384615385vw" y="2.478442401983993em" fill="#aaa"/><rect width="0.09615384615384616em" height="0.36970133991537024em" x="7.980769230769231vw" y="2.63029866008463em" fill="#aaa"/><rect width="0.09615384615384616em" height="0.35604717938846453em" x="8.076923076923077vw" y="2.6439528206115357em" fill="#aaa"/><rect width="0.09615384615384616em" height="0.3957659956846522em" x="8.173076923076923vw" y="2.604234004315348em" fill="#aaa"/><rect width="0.09615384615384616em" height="0.3822807731915885em" x="8.26923076923077vw" y="2.6177192268084113em" fill="#aaa"/><rect width="0.09615384615384616em" height="0.4785474275668691em" x="8.365384615384615vw" y="2.521452572433131em" fill="#aaa"/><rect width="0.09615384615384616em" height="0.2728085093256607em" x="8.461538461538462vw" y="2.7271914906743393em" fill="#aaa"/><rect width="0.09615384615384616em" height="0.28529633031016444em" x="8.557692307692308vw" y="2.7147036696898357em" fill="#aaa"/><rect width="0.09615384615384616em" height="0.5081984990217681em" x="8.653846153846155vw" y="2.491801500978232em" fill="#aaa"/><rect width="0.09615384615384616em" height="0.39918281844281384em" x="8.75vw" y="2.6008171815571863em" fill="#aaa"/><rect width="0.09615384615384616em" height="0.4904506584995614em" x="8.846153846153847vw" y="2.5095493415004384em" fill="#aaa"/><rect width="0.09615384615384616em" height="0.35398750615870667em" x="8.942307692307693vw" y="2.6460124938412934em" fill="#aaa"/><rect width="0.09615384615384616em" height="0.36998657068953256em" x="9.038461538461538vw" y="2.6300134293104676em" fill="#aaa"/><rect width="0.09615384615384616em" height="0.28955579176402857em" x="9.134615384615385vw" y="2.7104442082359714em" fill="#aaa"/><rect width="0.09615384615384616em" height="0.31789354927624747em" x="9.230769230769232vw" y="2.6821064507237526em" fill="#aaa"/><rect width="0.09615384615384616em" height="0.2595395317414003em" x="9.326923076923077vw" y="2.7404604682585996em" fill="#aaa"/><rect width="0.09615384615384616em" height="0.2756255091362021em" x="9.423076923076923vw" y="2.7243744908637977em" fill="#aaa"/><rect width="0.09615384615384616em" height="0.2028293112764532em" x="9.51923076923077vw" y="2.797170688723547em" fill="#aaa"/><rect width="0.09615384615384616em" height="0.272899764534999em" x="9.615384615384617vw" y="2.727100235465001em" fill="#aaa"/><rect width="0.09615384615384616em" height="0.23107450189111683em" x="9.711538461538462vw" y="2.7689254981088833em" fill="#aaa"/><rect width="0.09615384615384616em" height="0.19215418253944416em" x="9.807692307692308vw" y="2.8078458174605556em" fill="#aaa"/><rect width="0.09615384615384616em" height="0.2311492452963756em" x="9.903846153846155vw" y="2.7688507547036245em" fill="#aaa"/></svg>