<?xml version="1.0" standalone="no"?>
<svg xmlns:xlink="http://www.w3.org/1999/xlink" xmlns="http://www.w3.org/2000/svg" class="topic-graph" style="width: 10vw; height: 3em; text-align: center;"><rect width="0.09615384615384616em" height="1.1204206753970078em" x="0vw" y="1.8795793246029922em" fill="#aaa"/><rect width="0.09615384615384616em" height="0.6720561728663246em" x="0.09615384615384616vw" y="2.3279438271336756em" fill="#aaa"/><rect width="0.09615384615384616em" height="0.08547540862240646em" x="0.19230769230769232vw" y="2.9145245913775937em" fill="#aaa"/><rect width="0.09615384615384616em" height="0.3428929910664772em" x="0.2884615384615385vw" y="2.6571070089335227em" fill="#aaa"/><rect width="0.09615384615384616em" height="0.3966812269653257em" x="0.38461538461538464vw" y="2.6033187730346743em" fill="#aaa"/><rect width="0.09615384615384616em" height="0.18716870636492752em" x="0.4807692307692308vw" y="2.8128312936350723em" fill="#aaa"/><rect width="0.09615384615384616em" height="0.19929860837915322em" x="0.576923076923077vw" y="2.800701391620847em" fill="#aaa"/><rect width="0.09615384615384616em" height="0.7155803289723175em" x="0.6730769230769231vw" y="2.2844196710276825em" fill="#aaa"/><rect width="0.09615384615384616em" height="0.36356314600828377em" x="0.7692307692307693vw" y="2.6364368539917162em" fill="#aaa"/><rect width="0.09615384615384616em" height="0.1509037687892499em" x="0.8653846153846154vw" y="2.84909623121075em" fill="#aaa"/><rect width="0.09615384615384616em" height="0.13996593405124486em" x="0.9615384615384616vw" y="2.860034065948755em" fill="#aaa"/><rect width="0.09615384615384616em" height="0.22501489664838215em" x="1.0576923076923077vw" y="2.774985103351618em" fill="#aaa"/><rect width="0.09615384615384616em" height="0.4457367997500106em" x="1.153846153846154vw" y="2.554263200249989em" fill="#aaa"/><rect width="0.09615384615384616em" height="0.18125117458381357em" x="1.25vw" y="2.8187488254161863em" fill="#aaa"/><rect width="0.09615384615384616em" height="0.04844848543472484em" x="1.3461538461538463vw" y="2.951551514565275em" fill="#aaa"/><rect width="0.09615384615384616em" height="0.3134717615076114em" x="1.4423076923076923vw" y="2.6865282384923885em" fill="#aaa"/><rect width="0.09615384615384616em" height="0.3119739316363971em" x="1.5384615384615385vw" y="2.688026068363603em" fill="#aaa"/><rect width="0.09615384615384616em" height="0.16388154114374945em" x="1.6346153846153848vw" y="2.8361184588562507em" fill="#aaa"/><rect width="0.09615384615384616em" height="0.2428721025689533em" x="1.7307692307692308vw" y="2.7571278974310465em" fill="#aaa"/><rect width="0.09615384615384616em" height="0.7358582290103877em" x="1.826923076923077vw" y="2.264141770989612em" fill="#aaa"/><rect width="0.09615384615384616em" height="0.1569778045961127em" x="1.9230769230769231vw" y="2.8430221954038872em" fill="#aaa"/><rect width="0.09615384615384616em" height="0.528733669131127em" x="2.019230769230769vw" y="2.471266330868873em" fill="#aaa"/><rect width="0.09615384615384616em" height="0.16117441679827743em" x="2.1153846153846154vw" y="2.8388255832017224em" fill="#aaa"/><rect width="0.09615384615384616em" height="0.36032248824832647em" x="2.2115384615384617vw" y="2.6396775117516738em" fill="#aaa"/><rect width="0.09615384615384616em" height="0.203519295003999em" x="2.307692307692308vw" y="2.796480704996001em" fill="#aaa"/><rect width="0.09615384615384616em" height="0.6154128827727796em" x="2.403846153846154vw" y="2.3845871172272206em" fill="#aaa"/><rect width="0.09615384615384616em" height="0.7182597762663493em" x="2.5vw" y="2.281740223733651em" fill="#aaa"/><rect width="0.09615384615384616em" height="0.7713246296559808em" x="2.5961538461538463vw" y="2.2286753703440194em" fill="#aaa"/><rect width="0.09615384615384616em" height="0.4340822557259848em" x="2.6923076923076925vw" y="2.565917744274015em" fill="#aaa"/><rect width="0.09615384615384616em" height="0.38013661756331396em" x="2.7884615384615388vw" y="2.619863382436686em" fill="#aaa"/><rect width="0.09615384615384616em" height="0.683915604095454em" x="2.8846153846153846vw" y="2.316084395904546em" fill="#aaa"/><rect width="0.09615384615384616em" height="0.3620930328037023em" x="2.980769230769231vw" y="2.637906967196298em" fill="#aaa"/><rect width="0.09615384615384616em" height="0.38857306963472904em" x="3.076923076923077vw" y="2.611426930365271em" fill="#aaa"/><rect width="0.09615384615384616em" height="0.6822338963326373em" x="3.1730769230769234vw" y="2.3177661036673625em" fill="#aaa"/><rect width="0.09615384615384616em" height="0.5885967885517492em" x="3.2692307692307696vw" y="2.411403211448251em" fill="#aaa"/><rect width="0.09615384615384616em" height="0.2780339168628028em" x="3.3653846153846154vw" y="2.7219660831371972em" fill="#aaa"/><rect width="0.09615384615384616em" height="0.47567749573146145em" x="3.4615384615384617vw" y="2.5243225042685387em" fill="#aaa"/><rect width="0.09615384615384616em" height="0.4019471277219571em" x="3.557692307692308vw" y="2.5980528722780427em" fill="#aaa"/><rect width="0.09615384615384616em" height="0.23916448766385584em" x="3.653846153846154vw" y="2.7608355123361443em" fill="#aaa"/><rect width="0.09615384615384616em" height="0.5386166626442984em" x="3.75vw" y="2.4613833373557017em" fill="#aaa"/><rect width="0.09615384615384616em" height="0.45419218033490916em" x="3.8461538461538463vw" y="2.545807819665091em" fill="#aaa"/><rect width="0.09615384615384616em" height="0.603185908956466em" x="3.9423076923076925vw" y="2.396814091043534em" fill="#aaa"/><rect width="0.09615384615384616em" height="0.43662669518624925em" x="4.038461538461538vw" y="2.5633733048137506em" fill="#aaa"/><rect width="0.09615384615384616em" height="0.46171601364394715em" x="4.134615384615385vw" y="2.5382839863560527em" fill="#aaa"/><rect width="0.09615384615384616em" height="0.37553281778532943em" x="4.230769230769231vw" y="2.6244671822146706em" fill="#aaa"/><rect width="0.09615384615384616em" height="0.649961057164123em" x="4.3269230769230775vw" y="2.350038942835877em" fill="#aaa"/><rect width="0.09615384615384616em" height="0.27960435507112447em" x="4.423076923076923vw" y="2.7203956449288755em" fill="#aaa"/><rect width="0.09615384615384616em" height="0.20532572448608888em" x="4.519230769230769vw" y="2.794674275513911em" fill="#aaa"/><rect width="0.09615384615384616em" height="0.4104280194427113em" x="4.615384615384616vw" y="2.5895719805572885em" fill="#aaa"/><rect width="0.09615384615384616em" height="0.3771283531275937em" x="4.711538461538462vw" y="2.6228716468724063em" fill="#aaa"/><rect width="0.09615384615384616em" height="0.2595491562658402em" x="4.807692307692308vw" y="2.74045084373416em" fill="#aaa"/><rect width="0.09615384615384616em" height="0.6981376895684231em" x="4.903846153846154vw" y="2.3018623104315767em" fill="#aaa"/><rect width="0.09615384615384616em" height="0.4146338036916778em" x="5vw" y="2.585366196308322em" fill="#aaa"/><rect width="0.09615384615384616em" height="0.3855870193777769em" x="5.096153846153847vw" y="2.614412980622223em" fill="#aaa"/><rect width="0.09615384615384616em" height="0.4234720168578533em" x="5.1923076923076925vw" y="2.576527983142147em" fill="#aaa"/><rect width="0.09615384615384616em" height="0.36222811689553047em" x="5.288461538461538vw" y="2.6377718831044694em" fill="#aaa"/><rect width="0.09615384615384616em" height="0.6756857416964108em" x="5.384615384615385vw" y="2.3243142583035894em" fill="#aaa"/><rect width="0.09615384615384616em" height="0.42596288136727073em" x="5.480769230769231vw" y="2.574037118632729em" fill="#aaa"/><rect width="0.09615384615384616em" height="0.34914360304248493em" x="5.5769230769230775vw" y="2.650856396957515em" fill="#aaa"/><rect width="0.09615384615384616em" height="0.3329608720746235em" x="5.673076923076923vw" y="2.6670391279253765em" fill="#aaa"/><rect width="0.09615384615384616em" height="0.6998890092268832em" x="5.769230769230769vw" y="2.300110990773117em" fill="#aaa"/><rect width="0.09615384615384616em" height="0.3276682788377808em" x="5.865384615384616vw" y="2.672331721162219em" fill="#aaa"/><rect width="0.09615384615384616em" height="0.4561136235798213em" x="5.961538461538462vw" y="2.5438863764201787em" fill="#aaa"/><rect width="0.09615384615384616em" height="0.2251303505635509em" x="6.057692307692308vw" y="2.7748696494364493em" fill="#aaa"/><rect width="0.09615384615384616em" height="0.3621258819126121em" x="6.153846153846154vw" y="2.637874118087388em" fill="#aaa"/><rect width="0.09615384615384616em" height="0.5032050072187843em" x="6.25vw" y="2.496794992781216em" fill="#aaa"/><rect width="0.09615384615384616em" height="0.4675734113023913em" x="6.346153846153847vw" y="2.532426588697609em" fill="#aaa"/><rect width="0.09615384615384616em" height="0.7071005648308523em" x="6.4423076923076925vw" y="2.2928994351691476em" fill="#aaa"/><rect width="0.09615384615384616em" height="0.42949334118494875em" x="6.538461538461539vw" y="2.5705066588150514em" fill="#aaa"/><rect width="0.09615384615384616em" height="0.7080996613983284em" x="6.634615384615385vw" y="2.2919003386016716em" fill="#aaa"/><rect width="0.09615384615384616em" height="0.4238321859214347em" x="6.730769230769231vw" y="2.5761678140785653em" fill="#aaa"/><rect width="0.09615384615384616em" height="0.4976298558737071em" x="6.8269230769230775vw" y="2.502370144126293em" fill="#aaa"/><rect width="0.09615384615384616em" height="0.5728272695417242em" x="6.923076923076923vw" y="2.4271727304582758em" fill="#aaa"/><rect width="0.09615384615384616em" height="0.348334292158289em" x="7.01923076923077vw" y="2.651665707841711em" fill="#aaa"/><rect width="0.09615384615384616em" height="0.3149889657943323em" x="7.115384615384616vw" y="2.685011034205668em" fill="#aaa"/><rect width="0.09615384615384616em" height="0.46254541928565274em" x="7.211538461538462vw" y="2.537454580714347em" fill="#aaa"/><rect width="0.09615384615384616em" height="0.7209053284368574em" x="7.307692307692308vw" y="2.2790946715631426em" fill="#aaa"/><rect width="0.09615384615384616em" height="2.177776533407635em" x="7.403846153846154vw" y="0.8222234665923649em" fill="#aaa"/><rect width="0.09615384615384616em" height="0.9719784665575214em" x="7.5vw" y="2.0280215334424785em" fill="#aaa"/><rect width="0.09615384615384616em" height="3em" x="7.596153846153847vw" y="0em" fill="#aaa"/><rect width="0.09615384615384616em" height="1.1557369925480636em" x="7.6923076923076925vw" y="1.8442630074519364em" fill="#aaa"/><rect width="0.09615384615384616em" height="0.8839399779616601em" x="7.788461538461539vw" y="2.11606002203834em" fill="#aaa"/><rect width="0.09615384615384616em" height="0.9790758726717914em" x="7.884615384615385vw" y="2.0209241273282084em" fill="#aaa"/><rect width="0.09615384615384616em" height="0.6957698695200603em" x="7.980769230769231vw" y="2.3042301304799397em" fill="#aaa"/><rect width="0.09615384615384616em" height="0.8929919479667701em" x="8.076923076923077vw" y="2.1070080520332297em" fill="#aaa"/><rect width="0.09615384615384616em" height="0.9762089235454678em" x="8.173076923076923vw" y="2.023791076454532em" fill="#aaa"/><rect width="0.09615384615384616em" height="0.7016735258913607em" x="8.26923076923077vw" y="2.2983264741086393em" fill="#aaa"/><rect width="0.09615384615384616em" height="0.8657753482792981em" x="8.365384615384615vw" y="2.134224651720702em" fill="#aaa"/><rect width="0.09615384615384616em" height="1.4329802757972958em" x="8.461538461538462vw" y="1.5670197242027042em" fill="#aaa"/><rect width="0.09615384615384616em" height="1.0940860865515174em" x="8.557692307692308vw" y="1.9059139134484826em" fill="#aaa"/><rect width="0.09615384615384616em" height="0.9257449982288157em" x="8.653846153846155vw" y="2.074255001771184em" fill="#aaa"/><rect width="0.09615384615384616em" height="0.5589919850095764em" x="8.75vw" y="2.4410080149904236em" fill="#aaa"/><rect width="0.09615384615384616em" height="0.49329624321031673em" x="8.846153846153847vw" y="2.5067037567896833em" fill="#aaa"/><rect width="0.09615384615384616em" height="0.5507875438910848em" x="8.942307692307693vw" y="2.4492124561089152em" fill="#aaa"/><rect width="0.09615384615384616em" height="0.7127073031030635em" x="9.038461538461538vw" y="2.2872926968969365em" fill="#aaa"/><rect width="0.09615384615384616em" height="0.40725823864668376em" x="9.134615384615385vw" y="2.592741761353316em" fill="#aaa"/><rect width="0.09615384615384616em" height="0.8016023594476338em" x="9.230769230769232vw" y="2.198397640552366em" fill="#aaa"/><rect width="0.09615384615384616em" height="0.6951764813117884em" x="9.326923076923077vw" y="2.3048235186882113em" fill="#aaa"/><rect width="0.09615384615384616em" height="0.7087336753727626em" x="9.423076923076923vw" y="2.2912663246272373em" fill="#aaa"/><rect width="0.09615384615384616em" height="0.8838215856531331em" x="9.51923076923077vw" y="2.1161784143468667em" fill="#aaa"/><rect width="0.09615384615384616em" height="0.7197342784993475em" x="9.615384615384617vw" y="2.2802657215006525em" fill="#aaa"/><rect width="0.09615384615384616em" height="0.6828972380361582em" x="9.711538461538462vw" y="2.3171027619638416em" fill="#aaa"/><rect width="0.09615384615384616em" height="0.6018849989535815em" x="9.807692307692308vw" y="2.3981150010464187em" fill="#aaa"/><rect width="0.09615384615384616em" height="0.4986368094190797em" x="9.903846153846155vw" y="2.5013631905809204em" fill="#aaa"/></svg>