<?xml version="1.0" standalone="no"?>
<svg xmlns:xlink="http://www.w3.org/1999/xlink" xmlns="http://www.w3.org/2000/svg" class="topic-graph" style="width: 100em; height: 30em; text-align: center;"><rect width="0.9615384615384616em" height="0.9423188885658562em" x="0em" y="29.057681111434142em" fill="#aaa"/><rect width="0.9615384615384616em" height="1.153306281947895em" x="0.9615384615384616em" y="28.846693718052105em" fill="#aaa"/><rect width="0.9615384615384616em" height="1.8873979255670617em" x="1.9230769230769231em" y="28.11260207443294em" fill="#aaa"/><rect width="0.9615384615384616em" height="7.8831564387328905em" x="2.8846153846153846em" y="22.11684356126711em" fill="#aaa"/><rect width="0.9615384615384616em" height="5.2969061111918485em" x="3.8461538461538463em" y="24.70309388880815em" fill="#aaa"/><rect width="0.9615384615384616em" height="4.766413312920276em" x="4.8076923076923075em" y="25.233586687079722em" fill="#aaa"/><rect width="0.9615384615384616em" height="9.769083233775216em" x="5.769230769230769em" y="20.230916766224784em" fill="#aaa"/><rect width="0.9615384615384616em" height="15.9628188489751em" x="6.730769230769231em" y="14.0371811510249em" fill="#aaa"/><rect width="0.9615384615384616em" height="3.5467065062171494em" x="7.6923076923076925em" y="26.45329349378285em" fill="#aaa"/><rect width="0.9615384615384616em" height="8.869815113977046em" x="8.653846153846153em" y="21.130184886022953em" fill="#aaa"/><rect width="0.9615384615384616em" height="2.1448574229242867em" x="9.615384615384615em" y="27.855142577075714em" fill="#aaa"/><rect width="0.9615384615384616em" height="8.740234936690833em" x="10.576923076923077em" y="21.259765063309167em" fill="#aaa"/><rect width="0.9615384615384616em" height="4.468175203024em" x="11.538461538461538em" y="25.531824796976em" fill="#aaa"/><rect width="0.9615384615384616em" height="17.61650328845153em" x="12.5em" y="12.38349671154847em" fill="#aaa"/><rect width="0.9615384615384616em" height="17.248486653479798em" x="13.461538461538462em" y="12.751513346520202em" fill="#aaa"/><rect width="0.9615384615384616em" height="10.130422145351925em" x="14.423076923076923em" y="19.869577854648075em" fill="#aaa"/><rect width="0.9615384615384616em" height="9.097296846381106em" x="15.384615384615385em" y="20.902703153618894em" fill="#aaa"/><rect width="0.9615384615384616em" height="26.89748900972236em" x="16.346153846153847em" y="3.10251099027764em" fill="#aaa"/><rect width="0.9615384615384616em" height="24.25593152498103em" x="17.307692307692307em" y="5.74406847501897em" fill="#aaa"/><rect width="0.9615384615384616em" height="9.870708516824365em" x="18.26923076923077em" y="20.129291483175635em" fill="#aaa"/><rect width="0.9615384615384616em" height="4.867556336153931em" x="19.23076923076923em" y="25.132443663846068em" fill="#aaa"/><rect width="0.9615384615384616em" height="4.1873582836800765em" x="20.192307692307693em" y="25.812641716319924em" fill="#aaa"/><rect width="0.9615384615384616em" height="12.02532339230662em" x="21.153846153846153em" y="17.974676607693382em" fill="#aaa"/><rect width="0.9615384615384616em" height="13.317945141486426em" x="22.115384615384617em" y="16.682054858513574em" fill="#aaa"/><rect width="0.9615384615384616em" height="30em" x="23.076923076923077em" y="0em" fill="#aaa"/><rect width="0.9615384615384616em" height="13.59080149150558em" x="24.03846153846154em" y="16.40919850849442em" fill="#aaa"/><rect width="0.9615384615384616em" height="9.069624981502603em" x="25em" y="20.930375018497397em" fill="#aaa"/><rect width="0.9615384615384616em" height="4.925346590149093em" x="25.961538461538463em" y="25.074653409850907em" fill="#aaa"/><rect width="0.9615384615384616em" height="8.236867287442527em" x="26.923076923076923em" y="21.76313271255747em" fill="#aaa"/><rect width="0.9615384615384616em" height="6.852492823099948em" x="27.884615384615387em" y="23.147507176900053em" fill="#aaa"/><rect width="0.9615384615384616em" height="1.91201236651849em" x="28.846153846153847em" y="28.08798763348151em" fill="#aaa"/><rect width="0.9615384615384616em" height="4.077228614398645em" x="29.80769230769231em" y="25.922771385601354em" fill="#aaa"/><rect width="0.9615384615384616em" height="3.99224173219915em" x="30.76923076923077em" y="26.00775826780085em" fill="#aaa"/><rect width="0.9615384615384616em" height="4.651056060117132em" x="31.73076923076923em" y="25.34894393988287em" fill="#aaa"/><rect width="0.9615384615384616em" height="2.958847829853528em" x="32.69230769230769em" y="27.04115217014647em" fill="#aaa"/><rect width="0.9615384615384616em" height="3.244995137662792em" x="33.65384615384615em" y="26.75500486233721em" fill="#aaa"/><rect width="0.9615384615384616em" height="3.247289227798457em" x="34.61538461538461em" y="26.752710772201542em" fill="#aaa"/><rect width="0.9615384615384616em" height="3.07363985766273em" x="35.57692307692308em" y="26.92636014233727em" fill="#aaa"/><rect width="0.9615384615384616em" height="3.5221365932960205em" x="36.53846153846154em" y="26.477863406703978em" fill="#aaa"/><rect width="0.9615384615384616em" height="1.446716472839217em" x="37.5em" y="28.553283527160783em" fill="#aaa"/><rect width="0.9615384615384616em" height="2.0547175203570864em" x="38.46153846153846em" y="27.945282479642913em" fill="#aaa"/><rect width="0.9615384615384616em" height="5.105962272028488em" x="39.42307692307693em" y="24.89403772797151em" fill="#aaa"/><rect width="0.9615384615384616em" height="2.193277492808292em" x="40.38461538461539em" y="27.806722507191708em" fill="#aaa"/><rect width="0.9615384615384616em" height="14.860539851734046em" x="41.34615384615385em" y="15.139460148265954em" fill="#aaa"/><rect width="0.9615384615384616em" height="14.620947076111479em" x="42.30769230769231em" y="15.379052923888521em" fill="#aaa"/><rect width="0.9615384615384616em" height="10.06138175391786em" x="43.269230769230774em" y="19.93861824608214em" fill="#aaa"/><rect width="0.9615384615384616em" height="5.841797879112918em" x="44.23076923076923em" y="24.158202120887083em" fill="#aaa"/><rect width="0.9615384615384616em" height="3.20986452267477em" x="45.19230769230769em" y="26.79013547732523em" fill="#aaa"/><rect width="0.9615384615384616em" height="3.203932229701357em" x="46.15384615384615em" y="26.79606777029864em" fill="#aaa"/><rect width="0.9615384615384616em" height="2.0190959257581036em" x="47.11538461538461em" y="27.980904074241895em" fill="#aaa"/><rect width="0.9615384615384616em" height="3.255662425491315em" x="48.07692307692308em" y="26.744337574508684em" fill="#aaa"/><rect width="0.9615384615384616em" height="3.4115623429679824em" x="49.03846153846154em" y="26.588437657032017em" fill="#aaa"/><rect width="0.9615384615384616em" height="4.640457966746781em" x="50em" y="25.35954203325322em" fill="#aaa"/><rect width="0.9615384615384616em" height="4.321583587675846em" x="50.96153846153846em" y="25.678416412324154em" fill="#aaa"/><rect width="0.9615384615384616em" height="8.565412288828135em" x="51.92307692307693em" y="21.434587711171865em" fill="#aaa"/><rect width="0.9615384615384616em" height="4.435962302451052em" x="52.88461538461539em" y="25.564037697548947em" fill="#aaa"/><rect width="0.9615384615384616em" height="7.236401233446676em" x="53.84615384615385em" y="22.763598766553322em" fill="#aaa"/><rect width="0.9615384615384616em" height="6.060453777536565em" x="54.80769230769231em" y="23.939546222463434em" fill="#aaa"/><rect width="0.9615384615384616em" height="2.625603085954165em" x="55.769230769230774em" y="27.374396914045835em" fill="#aaa"/><rect width="0.9615384615384616em" height="3.6054689733828615em" x="56.73076923076923em" y="26.394531026617138em" fill="#aaa"/><rect width="0.9615384615384616em" height="2.0672142580302015em" x="57.69230769230769em" y="27.9327857419698em" fill="#aaa"/><rect width="0.9615384615384616em" height="2.3849593174988684em" x="58.65384615384615em" y="27.61504068250113em" fill="#aaa"/><rect width="0.9615384615384616em" height="1.807444652619047em" x="59.61538461538462em" y="28.192555347380953em" fill="#aaa"/><rect width="0.9615384615384616em" height="4.231580375354604em" x="60.57692307692308em" y="25.768419624645396em" fill="#aaa"/><rect width="0.9615384615384616em" height="4.309095662419436em" x="61.53846153846154em" y="25.690904337580562em" fill="#aaa"/><rect width="0.9615384615384616em" height="4.848931321156728em" x="62.5em" y="25.151068678843274em" fill="#aaa"/><rect width="0.9615384615384616em" height="4.018934861609523em" x="63.46153846153846em" y="25.981065138390477em" fill="#aaa"/><rect width="0.9615384615384616em" height="2.4466795780184025em" x="64.42307692307692em" y="27.553320421981596em" fill="#aaa"/><rect width="0.9615384615384616em" height="3.488393085102796em" x="65.38461538461539em" y="26.511606914897204em" fill="#aaa"/><rect width="0.9615384615384616em" height="2.738883999646986em" x="66.34615384615385em" y="27.261116000353013em" fill="#aaa"/><rect width="0.9615384615384616em" height="2.6758980112377153em" x="67.3076923076923em" y="27.324101988762283em" fill="#aaa"/><rect width="0.9615384615384616em" height="1.7006993361794673em" x="68.26923076923077em" y="28.29930066382053em" fill="#aaa"/><rect width="0.9615384615384616em" height="3.8077708140123256em" x="69.23076923076923em" y="26.192229185987674em" fill="#aaa"/><rect width="0.9615384615384616em" height="1.596524501589571em" x="70.1923076923077em" y="28.40347549841043em" fill="#aaa"/><rect width="0.9615384615384616em" height="4.580597339041105em" x="71.15384615384616em" y="25.419402660958895em" fill="#aaa"/><rect width="0.9615384615384616em" height="2.4449598915598982em" x="72.11538461538461em" y="27.555040108440103em" fill="#aaa"/><rect width="0.9615384615384616em" height="2.4120659230984893em" x="73.07692307692308em" y="27.58793407690151em" fill="#aaa"/><rect width="0.9615384615384616em" height="1.2498480666958616em" x="74.03846153846155em" y="28.75015193330414em" fill="#aaa"/><rect width="0.9615384615384616em" height="2.7099237285731896em" x="75em" y="27.29007627142681em" fill="#aaa"/><rect width="0.9615384615384616em" height="2.28996485222287em" x="75.96153846153847em" y="27.71003514777713em" fill="#aaa"/><rect width="0.9615384615384616em" height="3.1117360896821946em" x="76.92307692307692em" y="26.888263910317804em" fill="#aaa"/><rect width="0.9615384615384616em" height="2.438639885052756em" x="77.88461538461539em" y="27.561360114947245em" fill="#aaa"/><rect width="0.9615384615384616em" height="2.657275821441358em" x="78.84615384615385em" y="27.34272417855864em" fill="#aaa"/><rect width="0.9615384615384616em" height="1.9515064517418532em" x="79.8076923076923em" y="28.048493548258147em" fill="#aaa"/><rect width="0.9615384615384616em" height="2.65441370109695em" x="80.76923076923077em" y="27.34558629890305em" fill="#aaa"/><rect width="0.9615384615384616em" height="2.042444101391686em" x="81.73076923076923em" y="27.957555898608312em" fill="#aaa"/><rect width="0.9615384615384616em" height="2.3008664326439567em" x="82.6923076923077em" y="27.699133567356043em" fill="#aaa"/><rect width="0.9615384615384616em" height="2.58661444184143em" x="83.65384615384616em" y="27.41338555815857em" fill="#aaa"/><rect width="0.9615384615384616em" height="2.155900107633845em" x="84.61538461538461em" y="27.844099892366156em" fill="#aaa"/><rect width="0.9615384615384616em" height="1.8145009999394213em" x="85.57692307692308em" y="28.185499000060577em" fill="#aaa"/><rect width="0.9615384615384616em" height="1.79403660582793em" x="86.53846153846155em" y="28.20596339417207em" fill="#aaa"/><rect width="0.9615384615384616em" height="1.940814282147302em" x="87.5em" y="28.0591857178527em" fill="#aaa"/><rect width="0.9615384615384616em" height="2.0697015916019756em" x="88.46153846153847em" y="27.930298408398023em" fill="#aaa"/><rect width="0.9615384615384616em" height="1.3957083813779705em" x="89.42307692307692em" y="28.604291618622028em" fill="#aaa"/><rect width="0.9615384615384616em" height="1.7539715182907725em" x="90.38461538461539em" y="28.246028481709228em" fill="#aaa"/><rect width="0.9615384615384616em" height="1.5733034364437428em" x="91.34615384615385em" y="28.426696563556256em" fill="#aaa"/><rect width="0.9615384615384616em" height="1.63545125956074em" x="92.3076923076923em" y="28.36454874043926em" fill="#aaa"/><rect width="0.9615384615384616em" height="1.5115935916307415em" x="93.26923076923077em" y="28.488406408369258em" fill="#aaa"/><rect width="0.9615384615384616em" height="2.172253650007768em" x="94.23076923076923em" y="27.827746349992232em" fill="#aaa"/><rect width="0.9615384615384616em" height="2.9753776831119003em" x="95.1923076923077em" y="27.0246223168881em" fill="#aaa"/><rect width="0.9615384615384616em" height="2.2390226539622025em" x="96.15384615384616em" y="27.760977346037798em" fill="#aaa"/><rect width="0.9615384615384616em" height="3.0091631394138005em" x="97.11538461538461em" y="26.9908368605862em" fill="#aaa"/><rect width="0.9615384615384616em" height="3.070748509601111em" x="98.07692307692308em" y="26.92925149039889em" fill="#aaa"/><rect width="0.9615384615384616em" height="3.12114639100392em" x="99.03846153846155em" y="26.87885360899608em" fill="#aaa"/></svg>