<?xml version="1.0" standalone="no"?>
<svg xmlns:xlink="http://www.w3.org/1999/xlink" xmlns="http://www.w3.org/2000/svg" class="topic-graph" style="width: 10vw; height: 3em; text-align: center;"><rect width="0.09615384615384616em" height="0.0009579965619850135em" x="0vw" y="2.999042003438015em" fill="#aaa"/><rect width="0.09615384615384616em" height="0.030365103378149523em" x="0.09615384615384616vw" y="2.9696348966218507em" fill="#aaa"/><rect width="0.09615384615384616em" height="0.013190558921118055em" x="0.19230769230769232vw" y="2.986809441078882em" fill="#aaa"/><rect width="0.09615384615384616em" height="0.00473284140782032em" x="0.2884615384615385vw" y="2.9952671585921795em" fill="#aaa"/><rect width="0.09615384615384616em" height="0.018151964198221265em" x="0.38461538461538464vw" y="2.9818480358017787em" fill="#aaa"/><rect width="0.09615384615384616em" height="0.020734187350601743em" x="0.4807692307692308vw" y="2.9792658126493983em" fill="#aaa"/><rect width="0.09615384615384616em" height="0.11001604107589759em" x="0.576923076923077vw" y="2.8899839589241023em" fill="#aaa"/><rect width="0.09615384615384616em" height="0.007514723826783882em" x="0.6730769230769231vw" y="2.992485276173216em" fill="#aaa"/><rect width="0.09615384615384616em" height="0.0039037533710640157em" x="0.7692307692307693vw" y="2.996096246628936em" fill="#aaa"/><rect width="0.09615384615384616em" height="0.009900199832618984em" x="0.8653846153846154vw" y="2.990099800167381em" fill="#aaa"/><rect width="0.09615384615384616em" height="0.03268544835880098em" x="0.9615384615384616vw" y="2.967314551641199em" fill="#aaa"/><rect width="0.09615384615384616em" height="0.0010242095910148717em" x="1.0576923076923077vw" y="2.998975790408985em" fill="#aaa"/><rect width="0.09615384615384616em" height="0.030934655231140647em" x="1.153846153846154vw" y="2.9690653447688593em" fill="#aaa"/><rect width="0.09615384615384616em" height="0.039921999229783386em" x="1.25vw" y="2.9600780007702165em" fill="#aaa"/><rect width="0.09615384615384616em" height="0.16807792838212818em" x="1.3461538461538463vw" y="2.8319220716178717em" fill="#aaa"/><rect width="0.09615384615384616em" height="0.018236438639692397em" x="1.4423076923076923vw" y="2.9817635613603075em" fill="#aaa"/><rect width="0.09615384615384616em" height="3em" x="1.5384615384615385vw" y="0em" fill="#aaa"/><rect width="0.09615384615384616em" height="0.0650441860709019em" x="1.6346153846153848vw" y="2.934955813929098em" fill="#aaa"/><rect width="0.09615384615384616em" height="0.05947509979975959em" x="1.7307692307692308vw" y="2.9405249002002405em" fill="#aaa"/><rect width="0.09615384615384616em" height="0.01093854327627389em" x="1.826923076923077vw" y="2.989061456723726em" fill="#aaa"/><rect width="0.09615384615384616em" height="0.004686945276237146em" x="1.9230769230769231vw" y="2.9953130547237627em" fill="#aaa"/><rect width="0.09615384615384616em" height="0.0027608301360917877em" x="2.019230769230769vw" y="2.9972391698639083em" fill="#aaa"/><rect width="0.09615384615384616em" height="0.006371408185420865em" x="2.1153846153846154vw" y="2.9936285918145793em" fill="#aaa"/><rect width="0.09615384615384616em" height="0.030525619014007674em" x="2.2115384615384617vw" y="2.9694743809859925em" fill="#aaa"/><rect width="0.09615384615384616em" height="0.015575448682420202em" x="2.307692307692308vw" y="2.9844245513175798em" fill="#aaa"/><rect width="0.09615384615384616em" height="0.006177818958829273em" x="2.403846153846154vw" y="2.9938221810411707em" fill="#aaa"/><rect width="0.09615384615384616em" height="0.01828946366774407em" x="2.5vw" y="2.981710536332256em" fill="#aaa"/><rect width="0.09615384615384616em" height="0.0032421934466874895em" x="2.5961538461538463vw" y="2.9967578065533127em" fill="#aaa"/><rect width="0.09615384615384616em" height="0.010382323348352951em" x="2.6923076923076925vw" y="2.989617676651647em" fill="#aaa"/><rect width="0.09615384615384616em" height="0.0018458652037627588em" x="2.7884615384615388vw" y="2.9981541347962373em" fill="#aaa"/><rect width="0.09615384615384616em" height="0.02383750247233033em" x="2.8846153846153846vw" y="2.9761624975276697em" fill="#aaa"/><rect width="0.09615384615384616em" height="0.0007661497790449527em" x="2.980769230769231vw" y="2.9992338502209552em" fill="#aaa"/><rect width="0.09615384615384616em" height="0.03163528740422696em" x="3.076923076923077vw" y="2.968364712595773em" fill="#aaa"/><rect width="0.09615384615384616em" height="0.0010145240135224786em" x="3.1730769230769234vw" y="2.9989854759864776em" fill="#aaa"/><rect width="0.09615384615384616em" height="0.017115710863483926em" x="3.2692307692307696vw" y="2.982884289136516em" fill="#aaa"/><rect width="0.09615384615384616em" height="0.0012696892215464607em" x="3.3653846153846154vw" y="2.9987303107784538em" fill="#aaa"/><rect width="0.09615384615384616em" height="0.01338957056823737em" x="3.4615384615384617vw" y="2.986610429431763em" fill="#aaa"/><rect width="0.09615384615384616em" height="0.012874076211708975em" x="3.557692307692308vw" y="2.987125923788291em" fill="#aaa"/><rect width="0.09615384615384616em" height="0.007459166120850178em" x="3.653846153846154vw" y="2.9925408338791497em" fill="#aaa"/><rect width="0.09615384615384616em" height="0.023123184301441377em" x="3.75vw" y="2.9768768156985588em" fill="#aaa"/><rect width="0.09615384615384616em" height="0.007778429312962526em" x="3.8461538461538463vw" y="2.9922215706870374em" fill="#aaa"/><rect width="0.09615384615384616em" height="0.009359882941132673em" x="3.9423076923076925vw" y="2.9906401170588675em" fill="#aaa"/><rect width="0.09615384615384616em" height="0.01255560346261143em" x="4.038461538461538vw" y="2.9874443965373887em" fill="#aaa"/><rect width="0.09615384615384616em" height="0.02220851108931669em" x="4.134615384615385vw" y="2.9777914889106833em" fill="#aaa"/><rect width="0.09615384615384616em" height="0.016501975789138194em" x="4.230769230769231vw" y="2.9834980242108617em" fill="#aaa"/><rect width="0.09615384615384616em" height="0.020171230843614715em" x="4.3269230769230775vw" y="2.979828769156385em" fill="#aaa"/><rect width="0.09615384615384616em" height="0.001748405935321409em" x="4.423076923076923vw" y="2.9982515940646786em" fill="#aaa"/><rect width="0.09615384615384616em" height="0.006465194007896972em" x="4.519230769230769vw" y="2.993534805992103em" fill="#aaa"/><rect width="0.09615384615384616em" height="0.01006798851911218em" x="4.615384615384616vw" y="2.989932011480888em" fill="#aaa"/><rect width="0.09615384615384616em" height="0.007846362655289547em" x="4.711538461538462vw" y="2.9921536373447104em" fill="#aaa"/><rect width="0.09615384615384616em" height="0.006730198563402149em" x="4.807692307692308vw" y="2.9932698014365977em" fill="#aaa"/><rect width="0.09615384615384616em" height="0.022669441296469094em" x="4.903846153846154vw" y="2.977330558703531em" fill="#aaa"/><rect width="0.09615384615384616em" height="0.008998792515737236em" x="5vw" y="2.991001207484263em" fill="#aaa"/><rect width="0.09615384615384616em" height="0.025673245519105353em" x="5.096153846153847vw" y="2.9743267544808947em" fill="#aaa"/><rect width="0.09615384615384616em" height="0.012692927679114034em" x="5.1923076923076925vw" y="2.987307072320886em" fill="#aaa"/><rect width="0.09615384615384616em" height="0.01967221499473889em" x="5.288461538461538vw" y="2.980327785005261em" fill="#aaa"/><rect width="0.09615384615384616em" height="0.004877498936093552em" x="5.384615384615385vw" y="2.9951225010639067em" fill="#aaa"/><rect width="0.09615384615384616em" height="0.011616886145820935em" x="5.480769230769231vw" y="2.988383113854179em" fill="#aaa"/><rect width="0.09615384615384616em" height="0.033311817020990515em" x="5.5769230769230775vw" y="2.9666881829790093em" fill="#aaa"/><rect width="0.09615384615384616em" height="0.027211432014538236em" x="5.673076923076923vw" y="2.9727885679854618em" fill="#aaa"/><rect width="0.09615384615384616em" height="0.00961668885686185em" x="5.769230769230769vw" y="2.990383311143138em" fill="#aaa"/><rect width="0.09615384615384616em" height="0.009041064274497827em" x="5.865384615384616vw" y="2.990958935725502em" fill="#aaa"/><rect width="0.09615384615384616em" height="0.006961376516402565em" x="5.961538461538462vw" y="2.9930386234835975em" fill="#aaa"/><rect width="0.09615384615384616em" height="0.02169396102699754em" x="6.057692307692308vw" y="2.9783060389730025em" fill="#aaa"/><rect width="0.09615384615384616em" height="0.011230087306746964em" x="6.153846153846154vw" y="2.988769912693253em" fill="#aaa"/><rect width="0.09615384615384616em" height="0.011234913179508008em" x="6.25vw" y="2.988765086820492em" fill="#aaa"/><rect width="0.09615384615384616em" height="0.010035019677326566em" x="6.346153846153847vw" y="2.9899649803226733em" fill="#aaa"/><rect width="0.09615384615384616em" height="0.01759828621207723em" x="6.4423076923076925vw" y="2.982401713787923em" fill="#aaa"/><rect width="0.09615384615384616em" height="0.0070089931680192355em" x="6.538461538461539vw" y="2.9929910068319807em" fill="#aaa"/><rect width="0.09615384615384616em" height="0.020417075463729242em" x="6.634615384615385vw" y="2.979582924536271em" fill="#aaa"/><rect width="0.09615384615384616em" height="0.010952294023339665em" x="6.730769230769231vw" y="2.9890477059766605em" fill="#aaa"/><rect width="0.09615384615384616em" height="0.016875433323177206em" x="6.8269230769230775vw" y="2.983124566676823em" fill="#aaa"/><rect width="0.09615384615384616em" height="0.016898476381761417em" x="6.923076923076923vw" y="2.9831015236182385em" fill="#aaa"/><rect width="0.09615384615384616em" height="0.008749037259619605em" x="7.01923076923077vw" y="2.9912509627403803em" fill="#aaa"/><rect width="0.09615384615384616em" height="0.005661872585693903em" x="7.115384615384616vw" y="2.994338127414306em" fill="#aaa"/><rect width="0.09615384615384616em" height="0.010281076483121718em" x="7.211538461538462vw" y="2.9897189235168784em" fill="#aaa"/><rect width="0.09615384615384616em" height="0.02010894297413642em" x="7.307692307692308vw" y="2.9798910570258634em" fill="#aaa"/><rect width="0.09615384615384616em" height="0.009413347150468189em" x="7.403846153846154vw" y="2.9905866528495317em" fill="#aaa"/><rect width="0.09615384615384616em" height="0.006151978602112621em" x="7.5vw" y="2.9938480213978873em" fill="#aaa"/><rect width="0.09615384615384616em" height="0.01060653273900055em" x="7.596153846153847vw" y="2.9893934672609994em" fill="#aaa"/><rect width="0.09615384615384616em" height="0.008220923082158684em" x="7.6923076923076925vw" y="2.991779076917841em" fill="#aaa"/><rect width="0.09615384615384616em" height="0.008321792145273114em" x="7.788461538461539vw" y="2.991678207854727em" fill="#aaa"/><rect width="0.09615384615384616em" height="0.010791888107983186em" x="7.884615384615385vw" y="2.9892081118920166em" fill="#aaa"/><rect width="0.09615384615384616em" height="0.007056002969450111em" x="7.980769230769231vw" y="2.99294399703055em" fill="#aaa"/><rect width="0.09615384615384616em" height="0.00757955721245163em" x="8.076923076923077vw" y="2.9924204427875485em" fill="#aaa"/><rect width="0.09615384615384616em" height="0.02091624011481706em" x="8.173076923076923vw" y="2.979083759885183em" fill="#aaa"/><rect width="0.09615384615384616em" height="0.01594098196358823em" x="8.26923076923077vw" y="2.9840590180364117em" fill="#aaa"/><rect width="0.09615384615384616em" height="0.004957285597914895em" x="8.365384615384615vw" y="2.9950427144020852em" fill="#aaa"/><rect width="0.09615384615384616em" height="0.009611406424259384em" x="8.461538461538462vw" y="2.990388593575741em" fill="#aaa"/><rect width="0.09615384615384616em" height="0.009107332739501858em" x="8.557692307692308vw" y="2.990892667260498em" fill="#aaa"/><rect width="0.09615384615384616em" height="0.00581867347294039em" x="8.653846153846155vw" y="2.99418132652706em" fill="#aaa"/><rect width="0.09615384615384616em" height="0.004343221643714935em" x="8.75vw" y="2.995656778356285em" fill="#aaa"/><rect width="0.09615384615384616em" height="0.011380138458316758em" x="8.846153846153847vw" y="2.9886198615416832em" fill="#aaa"/><rect width="0.09615384615384616em" height="0.005904595151429421em" x="8.942307692307693vw" y="2.9940954048485704em" fill="#aaa"/><rect width="0.09615384615384616em" height="0.0064771850347733586em" x="9.038461538461538vw" y="2.9935228149652264em" fill="#aaa"/><rect width="0.09615384615384616em" height="0.007176836462637672em" x="9.134615384615385vw" y="2.9928231635373623em" fill="#aaa"/><rect width="0.09615384615384616em" height="0.014935421709387432em" x="9.230769230769232vw" y="2.9850645782906127em" fill="#aaa"/><rect width="0.09615384615384616em" height="0.004742499166270659em" x="9.326923076923077vw" y="2.995257500833729em" fill="#aaa"/><rect width="0.09615384615384616em" height="0.018069981083424672em" x="9.423076923076923vw" y="2.981930018916575em" fill="#aaa"/><rect width="0.09615384615384616em" height="0.008726928337446043em" x="9.51923076923077vw" y="2.9912730716625537em" fill="#aaa"/><rect width="0.09615384615384616em" height="0.011696712338835406em" x="9.615384615384617vw" y="2.9883032876611644em" fill="#aaa"/><rect width="0.09615384615384616em" height="0.008196152458056605em" x="9.711538461538462vw" y="2.9918038475419433em" fill="#aaa"/><rect width="0.09615384615384616em" height="0.008635637536570668em" x="9.807692307692308vw" y="2.9913643624634294em" fill="#aaa"/><rect width="0.09615384615384616em" height="0.005827550508323884em" x="9.903846153846155vw" y="2.994172449491676em" fill="#aaa"/></svg>