<?xml version="1.0" standalone="no"?>
<svg xmlns:xlink="http://www.w3.org/1999/xlink" xmlns="http://www.w3.org/2000/svg" class="topic-graph" style="width: 10vw; height: 3em; text-align: center;"><rect width="0.09615384615384616em" height="0.015123330576389461em" x="0vw" y="2.9848766694236106em" fill="#aaa"/><rect width="0.09615384615384616em" height="0.0907493277615051em" x="0.09615384615384616vw" y="2.9092506722384948em" fill="#aaa"/><rect width="0.09615384615384616em" height="0.46442518106425923em" x="0.19230769230769232vw" y="2.535574818935741em" fill="#aaa"/><rect width="0.09615384615384616em" height="0.12232170073227878em" x="0.2884615384615385vw" y="2.8776782992677212em" fill="#aaa"/><rect width="0.09615384615384616em" height="0.09242157058315621em" x="0.38461538461538464vw" y="2.907578429416844em" fill="#aaa"/><rect width="0.09615384615384616em" height="0.7693918848666675em" x="0.4807692307692308vw" y="2.2306081151333323em" fill="#aaa"/><rect width="0.09615384615384616em" height="0.711162039699448em" x="0.576923076923077vw" y="2.288837960300552em" fill="#aaa"/><rect width="0.09615384615384616em" height="0.4888884145011755em" x="0.6730769230769231vw" y="2.5111115854988246em" fill="#aaa"/><rect width="0.09615384615384616em" height="2.027430461096076em" x="0.7692307692307693vw" y="0.9725695389039242em" fill="#aaa"/><rect width="0.09615384615384616em" height="0.12382621602406554em" x="0.8653846153846154vw" y="2.8761737839759345em" fill="#aaa"/><rect width="0.09615384615384616em" height="0.7620891862880177em" x="0.9615384615384616vw" y="2.2379108137119825em" fill="#aaa"/><rect width="0.09615384615384616em" height="0.1869062632192413em" x="1.0576923076923077vw" y="2.8130937367807585em" fill="#aaa"/><rect width="0.09615384615384616em" height="0.4130967754225643em" x="1.153846153846154vw" y="2.5869032245774357em" fill="#aaa"/><rect width="0.09615384615384616em" height="1.6674541102826161em" x="1.25vw" y="1.3325458897173839em" fill="#aaa"/><rect width="0.09615384615384616em" height="1.7412607241452462em" x="1.3461538461538463vw" y="1.2587392758547538em" fill="#aaa"/><rect width="0.09615384615384616em" height="3em" x="1.4423076923076923vw" y="0em" fill="#aaa"/><rect width="0.09615384615384616em" height="0.9130338346627074em" x="1.5384615384615385vw" y="2.0869661653372926em" fill="#aaa"/><rect width="0.09615384615384616em" height="2.7132974228610585em" x="1.6346153846153848vw" y="0.28670257713894154em" fill="#aaa"/><rect width="0.09615384615384616em" height="0.8326815957933446em" x="1.7307692307692308vw" y="2.1673184042066556em" fill="#aaa"/><rect width="0.09615384615384616em" height="1.1064671368108574em" x="1.826923076923077vw" y="1.8935328631891426em" fill="#aaa"/><rect width="0.09615384615384616em" height="0.7721199465484582em" x="1.9230769230769231vw" y="2.2278800534515417em" fill="#aaa"/><rect width="0.09615384615384616em" height="0.4540273375515266em" x="2.019230769230769vw" y="2.5459726624484733em" fill="#aaa"/><rect width="0.09615384615384616em" height="1.019855918215982em" x="2.1153846153846154vw" y="1.980144081784018em" fill="#aaa"/><rect width="0.09615384615384616em" height="0.5118770847852674em" x="2.2115384615384617vw" y="2.4881229152147326em" fill="#aaa"/><rect width="0.09615384615384616em" height="0.025981611066892306em" x="2.307692307692308vw" y="2.9740183889331075em" fill="#aaa"/><rect width="0.09615384615384616em" height="0.667725535216054em" x="2.403846153846154vw" y="2.332274464783946em" fill="#aaa"/><rect width="0.09615384615384616em" height="0.9146423702516899em" x="2.5vw" y="2.08535762974831em" fill="#aaa"/><rect width="0.09615384615384616em" height="0.6621284293256207em" x="2.5961538461538463vw" y="2.3378715706743796em" fill="#aaa"/><rect width="0.09615384615384616em" height="0.889947606132936em" x="2.6923076923076925vw" y="2.110052393867064em" fill="#aaa"/><rect width="0.09615384615384616em" height="1.5605441951741699em" x="2.7884615384615388vw" y="1.4394558048258301em" fill="#aaa"/><rect width="0.09615384615384616em" height="0.5879796718144451em" x="2.8846153846153846vw" y="2.412020328185555em" fill="#aaa"/><rect width="0.09615384615384616em" height="0.30344807429514753em" x="2.980769230769231vw" y="2.6965519257048527em" fill="#aaa"/><rect width="0.09615384615384616em" height="0.876642617764623em" x="3.076923076923077vw" y="2.123357382235377em" fill="#aaa"/><rect width="0.09615384615384616em" height="0.18713242071335454em" x="3.1730769230769234vw" y="2.8128675792866455em" fill="#aaa"/><rect width="0.09615384615384616em" height="0.5959812569400478em" x="3.2692307692307696vw" y="2.404018743059952em" fill="#aaa"/><rect width="0.09615384615384616em" height="1.005780097920978em" x="3.3653846153846154vw" y="1.994219902079022em" fill="#aaa"/><rect width="0.09615384615384616em" height="0.0907424000799287em" x="3.4615384615384617vw" y="2.909257599920071em" fill="#aaa"/><rect width="0.09615384615384616em" height="0.13694019489142747em" x="3.557692307692308vw" y="2.8630598051085725em" fill="#aaa"/><rect width="0.09615384615384616em" height="1.6277677589089259em" x="3.653846153846154vw" y="1.3722322410910741em" fill="#aaa"/><rect width="0.09615384615384616em" height="1.4661376138784075em" x="3.75vw" y="1.5338623861215925em" fill="#aaa"/><rect width="0.09615384615384616em" height="0.3146362788103589em" x="3.8461538461538463vw" y="2.685363721189641em" fill="#aaa"/><rect width="0.09615384615384616em" height="0.23545900216969706em" x="3.9423076923076925vw" y="2.764540997830303em" fill="#aaa"/><rect width="0.09615384615384616em" height="0.09322073191832261em" x="4.038461538461538vw" y="2.9067792680816775em" fill="#aaa"/><rect width="0.09615384615384616em" height="0.06398123697135374em" x="4.134615384615385vw" y="2.9360187630286463em" fill="#aaa"/><rect width="0.09615384615384616em" height="0.028090762168596455em" x="4.230769230769231vw" y="2.9719092378314036em" fill="#aaa"/><rect width="0.09615384615384616em" height="0.10142775879379402em" x="4.3269230769230775vw" y="2.898572241206206em" fill="#aaa"/><rect width="0.09615384615384616em" height="0.12449036868424335em" x="4.423076923076923vw" y="2.8755096313157567em" fill="#aaa"/><rect width="0.09615384615384616em" height="0.20798219579330673em" x="4.519230769230769vw" y="2.792017804206693em" fill="#aaa"/><rect width="0.09615384615384616em" height="0.23731235838803666em" x="4.615384615384616vw" y="2.7626876416119632em" fill="#aaa"/><rect width="0.09615384615384616em" height="0.12820004595088783em" x="4.711538461538462vw" y="2.8717999540491124em" fill="#aaa"/><rect width="0.09615384615384616em" height="0.14837554240639705em" x="4.807692307692308vw" y="2.851624457593603em" fill="#aaa"/><rect width="0.09615384615384616em" height="0.038806451616532296em" x="4.903846153846154vw" y="2.9611935483834677em" fill="#aaa"/><rect width="0.09615384615384616em" height="0.6328789949206864em" x="5vw" y="2.3671210050793134em" fill="#aaa"/><rect width="0.09615384615384616em" height="0.20260473379772115em" x="5.096153846153847vw" y="2.7973952662022787em" fill="#aaa"/><rect width="0.09615384615384616em" height="0.21850025749777693em" x="5.1923076923076925vw" y="2.781499742502223em" fill="#aaa"/><rect width="0.09615384615384616em" height="0.20632348855186478em" x="5.288461538461538vw" y="2.793676511448135em" fill="#aaa"/><rect width="0.09615384615384616em" height="0.10110854301646291em" x="5.384615384615385vw" y="2.898891456983537em" fill="#aaa"/><rect width="0.09615384615384616em" height="0.18010137844604443em" x="5.480769230769231vw" y="2.8198986215539557em" fill="#aaa"/><rect width="0.09615384615384616em" height="0.04856280458514494em" x="5.5769230769230775vw" y="2.9514371954148553em" fill="#aaa"/><rect width="0.09615384615384616em" height="0.08239603856533889em" x="5.673076923076923vw" y="2.917603961434661em" fill="#aaa"/><rect width="0.09615384615384616em" height="0.2154071769252631em" x="5.769230769230769vw" y="2.7845928230747368em" fill="#aaa"/><rect width="0.09615384615384616em" height="0.08477313999490224em" x="5.865384615384616vw" y="2.915226860005098em" fill="#aaa"/><rect width="0.09615384615384616em" height="0.3512778289877621em" x="5.961538461538462vw" y="2.648722171012238em" fill="#aaa"/><rect width="0.09615384615384616em" height="0.480488428742492em" x="6.057692307692308vw" y="2.519511571257508em" fill="#aaa"/><rect width="0.09615384615384616em" height="0.3131192207278578em" x="6.153846153846154vw" y="2.6868807792721423em" fill="#aaa"/><rect width="0.09615384615384616em" height="0.24923853652538808em" x="6.25vw" y="2.750761463474612em" fill="#aaa"/><rect width="0.09615384615384616em" height="0.15795062888738007em" x="6.346153846153847vw" y="2.84204937111262em" fill="#aaa"/><rect width="0.09615384615384616em" height="0.13035090379044179em" x="6.4423076923076925vw" y="2.8696490962095584em" fill="#aaa"/><rect width="0.09615384615384616em" height="0.09828219834182492em" x="6.538461538461539vw" y="2.901717801658175em" fill="#aaa"/><rect width="0.09615384615384616em" height="0.08484908247231758em" x="6.634615384615385vw" y="2.9151509175276824em" fill="#aaa"/><rect width="0.09615384615384616em" height="0.23201167648950555em" x="6.730769230769231vw" y="2.7679883235104943em" fill="#aaa"/><rect width="0.09615384615384616em" height="0.08418100257001349em" x="6.8269230769230775vw" y="2.9158189974299864em" fill="#aaa"/><rect width="0.09615384615384616em" height="0.24248947584782282em" x="6.923076923076923vw" y="2.757510524152177em" fill="#aaa"/><rect width="0.09615384615384616em" height="0.15597747675436507em" x="7.01923076923077vw" y="2.844022523245635em" fill="#aaa"/><rect width="0.09615384615384616em" height="0.1735100194431843em" x="7.115384615384616vw" y="2.8264899805568158em" fill="#aaa"/><rect width="0.09615384615384616em" height="0.1624329262736401em" x="7.211538461538462vw" y="2.83756707372636em" fill="#aaa"/><rect width="0.09615384615384616em" height="0.26453129326798386em" x="7.307692307692308vw" y="2.735468706732016em" fill="#aaa"/><rect width="0.09615384615384616em" height="0.30905129065973364em" x="7.403846153846154vw" y="2.690948709340266em" fill="#aaa"/><rect width="0.09615384615384616em" height="0.0644359058158819em" x="7.5vw" y="2.935564094184118em" fill="#aaa"/><rect width="0.09615384615384616em" height="0.13972083579284977em" x="7.596153846153847vw" y="2.8602791642071503em" fill="#aaa"/><rect width="0.09615384615384616em" height="0.06879924235691744em" x="7.6923076923076925vw" y="2.9312007576430825em" fill="#aaa"/><rect width="0.09615384615384616em" height="0.11026180086052134em" x="7.788461538461539vw" y="2.8897381991394786em" fill="#aaa"/><rect width="0.09615384615384616em" height="0.08460273839283378em" x="7.884615384615385vw" y="2.915397261607166em" fill="#aaa"/><rect width="0.09615384615384616em" height="0.2788275144039183em" x="7.980769230769231vw" y="2.7211724855960817em" fill="#aaa"/><rect width="0.09615384615384616em" height="0.20869654495820755em" x="8.076923076923077vw" y="2.7913034550417923em" fill="#aaa"/><rect width="0.09615384615384616em" height="0.10943569716783316em" x="8.173076923076923vw" y="2.890564302832167em" fill="#aaa"/><rect width="0.09615384615384616em" height="0.0627633977443537em" x="8.26923076923077vw" y="2.937236602255646em" fill="#aaa"/><rect width="0.09615384615384616em" height="0.2234808181881746em" x="8.365384615384615vw" y="2.7765191818118256em" fill="#aaa"/><rect width="0.09615384615384616em" height="0.19744503472032987em" x="8.461538461538462vw" y="2.80255496527967em" fill="#aaa"/><rect width="0.09615384615384616em" height="0.07422807743703719em" x="8.557692307692308vw" y="2.925771922562963em" fill="#aaa"/><rect width="0.09615384615384616em" height="0.13215332202332272em" x="8.653846153846155vw" y="2.867846677976677em" fill="#aaa"/><rect width="0.09615384615384616em" height="0.07483303910014184em" x="8.75vw" y="2.9251669608998583em" fill="#aaa"/><rect width="0.09615384615384616em" height="0.17559030818198967em" x="8.846153846153847vw" y="2.82440969181801em" fill="#aaa"/><rect width="0.09615384615384616em" height="0.166327007932348em" x="8.942307692307693vw" y="2.833672992067652em" fill="#aaa"/><rect width="0.09615384615384616em" height="0.10836073060543966em" x="9.038461538461538vw" y="2.8916392693945605em" fill="#aaa"/><rect width="0.09615384615384616em" height="0.10737435080461807em" x="9.134615384615385vw" y="2.892625649195382em" fill="#aaa"/><rect width="0.09615384615384616em" height="0.172934348314781em" x="9.230769230769232vw" y="2.827065651685219em" fill="#aaa"/><rect width="0.09615384615384616em" height="0.10944806594053069em" x="9.326923076923077vw" y="2.890551934059469em" fill="#aaa"/><rect width="0.09615384615384616em" height="0.10418051507393047em" x="9.423076923076923vw" y="2.8958194849260694em" fill="#aaa"/><rect width="0.09615384615384616em" height="0.07698002489760129em" x="9.51923076923077vw" y="2.923019975102399em" fill="#aaa"/><rect width="0.09615384615384616em" height="0.09613962788789165em" x="9.615384615384617vw" y="2.903860372112108em" fill="#aaa"/><rect width="0.09615384615384616em" height="0.11148399525744176em" x="9.711538461538462vw" y="2.8885160047425584em" fill="#aaa"/><rect width="0.09615384615384616em" height="0.1518427164559281em" x="9.807692307692308vw" y="2.848157283544072em" fill="#aaa"/><rect width="0.09615384615384616em" height="0.2716458939740332em" x="9.903846153846155vw" y="2.7283541060259666em" fill="#aaa"/></svg>