<?xml version="1.0" standalone="no"?>
<svg xmlns:xlink="http://www.w3.org/1999/xlink" xmlns="http://www.w3.org/2000/svg" class="topic-graph" style="width: 10vw; height: 3em; text-align: center;"><rect width="0.09615384615384616em" height="1.7258388974649432em" x="0vw" y="1.2741611025350568em" fill="#aaa"/><rect width="0.09615384615384616em" height="0.4681879387012544em" x="0.09615384615384616vw" y="2.5318120612987456em" fill="#aaa"/><rect width="0.09615384615384616em" height="2.020880374178735em" x="0.19230769230769232vw" y="0.9791196258212649em" fill="#aaa"/><rect width="0.09615384615384616em" height="0.9360667798553162em" x="0.2884615384615385vw" y="2.063933220144684em" fill="#aaa"/><rect width="0.09615384615384616em" height="1.013168381950264em" x="0.38461538461538464vw" y="1.986831618049736em" fill="#aaa"/><rect width="0.09615384615384616em" height="0.384885556636423em" x="0.4807692307692308vw" y="2.615114443363577em" fill="#aaa"/><rect width="0.09615384615384616em" height="1.243618283144931em" x="0.576923076923077vw" y="1.756381716855069em" fill="#aaa"/><rect width="0.09615384615384616em" height="0.14556452394698915em" x="0.6730769230769231vw" y="2.854435476053011em" fill="#aaa"/><rect width="0.09615384615384616em" height="1.4990265709140738em" x="0.7692307692307693vw" y="1.5009734290859262em" fill="#aaa"/><rect width="0.09615384615384616em" height="0.8046438116879484em" x="0.8653846153846154vw" y="2.1953561883120516em" fill="#aaa"/><rect width="0.09615384615384616em" height="0.6738692812205104em" x="0.9615384615384616vw" y="2.3261307187794897em" fill="#aaa"/><rect width="0.09615384615384616em" height="2.527106823990575em" x="1.0576923076923077vw" y="0.4728931760094248em" fill="#aaa"/><rect width="0.09615384615384616em" height="0.34963298575018203em" x="1.153846153846154vw" y="2.650367014249818em" fill="#aaa"/><rect width="0.09615384615384616em" height="1.446363611964506em" x="1.25vw" y="1.553636388035494em" fill="#aaa"/><rect width="0.09615384615384616em" height="0.5968610980717937em" x="1.3461538461538463vw" y="2.403138901928206em" fill="#aaa"/><rect width="0.09615384615384616em" height="0.32624083240014334em" x="1.4423076923076923vw" y="2.6737591675998567em" fill="#aaa"/><rect width="0.09615384615384616em" height="0.8226506553978015em" x="1.5384615384615385vw" y="2.1773493446021988em" fill="#aaa"/><rect width="0.09615384615384616em" height="0.4760083080886944em" x="1.6346153846153848vw" y="2.5239916919113057em" fill="#aaa"/><rect width="0.09615384615384616em" height="0.907931561352773em" x="1.7307692307692308vw" y="2.0920684386472272em" fill="#aaa"/><rect width="0.09615384615384616em" height="0.8448388534381295em" x="1.826923076923077vw" y="2.1551611465618707em" fill="#aaa"/><rect width="0.09615384615384616em" height="0.6359691794537954em" x="1.9230769230769231vw" y="2.364030820546205em" fill="#aaa"/><rect width="0.09615384615384616em" height="0.5642431516225608em" x="2.019230769230769vw" y="2.435756848377439em" fill="#aaa"/><rect width="0.09615384615384616em" height="0.5635668904594304em" x="2.1153846153846154vw" y="2.4364331095405696em" fill="#aaa"/><rect width="0.09615384615384616em" height="0.15815284973942575em" x="2.2115384615384617vw" y="2.841847150260574em" fill="#aaa"/><rect width="0.09615384615384616em" height="0.3817062694020279em" x="2.307692307692308vw" y="2.618293730597972em" fill="#aaa"/><rect width="0.09615384615384616em" height="1.5656880540100429em" x="2.403846153846154vw" y="1.4343119459899571em" fill="#aaa"/><rect width="0.09615384615384616em" height="1.7271938532574045em" x="2.5vw" y="1.2728061467425955em" fill="#aaa"/><rect width="0.09615384615384616em" height="0.730747814589445em" x="2.5961538461538463vw" y="2.269252185410555em" fill="#aaa"/><rect width="0.09615384615384616em" height="2.307072333452972em" x="2.6923076923076925vw" y="0.6929276665470279em" fill="#aaa"/><rect width="0.09615384615384616em" height="1.6618070041462365em" x="2.7884615384615388vw" y="1.3381929958537635em" fill="#aaa"/><rect width="0.09615384615384616em" height="1.279066711991002em" x="2.8846153846153846vw" y="1.720933288008998em" fill="#aaa"/><rect width="0.09615384615384616em" height="1.7517851868004555em" x="2.980769230769231vw" y="1.2482148131995445em" fill="#aaa"/><rect width="0.09615384615384616em" height="2.2027459696558296em" x="3.076923076923077vw" y="0.7972540303441704em" fill="#aaa"/><rect width="0.09615384615384616em" height="0.7919852525108821em" x="3.1730769230769234vw" y="2.208014747489118em" fill="#aaa"/><rect width="0.09615384615384616em" height="1.4121274856206822em" x="3.2692307692307696vw" y="1.5878725143793178em" fill="#aaa"/><rect width="0.09615384615384616em" height="1.04143018366371em" x="3.3653846153846154vw" y="1.95856981633629em" fill="#aaa"/><rect width="0.09615384615384616em" height="1.496412785609987em" x="3.4615384615384617vw" y="1.503587214390013em" fill="#aaa"/><rect width="0.09615384615384616em" height="1.350556903571658em" x="3.557692307692308vw" y="1.649443096428342em" fill="#aaa"/><rect width="0.09615384615384616em" height="0.6199893606415244em" x="3.653846153846154vw" y="2.3800106393584755em" fill="#aaa"/><rect width="0.09615384615384616em" height="1.0617588806756693em" x="3.75vw" y="1.9382411193243307em" fill="#aaa"/><rect width="0.09615384615384616em" height="2.1577737862102246em" x="3.8461538461538463vw" y="0.8422262137897754em" fill="#aaa"/><rect width="0.09615384615384616em" height="1.5225882648542313em" x="3.9423076923076925vw" y="1.4774117351457687em" fill="#aaa"/><rect width="0.09615384615384616em" height="1.3696916803737071em" x="4.038461538461538vw" y="1.6303083196262929em" fill="#aaa"/><rect width="0.09615384615384616em" height="0.7067838003719116em" x="4.134615384615385vw" y="2.2932161996280884em" fill="#aaa"/><rect width="0.09615384615384616em" height="2.133000800282173em" x="4.230769230769231vw" y="0.866999199717827em" fill="#aaa"/><rect width="0.09615384615384616em" height="1.3785498846861994em" x="4.3269230769230775vw" y="1.6214501153138006em" fill="#aaa"/><rect width="0.09615384615384616em" height="3em" x="4.423076923076923vw" y="0em" fill="#aaa"/><rect width="0.09615384615384616em" height="1.9535673893479906em" x="4.519230769230769vw" y="1.0464326106520094em" fill="#aaa"/><rect width="0.09615384615384616em" height="0.9391434414703361em" x="4.615384615384616vw" y="2.0608565585296637em" fill="#aaa"/><rect width="0.09615384615384616em" height="1.6399555925688996em" x="4.711538461538462vw" y="1.3600444074311004em" fill="#aaa"/><rect width="0.09615384615384616em" height="1.2041106020228936em" x="4.807692307692308vw" y="1.7958893979771064em" fill="#aaa"/><rect width="0.09615384615384616em" height="1.34341449156084em" x="4.903846153846154vw" y="1.65658550843916em" fill="#aaa"/><rect width="0.09615384615384616em" height="1.1837694170941544em" x="5vw" y="1.8162305829058456em" fill="#aaa"/><rect width="0.09615384615384616em" height="1.3252353169295865em" x="5.096153846153847vw" y="1.6747646830704135em" fill="#aaa"/><rect width="0.09615384615384616em" height="1.7101232150418657em" x="5.1923076923076925vw" y="1.2898767849581343em" fill="#aaa"/><rect width="0.09615384615384616em" height="1.9587994013095809em" x="5.288461538461538vw" y="1.0412005986904191em" fill="#aaa"/><rect width="0.09615384615384616em" height="1.639584423557765em" x="5.384615384615385vw" y="1.360415576442235em" fill="#aaa"/><rect width="0.09615384615384616em" height="0.8310937746558532em" x="5.480769230769231vw" y="2.1689062253441467em" fill="#aaa"/><rect width="0.09615384615384616em" height="1.3031095127529002em" x="5.5769230769230775vw" y="1.6968904872470998em" fill="#aaa"/><rect width="0.09615384615384616em" height="1.0377537865873347em" x="5.673076923076923vw" y="1.9622462134126653em" fill="#aaa"/><rect width="0.09615384615384616em" height="0.7979774062181912em" x="5.769230769230769vw" y="2.202022593781809em" fill="#aaa"/><rect width="0.09615384615384616em" height="0.9866689615234441em" x="5.865384615384616vw" y="2.013331038476556em" fill="#aaa"/><rect width="0.09615384615384616em" height="1.9578532046042738em" x="5.961538461538462vw" y="1.0421467953957262em" fill="#aaa"/><rect width="0.09615384615384616em" height="1.884993794128321em" x="6.057692307692308vw" y="1.115006205871679em" fill="#aaa"/><rect width="0.09615384615384616em" height="1.0241507667551883em" x="6.153846153846154vw" y="1.9758492332448117em" fill="#aaa"/><rect width="0.09615384615384616em" height="1.4398441236218653em" x="6.25vw" y="1.5601558763781347em" fill="#aaa"/><rect width="0.09615384615384616em" height="1.9464534055728249em" x="6.346153846153847vw" y="1.0535465944271751em" fill="#aaa"/><rect width="0.09615384615384616em" height="1.9283066660311705em" x="6.4423076923076925vw" y="1.0716933339688295em" fill="#aaa"/><rect width="0.09615384615384616em" height="2.4092378647281167em" x="6.538461538461539vw" y="0.5907621352718833em" fill="#aaa"/><rect width="0.09615384615384616em" height="1.401223664904113em" x="6.634615384615385vw" y="1.598776335095887em" fill="#aaa"/><rect width="0.09615384615384616em" height="1.887593512468944em" x="6.730769230769231vw" y="1.112406487531056em" fill="#aaa"/><rect width="0.09615384615384616em" height="2.02080572292652em" x="6.8269230769230775vw" y="0.9791942770734798em" fill="#aaa"/><rect width="0.09615384615384616em" height="1.533804420974783em" x="6.923076923076923vw" y="1.466195579025217em" fill="#aaa"/><rect width="0.09615384615384616em" height="1.2513722606807707em" x="7.01923076923077vw" y="1.7486277393192293em" fill="#aaa"/><rect width="0.09615384615384616em" height="1.7104603021659388em" x="7.115384615384616vw" y="1.2895396978340612em" fill="#aaa"/><rect width="0.09615384615384616em" height="1.1025776387471877em" x="7.211538461538462vw" y="1.8974223612528123em" fill="#aaa"/><rect width="0.09615384615384616em" height="1.433573459395082em" x="7.307692307692308vw" y="1.566426540604918em" fill="#aaa"/><rect width="0.09615384615384616em" height="1.43957613488955em" x="7.403846153846154vw" y="1.56042386511045em" fill="#aaa"/><rect width="0.09615384615384616em" height="1.0428024258542241em" x="7.5vw" y="1.9571975741457759em" fill="#aaa"/><rect width="0.09615384615384616em" height="1.229653231532688em" x="7.596153846153847vw" y="1.770346768467312em" fill="#aaa"/><rect width="0.09615384615384616em" height="0.8048152675003124em" x="7.6923076923076925vw" y="2.195184732499688em" fill="#aaa"/><rect width="0.09615384615384616em" height="0.8220929594738817em" x="7.788461538461539vw" y="2.1779070405261183em" fill="#aaa"/><rect width="0.09615384615384616em" height="0.7836295374160311em" x="7.884615384615385vw" y="2.216370462583969em" fill="#aaa"/><rect width="0.09615384615384616em" height="1.16978170632891em" x="7.980769230769231vw" y="1.83021829367109em" fill="#aaa"/><rect width="0.09615384615384616em" height="0.8584952399763465em" x="8.076923076923077vw" y="2.1415047600236536em" fill="#aaa"/><rect width="0.09615384615384616em" height="1.0426441220079905em" x="8.173076923076923vw" y="1.9573558779920095em" fill="#aaa"/><rect width="0.09615384615384616em" height="1.768655176052694em" x="8.26923076923077vw" y="1.231344823947306em" fill="#aaa"/><rect width="0.09615384615384616em" height="0.8620152041029465em" x="8.365384615384615vw" y="2.1379847958970535em" fill="#aaa"/><rect width="0.09615384615384616em" height="1.0734943613842685em" x="8.461538461538462vw" y="1.9265056386157315em" fill="#aaa"/><rect width="0.09615384615384616em" height="0.6842089096378279em" x="8.557692307692308vw" y="2.315791090362172em" fill="#aaa"/><rect width="0.09615384615384616em" height="0.8400286234569903em" x="8.653846153846155vw" y="2.1599713765430097em" fill="#aaa"/><rect width="0.09615384615384616em" height="0.8081617947442008em" x="8.75vw" y="2.191838205255799em" fill="#aaa"/><rect width="0.09615384615384616em" height="0.6974187265378281em" x="8.846153846153847vw" y="2.302581273462172em" fill="#aaa"/><rect width="0.09615384615384616em" height="0.6127390294359324em" x="8.942307692307693vw" y="2.3872609705640677em" fill="#aaa"/><rect width="0.09615384615384616em" height="0.5147224100009795em" x="9.038461538461538vw" y="2.4852775899990203em" fill="#aaa"/><rect width="0.09615384615384616em" height="0.6625727610191496em" x="9.134615384615385vw" y="2.33742723898085em" fill="#aaa"/><rect width="0.09615384615384616em" height="0.8512639426240616em" x="9.230769230769232vw" y="2.148736057375938em" fill="#aaa"/><rect width="0.09615384615384616em" height="0.9840639979900758em" x="9.326923076923077vw" y="2.015936002009924em" fill="#aaa"/><rect width="0.09615384615384616em" height="0.5672211140047403em" x="9.423076923076923vw" y="2.4327788859952597em" fill="#aaa"/><rect width="0.09615384615384616em" height="0.5634871863246479em" x="9.51923076923077vw" y="2.436512813675352em" fill="#aaa"/><rect width="0.09615384615384616em" height="0.5968175714769872em" x="9.615384615384617vw" y="2.403182428523013em" fill="#aaa"/><rect width="0.09615384615384616em" height="0.6482307755592046em" x="9.711538461538462vw" y="2.3517692244407953em" fill="#aaa"/><rect width="0.09615384615384616em" height="0.6975026413872928em" x="9.807692307692308vw" y="2.3024973586127073em" fill="#aaa"/><rect width="0.09615384615384616em" height="0.5417593951431015em" x="9.903846153846155vw" y="2.4582406048568988em" fill="#aaa"/></svg>