<?xml version="1.0" standalone="no"?>
<svg xmlns:xlink="http://www.w3.org/1999/xlink" xmlns="http://www.w3.org/2000/svg" class="topic-graph" style="width: 10vw; height: 3em; text-align: center;"><rect width="0.09615384615384616em" height="0.598671369860804em" x="0vw" y="2.401328630139196em" fill="#aaa"/><rect width="0.09615384615384616em" height="0.1403736742937016em" x="0.09615384615384616vw" y="2.8596263257062984em" fill="#aaa"/><rect width="0.09615384615384616em" height="0.13135054365056237em" x="0.19230769230769232vw" y="2.868649456349438em" fill="#aaa"/><rect width="0.09615384615384616em" height="0.10188279151289194em" x="0.2884615384615385vw" y="2.898117208487108em" fill="#aaa"/><rect width="0.09615384615384616em" height="0.9081888458301803em" x="0.38461538461538464vw" y="2.09181115416982em" fill="#aaa"/><rect width="0.09615384615384616em" height="0.45162528629467913em" x="0.4807692307692308vw" y="2.548374713705321em" fill="#aaa"/><rect width="0.09615384615384616em" height="0.5788193315206235em" x="0.576923076923077vw" y="2.4211806684793764em" fill="#aaa"/><rect width="0.09615384615384616em" height="0.27391151824478477em" x="0.6730769230769231vw" y="2.726088481755215em" fill="#aaa"/><rect width="0.09615384615384616em" height="0.15628063253279117em" x="0.7692307692307693vw" y="2.8437193674672088em" fill="#aaa"/><rect width="0.09615384615384616em" height="1.0262122332920292em" x="0.8653846153846154vw" y="1.9737877667079708em" fill="#aaa"/><rect width="0.09615384615384616em" height="0.3091398648179805em" x="0.9615384615384616vw" y="2.6908601351820196em" fill="#aaa"/><rect width="0.09615384615384616em" height="0.2438263093928149em" x="1.0576923076923077vw" y="2.756173690607185em" fill="#aaa"/><rect width="0.09615384615384616em" height="0.167652984740826em" x="1.153846153846154vw" y="2.832347015259174em" fill="#aaa"/><rect width="0.09615384615384616em" height="1.0157875156237672em" x="1.25vw" y="1.9842124843762328em" fill="#aaa"/><rect width="0.09615384615384616em" height="0.2877732486990474em" x="1.3461538461538463vw" y="2.7122267513009524em" fill="#aaa"/><rect width="0.09615384615384616em" height="0.17906167411112822em" x="1.4423076923076923vw" y="2.820938325888872em" fill="#aaa"/><rect width="0.09615384615384616em" height="0.47079476572509144em" x="1.5384615384615385vw" y="2.5292052342749085em" fill="#aaa"/><rect width="0.09615384615384616em" height="0.09842449265226012em" x="1.6346153846153848vw" y="2.90157550734774em" fill="#aaa"/><rect width="0.09615384615384616em" height="1.633900679582409em" x="1.7307692307692308vw" y="1.366099320417591em" fill="#aaa"/><rect width="0.09615384615384616em" height="0.17112929253587927em" x="1.826923076923077vw" y="2.828870707464121em" fill="#aaa"/><rect width="0.09615384615384616em" height="0.20110151933443066em" x="1.9230769230769231vw" y="2.7988984806655695em" fill="#aaa"/><rect width="0.09615384615384616em" height="0.03294509164042651em" x="2.019230769230769vw" y="2.9670549083595734em" fill="#aaa"/><rect width="0.09615384615384616em" height="0.6697144490833182em" x="2.1153846153846154vw" y="2.330285550916682em" fill="#aaa"/><rect width="0.09615384615384616em" height="0.33082477697414464em" x="2.2115384615384617vw" y="2.669175223025855em" fill="#aaa"/><rect width="0.09615384615384616em" height="0.07824749766536666em" x="2.307692307692308vw" y="2.921752502334633em" fill="#aaa"/><rect width="0.09615384615384616em" height="0.49055970537361027em" x="2.403846153846154vw" y="2.5094402946263896em" fill="#aaa"/><rect width="0.09615384615384616em" height="0.5141199346408182em" x="2.5vw" y="2.485880065359182em" fill="#aaa"/><rect width="0.09615384615384616em" height="0.3609093013090068em" x="2.5961538461538463vw" y="2.6390906986909934em" fill="#aaa"/><rect width="0.09615384615384616em" height="0.1478955443375726em" x="2.6923076923076925vw" y="2.8521044556624275em" fill="#aaa"/><rect width="0.09615384615384616em" height="0.22447666635222358em" x="2.7884615384615388vw" y="2.7755233336477763em" fill="#aaa"/><rect width="0.09615384615384616em" height="0.3095906052797691em" x="2.8846153846153846vw" y="2.690409394720231em" fill="#aaa"/><rect width="0.09615384615384616em" height="0.1436830621704374em" x="2.980769230769231vw" y="2.8563169378295625em" fill="#aaa"/><rect width="0.09615384615384616em" height="0.2490877644931237em" x="3.076923076923077vw" y="2.7509122355068762em" fill="#aaa"/><rect width="0.09615384615384616em" height="0.1355608825060738em" x="3.1730769230769234vw" y="2.864439117493926em" fill="#aaa"/><rect width="0.09615384615384616em" height="0.18309757973697036em" x="3.2692307692307696vw" y="2.8169024202630295em" fill="#aaa"/><rect width="0.09615384615384616em" height="0.14404156259852313em" x="3.3653846153846154vw" y="2.855958437401477em" fill="#aaa"/><rect width="0.09615384615384616em" height="0.16237234744735213em" x="3.4615384615384617vw" y="2.837627652552648em" fill="#aaa"/><rect width="0.09615384615384616em" height="0.7770170067747557em" x="3.557692307692308vw" y="2.2229829932252443em" fill="#aaa"/><rect width="0.09615384615384616em" height="0.24222354182198608em" x="3.653846153846154vw" y="2.757776458178014em" fill="#aaa"/><rect width="0.09615384615384616em" height="0.04515515611444397em" x="3.75vw" y="2.954844843885556em" fill="#aaa"/><rect width="0.09615384615384616em" height="0.2044266128129284em" x="3.8461538461538463vw" y="2.795573387187072em" fill="#aaa"/><rect width="0.09615384615384616em" height="2.083079512581395em" x="3.9423076923076925vw" y="0.9169204874186052em" fill="#aaa"/><rect width="0.09615384615384616em" height="2.610317360573639em" x="4.038461538461538vw" y="0.38968263942636083em" fill="#aaa"/><rect width="0.09615384615384616em" height="0.6655989219939844em" x="4.134615384615385vw" y="2.3344010780060156em" fill="#aaa"/><rect width="0.09615384615384616em" height="0.8320584322865372em" x="4.230769230769231vw" y="2.167941567713463em" fill="#aaa"/><rect width="0.09615384615384616em" height="0.31131874816087224em" x="4.3269230769230775vw" y="2.6886812518391277em" fill="#aaa"/><rect width="0.09615384615384616em" height="0.16461183426315756em" x="4.423076923076923vw" y="2.8353881657368425em" fill="#aaa"/><rect width="0.09615384615384616em" height="0.15303154253863974em" x="4.519230769230769vw" y="2.8469684574613603em" fill="#aaa"/><rect width="0.09615384615384616em" height="0.14344105402307933em" x="4.615384615384616vw" y="2.8565589459769205em" fill="#aaa"/><rect width="0.09615384615384616em" height="0.1234752220334257em" x="4.711538461538462vw" y="2.876524777966574em" fill="#aaa"/><rect width="0.09615384615384616em" height="0.07700898571826995em" x="4.807692307692308vw" y="2.92299101428173em" fill="#aaa"/><rect width="0.09615384615384616em" height="0.11395886895356364em" x="4.903846153846154vw" y="2.8860411310464364em" fill="#aaa"/><rect width="0.09615384615384616em" height="0.20577391203322973em" x="5vw" y="2.7942260879667704em" fill="#aaa"/><rect width="0.09615384615384616em" height="0.12461229413795152em" x="5.096153846153847vw" y="2.8753877058620483em" fill="#aaa"/><rect width="0.09615384615384616em" height="0.07382981863621721em" x="5.1923076923076925vw" y="2.9261701813637826em" fill="#aaa"/><rect width="0.09615384615384616em" height="0.11963919502397062em" x="5.288461538461538vw" y="2.8803608049760294em" fill="#aaa"/><rect width="0.09615384615384616em" height="0.23459249224862655em" x="5.384615384615385vw" y="2.7654075077513736em" fill="#aaa"/><rect width="0.09615384615384616em" height="0.6529454011407021em" x="5.480769230769231vw" y="2.347054598859298em" fill="#aaa"/><rect width="0.09615384615384616em" height="0.7172383135554176em" x="5.5769230769230775vw" y="2.2827616864445823em" fill="#aaa"/><rect width="0.09615384615384616em" height="0.11057375994574517em" x="5.673076923076923vw" y="2.889426240054255em" fill="#aaa"/><rect width="0.09615384615384616em" height="0.1495139037522738em" x="5.769230769230769vw" y="2.8504860962477263em" fill="#aaa"/><rect width="0.09615384615384616em" height="0.16359673006829833em" x="5.865384615384616vw" y="2.8364032699317017em" fill="#aaa"/><rect width="0.09615384615384616em" height="0.5059895022758464em" x="5.961538461538462vw" y="2.4940104977241537em" fill="#aaa"/><rect width="0.09615384615384616em" height="0.32172247898455586em" x="6.057692307692308vw" y="2.678277521015444em" fill="#aaa"/><rect width="0.09615384615384616em" height="0.21956544172231054em" x="6.153846153846154vw" y="2.7804345582776895em" fill="#aaa"/><rect width="0.09615384615384616em" height="0.14677107925558108em" x="6.25vw" y="2.853228920744419em" fill="#aaa"/><rect width="0.09615384615384616em" height="0.17380685530604545em" x="6.346153846153847vw" y="2.8261931446939546em" fill="#aaa"/><rect width="0.09615384615384616em" height="0.15724602051002556em" x="6.4423076923076925vw" y="2.8427539794899745em" fill="#aaa"/><rect width="0.09615384615384616em" height="0.17454925905486723em" x="6.538461538461539vw" y="2.825450740945133em" fill="#aaa"/><rect width="0.09615384615384616em" height="0.7796971812521527em" x="6.634615384615385vw" y="2.2203028187478475em" fill="#aaa"/><rect width="0.09615384615384616em" height="0.18889163075302007em" x="6.730769230769231vw" y="2.81110836924698em" fill="#aaa"/><rect width="0.09615384615384616em" height="0.1882195695593765em" x="6.8269230769230775vw" y="2.8117804304406233em" fill="#aaa"/><rect width="0.09615384615384616em" height="0.22679027379164252em" x="6.923076923076923vw" y="2.7732097262083575em" fill="#aaa"/><rect width="0.09615384615384616em" height="0.3334941230756539em" x="7.01923076923077vw" y="2.666505876924346em" fill="#aaa"/><rect width="0.09615384615384616em" height="0.25399139121877934em" x="7.115384615384616vw" y="2.7460086087812208em" fill="#aaa"/><rect width="0.09615384615384616em" height="2.3960187808912665em" x="7.211538461538462vw" y="0.6039812191087335em" fill="#aaa"/><rect width="0.09615384615384616em" height="0.5203673657717586em" x="7.307692307692308vw" y="2.4796326342282415em" fill="#aaa"/><rect width="0.09615384615384616em" height="0.8272341816902108em" x="7.403846153846154vw" y="2.1727658183097893em" fill="#aaa"/><rect width="0.09615384615384616em" height="0.9794011090125831em" x="7.5vw" y="2.020598890987417em" fill="#aaa"/><rect width="0.09615384615384616em" height="0.401612460305502em" x="7.596153846153847vw" y="2.5983875396944978em" fill="#aaa"/><rect width="0.09615384615384616em" height="0.38493752628633243em" x="7.6923076923076925vw" y="2.6150624737136674em" fill="#aaa"/><rect width="0.09615384615384616em" height="0.8406757465308147em" x="7.788461538461539vw" y="2.1593242534691854em" fill="#aaa"/><rect width="0.09615384615384616em" height="0.3807792778126964em" x="7.884615384615385vw" y="2.6192207221873036em" fill="#aaa"/><rect width="0.09615384615384616em" height="0.45452253813245913em" x="7.980769230769231vw" y="2.5454774618675406em" fill="#aaa"/><rect width="0.09615384615384616em" height="0.5215847523812764em" x="8.076923076923077vw" y="2.478415247618724em" fill="#aaa"/><rect width="0.09615384615384616em" height="0.5432358650101736em" x="8.173076923076923vw" y="2.456764134989826em" fill="#aaa"/><rect width="0.09615384615384616em" height="2.0304647020615447em" x="8.26923076923077vw" y="0.9695352979384553em" fill="#aaa"/><rect width="0.09615384615384616em" height="0.5755649864838477em" x="8.365384615384615vw" y="2.4244350135161525em" fill="#aaa"/><rect width="0.09615384615384616em" height="0.4740466393861472em" x="8.461538461538462vw" y="2.525953360613853em" fill="#aaa"/><rect width="0.09615384615384616em" height="0.40937867409564493em" x="8.557692307692308vw" y="2.590621325904355em" fill="#aaa"/><rect width="0.09615384615384616em" height="3em" x="8.653846153846155vw" y="0em" fill="#aaa"/><rect width="0.09615384615384616em" height="0.3971930271081434em" x="8.75vw" y="2.6028069728918566em" fill="#aaa"/><rect width="0.09615384615384616em" height="0.8916881234469625em" x="8.846153846153847vw" y="2.1083118765530378em" fill="#aaa"/><rect width="0.09615384615384616em" height="1.3868825986767048em" x="8.942307692307693vw" y="1.6131174013232952em" fill="#aaa"/><rect width="0.09615384615384616em" height="0.23136197123029031em" x="9.038461538461538vw" y="2.76863802876971em" fill="#aaa"/><rect width="0.09615384615384616em" height="0.7907310585258418em" x="9.134615384615385vw" y="2.209268941474158em" fill="#aaa"/><rect width="0.09615384615384616em" height="0.4249999681729334em" x="9.230769230769232vw" y="2.5750000318270665em" fill="#aaa"/><rect width="0.09615384615384616em" height="0.36606268533874264em" x="9.326923076923077vw" y="2.6339373146612575em" fill="#aaa"/><rect width="0.09615384615384616em" height="0.2481695753179951em" x="9.423076923076923vw" y="2.751830424682005em" fill="#aaa"/><rect width="0.09615384615384616em" height="0.2629828670769616em" x="9.51923076923077vw" y="2.7370171329230386em" fill="#aaa"/><rect width="0.09615384615384616em" height="0.631314876082755em" x="9.615384615384617vw" y="2.368685123917245em" fill="#aaa"/><rect width="0.09615384615384616em" height="0.6403289011563743em" x="9.711538461538462vw" y="2.359671098843626em" fill="#aaa"/><rect width="0.09615384615384616em" height="0.7410788072818827em" x="9.807692307692308vw" y="2.2589211927181174em" fill="#aaa"/><rect width="0.09615384615384616em" height="1.0609740391344047em" x="9.903846153846155vw" y="1.9390259608655953em" fill="#aaa"/></svg>