<?xml version="1.0" standalone="no"?>
<svg xmlns:xlink="http://www.w3.org/1999/xlink" xmlns="http://www.w3.org/2000/svg" class="topic-graph" style="width: 100em; height: 30em; text-align: center;"><rect width="0.9615384615384616em" height="2.070477176601781em" x="0em" y="27.92952282339822em" fill="#aaa"/><rect width="0.9615384615384616em" height="7.719100836899778em" x="0.9615384615384616em" y="22.280899163100223em" fill="#aaa"/><rect width="0.9615384615384616em" height="1.8550006765983351em" x="1.9230769230769231em" y="28.144999323401663em" fill="#aaa"/><rect width="0.9615384615384616em" height="3.377997888035978em" x="2.8846153846153846em" y="26.622002111964022em" fill="#aaa"/><rect width="0.9615384615384616em" height="3.952169964628231em" x="3.8461538461538463em" y="26.047830035371767em" fill="#aaa"/><rect width="0.9615384615384616em" height="1.8131625657546555em" x="4.8076923076923075em" y="28.186837434245344em" fill="#aaa"/><rect width="0.9615384615384616em" height="1.3957654411235347em" x="5.769230769230769em" y="28.604234558876467em" fill="#aaa"/><rect width="0.9615384615384616em" height="1.616942255235337em" x="6.730769230769231em" y="28.383057744764663em" fill="#aaa"/><rect width="0.9615384615384616em" height="3.576538675329897em" x="7.6923076923076925em" y="26.423461324670104em" fill="#aaa"/><rect width="0.9615384615384616em" height="1.981656977059342em" x="8.653846153846153em" y="28.01834302294066em" fill="#aaa"/><rect width="0.9615384615384616em" height="1.6440084557961163em" x="9.615384615384615em" y="28.355991544203885em" fill="#aaa"/><rect width="0.9615384615384616em" height="2.8778104080948643em" x="10.576923076923077em" y="27.122189591905137em" fill="#aaa"/><rect width="0.9615384615384616em" height="1.8623904711004282em" x="11.538461538461538em" y="28.13760952889957em" fill="#aaa"/><rect width="0.9615384615384616em" height="2.1805138070735786em" x="12.5em" y="27.819486192926423em" fill="#aaa"/><rect width="0.9615384615384616em" height="4.1795265741632734em" x="13.461538461538462em" y="25.820473425836727em" fill="#aaa"/><rect width="0.9615384615384616em" height="2.3858389822803923em" x="14.423076923076923em" y="27.614161017719606em" fill="#aaa"/><rect width="0.9615384615384616em" height="0.9682189567529129em" x="15.384615384615385em" y="29.031781043247086em" fill="#aaa"/><rect width="0.9615384615384616em" height="2.541587075138924em" x="16.346153846153847em" y="27.458412924861076em" fill="#aaa"/><rect width="0.9615384615384616em" height="4.258075251660911em" x="17.307692307692307em" y="25.741924748339088em" fill="#aaa"/><rect width="0.9615384615384616em" height="2.295485568997619em" x="18.26923076923077em" y="27.70451443100238em" fill="#aaa"/><rect width="0.9615384615384616em" height="2.7100846660522544em" x="19.23076923076923em" y="27.289915333947746em" fill="#aaa"/><rect width="0.9615384615384616em" height="1.3722802524602087em" x="20.192307692307693em" y="28.627719747539793em" fill="#aaa"/><rect width="0.9615384615384616em" height="2.646306710312877em" x="21.153846153846153em" y="27.353693289687122em" fill="#aaa"/><rect width="0.9615384615384616em" height="1.857901859492633em" x="22.115384615384617em" y="28.14209814050737em" fill="#aaa"/><rect width="0.9615384615384616em" height="3.377297310244614em" x="23.076923076923077em" y="26.622702689755386em" fill="#aaa"/><rect width="0.9615384615384616em" height="2.6059517442294435em" x="24.03846153846154em" y="27.394048255770556em" fill="#aaa"/><rect width="0.9615384615384616em" height="2.790230997268751em" x="25em" y="27.20976900273125em" fill="#aaa"/><rect width="0.9615384615384616em" height="2.359546653558819em" x="25.961538461538463em" y="27.64045334644118em" fill="#aaa"/><rect width="0.9615384615384616em" height="1.2416976072227144em" x="26.923076923076923em" y="28.758302392777285em" fill="#aaa"/><rect width="0.9615384615384616em" height="1.9646123240197988em" x="27.884615384615387em" y="28.0353876759802em" fill="#aaa"/><rect width="0.9615384615384616em" height="2.666800581245555em" x="28.846153846153847em" y="27.333199418754447em" fill="#aaa"/><rect width="0.9615384615384616em" height="2.5590898914441813em" x="29.80769230769231em" y="27.44091010855582em" fill="#aaa"/><rect width="0.9615384615384616em" height="1.8973666892873062em" x="30.76923076923077em" y="28.102633310712694em" fill="#aaa"/><rect width="0.9615384615384616em" height="2.0666272107515806em" x="31.73076923076923em" y="27.93337278924842em" fill="#aaa"/><rect width="0.9615384615384616em" height="1.0354149623081794em" x="32.69230769230769em" y="28.96458503769182em" fill="#aaa"/><rect width="0.9615384615384616em" height="3.0408148629875686em" x="33.65384615384615em" y="26.959185137012433em" fill="#aaa"/><rect width="0.9615384615384616em" height="4.113611816729356em" x="34.61538461538461em" y="25.886388183270643em" fill="#aaa"/><rect width="0.9615384615384616em" height="2.4653539436829117em" x="35.57692307692308em" y="27.534646056317087em" fill="#aaa"/><rect width="0.9615384615384616em" height="2.029940611648108em" x="36.53846153846154em" y="27.970059388351892em" fill="#aaa"/><rect width="0.9615384615384616em" height="2.5370250537138617em" x="37.5em" y="27.46297494628614em" fill="#aaa"/><rect width="0.9615384615384616em" height="4.464366657867763em" x="38.46153846153846em" y="25.535633342132236em" fill="#aaa"/><rect width="0.9615384615384616em" height="3.3295736752584038em" x="39.42307692307693em" y="26.670426324741598em" fill="#aaa"/><rect width="0.9615384615384616em" height="2.3739421200344477em" x="40.38461538461539em" y="27.62605787996555em" fill="#aaa"/><rect width="0.9615384615384616em" height="3.4707302706642866em" x="41.34615384615385em" y="26.529269729335713em" fill="#aaa"/><rect width="0.9615384615384616em" height="1.747012777297309em" x="42.30769230769231em" y="28.252987222702693em" fill="#aaa"/><rect width="0.9615384615384616em" height="5.257256604094523em" x="43.269230769230774em" y="24.742743395905478em" fill="#aaa"/><rect width="0.9615384615384616em" height="2.9769863076280023em" x="44.23076923076923em" y="27.023013692371997em" fill="#aaa"/><rect width="0.9615384615384616em" height="3.0720663866649502em" x="45.19230769230769em" y="26.92793361333505em" fill="#aaa"/><rect width="0.9615384615384616em" height="2.859824956691187em" x="46.15384615384615em" y="27.140175043308812em" fill="#aaa"/><rect width="0.9615384615384616em" height="4.565693192340413em" x="47.11538461538461em" y="25.43430680765959em" fill="#aaa"/><rect width="0.9615384615384616em" height="6.65502539717324em" x="48.07692307692308em" y="23.34497460282676em" fill="#aaa"/><rect width="0.9615384615384616em" height="6.5765614268823525em" x="49.03846153846154em" y="23.423438573117647em" fill="#aaa"/><rect width="0.9615384615384616em" height="7.2884104181120035em" x="50em" y="22.711589581887996em" fill="#aaa"/><rect width="0.9615384615384616em" height="7.543622440436195em" x="50.96153846153846em" y="22.456377559563805em" fill="#aaa"/><rect width="0.9615384615384616em" height="8.77953022793032em" x="51.92307692307693em" y="21.22046977206968em" fill="#aaa"/><rect width="0.9615384615384616em" height="8.07951176676658em" x="52.88461538461539em" y="21.92048823323342em" fill="#aaa"/><rect width="0.9615384615384616em" height="8.426240256626334em" x="53.84615384615385em" y="21.573759743373664em" fill="#aaa"/><rect width="0.9615384615384616em" height="6.48017146441519em" x="54.80769230769231em" y="23.51982853558481em" fill="#aaa"/><rect width="0.9615384615384616em" height="3.0006328917684875em" x="55.769230769230774em" y="26.999367108231514em" fill="#aaa"/><rect width="0.9615384615384616em" height="7.695464772196164em" x="56.73076923076923em" y="22.304535227803836em" fill="#aaa"/><rect width="0.9615384615384616em" height="10.107429793330564em" x="57.69230769230769em" y="19.892570206669436em" fill="#aaa"/><rect width="0.9615384615384616em" height="12.909086057116516em" x="58.65384615384615em" y="17.090913942883482em" fill="#aaa"/><rect width="0.9615384615384616em" height="4.61918123851585em" x="59.61538461538462em" y="25.38081876148415em" fill="#aaa"/><rect width="0.9615384615384616em" height="11.471168733028236em" x="60.57692307692308em" y="18.528831266971764em" fill="#aaa"/><rect width="0.9615384615384616em" height="11.500411841927887em" x="61.53846153846154em" y="18.499588158072115em" fill="#aaa"/><rect width="0.9615384615384616em" height="9.827412742006262em" x="62.5em" y="20.17258725799374em" fill="#aaa"/><rect width="0.9615384615384616em" height="9.590448220715528em" x="63.46153846153846em" y="20.40955177928447em" fill="#aaa"/><rect width="0.9615384615384616em" height="15.114274701087627em" x="64.42307692307692em" y="14.885725298912373em" fill="#aaa"/><rect width="0.9615384615384616em" height="13.633302714861081em" x="65.38461538461539em" y="16.36669728513892em" fill="#aaa"/><rect width="0.9615384615384616em" height="17.276227821226836em" x="66.34615384615385em" y="12.723772178773164em" fill="#aaa"/><rect width="0.9615384615384616em" height="12.130896557092742em" x="67.3076923076923em" y="17.86910344290726em" fill="#aaa"/><rect width="0.9615384615384616em" height="18.84565043673545em" x="68.26923076923077em" y="11.15434956326455em" fill="#aaa"/><rect width="0.9615384615384616em" height="9.828218151391601em" x="69.23076923076923em" y="20.171781848608397em" fill="#aaa"/><rect width="0.9615384615384616em" height="11.001545368099416em" x="70.1923076923077em" y="18.998454631900586em" fill="#aaa"/><rect width="0.9615384615384616em" height="7.242633407739041em" x="71.15384615384616em" y="22.757366592260958em" fill="#aaa"/><rect width="0.9615384615384616em" height="18.66243502672444em" x="72.11538461538461em" y="11.337564973275558em" fill="#aaa"/><rect width="0.9615384615384616em" height="13.244485393045em" x="73.07692307692308em" y="16.755514606955em" fill="#aaa"/><rect width="0.9615384615384616em" height="11.82289970800056em" x="74.03846153846155em" y="18.17710029199944em" fill="#aaa"/><rect width="0.9615384615384616em" height="13.11950646698272em" x="75em" y="16.88049353301728em" fill="#aaa"/><rect width="0.9615384615384616em" height="21.608899955181084em" x="75.96153846153847em" y="8.391100044818916em" fill="#aaa"/><rect width="0.9615384615384616em" height="13.564114286019695em" x="76.92307692307692em" y="16.435885713980305em" fill="#aaa"/><rect width="0.9615384615384616em" height="25.155568454685785em" x="77.88461538461539em" y="4.844431545314215em" fill="#aaa"/><rect width="0.9615384615384616em" height="21.072942332026216em" x="78.84615384615385em" y="8.927057667973784em" fill="#aaa"/><rect width="0.9615384615384616em" height="26.551450693273456em" x="79.8076923076923em" y="3.4485493067265445em" fill="#aaa"/><rect width="0.9615384615384616em" height="17.520023674171384em" x="80.76923076923077em" y="12.479976325828616em" fill="#aaa"/><rect width="0.9615384615384616em" height="28.344056492318447em" x="81.73076923076923em" y="1.6559435076815525em" fill="#aaa"/><rect width="0.9615384615384616em" height="27.338553698243537em" x="82.6923076923077em" y="2.661446301756463em" fill="#aaa"/><rect width="0.9615384615384616em" height="20.305421587687803em" x="83.65384615384616em" y="9.694578412312197em" fill="#aaa"/><rect width="0.9615384615384616em" height="26.623476854787555em" x="84.61538461538461em" y="3.3765231452124453em" fill="#aaa"/><rect width="0.9615384615384616em" height="22.115663268845267em" x="85.57692307692308em" y="7.8843367311547325em" fill="#aaa"/><rect width="0.9615384615384616em" height="26.38203967418792em" x="86.53846153846155em" y="3.6179603258120814em" fill="#aaa"/><rect width="0.9615384615384616em" height="20.400487557988622em" x="87.5em" y="9.599512442011378em" fill="#aaa"/><rect width="0.9615384615384616em" height="15.188489408472154em" x="88.46153846153847em" y="14.811510591527846em" fill="#aaa"/><rect width="0.9615384615384616em" height="14.188067492323917em" x="89.42307692307692em" y="15.811932507676083em" fill="#aaa"/><rect width="0.9615384615384616em" height="16.207180898817217em" x="90.38461538461539em" y="13.792819101182783em" fill="#aaa"/><rect width="0.9615384615384616em" height="16.762150194412257em" x="91.34615384615385em" y="13.237849805587743em" fill="#aaa"/><rect width="0.9615384615384616em" height="14.11777253508917em" x="92.3076923076923em" y="15.88222746491083em" fill="#aaa"/><rect width="0.9615384615384616em" height="17.38169445825499em" x="93.26923076923077em" y="12.61830554174501em" fill="#aaa"/><rect width="0.9615384615384616em" height="19.762110935927605em" x="94.23076923076923em" y="10.237889064072395em" fill="#aaa"/><rect width="0.9615384615384616em" height="22.650828407719207em" x="95.1923076923077em" y="7.349171592280793em" fill="#aaa"/><rect width="0.9615384615384616em" height="29.717805528639374em" x="96.15384615384616em" y="0.2821944713606257em" fill="#aaa"/><rect width="0.9615384615384616em" height="25.16836325061117em" x="97.11538461538461em" y="4.8316367493888315em" fill="#aaa"/><rect width="0.9615384615384616em" height="30em" x="98.07692307692308em" y="0em" fill="#aaa"/><rect width="0.9615384615384616em" height="23.81789419898582em" x="99.03846153846155em" y="6.182105801014181em" fill="#aaa"/></svg>