<?xml version="1.0" standalone="no"?>
<svg xmlns:xlink="http://www.w3.org/1999/xlink" xmlns="http://www.w3.org/2000/svg" class="topic-graph" style="width: 100em; height: 30em; text-align: center;"><rect width="0.9615384615384616em" height="1.3831145330707688em" x="0em" y="28.616885466929233em" fill="#aaa"/><rect width="0.9615384615384616em" height="1.1336588086441988em" x="0.9615384615384616em" y="28.8663411913558em" fill="#aaa"/><rect width="0.9615384615384616em" height="0.4475670199677395em" x="1.9230769230769231em" y="29.55243298003226em" fill="#aaa"/><rect width="0.9615384615384616em" height="1.3788963530684442em" x="2.8846153846153846em" y="28.621103646931555em" fill="#aaa"/><rect width="0.9615384615384616em" height="0.7992425709683583em" x="3.8461538461538463em" y="29.200757429031643em" fill="#aaa"/><rect width="0.9615384615384616em" height="2.797578635741463em" x="4.8076923076923075em" y="27.202421364258537em" fill="#aaa"/><rect width="0.9615384615384616em" height="1.1238060397095733em" x="5.769230769230769em" y="28.876193960290426em" fill="#aaa"/><rect width="0.9615384615384616em" height="0.13636064706157736em" x="6.730769230769231em" y="29.863639352938424em" fill="#aaa"/><rect width="0.9615384615384616em" height="1.1680308336963188em" x="7.6923076923076925em" y="28.831969166303683em" fill="#aaa"/><rect width="0.9615384615384616em" height="1.3551927985785186em" x="8.653846153846153em" y="28.644807201421482em" fill="#aaa"/><rect width="0.9615384615384616em" height="1.2586168985142177em" x="9.615384615384615em" y="28.74138310148578em" fill="#aaa"/><rect width="0.9615384615384616em" height="0.2715730320904302em" x="10.576923076923077em" y="29.72842696790957em" fill="#aaa"/><rect width="0.9615384615384616em" height="3.2564942928156797em" x="11.538461538461538em" y="26.74350570718432em" fill="#aaa"/><rect width="0.9615384615384616em" height="0.5485460885382721em" x="12.5em" y="29.451453911461726em" fill="#aaa"/><rect width="0.9615384615384616em" height="0.23223258003386285em" x="13.461538461538462em" y="29.767767419966138em" fill="#aaa"/><rect width="0.9615384615384616em" height="1.883415987532138em" x="14.423076923076923em" y="28.11658401246786em" fill="#aaa"/><rect width="0.9615384615384616em" height="0.7033112226752964em" x="15.384615384615385em" y="29.296688777324704em" fill="#aaa"/><rect width="0.9615384615384616em" height="0.4219815269611069em" x="16.346153846153847em" y="29.57801847303889em" fill="#aaa"/><rect width="0.9615384615384616em" height="10.748671598803169em" x="17.307692307692307em" y="19.25132840119683em" fill="#aaa"/><rect width="0.9615384615384616em" height="0.4818209870553802em" x="18.26923076923077em" y="29.51817901294462em" fill="#aaa"/><rect width="0.9615384615384616em" height="3.4375922315809406em" x="19.23076923076923em" y="26.56240776841906em" fill="#aaa"/><rect width="0.9615384615384616em" height="1.141205061443582em" x="20.192307692307693em" y="28.858794938556418em" fill="#aaa"/><rect width="0.9615384615384616em" height="1.4065885671284775em" x="21.153846153846153em" y="28.593411432871523em" fill="#aaa"/><rect width="0.9615384615384616em" height="0.12143960019016511em" x="22.115384615384617em" y="29.878560399809835em" fill="#aaa"/><rect width="0.9615384615384616em" height="7.362923292614837em" x="23.076923076923077em" y="22.637076707385162em" fill="#aaa"/><rect width="0.9615384615384616em" height="1.6217809782197932em" x="24.03846153846154em" y="28.378219021780207em" fill="#aaa"/><rect width="0.9615384615384616em" height="1.5035282835968808em" x="25em" y="28.496471716403118em" fill="#aaa"/><rect width="0.9615384615384616em" height="1.850414862787035em" x="25.961538461538463em" y="28.149585137212966em" fill="#aaa"/><rect width="0.9615384615384616em" height="1.986959782434479em" x="26.923076923076923em" y="28.01304021756552em" fill="#aaa"/><rect width="0.9615384615384616em" height="0.8088029483666198em" x="27.884615384615387em" y="29.19119705163338em" fill="#aaa"/><rect width="0.9615384615384616em" height="2.276430984390656em" x="28.846153846153847em" y="27.723569015609343em" fill="#aaa"/><rect width="0.9615384615384616em" height="2.473916186525529em" x="29.80769230769231em" y="27.52608381347447em" fill="#aaa"/><rect width="0.9615384615384616em" height="1.4869359964581341em" x="30.76923076923077em" y="28.513064003541867em" fill="#aaa"/><rect width="0.9615384615384616em" height="3.3838076262488515em" x="31.73076923076923em" y="26.616192373751147em" fill="#aaa"/><rect width="0.9615384615384616em" height="6.144881260901353em" x="32.69230769230769em" y="23.855118739098646em" fill="#aaa"/><rect width="0.9615384615384616em" height="4.163674723778475em" x="33.65384615384615em" y="25.836325276221526em" fill="#aaa"/><rect width="0.9615384615384616em" height="13.902333652365591em" x="34.61538461538461em" y="16.09766634763441em" fill="#aaa"/><rect width="0.9615384615384616em" height="6.43388670101843em" x="35.57692307692308em" y="23.56611329898157em" fill="#aaa"/><rect width="0.9615384615384616em" height="7.215309597366495em" x="36.53846153846154em" y="22.784690402633505em" fill="#aaa"/><rect width="0.9615384615384616em" height="1.4105612788835238em" x="37.5em" y="28.589438721116476em" fill="#aaa"/><rect width="0.9615384615384616em" height="9.585233730951057em" x="38.46153846153846em" y="20.414766269048943em" fill="#aaa"/><rect width="0.9615384615384616em" height="6.287076794563779em" x="39.42307692307693em" y="23.71292320543622em" fill="#aaa"/><rect width="0.9615384615384616em" height="2.622234717277753em" x="40.38461538461539em" y="27.377765282722248em" fill="#aaa"/><rect width="0.9615384615384616em" height="5.360368466267546em" x="41.34615384615385em" y="24.639631533732455em" fill="#aaa"/><rect width="0.9615384615384616em" height="2.6608499799083973em" x="42.30769230769231em" y="27.3391500200916em" fill="#aaa"/><rect width="0.9615384615384616em" height="2.1041731755890973em" x="43.269230769230774em" y="27.895826824410904em" fill="#aaa"/><rect width="0.9615384615384616em" height="9.455540761709553em" x="44.23076923076923em" y="20.544459238290447em" fill="#aaa"/><rect width="0.9615384615384616em" height="3.7274792072016em" x="45.19230769230769em" y="26.2725207927984em" fill="#aaa"/><rect width="0.9615384615384616em" height="5.76972474115469em" x="46.15384615384615em" y="24.23027525884531em" fill="#aaa"/><rect width="0.9615384615384616em" height="9.435165410506295em" x="47.11538461538461em" y="20.564834589493707em" fill="#aaa"/><rect width="0.9615384615384616em" height="3.4142579787873895em" x="48.07692307692308em" y="26.58574202121261em" fill="#aaa"/><rect width="0.9615384615384616em" height="7.22885088445647em" x="49.03846153846154em" y="22.77114911554353em" fill="#aaa"/><rect width="0.9615384615384616em" height="4.779197637060485em" x="50em" y="25.220802362939516em" fill="#aaa"/><rect width="0.9615384615384616em" height="5.310813234015487em" x="50.96153846153846em" y="24.689186765984513em" fill="#aaa"/><rect width="0.9615384615384616em" height="2.812540588392857em" x="51.92307692307693em" y="27.187459411607144em" fill="#aaa"/><rect width="0.9615384615384616em" height="17.007626417911286em" x="52.88461538461539em" y="12.992373582088714em" fill="#aaa"/><rect width="0.9615384615384616em" height="19.66866251262086em" x="53.84615384615385em" y="10.331337487379141em" fill="#aaa"/><rect width="0.9615384615384616em" height="8.664270810108917em" x="54.80769230769231em" y="21.335729189891083em" fill="#aaa"/><rect width="0.9615384615384616em" height="9.627796178488525em" x="55.769230769230774em" y="20.372203821511476em" fill="#aaa"/><rect width="0.9615384615384616em" height="7.798045770079726em" x="56.73076923076923em" y="22.201954229920275em" fill="#aaa"/><rect width="0.9615384615384616em" height="2.013351860236851em" x="57.69230769230769em" y="27.986648139763147em" fill="#aaa"/><rect width="0.9615384615384616em" height="1.3023659824592175em" x="58.65384615384615em" y="28.697634017540782em" fill="#aaa"/><rect width="0.9615384615384616em" height="10.863452516730197em" x="59.61538461538462em" y="19.1365474832698em" fill="#aaa"/><rect width="0.9615384615384616em" height="5.406622161996532em" x="60.57692307692308em" y="24.59337783800347em" fill="#aaa"/><rect width="0.9615384615384616em" height="4.756657531922153em" x="61.53846153846154em" y="25.24334246807785em" fill="#aaa"/><rect width="0.9615384615384616em" height="3.095072355970595em" x="62.5em" y="26.904927644029407em" fill="#aaa"/><rect width="0.9615384615384616em" height="1.426516608332788em" x="63.46153846153846em" y="28.57348339166721em" fill="#aaa"/><rect width="0.9615384615384616em" height="3.0550180948310803em" x="64.42307692307692em" y="26.94498190516892em" fill="#aaa"/><rect width="0.9615384615384616em" height="4.534936025895055em" x="65.38461538461539em" y="25.465063974104943em" fill="#aaa"/><rect width="0.9615384615384616em" height="0.6859295390596533em" x="66.34615384615385em" y="29.314070460940346em" fill="#aaa"/><rect width="0.9615384615384616em" height="4.675287187570272em" x="67.3076923076923em" y="25.324712812429727em" fill="#aaa"/><rect width="0.9615384615384616em" height="17.722960199545433em" x="68.26923076923077em" y="12.277039800454567em" fill="#aaa"/><rect width="0.9615384615384616em" height="30em" x="69.23076923076923em" y="0em" fill="#aaa"/><rect width="0.9615384615384616em" height="18.612057081967624em" x="70.1923076923077em" y="11.387942918032376em" fill="#aaa"/><rect width="0.9615384615384616em" height="15.602184089849908em" x="71.15384615384616em" y="14.397815910150092em" fill="#aaa"/><rect width="0.9615384615384616em" height="12.590044514730142em" x="72.11538461538461em" y="17.409955485269858em" fill="#aaa"/><rect width="0.9615384615384616em" height="9.963965483820507em" x="73.07692307692308em" y="20.03603451617949em" fill="#aaa"/><rect width="0.9615384615384616em" height="7.182944574102832em" x="74.03846153846155em" y="22.817055425897166em" fill="#aaa"/><rect width="0.9615384615384616em" height="4.921767390684888em" x="75em" y="25.078232609315112em" fill="#aaa"/><rect width="0.9615384615384616em" height="6.772241978041876em" x="75.96153846153847em" y="23.227758021958124em" fill="#aaa"/><rect width="0.9615384615384616em" height="2.4657703930793295em" x="76.92307692307692em" y="27.534229606920672em" fill="#aaa"/><rect width="0.9615384615384616em" height="3.1138464332753326em" x="77.88461538461539em" y="26.886153566724666em" fill="#aaa"/><rect width="0.9615384615384616em" height="2.4469586543191557em" x="78.84615384615385em" y="27.553041345680846em" fill="#aaa"/><rect width="0.9615384615384616em" height="2.534187818076803em" x="79.8076923076923em" y="27.465812181923198em" fill="#aaa"/><rect width="0.9615384615384616em" height="6.719082524266853em" x="80.76923076923077em" y="23.280917475733148em" fill="#aaa"/><rect width="0.9615384615384616em" height="6.58289111875606em" x="81.73076923076923em" y="23.41710888124394em" fill="#aaa"/><rect width="0.9615384615384616em" height="7.192363949700903em" x="82.6923076923077em" y="22.807636050299095em" fill="#aaa"/><rect width="0.9615384615384616em" height="1.4785501170619142em" x="83.65384615384616em" y="28.521449882938086em" fill="#aaa"/><rect width="0.9615384615384616em" height="2.7062497680246014em" x="84.61538461538461em" y="27.293750231975398em" fill="#aaa"/><rect width="0.9615384615384616em" height="1.417770993982654em" x="85.57692307692308em" y="28.582229006017347em" fill="#aaa"/><rect width="0.9615384615384616em" height="10.419359326392962em" x="86.53846153846155em" y="19.580640673607036em" fill="#aaa"/><rect width="0.9615384615384616em" height="10.525930021909364em" x="87.5em" y="19.474069978090636em" fill="#aaa"/><rect width="0.9615384615384616em" height="14.391894876924331em" x="88.46153846153847em" y="15.608105123075669em" fill="#aaa"/><rect width="0.9615384615384616em" height="4.744902437672886em" x="89.42307692307692em" y="25.255097562327116em" fill="#aaa"/><rect width="0.9615384615384616em" height="4.68331975338143em" x="90.38461538461539em" y="25.31668024661857em" fill="#aaa"/><rect width="0.9615384615384616em" height="2.2498140858313227em" x="91.34615384615385em" y="27.75018591416868em" fill="#aaa"/><rect width="0.9615384615384616em" height="2.5617033541099787em" x="92.3076923076923em" y="27.43829664589002em" fill="#aaa"/><rect width="0.9615384615384616em" height="2.715453091321307em" x="93.26923076923077em" y="27.284546908678692em" fill="#aaa"/><rect width="0.9615384615384616em" height="4.788919854070459em" x="94.23076923076923em" y="25.211080145929543em" fill="#aaa"/><rect width="0.9615384615384616em" height="4.1225478393446995em" x="95.1923076923077em" y="25.877452160655302em" fill="#aaa"/><rect width="0.9615384615384616em" height="1.8234702430444063em" x="96.15384615384616em" y="28.176529756955595em" fill="#aaa"/><rect width="0.9615384615384616em" height="3.3781157612272015em" x="97.11538461538461em" y="26.6218842387728em" fill="#aaa"/><rect width="0.9615384615384616em" height="2.098218693379167em" x="98.07692307692308em" y="27.901781306620833em" fill="#aaa"/><rect width="0.9615384615384616em" height="2.6394557942837156em" x="99.03846153846155em" y="27.360544205716284em" fill="#aaa"/></svg>