<?xml version="1.0" standalone="no"?>
<svg xmlns:xlink="http://www.w3.org/1999/xlink" xmlns="http://www.w3.org/2000/svg" class="topic-graph" style="width: 100em; height: 30em; text-align: center;"><rect width="0.9615384615384616em" height="0.09508684391037692em" x="0em" y="29.904913156089624em" fill="#aaa"/><rect width="0.9615384615384616em" height="3.8244859169932943em" x="0.9615384615384616em" y="26.175514083006707em" fill="#aaa"/><rect width="0.9615384615384616em" height="1.2260158355913495em" x="1.9230769230769231em" y="28.77398416440865em" fill="#aaa"/><rect width="0.9615384615384616em" height="1.0093438117829352em" x="2.8846153846153846em" y="28.990656188217066em" fill="#aaa"/><rect width="0.9615384615384616em" height="2.8302251162599705em" x="3.8461538461538463em" y="27.16977488374003em" fill="#aaa"/><rect width="0.9615384615384616em" height="0.10226883532891494em" x="4.8076923076923075em" y="29.897731164671086em" fill="#aaa"/><rect width="0.9615384615384616em" height="9.89803625953429em" x="5.769230769230769em" y="20.10196374046571em" fill="#aaa"/><rect width="0.9615384615384616em" height="1.0411984766202373em" x="6.730769230769231em" y="28.958801523379762em" fill="#aaa"/><rect width="0.9615384615384616em" height="1.1220179901927678em" x="7.6923076923076925em" y="28.877982009807234em" fill="#aaa"/><rect width="0.9615384615384616em" height="0.5462266966969376em" x="8.653846153846153em" y="29.453773303303063em" fill="#aaa"/><rect width="0.9615384615384616em" height="8.518287360091016em" x="9.615384615384615em" y="21.481712639908984em" fill="#aaa"/><rect width="0.9615384615384616em" height="5.626229574886156em" x="10.576923076923077em" y="24.373770425113843em" fill="#aaa"/><rect width="0.9615384615384616em" height="1.7178772360483032em" x="11.538461538461538em" y="28.282122763951698em" fill="#aaa"/><rect width="0.9615384615384616em" height="1.2288889764828697em" x="12.5em" y="28.77111102351713em" fill="#aaa"/><rect width="0.9615384615384616em" height="1.4778595493915687em" x="13.461538461538462em" y="28.522140450608433em" fill="#aaa"/><rect width="0.9615384615384616em" height="12.456547055082424em" x="14.423076923076923em" y="17.543452944917576em" fill="#aaa"/><rect width="0.9615384615384616em" height="6.402829277667203em" x="15.384615384615385em" y="23.597170722332798em" fill="#aaa"/><rect width="0.9615384615384616em" height="5.760431306510142em" x="16.346153846153847em" y="24.239568693489858em" fill="#aaa"/><rect width="0.9615384615384616em" height="1.0331016870011007em" x="17.307692307692307em" y="28.9668983129989em" fill="#aaa"/><rect width="0.9615384615384616em" height="0.7137492433939019em" x="18.26923076923077em" y="29.286250756606098em" fill="#aaa"/><rect width="0.9615384615384616em" height="0.22392722476657473em" x="19.23076923076923em" y="29.776072775233427em" fill="#aaa"/><rect width="0.9615384615384616em" height="1.438983683860656em" x="20.192307692307693em" y="28.561016316139344em" fill="#aaa"/><rect width="0.9615384615384616em" height="5.595929137997065em" x="21.153846153846153em" y="24.404070862002936em" fill="#aaa"/><rect width="0.9615384615384616em" height="14.55775272257833em" x="22.115384615384617em" y="15.44224727742167em" fill="#aaa"/><rect width="0.9615384615384616em" height="12.164151919145258em" x="23.076923076923077em" y="17.835848080854742em" fill="#aaa"/><rect width="0.9615384615384616em" height="4.289180836352555em" x="24.03846153846154em" y="25.710819163647443em" fill="#aaa"/><rect width="0.9615384615384616em" height="5.816859331710399em" x="25em" y="24.183140668289603em" fill="#aaa"/><rect width="0.9615384615384616em" height="5.131535979001013em" x="25.961538461538463em" y="24.868464020998985em" fill="#aaa"/><rect width="0.9615384615384616em" height="16.7426890835461em" x="26.923076923076923em" y="13.2573109164539em" fill="#aaa"/><rect width="0.9615384615384616em" height="17.97515430554141em" x="27.884615384615387em" y="12.024845694458591em" fill="#aaa"/><rect width="0.9615384615384616em" height="7.528383785162575em" x="28.846153846153847em" y="22.471616214837425em" fill="#aaa"/><rect width="0.9615384615384616em" height="6.263703210570189em" x="29.80769230769231em" y="23.73629678942981em" fill="#aaa"/><rect width="0.9615384615384616em" height="3.8384913842871247em" x="30.76923076923077em" y="26.161508615712876em" fill="#aaa"/><rect width="0.9615384615384616em" height="0.9399225814212158em" x="31.73076923076923em" y="29.060077418578786em" fill="#aaa"/><rect width="0.9615384615384616em" height="0.4665117800188618em" x="32.69230769230769em" y="29.533488219981137em" fill="#aaa"/><rect width="0.9615384615384616em" height="3.732750946160555em" x="33.65384615384615em" y="26.267249053839446em" fill="#aaa"/><rect width="0.9615384615384616em" height="8.072533305048808em" x="34.61538461538461em" y="21.927466694951192em" fill="#aaa"/><rect width="0.9615384615384616em" height="17.265129127487995em" x="35.57692307692308em" y="12.734870872512005em" fill="#aaa"/><rect width="0.9615384615384616em" height="4.770232745541898em" x="36.53846153846154em" y="25.229767254458103em" fill="#aaa"/><rect width="0.9615384615384616em" height="5.819931267719961em" x="37.5em" y="24.180068732280038em" fill="#aaa"/><rect width="0.9615384615384616em" height="0.2013995511360657em" x="38.46153846153846em" y="29.798600448863933em" fill="#aaa"/><rect width="0.9615384615384616em" height="1.763378677056261em" x="39.42307692307693em" y="28.23662132294374em" fill="#aaa"/><rect width="0.9615384615384616em" height="1.7012272528828016em" x="40.38461538461539em" y="28.298772747117198em" fill="#aaa"/><rect width="0.9615384615384616em" height="18.22391532722081em" x="41.34615384615385em" y="11.776084672779191em" fill="#aaa"/><rect width="0.9615384615384616em" height="4.618563433535872em" x="42.30769230769231em" y="25.381436566464128em" fill="#aaa"/><rect width="0.9615384615384616em" height="0.684725430760677em" x="43.269230769230774em" y="29.315274569239325em" fill="#aaa"/><rect width="0.9615384615384616em" height="2.909669659622815em" x="44.23076923076923em" y="27.090330340377186em" fill="#aaa"/><rect width="0.9615384615384616em" height="14.172414580985901em" x="45.19230769230769em" y="15.827585419014099em" fill="#aaa"/><rect width="0.9615384615384616em" height="30em" x="46.15384615384615em" y="0em" fill="#aaa"/><rect width="0.9615384615384616em" height="9.08185484481981em" x="47.11538461538461em" y="20.91814515518019em" fill="#aaa"/><rect width="0.9615384615384616em" height="1.1072257371597518em" x="48.07692307692308em" y="28.89277426284025em" fill="#aaa"/><rect width="0.9615384615384616em" height="1.0832526991590443em" x="49.03846153846154em" y="28.916747300840957em" fill="#aaa"/><rect width="0.9615384615384616em" height="2.6087665547109293em" x="50em" y="27.39123344528907em" fill="#aaa"/><rect width="0.9615384615384616em" height="7.680631423685093em" x="50.96153846153846em" y="22.319368576314908em" fill="#aaa"/><rect width="0.9615384615384616em" height="7.796526665634711em" x="51.92307692307693em" y="22.203473334365288em" fill="#aaa"/><rect width="0.9615384615384616em" height="8.038174997002356em" x="52.88461538461539em" y="21.961825002997642em" fill="#aaa"/><rect width="0.9615384615384616em" height="2.3923046726646504em" x="53.84615384615385em" y="27.60769532733535em" fill="#aaa"/><rect width="0.9615384615384616em" height="1.6920931441567029em" x="54.80769230769231em" y="28.307906855843296em" fill="#aaa"/><rect width="0.9615384615384616em" height="3.4173812987374035em" x="55.769230769230774em" y="26.582618701262597em" fill="#aaa"/><rect width="0.9615384615384616em" height="2.2584970457840137em" x="56.73076923076923em" y="27.741502954215985em" fill="#aaa"/><rect width="0.9615384615384616em" height="0.398825955011208em" x="57.69230769230769em" y="29.60117404498879em" fill="#aaa"/><rect width="0.9615384615384616em" height="7.468748616511315em" x="58.65384615384615em" y="22.531251383488687em" fill="#aaa"/><rect width="0.9615384615384616em" height="4.271108298265584em" x="59.61538461538462em" y="25.728891701734415em" fill="#aaa"/><rect width="0.9615384615384616em" height="6.014919118056726em" x="60.57692307692308em" y="23.985080881943276em" fill="#aaa"/><rect width="0.9615384615384616em" height="10.093324050687144em" x="61.53846153846154em" y="19.906675949312856em" fill="#aaa"/><rect width="0.9615384615384616em" height="4.917534665379385em" x="62.5em" y="25.082465334620615em" fill="#aaa"/><rect width="0.9615384615384616em" height="2.3970360435393614em" x="63.46153846153846em" y="27.602963956460638em" fill="#aaa"/><rect width="0.9615384615384616em" height="2.2555753494580157em" x="64.42307692307692em" y="27.744424650541983em" fill="#aaa"/><rect width="0.9615384615384616em" height="0.8556363110081111em" x="65.38461538461539em" y="29.144363688991888em" fill="#aaa"/><rect width="0.9615384615384616em" height="4.384075115555394em" x="66.34615384615385em" y="25.615924884444606em" fill="#aaa"/><rect width="0.9615384615384616em" height="1.7240394001340225em" x="67.3076923076923em" y="28.27596059986598em" fill="#aaa"/><rect width="0.9615384615384616em" height="1.623784847692376em" x="68.26923076923077em" y="28.376215152307623em" fill="#aaa"/><rect width="0.9615384615384616em" height="0.43358941621634806em" x="69.23076923076923em" y="29.56641058378365em" fill="#aaa"/><rect width="0.9615384615384616em" height="0.6008439780165208em" x="70.1923076923077em" y="29.39915602198348em" fill="#aaa"/><rect width="0.9615384615384616em" height="0.6383849763256302em" x="71.15384615384616em" y="29.36161502367437em" fill="#aaa"/><rect width="0.9615384615384616em" height="6.231181742693839em" x="72.11538461538461em" y="23.76881825730616em" fill="#aaa"/><rect width="0.9615384615384616em" height="2.8994916903408607em" x="73.07692307692308em" y="27.10050830965914em" fill="#aaa"/><rect width="0.9615384615384616em" height="3.1397904693935046em" x="74.03846153846155em" y="26.860209530606497em" fill="#aaa"/><rect width="0.9615384615384616em" height="4.289982808028922em" x="75em" y="25.710017191971076em" fill="#aaa"/><rect width="0.9615384615384616em" height="1.3029620420880486em" x="75.96153846153847em" y="28.697037957911952em" fill="#aaa"/><rect width="0.9615384615384616em" height="2.7848955078634976em" x="76.92307692307692em" y="27.215104492136504em" fill="#aaa"/><rect width="0.9615384615384616em" height="1.5268701842626893em" x="77.88461538461539em" y="28.47312981573731em" fill="#aaa"/><rect width="0.9615384615384616em" height="0.5669660790011721em" x="78.84615384615385em" y="29.433033920998827em" fill="#aaa"/><rect width="0.9615384615384616em" height="0.7902768803311727em" x="79.8076923076923em" y="29.209723119668826em" fill="#aaa"/><rect width="0.9615384615384616em" height="0.8131206281089702em" x="80.76923076923077em" y="29.18687937189103em" fill="#aaa"/><rect width="0.9615384615384616em" height="1.0368588490743431em" x="81.73076923076923em" y="28.963141150925658em" fill="#aaa"/><rect width="0.9615384615384616em" height="0.9898693198940942em" x="82.6923076923077em" y="29.010130680105906em" fill="#aaa"/><rect width="0.9615384615384616em" height="0.9219767411272958em" x="83.65384615384616em" y="29.078023258872705em" fill="#aaa"/><rect width="0.9615384615384616em" height="0.39549219405760133em" x="84.61538461538461em" y="29.604507805942397em" fill="#aaa"/><rect width="0.9615384615384616em" height="0.48229694519222244em" x="85.57692307692308em" y="29.51770305480778em" fill="#aaa"/><rect width="0.9615384615384616em" height="0.8493790070579691em" x="86.53846153846155em" y="29.15062099294203em" fill="#aaa"/><rect width="0.9615384615384616em" height="0.49915470339323786em" x="87.5em" y="29.500845296606762em" fill="#aaa"/><rect width="0.9615384615384616em" height="0.4168733110771912em" x="88.46153846153847em" y="29.58312668892281em" fill="#aaa"/><rect width="0.9615384615384616em" height="0.6307333268897262em" x="89.42307692307692em" y="29.369266673110275em" fill="#aaa"/><rect width="0.9615384615384616em" height="0.49530825878736806em" x="90.38461538461539em" y="29.504691741212632em" fill="#aaa"/><rect width="0.9615384615384616em" height="0.575659552943911em" x="91.34615384615385em" y="29.42434044705609em" fill="#aaa"/><rect width="0.9615384615384616em" height="1.251036000566224em" x="92.3076923076923em" y="28.748963999433776em" fill="#aaa"/><rect width="0.9615384615384616em" height="0.5107595030268218em" x="93.26923076923077em" y="29.489240496973178em" fill="#aaa"/><rect width="0.9615384615384616em" height="0.8180543938470954em" x="94.23076923076923em" y="29.181945606152905em" fill="#aaa"/><rect width="0.9615384615384616em" height="0.4454927157725416em" x="95.1923076923077em" y="29.55450728422746em" fill="#aaa"/><rect width="0.9615384615384616em" height="0.8160374415051156em" x="96.15384615384616em" y="29.183962558494883em" fill="#aaa"/><rect width="0.9615384615384616em" height="1.1377914246622467em" x="97.11538461538461em" y="28.862208575337753em" fill="#aaa"/><rect width="0.9615384615384616em" height="1.0049790886032033em" x="98.07692307692308em" y="28.995020911396796em" fill="#aaa"/><rect width="0.9615384615384616em" height="0.5679276339386532em" x="99.03846153846155em" y="29.432072366061348em" fill="#aaa"/></svg>