<?xml version="1.0" standalone="no"?>
<svg xmlns:xlink="http://www.w3.org/1999/xlink" xmlns="http://www.w3.org/2000/svg" class="topic-graph" style="width: 100em; height: 30em; text-align: center;"><rect width="0.9615384615384616em" height="7.516164518853532em" x="0em" y="22.483835481146468em" fill="#aaa"/><rect width="0.9615384615384616em" height="19.529310557861276em" x="0.9615384615384616em" y="10.470689442138724em" fill="#aaa"/><rect width="0.9615384615384616em" height="0.4610092638334478em" x="1.9230769230769231em" y="29.538990736166554em" fill="#aaa"/><rect width="0.9615384615384616em" height="1.7798863259916664em" x="2.8846153846153846em" y="28.220113674008335em" fill="#aaa"/><rect width="0.9615384615384616em" height="3.0971899555898603em" x="3.8461538461538463em" y="26.90281004441014em" fill="#aaa"/><rect width="0.9615384615384616em" height="1.2719993531513345em" x="4.8076923076923075em" y="28.728000646848667em" fill="#aaa"/><rect width="0.9615384615384616em" height="5.154936552018283em" x="5.769230769230769em" y="24.845063447981715em" fill="#aaa"/><rect width="0.9615384615384616em" height="0.6378779399928871em" x="6.730769230769231em" y="29.362122060007113em" fill="#aaa"/><rect width="0.9615384615384616em" height="6.536157247618546em" x="7.6923076923076925em" y="23.463842752381453em" fill="#aaa"/><rect width="0.9615384615384616em" height="0.5604226619487412em" x="8.653846153846153em" y="29.439577338051258em" fill="#aaa"/><rect width="0.9615384615384616em" height="2.171484859972092em" x="9.615384615384615em" y="27.828515140027907em" fill="#aaa"/><rect width="0.9615384615384616em" height="1.9686984925718116em" x="10.576923076923077em" y="28.03130150742819em" fill="#aaa"/><rect width="0.9615384615384616em" height="1.6385938421412192em" x="11.538461538461538em" y="28.36140615785878em" fill="#aaa"/><rect width="0.9615384615384616em" height="5.861163793059323em" x="12.5em" y="24.138836206940677em" fill="#aaa"/><rect width="0.9615384615384616em" height="1.3832412611163538em" x="13.461538461538462em" y="28.616758738883647em" fill="#aaa"/><rect width="0.9615384615384616em" height="2.008750227848743em" x="14.423076923076923em" y="27.991249772151257em" fill="#aaa"/><rect width="0.9615384615384616em" height="1.6629595861853845em" x="15.384615384615385em" y="28.337040413814616em" fill="#aaa"/><rect width="0.9615384615384616em" height="2.0286542948469046em" x="16.346153846153847em" y="27.971345705153094em" fill="#aaa"/><rect width="0.9615384615384616em" height="3.774916891410372em" x="17.307692307692307em" y="26.22508310858963em" fill="#aaa"/><rect width="0.9615384615384616em" height="7.702701258946666em" x="18.26923076923077em" y="22.297298741053332em" fill="#aaa"/><rect width="0.9615384615384616em" height="4.632118097391683em" x="19.23076923076923em" y="25.367881902608318em" fill="#aaa"/><rect width="0.9615384615384616em" height="2.0857098463862283em" x="20.192307692307693em" y="27.91429015361377em" fill="#aaa"/><rect width="0.9615384615384616em" height="3.4150125291159643em" x="21.153846153846153em" y="26.584987470884037em" fill="#aaa"/><rect width="0.9615384615384616em" height="0.5799622588185418em" x="22.115384615384617em" y="29.42003774118146em" fill="#aaa"/><rect width="0.9615384615384616em" height="5.138770919435007em" x="23.076923076923077em" y="24.861229080564993em" fill="#aaa"/><rect width="0.9615384615384616em" height="13.268577413127721em" x="24.03846153846154em" y="16.731422586872277em" fill="#aaa"/><rect width="0.9615384615384616em" height="5.2447991484581165em" x="25em" y="24.755200851541883em" fill="#aaa"/><rect width="0.9615384615384616em" height="5.085532825811602em" x="25.961538461538463em" y="24.9144671741884em" fill="#aaa"/><rect width="0.9615384615384616em" height="6.166463271115876em" x="26.923076923076923em" y="23.833536728884123em" fill="#aaa"/><rect width="0.9615384615384616em" height="13.413472762490343em" x="27.884615384615387em" y="16.586527237509657em" fill="#aaa"/><rect width="0.9615384615384616em" height="9.975245597189682em" x="28.846153846153847em" y="20.024754402810316em" fill="#aaa"/><rect width="0.9615384615384616em" height="6.683617883563802em" x="29.80769230769231em" y="23.3163821164362em" fill="#aaa"/><rect width="0.9615384615384616em" height="5.042256393505207em" x="30.76923076923077em" y="24.957743606494795em" fill="#aaa"/><rect width="0.9615384615384616em" height="7.270562410019561em" x="31.73076923076923em" y="22.72943758998044em" fill="#aaa"/><rect width="0.9615384615384616em" height="3.4104534974158662em" x="32.69230769230769em" y="26.589546502584135em" fill="#aaa"/><rect width="0.9615384615384616em" height="9.236665075661014em" x="33.65384615384615em" y="20.763334924338984em" fill="#aaa"/><rect width="0.9615384615384616em" height="3.1129068913371825em" x="34.61538461538461em" y="26.887093108662818em" fill="#aaa"/><rect width="0.9615384615384616em" height="4.674017189948765em" x="35.57692307692308em" y="25.325982810051237em" fill="#aaa"/><rect width="0.9615384615384616em" height="5.501978629000417em" x="36.53846153846154em" y="24.49802137099958em" fill="#aaa"/><rect width="0.9615384615384616em" height="1.2790013740387802em" x="37.5em" y="28.72099862596122em" fill="#aaa"/><rect width="0.9615384615384616em" height="7.2455431508661245em" x="38.46153846153846em" y="22.754456849133874em" fill="#aaa"/><rect width="0.9615384615384616em" height="7.161824635810438em" x="39.42307692307693em" y="22.83817536418956em" fill="#aaa"/><rect width="0.9615384615384616em" height="2.990854093876306em" x="40.38461538461539em" y="27.009145906123695em" fill="#aaa"/><rect width="0.9615384615384616em" height="8.422678347237772em" x="41.34615384615385em" y="21.57732165276223em" fill="#aaa"/><rect width="0.9615384615384616em" height="2.969707444749385em" x="42.30769230769231em" y="27.030292555250615em" fill="#aaa"/><rect width="0.9615384615384616em" height="0.8835355578085794em" x="43.269230769230774em" y="29.116464442191422em" fill="#aaa"/><rect width="0.9615384615384616em" height="5.301073696070453em" x="44.23076923076923em" y="24.698926303929547em" fill="#aaa"/><rect width="0.9615384615384616em" height="3.542809114971881em" x="45.19230769230769em" y="26.45719088502812em" fill="#aaa"/><rect width="0.9615384615384616em" height="9.001282218135158em" x="46.15384615384615em" y="20.99871778186484em" fill="#aaa"/><rect width="0.9615384615384616em" height="2.469250346469131em" x="47.11538461538461em" y="27.53074965353087em" fill="#aaa"/><rect width="0.9615384615384616em" height="9.209076073274241em" x="48.07692307692308em" y="20.79092392672576em" fill="#aaa"/><rect width="0.9615384615384616em" height="2.26578525833708em" x="49.03846153846154em" y="27.73421474166292em" fill="#aaa"/><rect width="0.9615384615384616em" height="4.063396102262641em" x="50em" y="25.93660389773736em" fill="#aaa"/><rect width="0.9615384615384616em" height="8.907565160364612em" x="50.96153846153846em" y="21.092434839635388em" fill="#aaa"/><rect width="0.9615384615384616em" height="3.078709495604438em" x="51.92307692307693em" y="26.92129050439556em" fill="#aaa"/><rect width="0.9615384615384616em" height="14.738870540209405em" x="52.88461538461539em" y="15.261129459790595em" fill="#aaa"/><rect width="0.9615384615384616em" height="13.75384819361951em" x="53.84615384615385em" y="16.24615180638049em" fill="#aaa"/><rect width="0.9615384615384616em" height="17.6593944570078em" x="54.80769230769231em" y="12.3406055429922em" fill="#aaa"/><rect width="0.9615384615384616em" height="6.706004018453131em" x="55.769230769230774em" y="23.29399598154687em" fill="#aaa"/><rect width="0.9615384615384616em" height="16.797971015723277em" x="56.73076923076923em" y="13.202028984276723em" fill="#aaa"/><rect width="0.9615384615384616em" height="10.329207878110267em" x="57.69230769230769em" y="19.670792121889733em" fill="#aaa"/><rect width="0.9615384615384616em" height="6.1959278332747125em" x="58.65384615384615em" y="23.804072166725287em" fill="#aaa"/><rect width="0.9615384615384616em" height="5.686054772826223em" x="59.61538461538462em" y="24.313945227173775em" fill="#aaa"/><rect width="0.9615384615384616em" height="4.80197052032392em" x="60.57692307692308em" y="25.19802947967608em" fill="#aaa"/><rect width="0.9615384615384616em" height="14.90026351269865em" x="61.53846153846154em" y="15.09973648730135em" fill="#aaa"/><rect width="0.9615384615384616em" height="12.77438502768873em" x="62.5em" y="17.22561497231127em" fill="#aaa"/><rect width="0.9615384615384616em" height="24.657303731225685em" x="63.46153846153846em" y="5.342696268774315em" fill="#aaa"/><rect width="0.9615384615384616em" height="23.902574228878255em" x="64.42307692307692em" y="6.097425771121745em" fill="#aaa"/><rect width="0.9615384615384616em" height="10.461258424411938em" x="65.38461538461539em" y="19.538741575588062em" fill="#aaa"/><rect width="0.9615384615384616em" height="28.98568549452502em" x="66.34615384615385em" y="1.0143145054749816em" fill="#aaa"/><rect width="0.9615384615384616em" height="18.435240350908558em" x="67.3076923076923em" y="11.564759649091442em" fill="#aaa"/><rect width="0.9615384615384616em" height="21.33156698699086em" x="68.26923076923077em" y="8.668433013009139em" fill="#aaa"/><rect width="0.9615384615384616em" height="20.718427621962913em" x="69.23076923076923em" y="9.281572378037087em" fill="#aaa"/><rect width="0.9615384615384616em" height="15.479519033549265em" x="70.1923076923077em" y="14.520480966450735em" fill="#aaa"/><rect width="0.9615384615384616em" height="19.89143405844441em" x="71.15384615384616em" y="10.10856594155559em" fill="#aaa"/><rect width="0.9615384615384616em" height="17.932638558170126em" x="72.11538461538461em" y="12.067361441829874em" fill="#aaa"/><rect width="0.9615384615384616em" height="13.17771881309253em" x="73.07692307692308em" y="16.822281186907468em" fill="#aaa"/><rect width="0.9615384615384616em" height="20.705749501203407em" x="74.03846153846155em" y="9.294250498796593em" fill="#aaa"/><rect width="0.9615384615384616em" height="16.268613699591295em" x="75em" y="13.731386300408705em" fill="#aaa"/><rect width="0.9615384615384616em" height="15.208573715850417em" x="75.96153846153847em" y="14.791426284149583em" fill="#aaa"/><rect width="0.9615384615384616em" height="17.18204671350561em" x="76.92307692307692em" y="12.81795328649439em" fill="#aaa"/><rect width="0.9615384615384616em" height="14.540303732869026em" x="77.88461538461539em" y="15.459696267130974em" fill="#aaa"/><rect width="0.9615384615384616em" height="10.719529943342904em" x="78.84615384615385em" y="19.280470056657094em" fill="#aaa"/><rect width="0.9615384615384616em" height="18.359570417187136em" x="79.8076923076923em" y="11.640429582812864em" fill="#aaa"/><rect width="0.9615384615384616em" height="12.267566992693801em" x="80.76923076923077em" y="17.7324330073062em" fill="#aaa"/><rect width="0.9615384615384616em" height="25.49405291392819em" x="81.73076923076923em" y="4.50594708607181em" fill="#aaa"/><rect width="0.9615384615384616em" height="30em" x="82.6923076923077em" y="0em" fill="#aaa"/><rect width="0.9615384615384616em" height="9.810009586151779em" x="83.65384615384616em" y="20.18999041384822em" fill="#aaa"/><rect width="0.9615384615384616em" height="24.48344478253319em" x="84.61538461538461em" y="5.516555217466809em" fill="#aaa"/><rect width="0.9615384615384616em" height="20.706011521981992em" x="85.57692307692308em" y="9.293988478018008em" fill="#aaa"/><rect width="0.9615384615384616em" height="15.869746354590012em" x="86.53846153846155em" y="14.130253645409988em" fill="#aaa"/><rect width="0.9615384615384616em" height="17.847143536417448em" x="87.5em" y="12.152856463582552em" fill="#aaa"/><rect width="0.9615384615384616em" height="12.367743194070052em" x="88.46153846153847em" y="17.63225680592995em" fill="#aaa"/><rect width="0.9615384615384616em" height="11.929243076883115em" x="89.42307692307692em" y="18.070756923116885em" fill="#aaa"/><rect width="0.9615384615384616em" height="14.981365139495477em" x="90.38461538461539em" y="15.018634860504523em" fill="#aaa"/><rect width="0.9615384615384616em" height="10.854008299362015em" x="91.34615384615385em" y="19.145991700637985em" fill="#aaa"/><rect width="0.9615384615384616em" height="23.03971797293399em" x="92.3076923076923em" y="6.960282027066011em" fill="#aaa"/><rect width="0.9615384615384616em" height="12.445992535643567em" x="93.26923076923077em" y="17.55400746435643em" fill="#aaa"/><rect width="0.9615384615384616em" height="8.931883659043601em" x="94.23076923076923em" y="21.0681163409564em" fill="#aaa"/><rect width="0.9615384615384616em" height="16.001561155320633em" x="95.1923076923077em" y="13.998438844679367em" fill="#aaa"/><rect width="0.9615384615384616em" height="14.475253334768134em" x="96.15384615384616em" y="15.524746665231866em" fill="#aaa"/><rect width="0.9615384615384616em" height="12.20270297825593em" x="97.11538461538461em" y="17.797297021744072em" fill="#aaa"/><rect width="0.9615384615384616em" height="14.700078439050225em" x="98.07692307692308em" y="15.299921560949775em" fill="#aaa"/><rect width="0.9615384615384616em" height="20.181908214550635em" x="99.03846153846155em" y="9.818091785449365em" fill="#aaa"/></svg>