<?xml version="1.0" standalone="no"?>
<svg xmlns:xlink="http://www.w3.org/1999/xlink" xmlns="http://www.w3.org/2000/svg" class="topic-graph" style="width: 100em; height: 30em; text-align: center;"><rect width="0.9615384615384616em" height="0.6558945386334862em" x="0em" y="29.344105461366514em" fill="#aaa"/><rect width="0.9615384615384616em" height="24.018336329827264em" x="0.9615384615384616em" y="5.981663670172736em" fill="#aaa"/><rect width="0.9615384615384616em" height="4.128258411424473em" x="1.9230769230769231em" y="25.871741588575528em" fill="#aaa"/><rect width="0.9615384615384616em" height="3.0126424528049798em" x="2.8846153846153846em" y="26.98735754719502em" fill="#aaa"/><rect width="0.9615384615384616em" height="3.922640236572652em" x="3.8461538461538463em" y="26.07735976342735em" fill="#aaa"/><rect width="0.9615384615384616em" height="4.3205813868195735em" x="4.8076923076923075em" y="25.679418613180427em" fill="#aaa"/><rect width="0.9615384615384616em" height="9.14549818771505em" x="5.769230769230769em" y="20.85450181228495em" fill="#aaa"/><rect width="0.9615384615384616em" height="1.7680573577010248em" x="6.730769230769231em" y="28.231942642298975em" fill="#aaa"/><rect width="0.9615384615384616em" height="9.573397210787215em" x="7.6923076923076925em" y="20.426602789212787em" fill="#aaa"/><rect width="0.9615384615384616em" height="29.306368183461814em" x="8.653846153846153em" y="0.6936318165381863em" fill="#aaa"/><rect width="0.9615384615384616em" height="3.495029452603386em" x="9.615384615384615em" y="26.504970547396614em" fill="#aaa"/><rect width="0.9615384615384616em" height="2.7988974174780528em" x="10.576923076923077em" y="27.201102582521948em" fill="#aaa"/><rect width="0.9615384615384616em" height="3.5821708382121544em" x="11.538461538461538em" y="26.417829161787846em" fill="#aaa"/><rect width="0.9615384615384616em" height="3.640557362517638em" x="12.5em" y="26.359442637482363em" fill="#aaa"/><rect width="0.9615384615384616em" height="20.4886174421019em" x="13.461538461538462em" y="9.511382557898099em" fill="#aaa"/><rect width="0.9615384615384616em" height="8.958542115004503em" x="14.423076923076923em" y="21.041457884995495em" fill="#aaa"/><rect width="0.9615384615384616em" height="2.189698601312127em" x="15.384615384615385em" y="27.810301398687873em" fill="#aaa"/><rect width="0.9615384615384616em" height="6.579566128071361em" x="16.346153846153847em" y="23.420433871928637em" fill="#aaa"/><rect width="0.9615384615384616em" height="0.9831582121939901em" x="17.307692307692307em" y="29.01684178780601em" fill="#aaa"/><rect width="0.9615384615384616em" height="6.58051201590847em" x="18.26923076923077em" y="23.419487984091532em" fill="#aaa"/><rect width="0.9615384615384616em" height="10.807021484919927em" x="19.23076923076923em" y="19.19297851508007em" fill="#aaa"/><rect width="0.9615384615384616em" height="8.052642009751295em" x="20.192307692307693em" y="21.947357990248705em" fill="#aaa"/><rect width="0.9615384615384616em" height="2.3666169480846873em" x="21.153846153846153em" y="27.633383051915313em" fill="#aaa"/><rect width="0.9615384615384616em" height="3.1887604295196117em" x="22.115384615384617em" y="26.81123957048039em" fill="#aaa"/><rect width="0.9615384615384616em" height="13.854243808858637em" x="23.076923076923077em" y="16.145756191141363em" fill="#aaa"/><rect width="0.9615384615384616em" height="9.977228170242073em" x="24.03846153846154em" y="20.02277182975793em" fill="#aaa"/><rect width="0.9615384615384616em" height="7.004329705682118em" x="25em" y="22.995670294317883em" fill="#aaa"/><rect width="0.9615384615384616em" height="4.397513906685571em" x="25.961538461538463em" y="25.60248609331443em" fill="#aaa"/><rect width="0.9615384615384616em" height="9.942737024673844em" x="26.923076923076923em" y="20.057262975326154em" fill="#aaa"/><rect width="0.9615384615384616em" height="7.0113805447406365em" x="27.884615384615387em" y="22.988619455259364em" fill="#aaa"/><rect width="0.9615384615384616em" height="15.283963499984761em" x="28.846153846153847em" y="14.716036500015239em" fill="#aaa"/><rect width="0.9615384615384616em" height="18.87513273189466em" x="29.80769230769231em" y="11.12486726810534em" fill="#aaa"/><rect width="0.9615384615384616em" height="8.841183607609997em" x="30.76923076923077em" y="21.15881639239em" fill="#aaa"/><rect width="0.9615384615384616em" height="19.172514648995215em" x="31.73076923076923em" y="10.827485351004785em" fill="#aaa"/><rect width="0.9615384615384616em" height="2.659538786606626em" x="32.69230769230769em" y="27.340461213393375em" fill="#aaa"/><rect width="0.9615384615384616em" height="9.78281834841978em" x="33.65384615384615em" y="20.21718165158022em" fill="#aaa"/><rect width="0.9615384615384616em" height="8.066400351139096em" x="34.61538461538461em" y="21.933599648860906em" fill="#aaa"/><rect width="0.9615384615384616em" height="7.862039441201284em" x="35.57692307692308em" y="22.137960558798717em" fill="#aaa"/><rect width="0.9615384615384616em" height="14.160546704544803em" x="36.53846153846154em" y="15.839453295455197em" fill="#aaa"/><rect width="0.9615384615384616em" height="30em" x="37.5em" y="0em" fill="#aaa"/><rect width="0.9615384615384616em" height="7.789660229234217em" x="38.46153846153846em" y="22.210339770765785em" fill="#aaa"/><rect width="0.9615384615384616em" height="16.094946125533276em" x="39.42307692307693em" y="13.905053874466724em" fill="#aaa"/><rect width="0.9615384615384616em" height="8.794686736522827em" x="40.38461538461539em" y="21.205313263477173em" fill="#aaa"/><rect width="0.9615384615384616em" height="13.488308020050198em" x="41.34615384615385em" y="16.511691979949802em" fill="#aaa"/><rect width="0.9615384615384616em" height="7.499770563629125em" x="42.30769230769231em" y="22.500229436370873em" fill="#aaa"/><rect width="0.9615384615384616em" height="14.604447707548639em" x="43.269230769230774em" y="15.395552292451361em" fill="#aaa"/><rect width="0.9615384615384616em" height="8.9933211453107em" x="44.23076923076923em" y="21.006678854689298em" fill="#aaa"/><rect width="0.9615384615384616em" height="8.443837440952668em" x="45.19230769230769em" y="21.55616255904733em" fill="#aaa"/><rect width="0.9615384615384616em" height="17.985673840208964em" x="46.15384615384615em" y="12.014326159791036em" fill="#aaa"/><rect width="0.9615384615384616em" height="13.802121509028938em" x="47.11538461538461em" y="16.197878490971064em" fill="#aaa"/><rect width="0.9615384615384616em" height="12.119986489053892em" x="48.07692307692308em" y="17.880013510946107em" fill="#aaa"/><rect width="0.9615384615384616em" height="10.189395967386542em" x="49.03846153846154em" y="19.81060403261346em" fill="#aaa"/><rect width="0.9615384615384616em" height="23.355658211388267em" x="50em" y="6.644341788611733em" fill="#aaa"/><rect width="0.9615384615384616em" height="13.821310335403794em" x="50.96153846153846em" y="16.178689664596206em" fill="#aaa"/><rect width="0.9615384615384616em" height="15.087853094535252em" x="51.92307692307693em" y="14.912146905464748em" fill="#aaa"/><rect width="0.9615384615384616em" height="14.908783346405286em" x="52.88461538461539em" y="15.091216653594714em" fill="#aaa"/><rect width="0.9615384615384616em" height="11.613409624802163em" x="53.84615384615385em" y="18.386590375197837em" fill="#aaa"/><rect width="0.9615384615384616em" height="9.190167250385333em" x="54.80769230769231em" y="20.809832749614667em" fill="#aaa"/><rect width="0.9615384615384616em" height="15.385938087369665em" x="55.769230769230774em" y="14.614061912630335em" fill="#aaa"/><rect width="0.9615384615384616em" height="14.874512075691742em" x="56.73076923076923em" y="15.125487924308258em" fill="#aaa"/><rect width="0.9615384615384616em" height="12.696095369922906em" x="57.69230769230769em" y="17.303904630077092em" fill="#aaa"/><rect width="0.9615384615384616em" height="8.502057202850832em" x="58.65384615384615em" y="21.497942797149168em" fill="#aaa"/><rect width="0.9615384615384616em" height="15.059170588588508em" x="59.61538461538462em" y="14.940829411411492em" fill="#aaa"/><rect width="0.9615384615384616em" height="11.078385383709069em" x="60.57692307692308em" y="18.92161461629093em" fill="#aaa"/><rect width="0.9615384615384616em" height="12.735679921046192em" x="61.53846153846154em" y="17.26432007895381em" fill="#aaa"/><rect width="0.9615384615384616em" height="9.092605959541945em" x="62.5em" y="20.907394040458055em" fill="#aaa"/><rect width="0.9615384615384616em" height="11.252468718562069em" x="63.46153846153846em" y="18.74753128143793em" fill="#aaa"/><rect width="0.9615384615384616em" height="6.669144710106057em" x="64.42307692307692em" y="23.330855289893943em" fill="#aaa"/><rect width="0.9615384615384616em" height="3.55608625290575em" x="65.38461538461539em" y="26.44391374709425em" fill="#aaa"/><rect width="0.9615384615384616em" height="12.029611447299759em" x="66.34615384615385em" y="17.970388552700243em" fill="#aaa"/><rect width="0.9615384615384616em" height="4.722650615689564em" x="67.3076923076923em" y="25.277349384310437em" fill="#aaa"/><rect width="0.9615384615384616em" height="6.314845571385217em" x="68.26923076923077em" y="23.685154428614783em" fill="#aaa"/><rect width="0.9615384615384616em" height="10.007264272159848em" x="69.23076923076923em" y="19.992735727840152em" fill="#aaa"/><rect width="0.9615384615384616em" height="12.978726029777537em" x="70.1923076923077em" y="17.021273970222463em" fill="#aaa"/><rect width="0.9615384615384616em" height="5.212427983630289em" x="71.15384615384616em" y="24.78757201636971em" fill="#aaa"/><rect width="0.9615384615384616em" height="7.193183283570166em" x="72.11538461538461em" y="22.806816716429836em" fill="#aaa"/><rect width="0.9615384615384616em" height="15.792430733175909em" x="73.07692307692308em" y="14.207569266824091em" fill="#aaa"/><rect width="0.9615384615384616em" height="8.58617760626213em" x="74.03846153846155em" y="21.41382239373787em" fill="#aaa"/><rect width="0.9615384615384616em" height="6.841383544664652em" x="75em" y="23.15861645533535em" fill="#aaa"/><rect width="0.9615384615384616em" height="9.921290433902442em" x="75.96153846153847em" y="20.078709566097558em" fill="#aaa"/><rect width="0.9615384615384616em" height="12.21440016295519em" x="76.92307692307692em" y="17.78559983704481em" fill="#aaa"/><rect width="0.9615384615384616em" height="17.55177522690283em" x="77.88461538461539em" y="12.44822477309717em" fill="#aaa"/><rect width="0.9615384615384616em" height="11.367980445377558em" x="78.84615384615385em" y="18.632019554622442em" fill="#aaa"/><rect width="0.9615384615384616em" height="18.871198753839867em" x="79.8076923076923em" y="11.128801246160133em" fill="#aaa"/><rect width="0.9615384615384616em" height="15.311946511546953em" x="80.76923076923077em" y="14.688053488453047em" fill="#aaa"/><rect width="0.9615384615384616em" height="20.717477806336618em" x="81.73076923076923em" y="9.282522193663382em" fill="#aaa"/><rect width="0.9615384615384616em" height="17.85445328547621em" x="82.6923076923077em" y="12.145546714523789em" fill="#aaa"/><rect width="0.9615384615384616em" height="10.079534072600513em" x="83.65384615384616em" y="19.920465927399487em" fill="#aaa"/><rect width="0.9615384615384616em" height="18.34280747142939em" x="84.61538461538461em" y="11.657192528570612em" fill="#aaa"/><rect width="0.9615384615384616em" height="26.918977063737316em" x="85.57692307692308em" y="3.081022936262684em" fill="#aaa"/><rect width="0.9615384615384616em" height="8.492977355386998em" x="86.53846153846155em" y="21.507022644613002em" fill="#aaa"/><rect width="0.9615384615384616em" height="14.110514151790372em" x="87.5em" y="15.889485848209628em" fill="#aaa"/><rect width="0.9615384615384616em" height="11.204283517699773em" x="88.46153846153847em" y="18.79571648230023em" fill="#aaa"/><rect width="0.9615384615384616em" height="12.744014562881594em" x="89.42307692307692em" y="17.255985437118404em" fill="#aaa"/><rect width="0.9615384615384616em" height="12.094323388114857em" x="90.38461538461539em" y="17.90567661188514em" fill="#aaa"/><rect width="0.9615384615384616em" height="7.52784727547548em" x="91.34615384615385em" y="22.47215272452452em" fill="#aaa"/><rect width="0.9615384615384616em" height="7.391407102328446em" x="92.3076923076923em" y="22.608592897671553em" fill="#aaa"/><rect width="0.9615384615384616em" height="14.840854280266555em" x="93.26923076923077em" y="15.159145719733445em" fill="#aaa"/><rect width="0.9615384615384616em" height="12.143669166527333em" x="94.23076923076923em" y="17.85633083347267em" fill="#aaa"/><rect width="0.9615384615384616em" height="14.36405544094089em" x="95.1923076923077em" y="15.63594455905911em" fill="#aaa"/><rect width="0.9615384615384616em" height="9.929377949973075em" x="96.15384615384616em" y="20.070622050026927em" fill="#aaa"/><rect width="0.9615384615384616em" height="11.546218752884347em" x="97.11538461538461em" y="18.453781247115653em" fill="#aaa"/><rect width="0.9615384615384616em" height="13.112134946826789em" x="98.07692307692308em" y="16.88786505317321em" fill="#aaa"/><rect width="0.9615384615384616em" height="13.52491097423566em" x="99.03846153846155em" y="16.47508902576434em" fill="#aaa"/></svg>