<?xml version="1.0" standalone="no"?>
<svg xmlns:xlink="http://www.w3.org/1999/xlink" xmlns="http://www.w3.org/2000/svg" class="topic-graph" style="width: 100em; height: 30em; text-align: center;"><rect width="0.9615384615384616em" height="9.781276942129718em" x="0em" y="20.21872305787028em" fill="#aaa"/><rect width="0.9615384615384616em" height="8.01844931168306em" x="0.9615384615384616em" y="21.98155068831694em" fill="#aaa"/><rect width="0.9615384615384616em" height="6.286860239174715em" x="1.9230769230769231em" y="23.713139760825285em" fill="#aaa"/><rect width="0.9615384615384616em" height="6.150227624278865em" x="2.8846153846153846em" y="23.849772375721134em" fill="#aaa"/><rect width="0.9615384615384616em" height="6.302718198825772em" x="3.8461538461538463em" y="23.697281801174228em" fill="#aaa"/><rect width="0.9615384615384616em" height="23.418324903256806em" x="4.8076923076923075em" y="6.581675096743194em" fill="#aaa"/><rect width="0.9615384615384616em" height="9.69332989483283em" x="5.769230769230769em" y="20.30667010516717em" fill="#aaa"/><rect width="0.9615384615384616em" height="15.268042491519024em" x="6.730769230769231em" y="14.731957508480976em" fill="#aaa"/><rect width="0.9615384615384616em" height="14.830041707971414em" x="7.6923076923076925em" y="15.169958292028586em" fill="#aaa"/><rect width="0.9615384615384616em" height="13.494436947453234em" x="8.653846153846153em" y="16.505563052546766em" fill="#aaa"/><rect width="0.9615384615384616em" height="9.67724330492381em" x="9.615384615384615em" y="20.32275669507619em" fill="#aaa"/><rect width="0.9615384615384616em" height="22.922349933762984em" x="10.576923076923077em" y="7.077650066237016em" fill="#aaa"/><rect width="0.9615384615384616em" height="17.216858163123582em" x="11.538461538461538em" y="12.783141836876418em" fill="#aaa"/><rect width="0.9615384615384616em" height="19.935104362666387em" x="12.5em" y="10.064895637333613em" fill="#aaa"/><rect width="0.9615384615384616em" height="13.145104648905633em" x="13.461538461538462em" y="16.854895351094367em" fill="#aaa"/><rect width="0.9615384615384616em" height="12.892608329718527em" x="14.423076923076923em" y="17.107391670281473em" fill="#aaa"/><rect width="0.9615384615384616em" height="19.64177768411206em" x="15.384615384615385em" y="10.35822231588794em" fill="#aaa"/><rect width="0.9615384615384616em" height="13.379159558072118em" x="16.346153846153847em" y="16.620840441927882em" fill="#aaa"/><rect width="0.9615384615384616em" height="10.870820985379435em" x="17.307692307692307em" y="19.129179014620565em" fill="#aaa"/><rect width="0.9615384615384616em" height="22.179939579415276em" x="18.26923076923077em" y="7.820060420584724em" fill="#aaa"/><rect width="0.9615384615384616em" height="16.800587874229752em" x="19.23076923076923em" y="13.199412125770248em" fill="#aaa"/><rect width="0.9615384615384616em" height="24.7950676662627em" x="20.192307692307693em" y="5.2049323337373em" fill="#aaa"/><rect width="0.9615384615384616em" height="18.767549003717384em" x="21.153846153846153em" y="11.232450996282616em" fill="#aaa"/><rect width="0.9615384615384616em" height="20.101524701397402em" x="22.115384615384617em" y="9.898475298602598em" fill="#aaa"/><rect width="0.9615384615384616em" height="23.11666123620044em" x="23.076923076923077em" y="6.883338763799561em" fill="#aaa"/><rect width="0.9615384615384616em" height="13.44497452751722em" x="24.03846153846154em" y="16.555025472482782em" fill="#aaa"/><rect width="0.9615384615384616em" height="14.385413486425554em" x="25em" y="15.614586513574446em" fill="#aaa"/><rect width="0.9615384615384616em" height="20.326616740428673em" x="25.961538461538463em" y="9.673383259571327em" fill="#aaa"/><rect width="0.9615384615384616em" height="12.543831446097244em" x="26.923076923076923em" y="17.456168553902756em" fill="#aaa"/><rect width="0.9615384615384616em" height="18.42218139801876em" x="27.884615384615387em" y="11.577818601981239em" fill="#aaa"/><rect width="0.9615384615384616em" height="19.83964893182247em" x="28.846153846153847em" y="10.16035106817753em" fill="#aaa"/><rect width="0.9615384615384616em" height="20.96699162218132em" x="29.80769230769231em" y="9.033008377818678em" fill="#aaa"/><rect width="0.9615384615384616em" height="18.56964982547982em" x="30.76923076923077em" y="11.430350174520179em" fill="#aaa"/><rect width="0.9615384615384616em" height="30em" x="31.73076923076923em" y="0em" fill="#aaa"/><rect width="0.9615384615384616em" height="19.50197260012819em" x="32.69230769230769em" y="10.498027399871809em" fill="#aaa"/><rect width="0.9615384615384616em" height="25.42983131556337em" x="33.65384615384615em" y="4.570168684436631em" fill="#aaa"/><rect width="0.9615384615384616em" height="15.899832276446368em" x="34.61538461538461em" y="14.100167723553632em" fill="#aaa"/><rect width="0.9615384615384616em" height="19.514936378435905em" x="35.57692307692308em" y="10.485063621564095em" fill="#aaa"/><rect width="0.9615384615384616em" height="19.96193253845157em" x="36.53846153846154em" y="10.03806746154843em" fill="#aaa"/><rect width="0.9615384615384616em" height="25.11784625346442em" x="37.5em" y="4.882153746535579em" fill="#aaa"/><rect width="0.9615384615384616em" height="18.672174138440724em" x="38.46153846153846em" y="11.327825861559276em" fill="#aaa"/><rect width="0.9615384615384616em" height="23.435531422844527em" x="39.42307692307693em" y="6.564468577155473em" fill="#aaa"/><rect width="0.9615384615384616em" height="20.677083108720034em" x="40.38461538461539em" y="9.322916891279966em" fill="#aaa"/><rect width="0.9615384615384616em" height="21.939660700151407em" x="41.34615384615385em" y="8.060339299848593em" fill="#aaa"/><rect width="0.9615384615384616em" height="17.311185227075036em" x="42.30769230769231em" y="12.688814772924964em" fill="#aaa"/><rect width="0.9615384615384616em" height="14.57693148873396em" x="43.269230769230774em" y="15.42306851126604em" fill="#aaa"/><rect width="0.9615384615384616em" height="18.057655599371163em" x="44.23076923076923em" y="11.942344400628837em" fill="#aaa"/><rect width="0.9615384615384616em" height="16.39426288130949em" x="45.19230769230769em" y="13.60573711869051em" fill="#aaa"/><rect width="0.9615384615384616em" height="18.541312738080673em" x="46.15384615384615em" y="11.458687261919327em" fill="#aaa"/><rect width="0.9615384615384616em" height="21.72458408984484em" x="47.11538461538461em" y="8.27541591015516em" fill="#aaa"/><rect width="0.9615384615384616em" height="15.38646450658254em" x="48.07692307692308em" y="14.61353549341746em" fill="#aaa"/><rect width="0.9615384615384616em" height="14.899716508570448em" x="49.03846153846154em" y="15.100283491429552em" fill="#aaa"/><rect width="0.9615384615384616em" height="13.517030754363667em" x="50em" y="16.482969245636333em" fill="#aaa"/><rect width="0.9615384615384616em" height="17.487593017919572em" x="50.96153846153846em" y="12.512406982080428em" fill="#aaa"/><rect width="0.9615384615384616em" height="14.644587561854783em" x="51.92307692307693em" y="15.355412438145217em" fill="#aaa"/><rect width="0.9615384615384616em" height="17.351922817125836em" x="52.88461538461539em" y="12.648077182874164em" fill="#aaa"/><rect width="0.9615384615384616em" height="17.236767142236697em" x="53.84615384615385em" y="12.763232857763303em" fill="#aaa"/><rect width="0.9615384615384616em" height="15.757702868657393em" x="54.80769230769231em" y="14.242297131342607em" fill="#aaa"/><rect width="0.9615384615384616em" height="10.772071148225129em" x="55.769230769230774em" y="19.22792885177487em" fill="#aaa"/><rect width="0.9615384615384616em" height="16.803547292727792em" x="56.73076923076923em" y="13.196452707272208em" fill="#aaa"/><rect width="0.9615384615384616em" height="11.492680766308219em" x="57.69230769230769em" y="18.50731923369178em" fill="#aaa"/><rect width="0.9615384615384616em" height="13.065215057758135em" x="58.65384615384615em" y="16.934784942241865em" fill="#aaa"/><rect width="0.9615384615384616em" height="12.718596169577685em" x="59.61538461538462em" y="17.281403830422313em" fill="#aaa"/><rect width="0.9615384615384616em" height="10.797807109188568em" x="60.57692307692308em" y="19.202192890811432em" fill="#aaa"/><rect width="0.9615384615384616em" height="11.935337474242049em" x="61.53846153846154em" y="18.064662525757953em" fill="#aaa"/><rect width="0.9615384615384616em" height="13.780627283159552em" x="62.5em" y="16.219372716840446em" fill="#aaa"/><rect width="0.9615384615384616em" height="10.086231288549028em" x="63.46153846153846em" y="19.91376871145097em" fill="#aaa"/><rect width="0.9615384615384616em" height="8.958011497466579em" x="64.42307692307692em" y="21.04198850253342em" fill="#aaa"/><rect width="0.9615384615384616em" height="10.029470131993346em" x="65.38461538461539em" y="19.970529868006654em" fill="#aaa"/><rect width="0.9615384615384616em" height="7.5009590598272995em" x="66.34615384615385em" y="22.4990409401727em" fill="#aaa"/><rect width="0.9615384615384616em" height="9.623484152934584em" x="67.3076923076923em" y="20.376515847065416em" fill="#aaa"/><rect width="0.9615384615384616em" height="10.502101995606473em" x="68.26923076923077em" y="19.497898004393527em" fill="#aaa"/><rect width="0.9615384615384616em" height="7.469823582885636em" x="69.23076923076923em" y="22.530176417114365em" fill="#aaa"/><rect width="0.9615384615384616em" height="6.337566048512805em" x="70.1923076923077em" y="23.662433951487195em" fill="#aaa"/><rect width="0.9615384615384616em" height="5.157583373331198em" x="71.15384615384616em" y="24.8424166266688em" fill="#aaa"/><rect width="0.9615384615384616em" height="6.1078924345632055em" x="72.11538461538461em" y="23.892107565436795em" fill="#aaa"/><rect width="0.9615384615384616em" height="8.273887865538683em" x="73.07692307692308em" y="21.726112134461317em" fill="#aaa"/><rect width="0.9615384615384616em" height="6.738272406606953em" x="74.03846153846155em" y="23.261727593393047em" fill="#aaa"/><rect width="0.9615384615384616em" height="5.9891417445971795em" x="75em" y="24.01085825540282em" fill="#aaa"/><rect width="0.9615384615384616em" height="6.755299076127519em" x="75.96153846153847em" y="23.24470092387248em" fill="#aaa"/><rect width="0.9615384615384616em" height="6.460581836174876em" x="76.92307692307692em" y="23.539418163825125em" fill="#aaa"/><rect width="0.9615384615384616em" height="5.624999183689081em" x="77.88461538461539em" y="24.37500081631092em" fill="#aaa"/><rect width="0.9615384615384616em" height="5.191271045431042em" x="78.84615384615385em" y="24.80872895456896em" fill="#aaa"/><rect width="0.9615384615384616em" height="4.690311701677317em" x="79.8076923076923em" y="25.309688298322683em" fill="#aaa"/><rect width="0.9615384615384616em" height="5.721653466587242em" x="80.76923076923077em" y="24.27834653341276em" fill="#aaa"/><rect width="0.9615384615384616em" height="4.938283554337365em" x="81.73076923076923em" y="25.061716445662636em" fill="#aaa"/><rect width="0.9615384615384616em" height="5.9404444308074815em" x="82.6923076923077em" y="24.05955556919252em" fill="#aaa"/><rect width="0.9615384615384616em" height="5.0608663172711825em" x="83.65384615384616em" y="24.939133682728816em" fill="#aaa"/><rect width="0.9615384615384616em" height="5.7105186129856484em" x="84.61538461538461em" y="24.28948138701435em" fill="#aaa"/><rect width="0.9615384615384616em" height="5.205966382197273em" x="85.57692307692308em" y="24.794033617802725em" fill="#aaa"/><rect width="0.9615384615384616em" height="4.797890480350466em" x="86.53846153846155em" y="25.202109519649532em" fill="#aaa"/><rect width="0.9615384615384616em" height="5.276005908037849em" x="87.5em" y="24.72399409196215em" fill="#aaa"/><rect width="0.9615384615384616em" height="5.10947496054699em" x="88.46153846153847em" y="24.89052503945301em" fill="#aaa"/><rect width="0.9615384615384616em" height="4.837215682714216em" x="89.42307692307692em" y="25.162784317285784em" fill="#aaa"/><rect width="0.9615384615384616em" height="5.2901467399047055em" x="90.38461538461539em" y="24.709853260095294em" fill="#aaa"/><rect width="0.9615384615384616em" height="4.860983990816313em" x="91.34615384615385em" y="25.13901600918369em" fill="#aaa"/><rect width="0.9615384615384616em" height="3.680618512810833em" x="92.3076923076923em" y="26.31938148718917em" fill="#aaa"/><rect width="0.9615384615384616em" height="4.331731667715329em" x="93.26923076923077em" y="25.668268332284672em" fill="#aaa"/><rect width="0.9615384615384616em" height="3.8058490534276816em" x="94.23076923076923em" y="26.194150946572318em" fill="#aaa"/><rect width="0.9615384615384616em" height="3.446390051854196em" x="95.1923076923077em" y="26.553609948145805em" fill="#aaa"/><rect width="0.9615384615384616em" height="3.5823745278898005em" x="96.15384615384616em" y="26.4176254721102em" fill="#aaa"/><rect width="0.9615384615384616em" height="5.191508919753832em" x="97.11538461538461em" y="24.808491080246167em" fill="#aaa"/><rect width="0.9615384615384616em" height="4.422445964433664em" x="98.07692307692308em" y="25.577554035566337em" fill="#aaa"/><rect width="0.9615384615384616em" height="5.063749698169189em" x="99.03846153846155em" y="24.93625030183081em" fill="#aaa"/></svg>