<?xml version="1.0" standalone="no"?>
<svg xmlns:xlink="http://www.w3.org/1999/xlink" xmlns="http://www.w3.org/2000/svg" class="topic-graph" style="width: 10vw; height: 3em; text-align: center;"><rect width="0.09615384615384616em" height="0.09096250091440884em" x="0vw" y="2.909037499085591em" fill="#aaa"/><rect width="0.09615384615384616em" height="0.2178672953593478em" x="0.09615384615384616vw" y="2.7821327046406523em" fill="#aaa"/><rect width="0.09615384615384616em" height="0.5690319147743431em" x="0.19230769230769232vw" y="2.4309680852256568em" fill="#aaa"/><rect width="0.09615384615384616em" height="0.17432716800762457em" x="0.2884615384615385vw" y="2.8256728319923754em" fill="#aaa"/><rect width="0.09615384615384616em" height="0.23669106689636582em" x="0.38461538461538464vw" y="2.7633089331036342em" fill="#aaa"/><rect width="0.09615384615384616em" height="0.09845799145237462em" x="0.4807692307692308vw" y="2.9015420085476253em" fill="#aaa"/><rect width="0.09615384615384616em" height="0.31139588617942005em" x="0.576923076923077vw" y="2.68860411382058em" fill="#aaa"/><rect width="0.09615384615384616em" height="1.1102845405477657em" x="0.6730769230769231vw" y="1.8897154594522343em" fill="#aaa"/><rect width="0.09615384615384616em" height="0.14993055311376838em" x="0.7692307692307693vw" y="2.8500694468862315em" fill="#aaa"/><rect width="0.09615384615384616em" height="0.10368916430680444em" x="0.8653846153846154vw" y="2.8963108356931957em" fill="#aaa"/><rect width="0.09615384615384616em" height="0.7070385970643577em" x="0.9615384615384616vw" y="2.292961402935642em" fill="#aaa"/><rect width="0.09615384615384616em" height="0.2343582020824072em" x="1.0576923076923077vw" y="2.765641797917593em" fill="#aaa"/><rect width="0.09615384615384616em" height="0.3707597249925758em" x="1.153846153846154vw" y="2.629240275007424em" fill="#aaa"/><rect width="0.09615384615384616em" height="0.20113257940166285em" x="1.25vw" y="2.798867420598337em" fill="#aaa"/><rect width="0.09615384615384616em" height="0.18463159216378652em" x="1.3461538461538463vw" y="2.8153684078362136em" fill="#aaa"/><rect width="0.09615384615384616em" height="0.07523002103962372em" x="1.4423076923076923vw" y="2.9247699789603763em" fill="#aaa"/><rect width="0.09615384615384616em" height="0.0899328416575418em" x="1.5384615384615385vw" y="2.910067158342458em" fill="#aaa"/><rect width="0.09615384615384616em" height="0.07906920110627869em" x="1.6346153846153848vw" y="2.920930798893721em" fill="#aaa"/><rect width="0.09615384615384616em" height="0.3792727181642237em" x="1.7307692307692308vw" y="2.6207272818357765em" fill="#aaa"/><rect width="0.09615384615384616em" height="0.20973038178195375em" x="1.826923076923077vw" y="2.7902696182180464em" fill="#aaa"/><rect width="0.09615384615384616em" height="0.2415282411990961em" x="1.9230769230769231vw" y="2.758471758800904em" fill="#aaa"/><rect width="0.09615384615384616em" height="0.5834898967227045em" x="2.019230769230769vw" y="2.4165101032772958em" fill="#aaa"/><rect width="0.09615384615384616em" height="0.28246471380409033em" x="2.1153846153846154vw" y="2.7175352861959094em" fill="#aaa"/><rect width="0.09615384615384616em" height="0.931871095149259em" x="2.2115384615384617vw" y="2.0681289048507407em" fill="#aaa"/><rect width="0.09615384615384616em" height="0.23799402614682913em" x="2.307692307692308vw" y="2.762005973853171em" fill="#aaa"/><rect width="0.09615384615384616em" height="0.5713957464443132em" x="2.403846153846154vw" y="2.4286042535556867em" fill="#aaa"/><rect width="0.09615384615384616em" height="0.3683475842214773em" x="2.5vw" y="2.6316524157785226em" fill="#aaa"/><rect width="0.09615384615384616em" height="0.3311108693899887em" x="2.5961538461538463vw" y="2.6688891306100113em" fill="#aaa"/><rect width="0.09615384615384616em" height="0.14555993085487617em" x="2.6923076923076925vw" y="2.8544400691451237em" fill="#aaa"/><rect width="0.09615384615384616em" height="0.43615076857369317em" x="2.7884615384615388vw" y="2.563849231426307em" fill="#aaa"/><rect width="0.09615384615384616em" height="0.2832225795132992em" x="2.8846153846153846vw" y="2.716777420486701em" fill="#aaa"/><rect width="0.09615384615384616em" height="0.1489372817382254em" x="2.980769230769231vw" y="2.8510627182617747em" fill="#aaa"/><rect width="0.09615384615384616em" height="0.4486096719182453em" x="3.076923076923077vw" y="2.5513903280817547em" fill="#aaa"/><rect width="0.09615384615384616em" height="0.8600023679732571em" x="3.1730769230769234vw" y="2.139997632026743em" fill="#aaa"/><rect width="0.09615384615384616em" height="0.4796301273752665em" x="3.2692307692307696vw" y="2.5203698726247334em" fill="#aaa"/><rect width="0.09615384615384616em" height="0.2537951150834558em" x="3.3653846153846154vw" y="2.746204884916544em" fill="#aaa"/><rect width="0.09615384615384616em" height="0.879255146322669em" x="3.4615384615384617vw" y="2.120744853677331em" fill="#aaa"/><rect width="0.09615384615384616em" height="0.30958579588465884em" x="3.557692307692308vw" y="2.690414204115341em" fill="#aaa"/><rect width="0.09615384615384616em" height="0.4105702972450298em" x="3.653846153846154vw" y="2.58942970275497em" fill="#aaa"/><rect width="0.09615384615384616em" height="0.23485348329805886em" x="3.75vw" y="2.7651465167019413em" fill="#aaa"/><rect width="0.09615384615384616em" height="0.4479557493654919em" x="3.8461538461538463vw" y="2.5520442506345082em" fill="#aaa"/><rect width="0.09615384615384616em" height="0.6999954261460573em" x="3.9423076923076925vw" y="2.3000045738539425em" fill="#aaa"/><rect width="0.09615384615384616em" height="0.6393271562384676em" x="4.038461538461538vw" y="2.3606728437615323em" fill="#aaa"/><rect width="0.09615384615384616em" height="0.6275237159859435em" x="4.134615384615385vw" y="2.3724762840140565em" fill="#aaa"/><rect width="0.09615384615384616em" height="0.5376232085699424em" x="4.230769230769231vw" y="2.4623767914300574em" fill="#aaa"/><rect width="0.09615384615384616em" height="0.6640348330224011em" x="4.3269230769230775vw" y="2.3359651669775987em" fill="#aaa"/><rect width="0.09615384615384616em" height="0.17319131804241703em" x="4.423076923076923vw" y="2.826808681957583em" fill="#aaa"/><rect width="0.09615384615384616em" height="0.42266307744378484em" x="4.519230769230769vw" y="2.5773369225562153em" fill="#aaa"/><rect width="0.09615384615384616em" height="0.306753554388134em" x="4.615384615384616vw" y="2.693246445611866em" fill="#aaa"/><rect width="0.09615384615384616em" height="0.6002641459946171em" x="4.711538461538462vw" y="2.399735854005383em" fill="#aaa"/><rect width="0.09615384615384616em" height="0.5040288326286808em" x="4.807692307692308vw" y="2.4959711673713194em" fill="#aaa"/><rect width="0.09615384615384616em" height="0.5694989206871063em" x="4.903846153846154vw" y="2.4305010793128936em" fill="#aaa"/><rect width="0.09615384615384616em" height="0.7527605378414631em" x="5vw" y="2.2472394621585368em" fill="#aaa"/><rect width="0.09615384615384616em" height="0.5693803774591087em" x="5.096153846153847vw" y="2.4306196225408914em" fill="#aaa"/><rect width="0.09615384615384616em" height="0.9008153342085201em" x="5.1923076923076925vw" y="2.09918466579148em" fill="#aaa"/><rect width="0.09615384615384616em" height="0.8132708691738644em" x="5.288461538461538vw" y="2.1867291308261354em" fill="#aaa"/><rect width="0.09615384615384616em" height="0.524047959314027em" x="5.384615384615385vw" y="2.475952040685973em" fill="#aaa"/><rect width="0.09615384615384616em" height="0.6637366261984136em" x="5.480769230769231vw" y="2.3362633738015863em" fill="#aaa"/><rect width="0.09615384615384616em" height="0.4764508728968643em" x="5.5769230769230775vw" y="2.5235491271031356em" fill="#aaa"/><rect width="0.09615384615384616em" height="0.9868240060970102em" x="5.673076923076923vw" y="2.0131759939029896em" fill="#aaa"/><rect width="0.09615384615384616em" height="0.7919940326569992em" x="5.769230769230769vw" y="2.208005967343001em" fill="#aaa"/><rect width="0.09615384615384616em" height="0.6666679398000271em" x="5.865384615384616vw" y="2.333332060199973em" fill="#aaa"/><rect width="0.09615384615384616em" height="0.7707745514533391em" x="5.961538461538462vw" y="2.2292254485466607em" fill="#aaa"/><rect width="0.09615384615384616em" height="0.4660365047679771em" x="6.057692307692308vw" y="2.533963495232023em" fill="#aaa"/><rect width="0.09615384615384616em" height="0.9252622004805499em" x="6.153846153846154vw" y="2.07473779951945em" fill="#aaa"/><rect width="0.09615384615384616em" height="0.6853527895770533em" x="6.25vw" y="2.3146472104229465em" fill="#aaa"/><rect width="0.09615384615384616em" height="1.1833821193276755em" x="6.346153846153847vw" y="1.8166178806723245em" fill="#aaa"/><rect width="0.09615384615384616em" height="0.6691120589815491em" x="6.4423076923076925vw" y="2.330887941018451em" fill="#aaa"/><rect width="0.09615384615384616em" height="0.8921845385731664em" x="6.538461538461539vw" y="2.1078154614268336em" fill="#aaa"/><rect width="0.09615384615384616em" height="0.36231812913077655em" x="6.634615384615385vw" y="2.6376818708692236em" fill="#aaa"/><rect width="0.09615384615384616em" height="1.1787359064790868em" x="6.730769230769231vw" y="1.8212640935209132em" fill="#aaa"/><rect width="0.09615384615384616em" height="1.1686977142020833em" x="6.8269230769230775vw" y="1.8313022857979167em" fill="#aaa"/><rect width="0.09615384615384616em" height="1.6998979435989499em" x="6.923076923076923vw" y="1.3001020564010501em" fill="#aaa"/><rect width="0.09615384615384616em" height="1.258102136957831em" x="7.01923076923077vw" y="1.741897863042169em" fill="#aaa"/><rect width="0.09615384615384616em" height="1.5862024947136941em" x="7.115384615384616vw" y="1.4137975052863059em" fill="#aaa"/><rect width="0.09615384615384616em" height="1.111237646318137em" x="7.211538461538462vw" y="1.888762353681863em" fill="#aaa"/><rect width="0.09615384615384616em" height="1.6910012335616655em" x="7.307692307692308vw" y="1.3089987664383345em" fill="#aaa"/><rect width="0.09615384615384616em" height="1.4517190301983647em" x="7.403846153846154vw" y="1.5482809698016353em" fill="#aaa"/><rect width="0.09615384615384616em" height="1.6607274012874407em" x="7.5vw" y="1.3392725987125593em" fill="#aaa"/><rect width="0.09615384615384616em" height="2.2061706407975397em" x="7.596153846153847vw" y="0.7938293592024603em" fill="#aaa"/><rect width="0.09615384615384616em" height="2.0620403705265247em" x="7.6923076923076925vw" y="0.9379596294734753em" fill="#aaa"/><rect width="0.09615384615384616em" height="1.6671079554125048em" x="7.788461538461539vw" y="1.3328920445874952em" fill="#aaa"/><rect width="0.09615384615384616em" height="1.7194617286154em" x="7.884615384615385vw" y="1.2805382713846em" fill="#aaa"/><rect width="0.09615384615384616em" height="1.7461569569633517em" x="7.980769230769231vw" y="1.2538430430366483em" fill="#aaa"/><rect width="0.09615384615384616em" height="2.112028083561186em" x="8.076923076923077vw" y="0.887971916438814em" fill="#aaa"/><rect width="0.09615384615384616em" height="1.7988457509060807em" x="8.173076923076923vw" y="1.2011542490939193em" fill="#aaa"/><rect width="0.09615384615384616em" height="3em" x="8.26923076923077vw" y="0em" fill="#aaa"/><rect width="0.09615384615384616em" height="1.9838462955694451em" x="8.365384615384615vw" y="1.0161537044305549em" fill="#aaa"/><rect width="0.09615384615384616em" height="1.8555664395848326em" x="8.461538461538462vw" y="1.1444335604151674em" fill="#aaa"/><rect width="0.09615384615384616em" height="2.0333603031533767em" x="8.557692307692308vw" y="0.9666396968466233em" fill="#aaa"/><rect width="0.09615384615384616em" height="2.3506521096327995em" x="8.653846153846155vw" y="0.6493478903672005em" fill="#aaa"/><rect width="0.09615384615384616em" height="2.010819331382982em" x="8.75vw" y="0.9891806686170179em" fill="#aaa"/><rect width="0.09615384615384616em" height="2.3815799786846927em" x="8.846153846153847vw" y="0.6184200213153073em" fill="#aaa"/><rect width="0.09615384615384616em" height="1.2908941643741865em" x="8.942307692307693vw" y="1.7091058356258135em" fill="#aaa"/><rect width="0.09615384615384616em" height="2.0948238260831857em" x="9.038461538461538vw" y="0.9051761739168143em" fill="#aaa"/><rect width="0.09615384615384616em" height="1.732576466612437em" x="9.134615384615385vw" y="1.267423533387563em" fill="#aaa"/><rect width="0.09615384615384616em" height="1.8595707570665385em" x="9.230769230769232vw" y="1.1404292429334615em" fill="#aaa"/><rect width="0.09615384615384616em" height="1.5751585970868582em" x="9.326923076923077vw" y="1.4248414029131418em" fill="#aaa"/><rect width="0.09615384615384616em" height="1.4592347353977502em" x="9.423076923076923vw" y="1.5407652646022498em" fill="#aaa"/><rect width="0.09615384615384616em" height="1.4599356144564881em" x="9.51923076923077vw" y="1.5400643855435119em" fill="#aaa"/><rect width="0.09615384615384616em" height="1.26499639933958em" x="9.615384615384617vw" y="1.73500360066042em" fill="#aaa"/><rect width="0.09615384615384616em" height="1.2108043674043578em" x="9.711538461538462vw" y="1.7891956325956422em" fill="#aaa"/><rect width="0.09615384615384616em" height="1.4225224066347937em" x="9.807692307692308vw" y="1.5774775933652063em" fill="#aaa"/><rect width="0.09615384615384616em" height="1.0500789701952247em" x="9.903846153846155vw" y="1.9499210298047753em" fill="#aaa"/></svg>