<?xml version="1.0" standalone="no"?>
<svg xmlns:xlink="http://www.w3.org/1999/xlink" xmlns="http://www.w3.org/2000/svg" class="topic-graph" style="width: 10vw; height: 3em; text-align: center;"><rect width="0.09615384615384616em" height="1.8444368082884446em" x="0vw" y="1.1555631917115554em" fill="#aaa"/><rect width="0.09615384615384616em" height="0.5758511060634894em" x="0.09615384615384616vw" y="2.4241488939365103em" fill="#aaa"/><rect width="0.09615384615384616em" height="0.2964296973985117em" x="0.19230769230769232vw" y="2.7035703026014883em" fill="#aaa"/><rect width="0.09615384615384616em" height="0.09980512735750328em" x="0.2884615384615385vw" y="2.900194872642497em" fill="#aaa"/><rect width="0.09615384615384616em" height="0.08872363956955971em" x="0.38461538461538464vw" y="2.91127636043044em" fill="#aaa"/><rect width="0.09615384615384616em" height="0.3392257331749784em" x="0.4807692307692308vw" y="2.6607742668250216em" fill="#aaa"/><rect width="0.09615384615384616em" height="0.7775522139283813em" x="0.576923076923077vw" y="2.2224477860716187em" fill="#aaa"/><rect width="0.09615384615384616em" height="0.9387691892640331em" x="0.6730769230769231vw" y="2.061230810735967em" fill="#aaa"/><rect width="0.09615384615384616em" height="0.928818626724268em" x="0.7692307692307693vw" y="2.0711813732757323em" fill="#aaa"/><rect width="0.09615384615384616em" height="1.8964973959898104em" x="0.8653846153846154vw" y="1.1035026040101896em" fill="#aaa"/><rect width="0.09615384615384616em" height="1.1499632045748713em" x="0.9615384615384616vw" y="1.8500367954251287em" fill="#aaa"/><rect width="0.09615384615384616em" height="3em" x="1.0576923076923077vw" y="0em" fill="#aaa"/><rect width="0.09615384615384616em" height="1.8278824598824528em" x="1.153846153846154vw" y="1.1721175401175472em" fill="#aaa"/><rect width="0.09615384615384616em" height="0.7831653169115034em" x="1.25vw" y="2.2168346830884964em" fill="#aaa"/><rect width="0.09615384615384616em" height="1.504181545146182em" x="1.3461538461538463vw" y="1.495818454853818em" fill="#aaa"/><rect width="0.09615384615384616em" height="0.869373249417147em" x="1.4423076923076923vw" y="2.130626750582853em" fill="#aaa"/><rect width="0.09615384615384616em" height="1.0581933271782606em" x="1.5384615384615385vw" y="1.9418066728217394em" fill="#aaa"/><rect width="0.09615384615384616em" height="0.5493549478884971em" x="1.6346153846153848vw" y="2.450645052111503em" fill="#aaa"/><rect width="0.09615384615384616em" height="0.8134810736683589em" x="1.7307692307692308vw" y="2.186518926331641em" fill="#aaa"/><rect width="0.09615384615384616em" height="1.1381049602236561em" x="1.826923076923077vw" y="1.8618950397763439em" fill="#aaa"/><rect width="0.09615384615384616em" height="1.2249291613658992em" x="1.9230769230769231vw" y="1.7750708386341008em" fill="#aaa"/><rect width="0.09615384615384616em" height="0.80994220869569em" x="2.019230769230769vw" y="2.19005779130431em" fill="#aaa"/><rect width="0.09615384615384616em" height="0.7601873739436726em" x="2.1153846153846154vw" y="2.2398126260563274em" fill="#aaa"/><rect width="0.09615384615384616em" height="0.36616947117910725em" x="2.2115384615384617vw" y="2.6338305288208925em" fill="#aaa"/><rect width="0.09615384615384616em" height="0.31975764201184487em" x="2.307692307692308vw" y="2.6802423579881554em" fill="#aaa"/><rect width="0.09615384615384616em" height="1.3595933370979452em" x="2.403846153846154vw" y="1.6404066629020548em" fill="#aaa"/><rect width="0.09615384615384616em" height="0.35301107798527903em" x="2.5vw" y="2.646988922014721em" fill="#aaa"/><rect width="0.09615384615384616em" height="0.3317689545664376em" x="2.5961538461538463vw" y="2.6682310454335623em" fill="#aaa"/><rect width="0.09615384615384616em" height="0.13072859249345925em" x="2.6923076923076925vw" y="2.869271407506541em" fill="#aaa"/><rect width="0.09615384615384616em" height="0.2677781521355964em" x="2.7884615384615388vw" y="2.7322218478644036em" fill="#aaa"/><rect width="0.09615384615384616em" height="1.27174507097857em" x="2.8846153846153846vw" y="1.72825492902143em" fill="#aaa"/><rect width="0.09615384615384616em" height="0.7273722143831116em" x="2.980769230769231vw" y="2.2726277856168884em" fill="#aaa"/><rect width="0.09615384615384616em" height="0.8409074914015267em" x="3.076923076923077vw" y="2.1590925085984733em" fill="#aaa"/><rect width="0.09615384615384616em" height="0.8615861069591642em" x="3.1730769230769234vw" y="2.138413893040836em" fill="#aaa"/><rect width="0.09615384615384616em" height="0.8252968915723574em" x="3.2692307692307696vw" y="2.1747031084276425em" fill="#aaa"/><rect width="0.09615384615384616em" height="0.8539829568547856em" x="3.3653846153846154vw" y="2.146017043145214em" fill="#aaa"/><rect width="0.09615384615384616em" height="0.743137666133751em" x="3.4615384615384617vw" y="2.2568623338662492em" fill="#aaa"/><rect width="0.09615384615384616em" height="0.6281650973760885em" x="3.557692307692308vw" y="2.3718349026239114em" fill="#aaa"/><rect width="0.09615384615384616em" height="0.5779552467061411em" x="3.653846153846154vw" y="2.422044753293859em" fill="#aaa"/><rect width="0.09615384615384616em" height="0.2024743722866414em" x="3.75vw" y="2.7975256277133584em" fill="#aaa"/><rect width="0.09615384615384616em" height="0.6004282653241206em" x="3.8461538461538463vw" y="2.399571734675879em" fill="#aaa"/><rect width="0.09615384615384616em" height="0.6826960913676434em" x="3.9423076923076925vw" y="2.317303908632357em" fill="#aaa"/><rect width="0.09615384615384616em" height="0.8156554516247158em" x="4.038461538461538vw" y="2.184344548375284em" fill="#aaa"/><rect width="0.09615384615384616em" height="0.6698243716557541em" x="4.134615384615385vw" y="2.3301756283442456em" fill="#aaa"/><rect width="0.09615384615384616em" height="0.6301122695368987em" x="4.230769230769231vw" y="2.3698877304631014em" fill="#aaa"/><rect width="0.09615384615384616em" height="0.7414776085821363em" x="4.3269230769230775vw" y="2.2585223914178636em" fill="#aaa"/><rect width="0.09615384615384616em" height="0.8454636755613396em" x="4.423076923076923vw" y="2.15453632443866em" fill="#aaa"/><rect width="0.09615384615384616em" height="1.9351443172542397em" x="4.519230769230769vw" y="1.0648556827457603em" fill="#aaa"/><rect width="0.09615384615384616em" height="0.7699401948725015em" x="4.615384615384616vw" y="2.2300598051274987em" fill="#aaa"/><rect width="0.09615384615384616em" height="0.9278443769160286em" x="4.711538461538462vw" y="2.0721556230839715em" fill="#aaa"/><rect width="0.09615384615384616em" height="0.6030243654869772em" x="4.807692307692308vw" y="2.396975634513023em" fill="#aaa"/><rect width="0.09615384615384616em" height="0.7431380264109086em" x="4.903846153846154vw" y="2.2568619735890914em" fill="#aaa"/><rect width="0.09615384615384616em" height="0.8019643372440189em" x="5vw" y="2.198035662755981em" fill="#aaa"/><rect width="0.09615384615384616em" height="1.6968431023899924em" x="5.096153846153847vw" y="1.3031568976100076em" fill="#aaa"/><rect width="0.09615384615384616em" height="1.0073374149261258em" x="5.1923076923076925vw" y="1.9926625850738742em" fill="#aaa"/><rect width="0.09615384615384616em" height="0.6432044975304787em" x="5.288461538461538vw" y="2.356795502469521em" fill="#aaa"/><rect width="0.09615384615384616em" height="0.5475046062241429em" x="5.384615384615385vw" y="2.452495393775857em" fill="#aaa"/><rect width="0.09615384615384616em" height="0.5363061529478983em" x="5.480769230769231vw" y="2.4636938470521015em" fill="#aaa"/><rect width="0.09615384615384616em" height="0.5704464812894356em" x="5.5769230769230775vw" y="2.4295535187105646em" fill="#aaa"/><rect width="0.09615384615384616em" height="0.5047309736079877em" x="5.673076923076923vw" y="2.4952690263920125em" fill="#aaa"/><rect width="0.09615384615384616em" height="0.5958957079501545em" x="5.769230769230769vw" y="2.4041042920498454em" fill="#aaa"/><rect width="0.09615384615384616em" height="0.8308049466859635em" x="5.865384615384616vw" y="2.1691950533140365em" fill="#aaa"/><rect width="0.09615384615384616em" height="0.9526131946273114em" x="5.961538461538462vw" y="2.0473868053726885em" fill="#aaa"/><rect width="0.09615384615384616em" height="0.47262274898314205em" x="6.057692307692308vw" y="2.527377251016858em" fill="#aaa"/><rect width="0.09615384615384616em" height="0.34387294570614146em" x="6.153846153846154vw" y="2.6561270542938584em" fill="#aaa"/><rect width="0.09615384615384616em" height="0.3661584806487964em" x="6.25vw" y="2.6338415193512037em" fill="#aaa"/><rect width="0.09615384615384616em" height="0.36055209459859106em" x="6.346153846153847vw" y="2.639447905401409em" fill="#aaa"/><rect width="0.09615384615384616em" height="0.6940716764687789em" x="6.4423076923076925vw" y="2.305928323531221em" fill="#aaa"/><rect width="0.09615384615384616em" height="0.46549017315247143em" x="6.538461538461539vw" y="2.5345098268475286em" fill="#aaa"/><rect width="0.09615384615384616em" height="0.3127520979840116em" x="6.634615384615385vw" y="2.6872479020159883em" fill="#aaa"/><rect width="0.09615384615384616em" height="0.4116734990426836em" x="6.730769230769231vw" y="2.5883265009573164em" fill="#aaa"/><rect width="0.09615384615384616em" height="0.42567061249863086em" x="6.8269230769230775vw" y="2.5743293875013693em" fill="#aaa"/><rect width="0.09615384615384616em" height="0.5356980541804348em" x="6.923076923076923vw" y="2.464301945819565em" fill="#aaa"/><rect width="0.09615384615384616em" height="0.9569091495651444em" x="7.01923076923077vw" y="2.0430908504348557em" fill="#aaa"/><rect width="0.09615384615384616em" height="1.1131498667986421em" x="7.115384615384616vw" y="1.8868501332013579em" fill="#aaa"/><rect width="0.09615384615384616em" height="0.3700003784544549em" x="7.211538461538462vw" y="2.629999621545545em" fill="#aaa"/><rect width="0.09615384615384616em" height="0.19347356792032924em" x="7.307692307692308vw" y="2.8065264320796706em" fill="#aaa"/><rect width="0.09615384615384616em" height="0.1779643513815615em" x="7.403846153846154vw" y="2.8220356486184386em" fill="#aaa"/><rect width="0.09615384615384616em" height="0.26715127712332387em" x="7.5vw" y="2.732848722876676em" fill="#aaa"/><rect width="0.09615384615384616em" height="0.2086395830025664em" x="7.596153846153847vw" y="2.7913604169974335em" fill="#aaa"/><rect width="0.09615384615384616em" height="0.2624890162543596em" x="7.6923076923076925vw" y="2.7375109837456404em" fill="#aaa"/><rect width="0.09615384615384616em" height="0.28536466697139046em" x="7.788461538461539vw" y="2.7146353330286095em" fill="#aaa"/><rect width="0.09615384615384616em" height="0.18847062044505047em" x="7.884615384615385vw" y="2.8115293795549494em" fill="#aaa"/><rect width="0.09615384615384616em" height="0.19296692392636022em" x="7.980769230769231vw" y="2.80703307607364em" fill="#aaa"/><rect width="0.09615384615384616em" height="0.18961438935109076em" x="8.076923076923077vw" y="2.8103856106489093em" fill="#aaa"/><rect width="0.09615384615384616em" height="0.22855042036598383em" x="8.173076923076923vw" y="2.771449579634016em" fill="#aaa"/><rect width="0.09615384615384616em" height="0.27635906848968617em" x="8.26923076923077vw" y="2.723640931510314em" fill="#aaa"/><rect width="0.09615384615384616em" height="0.20971239416352147em" x="8.365384615384615vw" y="2.7902876058364785em" fill="#aaa"/><rect width="0.09615384615384616em" height="0.26295825242867926em" x="8.461538461538462vw" y="2.737041747571321em" fill="#aaa"/><rect width="0.09615384615384616em" height="0.30552911962053075em" x="8.557692307692308vw" y="2.6944708803794692em" fill="#aaa"/><rect width="0.09615384615384616em" height="0.3786954815982464em" x="8.653846153846155vw" y="2.621304518401754em" fill="#aaa"/><rect width="0.09615384615384616em" height="0.1566543512817207em" x="8.75vw" y="2.8433456487182793em" fill="#aaa"/><rect width="0.09615384615384616em" height="0.1498436931565741em" x="8.846153846153847vw" y="2.850156306843426em" fill="#aaa"/><rect width="0.09615384615384616em" height="0.20033840336687453em" x="8.942307692307693vw" y="2.7996615966331255em" fill="#aaa"/><rect width="0.09615384615384616em" height="0.1627271978567646em" x="9.038461538461538vw" y="2.8372728021432354em" fill="#aaa"/><rect width="0.09615384615384616em" height="0.14720868241314258em" x="9.134615384615385vw" y="2.8527913175868576em" fill="#aaa"/><rect width="0.09615384615384616em" height="0.1479772341854243em" x="9.230769230769232vw" y="2.8520227658145756em" fill="#aaa"/><rect width="0.09615384615384616em" height="0.1447808034004915em" x="9.326923076923077vw" y="2.8552191965995086em" fill="#aaa"/><rect width="0.09615384615384616em" height="0.14126511100095035em" x="9.423076923076923vw" y="2.8587348889990496em" fill="#aaa"/><rect width="0.09615384615384616em" height="0.1409390165548714em" x="9.51923076923077vw" y="2.8590609834451284em" fill="#aaa"/><rect width="0.09615384615384616em" height="0.14660990499087406em" x="9.615384615384617vw" y="2.853390095009126em" fill="#aaa"/><rect width="0.09615384615384616em" height="0.12914804736426486em" x="9.711538461538462vw" y="2.8708519526357352em" fill="#aaa"/><rect width="0.09615384615384616em" height="0.16593774981667872em" x="9.807692307692308vw" y="2.8340622501833215em" fill="#aaa"/><rect width="0.09615384615384616em" height="0.19969726618103567em" x="9.903846153846155vw" y="2.800302733818964em" fill="#aaa"/></svg>