<?xml version="1.0" standalone="no"?>
<svg xmlns:xlink="http://www.w3.org/1999/xlink" xmlns="http://www.w3.org/2000/svg" class="topic-graph" style="width: 100em; height: 30em; text-align: center;"><rect width="0.9615384615384616em" height="6.558868982653708em" x="0em" y="23.441131017346294em" fill="#aaa"/><rect width="0.9615384615384616em" height="4.751243768622683em" x="0.9615384615384616em" y="25.248756231377318em" fill="#aaa"/><rect width="0.9615384615384616em" height="9.807463509115493em" x="1.9230769230769231em" y="20.192536490884507em" fill="#aaa"/><rect width="0.9615384615384616em" height="9.714665257767612em" x="2.8846153846153846em" y="20.285334742232386em" fill="#aaa"/><rect width="0.9615384615384616em" height="4.086056462191058em" x="3.8461538461538463em" y="25.91394353780894em" fill="#aaa"/><rect width="0.9615384615384616em" height="8.407910275615858em" x="4.8076923076923075em" y="21.59208972438414em" fill="#aaa"/><rect width="0.9615384615384616em" height="8.954679282430876em" x="5.769230769230769em" y="21.045320717569126em" fill="#aaa"/><rect width="0.9615384615384616em" height="0.20869450034783216em" x="6.730769230769231em" y="29.791305499652168em" fill="#aaa"/><rect width="0.9615384615384616em" height="10.68301693955744em" x="7.6923076923076925em" y="19.31698306044256em" fill="#aaa"/><rect width="0.9615384615384616em" height="4.755061713874462em" x="8.653846153846153em" y="25.24493828612554em" fill="#aaa"/><rect width="0.9615384615384616em" height="8.993600901922035em" x="9.615384615384615em" y="21.006399098077964em" fill="#aaa"/><rect width="0.9615384615384616em" height="9.874744213669711em" x="10.576923076923077em" y="20.12525578633029em" fill="#aaa"/><rect width="0.9615384615384616em" height="12.785223578243533em" x="11.538461538461538em" y="17.21477642175647em" fill="#aaa"/><rect width="0.9615384615384616em" height="6.898102089466693em" x="12.5em" y="23.101897910533307em" fill="#aaa"/><rect width="0.9615384615384616em" height="5.824974123884408em" x="13.461538461538462em" y="24.17502587611559em" fill="#aaa"/><rect width="0.9615384615384616em" height="9.267146238126958em" x="14.423076923076923em" y="20.73285376187304em" fill="#aaa"/><rect width="0.9615384615384616em" height="7.8179551935466405em" x="15.384615384615385em" y="22.18204480645336em" fill="#aaa"/><rect width="0.9615384615384616em" height="2.9551276008361507em" x="16.346153846153847em" y="27.04487239916385em" fill="#aaa"/><rect width="0.9615384615384616em" height="13.67065480449758em" x="17.307692307692307em" y="16.32934519550242em" fill="#aaa"/><rect width="0.9615384615384616em" height="8.571110811316002em" x="18.26923076923077em" y="21.428889188683996em" fill="#aaa"/><rect width="0.9615384615384616em" height="10.175728417504116em" x="19.23076923076923em" y="19.824271582495882em" fill="#aaa"/><rect width="0.9615384615384616em" height="2.2925277740092067em" x="20.192307692307693em" y="27.70747222599079em" fill="#aaa"/><rect width="0.9615384615384616em" height="5.9718901676209315em" x="21.153846153846153em" y="24.02810983237907em" fill="#aaa"/><rect width="0.9615384615384616em" height="4.886262995110685em" x="22.115384615384617em" y="25.113737004889316em" fill="#aaa"/><rect width="0.9615384615384616em" height="6.5810197033874065em" x="23.076923076923077em" y="23.418980296612595em" fill="#aaa"/><rect width="0.9615384615384616em" height="5.10877443771561em" x="24.03846153846154em" y="24.89122556228439em" fill="#aaa"/><rect width="0.9615384615384616em" height="11.64760766798769em" x="25em" y="18.352392332012307em" fill="#aaa"/><rect width="0.9615384615384616em" height="12.091650790781166em" x="25.961538461538463em" y="17.908349209218834em" fill="#aaa"/><rect width="0.9615384615384616em" height="14.754865364144178em" x="26.923076923076923em" y="15.245134635855822em" fill="#aaa"/><rect width="0.9615384615384616em" height="18.1432980577691em" x="27.884615384615387em" y="11.856701942230899em" fill="#aaa"/><rect width="0.9615384615384616em" height="12.726304739873326em" x="28.846153846153847em" y="17.273695260126672em" fill="#aaa"/><rect width="0.9615384615384616em" height="30em" x="29.80769230769231em" y="0em" fill="#aaa"/><rect width="0.9615384615384616em" height="14.536423658027319em" x="30.76923076923077em" y="15.463576341972681em" fill="#aaa"/><rect width="0.9615384615384616em" height="23.366973577568785em" x="31.73076923076923em" y="6.6330264224312145em" fill="#aaa"/><rect width="0.9615384615384616em" height="24.98429286674196em" x="32.69230769230769em" y="5.01570713325804em" fill="#aaa"/><rect width="0.9615384615384616em" height="16.344449024674617em" x="33.65384615384615em" y="13.655550975325383em" fill="#aaa"/><rect width="0.9615384615384616em" height="15.845435817191461em" x="34.61538461538461em" y="14.154564182808539em" fill="#aaa"/><rect width="0.9615384615384616em" height="11.140776958995794em" x="35.57692307692308em" y="18.859223041004206em" fill="#aaa"/><rect width="0.9615384615384616em" height="14.533620306427203em" x="36.53846153846154em" y="15.466379693572797em" fill="#aaa"/><rect width="0.9615384615384616em" height="19.69119122761355em" x="37.5em" y="10.308808772386449em" fill="#aaa"/><rect width="0.9615384615384616em" height="17.007392859251453em" x="38.46153846153846em" y="12.992607140748547em" fill="#aaa"/><rect width="0.9615384615384616em" height="5.520201824362061em" x="39.42307692307693em" y="24.47979817563794em" fill="#aaa"/><rect width="0.9615384615384616em" height="10.149793934445933em" x="40.38461538461539em" y="19.85020606555407em" fill="#aaa"/><rect width="0.9615384615384616em" height="8.417598221652998em" x="41.34615384615385em" y="21.582401778347002em" fill="#aaa"/><rect width="0.9615384615384616em" height="10.640754607554587em" x="42.30769230769231em" y="19.359245392445413em" fill="#aaa"/><rect width="0.9615384615384616em" height="18.15440383356958em" x="43.269230769230774em" y="11.845596166430418em" fill="#aaa"/><rect width="0.9615384615384616em" height="17.13740277157494em" x="44.23076923076923em" y="12.86259722842506em" fill="#aaa"/><rect width="0.9615384615384616em" height="14.526174740808758em" x="45.19230769230769em" y="15.473825259191242em" fill="#aaa"/><rect width="0.9615384615384616em" height="22.88527160040075em" x="46.15384615384615em" y="7.114728399599251em" fill="#aaa"/><rect width="0.9615384615384616em" height="21.924643667520172em" x="47.11538461538461em" y="8.075356332479828em" fill="#aaa"/><rect width="0.9615384615384616em" height="18.199983282945837em" x="48.07692307692308em" y="11.800016717054163em" fill="#aaa"/><rect width="0.9615384615384616em" height="16.105118302186227em" x="49.03846153846154em" y="13.894881697813773em" fill="#aaa"/><rect width="0.9615384615384616em" height="12.901668741146784em" x="50em" y="17.098331258853214em" fill="#aaa"/><rect width="0.9615384615384616em" height="17.647958175723378em" x="50.96153846153846em" y="12.352041824276622em" fill="#aaa"/><rect width="0.9615384615384616em" height="14.273539390110574em" x="51.92307692307693em" y="15.726460609889426em" fill="#aaa"/><rect width="0.9615384615384616em" height="11.748515146437068em" x="52.88461538461539em" y="18.251484853562932em" fill="#aaa"/><rect width="0.9615384615384616em" height="16.8584907411998em" x="53.84615384615385em" y="13.141509258800198em" fill="#aaa"/><rect width="0.9615384615384616em" height="18.92423463567726em" x="54.80769230769231em" y="11.075765364322741em" fill="#aaa"/><rect width="0.9615384615384616em" height="18.31319944786954em" x="55.769230769230774em" y="11.68680055213046em" fill="#aaa"/><rect width="0.9615384615384616em" height="15.117740351767818em" x="56.73076923076923em" y="14.882259648232182em" fill="#aaa"/><rect width="0.9615384615384616em" height="12.36587271654201em" x="57.69230769230769em" y="17.634127283457993em" fill="#aaa"/><rect width="0.9615384615384616em" height="5.862000248818699em" x="58.65384615384615em" y="24.1379997511813em" fill="#aaa"/><rect width="0.9615384615384616em" height="9.396729732256434em" x="59.61538461538462em" y="20.603270267743568em" fill="#aaa"/><rect width="0.9615384615384616em" height="10.369425026286342em" x="60.57692307692308em" y="19.630574973713657em" fill="#aaa"/><rect width="0.9615384615384616em" height="9.063554089163143em" x="61.53846153846154em" y="20.93644591083686em" fill="#aaa"/><rect width="0.9615384615384616em" height="6.620078488243244em" x="62.5em" y="23.379921511756756em" fill="#aaa"/><rect width="0.9615384615384616em" height="6.519763279611976em" x="63.46153846153846em" y="23.480236720388024em" fill="#aaa"/><rect width="0.9615384615384616em" height="5.618484853787462em" x="64.42307692307692em" y="24.38151514621254em" fill="#aaa"/><rect width="0.9615384615384616em" height="6.1294647452375735em" x="65.38461538461539em" y="23.870535254762427em" fill="#aaa"/><rect width="0.9615384615384616em" height="6.110021256126119em" x="66.34615384615385em" y="23.889978743873883em" fill="#aaa"/><rect width="0.9615384615384616em" height="6.433135556680934em" x="67.3076923076923em" y="23.566864443319066em" fill="#aaa"/><rect width="0.9615384615384616em" height="4.320289039189215em" x="68.26923076923077em" y="25.679710960810784em" fill="#aaa"/><rect width="0.9615384615384616em" height="3.744860193610665em" x="69.23076923076923em" y="26.255139806389334em" fill="#aaa"/><rect width="0.9615384615384616em" height="4.987855971926145em" x="70.1923076923077em" y="25.012144028073855em" fill="#aaa"/><rect width="0.9615384615384616em" height="5.662418705260961em" x="71.15384615384616em" y="24.33758129473904em" fill="#aaa"/><rect width="0.9615384615384616em" height="2.1941191838867775em" x="72.11538461538461em" y="27.805880816113223em" fill="#aaa"/><rect width="0.9615384615384616em" height="3.936542967220023em" x="73.07692307692308em" y="26.063457032779976em" fill="#aaa"/><rect width="0.9615384615384616em" height="2.9261378798429507em" x="74.03846153846155em" y="27.07386212015705em" fill="#aaa"/><rect width="0.9615384615384616em" height="2.400366360881957em" x="75em" y="27.599633639118043em" fill="#aaa"/><rect width="0.9615384615384616em" height="2.4461906658379178em" x="75.96153846153847em" y="27.553809334162082em" fill="#aaa"/><rect width="0.9615384615384616em" height="3.406063064026774em" x="76.92307692307692em" y="26.593936935973225em" fill="#aaa"/><rect width="0.9615384615384616em" height="2.0139643394386555em" x="77.88461538461539em" y="27.986035660561345em" fill="#aaa"/><rect width="0.9615384615384616em" height="2.7072414541946097em" x="78.84615384615385em" y="27.29275854580539em" fill="#aaa"/><rect width="0.9615384615384616em" height="2.9129869956556544em" x="79.8076923076923em" y="27.087013004344346em" fill="#aaa"/><rect width="0.9615384615384616em" height="2.0354729958130107em" x="80.76923076923077em" y="27.96452700418699em" fill="#aaa"/><rect width="0.9615384615384616em" height="2.6934661516799987em" x="81.73076923076923em" y="27.30653384832em" fill="#aaa"/><rect width="0.9615384615384616em" height="1.9605606152174826em" x="82.6923076923077em" y="28.03943938478252em" fill="#aaa"/><rect width="0.9615384615384616em" height="2.790421141261713em" x="83.65384615384616em" y="27.209578858738286em" fill="#aaa"/><rect width="0.9615384615384616em" height="2.5136595654427665em" x="84.61538461538461em" y="27.486340434557235em" fill="#aaa"/><rect width="0.9615384615384616em" height="2.3879263505558948em" x="85.57692307692308em" y="27.612073649444106em" fill="#aaa"/><rect width="0.9615384615384616em" height="2.2702183114198937em" x="86.53846153846155em" y="27.729781688580108em" fill="#aaa"/><rect width="0.9615384615384616em" height="4.041282197472382em" x="87.5em" y="25.958717802527616em" fill="#aaa"/><rect width="0.9615384615384616em" height="2.7831186492925215em" x="88.46153846153847em" y="27.216881350707478em" fill="#aaa"/><rect width="0.9615384615384616em" height="2.243120985399732em" x="89.42307692307692em" y="27.75687901460027em" fill="#aaa"/><rect width="0.9615384615384616em" height="2.061652112053669em" x="90.38461538461539em" y="27.938347887946332em" fill="#aaa"/><rect width="0.9615384615384616em" height="2.193879235831224em" x="91.34615384615385em" y="27.806120764168774em" fill="#aaa"/><rect width="0.9615384615384616em" height="1.659004055168817em" x="92.3076923076923em" y="28.34099594483118em" fill="#aaa"/><rect width="0.9615384615384616em" height="2.127176273490482em" x="93.26923076923077em" y="27.872823726509516em" fill="#aaa"/><rect width="0.9615384615384616em" height="1.2271836967416143em" x="94.23076923076923em" y="28.772816303258384em" fill="#aaa"/><rect width="0.9615384615384616em" height="1.8087230284766316em" x="95.1923076923077em" y="28.19127697152337em" fill="#aaa"/><rect width="0.9615384615384616em" height="1.579540741885565em" x="96.15384615384616em" y="28.420459258114434em" fill="#aaa"/><rect width="0.9615384615384616em" height="2.0331349172966715em" x="97.11538461538461em" y="27.96686508270333em" fill="#aaa"/><rect width="0.9615384615384616em" height="1.5542232038614452em" x="98.07692307692308em" y="28.445776796138556em" fill="#aaa"/><rect width="0.9615384615384616em" height="1.9050269905786668em" x="99.03846153846155em" y="28.094973009421334em" fill="#aaa"/></svg>