<?xml version="1.0" standalone="no"?>
<svg xmlns:xlink="http://www.w3.org/1999/xlink" xmlns="http://www.w3.org/2000/svg" class="topic-graph" style="width: 10vw; height: 3em; text-align: center;"><rect width="0.09615384615384616em" height="0.16671762849451255em" x="0vw" y="2.8332823715054873em" fill="#aaa"/><rect width="0.09615384615384616em" height="0.6887762056299804em" x="0.09615384615384616vw" y="2.3112237943700196em" fill="#aaa"/><rect width="0.09615384615384616em" height="0.19609803063725792em" x="0.19230769230769232vw" y="2.8039019693627423em" fill="#aaa"/><rect width="0.09615384615384616em" height="0.07971747082413391em" x="0.2884615384615385vw" y="2.920282529175866em" fill="#aaa"/><rect width="0.09615384615384616em" height="1.4472685378615044em" x="0.38461538461538464vw" y="1.5527314621384956em" fill="#aaa"/><rect width="0.09615384615384616em" height="0.27854235329072996em" x="0.4807692307692308vw" y="2.72145764670927em" fill="#aaa"/><rect width="0.09615384615384616em" height="0.1771389174507093em" x="0.576923076923077vw" y="2.8228610825492906em" fill="#aaa"/><rect width="0.09615384615384616em" height="0.0869521747549117em" x="0.6730769230769231vw" y="2.9130478252450884em" fill="#aaa"/><rect width="0.09615384615384616em" height="0.31907027654482367em" x="0.7692307692307693vw" y="2.6809297234551765em" fill="#aaa"/><rect width="0.09615384615384616em" height="0.37838826093569244em" x="0.8653846153846154vw" y="2.6216117390643077em" fill="#aaa"/><rect width="0.09615384615384616em" height="0.24662275186007535em" x="0.9615384615384616vw" y="2.7533772481399246em" fill="#aaa"/><rect width="0.09615384615384616em" height="0.1062708736279489em" x="1.0576923076923077vw" y="2.893729126372051em" fill="#aaa"/><rect width="0.09615384615384616em" height="0.19903352634531876em" x="1.153846153846154vw" y="2.800966473654681em" fill="#aaa"/><rect width="0.09615384615384616em" height="0.07751710922810401em" x="1.25vw" y="2.922482890771896em" fill="#aaa"/><rect width="0.09615384615384616em" height="0.03690111625858509em" x="1.3461538461538463vw" y="2.9630988837414147em" fill="#aaa"/><rect width="0.09615384615384616em" height="0.09376316785361749em" x="1.4423076923076923vw" y="2.9062368321463827em" fill="#aaa"/><rect width="0.09615384615384616em" height="0.06266314171807065em" x="1.5384615384615385vw" y="2.9373368582819293em" fill="#aaa"/><rect width="0.09615384615384616em" height="0.20542153047874823em" x="1.6346153846153848vw" y="2.7945784695212517em" fill="#aaa"/><rect width="0.09615384615384616em" height="0.16226623745460944em" x="1.7307692307692308vw" y="2.8377337625453904em" fill="#aaa"/><rect width="0.09615384615384616em" height="0.06142169510799149em" x="1.826923076923077vw" y="2.9385783048920087em" fill="#aaa"/><rect width="0.09615384615384616em" height="0.25683493958596143em" x="1.9230769230769231vw" y="2.7431650604140385em" fill="#aaa"/><rect width="0.09615384615384616em" height="0.029050042610608225em" x="2.019230769230769vw" y="2.970949957389392em" fill="#aaa"/><rect width="0.09615384615384616em" height="0.11887007500232019em" x="2.1153846153846154vw" y="2.88112992499768em" fill="#aaa"/><rect width="0.09615384615384616em" height="0.08237228629152789em" x="2.2115384615384617vw" y="2.9176277137084723em" fill="#aaa"/><rect width="0.09615384615384616em" height="0.07064011926060222em" x="2.307692307692308vw" y="2.9293598807393977em" fill="#aaa"/><rect width="0.09615384615384616em" height="0.13638128831205903em" x="2.403846153846154vw" y="2.863618711687941em" fill="#aaa"/><rect width="0.09615384615384616em" height="0.05773848446610383em" x="2.5vw" y="2.9422615155338963em" fill="#aaa"/><rect width="0.09615384615384616em" height="0.13100611046626148em" x="2.5961538461538463vw" y="2.8689938895337384em" fill="#aaa"/><rect width="0.09615384615384616em" height="0.06190783877113869em" x="2.6923076923076925vw" y="2.9380921612288615em" fill="#aaa"/><rect width="0.09615384615384616em" height="0.06970310435803831em" x="2.7884615384615388vw" y="2.9302968956419617em" fill="#aaa"/><rect width="0.09615384615384616em" height="0.06295662104312852em" x="2.8846153846153846vw" y="2.9370433789568713em" fill="#aaa"/><rect width="0.09615384615384616em" height="0.10230786366662908em" x="2.980769230769231vw" y="2.897692136333371em" fill="#aaa"/><rect width="0.09615384615384616em" height="0.10433583566303638em" x="3.076923076923077vw" y="2.8956641643369636em" fill="#aaa"/><rect width="0.09615384615384616em" height="0.055777186099888645em" x="3.1730769230769234vw" y="2.944222813900111em" fill="#aaa"/><rect width="0.09615384615384616em" height="0.10981119337341934em" x="3.2692307692307696vw" y="2.890188806626581em" fill="#aaa"/><rect width="0.09615384615384616em" height="0.10847147422917786em" x="3.3653846153846154vw" y="2.891528525770822em" fill="#aaa"/><rect width="0.09615384615384616em" height="0.1649506379224227em" x="3.4615384615384617vw" y="2.8350493620775774em" fill="#aaa"/><rect width="0.09615384615384616em" height="0.17977436715275794em" x="3.557692307692308vw" y="2.820225632847242em" fill="#aaa"/><rect width="0.09615384615384616em" height="0.23652839813518867em" x="3.653846153846154vw" y="2.7634716018648113em" fill="#aaa"/><rect width="0.09615384615384616em" height="0.31422594378211777em" x="3.75vw" y="2.6857740562178822em" fill="#aaa"/><rect width="0.09615384615384616em" height="0.33215118036212143em" x="3.8461538461538463vw" y="2.6678488196378787em" fill="#aaa"/><rect width="0.09615384615384616em" height="0.16010267503047962em" x="3.9423076923076925vw" y="2.8398973249695203em" fill="#aaa"/><rect width="0.09615384615384616em" height="0.1675408916875818em" x="4.038461538461538vw" y="2.832459108312418em" fill="#aaa"/><rect width="0.09615384615384616em" height="0.06926789389260754em" x="4.134615384615385vw" y="2.9307321061073925em" fill="#aaa"/><rect width="0.09615384615384616em" height="0.2202639536277376em" x="4.230769230769231vw" y="2.7797360463722622em" fill="#aaa"/><rect width="0.09615384615384616em" height="0.12618708935985823em" x="4.3269230769230775vw" y="2.873812910640142em" fill="#aaa"/><rect width="0.09615384615384616em" height="0.1131614828493315em" x="4.423076923076923vw" y="2.8868385171506685em" fill="#aaa"/><rect width="0.09615384615384616em" height="0.2669161265363411em" x="4.519230769230769vw" y="2.733083873463659em" fill="#aaa"/><rect width="0.09615384615384616em" height="0.15960893138284726em" x="4.615384615384616vw" y="2.8403910686171527em" fill="#aaa"/><rect width="0.09615384615384616em" height="0.4588465349623851em" x="4.711538461538462vw" y="2.541153465037615em" fill="#aaa"/><rect width="0.09615384615384616em" height="1.0136841934704108em" x="4.807692307692308vw" y="1.9863158065295892em" fill="#aaa"/><rect width="0.09615384615384616em" height="1.0401410953547878em" x="4.903846153846154vw" y="1.9598589046452122em" fill="#aaa"/><rect width="0.09615384615384616em" height="0.6611486091279335em" x="5vw" y="2.3388513908720663em" fill="#aaa"/><rect width="0.09615384615384616em" height="0.8500158866202909em" x="5.096153846153847vw" y="2.149984113379709em" fill="#aaa"/><rect width="0.09615384615384616em" height="0.4456570636226781em" x="5.1923076923076925vw" y="2.554342936377322em" fill="#aaa"/><rect width="0.09615384615384616em" height="0.5479555071163696em" x="5.288461538461538vw" y="2.4520444928836302em" fill="#aaa"/><rect width="0.09615384615384616em" height="0.6052584285898795em" x="5.384615384615385vw" y="2.3947415714101203em" fill="#aaa"/><rect width="0.09615384615384616em" height="0.5208329545230385em" x="5.480769230769231vw" y="2.4791670454769617em" fill="#aaa"/><rect width="0.09615384615384616em" height="0.489930775898731em" x="5.5769230769230775vw" y="2.5100692241012688em" fill="#aaa"/><rect width="0.09615384615384616em" height="0.7132969552329789em" x="5.673076923076923vw" y="2.2867030447670214em" fill="#aaa"/><rect width="0.09615384615384616em" height="0.7242226416432149em" x="5.769230769230769vw" y="2.275777358356785em" fill="#aaa"/><rect width="0.09615384615384616em" height="0.5233311281704605em" x="5.865384615384616vw" y="2.4766688718295393em" fill="#aaa"/><rect width="0.09615384615384616em" height="0.5294972088723869em" x="5.961538461538462vw" y="2.470502791127613em" fill="#aaa"/><rect width="0.09615384615384616em" height="0.8302734381995551em" x="6.057692307692308vw" y="2.169726561800445em" fill="#aaa"/><rect width="0.09615384615384616em" height="0.5290779866017035em" x="6.153846153846154vw" y="2.4709220133982965em" fill="#aaa"/><rect width="0.09615384615384616em" height="0.4962199728864204em" x="6.25vw" y="2.5037800271135797em" fill="#aaa"/><rect width="0.09615384615384616em" height="1.086014178458384em" x="6.346153846153847vw" y="1.913985821541616em" fill="#aaa"/><rect width="0.09615384615384616em" height="1.0853164416498753em" x="6.4423076923076925vw" y="1.9146835583501247em" fill="#aaa"/><rect width="0.09615384615384616em" height="0.6643569699134706em" x="6.538461538461539vw" y="2.3356430300865294em" fill="#aaa"/><rect width="0.09615384615384616em" height="0.3215712061832479em" x="6.634615384615385vw" y="2.678428793816752em" fill="#aaa"/><rect width="0.09615384615384616em" height="0.6071568582324487em" x="6.730769230769231vw" y="2.3928431417675515em" fill="#aaa"/><rect width="0.09615384615384616em" height="0.6474388736687582em" x="6.8269230769230775vw" y="2.352561126331242em" fill="#aaa"/><rect width="0.09615384615384616em" height="0.8081999105505846em" x="6.923076923076923vw" y="2.1918000894494156em" fill="#aaa"/><rect width="0.09615384615384616em" height="0.6072524781998287em" x="7.01923076923077vw" y="2.392747521800171em" fill="#aaa"/><rect width="0.09615384615384616em" height="1.297874430071561em" x="7.115384615384616vw" y="1.702125569928439em" fill="#aaa"/><rect width="0.09615384615384616em" height="0.3271713394722003em" x="7.211538461538462vw" y="2.6728286605277995em" fill="#aaa"/><rect width="0.09615384615384616em" height="1.5988313126595814em" x="7.307692307692308vw" y="1.4011686873404186em" fill="#aaa"/><rect width="0.09615384615384616em" height="1.159235858546133em" x="7.403846153846154vw" y="1.840764141453867em" fill="#aaa"/><rect width="0.09615384615384616em" height="0.9036139500845002em" x="7.5vw" y="2.0963860499155em" fill="#aaa"/><rect width="0.09615384615384616em" height="0.7406983376936925em" x="7.596153846153847vw" y="2.2593016623063074em" fill="#aaa"/><rect width="0.09615384615384616em" height="1.347254473537976em" x="7.6923076923076925vw" y="1.652745526462024em" fill="#aaa"/><rect width="0.09615384615384616em" height="0.662733810028706em" x="7.788461538461539vw" y="2.337266189971294em" fill="#aaa"/><rect width="0.09615384615384616em" height="0.5988726595736327em" x="7.884615384615385vw" y="2.4011273404263673em" fill="#aaa"/><rect width="0.09615384615384616em" height="0.5964215742326713em" x="7.980769230769231vw" y="2.4035784257673285em" fill="#aaa"/><rect width="0.09615384615384616em" height="0.6219815216645292em" x="8.076923076923077vw" y="2.3780184783354708em" fill="#aaa"/><rect width="0.09615384615384616em" height="0.8789687130523748em" x="8.173076923076923vw" y="2.121031286947625em" fill="#aaa"/><rect width="0.09615384615384616em" height="0.5358029833243674em" x="8.26923076923077vw" y="2.464197016675633em" fill="#aaa"/><rect width="0.09615384615384616em" height="0.8200933565662101em" x="8.365384615384615vw" y="2.1799066434337897em" fill="#aaa"/><rect width="0.09615384615384616em" height="0.9130543641986412em" x="8.461538461538462vw" y="2.0869456358013587em" fill="#aaa"/><rect width="0.09615384615384616em" height="0.8159907051389322em" x="8.557692307692308vw" y="2.1840092948610677em" fill="#aaa"/><rect width="0.09615384615384616em" height="0.7572052373949905em" x="8.653846153846155vw" y="2.2427947626050093em" fill="#aaa"/><rect width="0.09615384615384616em" height="0.930110947287611em" x="8.75vw" y="2.069889052712389em" fill="#aaa"/><rect width="0.09615384615384616em" height="1.536964837883582em" x="8.846153846153847vw" y="1.463035162116418em" fill="#aaa"/><rect width="0.09615384615384616em" height="2.081516969710924em" x="8.942307692307693vw" y="0.9184830302890759em" fill="#aaa"/><rect width="0.09615384615384616em" height="1.8078898661539267em" x="9.038461538461538vw" y="1.1921101338460733em" fill="#aaa"/><rect width="0.09615384615384616em" height="3em" x="9.134615384615385vw" y="0em" fill="#aaa"/><rect width="0.09615384615384616em" height="2.0768739371848617em" x="9.230769230769232vw" y="0.9231260628151383em" fill="#aaa"/><rect width="0.09615384615384616em" height="1.6364309936758221em" x="9.326923076923077vw" y="1.3635690063241779em" fill="#aaa"/><rect width="0.09615384615384616em" height="1.7051710053142282em" x="9.423076923076923vw" y="1.2948289946857718em" fill="#aaa"/><rect width="0.09615384615384616em" height="0.9693954880960074em" x="9.51923076923077vw" y="2.0306045119039924em" fill="#aaa"/><rect width="0.09615384615384616em" height="1.0329445748372763em" x="9.615384615384617vw" y="1.9670554251627237em" fill="#aaa"/><rect width="0.09615384615384616em" height="1.2117578364147361em" x="9.711538461538462vw" y="1.7882421635852639em" fill="#aaa"/><rect width="0.09615384615384616em" height="0.8338092333246003em" x="9.807692307692308vw" y="2.1661907666754em" fill="#aaa"/><rect width="0.09615384615384616em" height="1.0744569203401702em" x="9.903846153846155vw" y="1.9255430796598298em" fill="#aaa"/></svg>