<?xml version="1.0" standalone="no"?>
<svg xmlns:xlink="http://www.w3.org/1999/xlink" xmlns="http://www.w3.org/2000/svg" class="topic-graph" style="width: 100em; height: 30em; text-align: center;"><rect width="0.9615384615384616em" height="1.8981334100236344em" x="0em" y="28.101866589976364em" fill="#aaa"/><rect width="0.9615384615384616em" height="9.506542605606938em" x="0.9615384615384616em" y="20.49345739439306em" fill="#aaa"/><rect width="0.9615384615384616em" height="1.632056162289682em" x="1.9230769230769231em" y="28.367943837710317em" fill="#aaa"/><rect width="0.9615384615384616em" height="1.402126302774971em" x="2.8846153846153846em" y="28.59787369722503em" fill="#aaa"/><rect width="0.9615384615384616em" height="9.063626660280995em" x="3.8461538461538463em" y="20.936373339719005em" fill="#aaa"/><rect width="0.9615384615384616em" height="1.5161111412080743em" x="4.8076923076923075em" y="28.483888858791925em" fill="#aaa"/><rect width="0.9615384615384616em" height="2.271016085489653em" x="5.769230769230769em" y="27.728983914510348em" fill="#aaa"/><rect width="0.9615384615384616em" height="1.6386764070420101em" x="6.730769230769231em" y="28.36132359295799em" fill="#aaa"/><rect width="0.9615384615384616em" height="1.8179341916155065em" x="7.6923076923076925em" y="28.182065808384493em" fill="#aaa"/><rect width="0.9615384615384616em" height="1.3434092450300519em" x="8.653846153846153em" y="28.656590754969947em" fill="#aaa"/><rect width="0.9615384615384616em" height="3.1479329644512846em" x="9.615384615384615em" y="26.852067035548714em" fill="#aaa"/><rect width="0.9615384615384616em" height="1.2078847428629285em" x="10.576923076923077em" y="28.79211525713707em" fill="#aaa"/><rect width="0.9615384615384616em" height="2.241610382546958em" x="11.538461538461538em" y="27.75838961745304em" fill="#aaa"/><rect width="0.9615384615384616em" height="1.0772094929380471em" x="12.5em" y="28.922790507061954em" fill="#aaa"/><rect width="0.9615384615384616em" height="1.3113800614762752em" x="13.461538461538462em" y="28.688619938523725em" fill="#aaa"/><rect width="0.9615384615384616em" height="0.8894054049084066em" x="14.423076923076923em" y="29.110594595091595em" fill="#aaa"/><rect width="0.9615384615384616em" height="0.9705547296023691em" x="15.384615384615385em" y="29.02944527039763em" fill="#aaa"/><rect width="0.9615384615384616em" height="1.143680233025453em" x="16.346153846153847em" y="28.856319766974547em" fill="#aaa"/><rect width="0.9615384615384616em" height="1.5334155653726174em" x="17.307692307692307em" y="28.466584434627382em" fill="#aaa"/><rect width="0.9615384615384616em" height="2.218267884640579em" x="18.26923076923077em" y="27.78173211535942em" fill="#aaa"/><rect width="0.9615384615384616em" height="1.6205606337873744em" x="19.23076923076923em" y="28.379439366212626em" fill="#aaa"/><rect width="0.9615384615384616em" height="1.2481178369375472em" x="20.192307692307693em" y="28.751882163062454em" fill="#aaa"/><rect width="0.9615384615384616em" height="1.2573582399575733em" x="21.153846153846153em" y="28.742641760042428em" fill="#aaa"/><rect width="0.9615384615384616em" height="0.5284384205979157em" x="22.115384615384617em" y="29.471561579402085em" fill="#aaa"/><rect width="0.9615384615384616em" height="1.0084059196057584em" x="23.076923076923077em" y="28.991594080394243em" fill="#aaa"/><rect width="0.9615384615384616em" height="1.7836059280874914em" x="24.03846153846154em" y="28.216394071912507em" fill="#aaa"/><rect width="0.9615384615384616em" height="1.9776767738863792em" x="25em" y="28.02232322611362em" fill="#aaa"/><rect width="0.9615384615384616em" height="1.4633242032343765em" x="25.961538461538463em" y="28.536675796765625em" fill="#aaa"/><rect width="0.9615384615384616em" height="1.1730187304052588em" x="26.923076923076923em" y="28.82698126959474em" fill="#aaa"/><rect width="0.9615384615384616em" height="1.2643344138443564em" x="27.884615384615387em" y="28.735665586155644em" fill="#aaa"/><rect width="0.9615384615384616em" height="1.6461603599861727em" x="28.846153846153847em" y="28.353839640013828em" fill="#aaa"/><rect width="0.9615384615384616em" height="1.5199840724522804em" x="29.80769230769231em" y="28.48001592754772em" fill="#aaa"/><rect width="0.9615384615384616em" height="1.6507534793741814em" x="30.76923076923077em" y="28.34924652062582em" fill="#aaa"/><rect width="0.9615384615384616em" height="1.5244119660451458em" x="31.73076923076923em" y="28.475588033954853em" fill="#aaa"/><rect width="0.9615384615384616em" height="1.652321269101253em" x="32.69230769230769em" y="28.347678730898746em" fill="#aaa"/><rect width="0.9615384615384616em" height="2.4775004590630103em" x="33.65384615384615em" y="27.52249954093699em" fill="#aaa"/><rect width="0.9615384615384616em" height="2.2289741790709554em" x="34.61538461538461em" y="27.771025820929044em" fill="#aaa"/><rect width="0.9615384615384616em" height="2.3834864700469587em" x="35.57692307692308em" y="27.616513529953043em" fill="#aaa"/><rect width="0.9615384615384616em" height="1.645136265441682em" x="36.53846153846154em" y="28.354863734558318em" fill="#aaa"/><rect width="0.9615384615384616em" height="1.817572917937048em" x="37.5em" y="28.18242708206295em" fill="#aaa"/><rect width="0.9615384615384616em" height="1.8660859815562976em" x="38.46153846153846em" y="28.133914018443704em" fill="#aaa"/><rect width="0.9615384615384616em" height="1.6820603428817944em" x="39.42307692307693em" y="28.317939657118206em" fill="#aaa"/><rect width="0.9615384615384616em" height="2.3142737282059627em" x="40.38461538461539em" y="27.68572627179404em" fill="#aaa"/><rect width="0.9615384615384616em" height="2.064531308617929em" x="41.34615384615385em" y="27.93546869138207em" fill="#aaa"/><rect width="0.9615384615384616em" height="1.8317688619478263em" x="42.30769230769231em" y="28.168231138052175em" fill="#aaa"/><rect width="0.9615384615384616em" height="2.1124398591372135em" x="43.269230769230774em" y="27.887560140862785em" fill="#aaa"/><rect width="0.9615384615384616em" height="1.591560367759457em" x="44.23076923076923em" y="28.408439632240544em" fill="#aaa"/><rect width="0.9615384615384616em" height="2.05701861872996em" x="45.19230769230769em" y="27.94298138127004em" fill="#aaa"/><rect width="0.9615384615384616em" height="1.4160030598288489em" x="46.15384615384615em" y="28.58399694017115em" fill="#aaa"/><rect width="0.9615384615384616em" height="1.248152237560008em" x="47.11538461538461em" y="28.751847762439994em" fill="#aaa"/><rect width="0.9615384615384616em" height="2.2301915787298423em" x="48.07692307692308em" y="27.769808421270156em" fill="#aaa"/><rect width="0.9615384615384616em" height="2.743493976701234em" x="49.03846153846154em" y="27.256506023298765em" fill="#aaa"/><rect width="0.9615384615384616em" height="2.866423681854255em" x="50em" y="27.133576318145746em" fill="#aaa"/><rect width="0.9615384615384616em" height="4.417860891503563em" x="50.96153846153846em" y="25.58213910849644em" fill="#aaa"/><rect width="0.9615384615384616em" height="3.020063313589277em" x="51.92307692307693em" y="26.979936686410724em" fill="#aaa"/><rect width="0.9615384615384616em" height="3.436473723637294em" x="52.88461538461539em" y="26.563526276362705em" fill="#aaa"/><rect width="0.9615384615384616em" height="3.5419486789178407em" x="53.84615384615385em" y="26.45805132108216em" fill="#aaa"/><rect width="0.9615384615384616em" height="6.099652496597578em" x="54.80769230769231em" y="23.900347503402422em" fill="#aaa"/><rect width="0.9615384615384616em" height="3.4820679863003945em" x="55.769230769230774em" y="26.517932013699607em" fill="#aaa"/><rect width="0.9615384615384616em" height="3.698217736722906em" x="56.73076923076923em" y="26.301782263277094em" fill="#aaa"/><rect width="0.9615384615384616em" height="4.709957336185489em" x="57.69230769230769em" y="25.29004266381451em" fill="#aaa"/><rect width="0.9615384615384616em" height="3.097603669278646em" x="58.65384615384615em" y="26.902396330721352em" fill="#aaa"/><rect width="0.9615384615384616em" height="5.324938725502992em" x="59.61538461538462em" y="24.675061274497008em" fill="#aaa"/><rect width="0.9615384615384616em" height="5.435225729931143em" x="60.57692307692308em" y="24.564774270068856em" fill="#aaa"/><rect width="0.9615384615384616em" height="4.817883685560654em" x="61.53846153846154em" y="25.182116314439348em" fill="#aaa"/><rect width="0.9615384615384616em" height="4.228017285816788em" x="62.5em" y="25.77198271418321em" fill="#aaa"/><rect width="0.9615384615384616em" height="5.289256482197543em" x="63.46153846153846em" y="24.710743517802456em" fill="#aaa"/><rect width="0.9615384615384616em" height="4.930896237838116em" x="64.42307692307692em" y="25.069103762161884em" fill="#aaa"/><rect width="0.9615384615384616em" height="4.499214299599863em" x="65.38461538461539em" y="25.500785700400137em" fill="#aaa"/><rect width="0.9615384615384616em" height="5.103760841861452em" x="66.34615384615385em" y="24.89623915813855em" fill="#aaa"/><rect width="0.9615384615384616em" height="6.371778494031807em" x="67.3076923076923em" y="23.62822150596819em" fill="#aaa"/><rect width="0.9615384615384616em" height="6.163440976571457em" x="68.26923076923077em" y="23.836559023428542em" fill="#aaa"/><rect width="0.9615384615384616em" height="5.430277208923444em" x="69.23076923076923em" y="24.569722791076558em" fill="#aaa"/><rect width="0.9615384615384616em" height="5.379952781712429em" x="70.1923076923077em" y="24.62004721828757em" fill="#aaa"/><rect width="0.9615384615384616em" height="6.093227938048504em" x="71.15384615384616em" y="23.906772061951497em" fill="#aaa"/><rect width="0.9615384615384616em" height="9.099457884354464em" x="72.11538461538461em" y="20.900542115645536em" fill="#aaa"/><rect width="0.9615384615384616em" height="13.310879489229265em" x="73.07692307692308em" y="16.689120510770735em" fill="#aaa"/><rect width="0.9615384615384616em" height="23.278645742310637em" x="74.03846153846155em" y="6.721354257689363em" fill="#aaa"/><rect width="0.9615384615384616em" height="14.285710469520048em" x="75em" y="15.714289530479952em" fill="#aaa"/><rect width="0.9615384615384616em" height="17.434478584996942em" x="75.96153846153847em" y="12.565521415003058em" fill="#aaa"/><rect width="0.9615384615384616em" height="18.73754053880264em" x="76.92307692307692em" y="11.26245946119736em" fill="#aaa"/><rect width="0.9615384615384616em" height="25.849630227046326em" x="77.88461538461539em" y="4.150369772953674em" fill="#aaa"/><rect width="0.9615384615384616em" height="22.615427218716178em" x="78.84615384615385em" y="7.384572781283822em" fill="#aaa"/><rect width="0.9615384615384616em" height="21.54345005578137em" x="79.8076923076923em" y="8.45654994421863em" fill="#aaa"/><rect width="0.9615384615384616em" height="14.909320510641276em" x="80.76923076923077em" y="15.090679489358724em" fill="#aaa"/><rect width="0.9615384615384616em" height="12.196275464884407em" x="81.73076923076923em" y="17.80372453511559em" fill="#aaa"/><rect width="0.9615384615384616em" height="13.02806142980321em" x="82.6923076923077em" y="16.97193857019679em" fill="#aaa"/><rect width="0.9615384615384616em" height="15.396060754606006em" x="83.65384615384616em" y="14.603939245393994em" fill="#aaa"/><rect width="0.9615384615384616em" height="13.175047624331642em" x="84.61538461538461em" y="16.82495237566836em" fill="#aaa"/><rect width="0.9615384615384616em" height="14.327637965869352em" x="85.57692307692308em" y="15.672362034130648em" fill="#aaa"/><rect width="0.9615384615384616em" height="16.476737966594815em" x="86.53846153846155em" y="13.523262033405185em" fill="#aaa"/><rect width="0.9615384615384616em" height="22.252376952873004em" x="87.5em" y="7.7476230471269965em" fill="#aaa"/><rect width="0.9615384615384616em" height="19.270881233583037em" x="88.46153846153847em" y="10.729118766416963em" fill="#aaa"/><rect width="0.9615384615384616em" height="21.545999685414017em" x="89.42307692307692em" y="8.454000314585983em" fill="#aaa"/><rect width="0.9615384615384616em" height="17.32278940151864em" x="90.38461538461539em" y="12.67721059848136em" fill="#aaa"/><rect width="0.9615384615384616em" height="14.499867067215519em" x="91.34615384615385em" y="15.500132932784481em" fill="#aaa"/><rect width="0.9615384615384616em" height="24.050590852701628em" x="92.3076923076923em" y="5.949409147298372em" fill="#aaa"/><rect width="0.9615384615384616em" height="24.85752361867915em" x="93.26923076923077em" y="5.142476381320851em" fill="#aaa"/><rect width="0.9615384615384616em" height="23.95348293930986em" x="94.23076923076923em" y="6.046517060690139em" fill="#aaa"/><rect width="0.9615384615384616em" height="29.546534765303985em" x="95.1923076923077em" y="0.4534652346960151em" fill="#aaa"/><rect width="0.9615384615384616em" height="30em" x="96.15384615384616em" y="0em" fill="#aaa"/><rect width="0.9615384615384616em" height="20.755025102828533em" x="97.11538461538461em" y="9.244974897171467em" fill="#aaa"/><rect width="0.9615384615384616em" height="19.976777774363413em" x="98.07692307692308em" y="10.023222225636587em" fill="#aaa"/><rect width="0.9615384615384616em" height="18.24195088836604em" x="99.03846153846155em" y="11.758049111633959em" fill="#aaa"/></svg>