<?xml version="1.0" standalone="no"?>
<svg xmlns:xlink="http://www.w3.org/1999/xlink" xmlns="http://www.w3.org/2000/svg" class="topic-graph" style="width: 10vw; height: 3em; text-align: center;"><rect width="0.09615384615384616em" height="0.3340791678566323em" x="0vw" y="2.665920832143368em" fill="#aaa"/><rect width="0.09615384615384616em" height="0.4234248989465068em" x="0.09615384615384616vw" y="2.576575101053493em" fill="#aaa"/><rect width="0.09615384615384616em" height="0.10776453486487252em" x="0.19230769230769232vw" y="2.8922354651351276em" fill="#aaa"/><rect width="0.09615384615384616em" height="0.07097379193643757em" x="0.2884615384615385vw" y="2.9290262080635623em" fill="#aaa"/><rect width="0.09615384615384616em" height="0.35582655243934547em" x="0.38461538461538464vw" y="2.6441734475606546em" fill="#aaa"/><rect width="0.09615384615384616em" height="0.12465841650899753em" x="0.4807692307692308vw" y="2.8753415834910023em" fill="#aaa"/><rect width="0.09615384615384616em" height="0.4379821445652947em" x="0.576923076923077vw" y="2.5620178554347053em" fill="#aaa"/><rect width="0.09615384615384616em" height="0.02850075478799554em" x="0.6730769230769231vw" y="2.9714992452120046em" fill="#aaa"/><rect width="0.09615384615384616em" height="0.2672200311728693em" x="0.7692307692307693vw" y="2.732779968827131em" fill="#aaa"/><rect width="0.09615384615384616em" height="0.3125292068883165em" x="0.8653846153846154vw" y="2.6874707931116837em" fill="#aaa"/><rect width="0.09615384615384616em" height="0.5757521270876294em" x="0.9615384615384616vw" y="2.4242478729123706em" fill="#aaa"/><rect width="0.09615384615384616em" height="0.167530760905642em" x="1.0576923076923077vw" y="2.832469239094358em" fill="#aaa"/><rect width="0.09615384615384616em" height="0.200047615172387em" x="1.153846153846154vw" y="2.799952384827613em" fill="#aaa"/><rect width="0.09615384615384616em" height="0.16882616012089185em" x="1.25vw" y="2.831173839879108em" fill="#aaa"/><rect width="0.09615384615384616em" height="0.1263447528664566em" x="1.3461538461538463vw" y="2.8736552471335433em" fill="#aaa"/><rect width="0.09615384615384616em" height="0.1585488801041765em" x="1.4423076923076923vw" y="2.8414511198958237em" fill="#aaa"/><rect width="0.09615384615384616em" height="0.26194709565744584em" x="1.5384615384615385vw" y="2.7380529043425543em" fill="#aaa"/><rect width="0.09615384615384616em" height="0.13232576398567614em" x="1.6346153846153848vw" y="2.8676742360143237em" fill="#aaa"/><rect width="0.09615384615384616em" height="0.10193276759272912em" x="1.7307692307692308vw" y="2.898067232407271em" fill="#aaa"/><rect width="0.09615384615384616em" height="0.46015732040241575em" x="1.826923076923077vw" y="2.539842679597584em" fill="#aaa"/><rect width="0.09615384615384616em" height="0.21333532774473707em" x="1.9230769230769231vw" y="2.786664672255263em" fill="#aaa"/><rect width="0.09615384615384616em" height="0.17478273153492455em" x="2.019230769230769vw" y="2.8252172684650754em" fill="#aaa"/><rect width="0.09615384615384616em" height="0.39729339053277024em" x="2.1153846153846154vw" y="2.60270660946723em" fill="#aaa"/><rect width="0.09615384615384616em" height="0.2781962176419645em" x="2.2115384615384617vw" y="2.7218037823580357em" fill="#aaa"/><rect width="0.09615384615384616em" height="0.15041718489947115em" x="2.307692307692308vw" y="2.8495828151005287em" fill="#aaa"/><rect width="0.09615384615384616em" height="0.27181872048113337em" x="2.403846153846154vw" y="2.7281812795188665em" fill="#aaa"/><rect width="0.09615384615384616em" height="0.5209698452296734em" x="2.5vw" y="2.4790301547703266em" fill="#aaa"/><rect width="0.09615384615384616em" height="0.43196110977265606em" x="2.5961538461538463vw" y="2.568038890227344em" fill="#aaa"/><rect width="0.09615384615384616em" height="0.3308952111698865em" x="2.6923076923076925vw" y="2.6691047888301136em" fill="#aaa"/><rect width="0.09615384615384616em" height="0.3187263311551296em" x="2.7884615384615388vw" y="2.68127366884487em" fill="#aaa"/><rect width="0.09615384615384616em" height="0.4383142258126087em" x="2.8846153846153846vw" y="2.5616857741873913em" fill="#aaa"/><rect width="0.09615384615384616em" height="0.34877527234291367em" x="2.980769230769231vw" y="2.651224727657086em" fill="#aaa"/><rect width="0.09615384615384616em" height="0.4270414526006582em" x="3.076923076923077vw" y="2.5729585473993417em" fill="#aaa"/><rect width="0.09615384615384616em" height="0.2867891701723791em" x="3.1730769230769234vw" y="2.713210829827621em" fill="#aaa"/><rect width="0.09615384615384616em" height="0.374249545731428em" x="3.2692307692307696vw" y="2.625750454268572em" fill="#aaa"/><rect width="0.09615384615384616em" height="0.24709960428551242em" x="3.3653846153846154vw" y="2.7529003957144877em" fill="#aaa"/><rect width="0.09615384615384616em" height="0.4159142560314758em" x="3.4615384615384617vw" y="2.584085743968524em" fill="#aaa"/><rect width="0.09615384615384616em" height="0.2611782904360183em" x="3.557692307692308vw" y="2.7388217095639815em" fill="#aaa"/><rect width="0.09615384615384616em" height="0.3158697682928392em" x="3.653846153846154vw" y="2.6841302317071607em" fill="#aaa"/><rect width="0.09615384615384616em" height="0.3018915330511193em" x="3.75vw" y="2.698108466948881em" fill="#aaa"/><rect width="0.09615384615384616em" height="0.34568342350240827em" x="3.8461538461538463vw" y="2.6543165764975916em" fill="#aaa"/><rect width="0.09615384615384616em" height="0.19290147904407368em" x="3.9423076923076925vw" y="2.8070985209559263em" fill="#aaa"/><rect width="0.09615384615384616em" height="0.22254204991051685em" x="4.038461538461538vw" y="2.777457950089483em" fill="#aaa"/><rect width="0.09615384615384616em" height="0.26679607680608564em" x="4.134615384615385vw" y="2.7332039231939143em" fill="#aaa"/><rect width="0.09615384615384616em" height="0.42953858952770196em" x="4.230769230769231vw" y="2.570461410472298em" fill="#aaa"/><rect width="0.09615384615384616em" height="0.4986429510651309em" x="4.3269230769230775vw" y="2.501357048934869em" fill="#aaa"/><rect width="0.09615384615384616em" height="0.19062654438591173em" x="4.423076923076923vw" y="2.809373455614088em" fill="#aaa"/><rect width="0.09615384615384616em" height="0.24852940949595442em" x="4.519230769230769vw" y="2.7514705905040455em" fill="#aaa"/><rect width="0.09615384615384616em" height="0.1778602912328815em" x="4.615384615384616vw" y="2.8221397087671187em" fill="#aaa"/><rect width="0.09615384615384616em" height="0.3180822156760008em" x="4.711538461538462vw" y="2.681917784323999em" fill="#aaa"/><rect width="0.09615384615384616em" height="0.43788902827421766em" x="4.807692307692308vw" y="2.562110971725782em" fill="#aaa"/><rect width="0.09615384615384616em" height="0.5715896203087041em" x="4.903846153846154vw" y="2.4284103796912957em" fill="#aaa"/><rect width="0.09615384615384616em" height="0.5193502010294441em" x="5vw" y="2.480649798970556em" fill="#aaa"/><rect width="0.09615384615384616em" height="0.4211352201070947em" x="5.096153846153847vw" y="2.578864779892905em" fill="#aaa"/><rect width="0.09615384615384616em" height="0.3632973068560087em" x="5.1923076923076925vw" y="2.636702693143991em" fill="#aaa"/><rect width="0.09615384615384616em" height="0.30896843212548775em" x="5.288461538461538vw" y="2.6910315678745125em" fill="#aaa"/><rect width="0.09615384615384616em" height="0.3803224359632389em" x="5.384615384615385vw" y="2.619677564036761em" fill="#aaa"/><rect width="0.09615384615384616em" height="0.6764941328181746em" x="5.480769230769231vw" y="2.3235058671818254em" fill="#aaa"/><rect width="0.09615384615384616em" height="0.7821112566024462em" x="5.5769230769230775vw" y="2.2178887433975536em" fill="#aaa"/><rect width="0.09615384615384616em" height="0.4194467636450219em" x="5.673076923076923vw" y="2.580553236354978em" fill="#aaa"/><rect width="0.09615384615384616em" height="0.6199598184126585em" x="5.769230769230769vw" y="2.3800401815873418em" fill="#aaa"/><rect width="0.09615384615384616em" height="0.37995639398251035em" x="5.865384615384616vw" y="2.6200436060174894em" fill="#aaa"/><rect width="0.09615384615384616em" height="0.5457105793498576em" x="5.961538461538462vw" y="2.4542894206501424em" fill="#aaa"/><rect width="0.09615384615384616em" height="0.6995275539439844em" x="6.057692307692308vw" y="2.3004724460560158em" fill="#aaa"/><rect width="0.09615384615384616em" height="0.5237928303036546em" x="6.153846153846154vw" y="2.4762071696963455em" fill="#aaa"/><rect width="0.09615384615384616em" height="0.4402512869970159em" x="6.25vw" y="2.559748713002984em" fill="#aaa"/><rect width="0.09615384615384616em" height="0.5165007250459722em" x="6.346153846153847vw" y="2.4834992749540277em" fill="#aaa"/><rect width="0.09615384615384616em" height="0.3929589691974662em" x="6.4423076923076925vw" y="2.6070410308025336em" fill="#aaa"/><rect width="0.09615384615384616em" height="0.5928762153259035em" x="6.538461538461539vw" y="2.4071237846740967em" fill="#aaa"/><rect width="0.09615384615384616em" height="0.36518576937701785em" x="6.634615384615385vw" y="2.634814230622982em" fill="#aaa"/><rect width="0.09615384615384616em" height="0.29875485126165996em" x="6.730769230769231vw" y="2.70124514873834em" fill="#aaa"/><rect width="0.09615384615384616em" height="0.30936287168635845em" x="6.8269230769230775vw" y="2.6906371283136417em" fill="#aaa"/><rect width="0.09615384615384616em" height="0.3795711209225565em" x="6.923076923076923vw" y="2.6204288790774433em" fill="#aaa"/><rect width="0.09615384615384616em" height="0.48226528801145147em" x="7.01923076923077vw" y="2.5177347119885485em" fill="#aaa"/><rect width="0.09615384615384616em" height="0.8858721936130524em" x="7.115384615384616vw" y="2.1141278063869477em" fill="#aaa"/><rect width="0.09615384615384616em" height="0.3921139600419031em" x="7.211538461538462vw" y="2.607886039958097em" fill="#aaa"/><rect width="0.09615384615384616em" height="0.6309047398016955em" x="7.307692307692308vw" y="2.3690952601983044em" fill="#aaa"/><rect width="0.09615384615384616em" height="0.5369071661589937em" x="7.403846153846154vw" y="2.4630928338410065em" fill="#aaa"/><rect width="0.09615384615384616em" height="0.665697819412161em" x="7.5vw" y="2.334302180587839em" fill="#aaa"/><rect width="0.09615384615384616em" height="0.8399188002782236em" x="7.596153846153847vw" y="2.1600811997217764em" fill="#aaa"/><rect width="0.09615384615384616em" height="0.5893231165713876em" x="7.6923076923076925vw" y="2.4106768834286125em" fill="#aaa"/><rect width="0.09615384615384616em" height="0.5694801062213881em" x="7.788461538461539vw" y="2.430519893778612em" fill="#aaa"/><rect width="0.09615384615384616em" height="3em" x="7.884615384615385vw" y="0em" fill="#aaa"/><rect width="0.09615384615384616em" height="1.6353797538161818em" x="7.980769230769231vw" y="1.3646202461838182em" fill="#aaa"/><rect width="0.09615384615384616em" height="0.4589432085763797em" x="8.076923076923077vw" y="2.54105679142362em" fill="#aaa"/><rect width="0.09615384615384616em" height="0.3779108064913571em" x="8.173076923076923vw" y="2.622089193508643em" fill="#aaa"/><rect width="0.09615384615384616em" height="0.28268076540873016em" x="8.26923076923077vw" y="2.71731923459127em" fill="#aaa"/><rect width="0.09615384615384616em" height="0.4576936281319409em" x="8.365384615384615vw" y="2.542306371868059em" fill="#aaa"/><rect width="0.09615384615384616em" height="0.4787514882872395em" x="8.461538461538462vw" y="2.5212485117127605em" fill="#aaa"/><rect width="0.09615384615384616em" height="0.664162276211465em" x="8.557692307692308vw" y="2.335837723788535em" fill="#aaa"/><rect width="0.09615384615384616em" height="0.47203729900796576em" x="8.653846153846155vw" y="2.5279627009920342em" fill="#aaa"/><rect width="0.09615384615384616em" height="0.3804346261772587em" x="8.75vw" y="2.6195653738227413em" fill="#aaa"/><rect width="0.09615384615384616em" height="0.3104187070551661em" x="8.846153846153847vw" y="2.6895812929448337em" fill="#aaa"/><rect width="0.09615384615384616em" height="0.364905640803468em" x="8.942307692307693vw" y="2.635094359196532em" fill="#aaa"/><rect width="0.09615384615384616em" height="0.35639390040639557em" x="9.038461538461538vw" y="2.6436060995936046em" fill="#aaa"/><rect width="0.09615384615384616em" height="0.5067948728015472em" x="9.134615384615385vw" y="2.4932051271984528em" fill="#aaa"/><rect width="0.09615384615384616em" height="0.5148174240423958em" x="9.230769230769232vw" y="2.4851825759576043em" fill="#aaa"/><rect width="0.09615384615384616em" height="0.5559892226865254em" x="9.326923076923077vw" y="2.4440107773134745em" fill="#aaa"/><rect width="0.09615384615384616em" height="0.6385920504163831em" x="9.423076923076923vw" y="2.361407949583617em" fill="#aaa"/><rect width="0.09615384615384616em" height="0.5881763675513769em" x="9.51923076923077vw" y="2.4118236324486233em" fill="#aaa"/><rect width="0.09615384615384616em" height="0.6185709329356115em" x="9.615384615384617vw" y="2.3814290670643885em" fill="#aaa"/><rect width="0.09615384615384616em" height="0.42243792837176475em" x="9.711538461538462vw" y="2.5775620716282353em" fill="#aaa"/><rect width="0.09615384615384616em" height="0.4153484685310772em" x="9.807692307692308vw" y="2.5846515314689227em" fill="#aaa"/><rect width="0.09615384615384616em" height="0.9906851054210641em" x="9.903846153846155vw" y="2.009314894578936em" fill="#aaa"/></svg>