<?xml version="1.0" standalone="no"?>
<svg xmlns:xlink="http://www.w3.org/1999/xlink" xmlns="http://www.w3.org/2000/svg" class="topic-graph" style="width: 100em; height: 30em; text-align: center;"><rect width="0.9615384615384616em" height="0.26254481764402743em" x="0em" y="29.737455182355973em" fill="#aaa"/><rect width="0.9615384615384616em" height="11.035687195017731em" x="0.9615384615384616em" y="18.96431280498227em" fill="#aaa"/><rect width="0.9615384615384616em" height="3.431777270517101em" x="1.9230769230769231em" y="26.568222729482898em" fill="#aaa"/><rect width="0.9615384615384616em" height="2.5678265140714274em" x="2.8846153846153846em" y="27.432173485928573em" fill="#aaa"/><rect width="0.9615384615384616em" height="5.049335326609564em" x="3.8461538461538463em" y="24.950664673390435em" fill="#aaa"/><rect width="0.9615384615384616em" height="2.3731614926968447em" x="4.8076923076923075em" y="27.626838507303155em" fill="#aaa"/><rect width="0.9615384615384616em" height="3.1804891754202527em" x="5.769230769230769em" y="26.819510824579748em" fill="#aaa"/><rect width="0.9615384615384616em" height="0.15844307656943402em" x="6.730769230769231em" y="29.841556923430566em" fill="#aaa"/><rect width="0.9615384615384616em" height="0.8371989203053352em" x="7.6923076923076925em" y="29.162801079694663em" fill="#aaa"/><rect width="0.9615384615384616em" height="3.652369599562715em" x="8.653846153846153em" y="26.347630400437286em" fill="#aaa"/><rect width="0.9615384615384616em" height="1.9097228531126045em" x="9.615384615384615em" y="28.090277146887395em" fill="#aaa"/><rect width="0.9615384615384616em" height="10.199250465823738em" x="10.576923076923077em" y="19.800749534176262em" fill="#aaa"/><rect width="0.9615384615384616em" height="3.8365569059905087em" x="11.538461538461538em" y="26.16344309400949em" fill="#aaa"/><rect width="0.9615384615384616em" height="1.0610636929596582em" x="12.5em" y="28.938936307040343em" fill="#aaa"/><rect width="0.9615384615384616em" height="0.9138637374382534em" x="13.461538461538462em" y="29.086136262561748em" fill="#aaa"/><rect width="0.9615384615384616em" height="2.115960701764557em" x="14.423076923076923em" y="27.884039298235443em" fill="#aaa"/><rect width="0.9615384615384616em" height="6.724677840400665em" x="15.384615384615385em" y="23.275322159599334em" fill="#aaa"/><rect width="0.9615384615384616em" height="3.1755816829028034em" x="16.346153846153847em" y="26.824418317097198em" fill="#aaa"/><rect width="0.9615384615384616em" height="2.480852107891044em" x="17.307692307692307em" y="27.519147892108954em" fill="#aaa"/><rect width="0.9615384615384616em" height="12.224233020279772em" x="18.26923076923077em" y="17.775766979720228em" fill="#aaa"/><rect width="0.9615384615384616em" height="10.25596122307951em" x="19.23076923076923em" y="19.74403877692049em" fill="#aaa"/><rect width="0.9615384615384616em" height="0.5025955901536232em" x="20.192307692307693em" y="29.497404409846375em" fill="#aaa"/><rect width="0.9615384615384616em" height="1.71241110166776em" x="21.153846153846153em" y="28.28758889833224em" fill="#aaa"/><rect width="0.9615384615384616em" height="2.0533555363494966em" x="22.115384615384617em" y="27.946644463650504em" fill="#aaa"/><rect width="0.9615384615384616em" height="11.407293977759313em" x="23.076923076923077em" y="18.592706022240687em" fill="#aaa"/><rect width="0.9615384615384616em" height="5.3947470587924em" x="24.03846153846154em" y="24.6052529412076em" fill="#aaa"/><rect width="0.9615384615384616em" height="2.595503040495208em" x="25em" y="27.40449695950479em" fill="#aaa"/><rect width="0.9615384615384616em" height="3.24770795138517em" x="25.961538461538463em" y="26.75229204861483em" fill="#aaa"/><rect width="0.9615384615384616em" height="9.216910441350835em" x="26.923076923076923em" y="20.783089558649166em" fill="#aaa"/><rect width="0.9615384615384616em" height="1.8987081302588074em" x="27.884615384615387em" y="28.101291869741193em" fill="#aaa"/><rect width="0.9615384615384616em" height="5.286198471791616em" x="28.846153846153847em" y="24.713801528208386em" fill="#aaa"/><rect width="0.9615384615384616em" height="3.43985424912876em" x="29.80769230769231em" y="26.56014575087124em" fill="#aaa"/><rect width="0.9615384615384616em" height="7.439862734247383em" x="30.76923076923077em" y="22.560137265752616em" fill="#aaa"/><rect width="0.9615384615384616em" height="2.9751789972359535em" x="31.73076923076923em" y="27.024821002764046em" fill="#aaa"/><rect width="0.9615384615384616em" height="4.086470625784926em" x="32.69230769230769em" y="25.913529374215074em" fill="#aaa"/><rect width="0.9615384615384616em" height="2.1364955023960333em" x="33.65384615384615em" y="27.863504497603966em" fill="#aaa"/><rect width="0.9615384615384616em" height="1.7775740752922564em" x="34.61538461538461em" y="28.222425924707743em" fill="#aaa"/><rect width="0.9615384615384616em" height="2.7415153523899067em" x="35.57692307692308em" y="27.258484647610093em" fill="#aaa"/><rect width="0.9615384615384616em" height="5.044791778106063em" x="36.53846153846154em" y="24.955208221893937em" fill="#aaa"/><rect width="0.9615384615384616em" height="3.0450083213889525em" x="37.5em" y="26.954991678611048em" fill="#aaa"/><rect width="0.9615384615384616em" height="3.736061836904678em" x="38.46153846153846em" y="26.26393816309532em" fill="#aaa"/><rect width="0.9615384615384616em" height="2.921312792540864em" x="39.42307692307693em" y="27.078687207459136em" fill="#aaa"/><rect width="0.9615384615384616em" height="3.5444552513992686em" x="40.38461538461539em" y="26.45554474860073em" fill="#aaa"/><rect width="0.9615384615384616em" height="3.30055013986096em" x="41.34615384615385em" y="26.69944986013904em" fill="#aaa"/><rect width="0.9615384615384616em" height="4.9204807925712934em" x="42.30769230769231em" y="25.079519207428707em" fill="#aaa"/><rect width="0.9615384615384616em" height="8.502271560956922em" x="43.269230769230774em" y="21.49772843904308em" fill="#aaa"/><rect width="0.9615384615384616em" height="2.100122399197289em" x="44.23076923076923em" y="27.89987760080271em" fill="#aaa"/><rect width="0.9615384615384616em" height="3.20941428268188em" x="45.19230769230769em" y="26.79058571731812em" fill="#aaa"/><rect width="0.9615384615384616em" height="30em" x="46.15384615384615em" y="0em" fill="#aaa"/><rect width="0.9615384615384616em" height="17.447065303153035em" x="47.11538461538461em" y="12.552934696846965em" fill="#aaa"/><rect width="0.9615384615384616em" height="10.17001329088732em" x="48.07692307692308em" y="19.82998670911268em" fill="#aaa"/><rect width="0.9615384615384616em" height="5.930148129819831em" x="49.03846153846154em" y="24.06985187018017em" fill="#aaa"/><rect width="0.9615384615384616em" height="12.37948801618209em" x="50em" y="17.62051198381791em" fill="#aaa"/><rect width="0.9615384615384616em" height="6.25825795002402em" x="50.96153846153846em" y="23.74174204997598em" fill="#aaa"/><rect width="0.9615384615384616em" height="5.224822802925458em" x="51.92307692307693em" y="24.77517719707454em" fill="#aaa"/><rect width="0.9615384615384616em" height="1.8416600919544093em" x="52.88461538461539em" y="28.15833990804559em" fill="#aaa"/><rect width="0.9615384615384616em" height="7.9640160922466725em" x="53.84615384615385em" y="22.035983907753327em" fill="#aaa"/><rect width="0.9615384615384616em" height="1.783666804600078em" x="54.80769230769231em" y="28.216333195399923em" fill="#aaa"/><rect width="0.9615384615384616em" height="2.6627669522051276em" x="55.769230769230774em" y="27.33723304779487em" fill="#aaa"/><rect width="0.9615384615384616em" height="1.9185486274194659em" x="56.73076923076923em" y="28.081451372580535em" fill="#aaa"/><rect width="0.9615384615384616em" height="4.588472595594395em" x="57.69230769230769em" y="25.411527404405604em" fill="#aaa"/><rect width="0.9615384615384616em" height="2.55078702149395em" x="58.65384615384615em" y="27.44921297850605em" fill="#aaa"/><rect width="0.9615384615384616em" height="2.760644951873517em" x="59.61538461538462em" y="27.239355048126484em" fill="#aaa"/><rect width="0.9615384615384616em" height="1.6554654064266774em" x="60.57692307692308em" y="28.34453459357332em" fill="#aaa"/><rect width="0.9615384615384616em" height="4.299422210294856em" x="61.53846153846154em" y="25.700577789705143em" fill="#aaa"/><rect width="0.9615384615384616em" height="3.5676608129457437em" x="62.5em" y="26.432339187054257em" fill="#aaa"/><rect width="0.9615384615384616em" height="4.564454113547974em" x="63.46153846153846em" y="25.435545886452026em" fill="#aaa"/><rect width="0.9615384615384616em" height="2.579705582238474em" x="64.42307692307692em" y="27.420294417761525em" fill="#aaa"/><rect width="0.9615384615384616em" height="5.339136642924638em" x="65.38461538461539em" y="24.660863357075364em" fill="#aaa"/><rect width="0.9615384615384616em" height="3.774080536534062em" x="66.34615384615385em" y="26.22591946346594em" fill="#aaa"/><rect width="0.9615384615384616em" height="2.324985126564474em" x="67.3076923076923em" y="27.675014873435526em" fill="#aaa"/><rect width="0.9615384615384616em" height="3.0812482139433204em" x="68.26923076923077em" y="26.91875178605668em" fill="#aaa"/><rect width="0.9615384615384616em" height="6.823723290333043em" x="69.23076923076923em" y="23.176276709666958em" fill="#aaa"/><rect width="0.9615384615384616em" height="4.064203672778199em" x="70.1923076923077em" y="25.9357963272218em" fill="#aaa"/><rect width="0.9615384615384616em" height="5.109595218649928em" x="71.15384615384616em" y="24.89040478135007em" fill="#aaa"/><rect width="0.9615384615384616em" height="5.434190810503533em" x="72.11538461538461em" y="24.565809189496466em" fill="#aaa"/><rect width="0.9615384615384616em" height="4.255993465844201em" x="73.07692307692308em" y="25.7440065341558em" fill="#aaa"/><rect width="0.9615384615384616em" height="2.695708831377142em" x="74.03846153846155em" y="27.304291168622857em" fill="#aaa"/><rect width="0.9615384615384616em" height="2.676057485782082em" x="75em" y="27.32394251421792em" fill="#aaa"/><rect width="0.9615384615384616em" height="3.9988904620380614em" x="75.96153846153847em" y="26.001109537961938em" fill="#aaa"/><rect width="0.9615384615384616em" height="3.3172923885541126em" x="76.92307692307692em" y="26.68270761144589em" fill="#aaa"/><rect width="0.9615384615384616em" height="3.0236405431666045em" x="77.88461538461539em" y="26.976359456833396em" fill="#aaa"/><rect width="0.9615384615384616em" height="4.6375662385244905em" x="78.84615384615385em" y="25.362433761475508em" fill="#aaa"/><rect width="0.9615384615384616em" height="5.704612271527917em" x="79.8076923076923em" y="24.295387728472083em" fill="#aaa"/><rect width="0.9615384615384616em" height="6.344352588462427em" x="80.76923076923077em" y="23.655647411537572em" fill="#aaa"/><rect width="0.9615384615384616em" height="4.7772487978376335em" x="81.73076923076923em" y="25.222751202162367em" fill="#aaa"/><rect width="0.9615384615384616em" height="1.7025478296790357em" x="82.6923076923077em" y="28.297452170320966em" fill="#aaa"/><rect width="0.9615384615384616em" height="4.263868296236983em" x="83.65384615384616em" y="25.736131703763018em" fill="#aaa"/><rect width="0.9615384615384616em" height="3.703641614034536em" x="84.61538461538461em" y="26.296358385965465em" fill="#aaa"/><rect width="0.9615384615384616em" height="22.383826038173318em" x="85.57692307692308em" y="7.616173961826682em" fill="#aaa"/><rect width="0.9615384615384616em" height="5.728348671214644em" x="86.53846153846155em" y="24.271651328785357em" fill="#aaa"/><rect width="0.9615384615384616em" height="8.409201731970288em" x="87.5em" y="21.59079826802971em" fill="#aaa"/><rect width="0.9615384615384616em" height="6.017834112306266em" x="88.46153846153847em" y="23.982165887693732em" fill="#aaa"/><rect width="0.9615384615384616em" height="2.888654219805865em" x="89.42307692307692em" y="27.111345780194135em" fill="#aaa"/><rect width="0.9615384615384616em" height="3.9846304523784553em" x="90.38461538461539em" y="26.015369547621546em" fill="#aaa"/><rect width="0.9615384615384616em" height="4.6867583045026535em" x="91.34615384615385em" y="25.313241695497346em" fill="#aaa"/><rect width="0.9615384615384616em" height="4.8042741826096105em" x="92.3076923076923em" y="25.19572581739039em" fill="#aaa"/><rect width="0.9615384615384616em" height="4.22951551850505em" x="93.26923076923077em" y="25.77048448149495em" fill="#aaa"/><rect width="0.9615384615384616em" height="3.1671322248299556em" x="94.23076923076923em" y="26.832867775170044em" fill="#aaa"/><rect width="0.9615384615384616em" height="4.759409934318923em" x="95.1923076923077em" y="25.240590065681076em" fill="#aaa"/><rect width="0.9615384615384616em" height="4.174864351789196em" x="96.15384615384616em" y="25.825135648210804em" fill="#aaa"/><rect width="0.9615384615384616em" height="3.5711301177162396em" x="97.11538461538461em" y="26.42886988228376em" fill="#aaa"/><rect width="0.9615384615384616em" height="5.088230072836852em" x="98.07692307692308em" y="24.91176992716315em" fill="#aaa"/><rect width="0.9615384615384616em" height="5.022947845788386em" x="99.03846153846155em" y="24.977052154211613em" fill="#aaa"/></svg>