<?xml version="1.0" standalone="no"?>
<svg xmlns:xlink="http://www.w3.org/1999/xlink" xmlns="http://www.w3.org/2000/svg" class="topic-graph" style="width: 10vw; height: 3em; text-align: center;"><rect width="0.09615384615384616em" height="0.2581869739054149em" x="0vw" y="2.741813026094585em" fill="#aaa"/><rect width="0.09615384615384616em" height="0.8300196465947532em" x="0.09615384615384616vw" y="2.1699803534052466em" fill="#aaa"/><rect width="0.09615384615384616em" height="0.024439625362585066em" x="0.19230769230769232vw" y="2.975560374637415em" fill="#aaa"/><rect width="0.09615384615384616em" height="0.22159254482938165em" x="0.2884615384615385vw" y="2.778407455170618em" fill="#aaa"/><rect width="0.09615384615384616em" height="0.2343410331396139em" x="0.38461538461538464vw" y="2.765658966860386em" fill="#aaa"/><rect width="0.09615384615384616em" height="0.04459579338975138em" x="0.4807692307692308vw" y="2.9554042066102486em" fill="#aaa"/><rect width="0.09615384615384616em" height="0.045953895234232336em" x="0.576923076923077vw" y="2.9540461047657676em" fill="#aaa"/><rect width="0.09615384615384616em" height="0.020909566014078156em" x="0.6730769230769231vw" y="2.9790904339859217em" fill="#aaa"/><rect width="0.09615384615384616em" height="2.845938980591782em" x="0.7692307692307693vw" y="0.15406101940821815em" fill="#aaa"/><rect width="0.09615384615384616em" height="1.4952070168360263em" x="0.8653846153846154vw" y="1.5047929831639737em" fill="#aaa"/><rect width="0.09615384615384616em" height="0.04478951231703912em" x="0.9615384615384616vw" y="2.955210487682961em" fill="#aaa"/><rect width="0.09615384615384616em" height="0.0416430573226449em" x="1.0576923076923077vw" y="2.958356942677355em" fill="#aaa"/><rect width="0.09615384615384616em" height="0.10080372530417694em" x="1.153846153846154vw" y="2.899196274695823em" fill="#aaa"/><rect width="0.09615384615384616em" height="0.30246858172820157em" x="1.25vw" y="2.697531418271798em" fill="#aaa"/><rect width="0.09615384615384616em" height="0.5306455214711023em" x="1.3461538461538463vw" y="2.4693544785288974em" fill="#aaa"/><rect width="0.09615384615384616em" height="0.09775787317831577em" x="1.4423076923076923vw" y="2.902242126821684em" fill="#aaa"/><rect width="0.09615384615384616em" height="0.11372173237432778em" x="1.5384615384615385vw" y="2.886278267625672em" fill="#aaa"/><rect width="0.09615384615384616em" height="0.06686260656409677em" x="1.6346153846153848vw" y="2.9331373934359033em" fill="#aaa"/><rect width="0.09615384615384616em" height="0.7384340768388828em" x="1.7307692307692308vw" y="2.2615659231611174em" fill="#aaa"/><rect width="0.09615384615384616em" height="0.4947965760131947em" x="1.826923076923077vw" y="2.5052034239868055em" fill="#aaa"/><rect width="0.09615384615384616em" height="0.031871198947092144em" x="1.9230769230769231vw" y="2.9681288010529077em" fill="#aaa"/><rect width="0.09615384615384616em" height="0.5181436382929865em" x="2.019230769230769vw" y="2.4818563617070133em" fill="#aaa"/><rect width="0.09615384615384616em" height="0.022735063551320565em" x="2.1153846153846154vw" y="2.9772649364486794em" fill="#aaa"/><rect width="0.09615384615384616em" height="0.06850365608447892em" x="2.2115384615384617vw" y="2.931496343915521em" fill="#aaa"/><rect width="0.09615384615384616em" height="0.025101740349257724em" x="2.307692307692308vw" y="2.9748982596507423em" fill="#aaa"/><rect width="0.09615384615384616em" height="0.3552073689699296em" x="2.403846153846154vw" y="2.6447926310300702em" fill="#aaa"/><rect width="0.09615384615384616em" height="0.2458299244141959em" x="2.5vw" y="2.754170075585804em" fill="#aaa"/><rect width="0.09615384615384616em" height="0.512286762134778em" x="2.5961538461538463vw" y="2.487713237865222em" fill="#aaa"/><rect width="0.09615384615384616em" height="1.2272185413794299em" x="2.6923076923076925vw" y="1.7727814586205701em" fill="#aaa"/><rect width="0.09615384615384616em" height="1.2428327735084181em" x="2.7884615384615388vw" y="1.7571672264915819em" fill="#aaa"/><rect width="0.09615384615384616em" height="0.6142109663732198em" x="2.8846153846153846vw" y="2.3857890336267804em" fill="#aaa"/><rect width="0.09615384615384616em" height="0.5851650823326802em" x="2.980769230769231vw" y="2.41483491766732em" fill="#aaa"/><rect width="0.09615384615384616em" height="0.06675181722996351em" x="3.076923076923077vw" y="2.9332481827700363em" fill="#aaa"/><rect width="0.09615384615384616em" height="0.048363170376905844em" x="3.1730769230769234vw" y="2.9516368296230944em" fill="#aaa"/><rect width="0.09615384615384616em" height="1.2134609769269373em" x="3.2692307692307696vw" y="1.7865390230730627em" fill="#aaa"/><rect width="0.09615384615384616em" height="0.19594704145696443em" x="3.3653846153846154vw" y="2.8040529585430356em" fill="#aaa"/><rect width="0.09615384615384616em" height="0.6282264694161271em" x="3.4615384615384617vw" y="2.371773530583873em" fill="#aaa"/><rect width="0.09615384615384616em" height="0.40258286350801736em" x="3.557692307692308vw" y="2.5974171364919827em" fill="#aaa"/><rect width="0.09615384615384616em" height="2.420256003452834em" x="3.653846153846154vw" y="0.5797439965471658em" fill="#aaa"/><rect width="0.09615384615384616em" height="0.1464769782106013em" x="3.75vw" y="2.8535230217893988em" fill="#aaa"/><rect width="0.09615384615384616em" height="0.11163626447238198em" x="3.8461538461538463vw" y="2.888363735527618em" fill="#aaa"/><rect width="0.09615384615384616em" height="0.18233073043827303em" x="3.9423076923076925vw" y="2.817669269561727em" fill="#aaa"/><rect width="0.09615384615384616em" height="0.09645099316986983em" x="4.038461538461538vw" y="2.90354900683013em" fill="#aaa"/><rect width="0.09615384615384616em" height="0.7349932815380308em" x="4.134615384615385vw" y="2.265006718461969em" fill="#aaa"/><rect width="0.09615384615384616em" height="0.040129714776200504em" x="4.230769230769231vw" y="2.9598702852237997em" fill="#aaa"/><rect width="0.09615384615384616em" height="0.11960615915233436em" x="4.3269230769230775vw" y="2.8803938408476655em" fill="#aaa"/><rect width="0.09615384615384616em" height="0.4351171295658822em" x="4.423076923076923vw" y="2.5648828704341176em" fill="#aaa"/><rect width="0.09615384615384616em" height="0.07888846404940993em" x="4.519230769230769vw" y="2.92111153595059em" fill="#aaa"/><rect width="0.09615384615384616em" height="0.5623573168108573em" x="4.615384615384616vw" y="2.437642683189143em" fill="#aaa"/><rect width="0.09615384615384616em" height="0.15941802674193517em" x="4.711538461538462vw" y="2.8405819732580646em" fill="#aaa"/><rect width="0.09615384615384616em" height="0.0977072566079612em" x="4.807692307692308vw" y="2.9022927433920387em" fill="#aaa"/><rect width="0.09615384615384616em" height="0.6869545316774281em" x="4.903846153846154vw" y="2.3130454683225716em" fill="#aaa"/><rect width="0.09615384615384616em" height="0.2656098175470766em" x="5vw" y="2.7343901824529233em" fill="#aaa"/><rect width="0.09615384615384616em" height="0.7367155840537762em" x="5.096153846153847vw" y="2.2632844159462238em" fill="#aaa"/><rect width="0.09615384615384616em" height="0.23115012043557387em" x="5.1923076923076925vw" y="2.768849879564426em" fill="#aaa"/><rect width="0.09615384615384616em" height="0.40185504519641785em" x="5.288461538461538vw" y="2.598144954803582em" fill="#aaa"/><rect width="0.09615384615384616em" height="0.7704339893384952em" x="5.384615384615385vw" y="2.2295660106615047em" fill="#aaa"/><rect width="0.09615384615384616em" height="0.8176714752812317em" x="5.480769230769231vw" y="2.182328524718768em" fill="#aaa"/><rect width="0.09615384615384616em" height="0.5655660116116072em" x="5.5769230769230775vw" y="2.4344339883883928em" fill="#aaa"/><rect width="0.09615384615384616em" height="1.6737945990285397em" x="5.673076923076923vw" y="1.3262054009714603em" fill="#aaa"/><rect width="0.09615384615384616em" height="3em" x="5.769230769230769vw" y="0em" fill="#aaa"/><rect width="0.09615384615384616em" height="0.08780682029583511em" x="5.865384615384616vw" y="2.9121931797041647em" fill="#aaa"/><rect width="0.09615384615384616em" height="0.6237915946603958em" x="5.961538461538462vw" y="2.376208405339604em" fill="#aaa"/><rect width="0.09615384615384616em" height="0.345442695014202em" x="6.057692307692308vw" y="2.654557304985798em" fill="#aaa"/><rect width="0.09615384615384616em" height="0.38330316227711475em" x="6.153846153846154vw" y="2.6166968377228854em" fill="#aaa"/><rect width="0.09615384615384616em" height="0.17263671412075665em" x="6.25vw" y="2.8273632858792435em" fill="#aaa"/><rect width="0.09615384615384616em" height="0.9981926942145265em" x="6.346153846153847vw" y="2.0018073057854737em" fill="#aaa"/><rect width="0.09615384615384616em" height="1.3733917624202852em" x="6.4423076923076925vw" y="1.6266082375797148em" fill="#aaa"/><rect width="0.09615384615384616em" height="1.695736512087068em" x="6.538461538461539vw" y="1.304263487912932em" fill="#aaa"/><rect width="0.09615384615384616em" height="0.09704180969905682em" x="6.634615384615385vw" y="2.9029581903009434em" fill="#aaa"/><rect width="0.09615384615384616em" height="1.1828653352946084em" x="6.730769230769231vw" y="1.8171346647053916em" fill="#aaa"/><rect width="0.09615384615384616em" height="0.16566018126343865em" x="6.8269230769230775vw" y="2.834339818736561em" fill="#aaa"/><rect width="0.09615384615384616em" height="0.24406493760973302em" x="6.923076923076923vw" y="2.755935062390267em" fill="#aaa"/><rect width="0.09615384615384616em" height="0.3919573839147641em" x="7.01923076923077vw" y="2.608042616085236em" fill="#aaa"/><rect width="0.09615384615384616em" height="0.8033119137009124em" x="7.115384615384616vw" y="2.196688086299088em" fill="#aaa"/><rect width="0.09615384615384616em" height="0.5792616629450584em" x="7.211538461538462vw" y="2.4207383370549413em" fill="#aaa"/><rect width="0.09615384615384616em" height="0.5991952411163074em" x="7.307692307692308vw" y="2.4008047588836927em" fill="#aaa"/><rect width="0.09615384615384616em" height="2.0657185450260753em" x="7.403846153846154vw" y="0.9342814549739247em" fill="#aaa"/><rect width="0.09615384615384616em" height="0.7802182386428154em" x="7.5vw" y="2.2197817613571846em" fill="#aaa"/><rect width="0.09615384615384616em" height="0.6424573280353362em" x="7.596153846153847vw" y="2.357542671964664em" fill="#aaa"/><rect width="0.09615384615384616em" height="0.5455568704443597em" x="7.6923076923076925vw" y="2.4544431295556404em" fill="#aaa"/><rect width="0.09615384615384616em" height="0.9719593387378759em" x="7.788461538461539vw" y="2.028040661262124em" fill="#aaa"/><rect width="0.09615384615384616em" height="1.6635662436448062em" x="7.884615384615385vw" y="1.3364337563551938em" fill="#aaa"/><rect width="0.09615384615384616em" height="0.7954593396603048em" x="7.980769230769231vw" y="2.204540660339695em" fill="#aaa"/><rect width="0.09615384615384616em" height="1.3141051068648113em" x="8.076923076923077vw" y="1.6858948931351887em" fill="#aaa"/><rect width="0.09615384615384616em" height="0.5973607039631014em" x="8.173076923076923vw" y="2.4026392960368987em" fill="#aaa"/><rect width="0.09615384615384616em" height="0.15876934064060744em" x="8.26923076923077vw" y="2.8412306593593923em" fill="#aaa"/><rect width="0.09615384615384616em" height="0.8090126297421593em" x="8.365384615384615vw" y="2.1909873702578406em" fill="#aaa"/><rect width="0.09615384615384616em" height="0.3923336383414897em" x="8.461538461538462vw" y="2.6076663616585103em" fill="#aaa"/><rect width="0.09615384615384616em" height="1.0034461448539775em" x="8.557692307692308vw" y="1.9965538551460225em" fill="#aaa"/><rect width="0.09615384615384616em" height="1.1396438858994717em" x="8.653846153846155vw" y="1.8603561141005283em" fill="#aaa"/><rect width="0.09615384615384616em" height="0.9246778695911577em" x="8.75vw" y="2.0753221304088423em" fill="#aaa"/><rect width="0.09615384615384616em" height="0.9853246695810638em" x="8.846153846153847vw" y="2.014675330418936em" fill="#aaa"/><rect width="0.09615384615384616em" height="0.5948513966143281em" x="8.942307692307693vw" y="2.4051486033856717em" fill="#aaa"/><rect width="0.09615384615384616em" height="0.472834579934148em" x="9.038461538461538vw" y="2.527165420065852em" fill="#aaa"/><rect width="0.09615384615384616em" height="0.6451778551521263em" x="9.134615384615385vw" y="2.3548221448478737em" fill="#aaa"/><rect width="0.09615384615384616em" height="0.31918752568742814em" x="9.230769230769232vw" y="2.680812474312572em" fill="#aaa"/><rect width="0.09615384615384616em" height="1.034100144649719em" x="9.326923076923077vw" y="1.965899855350281em" fill="#aaa"/><rect width="0.09615384615384616em" height="0.6670368968001734em" x="9.423076923076923vw" y="2.332963103199827em" fill="#aaa"/><rect width="0.09615384615384616em" height="0.49038661717527676em" x="9.51923076923077vw" y="2.5096133828247233em" fill="#aaa"/><rect width="0.09615384615384616em" height="0.7489323378967389em" x="9.615384615384617vw" y="2.251067662103261em" fill="#aaa"/><rect width="0.09615384615384616em" height="0.6727878265109142em" x="9.711538461538462vw" y="2.3272121734890856em" fill="#aaa"/><rect width="0.09615384615384616em" height="0.9296864758652521em" x="9.807692307692308vw" y="2.0703135241347477em" fill="#aaa"/><rect width="0.09615384615384616em" height="0.45680191273852em" x="9.903846153846155vw" y="2.54319808726148em" fill="#aaa"/></svg>