<?xml version="1.0" standalone="no"?>
<svg xmlns:xlink="http://www.w3.org/1999/xlink" xmlns="http://www.w3.org/2000/svg" class="topic-graph" style="width: 10vw; height: 3em; text-align: center;"><rect width="0.09615384615384616em" height="0.07358433488979983em" x="0vw" y="2.9264156651102002em" fill="#aaa"/><rect width="0.09615384615384616em" height="0.5409113063450797em" x="0.09615384615384616vw" y="2.4590886936549206em" fill="#aaa"/><rect width="0.09615384615384616em" height="0.12056642696377325em" x="0.19230769230769232vw" y="2.8794335730362266em" fill="#aaa"/><rect width="0.09615384615384616em" height="0.057740948048774055em" x="0.2884615384615385vw" y="2.942259051951226em" fill="#aaa"/><rect width="0.09615384615384616em" height="0.2185431416602567em" x="0.38461538461538464vw" y="2.781456858339743em" fill="#aaa"/><rect width="0.09615384615384616em" height="0.13523996560209384em" x="0.4807692307692308vw" y="2.8647600343979063em" fill="#aaa"/><rect width="0.09615384615384616em" height="0.036679360392729954em" x="0.576923076923077vw" y="2.96332063960727em" fill="#aaa"/><rect width="0.09615384615384616em" height="0.030463147087374503em" x="0.6730769230769231vw" y="2.9695368529126256em" fill="#aaa"/><rect width="0.09615384615384616em" height="0.018597852778947873em" x="0.7692307692307693vw" y="2.9814021472210523em" fill="#aaa"/><rect width="0.09615384615384616em" height="0.06026248631512386em" x="0.8653846153846154vw" y="2.939737513684876em" fill="#aaa"/><rect width="0.09615384615384616em" height="0.1671725204181183em" x="0.9615384615384616vw" y="2.8328274795818817em" fill="#aaa"/><rect width="0.09615384615384616em" height="0.22775764202840756em" x="1.0576923076923077vw" y="2.7722423579715922em" fill="#aaa"/><rect width="0.09615384615384616em" height="0.3146772421174803em" x="1.153846153846154vw" y="2.6853227578825196em" fill="#aaa"/><rect width="0.09615384615384616em" height="0.17813285922495956em" x="1.25vw" y="2.8218671407750406em" fill="#aaa"/><rect width="0.09615384615384616em" height="0.035358850913323824em" x="1.3461538461538463vw" y="2.964641149086676em" fill="#aaa"/><rect width="0.09615384615384616em" height="0.21637434886883533em" x="1.4423076923076923vw" y="2.783625651131165em" fill="#aaa"/><rect width="0.09615384615384616em" height="0.06951256630676939em" x="1.5384615384615385vw" y="2.9304874336932305em" fill="#aaa"/><rect width="0.09615384615384616em" height="0.5164983041115381em" x="1.6346153846153848vw" y="2.483501695888462em" fill="#aaa"/><rect width="0.09615384615384616em" height="0.21581967542502484em" x="1.7307692307692308vw" y="2.784180324574975em" fill="#aaa"/><rect width="0.09615384615384616em" height="1.159266970243533em" x="1.826923076923077vw" y="1.840733029756467em" fill="#aaa"/><rect width="0.09615384615384616em" height="1.6440014322532908em" x="1.9230769230769231vw" y="1.3559985677467092em" fill="#aaa"/><rect width="0.09615384615384616em" height="0.8874207158499665em" x="2.019230769230769vw" y="2.1125792841500335em" fill="#aaa"/><rect width="0.09615384615384616em" height="0.0687382583171673em" x="2.1153846153846154vw" y="2.9312617416828326em" fill="#aaa"/><rect width="0.09615384615384616em" height="0.2731338535275377em" x="2.2115384615384617vw" y="2.7268661464724624em" fill="#aaa"/><rect width="0.09615384615384616em" height="0.17018393473859947em" x="2.307692307692308vw" y="2.8298160652614004em" fill="#aaa"/><rect width="0.09615384615384616em" height="0.21009749128890487em" x="2.403846153846154vw" y="2.789902508711095em" fill="#aaa"/><rect width="0.09615384615384616em" height="0.5443656945369768em" x="2.5vw" y="2.455634305463023em" fill="#aaa"/><rect width="0.09615384615384616em" height="1.2538252284072302em" x="2.5961538461538463vw" y="1.7461747715927698em" fill="#aaa"/><rect width="0.09615384615384616em" height="0.20099242985447396em" x="2.6923076923076925vw" y="2.799007570145526em" fill="#aaa"/><rect width="0.09615384615384616em" height="0.16683786728360808em" x="2.7884615384615388vw" y="2.833162132716392em" fill="#aaa"/><rect width="0.09615384615384616em" height="3em" x="2.8846153846153846vw" y="0em" fill="#aaa"/><rect width="0.09615384615384616em" height="1.1795525655528105em" x="2.980769230769231vw" y="1.8204474344471895em" fill="#aaa"/><rect width="0.09615384615384616em" height="0.23020544127288678em" x="3.076923076923077vw" y="2.769794558727113em" fill="#aaa"/><rect width="0.09615384615384616em" height="0.7202435170615555em" x="3.1730769230769234vw" y="2.2797564829384447em" fill="#aaa"/><rect width="0.09615384615384616em" height="0.4367759300763697em" x="3.2692307692307696vw" y="2.5632240699236304em" fill="#aaa"/><rect width="0.09615384615384616em" height="0.2488698793424372em" x="3.3653846153846154vw" y="2.751130120657563em" fill="#aaa"/><rect width="0.09615384615384616em" height="0.6388447833963613em" x="3.4615384615384617vw" y="2.3611552166036387em" fill="#aaa"/><rect width="0.09615384615384616em" height="0.2603158204342832em" x="3.557692307692308vw" y="2.739684179565717em" fill="#aaa"/><rect width="0.09615384615384616em" height="0.6466135380160385em" x="3.653846153846154vw" y="2.3533864619839617em" fill="#aaa"/><rect width="0.09615384615384616em" height="1.1246531274153766em" x="3.75vw" y="1.8753468725846234em" fill="#aaa"/><rect width="0.09615384615384616em" height="0.48063040821468145em" x="3.8461538461538463vw" y="2.5193695917853187em" fill="#aaa"/><rect width="0.09615384615384616em" height="0.19745598305139497em" x="3.9423076923076925vw" y="2.802544016948605em" fill="#aaa"/><rect width="0.09615384615384616em" height="0.17115538000691133em" x="4.038461538461538vw" y="2.8288446199930886em" fill="#aaa"/><rect width="0.09615384615384616em" height="0.2719156136101745em" x="4.134615384615385vw" y="2.7280843863898254em" fill="#aaa"/><rect width="0.09615384615384616em" height="0.8717078924840465em" x="4.230769230769231vw" y="2.1282921075159535em" fill="#aaa"/><rect width="0.09615384615384616em" height="0.7347259895638314em" x="4.3269230769230775vw" y="2.2652740104361686em" fill="#aaa"/><rect width="0.09615384615384616em" height="0.4095594635397418em" x="4.423076923076923vw" y="2.590440536460258em" fill="#aaa"/><rect width="0.09615384615384616em" height="0.5167746330830615em" x="4.519230769230769vw" y="2.4832253669169386em" fill="#aaa"/><rect width="0.09615384615384616em" height="0.2448995836202022em" x="4.615384615384616vw" y="2.755100416379798em" fill="#aaa"/><rect width="0.09615384615384616em" height="0.11481722532744917em" x="4.711538461538462vw" y="2.885182774672551em" fill="#aaa"/><rect width="0.09615384615384616em" height="0.2258837528026188em" x="4.807692307692308vw" y="2.774116247197381em" fill="#aaa"/><rect width="0.09615384615384616em" height="0.20673348428918784em" x="4.903846153846154vw" y="2.7932665157108123em" fill="#aaa"/><rect width="0.09615384615384616em" height="0.08529708607986729em" x="5vw" y="2.9147029139201326em" fill="#aaa"/><rect width="0.09615384615384616em" height="0.3133251550443222em" x="5.096153846153847vw" y="2.686674844955678em" fill="#aaa"/><rect width="0.09615384615384616em" height="0.5693420800782546em" x="5.1923076923076925vw" y="2.4306579199217455em" fill="#aaa"/><rect width="0.09615384615384616em" height="0.4483836105012216em" x="5.288461538461538vw" y="2.5516163894987782em" fill="#aaa"/><rect width="0.09615384615384616em" height="0.11047542571801858em" x="5.384615384615385vw" y="2.8895245742819813em" fill="#aaa"/><rect width="0.09615384615384616em" height="0.1363918059909081em" x="5.480769230769231vw" y="2.863608194009092em" fill="#aaa"/><rect width="0.09615384615384616em" height="0.3608678420253293em" x="5.5769230769230775vw" y="2.6391321579746707em" fill="#aaa"/><rect width="0.09615384615384616em" height="0.0972533244693125em" x="5.673076923076923vw" y="2.9027466755306874em" fill="#aaa"/><rect width="0.09615384615384616em" height="0.3188493703275581em" x="5.769230769230769vw" y="2.681150629672442em" fill="#aaa"/><rect width="0.09615384615384616em" height="0.04826707788092009em" x="5.865384615384616vw" y="2.95173292211908em" fill="#aaa"/><rect width="0.09615384615384616em" height="0.21889717368412082em" x="5.961538461538462vw" y="2.781102826315879em" fill="#aaa"/><rect width="0.09615384615384616em" height="0.2564974221784089em" x="6.057692307692308vw" y="2.743502577821591em" fill="#aaa"/><rect width="0.09615384615384616em" height="0.8584676524950277em" x="6.153846153846154vw" y="2.141532347504972em" fill="#aaa"/><rect width="0.09615384615384616em" height="0.4473652220947997em" x="6.25vw" y="2.5526347779052em" fill="#aaa"/><rect width="0.09615384615384616em" height="0.543138366090416em" x="6.346153846153847vw" y="2.456861633909584em" fill="#aaa"/><rect width="0.09615384615384616em" height="0.49059471283875067em" x="6.4423076923076925vw" y="2.5094052871612496em" fill="#aaa"/><rect width="0.09615384615384616em" height="0.2406889706929897em" x="6.538461538461539vw" y="2.7593110293070104em" fill="#aaa"/><rect width="0.09615384615384616em" height="0.349664626352141em" x="6.634615384615385vw" y="2.650335373647859em" fill="#aaa"/><rect width="0.09615384615384616em" height="0.2700013244758117em" x="6.730769230769231vw" y="2.7299986755241883em" fill="#aaa"/><rect width="0.09615384615384616em" height="0.16347851538091585em" x="6.8269230769230775vw" y="2.8365214846190843em" fill="#aaa"/><rect width="0.09615384615384616em" height="0.17896547077139485em" x="6.923076923076923vw" y="2.821034529228605em" fill="#aaa"/><rect width="0.09615384615384616em" height="0.1720437810060283em" x="7.01923076923077vw" y="2.8279562189939718em" fill="#aaa"/><rect width="0.09615384615384616em" height="0.26722853505752436em" x="7.115384615384616vw" y="2.7327714649424757em" fill="#aaa"/><rect width="0.09615384615384616em" height="0.36681517259659174em" x="7.211538461538462vw" y="2.6331848274034084em" fill="#aaa"/><rect width="0.09615384615384616em" height="0.31432900978292166em" x="7.307692307692308vw" y="2.685670990217078em" fill="#aaa"/><rect width="0.09615384615384616em" height="0.6024239738220813em" x="7.403846153846154vw" y="2.3975760261779184em" fill="#aaa"/><rect width="0.09615384615384616em" height="0.4769318084231291em" x="7.5vw" y="2.523068191576871em" fill="#aaa"/><rect width="0.09615384615384616em" height="1.8003638602868839em" x="7.596153846153847vw" y="1.1996361397131161em" fill="#aaa"/><rect width="0.09615384615384616em" height="0.9595242873398262em" x="7.6923076923076925vw" y="2.040475712660174em" fill="#aaa"/><rect width="0.09615384615384616em" height="0.6779089909435377em" x="7.788461538461539vw" y="2.322091009056462em" fill="#aaa"/><rect width="0.09615384615384616em" height="0.9326365072422194em" x="7.884615384615385vw" y="2.0673634927577806em" fill="#aaa"/><rect width="0.09615384615384616em" height="0.46363662491349633em" x="7.980769230769231vw" y="2.536363375086504em" fill="#aaa"/><rect width="0.09615384615384616em" height="0.5612396788186311em" x="8.076923076923077vw" y="2.438760321181369em" fill="#aaa"/><rect width="0.09615384615384616em" height="0.3602718033512115em" x="8.173076923076923vw" y="2.6397281966487887em" fill="#aaa"/><rect width="0.09615384615384616em" height="0.6280847891788593em" x="8.26923076923077vw" y="2.3719152108211405em" fill="#aaa"/><rect width="0.09615384615384616em" height="0.21495701114537014em" x="8.365384615384615vw" y="2.78504298885463em" fill="#aaa"/><rect width="0.09615384615384616em" height="0.5452900101738015em" x="8.461538461538462vw" y="2.4547099898261986em" fill="#aaa"/><rect width="0.09615384615384616em" height="0.26036349058387476em" x="8.557692307692308vw" y="2.7396365094161252em" fill="#aaa"/><rect width="0.09615384615384616em" height="0.3517065613177518em" x="8.653846153846155vw" y="2.648293438682248em" fill="#aaa"/><rect width="0.09615384615384616em" height="0.5023294414898646em" x="8.75vw" y="2.4976705585101353em" fill="#aaa"/><rect width="0.09615384615384616em" height="1.1674508663458791em" x="8.846153846153847vw" y="1.8325491336541209em" fill="#aaa"/><rect width="0.09615384615384616em" height="0.34220121868022957em" x="8.942307692307693vw" y="2.6577987813197703em" fill="#aaa"/><rect width="0.09615384615384616em" height="0.3820803852111797em" x="9.038461538461538vw" y="2.6179196147888204em" fill="#aaa"/><rect width="0.09615384615384616em" height="0.4900331994560595em" x="9.134615384615385vw" y="2.5099668005439404em" fill="#aaa"/><rect width="0.09615384615384616em" height="0.3064907298067779em" x="9.230769230769232vw" y="2.693509270193222em" fill="#aaa"/><rect width="0.09615384615384616em" height="0.5180906284163em" x="9.326923076923077vw" y="2.4819093715836997em" fill="#aaa"/><rect width="0.09615384615384616em" height="0.25860652899058467em" x="9.423076923076923vw" y="2.7413934710094154em" fill="#aaa"/><rect width="0.09615384615384616em" height="0.6751237531860748em" x="9.51923076923077vw" y="2.3248762468139255em" fill="#aaa"/><rect width="0.09615384615384616em" height="0.7224747781802201em" x="9.615384615384617vw" y="2.27752522181978em" fill="#aaa"/><rect width="0.09615384615384616em" height="0.47481563997571735em" x="9.711538461538462vw" y="2.5251843600242827em" fill="#aaa"/><rect width="0.09615384615384616em" height="0.5655659383382884em" x="9.807692307692308vw" y="2.4344340616617117em" fill="#aaa"/><rect width="0.09615384615384616em" height="0.4785808301621588em" x="9.903846153846155vw" y="2.5214191698378414em" fill="#aaa"/></svg>