<?xml version="1.0" standalone="no"?>
<svg xmlns:xlink="http://www.w3.org/1999/xlink" xmlns="http://www.w3.org/2000/svg" class="topic-graph" style="width: 10vw; height: 3em; text-align: center;"><rect width="0.09615384615384616em" height="0.04834576086645238em" x="0vw" y="2.9516542391335476em" fill="#aaa"/><rect width="0.09615384615384616em" height="1.661059935647945em" x="0.09615384615384616vw" y="1.338940064352055em" fill="#aaa"/><rect width="0.09615384615384616em" height="0.05113319705199197em" x="0.19230769230769232vw" y="2.948866802948008em" fill="#aaa"/><rect width="0.09615384615384616em" height="0.1650749596728452em" x="0.2884615384615385vw" y="2.8349250403271546em" fill="#aaa"/><rect width="0.09615384615384616em" height="0.46279518679877096em" x="0.38461538461538464vw" y="2.537204813201229em" fill="#aaa"/><rect width="0.09615384615384616em" height="0.648992173874081em" x="0.4807692307692308vw" y="2.351007826125919em" fill="#aaa"/><rect width="0.09615384615384616em" height="0.8640448313867967em" x="0.576923076923077vw" y="2.1359551686132034em" fill="#aaa"/><rect width="0.09615384615384616em" height="0.09977294713785304em" x="0.6730769230769231vw" y="2.9002270528621468em" fill="#aaa"/><rect width="0.09615384615384616em" height="2.4006590802776984em" x="0.7692307692307693vw" y="0.5993409197223016em" fill="#aaa"/><rect width="0.09615384615384616em" height="0.9517802105915922em" x="0.8653846153846154vw" y="2.0482197894084075em" fill="#aaa"/><rect width="0.09615384615384616em" height="0.053631309511102954em" x="0.9615384615384616vw" y="2.946368690488897em" fill="#aaa"/><rect width="0.09615384615384616em" height="3em" x="1.0576923076923077vw" y="0em" fill="#aaa"/><rect width="0.09615384615384616em" height="0.8461532617976362em" x="1.153846153846154vw" y="2.153846738202364em" fill="#aaa"/><rect width="0.09615384615384616em" height="0.061527757512919286em" x="1.25vw" y="2.9384722424870806em" fill="#aaa"/><rect width="0.09615384615384616em" height="1.5535979547369425em" x="1.3461538461538463vw" y="1.4464020452630575em" fill="#aaa"/><rect width="0.09615384615384616em" height="0.3475990912557869em" x="1.4423076923076923vw" y="2.6524009087442133em" fill="#aaa"/><rect width="0.09615384615384616em" height="1.4424091694298884em" x="1.5384615384615385vw" y="1.5575908305701116em" fill="#aaa"/><rect width="0.09615384615384616em" height="0.6730435167954467em" x="1.6346153846153848vw" y="2.3269564832045533em" fill="#aaa"/><rect width="0.09615384615384616em" height="0.4195352912661723em" x="1.7307692307692308vw" y="2.5804647087338277em" fill="#aaa"/><rect width="0.09615384615384616em" height="0.09228435222028847em" x="1.826923076923077vw" y="2.9077156477797117em" fill="#aaa"/><rect width="0.09615384615384616em" height="0.1704062544714765em" x="1.9230769230769231vw" y="2.8295937455285234em" fill="#aaa"/><rect width="0.09615384615384616em" height="0.3776407118260936em" x="2.019230769230769vw" y="2.6223592881739064em" fill="#aaa"/><rect width="0.09615384615384616em" height="1.3497875712207499em" x="2.1153846153846154vw" y="1.6502124287792501em" fill="#aaa"/><rect width="0.09615384615384616em" height="0.4727899497179563em" x="2.2115384615384617vw" y="2.5272100502820436em" fill="#aaa"/><rect width="0.09615384615384616em" height="0.5143226233177863em" x="2.307692307692308vw" y="2.485677376682214em" fill="#aaa"/><rect width="0.09615384615384616em" height="0.4855782946088922em" x="2.403846153846154vw" y="2.5144217053911078em" fill="#aaa"/><rect width="0.09615384615384616em" height="0.6198166802285222em" x="2.5vw" y="2.380183319771478em" fill="#aaa"/><rect width="0.09615384615384616em" height="0.5726945846487713em" x="2.5961538461538463vw" y="2.4273054153512286em" fill="#aaa"/><rect width="0.09615384615384616em" height="0.8555242693307038em" x="2.6923076923076925vw" y="2.144475730669296em" fill="#aaa"/><rect width="0.09615384615384616em" height="0.902446130514984em" x="2.7884615384615388vw" y="2.097553869485016em" fill="#aaa"/><rect width="0.09615384615384616em" height="1.5250113734339714em" x="2.8846153846153846vw" y="1.4749886265660286em" fill="#aaa"/><rect width="0.09615384615384616em" height="0.6375465831316094em" x="2.980769230769231vw" y="2.362453416868391em" fill="#aaa"/><rect width="0.09615384615384616em" height="0.6434275654400778em" x="3.076923076923077vw" y="2.356572434559922em" fill="#aaa"/><rect width="0.09615384615384616em" height="0.7544082522219242em" x="3.1730769230769234vw" y="2.245591747778076em" fill="#aaa"/><rect width="0.09615384615384616em" height="1.3361857345697787em" x="3.2692307692307696vw" y="1.6638142654302213em" fill="#aaa"/><rect width="0.09615384615384616em" height="0.40780009283214746em" x="3.3653846153846154vw" y="2.5921999071678528em" fill="#aaa"/><rect width="0.09615384615384616em" height="1.6980115993849907em" x="3.4615384615384617vw" y="1.3019884006150093em" fill="#aaa"/><rect width="0.09615384615384616em" height="1.355783020298878em" x="3.557692307692308vw" y="1.644216979701122em" fill="#aaa"/><rect width="0.09615384615384616em" height="0.7291692413422167em" x="3.653846153846154vw" y="2.2708307586577834em" fill="#aaa"/><rect width="0.09615384615384616em" height="2.33069488964104em" x="3.75vw" y="0.6693051103589598em" fill="#aaa"/><rect width="0.09615384615384616em" height="0.23593968884428596em" x="3.8461538461538463vw" y="2.7640603111557143em" fill="#aaa"/><rect width="0.09615384615384616em" height="0.8009551772083945em" x="3.9423076923076925vw" y="2.1990448227916053em" fill="#aaa"/><rect width="0.09615384615384616em" height="0.47285188118333066em" x="4.038461538461538vw" y="2.5271481188166693em" fill="#aaa"/><rect width="0.09615384615384616em" height="0.3366915544774403em" x="4.134615384615385vw" y="2.6633084455225595em" fill="#aaa"/><rect width="0.09615384615384616em" height="1.5506410600031488em" x="4.230769230769231vw" y="1.4493589399968512em" fill="#aaa"/><rect width="0.09615384615384616em" height="0.4909714258348047em" x="4.3269230769230775vw" y="2.509028574165195em" fill="#aaa"/><rect width="0.09615384615384616em" height="2.5057471238360316em" x="4.423076923076923vw" y="0.4942528761639684em" fill="#aaa"/><rect width="0.09615384615384616em" height="2.7200833512456235em" x="4.519230769230769vw" y="0.2799166487543765em" fill="#aaa"/><rect width="0.09615384615384616em" height="0.3108025476295728em" x="4.615384615384616vw" y="2.6891974523704274em" fill="#aaa"/><rect width="0.09615384615384616em" height="0.7106737675208105em" x="4.711538461538462vw" y="2.2893262324791896em" fill="#aaa"/><rect width="0.09615384615384616em" height="2.112159306275722em" x="4.807692307692308vw" y="0.8878406937242782em" fill="#aaa"/><rect width="0.09615384615384616em" height="1.0362618298341817em" x="4.903846153846154vw" y="1.9637381701658183em" fill="#aaa"/><rect width="0.09615384615384616em" height="0.45651935336564026em" x="5vw" y="2.5434806466343596em" fill="#aaa"/><rect width="0.09615384615384616em" height="0.1409297398533309em" x="5.096153846153847vw" y="2.859070260146669em" fill="#aaa"/><rect width="0.09615384615384616em" height="0.7577686751291297em" x="5.1923076923076925vw" y="2.24223132487087em" fill="#aaa"/><rect width="0.09615384615384616em" height="0.5515475638004286em" x="5.288461538461538vw" y="2.448452436199571em" fill="#aaa"/><rect width="0.09615384615384616em" height="0.45802646953564663em" x="5.384615384615385vw" y="2.5419735304643534em" fill="#aaa"/><rect width="0.09615384615384616em" height="1.2622606778377068em" x="5.480769230769231vw" y="1.7377393221622932em" fill="#aaa"/><rect width="0.09615384615384616em" height="0.319285053871217em" x="5.5769230769230775vw" y="2.680714946128783em" fill="#aaa"/><rect width="0.09615384615384616em" height="1.4857654864677563em" x="5.673076923076923vw" y="1.5142345135322437em" fill="#aaa"/><rect width="0.09615384615384616em" height="2.3777146833199168em" x="5.769230769230769vw" y="0.6222853166800832em" fill="#aaa"/><rect width="0.09615384615384616em" height="0.5751314273634904em" x="5.865384615384616vw" y="2.42486857263651em" fill="#aaa"/><rect width="0.09615384615384616em" height="1.2074183266678167em" x="5.961538461538462vw" y="1.7925816733321833em" fill="#aaa"/><rect width="0.09615384615384616em" height="1.275543340873319em" x="6.057692307692308vw" y="1.724456659126681em" fill="#aaa"/><rect width="0.09615384615384616em" height="1.0127940179292354em" x="6.153846153846154vw" y="1.9872059820707646em" fill="#aaa"/><rect width="0.09615384615384616em" height="1.2643454971741843em" x="6.25vw" y="1.7356545028258157em" fill="#aaa"/><rect width="0.09615384615384616em" height="1.2969342826043273em" x="6.346153846153847vw" y="1.7030657173956727em" fill="#aaa"/><rect width="0.09615384615384616em" height="0.8090159184521446em" x="6.4423076923076925vw" y="2.1909840815478554em" fill="#aaa"/><rect width="0.09615384615384616em" height="1.4183292216364258em" x="6.538461538461539vw" y="1.5816707783635742em" fill="#aaa"/><rect width="0.09615384615384616em" height="0.936798546871786em" x="6.634615384615385vw" y="2.063201453128214em" fill="#aaa"/><rect width="0.09615384615384616em" height="1.6849752377991276em" x="6.730769230769231vw" y="1.3150247622008724em" fill="#aaa"/><rect width="0.09615384615384616em" height="1.2923499202951887em" x="6.8269230769230775vw" y="1.7076500797048113em" fill="#aaa"/><rect width="0.09615384615384616em" height="0.7662496896573434em" x="6.923076923076923vw" y="2.2337503103426566em" fill="#aaa"/><rect width="0.09615384615384616em" height="0.4374229166436353em" x="7.01923076923077vw" y="2.5625770833563646em" fill="#aaa"/><rect width="0.09615384615384616em" height="0.9012802455846807em" x="7.115384615384616vw" y="2.0987197544153195em" fill="#aaa"/><rect width="0.09615384615384616em" height="0.6559113572258476em" x="7.211538461538462vw" y="2.3440886427741523em" fill="#aaa"/><rect width="0.09615384615384616em" height="0.34203916444625937em" x="7.307692307692308vw" y="2.6579608355537405em" fill="#aaa"/><rect width="0.09615384615384616em" height="0.18320760813251585em" x="7.403846153846154vw" y="2.816792391867484em" fill="#aaa"/><rect width="0.09615384615384616em" height="0.810237567605123em" x="7.5vw" y="2.1897624323948772em" fill="#aaa"/><rect width="0.09615384615384616em" height="0.8445519422041305em" x="7.596153846153847vw" y="2.1554480577958692em" fill="#aaa"/><rect width="0.09615384615384616em" height="0.4119813099032318em" x="7.6923076923076925vw" y="2.588018690096768em" fill="#aaa"/><rect width="0.09615384615384616em" height="0.690463324294365em" x="7.788461538461539vw" y="2.309536675705635em" fill="#aaa"/><rect width="0.09615384615384616em" height="0.931618569050235em" x="7.884615384615385vw" y="2.0683814309497652em" fill="#aaa"/><rect width="0.09615384615384616em" height="0.7147452511253952em" x="7.980769230769231vw" y="2.2852547488746047em" fill="#aaa"/><rect width="0.09615384615384616em" height="0.8415801891359264em" x="8.076923076923077vw" y="2.1584198108640735em" fill="#aaa"/><rect width="0.09615384615384616em" height="1.1493551539792595em" x="8.173076923076923vw" y="1.8506448460207405em" fill="#aaa"/><rect width="0.09615384615384616em" height="0.700224684930966em" x="8.26923076923077vw" y="2.299775315069034em" fill="#aaa"/><rect width="0.09615384615384616em" height="0.9196168470999774em" x="8.365384615384615vw" y="2.0803831529000227em" fill="#aaa"/><rect width="0.09615384615384616em" height="0.5539318993085506em" x="8.461538461538462vw" y="2.4460681006914493em" fill="#aaa"/><rect width="0.09615384615384616em" height="0.4028689832729798em" x="8.557692307692308vw" y="2.5971310167270203em" fill="#aaa"/><rect width="0.09615384615384616em" height="0.5792266343231063em" x="8.653846153846155vw" y="2.4207733656768937em" fill="#aaa"/><rect width="0.09615384615384616em" height="0.5341163999065544em" x="8.75vw" y="2.465883600093446em" fill="#aaa"/><rect width="0.09615384615384616em" height="0.9101682657211665em" x="8.846153846153847vw" y="2.0898317342788335em" fill="#aaa"/><rect width="0.09615384615384616em" height="0.6952461077243857em" x="8.942307692307693vw" y="2.304753892275614em" fill="#aaa"/><rect width="0.09615384615384616em" height="0.49938940545720373em" x="9.038461538461538vw" y="2.5006105945427963em" fill="#aaa"/><rect width="0.09615384615384616em" height="0.9147195564763558em" x="9.134615384615385vw" y="2.085280443523644em" fill="#aaa"/><rect width="0.09615384615384616em" height="1.2360646547181244em" x="9.230769230769232vw" y="1.7639353452818756em" fill="#aaa"/><rect width="0.09615384615384616em" height="0.8991472503875038em" x="9.326923076923077vw" y="2.1008527496124962em" fill="#aaa"/><rect width="0.09615384615384616em" height="0.42139987215644065em" x="9.423076923076923vw" y="2.5786001278435595em" fill="#aaa"/><rect width="0.09615384615384616em" height="0.7251644047188393em" x="9.51923076923077vw" y="2.2748355952811607em" fill="#aaa"/><rect width="0.09615384615384616em" height="0.5490794310853084em" x="9.615384615384617vw" y="2.4509205689146913em" fill="#aaa"/><rect width="0.09615384615384616em" height="0.7154392661775957em" x="9.711538461538462vw" y="2.2845607338224045em" fill="#aaa"/><rect width="0.09615384615384616em" height="1.007461611291971em" x="9.807692307692308vw" y="1.992538388708029em" fill="#aaa"/><rect width="0.09615384615384616em" height="0.9354369349339509em" x="9.903846153846155vw" y="2.064563065066049em" fill="#aaa"/></svg>