<?xml version="1.0" standalone="no"?>
<svg xmlns:xlink="http://www.w3.org/1999/xlink" xmlns="http://www.w3.org/2000/svg" class="topic-graph" style="width: 10vw; height: 3em; text-align: center;"><rect width="0.09615384615384616em" height="0.15267096956242449em" x="0vw" y="2.8473290304375753em" fill="#aaa"/><rect width="0.09615384615384616em" height="0.3457835076660878em" x="0.09615384615384616vw" y="2.654216492333912em" fill="#aaa"/><rect width="0.09615384615384616em" height="0.04975627093524536em" x="0.19230769230769232vw" y="2.9502437290647547em" fill="#aaa"/><rect width="0.09615384615384616em" height="0.035990721950163784em" x="0.2884615384615385vw" y="2.9640092780498364em" fill="#aaa"/><rect width="0.09615384615384616em" height="0.03350610543271485em" x="0.38461538461538464vw" y="2.966493894567285em" fill="#aaa"/><rect width="0.09615384615384616em" height="0.26771782148188183em" x="0.4807692307692308vw" y="2.732282178518118em" fill="#aaa"/><rect width="0.09615384615384616em" height="1.1202111472583651em" x="0.576923076923077vw" y="1.8797888527416349em" fill="#aaa"/><rect width="0.09615384615384616em" height="0.0698456316744481em" x="0.6730769230769231vw" y="2.9301543683255518em" fill="#aaa"/><rect width="0.09615384615384616em" height="0.4622608629700391em" x="0.7692307692307693vw" y="2.537739137029961em" fill="#aaa"/><rect width="0.09615384615384616em" height="0.41478315027692336em" x="0.8653846153846154vw" y="2.5852168497230767em" fill="#aaa"/><rect width="0.09615384615384616em" height="0.2552512284654975em" x="0.9615384615384616vw" y="2.7447487715345025em" fill="#aaa"/><rect width="0.09615384615384616em" height="0.4349949869206709em" x="1.0576923076923077vw" y="2.565005013079329em" fill="#aaa"/><rect width="0.09615384615384616em" height="0.6003340788662638em" x="1.153846153846154vw" y="2.399665921133736em" fill="#aaa"/><rect width="0.09615384615384616em" height="0.2709950785953392em" x="1.25vw" y="2.7290049214046608em" fill="#aaa"/><rect width="0.09615384615384616em" height="0.05508890851243113em" x="1.3461538461538463vw" y="2.944911091487569em" fill="#aaa"/><rect width="0.09615384615384616em" height="0.12749396649312889em" x="1.4423076923076923vw" y="2.872506033506871em" fill="#aaa"/><rect width="0.09615384615384616em" height="0.14792285213964593em" x="1.5384615384615385vw" y="2.852077147860354em" fill="#aaa"/><rect width="0.09615384615384616em" height="1.0374169598144196em" x="1.6346153846153848vw" y="1.9625830401855804em" fill="#aaa"/><rect width="0.09615384615384616em" height="1.5192682778693198em" x="1.7307692307692308vw" y="1.4807317221306802em" fill="#aaa"/><rect width="0.09615384615384616em" height="0.32138685151821283em" x="1.826923076923077vw" y="2.678613148481787em" fill="#aaa"/><rect width="0.09615384615384616em" height="0.6298055637123546em" x="1.9230769230769231vw" y="2.3701944362876453em" fill="#aaa"/><rect width="0.09615384615384616em" height="0.3438492541646617em" x="2.019230769230769vw" y="2.656150745835338em" fill="#aaa"/><rect width="0.09615384615384616em" height="0.7265181797583034em" x="2.1153846153846154vw" y="2.2734818202416966em" fill="#aaa"/><rect width="0.09615384615384616em" height="0.23238819495799604em" x="2.2115384615384617vw" y="2.7676118050420038em" fill="#aaa"/><rect width="0.09615384615384616em" height="0.07039703733666505em" x="2.307692307692308vw" y="2.929602962663335em" fill="#aaa"/><rect width="0.09615384615384616em" height="0.711024685544728em" x="2.403846153846154vw" y="2.2889753144552722em" fill="#aaa"/><rect width="0.09615384615384616em" height="0.3257889209894256em" x="2.5vw" y="2.6742110790105746em" fill="#aaa"/><rect width="0.09615384615384616em" height="0.15095330170509205em" x="2.5961538461538463vw" y="2.849046698294908em" fill="#aaa"/><rect width="0.09615384615384616em" height="0.2975141825030716em" x="2.6923076923076925vw" y="2.702485817496928em" fill="#aaa"/><rect width="0.09615384615384616em" height="0.3852188283530841em" x="2.7884615384615388vw" y="2.614781171646916em" fill="#aaa"/><rect width="0.09615384615384616em" height="0.44543257220397914em" x="2.8846153846153846vw" y="2.554567427796021em" fill="#aaa"/><rect width="0.09615384615384616em" height="0.5537004979641167em" x="2.980769230769231vw" y="2.4462995020358833em" fill="#aaa"/><rect width="0.09615384615384616em" height="0.5148527446704829em" x="3.076923076923077vw" y="2.485147255329517em" fill="#aaa"/><rect width="0.09615384615384616em" height="0.3926722167594434em" x="3.1730769230769234vw" y="2.6073277832405566em" fill="#aaa"/><rect width="0.09615384615384616em" height="0.5162305129520502em" x="3.2692307692307696vw" y="2.4837694870479496em" fill="#aaa"/><rect width="0.09615384615384616em" height="0.46010817815877664em" x="3.3653846153846154vw" y="2.5398918218412234em" fill="#aaa"/><rect width="0.09615384615384616em" height="0.35159257334308447em" x="3.4615384615384617vw" y="2.6484074266569158em" fill="#aaa"/><rect width="0.09615384615384616em" height="0.3835835718921308em" x="3.557692307692308vw" y="2.6164164281078692em" fill="#aaa"/><rect width="0.09615384615384616em" height="0.3240109995258236em" x="3.653846153846154vw" y="2.6759890004741766em" fill="#aaa"/><rect width="0.09615384615384616em" height="1.0815095038424478em" x="3.75vw" y="1.9184904961575522em" fill="#aaa"/><rect width="0.09615384615384616em" height="0.2661609765344448em" x="3.8461538461538463vw" y="2.7338390234655554em" fill="#aaa"/><rect width="0.09615384615384616em" height="0.16676101760148418em" x="3.9423076923076925vw" y="2.833238982398516em" fill="#aaa"/><rect width="0.09615384615384616em" height="0.3963913980993121em" x="4.038461538461538vw" y="2.603608601900688em" fill="#aaa"/><rect width="0.09615384615384616em" height="0.7470074219603346em" x="4.134615384615385vw" y="2.2529925780396654em" fill="#aaa"/><rect width="0.09615384615384616em" height="0.809467647660632em" x="4.230769230769231vw" y="2.190532352339368em" fill="#aaa"/><rect width="0.09615384615384616em" height="0.6250038929874073em" x="4.3269230769230775vw" y="2.374996107012593em" fill="#aaa"/><rect width="0.09615384615384616em" height="0.7930078336684068em" x="4.423076923076923vw" y="2.2069921663315935em" fill="#aaa"/><rect width="0.09615384615384616em" height="1.27800245796351em" x="4.519230769230769vw" y="1.72199754203649em" fill="#aaa"/><rect width="0.09615384615384616em" height="0.37779906225587834em" x="4.615384615384616vw" y="2.6222009377441218em" fill="#aaa"/><rect width="0.09615384615384616em" height="0.28417099296846304em" x="4.711538461538462vw" y="2.715829007031537em" fill="#aaa"/><rect width="0.09615384615384616em" height="0.9900268764981063em" x="4.807692307692308vw" y="2.0099731235018936em" fill="#aaa"/><rect width="0.09615384615384616em" height="1.043797824053387em" x="4.903846153846154vw" y="1.956202175946613em" fill="#aaa"/><rect width="0.09615384615384616em" height="0.952857688597496em" x="5vw" y="2.047142311402504em" fill="#aaa"/><rect width="0.09615384615384616em" height="1.2684714439502218em" x="5.096153846153847vw" y="1.7315285560497782em" fill="#aaa"/><rect width="0.09615384615384616em" height="0.7530549198168333em" x="5.1923076923076925vw" y="2.246945080183167em" fill="#aaa"/><rect width="0.09615384615384616em" height="0.8417215190765499em" x="5.288461538461538vw" y="2.15827848092345em" fill="#aaa"/><rect width="0.09615384615384616em" height="1.7152875605477313em" x="5.384615384615385vw" y="1.2847124394522687em" fill="#aaa"/><rect width="0.09615384615384616em" height="1.4226410603960067em" x="5.480769230769231vw" y="1.5773589396039933em" fill="#aaa"/><rect width="0.09615384615384616em" height="0.7958181618162814em" x="5.5769230769230775vw" y="2.2041818381837186em" fill="#aaa"/><rect width="0.09615384615384616em" height="1.259958934785658em" x="5.673076923076923vw" y="1.740041065214342em" fill="#aaa"/><rect width="0.09615384615384616em" height="1.3206045243617772em" x="5.769230769230769vw" y="1.6793954756382228em" fill="#aaa"/><rect width="0.09615384615384616em" height="0.5975059532832496em" x="5.865384615384616vw" y="2.4024940467167504em" fill="#aaa"/><rect width="0.09615384615384616em" height="0.7756988116185619em" x="5.961538461538462vw" y="2.224301188381438em" fill="#aaa"/><rect width="0.09615384615384616em" height="1.007232093214116em" x="6.057692307692308vw" y="1.992767906785884em" fill="#aaa"/><rect width="0.09615384615384616em" height="1.2092480906733245em" x="6.153846153846154vw" y="1.7907519093266755em" fill="#aaa"/><rect width="0.09615384615384616em" height="1.8107764169020426em" x="6.25vw" y="1.1892235830979574em" fill="#aaa"/><rect width="0.09615384615384616em" height="2.012927867272425em" x="6.346153846153847vw" y="0.9870721327275751em" fill="#aaa"/><rect width="0.09615384615384616em" height="2.7985436477041072em" x="6.4423076923076925vw" y="0.20145635229589276em" fill="#aaa"/><rect width="0.09615384615384616em" height="1.6471842541065906em" x="6.538461538461539vw" y="1.3528157458934094em" fill="#aaa"/><rect width="0.09615384615384616em" height="1.0721793334524194em" x="6.634615384615385vw" y="1.9278206665475806em" fill="#aaa"/><rect width="0.09615384615384616em" height="1.087420772721376em" x="6.730769230769231vw" y="1.912579227278624em" fill="#aaa"/><rect width="0.09615384615384616em" height="1.5080063345692256em" x="6.8269230769230775vw" y="1.4919936654307744em" fill="#aaa"/><rect width="0.09615384615384616em" height="3em" x="6.923076923076923vw" y="0em" fill="#aaa"/><rect width="0.09615384615384616em" height="1.0838247592214978em" x="7.01923076923077vw" y="1.9161752407785022em" fill="#aaa"/><rect width="0.09615384615384616em" height="0.9617264726904061em" x="7.115384615384616vw" y="2.038273527309594em" fill="#aaa"/><rect width="0.09615384615384616em" height="1.1364202559420113em" x="7.211538461538462vw" y="1.8635797440579887em" fill="#aaa"/><rect width="0.09615384615384616em" height="0.9107732972318265em" x="7.307692307692308vw" y="2.0892267027681735em" fill="#aaa"/><rect width="0.09615384615384616em" height="0.91887723547417em" x="7.403846153846154vw" y="2.08112276452583em" fill="#aaa"/><rect width="0.09615384615384616em" height="1.4446345604090478em" x="7.5vw" y="1.5553654395909522em" fill="#aaa"/><rect width="0.09615384615384616em" height="0.6377200354290209em" x="7.596153846153847vw" y="2.362279964570979em" fill="#aaa"/><rect width="0.09615384615384616em" height="0.7507406231762983em" x="7.6923076923076925vw" y="2.2492593768237015em" fill="#aaa"/><rect width="0.09615384615384616em" height="1.4139124532299499em" x="7.788461538461539vw" y="1.5860875467700501em" fill="#aaa"/><rect width="0.09615384615384616em" height="0.8636903723516185em" x="7.884615384615385vw" y="2.1363096276483815em" fill="#aaa"/><rect width="0.09615384615384616em" height="0.8568016042276185em" x="7.980769230769231vw" y="2.1431983957723815em" fill="#aaa"/><rect width="0.09615384615384616em" height="0.7942515644797469em" x="8.076923076923077vw" y="2.205748435520253em" fill="#aaa"/><rect width="0.09615384615384616em" height="0.6736585393508645em" x="8.173076923076923vw" y="2.3263414606491355em" fill="#aaa"/><rect width="0.09615384615384616em" height="0.9797888541993434em" x="8.26923076923077vw" y="2.0202111458006566em" fill="#aaa"/><rect width="0.09615384615384616em" height="0.7982230151096364em" x="8.365384615384615vw" y="2.2017769848903637em" fill="#aaa"/><rect width="0.09615384615384616em" height="0.8307984671132667em" x="8.461538461538462vw" y="2.169201532886733em" fill="#aaa"/><rect width="0.09615384615384616em" height="0.566194012034648em" x="8.557692307692308vw" y="2.4338059879653517em" fill="#aaa"/><rect width="0.09615384615384616em" height="0.9771251529190432em" x="8.653846153846155vw" y="2.0228748470809568em" fill="#aaa"/><rect width="0.09615384615384616em" height="0.7623627114893123em" x="8.75vw" y="2.2376372885106877em" fill="#aaa"/><rect width="0.09615384615384616em" height="0.6249394182308989em" x="8.846153846153847vw" y="2.375060581769101em" fill="#aaa"/><rect width="0.09615384615384616em" height="1.4628439413836323em" x="8.942307692307693vw" y="1.5371560586163677em" fill="#aaa"/><rect width="0.09615384615384616em" height="1.3134408319608246em" x="9.038461538461538vw" y="1.6865591680391754em" fill="#aaa"/><rect width="0.09615384615384616em" height="0.9409827986192968em" x="9.134615384615385vw" y="2.059017201380703em" fill="#aaa"/><rect width="0.09615384615384616em" height="0.7543962270853312em" x="9.230769230769232vw" y="2.2456037729146687em" fill="#aaa"/><rect width="0.09615384615384616em" height="1.0859111757718027em" x="9.326923076923077vw" y="1.9140888242281973em" fill="#aaa"/><rect width="0.09615384615384616em" height="1.2041799845313839em" x="9.423076923076923vw" y="1.7958200154686161em" fill="#aaa"/><rect width="0.09615384615384616em" height="0.6848068468850379em" x="9.51923076923077vw" y="2.3151931531149623em" fill="#aaa"/><rect width="0.09615384615384616em" height="0.4706980236611571em" x="9.615384615384617vw" y="2.529301976338843em" fill="#aaa"/><rect width="0.09615384615384616em" height="0.9067546560335509em" x="9.711538461538462vw" y="2.093245343966449em" fill="#aaa"/><rect width="0.09615384615384616em" height="1.156519726184377em" x="9.807692307692308vw" y="1.843480273815623em" fill="#aaa"/><rect width="0.09615384615384616em" height="0.6047564627131035em" x="9.903846153846155vw" y="2.3952435372868965em" fill="#aaa"/></svg>