<?xml version="1.0" standalone="no"?>
<svg xmlns:xlink="http://www.w3.org/1999/xlink" xmlns="http://www.w3.org/2000/svg" class="topic-graph" style="width: 100em; height: 30em; text-align: center;"><rect width="0.9615384615384616em" height="3.989345803262153em" x="0em" y="26.010654196737846em" fill="#aaa"/><rect width="0.9615384615384616em" height="7.96970836602574em" x="0.9615384615384616em" y="22.030291633974258em" fill="#aaa"/><rect width="0.9615384615384616em" height="3.7027098639411116em" x="1.9230769230769231em" y="26.297290136058887em" fill="#aaa"/><rect width="0.9615384615384616em" height="1.7680326473244583em" x="2.8846153846153846em" y="28.231967352675543em" fill="#aaa"/><rect width="0.9615384615384616em" height="2.8883287039798393em" x="3.8461538461538463em" y="27.111671296020162em" fill="#aaa"/><rect width="0.9615384615384616em" height="8.061950645562925em" x="4.8076923076923075em" y="21.938049354437076em" fill="#aaa"/><rect width="0.9615384615384616em" height="7.728848043670997em" x="5.769230769230769em" y="22.271151956329003em" fill="#aaa"/><rect width="0.9615384615384616em" height="9.563805428810136em" x="6.730769230769231em" y="20.436194571189866em" fill="#aaa"/><rect width="0.9615384615384616em" height="5.388293693931057em" x="7.6923076923076925em" y="24.611706306068942em" fill="#aaa"/><rect width="0.9615384615384616em" height="12.849223095450903em" x="8.653846153846153em" y="17.150776904549097em" fill="#aaa"/><rect width="0.9615384615384616em" height="4.394944845649764em" x="9.615384615384615em" y="25.605055154350236em" fill="#aaa"/><rect width="0.9615384615384616em" height="21.442466538177193em" x="10.576923076923077em" y="8.557533461822807em" fill="#aaa"/><rect width="0.9615384615384616em" height="9.666201152168275em" x="11.538461538461538em" y="20.333798847831723em" fill="#aaa"/><rect width="0.9615384615384616em" height="3.3422816477838166em" x="12.5em" y="26.657718352216182em" fill="#aaa"/><rect width="0.9615384615384616em" height="21.8959249796915em" x="13.461538461538462em" y="8.1040750203085em" fill="#aaa"/><rect width="0.9615384615384616em" height="6.577992061969816em" x="14.423076923076923em" y="23.422007938030184em" fill="#aaa"/><rect width="0.9615384615384616em" height="11.655217175848797em" x="15.384615384615385em" y="18.344782824151203em" fill="#aaa"/><rect width="0.9615384615384616em" height="8.293590915810542em" x="16.346153846153847em" y="21.70640908418946em" fill="#aaa"/><rect width="0.9615384615384616em" height="5.171463798149948em" x="17.307692307692307em" y="24.828536201850053em" fill="#aaa"/><rect width="0.9615384615384616em" height="6.903494785048439em" x="18.26923076923077em" y="23.096505214951563em" fill="#aaa"/><rect width="0.9615384615384616em" height="9.986859095422465em" x="19.23076923076923em" y="20.013140904577533em" fill="#aaa"/><rect width="0.9615384615384616em" height="6.425155923295925em" x="20.192307692307693em" y="23.574844076704075em" fill="#aaa"/><rect width="0.9615384615384616em" height="10.445878249410251em" x="21.153846153846153em" y="19.55412175058975em" fill="#aaa"/><rect width="0.9615384615384616em" height="6.569440470113014em" x="22.115384615384617em" y="23.430559529886985em" fill="#aaa"/><rect width="0.9615384615384616em" height="8.730995838682567em" x="23.076923076923077em" y="21.269004161317433em" fill="#aaa"/><rect width="0.9615384615384616em" height="6.666585463300185em" x="24.03846153846154em" y="23.333414536699813em" fill="#aaa"/><rect width="0.9615384615384616em" height="13.335100068977033em" x="25em" y="16.664899931022966em" fill="#aaa"/><rect width="0.9615384615384616em" height="11.623734962261116em" x="25.961538461538463em" y="18.376265037738882em" fill="#aaa"/><rect width="0.9615384615384616em" height="10.65314787935714em" x="26.923076923076923em" y="19.346852120642858em" fill="#aaa"/><rect width="0.9615384615384616em" height="17.203083602841353em" x="27.884615384615387em" y="12.796916397158647em" fill="#aaa"/><rect width="0.9615384615384616em" height="10.349431810075696em" x="28.846153846153847em" y="19.650568189924304em" fill="#aaa"/><rect width="0.9615384615384616em" height="9.71630883617463em" x="29.80769230769231em" y="20.28369116382537em" fill="#aaa"/><rect width="0.9615384615384616em" height="15.615085495229232em" x="30.76923076923077em" y="14.384914504770768em" fill="#aaa"/><rect width="0.9615384615384616em" height="11.75425841856328em" x="31.73076923076923em" y="18.245741581436718em" fill="#aaa"/><rect width="0.9615384615384616em" height="15.298168233611312em" x="32.69230769230769em" y="14.701831766388688em" fill="#aaa"/><rect width="0.9615384615384616em" height="15.942691466115608em" x="33.65384615384615em" y="14.057308533884392em" fill="#aaa"/><rect width="0.9615384615384616em" height="15.66779129862008em" x="34.61538461538461em" y="14.33220870137992em" fill="#aaa"/><rect width="0.9615384615384616em" height="21.575108537075494em" x="35.57692307692308em" y="8.424891462924506em" fill="#aaa"/><rect width="0.9615384615384616em" height="21.6803489969441em" x="36.53846153846154em" y="8.319651003055899em" fill="#aaa"/><rect width="0.9615384615384616em" height="29.478277599535158em" x="37.5em" y="0.5217224004648422em" fill="#aaa"/><rect width="0.9615384615384616em" height="23.843577383626887em" x="38.46153846153846em" y="6.1564226163731135em" fill="#aaa"/><rect width="0.9615384615384616em" height="17.27954982486146em" x="39.42307692307693em" y="12.720450175138541em" fill="#aaa"/><rect width="0.9615384615384616em" height="18.99252867101787em" x="40.38461538461539em" y="11.007471328982131em" fill="#aaa"/><rect width="0.9615384615384616em" height="20.175562743129493em" x="41.34615384615385em" y="9.824437256870507em" fill="#aaa"/><rect width="0.9615384615384616em" height="15.693610733243348em" x="42.30769230769231em" y="14.306389266756652em" fill="#aaa"/><rect width="0.9615384615384616em" height="13.438250124272951em" x="43.269230769230774em" y="16.56174987572705em" fill="#aaa"/><rect width="0.9615384615384616em" height="30em" x="44.23076923076923em" y="0em" fill="#aaa"/><rect width="0.9615384615384616em" height="18.966499084297897em" x="45.19230769230769em" y="11.033500915702103em" fill="#aaa"/><rect width="0.9615384615384616em" height="26.2118238761552em" x="46.15384615384615em" y="3.7881761238447993em" fill="#aaa"/><rect width="0.9615384615384616em" height="27.860524828090398em" x="47.11538461538461em" y="2.139475171909602em" fill="#aaa"/><rect width="0.9615384615384616em" height="11.820611162924259em" x="48.07692307692308em" y="18.17938883707574em" fill="#aaa"/><rect width="0.9615384615384616em" height="15.587039473310218em" x="49.03846153846154em" y="14.412960526689782em" fill="#aaa"/><rect width="0.9615384615384616em" height="23.547035602387115em" x="50em" y="6.4529643976128845em" fill="#aaa"/><rect width="0.9615384615384616em" height="19.798389465717026em" x="50.96153846153846em" y="10.201610534282974em" fill="#aaa"/><rect width="0.9615384615384616em" height="15.17876012546278em" x="51.92307692307693em" y="14.82123987453722em" fill="#aaa"/><rect width="0.9615384615384616em" height="22.473675424636422em" x="52.88461538461539em" y="7.526324575363578em" fill="#aaa"/><rect width="0.9615384615384616em" height="16.222589923782508em" x="53.84615384615385em" y="13.777410076217492em" fill="#aaa"/><rect width="0.9615384615384616em" height="13.912872962066906em" x="54.80769230769231em" y="16.087127037933094em" fill="#aaa"/><rect width="0.9615384615384616em" height="18.71629026396783em" x="55.769230769230774em" y="11.283709736032169em" fill="#aaa"/><rect width="0.9615384615384616em" height="14.074066134451158em" x="56.73076923076923em" y="15.925933865548842em" fill="#aaa"/><rect width="0.9615384615384616em" height="16.37074763619522em" x="57.69230769230769em" y="13.629252363804781em" fill="#aaa"/><rect width="0.9615384615384616em" height="18.231107766331416em" x="58.65384615384615em" y="11.768892233668584em" fill="#aaa"/><rect width="0.9615384615384616em" height="20.736244415156612em" x="59.61538461538462em" y="9.263755584843388em" fill="#aaa"/><rect width="0.9615384615384616em" height="17.073445143799173em" x="60.57692307692308em" y="12.926554856200827em" fill="#aaa"/><rect width="0.9615384615384616em" height="27.54399001276885em" x="61.53846153846154em" y="2.4560099872311483em" fill="#aaa"/><rect width="0.9615384615384616em" height="21.79184234367046em" x="62.5em" y="8.20815765632954em" fill="#aaa"/><rect width="0.9615384615384616em" height="16.3533713836959em" x="63.46153846153846em" y="13.646628616304099em" fill="#aaa"/><rect width="0.9615384615384616em" height="19.57071623578584em" x="64.42307692307692em" y="10.429283764214158em" fill="#aaa"/><rect width="0.9615384615384616em" height="15.142436938355289em" x="65.38461538461539em" y="14.857563061644711em" fill="#aaa"/><rect width="0.9615384615384616em" height="18.95188534353776em" x="66.34615384615385em" y="11.04811465646224em" fill="#aaa"/><rect width="0.9615384615384616em" height="22.391627470227935em" x="67.3076923076923em" y="7.6083725297720655em" fill="#aaa"/><rect width="0.9615384615384616em" height="15.74834291276258em" x="68.26923076923077em" y="14.25165708723742em" fill="#aaa"/><rect width="0.9615384615384616em" height="13.985187074464346em" x="69.23076923076923em" y="16.014812925535654em" fill="#aaa"/><rect width="0.9615384615384616em" height="13.445725814380765em" x="70.1923076923077em" y="16.554274185619235em" fill="#aaa"/><rect width="0.9615384615384616em" height="9.707319982807428em" x="71.15384615384616em" y="20.292680017192573em" fill="#aaa"/><rect width="0.9615384615384616em" height="14.162985501973267em" x="72.11538461538461em" y="15.837014498026733em" fill="#aaa"/><rect width="0.9615384615384616em" height="10.791907083882519em" x="73.07692307692308em" y="19.20809291611748em" fill="#aaa"/><rect width="0.9615384615384616em" height="11.135311773102465em" x="74.03846153846155em" y="18.864688226897535em" fill="#aaa"/><rect width="0.9615384615384616em" height="10.42389753966313em" x="75em" y="19.57610246033687em" fill="#aaa"/><rect width="0.9615384615384616em" height="8.586023893899938em" x="75.96153846153847em" y="21.413976106100062em" fill="#aaa"/><rect width="0.9615384615384616em" height="8.84937546193898em" x="76.92307692307692em" y="21.15062453806102em" fill="#aaa"/><rect width="0.9615384615384616em" height="10.238399360372188em" x="77.88461538461539em" y="19.76160063962781em" fill="#aaa"/><rect width="0.9615384615384616em" height="10.175172702826035em" x="78.84615384615385em" y="19.824827297173965em" fill="#aaa"/><rect width="0.9615384615384616em" height="9.27308124478556em" x="79.8076923076923em" y="20.72691875521444em" fill="#aaa"/><rect width="0.9615384615384616em" height="10.069855169620284em" x="80.76923076923077em" y="19.930144830379717em" fill="#aaa"/><rect width="0.9615384615384616em" height="10.900905729052061em" x="81.73076923076923em" y="19.099094270947937em" fill="#aaa"/><rect width="0.9615384615384616em" height="13.908792703492454em" x="82.6923076923077em" y="16.091207296507548em" fill="#aaa"/><rect width="0.9615384615384616em" height="9.908969349872274em" x="83.65384615384616em" y="20.091030650127728em" fill="#aaa"/><rect width="0.9615384615384616em" height="9.371203688951326em" x="84.61538461538461em" y="20.628796311048674em" fill="#aaa"/><rect width="0.9615384615384616em" height="9.669182960938482em" x="85.57692307692308em" y="20.330817039061518em" fill="#aaa"/><rect width="0.9615384615384616em" height="8.531623603898876em" x="86.53846153846155em" y="21.468376396101124em" fill="#aaa"/><rect width="0.9615384615384616em" height="10.645040502535231em" x="87.5em" y="19.35495949746477em" fill="#aaa"/><rect width="0.9615384615384616em" height="9.915253226439825em" x="88.46153846153847em" y="20.084746773560177em" fill="#aaa"/><rect width="0.9615384615384616em" height="8.00516383377989em" x="89.42307692307692em" y="21.99483616622011em" fill="#aaa"/><rect width="0.9615384615384616em" height="13.507478359085em" x="90.38461538461539em" y="16.492521640915em" fill="#aaa"/><rect width="0.9615384615384616em" height="10.001604993222156em" x="91.34615384615385em" y="19.998395006777844em" fill="#aaa"/><rect width="0.9615384615384616em" height="9.75273334366989em" x="92.3076923076923em" y="20.247266656330112em" fill="#aaa"/><rect width="0.9615384615384616em" height="11.207716826927603em" x="93.26923076923077em" y="18.7922831730724em" fill="#aaa"/><rect width="0.9615384615384616em" height="11.945943969193952em" x="94.23076923076923em" y="18.05405603080605em" fill="#aaa"/><rect width="0.9615384615384616em" height="9.898868415535132em" x="95.1923076923077em" y="20.101131584464866em" fill="#aaa"/><rect width="0.9615384615384616em" height="10.248001500958685em" x="96.15384615384616em" y="19.751998499041314em" fill="#aaa"/><rect width="0.9615384615384616em" height="12.993441260290851em" x="97.11538461538461em" y="17.00655873970915em" fill="#aaa"/><rect width="0.9615384615384616em" height="8.984914035905833em" x="98.07692307692308em" y="21.01508596409417em" fill="#aaa"/><rect width="0.9615384615384616em" height="10.795791428888458em" x="99.03846153846155em" y="19.204208571111543em" fill="#aaa"/></svg>