<?xml version="1.0" standalone="no"?>
<svg xmlns:xlink="http://www.w3.org/1999/xlink" xmlns="http://www.w3.org/2000/svg" class="topic-graph" style="width: 100em; height: 30em; text-align: center;"><rect width="0.9615384615384616em" height="0.14645542783172535em" x="0em" y="29.853544572168275em" fill="#aaa"/><rect width="0.9615384615384616em" height="0.31883441895532166em" x="0.9615384615384616em" y="29.681165581044677em" fill="#aaa"/><rect width="0.9615384615384616em" height="0.10439108365258683em" x="1.9230769230769231em" y="29.895608916347413em" fill="#aaa"/><rect width="0.9615384615384616em" height="0.6124792534758096em" x="2.8846153846153846em" y="29.387520746524192em" fill="#aaa"/><rect width="0.9615384615384616em" height="1.5049657920935777em" x="3.8461538461538463em" y="28.49503420790642em" fill="#aaa"/><rect width="0.9615384615384616em" height="0.323109343870515em" x="4.8076923076923075em" y="29.676890656129483em" fill="#aaa"/><rect width="0.9615384615384616em" height="0.155075458038984em" x="5.769230769230769em" y="29.844924541961017em" fill="#aaa"/><rect width="0.9615384615384616em" height="1.043781105623825em" x="6.730769230769231em" y="28.956218894376175em" fill="#aaa"/><rect width="0.9615384615384616em" height="0.756853884761727em" x="7.6923076923076925em" y="29.24314611523827em" fill="#aaa"/><rect width="0.9615384615384616em" height="0.17829882547649253em" x="8.653846153846153em" y="29.821701174523508em" fill="#aaa"/><rect width="0.9615384615384616em" height="3.1083077706638877em" x="9.615384615384615em" y="26.891692229336112em" fill="#aaa"/><rect width="0.9615384615384616em" height="0.15657786237836835em" x="10.576923076923077em" y="29.84342213762163em" fill="#aaa"/><rect width="0.9615384615384616em" height="0.15415889668720906em" x="11.538461538461538em" y="29.84584110331279em" fill="#aaa"/><rect width="0.9615384615384616em" height="1.5872955382307428em" x="12.5em" y="28.41270446176926em" fill="#aaa"/><rect width="0.9615384615384616em" height="0.13434707143187458em" x="13.461538461538462em" y="29.865652928568124em" fill="#aaa"/><rect width="0.9615384615384616em" height="0.21215057486536829em" x="14.423076923076923em" y="29.78784942513463em" fill="#aaa"/><rect width="0.9615384615384616em" height="0.4290329058849596em" x="15.384615384615385em" y="29.57096709411504em" fill="#aaa"/><rect width="0.9615384615384616em" height="0.2053231506413779em" x="16.346153846153847em" y="29.794676849358623em" fill="#aaa"/><rect width="0.9615384615384616em" height="0.5153995880266509em" x="17.307692307692307em" y="29.48460041197335em" fill="#aaa"/><rect width="0.9615384615384616em" height="0.15474226959464654em" x="18.26923076923077em" y="29.845257730405354em" fill="#aaa"/><rect width="0.9615384615384616em" height="0.14189599643961043em" x="19.23076923076923em" y="29.85810400356039em" fill="#aaa"/><rect width="0.9615384615384616em" height="0.06801596017713236em" x="20.192307692307693em" y="29.93198403982287em" fill="#aaa"/><rect width="0.9615384615384616em" height="0.6133867806252734em" x="21.153846153846153em" y="29.386613219374727em" fill="#aaa"/><rect width="0.9615384615384616em" height="0.8465498927997859em" x="22.115384615384617em" y="29.153450107200214em" fill="#aaa"/><rect width="0.9615384615384616em" height="0.18013198692241142em" x="23.076923076923077em" y="29.81986801307759em" fill="#aaa"/><rect width="0.9615384615384616em" height="1.3636889873931497em" x="24.03846153846154em" y="28.63631101260685em" fill="#aaa"/><rect width="0.9615384615384616em" height="0.8055302409484352em" x="25em" y="29.194469759051564em" fill="#aaa"/><rect width="0.9615384615384616em" height="0.19233004350356991em" x="25.961538461538463em" y="29.80766995649643em" fill="#aaa"/><rect width="0.9615384615384616em" height="0.4108135098436188em" x="26.923076923076923em" y="29.589186490156383em" fill="#aaa"/><rect width="0.9615384615384616em" height="1.2407514184078419em" x="27.884615384615387em" y="28.759248581592157em" fill="#aaa"/><rect width="0.9615384615384616em" height="0.37429372023742513em" x="28.846153846153847em" y="29.625706279762575em" fill="#aaa"/><rect width="0.9615384615384616em" height="0.1665964145052737em" x="29.80769230769231em" y="29.833403585494725em" fill="#aaa"/><rect width="0.9615384615384616em" height="0.1429193169908046em" x="30.76923076923077em" y="29.857080683009194em" fill="#aaa"/><rect width="0.9615384615384616em" height="0.11732313754731778em" x="31.73076923076923em" y="29.882676862452684em" fill="#aaa"/><rect width="0.9615384615384616em" height="0.6744567910316546em" x="32.69230769230769em" y="29.325543208968345em" fill="#aaa"/><rect width="0.9615384615384616em" height="2.1710603384918556em" x="33.65384615384615em" y="27.828939661508144em" fill="#aaa"/><rect width="0.9615384615384616em" height="1.9737152427059226em" x="34.61538461538461em" y="28.02628475729408em" fill="#aaa"/><rect width="0.9615384615384616em" height="3.737382285254851em" x="35.57692307692308em" y="26.262617714745147em" fill="#aaa"/><rect width="0.9615384615384616em" height="1.203316366853309em" x="36.53846153846154em" y="28.796683633146692em" fill="#aaa"/><rect width="0.9615384615384616em" height="0.1266157287667817em" x="37.5em" y="29.873384271233217em" fill="#aaa"/><rect width="0.9615384615384616em" height="2.7623590090460004em" x="38.46153846153846em" y="27.237640990954em" fill="#aaa"/><rect width="0.9615384615384616em" height="1.9499644848916717em" x="39.42307692307693em" y="28.050035515108327em" fill="#aaa"/><rect width="0.9615384615384616em" height="0.3642714043788402em" x="40.38461538461539em" y="29.63572859562116em" fill="#aaa"/><rect width="0.9615384615384616em" height="0.7978776435099766em" x="41.34615384615385em" y="29.202122356490023em" fill="#aaa"/><rect width="0.9615384615384616em" height="1.8321079381261487em" x="42.30769230769231em" y="28.16789206187385em" fill="#aaa"/><rect width="0.9615384615384616em" height="0.6702850469635105em" x="43.269230769230774em" y="29.32971495303649em" fill="#aaa"/><rect width="0.9615384615384616em" height="1.3188804431434458em" x="44.23076923076923em" y="28.681119556856554em" fill="#aaa"/><rect width="0.9615384615384616em" height="2.9194898645615037em" x="45.19230769230769em" y="27.080510135438495em" fill="#aaa"/><rect width="0.9615384615384616em" height="2.4956682040498683em" x="46.15384615384615em" y="27.504331795950133em" fill="#aaa"/><rect width="0.9615384615384616em" height="0.52695379954221em" x="47.11538461538461em" y="29.47304620045779em" fill="#aaa"/><rect width="0.9615384615384616em" height="0.8731804795532075em" x="48.07692307692308em" y="29.12681952044679em" fill="#aaa"/><rect width="0.9615384615384616em" height="0.8203276199458943em" x="49.03846153846154em" y="29.179672380054107em" fill="#aaa"/><rect width="0.9615384615384616em" height="1.6701834838451737em" x="50em" y="28.329816516154825em" fill="#aaa"/><rect width="0.9615384615384616em" height="0.6675727619297763em" x="50.96153846153846em" y="29.332427238070224em" fill="#aaa"/><rect width="0.9615384615384616em" height="0.40379692593285377em" x="51.92307692307693em" y="29.596203074067148em" fill="#aaa"/><rect width="0.9615384615384616em" height="0.8874266228867154em" x="52.88461538461539em" y="29.112573377113286em" fill="#aaa"/><rect width="0.9615384615384616em" height="0.3178731225321667em" x="53.84615384615385em" y="29.682126877467834em" fill="#aaa"/><rect width="0.9615384615384616em" height="1.1624442023919386em" x="54.80769230769231em" y="28.83755579760806em" fill="#aaa"/><rect width="0.9615384615384616em" height="0.5616089839283132em" x="55.769230769230774em" y="29.438391016071687em" fill="#aaa"/><rect width="0.9615384615384616em" height="3.115309366934757em" x="56.73076923076923em" y="26.884690633065244em" fill="#aaa"/><rect width="0.9615384615384616em" height="0.8420918860448545em" x="57.69230769230769em" y="29.157908113955145em" fill="#aaa"/><rect width="0.9615384615384616em" height="0.9579098545735057em" x="58.65384615384615em" y="29.042090145426496em" fill="#aaa"/><rect width="0.9615384615384616em" height="0.7310044407563934em" x="59.61538461538462em" y="29.268995559243606em" fill="#aaa"/><rect width="0.9615384615384616em" height="0.5111607036880482em" x="60.57692307692308em" y="29.48883929631195em" fill="#aaa"/><rect width="0.9615384615384616em" height="0.3577455698209827em" x="61.53846153846154em" y="29.64225443017902em" fill="#aaa"/><rect width="0.9615384615384616em" height="1.2212120079020317em" x="62.5em" y="28.778787992097968em" fill="#aaa"/><rect width="0.9615384615384616em" height="0.9963963280001106em" x="63.46153846153846em" y="29.00360367199989em" fill="#aaa"/><rect width="0.9615384615384616em" height="1.8637860551477072em" x="64.42307692307692em" y="28.136213944852294em" fill="#aaa"/><rect width="0.9615384615384616em" height="1.5912809923128974em" x="65.38461538461539em" y="28.408719007687104em" fill="#aaa"/><rect width="0.9615384615384616em" height="0.7175558435590712em" x="66.34615384615385em" y="29.282444156440928em" fill="#aaa"/><rect width="0.9615384615384616em" height="0.5306552438509712em" x="67.3076923076923em" y="29.469344756149027em" fill="#aaa"/><rect width="0.9615384615384616em" height="1.6786917613516577em" x="68.26923076923077em" y="28.321308238648342em" fill="#aaa"/><rect width="0.9615384615384616em" height="0.7643828008329849em" x="69.23076923076923em" y="29.235617199167017em" fill="#aaa"/><rect width="0.9615384615384616em" height="0.7701767262424727em" x="70.1923076923077em" y="29.22982327375753em" fill="#aaa"/><rect width="0.9615384615384616em" height="2.7291724007886984em" x="71.15384615384616em" y="27.2708275992113em" fill="#aaa"/><rect width="0.9615384615384616em" height="1.6790205944532026em" x="72.11538461538461em" y="28.320979405546797em" fill="#aaa"/><rect width="0.9615384615384616em" height="2.6473539819196126em" x="73.07692307692308em" y="27.35264601808039em" fill="#aaa"/><rect width="0.9615384615384616em" height="1.261473542278227em" x="74.03846153846155em" y="28.738526457721772em" fill="#aaa"/><rect width="0.9615384615384616em" height="1.4582718245662867em" x="75em" y="28.541728175433715em" fill="#aaa"/><rect width="0.9615384615384616em" height="0.8468031562937895em" x="75.96153846153847em" y="29.153196843706212em" fill="#aaa"/><rect width="0.9615384615384616em" height="0.8435613871337401em" x="76.92307692307692em" y="29.15643861286626em" fill="#aaa"/><rect width="0.9615384615384616em" height="1.3442264677032452em" x="77.88461538461539em" y="28.655773532296756em" fill="#aaa"/><rect width="0.9615384615384616em" height="1.7677727235051306em" x="78.84615384615385em" y="28.232227276494868em" fill="#aaa"/><rect width="0.9615384615384616em" height="1.4051610405559107em" x="79.8076923076923em" y="28.59483895944409em" fill="#aaa"/><rect width="0.9615384615384616em" height="0.7883328520569717em" x="80.76923076923077em" y="29.21166714794303em" fill="#aaa"/><rect width="0.9615384615384616em" height="2.2571498204468887em" x="81.73076923076923em" y="27.742850179553113em" fill="#aaa"/><rect width="0.9615384615384616em" height="2.7735644435657907em" x="82.6923076923077em" y="27.22643555643421em" fill="#aaa"/><rect width="0.9615384615384616em" height="1.754067056831577em" x="83.65384615384616em" y="28.245932943168423em" fill="#aaa"/><rect width="0.9615384615384616em" height="2.3274388165911173em" x="84.61538461538461em" y="27.67256118340888em" fill="#aaa"/><rect width="0.9615384615384616em" height="1.6184910860304096em" x="85.57692307692308em" y="28.38150891396959em" fill="#aaa"/><rect width="0.9615384615384616em" height="1.5709939387422374em" x="86.53846153846155em" y="28.429006061257763em" fill="#aaa"/><rect width="0.9615384615384616em" height="1.569410266668731em" x="87.5em" y="28.430589733331267em" fill="#aaa"/><rect width="0.9615384615384616em" height="2.2190031916265607em" x="88.46153846153847em" y="27.780996808373438em" fill="#aaa"/><rect width="0.9615384615384616em" height="2.9406977546055773em" x="89.42307692307692em" y="27.059302245394424em" fill="#aaa"/><rect width="0.9615384615384616em" height="2.4938595198536837em" x="90.38461538461539em" y="27.506140480146318em" fill="#aaa"/><rect width="0.9615384615384616em" height="2.2104128334925073em" x="91.34615384615385em" y="27.78958716650749em" fill="#aaa"/><rect width="0.9615384615384616em" height="3.768197691171119em" x="92.3076923076923em" y="26.231802308828883em" fill="#aaa"/><rect width="0.9615384615384616em" height="4.258651051718207em" x="93.26923076923077em" y="25.741348948281793em" fill="#aaa"/><rect width="0.9615384615384616em" height="30em" x="94.23076923076923em" y="0em" fill="#aaa"/><rect width="0.9615384615384616em" height="11.858757907370617em" x="95.1923076923077em" y="18.141242092629383em" fill="#aaa"/><rect width="0.9615384615384616em" height="10.51620999878013em" x="96.15384615384616em" y="19.48379000121987em" fill="#aaa"/><rect width="0.9615384615384616em" height="2.270898092027413em" x="97.11538461538461em" y="27.729101907972588em" fill="#aaa"/><rect width="0.9615384615384616em" height="5.935843995222668em" x="98.07692307692308em" y="24.06415600477733em" fill="#aaa"/><rect width="0.9615384615384616em" height="2.975406184575727em" x="99.03846153846155em" y="27.02459381542427em" fill="#aaa"/></svg>