<?xml version="1.0" standalone="no"?>
<svg xmlns:xlink="http://www.w3.org/1999/xlink" xmlns="http://www.w3.org/2000/svg" class="topic-graph" style="width: 100em; height: 30em; text-align: center;"><rect width="0.9615384615384616em" height="7.617693886873763em" x="0em" y="22.382306113126237em" fill="#aaa"/><rect width="0.9615384615384616em" height="9.012700808265686em" x="0.9615384615384616em" y="20.987299191734316em" fill="#aaa"/><rect width="0.9615384615384616em" height="9.825795154857115em" x="1.9230769230769231em" y="20.174204845142885em" fill="#aaa"/><rect width="0.9615384615384616em" height="0.9276212353757333em" x="2.8846153846153846em" y="29.07237876462427em" fill="#aaa"/><rect width="0.9615384615384616em" height="3.0431771248286306em" x="3.8461538461538463em" y="26.95682287517137em" fill="#aaa"/><rect width="0.9615384615384616em" height="7.489082601538535em" x="4.8076923076923075em" y="22.510917398461466em" fill="#aaa"/><rect width="0.9615384615384616em" height="12.89859370216379em" x="5.769230769230769em" y="17.10140629783621em" fill="#aaa"/><rect width="0.9615384615384616em" height="7.378043704427454em" x="6.730769230769231em" y="22.621956295572545em" fill="#aaa"/><rect width="0.9615384615384616em" height="9.112420460842063em" x="7.6923076923076925em" y="20.887579539157937em" fill="#aaa"/><rect width="0.9615384615384616em" height="5.574333570041891em" x="8.653846153846153em" y="24.42566642995811em" fill="#aaa"/><rect width="0.9615384615384616em" height="7.303014064092679em" x="9.615384615384615em" y="22.69698593590732em" fill="#aaa"/><rect width="0.9615384615384616em" height="10.626604115515198em" x="10.576923076923077em" y="19.3733958844848em" fill="#aaa"/><rect width="0.9615384615384616em" height="4.085992375098803em" x="11.538461538461538em" y="25.914007624901195em" fill="#aaa"/><rect width="0.9615384615384616em" height="5.808146811585846em" x="12.5em" y="24.191853188414154em" fill="#aaa"/><rect width="0.9615384615384616em" height="10.635823347846497em" x="13.461538461538462em" y="19.364176652153503em" fill="#aaa"/><rect width="0.9615384615384616em" height="8.338757588812044em" x="14.423076923076923em" y="21.661242411187956em" fill="#aaa"/><rect width="0.9615384615384616em" height="3.955997877614466em" x="15.384615384615385em" y="26.044002122385535em" fill="#aaa"/><rect width="0.9615384615384616em" height="5.366261247131697em" x="16.346153846153847em" y="24.633738752868304em" fill="#aaa"/><rect width="0.9615384615384616em" height="3.1303740687582424em" x="17.307692307692307em" y="26.869625931241757em" fill="#aaa"/><rect width="0.9615384615384616em" height="2.930860476873574em" x="18.26923076923077em" y="27.069139523126427em" fill="#aaa"/><rect width="0.9615384615384616em" height="6.7474914572598506em" x="19.23076923076923em" y="23.25250854274015em" fill="#aaa"/><rect width="0.9615384615384616em" height="4.526352393349297em" x="20.192307692307693em" y="25.4736476066507em" fill="#aaa"/><rect width="0.9615384615384616em" height="0.8155038846697996em" x="21.153846153846153em" y="29.1844961153302em" fill="#aaa"/><rect width="0.9615384615384616em" height="1.5191144622764718em" x="22.115384615384617em" y="28.480885537723527em" fill="#aaa"/><rect width="0.9615384615384616em" height="8.501195493944232em" x="23.076923076923077em" y="21.49880450605577em" fill="#aaa"/><rect width="0.9615384615384616em" height="4.442823877721721em" x="24.03846153846154em" y="25.55717612227828em" fill="#aaa"/><rect width="0.9615384615384616em" height="5.1296084273720375em" x="25em" y="24.870391572627963em" fill="#aaa"/><rect width="0.9615384615384616em" height="8.74819202298338em" x="25.961538461538463em" y="21.251807977016618em" fill="#aaa"/><rect width="0.9615384615384616em" height="5.039481208712074em" x="26.923076923076923em" y="24.960518791287925em" fill="#aaa"/><rect width="0.9615384615384616em" height="1.6852636946271042em" x="27.884615384615387em" y="28.314736305372897em" fill="#aaa"/><rect width="0.9615384615384616em" height="3.6991971012983926em" x="28.846153846153847em" y="26.30080289870161em" fill="#aaa"/><rect width="0.9615384615384616em" height="10.567757728255451em" x="29.80769230769231em" y="19.43224227174455em" fill="#aaa"/><rect width="0.9615384615384616em" height="10.252123077870047em" x="30.76923076923077em" y="19.747876922129954em" fill="#aaa"/><rect width="0.9615384615384616em" height="5.214430404250665em" x="31.73076923076923em" y="24.785569595749337em" fill="#aaa"/><rect width="0.9615384615384616em" height="5.6231539516878986em" x="32.69230769230769em" y="24.376846048312103em" fill="#aaa"/><rect width="0.9615384615384616em" height="6.745008577723152em" x="33.65384615384615em" y="23.25499142227685em" fill="#aaa"/><rect width="0.9615384615384616em" height="8.605346328245446em" x="34.61538461538461em" y="21.394653671754554em" fill="#aaa"/><rect width="0.9615384615384616em" height="6.620515333083045em" x="35.57692307692308em" y="23.379484666916955em" fill="#aaa"/><rect width="0.9615384615384616em" height="5.698075540230166em" x="36.53846153846154em" y="24.301924459769836em" fill="#aaa"/><rect width="0.9615384615384616em" height="9.755199870775684em" x="37.5em" y="20.244800129224316em" fill="#aaa"/><rect width="0.9615384615384616em" height="7.606857471789848em" x="38.46153846153846em" y="22.393142528210152em" fill="#aaa"/><rect width="0.9615384615384616em" height="6.8763211164524325em" x="39.42307692307693em" y="23.12367888354757em" fill="#aaa"/><rect width="0.9615384615384616em" height="5.302947496048667em" x="40.38461538461539em" y="24.697052503951333em" fill="#aaa"/><rect width="0.9615384615384616em" height="8.0203431769106em" x="41.34615384615385em" y="21.9796568230894em" fill="#aaa"/><rect width="0.9615384615384616em" height="5.489752748013971em" x="42.30769230769231em" y="24.51024725198603em" fill="#aaa"/><rect width="0.9615384615384616em" height="8.711886058724648em" x="43.269230769230774em" y="21.288113941275352em" fill="#aaa"/><rect width="0.9615384615384616em" height="9.506944595567365em" x="44.23076923076923em" y="20.493055404432635em" fill="#aaa"/><rect width="0.9615384615384616em" height="8.096415503642357em" x="45.19230769230769em" y="21.903584496357645em" fill="#aaa"/><rect width="0.9615384615384616em" height="10.414996425008283em" x="46.15384615384615em" y="19.585003574991717em" fill="#aaa"/><rect width="0.9615384615384616em" height="14.175405730905062em" x="47.11538461538461em" y="15.824594269094938em" fill="#aaa"/><rect width="0.9615384615384616em" height="6.675823789487359em" x="48.07692307692308em" y="23.32417621051264em" fill="#aaa"/><rect width="0.9615384615384616em" height="12.473609257633267em" x="49.03846153846154em" y="17.526390742366733em" fill="#aaa"/><rect width="0.9615384615384616em" height="11.338026962705618em" x="50em" y="18.66197303729438em" fill="#aaa"/><rect width="0.9615384615384616em" height="9.153680039491586em" x="50.96153846153846em" y="20.846319960508414em" fill="#aaa"/><rect width="0.9615384615384616em" height="7.353438640940483em" x="51.92307692307693em" y="22.64656135905952em" fill="#aaa"/><rect width="0.9615384615384616em" height="8.175929750200156em" x="52.88461538461539em" y="21.824070249799846em" fill="#aaa"/><rect width="0.9615384615384616em" height="12.182272680135064em" x="53.84615384615385em" y="17.817727319864936em" fill="#aaa"/><rect width="0.9615384615384616em" height="8.603099672762717em" x="54.80769230769231em" y="21.396900327237283em" fill="#aaa"/><rect width="0.9615384615384616em" height="10.05416102004926em" x="55.769230769230774em" y="19.94583897995074em" fill="#aaa"/><rect width="0.9615384615384616em" height="8.115923670878338em" x="56.73076923076923em" y="21.884076329121662em" fill="#aaa"/><rect width="0.9615384615384616em" height="11.845139042441632em" x="57.69230769230769em" y="18.15486095755837em" fill="#aaa"/><rect width="0.9615384615384616em" height="11.303350561827797em" x="58.65384615384615em" y="18.6966494381722em" fill="#aaa"/><rect width="0.9615384615384616em" height="14.990489728181497em" x="59.61538461538462em" y="15.009510271818503em" fill="#aaa"/><rect width="0.9615384615384616em" height="11.4196987489822em" x="60.57692307692308em" y="18.5803012510178em" fill="#aaa"/><rect width="0.9615384615384616em" height="13.692231872333863em" x="61.53846153846154em" y="16.307768127666137em" fill="#aaa"/><rect width="0.9615384615384616em" height="19.09333036624476em" x="62.5em" y="10.90666963375524em" fill="#aaa"/><rect width="0.9615384615384616em" height="15.373674027178463em" x="63.46153846153846em" y="14.626325972821537em" fill="#aaa"/><rect width="0.9615384615384616em" height="13.872339704955028em" x="64.42307692307692em" y="16.127660295044972em" fill="#aaa"/><rect width="0.9615384615384616em" height="15.412728421075762em" x="65.38461538461539em" y="14.587271578924238em" fill="#aaa"/><rect width="0.9615384615384616em" height="14.902526237023226em" x="66.34615384615385em" y="15.097473762976774em" fill="#aaa"/><rect width="0.9615384615384616em" height="14.648937700045597em" x="67.3076923076923em" y="15.351062299954403em" fill="#aaa"/><rect width="0.9615384615384616em" height="6.603682554556123em" x="68.26923076923077em" y="23.396317445443877em" fill="#aaa"/><rect width="0.9615384615384616em" height="11.842273151637503em" x="69.23076923076923em" y="18.157726848362497em" fill="#aaa"/><rect width="0.9615384615384616em" height="15.15470047562489em" x="70.1923076923077em" y="14.84529952437511em" fill="#aaa"/><rect width="0.9615384615384616em" height="12.434305121853582em" x="71.15384615384616em" y="17.565694878146417em" fill="#aaa"/><rect width="0.9615384615384616em" height="7.932662666258362em" x="72.11538461538461em" y="22.067337333741637em" fill="#aaa"/><rect width="0.9615384615384616em" height="14.725076055358054em" x="73.07692307692308em" y="15.274923944641946em" fill="#aaa"/><rect width="0.9615384615384616em" height="11.544984929554108em" x="74.03846153846155em" y="18.455015070445892em" fill="#aaa"/><rect width="0.9615384615384616em" height="12.03548864049787em" x="75em" y="17.96451135950213em" fill="#aaa"/><rect width="0.9615384615384616em" height="9.729105626051272em" x="75.96153846153847em" y="20.270894373948728em" fill="#aaa"/><rect width="0.9615384615384616em" height="17.40378748576999em" x="76.92307692307692em" y="12.596212514230011em" fill="#aaa"/><rect width="0.9615384615384616em" height="9.144911244801488em" x="77.88461538461539em" y="20.855088755198512em" fill="#aaa"/><rect width="0.9615384615384616em" height="8.920031386778856em" x="78.84615384615385em" y="21.079968613221144em" fill="#aaa"/><rect width="0.9615384615384616em" height="9.535577379404046em" x="79.8076923076923em" y="20.464422620595954em" fill="#aaa"/><rect width="0.9615384615384616em" height="8.683130621890847em" x="80.76923076923077em" y="21.316869378109153em" fill="#aaa"/><rect width="0.9615384615384616em" height="9.83999666022887em" x="81.73076923076923em" y="20.16000333977113em" fill="#aaa"/><rect width="0.9615384615384616em" height="19.135884473953404em" x="82.6923076923077em" y="10.864115526046596em" fill="#aaa"/><rect width="0.9615384615384616em" height="9.47854822547381em" x="83.65384615384616em" y="20.52145177452619em" fill="#aaa"/><rect width="0.9615384615384616em" height="11.245504446547423em" x="84.61538461538461em" y="18.75449555345258em" fill="#aaa"/><rect width="0.9615384615384616em" height="11.161433004994695em" x="85.57692307692308em" y="18.838566995005305em" fill="#aaa"/><rect width="0.9615384615384616em" height="12.17744542326504em" x="86.53846153846155em" y="17.82255457673496em" fill="#aaa"/><rect width="0.9615384615384616em" height="30em" x="87.5em" y="0em" fill="#aaa"/><rect width="0.9615384615384616em" height="21.77619661254915em" x="88.46153846153847em" y="8.22380338745085em" fill="#aaa"/><rect width="0.9615384615384616em" height="11.589811689408695em" x="89.42307692307692em" y="18.410188310591305em" fill="#aaa"/><rect width="0.9615384615384616em" height="8.642702088930061em" x="90.38461538461539em" y="21.35729791106994em" fill="#aaa"/><rect width="0.9615384615384616em" height="9.42980934669815em" x="91.34615384615385em" y="20.57019065330185em" fill="#aaa"/><rect width="0.9615384615384616em" height="7.447210524338044em" x="92.3076923076923em" y="22.552789475661957em" fill="#aaa"/><rect width="0.9615384615384616em" height="9.308059448207512em" x="93.26923076923077em" y="20.691940551792488em" fill="#aaa"/><rect width="0.9615384615384616em" height="9.457592727305492em" x="94.23076923076923em" y="20.542407272694508em" fill="#aaa"/><rect width="0.9615384615384616em" height="7.604570880363054em" x="95.1923076923077em" y="22.395429119636944em" fill="#aaa"/><rect width="0.9615384615384616em" height="6.890809471680435em" x="96.15384615384616em" y="23.109190528319566em" fill="#aaa"/><rect width="0.9615384615384616em" height="10.562286234814161em" x="97.11538461538461em" y="19.43771376518584em" fill="#aaa"/><rect width="0.9615384615384616em" height="9.197402047738244em" x="98.07692307692308em" y="20.802597952261756em" fill="#aaa"/><rect width="0.9615384615384616em" height="11.81991852332276em" x="99.03846153846155em" y="18.180081476677238em" fill="#aaa"/></svg>