<?xml version="1.0" standalone="no"?>
<svg xmlns:xlink="http://www.w3.org/1999/xlink" xmlns="http://www.w3.org/2000/svg" class="topic-graph" style="width: 100em; height: 30em; text-align: center;"><rect width="0.9615384615384616em" height="3.217327400240465em" x="0em" y="26.782672599759536em" fill="#aaa"/><rect width="0.9615384615384616em" height="6.41301453846999em" x="0.9615384615384616em" y="23.58698546153001em" fill="#aaa"/><rect width="0.9615384615384616em" height="5.025049734273003em" x="1.9230769230769231em" y="24.974950265726996em" fill="#aaa"/><rect width="0.9615384615384616em" height="2.2293406489929586em" x="2.8846153846153846em" y="27.77065935100704em" fill="#aaa"/><rect width="0.9615384615384616em" height="7.295185675538724em" x="3.8461538461538463em" y="22.704814324461275em" fill="#aaa"/><rect width="0.9615384615384616em" height="3.9122869467248043em" x="4.8076923076923075em" y="26.087713053275195em" fill="#aaa"/><rect width="0.9615384615384616em" height="7.746945433196108em" x="5.769230769230769em" y="22.253054566803893em" fill="#aaa"/><rect width="0.9615384615384616em" height="0.5464094804399716em" x="6.730769230769231em" y="29.453590519560027em" fill="#aaa"/><rect width="0.9615384615384616em" height="7.675393742747969em" x="7.6923076923076925em" y="22.324606257252032em" fill="#aaa"/><rect width="0.9615384615384616em" height="4.894806084929901em" x="8.653846153846153em" y="25.1051939150701em" fill="#aaa"/><rect width="0.9615384615384616em" height="5.540548938791041em" x="9.615384615384615em" y="24.45945106120896em" fill="#aaa"/><rect width="0.9615384615384616em" height="6.6474337471343645em" x="10.576923076923077em" y="23.352566252865635em" fill="#aaa"/><rect width="0.9615384615384616em" height="3.2161031752395464em" x="11.538461538461538em" y="26.783896824760454em" fill="#aaa"/><rect width="0.9615384615384616em" height="8.78708586010622em" x="12.5em" y="21.21291413989378em" fill="#aaa"/><rect width="0.9615384615384616em" height="4.499876689906907em" x="13.461538461538462em" y="25.500123310093095em" fill="#aaa"/><rect width="0.9615384615384616em" height="4.6088627708470815em" x="14.423076923076923em" y="25.391137229152918em" fill="#aaa"/><rect width="0.9615384615384616em" height="7.526399045695235em" x="15.384615384615385em" y="22.473600954304764em" fill="#aaa"/><rect width="0.9615384615384616em" height="3.3817321677254077em" x="16.346153846153847em" y="26.618267832274594em" fill="#aaa"/><rect width="0.9615384615384616em" height="2.9672480647902173em" x="17.307692307692307em" y="27.03275193520978em" fill="#aaa"/><rect width="0.9615384615384616em" height="9.853312707871993em" x="18.26923076923077em" y="20.146687292128007em" fill="#aaa"/><rect width="0.9615384615384616em" height="4.803371133328368em" x="19.23076923076923em" y="25.19662886667163em" fill="#aaa"/><rect width="0.9615384615384616em" height="2.8678211257368518em" x="20.192307692307693em" y="27.132178874263147em" fill="#aaa"/><rect width="0.9615384615384616em" height="4.631311136832957em" x="21.153846153846153em" y="25.368688863167044em" fill="#aaa"/><rect width="0.9615384615384616em" height="5.878769159157063em" x="22.115384615384617em" y="24.121230840842937em" fill="#aaa"/><rect width="0.9615384615384616em" height="3.9106115434311697em" x="23.076923076923077em" y="26.08938845656883em" fill="#aaa"/><rect width="0.9615384615384616em" height="7.087070206734963em" x="24.03846153846154em" y="22.912929793265036em" fill="#aaa"/><rect width="0.9615384615384616em" height="5.922339069747212em" x="25em" y="24.07766093025279em" fill="#aaa"/><rect width="0.9615384615384616em" height="5.894947750167287em" x="25.961538461538463em" y="24.105052249832713em" fill="#aaa"/><rect width="0.9615384615384616em" height="4.099386480282019em" x="26.923076923076923em" y="25.900613519717982em" fill="#aaa"/><rect width="0.9615384615384616em" height="4.13710749028014em" x="27.884615384615387em" y="25.86289250971986em" fill="#aaa"/><rect width="0.9615384615384616em" height="9.698813002977552em" x="28.846153846153847em" y="20.301186997022448em" fill="#aaa"/><rect width="0.9615384615384616em" height="9.924436249175207em" x="29.80769230769231em" y="20.07556375082479em" fill="#aaa"/><rect width="0.9615384615384616em" height="11.03929312288969em" x="30.76923076923077em" y="18.96070687711031em" fill="#aaa"/><rect width="0.9615384615384616em" height="8.402265772501414em" x="31.73076923076923em" y="21.597734227498584em" fill="#aaa"/><rect width="0.9615384615384616em" height="7.5417729850754585em" x="32.69230769230769em" y="22.458227014924542em" fill="#aaa"/><rect width="0.9615384615384616em" height="7.740986277652445em" x="33.65384615384615em" y="22.259013722347554em" fill="#aaa"/><rect width="0.9615384615384616em" height="9.465011257294735em" x="34.61538461538461em" y="20.534988742705266em" fill="#aaa"/><rect width="0.9615384615384616em" height="7.273208447559058em" x="35.57692307692308em" y="22.726791552440943em" fill="#aaa"/><rect width="0.9615384615384616em" height="8.082996177549807em" x="36.53846153846154em" y="21.91700382245019em" fill="#aaa"/><rect width="0.9615384615384616em" height="6.295959791924236em" x="37.5em" y="23.704040208075764em" fill="#aaa"/><rect width="0.9615384615384616em" height="4.7841454013370655em" x="38.46153846153846em" y="25.215854598662936em" fill="#aaa"/><rect width="0.9615384615384616em" height="4.604616705948337em" x="39.42307692307693em" y="25.395383294051662em" fill="#aaa"/><rect width="0.9615384615384616em" height="5.612208431849396em" x="40.38461538461539em" y="24.387791568150604em" fill="#aaa"/><rect width="0.9615384615384616em" height="6.471811162461593em" x="41.34615384615385em" y="23.52818883753841em" fill="#aaa"/><rect width="0.9615384615384616em" height="8.541537592302898em" x="42.30769230769231em" y="21.458462407697102em" fill="#aaa"/><rect width="0.9615384615384616em" height="9.846209512831432em" x="43.269230769230774em" y="20.153790487168568em" fill="#aaa"/><rect width="0.9615384615384616em" height="8.973201028586992em" x="44.23076923076923em" y="21.026798971413008em" fill="#aaa"/><rect width="0.9615384615384616em" height="10.730755491630953em" x="45.19230769230769em" y="19.26924450836905em" fill="#aaa"/><rect width="0.9615384615384616em" height="6.907769397276044em" x="46.15384615384615em" y="23.092230602723955em" fill="#aaa"/><rect width="0.9615384615384616em" height="5.874103796765862em" x="47.11538461538461em" y="24.125896203234138em" fill="#aaa"/><rect width="0.9615384615384616em" height="6.158562877793822em" x="48.07692307692308em" y="23.841437122206177em" fill="#aaa"/><rect width="0.9615384615384616em" height="9.561587953817373em" x="49.03846153846154em" y="20.438412046182627em" fill="#aaa"/><rect width="0.9615384615384616em" height="16.21950270531076em" x="50em" y="13.78049729468924em" fill="#aaa"/><rect width="0.9615384615384616em" height="12.439881795094449em" x="50.96153846153846em" y="17.56011820490555em" fill="#aaa"/><rect width="0.9615384615384616em" height="8.94600790008146em" x="51.92307692307693em" y="21.05399209991854em" fill="#aaa"/><rect width="0.9615384615384616em" height="7.254596315232776em" x="52.88461538461539em" y="22.745403684767226em" fill="#aaa"/><rect width="0.9615384615384616em" height="7.990660301721153em" x="53.84615384615385em" y="22.009339698278847em" fill="#aaa"/><rect width="0.9615384615384616em" height="4.77574761824233em" x="54.80769230769231em" y="25.22425238175767em" fill="#aaa"/><rect width="0.9615384615384616em" height="7.547258490595981em" x="55.769230769230774em" y="22.45274150940402em" fill="#aaa"/><rect width="0.9615384615384616em" height="12.49820156122604em" x="56.73076923076923em" y="17.50179843877396em" fill="#aaa"/><rect width="0.9615384615384616em" height="13.578065931500149em" x="57.69230769230769em" y="16.42193406849985em" fill="#aaa"/><rect width="0.9615384615384616em" height="13.532488770186987em" x="58.65384615384615em" y="16.467511229813013em" fill="#aaa"/><rect width="0.9615384615384616em" height="9.125785034994724em" x="59.61538461538462em" y="20.874214965005276em" fill="#aaa"/><rect width="0.9615384615384616em" height="7.004101397273075em" x="60.57692307692308em" y="22.995898602726925em" fill="#aaa"/><rect width="0.9615384615384616em" height="11.328076235910038em" x="61.53846153846154em" y="18.67192376408996em" fill="#aaa"/><rect width="0.9615384615384616em" height="5.50516552804509em" x="62.5em" y="24.49483447195491em" fill="#aaa"/><rect width="0.9615384615384616em" height="7.1246000146859165em" x="63.46153846153846em" y="22.875399985314083em" fill="#aaa"/><rect width="0.9615384615384616em" height="10.180676008235624em" x="64.42307692307692em" y="19.819323991764378em" fill="#aaa"/><rect width="0.9615384615384616em" height="12.06512594156007em" x="65.38461538461539em" y="17.93487405843993em" fill="#aaa"/><rect width="0.9615384615384616em" height="10.535654722082274em" x="66.34615384615385em" y="19.464345277917726em" fill="#aaa"/><rect width="0.9615384615384616em" height="7.951077856787233em" x="67.3076923076923em" y="22.048922143212767em" fill="#aaa"/><rect width="0.9615384615384616em" height="7.899629002274542em" x="68.26923076923077em" y="22.100370997725456em" fill="#aaa"/><rect width="0.9615384615384616em" height="9.652514731800506em" x="69.23076923076923em" y="20.34748526819949em" fill="#aaa"/><rect width="0.9615384615384616em" height="13.667067099693202em" x="70.1923076923077em" y="16.332932900306798em" fill="#aaa"/><rect width="0.9615384615384616em" height="14.773573761171908em" x="71.15384615384616em" y="15.226426238828092em" fill="#aaa"/><rect width="0.9615384615384616em" height="16.776021177260418em" x="72.11538461538461em" y="13.223978822739582em" fill="#aaa"/><rect width="0.9615384615384616em" height="24.625468521629294em" x="73.07692307692308em" y="5.374531478370706em" fill="#aaa"/><rect width="0.9615384615384616em" height="30em" x="74.03846153846155em" y="0em" fill="#aaa"/><rect width="0.9615384615384616em" height="16.296158775116286em" x="75em" y="13.703841224883714em" fill="#aaa"/><rect width="0.9615384615384616em" height="15.556832655839337em" x="75.96153846153847em" y="14.443167344160663em" fill="#aaa"/><rect width="0.9615384615384616em" height="15.429288288784221em" x="76.92307692307692em" y="14.570711711215779em" fill="#aaa"/><rect width="0.9615384615384616em" height="12.72938878595367em" x="77.88461538461539em" y="17.27061121404633em" fill="#aaa"/><rect width="0.9615384615384616em" height="16.96764957276813em" x="78.84615384615385em" y="13.032350427231869em" fill="#aaa"/><rect width="0.9615384615384616em" height="13.455228610346285em" x="79.8076923076923em" y="16.544771389653715em" fill="#aaa"/><rect width="0.9615384615384616em" height="9.573422946697741em" x="80.76923076923077em" y="20.42657705330226em" fill="#aaa"/><rect width="0.9615384615384616em" height="18.08536493004515em" x="81.73076923076923em" y="11.914635069954851em" fill="#aaa"/><rect width="0.9615384615384616em" height="21.311186616090346em" x="82.6923076923077em" y="8.688813383909654em" fill="#aaa"/><rect width="0.9615384615384616em" height="15.714325524287974em" x="83.65384615384616em" y="14.285674475712026em" fill="#aaa"/><rect width="0.9615384615384616em" height="6.085599384775796em" x="84.61538461538461em" y="23.914400615224203em" fill="#aaa"/><rect width="0.9615384615384616em" height="6.96048342975448em" x="85.57692307692308em" y="23.03951657024552em" fill="#aaa"/><rect width="0.9615384615384616em" height="7.577471739280243em" x="86.53846153846155em" y="22.42252826071976em" fill="#aaa"/><rect width="0.9615384615384616em" height="12.14330172018788em" x="87.5em" y="17.85669827981212em" fill="#aaa"/><rect width="0.9615384615384616em" height="15.751878566894053em" x="88.46153846153847em" y="14.248121433105947em" fill="#aaa"/><rect width="0.9615384615384616em" height="11.817999049894368em" x="89.42307692307692em" y="18.182000950105632em" fill="#aaa"/><rect width="0.9615384615384616em" height="8.591069676464667em" x="90.38461538461539em" y="21.408930323535333em" fill="#aaa"/><rect width="0.9615384615384616em" height="13.316230853949955em" x="91.34615384615385em" y="16.683769146050047em" fill="#aaa"/><rect width="0.9615384615384616em" height="10.795309012039256em" x="92.3076923076923em" y="19.204690987960745em" fill="#aaa"/><rect width="0.9615384615384616em" height="8.051574160395003em" x="93.26923076923077em" y="21.948425839604997em" fill="#aaa"/><rect width="0.9615384615384616em" height="9.985729399319833em" x="94.23076923076923em" y="20.014270600680167em" fill="#aaa"/><rect width="0.9615384615384616em" height="7.020870823675123em" x="95.1923076923077em" y="22.979129176324875em" fill="#aaa"/><rect width="0.9615384615384616em" height="12.085395509293724em" x="96.15384615384616em" y="17.914604490706274em" fill="#aaa"/><rect width="0.9615384615384616em" height="7.570255562650626em" x="97.11538461538461em" y="22.429744437349374em" fill="#aaa"/><rect width="0.9615384615384616em" height="8.196026621076722em" x="98.07692307692308em" y="21.803973378923278em" fill="#aaa"/><rect width="0.9615384615384616em" height="6.387929019590474em" x="99.03846153846155em" y="23.612070980409527em" fill="#aaa"/></svg>