<?xml version="1.0" standalone="no"?>
<svg xmlns:xlink="http://www.w3.org/1999/xlink" xmlns="http://www.w3.org/2000/svg" class="topic-graph" style="width: 100em; height: 30em; text-align: center;"><rect width="0.9615384615384616em" height="1.9336892052939691em" x="0em" y="28.06631079470603em" fill="#aaa"/><rect width="0.9615384615384616em" height="7.870780040738524em" x="0.9615384615384616em" y="22.129219959261476em" fill="#aaa"/><rect width="0.9615384615384616em" height="7.28354742135507em" x="1.9230769230769231em" y="22.71645257864493em" fill="#aaa"/><rect width="0.9615384615384616em" height="18.85268711352276em" x="2.8846153846153846em" y="11.147312886477241em" fill="#aaa"/><rect width="0.9615384615384616em" height="11.020733537682771em" x="3.8461538461538463em" y="18.979266462317227em" fill="#aaa"/><rect width="0.9615384615384616em" height="9.047760037936321em" x="4.8076923076923075em" y="20.95223996206368em" fill="#aaa"/><rect width="0.9615384615384616em" height="18.225548803901198em" x="5.769230769230769em" y="11.774451196098802em" fill="#aaa"/><rect width="0.9615384615384616em" height="5.670549570002362em" x="6.730769230769231em" y="24.32945042999764em" fill="#aaa"/><rect width="0.9615384615384616em" height="10.508408066023648em" x="7.6923076923076925em" y="19.491591933976352em" fill="#aaa"/><rect width="0.9615384615384616em" height="9.541835024432597em" x="8.653846153846153em" y="20.458164975567403em" fill="#aaa"/><rect width="0.9615384615384616em" height="17.95121527253155em" x="9.615384615384615em" y="12.048784727468451em" fill="#aaa"/><rect width="0.9615384615384616em" height="8.100696987276514em" x="10.576923076923077em" y="21.899303012723486em" fill="#aaa"/><rect width="0.9615384615384616em" height="10.717315640317592em" x="11.538461538461538em" y="19.282684359682406em" fill="#aaa"/><rect width="0.9615384615384616em" height="15.383495207700557em" x="12.5em" y="14.616504792299443em" fill="#aaa"/><rect width="0.9615384615384616em" height="3.1499659697348408em" x="13.461538461538462em" y="26.85003403026516em" fill="#aaa"/><rect width="0.9615384615384616em" height="7.519052315443608em" x="14.423076923076923em" y="22.48094768455639em" fill="#aaa"/><rect width="0.9615384615384616em" height="9.509901122650462em" x="15.384615384615385em" y="20.49009887734954em" fill="#aaa"/><rect width="0.9615384615384616em" height="11.208180365451227em" x="16.346153846153847em" y="18.791819634548773em" fill="#aaa"/><rect width="0.9615384615384616em" height="15.37656947719713em" x="17.307692307692307em" y="14.62343052280287em" fill="#aaa"/><rect width="0.9615384615384616em" height="19.89824452788047em" x="18.26923076923077em" y="10.101755472119532em" fill="#aaa"/><rect width="0.9615384615384616em" height="16.60168951338994em" x="19.23076923076923em" y="13.398310486610061em" fill="#aaa"/><rect width="0.9615384615384616em" height="17.064639247265497em" x="20.192307692307693em" y="12.935360752734503em" fill="#aaa"/><rect width="0.9615384615384616em" height="14.276112529720857em" x="21.153846153846153em" y="15.723887470279143em" fill="#aaa"/><rect width="0.9615384615384616em" height="23.115641985973586em" x="22.115384615384617em" y="6.8843580140264145em" fill="#aaa"/><rect width="0.9615384615384616em" height="26.789129415527295em" x="23.076923076923077em" y="3.210870584472705em" fill="#aaa"/><rect width="0.9615384615384616em" height="9.869841892208274em" x="24.03846153846154em" y="20.130158107791726em" fill="#aaa"/><rect width="0.9615384615384616em" height="7.722032130535476em" x="25em" y="22.277967869464526em" fill="#aaa"/><rect width="0.9615384615384616em" height="6.00113756081197em" x="25.961538461538463em" y="23.99886243918803em" fill="#aaa"/><rect width="0.9615384615384616em" height="7.055781551998085em" x="26.923076923076923em" y="22.944218448001916em" fill="#aaa"/><rect width="0.9615384615384616em" height="14.103274014119192em" x="27.884615384615387em" y="15.896725985880808em" fill="#aaa"/><rect width="0.9615384615384616em" height="16.47556851087379em" x="28.846153846153847em" y="13.524431489126211em" fill="#aaa"/><rect width="0.9615384615384616em" height="15.27094225839328em" x="29.80769230769231em" y="14.72905774160672em" fill="#aaa"/><rect width="0.9615384615384616em" height="12.53072952093879em" x="30.76923076923077em" y="17.46927047906121em" fill="#aaa"/><rect width="0.9615384615384616em" height="14.813295582031015em" x="31.73076923076923em" y="15.186704417968985em" fill="#aaa"/><rect width="0.9615384615384616em" height="16.875510732398155em" x="32.69230769230769em" y="13.124489267601845em" fill="#aaa"/><rect width="0.9615384615384616em" height="17.092014323147em" x="33.65384615384615em" y="12.907985676852999em" fill="#aaa"/><rect width="0.9615384615384616em" height="16.985631707164075em" x="34.61538461538461em" y="13.014368292835925em" fill="#aaa"/><rect width="0.9615384615384616em" height="18.309771159358554em" x="35.57692307692308em" y="11.690228840641446em" fill="#aaa"/><rect width="0.9615384615384616em" height="13.912785967840057em" x="36.53846153846154em" y="16.08721403215994em" fill="#aaa"/><rect width="0.9615384615384616em" height="14.119110166612984em" x="37.5em" y="15.880889833387016em" fill="#aaa"/><rect width="0.9615384615384616em" height="13.721996468397913em" x="38.46153846153846em" y="16.27800353160209em" fill="#aaa"/><rect width="0.9615384615384616em" height="13.899316899455563em" x="39.42307692307693em" y="16.100683100544437em" fill="#aaa"/><rect width="0.9615384615384616em" height="9.338297140198275em" x="40.38461538461539em" y="20.661702859801725em" fill="#aaa"/><rect width="0.9615384615384616em" height="17.113255950588645em" x="41.34615384615385em" y="12.886744049411355em" fill="#aaa"/><rect width="0.9615384615384616em" height="15.946316988799408em" x="42.30769230769231em" y="14.053683011200592em" fill="#aaa"/><rect width="0.9615384615384616em" height="12.463862033927537em" x="43.269230769230774em" y="17.536137966072463em" fill="#aaa"/><rect width="0.9615384615384616em" height="14.451129604510552em" x="44.23076923076923em" y="15.548870395489448em" fill="#aaa"/><rect width="0.9615384615384616em" height="30em" x="45.19230769230769em" y="0em" fill="#aaa"/><rect width="0.9615384615384616em" height="19.39423438920011em" x="46.15384615384615em" y="10.605765610799889em" fill="#aaa"/><rect width="0.9615384615384616em" height="17.044543999498206em" x="47.11538461538461em" y="12.955456000501794em" fill="#aaa"/><rect width="0.9615384615384616em" height="19.03147737140516em" x="48.07692307692308em" y="10.96852262859484em" fill="#aaa"/><rect width="0.9615384615384616em" height="18.440179146884564em" x="49.03846153846154em" y="11.559820853115436em" fill="#aaa"/><rect width="0.9615384615384616em" height="19.855807609029583em" x="50em" y="10.144192390970417em" fill="#aaa"/><rect width="0.9615384615384616em" height="21.603973144105574em" x="50.96153846153846em" y="8.396026855894426em" fill="#aaa"/><rect width="0.9615384615384616em" height="15.514385376092864em" x="51.92307692307693em" y="14.485614623907136em" fill="#aaa"/><rect width="0.9615384615384616em" height="22.391267960840363em" x="52.88461538461539em" y="7.608732039159637em" fill="#aaa"/><rect width="0.9615384615384616em" height="20.380399031975184em" x="53.84615384615385em" y="9.619600968024816em" fill="#aaa"/><rect width="0.9615384615384616em" height="20.538650633539646em" x="54.80769230769231em" y="9.461349366460354em" fill="#aaa"/><rect width="0.9615384615384616em" height="19.205762075486803em" x="55.769230769230774em" y="10.794237924513197em" fill="#aaa"/><rect width="0.9615384615384616em" height="15.522307430501845em" x="56.73076923076923em" y="14.477692569498155em" fill="#aaa"/><rect width="0.9615384615384616em" height="17.382637738811457em" x="57.69230769230769em" y="12.617362261188543em" fill="#aaa"/><rect width="0.9615384615384616em" height="18.90922740958747em" x="58.65384615384615em" y="11.09077259041253em" fill="#aaa"/><rect width="0.9615384615384616em" height="22.303127682846423em" x="59.61538461538462em" y="7.696872317153577em" fill="#aaa"/><rect width="0.9615384615384616em" height="21.279370108055332em" x="60.57692307692308em" y="8.720629891944668em" fill="#aaa"/><rect width="0.9615384615384616em" height="22.950343908723035em" x="61.53846153846154em" y="7.049656091276965em" fill="#aaa"/><rect width="0.9615384615384616em" height="18.415981096201307em" x="62.5em" y="11.584018903798693em" fill="#aaa"/><rect width="0.9615384615384616em" height="21.680566703428898em" x="63.46153846153846em" y="8.319433296571102em" fill="#aaa"/><rect width="0.9615384615384616em" height="17.679126997631986em" x="64.42307692307692em" y="12.320873002368014em" fill="#aaa"/><rect width="0.9615384615384616em" height="18.908340507749926em" x="65.38461538461539em" y="11.091659492250074em" fill="#aaa"/><rect width="0.9615384615384616em" height="10.716860314740703em" x="66.34615384615385em" y="19.283139685259297em" fill="#aaa"/><rect width="0.9615384615384616em" height="10.991610338716686em" x="67.3076923076923em" y="19.008389661283314em" fill="#aaa"/><rect width="0.9615384615384616em" height="10.43587323469674em" x="68.26923076923077em" y="19.56412676530326em" fill="#aaa"/><rect width="0.9615384615384616em" height="11.075542354194244em" x="69.23076923076923em" y="18.924457645805756em" fill="#aaa"/><rect width="0.9615384615384616em" height="14.054078186966798em" x="70.1923076923077em" y="15.945921813033202em" fill="#aaa"/><rect width="0.9615384615384616em" height="11.325851688754776em" x="71.15384615384616em" y="18.674148311245226em" fill="#aaa"/><rect width="0.9615384615384616em" height="8.072780011645435em" x="72.11538461538461em" y="21.927219988354565em" fill="#aaa"/><rect width="0.9615384615384616em" height="7.231789661629164em" x="73.07692307692308em" y="22.768210338370835em" fill="#aaa"/><rect width="0.9615384615384616em" height="10.00734445080145em" x="74.03846153846155em" y="19.992655549198552em" fill="#aaa"/><rect width="0.9615384615384616em" height="9.249183313069295em" x="75em" y="20.750816686930705em" fill="#aaa"/><rect width="0.9615384615384616em" height="9.373680331691768em" x="75.96153846153847em" y="20.626319668308234em" fill="#aaa"/><rect width="0.9615384615384616em" height="6.173686648764468em" x="76.92307692307692em" y="23.826313351235534em" fill="#aaa"/><rect width="0.9615384615384616em" height="9.923240805784484em" x="77.88461538461539em" y="20.076759194215516em" fill="#aaa"/><rect width="0.9615384615384616em" height="6.028470078113168em" x="78.84615384615385em" y="23.971529921886834em" fill="#aaa"/><rect width="0.9615384615384616em" height="6.126039388129777em" x="79.8076923076923em" y="23.873960611870224em" fill="#aaa"/><rect width="0.9615384615384616em" height="9.15733068836118em" x="80.76923076923077em" y="20.842669311638822em" fill="#aaa"/><rect width="0.9615384615384616em" height="7.986696761137123em" x="81.73076923076923em" y="22.013303238862875em" fill="#aaa"/><rect width="0.9615384615384616em" height="7.208910973137247em" x="82.6923076923077em" y="22.791089026862753em" fill="#aaa"/><rect width="0.9615384615384616em" height="9.82078265669926em" x="83.65384615384616em" y="20.179217343300742em" fill="#aaa"/><rect width="0.9615384615384616em" height="9.404292726591397em" x="84.61538461538461em" y="20.595707273408603em" fill="#aaa"/><rect width="0.9615384615384616em" height="7.11454531241953em" x="85.57692307692308em" y="22.88545468758047em" fill="#aaa"/><rect width="0.9615384615384616em" height="8.478232979244913em" x="86.53846153846155em" y="21.521767020755085em" fill="#aaa"/><rect width="0.9615384615384616em" height="6.501960455748372em" x="87.5em" y="23.49803954425163em" fill="#aaa"/><rect width="0.9615384615384616em" height="6.396621497934928em" x="88.46153846153847em" y="23.603378502065073em" fill="#aaa"/><rect width="0.9615384615384616em" height="7.291320750296973em" x="89.42307692307692em" y="22.708679249703028em" fill="#aaa"/><rect width="0.9615384615384616em" height="8.141432942220618em" x="90.38461538461539em" y="21.858567057779382em" fill="#aaa"/><rect width="0.9615384615384616em" height="6.982566438253978em" x="91.34615384615385em" y="23.01743356174602em" fill="#aaa"/><rect width="0.9615384615384616em" height="6.621098573427551em" x="92.3076923076923em" y="23.378901426572448em" fill="#aaa"/><rect width="0.9615384615384616em" height="6.170047285197581em" x="93.26923076923077em" y="23.829952714802417em" fill="#aaa"/><rect width="0.9615384615384616em" height="8.620576125132201em" x="94.23076923076923em" y="21.379423874867797em" fill="#aaa"/><rect width="0.9615384615384616em" height="7.315189600142138em" x="95.1923076923077em" y="22.684810399857863em" fill="#aaa"/><rect width="0.9615384615384616em" height="6.523873686461393em" x="96.15384615384616em" y="23.476126313538607em" fill="#aaa"/><rect width="0.9615384615384616em" height="7.585492179297405em" x="97.11538461538461em" y="22.414507820702596em" fill="#aaa"/><rect width="0.9615384615384616em" height="7.705842203984733em" x="98.07692307692308em" y="22.294157796015266em" fill="#aaa"/><rect width="0.9615384615384616em" height="6.691854217016638em" x="99.03846153846155em" y="23.308145782983363em" fill="#aaa"/></svg>