<?xml version="1.0" standalone="no"?>
<svg xmlns:xlink="http://www.w3.org/1999/xlink" xmlns="http://www.w3.org/2000/svg" class="topic-graph" style="width: 10vw; height: 3em; text-align: center;"><rect width="0.09615384615384616em" height="0.06988293555279808em" x="0vw" y="2.930117064447202em" fill="#aaa"/><rect width="0.09615384615384616em" height="0.8251782039001032em" x="0.09615384615384616vw" y="2.174821796099897em" fill="#aaa"/><rect width="0.09615384615384616em" height="0.3945620186379345em" x="0.19230769230769232vw" y="2.6054379813620656em" fill="#aaa"/><rect width="0.09615384615384616em" height="0.8972452034583178em" x="0.2884615384615385vw" y="2.1027547965416824em" fill="#aaa"/><rect width="0.09615384615384616em" height="0.6386311779446654em" x="0.38461538461538464vw" y="2.3613688220553346em" fill="#aaa"/><rect width="0.09615384615384616em" height="0.1691962497309271em" x="0.4807692307692308vw" y="2.830803750269073em" fill="#aaa"/><rect width="0.09615384615384616em" height="0.5508787213044424em" x="0.576923076923077vw" y="2.4491212786955576em" fill="#aaa"/><rect width="0.09615384615384616em" height="0.4663552610496895em" x="0.6730769230769231vw" y="2.5336447389503105em" fill="#aaa"/><rect width="0.09615384615384616em" height="0.5643255959752467em" x="0.7692307692307693vw" y="2.4356744040247533em" fill="#aaa"/><rect width="0.09615384615384616em" height="0.2539224507530296em" x="0.8653846153846154vw" y="2.7460775492469702em" fill="#aaa"/><rect width="0.09615384615384616em" height="0.4488357754064579em" x="0.9615384615384616vw" y="2.551164224593542em" fill="#aaa"/><rect width="0.09615384615384616em" height="0.5065839714699485em" x="1.0576923076923077vw" y="2.4934160285300515em" fill="#aaa"/><rect width="0.09615384615384616em" height="0.5480383669674318em" x="1.153846153846154vw" y="2.4519616330325684em" fill="#aaa"/><rect width="0.09615384615384616em" height="0.7561124805399391em" x="1.25vw" y="2.2438875194600607em" fill="#aaa"/><rect width="0.09615384615384616em" height="0.21572103436930706em" x="1.3461538461538463vw" y="2.7842789656306928em" fill="#aaa"/><rect width="0.09615384615384616em" height="0.23871858429441345em" x="1.4423076923076923vw" y="2.7612814157055867em" fill="#aaa"/><rect width="0.09615384615384616em" height="0.6361600273567577em" x="1.5384615384615385vw" y="2.3638399726432424em" fill="#aaa"/><rect width="0.09615384615384616em" height="0.47128927879983706em" x="1.6346153846153848vw" y="2.528710721200163em" fill="#aaa"/><rect width="0.09615384615384616em" height="0.9581627342524093em" x="1.7307692307692308vw" y="2.0418372657475907em" fill="#aaa"/><rect width="0.09615384615384616em" height="0.3597000587329016em" x="1.826923076923077vw" y="2.640299941267098em" fill="#aaa"/><rect width="0.09615384615384616em" height="0.3846061643371885em" x="1.9230769230769231vw" y="2.6153938356628115em" fill="#aaa"/><rect width="0.09615384615384616em" height="0.5120544595429473em" x="2.019230769230769vw" y="2.4879455404570527em" fill="#aaa"/><rect width="0.09615384615384616em" height="0.4443351744390839em" x="2.1153846153846154vw" y="2.5556648255609162em" fill="#aaa"/><rect width="0.09615384615384616em" height="0.35011932334642676em" x="2.2115384615384617vw" y="2.649880676653573em" fill="#aaa"/><rect width="0.09615384615384616em" height="0.5336166203243832em" x="2.307692307692308vw" y="2.4663833796756167em" fill="#aaa"/><rect width="0.09615384615384616em" height="0.7760668926081458em" x="2.403846153846154vw" y="2.2239331073918542em" fill="#aaa"/><rect width="0.09615384615384616em" height="0.8187491641987783em" x="2.5vw" y="2.1812508358012215em" fill="#aaa"/><rect width="0.09615384615384616em" height="0.6505168120333719em" x="2.5961538461538463vw" y="2.3494831879666283em" fill="#aaa"/><rect width="0.09615384615384616em" height="0.41242205548352406em" x="2.6923076923076925vw" y="2.587577944516476em" fill="#aaa"/><rect width="0.09615384615384616em" height="0.6314448759264156em" x="2.7884615384615388vw" y="2.3685551240735845em" fill="#aaa"/><rect width="0.09615384615384616em" height="0.5906624579503215em" x="2.8846153846153846vw" y="2.4093375420496788em" fill="#aaa"/><rect width="0.09615384615384616em" height="0.8942175101605998em" x="2.980769230769231vw" y="2.1057824898394em" fill="#aaa"/><rect width="0.09615384615384616em" height="0.8801856264809056em" x="3.076923076923077vw" y="2.1198143735190946em" fill="#aaa"/><rect width="0.09615384615384616em" height="1.177910081148779em" x="3.1730769230769234vw" y="1.822089918851221em" fill="#aaa"/><rect width="0.09615384615384616em" height="0.33114941841565126em" x="3.2692307692307696vw" y="2.6688505815843486em" fill="#aaa"/><rect width="0.09615384615384616em" height="0.44050447123248127em" x="3.3653846153846154vw" y="2.5594955287675187em" fill="#aaa"/><rect width="0.09615384615384616em" height="0.31053349318420387em" x="3.4615384615384617vw" y="2.689466506815796em" fill="#aaa"/><rect width="0.09615384615384616em" height="0.524831280114606em" x="3.557692307692308vw" y="2.475168719885394em" fill="#aaa"/><rect width="0.09615384615384616em" height="0.7343763599571748em" x="3.653846153846154vw" y="2.265623640042825em" fill="#aaa"/><rect width="0.09615384615384616em" height="0.35095050706548286em" x="3.75vw" y="2.649049492934517em" fill="#aaa"/><rect width="0.09615384615384616em" height="0.6638548317653669em" x="3.8461538461538463vw" y="2.336145168234633em" fill="#aaa"/><rect width="0.09615384615384616em" height="0.9405687261943507em" x="3.9423076923076925vw" y="2.0594312738056493em" fill="#aaa"/><rect width="0.09615384615384616em" height="1.447306290639173em" x="4.038461538461538vw" y="1.552693709360827em" fill="#aaa"/><rect width="0.09615384615384616em" height="0.6801361653156368em" x="4.134615384615385vw" y="2.319863834684363em" fill="#aaa"/><rect width="0.09615384615384616em" height="0.6857101980864739em" x="4.230769230769231vw" y="2.3142898019135263em" fill="#aaa"/><rect width="0.09615384615384616em" height="0.8640323787337619em" x="4.3269230769230775vw" y="2.135967621266238em" fill="#aaa"/><rect width="0.09615384615384616em" height="0.5746793269888834em" x="4.423076923076923vw" y="2.4253206730111168em" fill="#aaa"/><rect width="0.09615384615384616em" height="0.5769329519483996em" x="4.519230769230769vw" y="2.4230670480516006em" fill="#aaa"/><rect width="0.09615384615384616em" height="0.5823604585557633em" x="4.615384615384616vw" y="2.4176395414442364em" fill="#aaa"/><rect width="0.09615384615384616em" height="2.4840667735959023em" x="4.711538461538462vw" y="0.5159332264040977em" fill="#aaa"/><rect width="0.09615384615384616em" height="3em" x="4.807692307692308vw" y="0em" fill="#aaa"/><rect width="0.09615384615384616em" height="2.0749941491791937em" x="4.903846153846154vw" y="0.9250058508208063em" fill="#aaa"/><rect width="0.09615384615384616em" height="1.2088721701727119em" x="5vw" y="1.7911278298272881em" fill="#aaa"/><rect width="0.09615384615384616em" height="1.4755403365457673em" x="5.096153846153847vw" y="1.5244596634542327em" fill="#aaa"/><rect width="0.09615384615384616em" height="1.3402552572888928em" x="5.1923076923076925vw" y="1.6597447427111072em" fill="#aaa"/><rect width="0.09615384615384616em" height="0.9632534390446357em" x="5.288461538461538vw" y="2.0367465609553643em" fill="#aaa"/><rect width="0.09615384615384616em" height="1.5011103905748044em" x="5.384615384615385vw" y="1.4988896094251956em" fill="#aaa"/><rect width="0.09615384615384616em" height="1.0481040985560002em" x="5.480769230769231vw" y="1.9518959014439998em" fill="#aaa"/><rect width="0.09615384615384616em" height="1.3316163943767565em" x="5.5769230769230775vw" y="1.6683836056232435em" fill="#aaa"/><rect width="0.09615384615384616em" height="0.8787971780431326em" x="5.673076923076923vw" y="2.1212028219568673em" fill="#aaa"/><rect width="0.09615384615384616em" height="1.1909182445547972em" x="5.769230769230769vw" y="1.8090817554452028em" fill="#aaa"/><rect width="0.09615384615384616em" height="2.130900401147304em" x="5.865384615384616vw" y="0.8690995988526962em" fill="#aaa"/><rect width="0.09615384615384616em" height="1.352534586305572em" x="5.961538461538462vw" y="1.647465413694428em" fill="#aaa"/><rect width="0.09615384615384616em" height="1.7122250449410397em" x="6.057692307692308vw" y="1.2877749550589603em" fill="#aaa"/><rect width="0.09615384615384616em" height="1.5252043609455452em" x="6.153846153846154vw" y="1.4747956390544548em" fill="#aaa"/><rect width="0.09615384615384616em" height="1.5854602513770963em" x="6.25vw" y="1.4145397486229037em" fill="#aaa"/><rect width="0.09615384615384616em" height="1.906999635202535em" x="6.346153846153847vw" y="1.093000364797465em" fill="#aaa"/><rect width="0.09615384615384616em" height="1.6838573278068716em" x="6.4423076923076925vw" y="1.3161426721931284em" fill="#aaa"/><rect width="0.09615384615384616em" height="1.2780784319195726em" x="6.538461538461539vw" y="1.7219215680804274em" fill="#aaa"/><rect width="0.09615384615384616em" height="0.7341733237222825em" x="6.634615384615385vw" y="2.2658266762777175em" fill="#aaa"/><rect width="0.09615384615384616em" height="0.9371664339879688em" x="6.730769230769231vw" y="2.0628335660120314em" fill="#aaa"/><rect width="0.09615384615384616em" height="1.04436955188218em" x="6.8269230769230775vw" y="1.95563044811782em" fill="#aaa"/><rect width="0.09615384615384616em" height="1.4140888574166364em" x="6.923076923076923vw" y="1.5859111425833636em" fill="#aaa"/><rect width="0.09615384615384616em" height="0.7231702741223679em" x="7.01923076923077vw" y="2.276829725877632em" fill="#aaa"/><rect width="0.09615384615384616em" height="0.9460067252238078em" x="7.115384615384616vw" y="2.053993274776192em" fill="#aaa"/><rect width="0.09615384615384616em" height="0.8211854238682741em" x="7.211538461538462vw" y="2.178814576131726em" fill="#aaa"/><rect width="0.09615384615384616em" height="1.1002715133500398em" x="7.307692307692308vw" y="1.8997284866499602em" fill="#aaa"/><rect width="0.09615384615384616em" height="0.8442320899345142em" x="7.403846153846154vw" y="2.155767910065486em" fill="#aaa"/><rect width="0.09615384615384616em" height="1.34046805124298em" x="7.5vw" y="1.65953194875702em" fill="#aaa"/><rect width="0.09615384615384616em" height="0.9577684295590863em" x="7.596153846153847vw" y="2.0422315704409137em" fill="#aaa"/><rect width="0.09615384615384616em" height="1.3153104475539394em" x="7.6923076923076925vw" y="1.6846895524460606em" fill="#aaa"/><rect width="0.09615384615384616em" height="0.803662290100191em" x="7.788461538461539vw" y="2.196337709899809em" fill="#aaa"/><rect width="0.09615384615384616em" height="1.0090301424798536em" x="7.884615384615385vw" y="1.9909698575201464em" fill="#aaa"/><rect width="0.09615384615384616em" height="0.8845004913586832em" x="7.980769230769231vw" y="2.115499508641317em" fill="#aaa"/><rect width="0.09615384615384616em" height="0.8945548145284687em" x="8.076923076923077vw" y="2.105445185471531em" fill="#aaa"/><rect width="0.09615384615384616em" height="0.8492152609408159em" x="8.173076923076923vw" y="2.1507847390591843em" fill="#aaa"/><rect width="0.09615384615384616em" height="0.811463333112478em" x="8.26923076923077vw" y="2.188536666887522em" fill="#aaa"/><rect width="0.09615384615384616em" height="0.7640273275992976em" x="8.365384615384615vw" y="2.2359726724007025em" fill="#aaa"/><rect width="0.09615384615384616em" height="0.8247146675283786em" x="8.461538461538462vw" y="2.1752853324716215em" fill="#aaa"/><rect width="0.09615384615384616em" height="0.9309250372185958em" x="8.557692307692308vw" y="2.0690749627814045em" fill="#aaa"/><rect width="0.09615384615384616em" height="0.8633363842327826em" x="8.653846153846155vw" y="2.136663615767217em" fill="#aaa"/><rect width="0.09615384615384616em" height="0.7890221377142874em" x="8.75vw" y="2.210977862285713em" fill="#aaa"/><rect width="0.09615384615384616em" height="0.9349130400134573em" x="8.846153846153847vw" y="2.0650869599865427em" fill="#aaa"/><rect width="0.09615384615384616em" height="0.796588595850177em" x="8.942307692307693vw" y="2.203411404149823em" fill="#aaa"/><rect width="0.09615384615384616em" height="1.0432011365299743em" x="9.038461538461538vw" y="1.9567988634700257em" fill="#aaa"/><rect width="0.09615384615384616em" height="0.9131581775758522em" x="9.134615384615385vw" y="2.086841822424148em" fill="#aaa"/><rect width="0.09615384615384616em" height="0.7604170215241906em" x="9.230769230769232vw" y="2.2395829784758092em" fill="#aaa"/><rect width="0.09615384615384616em" height="1.187299062596722em" x="9.326923076923077vw" y="1.812700937403278em" fill="#aaa"/><rect width="0.09615384615384616em" height="1.1651660552477783em" x="9.423076923076923vw" y="1.8348339447522217em" fill="#aaa"/><rect width="0.09615384615384616em" height="1.1817367654157238em" x="9.51923076923077vw" y="1.8182632345842762em" fill="#aaa"/><rect width="0.09615384615384616em" height="1.012623331997606em" x="9.615384615384617vw" y="1.987376668002394em" fill="#aaa"/><rect width="0.09615384615384616em" height="1.1585444404829124em" x="9.711538461538462vw" y="1.8414555595170876em" fill="#aaa"/><rect width="0.09615384615384616em" height="1.0554974516549591em" x="9.807692307692308vw" y="1.9445025483450409em" fill="#aaa"/><rect width="0.09615384615384616em" height="0.9339673776812816em" x="9.903846153846155vw" y="2.066032622318718em" fill="#aaa"/></svg>