<?xml version="1.0" standalone="no"?>
<svg xmlns:xlink="http://www.w3.org/1999/xlink" xmlns="http://www.w3.org/2000/svg" class="topic-graph" style="width: 10vw; height: 3em; text-align: center;"><rect width="0.09615384615384616em" height="2.4483012821569865em" x="0vw" y="0.5516987178430135em" fill="#aaa"/><rect width="0.09615384615384616em" height="1.2468739164644853em" x="0.09615384615384616vw" y="1.7531260835355147em" fill="#aaa"/><rect width="0.09615384615384616em" height="2.0665167679486935em" x="0.19230769230769232vw" y="0.9334832320513065em" fill="#aaa"/><rect width="0.09615384615384616em" height="1.1839375665100118em" x="0.2884615384615385vw" y="1.8160624334899882em" fill="#aaa"/><rect width="0.09615384615384616em" height="1.1828707232797873em" x="0.38461538461538464vw" y="1.8171292767202127em" fill="#aaa"/><rect width="0.09615384615384616em" height="1.8617646832980723em" x="0.4807692307692308vw" y="1.1382353167019277em" fill="#aaa"/><rect width="0.09615384615384616em" height="1.7455104320470163em" x="0.576923076923077vw" y="1.2544895679529837em" fill="#aaa"/><rect width="0.09615384615384616em" height="3em" x="0.6730769230769231vw" y="0em" fill="#aaa"/><rect width="0.09615384615384616em" height="1.4935625402967223em" x="0.7692307692307693vw" y="1.5064374597032777em" fill="#aaa"/><rect width="0.09615384615384616em" height="2.0270016131830464em" x="0.8653846153846154vw" y="0.9729983868169536em" fill="#aaa"/><rect width="0.09615384615384616em" height="1.62489904764014em" x="0.9615384615384616vw" y="1.37510095235986em" fill="#aaa"/><rect width="0.09615384615384616em" height="0.9619317299632428em" x="1.0576923076923077vw" y="2.0380682700367574em" fill="#aaa"/><rect width="0.09615384615384616em" height="1.7037916935429451em" x="1.153846153846154vw" y="1.2962083064570549em" fill="#aaa"/><rect width="0.09615384615384616em" height="1.2889001583927064em" x="1.25vw" y="1.7110998416072936em" fill="#aaa"/><rect width="0.09615384615384616em" height="2.181194983573769em" x="1.3461538461538463vw" y="0.8188050164262308em" fill="#aaa"/><rect width="0.09615384615384616em" height="1.4127045399091538em" x="1.4423076923076923vw" y="1.5872954600908462em" fill="#aaa"/><rect width="0.09615384615384616em" height="1.9364836250791633em" x="1.5384615384615385vw" y="1.0635163749208367em" fill="#aaa"/><rect width="0.09615384615384616em" height="2.2062216515443502em" x="1.6346153846153848vw" y="0.7937783484556498em" fill="#aaa"/><rect width="0.09615384615384616em" height="1.6262942911912164em" x="1.7307692307692308vw" y="1.3737057088087836em" fill="#aaa"/><rect width="0.09615384615384616em" height="1.7928064086268454em" x="1.826923076923077vw" y="1.2071935913731546em" fill="#aaa"/><rect width="0.09615384615384616em" height="1.7211281069582163em" x="1.9230769230769231vw" y="1.2788718930417837em" fill="#aaa"/><rect width="0.09615384615384616em" height="1.0464059942430919em" x="2.019230769230769vw" y="1.9535940057569081em" fill="#aaa"/><rect width="0.09615384615384616em" height="1.1548526721909274em" x="2.1153846153846154vw" y="1.8451473278090726em" fill="#aaa"/><rect width="0.09615384615384616em" height="1.4629447306187688em" x="2.2115384615384617vw" y="1.5370552693812312em" fill="#aaa"/><rect width="0.09615384615384616em" height="0.7010489234911922em" x="2.307692307692308vw" y="2.298951076508808em" fill="#aaa"/><rect width="0.09615384615384616em" height="1.4336676801401633em" x="2.403846153846154vw" y="1.5663323198598367em" fill="#aaa"/><rect width="0.09615384615384616em" height="1.2000430462673872em" x="2.5vw" y="1.7999569537326128em" fill="#aaa"/><rect width="0.09615384615384616em" height="1.5638341763242523em" x="2.5961538461538463vw" y="1.4361658236757477em" fill="#aaa"/><rect width="0.09615384615384616em" height="1.7541495029977825em" x="2.6923076923076925vw" y="1.2458504970022175em" fill="#aaa"/><rect width="0.09615384615384616em" height="2.2617774489159976em" x="2.7884615384615388vw" y="0.7382225510840024em" fill="#aaa"/><rect width="0.09615384615384616em" height="1.4901234068964189em" x="2.8846153846153846vw" y="1.5098765931035811em" fill="#aaa"/><rect width="0.09615384615384616em" height="1.9061641701718195em" x="2.980769230769231vw" y="1.0938358298281805em" fill="#aaa"/><rect width="0.09615384615384616em" height="2.15028051279618em" x="3.076923076923077vw" y="0.8497194872038198em" fill="#aaa"/><rect width="0.09615384615384616em" height="1.9195712436971637em" x="3.1730769230769234vw" y="1.0804287563028363em" fill="#aaa"/><rect width="0.09615384615384616em" height="1.6077130416738412em" x="3.2692307692307696vw" y="1.3922869583261588em" fill="#aaa"/><rect width="0.09615384615384616em" height="1.928243478958176em" x="3.3653846153846154vw" y="1.071756521041824em" fill="#aaa"/><rect width="0.09615384615384616em" height="1.5917800400733157em" x="3.4615384615384617vw" y="1.4082199599266843em" fill="#aaa"/><rect width="0.09615384615384616em" height="1.5585752847581877em" x="3.557692307692308vw" y="1.4414247152418123em" fill="#aaa"/><rect width="0.09615384615384616em" height="1.2843207943511166em" x="3.653846153846154vw" y="1.7156792056488834em" fill="#aaa"/><rect width="0.09615384615384616em" height="0.9266509174702586em" x="3.75vw" y="2.0733490825297416em" fill="#aaa"/><rect width="0.09615384615384616em" height="1.3939954680997158em" x="3.8461538461538463vw" y="1.6060045319002842em" fill="#aaa"/><rect width="0.09615384615384616em" height="0.9643267575434529em" x="3.9423076923076925vw" y="2.0356732424565473em" fill="#aaa"/><rect width="0.09615384615384616em" height="1.1923004137617246em" x="4.038461538461538vw" y="1.8076995862382754em" fill="#aaa"/><rect width="0.09615384615384616em" height="0.9400458969357919em" x="4.134615384615385vw" y="2.059954103064208em" fill="#aaa"/><rect width="0.09615384615384616em" height="1.3614502578718342em" x="4.230769230769231vw" y="1.6385497421281658em" fill="#aaa"/><rect width="0.09615384615384616em" height="1.5155221923718227em" x="4.3269230769230775vw" y="1.4844778076281773em" fill="#aaa"/><rect width="0.09615384615384616em" height="1.7567055378812722em" x="4.423076923076923vw" y="1.2432944621187278em" fill="#aaa"/><rect width="0.09615384615384616em" height="1.0806046925181225em" x="4.519230769230769vw" y="1.9193953074818775em" fill="#aaa"/><rect width="0.09615384615384616em" height="0.8413854359840678em" x="4.615384615384616vw" y="2.158614564015932em" fill="#aaa"/><rect width="0.09615384615384616em" height="0.9656745173842416em" x="4.711538461538462vw" y="2.0343254826157584em" fill="#aaa"/><rect width="0.09615384615384616em" height="1.2594276403048568em" x="4.807692307692308vw" y="1.7405723596951432em" fill="#aaa"/><rect width="0.09615384615384616em" height="0.7835214996697719em" x="4.903846153846154vw" y="2.2164785003302283em" fill="#aaa"/><rect width="0.09615384615384616em" height="0.9556890583345874em" x="5vw" y="2.0443109416654126em" fill="#aaa"/><rect width="0.09615384615384616em" height="0.9743545002490173em" x="5.096153846153847vw" y="2.0256454997509827em" fill="#aaa"/><rect width="0.09615384615384616em" height="1.050636927403192em" x="5.1923076923076925vw" y="1.949363072596808em" fill="#aaa"/><rect width="0.09615384615384616em" height="0.7775099515512623em" x="5.288461538461538vw" y="2.2224900484487375em" fill="#aaa"/><rect width="0.09615384615384616em" height="0.9457345861609481em" x="5.384615384615385vw" y="2.054265413839052em" fill="#aaa"/><rect width="0.09615384615384616em" height="1.050578573057312em" x="5.480769230769231vw" y="1.949421426942688em" fill="#aaa"/><rect width="0.09615384615384616em" height="0.7390612866227493em" x="5.5769230769230775vw" y="2.260938713377251em" fill="#aaa"/><rect width="0.09615384615384616em" height="0.7230263937840332em" x="5.673076923076923vw" y="2.2769736062159667em" fill="#aaa"/><rect width="0.09615384615384616em" height="0.9249355093928255em" x="5.769230769230769vw" y="2.0750644906071747em" fill="#aaa"/><rect width="0.09615384615384616em" height="0.6683499672850483em" x="5.865384615384616vw" y="2.331650032714952em" fill="#aaa"/><rect width="0.09615384615384616em" height="0.6217227199540585em" x="5.961538461538462vw" y="2.3782772800459417em" fill="#aaa"/><rect width="0.09615384615384616em" height="1.0367940335247434em" x="6.057692307692308vw" y="1.9632059664752566em" fill="#aaa"/><rect width="0.09615384615384616em" height="0.898539376181881em" x="6.153846153846154vw" y="2.1014606238181193em" fill="#aaa"/><rect width="0.09615384615384616em" height="0.8798980133109258em" x="6.25vw" y="2.1201019866890745em" fill="#aaa"/><rect width="0.09615384615384616em" height="0.8067418836013478em" x="6.346153846153847vw" y="2.193258116398652em" fill="#aaa"/><rect width="0.09615384615384616em" height="0.6490537285349275em" x="6.4423076923076925vw" y="2.3509462714650726em" fill="#aaa"/><rect width="0.09615384615384616em" height="0.8260816551630417em" x="6.538461538461539vw" y="2.1739183448369586em" fill="#aaa"/><rect width="0.09615384615384616em" height="0.7805797048404377em" x="6.634615384615385vw" y="2.219420295159562em" fill="#aaa"/><rect width="0.09615384615384616em" height="0.7320888869017125em" x="6.730769230769231vw" y="2.2679111130982874em" fill="#aaa"/><rect width="0.09615384615384616em" height="0.6270393831710377em" x="6.8269230769230775vw" y="2.372960616828962em" fill="#aaa"/><rect width="0.09615384615384616em" height="1.0733898237048118em" x="6.923076923076923vw" y="1.9266101762951882em" fill="#aaa"/><rect width="0.09615384615384616em" height="0.677011022417431em" x="7.01923076923077vw" y="2.322988977582569em" fill="#aaa"/><rect width="0.09615384615384616em" height="0.602295060728161em" x="7.115384615384616vw" y="2.397704939271839em" fill="#aaa"/><rect width="0.09615384615384616em" height="0.47766604605817786em" x="7.211538461538462vw" y="2.522333953941822em" fill="#aaa"/><rect width="0.09615384615384616em" height="0.6000722123461434em" x="7.307692307692308vw" y="2.3999277876538567em" fill="#aaa"/><rect width="0.09615384615384616em" height="0.6721247655280935em" x="7.403846153846154vw" y="2.3278752344719065em" fill="#aaa"/><rect width="0.09615384615384616em" height="0.48057091738149227em" x="7.5vw" y="2.5194290826185077em" fill="#aaa"/><rect width="0.09615384615384616em" height="0.4049562108969974em" x="7.596153846153847vw" y="2.5950437891030025em" fill="#aaa"/><rect width="0.09615384615384616em" height="0.439117811950237em" x="7.6923076923076925vw" y="2.5608821880497628em" fill="#aaa"/><rect width="0.09615384615384616em" height="0.48343208213601696em" x="7.788461538461539vw" y="2.5165679178639833em" fill="#aaa"/><rect width="0.09615384615384616em" height="0.4383309470511505em" x="7.884615384615385vw" y="2.5616690529488495em" fill="#aaa"/><rect width="0.09615384615384616em" height="0.4381718109845563em" x="7.980769230769231vw" y="2.5618281890154435em" fill="#aaa"/><rect width="0.09615384615384616em" height="0.3954769823017661em" x="8.076923076923077vw" y="2.604523017698234em" fill="#aaa"/><rect width="0.09615384615384616em" height="0.4613269164658528em" x="8.173076923076923vw" y="2.5386730835341473em" fill="#aaa"/><rect width="0.09615384615384616em" height="0.45277111568708905em" x="8.26923076923077vw" y="2.547228884312911em" fill="#aaa"/><rect width="0.09615384615384616em" height="0.49186082603239256em" x="8.365384615384615vw" y="2.5081391739676073em" fill="#aaa"/><rect width="0.09615384615384616em" height="0.42429393133597415em" x="8.461538461538462vw" y="2.575706068664026em" fill="#aaa"/><rect width="0.09615384615384616em" height="0.42681516825296545em" x="8.557692307692308vw" y="2.5731848317470347em" fill="#aaa"/><rect width="0.09615384615384616em" height="0.47668756146796193em" x="8.653846153846155vw" y="2.523312438532038em" fill="#aaa"/><rect width="0.09615384615384616em" height="0.38341247707471765em" x="8.75vw" y="2.616587522925282em" fill="#aaa"/><rect width="0.09615384615384616em" height="0.33971717386903433em" x="8.846153846153847vw" y="2.660282826130966em" fill="#aaa"/><rect width="0.09615384615384616em" height="0.3108707843687542em" x="8.942307692307693vw" y="2.6891292156312456em" fill="#aaa"/><rect width="0.09615384615384616em" height="0.3927158901894837em" x="9.038461538461538vw" y="2.607284109810516em" fill="#aaa"/><rect width="0.09615384615384616em" height="0.3600390721271005em" x="9.134615384615385vw" y="2.6399609278728997em" fill="#aaa"/><rect width="0.09615384615384616em" height="0.3070089187926347em" x="9.230769230769232vw" y="2.6929910812073654em" fill="#aaa"/><rect width="0.09615384615384616em" height="0.33809040406525737em" x="9.326923076923077vw" y="2.6619095959347425em" fill="#aaa"/><rect width="0.09615384615384616em" height="0.3524264454431393em" x="9.423076923076923vw" y="2.647573554556861em" fill="#aaa"/><rect width="0.09615384615384616em" height="0.3121574476918208em" x="9.51923076923077vw" y="2.687842552308179em" fill="#aaa"/><rect width="0.09615384615384616em" height="0.3413718079232986em" x="9.615384615384617vw" y="2.6586281920767014em" fill="#aaa"/><rect width="0.09615384615384616em" height="0.2948993981949365em" x="9.711538461538462vw" y="2.7051006018050634em" fill="#aaa"/><rect width="0.09615384615384616em" height="0.29513510050595937em" x="9.807692307692308vw" y="2.7048648994940407em" fill="#aaa"/><rect width="0.09615384615384616em" height="0.29562427555645254em" x="9.903846153846155vw" y="2.7043757244435476em" fill="#aaa"/></svg>