<?xml version="1.0" standalone="no"?>
<svg xmlns:xlink="http://www.w3.org/1999/xlink" xmlns="http://www.w3.org/2000/svg" class="topic-graph" style="width: 10vw; height: 3em; text-align: center;"><rect width="0.09615384615384616em" height="0.1793511905701618em" x="0vw" y="2.820648809429838em" fill="#aaa"/><rect width="0.09615384615384616em" height="0.7895695472391906em" x="0.09615384615384616vw" y="2.2104304527608094em" fill="#aaa"/><rect width="0.09615384615384616em" height="0.30552402807944734em" x="0.19230769230769232vw" y="2.6944759719205527em" fill="#aaa"/><rect width="0.09615384615384616em" height="0.3065664630248555em" x="0.2884615384615385vw" y="2.6934335369751445em" fill="#aaa"/><rect width="0.09615384615384616em" height="0.7689207483740912em" x="0.38461538461538464vw" y="2.231079251625909em" fill="#aaa"/><rect width="0.09615384615384616em" height="0.19804694978080772em" x="0.4807692307692308vw" y="2.8019530502191925em" fill="#aaa"/><rect width="0.09615384615384616em" height="0.31603884685742195em" x="0.576923076923077vw" y="2.683961153142578em" fill="#aaa"/><rect width="0.09615384615384616em" height="0.3993892772383825em" x="0.6730769230769231vw" y="2.6006107227616173em" fill="#aaa"/><rect width="0.09615384615384616em" height="0.3031519772040929em" x="0.7692307692307693vw" y="2.696848022795907em" fill="#aaa"/><rect width="0.09615384615384616em" height="0.392663740278729em" x="0.8653846153846154vw" y="2.607336259721271em" fill="#aaa"/><rect width="0.09615384615384616em" height="0.39028543891438017em" x="0.9615384615384616vw" y="2.60971456108562em" fill="#aaa"/><rect width="0.09615384615384616em" height="0.2409046698579838em" x="1.0576923076923077vw" y="2.7590953301420162em" fill="#aaa"/><rect width="0.09615384615384616em" height="0.18048033682629494em" x="1.153846153846154vw" y="2.819519663173705em" fill="#aaa"/><rect width="0.09615384615384616em" height="0.1269089296248686em" x="1.25vw" y="2.8730910703751316em" fill="#aaa"/><rect width="0.09615384615384616em" height="0.12863994970216264em" x="1.3461538461538463vw" y="2.871360050297837em" fill="#aaa"/><rect width="0.09615384615384616em" height="0.21670654057235975em" x="1.4423076923076923vw" y="2.7832934594276404em" fill="#aaa"/><rect width="0.09615384615384616em" height="0.12487045159396976em" x="1.5384615384615385vw" y="2.87512954840603em" fill="#aaa"/><rect width="0.09615384615384616em" height="0.2785889282356523em" x="1.6346153846153848vw" y="2.7214110717643476em" fill="#aaa"/><rect width="0.09615384615384616em" height="0.2511867717686438em" x="1.7307692307692308vw" y="2.748813228231356em" fill="#aaa"/><rect width="0.09615384615384616em" height="0.24958604206577262em" x="1.826923076923077vw" y="2.7504139579342275em" fill="#aaa"/><rect width="0.09615384615384616em" height="0.1499207078847568em" x="1.9230769230769231vw" y="2.850079292115243em" fill="#aaa"/><rect width="0.09615384615384616em" height="0.18595903232351016em" x="2.019230769230769vw" y="2.81404096767649em" fill="#aaa"/><rect width="0.09615384615384616em" height="0.43849033799021075em" x="2.1153846153846154vw" y="2.5615096620097892em" fill="#aaa"/><rect width="0.09615384615384616em" height="0.21478977787876036em" x="2.2115384615384617vw" y="2.78521022212124em" fill="#aaa"/><rect width="0.09615384615384616em" height="0.14145878010896773em" x="2.307692307692308vw" y="2.8585412198910323em" fill="#aaa"/><rect width="0.09615384615384616em" height="0.3271139836902178em" x="2.403846153846154vw" y="2.672886016309782em" fill="#aaa"/><rect width="0.09615384615384616em" height="0.3346556610160531em" x="2.5vw" y="2.665344338983947em" fill="#aaa"/><rect width="0.09615384615384616em" height="0.308707605612838em" x="2.5961538461538463vw" y="2.691292394387162em" fill="#aaa"/><rect width="0.09615384615384616em" height="0.16467366235288533em" x="2.6923076923076925vw" y="2.8353263376471145em" fill="#aaa"/><rect width="0.09615384615384616em" height="0.2169841448816313em" x="2.7884615384615388vw" y="2.783015855118369em" fill="#aaa"/><rect width="0.09615384615384616em" height="0.2358149076180317em" x="2.8846153846153846vw" y="2.764185092381968em" fill="#aaa"/><rect width="0.09615384615384616em" height="0.3896489061414927em" x="2.980769230769231vw" y="2.6103510938585073em" fill="#aaa"/><rect width="0.09615384615384616em" height="0.3626765750174758em" x="3.076923076923077vw" y="2.637323424982524em" fill="#aaa"/><rect width="0.09615384615384616em" height="0.40937301469946075em" x="3.1730769230769234vw" y="2.5906269853005393em" fill="#aaa"/><rect width="0.09615384615384616em" height="0.4062874630585034em" x="3.2692307692307696vw" y="2.5937125369414966em" fill="#aaa"/><rect width="0.09615384615384616em" height="0.49524794115326454em" x="3.3653846153846154vw" y="2.5047520588467354em" fill="#aaa"/><rect width="0.09615384615384616em" height="0.5209207554896891em" x="3.4615384615384617vw" y="2.479079244510311em" fill="#aaa"/><rect width="0.09615384615384616em" height="0.4689314464078325em" x="3.557692307692308vw" y="2.5310685535921675em" fill="#aaa"/><rect width="0.09615384615384616em" height="0.452950047430206em" x="3.653846153846154vw" y="2.547049952569794em" fill="#aaa"/><rect width="0.09615384615384616em" height="0.5134163589976435em" x="3.75vw" y="2.4865836410023565em" fill="#aaa"/><rect width="0.09615384615384616em" height="1.0530157207296502em" x="3.8461538461538463vw" y="1.9469842792703498em" fill="#aaa"/><rect width="0.09615384615384616em" height="0.6281378366653076em" x="3.9423076923076925vw" y="2.3718621633346926em" fill="#aaa"/><rect width="0.09615384615384616em" height="0.6871849542621521em" x="4.038461538461538vw" y="2.312815045737848em" fill="#aaa"/><rect width="0.09615384615384616em" height="0.536088975667923em" x="4.134615384615385vw" y="2.463911024332077em" fill="#aaa"/><rect width="0.09615384615384616em" height="0.48974813581093535em" x="4.230769230769231vw" y="2.5102518641890645em" fill="#aaa"/><rect width="0.09615384615384616em" height="0.797677883218793em" x="4.3269230769230775vw" y="2.202322116781207em" fill="#aaa"/><rect width="0.09615384615384616em" height="0.3664870673020453em" x="4.423076923076923vw" y="2.633512932697955em" fill="#aaa"/><rect width="0.09615384615384616em" height="0.6944439625332476em" x="4.519230769230769vw" y="2.3055560374667525em" fill="#aaa"/><rect width="0.09615384615384616em" height="0.6626927174566977em" x="4.615384615384616vw" y="2.3373072825433026em" fill="#aaa"/><rect width="0.09615384615384616em" height="0.5896266211995647em" x="4.711538461538462vw" y="2.4103733788004353em" fill="#aaa"/><rect width="0.09615384615384616em" height="0.5286410886703637em" x="4.807692307692308vw" y="2.471358911329636em" fill="#aaa"/><rect width="0.09615384615384616em" height="0.7770583039887529em" x="4.903846153846154vw" y="2.2229416960112474em" fill="#aaa"/><rect width="0.09615384615384616em" height="0.9935571076738761em" x="5vw" y="2.006442892326124em" fill="#aaa"/><rect width="0.09615384615384616em" height="0.804566788613588em" x="5.096153846153847vw" y="2.195433211386412em" fill="#aaa"/><rect width="0.09615384615384616em" height="0.6670910110933461em" x="5.1923076923076925vw" y="2.332908988906654em" fill="#aaa"/><rect width="0.09615384615384616em" height="0.7037515525830641em" x="5.288461538461538vw" y="2.296248447416936em" fill="#aaa"/><rect width="0.09615384615384616em" height="0.5296144750846987em" x="5.384615384615385vw" y="2.4703855249153013em" fill="#aaa"/><rect width="0.09615384615384616em" height="0.7905913850845382em" x="5.480769230769231vw" y="2.209408614915462em" fill="#aaa"/><rect width="0.09615384615384616em" height="0.659260017416561em" x="5.5769230769230775vw" y="2.3407399825834387em" fill="#aaa"/><rect width="0.09615384615384616em" height="0.7839787593165453em" x="5.673076923076923vw" y="2.216021240683455em" fill="#aaa"/><rect width="0.09615384615384616em" height="0.7956724994237814em" x="5.769230769230769vw" y="2.204327500576219em" fill="#aaa"/><rect width="0.09615384615384616em" height="0.8208954220814009em" x="5.865384615384616vw" y="2.179104577918599em" fill="#aaa"/><rect width="0.09615384615384616em" height="1.0823819764133127em" x="5.961538461538462vw" y="1.9176180235866873em" fill="#aaa"/><rect width="0.09615384615384616em" height="0.9239982452808938em" x="6.057692307692308vw" y="2.076001754719106em" fill="#aaa"/><rect width="0.09615384615384616em" height="0.8903501168337786em" x="6.153846153846154vw" y="2.109649883166221em" fill="#aaa"/><rect width="0.09615384615384616em" height="0.8369690741072251em" x="6.25vw" y="2.163030925892775em" fill="#aaa"/><rect width="0.09615384615384616em" height="0.6764836845212838em" x="6.346153846153847vw" y="2.323516315478716em" fill="#aaa"/><rect width="0.09615384615384616em" height="0.9872087722313101em" x="6.4423076923076925vw" y="2.01279122776869em" fill="#aaa"/><rect width="0.09615384615384616em" height="1.0326870136245951em" x="6.538461538461539vw" y="1.9673129863754049em" fill="#aaa"/><rect width="0.09615384615384616em" height="0.8956471885979858em" x="6.634615384615385vw" y="2.1043528114020145em" fill="#aaa"/><rect width="0.09615384615384616em" height="1.043313480636035em" x="6.730769230769231vw" y="1.956686519363965em" fill="#aaa"/><rect width="0.09615384615384616em" height="1.0879430525296179em" x="6.8269230769230775vw" y="1.9120569474703821em" fill="#aaa"/><rect width="0.09615384615384616em" height="0.8142651070155268em" x="6.923076923076923vw" y="2.185734892984473em" fill="#aaa"/><rect width="0.09615384615384616em" height="0.8276666382738681em" x="7.01923076923077vw" y="2.172333361726132em" fill="#aaa"/><rect width="0.09615384615384616em" height="0.9931019633565643em" x="7.115384615384616vw" y="2.0068980366434355em" fill="#aaa"/><rect width="0.09615384615384616em" height="1.1823707008687445em" x="7.211538461538462vw" y="1.8176292991312555em" fill="#aaa"/><rect width="0.09615384615384616em" height="1.074255495495558em" x="7.307692307692308vw" y="1.925744504504442em" fill="#aaa"/><rect width="0.09615384615384616em" height="0.9612711032666561em" x="7.403846153846154vw" y="2.038728896733344em" fill="#aaa"/><rect width="0.09615384615384616em" height="1.4201123922131043em" x="7.5vw" y="1.5798876077868957em" fill="#aaa"/><rect width="0.09615384615384616em" height="1.1950134112204602em" x="7.596153846153847vw" y="1.8049865887795398em" fill="#aaa"/><rect width="0.09615384615384616em" height="1.2665901443355119em" x="7.6923076923076925vw" y="1.7334098556644881em" fill="#aaa"/><rect width="0.09615384615384616em" height="1.759039501164005em" x="7.788461538461539vw" y="1.240960498835995em" fill="#aaa"/><rect width="0.09615384615384616em" height="1.428309103930772em" x="7.884615384615385vw" y="1.571690896069228em" fill="#aaa"/><rect width="0.09615384615384616em" height="1.8046754871991746em" x="7.980769230769231vw" y="1.1953245128008254em" fill="#aaa"/><rect width="0.09615384615384616em" height="1.8605377880736014em" x="8.076923076923077vw" y="1.1394622119263986em" fill="#aaa"/><rect width="0.09615384615384616em" height="1.9918006223274194em" x="8.173076923076923vw" y="1.0081993776725806em" fill="#aaa"/><rect width="0.09615384615384616em" height="1.9862212318460202em" x="8.26923076923077vw" y="1.0137787681539798em" fill="#aaa"/><rect width="0.09615384615384616em" height="1.8955008422001953em" x="8.365384615384615vw" y="1.1044991577998047em" fill="#aaa"/><rect width="0.09615384615384616em" height="2.6705500422430495em" x="8.461538461538462vw" y="0.3294499577569505em" fill="#aaa"/><rect width="0.09615384615384616em" height="2.680519850166311em" x="8.557692307692308vw" y="0.319480149833689em" fill="#aaa"/><rect width="0.09615384615384616em" height="2.410196507332499em" x="8.653846153846155vw" y="0.5898034926675009em" fill="#aaa"/><rect width="0.09615384615384616em" height="2.0958917663464574em" x="8.75vw" y="0.9041082336535426em" fill="#aaa"/><rect width="0.09615384615384616em" height="2.207910327814097em" x="8.846153846153847vw" y="0.7920896721859032em" fill="#aaa"/><rect width="0.09615384615384616em" height="2.362867392542599em" x="8.942307692307693vw" y="0.6371326074574011em" fill="#aaa"/><rect width="0.09615384615384616em" height="2.3408379449410774em" x="9.038461538461538vw" y="0.6591620550589226em" fill="#aaa"/><rect width="0.09615384615384616em" height="1.777215947211231em" x="9.134615384615385vw" y="1.222784052788769em" fill="#aaa"/><rect width="0.09615384615384616em" height="2.33616327853854em" x="9.230769230769232vw" y="0.6638367214614602em" fill="#aaa"/><rect width="0.09615384615384616em" height="2.0274177212088054em" x="9.326923076923077vw" y="0.9725822787911946em" fill="#aaa"/><rect width="0.09615384615384616em" height="2.6739287670825824em" x="9.423076923076923vw" y="0.3260712329174176em" fill="#aaa"/><rect width="0.09615384615384616em" height="1.7752864327682356em" x="9.51923076923077vw" y="1.2247135672317644em" fill="#aaa"/><rect width="0.09615384615384616em" height="1.845416856289371em" x="9.615384615384617vw" y="1.154583143710629em" fill="#aaa"/><rect width="0.09615384615384616em" height="2.2578270957072073em" x="9.711538461538462vw" y="0.7421729042927927em" fill="#aaa"/><rect width="0.09615384615384616em" height="2.7185346515124413em" x="9.807692307692308vw" y="0.28146534848755866em" fill="#aaa"/><rect width="0.09615384615384616em" height="3em" x="9.903846153846155vw" y="0em" fill="#aaa"/></svg>