<?xml version="1.0" standalone="no"?>
<svg xmlns:xlink="http://www.w3.org/1999/xlink" xmlns="http://www.w3.org/2000/svg" class="topic-graph" style="width: 10vw; height: 3em; text-align: center;"><rect width="0.09615384615384616em" height="0.02540947936896587em" x="0vw" y="2.9745905206310344em" fill="#aaa"/><rect width="0.09615384615384616em" height="0.38917380960901493em" x="0.09615384615384616vw" y="2.610826190390985em" fill="#aaa"/><rect width="0.09615384615384616em" height="0.044232201620261494em" x="0.19230769230769232vw" y="2.9557677983797386em" fill="#aaa"/><rect width="0.09615384615384616em" height="0.024066207192885165em" x="0.2884615384615385vw" y="2.975933792807115em" fill="#aaa"/><rect width="0.09615384615384616em" height="1.1743114567085122em" x="0.38461538461538464vw" y="1.8256885432914878em" fill="#aaa"/><rect width="0.09615384615384616em" height="0.1584660434374333em" x="0.4807692307692308vw" y="2.8415339565625666em" fill="#aaa"/><rect width="0.09615384615384616em" height="0.0966086986104843em" x="0.576923076923077vw" y="2.9033913013895156em" fill="#aaa"/><rect width="0.09615384615384616em" height="0.08852014685168548em" x="0.6730769230769231vw" y="2.9114798531483146em" fill="#aaa"/><rect width="0.09615384615384616em" height="0.057215406218017406em" x="0.7692307692307693vw" y="2.9427845937819828em" fill="#aaa"/><rect width="0.09615384615384616em" height="0.09748977927215752em" x="0.8653846153846154vw" y="2.9025102207278426em" fill="#aaa"/><rect width="0.09615384615384616em" height="0.028187448664162312em" x="0.9615384615384616vw" y="2.9718125513358378em" fill="#aaa"/><rect width="0.09615384615384616em" height="0.08001879474844133em" x="1.0576923076923077vw" y="2.919981205251559em" fill="#aaa"/><rect width="0.09615384615384616em" height="0.3696564674320513em" x="1.153846153846154vw" y="2.6303435325679487em" fill="#aaa"/><rect width="0.09615384615384616em" height="0.04240922496294447em" x="1.25vw" y="2.9575907750370556em" fill="#aaa"/><rect width="0.09615384615384616em" height="0.12331777804080127em" x="1.3461538461538463vw" y="2.8766822219591988em" fill="#aaa"/><rect width="0.09615384615384616em" height="0.11332922491331468em" x="1.4423076923076923vw" y="2.886670775086685em" fill="#aaa"/><rect width="0.09615384615384616em" height="0.09557307942986765em" x="1.5384615384615385vw" y="2.9044269205701325em" fill="#aaa"/><rect width="0.09615384615384616em" height="0.05576900949883441em" x="1.6346153846153848vw" y="2.9442309905011657em" fill="#aaa"/><rect width="0.09615384615384616em" height="0.4754414614872612em" x="1.7307692307692308vw" y="2.5245585385127387em" fill="#aaa"/><rect width="0.09615384615384616em" height="0.03484942194683717em" x="1.826923076923077vw" y="2.9651505780531626em" fill="#aaa"/><rect width="0.09615384615384616em" height="0.059350543775315345em" x="1.9230769230769231vw" y="2.9406494562246848em" fill="#aaa"/><rect width="0.09615384615384616em" height="0.08534365371229598em" x="2.019230769230769vw" y="2.914656346287704em" fill="#aaa"/><rect width="0.09615384615384616em" height="0.03176730190309229em" x="2.1153846153846154vw" y="2.968232698096908em" fill="#aaa"/><rect width="0.09615384615384616em" height="0.014614156209143955em" x="2.2115384615384617vw" y="2.9853858437908563em" fill="#aaa"/><rect width="0.09615384615384616em" height="0.03183349031632978em" x="2.307692307692308vw" y="2.96816650968367em" fill="#aaa"/><rect width="0.09615384615384616em" height="0.11086990178405418em" x="2.403846153846154vw" y="2.889130098215946em" fill="#aaa"/><rect width="0.09615384615384616em" height="0.11958599687076035em" x="2.5vw" y="2.8804140031292396em" fill="#aaa"/><rect width="0.09615384615384616em" height="0.14103398667681893em" x="2.5961538461538463vw" y="2.858966013323181em" fill="#aaa"/><rect width="0.09615384615384616em" height="0.16455384343007em" x="2.6923076923076925vw" y="2.83544615656993em" fill="#aaa"/><rect width="0.09615384615384616em" height="0.21977116622017284em" x="2.7884615384615388vw" y="2.780228833779827em" fill="#aaa"/><rect width="0.09615384615384616em" height="0.18633471259196432em" x="2.8846153846153846vw" y="2.8136652874080355em" fill="#aaa"/><rect width="0.09615384615384616em" height="0.1743708182060239em" x="2.980769230769231vw" y="2.825629181793976em" fill="#aaa"/><rect width="0.09615384615384616em" height="0.3757202643819071em" x="3.076923076923077vw" y="2.624279735618093em" fill="#aaa"/><rect width="0.09615384615384616em" height="0.20337579571423142em" x="3.1730769230769234vw" y="2.7966242042857687em" fill="#aaa"/><rect width="0.09615384615384616em" height="0.12225186800900384em" x="3.2692307692307696vw" y="2.8777481319909963em" fill="#aaa"/><rect width="0.09615384615384616em" height="0.20914866253225273em" x="3.3653846153846154vw" y="2.790851337467747em" fill="#aaa"/><rect width="0.09615384615384616em" height="0.11361874669590483em" x="3.4615384615384617vw" y="2.886381253304095em" fill="#aaa"/><rect width="0.09615384615384616em" height="0.08818295241762786em" x="3.557692307692308vw" y="2.911817047582372em" fill="#aaa"/><rect width="0.09615384615384616em" height="0.1202404495702829em" x="3.653846153846154vw" y="2.879759550429717em" fill="#aaa"/><rect width="0.09615384615384616em" height="0.31338339865376136em" x="3.75vw" y="2.6866166013462385em" fill="#aaa"/><rect width="0.09615384615384616em" height="0.23470511982270786em" x="3.8461538461538463vw" y="2.7652948801772923em" fill="#aaa"/><rect width="0.09615384615384616em" height="0.26249413074427297em" x="3.9423076923076925vw" y="2.737505869255727em" fill="#aaa"/><rect width="0.09615384615384616em" height="0.132442665893391em" x="4.038461538461538vw" y="2.867557334106609em" fill="#aaa"/><rect width="0.09615384615384616em" height="0.12880986793355997em" x="4.134615384615385vw" y="2.87119013206644em" fill="#aaa"/><rect width="0.09615384615384616em" height="0.09916106078403479em" x="4.230769230769231vw" y="2.9008389392159653em" fill="#aaa"/><rect width="0.09615384615384616em" height="0.17852956701798184em" x="4.3269230769230775vw" y="2.821470432982018em" fill="#aaa"/><rect width="0.09615384615384616em" height="0.08183775132791538em" x="4.423076923076923vw" y="2.9181622486720844em" fill="#aaa"/><rect width="0.09615384615384616em" height="0.09298671109797918em" x="4.519230769230769vw" y="2.9070132889020206em" fill="#aaa"/><rect width="0.09615384615384616em" height="0.268375586458691em" x="4.615384615384616vw" y="2.731624413541309em" fill="#aaa"/><rect width="0.09615384615384616em" height="0.21049191082001079em" x="4.711538461538462vw" y="2.7895080891799893em" fill="#aaa"/><rect width="0.09615384615384616em" height="0.19819341135716817em" x="4.807692307692308vw" y="2.801806588642832em" fill="#aaa"/><rect width="0.09615384615384616em" height="0.18602182750683105em" x="4.903846153846154vw" y="2.8139781724931687em" fill="#aaa"/><rect width="0.09615384615384616em" height="0.10614682746244625em" x="5vw" y="2.8938531725375536em" fill="#aaa"/><rect width="0.09615384615384616em" height="0.11045694472129516em" x="5.096153846153847vw" y="2.889543055278705em" fill="#aaa"/><rect width="0.09615384615384616em" height="0.19430339534839275em" x="5.1923076923076925vw" y="2.805696604651607em" fill="#aaa"/><rect width="0.09615384615384616em" height="0.11608451631130129em" x="5.288461538461538vw" y="2.883915483688699em" fill="#aaa"/><rect width="0.09615384615384616em" height="0.2395727690868319em" x="5.384615384615385vw" y="2.760427230913168em" fill="#aaa"/><rect width="0.09615384615384616em" height="0.23737755848984493em" x="5.480769230769231vw" y="2.762622441510155em" fill="#aaa"/><rect width="0.09615384615384616em" height="0.10553145035184873em" x="5.5769230769230775vw" y="2.8944685496481513em" fill="#aaa"/><rect width="0.09615384615384616em" height="0.1554445777014729em" x="5.673076923076923vw" y="2.844555422298527em" fill="#aaa"/><rect width="0.09615384615384616em" height="0.29761834117211083em" x="5.769230769230769vw" y="2.702381658827889em" fill="#aaa"/><rect width="0.09615384615384616em" height="0.21440314354184695em" x="5.865384615384616vw" y="2.7855968564581532em" fill="#aaa"/><rect width="0.09615384615384616em" height="0.15028406824204993em" x="5.961538461538462vw" y="2.84971593175795em" fill="#aaa"/><rect width="0.09615384615384616em" height="0.477623069684796em" x="6.057692307692308vw" y="2.522376930315204em" fill="#aaa"/><rect width="0.09615384615384616em" height="0.20064327302660648em" x="6.153846153846154vw" y="2.7993567269733934em" fill="#aaa"/><rect width="0.09615384615384616em" height="0.2549429372934903em" x="6.25vw" y="2.74505706270651em" fill="#aaa"/><rect width="0.09615384615384616em" height="0.6212343850652291em" x="6.346153846153847vw" y="2.378765614934771em" fill="#aaa"/><rect width="0.09615384615384616em" height="0.47946217042765193em" x="6.4423076923076925vw" y="2.520537829572348em" fill="#aaa"/><rect width="0.09615384615384616em" height="0.5499430264506259em" x="6.538461538461539vw" y="2.450056973549374em" fill="#aaa"/><rect width="0.09615384615384616em" height="0.4336566678774849em" x="6.634615384615385vw" y="2.566343332122515em" fill="#aaa"/><rect width="0.09615384615384616em" height="0.34879597639987603em" x="6.730769230769231vw" y="2.651204023600124em" fill="#aaa"/><rect width="0.09615384615384616em" height="0.3062321459849566em" x="6.8269230769230775vw" y="2.6937678540150434em" fill="#aaa"/><rect width="0.09615384615384616em" height="0.4728484914607526em" x="6.923076923076923vw" y="2.5271515085392475em" fill="#aaa"/><rect width="0.09615384615384616em" height="0.2715749832443033em" x="7.01923076923077vw" y="2.728425016755697em" fill="#aaa"/><rect width="0.09615384615384616em" height="0.22511947456845083em" x="7.115384615384616vw" y="2.7748805254315494em" fill="#aaa"/><rect width="0.09615384615384616em" height="0.3629080817004879em" x="7.211538461538462vw" y="2.6370919182995123em" fill="#aaa"/><rect width="0.09615384615384616em" height="0.7314098850054942em" x="7.307692307692308vw" y="2.268590114994506em" fill="#aaa"/><rect width="0.09615384615384616em" height="0.8679583315240131em" x="7.403846153846154vw" y="2.1320416684759866em" fill="#aaa"/><rect width="0.09615384615384616em" height="0.8466239509190061em" x="7.5vw" y="2.153376049080994em" fill="#aaa"/><rect width="0.09615384615384616em" height="0.6828032544325953em" x="7.596153846153847vw" y="2.3171967455674047em" fill="#aaa"/><rect width="0.09615384615384616em" height="1.0166181633055997em" x="7.6923076923076925vw" y="1.9833818366944003em" fill="#aaa"/><rect width="0.09615384615384616em" height="1.6196780542462221em" x="7.788461538461539vw" y="1.3803219457537779em" fill="#aaa"/><rect width="0.09615384615384616em" height="1.590864182451776em" x="7.884615384615385vw" y="1.409135817548224em" fill="#aaa"/><rect width="0.09615384615384616em" height="1.2280203249425363em" x="7.980769230769231vw" y="1.7719796750574637em" fill="#aaa"/><rect width="0.09615384615384616em" height="1.4225471301951953em" x="8.076923076923077vw" y="1.5774528698048047em" fill="#aaa"/><rect width="0.09615384615384616em" height="1.6003682796751741em" x="8.173076923076923vw" y="1.3996317203248259em" fill="#aaa"/><rect width="0.09615384615384616em" height="1.7263449978118532em" x="8.26923076923077vw" y="1.2736550021881468em" fill="#aaa"/><rect width="0.09615384615384616em" height="2.4361634781996764em" x="8.365384615384615vw" y="0.5638365218003236em" fill="#aaa"/><rect width="0.09615384615384616em" height="1.415936251165178em" x="8.461538461538462vw" y="1.584063748834822em" fill="#aaa"/><rect width="0.09615384615384616em" height="1.3269108429781615em" x="8.557692307692308vw" y="1.6730891570218385em" fill="#aaa"/><rect width="0.09615384615384616em" height="1.2683548354292413em" x="8.653846153846155vw" y="1.7316451645707587em" fill="#aaa"/><rect width="0.09615384615384616em" height="1.9381237557532003em" x="8.75vw" y="1.0618762442467997em" fill="#aaa"/><rect width="0.09615384615384616em" height="3em" x="8.846153846153847vw" y="0em" fill="#aaa"/><rect width="0.09615384615384616em" height="2.4558667564107264em" x="8.942307692307693vw" y="0.5441332435892736em" fill="#aaa"/><rect width="0.09615384615384616em" height="2.253287611731139em" x="9.038461538461538vw" y="0.7467123882688611em" fill="#aaa"/><rect width="0.09615384615384616em" height="2.2221011669918758em" x="9.134615384615385vw" y="0.7778988330081242em" fill="#aaa"/><rect width="0.09615384615384616em" height="2.433320486543458em" x="9.230769230769232vw" y="0.5666795134565419em" fill="#aaa"/><rect width="0.09615384615384616em" height="1.9670079110965402em" x="9.326923076923077vw" y="1.0329920889034598em" fill="#aaa"/><rect width="0.09615384615384616em" height="1.253524126436193em" x="9.423076923076923vw" y="1.746475873563807em" fill="#aaa"/><rect width="0.09615384615384616em" height="2.000687453915057em" x="9.51923076923077vw" y="0.9993125460849428em" fill="#aaa"/><rect width="0.09615384615384616em" height="1.64846240720422em" x="9.615384615384617vw" y="1.35153759279578em" fill="#aaa"/><rect width="0.09615384615384616em" height="1.900667982230612em" x="9.711538461538462vw" y="1.099332017769388em" fill="#aaa"/><rect width="0.09615384615384616em" height="1.4993794775152398em" x="9.807692307692308vw" y="1.5006205224847602em" fill="#aaa"/><rect width="0.09615384615384616em" height="1.2641104062328492em" x="9.903846153846155vw" y="1.7358895937671508em" fill="#aaa"/></svg>