<?xml version="1.0" standalone="no"?>
<svg xmlns:xlink="http://www.w3.org/1999/xlink" xmlns="http://www.w3.org/2000/svg" class="topic-graph" style="width: 100em; height: 30em; text-align: center;"><rect width="0.9615384615384616em" height="2.055888601840268em" x="0em" y="27.944111398159734em" fill="#aaa"/><rect width="0.9615384615384616em" height="2.5216104749376265em" x="0.9615384615384616em" y="27.478389525062372em" fill="#aaa"/><rect width="0.9615384615384616em" height="5.54864991389794em" x="1.9230769230769231em" y="24.45135008610206em" fill="#aaa"/><rect width="0.9615384615384616em" height="3.127665627511369em" x="2.8846153846153846em" y="26.87233437248863em" fill="#aaa"/><rect width="0.9615384615384616em" height="4.444721209144872em" x="3.8461538461538463em" y="25.555278790855127em" fill="#aaa"/><rect width="0.9615384615384616em" height="13.906904642498588em" x="4.8076923076923075em" y="16.09309535750141em" fill="#aaa"/><rect width="0.9615384615384616em" height="14.06977784960208em" x="5.769230769230769em" y="15.93022215039792em" fill="#aaa"/><rect width="0.9615384615384616em" height="5.295697848513238em" x="6.730769230769231em" y="24.70430215148676em" fill="#aaa"/><rect width="0.9615384615384616em" height="10.716483582653762em" x="7.6923076923076925em" y="19.283516417346238em" fill="#aaa"/><rect width="0.9615384615384616em" height="9.835518501642879em" x="8.653846153846153em" y="20.16448149835712em" fill="#aaa"/><rect width="0.9615384615384616em" height="4.538669309988991em" x="9.615384615384615em" y="25.46133069001101em" fill="#aaa"/><rect width="0.9615384615384616em" height="10.230269153304354em" x="10.576923076923077em" y="19.769730846695644em" fill="#aaa"/><rect width="0.9615384615384616em" height="11.976132481554211em" x="11.538461538461538em" y="18.02386751844579em" fill="#aaa"/><rect width="0.9615384615384616em" height="16.598060424227707em" x="12.5em" y="13.401939575772293em" fill="#aaa"/><rect width="0.9615384615384616em" height="19.81962695426818em" x="13.461538461538462em" y="10.18037304573182em" fill="#aaa"/><rect width="0.9615384615384616em" height="19.416113702846996em" x="14.423076923076923em" y="10.583886297153004em" fill="#aaa"/><rect width="0.9615384615384616em" height="4.966653174099487em" x="15.384615384615385em" y="25.033346825900512em" fill="#aaa"/><rect width="0.9615384615384616em" height="17.864759606781025em" x="16.346153846153847em" y="12.135240393218975em" fill="#aaa"/><rect width="0.9615384615384616em" height="20.04176587090854em" x="17.307692307692307em" y="9.958234129091458em" fill="#aaa"/><rect width="0.9615384615384616em" height="16.26819365212501em" x="18.26923076923077em" y="13.73180634787499em" fill="#aaa"/><rect width="0.9615384615384616em" height="25.735783891896684em" x="19.23076923076923em" y="4.264216108103316em" fill="#aaa"/><rect width="0.9615384615384616em" height="17.683955145466655em" x="20.192307692307693em" y="12.316044854533345em" fill="#aaa"/><rect width="0.9615384615384616em" height="16.411007982270235em" x="21.153846153846153em" y="13.588992017729765em" fill="#aaa"/><rect width="0.9615384615384616em" height="21.99481736418831em" x="22.115384615384617em" y="8.005182635811689em" fill="#aaa"/><rect width="0.9615384615384616em" height="30em" x="23.076923076923077em" y="0em" fill="#aaa"/><rect width="0.9615384615384616em" height="17.518872219385628em" x="24.03846153846154em" y="12.481127780614372em" fill="#aaa"/><rect width="0.9615384615384616em" height="16.92734042973374em" x="25em" y="13.07265957026626em" fill="#aaa"/><rect width="0.9615384615384616em" height="17.59766840332041em" x="25.961538461538463em" y="12.402331596679591em" fill="#aaa"/><rect width="0.9615384615384616em" height="19.379076829486852em" x="26.923076923076923em" y="10.620923170513148em" fill="#aaa"/><rect width="0.9615384615384616em" height="23.72151261838611em" x="27.884615384615387em" y="6.278487381613889em" fill="#aaa"/><rect width="0.9615384615384616em" height="10.534599758358649em" x="28.846153846153847em" y="19.46540024164135em" fill="#aaa"/><rect width="0.9615384615384616em" height="9.108338375281736em" x="29.80769230769231em" y="20.891661624718264em" fill="#aaa"/><rect width="0.9615384615384616em" height="10.810809227456025em" x="30.76923076923077em" y="19.189190772543974em" fill="#aaa"/><rect width="0.9615384615384616em" height="14.808364544904071em" x="31.73076923076923em" y="15.191635455095929em" fill="#aaa"/><rect width="0.9615384615384616em" height="9.909294722196226em" x="32.69230769230769em" y="20.090705277803774em" fill="#aaa"/><rect width="0.9615384615384616em" height="10.672738281141633em" x="33.65384615384615em" y="19.327261718858367em" fill="#aaa"/><rect width="0.9615384615384616em" height="9.263425176483286em" x="34.61538461538461em" y="20.73657482351671em" fill="#aaa"/><rect width="0.9615384615384616em" height="8.88625052570539em" x="35.57692307692308em" y="21.113749474294607em" fill="#aaa"/><rect width="0.9615384615384616em" height="7.952039626423923em" x="36.53846153846154em" y="22.04796037357608em" fill="#aaa"/><rect width="0.9615384615384616em" height="11.137817259161366em" x="37.5em" y="18.862182740838634em" fill="#aaa"/><rect width="0.9615384615384616em" height="9.801688240259512em" x="38.46153846153846em" y="20.198311759740488em" fill="#aaa"/><rect width="0.9615384615384616em" height="8.068585138519387em" x="39.42307692307693em" y="21.93141486148061em" fill="#aaa"/><rect width="0.9615384615384616em" height="8.849324779872267em" x="40.38461538461539em" y="21.15067522012773em" fill="#aaa"/><rect width="0.9615384615384616em" height="9.698005369956125em" x="41.34615384615385em" y="20.301994630043875em" fill="#aaa"/><rect width="0.9615384615384616em" height="5.3030490008006295em" x="42.30769230769231em" y="24.69695099919937em" fill="#aaa"/><rect width="0.9615384615384616em" height="8.903426734225327em" x="43.269230769230774em" y="21.096573265774673em" fill="#aaa"/><rect width="0.9615384615384616em" height="7.261927308388518em" x="44.23076923076923em" y="22.73807269161148em" fill="#aaa"/><rect width="0.9615384615384616em" height="7.159037035789121em" x="45.19230769230769em" y="22.84096296421088em" fill="#aaa"/><rect width="0.9615384615384616em" height="10.70983148939357em" x="46.15384615384615em" y="19.290168510606428em" fill="#aaa"/><rect width="0.9615384615384616em" height="7.45694811763618em" x="47.11538461538461em" y="22.54305188236382em" fill="#aaa"/><rect width="0.9615384615384616em" height="6.790089350636206em" x="48.07692307692308em" y="23.209910649363792em" fill="#aaa"/><rect width="0.9615384615384616em" height="7.224889796879107em" x="49.03846153846154em" y="22.775110203120892em" fill="#aaa"/><rect width="0.9615384615384616em" height="7.494638815487313em" x="50em" y="22.505361184512687em" fill="#aaa"/><rect width="0.9615384615384616em" height="4.726310725750314em" x="50.96153846153846em" y="25.273689274249687em" fill="#aaa"/><rect width="0.9615384615384616em" height="5.07281216948609em" x="51.92307692307693em" y="24.92718783051391em" fill="#aaa"/><rect width="0.9615384615384616em" height="6.331582361681098em" x="52.88461538461539em" y="23.668417638318903em" fill="#aaa"/><rect width="0.9615384615384616em" height="5.636008649733956em" x="53.84615384615385em" y="24.363991350266044em" fill="#aaa"/><rect width="0.9615384615384616em" height="6.958506777050939em" x="54.80769230769231em" y="23.04149322294906em" fill="#aaa"/><rect width="0.9615384615384616em" height="5.532457632130671em" x="55.769230769230774em" y="24.467542367869328em" fill="#aaa"/><rect width="0.9615384615384616em" height="5.448449275771289em" x="56.73076923076923em" y="24.55155072422871em" fill="#aaa"/><rect width="0.9615384615384616em" height="4.915072871090581em" x="57.69230769230769em" y="25.08492712890942em" fill="#aaa"/><rect width="0.9615384615384616em" height="4.346363309063694em" x="58.65384615384615em" y="25.653636690936306em" fill="#aaa"/><rect width="0.9615384615384616em" height="4.755440044074681em" x="59.61538461538462em" y="25.244559955925318em" fill="#aaa"/><rect width="0.9615384615384616em" height="5.030522566572207em" x="60.57692307692308em" y="24.96947743342779em" fill="#aaa"/><rect width="0.9615384615384616em" height="5.490135557325953em" x="61.53846153846154em" y="24.509864442674047em" fill="#aaa"/><rect width="0.9615384615384616em" height="5.1900438705030405em" x="62.5em" y="24.80995612949696em" fill="#aaa"/><rect width="0.9615384615384616em" height="5.665766872148641em" x="63.46153846153846em" y="24.33423312785136em" fill="#aaa"/><rect width="0.9615384615384616em" height="4.275730706335107em" x="64.42307692307692em" y="25.724269293664893em" fill="#aaa"/><rect width="0.9615384615384616em" height="3.212580290977126em" x="65.38461538461539em" y="26.787419709022874em" fill="#aaa"/><rect width="0.9615384615384616em" height="2.5565793650663897em" x="66.34615384615385em" y="27.44342063493361em" fill="#aaa"/><rect width="0.9615384615384616em" height="3.2061796149922017em" x="67.3076923076923em" y="26.7938203850078em" fill="#aaa"/><rect width="0.9615384615384616em" height="3.2176731366438895em" x="68.26923076923077em" y="26.78232686335611em" fill="#aaa"/><rect width="0.9615384615384616em" height="2.6636710345343775em" x="69.23076923076923em" y="27.336328965465622em" fill="#aaa"/><rect width="0.9615384615384616em" height="3.4429400068600775em" x="70.1923076923077em" y="26.557059993139923em" fill="#aaa"/><rect width="0.9615384615384616em" height="2.8938648699210976em" x="71.15384615384616em" y="27.106135130078904em" fill="#aaa"/><rect width="0.9615384615384616em" height="2.56050258315413em" x="72.11538461538461em" y="27.43949741684587em" fill="#aaa"/><rect width="0.9615384615384616em" height="2.6615924369645287em" x="73.07692307692308em" y="27.33840756303547em" fill="#aaa"/><rect width="0.9615384615384616em" height="2.116392088101785em" x="74.03846153846155em" y="27.883607911898217em" fill="#aaa"/><rect width="0.9615384615384616em" height="2.3179676708113064em" x="75em" y="27.682032329188694em" fill="#aaa"/><rect width="0.9615384615384616em" height="2.255357228808047em" x="75.96153846153847em" y="27.744642771191952em" fill="#aaa"/><rect width="0.9615384615384616em" height="1.8305616189428695em" x="76.92307692307692em" y="28.16943838105713em" fill="#aaa"/><rect width="0.9615384615384616em" height="2.1171222042721856em" x="77.88461538461539em" y="27.882877795727815em" fill="#aaa"/><rect width="0.9615384615384616em" height="1.8387540541959368em" x="78.84615384615385em" y="28.161245945804062em" fill="#aaa"/><rect width="0.9615384615384616em" height="1.9948050721138229em" x="79.8076923076923em" y="28.005194927886176em" fill="#aaa"/><rect width="0.9615384615384616em" height="2.0041570215382767em" x="80.76923076923077em" y="27.995842978461724em" fill="#aaa"/><rect width="0.9615384615384616em" height="2.073185444254084em" x="81.73076923076923em" y="27.926814555745917em" fill="#aaa"/><rect width="0.9615384615384616em" height="1.935998571676374em" x="82.6923076923077em" y="28.064001428323625em" fill="#aaa"/><rect width="0.9615384615384616em" height="2.2500787698080384em" x="83.65384615384616em" y="27.749921230191962em" fill="#aaa"/><rect width="0.9615384615384616em" height="2.2000135828775544em" x="84.61538461538461em" y="27.799986417122447em" fill="#aaa"/><rect width="0.9615384615384616em" height="1.9195566503585044em" x="85.57692307692308em" y="28.080443349641495em" fill="#aaa"/><rect width="0.9615384615384616em" height="1.8499524658314839em" x="86.53846153846155em" y="28.150047534168515em" fill="#aaa"/><rect width="0.9615384615384616em" height="2.1315934862014863em" x="87.5em" y="27.868406513798515em" fill="#aaa"/><rect width="0.9615384615384616em" height="2.313768916570231em" x="88.46153846153847em" y="27.686231083429767em" fill="#aaa"/><rect width="0.9615384615384616em" height="1.864090680615256em" x="89.42307692307692em" y="28.135909319384744em" fill="#aaa"/><rect width="0.9615384615384616em" height="1.977052790020873em" x="90.38461538461539em" y="28.022947209979126em" fill="#aaa"/><rect width="0.9615384615384616em" height="2.1297710138281225em" x="91.34615384615385em" y="27.870228986171877em" fill="#aaa"/><rect width="0.9615384615384616em" height="1.8297823962443565em" x="92.3076923076923em" y="28.170217603755642em" fill="#aaa"/><rect width="0.9615384615384616em" height="2.0352626716584092em" x="93.26923076923077em" y="27.96473732834159em" fill="#aaa"/><rect width="0.9615384615384616em" height="1.8859823673464715em" x="94.23076923076923em" y="28.11401763265353em" fill="#aaa"/><rect width="0.9615384615384616em" height="1.8336963135505815em" x="95.1923076923077em" y="28.166303686449417em" fill="#aaa"/><rect width="0.9615384615384616em" height="2.1703878309927194em" x="96.15384615384616em" y="27.82961216900728em" fill="#aaa"/><rect width="0.9615384615384616em" height="2.1400198382665616em" x="97.11538461538461em" y="27.85998016173344em" fill="#aaa"/><rect width="0.9615384615384616em" height="1.986945420038466em" x="98.07692307692308em" y="28.013054579961533em" fill="#aaa"/><rect width="0.9615384615384616em" height="1.7596760915363998em" x="99.03846153846155em" y="28.2403239084636em" fill="#aaa"/></svg>