<?xml version="1.0" standalone="no"?>
<svg xmlns:xlink="http://www.w3.org/1999/xlink" xmlns="http://www.w3.org/2000/svg" class="topic-graph" style="width: 10vw; height: 3em; text-align: center;"><rect width="0.09615384615384616em" height="0.04027666671944141em" x="0vw" y="2.9597233332805586em" fill="#aaa"/><rect width="0.09615384615384616em" height="0.3246204402698062em" x="0.09615384615384616vw" y="2.6753795597301937em" fill="#aaa"/><rect width="0.09615384615384616em" height="0.5208685220864946em" x="0.19230769230769232vw" y="2.4791314779135054em" fill="#aaa"/><rect width="0.09615384615384616em" height="0.37603578317658015em" x="0.2884615384615385vw" y="2.6239642168234196em" fill="#aaa"/><rect width="0.09615384615384616em" height="0.20731622289409207em" x="0.38461538461538464vw" y="2.792683777105908em" fill="#aaa"/><rect width="0.09615384615384616em" height="0.13336536386207412em" x="0.4807692307692308vw" y="2.866634636137926em" fill="#aaa"/><rect width="0.09615384615384616em" height="0.2023320822538927em" x="0.576923076923077vw" y="2.7976679177461072em" fill="#aaa"/><rect width="0.09615384615384616em" height="1.044679355966886em" x="0.6730769230769231vw" y="1.955320644033114em" fill="#aaa"/><rect width="0.09615384615384616em" height="0.10446926532536352em" x="0.7692307692307693vw" y="2.8955307346746366em" fill="#aaa"/><rect width="0.09615384615384616em" height="0.11769732668309091em" x="0.8653846153846154vw" y="2.882302673316909em" fill="#aaa"/><rect width="0.09615384615384616em" height="0.1455222013467224em" x="0.9615384615384616vw" y="2.8544777986532774em" fill="#aaa"/><rect width="0.09615384615384616em" height="0.04306043464570043em" x="1.0576923076923077vw" y="2.9569395653542996em" fill="#aaa"/><rect width="0.09615384615384616em" height="0.3471142673315412em" x="1.153846153846154vw" y="2.6528857326684587em" fill="#aaa"/><rect width="0.09615384615384616em" height="0.3432182137934001em" x="1.25vw" y="2.6567817862066em" fill="#aaa"/><rect width="0.09615384615384616em" height="0.03459415288903763em" x="1.3461538461538463vw" y="2.9654058471109623em" fill="#aaa"/><rect width="0.09615384615384616em" height="0.31238379588985005em" x="1.4423076923076923vw" y="2.68761620411015em" fill="#aaa"/><rect width="0.09615384615384616em" height="0.14401783082036476em" x="1.5384615384615385vw" y="2.855982169179635em" fill="#aaa"/><rect width="0.09615384615384616em" height="0.5531227571962999em" x="1.6346153846153848vw" y="2.4468772428037em" fill="#aaa"/><rect width="0.09615384615384616em" height="0.24175519012951427em" x="1.7307692307692308vw" y="2.7582448098704857em" fill="#aaa"/><rect width="0.09615384615384616em" height="0.25497163077314916em" x="1.826923076923077vw" y="2.745028369226851em" fill="#aaa"/><rect width="0.09615384615384616em" height="0.9266247621089021em" x="1.9230769230769231vw" y="2.073375237891098em" fill="#aaa"/><rect width="0.09615384615384616em" height="0.10362919671557101em" x="2.019230769230769vw" y="2.896370803284429em" fill="#aaa"/><rect width="0.09615384615384616em" height="0.16698312748405048em" x="2.1153846153846154vw" y="2.8330168725159495em" fill="#aaa"/><rect width="0.09615384615384616em" height="0.3264554755826176em" x="2.2115384615384617vw" y="2.6735445244173826em" fill="#aaa"/><rect width="0.09615384615384616em" height="0.9313790633305827em" x="2.307692307692308vw" y="2.0686209366694173em" fill="#aaa"/><rect width="0.09615384615384616em" height="0.5696155916775673em" x="2.403846153846154vw" y="2.430384408322433em" fill="#aaa"/><rect width="0.09615384615384616em" height="0.23818012583743553em" x="2.5vw" y="2.7618198741625646em" fill="#aaa"/><rect width="0.09615384615384616em" height="0.23808002408881107em" x="2.5961538461538463vw" y="2.761919975911189em" fill="#aaa"/><rect width="0.09615384615384616em" height="0.11718927318499947em" x="2.6923076923076925vw" y="2.8828107268150007em" fill="#aaa"/><rect width="0.09615384615384616em" height="0.250890692015114em" x="2.7884615384615388vw" y="2.749109307984886em" fill="#aaa"/><rect width="0.09615384615384616em" height="0.3602620472088438em" x="2.8846153846153846vw" y="2.6397379527911564em" fill="#aaa"/><rect width="0.09615384615384616em" height="0.4399774258150933em" x="2.980769230769231vw" y="2.5600225741849068em" fill="#aaa"/><rect width="0.09615384615384616em" height="0.1949409110868207em" x="3.076923076923077vw" y="2.8050590889131795em" fill="#aaa"/><rect width="0.09615384615384616em" height="0.376647631117218em" x="3.1730769230769234vw" y="2.623352368882782em" fill="#aaa"/><rect width="0.09615384615384616em" height="0.3689927710521194em" x="3.2692307692307696vw" y="2.6310072289478805em" fill="#aaa"/><rect width="0.09615384615384616em" height="0.49795470332215586em" x="3.3653846153846154vw" y="2.502045296677844em" fill="#aaa"/><rect width="0.09615384615384616em" height="1.5921907657598884em" x="3.4615384615384617vw" y="1.4078092342401116em" fill="#aaa"/><rect width="0.09615384615384616em" height="0.25781777298941294em" x="3.557692307692308vw" y="2.742182227010587em" fill="#aaa"/><rect width="0.09615384615384616em" height="0.4805074780339561em" x="3.653846153846154vw" y="2.519492521966044em" fill="#aaa"/><rect width="0.09615384615384616em" height="0.3421162801968689em" x="3.75vw" y="2.657883719803131em" fill="#aaa"/><rect width="0.09615384615384616em" height="0.4232699230703417em" x="3.8461538461538463vw" y="2.576730076929658em" fill="#aaa"/><rect width="0.09615384615384616em" height="0.40307838418674546em" x="3.9423076923076925vw" y="2.5969216158132546em" fill="#aaa"/><rect width="0.09615384615384616em" height="0.3167969717076694em" x="4.038461538461538vw" y="2.6832030282923305em" fill="#aaa"/><rect width="0.09615384615384616em" height="0.6669601221147854em" x="4.134615384615385vw" y="2.3330398778852146em" fill="#aaa"/><rect width="0.09615384615384616em" height="0.43670391528172114em" x="4.230769230769231vw" y="2.563296084718279em" fill="#aaa"/><rect width="0.09615384615384616em" height="0.29737761789356476em" x="4.3269230769230775vw" y="2.7026223821064352em" fill="#aaa"/><rect width="0.09615384615384616em" height="0.8952650329838344em" x="4.423076923076923vw" y="2.1047349670161655em" fill="#aaa"/><rect width="0.09615384615384616em" height="0.4004658386318101em" x="4.519230769230769vw" y="2.5995341613681897em" fill="#aaa"/><rect width="0.09615384615384616em" height="0.22448298778290843em" x="4.615384615384616vw" y="2.7755170122170916em" fill="#aaa"/><rect width="0.09615384615384616em" height="1.0871616308419885em" x="4.711538461538462vw" y="1.9128383691580115em" fill="#aaa"/><rect width="0.09615384615384616em" height="1.7506905298492144em" x="4.807692307692308vw" y="1.2493094701507856em" fill="#aaa"/><rect width="0.09615384615384616em" height="0.6981474153029241em" x="4.903846153846154vw" y="2.301852584697076em" fill="#aaa"/><rect width="0.09615384615384616em" height="3em" x="5vw" y="0em" fill="#aaa"/><rect width="0.09615384615384616em" height="0.8838052194578172em" x="5.096153846153847vw" y="2.116194780542183em" fill="#aaa"/><rect width="0.09615384615384616em" height="0.10843707944821403em" x="5.1923076923076925vw" y="2.891562920551786em" fill="#aaa"/><rect width="0.09615384615384616em" height="1.1096129447748517em" x="5.288461538461538vw" y="1.8903870552251483em" fill="#aaa"/><rect width="0.09615384615384616em" height="0.6392604053650799em" x="5.384615384615385vw" y="2.36073959463492em" fill="#aaa"/><rect width="0.09615384615384616em" height="0.7616852843338722em" x="5.480769230769231vw" y="2.238314715666128em" fill="#aaa"/><rect width="0.09615384615384616em" height="0.75726240371697em" x="5.5769230769230775vw" y="2.24273759628303em" fill="#aaa"/><rect width="0.09615384615384616em" height="0.4155103003253647em" x="5.673076923076923vw" y="2.584489699674635em" fill="#aaa"/><rect width="0.09615384615384616em" height="0.5226789077007663em" x="5.769230769230769vw" y="2.477321092299234em" fill="#aaa"/><rect width="0.09615384615384616em" height="0.5568298151093202em" x="5.865384615384616vw" y="2.44317018489068em" fill="#aaa"/><rect width="0.09615384615384616em" height="0.2273174209421221em" x="5.961538461538462vw" y="2.7726825790578777em" fill="#aaa"/><rect width="0.09615384615384616em" height="0.6093146076486867em" x="6.057692307692308vw" y="2.390685392351313em" fill="#aaa"/><rect width="0.09615384615384616em" height="0.5367464971220802em" x="6.153846153846154vw" y="2.4632535028779197em" fill="#aaa"/><rect width="0.09615384615384616em" height="0.777385010253063em" x="6.25vw" y="2.222614989746937em" fill="#aaa"/><rect width="0.09615384615384616em" height="0.9621231365402361em" x="6.346153846153847vw" y="2.037876863459764em" fill="#aaa"/><rect width="0.09615384615384616em" height="1.5061988410510165em" x="6.4423076923076925vw" y="1.4938011589489835em" fill="#aaa"/><rect width="0.09615384615384616em" height="2.3137678462094486em" x="6.538461538461539vw" y="0.6862321537905514em" fill="#aaa"/><rect width="0.09615384615384616em" height="1.2893082252705341em" x="6.634615384615385vw" y="1.7106917747294659em" fill="#aaa"/><rect width="0.09615384615384616em" height="0.9775668680687127em" x="6.730769230769231vw" y="2.022433131931287em" fill="#aaa"/><rect width="0.09615384615384616em" height="0.7408138494788898em" x="6.8269230769230775vw" y="2.25918615052111em" fill="#aaa"/><rect width="0.09615384615384616em" height="1.4106613077749988em" x="6.923076923076923vw" y="1.5893386922250012em" fill="#aaa"/><rect width="0.09615384615384616em" height="0.9964166257806688em" x="7.01923076923077vw" y="2.003583374219331em" fill="#aaa"/><rect width="0.09615384615384616em" height="0.5825055180268494em" x="7.115384615384616vw" y="2.4174944819731508em" fill="#aaa"/><rect width="0.09615384615384616em" height="1.0502962347100782em" x="7.211538461538462vw" y="1.9497037652899218em" fill="#aaa"/><rect width="0.09615384615384616em" height="1.1249249544458761em" x="7.307692307692308vw" y="1.8750750455541239em" fill="#aaa"/><rect width="0.09615384615384616em" height="0.37864025368642973em" x="7.403846153846154vw" y="2.62135974631357em" fill="#aaa"/><rect width="0.09615384615384616em" height="0.780494862821965em" x="7.5vw" y="2.219505137178035em" fill="#aaa"/><rect width="0.09615384615384616em" height="0.8712452480874898em" x="7.596153846153847vw" y="2.1287547519125103em" fill="#aaa"/><rect width="0.09615384615384616em" height="0.5636097294067519em" x="7.6923076923076925vw" y="2.436390270593248em" fill="#aaa"/><rect width="0.09615384615384616em" height="0.9903104215123156em" x="7.788461538461539vw" y="2.0096895784876843em" fill="#aaa"/><rect width="0.09615384615384616em" height="0.9678846932626073em" x="7.884615384615385vw" y="2.032115306737393em" fill="#aaa"/><rect width="0.09615384615384616em" height="0.8258381815442832em" x="7.980769230769231vw" y="2.1741618184557168em" fill="#aaa"/><rect width="0.09615384615384616em" height="1.0026946863729753em" x="8.076923076923077vw" y="1.9973053136270247em" fill="#aaa"/><rect width="0.09615384615384616em" height="1.2512618856315287em" x="8.173076923076923vw" y="1.7487381143684713em" fill="#aaa"/><rect width="0.09615384615384616em" height="1.7193890619956356em" x="8.26923076923077vw" y="1.2806109380043644em" fill="#aaa"/><rect width="0.09615384615384616em" height="1.021548914698736em" x="8.365384615384615vw" y="1.978451085301264em" fill="#aaa"/><rect width="0.09615384615384616em" height="0.9097737380312151em" x="8.461538461538462vw" y="2.090226261968785em" fill="#aaa"/><rect width="0.09615384615384616em" height="1.3053221824411172em" x="8.557692307692308vw" y="1.6946778175588828em" fill="#aaa"/><rect width="0.09615384615384616em" height="0.9532379119571882em" x="8.653846153846155vw" y="2.046762088042812em" fill="#aaa"/><rect width="0.09615384615384616em" height="0.7052072255748292em" x="8.75vw" y="2.294792774425171em" fill="#aaa"/><rect width="0.09615384615384616em" height="0.6543784720219561em" x="8.846153846153847vw" y="2.345621527978044em" fill="#aaa"/><rect width="0.09615384615384616em" height="0.6330035540396785em" x="8.942307692307693vw" y="2.3669964459603214em" fill="#aaa"/><rect width="0.09615384615384616em" height="1.2725784479232107em" x="9.038461538461538vw" y="1.7274215520767893em" fill="#aaa"/><rect width="0.09615384615384616em" height="0.6922021656281367em" x="9.134615384615385vw" y="2.307797834371863em" fill="#aaa"/><rect width="0.09615384615384616em" height="1.338944358614094em" x="9.230769230769232vw" y="1.661055641385906em" fill="#aaa"/><rect width="0.09615384615384616em" height="0.8438882344031369em" x="9.326923076923077vw" y="2.1561117655968633em" fill="#aaa"/><rect width="0.09615384615384616em" height="0.4807640650909092em" x="9.423076923076923vw" y="2.5192359349090907em" fill="#aaa"/><rect width="0.09615384615384616em" height="0.6524700202640514em" x="9.51923076923077vw" y="2.3475299797359486em" fill="#aaa"/><rect width="0.09615384615384616em" height="0.7779670718635254em" x="9.615384615384617vw" y="2.222032928136475em" fill="#aaa"/><rect width="0.09615384615384616em" height="1.1066127521263707em" x="9.711538461538462vw" y="1.8933872478736293em" fill="#aaa"/><rect width="0.09615384615384616em" height="0.8671048285198406em" x="9.807692307692308vw" y="2.1328951714801594em" fill="#aaa"/><rect width="0.09615384615384616em" height="0.6654261196633069em" x="9.903846153846155vw" y="2.334573880336693em" fill="#aaa"/></svg>