<?xml version="1.0" standalone="no"?>
<svg xmlns:xlink="http://www.w3.org/1999/xlink" xmlns="http://www.w3.org/2000/svg" class="topic-graph" style="width: 10vw; height: 3em; text-align: center;"><rect width="0.09615384615384616em" height="0.9554304655953145em" x="0vw" y="2.0445695344046855em" fill="#aaa"/><rect width="0.09615384615384616em" height="0.3883956717162105em" x="0.09615384615384616vw" y="2.6116043282837893em" fill="#aaa"/><rect width="0.09615384615384616em" height="1.085226888688672em" x="0.19230769230769232vw" y="1.914773111311328em" fill="#aaa"/><rect width="0.09615384615384616em" height="1.1918547239162331em" x="0.2884615384615385vw" y="1.8081452760837669em" fill="#aaa"/><rect width="0.09615384615384616em" height="1.334822993312949em" x="0.38461538461538464vw" y="1.665177006687051em" fill="#aaa"/><rect width="0.09615384615384616em" height="1.8898063354772159em" x="0.4807692307692308vw" y="1.1101936645227841em" fill="#aaa"/><rect width="0.09615384615384616em" height="2.171033913536569em" x="0.576923076923077vw" y="0.828966086463431em" fill="#aaa"/><rect width="0.09615384615384616em" height="1.5097106855809577em" x="0.6730769230769231vw" y="1.4902893144190423em" fill="#aaa"/><rect width="0.09615384615384616em" height="1.6240353554601652em" x="0.7692307692307693vw" y="1.3759646445398348em" fill="#aaa"/><rect width="0.09615384615384616em" height="1.6927663391914134em" x="0.8653846153846154vw" y="1.3072336608085866em" fill="#aaa"/><rect width="0.09615384615384616em" height="1.1145568522035056em" x="0.9615384615384616vw" y="1.8854431477964944em" fill="#aaa"/><rect width="0.09615384615384616em" height="1.8765986212752739em" x="1.0576923076923077vw" y="1.1234013787247261em" fill="#aaa"/><rect width="0.09615384615384616em" height="0.9989657334911152em" x="1.153846153846154vw" y="2.001034266508885em" fill="#aaa"/><rect width="0.09615384615384616em" height="2.2320520933706094em" x="1.25vw" y="0.7679479066293906em" fill="#aaa"/><rect width="0.09615384615384616em" height="2.123392051904112em" x="1.3461538461538463vw" y="0.8766079480958879em" fill="#aaa"/><rect width="0.09615384615384616em" height="2.1448861644233173em" x="1.4423076923076923vw" y="0.8551138355766827em" fill="#aaa"/><rect width="0.09615384615384616em" height="1.6771233552323128em" x="1.5384615384615385vw" y="1.3228766447676872em" fill="#aaa"/><rect width="0.09615384615384616em" height="2.5884693102152982em" x="1.6346153846153848vw" y="0.41153068978470175em" fill="#aaa"/><rect width="0.09615384615384616em" height="2.480946147526991em" x="1.7307692307692308vw" y="0.5190538524730091em" fill="#aaa"/><rect width="0.09615384615384616em" height="2.5736183741504135em" x="1.826923076923077vw" y="0.4263816258495865em" fill="#aaa"/><rect width="0.09615384615384616em" height="2.1035966310773215em" x="1.9230769230769231vw" y="0.8964033689226785em" fill="#aaa"/><rect width="0.09615384615384616em" height="2.9457211044439933em" x="2.019230769230769vw" y="0.054278895556006734em" fill="#aaa"/><rect width="0.09615384615384616em" height="1.7312487213343748em" x="2.1153846153846154vw" y="1.2687512786656252em" fill="#aaa"/><rect width="0.09615384615384616em" height="3em" x="2.2115384615384617vw" y="0em" fill="#aaa"/><rect width="0.09615384615384616em" height="1.1847650725429228em" x="2.307692307692308vw" y="1.8152349274570772em" fill="#aaa"/><rect width="0.09615384615384616em" height="0.7822016425294492em" x="2.403846153846154vw" y="2.2177983574705507em" fill="#aaa"/><rect width="0.09615384615384616em" height="1.1824018562846281em" x="2.5vw" y="1.8175981437153719em" fill="#aaa"/><rect width="0.09615384615384616em" height="1.7475435019923982em" x="2.5961538461538463vw" y="1.2524564980076018em" fill="#aaa"/><rect width="0.09615384615384616em" height="1.934826417980744em" x="2.6923076923076925vw" y="1.065173582019256em" fill="#aaa"/><rect width="0.09615384615384616em" height="2.0384260451265668em" x="2.7884615384615388vw" y="0.9615739548734332em" fill="#aaa"/><rect width="0.09615384615384616em" height="1.4296922233413742em" x="2.8846153846153846vw" y="1.5703077766586258em" fill="#aaa"/><rect width="0.09615384615384616em" height="1.236861044781293em" x="2.980769230769231vw" y="1.763138955218707em" fill="#aaa"/><rect width="0.09615384615384616em" height="1.3070049719065897em" x="3.076923076923077vw" y="1.6929950280934103em" fill="#aaa"/><rect width="0.09615384615384616em" height="1.2919767993886646em" x="3.1730769230769234vw" y="1.7080232006113354em" fill="#aaa"/><rect width="0.09615384615384616em" height="1.1022528879991247em" x="3.2692307692307696vw" y="1.8977471120008753em" fill="#aaa"/><rect width="0.09615384615384616em" height="1.1005039416131237em" x="3.3653846153846154vw" y="1.8994960583868763em" fill="#aaa"/><rect width="0.09615384615384616em" height="0.7745266794055181em" x="3.4615384615384617vw" y="2.2254733205944817em" fill="#aaa"/><rect width="0.09615384615384616em" height="0.7853195657647893em" x="3.557692307692308vw" y="2.214680434235211em" fill="#aaa"/><rect width="0.09615384615384616em" height="1.0733654004748803em" x="3.653846153846154vw" y="1.9266345995251197em" fill="#aaa"/><rect width="0.09615384615384616em" height="1.0370016915328204em" x="3.75vw" y="1.9629983084671796em" fill="#aaa"/><rect width="0.09615384615384616em" height="0.8321413932038906em" x="3.8461538461538463vw" y="2.167858606796109em" fill="#aaa"/><rect width="0.09615384615384616em" height="1.0221643871777752em" x="3.9423076923076925vw" y="1.9778356128222248em" fill="#aaa"/><rect width="0.09615384615384616em" height="0.9053544173701429em" x="4.038461538461538vw" y="2.094645582629857em" fill="#aaa"/><rect width="0.09615384615384616em" height="1.4423132969222539em" x="4.134615384615385vw" y="1.5576867030777461em" fill="#aaa"/><rect width="0.09615384615384616em" height="0.9908106596663646em" x="4.230769230769231vw" y="2.009189340333635em" fill="#aaa"/><rect width="0.09615384615384616em" height="0.8005501600905685em" x="4.3269230769230775vw" y="2.1994498399094313em" fill="#aaa"/><rect width="0.09615384615384616em" height="0.8261037716589743em" x="4.423076923076923vw" y="2.1738962283410257em" fill="#aaa"/><rect width="0.09615384615384616em" height="0.8379576825977204em" x="4.519230769230769vw" y="2.1620423174022796em" fill="#aaa"/><rect width="0.09615384615384616em" height="0.6568212285873395em" x="4.615384615384616vw" y="2.3431787714126604em" fill="#aaa"/><rect width="0.09615384615384616em" height="0.7770551114405109em" x="4.711538461538462vw" y="2.222944888559489em" fill="#aaa"/><rect width="0.09615384615384616em" height="0.5398779151793456em" x="4.807692307692308vw" y="2.4601220848206546em" fill="#aaa"/><rect width="0.09615384615384616em" height="0.5531195689209113em" x="4.903846153846154vw" y="2.4468804310790886em" fill="#aaa"/><rect width="0.09615384615384616em" height="0.5629260109300757em" x="5vw" y="2.4370739890699245em" fill="#aaa"/><rect width="0.09615384615384616em" height="0.6149450726695386em" x="5.096153846153847vw" y="2.3850549273304615em" fill="#aaa"/><rect width="0.09615384615384616em" height="0.3859308968956513em" x="5.1923076923076925vw" y="2.614069103104349em" fill="#aaa"/><rect width="0.09615384615384616em" height="0.6677971338091689em" x="5.288461538461538vw" y="2.332202866190831em" fill="#aaa"/><rect width="0.09615384615384616em" height="0.6716212602423718em" x="5.384615384615385vw" y="2.3283787397576283em" fill="#aaa"/><rect width="0.09615384615384616em" height="0.8010210977993792em" x="5.480769230769231vw" y="2.1989789022006208em" fill="#aaa"/><rect width="0.09615384615384616em" height="0.5628278618375396em" x="5.5769230769230775vw" y="2.4371721381624605em" fill="#aaa"/><rect width="0.09615384615384616em" height="0.6977527136084583em" x="5.673076923076923vw" y="2.302247286391542em" fill="#aaa"/><rect width="0.09615384615384616em" height="0.6275822009805068em" x="5.769230769230769vw" y="2.3724177990194932em" fill="#aaa"/><rect width="0.09615384615384616em" height="0.46397166555769026em" x="5.865384615384616vw" y="2.53602833444231em" fill="#aaa"/><rect width="0.09615384615384616em" height="0.5111014717609593em" x="5.961538461538462vw" y="2.488898528239041em" fill="#aaa"/><rect width="0.09615384615384616em" height="0.4538539145369677em" x="6.057692307692308vw" y="2.5461460854630324em" fill="#aaa"/><rect width="0.09615384615384616em" height="0.5107004138506663em" x="6.153846153846154vw" y="2.4892995861493334em" fill="#aaa"/><rect width="0.09615384615384616em" height="0.5080473913971384em" x="6.25vw" y="2.491952608602862em" fill="#aaa"/><rect width="0.09615384615384616em" height="0.4047412519642679em" x="6.346153846153847vw" y="2.5952587480357323em" fill="#aaa"/><rect width="0.09615384615384616em" height="0.4172168494287052em" x="6.4423076923076925vw" y="2.582783150571295em" fill="#aaa"/><rect width="0.09615384615384616em" height="0.34910607729995163em" x="6.538461538461539vw" y="2.6508939227000483em" fill="#aaa"/><rect width="0.09615384615384616em" height="0.359004500929124em" x="6.634615384615385vw" y="2.640995499070876em" fill="#aaa"/><rect width="0.09615384615384616em" height="0.45074441945067234em" x="6.730769230769231vw" y="2.5492555805493278em" fill="#aaa"/><rect width="0.09615384615384616em" height="0.3454348752996249em" x="6.8269230769230775vw" y="2.654565124700375em" fill="#aaa"/><rect width="0.09615384615384616em" height="0.4654832315001329em" x="6.923076923076923vw" y="2.5345167684998673em" fill="#aaa"/><rect width="0.09615384615384616em" height="0.45476584214218063em" x="7.01923076923077vw" y="2.5452341578578195em" fill="#aaa"/><rect width="0.09615384615384616em" height="0.3517052402967643em" x="7.115384615384616vw" y="2.648294759703236em" fill="#aaa"/><rect width="0.09615384615384616em" height="0.39853791550185347em" x="7.211538461538462vw" y="2.6014620844981464em" fill="#aaa"/><rect width="0.09615384615384616em" height="0.3854349780556635em" x="7.307692307692308vw" y="2.6145650219443364em" fill="#aaa"/><rect width="0.09615384615384616em" height="0.3783119707990733em" x="7.403846153846154vw" y="2.621688029200927em" fill="#aaa"/><rect width="0.09615384615384616em" height="0.34143975749465em" x="7.5vw" y="2.65856024250535em" fill="#aaa"/><rect width="0.09615384615384616em" height="0.3267434054279141em" x="7.596153846153847vw" y="2.673256594572086em" fill="#aaa"/><rect width="0.09615384615384616em" height="0.28888914746766925em" x="7.6923076923076925vw" y="2.7111108525323306em" fill="#aaa"/><rect width="0.09615384615384616em" height="0.3153471150625201em" x="7.788461538461539vw" y="2.68465288493748em" fill="#aaa"/><rect width="0.09615384615384616em" height="0.2894783578074083em" x="7.884615384615385vw" y="2.7105216421925915em" fill="#aaa"/><rect width="0.09615384615384616em" height="0.27094600016042647em" x="7.980769230769231vw" y="2.7290539998395733em" fill="#aaa"/><rect width="0.09615384615384616em" height="0.3420634224380162em" x="8.076923076923077vw" y="2.657936577561984em" fill="#aaa"/><rect width="0.09615384615384616em" height="0.2798417753065593em" x="8.173076923076923vw" y="2.720158224693441em" fill="#aaa"/><rect width="0.09615384615384616em" height="0.22675648477528218em" x="8.26923076923077vw" y="2.773243515224718em" fill="#aaa"/><rect width="0.09615384615384616em" height="0.24014967444146407em" x="8.365384615384615vw" y="2.759850325558536em" fill="#aaa"/><rect width="0.09615384615384616em" height="0.27438045318989013em" x="8.461538461538462vw" y="2.72561954681011em" fill="#aaa"/><rect width="0.09615384615384616em" height="0.20724706986591251em" x="8.557692307692308vw" y="2.7927529301340877em" fill="#aaa"/><rect width="0.09615384615384616em" height="0.23270594194881442em" x="8.653846153846155vw" y="2.767294058051186em" fill="#aaa"/><rect width="0.09615384615384616em" height="0.21047435986513302em" x="8.75vw" y="2.789525640134867em" fill="#aaa"/><rect width="0.09615384615384616em" height="0.24630229344096058em" x="8.846153846153847vw" y="2.7536977065590396em" fill="#aaa"/><rect width="0.09615384615384616em" height="0.24704463079326494em" x="8.942307692307693vw" y="2.752955369206735em" fill="#aaa"/><rect width="0.09615384615384616em" height="0.2439944186379355em" x="9.038461538461538vw" y="2.7560055813620643em" fill="#aaa"/><rect width="0.09615384615384616em" height="0.24884223821041662em" x="9.134615384615385vw" y="2.7511577617895835em" fill="#aaa"/><rect width="0.09615384615384616em" height="0.22415181597755157em" x="9.230769230769232vw" y="2.7758481840224483em" fill="#aaa"/><rect width="0.09615384615384616em" height="0.23768744137390735em" x="9.326923076923077vw" y="2.7623125586260926em" fill="#aaa"/><rect width="0.09615384615384616em" height="0.2212038458464665em" x="9.423076923076923vw" y="2.7787961541535333em" fill="#aaa"/><rect width="0.09615384615384616em" height="0.1959581681261101em" x="9.51923076923077vw" y="2.80404183187389em" fill="#aaa"/><rect width="0.09615384615384616em" height="0.20714575462982193em" x="9.615384615384617vw" y="2.792854245370178em" fill="#aaa"/><rect width="0.09615384615384616em" height="0.24908206199459593em" x="9.711538461538462vw" y="2.7509179380054043em" fill="#aaa"/><rect width="0.09615384615384616em" height="0.2423870019016146em" x="9.807692307692308vw" y="2.7576129980983852em" fill="#aaa"/><rect width="0.09615384615384616em" height="0.20993052292753442em" x="9.903846153846155vw" y="2.7900694770724654em" fill="#aaa"/></svg>