<?xml version="1.0" standalone="no"?>
<svg xmlns:xlink="http://www.w3.org/1999/xlink" xmlns="http://www.w3.org/2000/svg" class="topic-graph" style="width: 10vw; height: 3em; text-align: center;"><rect width="0.09615384615384616em" height="1.6176858551983424em" x="0vw" y="1.3823141448016576em" fill="#aaa"/><rect width="0.09615384615384616em" height="1.816007675782123em" x="0.09615384615384616vw" y="1.183992324217877em" fill="#aaa"/><rect width="0.09615384615384616em" height="3em" x="0.19230769230769232vw" y="0em" fill="#aaa"/><rect width="0.09615384615384616em" height="1.9433166097815118em" x="0.2884615384615385vw" y="1.0566833902184882em" fill="#aaa"/><rect width="0.09615384615384616em" height="1.2727456204747085em" x="0.38461538461538464vw" y="1.7272543795252915em" fill="#aaa"/><rect width="0.09615384615384616em" height="1.4912000768775835em" x="0.4807692307692308vw" y="1.5087999231224165em" fill="#aaa"/><rect width="0.09615384615384616em" height="1.7492547832381498em" x="0.576923076923077vw" y="1.2507452167618502em" fill="#aaa"/><rect width="0.09615384615384616em" height="1.4831481692848878em" x="0.6730769230769231vw" y="1.5168518307151122em" fill="#aaa"/><rect width="0.09615384615384616em" height="1.8203829744474809em" x="0.7692307692307693vw" y="1.1796170255525191em" fill="#aaa"/><rect width="0.09615384615384616em" height="1.6657664869215765em" x="0.8653846153846154vw" y="1.3342335130784235em" fill="#aaa"/><rect width="0.09615384615384616em" height="2.3475836179257796em" x="0.9615384615384616vw" y="0.6524163820742204em" fill="#aaa"/><rect width="0.09615384615384616em" height="2.995969974934194em" x="1.0576923076923077vw" y="0.0040300250658060754em" fill="#aaa"/><rect width="0.09615384615384616em" height="2.056430626918786em" x="1.153846153846154vw" y="0.943569373081214em" fill="#aaa"/><rect width="0.09615384615384616em" height="1.4684906207351127em" x="1.25vw" y="1.5315093792648873em" fill="#aaa"/><rect width="0.09615384615384616em" height="1.206498675481292em" x="1.3461538461538463vw" y="1.793501324518708em" fill="#aaa"/><rect width="0.09615384615384616em" height="1.2187088268506272em" x="1.4423076923076923vw" y="1.7812911731493728em" fill="#aaa"/><rect width="0.09615384615384616em" height="2.056304512521878em" x="1.5384615384615385vw" y="0.9436954874781218em" fill="#aaa"/><rect width="0.09615384615384616em" height="0.5458433631604149em" x="1.6346153846153848vw" y="2.454156636839585em" fill="#aaa"/><rect width="0.09615384615384616em" height="1.0164318580386122em" x="1.7307692307692308vw" y="1.9835681419613878em" fill="#aaa"/><rect width="0.09615384615384616em" height="0.9507976820688332em" x="1.826923076923077vw" y="2.049202317931167em" fill="#aaa"/><rect width="0.09615384615384616em" height="0.8831151269376094em" x="1.9230769230769231vw" y="2.1168848730623906em" fill="#aaa"/><rect width="0.09615384615384616em" height="1.2801314563646504em" x="2.019230769230769vw" y="1.7198685436353496em" fill="#aaa"/><rect width="0.09615384615384616em" height="1.5749882274606382em" x="2.1153846153846154vw" y="1.4250117725393618em" fill="#aaa"/><rect width="0.09615384615384616em" height="1.7871324141869276em" x="2.2115384615384617vw" y="1.2128675858130724em" fill="#aaa"/><rect width="0.09615384615384616em" height="0.6186731837704175em" x="2.307692307692308vw" y="2.3813268162295826em" fill="#aaa"/><rect width="0.09615384615384616em" height="1.5033876209923869em" x="2.403846153846154vw" y="1.4966123790076131em" fill="#aaa"/><rect width="0.09615384615384616em" height="1.455449131931064em" x="2.5vw" y="1.544550868068936em" fill="#aaa"/><rect width="0.09615384615384616em" height="1.5542955477290128em" x="2.5961538461538463vw" y="1.4457044522709872em" fill="#aaa"/><rect width="0.09615384615384616em" height="1.2376680542179601em" x="2.6923076923076925vw" y="1.7623319457820399em" fill="#aaa"/><rect width="0.09615384615384616em" height="1.1298651798148325em" x="2.7884615384615388vw" y="1.8701348201851675em" fill="#aaa"/><rect width="0.09615384615384616em" height="1.6140434034201738em" x="2.8846153846153846vw" y="1.3859565965798262em" fill="#aaa"/><rect width="0.09615384615384616em" height="1.3740142164252915em" x="2.980769230769231vw" y="1.6259857835747085em" fill="#aaa"/><rect width="0.09615384615384616em" height="1.575498976409905em" x="3.076923076923077vw" y="1.424501023590095em" fill="#aaa"/><rect width="0.09615384615384616em" height="1.4675192566963586em" x="3.1730769230769234vw" y="1.5324807433036414em" fill="#aaa"/><rect width="0.09615384615384616em" height="1.1206367644450324em" x="3.2692307692307696vw" y="1.8793632355549676em" fill="#aaa"/><rect width="0.09615384615384616em" height="1.2941956996749466em" x="3.3653846153846154vw" y="1.7058043003250534em" fill="#aaa"/><rect width="0.09615384615384616em" height="1.4344588927462878em" x="3.4615384615384617vw" y="1.5655411072537122em" fill="#aaa"/><rect width="0.09615384615384616em" height="1.4562086611537453em" x="3.557692307692308vw" y="1.5437913388462547em" fill="#aaa"/><rect width="0.09615384615384616em" height="1.2871136517699808em" x="3.653846153846154vw" y="1.7128863482300192em" fill="#aaa"/><rect width="0.09615384615384616em" height="1.1518891007396053em" x="3.75vw" y="1.8481108992603947em" fill="#aaa"/><rect width="0.09615384615384616em" height="1.3123457370203406em" x="3.8461538461538463vw" y="1.6876542629796594em" fill="#aaa"/><rect width="0.09615384615384616em" height="1.537151701922106em" x="3.9423076923076925vw" y="1.462848298077894em" fill="#aaa"/><rect width="0.09615384615384616em" height="1.0223065572628958em" x="4.038461538461538vw" y="1.9776934427371042em" fill="#aaa"/><rect width="0.09615384615384616em" height="1.1104742555081044em" x="4.134615384615385vw" y="1.8895257444918956em" fill="#aaa"/><rect width="0.09615384615384616em" height="1.0691116314630447em" x="4.230769230769231vw" y="1.9308883685369553em" fill="#aaa"/><rect width="0.09615384615384616em" height="1.3643686984988692em" x="4.3269230769230775vw" y="1.6356313015011308em" fill="#aaa"/><rect width="0.09615384615384616em" height="1.1544164080578299em" x="4.423076923076923vw" y="1.8455835919421701em" fill="#aaa"/><rect width="0.09615384615384616em" height="1.2397707132438263em" x="4.519230769230769vw" y="1.7602292867561737em" fill="#aaa"/><rect width="0.09615384615384616em" height="1.1973934299694402em" x="4.615384615384616vw" y="1.8026065700305598em" fill="#aaa"/><rect width="0.09615384615384616em" height="1.2448453214973667em" x="4.711538461538462vw" y="1.7551546785026333em" fill="#aaa"/><rect width="0.09615384615384616em" height="1.2008929236042414em" x="4.807692307692308vw" y="1.7991070763957586em" fill="#aaa"/><rect width="0.09615384615384616em" height="1.1797774342399168em" x="4.903846153846154vw" y="1.8202225657600832em" fill="#aaa"/><rect width="0.09615384615384616em" height="1.1768024436591493em" x="5vw" y="1.8231975563408507em" fill="#aaa"/><rect width="0.09615384615384616em" height="1.2113225769956173em" x="5.096153846153847vw" y="1.7886774230043827em" fill="#aaa"/><rect width="0.09615384615384616em" height="1.2134312295382608em" x="5.1923076923076925vw" y="1.7865687704617392em" fill="#aaa"/><rect width="0.09615384615384616em" height="1.092257270917717em" x="5.288461538461538vw" y="1.907742729082283em" fill="#aaa"/><rect width="0.09615384615384616em" height="0.995993339127022em" x="5.384615384615385vw" y="2.004006660872978em" fill="#aaa"/><rect width="0.09615384615384616em" height="1.1303787705867023em" x="5.480769230769231vw" y="1.8696212294132977em" fill="#aaa"/><rect width="0.09615384615384616em" height="0.9630411204472671em" x="5.5769230769230775vw" y="2.036958879552733em" fill="#aaa"/><rect width="0.09615384615384616em" height="1.0597478959922555em" x="5.673076923076923vw" y="1.9402521040077445em" fill="#aaa"/><rect width="0.09615384615384616em" height="0.7625374012397163em" x="5.769230769230769vw" y="2.237462598760284em" fill="#aaa"/><rect width="0.09615384615384616em" height="0.9139834260217624em" x="5.865384615384616vw" y="2.0860165739782377em" fill="#aaa"/><rect width="0.09615384615384616em" height="1.1058135559543558em" x="5.961538461538462vw" y="1.8941864440456442em" fill="#aaa"/><rect width="0.09615384615384616em" height="1.0165815708911015em" x="6.057692307692308vw" y="1.9834184291088985em" fill="#aaa"/><rect width="0.09615384615384616em" height="1.0871536323105535em" x="6.153846153846154vw" y="1.9128463676894465em" fill="#aaa"/><rect width="0.09615384615384616em" height="1.0836952578726167em" x="6.25vw" y="1.9163047421273833em" fill="#aaa"/><rect width="0.09615384615384616em" height="1.0007568645323113em" x="6.346153846153847vw" y="1.9992431354676887em" fill="#aaa"/><rect width="0.09615384615384616em" height="1.015718363828776em" x="6.4423076923076925vw" y="1.984281636171224em" fill="#aaa"/><rect width="0.09615384615384616em" height="0.8421505484848333em" x="6.538461538461539vw" y="2.1578494515151667em" fill="#aaa"/><rect width="0.09615384615384616em" height="0.9108468403577055em" x="6.634615384615385vw" y="2.0891531596422945em" fill="#aaa"/><rect width="0.09615384615384616em" height="0.6381526181568662em" x="6.730769230769231vw" y="2.361847381843134em" fill="#aaa"/><rect width="0.09615384615384616em" height="0.8967393190695274em" x="6.8269230769230775vw" y="2.1032606809304726em" fill="#aaa"/><rect width="0.09615384615384616em" height="0.6737956113499793em" x="6.923076923076923vw" y="2.3262043886500208em" fill="#aaa"/><rect width="0.09615384615384616em" height="0.8597848224851254em" x="7.01923076923077vw" y="2.1402151775148743em" fill="#aaa"/><rect width="0.09615384615384616em" height="0.862822281083583em" x="7.115384615384616vw" y="2.137177718916417em" fill="#aaa"/><rect width="0.09615384615384616em" height="0.9119339851430033em" x="7.211538461538462vw" y="2.088066014856997em" fill="#aaa"/><rect width="0.09615384615384616em" height="1.0332974733064146em" x="7.307692307692308vw" y="1.9667025266935854em" fill="#aaa"/><rect width="0.09615384615384616em" height="0.7687000899414427em" x="7.403846153846154vw" y="2.2312999100585573em" fill="#aaa"/><rect width="0.09615384615384616em" height="0.6672571453137942em" x="7.5vw" y="2.332742854686206em" fill="#aaa"/><rect width="0.09615384615384616em" height="0.5895692750561294em" x="7.596153846153847vw" y="2.4104307249438706em" fill="#aaa"/><rect width="0.09615384615384616em" height="0.646611445189493em" x="7.6923076923076925vw" y="2.353388554810507em" fill="#aaa"/><rect width="0.09615384615384616em" height="0.6314664202557454em" x="7.788461538461539vw" y="2.3685335797442546em" fill="#aaa"/><rect width="0.09615384615384616em" height="0.6102732447166854em" x="7.884615384615385vw" y="2.3897267552833146em" fill="#aaa"/><rect width="0.09615384615384616em" height="0.6886702067032826em" x="7.980769230769231vw" y="2.3113297932967174em" fill="#aaa"/><rect width="0.09615384615384616em" height="0.7458260718224032em" x="8.076923076923077vw" y="2.2541739281775968em" fill="#aaa"/><rect width="0.09615384615384616em" height="0.7384830981766102em" x="8.173076923076923vw" y="2.2615169018233896em" fill="#aaa"/><rect width="0.09615384615384616em" height="0.6595166028545835em" x="8.26923076923077vw" y="2.3404833971454164em" fill="#aaa"/><rect width="0.09615384615384616em" height="0.6508342891591902em" x="8.365384615384615vw" y="2.34916571084081em" fill="#aaa"/><rect width="0.09615384615384616em" height="0.5591897330994589em" x="8.461538461538462vw" y="2.440810266900541em" fill="#aaa"/><rect width="0.09615384615384616em" height="0.6239319563151788em" x="8.557692307692308vw" y="2.376068043684821em" fill="#aaa"/><rect width="0.09615384615384616em" height="0.6517821989562608em" x="8.653846153846155vw" y="2.3482178010437393em" fill="#aaa"/><rect width="0.09615384615384616em" height="0.5406186496973635em" x="8.75vw" y="2.4593813503026363em" fill="#aaa"/><rect width="0.09615384615384616em" height="0.5130721255083822em" x="8.846153846153847vw" y="2.486927874491618em" fill="#aaa"/><rect width="0.09615384615384616em" height="0.5369840162601506em" x="8.942307692307693vw" y="2.4630159837398495em" fill="#aaa"/><rect width="0.09615384615384616em" height="0.5795065193036429em" x="9.038461538461538vw" y="2.420493480696357em" fill="#aaa"/><rect width="0.09615384615384616em" height="0.542556750212059em" x="9.134615384615385vw" y="2.457443249787941em" fill="#aaa"/><rect width="0.09615384615384616em" height="0.5060958476634714em" x="9.230769230769232vw" y="2.493904152336529em" fill="#aaa"/><rect width="0.09615384615384616em" height="0.4986266591120895em" x="9.326923076923077vw" y="2.5013733408879104em" fill="#aaa"/><rect width="0.09615384615384616em" height="0.556004513656259em" x="9.423076923076923vw" y="2.443995486343741em" fill="#aaa"/><rect width="0.09615384615384616em" height="0.4586743685727636em" x="9.51923076923077vw" y="2.5413256314272363em" fill="#aaa"/><rect width="0.09615384615384616em" height="0.47133005836273534em" x="9.615384615384617vw" y="2.528669941637265em" fill="#aaa"/><rect width="0.09615384615384616em" height="0.445483454959938em" x="9.711538461538462vw" y="2.554516545040062em" fill="#aaa"/><rect width="0.09615384615384616em" height="0.5145672572683412em" x="9.807692307692308vw" y="2.4854327427316587em" fill="#aaa"/><rect width="0.09615384615384616em" height="0.449555968878663em" x="9.903846153846155vw" y="2.550444031121337em" fill="#aaa"/></svg>