<?xml version="1.0" standalone="no"?>
<svg xmlns:xlink="http://www.w3.org/1999/xlink" xmlns="http://www.w3.org/2000/svg" class="topic-graph" style="width: 10vw; height: 3em; text-align: center;"><rect width="0.09615384615384616em" height="0.11683361867305615em" x="0vw" y="2.883166381326944em" fill="#aaa"/><rect width="0.09615384615384616em" height="0.06258161128456041em" x="0.09615384615384616vw" y="2.9374183887154395em" fill="#aaa"/><rect width="0.09615384615384616em" height="0.6452246842054024em" x="0.19230769230769232vw" y="2.3547753157945976em" fill="#aaa"/><rect width="0.09615384615384616em" height="0.25626042502698704em" x="0.2884615384615385vw" y="2.743739574973013em" fill="#aaa"/><rect width="0.09615384615384616em" height="0.6378189638809829em" x="0.38461538461538464vw" y="2.362181036119017em" fill="#aaa"/><rect width="0.09615384615384616em" height="3em" x="0.4807692307692308vw" y="0em" fill="#aaa"/><rect width="0.09615384615384616em" height="0.4859660271824474em" x="0.576923076923077vw" y="2.5140339728175527em" fill="#aaa"/><rect width="0.09615384615384616em" height="0.427852918377148em" x="0.6730769230769231vw" y="2.5721470816228518em" fill="#aaa"/><rect width="0.09615384615384616em" height="0.23584024647304613em" x="0.7692307692307693vw" y="2.764159753526954em" fill="#aaa"/><rect width="0.09615384615384616em" height="1.3533562299491453em" x="0.8653846153846154vw" y="1.6466437700508547em" fill="#aaa"/><rect width="0.09615384615384616em" height="0.214833398203538em" x="0.9615384615384616vw" y="2.785166601796462em" fill="#aaa"/><rect width="0.09615384615384616em" height="1.11298601421408em" x="1.0576923076923077vw" y="1.88701398578592em" fill="#aaa"/><rect width="0.09615384615384616em" height="0.26970547384350085em" x="1.153846153846154vw" y="2.730294526156499em" fill="#aaa"/><rect width="0.09615384615384616em" height="0.2088801433415331em" x="1.25vw" y="2.791119856658467em" fill="#aaa"/><rect width="0.09615384615384616em" height="0.12207789391210719em" x="1.3461538461538463vw" y="2.877922106087893em" fill="#aaa"/><rect width="0.09615384615384616em" height="0.41635204663737246em" x="1.4423076923076923vw" y="2.5836479533626275em" fill="#aaa"/><rect width="0.09615384615384616em" height="0.11627284235788996em" x="1.5384615384615385vw" y="2.88372715764211em" fill="#aaa"/><rect width="0.09615384615384616em" height="0.041687404244837085em" x="1.6346153846153848vw" y="2.958312595755163em" fill="#aaa"/><rect width="0.09615384615384616em" height="0.40842660130520875em" x="1.7307692307692308vw" y="2.5915733986947913em" fill="#aaa"/><rect width="0.09615384615384616em" height="0.4638563740366799em" x="1.826923076923077vw" y="2.5361436259633203em" fill="#aaa"/><rect width="0.09615384615384616em" height="0.21852189193522237em" x="1.9230769230769231vw" y="2.7814781080647775em" fill="#aaa"/><rect width="0.09615384615384616em" height="0.028067878696234033em" x="2.019230769230769vw" y="2.971932121303766em" fill="#aaa"/><rect width="0.09615384615384616em" height="0.12320197980282341em" x="2.1153846153846154vw" y="2.876798020197177em" fill="#aaa"/><rect width="0.09615384615384616em" height="0.0340761893797801em" x="2.2115384615384617vw" y="2.96592381062022em" fill="#aaa"/><rect width="0.09615384615384616em" height="0.5412951506963305em" x="2.307692307692308vw" y="2.4587048493036696em" fill="#aaa"/><rect width="0.09615384615384616em" height="0.2642567926491395em" x="2.403846153846154vw" y="2.7357432073508603em" fill="#aaa"/><rect width="0.09615384615384616em" height="0.0417465178499381em" x="2.5vw" y="2.958253482150062em" fill="#aaa"/><rect width="0.09615384615384616em" height="0.20014687779337895em" x="2.5961538461538463vw" y="2.799853122206621em" fill="#aaa"/><rect width="0.09615384615384616em" height="0.41741431792284434em" x="2.6923076923076925vw" y="2.5825856820771556em" fill="#aaa"/><rect width="0.09615384615384616em" height="0.1407688473496694em" x="2.7884615384615388vw" y="2.8592311526503305em" fill="#aaa"/><rect width="0.09615384615384616em" height="0.01767173464580095em" x="2.8846153846153846vw" y="2.982328265354199em" fill="#aaa"/><rect width="0.09615384615384616em" height="0.11407314496397289em" x="2.980769230769231vw" y="2.8859268550360273em" fill="#aaa"/><rect width="0.09615384615384616em" height="0.17112093407312418em" x="3.076923076923077vw" y="2.8288790659268757em" fill="#aaa"/><rect width="0.09615384615384616em" height="0.42903047731888333em" x="3.1730769230769234vw" y="2.570969522681117em" fill="#aaa"/><rect width="0.09615384615384616em" height="0.4084384524749102em" x="3.2692307692307696vw" y="2.5915615475250897em" fill="#aaa"/><rect width="0.09615384615384616em" height="0.33382826120785475em" x="3.3653846153846154vw" y="2.666171738792145em" fill="#aaa"/><rect width="0.09615384615384616em" height="0.15160199540400107em" x="3.4615384615384617vw" y="2.848398004595999em" fill="#aaa"/><rect width="0.09615384615384616em" height="0.36773825450013503em" x="3.557692307692308vw" y="2.632261745499865em" fill="#aaa"/><rect width="0.09615384615384616em" height="0.2786249318998565em" x="3.653846153846154vw" y="2.7213750681001434em" fill="#aaa"/><rect width="0.09615384615384616em" height="0.1989302288690206em" x="3.75vw" y="2.8010697711309795em" fill="#aaa"/><rect width="0.09615384615384616em" height="0.18794789542046056em" x="3.8461538461538463vw" y="2.8120521045795392em" fill="#aaa"/><rect width="0.09615384615384616em" height="0.18322142109904227em" x="3.9423076923076925vw" y="2.8167785789009576em" fill="#aaa"/><rect width="0.09615384615384616em" height="0.18729298957777235em" x="4.038461538461538vw" y="2.8127070104222276em" fill="#aaa"/><rect width="0.09615384615384616em" height="0.09366691061143079em" x="4.134615384615385vw" y="2.906333089388569em" fill="#aaa"/><rect width="0.09615384615384616em" height="0.29214629076375637em" x="4.230769230769231vw" y="2.7078537092362436em" fill="#aaa"/><rect width="0.09615384615384616em" height="0.08877262101258046em" x="4.3269230769230775vw" y="2.9112273789874195em" fill="#aaa"/><rect width="0.09615384615384616em" height="0.38167967577765705em" x="4.423076923076923vw" y="2.618320324222343em" fill="#aaa"/><rect width="0.09615384615384616em" height="0.174832463326783em" x="4.519230769230769vw" y="2.825167536673217em" fill="#aaa"/><rect width="0.09615384615384616em" height="0.03155127822480022em" x="4.615384615384616vw" y="2.9684487217751996em" fill="#aaa"/><rect width="0.09615384615384616em" height="2.183578602487309em" x="4.711538461538462vw" y="0.8164213975126908em" fill="#aaa"/><rect width="0.09615384615384616em" height="1.0020165412985471em" x="4.807692307692308vw" y="1.9979834587014529em" fill="#aaa"/><rect width="0.09615384615384616em" height="0.32257461140184185em" x="4.903846153846154vw" y="2.677425388598158em" fill="#aaa"/><rect width="0.09615384615384616em" height="0.17618331158842734em" x="5vw" y="2.8238166884115725em" fill="#aaa"/><rect width="0.09615384615384616em" height="0.17002436190675474em" x="5.096153846153847vw" y="2.829975638093245em" fill="#aaa"/><rect width="0.09615384615384616em" height="0.27209297939501753em" x="5.1923076923076925vw" y="2.7279070206049827em" fill="#aaa"/><rect width="0.09615384615384616em" height="0.200322946901555em" x="5.288461538461538vw" y="2.799677053098445em" fill="#aaa"/><rect width="0.09615384615384616em" height="0.8249911104243997em" x="5.384615384615385vw" y="2.1750088895756003em" fill="#aaa"/><rect width="0.09615384615384616em" height="1.2924480687458695em" x="5.480769230769231vw" y="1.7075519312541305em" fill="#aaa"/><rect width="0.09615384615384616em" height="0.7134265356860328em" x="5.5769230769230775vw" y="2.2865734643139675em" fill="#aaa"/><rect width="0.09615384615384616em" height="0.7439550404830407em" x="5.673076923076923vw" y="2.2560449595169594em" fill="#aaa"/><rect width="0.09615384615384616em" height="0.5636775229794229em" x="5.769230769230769vw" y="2.4363224770205774em" fill="#aaa"/><rect width="0.09615384615384616em" height="0.4337192819035735em" x="5.865384615384616vw" y="2.5662807180964267em" fill="#aaa"/><rect width="0.09615384615384616em" height="0.1692851095084213em" x="5.961538461538462vw" y="2.8307148904915787em" fill="#aaa"/><rect width="0.09615384615384616em" height="0.12246388027331681em" x="6.057692307692308vw" y="2.8775361197266833em" fill="#aaa"/><rect width="0.09615384615384616em" height="0.0660056957120725em" x="6.153846153846154vw" y="2.9339943042879275em" fill="#aaa"/><rect width="0.09615384615384616em" height="1.0793904387628133em" x="6.25vw" y="1.9206095612371867em" fill="#aaa"/><rect width="0.09615384615384616em" height="0.46287151175883107em" x="6.346153846153847vw" y="2.537128488241169em" fill="#aaa"/><rect width="0.09615384615384616em" height="0.056580938416509505em" x="6.4423076923076925vw" y="2.9434190615834903em" fill="#aaa"/><rect width="0.09615384615384616em" height="0.17529131074936938em" x="6.538461538461539vw" y="2.8247086892506306em" fill="#aaa"/><rect width="0.09615384615384616em" height="0.10319460877753409em" x="6.634615384615385vw" y="2.896805391222466em" fill="#aaa"/><rect width="0.09615384615384616em" height="0.2088465227146356em" x="6.730769230769231vw" y="2.7911534772853646em" fill="#aaa"/><rect width="0.09615384615384616em" height="0.14515627893562305em" x="6.8269230769230775vw" y="2.854843721064377em" fill="#aaa"/><rect width="0.09615384615384616em" height="1.3085502164319258em" x="6.923076923076923vw" y="1.6914497835680742em" fill="#aaa"/><rect width="0.09615384615384616em" height="0.5442977935249244em" x="7.01923076923077vw" y="2.4557022064750758em" fill="#aaa"/><rect width="0.09615384615384616em" height="0.18456577461657375em" x="7.115384615384616vw" y="2.8154342253834264em" fill="#aaa"/><rect width="0.09615384615384616em" height="0.06644867895519485em" x="7.211538461538462vw" y="2.933551321044805em" fill="#aaa"/><rect width="0.09615384615384616em" height="0.09812018679111444em" x="7.307692307692308vw" y="2.9018798132088857em" fill="#aaa"/><rect width="0.09615384615384616em" height="0.12451874100587262em" x="7.403846153846154vw" y="2.875481258994127em" fill="#aaa"/><rect width="0.09615384615384616em" height="0.07697640566998162em" x="7.5vw" y="2.9230235943300182em" fill="#aaa"/><rect width="0.09615384615384616em" height="0.3525096556249011em" x="7.596153846153847vw" y="2.647490344375099em" fill="#aaa"/><rect width="0.09615384615384616em" height="0.5788513339672701em" x="7.6923076923076925vw" y="2.42114866603273em" fill="#aaa"/><rect width="0.09615384615384616em" height="0.13884203414065638em" x="7.788461538461539vw" y="2.8611579658593436em" fill="#aaa"/><rect width="0.09615384615384616em" height="0.08323474385599483em" x="7.884615384615385vw" y="2.9167652561440054em" fill="#aaa"/><rect width="0.09615384615384616em" height="0.0870609957505451em" x="7.980769230769231vw" y="2.9129390042494547em" fill="#aaa"/><rect width="0.09615384615384616em" height="0.25441884555174993em" x="8.076923076923077vw" y="2.7455811544482502em" fill="#aaa"/><rect width="0.09615384615384616em" height="0.11986671565445502em" x="8.173076923076923vw" y="2.880133284345545em" fill="#aaa"/><rect width="0.09615384615384616em" height="0.07063761196670494em" x="8.26923076923077vw" y="2.929362388033295em" fill="#aaa"/><rect width="0.09615384615384616em" height="0.05582827308523716em" x="8.365384615384615vw" y="2.944171726914763em" fill="#aaa"/><rect width="0.09615384615384616em" height="0.2867396172036779em" x="8.461538461538462vw" y="2.713260382796322em" fill="#aaa"/><rect width="0.09615384615384616em" height="0.3713205774849402em" x="8.557692307692308vw" y="2.62867942251506em" fill="#aaa"/><rect width="0.09615384615384616em" height="0.15082727792820683em" x="8.653846153846155vw" y="2.8491727220717933em" fill="#aaa"/><rect width="0.09615384615384616em" height="0.08191327442512651em" x="8.75vw" y="2.9180867255748737em" fill="#aaa"/><rect width="0.09615384615384616em" height="0.23954313471227295em" x="8.846153846153847vw" y="2.7604568652877273em" fill="#aaa"/><rect width="0.09615384615384616em" height="0.38078784430500723em" x="8.942307692307693vw" y="2.619212155694993em" fill="#aaa"/><rect width="0.09615384615384616em" height="0.050075072733732795em" x="9.038461538461538vw" y="2.949924927266267em" fill="#aaa"/><rect width="0.09615384615384616em" height="0.21031452845660648em" x="9.134615384615385vw" y="2.7896854715433936em" fill="#aaa"/><rect width="0.09615384615384616em" height="0.15622736582446453em" x="9.230769230769232vw" y="2.8437726341755356em" fill="#aaa"/><rect width="0.09615384615384616em" height="0.16868103181374086em" x="9.326923076923077vw" y="2.831318968186259em" fill="#aaa"/><rect width="0.09615384615384616em" height="0.06543136446560102em" x="9.423076923076923vw" y="2.934568635534399em" fill="#aaa"/><rect width="0.09615384615384616em" height="0.5124488941842256em" x="9.51923076923077vw" y="2.4875511058157747em" fill="#aaa"/><rect width="0.09615384615384616em" height="0.08904589053166685em" x="9.615384615384617vw" y="2.9109541094683333em" fill="#aaa"/><rect width="0.09615384615384616em" height="0.06671141534900296em" x="9.711538461538462vw" y="2.933288584650997em" fill="#aaa"/><rect width="0.09615384615384616em" height="0.10364221782446421em" x="9.807692307692308vw" y="2.896357782175536em" fill="#aaa"/><rect width="0.09615384615384616em" height="0.11361628956468861em" x="9.903846153846155vw" y="2.8863837104353114em" fill="#aaa"/></svg>