<?xml version="1.0" standalone="no"?>
<svg xmlns:xlink="http://www.w3.org/1999/xlink" xmlns="http://www.w3.org/2000/svg" class="topic-graph" style="width: 10vw; height: 3em; text-align: center;"><rect width="0.09615384615384616em" height="0.0410589155105455em" x="0vw" y="2.9589410844894544em" fill="#aaa"/><rect width="0.09615384615384616em" height="0.49069739957723446em" x="0.09615384615384616vw" y="2.5093026004227657em" fill="#aaa"/><rect width="0.09615384615384616em" height="0.3251710894124603em" x="0.19230769230769232vw" y="2.67482891058754em" fill="#aaa"/><rect width="0.09615384615384616em" height="0.35392253782925087em" x="0.2884615384615385vw" y="2.6460774621707492em" fill="#aaa"/><rect width="0.09615384615384616em" height="0.06208993009379693em" x="0.38461538461538464vw" y="2.937910069906203em" fill="#aaa"/><rect width="0.09615384615384616em" height="0.24065964765235215em" x="0.4807692307692308vw" y="2.759340352347648em" fill="#aaa"/><rect width="0.09615384615384616em" height="0.0884420051257649em" x="0.576923076923077vw" y="2.911557994874235em" fill="#aaa"/><rect width="0.09615384615384616em" height="0.02204117659932752em" x="0.6730769230769231vw" y="2.9779588234006726em" fill="#aaa"/><rect width="0.09615384615384616em" height="0.11221935339011968em" x="0.7692307692307693vw" y="2.8877806466098805em" fill="#aaa"/><rect width="0.09615384615384616em" height="0.0313177343353077em" x="0.8653846153846154vw" y="2.9686822656646923em" fill="#aaa"/><rect width="0.09615384615384616em" height="0.614308709196018em" x="0.9615384615384616vw" y="2.3856912908039822em" fill="#aaa"/><rect width="0.09615384615384616em" height="0.04389674945746606em" x="1.0576923076923077vw" y="2.956103250542534em" fill="#aaa"/><rect width="0.09615384615384616em" height="0.2931115753839062em" x="1.153846153846154vw" y="2.7068884246160936em" fill="#aaa"/><rect width="0.09615384615384616em" height="0.2033428937404592em" x="1.25vw" y="2.796657106259541em" fill="#aaa"/><rect width="0.09615384615384616em" height="0.2035525088582996em" x="1.3461538461538463vw" y="2.7964474911417003em" fill="#aaa"/><rect width="0.09615384615384616em" height="1.5172404723991186em" x="1.4423076923076923vw" y="1.4827595276008814em" fill="#aaa"/><rect width="0.09615384615384616em" height="0.3398612833177451em" x="1.5384615384615385vw" y="2.6601387166822548em" fill="#aaa"/><rect width="0.09615384615384616em" height="0.2964170139542188em" x="1.6346153846153848vw" y="2.703582986045781em" fill="#aaa"/><rect width="0.09615384615384616em" height="0.0830743215601975em" x="1.7307692307692308vw" y="2.9169256784398025em" fill="#aaa"/><rect width="0.09615384615384616em" height="0.3184388994662223em" x="1.826923076923077vw" y="2.6815611005337776em" fill="#aaa"/><rect width="0.09615384615384616em" height="1.6443661829491232em" x="1.9230769230769231vw" y="1.3556338170508768em" fill="#aaa"/><rect width="0.09615384615384616em" height="0.035164740367654324em" x="2.019230769230769vw" y="2.9648352596323457em" fill="#aaa"/><rect width="0.09615384615384616em" height="0.18289067375403212em" x="2.1153846153846154vw" y="2.817109326245968em" fill="#aaa"/><rect width="0.09615384615384616em" height="0.01952565927801068em" x="2.2115384615384617vw" y="2.9804743407219894em" fill="#aaa"/><rect width="0.09615384615384616em" height="0.08670990852046986em" x="2.307692307692308vw" y="2.91329009147953em" fill="#aaa"/><rect width="0.09615384615384616em" height="2.481686417482722em" x="2.403846153846154vw" y="0.518313582517278em" fill="#aaa"/><rect width="0.09615384615384616em" height="1.8048545758637582em" x="2.5vw" y="1.1951454241362418em" fill="#aaa"/><rect width="0.09615384615384616em" height="0.5564365439342365em" x="2.5961538461538463vw" y="2.4435634560657635em" fill="#aaa"/><rect width="0.09615384615384616em" height="0.061884679572630545em" x="2.6923076923076925vw" y="2.9381153204273693em" fill="#aaa"/><rect width="0.09615384615384616em" height="0.7437946404153941em" x="2.7884615384615388vw" y="2.256205359584606em" fill="#aaa"/><rect width="0.09615384615384616em" height="0.04388256159012452em" x="2.8846153846153846vw" y="2.9561174384098754em" fill="#aaa"/><rect width="0.09615384615384616em" height="0.5480781998966539em" x="2.980769230769231vw" y="2.4519218001033463em" fill="#aaa"/><rect width="0.09615384615384616em" height="0.26273350053558503em" x="3.076923076923077vw" y="2.737266499464415em" fill="#aaa"/><rect width="0.09615384615384616em" height="0.6760209359817606em" x="3.1730769230769234vw" y="2.323979064018239em" fill="#aaa"/><rect width="0.09615384615384616em" height="0.042183536392654195em" x="3.2692307692307696vw" y="2.9578164636073456em" fill="#aaa"/><rect width="0.09615384615384616em" height="0.20018080428024743em" x="3.3653846153846154vw" y="2.7998191957197527em" fill="#aaa"/><rect width="0.09615384615384616em" height="0.10083181106905875em" x="3.4615384615384617vw" y="2.899168188930941em" fill="#aaa"/><rect width="0.09615384615384616em" height="1.506954215220492em" x="3.557692307692308vw" y="1.493045784779508em" fill="#aaa"/><rect width="0.09615384615384616em" height="0.5873254226967526em" x="3.653846153846154vw" y="2.4126745773032474em" fill="#aaa"/><rect width="0.09615384615384616em" height="0.38975738599708015em" x="3.75vw" y="2.61024261400292em" fill="#aaa"/><rect width="0.09615384615384616em" height="1.419337752760894em" x="3.8461538461538463vw" y="1.580662247239106em" fill="#aaa"/><rect width="0.09615384615384616em" height="0.1567013594645738em" x="3.9423076923076925vw" y="2.8432986405354264em" fill="#aaa"/><rect width="0.09615384615384616em" height="0.09141262600253301em" x="4.038461538461538vw" y="2.908587373997467em" fill="#aaa"/><rect width="0.09615384615384616em" height="0.773397580068314em" x="4.134615384615385vw" y="2.226602419931686em" fill="#aaa"/><rect width="0.09615384615384616em" height="0.20031157416588025em" x="4.230769230769231vw" y="2.7996884258341197em" fill="#aaa"/><rect width="0.09615384615384616em" height="0.11946811483933842em" x="4.3269230769230775vw" y="2.8805318851606616em" fill="#aaa"/><rect width="0.09615384615384616em" height="0.287861526626562em" x="4.423076923076923vw" y="2.712138473373438em" fill="#aaa"/><rect width="0.09615384615384616em" height="0.34299016880607563em" x="4.519230769230769vw" y="2.6570098311939243em" fill="#aaa"/><rect width="0.09615384615384616em" height="0.42596028739729497em" x="4.615384615384616vw" y="2.574039712602705em" fill="#aaa"/><rect width="0.09615384615384616em" height="0.7913653789168369em" x="4.711538461538462vw" y="2.208634621083163em" fill="#aaa"/><rect width="0.09615384615384616em" height="0.6752756993283927em" x="4.807692307692308vw" y="2.3247243006716074em" fill="#aaa"/><rect width="0.09615384615384616em" height="0.13027012773628763em" x="4.903846153846154vw" y="2.8697298722637123em" fill="#aaa"/><rect width="0.09615384615384616em" height="0.42024035028001694em" x="5vw" y="2.579759649719983em" fill="#aaa"/><rect width="0.09615384615384616em" height="0.506597230346668em" x="5.096153846153847vw" y="2.493402769653332em" fill="#aaa"/><rect width="0.09615384615384616em" height="0.2139513753953018em" x="5.1923076923076925vw" y="2.7860486246046983em" fill="#aaa"/><rect width="0.09615384615384616em" height="0.7414486561215345em" x="5.288461538461538vw" y="2.2585513438784655em" fill="#aaa"/><rect width="0.09615384615384616em" height="0.32355736918642497em" x="5.384615384615385vw" y="2.676442630813575em" fill="#aaa"/><rect width="0.09615384615384616em" height="0.3951350509333612em" x="5.480769230769231vw" y="2.6048649490666387em" fill="#aaa"/><rect width="0.09615384615384616em" height="0.19760228839451693em" x="5.5769230769230775vw" y="2.802397711605483em" fill="#aaa"/><rect width="0.09615384615384616em" height="0.32486707142696447em" x="5.673076923076923vw" y="2.6751329285730354em" fill="#aaa"/><rect width="0.09615384615384616em" height="0.5659286079580542em" x="5.769230769230769vw" y="2.434071392041946em" fill="#aaa"/><rect width="0.09615384615384616em" height="0.6056034509040604em" x="5.865384615384616vw" y="2.39439654909594em" fill="#aaa"/><rect width="0.09615384615384616em" height="0.19882889595912484em" x="5.961538461538462vw" y="2.801171104040875em" fill="#aaa"/><rect width="0.09615384615384616em" height="0.8749685626194164em" x="6.057692307692308vw" y="2.1250314373805836em" fill="#aaa"/><rect width="0.09615384615384616em" height="0.48427221218607963em" x="6.153846153846154vw" y="2.5157277878139204em" fill="#aaa"/><rect width="0.09615384615384616em" height="1.0175639693053262em" x="6.25vw" y="1.9824360306946738em" fill="#aaa"/><rect width="0.09615384615384616em" height="0.5835550691163282em" x="6.346153846153847vw" y="2.4164449308836717em" fill="#aaa"/><rect width="0.09615384615384616em" height="1.6543676276357817em" x="6.4423076923076925vw" y="1.3456323723642183em" fill="#aaa"/><rect width="0.09615384615384616em" height="1.1997552252280994em" x="6.538461538461539vw" y="1.8002447747719006em" fill="#aaa"/><rect width="0.09615384615384616em" height="0.21630089226136057em" x="6.634615384615385vw" y="2.7836991077386393em" fill="#aaa"/><rect width="0.09615384615384616em" height="0.4357275365747273em" x="6.730769230769231vw" y="2.5642724634252727em" fill="#aaa"/><rect width="0.09615384615384616em" height="0.3651491227427541em" x="6.8269230769230775vw" y="2.634850877257246em" fill="#aaa"/><rect width="0.09615384615384616em" height="0.23627030743449112em" x="6.923076923076923vw" y="2.763729692565509em" fill="#aaa"/><rect width="0.09615384615384616em" height="0.30005933599390355em" x="7.01923076923077vw" y="2.6999406640060966em" fill="#aaa"/><rect width="0.09615384615384616em" height="0.9455180989410916em" x="7.115384615384616vw" y="2.0544819010589084em" fill="#aaa"/><rect width="0.09615384615384616em" height="0.17301224384769806em" x="7.211538461538462vw" y="2.826987756152302em" fill="#aaa"/><rect width="0.09615384615384616em" height="0.3747132817432387em" x="7.307692307692308vw" y="2.625286718256761em" fill="#aaa"/><rect width="0.09615384615384616em" height="0.339397542832926em" x="7.403846153846154vw" y="2.660602457167074em" fill="#aaa"/><rect width="0.09615384615384616em" height="0.28135114470120837em" x="7.5vw" y="2.7186488552987917em" fill="#aaa"/><rect width="0.09615384615384616em" height="0.29397187374995115em" x="7.596153846153847vw" y="2.706028126250049em" fill="#aaa"/><rect width="0.09615384615384616em" height="0.21825061812995em" x="7.6923076923076925vw" y="2.78174938187005em" fill="#aaa"/><rect width="0.09615384615384616em" height="0.5861064013548101em" x="7.788461538461539vw" y="2.41389359864519em" fill="#aaa"/><rect width="0.09615384615384616em" height="0.9178839549979578em" x="7.884615384615385vw" y="2.082116045002042em" fill="#aaa"/><rect width="0.09615384615384616em" height="0.49230221067800695em" x="7.980769230769231vw" y="2.507697789321993em" fill="#aaa"/><rect width="0.09615384615384616em" height="0.601106231242172em" x="8.076923076923077vw" y="2.3988937687578282em" fill="#aaa"/><rect width="0.09615384615384616em" height="0.35041303184135464em" x="8.173076923076923vw" y="2.6495869681586455em" fill="#aaa"/><rect width="0.09615384615384616em" height="0.8435185994195539em" x="8.26923076923077vw" y="2.156481400580446em" fill="#aaa"/><rect width="0.09615384615384616em" height="0.47066503536303755em" x="8.365384615384615vw" y="2.5293349646369623em" fill="#aaa"/><rect width="0.09615384615384616em" height="0.49280686560515063em" x="8.461538461538462vw" y="2.5071931343948495em" fill="#aaa"/><rect width="0.09615384615384616em" height="0.7597783288738373em" x="8.557692307692308vw" y="2.2402216711261627em" fill="#aaa"/><rect width="0.09615384615384616em" height="0.576037902265608em" x="8.653846153846155vw" y="2.423962097734392em" fill="#aaa"/><rect width="0.09615384615384616em" height="0.553307965439979em" x="8.75vw" y="2.446692034560021em" fill="#aaa"/><rect width="0.09615384615384616em" height="0.6811386122168246em" x="8.846153846153847vw" y="2.3188613877831754em" fill="#aaa"/><rect width="0.09615384615384616em" height="1.3364606360264255em" x="8.942307692307693vw" y="1.6635393639735745em" fill="#aaa"/><rect width="0.09615384615384616em" height="0.5070268973486288em" x="9.038461538461538vw" y="2.492973102651371em" fill="#aaa"/><rect width="0.09615384615384616em" height="1.3131844360635645em" x="9.134615384615385vw" y="1.6868155639364355em" fill="#aaa"/><rect width="0.09615384615384616em" height="3em" x="9.230769230769232vw" y="0em" fill="#aaa"/><rect width="0.09615384615384616em" height="1.4221750842518595em" x="9.326923076923077vw" y="1.5778249157481405em" fill="#aaa"/><rect width="0.09615384615384616em" height="2.3816336852570004em" x="9.423076923076923vw" y="0.6183663147429996em" fill="#aaa"/><rect width="0.09615384615384616em" height="2.565711277459238em" x="9.51923076923077vw" y="0.4342887225407619em" fill="#aaa"/><rect width="0.09615384615384616em" height="0.9456025713723845em" x="9.615384615384617vw" y="2.0543974286276154em" fill="#aaa"/><rect width="0.09615384615384616em" height="0.7175526556706625em" x="9.711538461538462vw" y="2.2824473443293374em" fill="#aaa"/><rect width="0.09615384615384616em" height="0.7435910172522653em" x="9.807692307692308vw" y="2.2564089827477347em" fill="#aaa"/><rect width="0.09615384615384616em" height="0.732124476613619em" x="9.903846153846155vw" y="2.267875523386381em" fill="#aaa"/></svg>