<?xml version="1.0" standalone="no"?>
<svg xmlns:xlink="http://www.w3.org/1999/xlink" xmlns="http://www.w3.org/2000/svg" class="topic-graph" style="width: 10vw; height: 3em; text-align: center;"><rect width="0.09615384615384616em" height="0.0397534591400789em" x="0vw" y="2.960246540859921em" fill="#aaa"/><rect width="0.09615384615384616em" height="2.575646758639147em" x="0.09615384615384616vw" y="0.42435324136085306em" fill="#aaa"/><rect width="0.09615384615384616em" height="0.2747271460203563em" x="0.19230769230769232vw" y="2.725272853979644em" fill="#aaa"/><rect width="0.09615384615384616em" height="0.1656026901813385em" x="0.2884615384615385vw" y="2.8343973098186614em" fill="#aaa"/><rect width="0.09615384615384616em" height="0.45849893745003734em" x="0.38461538461538464vw" y="2.5415010625499628em" fill="#aaa"/><rect width="0.09615384615384616em" height="0.24796452901767896em" x="0.4807692307692308vw" y="2.752035470982321em" fill="#aaa"/><rect width="0.09615384615384616em" height="0.06886322322177842em" x="0.576923076923077vw" y="2.9311367767782217em" fill="#aaa"/><rect width="0.09615384615384616em" height="0.07921767329561889em" x="0.6730769230769231vw" y="2.9207823267043813em" fill="#aaa"/><rect width="0.09615384615384616em" height="0.28165335005914116em" x="0.7692307692307693vw" y="2.718346649940859em" fill="#aaa"/><rect width="0.09615384615384616em" height="0.06472092562981759em" x="0.8653846153846154vw" y="2.9352790743701824em" fill="#aaa"/><rect width="0.09615384615384616em" height="0.04409962803497824em" x="0.9615384615384616vw" y="2.9559003719650216em" fill="#aaa"/><rect width="0.09615384615384616em" height="0.31701626805965843em" x="1.0576923076923077vw" y="2.6829837319403413em" fill="#aaa"/><rect width="0.09615384615384616em" height="0.262041944191617em" x="1.153846153846154vw" y="2.737958055808383em" fill="#aaa"/><rect width="0.09615384615384616em" height="0.2991674053055017em" x="1.25vw" y="2.700832594694498em" fill="#aaa"/><rect width="0.09615384615384616em" height="0.044419799166746265em" x="1.3461538461538463vw" y="2.955580200833254em" fill="#aaa"/><rect width="0.09615384615384616em" height="0.21968000261020237em" x="1.4423076923076923vw" y="2.780319997389798em" fill="#aaa"/><rect width="0.09615384615384616em" height="0.037682142387617495em" x="1.5384615384615385vw" y="2.9623178576123825em" fill="#aaa"/><rect width="0.09615384615384616em" height="0.1341374266859858em" x="1.6346153846153848vw" y="2.8658625733140144em" fill="#aaa"/><rect width="0.09615384615384616em" height="0.2149963050576797em" x="1.7307692307692308vw" y="2.7850036949423203em" fill="#aaa"/><rect width="0.09615384615384616em" height="0.18208909537824478em" x="1.826923076923077vw" y="2.817910904621755em" fill="#aaa"/><rect width="0.09615384615384616em" height="0.6059744383174093em" x="1.9230769230769231vw" y="2.3940255616825907em" fill="#aaa"/><rect width="0.09615384615384616em" height="0.9002905200552149em" x="2.019230769230769vw" y="2.099709479944785em" fill="#aaa"/><rect width="0.09615384615384616em" height="0.17535030909987967em" x="2.1153846153846154vw" y="2.82464969090012em" fill="#aaa"/><rect width="0.09615384615384616em" height="0.7931548821009473em" x="2.2115384615384617vw" y="2.2068451178990527em" fill="#aaa"/><rect width="0.09615384615384616em" height="0.07171207352222576em" x="2.307692307692308vw" y="2.928287926477774em" fill="#aaa"/><rect width="0.09615384615384616em" height="0.3009186528533779em" x="2.403846153846154vw" y="2.699081347146622em" fill="#aaa"/><rect width="0.09615384615384616em" height="0.12630652750688945em" x="2.5vw" y="2.8736934724931107em" fill="#aaa"/><rect width="0.09615384615384616em" height="0.15386796276204673em" x="2.5961538461538463vw" y="2.846132037237953em" fill="#aaa"/><rect width="0.09615384615384616em" height="0.2062868668281688em" x="2.6923076923076925vw" y="2.7937131331718312em" fill="#aaa"/><rect width="0.09615384615384616em" height="0.5200573045746356em" x="2.7884615384615388vw" y="2.4799426954253643em" fill="#aaa"/><rect width="0.09615384615384616em" height="0.06642035433431615em" x="2.8846153846153846vw" y="2.933579645665684em" fill="#aaa"/><rect width="0.09615384615384616em" height="0.7938984928963404em" x="2.980769230769231vw" y="2.20610150710366em" fill="#aaa"/><rect width="0.09615384615384616em" height="0.5099582701296418em" x="3.076923076923077vw" y="2.490041729870358em" fill="#aaa"/><rect width="0.09615384615384616em" height="0.7672019058852844em" x="3.1730769230769234vw" y="2.232798094114716em" fill="#aaa"/><rect width="0.09615384615384616em" height="0.5124081953598375em" x="3.2692307692307696vw" y="2.4875918046401626em" fill="#aaa"/><rect width="0.09615384615384616em" height="0.20441070974611947em" x="3.3653846153846154vw" y="2.7955892902538806em" fill="#aaa"/><rect width="0.09615384615384616em" height="0.17025341755475681em" x="3.4615384615384617vw" y="2.8297465824452432em" fill="#aaa"/><rect width="0.09615384615384616em" height="0.6618460470231743em" x="3.557692307692308vw" y="2.3381539529768256em" fill="#aaa"/><rect width="0.09615384615384616em" height="0.4285240669419433em" x="3.653846153846154vw" y="2.5714759330580566em" fill="#aaa"/><rect width="0.09615384615384616em" height="0.33876592558906876em" x="3.75vw" y="2.661234074410931em" fill="#aaa"/><rect width="0.09615384615384616em" height="0.5332035695552163em" x="3.8461538461538463vw" y="2.466796430444784em" fill="#aaa"/><rect width="0.09615384615384616em" height="0.2335728480511837em" x="3.9423076923076925vw" y="2.7664271519488164em" fill="#aaa"/><rect width="0.09615384615384616em" height="0.1844195669943486em" x="4.038461538461538vw" y="2.8155804330056515em" fill="#aaa"/><rect width="0.09615384615384616em" height="0.27189119456857547em" x="4.134615384615385vw" y="2.7281088054314244em" fill="#aaa"/><rect width="0.09615384615384616em" height="0.15783218930945164em" x="4.230769230769231vw" y="2.8421678106905484em" fill="#aaa"/><rect width="0.09615384615384616em" height="0.27618868567546806em" x="4.3269230769230775vw" y="2.723811314324532em" fill="#aaa"/><rect width="0.09615384615384616em" height="0.5281452917206495em" x="4.423076923076923vw" y="2.4718547082793503em" fill="#aaa"/><rect width="0.09615384615384616em" height="0.49391978696384353em" x="4.519230769230769vw" y="2.5060802130361566em" fill="#aaa"/><rect width="0.09615384615384616em" height="0.09649587698038053em" x="4.615384615384616vw" y="2.9035041230196192em" fill="#aaa"/><rect width="0.09615384615384616em" height="0.1632087784333255em" x="4.711538461538462vw" y="2.8367912215666746em" fill="#aaa"/><rect width="0.09615384615384616em" height="0.7568819142882399em" x="4.807692307692308vw" y="2.2431180857117603em" fill="#aaa"/><rect width="0.09615384615384616em" height="0.0855637312364541em" x="4.903846153846154vw" y="2.914436268763546em" fill="#aaa"/><rect width="0.09615384615384616em" height="0.2992081640518909em" x="5vw" y="2.700791835948109em" fill="#aaa"/><rect width="0.09615384615384616em" height="0.31021816204106867em" x="5.096153846153847vw" y="2.6897818379589316em" fill="#aaa"/><rect width="0.09615384615384616em" height="0.30818138928519523em" x="5.1923076923076925vw" y="2.6918186107148045em" fill="#aaa"/><rect width="0.09615384615384616em" height="0.40916925298835227em" x="5.288461538461538vw" y="2.5908307470116476em" fill="#aaa"/><rect width="0.09615384615384616em" height="1.222701947062882em" x="5.384615384615385vw" y="1.777298052937118em" fill="#aaa"/><rect width="0.09615384615384616em" height="0.8920544472646189em" x="5.480769230769231vw" y="2.107945552735381em" fill="#aaa"/><rect width="0.09615384615384616em" height="1.771972318745647em" x="5.5769230769230775vw" y="1.228027681254353em" fill="#aaa"/><rect width="0.09615384615384616em" height="0.546706334352148em" x="5.673076923076923vw" y="2.453293665647852em" fill="#aaa"/><rect width="0.09615384615384616em" height="0.766132904418354em" x="5.769230769230769vw" y="2.2338670955816458em" fill="#aaa"/><rect width="0.09615384615384616em" height="1.3585768462020589em" x="5.865384615384616vw" y="1.6414231537979411em" fill="#aaa"/><rect width="0.09615384615384616em" height="0.490329840070861em" x="5.961538461538462vw" y="2.509670159929139em" fill="#aaa"/><rect width="0.09615384615384616em" height="1.1020855249988546em" x="6.057692307692308vw" y="1.8979144750011454em" fill="#aaa"/><rect width="0.09615384615384616em" height="1.1736737181477213em" x="6.153846153846154vw" y="1.8263262818522787em" fill="#aaa"/><rect width="0.09615384615384616em" height="0.45408821841018754em" x="6.25vw" y="2.5459117815898127em" fill="#aaa"/><rect width="0.09615384615384616em" height="0.5369768585060639em" x="6.346153846153847vw" y="2.4630231414939363em" fill="#aaa"/><rect width="0.09615384615384616em" height="0.48847909826732683em" x="6.4423076923076925vw" y="2.5115209017326734em" fill="#aaa"/><rect width="0.09615384615384616em" height="0.6437915857429728em" x="6.538461538461539vw" y="2.3562084142570274em" fill="#aaa"/><rect width="0.09615384615384616em" height="0.815832741766199em" x="6.634615384615385vw" y="2.184167258233801em" fill="#aaa"/><rect width="0.09615384615384616em" height="0.8018154645448223em" x="6.730769230769231vw" y="2.1981845354551774em" fill="#aaa"/><rect width="0.09615384615384616em" height="1.0618042453365868em" x="6.8269230769230775vw" y="1.9381957546634132em" fill="#aaa"/><rect width="0.09615384615384616em" height="0.38411245378049835em" x="6.923076923076923vw" y="2.6158875462195015em" fill="#aaa"/><rect width="0.09615384615384616em" height="0.7116454117378268em" x="7.01923076923077vw" y="2.288354588262173em" fill="#aaa"/><rect width="0.09615384615384616em" height="0.6254995025266502em" x="7.115384615384616vw" y="2.37450049747335em" fill="#aaa"/><rect width="0.09615384615384616em" height="1.2427941789689623em" x="7.211538461538462vw" y="1.7572058210310377em" fill="#aaa"/><rect width="0.09615384615384616em" height="1.0431960629218058em" x="7.307692307692308vw" y="1.9568039370781942em" fill="#aaa"/><rect width="0.09615384615384616em" height="0.6799803686399075em" x="7.403846153846154vw" y="2.3200196313600925em" fill="#aaa"/><rect width="0.09615384615384616em" height="0.7956544156240748em" x="7.5vw" y="2.2043455843759254em" fill="#aaa"/><rect width="0.09615384615384616em" height="1.2522977526973997em" x="7.596153846153847vw" y="1.7477022473026003em" fill="#aaa"/><rect width="0.09615384615384616em" height="2.1248008962535483em" x="7.6923076923076925vw" y="0.8751991037464517em" fill="#aaa"/><rect width="0.09615384615384616em" height="2.734119707872148em" x="7.788461538461539vw" y="0.2658802921278518em" fill="#aaa"/><rect width="0.09615384615384616em" height="2.078219716361637em" x="7.884615384615385vw" y="0.9217802836383631em" fill="#aaa"/><rect width="0.09615384615384616em" height="1.6721928129676098em" x="7.980769230769231vw" y="1.3278071870323902em" fill="#aaa"/><rect width="0.09615384615384616em" height="1.6858126405237437em" x="8.076923076923077vw" y="1.3141873594762563em" fill="#aaa"/><rect width="0.09615384615384616em" height="1.666460085301893em" x="8.173076923076923vw" y="1.333539914698107em" fill="#aaa"/><rect width="0.09615384615384616em" height="1.6264327827638438em" x="8.26923076923077vw" y="1.3735672172361562em" fill="#aaa"/><rect width="0.09615384615384616em" height="2.795314936065763em" x="8.365384615384615vw" y="0.20468506393423702em" fill="#aaa"/><rect width="0.09615384615384616em" height="3em" x="8.461538461538462vw" y="0em" fill="#aaa"/><rect width="0.09615384615384616em" height="2.553668631701575em" x="8.557692307692308vw" y="0.4463313682984249em" fill="#aaa"/><rect width="0.09615384615384616em" height="2.3829203121814317em" x="8.653846153846155vw" y="0.6170796878185683em" fill="#aaa"/><rect width="0.09615384615384616em" height="1.3544126991112444em" x="8.75vw" y="1.6455873008887556em" fill="#aaa"/><rect width="0.09615384615384616em" height="2.8844367887272204em" x="8.846153846153847vw" y="0.11556321127277958em" fill="#aaa"/><rect width="0.09615384615384616em" height="2.342461884503105em" x="8.942307692307693vw" y="0.6575381154968949em" fill="#aaa"/><rect width="0.09615384615384616em" height="2.140155102923444em" x="9.038461538461538vw" y="0.859844897076556em" fill="#aaa"/><rect width="0.09615384615384616em" height="1.7567387647355992em" x="9.134615384615385vw" y="1.2432612352644008em" fill="#aaa"/><rect width="0.09615384615384616em" height="1.618163307023062em" x="9.230769230769232vw" y="1.381836692976938em" fill="#aaa"/><rect width="0.09615384615384616em" height="1.7154903979341007em" x="9.326923076923077vw" y="1.2845096020658993em" fill="#aaa"/><rect width="0.09615384615384616em" height="1.6426316533579914em" x="9.423076923076923vw" y="1.3573683466420086em" fill="#aaa"/><rect width="0.09615384615384616em" height="1.811244983221107em" x="9.51923076923077vw" y="1.188755016778893em" fill="#aaa"/><rect width="0.09615384615384616em" height="2.645683066925013em" x="9.615384615384617vw" y="0.3543169330749869em" fill="#aaa"/><rect width="0.09615384615384616em" height="1.9087416623693336em" x="9.711538461538462vw" y="1.0912583376306664em" fill="#aaa"/><rect width="0.09615384615384616em" height="2.8284918135836374em" x="9.807692307692308vw" y="0.17150818641636256em" fill="#aaa"/><rect width="0.09615384615384616em" height="1.7740721681130296em" x="9.903846153846155vw" y="1.2259278318869704em" fill="#aaa"/></svg>