<?xml version="1.0" standalone="no"?>
<svg xmlns:xlink="http://www.w3.org/1999/xlink" xmlns="http://www.w3.org/2000/svg" class="topic-graph" style="width: 10vw; height: 3em; text-align: center;"><rect width="0.09615384615384616em" height="0.007648937481939252em" x="0vw" y="2.9923510625180607em" fill="#aaa"/><rect width="0.09615384615384616em" height="0.13617527010486682em" x="0.09615384615384616vw" y="2.8638247298951334em" fill="#aaa"/><rect width="0.09615384615384616em" height="0.005363274407028672em" x="0.19230769230769232vw" y="2.9946367255929713em" fill="#aaa"/><rect width="0.09615384615384616em" height="0.05877547645173465em" x="0.2884615384615385vw" y="2.9412245235482652em" fill="#aaa"/><rect width="0.09615384615384616em" height="0.012599457739176406em" x="0.38461538461538464vw" y="2.9874005422608234em" fill="#aaa"/><rect width="0.09615384615384616em" height="0.015354110791554345em" x="0.4807692307692308vw" y="2.9846458892084455em" fill="#aaa"/><rect width="0.09615384615384616em" height="0.09521493109691478em" x="0.576923076923077vw" y="2.9047850689030854em" fill="#aaa"/><rect width="0.09615384615384616em" height="0.02803232214187109em" x="0.6730769230769231vw" y="2.971967677858129em" fill="#aaa"/><rect width="0.09615384615384616em" height="0.016074258619207513em" x="0.7692307692307693vw" y="2.9839257413807925em" fill="#aaa"/><rect width="0.09615384615384616em" height="0.015214639614213007em" x="0.8653846153846154vw" y="2.984785360385787em" fill="#aaa"/><rect width="0.09615384615384616em" height="0.0464510456984318em" x="0.9615384615384616vw" y="2.953548954301568em" fill="#aaa"/><rect width="0.09615384615384616em" height="0.034947188978615096em" x="1.0576923076923077vw" y="2.9650528110213847em" fill="#aaa"/><rect width="0.09615384615384616em" height="0.017789481331949304em" x="1.153846153846154vw" y="2.9822105186680505em" fill="#aaa"/><rect width="0.09615384615384616em" height="0.020233279568070382em" x="1.25vw" y="2.97976672043193em" fill="#aaa"/><rect width="0.09615384615384616em" height="0.006600200844743937em" x="1.3461538461538463vw" y="2.993399799155256em" fill="#aaa"/><rect width="0.09615384615384616em" height="0.016355503574275468em" x="1.4423076923076923vw" y="2.9836444964257245em" fill="#aaa"/><rect width="0.09615384615384616em" height="0.021469831909740045em" x="1.5384615384615385vw" y="2.97853016809026em" fill="#aaa"/><rect width="0.09615384615384616em" height="0.01667590410820251em" x="1.6346153846153848vw" y="2.9833240958917977em" fill="#aaa"/><rect width="0.09615384615384616em" height="0.053513813432868554em" x="1.7307692307692308vw" y="2.9464861865671312em" fill="#aaa"/><rect width="0.09615384615384616em" height="0.027932687723596118em" x="1.826923076923077vw" y="2.972067312276404em" fill="#aaa"/><rect width="0.09615384615384616em" height="0.06211822287097994em" x="1.9230769230769231vw" y="2.93788177712902em" fill="#aaa"/><rect width="0.09615384615384616em" height="0.055635686270012724em" x="2.019230769230769vw" y="2.944364313729987em" fill="#aaa"/><rect width="0.09615384615384616em" height="0.05199229912674609em" x="2.1153846153846154vw" y="2.9480077008732537em" fill="#aaa"/><rect width="0.09615384615384616em" height="0.029570365798339625em" x="2.2115384615384617vw" y="2.9704296342016603em" fill="#aaa"/><rect width="0.09615384615384616em" height="0.14555020876270044em" x="2.307692307692308vw" y="2.8544497912372995em" fill="#aaa"/><rect width="0.09615384615384616em" height="0.05389773235438852em" x="2.403846153846154vw" y="2.9461022676456117em" fill="#aaa"/><rect width="0.09615384615384616em" height="0.024626983833773798em" x="2.5vw" y="2.9753730161662264em" fill="#aaa"/><rect width="0.09615384615384616em" height="0.03551202205272423em" x="2.5961538461538463vw" y="2.9644879779472757em" fill="#aaa"/><rect width="0.09615384615384616em" height="0.061554306729089986em" x="2.6923076923076925vw" y="2.93844569327091em" fill="#aaa"/><rect width="0.09615384615384616em" height="0.051432942653379624em" x="2.7884615384615388vw" y="2.9485670573466205em" fill="#aaa"/><rect width="0.09615384615384616em" height="0.0715694597013083em" x="2.8846153846153846vw" y="2.9284305402986917em" fill="#aaa"/><rect width="0.09615384615384616em" height="0.034483844892011443em" x="2.980769230769231vw" y="2.9655161551079887em" fill="#aaa"/><rect width="0.09615384615384616em" height="0.06143393547000591em" x="3.076923076923077vw" y="2.938566064529994em" fill="#aaa"/><rect width="0.09615384615384616em" height="0.04373334295968383em" x="3.1730769230769234vw" y="2.956266657040316em" fill="#aaa"/><rect width="0.09615384615384616em" height="0.0427875092533264em" x="3.2692307692307696vw" y="2.9572124907466737em" fill="#aaa"/><rect width="0.09615384615384616em" height="0.03258827686157828em" x="3.3653846153846154vw" y="2.967411723138422em" fill="#aaa"/><rect width="0.09615384615384616em" height="0.030491017785448937em" x="3.4615384615384617vw" y="2.969508982214551em" fill="#aaa"/><rect width="0.09615384615384616em" height="0.13436938635624363em" x="3.557692307692308vw" y="2.8656306136437566em" fill="#aaa"/><rect width="0.09615384615384616em" height="0.048930597868862946em" x="3.653846153846154vw" y="2.951069402131137em" fill="#aaa"/><rect width="0.09615384615384616em" height="0.025784176506744007em" x="3.75vw" y="2.974215823493256em" fill="#aaa"/><rect width="0.09615384615384616em" height="0.04035566835762025em" x="3.8461538461538463vw" y="2.9596443316423797em" fill="#aaa"/><rect width="0.09615384615384616em" height="0.04208655219039753em" x="3.9423076923076925vw" y="2.9579134478096023em" fill="#aaa"/><rect width="0.09615384615384616em" height="0.028226941786875234em" x="4.038461538461538vw" y="2.9717730582131248em" fill="#aaa"/><rect width="0.09615384615384616em" height="0.09923088291119662em" x="4.134615384615385vw" y="2.9007691170888035em" fill="#aaa"/><rect width="0.09615384615384616em" height="0.08258274438038679em" x="4.230769230769231vw" y="2.9174172556196134em" fill="#aaa"/><rect width="0.09615384615384616em" height="0.08378959852828897em" x="4.3269230769230775vw" y="2.916210401471711em" fill="#aaa"/><rect width="0.09615384615384616em" height="0.09030791813444002em" x="4.423076923076923vw" y="2.90969208186556em" fill="#aaa"/><rect width="0.09615384615384616em" height="0.03094947128019728em" x="4.519230769230769vw" y="2.969050528719803em" fill="#aaa"/><rect width="0.09615384615384616em" height="0.034491556859368645em" x="4.615384615384616vw" y="2.9655084431406316em" fill="#aaa"/><rect width="0.09615384615384616em" height="0.051195735593249844em" x="4.711538461538462vw" y="2.9488042644067503em" fill="#aaa"/><rect width="0.09615384615384616em" height="0.02399910283716097em" x="4.807692307692308vw" y="2.976000897162839em" fill="#aaa"/><rect width="0.09615384615384616em" height="0.040248552887961225em" x="4.903846153846154vw" y="2.9597514471120387em" fill="#aaa"/><rect width="0.09615384615384616em" height="0.09662628634341597em" x="5vw" y="2.903373713656584em" fill="#aaa"/><rect width="0.09615384615384616em" height="0.040770374422089195em" x="5.096153846153847vw" y="2.959229625577911em" fill="#aaa"/><rect width="0.09615384615384616em" height="0.03913217915579036em" x="5.1923076923076925vw" y="2.96086782084421em" fill="#aaa"/><rect width="0.09615384615384616em" height="0.04400563794784233em" x="5.288461538461538vw" y="2.9559943620521576em" fill="#aaa"/><rect width="0.09615384615384616em" height="0.02981687676448437em" x="5.384615384615385vw" y="2.9701831232355156em" fill="#aaa"/><rect width="0.09615384615384616em" height="0.03075554641215831em" x="5.480769230769231vw" y="2.9692444535878417em" fill="#aaa"/><rect width="0.09615384615384616em" height="0.0514122914096041em" x="5.5769230769230775vw" y="2.948587708590396em" fill="#aaa"/><rect width="0.09615384615384616em" height="0.1016853441112698em" x="5.673076923076923vw" y="2.89831465588873em" fill="#aaa"/><rect width="0.09615384615384616em" height="0.11157795436047163em" x="5.769230769230769vw" y="2.8884220456395284em" fill="#aaa"/><rect width="0.09615384615384616em" height="3em" x="5.865384615384616vw" y="0em" fill="#aaa"/><rect width="0.09615384615384616em" height="0.960462183345802em" x="5.961538461538462vw" y="2.0395378166541978em" fill="#aaa"/><rect width="0.09615384615384616em" height="0.6043059370380132em" x="6.057692307692308vw" y="2.395694062961987em" fill="#aaa"/><rect width="0.09615384615384616em" height="0.683424198865101em" x="6.153846153846154vw" y="2.316575801134899em" fill="#aaa"/><rect width="0.09615384615384616em" height="0.1812743084941916em" x="6.25vw" y="2.8187256915058083em" fill="#aaa"/><rect width="0.09615384615384616em" height="0.3486067069543884em" x="6.346153846153847vw" y="2.6513932930456114em" fill="#aaa"/><rect width="0.09615384615384616em" height="0.40002938778797753em" x="6.4423076923076925vw" y="2.5999706122120223em" fill="#aaa"/><rect width="0.09615384615384616em" height="0.11976422577809694em" x="6.538461538461539vw" y="2.880235774221903em" fill="#aaa"/><rect width="0.09615384615384616em" height="0.49240446317018766em" x="6.634615384615385vw" y="2.5075955368298124em" fill="#aaa"/><rect width="0.09615384615384616em" height="0.16085557861846156em" x="6.730769230769231vw" y="2.8391444213815387em" fill="#aaa"/><rect width="0.09615384615384616em" height="0.22548711199501514em" x="6.8269230769230775vw" y="2.7745128880049847em" fill="#aaa"/><rect width="0.09615384615384616em" height="0.7621607486106521em" x="6.923076923076923vw" y="2.2378392513893477em" fill="#aaa"/><rect width="0.09615384615384616em" height="0.7437271750735744em" x="7.01923076923077vw" y="2.2562728249264254em" fill="#aaa"/><rect width="0.09615384615384616em" height="0.35589057084707215em" x="7.115384615384616vw" y="2.6441094291529277em" fill="#aaa"/><rect width="0.09615384615384616em" height="0.2554075488520974em" x="7.211538461538462vw" y="2.7445924511479025em" fill="#aaa"/><rect width="0.09615384615384616em" height="0.4643187199042987em" x="7.307692307692308vw" y="2.535681280095701em" fill="#aaa"/><rect width="0.09615384615384616em" height="0.35829004031367345em" x="7.403846153846154vw" y="2.6417099596863265em" fill="#aaa"/><rect width="0.09615384615384616em" height="0.44718653831832933em" x="7.5vw" y="2.5528134616816707em" fill="#aaa"/><rect width="0.09615384615384616em" height="0.5230178233451405em" x="7.596153846153847vw" y="2.4769821766548596em" fill="#aaa"/><rect width="0.09615384615384616em" height="0.44301271147571203em" x="7.6923076923076925vw" y="2.556987288524288em" fill="#aaa"/><rect width="0.09615384615384616em" height="0.24730731581522225em" x="7.788461538461539vw" y="2.752692684184778em" fill="#aaa"/><rect width="0.09615384615384616em" height="0.2612849062704232em" x="7.884615384615385vw" y="2.738715093729577em" fill="#aaa"/><rect width="0.09615384615384616em" height="0.1751680667415378em" x="7.980769230769231vw" y="2.824831933258462em" fill="#aaa"/><rect width="0.09615384615384616em" height="0.37719400569628625em" x="8.076923076923077vw" y="2.6228059943037136em" fill="#aaa"/><rect width="0.09615384615384616em" height="0.36590202745188727em" x="8.173076923076923vw" y="2.634097972548113em" fill="#aaa"/><rect width="0.09615384615384616em" height="0.24768538678084795em" x="8.26923076923077vw" y="2.752314613219152em" fill="#aaa"/><rect width="0.09615384615384616em" height="0.5824304168212266em" x="8.365384615384615vw" y="2.417569583178773em" fill="#aaa"/><rect width="0.09615384615384616em" height="0.3488007008077041em" x="8.461538461538462vw" y="2.651199299192296em" fill="#aaa"/><rect width="0.09615384615384616em" height="0.49695516057200273em" x="8.557692307692308vw" y="2.5030448394279974em" fill="#aaa"/><rect width="0.09615384615384616em" height="0.4279728339656229em" x="8.653846153846155vw" y="2.572027166034377em" fill="#aaa"/><rect width="0.09615384615384616em" height="0.3691191152851325em" x="8.75vw" y="2.6308808847148675em" fill="#aaa"/><rect width="0.09615384615384616em" height="0.24856328207227205em" x="8.846153846153847vw" y="2.751436717927728em" fill="#aaa"/><rect width="0.09615384615384616em" height="0.27838914133732784em" x="8.942307692307693vw" y="2.721610858662672em" fill="#aaa"/><rect width="0.09615384615384616em" height="0.23686115201289032em" x="9.038461538461538vw" y="2.7631388479871095em" fill="#aaa"/><rect width="0.09615384615384616em" height="0.4301460234680433em" x="9.134615384615385vw" y="2.569853976531957em" fill="#aaa"/><rect width="0.09615384615384616em" height="0.3243677969749991em" x="9.230769230769232vw" y="2.675632203025001em" fill="#aaa"/><rect width="0.09615384615384616em" height="0.26851344488595114em" x="9.326923076923077vw" y="2.731486555114049em" fill="#aaa"/><rect width="0.09615384615384616em" height="0.25854237913351813em" x="9.423076923076923vw" y="2.741457620866482em" fill="#aaa"/><rect width="0.09615384615384616em" height="0.17574717218479619em" x="9.51923076923077vw" y="2.824252827815204em" fill="#aaa"/><rect width="0.09615384615384616em" height="0.26825557790951277em" x="9.615384615384617vw" y="2.7317444220904874em" fill="#aaa"/><rect width="0.09615384615384616em" height="0.28342142548297977em" x="9.711538461538462vw" y="2.7165785745170203em" fill="#aaa"/><rect width="0.09615384615384616em" height="0.2689271605212598em" x="9.807692307692308vw" y="2.73107283947874em" fill="#aaa"/><rect width="0.09615384615384616em" height="0.6286406389770544em" x="9.903846153846155vw" y="2.3713593610229458em" fill="#aaa"/></svg>