<?xml version="1.0" standalone="no"?>
<svg xmlns:xlink="http://www.w3.org/1999/xlink" xmlns="http://www.w3.org/2000/svg" class="topic-graph" style="width: 100em; height: 30em; text-align: center;"><rect width="0.9615384615384616em" height="0.4415221534152358em" x="0em" y="29.558477846584765em" fill="#aaa"/><rect width="0.9615384615384616em" height="8.240801091884219em" x="0.9615384615384616em" y="21.75919890811578em" fill="#aaa"/><rect width="0.9615384615384616em" height="1.15980811574836em" x="1.9230769230769231em" y="28.84019188425164em" fill="#aaa"/><rect width="0.9615384615384616em" height="1.1920505665841863em" x="2.8846153846153846em" y="28.807949433415814em" fill="#aaa"/><rect width="0.9615384615384616em" height="1.12892051285021em" x="3.8461538461538463em" y="28.87107948714979em" fill="#aaa"/><rect width="0.9615384615384616em" height="0.36606098243039153em" x="4.8076923076923075em" y="29.63393901756961em" fill="#aaa"/><rect width="0.9615384615384616em" height="0.5930491867985576em" x="5.769230769230769em" y="29.406950813201444em" fill="#aaa"/><rect width="0.9615384615384616em" height="0.23701716508905674em" x="6.730769230769231em" y="29.762982834910943em" fill="#aaa"/><rect width="0.9615384615384616em" height="3.436271144361119em" x="7.6923076923076925em" y="26.56372885563888em" fill="#aaa"/><rect width="0.9615384615384616em" height="1.1694391125846575em" x="8.653846153846153em" y="28.83056088741534em" fill="#aaa"/><rect width="0.9615384615384616em" height="0.4897929175472466em" x="9.615384615384615em" y="29.510207082452755em" fill="#aaa"/><rect width="0.9615384615384616em" height="0.534701953519296em" x="10.576923076923077em" y="29.465298046480704em" fill="#aaa"/><rect width="0.9615384615384616em" height="2.678483862750892em" x="11.538461538461538em" y="27.32151613724911em" fill="#aaa"/><rect width="0.9615384615384616em" height="0.5767199453381826em" x="12.5em" y="29.423280054661817em" fill="#aaa"/><rect width="0.9615384615384616em" height="0.47132728568783633em" x="13.461538461538462em" y="29.528672714312165em" fill="#aaa"/><rect width="0.9615384615384616em" height="0.5937605077245713em" x="14.423076923076923em" y="29.40623949227543em" fill="#aaa"/><rect width="0.9615384615384616em" height="3.5794101953813144em" x="15.384615384615385em" y="26.420589804618686em" fill="#aaa"/><rect width="0.9615384615384616em" height="0.2193745309319914em" x="16.346153846153847em" y="29.78062546906801em" fill="#aaa"/><rect width="0.9615384615384616em" height="2.1735531780250987em" x="17.307692307692307em" y="27.8264468219749em" fill="#aaa"/><rect width="0.9615384615384616em" height="7.239531353605696em" x="18.26923076923077em" y="22.760468646394305em" fill="#aaa"/><rect width="0.9615384615384616em" height="0.5526423374030578em" x="19.23076923076923em" y="29.447357662596943em" fill="#aaa"/><rect width="0.9615384615384616em" height="3.5803300724599607em" x="20.192307692307693em" y="26.41966992754004em" fill="#aaa"/><rect width="0.9615384615384616em" height="2.018133960914332em" x="21.153846153846153em" y="27.981866039085666em" fill="#aaa"/><rect width="0.9615384615384616em" height="0.24833274074861766em" x="22.115384615384617em" y="29.75166725925138em" fill="#aaa"/><rect width="0.9615384615384616em" height="0.4133921904146988em" x="23.076923076923077em" y="29.586607809585303em" fill="#aaa"/><rect width="0.9615384615384616em" height="1.9325128177986832em" x="24.03846153846154em" y="28.067487182201315em" fill="#aaa"/><rect width="0.9615384615384616em" height="2.7298999595715956em" x="25em" y="27.270100040428403em" fill="#aaa"/><rect width="0.9615384615384616em" height="1.0810828052996946em" x="25.961538461538463em" y="28.918917194700306em" fill="#aaa"/><rect width="0.9615384615384616em" height="0.9617529253713585em" x="26.923076923076923em" y="29.038247074628643em" fill="#aaa"/><rect width="0.9615384615384616em" height="0.839290781942817em" x="27.884615384615387em" y="29.160709218057182em" fill="#aaa"/><rect width="0.9615384615384616em" height="1.109557005384501em" x="28.846153846153847em" y="28.890442994615498em" fill="#aaa"/><rect width="0.9615384615384616em" height="0.7889665241990013em" x="29.80769230769231em" y="29.211033475801em" fill="#aaa"/><rect width="0.9615384615384616em" height="0.9287851418021642em" x="30.76923076923077em" y="29.071214858197834em" fill="#aaa"/><rect width="0.9615384615384616em" height="0.7511739807308931em" x="31.73076923076923em" y="29.248826019269107em" fill="#aaa"/><rect width="0.9615384615384616em" height="0.3436637919637449em" x="32.69230769230769em" y="29.656336208036254em" fill="#aaa"/><rect width="0.9615384615384616em" height="0.7591763269789626em" x="33.65384615384615em" y="29.240823673021037em" fill="#aaa"/><rect width="0.9615384615384616em" height="4.106957360283427em" x="34.61538461538461em" y="25.893042639716572em" fill="#aaa"/><rect width="0.9615384615384616em" height="1.857189135501976em" x="35.57692307692308em" y="28.142810864498024em" fill="#aaa"/><rect width="0.9615384615384616em" height="1.3544771882480837em" x="36.53846153846154em" y="28.645522811751917em" fill="#aaa"/><rect width="0.9615384615384616em" height="2.388694179481em" x="37.5em" y="27.611305820519em" fill="#aaa"/><rect width="0.9615384615384616em" height="2.0999789538621263em" x="38.46153846153846em" y="27.900021046137873em" fill="#aaa"/><rect width="0.9615384615384616em" height="1.2223051855847413em" x="39.42307692307693em" y="28.77769481441526em" fill="#aaa"/><rect width="0.9615384615384616em" height="4.772893077155013em" x="40.38461538461539em" y="25.22710692284499em" fill="#aaa"/><rect width="0.9615384615384616em" height="3.1736641565438948em" x="41.34615384615385em" y="26.826335843456107em" fill="#aaa"/><rect width="0.9615384615384616em" height="1.5156027594506125em" x="42.30769230769231em" y="28.484397240549388em" fill="#aaa"/><rect width="0.9615384615384616em" height="3.933544940043893em" x="43.269230769230774em" y="26.066455059956105em" fill="#aaa"/><rect width="0.9615384615384616em" height="0.49142671273594246em" x="44.23076923076923em" y="29.508573287264056em" fill="#aaa"/><rect width="0.9615384615384616em" height="1.0664073175429865em" x="45.19230769230769em" y="28.933592682457014em" fill="#aaa"/><rect width="0.9615384615384616em" height="0.7144677279060703em" x="46.15384615384615em" y="29.28553227209393em" fill="#aaa"/><rect width="0.9615384615384616em" height="0.33431784836475675em" x="47.11538461538461em" y="29.66568215163524em" fill="#aaa"/><rect width="0.9615384615384616em" height="1.1107144683737948em" x="48.07692307692308em" y="28.889285531626204em" fill="#aaa"/><rect width="0.9615384615384616em" height="2.1525382650745963em" x="49.03846153846154em" y="27.847461734925403em" fill="#aaa"/><rect width="0.9615384615384616em" height="0.6723755804036935em" x="50em" y="29.327624419596308em" fill="#aaa"/><rect width="0.9615384615384616em" height="2.8944775893419292em" x="50.96153846153846em" y="27.10552241065807em" fill="#aaa"/><rect width="0.9615384615384616em" height="0.7271785174885179em" x="51.92307692307693em" y="29.272821482511482em" fill="#aaa"/><rect width="0.9615384615384616em" height="1.4583719801640793em" x="52.88461538461539em" y="28.54162801983592em" fill="#aaa"/><rect width="0.9615384615384616em" height="2.033897543664546em" x="53.84615384615385em" y="27.966102456335456em" fill="#aaa"/><rect width="0.9615384615384616em" height="1.0216905087667414em" x="54.80769230769231em" y="28.978309491233258em" fill="#aaa"/><rect width="0.9615384615384616em" height="1.5602590122674516em" x="55.769230769230774em" y="28.43974098773255em" fill="#aaa"/><rect width="0.9615384615384616em" height="1.4953203584567605em" x="56.73076923076923em" y="28.50467964154324em" fill="#aaa"/><rect width="0.9615384615384616em" height="1.3651420703105648em" x="57.69230769230769em" y="28.634857929689435em" fill="#aaa"/><rect width="0.9615384615384616em" height="1.185092467967065em" x="58.65384615384615em" y="28.814907532032937em" fill="#aaa"/><rect width="0.9615384615384616em" height="0.7476669119062656em" x="59.61538461538462em" y="29.252333088093735em" fill="#aaa"/><rect width="0.9615384615384616em" height="2.3235607626334724em" x="60.57692307692308em" y="27.676439237366527em" fill="#aaa"/><rect width="0.9615384615384616em" height="3.4092711292743867em" x="61.53846153846154em" y="26.590728870725613em" fill="#aaa"/><rect width="0.9615384615384616em" height="2.191978737848424em" x="62.5em" y="27.808021262151577em" fill="#aaa"/><rect width="0.9615384615384616em" height="1.9020291671818952em" x="63.46153846153846em" y="28.097970832818106em" fill="#aaa"/><rect width="0.9615384615384616em" height="1.356824084262358em" x="64.42307692307692em" y="28.643175915737643em" fill="#aaa"/><rect width="0.9615384615384616em" height="1.9940189755549684em" x="65.38461538461539em" y="28.00598102444503em" fill="#aaa"/><rect width="0.9615384615384616em" height="1.3483830578752303em" x="66.34615384615385em" y="28.651616942124768em" fill="#aaa"/><rect width="0.9615384615384616em" height="1.2474300301372203em" x="67.3076923076923em" y="28.75256996986278em" fill="#aaa"/><rect width="0.9615384615384616em" height="1.356132563581651em" x="68.26923076923077em" y="28.64386743641835em" fill="#aaa"/><rect width="0.9615384615384616em" height="1.0371858828380802em" x="69.23076923076923em" y="28.96281411716192em" fill="#aaa"/><rect width="0.9615384615384616em" height="1.6338034560633323em" x="70.1923076923077em" y="28.366196543936667em" fill="#aaa"/><rect width="0.9615384615384616em" height="1.407694027620407em" x="71.15384615384616em" y="28.59230597237959em" fill="#aaa"/><rect width="0.9615384615384616em" height="1.6767899915580553em" x="72.11538461538461em" y="28.323210008441944em" fill="#aaa"/><rect width="0.9615384615384616em" height="2.49704665419173em" x="73.07692307692308em" y="27.50295334580827em" fill="#aaa"/><rect width="0.9615384615384616em" height="4.5466085814570265em" x="74.03846153846155em" y="25.453391418542974em" fill="#aaa"/><rect width="0.9615384615384616em" height="9.560048483210199em" x="75em" y="20.4399515167898em" fill="#aaa"/><rect width="0.9615384615384616em" height="15.14011696540826em" x="75.96153846153847em" y="14.85988303459174em" fill="#aaa"/><rect width="0.9615384615384616em" height="7.19307783822047em" x="76.92307692307692em" y="22.806922161779532em" fill="#aaa"/><rect width="0.9615384615384616em" height="24.47572334606953em" x="77.88461538461539em" y="5.524276653930471em" fill="#aaa"/><rect width="0.9615384615384616em" height="16.196266158091326em" x="78.84615384615385em" y="13.803733841908674em" fill="#aaa"/><rect width="0.9615384615384616em" height="15.011597506765737em" x="79.8076923076923em" y="14.988402493234263em" fill="#aaa"/><rect width="0.9615384615384616em" height="7.977958572300874em" x="80.76923076923077em" y="22.022041427699126em" fill="#aaa"/><rect width="0.9615384615384616em" height="12.935486452617784em" x="81.73076923076923em" y="17.064513547382216em" fill="#aaa"/><rect width="0.9615384615384616em" height="12.949490740598685em" x="82.6923076923077em" y="17.050509259401316em" fill="#aaa"/><rect width="0.9615384615384616em" height="17.018193068111543em" x="83.65384615384616em" y="12.981806931888457em" fill="#aaa"/><rect width="0.9615384615384616em" height="26.136093858074034em" x="84.61538461538461em" y="3.863906141925966em" fill="#aaa"/><rect width="0.9615384615384616em" height="29.528536547359558em" x="85.57692307692308em" y="0.4714634526404424em" fill="#aaa"/><rect width="0.9615384615384616em" height="30em" x="86.53846153846155em" y="0em" fill="#aaa"/><rect width="0.9615384615384616em" height="10.875995754857058em" x="87.5em" y="19.12400424514294em" fill="#aaa"/><rect width="0.9615384615384616em" height="13.500752176656501em" x="88.46153846153847em" y="16.4992478233435em" fill="#aaa"/><rect width="0.9615384615384616em" height="6.412260485925238em" x="89.42307692307692em" y="23.587739514074762em" fill="#aaa"/><rect width="0.9615384615384616em" height="12.85812829609145em" x="90.38461538461539em" y="17.14187170390855em" fill="#aaa"/><rect width="0.9615384615384616em" height="12.942505333200726em" x="91.34615384615385em" y="17.057494666799272em" fill="#aaa"/><rect width="0.9615384615384616em" height="12.719403198582045em" x="92.3076923076923em" y="17.280596801417957em" fill="#aaa"/><rect width="0.9615384615384616em" height="19.688535221243672em" x="93.26923076923077em" y="10.311464778756328em" fill="#aaa"/><rect width="0.9615384615384616em" height="13.64593156610332em" x="94.23076923076923em" y="16.35406843389668em" fill="#aaa"/><rect width="0.9615384615384616em" height="10.150200461544857em" x="95.1923076923077em" y="19.849799538455144em" fill="#aaa"/><rect width="0.9615384615384616em" height="23.077740261421994em" x="96.15384615384616em" y="6.922259738578006em" fill="#aaa"/><rect width="0.9615384615384616em" height="13.668210823689561em" x="97.11538461538461em" y="16.331789176310437em" fill="#aaa"/><rect width="0.9615384615384616em" height="14.289895579254917em" x="98.07692307692308em" y="15.710104420745083em" fill="#aaa"/><rect width="0.9615384615384616em" height="12.823016143524868em" x="99.03846153846155em" y="17.176983856475132em" fill="#aaa"/></svg>