<?xml version="1.0" standalone="no"?>
<svg xmlns:xlink="http://www.w3.org/1999/xlink" xmlns="http://www.w3.org/2000/svg" class="topic-graph" style="width: 10vw; height: 3em; text-align: center;"><rect width="0.09615384615384616em" height="0.7762590419781619em" x="0vw" y="2.223740958021838em" fill="#aaa"/><rect width="0.09615384615384616em" height="0.4355509945443404em" x="0.09615384615384616vw" y="2.5644490054556597em" fill="#aaa"/><rect width="0.09615384615384616em" height="0.9614908755705683em" x="0.19230769230769232vw" y="2.0385091244294316em" fill="#aaa"/><rect width="0.09615384615384616em" height="1.4821654303806648em" x="0.2884615384615385vw" y="1.5178345696193352em" fill="#aaa"/><rect width="0.09615384615384616em" height="0.6644792577723161em" x="0.38461538461538464vw" y="2.335520742227684em" fill="#aaa"/><rect width="0.09615384615384616em" height="2.601486486519703em" x="0.4807692307692308vw" y="0.39851351348029684em" fill="#aaa"/><rect width="0.09615384615384616em" height="0.5756939003404545em" x="0.576923076923077vw" y="2.4243060996595456em" fill="#aaa"/><rect width="0.09615384615384616em" height="0.5033326642515213em" x="0.6730769230769231vw" y="2.4966673357484788em" fill="#aaa"/><rect width="0.09615384615384616em" height="0.88053286627342em" x="0.7692307692307693vw" y="2.1194671337265802em" fill="#aaa"/><rect width="0.09615384615384616em" height="2.000347350020136em" x="0.8653846153846154vw" y="0.9996526499798639em" fill="#aaa"/><rect width="0.09615384615384616em" height="1.990139108499386em" x="0.9615384615384616vw" y="1.009860891500614em" fill="#aaa"/><rect width="0.09615384615384616em" height="0.16281274799707407em" x="1.0576923076923077vw" y="2.8371872520029258em" fill="#aaa"/><rect width="0.09615384615384616em" height="0.12258914160053985em" x="1.153846153846154vw" y="2.87741085839946em" fill="#aaa"/><rect width="0.09615384615384616em" height="0.33034308918312905em" x="1.25vw" y="2.669656910816871em" fill="#aaa"/><rect width="0.09615384615384616em" height="0.568264478150689em" x="1.3461538461538463vw" y="2.431735521849311em" fill="#aaa"/><rect width="0.09615384615384616em" height="0.651298164779746em" x="1.4423076923076923vw" y="2.348701835220254em" fill="#aaa"/><rect width="0.09615384615384616em" height="0.3620148065124136em" x="1.5384615384615385vw" y="2.6379851934875864em" fill="#aaa"/><rect width="0.09615384615384616em" height="0.5266359897642916em" x="1.6346153846153848vw" y="2.4733640102357084em" fill="#aaa"/><rect width="0.09615384615384616em" height="0.18397133057657986em" x="1.7307692307692308vw" y="2.81602866942342em" fill="#aaa"/><rect width="0.09615384615384616em" height="0.3630636595589906em" x="1.826923076923077vw" y="2.6369363404410096em" fill="#aaa"/><rect width="0.09615384615384616em" height="0.3810085428042655em" x="1.9230769230769231vw" y="2.6189914571957345em" fill="#aaa"/><rect width="0.09615384615384616em" height="0.16912401370135335em" x="2.019230769230769vw" y="2.8308759862986466em" fill="#aaa"/><rect width="0.09615384615384616em" height="0.4084867789710791em" x="2.1153846153846154vw" y="2.591513221028921em" fill="#aaa"/><rect width="0.09615384615384616em" height="0.3273360580742999em" x="2.2115384615384617vw" y="2.6726639419257em" fill="#aaa"/><rect width="0.09615384615384616em" height="0.5998754094881111em" x="2.307692307692308vw" y="2.400124590511889em" fill="#aaa"/><rect width="0.09615384615384616em" height="1.1084264709465088em" x="2.403846153846154vw" y="1.8915735290534912em" fill="#aaa"/><rect width="0.09615384615384616em" height="0.5138150464995122em" x="2.5vw" y="2.486184953500488em" fill="#aaa"/><rect width="0.09615384615384616em" height="1.225533223329062em" x="2.5961538461538463vw" y="1.774466776670938em" fill="#aaa"/><rect width="0.09615384615384616em" height="0.5244785486261662em" x="2.6923076923076925vw" y="2.475521451373834em" fill="#aaa"/><rect width="0.09615384615384616em" height="0.3079720960539713em" x="2.7884615384615388vw" y="2.6920279039460286em" fill="#aaa"/><rect width="0.09615384615384616em" height="1.178586218954079em" x="2.8846153846153846vw" y="1.821413781045921em" fill="#aaa"/><rect width="0.09615384615384616em" height="0.5361618843443017em" x="2.980769230769231vw" y="2.4638381156556983em" fill="#aaa"/><rect width="0.09615384615384616em" height="0.4089600493619412em" x="3.076923076923077vw" y="2.591039950638059em" fill="#aaa"/><rect width="0.09615384615384616em" height="1.0975102099042835em" x="3.1730769230769234vw" y="1.9024897900957165em" fill="#aaa"/><rect width="0.09615384615384616em" height="1.1341659259461077em" x="3.2692307692307696vw" y="1.8658340740538923em" fill="#aaa"/><rect width="0.09615384615384616em" height="0.7499486607924943em" x="3.3653846153846154vw" y="2.2500513392075057em" fill="#aaa"/><rect width="0.09615384615384616em" height="0.4031446148981065em" x="3.4615384615384617vw" y="2.5968553851018936em" fill="#aaa"/><rect width="0.09615384615384616em" height="0.701427156962221em" x="3.557692307692308vw" y="2.298572843037779em" fill="#aaa"/><rect width="0.09615384615384616em" height="0.8746702943494162em" x="3.653846153846154vw" y="2.125329705650584em" fill="#aaa"/><rect width="0.09615384615384616em" height="1.6271387446344159em" x="3.75vw" y="1.3728612553655841em" fill="#aaa"/><rect width="0.09615384615384616em" height="0.6672164139525445em" x="3.8461538461538463vw" y="2.3327835860474555em" fill="#aaa"/><rect width="0.09615384615384616em" height="0.4502260325998583em" x="3.9423076923076925vw" y="2.549773967400142em" fill="#aaa"/><rect width="0.09615384615384616em" height="0.958274089886356em" x="4.038461538461538vw" y="2.041725910113644em" fill="#aaa"/><rect width="0.09615384615384616em" height="0.6965501318864495em" x="4.134615384615385vw" y="2.3034498681135505em" fill="#aaa"/><rect width="0.09615384615384616em" height="0.7595739204953309em" x="4.230769230769231vw" y="2.240426079504669em" fill="#aaa"/><rect width="0.09615384615384616em" height="1.1577853045254627em" x="4.3269230769230775vw" y="1.8422146954745373em" fill="#aaa"/><rect width="0.09615384615384616em" height="0.908216310882046em" x="4.423076923076923vw" y="2.091783689117954em" fill="#aaa"/><rect width="0.09615384615384616em" height="0.7753869444213687em" x="4.519230769230769vw" y="2.224613055578631em" fill="#aaa"/><rect width="0.09615384615384616em" height="0.8503819525401547em" x="4.615384615384616vw" y="2.149618047459845em" fill="#aaa"/><rect width="0.09615384615384616em" height="0.6141354681840735em" x="4.711538461538462vw" y="2.3858645318159266em" fill="#aaa"/><rect width="0.09615384615384616em" height="0.676399296548753em" x="4.807692307692308vw" y="2.323600703451247em" fill="#aaa"/><rect width="0.09615384615384616em" height="1.0641701899592713em" x="4.903846153846154vw" y="1.9358298100407287em" fill="#aaa"/><rect width="0.09615384615384616em" height="0.9035437137120549em" x="5vw" y="2.0964562862879452em" fill="#aaa"/><rect width="0.09615384615384616em" height="1.2550773576048575em" x="5.096153846153847vw" y="1.7449226423951425em" fill="#aaa"/><rect width="0.09615384615384616em" height="1.3870421328417741em" x="5.1923076923076925vw" y="1.6129578671582259em" fill="#aaa"/><rect width="0.09615384615384616em" height="0.8632724957270397em" x="5.288461538461538vw" y="2.1367275042729603em" fill="#aaa"/><rect width="0.09615384615384616em" height="0.79960427545023em" x="5.384615384615385vw" y="2.20039572454977em" fill="#aaa"/><rect width="0.09615384615384616em" height="0.6267302445144489em" x="5.480769230769231vw" y="2.373269755485551em" fill="#aaa"/><rect width="0.09615384615384616em" height="0.9253457456112311em" x="5.5769230769230775vw" y="2.074654254388769em" fill="#aaa"/><rect width="0.09615384615384616em" height="1.0167062507945641em" x="5.673076923076923vw" y="1.9832937492054359em" fill="#aaa"/><rect width="0.09615384615384616em" height="0.5953092391568021em" x="5.769230769230769vw" y="2.4046907608431978em" fill="#aaa"/><rect width="0.09615384615384616em" height="3em" x="5.865384615384616vw" y="0em" fill="#aaa"/><rect width="0.09615384615384616em" height="1.1511377023435128em" x="5.961538461538462vw" y="1.8488622976564872em" fill="#aaa"/><rect width="0.09615384615384616em" height="1.4977210586414387em" x="6.057692307692308vw" y="1.5022789413585613em" fill="#aaa"/><rect width="0.09615384615384616em" height="1.762429561170467em" x="6.153846153846154vw" y="1.237570438829533em" fill="#aaa"/><rect width="0.09615384615384616em" height="1.6997212078589177em" x="6.25vw" y="1.3002787921410823em" fill="#aaa"/><rect width="0.09615384615384616em" height="1.041360079406454em" x="6.346153846153847vw" y="1.958639920593546em" fill="#aaa"/><rect width="0.09615384615384616em" height="1.1192716654680483em" x="6.4423076923076925vw" y="1.8807283345319517em" fill="#aaa"/><rect width="0.09615384615384616em" height="1.0092575338038585em" x="6.538461538461539vw" y="1.9907424661961415em" fill="#aaa"/><rect width="0.09615384615384616em" height="1.1960256880078468em" x="6.634615384615385vw" y="1.8039743119921532em" fill="#aaa"/><rect width="0.09615384615384616em" height="0.8646723310269004em" x="6.730769230769231vw" y="2.1353276689730993em" fill="#aaa"/><rect width="0.09615384615384616em" height="2.1288129075785007em" x="6.8269230769230775vw" y="0.8711870924214993em" fill="#aaa"/><rect width="0.09615384615384616em" height="1.1052482272410444em" x="6.923076923076923vw" y="1.8947517727589556em" fill="#aaa"/><rect width="0.09615384615384616em" height="1.7946744519109115em" x="7.01923076923077vw" y="1.2053255480890885em" fill="#aaa"/><rect width="0.09615384615384616em" height="1.7543664989654935em" x="7.115384615384616vw" y="1.2456335010345065em" fill="#aaa"/><rect width="0.09615384615384616em" height="0.9926005425809692em" x="7.211538461538462vw" y="2.007399457419031em" fill="#aaa"/><rect width="0.09615384615384616em" height="0.5377935984903992em" x="7.307692307692308vw" y="2.462206401509601em" fill="#aaa"/><rect width="0.09615384615384616em" height="1.144995465610732em" x="7.403846153846154vw" y="1.855004534389268em" fill="#aaa"/><rect width="0.09615384615384616em" height="1.4597118064312329em" x="7.5vw" y="1.5402881935687671em" fill="#aaa"/><rect width="0.09615384615384616em" height="1.3769476506695608em" x="7.596153846153847vw" y="1.6230523493304392em" fill="#aaa"/><rect width="0.09615384615384616em" height="0.90513960207722em" x="7.6923076923076925vw" y="2.09486039792278em" fill="#aaa"/><rect width="0.09615384615384616em" height="0.7911193079537739em" x="7.788461538461539vw" y="2.2088806920462263em" fill="#aaa"/><rect width="0.09615384615384616em" height="1.1239411595485667em" x="7.884615384615385vw" y="1.8760588404514333em" fill="#aaa"/><rect width="0.09615384615384616em" height="1.1384869582058053em" x="7.980769230769231vw" y="1.8615130417941947em" fill="#aaa"/><rect width="0.09615384615384616em" height="1.126273033522963em" x="8.076923076923077vw" y="1.873726966477037em" fill="#aaa"/><rect width="0.09615384615384616em" height="1.1768350231899092em" x="8.173076923076923vw" y="1.8231649768100908em" fill="#aaa"/><rect width="0.09615384615384616em" height="1.759737888833481em" x="8.26923076923077vw" y="1.240262111166519em" fill="#aaa"/><rect width="0.09615384615384616em" height="1.1832050327316228em" x="8.365384615384615vw" y="1.8167949672683772em" fill="#aaa"/><rect width="0.09615384615384616em" height="1.1737553764119717em" x="8.461538461538462vw" y="1.8262446235880283em" fill="#aaa"/><rect width="0.09615384615384616em" height="0.8307336482965446em" x="8.557692307692308vw" y="2.169266351703455em" fill="#aaa"/><rect width="0.09615384615384616em" height="1.5020713319458159em" x="8.653846153846155vw" y="1.4979286680541841em" fill="#aaa"/><rect width="0.09615384615384616em" height="1.3251889338298526em" x="8.75vw" y="1.6748110661701474em" fill="#aaa"/><rect width="0.09615384615384616em" height="0.842736112328647em" x="8.846153846153847vw" y="2.157263887671353em" fill="#aaa"/><rect width="0.09615384615384616em" height="1.2415599650340117em" x="8.942307692307693vw" y="1.7584400349659883em" fill="#aaa"/><rect width="0.09615384615384616em" height="1.0824106472746247em" x="9.038461538461538vw" y="1.9175893527253753em" fill="#aaa"/><rect width="0.09615384615384616em" height="1.0224398956981413em" x="9.134615384615385vw" y="1.9775601043018587em" fill="#aaa"/><rect width="0.09615384615384616em" height="0.9547359077181743em" x="9.230769230769232vw" y="2.0452640922818257em" fill="#aaa"/><rect width="0.09615384615384616em" height="1.288005405044633em" x="9.326923076923077vw" y="1.711994594955367em" fill="#aaa"/><rect width="0.09615384615384616em" height="0.8533972800341869em" x="9.423076923076923vw" y="2.146602719965813em" fill="#aaa"/><rect width="0.09615384615384616em" height="1.5022726844837195em" x="9.51923076923077vw" y="1.4977273155162805em" fill="#aaa"/><rect width="0.09615384615384616em" height="1.071676723241465em" x="9.615384615384617vw" y="1.928323276758535em" fill="#aaa"/><rect width="0.09615384615384616em" height="0.9376261739536315em" x="9.711538461538462vw" y="2.0623738260463687em" fill="#aaa"/><rect width="0.09615384615384616em" height="1.1783054806798448em" x="9.807692307692308vw" y="1.8216945193201552em" fill="#aaa"/><rect width="0.09615384615384616em" height="1.1281745137476786em" x="9.903846153846155vw" y="1.8718254862523214em" fill="#aaa"/></svg>