<?xml version="1.0" standalone="no"?>
<svg xmlns:xlink="http://www.w3.org/1999/xlink" xmlns="http://www.w3.org/2000/svg" class="topic-graph" style="width: 100em; height: 30em; text-align: center;"><rect width="0.9433962264150944em" height="0.06323131964867712em" x="0em" y="29.936768680351324em" fill="#aaa"/><rect width="0.9433962264150944em" height="0.7046242748299728em" x="0.9433962264150944em" y="29.29537572517003em" fill="#aaa"/><rect width="0.9433962264150944em" height="0.17673825558688194em" x="1.8867924528301887em" y="29.823261744413117em" fill="#aaa"/><rect width="0.9433962264150944em" height="0.06262356906061159em" x="2.830188679245283em" y="29.937376430939388em" fill="#aaa"/><rect width="0.9433962264150944em" height="0.16465823343386962em" x="3.7735849056603774em" y="29.83534176656613em" fill="#aaa"/><rect width="0.9433962264150944em" height="0.2909840428714824em" x="4.716981132075472em" y="29.709015957128518em" fill="#aaa"/><rect width="0.9433962264150944em" height="1.6033356898511266em" x="5.660377358490566em" y="28.396664310148875em" fill="#aaa"/><rect width="0.9433962264150944em" height="0.04777320689184994em" x="6.60377358490566em" y="29.95222679310815em" fill="#aaa"/><rect width="0.9433962264150944em" height="0.5764612364284929em" x="7.547169811320755em" y="29.423538763571507em" fill="#aaa"/><rect width="0.9433962264150944em" height="0.09462381345651501em" x="8.49056603773585em" y="29.905376186543485em" fill="#aaa"/><rect width="0.9433962264150944em" height="0.1525824472623362em" x="9.433962264150944em" y="29.847417552737664em" fill="#aaa"/><rect width="0.9433962264150944em" height="0.10040220587171345em" x="10.377358490566039em" y="29.899597794128287em" fill="#aaa"/><rect width="0.9433962264150944em" height="0.2885789326596459em" x="11.320754716981131em" y="29.711421067340353em" fill="#aaa"/><rect width="0.9433962264150944em" height="0em" x="12.264150943396226em" y="30em" fill="#aaa"/><rect width="0.9433962264150944em" height="2.5823403596630965em" x="13.20754716981132em" y="27.417659640336904em" fill="#aaa"/><rect width="0.9433962264150944em" height="0.5249695740630802em" x="14.150943396226415em" y="29.47503042593692em" fill="#aaa"/><rect width="0.9433962264150944em" height="0.37279675622252306em" x="15.09433962264151em" y="29.627203243777476em" fill="#aaa"/><rect width="0.9433962264150944em" height="0.24922771623882628em" x="16.037735849056602em" y="29.750772283761172em" fill="#aaa"/><rect width="0.9433962264150944em" height="1.9391431401638568em" x="16.9811320754717em" y="28.060856859836143em" fill="#aaa"/><rect width="0.9433962264150944em" height="16.184905625099113em" x="17.92452830188679em" y="13.815094374900887em" fill="#aaa"/><rect width="0.9433962264150944em" height="1.3112723826820232em" x="18.867924528301888em" y="28.688727617317976em" fill="#aaa"/><rect width="0.9433962264150944em" height="7.702821775192427em" x="19.81132075471698em" y="22.297178224807574em" fill="#aaa"/><rect width="0.9433962264150944em" height="6.312689474792249em" x="20.754716981132077em" y="23.68731052520775em" fill="#aaa"/><rect width="0.9433962264150944em" height="6.55839620160809em" x="21.69811320754717em" y="23.44160379839191em" fill="#aaa"/><rect width="0.9433962264150944em" height="0.7414097691917743em" x="22.641509433962263em" y="29.258590230808224em" fill="#aaa"/><rect width="0.9433962264150944em" height="0.8184774136265104em" x="23.58490566037736em" y="29.18152258637349em" fill="#aaa"/><rect width="0.9433962264150944em" height="0em" x="24.528301886792452em" y="30em" fill="#aaa"/><rect width="0.9433962264150944em" height="0.6327833923213573em" x="25.471698113207548em" y="29.367216607678643em" fill="#aaa"/><rect width="0.9433962264150944em" height="3.957504252035466em" x="26.41509433962264em" y="26.042495747964534em" fill="#aaa"/><rect width="0.9433962264150944em" height="1.4554301677016905em" x="27.358490566037737em" y="28.544569832298308em" fill="#aaa"/><rect width="0.9433962264150944em" height="1.2850900223654205em" x="28.30188679245283em" y="28.71490997763458em" fill="#aaa"/><rect width="0.9433962264150944em" height="0.23840037662386665em" x="29.245283018867926em" y="29.761599623376135em" fill="#aaa"/><rect width="0.9433962264150944em" height="0.49761328671425703em" x="30.18867924528302em" y="29.502386713285745em" fill="#aaa"/><rect width="0.9433962264150944em" height="3.357780867407387em" x="31.132075471698112em" y="26.642219132592615em" fill="#aaa"/><rect width="0.9433962264150944em" height="0.4911122560196369em" x="32.075471698113205em" y="29.508887743980363em" fill="#aaa"/><rect width="0.9433962264150944em" height="0.5067666496594652em" x="33.0188679245283em" y="29.493233350340535em" fill="#aaa"/><rect width="0.9433962264150944em" height="0.8642028335757798em" x="33.9622641509434em" y="29.13579716642422em" fill="#aaa"/><rect width="0.9433962264150944em" height="1.7204468960448118em" x="34.905660377358494em" y="28.279553103955188em" fill="#aaa"/><rect width="0.9433962264150944em" height="1.701514552637247em" x="35.84905660377358em" y="28.298485447362754em" fill="#aaa"/><rect width="0.9433962264150944em" height="0.453269499570224em" x="36.79245283018868em" y="29.546730500429774em" fill="#aaa"/><rect width="0.9433962264150944em" height="2.4113343176073303em" x="37.735849056603776em" y="27.58866568239267em" fill="#aaa"/><rect width="0.9433962264150944em" height="1.0457467313963948em" x="38.679245283018865em" y="28.954253268603605em" fill="#aaa"/><rect width="0.9433962264150944em" height="1.313955385697483em" x="39.62264150943396em" y="28.686044614302517em" fill="#aaa"/><rect width="0.9433962264150944em" height="0.8977220699253872em" x="40.56603773584906em" y="29.102277930074614em" fill="#aaa"/><rect width="0.9433962264150944em" height="0.38903031101011337em" x="41.509433962264154em" y="29.610969688989886em" fill="#aaa"/><rect width="0.9433962264150944em" height="3.688578552892018em" x="42.45283018867924em" y="26.311421447107982em" fill="#aaa"/><rect width="0.9433962264150944em" height="1.9289762048818295em" x="43.39622641509434em" y="28.07102379511817em" fill="#aaa"/><rect width="0.9433962264150944em" height="0.2308763942439922em" x="44.339622641509436em" y="29.769123605756008em" fill="#aaa"/><rect width="0.9433962264150944em" height="1.149717170765124em" x="45.283018867924525em" y="28.850282829234875em" fill="#aaa"/><rect width="0.9433962264150944em" height="3.020301499079847em" x="46.22641509433962em" y="26.979698500920154em" fill="#aaa"/><rect width="0.9433962264150944em" height="1.5855901831065955em" x="47.16981132075472em" y="28.414409816893404em" fill="#aaa"/><rect width="0.9433962264150944em" height="3.9047825542097385em" x="48.113207547169814em" y="26.09521744579026em" fill="#aaa"/><rect width="0.9433962264150944em" height="0.47174722869717867em" x="49.056603773584904em" y="29.52825277130282em" fill="#aaa"/><rect width="0.9433962264150944em" height="0.5298405477553298em" x="50em" y="29.47015945224467em" fill="#aaa"/><rect width="0.9433962264150944em" height="0.12780333454839948em" x="50.943396226415096em" y="29.8721966654516em" fill="#aaa"/><rect width="0.9433962264150944em" height="0.4775902242495026em" x="51.88679245283019em" y="29.522409775750496em" fill="#aaa"/><rect width="0.9433962264150944em" height="1.595694405627528em" x="52.83018867924528em" y="28.404305594372474em" fill="#aaa"/><rect width="0.9433962264150944em" height="0.3083987955409859em" x="53.77358490566038em" y="29.691601204459015em" fill="#aaa"/><rect width="0.9433962264150944em" height="0.6485045861637423em" x="54.716981132075475em" y="29.351495413836258em" fill="#aaa"/><rect width="0.9433962264150944em" height="0.9886122410494356em" x="55.660377358490564em" y="29.011387758950566em" fill="#aaa"/><rect width="0.9433962264150944em" height="3.7651617286432653em" x="56.60377358490566em" y="26.234838271356736em" fill="#aaa"/><rect width="0.9433962264150944em" height="1.198911631127224em" x="57.54716981132076em" y="28.801088368872776em" fill="#aaa"/><rect width="0.9433962264150944em" height="6.563266973885152em" x="58.49056603773585em" y="23.436733026114847em" fill="#aaa"/><rect width="0.9433962264150944em" height="5.41908199865743em" x="59.43396226415094em" y="24.58091800134257em" fill="#aaa"/><rect width="0.9433962264150944em" height="4.494581983258217em" x="60.37735849056604em" y="25.505418016741782em" fill="#aaa"/><rect width="0.9433962264150944em" height="1.5595323817628859em" x="61.320754716981135em" y="28.440467618237115em" fill="#aaa"/><rect width="0.9433962264150944em" height="3.6349462569849815em" x="62.264150943396224em" y="26.365053743015018em" fill="#aaa"/><rect width="0.9433962264150944em" height="1.3569710481244819em" x="63.20754716981132em" y="28.643028951875518em" fill="#aaa"/><rect width="0.9433962264150944em" height="2.0268052173348146em" x="64.15094339622641em" y="27.973194782665185em" fill="#aaa"/><rect width="0.9433962264150944em" height="2.1715132161354425em" x="65.09433962264151em" y="27.82848678386456em" fill="#aaa"/><rect width="0.9433962264150944em" height="3.003755914007636em" x="66.0377358490566em" y="26.996244085992362em" fill="#aaa"/><rect width="0.9433962264150944em" height="3.393232457659051em" x="66.9811320754717em" y="26.60676754234095em" fill="#aaa"/><rect width="0.9433962264150944em" height="4.528662787803932em" x="67.9245283018868em" y="25.47133721219607em" fill="#aaa"/><rect width="0.9433962264150944em" height="4.456125470538129em" x="68.86792452830188em" y="25.54387452946187em" fill="#aaa"/><rect width="0.9433962264150944em" height="3.4492259336599242em" x="69.81132075471699em" y="26.550774066340075em" fill="#aaa"/><rect width="0.9433962264150944em" height="12.779947960476209em" x="70.75471698113208em" y="17.220052039523793em" fill="#aaa"/><rect width="0.9433962264150944em" height="3.312615700515733em" x="71.69811320754717em" y="26.68738429948427em" fill="#aaa"/><rect width="0.9433962264150944em" height="1.2066558472672846em" x="72.64150943396227em" y="28.793344152732715em" fill="#aaa"/><rect width="0.9433962264150944em" height="0.8979825620861479em" x="73.58490566037736em" y="29.10201743791385em" fill="#aaa"/><rect width="0.9433962264150944em" height="0.5319652466558623em" x="74.52830188679245em" y="29.46803475334414em" fill="#aaa"/><rect width="0.9433962264150944em" height="5.482420592055889em" x="75.47169811320755em" y="24.517579407944112em" fill="#aaa"/><rect width="0.9433962264150944em" height="1.7345423436694538em" x="76.41509433962264em" y="28.265457656330547em" fill="#aaa"/><rect width="0.9433962264150944em" height="1.4765107508017312em" x="77.35849056603773em" y="28.52348924919827em" fill="#aaa"/><rect width="0.9433962264150944em" height="2.717271100580348em" x="78.30188679245283em" y="27.282728899419652em" fill="#aaa"/><rect width="0.9433962264150944em" height="3.5399251206600675em" x="79.24528301886792em" y="26.46007487933993em" fill="#aaa"/><rect width="0.9433962264150944em" height="2.5280987418029532em" x="80.18867924528303em" y="27.471901258197047em" fill="#aaa"/><rect width="0.9433962264150944em" height="4.483921264675526em" x="81.13207547169812em" y="25.516078735324474em" fill="#aaa"/><rect width="0.9433962264150944em" height="4.271186037915032em" x="82.0754716981132em" y="25.728813962084967em" fill="#aaa"/><rect width="0.9433962264150944em" height="8.216535000511453em" x="83.01886792452831em" y="21.783464999488547em" fill="#aaa"/><rect width="0.9433962264150944em" height="2.1218962621422826em" x="83.9622641509434em" y="27.878103737857717em" fill="#aaa"/><rect width="0.9433962264150944em" height="5.491415456135593em" x="84.90566037735849em" y="24.50858454386441em" fill="#aaa"/><rect width="0.9433962264150944em" height="3.506778782176634em" x="85.84905660377359em" y="26.493221217823365em" fill="#aaa"/><rect width="0.9433962264150944em" height="3.4868331431646475em" x="86.79245283018868em" y="26.51316685683535em" fill="#aaa"/><rect width="0.9433962264150944em" height="3.154766681175304em" x="87.73584905660377em" y="26.845233318824697em" fill="#aaa"/><rect width="0.9433962264150944em" height="5.844781514543856em" x="88.67924528301887em" y="24.155218485456146em" fill="#aaa"/><rect width="0.9433962264150944em" height="14.803353990546697em" x="89.62264150943396em" y="15.196646009453303em" fill="#aaa"/><rect width="0.9433962264150944em" height="2.9714303212916073em" x="90.56603773584905em" y="27.028569678708394em" fill="#aaa"/><rect width="0.9433962264150944em" height="4.26722253298303em" x="91.50943396226415em" y="25.73277746701697em" fill="#aaa"/><rect width="0.9433962264150944em" height="3.441268718037221em" x="92.45283018867924em" y="26.55873128196278em" fill="#aaa"/><rect width="0.9433962264150944em" height="9.662707133717817em" x="93.39622641509435em" y="20.337292866282183em" fill="#aaa"/><rect width="0.9433962264150944em" height="2.2349297958974907em" x="94.33962264150944em" y="27.76507020410251em" fill="#aaa"/><rect width="0.9433962264150944em" height="5.981593144201813em" x="95.28301886792453em" y="24.018406855798187em" fill="#aaa"/><rect width="0.9433962264150944em" height="4.143507965363887em" x="96.22641509433963em" y="25.856492034636112em" fill="#aaa"/><rect width="0.9433962264150944em" height="3.4494641222178486em" x="97.16981132075472em" y="26.550535877782153em" fill="#aaa"/><rect width="0.9433962264150944em" height="2.1440742434064513em" x="98.11320754716981em" y="27.85592575659355em" fill="#aaa"/><rect width="0.9433962264150944em" height="30em" x="99.05660377358491em" y="0em" fill="#aaa"/></svg>