<?xml version="1.0" standalone="no"?>
<svg xmlns:xlink="http://www.w3.org/1999/xlink" xmlns="http://www.w3.org/2000/svg" class="topic-graph" style="width: 100em; height: 30em; text-align: center;"><rect width="0.9433962264150944em" height="0.07521211023435062em" x="0em" y="29.92478788976565em" fill="#aaa"/><rect width="0.9433962264150944em" height="0.09554163333493024em" x="0.9433962264150944em" y="29.904458366665068em" fill="#aaa"/><rect width="0.9433962264150944em" height="0.35777895142097543em" x="1.8867924528301887em" y="29.642221048579025em" fill="#aaa"/><rect width="0.9433962264150944em" height="1.6855577100977845em" x="2.830188679245283em" y="28.314442289902214em" fill="#aaa"/><rect width="0.9433962264150944em" height="0.7565288462684671em" x="3.7735849056603774em" y="29.243471153731534em" fill="#aaa"/><rect width="0.9433962264150944em" height="0.1063835676176574em" x="4.716981132075472em" y="29.89361643238234em" fill="#aaa"/><rect width="0.9433962264150944em" height="0.13608408955534404em" x="5.660377358490566em" y="29.863915910444657em" fill="#aaa"/><rect width="0.9433962264150944em" height="0.05682506268985374em" x="6.60377358490566em" y="29.943174937310147em" fill="#aaa"/><rect width="0.9433962264150944em" height="0.5210763712682166em" x="7.547169811320755em" y="29.478923628731785em" fill="#aaa"/><rect width="0.9433962264150944em" height="0.9371598757994783em" x="8.49056603773585em" y="29.062840124200523em" fill="#aaa"/><rect width="0.9433962264150944em" height="1.8553845715305555em" x="9.433962264150944em" y="28.144615428469443em" fill="#aaa"/><rect width="0.9433962264150944em" height="2.130457805586391em" x="10.377358490566039em" y="27.869542194413608em" fill="#aaa"/><rect width="0.9433962264150944em" height="1.9081244799057737em" x="11.320754716981131em" y="28.091875520094227em" fill="#aaa"/><rect width="0.9433962264150944em" height="0em" x="12.264150943396226em" y="30em" fill="#aaa"/><rect width="0.9433962264150944em" height="0.24298987062521998em" x="13.20754716981132em" y="29.75701012937478em" fill="#aaa"/><rect width="0.9433962264150944em" height="0.2730044853428066em" x="14.150943396226415em" y="29.726995514657194em" fill="#aaa"/><rect width="0.9433962264150944em" height="2.87137727088831em" x="15.09433962264151em" y="27.12862272911169em" fill="#aaa"/><rect width="0.9433962264150944em" height="1.0476046655459565em" x="16.037735849056602em" y="28.952395334454042em" fill="#aaa"/><rect width="0.9433962264150944em" height="1.9146083548602086em" x="16.9811320754717em" y="28.08539164513979em" fill="#aaa"/><rect width="0.9433962264150944em" height="1.0670281685632632em" x="17.92452830188679em" y="28.93297183143674em" fill="#aaa"/><rect width="0.9433962264150944em" height="2.651201959063072em" x="18.867924528301888em" y="27.348798040936927em" fill="#aaa"/><rect width="0.9433962264150944em" height="0.42671018268586325em" x="19.81132075471698em" y="29.573289817314137em" fill="#aaa"/><rect width="0.9433962264150944em" height="1.3695133444897247em" x="20.754716981132077em" y="28.630486655510275em" fill="#aaa"/><rect width="0.9433962264150944em" height="3.513828885675572em" x="21.69811320754717em" y="26.486171114324428em" fill="#aaa"/><rect width="0.9433962264150944em" height="2.882227026767338em" x="22.641509433962263em" y="27.11777297323266em" fill="#aaa"/><rect width="0.9433962264150944em" height="1.2739488418606575em" x="23.58490566037736em" y="28.72605115813934em" fill="#aaa"/><rect width="0.9433962264150944em" height="0em" x="24.528301886792452em" y="30em" fill="#aaa"/><rect width="0.9433962264150944em" height="4.4282607720416856em" x="25.471698113207548em" y="25.571739227958314em" fill="#aaa"/><rect width="0.9433962264150944em" height="1.147396347522297em" x="26.41509433962264em" y="28.852603652477704em" fill="#aaa"/><rect width="0.9433962264150944em" height="2.19327348029217em" x="27.358490566037737em" y="27.80672651970783em" fill="#aaa"/><rect width="0.9433962264150944em" height="1.0152717033231378em" x="28.30188679245283em" y="28.984728296676863em" fill="#aaa"/><rect width="0.9433962264150944em" height="2.8601446210882857em" x="29.245283018867926em" y="27.139855378911715em" fill="#aaa"/><rect width="0.9433962264150944em" height="1.210101338155889em" x="30.18867924528302em" y="28.789898661844113em" fill="#aaa"/><rect width="0.9433962264150944em" height="3.3512009902824733em" x="31.132075471698112em" y="26.64879900971753em" fill="#aaa"/><rect width="0.9433962264150944em" height="2.3434894564343014em" x="32.075471698113205em" y="27.656510543565698em" fill="#aaa"/><rect width="0.9433962264150944em" height="0.7039712392120622em" x="33.0188679245283em" y="29.296028760787937em" fill="#aaa"/><rect width="0.9433962264150944em" height="4.829070131715609em" x="33.9622641509434em" y="25.17092986828439em" fill="#aaa"/><rect width="0.9433962264150944em" height="0.7672681553452643em" x="34.905660377358494em" y="29.232731844654737em" fill="#aaa"/><rect width="0.9433962264150944em" height="1.7909578508907944em" x="35.84905660377358em" y="28.209042149109205em" fill="#aaa"/><rect width="0.9433962264150944em" height="4.080820490069929em" x="36.79245283018868em" y="25.91917950993007em" fill="#aaa"/><rect width="0.9433962264150944em" height="4.579581756024359em" x="37.735849056603776em" y="25.42041824397564em" fill="#aaa"/><rect width="0.9433962264150944em" height="2.1370294227636473em" x="38.679245283018865em" y="27.862970577236354em" fill="#aaa"/><rect width="0.9433962264150944em" height="1.2247387637307665em" x="39.62264150943396em" y="28.775261236269234em" fill="#aaa"/><rect width="0.9433962264150944em" height="2.0491594925636387em" x="40.56603773584906em" y="27.95084050743636em" fill="#aaa"/><rect width="0.9433962264150944em" height="1.9031655083910788em" x="41.509433962264154em" y="28.09683449160892em" fill="#aaa"/><rect width="0.9433962264150944em" height="2.4213210356199113em" x="42.45283018867924em" y="27.57867896438009em" fill="#aaa"/><rect width="0.9433962264150944em" height="1.2910099728197886em" x="43.39622641509434em" y="28.70899002718021em" fill="#aaa"/><rect width="0.9433962264150944em" height="3.648072328795391em" x="44.339622641509436em" y="26.35192767120461em" fill="#aaa"/><rect width="0.9433962264150944em" height="1.3569078929103529em" x="45.283018867924525em" y="28.643092107089647em" fill="#aaa"/><rect width="0.9433962264150944em" height="1.6846663729097275em" x="46.22641509433962em" y="28.315333627090272em" fill="#aaa"/><rect width="0.9433962264150944em" height="2.5774135748356635em" x="47.16981132075472em" y="27.422586425164337em" fill="#aaa"/><rect width="0.9433962264150944em" height="2.2962172341557303em" x="48.113207547169814em" y="27.70378276584427em" fill="#aaa"/><rect width="0.9433962264150944em" height="0.9089430874942231em" x="49.056603773584904em" y="29.091056912505778em" fill="#aaa"/><rect width="0.9433962264150944em" height="5.342061379262072em" x="50em" y="24.65793862073793em" fill="#aaa"/><rect width="0.9433962264150944em" height="4.747571287498327em" x="50.943396226415096em" y="25.252428712501672em" fill="#aaa"/><rect width="0.9433962264150944em" height="1.5609733107338748em" x="51.88679245283019em" y="28.439026689266125em" fill="#aaa"/><rect width="0.9433962264150944em" height="1.7628092389132701em" x="52.83018867924528em" y="28.23719076108673em" fill="#aaa"/><rect width="0.9433962264150944em" height="2.585906700922529em" x="53.77358490566038em" y="27.41409329907747em" fill="#aaa"/><rect width="0.9433962264150944em" height="1.2674749085548607em" x="54.716981132075475em" y="28.73252509144514em" fill="#aaa"/><rect width="0.9433962264150944em" height="1.7287130174137544em" x="55.660377358490564em" y="28.271286982586247em" fill="#aaa"/><rect width="0.9433962264150944em" height="3.8638732697536335em" x="56.60377358490566em" y="26.136126730246367em" fill="#aaa"/><rect width="0.9433962264150944em" height="2.0239646972743657em" x="57.54716981132076em" y="27.976035302725634em" fill="#aaa"/><rect width="0.9433962264150944em" height="2.4166958799555442em" x="58.49056603773585em" y="27.583304120044456em" fill="#aaa"/><rect width="0.9433962264150944em" height="1.2000333506338963em" x="59.43396226415094em" y="28.799966649366105em" fill="#aaa"/><rect width="0.9433962264150944em" height="9.76615012142652em" x="60.37735849056604em" y="20.23384987857348em" fill="#aaa"/><rect width="0.9433962264150944em" height="4.730696151483887em" x="61.320754716981135em" y="25.269303848516113em" fill="#aaa"/><rect width="0.9433962264150944em" height="5.020914407542183em" x="62.264150943396224em" y="24.979085592457817em" fill="#aaa"/><rect width="0.9433962264150944em" height="19.2298004645553em" x="63.20754716981132em" y="10.7701995354447em" fill="#aaa"/><rect width="0.9433962264150944em" height="12.280301400710561em" x="64.15094339622641em" y="17.719698599289437em" fill="#aaa"/><rect width="0.9433962264150944em" height="25.24895075543513em" x="65.09433962264151em" y="4.7510492445648715em" fill="#aaa"/><rect width="0.9433962264150944em" height="27.685585128859813em" x="66.0377358490566em" y="2.314414871140187em" fill="#aaa"/><rect width="0.9433962264150944em" height="8.549670653903325em" x="66.9811320754717em" y="21.450329346096673em" fill="#aaa"/><rect width="0.9433962264150944em" height="27.441461694575217em" x="67.9245283018868em" y="2.5585383054247828em" fill="#aaa"/><rect width="0.9433962264150944em" height="26.089198676605683em" x="68.86792452830188em" y="3.910801323394317em" fill="#aaa"/><rect width="0.9433962264150944em" height="19.253781692771252em" x="69.81132075471699em" y="10.746218307228748em" fill="#aaa"/><rect width="0.9433962264150944em" height="19.526047700465806em" x="70.75471698113208em" y="10.473952299534194em" fill="#aaa"/><rect width="0.9433962264150944em" height="30em" x="71.69811320754717em" y="0em" fill="#aaa"/><rect width="0.9433962264150944em" height="3.619274197893512em" x="72.64150943396227em" y="26.38072580210649em" fill="#aaa"/><rect width="0.9433962264150944em" height="2.017871720546098em" x="73.58490566037736em" y="27.982128279453903em" fill="#aaa"/><rect width="0.9433962264150944em" height="3.9347078423797264em" x="74.52830188679245em" y="26.065292157620274em" fill="#aaa"/><rect width="0.9433962264150944em" height="12.312001172097704em" x="75.47169811320755em" y="17.687998827902298em" fill="#aaa"/><rect width="0.9433962264150944em" height="25.482240357857762em" x="76.41509433962264em" y="4.517759642142238em" fill="#aaa"/><rect width="0.9433962264150944em" height="4.2730891304086365em" x="77.35849056603773em" y="25.726910869591364em" fill="#aaa"/><rect width="0.9433962264150944em" height="3.8641498618585977em" x="78.30188679245283em" y="26.135850138141404em" fill="#aaa"/><rect width="0.9433962264150944em" height="2.8331570204409138em" x="79.24528301886792em" y="27.166842979559085em" fill="#aaa"/><rect width="0.9433962264150944em" height="3.953206165893763em" x="80.18867924528303em" y="26.046793834106236em" fill="#aaa"/><rect width="0.9433962264150944em" height="6.706390494654863em" x="81.13207547169812em" y="23.293609505345138em" fill="#aaa"/><rect width="0.9433962264150944em" height="6.260519515221659em" x="82.0754716981132em" y="23.73948048477834em" fill="#aaa"/><rect width="0.9433962264150944em" height="9.572513249598432em" x="83.01886792452831em" y="20.42748675040157em" fill="#aaa"/><rect width="0.9433962264150944em" height="7.84088492727727em" x="83.9622641509434em" y="22.15911507272273em" fill="#aaa"/><rect width="0.9433962264150944em" height="2.233387695857877em" x="84.90566037735849em" y="27.76661230414212em" fill="#aaa"/><rect width="0.9433962264150944em" height="12.202153190498356em" x="85.84905660377359em" y="17.797846809501642em" fill="#aaa"/><rect width="0.9433962264150944em" height="5.390275584814461em" x="86.79245283018868em" y="24.60972441518554em" fill="#aaa"/><rect width="0.9433962264150944em" height="2.6393090610661125em" x="87.73584905660377em" y="27.36069093893389em" fill="#aaa"/><rect width="0.9433962264150944em" height="16.995730240869985em" x="88.67924528301887em" y="13.004269759130015em" fill="#aaa"/><rect width="0.9433962264150944em" height="8.174780940703975em" x="89.62264150943396em" y="21.825219059296025em" fill="#aaa"/><rect width="0.9433962264150944em" height="16.121756240683528em" x="90.56603773584905em" y="13.878243759316472em" fill="#aaa"/><rect width="0.9433962264150944em" height="12.05587588303564em" x="91.50943396226415em" y="17.94412411696436em" fill="#aaa"/><rect width="0.9433962264150944em" height="12.413616842101774em" x="92.45283018867924em" y="17.586383157898226em" fill="#aaa"/><rect width="0.9433962264150944em" height="9.197749717686449em" x="93.39622641509435em" y="20.80225028231355em" fill="#aaa"/><rect width="0.9433962264150944em" height="6.989335589460021em" x="94.33962264150944em" y="23.01066441053998em" fill="#aaa"/><rect width="0.9433962264150944em" height="14.757825583614064em" x="95.28301886792453em" y="15.242174416385936em" fill="#aaa"/><rect width="0.9433962264150944em" height="21.37791656159461em" x="96.22641509433963em" y="8.62208343840539em" fill="#aaa"/><rect width="0.9433962264150944em" height="5.851101263367522em" x="97.16981132075472em" y="24.14889873663248em" fill="#aaa"/><rect width="0.9433962264150944em" height="20.319946460228106em" x="98.11320754716981em" y="9.680053539771894em" fill="#aaa"/><rect width="0.9433962264150944em" height="11.624980892039556em" x="99.05660377358491em" y="18.375019107960444em" fill="#aaa"/></svg>