<?xml version="1.0" standalone="no"?>
<svg xmlns:xlink="http://www.w3.org/1999/xlink" xmlns="http://www.w3.org/2000/svg" class="topic-graph" style="width: 100em; height: 30em; text-align: center;"><rect width="0.9433962264150944em" height="0.4825710239955986em" x="0em" y="29.5174289760044em" fill="#aaa"/><rect width="0.9433962264150944em" height="30em" x="0.9433962264150944em" y="0em" fill="#aaa"/><rect width="0.9433962264150944em" height="0.600386347265947em" x="1.8867924528301887em" y="29.399613652734054em" fill="#aaa"/><rect width="0.9433962264150944em" height="0.5187627397174026em" x="2.830188679245283em" y="29.481237260282597em" fill="#aaa"/><rect width="0.9433962264150944em" height="0.008482022185871773em" x="3.7735849056603774em" y="29.991517977814127em" fill="#aaa"/><rect width="0.9433962264150944em" height="0.19201091255306701em" x="4.716981132075472em" y="29.807989087446934em" fill="#aaa"/><rect width="0.9433962264150944em" height="0.11716697612462414em" x="5.660377358490566em" y="29.882833023875374em" fill="#aaa"/><rect width="0.9433962264150944em" height="0.720135330175036em" x="6.60377358490566em" y="29.279864669824963em" fill="#aaa"/><rect width="0.9433962264150944em" height="0.7039951521291523em" x="7.547169811320755em" y="29.296004847870847em" fill="#aaa"/><rect width="0.9433962264150944em" height="0.3653080494656066em" x="8.49056603773585em" y="29.634691950534393em" fill="#aaa"/><rect width="0.9433962264150944em" height="0.06028554402855577em" x="9.433962264150944em" y="29.939714455971444em" fill="#aaa"/><rect width="0.9433962264150944em" height="0.20279138815876124em" x="10.377358490566039em" y="29.79720861184124em" fill="#aaa"/><rect width="0.9433962264150944em" height="0.22077753616149925em" x="11.320754716981131em" y="29.7792224638385em" fill="#aaa"/><rect width="0.9433962264150944em" height="0em" x="12.264150943396226em" y="30em" fill="#aaa"/><rect width="0.9433962264150944em" height="0.5988840840225242em" x="13.20754716981132em" y="29.401115915977474em" fill="#aaa"/><rect width="0.9433962264150944em" height="0.3492391979553686em" x="14.150943396226415em" y="29.65076080204463em" fill="#aaa"/><rect width="0.9433962264150944em" height="0.2082475947986871em" x="15.09433962264151em" y="29.79175240520131em" fill="#aaa"/><rect width="0.9433962264150944em" height="0.468614459001427em" x="16.037735849056602em" y="29.531385540998574em" fill="#aaa"/><rect width="0.9433962264150944em" height="0.855329917936623em" x="16.9811320754717em" y="29.144670082063378em" fill="#aaa"/><rect width="0.9433962264150944em" height="0.18521471145299653em" x="17.92452830188679em" y="29.814785288547004em" fill="#aaa"/><rect width="0.9433962264150944em" height="1.9896278887189318em" x="18.867924528301888em" y="28.010372111281068em" fill="#aaa"/><rect width="0.9433962264150944em" height="0.5107992219462404em" x="19.81132075471698em" y="29.48920077805376em" fill="#aaa"/><rect width="0.9433962264150944em" height="0.5000527492071378em" x="20.754716981132077em" y="29.49994725079286em" fill="#aaa"/><rect width="0.9433962264150944em" height="0.9376734775078555em" x="21.69811320754717em" y="29.062326522492146em" fill="#aaa"/><rect width="0.9433962264150944em" height="0.443115918690364em" x="22.641509433962263em" y="29.556884081309637em" fill="#aaa"/><rect width="0.9433962264150944em" height="0.009349654293078108em" x="23.58490566037736em" y="29.99065034570692em" fill="#aaa"/><rect width="0.9433962264150944em" height="0em" x="24.528301886792452em" y="30em" fill="#aaa"/><rect width="0.9433962264150944em" height="0.44364205492132514em" x="25.471698113207548em" y="29.556357945078673em" fill="#aaa"/><rect width="0.9433962264150944em" height="3.4637072110767537em" x="26.41509433962264em" y="26.536292788923248em" fill="#aaa"/><rect width="0.9433962264150944em" height="1.6819426182139932em" x="27.358490566037737em" y="28.318057381786005em" fill="#aaa"/><rect width="0.9433962264150944em" height="0.6430918453216884em" x="28.30188679245283em" y="29.35690815467831em" fill="#aaa"/><rect width="0.9433962264150944em" height="1.123876081727377em" x="29.245283018867926em" y="28.876123918272622em" fill="#aaa"/><rect width="0.9433962264150944em" height="0.9132549524611593em" x="30.18867924528302em" y="29.08674504753884em" fill="#aaa"/><rect width="0.9433962264150944em" height="1.2496923824850181em" x="31.132075471698112em" y="28.75030761751498em" fill="#aaa"/><rect width="0.9433962264150944em" height="0.9010050578208038em" x="32.075471698113205em" y="29.098994942179196em" fill="#aaa"/><rect width="0.9433962264150944em" height="0.40770043300767655em" x="33.0188679245283em" y="29.592299566992324em" fill="#aaa"/><rect width="0.9433962264150944em" height="1.0569977016915044em" x="33.9622641509434em" y="28.943002298308496em" fill="#aaa"/><rect width="0.9433962264150944em" height="0.9338924589237552em" x="34.905660377358494em" y="29.066107541076246em" fill="#aaa"/><rect width="0.9433962264150944em" height="1.2055423897307378em" x="35.84905660377358em" y="28.794457610269262em" fill="#aaa"/><rect width="0.9433962264150944em" height="2.065150969584811em" x="36.79245283018868em" y="27.93484903041519em" fill="#aaa"/><rect width="0.9433962264150944em" height="1.160194250436651em" x="37.735849056603776em" y="28.83980574956335em" fill="#aaa"/><rect width="0.9433962264150944em" height="1.9139167847857697em" x="38.679245283018865em" y="28.08608321521423em" fill="#aaa"/><rect width="0.9433962264150944em" height="0.36107323022625937em" x="39.62264150943396em" y="29.63892676977374em" fill="#aaa"/><rect width="0.9433962264150944em" height="0.7024204381710419em" x="40.56603773584906em" y="29.297579561828957em" fill="#aaa"/><rect width="0.9433962264150944em" height="0.8857994791539542em" x="41.509433962264154em" y="29.114200520846047em" fill="#aaa"/><rect width="0.9433962264150944em" height="0.3560285567835759em" x="42.45283018867924em" y="29.643971443216422em" fill="#aaa"/><rect width="0.9433962264150944em" height="0.6768748372573892em" x="43.39622641509434em" y="29.32312516274261em" fill="#aaa"/><rect width="0.9433962264150944em" height="1.973886664025555em" x="44.339622641509436em" y="28.026113335974443em" fill="#aaa"/><rect width="0.9433962264150944em" height="1.5174033816030277em" x="45.283018867924525em" y="28.482596618396972em" fill="#aaa"/><rect width="0.9433962264150944em" height="1.8796730810607898em" x="46.22641509433962em" y="28.12032691893921em" fill="#aaa"/><rect width="0.9433962264150944em" height="1.3345820715325774em" x="47.16981132075472em" y="28.665417928467424em" fill="#aaa"/><rect width="0.9433962264150944em" height="0.9311599645126241em" x="48.113207547169814em" y="29.068840035487376em" fill="#aaa"/><rect width="0.9433962264150944em" height="1.028766805251795em" x="49.056603773584904em" y="28.971233194748205em" fill="#aaa"/><rect width="0.9433962264150944em" height="0.6522120319333616em" x="50em" y="29.347787968066637em" fill="#aaa"/><rect width="0.9433962264150944em" height="0.6928510444047741em" x="50.943396226415096em" y="29.307148955595228em" fill="#aaa"/><rect width="0.9433962264150944em" height="0.5646478027899584em" x="51.88679245283019em" y="29.43535219721004em" fill="#aaa"/><rect width="0.9433962264150944em" height="0.14411265044738986em" x="52.83018867924528em" y="29.85588734955261em" fill="#aaa"/><rect width="0.9433962264150944em" height="0.5593488798184308em" x="53.77358490566038em" y="29.44065112018157em" fill="#aaa"/><rect width="0.9433962264150944em" height="2.699797001665547em" x="54.716981132075475em" y="27.300202998334452em" fill="#aaa"/><rect width="0.9433962264150944em" height="0.8926575460785439em" x="55.660377358490564em" y="29.107342453921458em" fill="#aaa"/><rect width="0.9433962264150944em" height="0.5168135051484564em" x="56.60377358490566em" y="29.483186494851545em" fill="#aaa"/><rect width="0.9433962264150944em" height="0.8052491033790512em" x="57.54716981132076em" y="29.19475089662095em" fill="#aaa"/><rect width="0.9433962264150944em" height="0.1940959411008em" x="58.49056603773585em" y="29.8059040588992em" fill="#aaa"/><rect width="0.9433962264150944em" height="2.154745136219066em" x="59.43396226415094em" y="27.845254863780934em" fill="#aaa"/><rect width="0.9433962264150944em" height="15.056757671223165em" x="60.37735849056604em" y="14.943242328776835em" fill="#aaa"/><rect width="0.9433962264150944em" height="3.332546118070734em" x="61.320754716981135em" y="26.667453881929266em" fill="#aaa"/><rect width="0.9433962264150944em" height="3.112280329123849em" x="62.264150943396224em" y="26.88771967087615em" fill="#aaa"/><rect width="0.9433962264150944em" height="5.460312818323383em" x="63.20754716981132em" y="24.539687181676616em" fill="#aaa"/><rect width="0.9433962264150944em" height="2.3834448724009922em" x="64.15094339622641em" y="27.616555127599007em" fill="#aaa"/><rect width="0.9433962264150944em" height="2.3257026852179132em" x="65.09433962264151em" y="27.674297314782088em" fill="#aaa"/><rect width="0.9433962264150944em" height="5.465291066415601em" x="66.0377358490566em" y="24.534708933584398em" fill="#aaa"/><rect width="0.9433962264150944em" height="1.1791245927498846em" x="66.9811320754717em" y="28.820875407250114em" fill="#aaa"/><rect width="0.9433962264150944em" height="4.31658125732523em" x="67.9245283018868em" y="25.68341874267477em" fill="#aaa"/><rect width="0.9433962264150944em" height="3.698991511883261em" x="68.86792452830188em" y="26.30100848811674em" fill="#aaa"/><rect width="0.9433962264150944em" height="2.3811322387488985em" x="69.81132075471699em" y="27.618867761251103em" fill="#aaa"/><rect width="0.9433962264150944em" height="7.232602988285601em" x="70.75471698113208em" y="22.7673970117144em" fill="#aaa"/><rect width="0.9433962264150944em" height="3.649715368744987em" x="71.69811320754717em" y="26.350284631255015em" fill="#aaa"/><rect width="0.9433962264150944em" height="1.9066979006486122em" x="72.64150943396227em" y="28.093302099351387em" fill="#aaa"/><rect width="0.9433962264150944em" height="1.013898631160192em" x="73.58490566037736em" y="28.986101368839808em" fill="#aaa"/><rect width="0.9433962264150944em" height="2.035533644410845em" x="74.52830188679245em" y="27.964466355589156em" fill="#aaa"/><rect width="0.9433962264150944em" height="2.497809670469774em" x="75.47169811320755em" y="27.502190329530226em" fill="#aaa"/><rect width="0.9433962264150944em" height="7.5792996673098045em" x="76.41509433962264em" y="22.420700332690195em" fill="#aaa"/><rect width="0.9433962264150944em" height="4.478602872758875em" x="77.35849056603773em" y="25.521397127241123em" fill="#aaa"/><rect width="0.9433962264150944em" height="3.1194866913366583em" x="78.30188679245283em" y="26.880513308663343em" fill="#aaa"/><rect width="0.9433962264150944em" height="1.3120580830929227em" x="79.24528301886792em" y="28.68794191690708em" fill="#aaa"/><rect width="0.9433962264150944em" height="3.9174257161313504em" x="80.18867924528303em" y="26.08257428386865em" fill="#aaa"/><rect width="0.9433962264150944em" height="5.856218779214726em" x="81.13207547169812em" y="24.143781220785275em" fill="#aaa"/><rect width="0.9433962264150944em" height="3.9309968040589247em" x="82.0754716981132em" y="26.069003195941075em" fill="#aaa"/><rect width="0.9433962264150944em" height="12.851835625658316em" x="83.01886792452831em" y="17.148164374341683em" fill="#aaa"/><rect width="0.9433962264150944em" height="21.705528868568532em" x="83.9622641509434em" y="8.294471131431468em" fill="#aaa"/><rect width="0.9433962264150944em" height="18.841693330368507em" x="84.90566037735849em" y="11.158306669631493em" fill="#aaa"/><rect width="0.9433962264150944em" height="11.146172618460161em" x="85.84905660377359em" y="18.853827381539837em" fill="#aaa"/><rect width="0.9433962264150944em" height="10.149300091365781em" x="86.79245283018868em" y="19.85069990863422em" fill="#aaa"/><rect width="0.9433962264150944em" height="6.601549637920543em" x="87.73584905660377em" y="23.39845036207946em" fill="#aaa"/><rect width="0.9433962264150944em" height="5.052007340161427em" x="88.67924528301887em" y="24.947992659838572em" fill="#aaa"/><rect width="0.9433962264150944em" height="5.4876546148016025em" x="89.62264150943396em" y="24.512345385198397em" fill="#aaa"/><rect width="0.9433962264150944em" height="2.295206384938787em" x="90.56603773584905em" y="27.704793615061213em" fill="#aaa"/><rect width="0.9433962264150944em" height="1.6662922348165672em" x="91.50943396226415em" y="28.333707765183433em" fill="#aaa"/><rect width="0.9433962264150944em" height="1.3034378269779163em" x="92.45283018867924em" y="28.696562173022084em" fill="#aaa"/><rect width="0.9433962264150944em" height="4.220274874973645em" x="93.39622641509435em" y="25.779725125026353em" fill="#aaa"/><rect width="0.9433962264150944em" height="0.9749604959691675em" x="94.33962264150944em" y="29.025039504030833em" fill="#aaa"/><rect width="0.9433962264150944em" height="1.2735979272446638em" x="95.28301886792453em" y="28.726402072755334em" fill="#aaa"/><rect width="0.9433962264150944em" height="5.5205397281027855em" x="96.22641509433963em" y="24.479460271897214em" fill="#aaa"/><rect width="0.9433962264150944em" height="23.299255042085033em" x="97.16981132075472em" y="6.700744957914967em" fill="#aaa"/><rect width="0.9433962264150944em" height="3.6284539941527614em" x="98.11320754716981em" y="26.37154600584724em" fill="#aaa"/><rect width="0.9433962264150944em" height="6.860680648062313em" x="99.05660377358491em" y="23.139319351937687em" fill="#aaa"/></svg>