<?xml version="1.0" standalone="no"?>
<svg xmlns:xlink="http://www.w3.org/1999/xlink" xmlns="http://www.w3.org/2000/svg" class="topic-graph" style="width: 100em; height: 30em; text-align: center;"><rect width="0.9433962264150944em" height="1.6192408198487724em" x="0em" y="28.380759180151227em" fill="#aaa"/><rect width="0.9433962264150944em" height="0.6190528554260375em" x="0.9433962264150944em" y="29.380947144573963em" fill="#aaa"/><rect width="0.9433962264150944em" height="1.3066353864075968em" x="1.8867924528301887em" y="28.693364613592404em" fill="#aaa"/><rect width="0.9433962264150944em" height="1.1598707830652237em" x="2.830188679245283em" y="28.840129216934777em" fill="#aaa"/><rect width="0.9433962264150944em" height="0.6169576337277048em" x="3.7735849056603774em" y="29.383042366272296em" fill="#aaa"/><rect width="0.9433962264150944em" height="0.3439413692357512em" x="4.716981132075472em" y="29.65605863076425em" fill="#aaa"/><rect width="0.9433962264150944em" height="1.3079240298868413em" x="5.660377358490566em" y="28.69207597011316em" fill="#aaa"/><rect width="0.9433962264150944em" height="0.0710645778729372em" x="6.60377358490566em" y="29.92893542212706em" fill="#aaa"/><rect width="0.9433962264150944em" height="2.669138601305025em" x="7.547169811320755em" y="27.330861398694974em" fill="#aaa"/><rect width="0.9433962264150944em" height="0.9745004197033187em" x="8.49056603773585em" y="29.02549958029668em" fill="#aaa"/><rect width="0.9433962264150944em" height="1.0856023574215075em" x="9.433962264150944em" y="28.914397642578493em" fill="#aaa"/><rect width="0.9433962264150944em" height="5.431598915829126em" x="10.377358490566039em" y="24.568401084170873em" fill="#aaa"/><rect width="0.9433962264150944em" height="1.8585272619007427em" x="11.320754716981131em" y="28.141472738099257em" fill="#aaa"/><rect width="0.9433962264150944em" height="0em" x="12.264150943396226em" y="30em" fill="#aaa"/><rect width="0.9433962264150944em" height="0.2371231915178138em" x="13.20754716981132em" y="29.762876808482186em" fill="#aaa"/><rect width="0.9433962264150944em" height="1.9285863484668784em" x="14.150943396226415em" y="28.07141365153312em" fill="#aaa"/><rect width="0.9433962264150944em" height="1.1883439720117608em" x="15.09433962264151em" y="28.81165602798824em" fill="#aaa"/><rect width="0.9433962264150944em" height="1.5573323767624498em" x="16.037735849056602em" y="28.44266762323755em" fill="#aaa"/><rect width="0.9433962264150944em" height="1.4412556112681285em" x="16.9811320754717em" y="28.55874438873187em" fill="#aaa"/><rect width="0.9433962264150944em" height="0.9562738754110428em" x="17.92452830188679em" y="29.043726124588957em" fill="#aaa"/><rect width="0.9433962264150944em" height="1.1436063513598758em" x="18.867924528301888em" y="28.856393648640125em" fill="#aaa"/><rect width="0.9433962264150944em" height="1.3619530229277546em" x="19.81132075471698em" y="28.638046977072246em" fill="#aaa"/><rect width="0.9433962264150944em" height="2.116693977009594em" x="20.754716981132077em" y="27.883306022990407em" fill="#aaa"/><rect width="0.9433962264150944em" height="1.158745150922388em" x="21.69811320754717em" y="28.84125484907761em" fill="#aaa"/><rect width="0.9433962264150944em" height="1.2925158406494024em" x="22.641509433962263em" y="28.7074841593506em" fill="#aaa"/><rect width="0.9433962264150944em" height="1.2100073477659414em" x="23.58490566037736em" y="28.78999265223406em" fill="#aaa"/><rect width="0.9433962264150944em" height="0em" x="24.528301886792452em" y="30em" fill="#aaa"/><rect width="0.9433962264150944em" height="1.327436455243341em" x="25.471698113207548em" y="28.67256354475666em" fill="#aaa"/><rect width="0.9433962264150944em" height="2.2976334943153676em" x="26.41509433962264em" y="27.702366505684633em" fill="#aaa"/><rect width="0.9433962264150944em" height="3.078670939188456em" x="27.358490566037737em" y="26.921329060811544em" fill="#aaa"/><rect width="0.9433962264150944em" height="1.9656912745387116em" x="28.30188679245283em" y="28.034308725461287em" fill="#aaa"/><rect width="0.9433962264150944em" height="0.8972246979577997em" x="29.245283018867926em" y="29.1027753020422em" fill="#aaa"/><rect width="0.9433962264150944em" height="2.9541193920688325em" x="30.18867924528302em" y="27.045880607931167em" fill="#aaa"/><rect width="0.9433962264150944em" height="3.5618294432741573em" x="31.132075471698112em" y="26.438170556725844em" fill="#aaa"/><rect width="0.9433962264150944em" height="1.6675165740121383em" x="32.075471698113205em" y="28.33248342598786em" fill="#aaa"/><rect width="0.9433962264150944em" height="1.1614430916294627em" x="33.0188679245283em" y="28.83855690837054em" fill="#aaa"/><rect width="0.9433962264150944em" height="1.0371364965334526em" x="33.9622641509434em" y="28.962863503466547em" fill="#aaa"/><rect width="0.9433962264150944em" height="5.731896918066957em" x="34.905660377358494em" y="24.26810308193304em" fill="#aaa"/><rect width="0.9433962264150944em" height="4.133909566488734em" x="35.84905660377358em" y="25.866090433511268em" fill="#aaa"/><rect width="0.9433962264150944em" height="2.123452571989058em" x="36.79245283018868em" y="27.87654742801094em" fill="#aaa"/><rect width="0.9433962264150944em" height="8.165852088506705em" x="37.735849056603776em" y="21.834147911493297em" fill="#aaa"/><rect width="0.9433962264150944em" height="3.8814306168900865em" x="38.679245283018865em" y="26.118569383109914em" fill="#aaa"/><rect width="0.9433962264150944em" height="2.0560848897261557em" x="39.62264150943396em" y="27.943915110273846em" fill="#aaa"/><rect width="0.9433962264150944em" height="2.419993453333913em" x="40.56603773584906em" y="27.580006546666088em" fill="#aaa"/><rect width="0.9433962264150944em" height="3.842780587526971em" x="41.509433962264154em" y="26.15721941247303em" fill="#aaa"/><rect width="0.9433962264150944em" height="1.8021760876697448em" x="42.45283018867924em" y="28.197823912330254em" fill="#aaa"/><rect width="0.9433962264150944em" height="4.611550384001673em" x="43.39622641509434em" y="25.388449615998326em" fill="#aaa"/><rect width="0.9433962264150944em" height="3.247099102812324em" x="44.339622641509436em" y="26.752900897187676em" fill="#aaa"/><rect width="0.9433962264150944em" height="1.9066285701936134em" x="45.283018867924525em" y="28.093371429806385em" fill="#aaa"/><rect width="0.9433962264150944em" height="5.441486836390695em" x="46.22641509433962em" y="24.558513163609305em" fill="#aaa"/><rect width="0.9433962264150944em" height="5.557458124595816em" x="47.16981132075472em" y="24.442541875404185em" fill="#aaa"/><rect width="0.9433962264150944em" height="4.522541651299536em" x="48.113207547169814em" y="25.477458348700466em" fill="#aaa"/><rect width="0.9433962264150944em" height="2.8428012660091455em" x="49.056603773584904em" y="27.157198733990853em" fill="#aaa"/><rect width="0.9433962264150944em" height="2.239581639934094em" x="50em" y="27.760418360065906em" fill="#aaa"/><rect width="0.9433962264150944em" height="7.932804791551426em" x="50.943396226415096em" y="22.067195208448574em" fill="#aaa"/><rect width="0.9433962264150944em" height="25.07224514980062em" x="51.88679245283019em" y="4.927754850199381em" fill="#aaa"/><rect width="0.9433962264150944em" height="11.353971813451167em" x="52.83018867924528em" y="18.646028186548833em" fill="#aaa"/><rect width="0.9433962264150944em" height="4.371152280827831em" x="53.77358490566038em" y="25.62884771917217em" fill="#aaa"/><rect width="0.9433962264150944em" height="5.980942080915067em" x="54.716981132075475em" y="24.019057919084933em" fill="#aaa"/><rect width="0.9433962264150944em" height="16.964775455456955em" x="55.660377358490564em" y="13.035224544543045em" fill="#aaa"/><rect width="0.9433962264150944em" height="16.549871997662553em" x="56.60377358490566em" y="13.450128002337447em" fill="#aaa"/><rect width="0.9433962264150944em" height="5.3194098745600416em" x="57.54716981132076em" y="24.68059012543996em" fill="#aaa"/><rect width="0.9433962264150944em" height="30em" x="58.49056603773585em" y="0em" fill="#aaa"/><rect width="0.9433962264150944em" height="3.820333836601495em" x="59.43396226415094em" y="26.179666163398505em" fill="#aaa"/><rect width="0.9433962264150944em" height="0.9346986427236872em" x="60.37735849056604em" y="29.06530135727631em" fill="#aaa"/><rect width="0.9433962264150944em" height="3.250609966211431em" x="61.320754716981135em" y="26.74939003378857em" fill="#aaa"/><rect width="0.9433962264150944em" height="4.195765069847137em" x="62.264150943396224em" y="25.804234930152862em" fill="#aaa"/><rect width="0.9433962264150944em" height="5.205532391177002em" x="63.20754716981132em" y="24.794467608823em" fill="#aaa"/><rect width="0.9433962264150944em" height="3.9019334409497404em" x="64.15094339622641em" y="26.09806655905026em" fill="#aaa"/><rect width="0.9433962264150944em" height="9.686147005381272em" x="65.09433962264151em" y="20.313852994618728em" fill="#aaa"/><rect width="0.9433962264150944em" height="11.986217632515007em" x="66.0377358490566em" y="18.013782367484993em" fill="#aaa"/><rect width="0.9433962264150944em" height="2.7190953942148792em" x="66.9811320754717em" y="27.28090460578512em" fill="#aaa"/><rect width="0.9433962264150944em" height="10.60418247546577em" x="67.9245283018868em" y="19.39581752453423em" fill="#aaa"/><rect width="0.9433962264150944em" height="6.967444569972176em" x="68.86792452830188em" y="23.032555430027823em" fill="#aaa"/><rect width="0.9433962264150944em" height="7.726643395227397em" x="69.81132075471699em" y="22.2733566047726em" fill="#aaa"/><rect width="0.9433962264150944em" height="6.422417108404032em" x="70.75471698113208em" y="23.577582891595966em" fill="#aaa"/><rect width="0.9433962264150944em" height="13.61683395804746em" x="71.69811320754717em" y="16.383166041952542em" fill="#aaa"/><rect width="0.9433962264150944em" height="3.9386285895236277em" x="72.64150943396227em" y="26.061371410476372em" fill="#aaa"/><rect width="0.9433962264150944em" height="3.4291689939516052em" x="73.58490566037736em" y="26.570831006048394em" fill="#aaa"/><rect width="0.9433962264150944em" height="4.372218098762533em" x="74.52830188679245em" y="25.627781901237466em" fill="#aaa"/><rect width="0.9433962264150944em" height="7.7358345868202285em" x="75.47169811320755em" y="22.26416541317977em" fill="#aaa"/><rect width="0.9433962264150944em" height="8.249962197562306em" x="76.41509433962264em" y="21.750037802437696em" fill="#aaa"/><rect width="0.9433962264150944em" height="8.660797269947595em" x="77.35849056603773em" y="21.339202730052406em" fill="#aaa"/><rect width="0.9433962264150944em" height="8.525322035281091em" x="78.30188679245283em" y="21.474677964718907em" fill="#aaa"/><rect width="0.9433962264150944em" height="7.197347656974714em" x="79.24528301886792em" y="22.802652343025287em" fill="#aaa"/><rect width="0.9433962264150944em" height="8.932725930721556em" x="80.18867924528303em" y="21.067274069278444em" fill="#aaa"/><rect width="0.9433962264150944em" height="14.035472525873477em" x="81.13207547169812em" y="15.964527474126523em" fill="#aaa"/><rect width="0.9433962264150944em" height="7.531606882624987em" x="82.0754716981132em" y="22.46839311737501em" fill="#aaa"/><rect width="0.9433962264150944em" height="3.332412874400035em" x="83.01886792452831em" y="26.667587125599965em" fill="#aaa"/><rect width="0.9433962264150944em" height="10.33850557355193em" x="83.9622641509434em" y="19.661494426448073em" fill="#aaa"/><rect width="0.9433962264150944em" height="6.9244729408906895em" x="84.90566037735849em" y="23.075527059109312em" fill="#aaa"/><rect width="0.9433962264150944em" height="10.263144833736224em" x="85.84905660377359em" y="19.736855166263776em" fill="#aaa"/><rect width="0.9433962264150944em" height="5.799995426798668em" x="86.79245283018868em" y="24.200004573201333em" fill="#aaa"/><rect width="0.9433962264150944em" height="8.385565971389784em" x="87.73584905660377em" y="21.614434028610216em" fill="#aaa"/><rect width="0.9433962264150944em" height="7.564495029171194em" x="88.67924528301887em" y="22.435504970828806em" fill="#aaa"/><rect width="0.9433962264150944em" height="7.97739778276074em" x="89.62264150943396em" y="22.02260221723926em" fill="#aaa"/><rect width="0.9433962264150944em" height="7.939248284991142em" x="90.56603773584905em" y="22.06075171500886em" fill="#aaa"/><rect width="0.9433962264150944em" height="5.584151133854716em" x="91.50943396226415em" y="24.415848866145282em" fill="#aaa"/><rect width="0.9433962264150944em" height="5.753993307409458em" x="92.45283018867924em" y="24.24600669259054em" fill="#aaa"/><rect width="0.9433962264150944em" height="4.070559880875797em" x="93.39622641509435em" y="25.9294401191242em" fill="#aaa"/><rect width="0.9433962264150944em" height="3.9893897958111997em" x="94.33962264150944em" y="26.0106102041888em" fill="#aaa"/><rect width="0.9433962264150944em" height="11.01180712218725em" x="95.28301886792453em" y="18.98819287781275em" fill="#aaa"/><rect width="0.9433962264150944em" height="15.957319534113083em" x="96.22641509433963em" y="14.042680465886917em" fill="#aaa"/><rect width="0.9433962264150944em" height="6.646585527940289em" x="97.16981132075472em" y="23.35341447205971em" fill="#aaa"/><rect width="0.9433962264150944em" height="7.193923363833504em" x="98.11320754716981em" y="22.806076636166495em" fill="#aaa"/><rect width="0.9433962264150944em" height="8.432576792357091em" x="99.05660377358491em" y="21.56742320764291em" fill="#aaa"/></svg>