<?xml version="1.0" standalone="no"?>
<svg xmlns:xlink="http://www.w3.org/1999/xlink" xmlns="http://www.w3.org/2000/svg" class="topic-graph" style="width: 100em; height: 30em; text-align: center;"><rect width="0.9433962264150944em" height="0.21036758085022073em" x="0em" y="29.78963241914978em" fill="#aaa"/><rect width="0.9433962264150944em" height="1.4153881229592535em" x="0.9433962264150944em" y="28.584611877040746em" fill="#aaa"/><rect width="0.9433962264150944em" height="0.009596086345803808em" x="1.8867924528301887em" y="29.990403913654195em" fill="#aaa"/><rect width="0.9433962264150944em" height="0.11435951360139644em" x="2.830188679245283em" y="29.885640486398604em" fill="#aaa"/><rect width="0.9433962264150944em" height="0.4083419262300306em" x="3.7735849056603774em" y="29.59165807376997em" fill="#aaa"/><rect width="0.9433962264150944em" height="0.3827643707507521em" x="4.716981132075472em" y="29.617235629249247em" fill="#aaa"/><rect width="0.9433962264150944em" height="0.5069619038553428em" x="5.660377358490566em" y="29.49303809614466em" fill="#aaa"/><rect width="0.9433962264150944em" height="0.5701131119052693em" x="6.60377358490566em" y="29.42988688809473em" fill="#aaa"/><rect width="0.9433962264150944em" height="0.41600423487940064em" x="7.547169811320755em" y="29.583995765120598em" fill="#aaa"/><rect width="0.9433962264150944em" height="0.26911260218143734em" x="8.49056603773585em" y="29.730887397818563em" fill="#aaa"/><rect width="0.9433962264150944em" height="0.07992687386644964em" x="9.433962264150944em" y="29.920073126133552em" fill="#aaa"/><rect width="0.9433962264150944em" height="0.11419662933495456em" x="10.377358490566039em" y="29.885803370665045em" fill="#aaa"/><rect width="0.9433962264150944em" height="0.44791086997559615em" x="11.320754716981131em" y="29.552089130024402em" fill="#aaa"/><rect width="0.9433962264150944em" height="0em" x="12.264150943396226em" y="30em" fill="#aaa"/><rect width="0.9433962264150944em" height="0.06050362856845837em" x="13.20754716981132em" y="29.93949637143154em" fill="#aaa"/><rect width="0.9433962264150944em" height="0.34762938707523466em" x="14.150943396226415em" y="29.652370612924766em" fill="#aaa"/><rect width="0.9433962264150944em" height="0.2326880364547207em" x="15.09433962264151em" y="29.76731196354528em" fill="#aaa"/><rect width="0.9433962264150944em" height="0.12580822064096162em" x="16.037735849056602em" y="29.874191779359037em" fill="#aaa"/><rect width="0.9433962264150944em" height="0.03457881727549291em" x="16.9811320754717em" y="29.96542118272451em" fill="#aaa"/><rect width="0.9433962264150944em" height="0.2566656995171926em" x="17.92452830188679em" y="29.743334300482807em" fill="#aaa"/><rect width="0.9433962264150944em" height="0.6756426791854624em" x="18.867924528301888em" y="29.32435732081454em" fill="#aaa"/><rect width="0.9433962264150944em" height="0.7733552992578935em" x="19.81132075471698em" y="29.226644700742106em" fill="#aaa"/><rect width="0.9433962264150944em" height="0.21812480096575695em" x="20.754716981132077em" y="29.781875199034243em" fill="#aaa"/><rect width="0.9433962264150944em" height="0.6359812558238545em" x="21.69811320754717em" y="29.364018744176146em" fill="#aaa"/><rect width="0.9433962264150944em" height="0.4958677835999905em" x="22.641509433962263em" y="29.50413221640001em" fill="#aaa"/><rect width="0.9433962264150944em" height="0.34058074035426283em" x="23.58490566037736em" y="29.659419259645738em" fill="#aaa"/><rect width="0.9433962264150944em" height="0em" x="24.528301886792452em" y="30em" fill="#aaa"/><rect width="0.9433962264150944em" height="0.8930536631706929em" x="25.471698113207548em" y="29.106946336829306em" fill="#aaa"/><rect width="0.9433962264150944em" height="0.12392448433236285em" x="26.41509433962264em" y="29.876075515667637em" fill="#aaa"/><rect width="0.9433962264150944em" height="0.5952707262177723em" x="27.358490566037737em" y="29.404729273782227em" fill="#aaa"/><rect width="0.9433962264150944em" height="0.38768371419047515em" x="28.30188679245283em" y="29.612316285809523em" fill="#aaa"/><rect width="0.9433962264150944em" height="0.20214161621215487em" x="29.245283018867926em" y="29.797858383787844em" fill="#aaa"/><rect width="0.9433962264150944em" height="1.1036375810523198em" x="30.18867924528302em" y="28.89636241894768em" fill="#aaa"/><rect width="0.9433962264150944em" height="0.8580148537355062em" x="31.132075471698112em" y="29.141985146264492em" fill="#aaa"/><rect width="0.9433962264150944em" height="0.47057262338646577em" x="32.075471698113205em" y="29.529427376613533em" fill="#aaa"/><rect width="0.9433962264150944em" height="0.9281689880102141em" x="33.0188679245283em" y="29.071831011989786em" fill="#aaa"/><rect width="0.9433962264150944em" height="0.8000803167915483em" x="33.9622641509434em" y="29.199919683208453em" fill="#aaa"/><rect width="0.9433962264150944em" height="0.43509373207793034em" x="34.905660377358494em" y="29.56490626792207em" fill="#aaa"/><rect width="0.9433962264150944em" height="0.4879332034162406em" x="35.84905660377358em" y="29.51206679658376em" fill="#aaa"/><rect width="0.9433962264150944em" height="0.339884873836196em" x="36.79245283018868em" y="29.660115126163802em" fill="#aaa"/><rect width="0.9433962264150944em" height="0.38703905665673205em" x="37.735849056603776em" y="29.612960943343268em" fill="#aaa"/><rect width="0.9433962264150944em" height="0.2574654680392202em" x="38.679245283018865em" y="29.74253453196078em" fill="#aaa"/><rect width="0.9433962264150944em" height="0.8354014220810319em" x="39.62264150943396em" y="29.16459857791897em" fill="#aaa"/><rect width="0.9433962264150944em" height="0.2306997880186975em" x="40.56603773584906em" y="29.769300211981303em" fill="#aaa"/><rect width="0.9433962264150944em" height="0.4256300595813691em" x="41.509433962264154em" y="29.57436994041863em" fill="#aaa"/><rect width="0.9433962264150944em" height="0.7304474077566788em" x="42.45283018867924em" y="29.269552592243322em" fill="#aaa"/><rect width="0.9433962264150944em" height="0.5734617475507208em" x="43.39622641509434em" y="29.42653825244928em" fill="#aaa"/><rect width="0.9433962264150944em" height="1.3446216209246102em" x="44.339622641509436em" y="28.65537837907539em" fill="#aaa"/><rect width="0.9433962264150944em" height="1.6147892899360279em" x="45.283018867924525em" y="28.385210710063973em" fill="#aaa"/><rect width="0.9433962264150944em" height="0.3532587729122845em" x="46.22641509433962em" y="29.646741227087716em" fill="#aaa"/><rect width="0.9433962264150944em" height="1.7517409057423912em" x="47.16981132075472em" y="28.24825909425761em" fill="#aaa"/><rect width="0.9433962264150944em" height="0.565909210349353em" x="48.113207547169814em" y="29.434090789650647em" fill="#aaa"/><rect width="0.9433962264150944em" height="0.5139638105201411em" x="49.056603773584904em" y="29.486036189479858em" fill="#aaa"/><rect width="0.9433962264150944em" height="0.5255861419441641em" x="50em" y="29.474413858055836em" fill="#aaa"/><rect width="0.9433962264150944em" height="2.3877872966783342em" x="50.943396226415096em" y="27.612212703321667em" fill="#aaa"/><rect width="0.9433962264150944em" height="0.8451045374169752em" x="51.88679245283019em" y="29.154895462583024em" fill="#aaa"/><rect width="0.9433962264150944em" height="2.075025143436079em" x="52.83018867924528em" y="27.92497485656392em" fill="#aaa"/><rect width="0.9433962264150944em" height="0.7286655766945975em" x="53.77358490566038em" y="29.2713344233054em" fill="#aaa"/><rect width="0.9433962264150944em" height="0.9691110090953009em" x="54.716981132075475em" y="29.0308889909047em" fill="#aaa"/><rect width="0.9433962264150944em" height="1.2734253160450342em" x="55.660377358490564em" y="28.726574683954965em" fill="#aaa"/><rect width="0.9433962264150944em" height="0.323475142528947em" x="56.60377358490566em" y="29.676524857471055em" fill="#aaa"/><rect width="0.9433962264150944em" height="0.5070477011230865em" x="57.54716981132076em" y="29.492952298876915em" fill="#aaa"/><rect width="0.9433962264150944em" height="0.7205258698968057em" x="58.49056603773585em" y="29.279474130103193em" fill="#aaa"/><rect width="0.9433962264150944em" height="2.5864657419441444em" x="59.43396226415094em" y="27.413534258055854em" fill="#aaa"/><rect width="0.9433962264150944em" height="2.083832437166992em" x="60.37735849056604em" y="27.916167562833007em" fill="#aaa"/><rect width="0.9433962264150944em" height="1.066295603475253em" x="61.320754716981135em" y="28.933704396524746em" fill="#aaa"/><rect width="0.9433962264150944em" height="5.601011266726385em" x="62.264150943396224em" y="24.398988733273615em" fill="#aaa"/><rect width="0.9433962264150944em" height="8.972745803158201em" x="63.20754716981132em" y="21.0272541968418em" fill="#aaa"/><rect width="0.9433962264150944em" height="3.2430929527945467em" x="64.15094339622641em" y="26.756907047205452em" fill="#aaa"/><rect width="0.9433962264150944em" height="4.059883602062867em" x="65.09433962264151em" y="25.940116397937132em" fill="#aaa"/><rect width="0.9433962264150944em" height="2.3054906452294253em" x="66.0377358490566em" y="27.694509354770574em" fill="#aaa"/><rect width="0.9433962264150944em" height="2.401953594131872em" x="66.9811320754717em" y="27.59804640586813em" fill="#aaa"/><rect width="0.9433962264150944em" height="5.099089748655451em" x="67.9245283018868em" y="24.90091025134455em" fill="#aaa"/><rect width="0.9433962264150944em" height="2.0773592858459295em" x="68.86792452830188em" y="27.92264071415407em" fill="#aaa"/><rect width="0.9433962264150944em" height="1.463063636124644em" x="69.81132075471699em" y="28.536936363875355em" fill="#aaa"/><rect width="0.9433962264150944em" height="3.7637503599139115em" x="70.75471698113208em" y="26.23624964008609em" fill="#aaa"/><rect width="0.9433962264150944em" height="6.058054171137552em" x="71.69811320754717em" y="23.941945828862448em" fill="#aaa"/><rect width="0.9433962264150944em" height="5.495752861157916em" x="72.64150943396227em" y="24.504247138842082em" fill="#aaa"/><rect width="0.9433962264150944em" height="15.012285528748293em" x="73.58490566037736em" y="14.987714471251707em" fill="#aaa"/><rect width="0.9433962264150944em" height="24.00310013784533em" x="74.52830188679245em" y="5.99689986215467em" fill="#aaa"/><rect width="0.9433962264150944em" height="13.791229259386258em" x="75.47169811320755em" y="16.208770740613744em" fill="#aaa"/><rect width="0.9433962264150944em" height="5.677330859077536em" x="76.41509433962264em" y="24.322669140922464em" fill="#aaa"/><rect width="0.9433962264150944em" height="11.154130752412467em" x="77.35849056603773em" y="18.845869247587533em" fill="#aaa"/><rect width="0.9433962264150944em" height="9.098904861121266em" x="78.30188679245283em" y="20.901095138878734em" fill="#aaa"/><rect width="0.9433962264150944em" height="30em" x="79.24528301886792em" y="0em" fill="#aaa"/><rect width="0.9433962264150944em" height="7.566349693691183em" x="80.18867924528303em" y="22.433650306308817em" fill="#aaa"/><rect width="0.9433962264150944em" height="11.823323814667084em" x="81.13207547169812em" y="18.176676185332916em" fill="#aaa"/><rect width="0.9433962264150944em" height="7.002900879812884em" x="82.0754716981132em" y="22.997099120187116em" fill="#aaa"/><rect width="0.9433962264150944em" height="11.532760267981224em" x="83.01886792452831em" y="18.467239732018776em" fill="#aaa"/><rect width="0.9433962264150944em" height="12.25784451748258em" x="83.9622641509434em" y="17.74215548251742em" fill="#aaa"/><rect width="0.9433962264150944em" height="14.397017544918164em" x="84.90566037735849em" y="15.602982455081836em" fill="#aaa"/><rect width="0.9433962264150944em" height="15.50815854078243em" x="85.84905660377359em" y="14.49184145921757em" fill="#aaa"/><rect width="0.9433962264150944em" height="4.49908709251278em" x="86.79245283018868em" y="25.50091290748722em" fill="#aaa"/><rect width="0.9433962264150944em" height="15.563025679517498em" x="87.73584905660377em" y="14.436974320482502em" fill="#aaa"/><rect width="0.9433962264150944em" height="11.763567345850989em" x="88.67924528301887em" y="18.236432654149013em" fill="#aaa"/><rect width="0.9433962264150944em" height="14.339139810940386em" x="89.62264150943396em" y="15.660860189059614em" fill="#aaa"/><rect width="0.9433962264150944em" height="13.813854054016534em" x="90.56603773584905em" y="16.186145945983466em" fill="#aaa"/><rect width="0.9433962264150944em" height="10.888732978525407em" x="91.50943396226415em" y="19.111267021474593em" fill="#aaa"/><rect width="0.9433962264150944em" height="2.3675522989730173em" x="92.45283018867924em" y="27.632447701026983em" fill="#aaa"/><rect width="0.9433962264150944em" height="14.726946815543084em" x="93.39622641509435em" y="15.273053184456916em" fill="#aaa"/><rect width="0.9433962264150944em" height="9.200671026749013em" x="94.33962264150944em" y="20.799328973250987em" fill="#aaa"/><rect width="0.9433962264150944em" height="7.6489569182687065em" x="95.28301886792453em" y="22.351043081731294em" fill="#aaa"/><rect width="0.9433962264150944em" height="1.8645005246011785em" x="96.22641509433963em" y="28.13549947539882em" fill="#aaa"/><rect width="0.9433962264150944em" height="24.02997657154207em" x="97.16981132075472em" y="5.970023428457932em" fill="#aaa"/><rect width="0.9433962264150944em" height="12.910026503567224em" x="98.11320754716981em" y="17.089973496432776em" fill="#aaa"/><rect width="0.9433962264150944em" height="8.760405919050248em" x="99.05660377358491em" y="21.23959408094975em" fill="#aaa"/></svg>