<?xml version="1.0" standalone="no"?>
<svg xmlns:xlink="http://www.w3.org/1999/xlink" xmlns="http://www.w3.org/2000/svg" class="topic-graph" style="width: 100em; height: 30em; text-align: center;"><rect width="0.9433962264150944em" height="0.6487303534819849em" x="0em" y="29.351269646518016em" fill="#aaa"/><rect width="0.9433962264150944em" height="5.360038093282253em" x="0.9433962264150944em" y="24.639961906717748em" fill="#aaa"/><rect width="0.9433962264150944em" height="0.3542406452747157em" x="1.8867924528301887em" y="29.645759354725286em" fill="#aaa"/><rect width="0.9433962264150944em" height="6.201222023093517em" x="2.830188679245283em" y="23.798777976906482em" fill="#aaa"/><rect width="0.9433962264150944em" height="10.916939629099625em" x="3.7735849056603774em" y="19.083060370900377em" fill="#aaa"/><rect width="0.9433962264150944em" height="7.645922390623898em" x="4.716981132075472em" y="22.3540776093761em" fill="#aaa"/><rect width="0.9433962264150944em" height="9.984084719713966em" x="5.660377358490566em" y="20.015915280286034em" fill="#aaa"/><rect width="0.9433962264150944em" height="25.781446046482305em" x="6.60377358490566em" y="4.218553953517695em" fill="#aaa"/><rect width="0.9433962264150944em" height="1.697160964427155em" x="7.547169811320755em" y="28.302839035572845em" fill="#aaa"/><rect width="0.9433962264150944em" height="10.299197583626235em" x="8.49056603773585em" y="19.700802416373765em" fill="#aaa"/><rect width="0.9433962264150944em" height="4.037020070189933em" x="9.433962264150944em" y="25.962979929810068em" fill="#aaa"/><rect width="0.9433962264150944em" height="5.11419883606787em" x="10.377358490566039em" y="24.88580116393213em" fill="#aaa"/><rect width="0.9433962264150944em" height="10.693672229418826em" x="11.320754716981131em" y="19.306327770581174em" fill="#aaa"/><rect width="0.9433962264150944em" height="0em" x="12.264150943396226em" y="30em" fill="#aaa"/><rect width="0.9433962264150944em" height="12.100903114941536em" x="13.20754716981132em" y="17.899096885058462em" fill="#aaa"/><rect width="0.9433962264150944em" height="6.104925253116123em" x="14.150943396226415em" y="23.89507474688388em" fill="#aaa"/><rect width="0.9433962264150944em" height="5.0014607548679075em" x="15.09433962264151em" y="24.998539245132093em" fill="#aaa"/><rect width="0.9433962264150944em" height="1.9690862721945426em" x="16.037735849056602em" y="28.03091372780546em" fill="#aaa"/><rect width="0.9433962264150944em" height="6.1534673722885085em" x="16.9811320754717em" y="23.84653262771149em" fill="#aaa"/><rect width="0.9433962264150944em" height="11.23144301120535em" x="17.92452830188679em" y="18.76855698879465em" fill="#aaa"/><rect width="0.9433962264150944em" height="3.6806945909083817em" x="18.867924528301888em" y="26.31930540909162em" fill="#aaa"/><rect width="0.9433962264150944em" height="2.9960124000178205em" x="19.81132075471698em" y="27.003987599982178em" fill="#aaa"/><rect width="0.9433962264150944em" height="3.3467207035629656em" x="20.754716981132077em" y="26.653279296437034em" fill="#aaa"/><rect width="0.9433962264150944em" height="3.6009574548883974em" x="21.69811320754717em" y="26.3990425451116em" fill="#aaa"/><rect width="0.9433962264150944em" height="3.009443574135675em" x="22.641509433962263em" y="26.990556425864327em" fill="#aaa"/><rect width="0.9433962264150944em" height="12.520132449307512em" x="23.58490566037736em" y="17.47986755069249em" fill="#aaa"/><rect width="0.9433962264150944em" height="0em" x="24.528301886792452em" y="30em" fill="#aaa"/><rect width="0.9433962264150944em" height="10.706398405362972em" x="25.471698113207548em" y="19.29360159463703em" fill="#aaa"/><rect width="0.9433962264150944em" height="3.791771436199515em" x="26.41509433962264em" y="26.208228563800485em" fill="#aaa"/><rect width="0.9433962264150944em" height="12.498972030627955em" x="27.358490566037737em" y="17.501027969372046em" fill="#aaa"/><rect width="0.9433962264150944em" height="4.097443017047869em" x="28.30188679245283em" y="25.90255698295213em" fill="#aaa"/><rect width="0.9433962264150944em" height="18.557776291724416em" x="29.245283018867926em" y="11.442223708275584em" fill="#aaa"/><rect width="0.9433962264150944em" height="2.854604621747836em" x="30.18867924528302em" y="27.145395378252164em" fill="#aaa"/><rect width="0.9433962264150944em" height="8.98574588377249em" x="31.132075471698112em" y="21.014254116227512em" fill="#aaa"/><rect width="0.9433962264150944em" height="22.412059608095674em" x="32.075471698113205em" y="7.587940391904326em" fill="#aaa"/><rect width="0.9433962264150944em" height="8.395977803973066em" x="33.0188679245283em" y="21.604022196026932em" fill="#aaa"/><rect width="0.9433962264150944em" height="4.953030478370139em" x="33.9622641509434em" y="25.046969521629862em" fill="#aaa"/><rect width="0.9433962264150944em" height="6.695883567292932em" x="34.905660377358494em" y="23.30411643270707em" fill="#aaa"/><rect width="0.9433962264150944em" height="6.534969329797011em" x="35.84905660377358em" y="23.46503067020299em" fill="#aaa"/><rect width="0.9433962264150944em" height="1.9546014499697357em" x="36.79245283018868em" y="28.045398550030264em" fill="#aaa"/><rect width="0.9433962264150944em" height="6.1783742320128106em" x="37.735849056603776em" y="23.82162576798719em" fill="#aaa"/><rect width="0.9433962264150944em" height="0.5114687321851672em" x="38.679245283018865em" y="29.48853126781483em" fill="#aaa"/><rect width="0.9433962264150944em" height="3.7308990423698676em" x="39.62264150943396em" y="26.269100957630133em" fill="#aaa"/><rect width="0.9433962264150944em" height="7.551906321157376em" x="40.56603773584906em" y="22.448093678842625em" fill="#aaa"/><rect width="0.9433962264150944em" height="10.998695571533933em" x="41.509433962264154em" y="19.001304428466067em" fill="#aaa"/><rect width="0.9433962264150944em" height="2.988154524233588em" x="42.45283018867924em" y="27.011845475766414em" fill="#aaa"/><rect width="0.9433962264150944em" height="2.9730316606400935em" x="43.39622641509434em" y="27.026968339359907em" fill="#aaa"/><rect width="0.9433962264150944em" height="7.126972273949586em" x="44.339622641509436em" y="22.873027726050413em" fill="#aaa"/><rect width="0.9433962264150944em" height="3.226614045282677em" x="45.283018867924525em" y="26.773385954717323em" fill="#aaa"/><rect width="0.9433962264150944em" height="2.386554190554842em" x="46.22641509433962em" y="27.613445809445157em" fill="#aaa"/><rect width="0.9433962264150944em" height="2.5948119614508554em" x="47.16981132075472em" y="27.405188038549145em" fill="#aaa"/><rect width="0.9433962264150944em" height="5.221260538004445em" x="48.113207547169814em" y="24.778739461995556em" fill="#aaa"/><rect width="0.9433962264150944em" height="17.698556451651392em" x="49.056603773584904em" y="12.301443548348608em" fill="#aaa"/><rect width="0.9433962264150944em" height="12.097331259343667em" x="50em" y="17.90266874065633em" fill="#aaa"/><rect width="0.9433962264150944em" height="8.542217472954638em" x="50.943396226415096em" y="21.45778252704536em" fill="#aaa"/><rect width="0.9433962264150944em" height="4.54991348255552em" x="51.88679245283019em" y="25.45008651744448em" fill="#aaa"/><rect width="0.9433962264150944em" height="4.483114365364197em" x="52.83018867924528em" y="25.516885634635802em" fill="#aaa"/><rect width="0.9433962264150944em" height="6.356379757777769em" x="53.77358490566038em" y="23.64362024222223em" fill="#aaa"/><rect width="0.9433962264150944em" height="6.074638992779374em" x="54.716981132075475em" y="23.925361007220626em" fill="#aaa"/><rect width="0.9433962264150944em" height="2.2351564227364524em" x="55.660377358490564em" y="27.764843577263548em" fill="#aaa"/><rect width="0.9433962264150944em" height="6.269850347904474em" x="56.60377358490566em" y="23.730149652095527em" fill="#aaa"/><rect width="0.9433962264150944em" height="5.467048799660977em" x="57.54716981132076em" y="24.532951200339024em" fill="#aaa"/><rect width="0.9433962264150944em" height="12.584173955534276em" x="58.49056603773585em" y="17.415826044465724em" fill="#aaa"/><rect width="0.9433962264150944em" height="2.3147685583677178em" x="59.43396226415094em" y="27.685231441632283em" fill="#aaa"/><rect width="0.9433962264150944em" height="6.811818452569972em" x="60.37735849056604em" y="23.188181547430027em" fill="#aaa"/><rect width="0.9433962264150944em" height="9.191302258489866em" x="61.320754716981135em" y="20.808697741510134em" fill="#aaa"/><rect width="0.9433962264150944em" height="4.807424094386981em" x="62.264150943396224em" y="25.19257590561302em" fill="#aaa"/><rect width="0.9433962264150944em" height="2.096971233643757em" x="63.20754716981132em" y="27.903028766356243em" fill="#aaa"/><rect width="0.9433962264150944em" height="6.66221164503706em" x="64.15094339622641em" y="23.33778835496294em" fill="#aaa"/><rect width="0.9433962264150944em" height="4.2061196745240546em" x="65.09433962264151em" y="25.793880325475946em" fill="#aaa"/><rect width="0.9433962264150944em" height="5.757973112226768em" x="66.0377358490566em" y="24.242026887773232em" fill="#aaa"/><rect width="0.9433962264150944em" height="6.849978024235759em" x="66.9811320754717em" y="23.15002197576424em" fill="#aaa"/><rect width="0.9433962264150944em" height="3.729101617901492em" x="67.9245283018868em" y="26.27089838209851em" fill="#aaa"/><rect width="0.9433962264150944em" height="5.388522544397613em" x="68.86792452830188em" y="24.611477455602387em" fill="#aaa"/><rect width="0.9433962264150944em" height="4.709825914969422em" x="69.81132075471699em" y="25.29017408503058em" fill="#aaa"/><rect width="0.9433962264150944em" height="2.6328666054432284em" x="70.75471698113208em" y="27.36713339455677em" fill="#aaa"/><rect width="0.9433962264150944em" height="3.1828141766765103em" x="71.69811320754717em" y="26.81718582332349em" fill="#aaa"/><rect width="0.9433962264150944em" height="8.262039446147876em" x="72.64150943396227em" y="21.737960553852126em" fill="#aaa"/><rect width="0.9433962264150944em" height="4.440651318112569em" x="73.58490566037736em" y="25.559348681887432em" fill="#aaa"/><rect width="0.9433962264150944em" height="2.8456092865324734em" x="74.52830188679245em" y="27.154390713467528em" fill="#aaa"/><rect width="0.9433962264150944em" height="11.537827245091005em" x="75.47169811320755em" y="18.462172754908995em" fill="#aaa"/><rect width="0.9433962264150944em" height="2.6734215990405543em" x="76.41509433962264em" y="27.326578400959445em" fill="#aaa"/><rect width="0.9433962264150944em" height="5.243270835041437em" x="77.35849056603773em" y="24.756729164958564em" fill="#aaa"/><rect width="0.9433962264150944em" height="8.306726282319255em" x="78.30188679245283em" y="21.693273717680746em" fill="#aaa"/><rect width="0.9433962264150944em" height="8.376553780176561em" x="79.24528301886792em" y="21.62344621982344em" fill="#aaa"/><rect width="0.9433962264150944em" height="5.113407950246932em" x="80.18867924528303em" y="24.88659204975307em" fill="#aaa"/><rect width="0.9433962264150944em" height="4.493515803847552em" x="81.13207547169812em" y="25.50648419615245em" fill="#aaa"/><rect width="0.9433962264150944em" height="5.828533361180937em" x="82.0754716981132em" y="24.171466638819062em" fill="#aaa"/><rect width="0.9433962264150944em" height="6.02665649792344em" x="83.01886792452831em" y="23.97334350207656em" fill="#aaa"/><rect width="0.9433962264150944em" height="15.611979528262667em" x="83.9622641509434em" y="14.388020471737333em" fill="#aaa"/><rect width="0.9433962264150944em" height="9.077142989503429em" x="84.90566037735849em" y="20.92285701049657em" fill="#aaa"/><rect width="0.9433962264150944em" height="11.452896488843272em" x="85.84905660377359em" y="18.547103511156728em" fill="#aaa"/><rect width="0.9433962264150944em" height="9.766821544101905em" x="86.79245283018868em" y="20.233178455898095em" fill="#aaa"/><rect width="0.9433962264150944em" height="10.55670518967897em" x="87.73584905660377em" y="19.443294810321028em" fill="#aaa"/><rect width="0.9433962264150944em" height="14.73492507293355em" x="88.67924528301887em" y="15.26507492706645em" fill="#aaa"/><rect width="0.9433962264150944em" height="11.22993698103577em" x="89.62264150943396em" y="18.77006301896423em" fill="#aaa"/><rect width="0.9433962264150944em" height="10.495327687067569em" x="90.56603773584905em" y="19.50467231293243em" fill="#aaa"/><rect width="0.9433962264150944em" height="18.297698157617386em" x="91.50943396226415em" y="11.702301842382614em" fill="#aaa"/><rect width="0.9433962264150944em" height="20.42483484479462em" x="92.45283018867924em" y="9.57516515520538em" fill="#aaa"/><rect width="0.9433962264150944em" height="10.627294207613176em" x="93.39622641509435em" y="19.372705792386824em" fill="#aaa"/><rect width="0.9433962264150944em" height="12.6630124355041em" x="94.33962264150944em" y="17.3369875644959em" fill="#aaa"/><rect width="0.9433962264150944em" height="4.431753158829575em" x="95.28301886792453em" y="25.568246841170424em" fill="#aaa"/><rect width="0.9433962264150944em" height="6.3910936240824325em" x="96.22641509433963em" y="23.608906375917567em" fill="#aaa"/><rect width="0.9433962264150944em" height="7.963728950510208em" x="97.16981132075472em" y="22.03627104948979em" fill="#aaa"/><rect width="0.9433962264150944em" height="10.168254223803523em" x="98.11320754716981em" y="19.831745776196477em" fill="#aaa"/><rect width="0.9433962264150944em" height="30em" x="99.05660377358491em" y="0em" fill="#aaa"/></svg>