<?xml version="1.0" standalone="no"?>
<svg xmlns:xlink="http://www.w3.org/1999/xlink" xmlns="http://www.w3.org/2000/svg" class="topic-graph" style="width: 100em; height: 30em; text-align: center;"><rect width="0.9433962264150944em" height="0.02868377181447513em" x="0em" y="29.971316228185525em" fill="#aaa"/><rect width="0.9433962264150944em" height="0.0896429817654399em" x="0.9433962264150944em" y="29.91035701823456em" fill="#aaa"/><rect width="0.9433962264150944em" height="1.1003994844736662em" x="1.8867924528301887em" y="28.899600515526334em" fill="#aaa"/><rect width="0.9433962264150944em" height="0.9059915275381158em" x="2.830188679245283em" y="29.094008472461883em" fill="#aaa"/><rect width="0.9433962264150944em" height="0.25909982293429645em" x="3.7735849056603774em" y="29.740900177065704em" fill="#aaa"/><rect width="0.9433962264150944em" height="0.03208348903209498em" x="4.716981132075472em" y="29.967916510967903em" fill="#aaa"/><rect width="0.9433962264150944em" height="0.07533640046026552em" x="5.660377358490566em" y="29.924663599539734em" fill="#aaa"/><rect width="0.9433962264150944em" height="0.0034044719078709525em" x="6.60377358490566em" y="29.99659552809213em" fill="#aaa"/><rect width="0.9433962264150944em" height="0.38577270501106814em" x="7.547169811320755em" y="29.614227294988932em" fill="#aaa"/><rect width="0.9433962264150944em" height="0.2465759119523004em" x="8.49056603773585em" y="29.753424088047698em" fill="#aaa"/><rect width="0.9433962264150944em" height="1.1951947872241977em" x="9.433962264150944em" y="28.804805212775804em" fill="#aaa"/><rect width="0.9433962264150944em" height="0.12205544834238366em" x="10.377358490566039em" y="29.877944551657617em" fill="#aaa"/><rect width="0.9433962264150944em" height="0.004715567990355687em" x="11.320754716981131em" y="29.995284432009644em" fill="#aaa"/><rect width="0.9433962264150944em" height="0em" x="12.264150943396226em" y="30em" fill="#aaa"/><rect width="0.9433962264150944em" height="0.06016081374673648em" x="13.20754716981132em" y="29.939839186253263em" fill="#aaa"/><rect width="0.9433962264150944em" height="0.021256282244356235em" x="14.150943396226415em" y="29.978743717755645em" fill="#aaa"/><rect width="0.9433962264150944em" height="0.08387334613534467em" x="15.09433962264151em" y="29.916126653864655em" fill="#aaa"/><rect width="0.9433962264150944em" height="0.3206056085318939em" x="16.037735849056602em" y="29.679394391468104em" fill="#aaa"/><rect width="0.9433962264150944em" height="0.15461106499154714em" x="16.9811320754717em" y="29.845388935008454em" fill="#aaa"/><rect width="0.9433962264150944em" height="0.008844452050762164em" x="17.92452830188679em" y="29.991155547949237em" fill="#aaa"/><rect width="0.9433962264150944em" height="0.3617303213784785em" x="18.867924528301888em" y="29.638269678621523em" fill="#aaa"/><rect width="0.9433962264150944em" height="0.8589693359352158em" x="19.81132075471698em" y="29.141030664064782em" fill="#aaa"/><rect width="0.9433962264150944em" height="0.7352339102931174em" x="20.754716981132077em" y="29.26476608970688em" fill="#aaa"/><rect width="0.9433962264150944em" height="0.38370286315849655em" x="21.69811320754717em" y="29.616297136841503em" fill="#aaa"/><rect width="0.9433962264150944em" height="0.384579340945838em" x="22.641509433962263em" y="29.615420659054163em" fill="#aaa"/><rect width="0.9433962264150944em" height="0.42145283360294156em" x="23.58490566037736em" y="29.57854716639706em" fill="#aaa"/><rect width="0.9433962264150944em" height="0em" x="24.528301886792452em" y="30em" fill="#aaa"/><rect width="0.9433962264150944em" height="1.2304948736260513em" x="25.471698113207548em" y="28.76950512637395em" fill="#aaa"/><rect width="0.9433962264150944em" height="0.8641543758651928em" x="26.41509433962264em" y="29.135845624134806em" fill="#aaa"/><rect width="0.9433962264150944em" height="0.19281094187025977em" x="27.358490566037737em" y="29.80718905812974em" fill="#aaa"/><rect width="0.9433962264150944em" height="4.940610284265825em" x="28.30188679245283em" y="25.059389715734177em" fill="#aaa"/><rect width="0.9433962264150944em" height="0.01949498432747391em" x="29.245283018867926em" y="29.980505015672527em" fill="#aaa"/><rect width="0.9433962264150944em" height="0.30943687805002873em" x="30.18867924528302em" y="29.69056312194997em" fill="#aaa"/><rect width="0.9433962264150944em" height="0.7817558362209195em" x="31.132075471698112em" y="29.21824416377908em" fill="#aaa"/><rect width="0.9433962264150944em" height="0.03598685352445123em" x="32.075471698113205em" y="29.964013146475548em" fill="#aaa"/><rect width="0.9433962264150944em" height="0.871451090345182em" x="33.0188679245283em" y="29.128548909654818em" fill="#aaa"/><rect width="0.9433962264150944em" height="0.11430547438104398em" x="33.9622641509434em" y="29.885694525618955em" fill="#aaa"/><rect width="0.9433962264150944em" height="0.2472424321583111em" x="34.905660377358494em" y="29.752757567841687em" fill="#aaa"/><rect width="0.9433962264150944em" height="0.1596440336945818em" x="35.84905660377358em" y="29.840355966305417em" fill="#aaa"/><rect width="0.9433962264150944em" height="0.07162452669769423em" x="36.79245283018868em" y="29.928375473302307em" fill="#aaa"/><rect width="0.9433962264150944em" height="0.27903738063679134em" x="37.735849056603776em" y="29.72096261936321em" fill="#aaa"/><rect width="0.9433962264150944em" height="0.14017840345279714em" x="38.679245283018865em" y="29.859821596547203em" fill="#aaa"/><rect width="0.9433962264150944em" height="0.6427604743295249em" x="39.62264150943396em" y="29.357239525670476em" fill="#aaa"/><rect width="0.9433962264150944em" height="0.22418225092073568em" x="40.56603773584906em" y="29.775817749079263em" fill="#aaa"/><rect width="0.9433962264150944em" height="0.20719777033438097em" x="41.509433962264154em" y="29.792802229665618em" fill="#aaa"/><rect width="0.9433962264150944em" height="0.35665521591444993em" x="42.45283018867924em" y="29.64334478408555em" fill="#aaa"/><rect width="0.9433962264150944em" height="1.109934057074565em" x="43.39622641509434em" y="28.890065942925435em" fill="#aaa"/><rect width="0.9433962264150944em" height="0.2877245328573408em" x="44.339622641509436em" y="29.71227546714266em" fill="#aaa"/><rect width="0.9433962264150944em" height="1.5916778122428599em" x="45.283018867924525em" y="28.40832218775714em" fill="#aaa"/><rect width="0.9433962264150944em" height="2.6303205729303225em" x="46.22641509433962em" y="27.369679427069677em" fill="#aaa"/><rect width="0.9433962264150944em" height="25.361532112739205em" x="47.16981132075472em" y="4.638467887260795em" fill="#aaa"/><rect width="0.9433962264150944em" height="1.1586813766438608em" x="48.113207547169814em" y="28.841318623356138em" fill="#aaa"/><rect width="0.9433962264150944em" height="0.8901922173576118em" x="49.056603773584904em" y="29.109807782642388em" fill="#aaa"/><rect width="0.9433962264150944em" height="1.2690371446136013em" x="50em" y="28.730962855386398em" fill="#aaa"/><rect width="0.9433962264150944em" height="3.354706374841878em" x="50.943396226415096em" y="26.64529362515812em" fill="#aaa"/><rect width="0.9433962264150944em" height="30em" x="51.88679245283019em" y="0em" fill="#aaa"/><rect width="0.9433962264150944em" height="3.0445531519310514em" x="52.83018867924528em" y="26.95544684806895em" fill="#aaa"/><rect width="0.9433962264150944em" height="5.623329977804127em" x="53.77358490566038em" y="24.376670022195874em" fill="#aaa"/><rect width="0.9433962264150944em" height="10.803381692172676em" x="54.716981132075475em" y="19.196618307827322em" fill="#aaa"/><rect width="0.9433962264150944em" height="0.9974157826854361em" x="55.660377358490564em" y="29.002584217314563em" fill="#aaa"/><rect width="0.9433962264150944em" height="1.1382114010827706em" x="56.60377358490566em" y="28.86178859891723em" fill="#aaa"/><rect width="0.9433962264150944em" height="1.4014860473525292em" x="57.54716981132076em" y="28.598513952647473em" fill="#aaa"/><rect width="0.9433962264150944em" height="1.5467289221191949em" x="58.49056603773585em" y="28.453271077880807em" fill="#aaa"/><rect width="0.9433962264150944em" height="0.5042669785094388em" x="59.43396226415094em" y="29.49573302149056em" fill="#aaa"/><rect width="0.9433962264150944em" height="0.9811296214050882em" x="60.37735849056604em" y="29.01887037859491em" fill="#aaa"/><rect width="0.9433962264150944em" height="3.3552824439454585em" x="61.320754716981135em" y="26.64471755605454em" fill="#aaa"/><rect width="0.9433962264150944em" height="2.78985993065683em" x="62.264150943396224em" y="27.21014006934317em" fill="#aaa"/><rect width="0.9433962264150944em" height="1.1410334422994155em" x="63.20754716981132em" y="28.858966557700583em" fill="#aaa"/><rect width="0.9433962264150944em" height="0.513564796702698em" x="64.15094339622641em" y="29.4864352032973em" fill="#aaa"/><rect width="0.9433962264150944em" height="0.44555261835476623em" x="65.09433962264151em" y="29.554447381645232em" fill="#aaa"/><rect width="0.9433962264150944em" height="1.1452206900770154em" x="66.0377358490566em" y="28.854779309922986em" fill="#aaa"/><rect width="0.9433962264150944em" height="0.6482968251398336em" x="66.9811320754717em" y="29.351703174860166em" fill="#aaa"/><rect width="0.9433962264150944em" height="0.5683926377899979em" x="67.9245283018868em" y="29.431607362210002em" fill="#aaa"/><rect width="0.9433962264150944em" height="1.149040054419489em" x="68.86792452830188em" y="28.85095994558051em" fill="#aaa"/><rect width="0.9433962264150944em" height="0.850131758433904em" x="69.81132075471699em" y="29.149868241566097em" fill="#aaa"/><rect width="0.9433962264150944em" height="0.7426963906124872em" x="70.75471698113208em" y="29.257303609387513em" fill="#aaa"/><rect width="0.9433962264150944em" height="1.6254400938406846em" x="71.69811320754717em" y="28.374559906159316em" fill="#aaa"/><rect width="0.9433962264150944em" height="0.578784772816559em" x="72.64150943396227em" y="29.421215227183442em" fill="#aaa"/><rect width="0.9433962264150944em" height="0.33485834454581137em" x="73.58490566037736em" y="29.66514165545419em" fill="#aaa"/><rect width="0.9433962264150944em" height="0.35505608967858254em" x="74.52830188679245em" y="29.644943910321416em" fill="#aaa"/><rect width="0.9433962264150944em" height="0.7757485621690154em" x="75.47169811320755em" y="29.224251437830986em" fill="#aaa"/><rect width="0.9433962264150944em" height="0.32143472415803903em" x="76.41509433962264em" y="29.67856527584196em" fill="#aaa"/><rect width="0.9433962264150944em" height="0.04768918080826992em" x="77.35849056603773em" y="29.95231081919173em" fill="#aaa"/><rect width="0.9433962264150944em" height="0.20518740750183495em" x="78.30188679245283em" y="29.794812592498165em" fill="#aaa"/><rect width="0.9433962264150944em" height="0.1387684321638099em" x="79.24528301886792em" y="29.86123156783619em" fill="#aaa"/><rect width="0.9433962264150944em" height="0.449999229378895em" x="80.18867924528303em" y="29.550000770621104em" fill="#aaa"/><rect width="0.9433962264150944em" height="0.6096933031922332em" x="81.13207547169812em" y="29.390306696807766em" fill="#aaa"/><rect width="0.9433962264150944em" height="0.7986443008916388em" x="82.0754716981132em" y="29.201355699108362em" fill="#aaa"/><rect width="0.9433962264150944em" height="0.21952704952337979em" x="83.01886792452831em" y="29.78047295047662em" fill="#aaa"/><rect width="0.9433962264150944em" height="0.9135813004794082em" x="83.9622641509434em" y="29.086418699520593em" fill="#aaa"/><rect width="0.9433962264150944em" height="0.5359267772882514em" x="84.90566037735849em" y="29.464073222711747em" fill="#aaa"/><rect width="0.9433962264150944em" height="0.5830947338671804em" x="85.84905660377359em" y="29.41690526613282em" fill="#aaa"/><rect width="0.9433962264150944em" height="0.4044304510028701em" x="86.79245283018868em" y="29.59556954899713em" fill="#aaa"/><rect width="0.9433962264150944em" height="0.10771898423162678em" x="87.73584905660377em" y="29.892281015768372em" fill="#aaa"/><rect width="0.9433962264150944em" height="0.2438392703850572em" x="88.67924528301887em" y="29.756160729614944em" fill="#aaa"/><rect width="0.9433962264150944em" height="0.3672181540940909em" x="89.62264150943396em" y="29.63278184590591em" fill="#aaa"/><rect width="0.9433962264150944em" height="0.36986254977214716em" x="90.56603773584905em" y="29.630137450227853em" fill="#aaa"/><rect width="0.9433962264150944em" height="0.1972811859202999em" x="91.50943396226415em" y="29.8027188140797em" fill="#aaa"/><rect width="0.9433962264150944em" height="0.3803122555072687em" x="92.45283018867924em" y="29.61968774449273em" fill="#aaa"/><rect width="0.9433962264150944em" height="0.12469320405881874em" x="93.39622641509435em" y="29.87530679594118em" fill="#aaa"/><rect width="0.9433962264150944em" height="0.2890574555673607em" x="94.33962264150944em" y="29.71094254443264em" fill="#aaa"/><rect width="0.9433962264150944em" height="0.33944731399482725em" x="95.28301886792453em" y="29.660552686005172em" fill="#aaa"/><rect width="0.9433962264150944em" height="0.10984622302949543em" x="96.22641509433963em" y="29.890153776970504em" fill="#aaa"/><rect width="0.9433962264150944em" height="0.4980166192613195em" x="97.16981132075472em" y="29.50198338073868em" fill="#aaa"/><rect width="0.9433962264150944em" height="0.9090748786391507em" x="98.11320754716981em" y="29.09092512136085em" fill="#aaa"/><rect width="0.9433962264150944em" height="0.6612977838288941em" x="99.05660377358491em" y="29.338702216171107em" fill="#aaa"/></svg>