<?xml version="1.0" standalone="no"?>
<svg xmlns:xlink="http://www.w3.org/1999/xlink" xmlns="http://www.w3.org/2000/svg" class="topic-graph" style="width: 100em; height: 30em; text-align: center;"><rect width="0.9433962264150944em" height="0.03008500439246383em" x="0em" y="29.969914995607535em" fill="#aaa"/><rect width="0.9433962264150944em" height="0.9703971221170357em" x="0.9433962264150944em" y="29.029602877882965em" fill="#aaa"/><rect width="0.9433962264150944em" height="1.7602195174586746em" x="1.8867924528301887em" y="28.239780482541324em" fill="#aaa"/><rect width="0.9433962264150944em" height="0.010398003696709545em" x="2.830188679245283em" y="29.98960199630329em" fill="#aaa"/><rect width="0.9433962264150944em" height="2.1186906074049205em" x="3.7735849056603774em" y="27.881309392595078em" fill="#aaa"/><rect width="0.9433962264150944em" height="4.20319162546963em" x="4.716981132075472em" y="25.79680837453037em" fill="#aaa"/><rect width="0.9433962264150944em" height="0.5861500543867724em" x="5.660377358490566em" y="29.41384994561323em" fill="#aaa"/><rect width="0.9433962264150944em" height="0.02273014618655769em" x="6.60377358490566em" y="29.977269853813443em" fill="#aaa"/><rect width="0.9433962264150944em" height="1.4692454614350912em" x="7.547169811320755em" y="28.53075453856491em" fill="#aaa"/><rect width="0.9433962264150944em" height="1.0159451402747632em" x="8.49056603773585em" y="28.984054859725237em" fill="#aaa"/><rect width="0.9433962264150944em" height="0.3773700787120477em" x="9.433962264150944em" y="29.622629921287952em" fill="#aaa"/><rect width="0.9433962264150944em" height="5.404347176020284em" x="10.377358490566039em" y="24.595652823979716em" fill="#aaa"/><rect width="0.9433962264150944em" height="1.7371738060146145em" x="11.320754716981131em" y="28.262826193985386em" fill="#aaa"/><rect width="0.9433962264150944em" height="0em" x="12.264150943396226em" y="30em" fill="#aaa"/><rect width="0.9433962264150944em" height="6.526822293132185em" x="13.20754716981132em" y="23.473177706867816em" fill="#aaa"/><rect width="0.9433962264150944em" height="13.016755148168196em" x="14.150943396226415em" y="16.983244851831806em" fill="#aaa"/><rect width="0.9433962264150944em" height="4.206591765684463em" x="15.09433962264151em" y="25.793408234315535em" fill="#aaa"/><rect width="0.9433962264150944em" height="0.613670753777966em" x="16.037735849056602em" y="29.386329246222033em" fill="#aaa"/><rect width="0.9433962264150944em" height="1.1227907652379405em" x="16.9811320754717em" y="28.87720923476206em" fill="#aaa"/><rect width="0.9433962264150944em" height="3.0722263786698827em" x="17.92452830188679em" y="26.927773621330118em" fill="#aaa"/><rect width="0.9433962264150944em" height="3.735390814428719em" x="18.867924528301888em" y="26.26460918557128em" fill="#aaa"/><rect width="0.9433962264150944em" height="0.6731583649684565em" x="19.81132075471698em" y="29.326841635031542em" fill="#aaa"/><rect width="0.9433962264150944em" height="2.91999087949284em" x="20.754716981132077em" y="27.08000912050716em" fill="#aaa"/><rect width="0.9433962264150944em" height="2.1691660325711535em" x="21.69811320754717em" y="27.830833967428845em" fill="#aaa"/><rect width="0.9433962264150944em" height="0.010719303158455463em" x="22.641509433962263em" y="29.989280696841544em" fill="#aaa"/><rect width="0.9433962264150944em" height="0.5227405470589401em" x="23.58490566037736em" y="29.47725945294106em" fill="#aaa"/><rect width="0.9433962264150944em" height="0em" x="24.528301886792452em" y="30em" fill="#aaa"/><rect width="0.9433962264150944em" height="0.5911964864458643em" x="25.471698113207548em" y="29.408803513554137em" fill="#aaa"/><rect width="0.9433962264150944em" height="0.2817388871497868em" x="26.41509433962264em" y="29.718261112850215em" fill="#aaa"/><rect width="0.9433962264150944em" height="3.1296206199296317em" x="27.358490566037737em" y="26.870379380070368em" fill="#aaa"/><rect width="0.9433962264150944em" height="1.5485784106763074em" x="28.30188679245283em" y="28.451421589323694em" fill="#aaa"/><rect width="0.9433962264150944em" height="0.465047672319945em" x="29.245283018867926em" y="29.534952327680056em" fill="#aaa"/><rect width="0.9433962264150944em" height="6.468749964079117em" x="30.18867924528302em" y="23.531250035920884em" fill="#aaa"/><rect width="0.9433962264150944em" height="8.644946667849013em" x="31.132075471698112em" y="21.355053332150987em" fill="#aaa"/><rect width="0.9433962264150944em" height="7.595502583964008em" x="32.075471698113205em" y="22.404497416035994em" fill="#aaa"/><rect width="0.9433962264150944em" height="28.389787153426322em" x="33.0188679245283em" y="1.6102128465736776em" fill="#aaa"/><rect width="0.9433962264150944em" height="9.914818502452851em" x="33.9622641509434em" y="20.085181497547147em" fill="#aaa"/><rect width="0.9433962264150944em" height="15.740874074529481em" x="34.905660377358494em" y="14.259125925470519em" fill="#aaa"/><rect width="0.9433962264150944em" height="24.41137630685835em" x="35.84905660377358em" y="5.588623693141649em" fill="#aaa"/><rect width="0.9433962264150944em" height="30em" x="36.79245283018868em" y="0em" fill="#aaa"/><rect width="0.9433962264150944em" height="1.075802591696332em" x="37.735849056603776em" y="28.92419740830367em" fill="#aaa"/><rect width="0.9433962264150944em" height="0.20605768645784098em" x="38.679245283018865em" y="29.79394231354216em" fill="#aaa"/><rect width="0.9433962264150944em" height="2.085591156997353em" x="39.62264150943396em" y="27.914408843002647em" fill="#aaa"/><rect width="0.9433962264150944em" height="4.2867284460363235em" x="40.56603773584906em" y="25.713271553963676em" fill="#aaa"/><rect width="0.9433962264150944em" height="0.27758006580025923em" x="41.509433962264154em" y="29.722419934199742em" fill="#aaa"/><rect width="0.9433962264150944em" height="0.8990563058082037em" x="42.45283018867924em" y="29.100943694191795em" fill="#aaa"/><rect width="0.9433962264150944em" height="0.43774473314264256em" x="43.39622641509434em" y="29.562255266857356em" fill="#aaa"/><rect width="0.9433962264150944em" height="2.213534683499904em" x="44.339622641509436em" y="27.786465316500095em" fill="#aaa"/><rect width="0.9433962264150944em" height="0.33748661723015955em" x="45.283018867924525em" y="29.66251338276984em" fill="#aaa"/><rect width="0.9433962264150944em" height="5.613115953430857em" x="46.22641509433962em" y="24.386884046569143em" fill="#aaa"/><rect width="0.9433962264150944em" height="1.8146578431262443em" x="47.16981132075472em" y="28.185342156873755em" fill="#aaa"/><rect width="0.9433962264150944em" height="2.040941299894087em" x="48.113207547169814em" y="27.959058700105913em" fill="#aaa"/><rect width="0.9433962264150944em" height="7.831673056508735em" x="49.056603773584904em" y="22.168326943491266em" fill="#aaa"/><rect width="0.9433962264150944em" height="2.530988380497599em" x="50em" y="27.4690116195024em" fill="#aaa"/><rect width="0.9433962264150944em" height="2.951687630152803em" x="50.943396226415096em" y="27.048312369847196em" fill="#aaa"/><rect width="0.9433962264150944em" height="2.056941151007738em" x="51.88679245283019em" y="27.943058848992262em" fill="#aaa"/><rect width="0.9433962264150944em" height="0.6625057068148319em" x="52.83018867924528em" y="29.337494293185166em" fill="#aaa"/><rect width="0.9433962264150944em" height="3.041776159426764em" x="53.77358490566038em" y="26.958223840573236em" fill="#aaa"/><rect width="0.9433962264150944em" height="6.57150500030769em" x="54.716981132075475em" y="23.42849499969231em" fill="#aaa"/><rect width="0.9433962264150944em" height="7.881248618041886em" x="55.660377358490564em" y="22.118751381958113em" fill="#aaa"/><rect width="0.9433962264150944em" height="0.848804628607851em" x="56.60377358490566em" y="29.15119537139215em" fill="#aaa"/><rect width="0.9433962264150944em" height="3.429555435606312em" x="57.54716981132076em" y="26.57044456439369em" fill="#aaa"/><rect width="0.9433962264150944em" height="2.441865794545065em" x="58.49056603773585em" y="27.558134205454934em" fill="#aaa"/><rect width="0.9433962264150944em" height="0.19199571684376732em" x="59.43396226415094em" y="29.808004283156233em" fill="#aaa"/><rect width="0.9433962264150944em" height="3.180484112056387em" x="60.37735849056604em" y="26.819515887943613em" fill="#aaa"/><rect width="0.9433962264150944em" height="0.788110027823208em" x="61.320754716981135em" y="29.21188997217679em" fill="#aaa"/><rect width="0.9433962264150944em" height="3.666877850810985em" x="62.264150943396224em" y="26.333122149189016em" fill="#aaa"/><rect width="0.9433962264150944em" height="1.7949061645632494em" x="63.20754716981132em" y="28.20509383543675em" fill="#aaa"/><rect width="0.9433962264150944em" height="1.3462095389246325em" x="64.15094339622641em" y="28.653790461075367em" fill="#aaa"/><rect width="0.9433962264150944em" height="0.5005958122543235em" x="65.09433962264151em" y="29.499404187745675em" fill="#aaa"/><rect width="0.9433962264150944em" height="2.6469076540170793em" x="66.0377358490566em" y="27.353092345982922em" fill="#aaa"/><rect width="0.9433962264150944em" height="0.14753602259176576em" x="66.9811320754717em" y="29.852463977408235em" fill="#aaa"/><rect width="0.9433962264150944em" height="2.934482442481075em" x="67.9245283018868em" y="27.065517557518923em" fill="#aaa"/><rect width="0.9433962264150944em" height="1.8640040973389782em" x="68.86792452830188em" y="28.135995902661023em" fill="#aaa"/><rect width="0.9433962264150944em" height="1.1909477838768583em" x="69.81132075471699em" y="28.809052216123142em" fill="#aaa"/><rect width="0.9433962264150944em" height="1.1709011658891888em" x="70.75471698113208em" y="28.829098834110813em" fill="#aaa"/><rect width="0.9433962264150944em" height="0.40371847547448547em" x="71.69811320754717em" y="29.596281524525516em" fill="#aaa"/><rect width="0.9433962264150944em" height="0.2901481477104047em" x="72.64150943396227em" y="29.709851852289596em" fill="#aaa"/><rect width="0.9433962264150944em" height="0.39504431612646174em" x="73.58490566037736em" y="29.604955683873538em" fill="#aaa"/><rect width="0.9433962264150944em" height="1.0930453859695979em" x="74.52830188679245em" y="28.9069546140304em" fill="#aaa"/><rect width="0.9433962264150944em" height="1.9478005120427768em" x="75.47169811320755em" y="28.052199487957225em" fill="#aaa"/><rect width="0.9433962264150944em" height="1.0395284547532107em" x="76.41509433962264em" y="28.96047154524679em" fill="#aaa"/><rect width="0.9433962264150944em" height="2.9590463537457055em" x="77.35849056603773em" y="27.040953646254295em" fill="#aaa"/><rect width="0.9433962264150944em" height="3.043664595520928em" x="78.30188679245283em" y="26.956335404479074em" fill="#aaa"/><rect width="0.9433962264150944em" height="1.4879244013629074em" x="79.24528301886792em" y="28.512075598637093em" fill="#aaa"/><rect width="0.9433962264150944em" height="2.6351061343440394em" x="80.18867924528303em" y="27.36489386565596em" fill="#aaa"/><rect width="0.9433962264150944em" height="1.7967596737360523em" x="81.13207547169812em" y="28.20324032626395em" fill="#aaa"/><rect width="0.9433962264150944em" height="1.4013180654333994em" x="82.0754716981132em" y="28.5986819345666em" fill="#aaa"/><rect width="0.9433962264150944em" height="1.116957176912154em" x="83.01886792452831em" y="28.883042823087845em" fill="#aaa"/><rect width="0.9433962264150944em" height="0.7718679421182073em" x="83.9622641509434em" y="29.228132057881794em" fill="#aaa"/><rect width="0.9433962264150944em" height="0.7724458402604408em" x="84.90566037735849em" y="29.227554159739558em" fill="#aaa"/><rect width="0.9433962264150944em" height="2.2422608722295343em" x="85.84905660377359em" y="27.757739127770467em" fill="#aaa"/><rect width="0.9433962264150944em" height="2.181346266223652em" x="86.79245283018868em" y="27.818653733776348em" fill="#aaa"/><rect width="0.9433962264150944em" height="2.4305994478035693em" x="87.73584905660377em" y="27.56940055219643em" fill="#aaa"/><rect width="0.9433962264150944em" height="0.8173464504721185em" x="88.67924528301887em" y="29.18265354952788em" fill="#aaa"/><rect width="0.9433962264150944em" height="1.1637620669585085em" x="89.62264150943396em" y="28.83623793304149em" fill="#aaa"/><rect width="0.9433962264150944em" height="3.332437568405572em" x="90.56603773584905em" y="26.667562431594426em" fill="#aaa"/><rect width="0.9433962264150944em" height="2.896618054085096em" x="91.50943396226415em" y="27.103381945914904em" fill="#aaa"/><rect width="0.9433962264150944em" height="2.6088092918341035em" x="92.45283018867924em" y="27.391190708165897em" fill="#aaa"/><rect width="0.9433962264150944em" height="1.968254936064626em" x="93.39622641509435em" y="28.031745063935375em" fill="#aaa"/><rect width="0.9433962264150944em" height="2.0188725664079064em" x="94.33962264150944em" y="27.981127433592093em" fill="#aaa"/><rect width="0.9433962264150944em" height="8.326791121289439em" x="95.28301886792453em" y="21.67320887871056em" fill="#aaa"/><rect width="0.9433962264150944em" height="1.7741866872883492em" x="96.22641509433963em" y="28.22581331271165em" fill="#aaa"/><rect width="0.9433962264150944em" height="2.2615646054040135em" x="97.16981132075472em" y="27.738435394595985em" fill="#aaa"/><rect width="0.9433962264150944em" height="0.7574844958482979em" x="98.11320754716981em" y="29.2425155041517em" fill="#aaa"/><rect width="0.9433962264150944em" height="1.3037878119468138em" x="99.05660377358491em" y="28.696212188053185em" fill="#aaa"/></svg>