<?xml version="1.0" standalone="no"?>
<svg xmlns:xlink="http://www.w3.org/1999/xlink" xmlns="http://www.w3.org/2000/svg" class="topic-graph" style="width: 100em; height: 30em; text-align: center;"><rect width="0.9433962264150944em" height="0.39372581667125134em" x="0em" y="29.60627418332875em" fill="#aaa"/><rect width="0.9433962264150944em" height="1.2175983342327543em" x="0.9433962264150944em" y="28.782401665767246em" fill="#aaa"/><rect width="0.9433962264150944em" height="0.6827229732856869em" x="1.8867924528301887em" y="29.31727702671431em" fill="#aaa"/><rect width="0.9433962264150944em" height="0.7736042179033552em" x="2.830188679245283em" y="29.226395782096645em" fill="#aaa"/><rect width="0.9433962264150944em" height="1.0622088664210414em" x="3.7735849056603774em" y="28.93779113357896em" fill="#aaa"/><rect width="0.9433962264150944em" height="1.1663818007619071em" x="4.716981132075472em" y="28.833618199238092em" fill="#aaa"/><rect width="0.9433962264150944em" height="1.5087094360770266em" x="5.660377358490566em" y="28.491290563922973em" fill="#aaa"/><rect width="0.9433962264150944em" height="1.9225454159303978em" x="6.60377358490566em" y="28.077454584069603em" fill="#aaa"/><rect width="0.9433962264150944em" height="0.634202861773975em" x="7.547169811320755em" y="29.365797138226025em" fill="#aaa"/><rect width="0.9433962264150944em" height="0.8764283274303433em" x="8.49056603773585em" y="29.123571672569657em" fill="#aaa"/><rect width="0.9433962264150944em" height="0.7342237796299981em" x="9.433962264150944em" y="29.26577622037em" fill="#aaa"/><rect width="0.9433962264150944em" height="0.5110850447901429em" x="10.377358490566039em" y="29.488914955209857em" fill="#aaa"/><rect width="0.9433962264150944em" height="1.0686919290664596em" x="11.320754716981131em" y="28.93130807093354em" fill="#aaa"/><rect width="0.9433962264150944em" height="0em" x="12.264150943396226em" y="30em" fill="#aaa"/><rect width="0.9433962264150944em" height="3.282863356774228em" x="13.20754716981132em" y="26.71713664322577em" fill="#aaa"/><rect width="0.9433962264150944em" height="2.472356132106203em" x="14.150943396226415em" y="27.527643867893797em" fill="#aaa"/><rect width="0.9433962264150944em" height="2.725651323446066em" x="15.09433962264151em" y="27.274348676553934em" fill="#aaa"/><rect width="0.9433962264150944em" height="1.4378984109313093em" x="16.037735849056602em" y="28.56210158906869em" fill="#aaa"/><rect width="0.9433962264150944em" height="3.7925781230721083em" x="16.9811320754717em" y="26.207421876927892em" fill="#aaa"/><rect width="0.9433962264150944em" height="10.284232897269632em" x="17.92452830188679em" y="19.715767102730368em" fill="#aaa"/><rect width="0.9433962264150944em" height="9.139111812028759em" x="18.867924528301888em" y="20.86088818797124em" fill="#aaa"/><rect width="0.9433962264150944em" height="7.097366951977197em" x="19.81132075471698em" y="22.902633048022803em" fill="#aaa"/><rect width="0.9433962264150944em" height="8.711901852257926em" x="20.754716981132077em" y="21.288098147742076em" fill="#aaa"/><rect width="0.9433962264150944em" height="14.605815776863658em" x="21.69811320754717em" y="15.394184223136342em" fill="#aaa"/><rect width="0.9433962264150944em" height="8.65960934984626em" x="22.641509433962263em" y="21.34039065015374em" fill="#aaa"/><rect width="0.9433962264150944em" height="10.309818550895521em" x="23.58490566037736em" y="19.69018144910448em" fill="#aaa"/><rect width="0.9433962264150944em" height="0em" x="24.528301886792452em" y="30em" fill="#aaa"/><rect width="0.9433962264150944em" height="20.748426406282128em" x="25.471698113207548em" y="9.251573593717872em" fill="#aaa"/><rect width="0.9433962264150944em" height="19.21621144342775em" x="26.41509433962264em" y="10.78378855657225em" fill="#aaa"/><rect width="0.9433962264150944em" height="13.98848650504345em" x="27.358490566037737em" y="16.01151349495655em" fill="#aaa"/><rect width="0.9433962264150944em" height="22.54025586483889em" x="28.30188679245283em" y="7.45974413516111em" fill="#aaa"/><rect width="0.9433962264150944em" height="20.009284920109998em" x="29.245283018867926em" y="9.990715079890002em" fill="#aaa"/><rect width="0.9433962264150944em" height="19.207051402708075em" x="30.18867924528302em" y="10.792948597291925em" fill="#aaa"/><rect width="0.9433962264150944em" height="18.419279328409512em" x="31.132075471698112em" y="11.580720671590488em" fill="#aaa"/><rect width="0.9433962264150944em" height="12.99937917309537em" x="32.075471698113205em" y="17.00062082690463em" fill="#aaa"/><rect width="0.9433962264150944em" height="7.678368197196636em" x="33.0188679245283em" y="22.321631802803363em" fill="#aaa"/><rect width="0.9433962264150944em" height="9.10133354646923em" x="33.9622641509434em" y="20.898666453530772em" fill="#aaa"/><rect width="0.9433962264150944em" height="8.430497374326354em" x="34.905660377358494em" y="21.569502625673646em" fill="#aaa"/><rect width="0.9433962264150944em" height="7.973161190236921em" x="35.84905660377358em" y="22.026838809763078em" fill="#aaa"/><rect width="0.9433962264150944em" height="10.036249139899605em" x="36.79245283018868em" y="19.963750860100397em" fill="#aaa"/><rect width="0.9433962264150944em" height="7.4136935736593em" x="37.735849056603776em" y="22.5863064263407em" fill="#aaa"/><rect width="0.9433962264150944em" height="3.7887818733896435em" x="38.679245283018865em" y="26.211218126610355em" fill="#aaa"/><rect width="0.9433962264150944em" height="10.217163305545599em" x="39.62264150943396em" y="19.782836694454403em" fill="#aaa"/><rect width="0.9433962264150944em" height="8.965339200508458em" x="40.56603773584906em" y="21.03466079949154em" fill="#aaa"/><rect width="0.9433962264150944em" height="10.88088788871531em" x="41.509433962264154em" y="19.11911211128469em" fill="#aaa"/><rect width="0.9433962264150944em" height="10.540469381258275em" x="42.45283018867924em" y="19.459530618741724em" fill="#aaa"/><rect width="0.9433962264150944em" height="11.712787519825019em" x="43.39622641509434em" y="18.28721248017498em" fill="#aaa"/><rect width="0.9433962264150944em" height="8.042794548756474em" x="44.339622641509436em" y="21.957205451243524em" fill="#aaa"/><rect width="0.9433962264150944em" height="11.623225244110929em" x="45.283018867924525em" y="18.376774755889073em" fill="#aaa"/><rect width="0.9433962264150944em" height="7.258002195993929em" x="46.22641509433962em" y="22.741997804006072em" fill="#aaa"/><rect width="0.9433962264150944em" height="8.865968629276855em" x="47.16981132075472em" y="21.134031370723143em" fill="#aaa"/><rect width="0.9433962264150944em" height="10.499405390457476em" x="48.113207547169814em" y="19.500594609542524em" fill="#aaa"/><rect width="0.9433962264150944em" height="10.638451290041278em" x="49.056603773584904em" y="19.361548709958722em" fill="#aaa"/><rect width="0.9433962264150944em" height="6.898324542278474em" x="50em" y="23.101675457721527em" fill="#aaa"/><rect width="0.9433962264150944em" height="5.751645115989218em" x="50.943396226415096em" y="24.24835488401078em" fill="#aaa"/><rect width="0.9433962264150944em" height="9.611720930222162em" x="51.88679245283019em" y="20.388279069777838em" fill="#aaa"/><rect width="0.9433962264150944em" height="9.290370320769842em" x="52.83018867924528em" y="20.709629679230158em" fill="#aaa"/><rect width="0.9433962264150944em" height="8.76434966933818em" x="53.77358490566038em" y="21.23565033066182em" fill="#aaa"/><rect width="0.9433962264150944em" height="7.1425933095083085em" x="54.716981132075475em" y="22.857406690491693em" fill="#aaa"/><rect width="0.9433962264150944em" height="4.77371671804877em" x="55.660377358490564em" y="25.22628328195123em" fill="#aaa"/><rect width="0.9433962264150944em" height="7.047556161724941em" x="56.60377358490566em" y="22.95244383827506em" fill="#aaa"/><rect width="0.9433962264150944em" height="6.783393700734239em" x="57.54716981132076em" y="23.216606299265763em" fill="#aaa"/><rect width="0.9433962264150944em" height="7.634412178193533em" x="58.49056603773585em" y="22.365587821806468em" fill="#aaa"/><rect width="0.9433962264150944em" height="12.165768172755506em" x="59.43396226415094em" y="17.834231827244494em" fill="#aaa"/><rect width="0.9433962264150944em" height="10.304737772640102em" x="60.37735849056604em" y="19.695262227359898em" fill="#aaa"/><rect width="0.9433962264150944em" height="7.865448492281203em" x="61.320754716981135em" y="22.134551507718797em" fill="#aaa"/><rect width="0.9433962264150944em" height="6.327285625478784em" x="62.264150943396224em" y="23.672714374521217em" fill="#aaa"/><rect width="0.9433962264150944em" height="8.739799322327732em" x="63.20754716981132em" y="21.260200677672266em" fill="#aaa"/><rect width="0.9433962264150944em" height="6.980527515769607em" x="64.15094339622641em" y="23.01947248423039em" fill="#aaa"/><rect width="0.9433962264150944em" height="10.653847699323153em" x="65.09433962264151em" y="19.34615230067685em" fill="#aaa"/><rect width="0.9433962264150944em" height="8.576820691182775em" x="66.0377358490566em" y="21.423179308817225em" fill="#aaa"/><rect width="0.9433962264150944em" height="14.02040042892079em" x="66.9811320754717em" y="15.97959957107921em" fill="#aaa"/><rect width="0.9433962264150944em" height="13.294850688982692em" x="67.9245283018868em" y="16.70514931101731em" fill="#aaa"/><rect width="0.9433962264150944em" height="13.404970968149406em" x="68.86792452830188em" y="16.595029031850594em" fill="#aaa"/><rect width="0.9433962264150944em" height="12.098606033834901em" x="69.81132075471699em" y="17.9013939661651em" fill="#aaa"/><rect width="0.9433962264150944em" height="13.91200689612818em" x="70.75471698113208em" y="16.08799310387182em" fill="#aaa"/><rect width="0.9433962264150944em" height="20.670802591261275em" x="71.69811320754717em" y="9.329197408738725em" fill="#aaa"/><rect width="0.9433962264150944em" height="12.774512871362157em" x="72.64150943396227em" y="17.225487128637845em" fill="#aaa"/><rect width="0.9433962264150944em" height="13.22360240412464em" x="73.58490566037736em" y="16.77639759587536em" fill="#aaa"/><rect width="0.9433962264150944em" height="30em" x="74.52830188679245em" y="0em" fill="#aaa"/><rect width="0.9433962264150944em" height="17.507239264231952em" x="75.47169811320755em" y="12.492760735768048em" fill="#aaa"/><rect width="0.9433962264150944em" height="12.106031679710567em" x="76.41509433962264em" y="17.89396832028943em" fill="#aaa"/><rect width="0.9433962264150944em" height="21.82341829473187em" x="77.35849056603773em" y="8.17658170526813em" fill="#aaa"/><rect width="0.9433962264150944em" height="8.249505956539977em" x="78.30188679245283em" y="21.750494043460023em" fill="#aaa"/><rect width="0.9433962264150944em" height="4.137459842481746em" x="79.24528301886792em" y="25.862540157518254em" fill="#aaa"/><rect width="0.9433962264150944em" height="8.964391489654497em" x="80.18867924528303em" y="21.035608510345504em" fill="#aaa"/><rect width="0.9433962264150944em" height="3.038332441283577em" x="81.13207547169812em" y="26.961667558716425em" fill="#aaa"/><rect width="0.9433962264150944em" height="3.9566238895329446em" x="82.0754716981132em" y="26.043376110467054em" fill="#aaa"/><rect width="0.9433962264150944em" height="2.6047554090260934em" x="83.01886792452831em" y="27.395244590973906em" fill="#aaa"/><rect width="0.9433962264150944em" height="6.448746826460695em" x="83.9622641509434em" y="23.551253173539305em" fill="#aaa"/><rect width="0.9433962264150944em" height="8.760415869443305em" x="84.90566037735849em" y="21.239584130556693em" fill="#aaa"/><rect width="0.9433962264150944em" height="7.77506062738384em" x="85.84905660377359em" y="22.22493937261616em" fill="#aaa"/><rect width="0.9433962264150944em" height="12.547965881156394em" x="86.79245283018868em" y="17.452034118843606em" fill="#aaa"/><rect width="0.9433962264150944em" height="7.792843293686118em" x="87.73584905660377em" y="22.20715670631388em" fill="#aaa"/><rect width="0.9433962264150944em" height="7.434830542192159em" x="88.67924528301887em" y="22.56516945780784em" fill="#aaa"/><rect width="0.9433962264150944em" height="3.3242528187717424em" x="89.62264150943396em" y="26.675747181228257em" fill="#aaa"/><rect width="0.9433962264150944em" height="4.459104986323082em" x="90.56603773584905em" y="25.540895013676916em" fill="#aaa"/><rect width="0.9433962264150944em" height="4.886484209747677em" x="91.50943396226415em" y="25.113515790252322em" fill="#aaa"/><rect width="0.9433962264150944em" height="7.067167680192191em" x="92.45283018867924em" y="22.932832319807808em" fill="#aaa"/><rect width="0.9433962264150944em" height="10.648444200897927em" x="93.39622641509435em" y="19.351555799102073em" fill="#aaa"/><rect width="0.9433962264150944em" height="6.570625404671951em" x="94.33962264150944em" y="23.42937459532805em" fill="#aaa"/><rect width="0.9433962264150944em" height="7.425298738714914em" x="95.28301886792453em" y="22.574701261285085em" fill="#aaa"/><rect width="0.9433962264150944em" height="8.930953402693168em" x="96.22641509433963em" y="21.06904659730683em" fill="#aaa"/><rect width="0.9433962264150944em" height="6.426863956549608em" x="97.16981132075472em" y="23.57313604345039em" fill="#aaa"/><rect width="0.9433962264150944em" height="3.4480427030563376em" x="98.11320754716981em" y="26.551957296943662em" fill="#aaa"/><rect width="0.9433962264150944em" height="9.320712540556846em" x="99.05660377358491em" y="20.679287459443152em" fill="#aaa"/></svg>