<?xml version="1.0" standalone="no"?>
<svg xmlns:xlink="http://www.w3.org/1999/xlink" xmlns="http://www.w3.org/2000/svg" class="topic-graph" style="width: 100em; height: 30em; text-align: center;"><rect width="0.9433962264150944em" height="0.17441703971597927em" x="0em" y="29.82558296028402em" fill="#aaa"/><rect width="0.9433962264150944em" height="1.520496637759103em" x="0.9433962264150944em" y="28.479503362240898em" fill="#aaa"/><rect width="0.9433962264150944em" height="0.2873047535541049em" x="1.8867924528301887em" y="29.712695246445897em" fill="#aaa"/><rect width="0.9433962264150944em" height="0.4698966731276668em" x="2.830188679245283em" y="29.530103326872332em" fill="#aaa"/><rect width="0.9433962264150944em" height="0.11490812192785166em" x="3.7735849056603774em" y="29.88509187807215em" fill="#aaa"/><rect width="0.9433962264150944em" height="0.08401281407570177em" x="4.716981132075472em" y="29.915987185924298em" fill="#aaa"/><rect width="0.9433962264150944em" height="0.1907010679381438em" x="5.660377358490566em" y="29.809298932061857em" fill="#aaa"/><rect width="0.9433962264150944em" height="0.050933229720729244em" x="6.60377358490566em" y="29.94906677027927em" fill="#aaa"/><rect width="0.9433962264150944em" height="0.1553560959727443em" x="7.547169811320755em" y="29.844643904027254em" fill="#aaa"/><rect width="0.9433962264150944em" height="0.3515235445745495em" x="8.49056603773585em" y="29.64847645542545em" fill="#aaa"/><rect width="0.9433962264150944em" height="0.09320967422450696em" x="9.433962264150944em" y="29.906790325775493em" fill="#aaa"/><rect width="0.9433962264150944em" height="0.17312291272333166em" x="10.377358490566039em" y="29.826877087276667em" fill="#aaa"/><rect width="0.9433962264150944em" height="0.7733866367674567em" x="11.320754716981131em" y="29.226613363232545em" fill="#aaa"/><rect width="0.9433962264150944em" height="0em" x="12.264150943396226em" y="30em" fill="#aaa"/><rect width="0.9433962264150944em" height="0.14243571576383227em" x="13.20754716981132em" y="29.85756428423617em" fill="#aaa"/><rect width="0.9433962264150944em" height="0.36069178270987895em" x="14.150943396226415em" y="29.63930821729012em" fill="#aaa"/><rect width="0.9433962264150944em" height="0.5242761778913915em" x="15.09433962264151em" y="29.47572382210861em" fill="#aaa"/><rect width="0.9433962264150944em" height="0.3948747039948941em" x="16.037735849056602em" y="29.605125296005106em" fill="#aaa"/><rect width="0.9433962264150944em" height="0.11681295450294632em" x="16.9811320754717em" y="29.883187045497053em" fill="#aaa"/><rect width="0.9433962264150944em" height="0.7741533671469706em" x="17.92452830188679em" y="29.22584663285303em" fill="#aaa"/><rect width="0.9433962264150944em" height="0.32088706731057887em" x="18.867924528301888em" y="29.67911293268942em" fill="#aaa"/><rect width="0.9433962264150944em" height="0.4669996189745181em" x="19.81132075471698em" y="29.53300038102548em" fill="#aaa"/><rect width="0.9433962264150944em" height="0.13968791112293738em" x="20.754716981132077em" y="29.860312088877063em" fill="#aaa"/><rect width="0.9433962264150944em" height="0.1251032973181878em" x="21.69811320754717em" y="29.874896702681813em" fill="#aaa"/><rect width="0.9433962264150944em" height="0.06246415762401383em" x="22.641509433962263em" y="29.937535842375986em" fill="#aaa"/><rect width="0.9433962264150944em" height="0.35131531962561025em" x="23.58490566037736em" y="29.64868468037439em" fill="#aaa"/><rect width="0.9433962264150944em" height="0em" x="24.528301886792452em" y="30em" fill="#aaa"/><rect width="0.9433962264150944em" height="0.3138677592924982em" x="25.471698113207548em" y="29.6861322407075em" fill="#aaa"/><rect width="0.9433962264150944em" height="0.15872192502743004em" x="26.41509433962264em" y="29.84127807497257em" fill="#aaa"/><rect width="0.9433962264150944em" height="0.16676805073030362em" x="27.358490566037737em" y="29.833231949269695em" fill="#aaa"/><rect width="0.9433962264150944em" height="0.3096620310771533em" x="28.30188679245283em" y="29.690337968922847em" fill="#aaa"/><rect width="0.9433962264150944em" height="0.6424421268413044em" x="29.245283018867926em" y="29.357557873158697em" fill="#aaa"/><rect width="0.9433962264150944em" height="0.14908263282547657em" x="30.18867924528302em" y="29.850917367174524em" fill="#aaa"/><rect width="0.9433962264150944em" height="0.5374588558766386em" x="31.132075471698112em" y="29.46254114412336em" fill="#aaa"/><rect width="0.9433962264150944em" height="0.9366492076157323em" x="32.075471698113205em" y="29.063350792384266em" fill="#aaa"/><rect width="0.9433962264150944em" height="3.215497237511714em" x="33.0188679245283em" y="26.784502762488287em" fill="#aaa"/><rect width="0.9433962264150944em" height="1.737318131071672em" x="33.9622641509434em" y="28.26268186892833em" fill="#aaa"/><rect width="0.9433962264150944em" height="0.6261928334049973em" x="34.905660377358494em" y="29.373807166595004em" fill="#aaa"/><rect width="0.9433962264150944em" height="3.964795018341292em" x="35.84905660377358em" y="26.03520498165871em" fill="#aaa"/><rect width="0.9433962264150944em" height="1.1570352818794585em" x="36.79245283018868em" y="28.84296471812054em" fill="#aaa"/><rect width="0.9433962264150944em" height="2.8131581074045524em" x="37.735849056603776em" y="27.186841892595446em" fill="#aaa"/><rect width="0.9433962264150944em" height="3.229193104936635em" x="38.679245283018865em" y="26.770806895063366em" fill="#aaa"/><rect width="0.9433962264150944em" height="1.3618459523296176em" x="39.62264150943396em" y="28.638154047670383em" fill="#aaa"/><rect width="0.9433962264150944em" height="1.552523647768601em" x="40.56603773584906em" y="28.447476352231398em" fill="#aaa"/><rect width="0.9433962264150944em" height="4.765979954946628em" x="41.509433962264154em" y="25.23402004505337em" fill="#aaa"/><rect width="0.9433962264150944em" height="1.3869680696626883em" x="42.45283018867924em" y="28.61303193033731em" fill="#aaa"/><rect width="0.9433962264150944em" height="2.5866135934279213em" x="43.39622641509434em" y="27.41338640657208em" fill="#aaa"/><rect width="0.9433962264150944em" height="4.802535315408041em" x="44.339622641509436em" y="25.19746468459196em" fill="#aaa"/><rect width="0.9433962264150944em" height="4.280965476452454em" x="45.283018867924525em" y="25.719034523547545em" fill="#aaa"/><rect width="0.9433962264150944em" height="4.0945463941131575em" x="46.22641509433962em" y="25.90545360588684em" fill="#aaa"/><rect width="0.9433962264150944em" height="0.9415590819300391em" x="47.16981132075472em" y="29.058440918069962em" fill="#aaa"/><rect width="0.9433962264150944em" height="1.4970743370776534em" x="48.113207547169814em" y="28.502925662922348em" fill="#aaa"/><rect width="0.9433962264150944em" height="1.2359570917824516em" x="49.056603773584904em" y="28.764042908217547em" fill="#aaa"/><rect width="0.9433962264150944em" height="1.7861112650234696em" x="50em" y="28.213888734976532em" fill="#aaa"/><rect width="0.9433962264150944em" height="2.608415757921897em" x="50.943396226415096em" y="27.391584242078103em" fill="#aaa"/><rect width="0.9433962264150944em" height="0.3772013931505331em" x="51.88679245283019em" y="29.622798606849468em" fill="#aaa"/><rect width="0.9433962264150944em" height="1.604832689697266em" x="52.83018867924528em" y="28.395167310302735em" fill="#aaa"/><rect width="0.9433962264150944em" height="1.7709120665930658em" x="53.77358490566038em" y="28.229087933406934em" fill="#aaa"/><rect width="0.9433962264150944em" height="1.5444524507820587em" x="54.716981132075475em" y="28.45554754921794em" fill="#aaa"/><rect width="0.9433962264150944em" height="3.582925461891017em" x="55.660377358490564em" y="26.417074538108984em" fill="#aaa"/><rect width="0.9433962264150944em" height="3.081267569911415em" x="56.60377358490566em" y="26.918732430088586em" fill="#aaa"/><rect width="0.9433962264150944em" height="1.3672337531200274em" x="57.54716981132076em" y="28.632766246879974em" fill="#aaa"/><rect width="0.9433962264150944em" height="6.284856804744673em" x="58.49056603773585em" y="23.715143195255326em" fill="#aaa"/><rect width="0.9433962264150944em" height="1.9072375677194235em" x="59.43396226415094em" y="28.092762432280576em" fill="#aaa"/><rect width="0.9433962264150944em" height="4.020733400625496em" x="60.37735849056604em" y="25.979266599374505em" fill="#aaa"/><rect width="0.9433962264150944em" height="4.414939487159034em" x="61.320754716981135em" y="25.585060512840965em" fill="#aaa"/><rect width="0.9433962264150944em" height="3.7060628336409462em" x="62.264150943396224em" y="26.293937166359054em" fill="#aaa"/><rect width="0.9433962264150944em" height="4.583733188919432em" x="63.20754716981132em" y="25.41626681108057em" fill="#aaa"/><rect width="0.9433962264150944em" height="2.764222041662925em" x="64.15094339622641em" y="27.235777958337074em" fill="#aaa"/><rect width="0.9433962264150944em" height="3.3126929595227645em" x="65.09433962264151em" y="26.687307040477236em" fill="#aaa"/><rect width="0.9433962264150944em" height="3.322171864376111em" x="66.0377358490566em" y="26.67782813562389em" fill="#aaa"/><rect width="0.9433962264150944em" height="5.232886260063441em" x="66.9811320754717em" y="24.76711373993656em" fill="#aaa"/><rect width="0.9433962264150944em" height="4.98467634860912em" x="67.9245283018868em" y="25.01532365139088em" fill="#aaa"/><rect width="0.9433962264150944em" height="12.711701680403463em" x="68.86792452830188em" y="17.288298319596535em" fill="#aaa"/><rect width="0.9433962264150944em" height="7.760886453464128em" x="69.81132075471699em" y="22.239113546535872em" fill="#aaa"/><rect width="0.9433962264150944em" height="13.047339572644157em" x="70.75471698113208em" y="16.952660427355845em" fill="#aaa"/><rect width="0.9433962264150944em" height="4.819454771537502em" x="71.69811320754717em" y="25.1805452284625em" fill="#aaa"/><rect width="0.9433962264150944em" height="18.13158337459257em" x="72.64150943396227em" y="11.86841662540743em" fill="#aaa"/><rect width="0.9433962264150944em" height="7.281108027614838em" x="73.58490566037736em" y="22.718891972385162em" fill="#aaa"/><rect width="0.9433962264150944em" height="4.4570317134028254em" x="74.52830188679245em" y="25.542968286597173em" fill="#aaa"/><rect width="0.9433962264150944em" height="8.644094054705695em" x="75.47169811320755em" y="21.355905945294303em" fill="#aaa"/><rect width="0.9433962264150944em" height="12.749705180397394em" x="76.41509433962264em" y="17.25029481960261em" fill="#aaa"/><rect width="0.9433962264150944em" height="10.37289431497501em" x="77.35849056603773em" y="19.62710568502499em" fill="#aaa"/><rect width="0.9433962264150944em" height="10.66799617755219em" x="78.30188679245283em" y="19.33200382244781em" fill="#aaa"/><rect width="0.9433962264150944em" height="6.257481616143516em" x="79.24528301886792em" y="23.742518383856485em" fill="#aaa"/><rect width="0.9433962264150944em" height="12.667574019496968em" x="80.18867924528303em" y="17.332425980503032em" fill="#aaa"/><rect width="0.9433962264150944em" height="11.170315891639458em" x="81.13207547169812em" y="18.829684108360542em" fill="#aaa"/><rect width="0.9433962264150944em" height="10.285408990645909em" x="82.0754716981132em" y="19.71459100935409em" fill="#aaa"/><rect width="0.9433962264150944em" height="4.11615905246426em" x="83.01886792452831em" y="25.883840947535738em" fill="#aaa"/><rect width="0.9433962264150944em" height="8.42388942160098em" x="83.9622641509434em" y="21.576110578399017em" fill="#aaa"/><rect width="0.9433962264150944em" height="30em" x="84.90566037735849em" y="0em" fill="#aaa"/><rect width="0.9433962264150944em" height="19.537687918888015em" x="85.84905660377359em" y="10.462312081111985em" fill="#aaa"/><rect width="0.9433962264150944em" height="11.986363638958633em" x="86.79245283018868em" y="18.013636361041367em" fill="#aaa"/><rect width="0.9433962264150944em" height="13.226174692585364em" x="87.73584905660377em" y="16.773825307414636em" fill="#aaa"/><rect width="0.9433962264150944em" height="11.560106111203272em" x="88.67924528301887em" y="18.43989388879673em" fill="#aaa"/><rect width="0.9433962264150944em" height="13.437768151985198em" x="89.62264150943396em" y="16.562231848014804em" fill="#aaa"/><rect width="0.9433962264150944em" height="11.25593027426864em" x="90.56603773584905em" y="18.74406972573136em" fill="#aaa"/><rect width="0.9433962264150944em" height="9.48380611431662em" x="91.50943396226415em" y="20.51619388568338em" fill="#aaa"/><rect width="0.9433962264150944em" height="8.132310149303324em" x="92.45283018867924em" y="21.867689850696678em" fill="#aaa"/><rect width="0.9433962264150944em" height="4.10686913609008em" x="93.39622641509435em" y="25.89313086390992em" fill="#aaa"/><rect width="0.9433962264150944em" height="6.768275221295367em" x="94.33962264150944em" y="23.23172477870463em" fill="#aaa"/><rect width="0.9433962264150944em" height="3.5322289751908738em" x="95.28301886792453em" y="26.467771024809124em" fill="#aaa"/><rect width="0.9433962264150944em" height="3.9596469295324526em" x="96.22641509433963em" y="26.040353070467546em" fill="#aaa"/><rect width="0.9433962264150944em" height="5.489987010599085em" x="97.16981132075472em" y="24.510012989400913em" fill="#aaa"/><rect width="0.9433962264150944em" height="4.068708882729893em" x="98.11320754716981em" y="25.931291117270106em" fill="#aaa"/><rect width="0.9433962264150944em" height="4.9466680454152225em" x="99.05660377358491em" y="25.053331954584777em" fill="#aaa"/></svg>