<?xml version="1.0" standalone="no"?>
<svg xmlns:xlink="http://www.w3.org/1999/xlink" xmlns="http://www.w3.org/2000/svg" class="topic-graph" style="width: 100em; height: 30em; text-align: center;"><rect width="0.9433962264150944em" height="0.11984316117854243em" x="0em" y="29.880156838821456em" fill="#aaa"/><rect width="0.9433962264150944em" height="0.7012707642604696em" x="0.9433962264150944em" y="29.29872923573953em" fill="#aaa"/><rect width="0.9433962264150944em" height="1.643882505585115em" x="1.8867924528301887em" y="28.356117494414885em" fill="#aaa"/><rect width="0.9433962264150944em" height="1.9264426294475536em" x="2.830188679245283em" y="28.073557370552447em" fill="#aaa"/><rect width="0.9433962264150944em" height="1.411261179251115em" x="3.7735849056603774em" y="28.588738820748887em" fill="#aaa"/><rect width="0.9433962264150944em" height="4.09852413025672em" x="4.716981132075472em" y="25.90147586974328em" fill="#aaa"/><rect width="0.9433962264150944em" height="7.123395959597087em" x="5.660377358490566em" y="22.876604040402913em" fill="#aaa"/><rect width="0.9433962264150944em" height="1.9885609362336145em" x="6.60377358490566em" y="28.011439063766385em" fill="#aaa"/><rect width="0.9433962264150944em" height="2.758843950526354em" x="7.547169811320755em" y="27.241156049473645em" fill="#aaa"/><rect width="0.9433962264150944em" height="1.653583717198906em" x="8.49056603773585em" y="28.346416282801094em" fill="#aaa"/><rect width="0.9433962264150944em" height="0.470923830999382em" x="9.433962264150944em" y="29.529076169000618em" fill="#aaa"/><rect width="0.9433962264150944em" height="2.446931826660524em" x="10.377358490566039em" y="27.553068173339476em" fill="#aaa"/><rect width="0.9433962264150944em" height="2.6312587932633233em" x="11.320754716981131em" y="27.368741206736676em" fill="#aaa"/><rect width="0.9433962264150944em" height="0em" x="12.264150943396226em" y="30em" fill="#aaa"/><rect width="0.9433962264150944em" height="2.628589949494319em" x="13.20754716981132em" y="27.37141005050568em" fill="#aaa"/><rect width="0.9433962264150944em" height="1.1963031204959536em" x="14.150943396226415em" y="28.803696879504045em" fill="#aaa"/><rect width="0.9433962264150944em" height="2.4622047975665273em" x="15.09433962264151em" y="27.537795202433472em" fill="#aaa"/><rect width="0.9433962264150944em" height="0.5333808548927923em" x="16.037735849056602em" y="29.46661914510721em" fill="#aaa"/><rect width="0.9433962264150944em" height="1.3999810220538582em" x="16.9811320754717em" y="28.600018977946142em" fill="#aaa"/><rect width="0.9433962264150944em" height="2.2023918167206205em" x="17.92452830188679em" y="27.79760818327938em" fill="#aaa"/><rect width="0.9433962264150944em" height="3.328483151393484em" x="18.867924528301888em" y="26.671516848606515em" fill="#aaa"/><rect width="0.9433962264150944em" height="4.480208317476347em" x="19.81132075471698em" y="25.519791682523653em" fill="#aaa"/><rect width="0.9433962264150944em" height="2.7952586735641285em" x="20.754716981132077em" y="27.204741326435872em" fill="#aaa"/><rect width="0.9433962264150944em" height="5.214555288496792em" x="21.69811320754717em" y="24.78544471150321em" fill="#aaa"/><rect width="0.9433962264150944em" height="4.870457430491947em" x="22.641509433962263em" y="25.129542569508054em" fill="#aaa"/><rect width="0.9433962264150944em" height="1.9589108518232918em" x="23.58490566037736em" y="28.04108914817671em" fill="#aaa"/><rect width="0.9433962264150944em" height="0em" x="24.528301886792452em" y="30em" fill="#aaa"/><rect width="0.9433962264150944em" height="3.7065464150161933em" x="25.471698113207548em" y="26.29345358498381em" fill="#aaa"/><rect width="0.9433962264150944em" height="1.6294008346266684em" x="26.41509433962264em" y="28.37059916537333em" fill="#aaa"/><rect width="0.9433962264150944em" height="2.3595264965883134em" x="27.358490566037737em" y="27.640473503411688em" fill="#aaa"/><rect width="0.9433962264150944em" height="2.3220409943004205em" x="28.30188679245283em" y="27.67795900569958em" fill="#aaa"/><rect width="0.9433962264150944em" height="2.334630247273073em" x="29.245283018867926em" y="27.665369752726928em" fill="#aaa"/><rect width="0.9433962264150944em" height="1.737878380737108em" x="30.18867924528302em" y="28.262121619262892em" fill="#aaa"/><rect width="0.9433962264150944em" height="2.4960645038501394em" x="31.132075471698112em" y="27.50393549614986em" fill="#aaa"/><rect width="0.9433962264150944em" height="1.9973730287434681em" x="32.075471698113205em" y="28.002626971256532em" fill="#aaa"/><rect width="0.9433962264150944em" height="1.6537897326628554em" x="33.0188679245283em" y="28.346210267337145em" fill="#aaa"/><rect width="0.9433962264150944em" height="1.5689766512753258em" x="33.9622641509434em" y="28.431023348724676em" fill="#aaa"/><rect width="0.9433962264150944em" height="2.5059616741049218em" x="34.905660377358494em" y="27.49403832589508em" fill="#aaa"/><rect width="0.9433962264150944em" height="2.2132489857313056em" x="35.84905660377358em" y="27.786751014268695em" fill="#aaa"/><rect width="0.9433962264150944em" height="2.04434609758586em" x="36.79245283018868em" y="27.95565390241414em" fill="#aaa"/><rect width="0.9433962264150944em" height="2.5938627961627962em" x="37.735849056603776em" y="27.406137203837204em" fill="#aaa"/><rect width="0.9433962264150944em" height="2.8872608335210437em" x="38.679245283018865em" y="27.112739166478956em" fill="#aaa"/><rect width="0.9433962264150944em" height="5.136808085650257em" x="39.62264150943396em" y="24.86319191434974em" fill="#aaa"/><rect width="0.9433962264150944em" height="3.55820107123881em" x="40.56603773584906em" y="26.44179892876119em" fill="#aaa"/><rect width="0.9433962264150944em" height="3.2902412830982555em" x="41.509433962264154em" y="26.709758716901746em" fill="#aaa"/><rect width="0.9433962264150944em" height="3.7770286311060515em" x="42.45283018867924em" y="26.222971368893948em" fill="#aaa"/><rect width="0.9433962264150944em" height="4.4701912769387615em" x="43.39622641509434em" y="25.529808723061237em" fill="#aaa"/><rect width="0.9433962264150944em" height="6.13347841443712em" x="44.339622641509436em" y="23.86652158556288em" fill="#aaa"/><rect width="0.9433962264150944em" height="2.505161844409107em" x="45.283018867924525em" y="27.494838155590895em" fill="#aaa"/><rect width="0.9433962264150944em" height="2.46758169085533em" x="46.22641509433962em" y="27.53241830914467em" fill="#aaa"/><rect width="0.9433962264150944em" height="2.953643022766178em" x="47.16981132075472em" y="27.04635697723382em" fill="#aaa"/><rect width="0.9433962264150944em" height="3.353937368038333em" x="48.113207547169814em" y="26.646062631961666em" fill="#aaa"/><rect width="0.9433962264150944em" height="4.310068340926811em" x="49.056603773584904em" y="25.68993165907319em" fill="#aaa"/><rect width="0.9433962264150944em" height="4.016623612834876em" x="50em" y="25.983376387165123em" fill="#aaa"/><rect width="0.9433962264150944em" height="3.5652542978293917em" x="50.943396226415096em" y="26.43474570217061em" fill="#aaa"/><rect width="0.9433962264150944em" height="3.5497146766347454em" x="51.88679245283019em" y="26.450285323365254em" fill="#aaa"/><rect width="0.9433962264150944em" height="1.984346052675866em" x="52.83018867924528em" y="28.015653947324132em" fill="#aaa"/><rect width="0.9433962264150944em" height="3.6270611913894775em" x="53.77358490566038em" y="26.372938808610524em" fill="#aaa"/><rect width="0.9433962264150944em" height="2.221940378802372em" x="54.716981132075475em" y="27.778059621197627em" fill="#aaa"/><rect width="0.9433962264150944em" height="4.670326877898312em" x="55.660377358490564em" y="25.32967312210169em" fill="#aaa"/><rect width="0.9433962264150944em" height="6.513287229749351em" x="56.60377358490566em" y="23.486712770250648em" fill="#aaa"/><rect width="0.9433962264150944em" height="3.1046437493592123em" x="57.54716981132076em" y="26.895356250640788em" fill="#aaa"/><rect width="0.9433962264150944em" height="2.9918214300517425em" x="58.49056603773585em" y="27.008178569948257em" fill="#aaa"/><rect width="0.9433962264150944em" height="2.763750371462311em" x="59.43396226415094em" y="27.23624962853769em" fill="#aaa"/><rect width="0.9433962264150944em" height="4.582725898513058em" x="60.37735849056604em" y="25.417274101486942em" fill="#aaa"/><rect width="0.9433962264150944em" height="5.631963513815966em" x="61.320754716981135em" y="24.368036486184035em" fill="#aaa"/><rect width="0.9433962264150944em" height="5.13145330632884em" x="62.264150943396224em" y="24.86854669367116em" fill="#aaa"/><rect width="0.9433962264150944em" height="7.791853757114741em" x="63.20754716981132em" y="22.20814624288526em" fill="#aaa"/><rect width="0.9433962264150944em" height="20.70118669192711em" x="64.15094339622641em" y="9.29881330807289em" fill="#aaa"/><rect width="0.9433962264150944em" height="2.8447728666469443em" x="65.09433962264151em" y="27.155227133353055em" fill="#aaa"/><rect width="0.9433962264150944em" height="4.365688647702594em" x="66.0377358490566em" y="25.634311352297406em" fill="#aaa"/><rect width="0.9433962264150944em" height="5.149858644067311em" x="66.9811320754717em" y="24.85014135593269em" fill="#aaa"/><rect width="0.9433962264150944em" height="7.998646576995741em" x="67.9245283018868em" y="22.00135342300426em" fill="#aaa"/><rect width="0.9433962264150944em" height="4.814481147058441em" x="68.86792452830188em" y="25.18551885294156em" fill="#aaa"/><rect width="0.9433962264150944em" height="3.904822103695385em" x="69.81132075471699em" y="26.095177896304616em" fill="#aaa"/><rect width="0.9433962264150944em" height="2.6271785239127614em" x="70.75471698113208em" y="27.37282147608724em" fill="#aaa"/><rect width="0.9433962264150944em" height="3.7218000094138426em" x="71.69811320754717em" y="26.278199990586156em" fill="#aaa"/><rect width="0.9433962264150944em" height="3.124607054556067em" x="72.64150943396227em" y="26.875392945443934em" fill="#aaa"/><rect width="0.9433962264150944em" height="30em" x="73.58490566037736em" y="0em" fill="#aaa"/><rect width="0.9433962264150944em" height="3.4522296316961447em" x="74.52830188679245em" y="26.547770368303855em" fill="#aaa"/><rect width="0.9433962264150944em" height="4.412063733772847em" x="75.47169811320755em" y="25.587936266227153em" fill="#aaa"/><rect width="0.9433962264150944em" height="2.479370686237676em" x="76.41509433962264em" y="27.520629313762324em" fill="#aaa"/><rect width="0.9433962264150944em" height="7.393959901920408em" x="77.35849056603773em" y="22.606040098079593em" fill="#aaa"/><rect width="0.9433962264150944em" height="5.796339539778121em" x="78.30188679245283em" y="24.20366046022188em" fill="#aaa"/><rect width="0.9433962264150944em" height="5.4564005056262275em" x="79.24528301886792em" y="24.543599494373773em" fill="#aaa"/><rect width="0.9433962264150944em" height="8.311937389557064em" x="80.18867924528303em" y="21.688062610442934em" fill="#aaa"/><rect width="0.9433962264150944em" height="3.588026697195277em" x="81.13207547169812em" y="26.411973302804725em" fill="#aaa"/><rect width="0.9433962264150944em" height="9.20804752732119em" x="82.0754716981132em" y="20.79195247267881em" fill="#aaa"/><rect width="0.9433962264150944em" height="8.332549815733438em" x="83.01886792452831em" y="21.667450184266563em" fill="#aaa"/><rect width="0.9433962264150944em" height="10.559075867846007em" x="83.9622641509434em" y="19.440924132153995em" fill="#aaa"/><rect width="0.9433962264150944em" height="2.9614376675398995em" x="84.90566037735849em" y="27.0385623324601em" fill="#aaa"/><rect width="0.9433962264150944em" height="6.177824610410718em" x="85.84905660377359em" y="23.822175389589283em" fill="#aaa"/><rect width="0.9433962264150944em" height="4.1925968576377235em" x="86.79245283018868em" y="25.807403142362276em" fill="#aaa"/><rect width="0.9433962264150944em" height="7.070217544780738em" x="87.73584905660377em" y="22.92978245521926em" fill="#aaa"/><rect width="0.9433962264150944em" height="4.253008540789323em" x="88.67924528301887em" y="25.746991459210676em" fill="#aaa"/><rect width="0.9433962264150944em" height="4.932601549985608em" x="89.62264150943396em" y="25.06739845001439em" fill="#aaa"/><rect width="0.9433962264150944em" height="4.3931468801797156em" x="90.56603773584905em" y="25.606853119820286em" fill="#aaa"/><rect width="0.9433962264150944em" height="5.688652066173384em" x="91.50943396226415em" y="24.311347933826617em" fill="#aaa"/><rect width="0.9433962264150944em" height="5.311874110232325em" x="92.45283018867924em" y="24.688125889767676em" fill="#aaa"/><rect width="0.9433962264150944em" height="7.032108910808892em" x="93.39622641509435em" y="22.967891089191106em" fill="#aaa"/><rect width="0.9433962264150944em" height="14.015169145991083em" x="94.33962264150944em" y="15.984830854008917em" fill="#aaa"/><rect width="0.9433962264150944em" height="7.114809107661837em" x="95.28301886792453em" y="22.885190892338162em" fill="#aaa"/><rect width="0.9433962264150944em" height="6.746574360935921em" x="96.22641509433963em" y="23.25342563906408em" fill="#aaa"/><rect width="0.9433962264150944em" height="3.4745115507100905em" x="97.16981132075472em" y="26.52548844928991em" fill="#aaa"/><rect width="0.9433962264150944em" height="8.198167639500127em" x="98.11320754716981em" y="21.801832360499873em" fill="#aaa"/><rect width="0.9433962264150944em" height="9.955575667215689em" x="99.05660377358491em" y="20.04442433278431em" fill="#aaa"/></svg>