<?xml version="1.0" standalone="no"?>
<svg xmlns:xlink="http://www.w3.org/1999/xlink" xmlns="http://www.w3.org/2000/svg" class="topic-graph" style="width: 100em; height: 30em; text-align: center;"><rect width="0.9433962264150944em" height="0.005466689626892266em" x="0em" y="29.994533310373107em" fill="#aaa"/><rect width="0.9433962264150944em" height="0.03653627573500824em" x="0.9433962264150944em" y="29.96346372426499em" fill="#aaa"/><rect width="0.9433962264150944em" height="1.6288385055488885em" x="1.8867924528301887em" y="28.371161494451112em" fill="#aaa"/><rect width="0.9433962264150944em" height="0.2327511570330097em" x="2.830188679245283em" y="29.76724884296699em" fill="#aaa"/><rect width="0.9433962264150944em" height="0.9076541712704124em" x="3.7735849056603774em" y="29.092345828729588em" fill="#aaa"/><rect width="0.9433962264150944em" height="2.8929338312721455em" x="4.716981132075472em" y="27.107066168727854em" fill="#aaa"/><rect width="0.9433962264150944em" height="0.4217187723224279em" x="5.660377358490566em" y="29.57828122767757em" fill="#aaa"/><rect width="0.9433962264150944em" height="0.03639839610877968em" x="6.60377358490566em" y="29.96360160389122em" fill="#aaa"/><rect width="0.9433962264150944em" height="0.09620375172531755em" x="7.547169811320755em" y="29.903796248274684em" fill="#aaa"/><rect width="0.9433962264150944em" height="0.051311490938548227em" x="8.49056603773585em" y="29.94868850906145em" fill="#aaa"/><rect width="0.9433962264150944em" height="0.011026207621405718em" x="9.433962264150944em" y="29.988973792378594em" fill="#aaa"/><rect width="0.9433962264150944em" height="0.45896556093176216em" x="10.377358490566039em" y="29.541034439068238em" fill="#aaa"/><rect width="0.9433962264150944em" height="0.005720853455362294em" x="11.320754716981131em" y="29.99427914654464em" fill="#aaa"/><rect width="0.9433962264150944em" height="0em" x="12.264150943396226em" y="30em" fill="#aaa"/><rect width="0.9433962264150944em" height="0.34580098626115563em" x="13.20754716981132em" y="29.654199013738843em" fill="#aaa"/><rect width="0.9433962264150944em" height="1.8262920204456998em" x="14.150943396226415em" y="28.1737079795543em" fill="#aaa"/><rect width="0.9433962264150944em" height="0.4744278961883629em" x="15.09433962264151em" y="29.525572103811637em" fill="#aaa"/><rect width="0.9433962264150944em" height="0.15487886409685384em" x="16.037735849056602em" y="29.845121135903145em" fill="#aaa"/><rect width="0.9433962264150944em" height="0.40724915106759113em" x="16.9811320754717em" y="29.592750848932408em" fill="#aaa"/><rect width="0.9433962264150944em" height="2.630207719679472em" x="17.92452830188679em" y="27.369792280320528em" fill="#aaa"/><rect width="0.9433962264150944em" height="6.043901825931em" x="18.867924528301888em" y="23.956098174068998em" fill="#aaa"/><rect width="0.9433962264150944em" height="5.849463707480717em" x="19.81132075471698em" y="24.150536292519284em" fill="#aaa"/><rect width="0.9433962264150944em" height="4.5870833438899155em" x="20.754716981132077em" y="25.412916656110085em" fill="#aaa"/><rect width="0.9433962264150944em" height="1.9715761696511973em" x="21.69811320754717em" y="28.028423830348803em" fill="#aaa"/><rect width="0.9433962264150944em" height="1.1739584193534998em" x="22.641509433962263em" y="28.8260415806465em" fill="#aaa"/><rect width="0.9433962264150944em" height="0.9710263631507121em" x="23.58490566037736em" y="29.028973636849287em" fill="#aaa"/><rect width="0.9433962264150944em" height="0em" x="24.528301886792452em" y="30em" fill="#aaa"/><rect width="0.9433962264150944em" height="3.2959530187489996em" x="25.471698113207548em" y="26.704046981251em" fill="#aaa"/><rect width="0.9433962264150944em" height="2.5124041419388714em" x="26.41509433962264em" y="27.487595858061127em" fill="#aaa"/><rect width="0.9433962264150944em" height="6.430685636717124em" x="27.358490566037737em" y="23.569314363282878em" fill="#aaa"/><rect width="0.9433962264150944em" height="16.836101634378952em" x="28.30188679245283em" y="13.163898365621048em" fill="#aaa"/><rect width="0.9433962264150944em" height="11.782049939007312em" x="29.245283018867926em" y="18.21795006099269em" fill="#aaa"/><rect width="0.9433962264150944em" height="30em" x="30.18867924528302em" y="0em" fill="#aaa"/><rect width="0.9433962264150944em" height="19.079270066627245em" x="31.132075471698112em" y="10.920729933372755em" fill="#aaa"/><rect width="0.9433962264150944em" height="10.977857123062591em" x="32.075471698113205em" y="19.02214287693741em" fill="#aaa"/><rect width="0.9433962264150944em" height="13.913848463321727em" x="33.0188679245283em" y="16.086151536678273em" fill="#aaa"/><rect width="0.9433962264150944em" height="2.237781649121529em" x="33.9622641509434em" y="27.76221835087847em" fill="#aaa"/><rect width="0.9433962264150944em" height="7.4347018920960295em" x="34.905660377358494em" y="22.56529810790397em" fill="#aaa"/><rect width="0.9433962264150944em" height="0.6838844394107726em" x="35.84905660377358em" y="29.31611556058923em" fill="#aaa"/><rect width="0.9433962264150944em" height="1.5160668741294514em" x="36.79245283018868em" y="28.48393312587055em" fill="#aaa"/><rect width="0.9433962264150944em" height="5.029417018107213em" x="37.735849056603776em" y="24.970582981892786em" fill="#aaa"/><rect width="0.9433962264150944em" height="2.1972624228829702em" x="38.679245283018865em" y="27.80273757711703em" fill="#aaa"/><rect width="0.9433962264150944em" height="4.31204088242227em" x="39.62264150943396em" y="25.68795911757773em" fill="#aaa"/><rect width="0.9433962264150944em" height="0.6097065273874456em" x="40.56603773584906em" y="29.390293472612555em" fill="#aaa"/><rect width="0.9433962264150944em" height="1.528888846976457em" x="41.509433962264154em" y="28.471111153023543em" fill="#aaa"/><rect width="0.9433962264150944em" height="2.6903329505834384em" x="42.45283018867924em" y="27.30966704941656em" fill="#aaa"/><rect width="0.9433962264150944em" height="3.4445503126676433em" x="43.39622641509434em" y="26.555449687332356em" fill="#aaa"/><rect width="0.9433962264150944em" height="1.6864993582516863em" x="44.339622641509436em" y="28.313500641748313em" fill="#aaa"/><rect width="0.9433962264150944em" height="0.5559457484702931em" x="45.283018867924525em" y="29.444054251529707em" fill="#aaa"/><rect width="0.9433962264150944em" height="1.5918041454807437em" x="46.22641509433962em" y="28.408195854519256em" fill="#aaa"/><rect width="0.9433962264150944em" height="6.758975993290235em" x="47.16981132075472em" y="23.241024006709765em" fill="#aaa"/><rect width="0.9433962264150944em" height="3.8324308263748748em" x="48.113207547169814em" y="26.167569173625125em" fill="#aaa"/><rect width="0.9433962264150944em" height="1.2031197148522474em" x="49.056603773584904em" y="28.796880285147754em" fill="#aaa"/><rect width="0.9433962264150944em" height="1.0283555268892943em" x="50em" y="28.971644473110707em" fill="#aaa"/><rect width="0.9433962264150944em" height="1.89238235119024em" x="50.943396226415096em" y="28.10761764880976em" fill="#aaa"/><rect width="0.9433962264150944em" height="0.7494730326924933em" x="51.88679245283019em" y="29.250526967307508em" fill="#aaa"/><rect width="0.9433962264150944em" height="1.807306960540443em" x="52.83018867924528em" y="28.192693039459556em" fill="#aaa"/><rect width="0.9433962264150944em" height="1.4673018370799218em" x="53.77358490566038em" y="28.532698162920077em" fill="#aaa"/><rect width="0.9433962264150944em" height="0.5047422627455402em" x="54.716981132075475em" y="29.49525773725446em" fill="#aaa"/><rect width="0.9433962264150944em" height="0.4103209794961302em" x="55.660377358490564em" y="29.58967902050387em" fill="#aaa"/><rect width="0.9433962264150944em" height="2.9348727475862426em" x="56.60377358490566em" y="27.065127252413756em" fill="#aaa"/><rect width="0.9433962264150944em" height="0.13761764803125576em" x="57.54716981132076em" y="29.862382351968744em" fill="#aaa"/><rect width="0.9433962264150944em" height="1.9819714567904372em" x="58.49056603773585em" y="28.018028543209564em" fill="#aaa"/><rect width="0.9433962264150944em" height="3.198203125496731em" x="59.43396226415094em" y="26.801796874503268em" fill="#aaa"/><rect width="0.9433962264150944em" height="2.400180403217374em" x="60.37735849056604em" y="27.599819596782627em" fill="#aaa"/><rect width="0.9433962264150944em" height="9.610043767188209em" x="61.320754716981135em" y="20.38995623281179em" fill="#aaa"/><rect width="0.9433962264150944em" height="10.835445169494074em" x="62.264150943396224em" y="19.164554830505928em" fill="#aaa"/><rect width="0.9433962264150944em" height="0.40210710910209446em" x="63.20754716981132em" y="29.597892890897906em" fill="#aaa"/><rect width="0.9433962264150944em" height="0.12798205002211538em" x="64.15094339622641em" y="29.872017949977884em" fill="#aaa"/><rect width="0.9433962264150944em" height="0.15438490855060907em" x="65.09433962264151em" y="29.845615091449393em" fill="#aaa"/><rect width="0.9433962264150944em" height="0.10995851424918644em" x="66.0377358490566em" y="29.890041485750814em" fill="#aaa"/><rect width="0.9433962264150944em" height="0.2546932098793112em" x="66.9811320754717em" y="29.74530679012069em" fill="#aaa"/><rect width="0.9433962264150944em" height="0.2634690644378716em" x="67.9245283018868em" y="29.73653093556213em" fill="#aaa"/><rect width="0.9433962264150944em" height="0.3406160014269634em" x="68.86792452830188em" y="29.659383998573038em" fill="#aaa"/><rect width="0.9433962264150944em" height="0.283591836185802em" x="69.81132075471699em" y="29.716408163814197em" fill="#aaa"/><rect width="0.9433962264150944em" height="0.27593102802258707em" x="70.75471698113208em" y="29.724068971977413em" fill="#aaa"/><rect width="0.9433962264150944em" height="0.11293388890075218em" x="71.69811320754717em" y="29.887066111099248em" fill="#aaa"/><rect width="0.9433962264150944em" height="0.3531710094702264em" x="72.64150943396227em" y="29.646828990529773em" fill="#aaa"/><rect width="0.9433962264150944em" height="0.4120198799410326em" x="73.58490566037736em" y="29.58798012005897em" fill="#aaa"/><rect width="0.9433962264150944em" height="0.17691996868415194em" x="74.52830188679245em" y="29.823080031315847em" fill="#aaa"/><rect width="0.9433962264150944em" height="0.059271089629456056em" x="75.47169811320755em" y="29.940728910370545em" fill="#aaa"/><rect width="0.9433962264150944em" height="0.10552167184150194em" x="76.41509433962264em" y="29.8944783281585em" fill="#aaa"/><rect width="0.9433962264150944em" height="0.21332038192085642em" x="77.35849056603773em" y="29.786679618079145em" fill="#aaa"/><rect width="0.9433962264150944em" height="0.2293319257024717em" x="78.30188679245283em" y="29.77066807429753em" fill="#aaa"/><rect width="0.9433962264150944em" height="0.07700198410543983em" x="79.24528301886792em" y="29.92299801589456em" fill="#aaa"/><rect width="0.9433962264150944em" height="0.24057397561238275em" x="80.18867924528303em" y="29.75942602438762em" fill="#aaa"/><rect width="0.9433962264150944em" height="0.058589411206071716em" x="81.13207547169812em" y="29.94141058879393em" fill="#aaa"/><rect width="0.9433962264150944em" height="0.10942182864102679em" x="82.0754716981132em" y="29.890578171358975em" fill="#aaa"/><rect width="0.9433962264150944em" height="0.514171306166363em" x="83.01886792452831em" y="29.485828693833636em" fill="#aaa"/><rect width="0.9433962264150944em" height="0.10255852310599617em" x="83.9622641509434em" y="29.897441476894002em" fill="#aaa"/><rect width="0.9433962264150944em" height="0.14060754488055957em" x="84.90566037735849em" y="29.85939245511944em" fill="#aaa"/><rect width="0.9433962264150944em" height="0.11086993871833534em" x="85.84905660377359em" y="29.889130061281666em" fill="#aaa"/><rect width="0.9433962264150944em" height="1.2078201659449268em" x="86.79245283018868em" y="28.792179834055073em" fill="#aaa"/><rect width="0.9433962264150944em" height="0.1783531536471751em" x="87.73584905660377em" y="29.821646846352824em" fill="#aaa"/><rect width="0.9433962264150944em" height="0.3017434358491144em" x="88.67924528301887em" y="29.698256564150885em" fill="#aaa"/><rect width="0.9433962264150944em" height="0.049815529215338855em" x="89.62264150943396em" y="29.95018447078466em" fill="#aaa"/><rect width="0.9433962264150944em" height="1.2307791732717226em" x="90.56603773584905em" y="28.769220826728276em" fill="#aaa"/><rect width="0.9433962264150944em" height="0.14703007051872657em" x="91.50943396226415em" y="29.852969929481272em" fill="#aaa"/><rect width="0.9433962264150944em" height="0.04675398105155421em" x="92.45283018867924em" y="29.953246018948445em" fill="#aaa"/><rect width="0.9433962264150944em" height="0.18334813829539542em" x="93.39622641509435em" y="29.816651861704603em" fill="#aaa"/><rect width="0.9433962264150944em" height="0.11002656429648341em" x="94.33962264150944em" y="29.889973435703517em" fill="#aaa"/><rect width="0.9433962264150944em" height="0.126610921319273em" x="95.28301886792453em" y="29.873389078680727em" fill="#aaa"/><rect width="0.9433962264150944em" height="0.10365952484130787em" x="96.22641509433963em" y="29.89634047515869em" fill="#aaa"/><rect width="0.9433962264150944em" height="0.10273562575824788em" x="97.16981132075472em" y="29.897264374241754em" fill="#aaa"/><rect width="0.9433962264150944em" height="0.08585566976577816em" x="98.11320754716981em" y="29.914144330234222em" fill="#aaa"/><rect width="0.9433962264150944em" height="0.11224945271242973em" x="99.05660377358491em" y="29.88775054728757em" fill="#aaa"/></svg>