<?xml version="1.0" standalone="no"?>
<svg xmlns:xlink="http://www.w3.org/1999/xlink" xmlns="http://www.w3.org/2000/svg" class="topic-graph" style="width: 100em; height: 30em; text-align: center;"><rect width="0.9433962264150944em" height="1.233725122022169em" x="0em" y="28.766274877977832em" fill="#aaa"/><rect width="0.9433962264150944em" height="9.688266114886044em" x="0.9433962264150944em" y="20.311733885113956em" fill="#aaa"/><rect width="0.9433962264150944em" height="12.403379839301858em" x="1.8867924528301887em" y="17.596620160698144em" fill="#aaa"/><rect width="0.9433962264150944em" height="14.842547947840924em" x="2.830188679245283em" y="15.157452052159076em" fill="#aaa"/><rect width="0.9433962264150944em" height="9.407777639832155em" x="3.7735849056603774em" y="20.592222360167845em" fill="#aaa"/><rect width="0.9433962264150944em" height="19.004117042356807em" x="4.716981132075472em" y="10.995882957643193em" fill="#aaa"/><rect width="0.9433962264150944em" height="8.573406197035657em" x="5.660377358490566em" y="21.42659380296434em" fill="#aaa"/><rect width="0.9433962264150944em" height="30em" x="6.60377358490566em" y="0em" fill="#aaa"/><rect width="0.9433962264150944em" height="6.100046664891389em" x="7.547169811320755em" y="23.899953335108613em" fill="#aaa"/><rect width="0.9433962264150944em" height="10.511123632170097em" x="8.49056603773585em" y="19.488876367829903em" fill="#aaa"/><rect width="0.9433962264150944em" height="4.362008428746397em" x="9.433962264150944em" y="25.637991571253604em" fill="#aaa"/><rect width="0.9433962264150944em" height="18.83740436450938em" x="10.377358490566039em" y="11.162595635490622em" fill="#aaa"/><rect width="0.9433962264150944em" height="18.6636040465569em" x="11.320754716981131em" y="11.336395953443098em" fill="#aaa"/><rect width="0.9433962264150944em" height="0em" x="12.264150943396226em" y="30em" fill="#aaa"/><rect width="0.9433962264150944em" height="6.020273235227851em" x="13.20754716981132em" y="23.97972676477215em" fill="#aaa"/><rect width="0.9433962264150944em" height="7.800590761732894em" x="14.150943396226415em" y="22.199409238267105em" fill="#aaa"/><rect width="0.9433962264150944em" height="5.977928307641578em" x="15.09433962264151em" y="24.022071692358423em" fill="#aaa"/><rect width="0.9433962264150944em" height="9.004617962279472em" x="16.037735849056602em" y="20.99538203772053em" fill="#aaa"/><rect width="0.9433962264150944em" height="4.8149294333068315em" x="16.9811320754717em" y="25.18507056669317em" fill="#aaa"/><rect width="0.9433962264150944em" height="4.481635277019201em" x="17.92452830188679em" y="25.5183647229808em" fill="#aaa"/><rect width="0.9433962264150944em" height="9.112009111194823em" x="18.867924528301888em" y="20.887990888805177em" fill="#aaa"/><rect width="0.9433962264150944em" height="6.55365226754849em" x="19.81132075471698em" y="23.44634773245151em" fill="#aaa"/><rect width="0.9433962264150944em" height="3.9553063117582545em" x="20.754716981132077em" y="26.044693688241747em" fill="#aaa"/><rect width="0.9433962264150944em" height="4.095121205764169em" x="21.69811320754717em" y="25.90487879423583em" fill="#aaa"/><rect width="0.9433962264150944em" height="4.884601657612572em" x="22.641509433962263em" y="25.11539834238743em" fill="#aaa"/><rect width="0.9433962264150944em" height="4.799390788691345em" x="23.58490566037736em" y="25.200609211308656em" fill="#aaa"/><rect width="0.9433962264150944em" height="0em" x="24.528301886792452em" y="30em" fill="#aaa"/><rect width="0.9433962264150944em" height="8.540816499815763em" x="25.471698113207548em" y="21.45918350018424em" fill="#aaa"/><rect width="0.9433962264150944em" height="4.043806346535543em" x="26.41509433962264em" y="25.956193653464457em" fill="#aaa"/><rect width="0.9433962264150944em" height="5.851680825568366em" x="27.358490566037737em" y="24.148319174431634em" fill="#aaa"/><rect width="0.9433962264150944em" height="3.8019305787872444em" x="28.30188679245283em" y="26.198069421212757em" fill="#aaa"/><rect width="0.9433962264150944em" height="5.32188563509072em" x="29.245283018867926em" y="24.67811436490928em" fill="#aaa"/><rect width="0.9433962264150944em" height="5.74156892546851em" x="30.18867924528302em" y="24.25843107453149em" fill="#aaa"/><rect width="0.9433962264150944em" height="4.5857985368311605em" x="31.132075471698112em" y="25.41420146316884em" fill="#aaa"/><rect width="0.9433962264150944em" height="4.059000235730058em" x="32.075471698113205em" y="25.940999764269943em" fill="#aaa"/><rect width="0.9433962264150944em" height="5.672685934579773em" x="33.0188679245283em" y="24.327314065420225em" fill="#aaa"/><rect width="0.9433962264150944em" height="7.696244202949772em" x="33.9622641509434em" y="22.30375579705023em" fill="#aaa"/><rect width="0.9433962264150944em" height="7.000846002033968em" x="34.905660377358494em" y="22.999153997966033em" fill="#aaa"/><rect width="0.9433962264150944em" height="6.667734897981234em" x="35.84905660377358em" y="23.332265102018766em" fill="#aaa"/><rect width="0.9433962264150944em" height="6.307448997981626em" x="36.79245283018868em" y="23.692551002018373em" fill="#aaa"/><rect width="0.9433962264150944em" height="7.412796841499217em" x="37.735849056603776em" y="22.587203158500785em" fill="#aaa"/><rect width="0.9433962264150944em" height="4.242395831196792em" x="38.679245283018865em" y="25.75760416880321em" fill="#aaa"/><rect width="0.9433962264150944em" height="3.993480008752309em" x="39.62264150943396em" y="26.006519991247693em" fill="#aaa"/><rect width="0.9433962264150944em" height="4.838799523108909em" x="40.56603773584906em" y="25.16120047689109em" fill="#aaa"/><rect width="0.9433962264150944em" height="6.815983514970631em" x="41.509433962264154em" y="23.184016485029368em" fill="#aaa"/><rect width="0.9433962264150944em" height="7.472895092467746em" x="42.45283018867924em" y="22.527104907532255em" fill="#aaa"/><rect width="0.9433962264150944em" height="7.7277838619906145em" x="43.39622641509434em" y="22.272216138009384em" fill="#aaa"/><rect width="0.9433962264150944em" height="4.8830686994944905em" x="44.339622641509436em" y="25.11693130050551em" fill="#aaa"/><rect width="0.9433962264150944em" height="4.063647826536165em" x="45.283018867924525em" y="25.936352173463835em" fill="#aaa"/><rect width="0.9433962264150944em" height="6.819146729833975em" x="46.22641509433962em" y="23.180853270166025em" fill="#aaa"/><rect width="0.9433962264150944em" height="5.949757216008636em" x="47.16981132075472em" y="24.050242783991365em" fill="#aaa"/><rect width="0.9433962264150944em" height="6.944901264430074em" x="48.113207547169814em" y="23.055098735569928em" fill="#aaa"/><rect width="0.9433962264150944em" height="6.720402585232178em" x="49.056603773584904em" y="23.27959741476782em" fill="#aaa"/><rect width="0.9433962264150944em" height="8.091090601115313em" x="50em" y="21.90890939888469em" fill="#aaa"/><rect width="0.9433962264150944em" height="8.44824050995868em" x="50.943396226415096em" y="21.55175949004132em" fill="#aaa"/><rect width="0.9433962264150944em" height="7.516545103609712em" x="51.88679245283019em" y="22.48345489639029em" fill="#aaa"/><rect width="0.9433962264150944em" height="7.733164957366782em" x="52.83018867924528em" y="22.266835042633218em" fill="#aaa"/><rect width="0.9433962264150944em" height="12.74606291736536em" x="53.77358490566038em" y="17.25393708263464em" fill="#aaa"/><rect width="0.9433962264150944em" height="14.415117089857704em" x="54.716981132075475em" y="15.584882910142296em" fill="#aaa"/><rect width="0.9433962264150944em" height="10.027243780471165em" x="55.660377358490564em" y="19.972756219528833em" fill="#aaa"/><rect width="0.9433962264150944em" height="11.493126864625982em" x="56.60377358490566em" y="18.50687313537402em" fill="#aaa"/><rect width="0.9433962264150944em" height="13.361429493123756em" x="57.54716981132076em" y="16.638570506876242em" fill="#aaa"/><rect width="0.9433962264150944em" height="9.289639386737377em" x="58.49056603773585em" y="20.710360613262623em" fill="#aaa"/><rect width="0.9433962264150944em" height="5.543144896262823em" x="59.43396226415094em" y="24.456855103737176em" fill="#aaa"/><rect width="0.9433962264150944em" height="8.993732603897286em" x="60.37735849056604em" y="21.006267396102714em" fill="#aaa"/><rect width="0.9433962264150944em" height="7.389625159940403em" x="61.320754716981135em" y="22.6103748400596em" fill="#aaa"/><rect width="0.9433962264150944em" height="5.785631118826366em" x="62.264150943396224em" y="24.214368881173634em" fill="#aaa"/><rect width="0.9433962264150944em" height="7.612924799064762em" x="63.20754716981132em" y="22.387075200935236em" fill="#aaa"/><rect width="0.9433962264150944em" height="6.421387720759488em" x="64.15094339622641em" y="23.578612279240513em" fill="#aaa"/><rect width="0.9433962264150944em" height="9.45219678043228em" x="65.09433962264151em" y="20.54780321956772em" fill="#aaa"/><rect width="0.9433962264150944em" height="7.1940145343427275em" x="66.0377358490566em" y="22.805985465657272em" fill="#aaa"/><rect width="0.9433962264150944em" height="7.562792926758446em" x="66.9811320754717em" y="22.437207073241552em" fill="#aaa"/><rect width="0.9433962264150944em" height="8.455704621360693em" x="67.9245283018868em" y="21.544295378639305em" fill="#aaa"/><rect width="0.9433962264150944em" height="9.777902570827752em" x="68.86792452830188em" y="20.222097429172248em" fill="#aaa"/><rect width="0.9433962264150944em" height="10.83993564256955em" x="69.81132075471699em" y="19.16006435743045em" fill="#aaa"/><rect width="0.9433962264150944em" height="9.02966242579813em" x="70.75471698113208em" y="20.97033757420187em" fill="#aaa"/><rect width="0.9433962264150944em" height="8.97384127935089em" x="71.69811320754717em" y="21.02615872064911em" fill="#aaa"/><rect width="0.9433962264150944em" height="7.576607761824175em" x="72.64150943396227em" y="22.423392238175825em" fill="#aaa"/><rect width="0.9433962264150944em" height="5.3521317004927385em" x="73.58490566037736em" y="24.647868299507262em" fill="#aaa"/><rect width="0.9433962264150944em" height="9.251958919728951em" x="74.52830188679245em" y="20.74804108027105em" fill="#aaa"/><rect width="0.9433962264150944em" height="7.17905149702942em" x="75.47169811320755em" y="22.82094850297058em" fill="#aaa"/><rect width="0.9433962264150944em" height="7.4420731755530065em" x="76.41509433962264em" y="22.557926824446994em" fill="#aaa"/><rect width="0.9433962264150944em" height="6.322421481401706em" x="77.35849056603773em" y="23.677578518598295em" fill="#aaa"/><rect width="0.9433962264150944em" height="4.800711478499695em" x="78.30188679245283em" y="25.199288521500307em" fill="#aaa"/><rect width="0.9433962264150944em" height="4.573480935166122em" x="79.24528301886792em" y="25.426519064833876em" fill="#aaa"/><rect width="0.9433962264150944em" height="6.860365891797321em" x="80.18867924528303em" y="23.139634108202678em" fill="#aaa"/><rect width="0.9433962264150944em" height="6.503036057710714em" x="81.13207547169812em" y="23.496963942289284em" fill="#aaa"/><rect width="0.9433962264150944em" height="6.40118051063194em" x="82.0754716981132em" y="23.59881948936806em" fill="#aaa"/><rect width="0.9433962264150944em" height="4.4439668628091225em" x="83.01886792452831em" y="25.556033137190877em" fill="#aaa"/><rect width="0.9433962264150944em" height="5.233405415968228em" x="83.9622641509434em" y="24.766594584031772em" fill="#aaa"/><rect width="0.9433962264150944em" height="7.098916979631499em" x="84.90566037735849em" y="22.901083020368503em" fill="#aaa"/><rect width="0.9433962264150944em" height="5.130687685908557em" x="85.84905660377359em" y="24.869312314091445em" fill="#aaa"/><rect width="0.9433962264150944em" height="6.046223773724209em" x="86.79245283018868em" y="23.953776226275792em" fill="#aaa"/><rect width="0.9433962264150944em" height="6.5625141347856415em" x="87.73584905660377em" y="23.43748586521436em" fill="#aaa"/><rect width="0.9433962264150944em" height="6.035031059692532em" x="88.67924528301887em" y="23.964968940307468em" fill="#aaa"/><rect width="0.9433962264150944em" height="4.477427346939295em" x="89.62264150943396em" y="25.522572653060706em" fill="#aaa"/><rect width="0.9433962264150944em" height="4.212525746915324em" x="90.56603773584905em" y="25.787474253084675em" fill="#aaa"/><rect width="0.9433962264150944em" height="4.669045812908438em" x="91.50943396226415em" y="25.330954187091564em" fill="#aaa"/><rect width="0.9433962264150944em" height="5.989176471725751em" x="92.45283018867924em" y="24.010823528274248em" fill="#aaa"/><rect width="0.9433962264150944em" height="5.101934723273018em" x="93.39622641509435em" y="24.89806527672698em" fill="#aaa"/><rect width="0.9433962264150944em" height="6.617079794500876em" x="94.33962264150944em" y="23.382920205499126em" fill="#aaa"/><rect width="0.9433962264150944em" height="5.4811831192041165em" x="95.28301886792453em" y="24.51881688079588em" fill="#aaa"/><rect width="0.9433962264150944em" height="5.8317340091067695em" x="96.22641509433963em" y="24.168265990893232em" fill="#aaa"/><rect width="0.9433962264150944em" height="4.534680458725792em" x="97.16981132075472em" y="25.46531954127421em" fill="#aaa"/><rect width="0.9433962264150944em" height="4.475632700743888em" x="98.11320754716981em" y="25.524367299256113em" fill="#aaa"/><rect width="0.9433962264150944em" height="4.6388925143575em" x="99.05660377358491em" y="25.3611074856425em" fill="#aaa"/></svg>