<?xml version="1.0" standalone="no"?>
<svg xmlns:xlink="http://www.w3.org/1999/xlink" xmlns="http://www.w3.org/2000/svg" class="topic-graph" style="width: 100em; height: 30em; text-align: center;"><rect width="0.9433962264150944em" height="0.9319224222481273em" x="0em" y="29.068077577751872em" fill="#aaa"/><rect width="0.9433962264150944em" height="2.5557022924800585em" x="0.9433962264150944em" y="27.44429770751994em" fill="#aaa"/><rect width="0.9433962264150944em" height="7.395540755855714em" x="1.8867924528301887em" y="22.604459244144287em" fill="#aaa"/><rect width="0.9433962264150944em" height="6.806630263408827em" x="2.830188679245283em" y="23.193369736591173em" fill="#aaa"/><rect width="0.9433962264150944em" height="2.9221041047268272em" x="3.7735849056603774em" y="27.077895895273173em" fill="#aaa"/><rect width="0.9433962264150944em" height="1.8175857744971042em" x="4.716981132075472em" y="28.182414225502896em" fill="#aaa"/><rect width="0.9433962264150944em" height="4.09781279308384em" x="5.660377358490566em" y="25.90218720691616em" fill="#aaa"/><rect width="0.9433962264150944em" height="3.6240520806105843em" x="6.60377358490566em" y="26.375947919389414em" fill="#aaa"/><rect width="0.9433962264150944em" height="2.545747308807515em" x="7.547169811320755em" y="27.454252691192487em" fill="#aaa"/><rect width="0.9433962264150944em" height="4.60148446440626em" x="8.49056603773585em" y="25.398515535593738em" fill="#aaa"/><rect width="0.9433962264150944em" height="2.1704116698509104em" x="9.433962264150944em" y="27.82958833014909em" fill="#aaa"/><rect width="0.9433962264150944em" height="3.7367197158564847em" x="10.377358490566039em" y="26.263280284143516em" fill="#aaa"/><rect width="0.9433962264150944em" height="2.7155138757640063em" x="11.320754716981131em" y="27.284486124235993em" fill="#aaa"/><rect width="0.9433962264150944em" height="0em" x="12.264150943396226em" y="30em" fill="#aaa"/><rect width="0.9433962264150944em" height="2.021974055833936em" x="13.20754716981132em" y="27.978025944166063em" fill="#aaa"/><rect width="0.9433962264150944em" height="0.984636470162739em" x="14.150943396226415em" y="29.01536352983726em" fill="#aaa"/><rect width="0.9433962264150944em" height="2.4686894187893014em" x="15.09433962264151em" y="27.531310581210697em" fill="#aaa"/><rect width="0.9433962264150944em" height="2.9470434933805048em" x="16.037735849056602em" y="27.052956506619495em" fill="#aaa"/><rect width="0.9433962264150944em" height="3.14433595637368em" x="16.9811320754717em" y="26.85566404362632em" fill="#aaa"/><rect width="0.9433962264150944em" height="5.828242170561816em" x="17.92452830188679em" y="24.171757829438185em" fill="#aaa"/><rect width="0.9433962264150944em" height="3.6712109117681226em" x="18.867924528301888em" y="26.32878908823188em" fill="#aaa"/><rect width="0.9433962264150944em" height="2.5889751881161467em" x="19.81132075471698em" y="27.411024811883852em" fill="#aaa"/><rect width="0.9433962264150944em" height="1.4376447428024917em" x="20.754716981132077em" y="28.56235525719751em" fill="#aaa"/><rect width="0.9433962264150944em" height="8.249525352376214em" x="21.69811320754717em" y="21.750474647623786em" fill="#aaa"/><rect width="0.9433962264150944em" height="2.2645196528820706em" x="22.641509433962263em" y="27.735480347117928em" fill="#aaa"/><rect width="0.9433962264150944em" height="1.8662763004234701em" x="23.58490566037736em" y="28.133723699576528em" fill="#aaa"/><rect width="0.9433962264150944em" height="0em" x="24.528301886792452em" y="30em" fill="#aaa"/><rect width="0.9433962264150944em" height="5.402537683029568em" x="25.471698113207548em" y="24.597462316970432em" fill="#aaa"/><rect width="0.9433962264150944em" height="3.0957367268407174em" x="26.41509433962264em" y="26.904263273159284em" fill="#aaa"/><rect width="0.9433962264150944em" height="6.42298601851675em" x="27.358490566037737em" y="23.57701398148325em" fill="#aaa"/><rect width="0.9433962264150944em" height="2.991092356063061em" x="28.30188679245283em" y="27.00890764393694em" fill="#aaa"/><rect width="0.9433962264150944em" height="3.7689678125495156em" x="29.245283018867926em" y="26.231032187450484em" fill="#aaa"/><rect width="0.9433962264150944em" height="3.4027197309324415em" x="30.18867924528302em" y="26.597280269067557em" fill="#aaa"/><rect width="0.9433962264150944em" height="5.09433121886606em" x="31.132075471698112em" y="24.90566878113394em" fill="#aaa"/><rect width="0.9433962264150944em" height="3.413894149504899em" x="32.075471698113205em" y="26.586105850495102em" fill="#aaa"/><rect width="0.9433962264150944em" height="3.462675096249191em" x="33.0188679245283em" y="26.537324903750807em" fill="#aaa"/><rect width="0.9433962264150944em" height="5.488141622251531em" x="33.9622641509434em" y="24.511858377748467em" fill="#aaa"/><rect width="0.9433962264150944em" height="3.9547986212640223em" x="34.905660377358494em" y="26.045201378735978em" fill="#aaa"/><rect width="0.9433962264150944em" height="4.965762635638661em" x="35.84905660377358em" y="25.03423736436134em" fill="#aaa"/><rect width="0.9433962264150944em" height="3.547503668214038em" x="36.79245283018868em" y="26.452496331785962em" fill="#aaa"/><rect width="0.9433962264150944em" height="4.644653239548858em" x="37.735849056603776em" y="25.35534676045114em" fill="#aaa"/><rect width="0.9433962264150944em" height="5.774568959717702em" x="38.679245283018865em" y="24.2254310402823em" fill="#aaa"/><rect width="0.9433962264150944em" height="16.938528046231173em" x="39.62264150943396em" y="13.061471953768827em" fill="#aaa"/><rect width="0.9433962264150944em" height="4.982327864761356em" x="40.56603773584906em" y="25.017672135238644em" fill="#aaa"/><rect width="0.9433962264150944em" height="6.662536576231799em" x="41.509433962264154em" y="23.3374634237682em" fill="#aaa"/><rect width="0.9433962264150944em" height="5.268882564798849em" x="42.45283018867924em" y="24.73111743520115em" fill="#aaa"/><rect width="0.9433962264150944em" height="3.5178146857198076em" x="43.39622641509434em" y="26.482185314280194em" fill="#aaa"/><rect width="0.9433962264150944em" height="7.209878787566774em" x="44.339622641509436em" y="22.790121212433228em" fill="#aaa"/><rect width="0.9433962264150944em" height="3.0104590231931376em" x="45.283018867924525em" y="26.98954097680686em" fill="#aaa"/><rect width="0.9433962264150944em" height="5.5005208421735485em" x="46.22641509433962em" y="24.49947915782645em" fill="#aaa"/><rect width="0.9433962264150944em" height="11.647868307071548em" x="47.16981132075472em" y="18.352131692928452em" fill="#aaa"/><rect width="0.9433962264150944em" height="9.449965299961569em" x="48.113207547169814em" y="20.55003470003843em" fill="#aaa"/><rect width="0.9433962264150944em" height="6.7116655321555125em" x="49.056603773584904em" y="23.288334467844486em" fill="#aaa"/><rect width="0.9433962264150944em" height="9.836699852924479em" x="50em" y="20.16330014707552em" fill="#aaa"/><rect width="0.9433962264150944em" height="13.213338830535491em" x="50.943396226415096em" y="16.78666116946451em" fill="#aaa"/><rect width="0.9433962264150944em" height="10.889357472332097em" x="51.88679245283019em" y="19.110642527667903em" fill="#aaa"/><rect width="0.9433962264150944em" height="4.691338485893982em" x="52.83018867924528em" y="25.308661514106017em" fill="#aaa"/><rect width="0.9433962264150944em" height="5.281011202824776em" x="53.77358490566038em" y="24.718988797175225em" fill="#aaa"/><rect width="0.9433962264150944em" height="5.473172659498039em" x="54.716981132075475em" y="24.52682734050196em" fill="#aaa"/><rect width="0.9433962264150944em" height="8.084471597741588em" x="55.660377358490564em" y="21.91552840225841em" fill="#aaa"/><rect width="0.9433962264150944em" height="6.538788759929632em" x="56.60377358490566em" y="23.46121124007037em" fill="#aaa"/><rect width="0.9433962264150944em" height="8.353039371672287em" x="57.54716981132076em" y="21.64696062832771em" fill="#aaa"/><rect width="0.9433962264150944em" height="9.874692752313734em" x="58.49056603773585em" y="20.125307247686266em" fill="#aaa"/><rect width="0.9433962264150944em" height="4.608048386698151em" x="59.43396226415094em" y="25.39195161330185em" fill="#aaa"/><rect width="0.9433962264150944em" height="7.85093755428781em" x="60.37735849056604em" y="22.14906244571219em" fill="#aaa"/><rect width="0.9433962264150944em" height="6.289126328749645em" x="61.320754716981135em" y="23.710873671250354em" fill="#aaa"/><rect width="0.9433962264150944em" height="12.610892278208112em" x="62.264150943396224em" y="17.389107721791888em" fill="#aaa"/><rect width="0.9433962264150944em" height="7.769194183266636em" x="63.20754716981132em" y="22.230805816733366em" fill="#aaa"/><rect width="0.9433962264150944em" height="8.343088437921379em" x="64.15094339622641em" y="21.65691156207862em" fill="#aaa"/><rect width="0.9433962264150944em" height="15.478660404813706em" x="65.09433962264151em" y="14.521339595186294em" fill="#aaa"/><rect width="0.9433962264150944em" height="10.72546966280457em" x="66.0377358490566em" y="19.27453033719543em" fill="#aaa"/><rect width="0.9433962264150944em" height="7.744421299243097em" x="66.9811320754717em" y="22.255578700756903em" fill="#aaa"/><rect width="0.9433962264150944em" height="7.7103572305157835em" x="67.9245283018868em" y="22.289642769484217em" fill="#aaa"/><rect width="0.9433962264150944em" height="12.771563844008643em" x="68.86792452830188em" y="17.228436155991357em" fill="#aaa"/><rect width="0.9433962264150944em" height="6.495761265096577em" x="69.81132075471699em" y="23.504238734903424em" fill="#aaa"/><rect width="0.9433962264150944em" height="7.690381355585781em" x="70.75471698113208em" y="22.30961864441422em" fill="#aaa"/><rect width="0.9433962264150944em" height="9.087529170080275em" x="71.69811320754717em" y="20.912470829919727em" fill="#aaa"/><rect width="0.9433962264150944em" height="6.338981547676687em" x="72.64150943396227em" y="23.66101845232331em" fill="#aaa"/><rect width="0.9433962264150944em" height="8.383555694284142em" x="73.58490566037736em" y="21.61644430571586em" fill="#aaa"/><rect width="0.9433962264150944em" height="9.525321443159665em" x="74.52830188679245em" y="20.474678556840335em" fill="#aaa"/><rect width="0.9433962264150944em" height="20.24345929125178em" x="75.47169811320755em" y="9.756540708748219em" fill="#aaa"/><rect width="0.9433962264150944em" height="17.098443277774876em" x="76.41509433962264em" y="12.901556722225124em" fill="#aaa"/><rect width="0.9433962264150944em" height="14.662951677523353em" x="77.35849056603773em" y="15.337048322476647em" fill="#aaa"/><rect width="0.9433962264150944em" height="13.7066464629519em" x="78.30188679245283em" y="16.293353537048098em" fill="#aaa"/><rect width="0.9433962264150944em" height="10.090540983059057em" x="79.24528301886792em" y="19.909459016940943em" fill="#aaa"/><rect width="0.9433962264150944em" height="17.49066221715734em" x="80.18867924528303em" y="12.50933778284266em" fill="#aaa"/><rect width="0.9433962264150944em" height="14.357398027545628em" x="81.13207547169812em" y="15.642601972454372em" fill="#aaa"/><rect width="0.9433962264150944em" height="13.982945240562046em" x="82.0754716981132em" y="16.017054759437954em" fill="#aaa"/><rect width="0.9433962264150944em" height="18.134907589687863em" x="83.01886792452831em" y="11.865092410312137em" fill="#aaa"/><rect width="0.9433962264150944em" height="13.52457389065106em" x="83.9622641509434em" y="16.475426109348938em" fill="#aaa"/><rect width="0.9433962264150944em" height="18.515005994032396em" x="84.90566037735849em" y="11.484994005967604em" fill="#aaa"/><rect width="0.9433962264150944em" height="26.251098001344495em" x="85.84905660377359em" y="3.748901998655505em" fill="#aaa"/><rect width="0.9433962264150944em" height="24.706498111193554em" x="86.79245283018868em" y="5.293501888806446em" fill="#aaa"/><rect width="0.9433962264150944em" height="22.439240346001682em" x="87.73584905660377em" y="7.560759653998318em" fill="#aaa"/><rect width="0.9433962264150944em" height="17.941287380057247em" x="88.67924528301887em" y="12.058712619942753em" fill="#aaa"/><rect width="0.9433962264150944em" height="18.132915657487047em" x="89.62264150943396em" y="11.867084342512953em" fill="#aaa"/><rect width="0.9433962264150944em" height="22.023484958570727em" x="90.56603773584905em" y="7.976515041429273em" fill="#aaa"/><rect width="0.9433962264150944em" height="20.200872442041977em" x="91.50943396226415em" y="9.799127557958023em" fill="#aaa"/><rect width="0.9433962264150944em" height="18.346107330316393em" x="92.45283018867924em" y="11.653892669683607em" fill="#aaa"/><rect width="0.9433962264150944em" height="17.90258657732256em" x="93.39622641509435em" y="12.097413422677441em" fill="#aaa"/><rect width="0.9433962264150944em" height="23.607147597147218em" x="94.33962264150944em" y="6.392852402852782em" fill="#aaa"/><rect width="0.9433962264150944em" height="14.06646238575305em" x="95.28301886792453em" y="15.93353761424695em" fill="#aaa"/><rect width="0.9433962264150944em" height="19.2579938151895em" x="96.22641509433963em" y="10.7420061848105em" fill="#aaa"/><rect width="0.9433962264150944em" height="23.126181089110265em" x="97.16981132075472em" y="6.873818910889735em" fill="#aaa"/><rect width="0.9433962264150944em" height="26.297992850902926em" x="98.11320754716981em" y="3.7020071490970743em" fill="#aaa"/><rect width="0.9433962264150944em" height="30em" x="99.05660377358491em" y="0em" fill="#aaa"/></svg>