<?xml version="1.0" standalone="no"?>
<svg xmlns:xlink="http://www.w3.org/1999/xlink" xmlns="http://www.w3.org/2000/svg" class="topic-graph" style="width: 100em; height: 30em; text-align: center;"><rect width="0.9433962264150944em" height="0.40772652711391844em" x="0em" y="29.59227347288608em" fill="#aaa"/><rect width="0.9433962264150944em" height="3.3082720870611872em" x="0.9433962264150944em" y="26.691727912938813em" fill="#aaa"/><rect width="0.9433962264150944em" height="2.423158898832363em" x="1.8867924528301887em" y="27.576841101167638em" fill="#aaa"/><rect width="0.9433962264150944em" height="1.152619951072504em" x="2.830188679245283em" y="28.847380048927498em" fill="#aaa"/><rect width="0.9433962264150944em" height="3.7535017946480074em" x="3.7735849056603774em" y="26.246498205351994em" fill="#aaa"/><rect width="0.9433962264150944em" height="1.6825949897275552em" x="4.716981132075472em" y="28.317405010272445em" fill="#aaa"/><rect width="0.9433962264150944em" height="0.8040767541860825em" x="5.660377358490566em" y="29.19592324581392em" fill="#aaa"/><rect width="0.9433962264150944em" height="0.946579201652922em" x="6.60377358490566em" y="29.053420798347076em" fill="#aaa"/><rect width="0.9433962264150944em" height="2.514166688281848em" x="7.547169811320755em" y="27.485833311718153em" fill="#aaa"/><rect width="0.9433962264150944em" height="1.9322445095069665em" x="8.49056603773585em" y="28.067755490493035em" fill="#aaa"/><rect width="0.9433962264150944em" height="0.3313963528831591em" x="9.433962264150944em" y="29.66860364711684em" fill="#aaa"/><rect width="0.9433962264150944em" height="0.8954413767481375em" x="10.377358490566039em" y="29.10455862325186em" fill="#aaa"/><rect width="0.9433962264150944em" height="0.5397275532235752em" x="11.320754716981131em" y="29.460272446776425em" fill="#aaa"/><rect width="0.9433962264150944em" height="0em" x="12.264150943396226em" y="30em" fill="#aaa"/><rect width="0.9433962264150944em" height="1.4307096604445206em" x="13.20754716981132em" y="28.56929033955548em" fill="#aaa"/><rect width="0.9433962264150944em" height="0.24075711849904732em" x="14.150943396226415em" y="29.759242881500953em" fill="#aaa"/><rect width="0.9433962264150944em" height="0.9425807004535856em" x="15.09433962264151em" y="29.057419299546414em" fill="#aaa"/><rect width="0.9433962264150944em" height="0.21804496972365892em" x="16.037735849056602em" y="29.78195503027634em" fill="#aaa"/><rect width="0.9433962264150944em" height="1.3832459579904828em" x="16.9811320754717em" y="28.616754042009518em" fill="#aaa"/><rect width="0.9433962264150944em" height="0.7526687910043982em" x="17.92452830188679em" y="29.2473312089956em" fill="#aaa"/><rect width="0.9433962264150944em" height="1.506415654673382em" x="18.867924528301888em" y="28.493584345326617em" fill="#aaa"/><rect width="0.9433962264150944em" height="0.5055113125695159em" x="19.81132075471698em" y="29.494488687430483em" fill="#aaa"/><rect width="0.9433962264150944em" height="0.9841328974468426em" x="20.754716981132077em" y="29.01586710255316em" fill="#aaa"/><rect width="0.9433962264150944em" height="2.454809834589138em" x="21.69811320754717em" y="27.54519016541086em" fill="#aaa"/><rect width="0.9433962264150944em" height="1.301791913919709em" x="22.641509433962263em" y="28.698208086080292em" fill="#aaa"/><rect width="0.9433962264150944em" height="1.7779819197082263em" x="23.58490566037736em" y="28.222018080291775em" fill="#aaa"/><rect width="0.9433962264150944em" height="0em" x="24.528301886792452em" y="30em" fill="#aaa"/><rect width="0.9433962264150944em" height="2.5228175912579847em" x="25.471698113207548em" y="27.477182408742017em" fill="#aaa"/><rect width="0.9433962264150944em" height="1.233879458710054em" x="26.41509433962264em" y="28.766120541289947em" fill="#aaa"/><rect width="0.9433962264150944em" height="1.0471096977969268em" x="27.358490566037737em" y="28.952890302203073em" fill="#aaa"/><rect width="0.9433962264150944em" height="1.802072455025468em" x="28.30188679245283em" y="28.197927544974533em" fill="#aaa"/><rect width="0.9433962264150944em" height="1.4763375020320577em" x="29.245283018867926em" y="28.52366249796794em" fill="#aaa"/><rect width="0.9433962264150944em" height="0.9963029814344677em" x="30.18867924528302em" y="29.003697018565532em" fill="#aaa"/><rect width="0.9433962264150944em" height="1.9993475000737893em" x="31.132075471698112em" y="28.00065249992621em" fill="#aaa"/><rect width="0.9433962264150944em" height="1.135296901142168em" x="32.075471698113205em" y="28.86470309885783em" fill="#aaa"/><rect width="0.9433962264150944em" height="1.9307235788454513em" x="33.0188679245283em" y="28.069276421154548em" fill="#aaa"/><rect width="0.9433962264150944em" height="2.1346365232642537em" x="33.9622641509434em" y="27.865363476735745em" fill="#aaa"/><rect width="0.9433962264150944em" height="3.3733291795302516em" x="34.905660377358494em" y="26.626670820469748em" fill="#aaa"/><rect width="0.9433962264150944em" height="1.0671371362209978em" x="35.84905660377358em" y="28.932862863779em" fill="#aaa"/><rect width="0.9433962264150944em" height="3.2818993036130935em" x="36.79245283018868em" y="26.718100696386905em" fill="#aaa"/><rect width="0.9433962264150944em" height="4.534003047616726em" x="37.735849056603776em" y="25.465996952383275em" fill="#aaa"/><rect width="0.9433962264150944em" height="2.8208240580283266em" x="38.679245283018865em" y="27.179175941971675em" fill="#aaa"/><rect width="0.9433962264150944em" height="1.9479859869841034em" x="39.62264150943396em" y="28.052014013015896em" fill="#aaa"/><rect width="0.9433962264150944em" height="1.4849175017578602em" x="40.56603773584906em" y="28.51508249824214em" fill="#aaa"/><rect width="0.9433962264150944em" height="0.8888639087127431em" x="41.509433962264154em" y="29.111136091287257em" fill="#aaa"/><rect width="0.9433962264150944em" height="1.8230439449581657em" x="42.45283018867924em" y="28.176956055041835em" fill="#aaa"/><rect width="0.9433962264150944em" height="2.326277932085322em" x="43.39622641509434em" y="27.673722067914678em" fill="#aaa"/><rect width="0.9433962264150944em" height="1.8462493725555331em" x="44.339622641509436em" y="28.153750627444467em" fill="#aaa"/><rect width="0.9433962264150944em" height="1.5086338602008622em" x="45.283018867924525em" y="28.491366139799137em" fill="#aaa"/><rect width="0.9433962264150944em" height="1.8777789606795938em" x="46.22641509433962em" y="28.122221039320408em" fill="#aaa"/><rect width="0.9433962264150944em" height="1.462645646829695em" x="47.16981132075472em" y="28.537354353170304em" fill="#aaa"/><rect width="0.9433962264150944em" height="4.605001509646911em" x="48.113207547169814em" y="25.39499849035309em" fill="#aaa"/><rect width="0.9433962264150944em" height="3.0016689060252633em" x="49.056603773584904em" y="26.998331093974738em" fill="#aaa"/><rect width="0.9433962264150944em" height="6.524111300548604em" x="50em" y="23.475888699451396em" fill="#aaa"/><rect width="0.9433962264150944em" height="4.4589179007725885em" x="50.943396226415096em" y="25.54108209922741em" fill="#aaa"/><rect width="0.9433962264150944em" height="3.1393981878641113em" x="51.88679245283019em" y="26.86060181213589em" fill="#aaa"/><rect width="0.9433962264150944em" height="2.522108758049245em" x="52.83018867924528em" y="27.477891241950754em" fill="#aaa"/><rect width="0.9433962264150944em" height="2.446101864789311em" x="53.77358490566038em" y="27.553898135210687em" fill="#aaa"/><rect width="0.9433962264150944em" height="2.8638421147817152em" x="54.716981132075475em" y="27.136157885218285em" fill="#aaa"/><rect width="0.9433962264150944em" height="8.318368251810217em" x="55.660377358490564em" y="21.681631748189783em" fill="#aaa"/><rect width="0.9433962264150944em" height="4.350211676851734em" x="56.60377358490566em" y="25.649788323148265em" fill="#aaa"/><rect width="0.9433962264150944em" height="12.73056323606403em" x="57.54716981132076em" y="17.26943676393597em" fill="#aaa"/><rect width="0.9433962264150944em" height="7.729220219591599em" x="58.49056603773585em" y="22.2707797804084em" fill="#aaa"/><rect width="0.9433962264150944em" height="3.9307872704458013em" x="59.43396226415094em" y="26.0692127295542em" fill="#aaa"/><rect width="0.9433962264150944em" height="5.986991557919068em" x="60.37735849056604em" y="24.01300844208093em" fill="#aaa"/><rect width="0.9433962264150944em" height="5.163922168359621em" x="61.320754716981135em" y="24.83607783164038em" fill="#aaa"/><rect width="0.9433962264150944em" height="4.431313819902468em" x="62.264150943396224em" y="25.568686180097533em" fill="#aaa"/><rect width="0.9433962264150944em" height="18.885072391489423em" x="63.20754716981132em" y="11.114927608510577em" fill="#aaa"/><rect width="0.9433962264150944em" height="10.927743432870239em" x="64.15094339622641em" y="19.072256567129763em" fill="#aaa"/><rect width="0.9433962264150944em" height="13.538500917743063em" x="65.09433962264151em" y="16.461499082256935em" fill="#aaa"/><rect width="0.9433962264150944em" height="7.857547207763947em" x="66.0377358490566em" y="22.142452792236053em" fill="#aaa"/><rect width="0.9433962264150944em" height="8.651489097668504em" x="66.9811320754717em" y="21.348510902331498em" fill="#aaa"/><rect width="0.9433962264150944em" height="5.764950564593809em" x="67.9245283018868em" y="24.23504943540619em" fill="#aaa"/><rect width="0.9433962264150944em" height="7.529822385933097em" x="68.86792452830188em" y="22.470177614066902em" fill="#aaa"/><rect width="0.9433962264150944em" height="4.1804632565491655em" x="69.81132075471699em" y="25.819536743450833em" fill="#aaa"/><rect width="0.9433962264150944em" height="3.9645083312402583em" x="70.75471698113208em" y="26.035491668759743em" fill="#aaa"/><rect width="0.9433962264150944em" height="2.6620408737595334em" x="71.69811320754717em" y="27.337959126240467em" fill="#aaa"/><rect width="0.9433962264150944em" height="4.976153575081908em" x="72.64150943396227em" y="25.02384642491809em" fill="#aaa"/><rect width="0.9433962264150944em" height="5.479682041908313em" x="73.58490566037736em" y="24.520317958091688em" fill="#aaa"/><rect width="0.9433962264150944em" height="7.239707132309338em" x="74.52830188679245em" y="22.760292867690662em" fill="#aaa"/><rect width="0.9433962264150944em" height="8.118784649543269em" x="75.47169811320755em" y="21.88121535045673em" fill="#aaa"/><rect width="0.9433962264150944em" height="11.66956978137994em" x="76.41509433962264em" y="18.33043021862006em" fill="#aaa"/><rect width="0.9433962264150944em" height="28.212736960792256em" x="77.35849056603773em" y="1.787263039207744em" fill="#aaa"/><rect width="0.9433962264150944em" height="10.175001834451471em" x="78.30188679245283em" y="19.82499816554853em" fill="#aaa"/><rect width="0.9433962264150944em" height="7.945960472801296em" x="79.24528301886792em" y="22.054039527198704em" fill="#aaa"/><rect width="0.9433962264150944em" height="8.925892937092545em" x="80.18867924528303em" y="21.074107062907455em" fill="#aaa"/><rect width="0.9433962264150944em" height="12.05943882804563em" x="81.13207547169812em" y="17.94056117195437em" fill="#aaa"/><rect width="0.9433962264150944em" height="10.857864790862156em" x="82.0754716981132em" y="19.142135209137844em" fill="#aaa"/><rect width="0.9433962264150944em" height="15.840987785708748em" x="83.01886792452831em" y="14.159012214291252em" fill="#aaa"/><rect width="0.9433962264150944em" height="9.638330010727627em" x="83.9622641509434em" y="20.36166998927237em" fill="#aaa"/><rect width="0.9433962264150944em" height="20.177811629204157em" x="84.90566037735849em" y="9.822188370795843em" fill="#aaa"/><rect width="0.9433962264150944em" height="14.09565112334105em" x="85.84905660377359em" y="15.90434887665895em" fill="#aaa"/><rect width="0.9433962264150944em" height="18.44020341129836em" x="86.79245283018868em" y="11.55979658870164em" fill="#aaa"/><rect width="0.9433962264150944em" height="27.340096300060996em" x="87.73584905660377em" y="2.6599036999390044em" fill="#aaa"/><rect width="0.9433962264150944em" height="30em" x="88.67924528301887em" y="0em" fill="#aaa"/><rect width="0.9433962264150944em" height="17.921378726166637em" x="89.62264150943396em" y="12.078621273833363em" fill="#aaa"/><rect width="0.9433962264150944em" height="24.133878357652396em" x="90.56603773584905em" y="5.866121642347604em" fill="#aaa"/><rect width="0.9433962264150944em" height="16.69174223153073em" x="91.50943396226415em" y="13.308257768469272em" fill="#aaa"/><rect width="0.9433962264150944em" height="16.391693492201917em" x="92.45283018867924em" y="13.608306507798083em" fill="#aaa"/><rect width="0.9433962264150944em" height="16.615747084246774em" x="93.39622641509435em" y="13.384252915753226em" fill="#aaa"/><rect width="0.9433962264150944em" height="4.940741544014362em" x="94.33962264150944em" y="25.05925845598564em" fill="#aaa"/><rect width="0.9433962264150944em" height="5.9603229353004705em" x="95.28301886792453em" y="24.03967706469953em" fill="#aaa"/><rect width="0.9433962264150944em" height="7.977839179644165em" x="96.22641509433963em" y="22.022160820355836em" fill="#aaa"/><rect width="0.9433962264150944em" height="7.667289117937919em" x="97.16981132075472em" y="22.33271088206208em" fill="#aaa"/><rect width="0.9433962264150944em" height="10.423094234361677em" x="98.11320754716981em" y="19.576905765638323em" fill="#aaa"/><rect width="0.9433962264150944em" height="9.224616299924136em" x="99.05660377358491em" y="20.775383700075864em" fill="#aaa"/></svg>