<?xml version="1.0" standalone="no"?>
<svg xmlns:xlink="http://www.w3.org/1999/xlink" xmlns="http://www.w3.org/2000/svg" class="topic-graph" style="width: 100em; height: 30em; text-align: center;"><rect width="0.9433962264150944em" height="1.4859761081822436em" x="0em" y="28.514023891817757em" fill="#aaa"/><rect width="0.9433962264150944em" height="11.159451873018455em" x="0.9433962264150944em" y="18.840548126981545em" fill="#aaa"/><rect width="0.9433962264150944em" height="9.947784774289776em" x="1.8867924528301887em" y="20.052215225710224em" fill="#aaa"/><rect width="0.9433962264150944em" height="3.4717382575047813em" x="2.830188679245283em" y="26.528261742495218em" fill="#aaa"/><rect width="0.9433962264150944em" height="7.524747442486998em" x="3.7735849056603774em" y="22.475252557513002em" fill="#aaa"/><rect width="0.9433962264150944em" height="13.20467715090243em" x="4.716981132075472em" y="16.79532284909757em" fill="#aaa"/><rect width="0.9433962264150944em" height="3.3486461304951534em" x="5.660377358490566em" y="26.651353869504845em" fill="#aaa"/><rect width="0.9433962264150944em" height="0.6438458858059338em" x="6.60377358490566em" y="29.356154114194066em" fill="#aaa"/><rect width="0.9433962264150944em" height="8.603464259605762em" x="7.547169811320755em" y="21.39653574039424em" fill="#aaa"/><rect width="0.9433962264150944em" height="2.0661203633668954em" x="8.49056603773585em" y="27.933879636633105em" fill="#aaa"/><rect width="0.9433962264150944em" height="4.115923553963318em" x="9.433962264150944em" y="25.88407644603668em" fill="#aaa"/><rect width="0.9433962264150944em" height="9.82630440328159em" x="10.377358490566039em" y="20.17369559671841em" fill="#aaa"/><rect width="0.9433962264150944em" height="4.030971734493621em" x="11.320754716981131em" y="25.96902826550638em" fill="#aaa"/><rect width="0.9433962264150944em" height="0em" x="12.264150943396226em" y="30em" fill="#aaa"/><rect width="0.9433962264150944em" height="1.4296251151828583em" x="13.20754716981132em" y="28.57037488481714em" fill="#aaa"/><rect width="0.9433962264150944em" height="1.6714674806510232em" x="14.150943396226415em" y="28.328532519348975em" fill="#aaa"/><rect width="0.9433962264150944em" height="4.890278022767723em" x="15.09433962264151em" y="25.109721977232276em" fill="#aaa"/><rect width="0.9433962264150944em" height="2.233374210296382em" x="16.037735849056602em" y="27.766625789703617em" fill="#aaa"/><rect width="0.9433962264150944em" height="2.028680787875449em" x="16.9811320754717em" y="27.971319212124552em" fill="#aaa"/><rect width="0.9433962264150944em" height="8.33379988432133em" x="17.92452830188679em" y="21.66620011567867em" fill="#aaa"/><rect width="0.9433962264150944em" height="7.729681870731707em" x="18.867924528301888em" y="22.270318129268293em" fill="#aaa"/><rect width="0.9433962264150944em" height="4.600903308290604em" x="19.81132075471698em" y="25.399096691709396em" fill="#aaa"/><rect width="0.9433962264150944em" height="1.3645282620796821em" x="20.754716981132077em" y="28.63547173792032em" fill="#aaa"/><rect width="0.9433962264150944em" height="1.1921475460589679em" x="21.69811320754717em" y="28.80785245394103em" fill="#aaa"/><rect width="0.9433962264150944em" height="2.8513577341554805em" x="22.641509433962263em" y="27.14864226584452em" fill="#aaa"/><rect width="0.9433962264150944em" height="1.3274027697891848em" x="23.58490566037736em" y="28.672597230210815em" fill="#aaa"/><rect width="0.9433962264150944em" height="0em" x="24.528301886792452em" y="30em" fill="#aaa"/><rect width="0.9433962264150944em" height="4.577195201300403em" x="25.471698113207548em" y="25.422804798699598em" fill="#aaa"/><rect width="0.9433962264150944em" height="2.206115146475019em" x="26.41509433962264em" y="27.793884853524983em" fill="#aaa"/><rect width="0.9433962264150944em" height="3.1013437086370184em" x="27.358490566037737em" y="26.898656291362983em" fill="#aaa"/><rect width="0.9433962264150944em" height="5.510105765768022em" x="28.30188679245283em" y="24.48989423423198em" fill="#aaa"/><rect width="0.9433962264150944em" height="3.7881757182156464em" x="29.245283018867926em" y="26.211824281784352em" fill="#aaa"/><rect width="0.9433962264150944em" height="8.417052617126322em" x="30.18867924528302em" y="21.582947382873677em" fill="#aaa"/><rect width="0.9433962264150944em" height="4.478015693043456em" x="31.132075471698112em" y="25.521984306956544em" fill="#aaa"/><rect width="0.9433962264150944em" height="1.824222734032474em" x="32.075471698113205em" y="28.175777265967525em" fill="#aaa"/><rect width="0.9433962264150944em" height="6.356785503521992em" x="33.0188679245283em" y="23.64321449647801em" fill="#aaa"/><rect width="0.9433962264150944em" height="7.122308011273049em" x="33.9622641509434em" y="22.87769198872695em" fill="#aaa"/><rect width="0.9433962264150944em" height="2.472768318755775em" x="34.905660377358494em" y="27.527231681244224em" fill="#aaa"/><rect width="0.9433962264150944em" height="1.440185104462436em" x="35.84905660377358em" y="28.559814895537563em" fill="#aaa"/><rect width="0.9433962264150944em" height="2.862353882185523em" x="36.79245283018868em" y="27.137646117814477em" fill="#aaa"/><rect width="0.9433962264150944em" height="2.9952753673339463em" x="37.735849056603776em" y="27.004724632666054em" fill="#aaa"/><rect width="0.9433962264150944em" height="1.359911059295186em" x="38.679245283018865em" y="28.640088940704814em" fill="#aaa"/><rect width="0.9433962264150944em" height="3.634119290781748em" x="39.62264150943396em" y="26.365880709218253em" fill="#aaa"/><rect width="0.9433962264150944em" height="3.592363485764111em" x="40.56603773584906em" y="26.40763651423589em" fill="#aaa"/><rect width="0.9433962264150944em" height="4.209843949715821em" x="41.509433962264154em" y="25.79015605028418em" fill="#aaa"/><rect width="0.9433962264150944em" height="2.551417516061906em" x="42.45283018867924em" y="27.448582483938093em" fill="#aaa"/><rect width="0.9433962264150944em" height="4.166209811914536em" x="43.39622641509434em" y="25.833790188085466em" fill="#aaa"/><rect width="0.9433962264150944em" height="6.752337678335964em" x="44.339622641509436em" y="23.247662321664038em" fill="#aaa"/><rect width="0.9433962264150944em" height="3.3783181657956938em" x="45.283018867924525em" y="26.621681834204306em" fill="#aaa"/><rect width="0.9433962264150944em" height="8.140473094135292em" x="46.22641509433962em" y="21.85952690586471em" fill="#aaa"/><rect width="0.9433962264150944em" height="4.498004304183883em" x="47.16981132075472em" y="25.501995695816117em" fill="#aaa"/><rect width="0.9433962264150944em" height="6.915469246148599em" x="48.113207547169814em" y="23.0845307538514em" fill="#aaa"/><rect width="0.9433962264150944em" height="14.14001906542099em" x="49.056603773584904em" y="15.85998093457901em" fill="#aaa"/><rect width="0.9433962264150944em" height="15.062139196446036em" x="50em" y="14.937860803553964em" fill="#aaa"/><rect width="0.9433962264150944em" height="7.171805568799741em" x="50.943396226415096em" y="22.82819443120026em" fill="#aaa"/><rect width="0.9433962264150944em" height="3.556779019914768em" x="51.88679245283019em" y="26.443220980085233em" fill="#aaa"/><rect width="0.9433962264150944em" height="30em" x="52.83018867924528em" y="0em" fill="#aaa"/><rect width="0.9433962264150944em" height="29.836157076993164em" x="53.77358490566038em" y="0.16384292300683612em" fill="#aaa"/><rect width="0.9433962264150944em" height="21.620088025824682em" x="54.716981132075475em" y="8.379911974175318em" fill="#aaa"/><rect width="0.9433962264150944em" height="9.862021163742085em" x="55.660377358490564em" y="20.137978836257915em" fill="#aaa"/><rect width="0.9433962264150944em" height="28.92125983140633em" x="56.60377358490566em" y="1.0787401685936686em" fill="#aaa"/><rect width="0.9433962264150944em" height="10.109852854643478em" x="57.54716981132076em" y="19.890147145356522em" fill="#aaa"/><rect width="0.9433962264150944em" height="6.938526820479823em" x="58.49056603773585em" y="23.061473179520178em" fill="#aaa"/><rect width="0.9433962264150944em" height="6.475288545480603em" x="59.43396226415094em" y="23.524711454519398em" fill="#aaa"/><rect width="0.9433962264150944em" height="10.201593295373364em" x="60.37735849056604em" y="19.798406704626636em" fill="#aaa"/><rect width="0.9433962264150944em" height="9.232686601534573em" x="61.320754716981135em" y="20.767313398465426em" fill="#aaa"/><rect width="0.9433962264150944em" height="11.763017663463867em" x="62.264150943396224em" y="18.236982336536133em" fill="#aaa"/><rect width="0.9433962264150944em" height="16.105831236720803em" x="63.20754716981132em" y="13.894168763279197em" fill="#aaa"/><rect width="0.9433962264150944em" height="5.4291663215335em" x="64.15094339622641em" y="24.5708336784665em" fill="#aaa"/><rect width="0.9433962264150944em" height="5.554835694618286em" x="65.09433962264151em" y="24.445164305381713em" fill="#aaa"/><rect width="0.9433962264150944em" height="18.092456088983994em" x="66.0377358490566em" y="11.907543911016006em" fill="#aaa"/><rect width="0.9433962264150944em" height="8.633263632485129em" x="66.9811320754717em" y="21.36673636751487em" fill="#aaa"/><rect width="0.9433962264150944em" height="13.975672145277938em" x="67.9245283018868em" y="16.02432785472206em" fill="#aaa"/><rect width="0.9433962264150944em" height="7.646578088790941em" x="68.86792452830188em" y="22.35342191120906em" fill="#aaa"/><rect width="0.9433962264150944em" height="6.760064986052977em" x="69.81132075471699em" y="23.239935013947022em" fill="#aaa"/><rect width="0.9433962264150944em" height="4.783047169843211em" x="70.75471698113208em" y="25.21695283015679em" fill="#aaa"/><rect width="0.9433962264150944em" height="9.542983189163596em" x="71.69811320754717em" y="20.457016810836404em" fill="#aaa"/><rect width="0.9433962264150944em" height="7.881699151187734em" x="72.64150943396227em" y="22.118300848812268em" fill="#aaa"/><rect width="0.9433962264150944em" height="7.145715236741538em" x="73.58490566037736em" y="22.854284763258462em" fill="#aaa"/><rect width="0.9433962264150944em" height="6.66971467003161em" x="74.52830188679245em" y="23.33028532996839em" fill="#aaa"/><rect width="0.9433962264150944em" height="8.2955772746786em" x="75.47169811320755em" y="21.7044227253214em" fill="#aaa"/><rect width="0.9433962264150944em" height="6.655741535072398em" x="76.41509433962264em" y="23.344258464927602em" fill="#aaa"/><rect width="0.9433962264150944em" height="13.27678418796722em" x="77.35849056603773em" y="16.72321581203278em" fill="#aaa"/><rect width="0.9433962264150944em" height="15.235972604400063em" x="78.30188679245283em" y="14.764027395599937em" fill="#aaa"/><rect width="0.9433962264150944em" height="16.049191971435718em" x="79.24528301886792em" y="13.950808028564282em" fill="#aaa"/><rect width="0.9433962264150944em" height="18.826677843736256em" x="80.18867924528303em" y="11.173322156263744em" fill="#aaa"/><rect width="0.9433962264150944em" height="24.645382231616804em" x="81.13207547169812em" y="5.354617768383196em" fill="#aaa"/><rect width="0.9433962264150944em" height="15.797106406576939em" x="82.0754716981132em" y="14.202893593423061em" fill="#aaa"/><rect width="0.9433962264150944em" height="21.70581555303323em" x="83.01886792452831em" y="8.29418444696677em" fill="#aaa"/><rect width="0.9433962264150944em" height="14.619582432480435em" x="83.9622641509434em" y="15.380417567519565em" fill="#aaa"/><rect width="0.9433962264150944em" height="17.110287009888758em" x="84.90566037735849em" y="12.889712990111242em" fill="#aaa"/><rect width="0.9433962264150944em" height="18.578378409311263em" x="85.84905660377359em" y="11.421621590688737em" fill="#aaa"/><rect width="0.9433962264150944em" height="17.246448792426385em" x="86.79245283018868em" y="12.753551207573615em" fill="#aaa"/><rect width="0.9433962264150944em" height="17.119448435904705em" x="87.73584905660377em" y="12.880551564095295em" fill="#aaa"/><rect width="0.9433962264150944em" height="14.3236910726587em" x="88.67924528301887em" y="15.6763089273413em" fill="#aaa"/><rect width="0.9433962264150944em" height="18.602083437611824em" x="89.62264150943396em" y="11.397916562388176em" fill="#aaa"/><rect width="0.9433962264150944em" height="13.267458386840591em" x="90.56603773584905em" y="16.73254161315941em" fill="#aaa"/><rect width="0.9433962264150944em" height="26.983038097148416em" x="91.50943396226415em" y="3.016961902851584em" fill="#aaa"/><rect width="0.9433962264150944em" height="22.276696470960054em" x="92.45283018867924em" y="7.723303529039946em" fill="#aaa"/><rect width="0.9433962264150944em" height="27.39985400591691em" x="93.39622641509435em" y="2.600145994083089em" fill="#aaa"/><rect width="0.9433962264150944em" height="14.315259446572043em" x="94.33962264150944em" y="15.684740553427957em" fill="#aaa"/><rect width="0.9433962264150944em" height="14.130473821198096em" x="95.28301886792453em" y="15.869526178801904em" fill="#aaa"/><rect width="0.9433962264150944em" height="15.512925562085698em" x="96.22641509433963em" y="14.487074437914302em" fill="#aaa"/><rect width="0.9433962264150944em" height="18.234321343742554em" x="97.16981132075472em" y="11.765678656257446em" fill="#aaa"/><rect width="0.9433962264150944em" height="19.70142244887161em" x="98.11320754716981em" y="10.298577551128389em" fill="#aaa"/><rect width="0.9433962264150944em" height="18.43991088777345em" x="99.05660377358491em" y="11.56008911222655em" fill="#aaa"/></svg>