<?xml version="1.0" standalone="no"?>
<svg xmlns:xlink="http://www.w3.org/1999/xlink" xmlns="http://www.w3.org/2000/svg" class="topic-graph" style="width: 100em; height: 30em; text-align: center;"><rect width="0.9433962264150944em" height="0.9039581169984028em" x="0em" y="29.096041883001597em" fill="#aaa"/><rect width="0.9433962264150944em" height="3.333817252757139em" x="0.9433962264150944em" y="26.66618274724286em" fill="#aaa"/><rect width="0.9433962264150944em" height="0.14789869146342788em" x="1.8867924528301887em" y="29.85210130853657em" fill="#aaa"/><rect width="0.9433962264150944em" height="0.15082138715926363em" x="2.830188679245283em" y="29.849178612840735em" fill="#aaa"/><rect width="0.9433962264150944em" height="0.5437650556680359em" x="3.7735849056603774em" y="29.456234944331964em" fill="#aaa"/><rect width="0.9433962264150944em" height="2.7633453564849373em" x="4.716981132075472em" y="27.236654643515063em" fill="#aaa"/><rect width="0.9433962264150944em" height="9.424012930759485em" x="5.660377358490566em" y="20.575987069240515em" fill="#aaa"/><rect width="0.9433962264150944em" height="0.5324186244751831em" x="6.60377358490566em" y="29.467581375524816em" fill="#aaa"/><rect width="0.9433962264150944em" height="0.9429284755159566em" x="7.547169811320755em" y="29.057071524484044em" fill="#aaa"/><rect width="0.9433962264150944em" height="1.6571409758722782em" x="8.49056603773585em" y="28.342859024127723em" fill="#aaa"/><rect width="0.9433962264150944em" height="1.6862177980276232em" x="9.433962264150944em" y="28.313782201972376em" fill="#aaa"/><rect width="0.9433962264150944em" height="2.341000910571653em" x="10.377358490566039em" y="27.65899908942835em" fill="#aaa"/><rect width="0.9433962264150944em" height="1.0971263512799774em" x="11.320754716981131em" y="28.90287364872002em" fill="#aaa"/><rect width="0.9433962264150944em" height="0em" x="12.264150943396226em" y="30em" fill="#aaa"/><rect width="0.9433962264150944em" height="0.19955291729253719em" x="13.20754716981132em" y="29.800447082707464em" fill="#aaa"/><rect width="0.9433962264150944em" height="0.6622360424533792em" x="14.150943396226415em" y="29.33776395754662em" fill="#aaa"/><rect width="0.9433962264150944em" height="1.4028587868101738em" x="15.09433962264151em" y="28.597141213189825em" fill="#aaa"/><rect width="0.9433962264150944em" height="1.0207422583868087em" x="16.037735849056602em" y="28.979257741613193em" fill="#aaa"/><rect width="0.9433962264150944em" height="0.4349566093042794em" x="16.9811320754717em" y="29.56504339069572em" fill="#aaa"/><rect width="0.9433962264150944em" height="1.3920992617099264em" x="17.92452830188679em" y="28.607900738290073em" fill="#aaa"/><rect width="0.9433962264150944em" height="0.36167725296570774em" x="18.867924528301888em" y="29.63832274703429em" fill="#aaa"/><rect width="0.9433962264150944em" height="2.0188660590862844em" x="19.81132075471698em" y="27.981133940913715em" fill="#aaa"/><rect width="0.9433962264150944em" height="0.5364932340167013em" x="20.754716981132077em" y="29.463506765983297em" fill="#aaa"/><rect width="0.9433962264150944em" height="2.4227405973779272em" x="21.69811320754717em" y="27.577259402622072em" fill="#aaa"/><rect width="0.9433962264150944em" height="2.9165776986389584em" x="22.641509433962263em" y="27.08342230136104em" fill="#aaa"/><rect width="0.9433962264150944em" height="2.8215847326131103em" x="23.58490566037736em" y="27.17841526738689em" fill="#aaa"/><rect width="0.9433962264150944em" height="0em" x="24.528301886792452em" y="30em" fill="#aaa"/><rect width="0.9433962264150944em" height="12.505388106803103em" x="25.471698113207548em" y="17.494611893196897em" fill="#aaa"/><rect width="0.9433962264150944em" height="1.072051834092628em" x="26.41509433962264em" y="28.927948165907374em" fill="#aaa"/><rect width="0.9433962264150944em" height="1.0534434101570207em" x="27.358490566037737em" y="28.94655658984298em" fill="#aaa"/><rect width="0.9433962264150944em" height="0.944981547594653em" x="28.30188679245283em" y="29.055018452405346em" fill="#aaa"/><rect width="0.9433962264150944em" height="5.254001626460704em" x="29.245283018867926em" y="24.745998373539294em" fill="#aaa"/><rect width="0.9433962264150944em" height="3.3130613020607638em" x="30.18867924528302em" y="26.686938697939237em" fill="#aaa"/><rect width="0.9433962264150944em" height="3.0823627797696576em" x="31.132075471698112em" y="26.917637220230343em" fill="#aaa"/><rect width="0.9433962264150944em" height="5.121633824117747em" x="32.075471698113205em" y="24.878366175882253em" fill="#aaa"/><rect width="0.9433962264150944em" height="1.7937231379281067em" x="33.0188679245283em" y="28.206276862071892em" fill="#aaa"/><rect width="0.9433962264150944em" height="2.624017607843094em" x="33.9622641509434em" y="27.375982392156907em" fill="#aaa"/><rect width="0.9433962264150944em" height="0.756350638726983em" x="34.905660377358494em" y="29.243649361273018em" fill="#aaa"/><rect width="0.9433962264150944em" height="1.8730710648507236em" x="35.84905660377358em" y="28.126928935149277em" fill="#aaa"/><rect width="0.9433962264150944em" height="4.07543844345182em" x="36.79245283018868em" y="25.92456155654818em" fill="#aaa"/><rect width="0.9433962264150944em" height="5.650816294178351em" x="37.735849056603776em" y="24.34918370582165em" fill="#aaa"/><rect width="0.9433962264150944em" height="2.4658013474894407em" x="38.679245283018865em" y="27.53419865251056em" fill="#aaa"/><rect width="0.9433962264150944em" height="7.910137880201376em" x="39.62264150943396em" y="22.089862119798624em" fill="#aaa"/><rect width="0.9433962264150944em" height="1.6235247896184903em" x="40.56603773584906em" y="28.37647521038151em" fill="#aaa"/><rect width="0.9433962264150944em" height="1.8761993904901053em" x="41.509433962264154em" y="28.123800609509896em" fill="#aaa"/><rect width="0.9433962264150944em" height="2.5515192867279866em" x="42.45283018867924em" y="27.448480713272012em" fill="#aaa"/><rect width="0.9433962264150944em" height="6.985350043955886em" x="43.39622641509434em" y="23.014649956044114em" fill="#aaa"/><rect width="0.9433962264150944em" height="6.741769742583463em" x="44.339622641509436em" y="23.258230257416535em" fill="#aaa"/><rect width="0.9433962264150944em" height="5.965122730506156em" x="45.283018867924525em" y="24.034877269493844em" fill="#aaa"/><rect width="0.9433962264150944em" height="4.253013866186569em" x="46.22641509433962em" y="25.74698613381343em" fill="#aaa"/><rect width="0.9433962264150944em" height="8.90140522443658em" x="47.16981132075472em" y="21.09859477556342em" fill="#aaa"/><rect width="0.9433962264150944em" height="5.9570767530581366em" x="48.113207547169814em" y="24.042923246941864em" fill="#aaa"/><rect width="0.9433962264150944em" height="5.16840384533229em" x="49.056603773584904em" y="24.83159615466771em" fill="#aaa"/><rect width="0.9433962264150944em" height="3.949190308507567em" x="50em" y="26.050809691492432em" fill="#aaa"/><rect width="0.9433962264150944em" height="8.377458419817453em" x="50.943396226415096em" y="21.62254158018255em" fill="#aaa"/><rect width="0.9433962264150944em" height="7.711709759646957em" x="51.88679245283019em" y="22.288290240353042em" fill="#aaa"/><rect width="0.9433962264150944em" height="6.839042195390439em" x="52.83018867924528em" y="23.16095780460956em" fill="#aaa"/><rect width="0.9433962264150944em" height="7.8071821024045835em" x="53.77358490566038em" y="22.19281789759542em" fill="#aaa"/><rect width="0.9433962264150944em" height="8.321064704422424em" x="54.716981132075475em" y="21.678935295577574em" fill="#aaa"/><rect width="0.9433962264150944em" height="8.57831810030007em" x="55.660377358490564em" y="21.42168189969993em" fill="#aaa"/><rect width="0.9433962264150944em" height="16.88000450125159em" x="56.60377358490566em" y="13.119995498748409em" fill="#aaa"/><rect width="0.9433962264150944em" height="12.423374444296872em" x="57.54716981132076em" y="17.576625555703128em" fill="#aaa"/><rect width="0.9433962264150944em" height="20.220146195338767em" x="58.49056603773585em" y="9.779853804661233em" fill="#aaa"/><rect width="0.9433962264150944em" height="19.31424401354603em" x="59.43396226415094em" y="10.68575598645397em" fill="#aaa"/><rect width="0.9433962264150944em" height="3.462629995606892em" x="60.37735849056604em" y="26.537370004393107em" fill="#aaa"/><rect width="0.9433962264150944em" height="8.684265098560623em" x="61.320754716981135em" y="21.315734901439377em" fill="#aaa"/><rect width="0.9433962264150944em" height="4.891499402016856em" x="62.264150943396224em" y="25.108500597983145em" fill="#aaa"/><rect width="0.9433962264150944em" height="18.85043675657031em" x="63.20754716981132em" y="11.14956324342969em" fill="#aaa"/><rect width="0.9433962264150944em" height="17.91386245042101em" x="64.15094339622641em" y="12.08613754957899em" fill="#aaa"/><rect width="0.9433962264150944em" height="3.984118836836971em" x="65.09433962264151em" y="26.01588116316303em" fill="#aaa"/><rect width="0.9433962264150944em" height="12.634094633354897em" x="66.0377358490566em" y="17.3659053666451em" fill="#aaa"/><rect width="0.9433962264150944em" height="10.547908125803769em" x="66.9811320754717em" y="19.45209187419623em" fill="#aaa"/><rect width="0.9433962264150944em" height="7.930514383610004em" x="67.9245283018868em" y="22.069485616389997em" fill="#aaa"/><rect width="0.9433962264150944em" height="30em" x="68.86792452830188em" y="0em" fill="#aaa"/><rect width="0.9433962264150944em" height="12.512947002589732em" x="69.81132075471699em" y="17.487052997410267em" fill="#aaa"/><rect width="0.9433962264150944em" height="8.16246074101391em" x="70.75471698113208em" y="21.83753925898609em" fill="#aaa"/><rect width="0.9433962264150944em" height="2.0760289448346043em" x="71.69811320754717em" y="27.923971055165396em" fill="#aaa"/><rect width="0.9433962264150944em" height="4.1792437600042565em" x="72.64150943396227em" y="25.820756239995745em" fill="#aaa"/><rect width="0.9433962264150944em" height="5.997947407217783em" x="73.58490566037736em" y="24.002052592782217em" fill="#aaa"/><rect width="0.9433962264150944em" height="1.9956138674937949em" x="74.52830188679245em" y="28.004386132506205em" fill="#aaa"/><rect width="0.9433962264150944em" height="18.958584859882492em" x="75.47169811320755em" y="11.041415140117508em" fill="#aaa"/><rect width="0.9433962264150944em" height="15.092505510225156em" x="76.41509433962264em" y="14.907494489774844em" fill="#aaa"/><rect width="0.9433962264150944em" height="6.24002404585937em" x="77.35849056603773em" y="23.75997595414063em" fill="#aaa"/><rect width="0.9433962264150944em" height="9.807879081603446em" x="78.30188679245283em" y="20.192120918396554em" fill="#aaa"/><rect width="0.9433962264150944em" height="5.944758072688208em" x="79.24528301886792em" y="24.05524192731179em" fill="#aaa"/><rect width="0.9433962264150944em" height="8.061888939577509em" x="80.18867924528303em" y="21.938111060422493em" fill="#aaa"/><rect width="0.9433962264150944em" height="6.10959586312562em" x="81.13207547169812em" y="23.89040413687438em" fill="#aaa"/><rect width="0.9433962264150944em" height="5.726254765470851em" x="82.0754716981132em" y="24.273745234529148em" fill="#aaa"/><rect width="0.9433962264150944em" height="14.260421564965302em" x="83.01886792452831em" y="15.739578435034698em" fill="#aaa"/><rect width="0.9433962264150944em" height="12.164216446053425em" x="83.9622641509434em" y="17.835783553946577em" fill="#aaa"/><rect width="0.9433962264150944em" height="9.287893693628668em" x="84.90566037735849em" y="20.712106306371332em" fill="#aaa"/><rect width="0.9433962264150944em" height="8.392930783023987em" x="85.84905660377359em" y="21.607069216976015em" fill="#aaa"/><rect width="0.9433962264150944em" height="9.14226577948454em" x="86.79245283018868em" y="20.85773422051546em" fill="#aaa"/><rect width="0.9433962264150944em" height="10.227009187393964em" x="87.73584905660377em" y="19.772990812606036em" fill="#aaa"/><rect width="0.9433962264150944em" height="7.087795992377204em" x="88.67924528301887em" y="22.912204007622798em" fill="#aaa"/><rect width="0.9433962264150944em" height="1.6168625165590995em" x="89.62264150943396em" y="28.3831374834409em" fill="#aaa"/><rect width="0.9433962264150944em" height="4.329185805672381em" x="90.56603773584905em" y="25.67081419432762em" fill="#aaa"/><rect width="0.9433962264150944em" height="8.136636725554045em" x="91.50943396226415em" y="21.863363274445955em" fill="#aaa"/><rect width="0.9433962264150944em" height="6.605491296714494em" x="92.45283018867924em" y="23.394508703285506em" fill="#aaa"/><rect width="0.9433962264150944em" height="4.10773501908597em" x="93.39622641509435em" y="25.892264980914028em" fill="#aaa"/><rect width="0.9433962264150944em" height="5.027105578831208em" x="94.33962264150944em" y="24.972894421168792em" fill="#aaa"/><rect width="0.9433962264150944em" height="8.111710511800416em" x="95.28301886792453em" y="21.888289488199582em" fill="#aaa"/><rect width="0.9433962264150944em" height="6.7429054566113455em" x="96.22641509433963em" y="23.257094543388654em" fill="#aaa"/><rect width="0.9433962264150944em" height="5.413800457659096em" x="97.16981132075472em" y="24.586199542340903em" fill="#aaa"/><rect width="0.9433962264150944em" height="5.880438612443811em" x="98.11320754716981em" y="24.11956138755619em" fill="#aaa"/><rect width="0.9433962264150944em" height="8.20221396584926em" x="99.05660377358491em" y="21.79778603415074em" fill="#aaa"/></svg>