<?xml version="1.0" standalone="no"?>
<svg xmlns:xlink="http://www.w3.org/1999/xlink" xmlns="http://www.w3.org/2000/svg" class="topic-graph" style="width: 100em; height: 30em; text-align: center;"><rect width="0.9433962264150944em" height="4.603157106532695em" x="0em" y="25.396842893467305em" fill="#aaa"/><rect width="0.9433962264150944em" height="11.105279546498029em" x="0.9433962264150944em" y="18.89472045350197em" fill="#aaa"/><rect width="0.9433962264150944em" height="17.066157563108455em" x="1.8867924528301887em" y="12.933842436891545em" fill="#aaa"/><rect width="0.9433962264150944em" height="10.177417998841088em" x="2.830188679245283em" y="19.822582001158914em" fill="#aaa"/><rect width="0.9433962264150944em" height="17.05400259444407em" x="3.7735849056603774em" y="12.945997405555929em" fill="#aaa"/><rect width="0.9433962264150944em" height="14.402614157497146em" x="4.716981132075472em" y="15.597385842502854em" fill="#aaa"/><rect width="0.9433962264150944em" height="20.32412244290532em" x="5.660377358490566em" y="9.67587755709468em" fill="#aaa"/><rect width="0.9433962264150944em" height="30em" x="6.60377358490566em" y="0em" fill="#aaa"/><rect width="0.9433962264150944em" height="11.082324754760954em" x="7.547169811320755em" y="18.917675245239046em" fill="#aaa"/><rect width="0.9433962264150944em" height="21.674589302449377em" x="8.49056603773585em" y="8.325410697550623em" fill="#aaa"/><rect width="0.9433962264150944em" height="17.631951790972703em" x="9.433962264150944em" y="12.368048209027297em" fill="#aaa"/><rect width="0.9433962264150944em" height="28.41522289512041em" x="10.377358490566039em" y="1.5847771048795884em" fill="#aaa"/><rect width="0.9433962264150944em" height="8.952402074873337em" x="11.320754716981131em" y="21.047597925126663em" fill="#aaa"/><rect width="0.9433962264150944em" height="0em" x="12.264150943396226em" y="30em" fill="#aaa"/><rect width="0.9433962264150944em" height="27.75780877686508em" x="13.20754716981132em" y="2.2421912231349204em" fill="#aaa"/><rect width="0.9433962264150944em" height="17.26857287274784em" x="14.150943396226415em" y="12.73142712725216em" fill="#aaa"/><rect width="0.9433962264150944em" height="12.468825750128493em" x="15.09433962264151em" y="17.531174249871505em" fill="#aaa"/><rect width="0.9433962264150944em" height="8.188182727134052em" x="16.037735849056602em" y="21.811817272865948em" fill="#aaa"/><rect width="0.9433962264150944em" height="19.368347080687176em" x="16.9811320754717em" y="10.631652919312824em" fill="#aaa"/><rect width="0.9433962264150944em" height="28.93108444446105em" x="17.92452830188679em" y="1.0689155555389505em" fill="#aaa"/><rect width="0.9433962264150944em" height="11.55946325366464em" x="18.867924528301888em" y="18.44053674633536em" fill="#aaa"/><rect width="0.9433962264150944em" height="11.44839393729879em" x="19.81132075471698em" y="18.55160606270121em" fill="#aaa"/><rect width="0.9433962264150944em" height="6.416069465527959em" x="20.754716981132077em" y="23.583930534472042em" fill="#aaa"/><rect width="0.9433962264150944em" height="13.19891224562593em" x="21.69811320754717em" y="16.80108775437407em" fill="#aaa"/><rect width="0.9433962264150944em" height="9.918411773941221em" x="22.641509433962263em" y="20.081588226058777em" fill="#aaa"/><rect width="0.9433962264150944em" height="16.05367275042934em" x="23.58490566037736em" y="13.946327249570661em" fill="#aaa"/><rect width="0.9433962264150944em" height="0em" x="24.528301886792452em" y="30em" fill="#aaa"/><rect width="0.9433962264150944em" height="29.31909954799039em" x="25.471698113207548em" y="0.6809004520096096em" fill="#aaa"/><rect width="0.9433962264150944em" height="13.726313594814055em" x="26.41509433962264em" y="16.273686405185945em" fill="#aaa"/><rect width="0.9433962264150944em" height="18.901949876404263em" x="27.358490566037737em" y="11.098050123595737em" fill="#aaa"/><rect width="0.9433962264150944em" height="10.869196917257584em" x="28.30188679245283em" y="19.130803082742418em" fill="#aaa"/><rect width="0.9433962264150944em" height="11.713892696425242em" x="29.245283018867926em" y="18.28610730357476em" fill="#aaa"/><rect width="0.9433962264150944em" height="12.196122319007223em" x="30.18867924528302em" y="17.803877680992777em" fill="#aaa"/><rect width="0.9433962264150944em" height="9.989603575261647em" x="31.132075471698112em" y="20.010396424738353em" fill="#aaa"/><rect width="0.9433962264150944em" height="10.765030633984026em" x="32.075471698113205em" y="19.234969366015974em" fill="#aaa"/><rect width="0.9433962264150944em" height="12.906490358240731em" x="33.0188679245283em" y="17.09350964175927em" fill="#aaa"/><rect width="0.9433962264150944em" height="8.676946067120667em" x="33.9622641509434em" y="21.323053932879333em" fill="#aaa"/><rect width="0.9433962264150944em" height="15.896020428193772em" x="34.905660377358494em" y="14.103979571806228em" fill="#aaa"/><rect width="0.9433962264150944em" height="13.573171787009862em" x="35.84905660377358em" y="16.426828212990138em" fill="#aaa"/><rect width="0.9433962264150944em" height="6.9679766232092035em" x="36.79245283018868em" y="23.032023376790796em" fill="#aaa"/><rect width="0.9433962264150944em" height="8.054339586106835em" x="37.735849056603776em" y="21.945660413893165em" fill="#aaa"/><rect width="0.9433962264150944em" height="8.689023467929596em" x="38.679245283018865em" y="21.310976532070406em" fill="#aaa"/><rect width="0.9433962264150944em" height="11.564178945376577em" x="39.62264150943396em" y="18.435821054623425em" fill="#aaa"/><rect width="0.9433962264150944em" height="8.102891443425449em" x="40.56603773584906em" y="21.89710855657455em" fill="#aaa"/><rect width="0.9433962264150944em" height="7.434174610607em" x="41.509433962264154em" y="22.565825389392998em" fill="#aaa"/><rect width="0.9433962264150944em" height="7.537058658710468em" x="42.45283018867924em" y="22.462941341289532em" fill="#aaa"/><rect width="0.9433962264150944em" height="8.976054024297838em" x="43.39622641509434em" y="21.023945975702162em" fill="#aaa"/><rect width="0.9433962264150944em" height="13.818954597633288em" x="44.339622641509436em" y="16.181045402366713em" fill="#aaa"/><rect width="0.9433962264150944em" height="8.793208036196456em" x="45.283018867924525em" y="21.206791963803546em" fill="#aaa"/><rect width="0.9433962264150944em" height="11.687837844756702em" x="46.22641509433962em" y="18.3121621552433em" fill="#aaa"/><rect width="0.9433962264150944em" height="10.734788961694283em" x="47.16981132075472em" y="19.265211038305715em" fill="#aaa"/><rect width="0.9433962264150944em" height="12.080482721293833em" x="48.113207547169814em" y="17.919517278706167em" fill="#aaa"/><rect width="0.9433962264150944em" height="8.897306868339763em" x="49.056603773584904em" y="21.10269313166024em" fill="#aaa"/><rect width="0.9433962264150944em" height="12.164041958654076em" x="50em" y="17.835958041345926em" fill="#aaa"/><rect width="0.9433962264150944em" height="10.308843969935051em" x="50.943396226415096em" y="19.69115603006495em" fill="#aaa"/><rect width="0.9433962264150944em" height="13.772111239069378em" x="51.88679245283019em" y="16.22788876093062em" fill="#aaa"/><rect width="0.9433962264150944em" height="9.486749949048727em" x="52.83018867924528em" y="20.51325005095127em" fill="#aaa"/><rect width="0.9433962264150944em" height="8.730929675619718em" x="53.77358490566038em" y="21.26907032438028em" fill="#aaa"/><rect width="0.9433962264150944em" height="10.061429800146358em" x="54.716981132075475em" y="19.938570199853643em" fill="#aaa"/><rect width="0.9433962264150944em" height="11.726200599679384em" x="55.660377358490564em" y="18.273799400320616em" fill="#aaa"/><rect width="0.9433962264150944em" height="11.12526416805941em" x="56.60377358490566em" y="18.87473583194059em" fill="#aaa"/><rect width="0.9433962264150944em" height="15.316520722895557em" x="57.54716981132076em" y="14.683479277104443em" fill="#aaa"/><rect width="0.9433962264150944em" height="22.519560009716535em" x="58.49056603773585em" y="7.480439990283465em" fill="#aaa"/><rect width="0.9433962264150944em" height="8.439433614214796em" x="59.43396226415094em" y="21.560566385785204em" fill="#aaa"/><rect width="0.9433962264150944em" height="12.890909099177307em" x="60.37735849056604em" y="17.109090900822693em" fill="#aaa"/><rect width="0.9433962264150944em" height="11.716643831003177em" x="61.320754716981135em" y="18.283356168996825em" fill="#aaa"/><rect width="0.9433962264150944em" height="15.641248032415646em" x="62.264150943396224em" y="14.358751967584354em" fill="#aaa"/><rect width="0.9433962264150944em" height="15.523336250073868em" x="63.20754716981132em" y="14.476663749926132em" fill="#aaa"/><rect width="0.9433962264150944em" height="18.151734267341933em" x="64.15094339622641em" y="11.848265732658067em" fill="#aaa"/><rect width="0.9433962264150944em" height="19.75320250322177em" x="65.09433962264151em" y="10.246797496778228em" fill="#aaa"/><rect width="0.9433962264150944em" height="12.291447860563176em" x="66.0377358490566em" y="17.708552139436826em" fill="#aaa"/><rect width="0.9433962264150944em" height="12.192009160832413em" x="66.9811320754717em" y="17.807990839167587em" fill="#aaa"/><rect width="0.9433962264150944em" height="13.7869741333919em" x="67.9245283018868em" y="16.2130258666081em" fill="#aaa"/><rect width="0.9433962264150944em" height="10.289952728532043em" x="68.86792452830188em" y="19.710047271467957em" fill="#aaa"/><rect width="0.9433962264150944em" height="15.496511583961603em" x="69.81132075471699em" y="14.503488416038397em" fill="#aaa"/><rect width="0.9433962264150944em" height="9.07149300696738em" x="70.75471698113208em" y="20.92850699303262em" fill="#aaa"/><rect width="0.9433962264150944em" height="17.067767798817435em" x="71.69811320754717em" y="12.932232201182565em" fill="#aaa"/><rect width="0.9433962264150944em" height="9.929859349115182em" x="72.64150943396227em" y="20.070140650884817em" fill="#aaa"/><rect width="0.9433962264150944em" height="8.04028444923992em" x="73.58490566037736em" y="21.95971555076008em" fill="#aaa"/><rect width="0.9433962264150944em" height="6.323847262229819em" x="74.52830188679245em" y="23.67615273777018em" fill="#aaa"/><rect width="0.9433962264150944em" height="12.491351440521974em" x="75.47169811320755em" y="17.508648559478026em" fill="#aaa"/><rect width="0.9433962264150944em" height="9.681761127870999em" x="76.41509433962264em" y="20.318238872129em" fill="#aaa"/><rect width="0.9433962264150944em" height="14.857290458034685em" x="77.35849056603773em" y="15.142709541965315em" fill="#aaa"/><rect width="0.9433962264150944em" height="13.272018122200187em" x="78.30188679245283em" y="16.727981877799813em" fill="#aaa"/><rect width="0.9433962264150944em" height="9.116303802742605em" x="79.24528301886792em" y="20.883696197257393em" fill="#aaa"/><rect width="0.9433962264150944em" height="10.457990602056636em" x="80.18867924528303em" y="19.542009397943364em" fill="#aaa"/><rect width="0.9433962264150944em" height="9.786911266591693em" x="81.13207547169812em" y="20.213088733408306em" fill="#aaa"/><rect width="0.9433962264150944em" height="8.035107890282768em" x="82.0754716981132em" y="21.964892109717233em" fill="#aaa"/><rect width="0.9433962264150944em" height="12.320585306471905em" x="83.01886792452831em" y="17.679414693528095em" fill="#aaa"/><rect width="0.9433962264150944em" height="11.386035869737436em" x="83.9622641509434em" y="18.613964130262566em" fill="#aaa"/><rect width="0.9433962264150944em" height="11.612492793459522em" x="84.90566037735849em" y="18.387507206540477em" fill="#aaa"/><rect width="0.9433962264150944em" height="11.524364048915645em" x="85.84905660377359em" y="18.475635951084357em" fill="#aaa"/><rect width="0.9433962264150944em" height="13.888629458644896em" x="86.79245283018868em" y="16.111370541355104em" fill="#aaa"/><rect width="0.9433962264150944em" height="11.6150221127875em" x="87.73584905660377em" y="18.3849778872125em" fill="#aaa"/><rect width="0.9433962264150944em" height="12.931964280615556em" x="88.67924528301887em" y="17.068035719384444em" fill="#aaa"/><rect width="0.9433962264150944em" height="12.278828649511118em" x="89.62264150943396em" y="17.72117135048888em" fill="#aaa"/><rect width="0.9433962264150944em" height="15.820845123003938em" x="90.56603773584905em" y="14.179154876996062em" fill="#aaa"/><rect width="0.9433962264150944em" height="14.72293097676906em" x="91.50943396226415em" y="15.27706902323094em" fill="#aaa"/><rect width="0.9433962264150944em" height="13.107014619839287em" x="92.45283018867924em" y="16.892985380160713em" fill="#aaa"/><rect width="0.9433962264150944em" height="11.42704835132063em" x="93.39622641509435em" y="18.57295164867937em" fill="#aaa"/><rect width="0.9433962264150944em" height="13.533333700940185em" x="94.33962264150944em" y="16.466666299059817em" fill="#aaa"/><rect width="0.9433962264150944em" height="10.680071578013871em" x="95.28301886792453em" y="19.319928421986127em" fill="#aaa"/><rect width="0.9433962264150944em" height="14.134266820913876em" x="96.22641509433963em" y="15.865733179086124em" fill="#aaa"/><rect width="0.9433962264150944em" height="10.17015040914701em" x="97.16981132075472em" y="19.82984959085299em" fill="#aaa"/><rect width="0.9433962264150944em" height="14.766733675756013em" x="98.11320754716981em" y="15.233266324243987em" fill="#aaa"/><rect width="0.9433962264150944em" height="11.956727851625617em" x="99.05660377358491em" y="18.043272148374385em" fill="#aaa"/></svg>