<?xml version="1.0" standalone="no"?>
<svg xmlns:xlink="http://www.w3.org/1999/xlink" xmlns="http://www.w3.org/2000/svg" class="topic-graph" style="width: 100em; height: 30em; text-align: center;"><rect width="0.9433962264150944em" height="0.33406269246980147em" x="0em" y="29.6659373075302em" fill="#aaa"/><rect width="0.9433962264150944em" height="0.05780578394321819em" x="0.9433962264150944em" y="29.94219421605678em" fill="#aaa"/><rect width="0.9433962264150944em" height="2.0500454991584918em" x="1.8867924528301887em" y="27.949954500841507em" fill="#aaa"/><rect width="0.9433962264150944em" height="0.83656308858691em" x="2.830188679245283em" y="29.16343691141309em" fill="#aaa"/><rect width="0.9433962264150944em" height="1.893243410470097em" x="3.7735849056603774em" y="28.1067565895299em" fill="#aaa"/><rect width="0.9433962264150944em" height="0.34305963459809097em" x="4.716981132075472em" y="29.65694036540191em" fill="#aaa"/><rect width="0.9433962264150944em" height="0.7645456861468518em" x="5.660377358490566em" y="29.235454313853147em" fill="#aaa"/><rect width="0.9433962264150944em" height="0.1583416319642681em" x="6.60377358490566em" y="29.84165836803573em" fill="#aaa"/><rect width="0.9433962264150944em" height="0.0548247234554989em" x="7.547169811320755em" y="29.9451752765445em" fill="#aaa"/><rect width="0.9433962264150944em" height="0.30398867451839656em" x="8.49056603773585em" y="29.696011325481603em" fill="#aaa"/><rect width="0.9433962264150944em" height="0.03913241009916322em" x="9.433962264150944em" y="29.960867589900836em" fill="#aaa"/><rect width="0.9433962264150944em" height="0.5827573342265577em" x="10.377358490566039em" y="29.417242665773443em" fill="#aaa"/><rect width="0.9433962264150944em" height="0.23559053280348474em" x="11.320754716981131em" y="29.764409467196515em" fill="#aaa"/><rect width="0.9433962264150944em" height="0em" x="12.264150943396226em" y="30em" fill="#aaa"/><rect width="0.9433962264150944em" height="0.2697499670157208em" x="13.20754716981132em" y="29.73025003298428em" fill="#aaa"/><rect width="0.9433962264150944em" height="0.06832979725203361em" x="14.150943396226415em" y="29.931670202747966em" fill="#aaa"/><rect width="0.9433962264150944em" height="0.11608674383344039em" x="15.09433962264151em" y="29.883913256166558em" fill="#aaa"/><rect width="0.9433962264150944em" height="0.10407271640758298em" x="16.037735849056602em" y="29.895927283592417em" fill="#aaa"/><rect width="0.9433962264150944em" height="0.2879928746851986em" x="16.9811320754717em" y="29.712007125314802em" fill="#aaa"/><rect width="0.9433962264150944em" height="0.3883718916121232em" x="17.92452830188679em" y="29.611628108387876em" fill="#aaa"/><rect width="0.9433962264150944em" height="0.2434503498981334em" x="18.867924528301888em" y="29.756549650101867em" fill="#aaa"/><rect width="0.9433962264150944em" height="0.4314962606529176em" x="19.81132075471698em" y="29.568503739347083em" fill="#aaa"/><rect width="0.9433962264150944em" height="1.1770761204107234em" x="20.754716981132077em" y="28.822923879589275em" fill="#aaa"/><rect width="0.9433962264150944em" height="0.2244368437210342em" x="21.69811320754717em" y="29.775563156278967em" fill="#aaa"/><rect width="0.9433962264150944em" height="0.016213727963956988em" x="22.641509433962263em" y="29.983786272036042em" fill="#aaa"/><rect width="0.9433962264150944em" height="0.5948303445929127em" x="23.58490566037736em" y="29.405169655407086em" fill="#aaa"/><rect width="0.9433962264150944em" height="0em" x="24.528301886792452em" y="30em" fill="#aaa"/><rect width="0.9433962264150944em" height="0.4512487764253147em" x="25.471698113207548em" y="29.548751223574687em" fill="#aaa"/><rect width="0.9433962264150944em" height="0.41826535336188236em" x="26.41509433962264em" y="29.581734646638118em" fill="#aaa"/><rect width="0.9433962264150944em" height="0.5753232456150108em" x="27.358490566037737em" y="29.42467675438499em" fill="#aaa"/><rect width="0.9433962264150944em" height="0.3403745753492795em" x="28.30188679245283em" y="29.65962542465072em" fill="#aaa"/><rect width="0.9433962264150944em" height="0.4911122385194525em" x="29.245283018867926em" y="29.508887761480548em" fill="#aaa"/><rect width="0.9433962264150944em" height="0.7114082919086421em" x="30.18867924528302em" y="29.288591708091356em" fill="#aaa"/><rect width="0.9433962264150944em" height="0.9495399586245179em" x="31.132075471698112em" y="29.050460041375484em" fill="#aaa"/><rect width="0.9433962264150944em" height="0.3677208599879609em" x="32.075471698113205em" y="29.632279140012038em" fill="#aaa"/><rect width="0.9433962264150944em" height="0.12837636788711274em" x="33.0188679245283em" y="29.871623632112886em" fill="#aaa"/><rect width="0.9433962264150944em" height="0.39258715923046933em" x="33.9622641509434em" y="29.60741284076953em" fill="#aaa"/><rect width="0.9433962264150944em" height="0.6969948132964386em" x="34.905660377358494em" y="29.30300518670356em" fill="#aaa"/><rect width="0.9433962264150944em" height="0.8561037460451625em" x="35.84905660377358em" y="29.14389625395484em" fill="#aaa"/><rect width="0.9433962264150944em" height="0.6686025755630002em" x="36.79245283018868em" y="29.331397424437em" fill="#aaa"/><rect width="0.9433962264150944em" height="0.48177485952006105em" x="37.735849056603776em" y="29.518225140479938em" fill="#aaa"/><rect width="0.9433962264150944em" height="1.4236393999308186em" x="38.679245283018865em" y="28.576360600069183em" fill="#aaa"/><rect width="0.9433962264150944em" height="0.2582483082527968em" x="39.62264150943396em" y="29.741751691747204em" fill="#aaa"/><rect width="0.9433962264150944em" height="0.8203102628382387em" x="40.56603773584906em" y="29.179689737161763em" fill="#aaa"/><rect width="0.9433962264150944em" height="0.3574901270733024em" x="41.509433962264154em" y="29.6425098729267em" fill="#aaa"/><rect width="0.9433962264150944em" height="0.1693263669764157em" x="42.45283018867924em" y="29.830673633023583em" fill="#aaa"/><rect width="0.9433962264150944em" height="0.26430979122148396em" x="43.39622641509434em" y="29.735690208778514em" fill="#aaa"/><rect width="0.9433962264150944em" height="0.486347949168617em" x="44.339622641509436em" y="29.513652050831382em" fill="#aaa"/><rect width="0.9433962264150944em" height="0.2537288957043248em" x="45.283018867924525em" y="29.746271104295676em" fill="#aaa"/><rect width="0.9433962264150944em" height="1.0698375245737315em" x="46.22641509433962em" y="28.93016247542627em" fill="#aaa"/><rect width="0.9433962264150944em" height="0.9041226933664271em" x="47.16981132075472em" y="29.09587730663357em" fill="#aaa"/><rect width="0.9433962264150944em" height="0.5238579050152945em" x="48.113207547169814em" y="29.476142094984706em" fill="#aaa"/><rect width="0.9433962264150944em" height="0.49921424116677265em" x="49.056603773584904em" y="29.500785758833228em" fill="#aaa"/><rect width="0.9433962264150944em" height="0.5409512889363257em" x="50em" y="29.459048711063673em" fill="#aaa"/><rect width="0.9433962264150944em" height="0.6721496615630872em" x="50.943396226415096em" y="29.327850338436914em" fill="#aaa"/><rect width="0.9433962264150944em" height="0.9286469985547152em" x="51.88679245283019em" y="29.071353001445285em" fill="#aaa"/><rect width="0.9433962264150944em" height="0.19261600831133643em" x="52.83018867924528em" y="29.807383991688663em" fill="#aaa"/><rect width="0.9433962264150944em" height="1.1342409383527658em" x="53.77358490566038em" y="28.865759061647235em" fill="#aaa"/><rect width="0.9433962264150944em" height="0.28269123221939507em" x="54.716981132075475em" y="29.717308767780604em" fill="#aaa"/><rect width="0.9433962264150944em" height="0.38925070088654695em" x="55.660377358490564em" y="29.610749299113454em" fill="#aaa"/><rect width="0.9433962264150944em" height="1.1003390101621289em" x="56.60377358490566em" y="28.89966098983787em" fill="#aaa"/><rect width="0.9433962264150944em" height="1.0433735175352146em" x="57.54716981132076em" y="28.956626482464785em" fill="#aaa"/><rect width="0.9433962264150944em" height="0.8793816177732289em" x="58.49056603773585em" y="29.12061838222677em" fill="#aaa"/><rect width="0.9433962264150944em" height="1.048306549681674em" x="59.43396226415094em" y="28.951693450318327em" fill="#aaa"/><rect width="0.9433962264150944em" height="0.38759375686185005em" x="60.37735849056604em" y="29.61240624313815em" fill="#aaa"/><rect width="0.9433962264150944em" height="0.46204770367101333em" x="61.320754716981135em" y="29.537952296328985em" fill="#aaa"/><rect width="0.9433962264150944em" height="0.4469077313668093em" x="62.264150943396224em" y="29.55309226863319em" fill="#aaa"/><rect width="0.9433962264150944em" height="0.43063347443948796em" x="63.20754716981132em" y="29.56936652556051em" fill="#aaa"/><rect width="0.9433962264150944em" height="0.5533508384584267em" x="64.15094339622641em" y="29.446649161541572em" fill="#aaa"/><rect width="0.9433962264150944em" height="0.4581118046192404em" x="65.09433962264151em" y="29.54188819538076em" fill="#aaa"/><rect width="0.9433962264150944em" height="0.5255433649598582em" x="66.0377358490566em" y="29.47445663504014em" fill="#aaa"/><rect width="0.9433962264150944em" height="0.6657720799034952em" x="66.9811320754717em" y="29.334227920096506em" fill="#aaa"/><rect width="0.9433962264150944em" height="0.678284651432322em" x="67.9245283018868em" y="29.32171534856768em" fill="#aaa"/><rect width="0.9433962264150944em" height="1.346523533628146em" x="68.86792452830188em" y="28.653476466371853em" fill="#aaa"/><rect width="0.9433962264150944em" height="0.2573069354722392em" x="69.81132075471699em" y="29.74269306452776em" fill="#aaa"/><rect width="0.9433962264150944em" height="0.3224502685302469em" x="70.75471698113208em" y="29.677549731469753em" fill="#aaa"/><rect width="0.9433962264150944em" height="0.36079927067544104em" x="71.69811320754717em" y="29.63920072932456em" fill="#aaa"/><rect width="0.9433962264150944em" height="0.47512841738409606em" x="72.64150943396227em" y="29.524871582615905em" fill="#aaa"/><rect width="0.9433962264150944em" height="2.2187272147230104em" x="73.58490566037736em" y="27.78127278527699em" fill="#aaa"/><rect width="0.9433962264150944em" height="30em" x="74.52830188679245em" y="0em" fill="#aaa"/><rect width="0.9433962264150944em" height="12.561823749980624em" x="75.47169811320755em" y="17.438176250019374em" fill="#aaa"/><rect width="0.9433962264150944em" height="4.268874310430941em" x="76.41509433962264em" y="25.73112568956906em" fill="#aaa"/><rect width="0.9433962264150944em" height="4.6031441259272em" x="77.35849056603773em" y="25.3968558740728em" fill="#aaa"/><rect width="0.9433962264150944em" height="3.121922599532818em" x="78.30188679245283em" y="26.87807740046718em" fill="#aaa"/><rect width="0.9433962264150944em" height="8.340642563042582em" x="79.24528301886792em" y="21.659357436957418em" fill="#aaa"/><rect width="0.9433962264150944em" height="17.152688605633415em" x="80.18867924528303em" y="12.847311394366585em" fill="#aaa"/><rect width="0.9433962264150944em" height="11.425907413117452em" x="81.13207547169812em" y="18.57409258688255em" fill="#aaa"/><rect width="0.9433962264150944em" height="7.924346479650117em" x="82.0754716981132em" y="22.07565352034988em" fill="#aaa"/><rect width="0.9433962264150944em" height="8.679723185201475em" x="83.01886792452831em" y="21.320276814798525em" fill="#aaa"/><rect width="0.9433962264150944em" height="6.134619874713234em" x="83.9622641509434em" y="23.865380125286766em" fill="#aaa"/><rect width="0.9433962264150944em" height="3.4309441739926507em" x="84.90566037735849em" y="26.56905582600735em" fill="#aaa"/><rect width="0.9433962264150944em" height="3.882704221355385em" x="85.84905660377359em" y="26.117295778644614em" fill="#aaa"/><rect width="0.9433962264150944em" height="7.721178660241536em" x="86.79245283018868em" y="22.278821339758466em" fill="#aaa"/><rect width="0.9433962264150944em" height="14.03013609461617em" x="87.73584905660377em" y="15.96986390538383em" fill="#aaa"/><rect width="0.9433962264150944em" height="17.150622059499852em" x="88.67924528301887em" y="12.849377940500148em" fill="#aaa"/><rect width="0.9433962264150944em" height="9.807506650123084em" x="89.62264150943396em" y="20.192493349876916em" fill="#aaa"/><rect width="0.9433962264150944em" height="8.252696848581529em" x="90.56603773584905em" y="21.74730315141847em" fill="#aaa"/><rect width="0.9433962264150944em" height="8.461587264955705em" x="91.50943396226415em" y="21.538412735044297em" fill="#aaa"/><rect width="0.9433962264150944em" height="7.189691565398949em" x="92.45283018867924em" y="22.81030843460105em" fill="#aaa"/><rect width="0.9433962264150944em" height="4.310694712574637em" x="93.39622641509435em" y="25.689305287425363em" fill="#aaa"/><rect width="0.9433962264150944em" height="1.9694016530837175em" x="94.33962264150944em" y="28.030598346916282em" fill="#aaa"/><rect width="0.9433962264150944em" height="7.177129081231396em" x="95.28301886792453em" y="22.822870918768604em" fill="#aaa"/><rect width="0.9433962264150944em" height="5.316467233426227em" x="96.22641509433963em" y="24.683532766573773em" fill="#aaa"/><rect width="0.9433962264150944em" height="5.911978045256484em" x="97.16981132075472em" y="24.088021954743517em" fill="#aaa"/><rect width="0.9433962264150944em" height="3.8326056324834927em" x="98.11320754716981em" y="26.167394367516508em" fill="#aaa"/><rect width="0.9433962264150944em" height="2.650630818013373em" x="99.05660377358491em" y="27.349369181986628em" fill="#aaa"/></svg>