<?xml version="1.0" standalone="no"?>
<svg xmlns:xlink="http://www.w3.org/1999/xlink" xmlns="http://www.w3.org/2000/svg" class="topic-graph" style="width: 100em; height: 30em; text-align: center;"><rect width="0.9433962264150944em" height="17.60068826436973em" x="0em" y="12.39931173563027em" fill="#aaa"/><rect width="0.9433962264150944em" height="14.767930824859972em" x="0.9433962264150944em" y="15.232069175140028em" fill="#aaa"/><rect width="0.9433962264150944em" height="11.942826631975352em" x="1.8867924528301887em" y="18.05717336802465em" fill="#aaa"/><rect width="0.9433962264150944em" height="18.978281864641513em" x="2.830188679245283em" y="11.021718135358487em" fill="#aaa"/><rect width="0.9433962264150944em" height="25.612011232182297em" x="3.7735849056603774em" y="4.387988767817703em" fill="#aaa"/><rect width="0.9433962264150944em" height="15.457906934490538em" x="4.716981132075472em" y="14.542093065509462em" fill="#aaa"/><rect width="0.9433962264150944em" height="16.10303199450574em" x="5.660377358490566em" y="13.896968005494259em" fill="#aaa"/><rect width="0.9433962264150944em" height="25.93683228098558em" x="6.60377358490566em" y="4.0631677190144195em" fill="#aaa"/><rect width="0.9433962264150944em" height="7.208994128843814em" x="7.547169811320755em" y="22.791005871156187em" fill="#aaa"/><rect width="0.9433962264150944em" height="7.62124148557726em" x="8.49056603773585em" y="22.378758514422742em" fill="#aaa"/><rect width="0.9433962264150944em" height="3.0617324204359em" x="9.433962264150944em" y="26.9382675795641em" fill="#aaa"/><rect width="0.9433962264150944em" height="5.974647319175469em" x="10.377358490566039em" y="24.025352680824533em" fill="#aaa"/><rect width="0.9433962264150944em" height="12.396167988699514em" x="11.320754716981131em" y="17.603832011300486em" fill="#aaa"/><rect width="0.9433962264150944em" height="0em" x="12.264150943396226em" y="30em" fill="#aaa"/><rect width="0.9433962264150944em" height="5.4906625221325305em" x="13.20754716981132em" y="24.50933747786747em" fill="#aaa"/><rect width="0.9433962264150944em" height="1.018111433971513em" x="14.150943396226415em" y="28.981888566028488em" fill="#aaa"/><rect width="0.9433962264150944em" height="4.336588214807559em" x="15.09433962264151em" y="25.66341178519244em" fill="#aaa"/><rect width="0.9433962264150944em" height="30em" x="16.037735849056602em" y="0em" fill="#aaa"/><rect width="0.9433962264150944em" height="21.259099945930284em" x="16.9811320754717em" y="8.740900054069716em" fill="#aaa"/><rect width="0.9433962264150944em" height="5.670538472227313em" x="17.92452830188679em" y="24.329461527772686em" fill="#aaa"/><rect width="0.9433962264150944em" height="2.8733988563306734em" x="18.867924528301888em" y="27.126601143669326em" fill="#aaa"/><rect width="0.9433962264150944em" height="1.7923254398751303em" x="19.81132075471698em" y="28.207674560124868em" fill="#aaa"/><rect width="0.9433962264150944em" height="2.405905599882731em" x="20.754716981132077em" y="27.59409440011727em" fill="#aaa"/><rect width="0.9433962264150944em" height="5.332733405746608em" x="21.69811320754717em" y="24.66726659425339em" fill="#aaa"/><rect width="0.9433962264150944em" height="4.149677002813287em" x="22.641509433962263em" y="25.850322997186712em" fill="#aaa"/><rect width="0.9433962264150944em" height="2.5363164049760267em" x="23.58490566037736em" y="27.463683595023973em" fill="#aaa"/><rect width="0.9433962264150944em" height="0em" x="24.528301886792452em" y="30em" fill="#aaa"/><rect width="0.9433962264150944em" height="8.420755657247136em" x="25.471698113207548em" y="21.579244342752865em" fill="#aaa"/><rect width="0.9433962264150944em" height="5.730273882728963em" x="26.41509433962264em" y="24.269726117271038em" fill="#aaa"/><rect width="0.9433962264150944em" height="5.2862977336826535em" x="27.358490566037737em" y="24.71370226631735em" fill="#aaa"/><rect width="0.9433962264150944em" height="6.353653226343692em" x="28.30188679245283em" y="23.646346773656308em" fill="#aaa"/><rect width="0.9433962264150944em" height="5.703591597954752em" x="29.245283018867926em" y="24.296408402045248em" fill="#aaa"/><rect width="0.9433962264150944em" height="7.622113850259728em" x="30.18867924528302em" y="22.37788614974027em" fill="#aaa"/><rect width="0.9433962264150944em" height="4.691076427813269em" x="31.132075471698112em" y="25.308923572186732em" fill="#aaa"/><rect width="0.9433962264150944em" height="7.322449708337035em" x="32.075471698113205em" y="22.677550291662964em" fill="#aaa"/><rect width="0.9433962264150944em" height="6.138793082439945em" x="33.0188679245283em" y="23.861206917560054em" fill="#aaa"/><rect width="0.9433962264150944em" height="9.376509341541901em" x="33.9622641509434em" y="20.6234906584581em" fill="#aaa"/><rect width="0.9433962264150944em" height="8.888623441849143em" x="34.905660377358494em" y="21.11137655815086em" fill="#aaa"/><rect width="0.9433962264150944em" height="6.630586113233311em" x="35.84905660377358em" y="23.36941388676669em" fill="#aaa"/><rect width="0.9433962264150944em" height="5.026529082223245em" x="36.79245283018868em" y="24.973470917776755em" fill="#aaa"/><rect width="0.9433962264150944em" height="4.667874347292508em" x="37.735849056603776em" y="25.332125652707493em" fill="#aaa"/><rect width="0.9433962264150944em" height="3.321652494500248em" x="38.679245283018865em" y="26.67834750549975em" fill="#aaa"/><rect width="0.9433962264150944em" height="2.9307663937133253em" x="39.62264150943396em" y="27.069233606286673em" fill="#aaa"/><rect width="0.9433962264150944em" height="4.7786466960726255em" x="40.56603773584906em" y="25.221353303927373em" fill="#aaa"/><rect width="0.9433962264150944em" height="4.3175647813406615em" x="41.509433962264154em" y="25.68243521865934em" fill="#aaa"/><rect width="0.9433962264150944em" height="3.27773964274379em" x="42.45283018867924em" y="26.72226035725621em" fill="#aaa"/><rect width="0.9433962264150944em" height="4.227811497939637em" x="43.39622641509434em" y="25.772188502060363em" fill="#aaa"/><rect width="0.9433962264150944em" height="3.9301461359547742em" x="44.339622641509436em" y="26.069853864045225em" fill="#aaa"/><rect width="0.9433962264150944em" height="6.389674294895109em" x="45.283018867924525em" y="23.61032570510489em" fill="#aaa"/><rect width="0.9433962264150944em" height="6.335854776182347em" x="46.22641509433962em" y="23.664145223817652em" fill="#aaa"/><rect width="0.9433962264150944em" height="2.621002128861374em" x="47.16981132075472em" y="27.378997871138626em" fill="#aaa"/><rect width="0.9433962264150944em" height="5.307050073296954em" x="48.113207547169814em" y="24.692949926703047em" fill="#aaa"/><rect width="0.9433962264150944em" height="4.673086819886384em" x="49.056603773584904em" y="25.326913180113614em" fill="#aaa"/><rect width="0.9433962264150944em" height="3.83911707919781em" x="50em" y="26.16088292080219em" fill="#aaa"/><rect width="0.9433962264150944em" height="4.433617160592101em" x="50.943396226415096em" y="25.5663828394079em" fill="#aaa"/><rect width="0.9433962264150944em" height="4.659730609932461em" x="51.88679245283019em" y="25.34026939006754em" fill="#aaa"/><rect width="0.9433962264150944em" height="4.727311191004962em" x="52.83018867924528em" y="25.27268880899504em" fill="#aaa"/><rect width="0.9433962264150944em" height="4.898593353902348em" x="53.77358490566038em" y="25.10140664609765em" fill="#aaa"/><rect width="0.9433962264150944em" height="3.3882607616618947em" x="54.716981132075475em" y="26.611739238338107em" fill="#aaa"/><rect width="0.9433962264150944em" height="2.236430970382059em" x="55.660377358490564em" y="27.76356902961794em" fill="#aaa"/><rect width="0.9433962264150944em" height="4.026010566640173em" x="56.60377358490566em" y="25.973989433359826em" fill="#aaa"/><rect width="0.9433962264150944em" height="3.2226760120676032em" x="57.54716981132076em" y="26.777323987932398em" fill="#aaa"/><rect width="0.9433962264150944em" height="2.9713752528970763em" x="58.49056603773585em" y="27.028624747102924em" fill="#aaa"/><rect width="0.9433962264150944em" height="3.8632666219600376em" x="59.43396226415094em" y="26.136733378039963em" fill="#aaa"/><rect width="0.9433962264150944em" height="2.9224009153535815em" x="60.37735849056604em" y="27.07759908464642em" fill="#aaa"/><rect width="0.9433962264150944em" height="5.298518278681201em" x="61.320754716981135em" y="24.7014817213188em" fill="#aaa"/><rect width="0.9433962264150944em" height="2.499880924761862em" x="62.264150943396224em" y="27.50011907523814em" fill="#aaa"/><rect width="0.9433962264150944em" height="3.180689692008766em" x="63.20754716981132em" y="26.819310307991234em" fill="#aaa"/><rect width="0.9433962264150944em" height="3.1941130087021525em" x="64.15094339622641em" y="26.805886991297847em" fill="#aaa"/><rect width="0.9433962264150944em" height="3.7368825078505474em" x="65.09433962264151em" y="26.26311749214945em" fill="#aaa"/><rect width="0.9433962264150944em" height="4.625668288207957em" x="66.0377358490566em" y="25.374331711792042em" fill="#aaa"/><rect width="0.9433962264150944em" height="3.928672518767363em" x="66.9811320754717em" y="26.071327481232636em" fill="#aaa"/><rect width="0.9433962264150944em" height="3.3220082683796064em" x="67.9245283018868em" y="26.677991731620395em" fill="#aaa"/><rect width="0.9433962264150944em" height="2.6147033298300695em" x="68.86792452830188em" y="27.38529667016993em" fill="#aaa"/><rect width="0.9433962264150944em" height="2.809805284140972em" x="69.81132075471699em" y="27.19019471585903em" fill="#aaa"/><rect width="0.9433962264150944em" height="5.396996143778519em" x="70.75471698113208em" y="24.60300385622148em" fill="#aaa"/><rect width="0.9433962264150944em" height="4.410819830508067em" x="71.69811320754717em" y="25.589180169491932em" fill="#aaa"/><rect width="0.9433962264150944em" height="4.1778687188938175em" x="72.64150943396227em" y="25.82213128110618em" fill="#aaa"/><rect width="0.9433962264150944em" height="2.3598737595499015em" x="73.58490566037736em" y="27.640126240450098em" fill="#aaa"/><rect width="0.9433962264150944em" height="3.3067927320790376em" x="74.52830188679245em" y="26.69320726792096em" fill="#aaa"/><rect width="0.9433962264150944em" height="2.5423533447091353em" x="75.47169811320755em" y="27.457646655290866em" fill="#aaa"/><rect width="0.9433962264150944em" height="5.901102195306418em" x="76.41509433962264em" y="24.098897804693582em" fill="#aaa"/><rect width="0.9433962264150944em" height="3.0235406871261574em" x="77.35849056603773em" y="26.976459312873843em" fill="#aaa"/><rect width="0.9433962264150944em" height="4.167453784808764em" x="78.30188679245283em" y="25.832546215191236em" fill="#aaa"/><rect width="0.9433962264150944em" height="2.7975780527580585em" x="79.24528301886792em" y="27.20242194724194em" fill="#aaa"/><rect width="0.9433962264150944em" height="2.6875025695772936em" x="80.18867924528303em" y="27.312497430422706em" fill="#aaa"/><rect width="0.9433962264150944em" height="3.4257354831893894em" x="81.13207547169812em" y="26.57426451681061em" fill="#aaa"/><rect width="0.9433962264150944em" height="1.7107976917320027em" x="82.0754716981132em" y="28.289202308267996em" fill="#aaa"/><rect width="0.9433962264150944em" height="2.27084877435749em" x="83.01886792452831em" y="27.72915122564251em" fill="#aaa"/><rect width="0.9433962264150944em" height="3.6768981834611156em" x="83.9622641509434em" y="26.323101816538884em" fill="#aaa"/><rect width="0.9433962264150944em" height="3.004081604057595em" x="84.90566037735849em" y="26.995918395942404em" fill="#aaa"/><rect width="0.9433962264150944em" height="1.801313528157968em" x="85.84905660377359em" y="28.19868647184203em" fill="#aaa"/><rect width="0.9433962264150944em" height="2.7330617093726066em" x="86.79245283018868em" y="27.266938290627394em" fill="#aaa"/><rect width="0.9433962264150944em" height="1.5732296831523687em" x="87.73584905660377em" y="28.42677031684763em" fill="#aaa"/><rect width="0.9433962264150944em" height="3.1122459302977736em" x="88.67924528301887em" y="26.887754069702225em" fill="#aaa"/><rect width="0.9433962264150944em" height="1.4535978847483129em" x="89.62264150943396em" y="28.546402115251688em" fill="#aaa"/><rect width="0.9433962264150944em" height="2.5752344925110506em" x="90.56603773584905em" y="27.42476550748895em" fill="#aaa"/><rect width="0.9433962264150944em" height="2.220142633847277em" x="91.50943396226415em" y="27.779857366152722em" fill="#aaa"/><rect width="0.9433962264150944em" height="2.6542271493537335em" x="92.45283018867924em" y="27.345772850646267em" fill="#aaa"/><rect width="0.9433962264150944em" height="1.2104190561059993em" x="93.39622641509435em" y="28.789580943894002em" fill="#aaa"/><rect width="0.9433962264150944em" height="2.326754046879561em" x="94.33962264150944em" y="27.67324595312044em" fill="#aaa"/><rect width="0.9433962264150944em" height="1.7406874963384107em" x="95.28301886792453em" y="28.25931250366159em" fill="#aaa"/><rect width="0.9433962264150944em" height="2.231128820748827em" x="96.22641509433963em" y="27.76887117925117em" fill="#aaa"/><rect width="0.9433962264150944em" height="2.459534594194183em" x="97.16981132075472em" y="27.54046540580582em" fill="#aaa"/><rect width="0.9433962264150944em" height="1.6534539313060608em" x="98.11320754716981em" y="28.34654606869394em" fill="#aaa"/><rect width="0.9433962264150944em" height="1.4858318604275256em" x="99.05660377358491em" y="28.514168139572476em" fill="#aaa"/></svg>