<?xml version="1.0" standalone="no"?>
<svg xmlns:xlink="http://www.w3.org/1999/xlink" xmlns="http://www.w3.org/2000/svg" class="topic-graph" style="width: 100em; height: 30em; text-align: center;"><rect width="0.9433962264150944em" height="3.1078849956925354em" x="0em" y="26.892115004307463em" fill="#aaa"/><rect width="0.9433962264150944em" height="3.659013505994061em" x="0.9433962264150944em" y="26.34098649400594em" fill="#aaa"/><rect width="0.9433962264150944em" height="2.3275698071120554em" x="1.8867924528301887em" y="27.672430192887944em" fill="#aaa"/><rect width="0.9433962264150944em" height="12.980992781335047em" x="2.830188679245283em" y="17.019007218664953em" fill="#aaa"/><rect width="0.9433962264150944em" height="12.196061010365856em" x="3.7735849056603774em" y="17.803938989634144em" fill="#aaa"/><rect width="0.9433962264150944em" height="22.006580936558546em" x="4.716981132075472em" y="7.993419063441454em" fill="#aaa"/><rect width="0.9433962264150944em" height="9.303032289965154em" x="5.660377358490566em" y="20.696967710034848em" fill="#aaa"/><rect width="0.9433962264150944em" height="24.30391682339244em" x="6.60377358490566em" y="5.696083176607559em" fill="#aaa"/><rect width="0.9433962264150944em" height="24.522423883579254em" x="7.547169811320755em" y="5.477576116420746em" fill="#aaa"/><rect width="0.9433962264150944em" height="30em" x="8.49056603773585em" y="0em" fill="#aaa"/><rect width="0.9433962264150944em" height="1.6004866300102765em" x="9.433962264150944em" y="28.399513369989723em" fill="#aaa"/><rect width="0.9433962264150944em" height="9.62332271747519em" x="10.377358490566039em" y="20.37667728252481em" fill="#aaa"/><rect width="0.9433962264150944em" height="5.433553261650919em" x="11.320754716981131em" y="24.566446738349082em" fill="#aaa"/><rect width="0.9433962264150944em" height="0em" x="12.264150943396226em" y="30em" fill="#aaa"/><rect width="0.9433962264150944em" height="12.993802107825168em" x="13.20754716981132em" y="17.006197892174832em" fill="#aaa"/><rect width="0.9433962264150944em" height="4.606903036407886em" x="14.150943396226415em" y="25.393096963592114em" fill="#aaa"/><rect width="0.9433962264150944em" height="7.435993661361977em" x="15.09433962264151em" y="22.564006338638023em" fill="#aaa"/><rect width="0.9433962264150944em" height="7.70907586098471em" x="16.037735849056602em" y="22.29092413901529em" fill="#aaa"/><rect width="0.9433962264150944em" height="5.838008852223036em" x="16.9811320754717em" y="24.161991147776966em" fill="#aaa"/><rect width="0.9433962264150944em" height="2.667342770797623em" x="17.92452830188679em" y="27.332657229202376em" fill="#aaa"/><rect width="0.9433962264150944em" height="4.718134366780131em" x="18.867924528301888em" y="25.28186563321987em" fill="#aaa"/><rect width="0.9433962264150944em" height="12.793293931183412em" x="19.81132075471698em" y="17.206706068816587em" fill="#aaa"/><rect width="0.9433962264150944em" height="13.628538794694053em" x="20.754716981132077em" y="16.37146120530595em" fill="#aaa"/><rect width="0.9433962264150944em" height="19.040414144178em" x="21.69811320754717em" y="10.959585855821999em" fill="#aaa"/><rect width="0.9433962264150944em" height="7.4548317344033475em" x="22.641509433962263em" y="22.54516826559665em" fill="#aaa"/><rect width="0.9433962264150944em" height="8.096922528899114em" x="23.58490566037736em" y="21.903077471100886em" fill="#aaa"/><rect width="0.9433962264150944em" height="0em" x="24.528301886792452em" y="30em" fill="#aaa"/><rect width="0.9433962264150944em" height="7.141333256532184em" x="25.471698113207548em" y="22.858666743467815em" fill="#aaa"/><rect width="0.9433962264150944em" height="5.550600231141102em" x="26.41509433962264em" y="24.449399768858896em" fill="#aaa"/><rect width="0.9433962264150944em" height="3.291712457667491em" x="27.358490566037737em" y="26.70828754233251em" fill="#aaa"/><rect width="0.9433962264150944em" height="12.86311887765315em" x="28.30188679245283em" y="17.13688112234685em" fill="#aaa"/><rect width="0.9433962264150944em" height="4.957972799690617em" x="29.245283018867926em" y="25.042027200309384em" fill="#aaa"/><rect width="0.9433962264150944em" height="2.198864657439683em" x="30.18867924528302em" y="27.80113534256032em" fill="#aaa"/><rect width="0.9433962264150944em" height="7.625349344057003em" x="31.132075471698112em" y="22.374650655942997em" fill="#aaa"/><rect width="0.9433962264150944em" height="4.049983447360611em" x="32.075471698113205em" y="25.95001655263939em" fill="#aaa"/><rect width="0.9433962264150944em" height="6.179652088805736em" x="33.0188679245283em" y="23.820347911194265em" fill="#aaa"/><rect width="0.9433962264150944em" height="10.114408867234946em" x="33.9622641509434em" y="19.885591132765054em" fill="#aaa"/><rect width="0.9433962264150944em" height="13.60291277954551em" x="34.905660377358494em" y="16.397087220454488em" fill="#aaa"/><rect width="0.9433962264150944em" height="16.353419215553266em" x="35.84905660377358em" y="13.646580784446734em" fill="#aaa"/><rect width="0.9433962264150944em" height="22.24779064475025em" x="36.79245283018868em" y="7.75220935524975em" fill="#aaa"/><rect width="0.9433962264150944em" height="17.92444929744937em" x="37.735849056603776em" y="12.075550702550629em" fill="#aaa"/><rect width="0.9433962264150944em" height="7.442480532023758em" x="38.679245283018865em" y="22.557519467976242em" fill="#aaa"/><rect width="0.9433962264150944em" height="5.20973271724729em" x="39.62264150943396em" y="24.79026728275271em" fill="#aaa"/><rect width="0.9433962264150944em" height="8.338782962298483em" x="40.56603773584906em" y="21.66121703770152em" fill="#aaa"/><rect width="0.9433962264150944em" height="12.552930951067165em" x="41.509433962264154em" y="17.447069048932835em" fill="#aaa"/><rect width="0.9433962264150944em" height="16.804548323083917em" x="42.45283018867924em" y="13.195451676916083em" fill="#aaa"/><rect width="0.9433962264150944em" height="7.704201339015902em" x="43.39622641509434em" y="22.295798660984097em" fill="#aaa"/><rect width="0.9433962264150944em" height="7.151794214896814em" x="44.339622641509436em" y="22.848205785103186em" fill="#aaa"/><rect width="0.9433962264150944em" height="2.9415906400666016em" x="45.283018867924525em" y="27.0584093599334em" fill="#aaa"/><rect width="0.9433962264150944em" height="2.8048254564646657em" x="46.22641509433962em" y="27.195174543535334em" fill="#aaa"/><rect width="0.9433962264150944em" height="4.347024581827337em" x="47.16981132075472em" y="25.652975418172662em" fill="#aaa"/><rect width="0.9433962264150944em" height="5.227040913552355em" x="48.113207547169814em" y="24.772959086447646em" fill="#aaa"/><rect width="0.9433962264150944em" height="6.892070665808182em" x="49.056603773584904em" y="23.107929334191816em" fill="#aaa"/><rect width="0.9433962264150944em" height="5.578042282728664em" x="50em" y="24.421957717271336em" fill="#aaa"/><rect width="0.9433962264150944em" height="13.919615440863112em" x="50.943396226415096em" y="16.08038455913689em" fill="#aaa"/><rect width="0.9433962264150944em" height="10.341374372247515em" x="51.88679245283019em" y="19.658625627752485em" fill="#aaa"/><rect width="0.9433962264150944em" height="0.7657513621728833em" x="52.83018867924528em" y="29.23424863782712em" fill="#aaa"/><rect width="0.9433962264150944em" height="14.119886923252864em" x="53.77358490566038em" y="15.880113076747136em" fill="#aaa"/><rect width="0.9433962264150944em" height="12.324849796541395em" x="54.716981132075475em" y="17.675150203458607em" fill="#aaa"/><rect width="0.9433962264150944em" height="14.992400394427435em" x="55.660377358490564em" y="15.007599605572565em" fill="#aaa"/><rect width="0.9433962264150944em" height="23.256940492912705em" x="56.60377358490566em" y="6.743059507087295em" fill="#aaa"/><rect width="0.9433962264150944em" height="15.963901653435201em" x="57.54716981132076em" y="14.036098346564799em" fill="#aaa"/><rect width="0.9433962264150944em" height="8.696221182494586em" x="58.49056603773585em" y="21.303778817505414em" fill="#aaa"/><rect width="0.9433962264150944em" height="6.547856152445364em" x="59.43396226415094em" y="23.452143847554638em" fill="#aaa"/><rect width="0.9433962264150944em" height="3.2181682493548593em" x="60.37735849056604em" y="26.78183175064514em" fill="#aaa"/><rect width="0.9433962264150944em" height="3.434051707802171em" x="61.320754716981135em" y="26.56594829219783em" fill="#aaa"/><rect width="0.9433962264150944em" height="5.758910154793539em" x="62.264150943396224em" y="24.24108984520646em" fill="#aaa"/><rect width="0.9433962264150944em" height="8.01953740866104em" x="63.20754716981132em" y="21.98046259133896em" fill="#aaa"/><rect width="0.9433962264150944em" height="3.7524294395127042em" x="64.15094339622641em" y="26.247570560487297em" fill="#aaa"/><rect width="0.9433962264150944em" height="3.018730242058333em" x="65.09433962264151em" y="26.981269757941668em" fill="#aaa"/><rect width="0.9433962264150944em" height="3.8973648502736893em" x="66.0377358490566em" y="26.10263514972631em" fill="#aaa"/><rect width="0.9433962264150944em" height="6.844552138017044em" x="66.9811320754717em" y="23.155447861982957em" fill="#aaa"/><rect width="0.9433962264150944em" height="3.979876947896333em" x="67.9245283018868em" y="26.020123052103667em" fill="#aaa"/><rect width="0.9433962264150944em" height="5.282671083240138em" x="68.86792452830188em" y="24.71732891675986em" fill="#aaa"/><rect width="0.9433962264150944em" height="6.376050262208689em" x="69.81132075471699em" y="23.62394973779131em" fill="#aaa"/><rect width="0.9433962264150944em" height="2.315194261083396em" x="70.75471698113208em" y="27.684805738916605em" fill="#aaa"/><rect width="0.9433962264150944em" height="6.870239753854721em" x="71.69811320754717em" y="23.12976024614528em" fill="#aaa"/><rect width="0.9433962264150944em" height="3.910723184299885em" x="72.64150943396227em" y="26.089276815700114em" fill="#aaa"/><rect width="0.9433962264150944em" height="5.8977514462608305em" x="73.58490566037736em" y="24.10224855373917em" fill="#aaa"/><rect width="0.9433962264150944em" height="6.61957411468127em" x="74.52830188679245em" y="23.38042588531873em" fill="#aaa"/><rect width="0.9433962264150944em" height="4.203742376921092em" x="75.47169811320755em" y="25.79625762307891em" fill="#aaa"/><rect width="0.9433962264150944em" height="6.699183961151553em" x="76.41509433962264em" y="23.300816038848446em" fill="#aaa"/><rect width="0.9433962264150944em" height="1.9625331006918816em" x="77.35849056603773em" y="28.037466899308118em" fill="#aaa"/><rect width="0.9433962264150944em" height="8.76691553843713em" x="78.30188679245283em" y="21.233084461562868em" fill="#aaa"/><rect width="0.9433962264150944em" height="2.426335283216996em" x="79.24528301886792em" y="27.573664716783004em" fill="#aaa"/><rect width="0.9433962264150944em" height="4.621040031347245em" x="80.18867924528303em" y="25.378959968652754em" fill="#aaa"/><rect width="0.9433962264150944em" height="4.381242910042816em" x="81.13207547169812em" y="25.618757089957185em" fill="#aaa"/><rect width="0.9433962264150944em" height="4.339401505732147em" x="82.0754716981132em" y="25.660598494267852em" fill="#aaa"/><rect width="0.9433962264150944em" height="5.261402882625989em" x="83.01886792452831em" y="24.738597117374013em" fill="#aaa"/><rect width="0.9433962264150944em" height="3.2030060822925526em" x="83.9622641509434em" y="26.796993917707447em" fill="#aaa"/><rect width="0.9433962264150944em" height="3.4092647991675977em" x="84.90566037735849em" y="26.590735200832402em" fill="#aaa"/><rect width="0.9433962264150944em" height="3.573492789315829em" x="85.84905660377359em" y="26.42650721068417em" fill="#aaa"/><rect width="0.9433962264150944em" height="6.1773351857850445em" x="86.79245283018868em" y="23.822664814214956em" fill="#aaa"/><rect width="0.9433962264150944em" height="5.058941125586972em" x="87.73584905660377em" y="24.941058874413027em" fill="#aaa"/><rect width="0.9433962264150944em" height="3.544503326828556em" x="88.67924528301887em" y="26.455496673171446em" fill="#aaa"/><rect width="0.9433962264150944em" height="4.985458975873924em" x="89.62264150943396em" y="25.014541024126075em" fill="#aaa"/><rect width="0.9433962264150944em" height="8.975327972204974em" x="90.56603773584905em" y="21.024672027795027em" fill="#aaa"/><rect width="0.9433962264150944em" height="5.474369652075639em" x="91.50943396226415em" y="24.525630347924363em" fill="#aaa"/><rect width="0.9433962264150944em" height="5.581690103328633em" x="92.45283018867924em" y="24.418309896671367em" fill="#aaa"/><rect width="0.9433962264150944em" height="5.0926499984362925em" x="93.39622641509435em" y="24.907350001563707em" fill="#aaa"/><rect width="0.9433962264150944em" height="13.76534507095294em" x="94.33962264150944em" y="16.23465492904706em" fill="#aaa"/><rect width="0.9433962264150944em" height="8.07434199559649em" x="95.28301886792453em" y="21.92565800440351em" fill="#aaa"/><rect width="0.9433962264150944em" height="10.61208885454465em" x="96.22641509433963em" y="19.387911145455348em" fill="#aaa"/><rect width="0.9433962264150944em" height="4.053869020325391em" x="97.16981132075472em" y="25.94613097967461em" fill="#aaa"/><rect width="0.9433962264150944em" height="5.965666611831819em" x="98.11320754716981em" y="24.034333388168182em" fill="#aaa"/><rect width="0.9433962264150944em" height="5.705520616988062em" x="99.05660377358491em" y="24.29447938301194em" fill="#aaa"/></svg>