<?xml version="1.0" standalone="no"?>
<svg xmlns:xlink="http://www.w3.org/1999/xlink" xmlns="http://www.w3.org/2000/svg" class="topic-graph" style="width: 100em; height: 30em; text-align: center;"><rect width="0.9433962264150944em" height="0.05635810216224688em" x="0em" y="29.943641897837754em" fill="#aaa"/><rect width="0.9433962264150944em" height="0.06826418750876377em" x="0.9433962264150944em" y="29.931735812491237em" fill="#aaa"/><rect width="0.9433962264150944em" height="0.005971970128288846em" x="1.8867924528301887em" y="29.99402802987171em" fill="#aaa"/><rect width="0.9433962264150944em" height="0.12179037790607605em" x="2.830188679245283em" y="29.878209622093923em" fill="#aaa"/><rect width="0.9433962264150944em" height="0.09924285771304188em" x="3.7735849056603774em" y="29.90075714228696em" fill="#aaa"/><rect width="0.9433962264150944em" height="0.0860704972742673em" x="4.716981132075472em" y="29.913929502725733em" fill="#aaa"/><rect width="0.9433962264150944em" height="0.019854076134476525em" x="5.660377358490566em" y="29.980145923865525em" fill="#aaa"/><rect width="0.9433962264150944em" height="0.010090582774051856em" x="6.60377358490566em" y="29.98990941722595em" fill="#aaa"/><rect width="0.9433962264150944em" height="0.018232768544277994em" x="7.547169811320755em" y="29.981767231455724em" fill="#aaa"/><rect width="0.9433962264150944em" height="0.016962014375261715em" x="8.49056603773585em" y="29.983037985624737em" fill="#aaa"/><rect width="0.9433962264150944em" height="0.011485086969050656em" x="9.433962264150944em" y="29.98851491303095em" fill="#aaa"/><rect width="0.9433962264150944em" height="0.13320344766411582em" x="10.377358490566039em" y="29.866796552335884em" fill="#aaa"/><rect width="0.9433962264150944em" height="0.07427994841652906em" x="11.320754716981131em" y="29.925720051583472em" fill="#aaa"/><rect width="0.9433962264150944em" height="0em" x="12.264150943396226em" y="30em" fill="#aaa"/><rect width="0.9433962264150944em" height="0.2988284181503555em" x="13.20754716981132em" y="29.701171581849646em" fill="#aaa"/><rect width="0.9433962264150944em" height="0.06254534349147567em" x="14.150943396226415em" y="29.937454656508525em" fill="#aaa"/><rect width="0.9433962264150944em" height="0.18380784469660877em" x="15.09433962264151em" y="29.81619215530339em" fill="#aaa"/><rect width="0.9433962264150944em" height="0.03151355904921467em" x="16.037735849056602em" y="29.968486440950784em" fill="#aaa"/><rect width="0.9433962264150944em" height="0.07152621323774325em" x="16.9811320754717em" y="29.928473786762257em" fill="#aaa"/><rect width="0.9433962264150944em" height="0.006350894384113291em" x="17.92452830188679em" y="29.993649105615887em" fill="#aaa"/><rect width="0.9433962264150944em" height="0.22282466715495963em" x="18.867924528301888em" y="29.77717533284504em" fill="#aaa"/><rect width="0.9433962264150944em" height="0.2525272120493895em" x="19.81132075471698em" y="29.74747278795061em" fill="#aaa"/><rect width="0.9433962264150944em" height="0.6367706635271551em" x="20.754716981132077em" y="29.363229336472845em" fill="#aaa"/><rect width="0.9433962264150944em" height="0.35100324481113304em" x="21.69811320754717em" y="29.64899675518887em" fill="#aaa"/><rect width="0.9433962264150944em" height="0.11925205518708856em" x="22.641509433962263em" y="29.88074794481291em" fill="#aaa"/><rect width="0.9433962264150944em" height="0.06914524499791952em" x="23.58490566037736em" y="29.93085475500208em" fill="#aaa"/><rect width="0.9433962264150944em" height="0em" x="24.528301886792452em" y="30em" fill="#aaa"/><rect width="0.9433962264150944em" height="0.033377844943719946em" x="25.471698113207548em" y="29.96662215505628em" fill="#aaa"/><rect width="0.9433962264150944em" height="0.13105368408052198em" x="26.41509433962264em" y="29.868946315919477em" fill="#aaa"/><rect width="0.9433962264150944em" height="0.13209883550319243em" x="27.358490566037737em" y="29.867901164496807em" fill="#aaa"/><rect width="0.9433962264150944em" height="0.17810847713751163em" x="28.30188679245283em" y="29.82189152286249em" fill="#aaa"/><rect width="0.9433962264150944em" height="0.012903392385624695em" x="29.245283018867926em" y="29.987096607614376em" fill="#aaa"/><rect width="0.9433962264150944em" height="0.3087913843773505em" x="30.18867924528302em" y="29.69120861562265em" fill="#aaa"/><rect width="0.9433962264150944em" height="0.1586557830860367em" x="31.132075471698112em" y="29.841344216913964em" fill="#aaa"/><rect width="0.9433962264150944em" height="0.3621786013931623em" x="32.075471698113205em" y="29.63782139860684em" fill="#aaa"/><rect width="0.9433962264150944em" height="0.0663629324543561em" x="33.0188679245283em" y="29.933637067545643em" fill="#aaa"/><rect width="0.9433962264150944em" height="0.20939186628718487em" x="33.9622641509434em" y="29.790608133712816em" fill="#aaa"/><rect width="0.9433962264150944em" height="0.1706320663918709em" x="34.905660377358494em" y="29.82936793360813em" fill="#aaa"/><rect width="0.9433962264150944em" height="0.32822961178589805em" x="35.84905660377358em" y="29.671770388214103em" fill="#aaa"/><rect width="0.9433962264150944em" height="0.56594789056199em" x="36.79245283018868em" y="29.43405210943801em" fill="#aaa"/><rect width="0.9433962264150944em" height="0.12219970679115824em" x="37.735849056603776em" y="29.877800293208843em" fill="#aaa"/><rect width="0.9433962264150944em" height="0.052706183250199316em" x="38.679245283018865em" y="29.947293816749802em" fill="#aaa"/><rect width="0.9433962264150944em" height="0.23834152078989101em" x="39.62264150943396em" y="29.76165847921011em" fill="#aaa"/><rect width="0.9433962264150944em" height="0.07142897022556115em" x="40.56603773584906em" y="29.92857102977444em" fill="#aaa"/><rect width="0.9433962264150944em" height="0.24436323263976034em" x="41.509433962264154em" y="29.75563676736024em" fill="#aaa"/><rect width="0.9433962264150944em" height="0.37141213344838986em" x="42.45283018867924em" y="29.62858786655161em" fill="#aaa"/><rect width="0.9433962264150944em" height="0.3076617053142583em" x="43.39622641509434em" y="29.69233829468574em" fill="#aaa"/><rect width="0.9433962264150944em" height="0.6002421022169411em" x="44.339622641509436em" y="29.399757897783058em" fill="#aaa"/><rect width="0.9433962264150944em" height="0.08827876391727424em" x="45.283018867924525em" y="29.911721236082727em" fill="#aaa"/><rect width="0.9433962264150944em" height="0.1855435511585489em" x="46.22641509433962em" y="29.81445644884145em" fill="#aaa"/><rect width="0.9433962264150944em" height="0.15977709643772922em" x="47.16981132075472em" y="29.84022290356227em" fill="#aaa"/><rect width="0.9433962264150944em" height="0.2800753424648451em" x="48.113207547169814em" y="29.719924657535156em" fill="#aaa"/><rect width="0.9433962264150944em" height="1.033981166334359em" x="49.056603773584904em" y="28.96601883366564em" fill="#aaa"/><rect width="0.9433962264150944em" height="1.1829004630637294em" x="50em" y="28.817099536936272em" fill="#aaa"/><rect width="0.9433962264150944em" height="0.9762780036192138em" x="50.943396226415096em" y="29.023721996380786em" fill="#aaa"/><rect width="0.9433962264150944em" height="0.8397971238066433em" x="51.88679245283019em" y="29.160202876193356em" fill="#aaa"/><rect width="0.9433962264150944em" height="0.7872469839209438em" x="52.83018867924528em" y="29.212753016079056em" fill="#aaa"/><rect width="0.9433962264150944em" height="0.8448785243550933em" x="53.77358490566038em" y="29.155121475644908em" fill="#aaa"/><rect width="0.9433962264150944em" height="2.3495469155788755em" x="54.716981132075475em" y="27.650453084421123em" fill="#aaa"/><rect width="0.9433962264150944em" height="30em" x="55.660377358490564em" y="0em" fill="#aaa"/><rect width="0.9433962264150944em" height="6.5966008878280675em" x="56.60377358490566em" y="23.403399112171932em" fill="#aaa"/><rect width="0.9433962264150944em" height="5.738722495110132em" x="57.54716981132076em" y="24.26127750488987em" fill="#aaa"/><rect width="0.9433962264150944em" height="3.921855015706497em" x="58.49056603773585em" y="26.078144984293502em" fill="#aaa"/><rect width="0.9433962264150944em" height="0.6753798767257778em" x="59.43396226415094em" y="29.324620123274222em" fill="#aaa"/><rect width="0.9433962264150944em" height="4.962506860351945em" x="60.37735849056604em" y="25.037493139648056em" fill="#aaa"/><rect width="0.9433962264150944em" height="3.3995880529797713em" x="61.320754716981135em" y="26.600411947020227em" fill="#aaa"/><rect width="0.9433962264150944em" height="2.6489546794010908em" x="62.264150943396224em" y="27.35104532059891em" fill="#aaa"/><rect width="0.9433962264150944em" height="2.217543084823152em" x="63.20754716981132em" y="27.782456915176848em" fill="#aaa"/><rect width="0.9433962264150944em" height="7.733791675687962em" x="64.15094339622641em" y="22.26620832431204em" fill="#aaa"/><rect width="0.9433962264150944em" height="5.326540111030602em" x="65.09433962264151em" y="24.673459888969397em" fill="#aaa"/><rect width="0.9433962264150944em" height="1.7258104412410704em" x="66.0377358490566em" y="28.27418955875893em" fill="#aaa"/><rect width="0.9433962264150944em" height="6.581353333134759em" x="66.9811320754717em" y="23.418646666865243em" fill="#aaa"/><rect width="0.9433962264150944em" height="5.646966199155161em" x="67.9245283018868em" y="24.35303380084484em" fill="#aaa"/><rect width="0.9433962264150944em" height="4.3496014609029645em" x="68.86792452830188em" y="25.650398539097036em" fill="#aaa"/><rect width="0.9433962264150944em" height="6.157134912719183em" x="69.81132075471699em" y="23.842865087280817em" fill="#aaa"/><rect width="0.9433962264150944em" height="2.1023599741412244em" x="70.75471698113208em" y="27.897640025858777em" fill="#aaa"/><rect width="0.9433962264150944em" height="2.855822861708166em" x="71.69811320754717em" y="27.144177138291834em" fill="#aaa"/><rect width="0.9433962264150944em" height="3.3639580474501756em" x="72.64150943396227em" y="26.636041952549824em" fill="#aaa"/><rect width="0.9433962264150944em" height="4.489476043202505em" x="73.58490566037736em" y="25.510523956797496em" fill="#aaa"/><rect width="0.9433962264150944em" height="0.7335127407113478em" x="74.52830188679245em" y="29.266487259288652em" fill="#aaa"/><rect width="0.9433962264150944em" height="6.3724576952591105em" x="75.47169811320755em" y="23.62754230474089em" fill="#aaa"/><rect width="0.9433962264150944em" height="9.55412657971565em" x="76.41509433962264em" y="20.44587342028435em" fill="#aaa"/><rect width="0.9433962264150944em" height="7.342037550867636em" x="77.35849056603773em" y="22.657962449132363em" fill="#aaa"/><rect width="0.9433962264150944em" height="2.773543021317619em" x="78.30188679245283em" y="27.226456978682382em" fill="#aaa"/><rect width="0.9433962264150944em" height="4.318469696552721em" x="79.24528301886792em" y="25.68153030344728em" fill="#aaa"/><rect width="0.9433962264150944em" height="4.4031846001068695em" x="80.18867924528303em" y="25.59681539989313em" fill="#aaa"/><rect width="0.9433962264150944em" height="10.919435859465493em" x="81.13207547169812em" y="19.080564140534506em" fill="#aaa"/><rect width="0.9433962264150944em" height="12.067888191369759em" x="82.0754716981132em" y="17.93211180863024em" fill="#aaa"/><rect width="0.9433962264150944em" height="14.029744402507205em" x="83.01886792452831em" y="15.970255597492795em" fill="#aaa"/><rect width="0.9433962264150944em" height="3.182521795549774em" x="83.9622641509434em" y="26.817478204450225em" fill="#aaa"/><rect width="0.9433962264150944em" height="9.071389779198721em" x="84.90566037735849em" y="20.92861022080128em" fill="#aaa"/><rect width="0.9433962264150944em" height="5.953840951697073em" x="85.84905660377359em" y="24.046159048302925em" fill="#aaa"/><rect width="0.9433962264150944em" height="6.321341524566546em" x="86.79245283018868em" y="23.678658475433455em" fill="#aaa"/><rect width="0.9433962264150944em" height="6.141355835208989em" x="87.73584905660377em" y="23.85864416479101em" fill="#aaa"/><rect width="0.9433962264150944em" height="6.725182606128949em" x="88.67924528301887em" y="23.27481739387105em" fill="#aaa"/><rect width="0.9433962264150944em" height="7.576536539203591em" x="89.62264150943396em" y="22.42346346079641em" fill="#aaa"/><rect width="0.9433962264150944em" height="9.81278792021366em" x="90.56603773584905em" y="20.18721207978634em" fill="#aaa"/><rect width="0.9433962264150944em" height="11.284767807262975em" x="91.50943396226415em" y="18.715232192737027em" fill="#aaa"/><rect width="0.9433962264150944em" height="5.396693885099002em" x="92.45283018867924em" y="24.603306114901em" fill="#aaa"/><rect width="0.9433962264150944em" height="5.976402805659682em" x="93.39622641509435em" y="24.02359719434032em" fill="#aaa"/><rect width="0.9433962264150944em" height="10.325396088745787em" x="94.33962264150944em" y="19.674603911254213em" fill="#aaa"/><rect width="0.9433962264150944em" height="3.591434868035513em" x="95.28301886792453em" y="26.408565131964487em" fill="#aaa"/><rect width="0.9433962264150944em" height="2.518384867267677em" x="96.22641509433963em" y="27.481615132732323em" fill="#aaa"/><rect width="0.9433962264150944em" height="4.180357822899354em" x="97.16981132075472em" y="25.819642177100647em" fill="#aaa"/><rect width="0.9433962264150944em" height="4.055554627870897em" x="98.11320754716981em" y="25.944445372129103em" fill="#aaa"/><rect width="0.9433962264150944em" height="1.874758739696835em" x="99.05660377358491em" y="28.125241260303167em" fill="#aaa"/></svg>