<?xml version="1.0" standalone="no"?>
<svg xmlns:xlink="http://www.w3.org/1999/xlink" xmlns="http://www.w3.org/2000/svg" class="topic-graph" style="width: 100em; height: 30em; text-align: center;"><rect width="0.9433962264150944em" height="1.4985503023319307em" x="0em" y="28.50144969766807em" fill="#aaa"/><rect width="0.9433962264150944em" height="2.396232504770905em" x="0.9433962264150944em" y="27.603767495229096em" fill="#aaa"/><rect width="0.9433962264150944em" height="8.704678390120863em" x="1.8867924528301887em" y="21.29532160987914em" fill="#aaa"/><rect width="0.9433962264150944em" height="1.2331967032719302em" x="2.830188679245283em" y="28.76680329672807em" fill="#aaa"/><rect width="0.9433962264150944em" height="3.6655482451548176em" x="3.7735849056603774em" y="26.334451754845183em" fill="#aaa"/><rect width="0.9433962264150944em" height="0.24450648990918086em" x="4.716981132075472em" y="29.75549351009082em" fill="#aaa"/><rect width="0.9433962264150944em" height="1.6044862555004447em" x="5.660377358490566em" y="28.395513744499556em" fill="#aaa"/><rect width="0.9433962264150944em" height="0.04616709253307248em" x="6.60377358490566em" y="29.95383290746693em" fill="#aaa"/><rect width="0.9433962264150944em" height="2.1992659827535648em" x="7.547169811320755em" y="27.800734017246434em" fill="#aaa"/><rect width="0.9433962264150944em" height="2.2030378384554816em" x="8.49056603773585em" y="27.796962161544517em" fill="#aaa"/><rect width="0.9433962264150944em" height="3.3261864880248164em" x="9.433962264150944em" y="26.673813511975183em" fill="#aaa"/><rect width="0.9433962264150944em" height="8.329031226592894em" x="10.377358490566039em" y="21.670968773407104em" fill="#aaa"/><rect width="0.9433962264150944em" height="1.7107286806940807em" x="11.320754716981131em" y="28.289271319305918em" fill="#aaa"/><rect width="0.9433962264150944em" height="0em" x="12.264150943396226em" y="30em" fill="#aaa"/><rect width="0.9433962264150944em" height="3.7664802595936893em" x="13.20754716981132em" y="26.23351974040631em" fill="#aaa"/><rect width="0.9433962264150944em" height="19.40258565883889em" x="14.150943396226415em" y="10.597414341161109em" fill="#aaa"/><rect width="0.9433962264150944em" height="6.4246985872444125em" x="15.09433962264151em" y="23.575301412755586em" fill="#aaa"/><rect width="0.9433962264150944em" height="0.12182839419233712em" x="16.037735849056602em" y="29.878171605807662em" fill="#aaa"/><rect width="0.9433962264150944em" height="12.439917816179955em" x="16.9811320754717em" y="17.560082183820043em" fill="#aaa"/><rect width="0.9433962264150944em" height="9.607500554259225em" x="17.92452830188679em" y="20.392499445740775em" fill="#aaa"/><rect width="0.9433962264150944em" height="15.403615863923857em" x="18.867924528301888em" y="14.596384136076143em" fill="#aaa"/><rect width="0.9433962264150944em" height="2.1278800737777996em" x="19.81132075471698em" y="27.8721199262222em" fill="#aaa"/><rect width="0.9433962264150944em" height="3.2581490921712577em" x="20.754716981132077em" y="26.74185090782874em" fill="#aaa"/><rect width="0.9433962264150944em" height="4.439599821875584em" x="21.69811320754717em" y="25.560400178124418em" fill="#aaa"/><rect width="0.9433962264150944em" height="1.9430671917347206em" x="22.641509433962263em" y="28.05693280826528em" fill="#aaa"/><rect width="0.9433962264150944em" height="0.4510825168443396em" x="23.58490566037736em" y="29.54891748315566em" fill="#aaa"/><rect width="0.9433962264150944em" height="0em" x="24.528301886792452em" y="30em" fill="#aaa"/><rect width="0.9433962264150944em" height="4.096267124668325em" x="25.471698113207548em" y="25.903732875331677em" fill="#aaa"/><rect width="0.9433962264150944em" height="6.1309861088306565em" x="26.41509433962264em" y="23.869013891169345em" fill="#aaa"/><rect width="0.9433962264150944em" height="2.9936206613451803em" x="27.358490566037737em" y="27.00637933865482em" fill="#aaa"/><rect width="0.9433962264150944em" height="2.1639872344981828em" x="28.30188679245283em" y="27.836012765501817em" fill="#aaa"/><rect width="0.9433962264150944em" height="1.3634371777195868em" x="29.245283018867926em" y="28.636562822280414em" fill="#aaa"/><rect width="0.9433962264150944em" height="2.4308971029738684em" x="30.18867924528302em" y="27.56910289702613em" fill="#aaa"/><rect width="0.9433962264150944em" height="7.513451271437147em" x="31.132075471698112em" y="22.486548728562852em" fill="#aaa"/><rect width="0.9433962264150944em" height="3.8162693926342026em" x="32.075471698113205em" y="26.183730607365796em" fill="#aaa"/><rect width="0.9433962264150944em" height="3.595434053299146em" x="33.0188679245283em" y="26.404565946700853em" fill="#aaa"/><rect width="0.9433962264150944em" height="3.868199596942303em" x="33.9622641509434em" y="26.131800403057696em" fill="#aaa"/><rect width="0.9433962264150944em" height="30em" x="34.905660377358494em" y="0em" fill="#aaa"/><rect width="0.9433962264150944em" height="3.8494049166082815em" x="35.84905660377358em" y="26.150595083391718em" fill="#aaa"/><rect width="0.9433962264150944em" height="1.0072782900265984em" x="36.79245283018868em" y="28.992721709973402em" fill="#aaa"/><rect width="0.9433962264150944em" height="1.8944613453677486em" x="37.735849056603776em" y="28.10553865463225em" fill="#aaa"/><rect width="0.9433962264150944em" height="0.6811123570394719em" x="38.679245283018865em" y="29.31888764296053em" fill="#aaa"/><rect width="0.9433962264150944em" height="2.7730756851096543em" x="39.62264150943396em" y="27.226924314890347em" fill="#aaa"/><rect width="0.9433962264150944em" height="0.5102758738261655em" x="40.56603773584906em" y="29.489724126173833em" fill="#aaa"/><rect width="0.9433962264150944em" height="0.7013680808649029em" x="41.509433962264154em" y="29.298631919135097em" fill="#aaa"/><rect width="0.9433962264150944em" height="2.3223606702063457em" x="42.45283018867924em" y="27.677639329793653em" fill="#aaa"/><rect width="0.9433962264150944em" height="0.6122436475456609em" x="43.39622641509434em" y="29.38775635245434em" fill="#aaa"/><rect width="0.9433962264150944em" height="0.24811621427466551em" x="44.339622641509436em" y="29.751883785725333em" fill="#aaa"/><rect width="0.9433962264150944em" height="0.24209225399323725em" x="45.283018867924525em" y="29.75790774600676em" fill="#aaa"/><rect width="0.9433962264150944em" height="0.8547363392336904em" x="46.22641509433962em" y="29.14526366076631em" fill="#aaa"/><rect width="0.9433962264150944em" height="8.158398150511054em" x="47.16981132075472em" y="21.841601849488946em" fill="#aaa"/><rect width="0.9433962264150944em" height="0.8696313946461639em" x="48.113207547169814em" y="29.130368605353837em" fill="#aaa"/><rect width="0.9433962264150944em" height="1.119915267000608em" x="49.056603773584904em" y="28.880084732999393em" fill="#aaa"/><rect width="0.9433962264150944em" height="1.2276996647620217em" x="50em" y="28.77230033523798em" fill="#aaa"/><rect width="0.9433962264150944em" height="2.672805268132747em" x="50.943396226415096em" y="27.32719473186725em" fill="#aaa"/><rect width="0.9433962264150944em" height="1.059083155078825em" x="51.88679245283019em" y="28.940916844921176em" fill="#aaa"/><rect width="0.9433962264150944em" height="2.72845923756766em" x="52.83018867924528em" y="27.27154076243234em" fill="#aaa"/><rect width="0.9433962264150944em" height="0.5938931907168424em" x="53.77358490566038em" y="29.40610680928316em" fill="#aaa"/><rect width="0.9433962264150944em" height="0.9239034436917246em" x="54.716981132075475em" y="29.076096556308276em" fill="#aaa"/><rect width="0.9433962264150944em" height="1.6860531589470602em" x="55.660377358490564em" y="28.31394684105294em" fill="#aaa"/><rect width="0.9433962264150944em" height="3.5788066842265787em" x="56.60377358490566em" y="26.421193315773422em" fill="#aaa"/><rect width="0.9433962264150944em" height="3.630523429339039em" x="57.54716981132076em" y="26.36947657066096em" fill="#aaa"/><rect width="0.9433962264150944em" height="0.3484567704350381em" x="58.49056603773585em" y="29.65154322956496em" fill="#aaa"/><rect width="0.9433962264150944em" height="2.598481957371993em" x="59.43396226415094em" y="27.401518042628005em" fill="#aaa"/><rect width="0.9433962264150944em" height="1.1521183193146989em" x="60.37735849056604em" y="28.8478816806853em" fill="#aaa"/><rect width="0.9433962264150944em" height="2.0365073016365374em" x="61.320754716981135em" y="27.963492698363464em" fill="#aaa"/><rect width="0.9433962264150944em" height="2.4684152760917852em" x="62.264150943396224em" y="27.531584723908214em" fill="#aaa"/><rect width="0.9433962264150944em" height="6.213344948764444em" x="63.20754716981132em" y="23.786655051235556em" fill="#aaa"/><rect width="0.9433962264150944em" height="2.778732701703561em" x="64.15094339622641em" y="27.22126729829644em" fill="#aaa"/><rect width="0.9433962264150944em" height="2.001384072363219em" x="65.09433962264151em" y="27.99861592763678em" fill="#aaa"/><rect width="0.9433962264150944em" height="1.0201917782672352em" x="66.0377358490566em" y="28.979808221732764em" fill="#aaa"/><rect width="0.9433962264150944em" height="3.0449082819654922em" x="66.9811320754717em" y="26.95509171803451em" fill="#aaa"/><rect width="0.9433962264150944em" height="3.920242731350373em" x="67.9245283018868em" y="26.079757268649626em" fill="#aaa"/><rect width="0.9433962264150944em" height="2.4543523933385725em" x="68.86792452830188em" y="27.545647606661426em" fill="#aaa"/><rect width="0.9433962264150944em" height="1.8516775388100448em" x="69.81132075471699em" y="28.148322461189956em" fill="#aaa"/><rect width="0.9433962264150944em" height="1.624250904401248em" x="70.75471698113208em" y="28.375749095598753em" fill="#aaa"/><rect width="0.9433962264150944em" height="2.18035837349389em" x="71.69811320754717em" y="27.81964162650611em" fill="#aaa"/><rect width="0.9433962264150944em" height="3.7429345594282717em" x="72.64150943396227em" y="26.25706544057173em" fill="#aaa"/><rect width="0.9433962264150944em" height="2.2456843038649756em" x="73.58490566037736em" y="27.754315696135023em" fill="#aaa"/><rect width="0.9433962264150944em" height="1.5402518230125661em" x="74.52830188679245em" y="28.459748176987432em" fill="#aaa"/><rect width="0.9433962264150944em" height="2.7148332736938436em" x="75.47169811320755em" y="27.285166726306155em" fill="#aaa"/><rect width="0.9433962264150944em" height="5.847010013198282em" x="76.41509433962264em" y="24.152989986801717em" fill="#aaa"/><rect width="0.9433962264150944em" height="5.022460358157814em" x="77.35849056603773em" y="24.977539641842185em" fill="#aaa"/><rect width="0.9433962264150944em" height="8.078603853665939em" x="78.30188679245283em" y="21.92139614633406em" fill="#aaa"/><rect width="0.9433962264150944em" height="11.125864514261858em" x="79.24528301886792em" y="18.874135485738144em" fill="#aaa"/><rect width="0.9433962264150944em" height="4.724221606165629em" x="80.18867924528303em" y="25.275778393834372em" fill="#aaa"/><rect width="0.9433962264150944em" height="12.377671161525004em" x="81.13207547169812em" y="17.622328838474996em" fill="#aaa"/><rect width="0.9433962264150944em" height="5.476022224154093em" x="82.0754716981132em" y="24.523977775845907em" fill="#aaa"/><rect width="0.9433962264150944em" height="2.9084724535004427em" x="83.01886792452831em" y="27.091527546499556em" fill="#aaa"/><rect width="0.9433962264150944em" height="4.424832729306256em" x="83.9622641509434em" y="25.575167270693743em" fill="#aaa"/><rect width="0.9433962264150944em" height="4.429069527156178em" x="84.90566037735849em" y="25.57093047284382em" fill="#aaa"/><rect width="0.9433962264150944em" height="5.3357689511299125em" x="85.84905660377359em" y="24.664231048870086em" fill="#aaa"/><rect width="0.9433962264150944em" height="3.66584342363433em" x="86.79245283018868em" y="26.33415657636567em" fill="#aaa"/><rect width="0.9433962264150944em" height="5.081553008251097em" x="87.73584905660377em" y="24.9184469917489em" fill="#aaa"/><rect width="0.9433962264150944em" height="3.4895670676629553em" x="88.67924528301887em" y="26.510432932337046em" fill="#aaa"/><rect width="0.9433962264150944em" height="3.181358745959942em" x="89.62264150943396em" y="26.81864125404006em" fill="#aaa"/><rect width="0.9433962264150944em" height="2.844835148087753em" x="90.56603773584905em" y="27.155164851912247em" fill="#aaa"/><rect width="0.9433962264150944em" height="1.9206763214665836em" x="91.50943396226415em" y="28.079323678533417em" fill="#aaa"/><rect width="0.9433962264150944em" height="4.064908813018882em" x="92.45283018867924em" y="25.93509118698112em" fill="#aaa"/><rect width="0.9433962264150944em" height="1.8587495145848738em" x="93.39622641509435em" y="28.141250485415128em" fill="#aaa"/><rect width="0.9433962264150944em" height="0.7674429042190419em" x="94.33962264150944em" y="29.232557095780958em" fill="#aaa"/><rect width="0.9433962264150944em" height="0.9113849578501892em" x="95.28301886792453em" y="29.08861504214981em" fill="#aaa"/><rect width="0.9433962264150944em" height="1.2373087448293134em" x="96.22641509433963em" y="28.762691255170687em" fill="#aaa"/><rect width="0.9433962264150944em" height="1.691385038132964em" x="97.16981132075472em" y="28.308614961867036em" fill="#aaa"/><rect width="0.9433962264150944em" height="1.393446852042792em" x="98.11320754716981em" y="28.606553147957207em" fill="#aaa"/><rect width="0.9433962264150944em" height="1.7076821614743352em" x="99.05660377358491em" y="28.292317838525666em" fill="#aaa"/></svg>