<?xml version="1.0" standalone="no"?>
<svg xmlns:xlink="http://www.w3.org/1999/xlink" xmlns="http://www.w3.org/2000/svg" class="topic-graph" style="width: 100em; height: 30em; text-align: center;"><rect width="0.9433962264150944em" height="0.2329946244469058em" x="0em" y="29.767005375553094em" fill="#aaa"/><rect width="0.9433962264150944em" height="3.8617358398049095em" x="0.9433962264150944em" y="26.138264160195092em" fill="#aaa"/><rect width="0.9433962264150944em" height="1.7960437014812394em" x="1.8867924528301887em" y="28.20395629851876em" fill="#aaa"/><rect width="0.9433962264150944em" height="1.71364422939508em" x="2.830188679245283em" y="28.28635577060492em" fill="#aaa"/><rect width="0.9433962264150944em" height="4.519170885297699em" x="3.7735849056603774em" y="25.480829114702303em" fill="#aaa"/><rect width="0.9433962264150944em" height="3.5808770737908473em" x="4.716981132075472em" y="26.419122926209152em" fill="#aaa"/><rect width="0.9433962264150944em" height="2.9382736032869725em" x="5.660377358490566em" y="27.061726396713027em" fill="#aaa"/><rect width="0.9433962264150944em" height="4.234633815544525em" x="6.60377358490566em" y="25.765366184455473em" fill="#aaa"/><rect width="0.9433962264150944em" height="2.128565042450144em" x="7.547169811320755em" y="27.871434957549855em" fill="#aaa"/><rect width="0.9433962264150944em" height="1.2648553031768694em" x="8.49056603773585em" y="28.73514469682313em" fill="#aaa"/><rect width="0.9433962264150944em" height="0.9499085956856117em" x="9.433962264150944em" y="29.050091404314387em" fill="#aaa"/><rect width="0.9433962264150944em" height="0.6466990460771258em" x="10.377358490566039em" y="29.353300953922876em" fill="#aaa"/><rect width="0.9433962264150944em" height="2.0086053172061096em" x="11.320754716981131em" y="27.99139468279389em" fill="#aaa"/><rect width="0.9433962264150944em" height="0em" x="12.264150943396226em" y="30em" fill="#aaa"/><rect width="0.9433962264150944em" height="4.0136609275833095em" x="13.20754716981132em" y="25.98633907241669em" fill="#aaa"/><rect width="0.9433962264150944em" height="1.6282910660965182em" x="14.150943396226415em" y="28.37170893390348em" fill="#aaa"/><rect width="0.9433962264150944em" height="2.63078644551693em" x="15.09433962264151em" y="27.36921355448307em" fill="#aaa"/><rect width="0.9433962264150944em" height="4.27106419823517em" x="16.037735849056602em" y="25.72893580176483em" fill="#aaa"/><rect width="0.9433962264150944em" height="5.052704591925584em" x="16.9811320754717em" y="24.947295408074417em" fill="#aaa"/><rect width="0.9433962264150944em" height="11.138437559802718em" x="17.92452830188679em" y="18.861562440197282em" fill="#aaa"/><rect width="0.9433962264150944em" height="3.87505814566786em" x="18.867924528301888em" y="26.12494185433214em" fill="#aaa"/><rect width="0.9433962264150944em" height="1.8207656511004546em" x="19.81132075471698em" y="28.179234348899545em" fill="#aaa"/><rect width="0.9433962264150944em" height="3.1099425855137306em" x="20.754716981132077em" y="26.890057414486268em" fill="#aaa"/><rect width="0.9433962264150944em" height="0.8565128297207888em" x="21.69811320754717em" y="29.14348717027921em" fill="#aaa"/><rect width="0.9433962264150944em" height="2.3104267193725185em" x="22.641509433962263em" y="27.68957328062748em" fill="#aaa"/><rect width="0.9433962264150944em" height="2.3754733225407354em" x="23.58490566037736em" y="27.624526677459265em" fill="#aaa"/><rect width="0.9433962264150944em" height="0em" x="24.528301886792452em" y="30em" fill="#aaa"/><rect width="0.9433962264150944em" height="8.52247508760329em" x="25.471698113207548em" y="21.47752491239671em" fill="#aaa"/><rect width="0.9433962264150944em" height="4.722513581480819em" x="26.41509433962264em" y="25.27748641851918em" fill="#aaa"/><rect width="0.9433962264150944em" height="2.44629345812781em" x="27.358490566037737em" y="27.553706541872188em" fill="#aaa"/><rect width="0.9433962264150944em" height="5.713012685117071em" x="28.30188679245283em" y="24.28698731488293em" fill="#aaa"/><rect width="0.9433962264150944em" height="4.359178545748629em" x="29.245283018867926em" y="25.64082145425137em" fill="#aaa"/><rect width="0.9433962264150944em" height="2.4992789229738985em" x="30.18867924528302em" y="27.5007210770261em" fill="#aaa"/><rect width="0.9433962264150944em" height="1.959975873324043em" x="31.132075471698112em" y="28.040024126675956em" fill="#aaa"/><rect width="0.9433962264150944em" height="2.8443704319974255em" x="32.075471698113205em" y="27.155629568002574em" fill="#aaa"/><rect width="0.9433962264150944em" height="2.2026142359257004em" x="33.0188679245283em" y="27.7973857640743em" fill="#aaa"/><rect width="0.9433962264150944em" height="4.299812932658314em" x="33.9622641509434em" y="25.700187067341687em" fill="#aaa"/><rect width="0.9433962264150944em" height="9.869183076093039em" x="34.905660377358494em" y="20.130816923906963em" fill="#aaa"/><rect width="0.9433962264150944em" height="2.13768295997032em" x="35.84905660377358em" y="27.86231704002968em" fill="#aaa"/><rect width="0.9433962264150944em" height="3.164135167178909em" x="36.79245283018868em" y="26.83586483282109em" fill="#aaa"/><rect width="0.9433962264150944em" height="1.0883277993960634em" x="37.735849056603776em" y="28.911672200603938em" fill="#aaa"/><rect width="0.9433962264150944em" height="0.6361174035874906em" x="38.679245283018865em" y="29.36388259641251em" fill="#aaa"/><rect width="0.9433962264150944em" height="1.9725149126212618em" x="39.62264150943396em" y="28.02748508737874em" fill="#aaa"/><rect width="0.9433962264150944em" height="2.193988014969971em" x="40.56603773584906em" y="27.80601198503003em" fill="#aaa"/><rect width="0.9433962264150944em" height="3.1199254962306338em" x="41.509433962264154em" y="26.880074503769364em" fill="#aaa"/><rect width="0.9433962264150944em" height="1.1440238168608734em" x="42.45283018867924em" y="28.855976183139127em" fill="#aaa"/><rect width="0.9433962264150944em" height="1.3827957751730733em" x="43.39622641509434em" y="28.617204224826928em" fill="#aaa"/><rect width="0.9433962264150944em" height="2.26620794806968em" x="44.339622641509436em" y="27.73379205193032em" fill="#aaa"/><rect width="0.9433962264150944em" height="2.865103374401145em" x="45.283018867924525em" y="27.134896625598856em" fill="#aaa"/><rect width="0.9433962264150944em" height="3.190958331612577em" x="46.22641509433962em" y="26.809041668387422em" fill="#aaa"/><rect width="0.9433962264150944em" height="4.8606772810173675em" x="47.16981132075472em" y="25.139322718982633em" fill="#aaa"/><rect width="0.9433962264150944em" height="1.656264145648185em" x="48.113207547169814em" y="28.343735854351817em" fill="#aaa"/><rect width="0.9433962264150944em" height="2.356236366535938em" x="49.056603773584904em" y="27.64376363346406em" fill="#aaa"/><rect width="0.9433962264150944em" height="16.181889146640568em" x="50em" y="13.818110853359432em" fill="#aaa"/><rect width="0.9433962264150944em" height="11.37788654075393em" x="50.943396226415096em" y="18.62211345924607em" fill="#aaa"/><rect width="0.9433962264150944em" height="5.8615865024673495em" x="51.88679245283019em" y="24.13841349753265em" fill="#aaa"/><rect width="0.9433962264150944em" height="15.568811061728402em" x="52.83018867924528em" y="14.431188938271598em" fill="#aaa"/><rect width="0.9433962264150944em" height="2.6063465204972935em" x="53.77358490566038em" y="27.393653479502706em" fill="#aaa"/><rect width="0.9433962264150944em" height="4.965256795190642em" x="54.716981132075475em" y="25.03474320480936em" fill="#aaa"/><rect width="0.9433962264150944em" height="2.591468980062584em" x="55.660377358490564em" y="27.408531019937417em" fill="#aaa"/><rect width="0.9433962264150944em" height="3.5928668001912376em" x="56.60377358490566em" y="26.40713319980876em" fill="#aaa"/><rect width="0.9433962264150944em" height="5.953302379644156em" x="57.54716981132076em" y="24.046697620355843em" fill="#aaa"/><rect width="0.9433962264150944em" height="23.4212694810835em" x="58.49056603773585em" y="6.578730518916501em" fill="#aaa"/><rect width="0.9433962264150944em" height="5.545298003819007em" x="59.43396226415094em" y="24.454701996180994em" fill="#aaa"/><rect width="0.9433962264150944em" height="3.979561966420229em" x="60.37735849056604em" y="26.020438033579772em" fill="#aaa"/><rect width="0.9433962264150944em" height="5.072039161601143em" x="61.320754716981135em" y="24.927960838398857em" fill="#aaa"/><rect width="0.9433962264150944em" height="13.511754965278083em" x="62.264150943396224em" y="16.488245034721917em" fill="#aaa"/><rect width="0.9433962264150944em" height="11.811698871303088em" x="63.20754716981132em" y="18.188301128696914em" fill="#aaa"/><rect width="0.9433962264150944em" height="12.005913933277617em" x="64.15094339622641em" y="17.99408606672238em" fill="#aaa"/><rect width="0.9433962264150944em" height="7.033332008034692em" x="65.09433962264151em" y="22.96666799196531em" fill="#aaa"/><rect width="0.9433962264150944em" height="11.307914334789242em" x="66.0377358490566em" y="18.692085665210758em" fill="#aaa"/><rect width="0.9433962264150944em" height="4.708564157383843em" x="66.9811320754717em" y="25.291435842616156em" fill="#aaa"/><rect width="0.9433962264150944em" height="7.223129972506659em" x="67.9245283018868em" y="22.77687002749334em" fill="#aaa"/><rect width="0.9433962264150944em" height="6.398642168740043em" x="68.86792452830188em" y="23.601357831259957em" fill="#aaa"/><rect width="0.9433962264150944em" height="6.783641620684974em" x="69.81132075471699em" y="23.216358379315025em" fill="#aaa"/><rect width="0.9433962264150944em" height="5.86235026345671em" x="70.75471698113208em" y="24.13764973654329em" fill="#aaa"/><rect width="0.9433962264150944em" height="4.839200345051203em" x="71.69811320754717em" y="25.160799654948796em" fill="#aaa"/><rect width="0.9433962264150944em" height="6.393377019052147em" x="72.64150943396227em" y="23.606622980947854em" fill="#aaa"/><rect width="0.9433962264150944em" height="5.990084079349405em" x="73.58490566037736em" y="24.009915920650595em" fill="#aaa"/><rect width="0.9433962264150944em" height="4.2921744848083865em" x="74.52830188679245em" y="25.707825515191615em" fill="#aaa"/><rect width="0.9433962264150944em" height="10.86031453586778em" x="75.47169811320755em" y="19.13968546413222em" fill="#aaa"/><rect width="0.9433962264150944em" height="6.771738551426796em" x="76.41509433962264em" y="23.228261448573203em" fill="#aaa"/><rect width="0.9433962264150944em" height="11.16012894039066em" x="77.35849056603773em" y="18.83987105960934em" fill="#aaa"/><rect width="0.9433962264150944em" height="7.726355842316653em" x="78.30188679245283em" y="22.273644157683346em" fill="#aaa"/><rect width="0.9433962264150944em" height="7.807862944140178em" x="79.24528301886792em" y="22.192137055859824em" fill="#aaa"/><rect width="0.9433962264150944em" height="18.346628715489732em" x="80.18867924528303em" y="11.653371284510268em" fill="#aaa"/><rect width="0.9433962264150944em" height="14.085001904077568em" x="81.13207547169812em" y="15.914998095922432em" fill="#aaa"/><rect width="0.9433962264150944em" height="30em" x="82.0754716981132em" y="0em" fill="#aaa"/><rect width="0.9433962264150944em" height="12.826821855658487em" x="83.01886792452831em" y="17.173178144341513em" fill="#aaa"/><rect width="0.9433962264150944em" height="14.978729873080082em" x="83.9622641509434em" y="15.021270126919918em" fill="#aaa"/><rect width="0.9433962264150944em" height="12.209815757087771em" x="84.90566037735849em" y="17.79018424291223em" fill="#aaa"/><rect width="0.9433962264150944em" height="8.667869453933982em" x="85.84905660377359em" y="21.33213054606602em" fill="#aaa"/><rect width="0.9433962264150944em" height="12.336482289991409em" x="86.79245283018868em" y="17.66351771000859em" fill="#aaa"/><rect width="0.9433962264150944em" height="11.036450247641199em" x="87.73584905660377em" y="18.9635497523588em" fill="#aaa"/><rect width="0.9433962264150944em" height="10.499519558368144em" x="88.67924528301887em" y="19.500480441631858em" fill="#aaa"/><rect width="0.9433962264150944em" height="13.304575673311636em" x="89.62264150943396em" y="16.695424326688364em" fill="#aaa"/><rect width="0.9433962264150944em" height="5.753603673496189em" x="90.56603773584905em" y="24.246396326503813em" fill="#aaa"/><rect width="0.9433962264150944em" height="10.28006161301564em" x="91.50943396226415em" y="19.71993838698436em" fill="#aaa"/><rect width="0.9433962264150944em" height="8.999817455338585em" x="92.45283018867924em" y="21.000182544661413em" fill="#aaa"/><rect width="0.9433962264150944em" height="6.915155145392316em" x="93.39622641509435em" y="23.084844854607685em" fill="#aaa"/><rect width="0.9433962264150944em" height="5.371398099099033em" x="94.33962264150944em" y="24.628601900900968em" fill="#aaa"/><rect width="0.9433962264150944em" height="8.399652790622532em" x="95.28301886792453em" y="21.600347209377468em" fill="#aaa"/><rect width="0.9433962264150944em" height="7.516070240393943em" x="96.22641509433963em" y="22.483929759606056em" fill="#aaa"/><rect width="0.9433962264150944em" height="5.624377514571549em" x="97.16981132075472em" y="24.37562248542845em" fill="#aaa"/><rect width="0.9433962264150944em" height="9.387234324515175em" x="98.11320754716981em" y="20.612765675484823em" fill="#aaa"/><rect width="0.9433962264150944em" height="11.35312323889439em" x="99.05660377358491em" y="18.64687676110561em" fill="#aaa"/></svg>