<?xml version="1.0" standalone="no"?>
<svg xmlns:xlink="http://www.w3.org/1999/xlink" xmlns="http://www.w3.org/2000/svg" class="topic-graph" style="width: 100em; height: 30em; text-align: center;"><rect width="0.9433962264150944em" height="1.830565623025696em" x="0em" y="28.169434376974305em" fill="#aaa"/><rect width="0.9433962264150944em" height="1.3732569617102506em" x="0.9433962264150944em" y="28.62674303828975em" fill="#aaa"/><rect width="0.9433962264150944em" height="4.1353074155700345em" x="1.8867924528301887em" y="25.864692584429967em" fill="#aaa"/><rect width="0.9433962264150944em" height="5.378352490579948em" x="2.830188679245283em" y="24.62164750942005em" fill="#aaa"/><rect width="0.9433962264150944em" height="3.807933441311204em" x="3.7735849056603774em" y="26.192066558688797em" fill="#aaa"/><rect width="0.9433962264150944em" height="0.8213450195041633em" x="4.716981132075472em" y="29.178654980495836em" fill="#aaa"/><rect width="0.9433962264150944em" height="0.6449398576690367em" x="5.660377358490566em" y="29.355060142330963em" fill="#aaa"/><rect width="0.9433962264150944em" height="0.2425152846324575em" x="6.60377358490566em" y="29.757484715367543em" fill="#aaa"/><rect width="0.9433962264150944em" height="1.0136106040412132em" x="7.547169811320755em" y="28.98638939595879em" fill="#aaa"/><rect width="0.9433962264150944em" height="1.0967280327966078em" x="8.49056603773585em" y="28.90327196720339em" fill="#aaa"/><rect width="0.9433962264150944em" height="0.15659949794539635em" x="9.433962264150944em" y="29.843400502054603em" fill="#aaa"/><rect width="0.9433962264150944em" height="2.442008489428884em" x="10.377358490566039em" y="27.557991510571117em" fill="#aaa"/><rect width="0.9433962264150944em" height="1.4510179171334554em" x="11.320754716981131em" y="28.548982082866544em" fill="#aaa"/><rect width="0.9433962264150944em" height="0em" x="12.264150943396226em" y="30em" fill="#aaa"/><rect width="0.9433962264150944em" height="2.4096405161276464em" x="13.20754716981132em" y="27.590359483872355em" fill="#aaa"/><rect width="0.9433962264150944em" height="4.516728468611456em" x="14.150943396226415em" y="25.483271531388546em" fill="#aaa"/><rect width="0.9433962264150944em" height="3.2018045562396735em" x="15.09433962264151em" y="26.798195443760328em" fill="#aaa"/><rect width="0.9433962264150944em" height="1.171478165492234em" x="16.037735849056602em" y="28.828521834507765em" fill="#aaa"/><rect width="0.9433962264150944em" height="1.359214622038545em" x="16.9811320754717em" y="28.640785377961453em" fill="#aaa"/><rect width="0.9433962264150944em" height="3.752128398611801em" x="17.92452830188679em" y="26.247871601388198em" fill="#aaa"/><rect width="0.9433962264150944em" height="2.8696155432171357em" x="18.867924528301888em" y="27.130384456782863em" fill="#aaa"/><rect width="0.9433962264150944em" height="4.917721141569863em" x="19.81132075471698em" y="25.082278858430136em" fill="#aaa"/><rect width="0.9433962264150944em" height="1.0756665659847588em" x="20.754716981132077em" y="28.924333434015242em" fill="#aaa"/><rect width="0.9433962264150944em" height="4.092339036029153em" x="21.69811320754717em" y="25.907660963970848em" fill="#aaa"/><rect width="0.9433962264150944em" height="2.822009367965162em" x="22.641509433962263em" y="27.177990632034838em" fill="#aaa"/><rect width="0.9433962264150944em" height="3.8407091447870907em" x="23.58490566037736em" y="26.15929085521291em" fill="#aaa"/><rect width="0.9433962264150944em" height="0em" x="24.528301886792452em" y="30em" fill="#aaa"/><rect width="0.9433962264150944em" height="6.473330306230913em" x="25.471698113207548em" y="23.526669693769087em" fill="#aaa"/><rect width="0.9433962264150944em" height="11.011987719783715em" x="26.41509433962264em" y="18.988012280216285em" fill="#aaa"/><rect width="0.9433962264150944em" height="5.713813188627127em" x="27.358490566037737em" y="24.286186811372872em" fill="#aaa"/><rect width="0.9433962264150944em" height="4.380598993253169em" x="28.30188679245283em" y="25.61940100674683em" fill="#aaa"/><rect width="0.9433962264150944em" height="12.427945679406832em" x="29.245283018867926em" y="17.572054320593168em" fill="#aaa"/><rect width="0.9433962264150944em" height="11.057073307776689em" x="30.18867924528302em" y="18.94292669222331em" fill="#aaa"/><rect width="0.9433962264150944em" height="4.881027499569843em" x="31.132075471698112em" y="25.118972500430157em" fill="#aaa"/><rect width="0.9433962264150944em" height="3.9720026450025667em" x="32.075471698113205em" y="26.02799735499743em" fill="#aaa"/><rect width="0.9433962264150944em" height="2.9309000665679616em" x="33.0188679245283em" y="27.06909993343204em" fill="#aaa"/><rect width="0.9433962264150944em" height="1.6827418394175147em" x="33.9622641509434em" y="28.317258160582487em" fill="#aaa"/><rect width="0.9433962264150944em" height="1.6459189353858188em" x="34.905660377358494em" y="28.35408106461418em" fill="#aaa"/><rect width="0.9433962264150944em" height="4.799225333715255em" x="35.84905660377358em" y="25.200774666284744em" fill="#aaa"/><rect width="0.9433962264150944em" height="2.5691298200567885em" x="36.79245283018868em" y="27.430870179943213em" fill="#aaa"/><rect width="0.9433962264150944em" height="3.776655491512978em" x="37.735849056603776em" y="26.22334450848702em" fill="#aaa"/><rect width="0.9433962264150944em" height="4.012112618856367em" x="38.679245283018865em" y="25.987887381143633em" fill="#aaa"/><rect width="0.9433962264150944em" height="3.996318339029867em" x="39.62264150943396em" y="26.003681660970134em" fill="#aaa"/><rect width="0.9433962264150944em" height="3.743501632885387em" x="40.56603773584906em" y="26.256498367114613em" fill="#aaa"/><rect width="0.9433962264150944em" height="2.5903337529798804em" x="41.509433962264154em" y="27.40966624702012em" fill="#aaa"/><rect width="0.9433962264150944em" height="3.2052942229325647em" x="42.45283018867924em" y="26.794705777067435em" fill="#aaa"/><rect width="0.9433962264150944em" height="3.719730586210504em" x="43.39622641509434em" y="26.280269413789497em" fill="#aaa"/><rect width="0.9433962264150944em" height="3.521146573784714em" x="44.339622641509436em" y="26.478853426215288em" fill="#aaa"/><rect width="0.9433962264150944em" height="2.204520832125749em" x="45.283018867924525em" y="27.79547916787425em" fill="#aaa"/><rect width="0.9433962264150944em" height="1.9898175825168571em" x="46.22641509433962em" y="28.010182417483144em" fill="#aaa"/><rect width="0.9433962264150944em" height="1.2698239888279055em" x="47.16981132075472em" y="28.730176011172095em" fill="#aaa"/><rect width="0.9433962264150944em" height="4.041522157127126em" x="48.113207547169814em" y="25.958477842872874em" fill="#aaa"/><rect width="0.9433962264150944em" height="4.818638012603007em" x="49.056603773584904em" y="25.181361987396993em" fill="#aaa"/><rect width="0.9433962264150944em" height="3.9239235203742093em" x="50em" y="26.07607647962579em" fill="#aaa"/><rect width="0.9433962264150944em" height="2.592197063139179em" x="50.943396226415096em" y="27.407802936860822em" fill="#aaa"/><rect width="0.9433962264150944em" height="3.5216836450445936em" x="51.88679245283019em" y="26.478316354955407em" fill="#aaa"/><rect width="0.9433962264150944em" height="1.478465184048907em" x="52.83018867924528em" y="28.521534815951092em" fill="#aaa"/><rect width="0.9433962264150944em" height="3.4748015952486058em" x="53.77358490566038em" y="26.525198404751393em" fill="#aaa"/><rect width="0.9433962264150944em" height="6.0127686090079875em" x="54.716981132075475em" y="23.98723139099201em" fill="#aaa"/><rect width="0.9433962264150944em" height="3.8292491572306853em" x="55.660377358490564em" y="26.170750842769316em" fill="#aaa"/><rect width="0.9433962264150944em" height="2.8374338665869585em" x="56.60377358490566em" y="27.16256613341304em" fill="#aaa"/><rect width="0.9433962264150944em" height="3.2717064488223415em" x="57.54716981132076em" y="26.728293551177657em" fill="#aaa"/><rect width="0.9433962264150944em" height="12.715456375058041em" x="58.49056603773585em" y="17.28454362494196em" fill="#aaa"/><rect width="0.9433962264150944em" height="2.8890597102638713em" x="59.43396226415094em" y="27.110940289736128em" fill="#aaa"/><rect width="0.9433962264150944em" height="6.1513718993601945em" x="60.37735849056604em" y="23.848628100639807em" fill="#aaa"/><rect width="0.9433962264150944em" height="4.772094012326841em" x="61.320754716981135em" y="25.22790598767316em" fill="#aaa"/><rect width="0.9433962264150944em" height="4.884449423787627em" x="62.264150943396224em" y="25.11555057621237em" fill="#aaa"/><rect width="0.9433962264150944em" height="4.000275620808765em" x="63.20754716981132em" y="25.999724379191235em" fill="#aaa"/><rect width="0.9433962264150944em" height="3.997499868350398em" x="64.15094339622641em" y="26.0025001316496em" fill="#aaa"/><rect width="0.9433962264150944em" height="5.910425869340236em" x="65.09433962264151em" y="24.089574130659763em" fill="#aaa"/><rect width="0.9433962264150944em" height="4.079956996144906em" x="66.0377358490566em" y="25.920043003855092em" fill="#aaa"/><rect width="0.9433962264150944em" height="5.877208816181095em" x="66.9811320754717em" y="24.122791183818904em" fill="#aaa"/><rect width="0.9433962264150944em" height="2.45181341631361em" x="67.9245283018868em" y="27.54818658368639em" fill="#aaa"/><rect width="0.9433962264150944em" height="2.727135599800095em" x="68.86792452830188em" y="27.272864400199904em" fill="#aaa"/><rect width="0.9433962264150944em" height="1.5962404575874185em" x="69.81132075471699em" y="28.40375954241258em" fill="#aaa"/><rect width="0.9433962264150944em" height="2.02703102271394em" x="70.75471698113208em" y="27.972968977286058em" fill="#aaa"/><rect width="0.9433962264150944em" height="1.7051136826598645em" x="71.69811320754717em" y="28.294886317340136em" fill="#aaa"/><rect width="0.9433962264150944em" height="0.6961219820120476em" x="72.64150943396227em" y="29.30387801798795em" fill="#aaa"/><rect width="0.9433962264150944em" height="1.0529155352281532em" x="73.58490566037736em" y="28.947084464771848em" fill="#aaa"/><rect width="0.9433962264150944em" height="1.7288580949199064em" x="74.52830188679245em" y="28.271141905080093em" fill="#aaa"/><rect width="0.9433962264150944em" height="2.0067317804989777em" x="75.47169811320755em" y="27.993268219501022em" fill="#aaa"/><rect width="0.9433962264150944em" height="3.0408573991327925em" x="76.41509433962264em" y="26.959142600867207em" fill="#aaa"/><rect width="0.9433962264150944em" height="3.4579890464894225em" x="77.35849056603773em" y="26.542010953510577em" fill="#aaa"/><rect width="0.9433962264150944em" height="2.022225992923075em" x="78.30188679245283em" y="27.977774007076924em" fill="#aaa"/><rect width="0.9433962264150944em" height="2.284282942778941em" x="79.24528301886792em" y="27.71571705722106em" fill="#aaa"/><rect width="0.9433962264150944em" height="4.188363603351865em" x="80.18867924528303em" y="25.811636396648133em" fill="#aaa"/><rect width="0.9433962264150944em" height="3.7217798836879132em" x="81.13207547169812em" y="26.278220116312088em" fill="#aaa"/><rect width="0.9433962264150944em" height="3.389582289598202em" x="82.0754716981132em" y="26.610417710401798em" fill="#aaa"/><rect width="0.9433962264150944em" height="2.986803817600207em" x="83.01886792452831em" y="27.013196182399792em" fill="#aaa"/><rect width="0.9433962264150944em" height="3.5128552461208087em" x="83.9622641509434em" y="26.487144753879193em" fill="#aaa"/><rect width="0.9433962264150944em" height="6.127835937299479em" x="84.90566037735849em" y="23.87216406270052em" fill="#aaa"/><rect width="0.9433962264150944em" height="30em" x="85.84905660377359em" y="0em" fill="#aaa"/><rect width="0.9433962264150944em" height="11.56484943216552em" x="86.79245283018868em" y="18.43515056783448em" fill="#aaa"/><rect width="0.9433962264150944em" height="5.544154920621599em" x="87.73584905660377em" y="24.4558450793784em" fill="#aaa"/><rect width="0.9433962264150944em" height="3.5879784320245833em" x="88.67924528301887em" y="26.412021567975415em" fill="#aaa"/><rect width="0.9433962264150944em" height="3.377627228137307em" x="89.62264150943396em" y="26.622372771862693em" fill="#aaa"/><rect width="0.9433962264150944em" height="4.2455933955676715em" x="90.56603773584905em" y="25.75440660443233em" fill="#aaa"/><rect width="0.9433962264150944em" height="1.9167428280199192em" x="91.50943396226415em" y="28.08325717198008em" fill="#aaa"/><rect width="0.9433962264150944em" height="1.2761397057418924em" x="92.45283018867924em" y="28.723860294258106em" fill="#aaa"/><rect width="0.9433962264150944em" height="2.7359291122254756em" x="93.39622641509435em" y="27.264070887774523em" fill="#aaa"/><rect width="0.9433962264150944em" height="0.6831714194443161em" x="94.33962264150944em" y="29.316828580555683em" fill="#aaa"/><rect width="0.9433962264150944em" height="1.0369561186574467em" x="95.28301886792453em" y="28.963043881342553em" fill="#aaa"/><rect width="0.9433962264150944em" height="0.9288479782760303em" x="96.22641509433963em" y="29.071152021723968em" fill="#aaa"/><rect width="0.9433962264150944em" height="0.9679310652253414em" x="97.16981132075472em" y="29.03206893477466em" fill="#aaa"/><rect width="0.9433962264150944em" height="1.9043193337727806em" x="98.11320754716981em" y="28.09568066622722em" fill="#aaa"/><rect width="0.9433962264150944em" height="1.9595431119818567em" x="99.05660377358491em" y="28.04045688801814em" fill="#aaa"/></svg>