<?xml version="1.0" standalone="no"?>
<svg xmlns:xlink="http://www.w3.org/1999/xlink" xmlns="http://www.w3.org/2000/svg" class="topic-graph" style="width: 100em; height: 30em; text-align: center;"><rect width="0.9433962264150944em" height="30em" x="0em" y="0em" fill="#aaa"/><rect width="0.9433962264150944em" height="2.137349832776504em" x="0.9433962264150944em" y="27.862650167223496em" fill="#aaa"/><rect width="0.9433962264150944em" height="5.142088647478742em" x="1.8867924528301887em" y="24.857911352521256em" fill="#aaa"/><rect width="0.9433962264150944em" height="5.092681488264705em" x="2.830188679245283em" y="24.907318511735294em" fill="#aaa"/><rect width="0.9433962264150944em" height="7.666461470755287em" x="3.7735849056603774em" y="22.333538529244713em" fill="#aaa"/><rect width="0.9433962264150944em" height="7.576157039802445em" x="4.716981132075472em" y="22.423842960197554em" fill="#aaa"/><rect width="0.9433962264150944em" height="0.7338027731099115em" x="5.660377358490566em" y="29.26619722689009em" fill="#aaa"/><rect width="0.9433962264150944em" height="0.7557879667717166em" x="6.60377358490566em" y="29.244212033228283em" fill="#aaa"/><rect width="0.9433962264150944em" height="4.664517226929091em" x="7.547169811320755em" y="25.335482773070908em" fill="#aaa"/><rect width="0.9433962264150944em" height="7.811119427252448em" x="8.49056603773585em" y="22.18888057274755em" fill="#aaa"/><rect width="0.9433962264150944em" height="6.204564356044256em" x="9.433962264150944em" y="23.795435643955745em" fill="#aaa"/><rect width="0.9433962264150944em" height="2.6229186618360343em" x="10.377358490566039em" y="27.377081338163965em" fill="#aaa"/><rect width="0.9433962264150944em" height="3.608131743602393em" x="11.320754716981131em" y="26.391868256397608em" fill="#aaa"/><rect width="0.9433962264150944em" height="0em" x="12.264150943396226em" y="30em" fill="#aaa"/><rect width="0.9433962264150944em" height="16.687229062684327em" x="13.20754716981132em" y="13.312770937315673em" fill="#aaa"/><rect width="0.9433962264150944em" height="7.5435533962557955em" x="14.150943396226415em" y="22.456446603744205em" fill="#aaa"/><rect width="0.9433962264150944em" height="19.427435518040713em" x="15.09433962264151em" y="10.572564481959287em" fill="#aaa"/><rect width="0.9433962264150944em" height="4.034963169476552em" x="16.037735849056602em" y="25.96503683052345em" fill="#aaa"/><rect width="0.9433962264150944em" height="4.42938486482939em" x="16.9811320754717em" y="25.57061513517061em" fill="#aaa"/><rect width="0.9433962264150944em" height="14.81327220119894em" x="17.92452830188679em" y="15.18672779880106em" fill="#aaa"/><rect width="0.9433962264150944em" height="5.457149487733264em" x="18.867924528301888em" y="24.542850512266735em" fill="#aaa"/><rect width="0.9433962264150944em" height="7.719013326012666em" x="19.81132075471698em" y="22.280986673987336em" fill="#aaa"/><rect width="0.9433962264150944em" height="10.720489565402394em" x="20.754716981132077em" y="19.279510434597604em" fill="#aaa"/><rect width="0.9433962264150944em" height="3.4303553626895678em" x="21.69811320754717em" y="26.569644637310432em" fill="#aaa"/><rect width="0.9433962264150944em" height="1.3256011439469169em" x="22.641509433962263em" y="28.674398856053084em" fill="#aaa"/><rect width="0.9433962264150944em" height="3.4248543176796167em" x="23.58490566037736em" y="26.575145682320382em" fill="#aaa"/><rect width="0.9433962264150944em" height="0em" x="24.528301886792452em" y="30em" fill="#aaa"/><rect width="0.9433962264150944em" height="2.014870864488131em" x="25.471698113207548em" y="27.98512913551187em" fill="#aaa"/><rect width="0.9433962264150944em" height="2.3762765360922966em" x="26.41509433962264em" y="27.6237234639077em" fill="#aaa"/><rect width="0.9433962264150944em" height="4.371187625451748em" x="27.358490566037737em" y="25.628812374548254em" fill="#aaa"/><rect width="0.9433962264150944em" height="14.005452719545872em" x="28.30188679245283em" y="15.994547280454128em" fill="#aaa"/><rect width="0.9433962264150944em" height="5.512423892616783em" x="29.245283018867926em" y="24.487576107383216em" fill="#aaa"/><rect width="0.9433962264150944em" height="1.7984722674294709em" x="30.18867924528302em" y="28.20152773257053em" fill="#aaa"/><rect width="0.9433962264150944em" height="1.7916836044170907em" x="31.132075471698112em" y="28.20831639558291em" fill="#aaa"/><rect width="0.9433962264150944em" height="1.895397134170707em" x="32.075471698113205em" y="28.104602865829293em" fill="#aaa"/><rect width="0.9433962264150944em" height="3.4915153798001195em" x="33.0188679245283em" y="26.50848462019988em" fill="#aaa"/><rect width="0.9433962264150944em" height="4.975413812843863em" x="33.9622641509434em" y="25.02458618715614em" fill="#aaa"/><rect width="0.9433962264150944em" height="1.0728053876755643em" x="34.905660377358494em" y="28.927194612324435em" fill="#aaa"/><rect width="0.9433962264150944em" height="0.8812361855824077em" x="35.84905660377358em" y="29.11876381441759em" fill="#aaa"/><rect width="0.9433962264150944em" height="1.5143563710021557em" x="36.79245283018868em" y="28.485643628997845em" fill="#aaa"/><rect width="0.9433962264150944em" height="3.710725642596898em" x="37.735849056603776em" y="26.2892743574031em" fill="#aaa"/><rect width="0.9433962264150944em" height="1.7541042994240816em" x="38.679245283018865em" y="28.245895700575918em" fill="#aaa"/><rect width="0.9433962264150944em" height="1.2445216970691575em" x="39.62264150943396em" y="28.755478302930843em" fill="#aaa"/><rect width="0.9433962264150944em" height="6.8514623717645255em" x="40.56603773584906em" y="23.148537628235474em" fill="#aaa"/><rect width="0.9433962264150944em" height="3.619327258408638em" x="41.509433962264154em" y="26.38067274159136em" fill="#aaa"/><rect width="0.9433962264150944em" height="1.30034215721642em" x="42.45283018867924em" y="28.69965784278358em" fill="#aaa"/><rect width="0.9433962264150944em" height="3.2638476674124868em" x="43.39622641509434em" y="26.736152332587512em" fill="#aaa"/><rect width="0.9433962264150944em" height="1.9877533035120185em" x="44.339622641509436em" y="28.01224669648798em" fill="#aaa"/><rect width="0.9433962264150944em" height="0.9219821637163226em" x="45.283018867924525em" y="29.078017836283678em" fill="#aaa"/><rect width="0.9433962264150944em" height="2.7045641227188857em" x="46.22641509433962em" y="27.295435877281115em" fill="#aaa"/><rect width="0.9433962264150944em" height="0.8494327434179761em" x="47.16981132075472em" y="29.150567256582026em" fill="#aaa"/><rect width="0.9433962264150944em" height="0.9404105274428355em" x="48.113207547169814em" y="29.059589472557164em" fill="#aaa"/><rect width="0.9433962264150944em" height="0.7275398484780843em" x="49.056603773584904em" y="29.272460151521916em" fill="#aaa"/><rect width="0.9433962264150944em" height="1.3295525825794785em" x="50em" y="28.670447417420522em" fill="#aaa"/><rect width="0.9433962264150944em" height="0.6747293920178903em" x="50.943396226415096em" y="29.32527060798211em" fill="#aaa"/><rect width="0.9433962264150944em" height="0.9356595226721103em" x="51.88679245283019em" y="29.06434047732789em" fill="#aaa"/><rect width="0.9433962264150944em" height="0.3264007923756389em" x="52.83018867924528em" y="29.67359920762436em" fill="#aaa"/><rect width="0.9433962264150944em" height="0.6583974490496854em" x="53.77358490566038em" y="29.341602550950313em" fill="#aaa"/><rect width="0.9433962264150944em" height="0.4018985852265994em" x="54.716981132075475em" y="29.5981014147734em" fill="#aaa"/><rect width="0.9433962264150944em" height="0.5002594730375505em" x="55.660377358490564em" y="29.499740526962448em" fill="#aaa"/><rect width="0.9433962264150944em" height="0.6325062889852412em" x="56.60377358490566em" y="29.36749371101476em" fill="#aaa"/><rect width="0.9433962264150944em" height="0.34989816213575153em" x="57.54716981132076em" y="29.65010183786425em" fill="#aaa"/><rect width="0.9433962264150944em" height="0.754476596071491em" x="58.49056603773585em" y="29.24552340392851em" fill="#aaa"/><rect width="0.9433962264150944em" height="0.8243520505408349em" x="59.43396226415094em" y="29.175647949459165em" fill="#aaa"/><rect width="0.9433962264150944em" height="0.570451658881025em" x="60.37735849056604em" y="29.429548341118974em" fill="#aaa"/><rect width="0.9433962264150944em" height="0.48982521344182134em" x="61.320754716981135em" y="29.510174786558178em" fill="#aaa"/><rect width="0.9433962264150944em" height="0.7760064604801128em" x="62.264150943396224em" y="29.22399353951989em" fill="#aaa"/><rect width="0.9433962264150944em" height="2.2386776073702106em" x="63.20754716981132em" y="27.76132239262979em" fill="#aaa"/><rect width="0.9433962264150944em" height="2.118548084254456em" x="64.15094339622641em" y="27.881451915745544em" fill="#aaa"/><rect width="0.9433962264150944em" height="0.912172498764121em" x="65.09433962264151em" y="29.08782750123588em" fill="#aaa"/><rect width="0.9433962264150944em" height="0.6538158178894993em" x="66.0377358490566em" y="29.346184182110502em" fill="#aaa"/><rect width="0.9433962264150944em" height="1.3986988561700209em" x="66.9811320754717em" y="28.60130114382998em" fill="#aaa"/><rect width="0.9433962264150944em" height="2.7954140209150595em" x="67.9245283018868em" y="27.20458597908494em" fill="#aaa"/><rect width="0.9433962264150944em" height="0.7333904170842074em" x="68.86792452830188em" y="29.26660958291579em" fill="#aaa"/><rect width="0.9433962264150944em" height="0.9401107587427313em" x="69.81132075471699em" y="29.05988924125727em" fill="#aaa"/><rect width="0.9433962264150944em" height="1.2224880173224675em" x="70.75471698113208em" y="28.77751198267753em" fill="#aaa"/><rect width="0.9433962264150944em" height="0.8149132922384092em" x="71.69811320754717em" y="29.18508670776159em" fill="#aaa"/><rect width="0.9433962264150944em" height="2.8348636216262504em" x="72.64150943396227em" y="27.16513637837375em" fill="#aaa"/><rect width="0.9433962264150944em" height="1.142559785615961em" x="73.58490566037736em" y="28.857440214384038em" fill="#aaa"/><rect width="0.9433962264150944em" height="2.2588714684973827em" x="74.52830188679245em" y="27.741128531502618em" fill="#aaa"/><rect width="0.9433962264150944em" height="0.504668832134815em" x="75.47169811320755em" y="29.495331167865185em" fill="#aaa"/><rect width="0.9433962264150944em" height="0.23619962505836584em" x="76.41509433962264em" y="29.763800374941635em" fill="#aaa"/><rect width="0.9433962264150944em" height="0.2417316202537309em" x="77.35849056603773em" y="29.75826837974627em" fill="#aaa"/><rect width="0.9433962264150944em" height="0.9511602105152642em" x="78.30188679245283em" y="29.048839789484735em" fill="#aaa"/><rect width="0.9433962264150944em" height="2.618200997937277em" x="79.24528301886792em" y="27.381799002062724em" fill="#aaa"/><rect width="0.9433962264150944em" height="0.2600808003908608em" x="80.18867924528303em" y="29.73991919960914em" fill="#aaa"/><rect width="0.9433962264150944em" height="0.2879154582765818em" x="81.13207547169812em" y="29.712084541723417em" fill="#aaa"/><rect width="0.9433962264150944em" height="0.37560647966689603em" x="82.0754716981132em" y="29.624393520333104em" fill="#aaa"/><rect width="0.9433962264150944em" height="0.4416304063270621em" x="83.01886792452831em" y="29.55836959367294em" fill="#aaa"/><rect width="0.9433962264150944em" height="0.439083638896729em" x="83.9622641509434em" y="29.56091636110327em" fill="#aaa"/><rect width="0.9433962264150944em" height="1.0784136438815037em" x="84.90566037735849em" y="28.921586356118496em" fill="#aaa"/><rect width="0.9433962264150944em" height="0.5787799714634918em" x="85.84905660377359em" y="29.42122002853651em" fill="#aaa"/><rect width="0.9433962264150944em" height="0.5571233693863415em" x="86.79245283018868em" y="29.442876630613657em" fill="#aaa"/><rect width="0.9433962264150944em" height="0.40895073746148414em" x="87.73584905660377em" y="29.591049262538515em" fill="#aaa"/><rect width="0.9433962264150944em" height="0.33215658440334483em" x="88.67924528301887em" y="29.667843415596654em" fill="#aaa"/><rect width="0.9433962264150944em" height="0.09913497312752849em" x="89.62264150943396em" y="29.90086502687247em" fill="#aaa"/><rect width="0.9433962264150944em" height="0.20673430082635635em" x="90.56603773584905em" y="29.793265699173645em" fill="#aaa"/><rect width="0.9433962264150944em" height="0.3137872284417239em" x="91.50943396226415em" y="29.686212771558274em" fill="#aaa"/><rect width="0.9433962264150944em" height="0.5294697113498659em" x="92.45283018867924em" y="29.470530288650135em" fill="#aaa"/><rect width="0.9433962264150944em" height="0.8262589007954446em" x="93.39622641509435em" y="29.173741099204555em" fill="#aaa"/><rect width="0.9433962264150944em" height="0.43806022665314515em" x="94.33962264150944em" y="29.561939773346854em" fill="#aaa"/><rect width="0.9433962264150944em" height="0.6401528794444828em" x="95.28301886792453em" y="29.359847120555518em" fill="#aaa"/><rect width="0.9433962264150944em" height="0.4203760994625661em" x="96.22641509433963em" y="29.579623900537435em" fill="#aaa"/><rect width="0.9433962264150944em" height="0.3262722479608999em" x="97.16981132075472em" y="29.6737277520391em" fill="#aaa"/><rect width="0.9433962264150944em" height="0.5547528399822033em" x="98.11320754716981em" y="29.445247160017797em" fill="#aaa"/><rect width="0.9433962264150944em" height="0.4132126109229018em" x="99.05660377358491em" y="29.5867873890771em" fill="#aaa"/></svg>