<?xml version="1.0" standalone="no"?>
<svg xmlns:xlink="http://www.w3.org/1999/xlink" xmlns="http://www.w3.org/2000/svg" class="topic-graph" style="width: 100em; height: 30em; text-align: center;"><rect width="0.9433962264150944em" height="3.139598037820809em" x="0em" y="26.86040196217919em" fill="#aaa"/><rect width="0.9433962264150944em" height="2.479537704493675em" x="0.9433962264150944em" y="27.520462295506324em" fill="#aaa"/><rect width="0.9433962264150944em" height="20.675386147306106em" x="1.8867924528301887em" y="9.324613852693894em" fill="#aaa"/><rect width="0.9433962264150944em" height="5.758622205848653em" x="2.830188679245283em" y="24.241377794151347em" fill="#aaa"/><rect width="0.9433962264150944em" height="6.39818533360614em" x="3.7735849056603774em" y="23.60181466639386em" fill="#aaa"/><rect width="0.9433962264150944em" height="10.246311049118265em" x="4.716981132075472em" y="19.753688950881735em" fill="#aaa"/><rect width="0.9433962264150944em" height="9.252097146052261em" x="5.660377358490566em" y="20.74790285394774em" fill="#aaa"/><rect width="0.9433962264150944em" height="30em" x="6.60377358490566em" y="0em" fill="#aaa"/><rect width="0.9433962264150944em" height="7.062778805187303em" x="7.547169811320755em" y="22.937221194812697em" fill="#aaa"/><rect width="0.9433962264150944em" height="8.238163395452709em" x="8.49056603773585em" y="21.76183660454729em" fill="#aaa"/><rect width="0.9433962264150944em" height="11.977854224432155em" x="9.433962264150944em" y="18.022145775567843em" fill="#aaa"/><rect width="0.9433962264150944em" height="3.7036062671457173em" x="10.377358490566039em" y="26.296393732854284em" fill="#aaa"/><rect width="0.9433962264150944em" height="1.523132110259188em" x="11.320754716981131em" y="28.476867889740813em" fill="#aaa"/><rect width="0.9433962264150944em" height="0em" x="12.264150943396226em" y="30em" fill="#aaa"/><rect width="0.9433962264150944em" height="14.65260337420715em" x="13.20754716981132em" y="15.34739662579285em" fill="#aaa"/><rect width="0.9433962264150944em" height="13.632250461292648em" x="14.150943396226415em" y="16.36774953870735em" fill="#aaa"/><rect width="0.9433962264150944em" height="12.90803963195281em" x="15.09433962264151em" y="17.09196036804719em" fill="#aaa"/><rect width="0.9433962264150944em" height="3.8668734377572918em" x="16.037735849056602em" y="26.13312656224271em" fill="#aaa"/><rect width="0.9433962264150944em" height="4.084922806848071em" x="16.9811320754717em" y="25.91507719315193em" fill="#aaa"/><rect width="0.9433962264150944em" height="3.9988366942493987em" x="17.92452830188679em" y="26.0011633057506em" fill="#aaa"/><rect width="0.9433962264150944em" height="7.852968321143303em" x="18.867924528301888em" y="22.1470316788567em" fill="#aaa"/><rect width="0.9433962264150944em" height="5.187903701655963em" x="19.81132075471698em" y="24.812096298344038em" fill="#aaa"/><rect width="0.9433962264150944em" height="4.274343616703802em" x="20.754716981132077em" y="25.725656383296197em" fill="#aaa"/><rect width="0.9433962264150944em" height="14.866342931321197em" x="21.69811320754717em" y="15.133657068678803em" fill="#aaa"/><rect width="0.9433962264150944em" height="3.3030911572646824em" x="22.641509433962263em" y="26.69690884273532em" fill="#aaa"/><rect width="0.9433962264150944em" height="14.519733300450312em" x="23.58490566037736em" y="15.480266699549688em" fill="#aaa"/><rect width="0.9433962264150944em" height="0em" x="24.528301886792452em" y="30em" fill="#aaa"/><rect width="0.9433962264150944em" height="7.743585629739694em" x="25.471698113207548em" y="22.256414370260305em" fill="#aaa"/><rect width="0.9433962264150944em" height="4.162884169199069em" x="26.41509433962264em" y="25.837115830800933em" fill="#aaa"/><rect width="0.9433962264150944em" height="7.444736790444223em" x="27.358490566037737em" y="22.555263209555775em" fill="#aaa"/><rect width="0.9433962264150944em" height="8.626059936713723em" x="28.30188679245283em" y="21.373940063286277em" fill="#aaa"/><rect width="0.9433962264150944em" height="8.05640773653279em" x="29.245283018867926em" y="21.94359226346721em" fill="#aaa"/><rect width="0.9433962264150944em" height="11.348948830650837em" x="30.18867924528302em" y="18.651051169349163em" fill="#aaa"/><rect width="0.9433962264150944em" height="17.080414895443568em" x="31.132075471698112em" y="12.919585104556432em" fill="#aaa"/><rect width="0.9433962264150944em" height="20.47467852382222em" x="32.075471698113205em" y="9.52532147617778em" fill="#aaa"/><rect width="0.9433962264150944em" height="17.42707729225178em" x="33.0188679245283em" y="12.57292270774822em" fill="#aaa"/><rect width="0.9433962264150944em" height="20.66206408940296em" x="33.9622641509434em" y="9.33793591059704em" fill="#aaa"/><rect width="0.9433962264150944em" height="6.648746096262213em" x="34.905660377358494em" y="23.351253903737785em" fill="#aaa"/><rect width="0.9433962264150944em" height="10.660918794867259em" x="35.84905660377358em" y="19.339081205132743em" fill="#aaa"/><rect width="0.9433962264150944em" height="11.751984219778626em" x="36.79245283018868em" y="18.248015780221372em" fill="#aaa"/><rect width="0.9433962264150944em" height="8.709556899559475em" x="37.735849056603776em" y="21.290443100440527em" fill="#aaa"/><rect width="0.9433962264150944em" height="21.54379984838127em" x="38.679245283018865em" y="8.45620015161873em" fill="#aaa"/><rect width="0.9433962264150944em" height="13.78106291993816em" x="39.62264150943396em" y="16.218937080061842em" fill="#aaa"/><rect width="0.9433962264150944em" height="8.853515726479536em" x="40.56603773584906em" y="21.146484273520464em" fill="#aaa"/><rect width="0.9433962264150944em" height="16.8052687905812em" x="41.509433962264154em" y="13.194731209418801em" fill="#aaa"/><rect width="0.9433962264150944em" height="6.893829376452599em" x="42.45283018867924em" y="23.1061706235474em" fill="#aaa"/><rect width="0.9433962264150944em" height="14.805033851954214em" x="43.39622641509434em" y="15.194966148045786em" fill="#aaa"/><rect width="0.9433962264150944em" height="20.415228298442624em" x="44.339622641509436em" y="9.584771701557376em" fill="#aaa"/><rect width="0.9433962264150944em" height="21.467924373199523em" x="45.283018867924525em" y="8.532075626800477em" fill="#aaa"/><rect width="0.9433962264150944em" height="12.860772670289686em" x="46.22641509433962em" y="17.139227329710316em" fill="#aaa"/><rect width="0.9433962264150944em" height="12.461066330862781em" x="47.16981132075472em" y="17.53893366913722em" fill="#aaa"/><rect width="0.9433962264150944em" height="15.43816518408803em" x="48.113207547169814em" y="14.56183481591197em" fill="#aaa"/><rect width="0.9433962264150944em" height="15.755541221872098em" x="49.056603773584904em" y="14.244458778127902em" fill="#aaa"/><rect width="0.9433962264150944em" height="11.864688525930847em" x="50em" y="18.135311474069155em" fill="#aaa"/><rect width="0.9433962264150944em" height="18.621895579615522em" x="50.943396226415096em" y="11.378104420384478em" fill="#aaa"/><rect width="0.9433962264150944em" height="18.325182361447666em" x="51.88679245283019em" y="11.674817638552334em" fill="#aaa"/><rect width="0.9433962264150944em" height="18.0238292802115em" x="52.83018867924528em" y="11.976170719788499em" fill="#aaa"/><rect width="0.9433962264150944em" height="11.644205119789724em" x="53.77358490566038em" y="18.355794880210276em" fill="#aaa"/><rect width="0.9433962264150944em" height="17.193126150938514em" x="54.716981132075475em" y="12.806873849061486em" fill="#aaa"/><rect width="0.9433962264150944em" height="15.07903396620313em" x="55.660377358490564em" y="14.92096603379687em" fill="#aaa"/><rect width="0.9433962264150944em" height="11.285818170031167em" x="56.60377358490566em" y="18.714181829968833em" fill="#aaa"/><rect width="0.9433962264150944em" height="17.15930096763953em" x="57.54716981132076em" y="12.840699032360469em" fill="#aaa"/><rect width="0.9433962264150944em" height="11.628305769147538em" x="58.49056603773585em" y="18.371694230852462em" fill="#aaa"/><rect width="0.9433962264150944em" height="8.95091103607222em" x="59.43396226415094em" y="21.04908896392778em" fill="#aaa"/><rect width="0.9433962264150944em" height="11.777357610139804em" x="60.37735849056604em" y="18.222642389860198em" fill="#aaa"/><rect width="0.9433962264150944em" height="16.658474397591462em" x="61.320754716981135em" y="13.341525602408538em" fill="#aaa"/><rect width="0.9433962264150944em" height="8.297477029307995em" x="62.264150943396224em" y="21.702522970692005em" fill="#aaa"/><rect width="0.9433962264150944em" height="9.079870093025411em" x="63.20754716981132em" y="20.920129906974587em" fill="#aaa"/><rect width="0.9433962264150944em" height="13.648143032253058em" x="64.15094339622641em" y="16.35185696774694em" fill="#aaa"/><rect width="0.9433962264150944em" height="12.950681992090658em" x="65.09433962264151em" y="17.049318007909342em" fill="#aaa"/><rect width="0.9433962264150944em" height="18.263881362605385em" x="66.0377358490566em" y="11.736118637394615em" fill="#aaa"/><rect width="0.9433962264150944em" height="9.900835567572562em" x="66.9811320754717em" y="20.099164432427436em" fill="#aaa"/><rect width="0.9433962264150944em" height="9.653330679992289em" x="67.9245283018868em" y="20.346669320007713em" fill="#aaa"/><rect width="0.9433962264150944em" height="8.58543665672498em" x="68.86792452830188em" y="21.41456334327502em" fill="#aaa"/><rect width="0.9433962264150944em" height="13.596376891191905em" x="69.81132075471699em" y="16.403623108808095em" fill="#aaa"/><rect width="0.9433962264150944em" height="14.946361570655084em" x="70.75471698113208em" y="15.053638429344916em" fill="#aaa"/><rect width="0.9433962264150944em" height="21.7795666787787em" x="71.69811320754717em" y="8.2204333212213em" fill="#aaa"/><rect width="0.9433962264150944em" height="24.944308191594985em" x="72.64150943396227em" y="5.055691808405015em" fill="#aaa"/><rect width="0.9433962264150944em" height="6.340323843115994em" x="73.58490566037736em" y="23.659676156884007em" fill="#aaa"/><rect width="0.9433962264150944em" height="21.35565195054668em" x="74.52830188679245em" y="8.64434804945332em" fill="#aaa"/><rect width="0.9433962264150944em" height="17.333852951645607em" x="75.47169811320755em" y="12.666147048354393em" fill="#aaa"/><rect width="0.9433962264150944em" height="14.11241887874629em" x="76.41509433962264em" y="15.88758112125371em" fill="#aaa"/><rect width="0.9433962264150944em" height="19.299059906464816em" x="77.35849056603773em" y="10.700940093535184em" fill="#aaa"/><rect width="0.9433962264150944em" height="13.545628106913219em" x="78.30188679245283em" y="16.45437189308678em" fill="#aaa"/><rect width="0.9433962264150944em" height="8.068026545489225em" x="79.24528301886792em" y="21.931973454510775em" fill="#aaa"/><rect width="0.9433962264150944em" height="16.3432174631774em" x="80.18867924528303em" y="13.6567825368226em" fill="#aaa"/><rect width="0.9433962264150944em" height="16.746793573687196em" x="81.13207547169812em" y="13.253206426312804em" fill="#aaa"/><rect width="0.9433962264150944em" height="12.509821263136445em" x="82.0754716981132em" y="17.490178736863555em" fill="#aaa"/><rect width="0.9433962264150944em" height="13.073921735788975em" x="83.01886792452831em" y="16.926078264211025em" fill="#aaa"/><rect width="0.9433962264150944em" height="18.137342124933777em" x="83.9622641509434em" y="11.862657875066223em" fill="#aaa"/><rect width="0.9433962264150944em" height="17.23539707954258em" x="84.90566037735849em" y="12.76460292045742em" fill="#aaa"/><rect width="0.9433962264150944em" height="20.326713310709593em" x="85.84905660377359em" y="9.673286689290407em" fill="#aaa"/><rect width="0.9433962264150944em" height="24.04820446734197em" x="86.79245283018868em" y="5.9517955326580285em" fill="#aaa"/><rect width="0.9433962264150944em" height="15.256060579094425em" x="87.73584905660377em" y="14.743939420905575em" fill="#aaa"/><rect width="0.9433962264150944em" height="12.795716986731488em" x="88.67924528301887em" y="17.204283013268512em" fill="#aaa"/><rect width="0.9433962264150944em" height="10.221718556949156em" x="89.62264150943396em" y="19.778281443050844em" fill="#aaa"/><rect width="0.9433962264150944em" height="15.92628455143744em" x="90.56603773584905em" y="14.07371544856256em" fill="#aaa"/><rect width="0.9433962264150944em" height="14.300834483986208em" x="91.50943396226415em" y="15.699165516013792em" fill="#aaa"/><rect width="0.9433962264150944em" height="11.796906730106032em" x="92.45283018867924em" y="18.20309326989397em" fill="#aaa"/><rect width="0.9433962264150944em" height="24.39419349110694em" x="93.39622641509435em" y="5.60580650889306em" fill="#aaa"/><rect width="0.9433962264150944em" height="10.203059342769992em" x="94.33962264150944em" y="19.79694065723001em" fill="#aaa"/><rect width="0.9433962264150944em" height="7.792326136452359em" x="95.28301886792453em" y="22.20767386354764em" fill="#aaa"/><rect width="0.9433962264150944em" height="12.7905426739987em" x="96.22641509433963em" y="17.2094573260013em" fill="#aaa"/><rect width="0.9433962264150944em" height="11.5934580055716em" x="97.16981132075472em" y="18.4065419944284em" fill="#aaa"/><rect width="0.9433962264150944em" height="10.024441443863063em" x="98.11320754716981em" y="19.97555855613694em" fill="#aaa"/><rect width="0.9433962264150944em" height="10.7263607335195em" x="99.05660377358491em" y="19.2736392664805em" fill="#aaa"/></svg>