<?xml version="1.0" standalone="no"?>
<svg xmlns:xlink="http://www.w3.org/1999/xlink" xmlns="http://www.w3.org/2000/svg" class="topic-graph" style="width: 100em; height: 30em; text-align: center;"><rect width="0.9433962264150944em" height="2.9144841367452843em" x="0em" y="27.085515863254717em" fill="#aaa"/><rect width="0.9433962264150944em" height="14.677544488283145em" x="0.9433962264150944em" y="15.322455511716855em" fill="#aaa"/><rect width="0.9433962264150944em" height="7.370308840884295em" x="1.8867924528301887em" y="22.629691159115705em" fill="#aaa"/><rect width="0.9433962264150944em" height="1.7640018899240186em" x="2.830188679245283em" y="28.235998110075982em" fill="#aaa"/><rect width="0.9433962264150944em" height="7.519008751333739em" x="3.7735849056603774em" y="22.48099124866626em" fill="#aaa"/><rect width="0.9433962264150944em" height="14.103640439018452em" x="4.716981132075472em" y="15.896359560981548em" fill="#aaa"/><rect width="0.9433962264150944em" height="14.69474210828752em" x="5.660377358490566em" y="15.30525789171248em" fill="#aaa"/><rect width="0.9433962264150944em" height="11.621954017786683em" x="6.60377358490566em" y="18.378045982213315em" fill="#aaa"/><rect width="0.9433962264150944em" height="8.92879927432044em" x="7.547169811320755em" y="21.07120072567956em" fill="#aaa"/><rect width="0.9433962264150944em" height="8.29697112178477em" x="8.49056603773585em" y="21.70302887821523em" fill="#aaa"/><rect width="0.9433962264150944em" height="4.741500256254511em" x="9.433962264150944em" y="25.25849974374549em" fill="#aaa"/><rect width="0.9433962264150944em" height="11.457672374249386em" x="10.377358490566039em" y="18.542327625750616em" fill="#aaa"/><rect width="0.9433962264150944em" height="11.388605641339245em" x="11.320754716981131em" y="18.611394358660753em" fill="#aaa"/><rect width="0.9433962264150944em" height="0em" x="12.264150943396226em" y="30em" fill="#aaa"/><rect width="0.9433962264150944em" height="7.1968070032057145em" x="13.20754716981132em" y="22.803192996794287em" fill="#aaa"/><rect width="0.9433962264150944em" height="8.847810555755464em" x="14.150943396226415em" y="21.152189444244534em" fill="#aaa"/><rect width="0.9433962264150944em" height="5.1869150678835565em" x="15.09433962264151em" y="24.813084932116443em" fill="#aaa"/><rect width="0.9433962264150944em" height="3.394201300895131em" x="16.037735849056602em" y="26.60579869910487em" fill="#aaa"/><rect width="0.9433962264150944em" height="2.7348508656795527em" x="16.9811320754717em" y="27.265149134320446em" fill="#aaa"/><rect width="0.9433962264150944em" height="1.9768775381673422em" x="17.92452830188679em" y="28.023122461832656em" fill="#aaa"/><rect width="0.9433962264150944em" height="2.775375503449407em" x="18.867924528301888em" y="27.224624496550593em" fill="#aaa"/><rect width="0.9433962264150944em" height="13.12816834299345em" x="19.81132075471698em" y="16.871831657006553em" fill="#aaa"/><rect width="0.9433962264150944em" height="4.503004252004079em" x="20.754716981132077em" y="25.49699574799592em" fill="#aaa"/><rect width="0.9433962264150944em" height="4.01557374772601em" x="21.69811320754717em" y="25.98442625227399em" fill="#aaa"/><rect width="0.9433962264150944em" height="3.850512290845111em" x="22.641509433962263em" y="26.14948770915489em" fill="#aaa"/><rect width="0.9433962264150944em" height="2.934852780933183em" x="23.58490566037736em" y="27.065147219066816em" fill="#aaa"/><rect width="0.9433962264150944em" height="0em" x="24.528301886792452em" y="30em" fill="#aaa"/><rect width="0.9433962264150944em" height="8.731316471302268em" x="25.471698113207548em" y="21.268683528697732em" fill="#aaa"/><rect width="0.9433962264150944em" height="4.797288722841423em" x="26.41509433962264em" y="25.202711277158578em" fill="#aaa"/><rect width="0.9433962264150944em" height="2.7465376653441513em" x="27.358490566037737em" y="27.25346233465585em" fill="#aaa"/><rect width="0.9433962264150944em" height="2.993000520796837em" x="28.30188679245283em" y="27.006999479203163em" fill="#aaa"/><rect width="0.9433962264150944em" height="5.135666066168094em" x="29.245283018867926em" y="24.864333933831908em" fill="#aaa"/><rect width="0.9433962264150944em" height="7.565554444795603em" x="30.18867924528302em" y="22.434445555204398em" fill="#aaa"/><rect width="0.9433962264150944em" height="9.08368395525175em" x="31.132075471698112em" y="20.91631604474825em" fill="#aaa"/><rect width="0.9433962264150944em" height="5.5270611836602175em" x="32.075471698113205em" y="24.472938816339784em" fill="#aaa"/><rect width="0.9433962264150944em" height="3.885350171158211em" x="33.0188679245283em" y="26.114649828841788em" fill="#aaa"/><rect width="0.9433962264150944em" height="5.297897579941308em" x="33.9622641509434em" y="24.702102420058694em" fill="#aaa"/><rect width="0.9433962264150944em" height="4.399662305278976em" x="34.905660377358494em" y="25.600337694721023em" fill="#aaa"/><rect width="0.9433962264150944em" height="5.35731737442403em" x="35.84905660377358em" y="24.642682625575972em" fill="#aaa"/><rect width="0.9433962264150944em" height="4.292460043961518em" x="36.79245283018868em" y="25.70753995603848em" fill="#aaa"/><rect width="0.9433962264150944em" height="4.706787716460518em" x="37.735849056603776em" y="25.293212283539482em" fill="#aaa"/><rect width="0.9433962264150944em" height="2.265058185523692em" x="38.679245283018865em" y="27.734941814476308em" fill="#aaa"/><rect width="0.9433962264150944em" height="3.7262803310809693em" x="39.62264150943396em" y="26.273719668919032em" fill="#aaa"/><rect width="0.9433962264150944em" height="2.5393802565814925em" x="40.56603773584906em" y="27.46061974341851em" fill="#aaa"/><rect width="0.9433962264150944em" height="6.08078995723373em" x="41.509433962264154em" y="23.91921004276627em" fill="#aaa"/><rect width="0.9433962264150944em" height="4.30281654412365em" x="42.45283018867924em" y="25.69718345587635em" fill="#aaa"/><rect width="0.9433962264150944em" height="6.483946190614011em" x="43.39622641509434em" y="23.516053809385987em" fill="#aaa"/><rect width="0.9433962264150944em" height="7.199007246168831em" x="44.339622641509436em" y="22.800992753831167em" fill="#aaa"/><rect width="0.9433962264150944em" height="9.742453690914857em" x="45.283018867924525em" y="20.257546309085143em" fill="#aaa"/><rect width="0.9433962264150944em" height="8.150492892797349em" x="46.22641509433962em" y="21.84950710720265em" fill="#aaa"/><rect width="0.9433962264150944em" height="19.81666146498436em" x="47.16981132075472em" y="10.18333853501564em" fill="#aaa"/><rect width="0.9433962264150944em" height="8.004090017690423em" x="48.113207547169814em" y="21.995909982309577em" fill="#aaa"/><rect width="0.9433962264150944em" height="7.954455610948985em" x="49.056603773584904em" y="22.045544389051017em" fill="#aaa"/><rect width="0.9433962264150944em" height="4.9808135909412234em" x="50em" y="25.019186409058776em" fill="#aaa"/><rect width="0.9433962264150944em" height="5.4892773740588865em" x="50.943396226415096em" y="24.510722625941114em" fill="#aaa"/><rect width="0.9433962264150944em" height="8.362653562690502em" x="51.88679245283019em" y="21.637346437309496em" fill="#aaa"/><rect width="0.9433962264150944em" height="7.297748185553388em" x="52.83018867924528em" y="22.702251814446612em" fill="#aaa"/><rect width="0.9433962264150944em" height="18.04948811492853em" x="53.77358490566038em" y="11.95051188507147em" fill="#aaa"/><rect width="0.9433962264150944em" height="10.366298113400015em" x="54.716981132075475em" y="19.633701886599987em" fill="#aaa"/><rect width="0.9433962264150944em" height="7.70056435390286em" x="55.660377358490564em" y="22.29943564609714em" fill="#aaa"/><rect width="0.9433962264150944em" height="10.713710161284546em" x="56.60377358490566em" y="19.286289838715454em" fill="#aaa"/><rect width="0.9433962264150944em" height="12.288385111693861em" x="57.54716981132076em" y="17.711614888306137em" fill="#aaa"/><rect width="0.9433962264150944em" height="12.407242480574617em" x="58.49056603773585em" y="17.592757519425383em" fill="#aaa"/><rect width="0.9433962264150944em" height="15.73142546253933em" x="59.43396226415094em" y="14.26857453746067em" fill="#aaa"/><rect width="0.9433962264150944em" height="11.67424254924745em" x="60.37735849056604em" y="18.325757450752548em" fill="#aaa"/><rect width="0.9433962264150944em" height="6.18080882748365em" x="61.320754716981135em" y="23.819191172516348em" fill="#aaa"/><rect width="0.9433962264150944em" height="5.632657838991233em" x="62.264150943396224em" y="24.367342161008768em" fill="#aaa"/><rect width="0.9433962264150944em" height="7.455023900412657em" x="63.20754716981132em" y="22.544976099587345em" fill="#aaa"/><rect width="0.9433962264150944em" height="4.990571934284207em" x="64.15094339622641em" y="25.00942806571579em" fill="#aaa"/><rect width="0.9433962264150944em" height="5.324481292134112em" x="65.09433962264151em" y="24.675518707865887em" fill="#aaa"/><rect width="0.9433962264150944em" height="6.805448759823143em" x="66.0377358490566em" y="23.194551240176857em" fill="#aaa"/><rect width="0.9433962264150944em" height="7.920539191624415em" x="66.9811320754717em" y="22.079460808375586em" fill="#aaa"/><rect width="0.9433962264150944em" height="10.342144731004266em" x="67.9245283018868em" y="19.657855268995732em" fill="#aaa"/><rect width="0.9433962264150944em" height="9.6354268148082em" x="68.86792452830188em" y="20.3645731851918em" fill="#aaa"/><rect width="0.9433962264150944em" height="12.985064644470805em" x="69.81132075471699em" y="17.014935355529197em" fill="#aaa"/><rect width="0.9433962264150944em" height="21.29756904477858em" x="70.75471698113208em" y="8.70243095522142em" fill="#aaa"/><rect width="0.9433962264150944em" height="22.701898461837946em" x="71.69811320754717em" y="7.298101538162054em" fill="#aaa"/><rect width="0.9433962264150944em" height="11.637912699785417em" x="72.64150943396227em" y="18.362087300214583em" fill="#aaa"/><rect width="0.9433962264150944em" height="1.8753821917712261em" x="73.58490566037736em" y="28.124617808228773em" fill="#aaa"/><rect width="0.9433962264150944em" height="2.2627888349577048em" x="74.52830188679245em" y="27.737211165042297em" fill="#aaa"/><rect width="0.9433962264150944em" height="7.633646402575814em" x="75.47169811320755em" y="22.366353597424187em" fill="#aaa"/><rect width="0.9433962264150944em" height="7.287983202081191em" x="76.41509433962264em" y="22.712016797918807em" fill="#aaa"/><rect width="0.9433962264150944em" height="16.214075994713504em" x="77.35849056603773em" y="13.785924005286496em" fill="#aaa"/><rect width="0.9433962264150944em" height="8.735917571575342em" x="78.30188679245283em" y="21.264082428424658em" fill="#aaa"/><rect width="0.9433962264150944em" height="8.124744424901403em" x="79.24528301886792em" y="21.8752555750986em" fill="#aaa"/><rect width="0.9433962264150944em" height="14.939866641266232em" x="80.18867924528303em" y="15.060133358733768em" fill="#aaa"/><rect width="0.9433962264150944em" height="10.339624717068311em" x="81.13207547169812em" y="19.66037528293169em" fill="#aaa"/><rect width="0.9433962264150944em" height="12.657978862131102em" x="82.0754716981132em" y="17.342021137868898em" fill="#aaa"/><rect width="0.9433962264150944em" height="11.282947572905186em" x="83.01886792452831em" y="18.717052427094814em" fill="#aaa"/><rect width="0.9433962264150944em" height="10.3973509567752em" x="83.9622641509434em" y="19.6026490432248em" fill="#aaa"/><rect width="0.9433962264150944em" height="13.995107480744544em" x="84.90566037735849em" y="16.004892519255456em" fill="#aaa"/><rect width="0.9433962264150944em" height="30em" x="85.84905660377359em" y="0em" fill="#aaa"/><rect width="0.9433962264150944em" height="21.423709381776828em" x="86.79245283018868em" y="8.576290618223172em" fill="#aaa"/><rect width="0.9433962264150944em" height="15.5204985725895em" x="87.73584905660377em" y="14.4795014274105em" fill="#aaa"/><rect width="0.9433962264150944em" height="9.906497772425068em" x="88.67924528301887em" y="20.09350222757493em" fill="#aaa"/><rect width="0.9433962264150944em" height="8.406726901232354em" x="89.62264150943396em" y="21.593273098767646em" fill="#aaa"/><rect width="0.9433962264150944em" height="11.31925895854906em" x="90.56603773584905em" y="18.68074104145094em" fill="#aaa"/><rect width="0.9433962264150944em" height="6.929498750212456em" x="91.50943396226415em" y="23.070501249787544em" fill="#aaa"/><rect width="0.9433962264150944em" height="14.053471866440594em" x="92.45283018867924em" y="15.946528133559406em" fill="#aaa"/><rect width="0.9433962264150944em" height="7.503566408439903em" x="93.39622641509435em" y="22.4964335915601em" fill="#aaa"/><rect width="0.9433962264150944em" height="8.778491455748036em" x="94.33962264150944em" y="21.221508544251964em" fill="#aaa"/><rect width="0.9433962264150944em" height="10.510316445902099em" x="95.28301886792453em" y="19.4896835540979em" fill="#aaa"/><rect width="0.9433962264150944em" height="13.351239322192999em" x="96.22641509433963em" y="16.648760677807em" fill="#aaa"/><rect width="0.9433962264150944em" height="6.190132904868169em" x="97.16981132075472em" y="23.809867095131832em" fill="#aaa"/><rect width="0.9433962264150944em" height="8.33875388015949em" x="98.11320754716981em" y="21.66124611984051em" fill="#aaa"/><rect width="0.9433962264150944em" height="9.021071727613062em" x="99.05660377358491em" y="20.978928272386938em" fill="#aaa"/></svg>