<?xml version="1.0" standalone="no"?>
<svg xmlns:xlink="http://www.w3.org/1999/xlink" xmlns="http://www.w3.org/2000/svg" class="topic-graph" style="width: 100em; height: 30em; text-align: center;"><rect width="0.9433962264150944em" height="30em" x="0em" y="0em" fill="#aaa"/><rect width="0.9433962264150944em" height="25.720166347541944em" x="0.9433962264150944em" y="4.279833652458056em" fill="#aaa"/><rect width="0.9433962264150944em" height="19.263588859722418em" x="1.8867924528301887em" y="10.736411140277582em" fill="#aaa"/><rect width="0.9433962264150944em" height="19.341274005658487em" x="2.830188679245283em" y="10.658725994341513em" fill="#aaa"/><rect width="0.9433962264150944em" height="18.973476983015267em" x="3.7735849056603774em" y="11.026523016984733em" fill="#aaa"/><rect width="0.9433962264150944em" height="17.671640022384995em" x="4.716981132075472em" y="12.328359977615005em" fill="#aaa"/><rect width="0.9433962264150944em" height="20.411532045964737em" x="5.660377358490566em" y="9.588467954035263em" fill="#aaa"/><rect width="0.9433962264150944em" height="19.87430856719574em" x="6.60377358490566em" y="10.12569143280426em" fill="#aaa"/><rect width="0.9433962264150944em" height="13.520559218065804em" x="7.547169811320755em" y="16.479440781934194em" fill="#aaa"/><rect width="0.9433962264150944em" height="9.112084901799038em" x="8.49056603773585em" y="20.887915098200963em" fill="#aaa"/><rect width="0.9433962264150944em" height="5.5544029926378995em" x="9.433962264150944em" y="24.4455970073621em" fill="#aaa"/><rect width="0.9433962264150944em" height="3.1891494872826303em" x="10.377358490566039em" y="26.81085051271737em" fill="#aaa"/><rect width="0.9433962264150944em" height="1.7413152901107567em" x="11.320754716981131em" y="28.258684709889245em" fill="#aaa"/><rect width="0.9433962264150944em" height="0em" x="12.264150943396226em" y="30em" fill="#aaa"/><rect width="0.9433962264150944em" height="0.9751463617660309em" x="13.20754716981132em" y="29.02485363823397em" fill="#aaa"/><rect width="0.9433962264150944em" height="0.3753546366126851em" x="14.150943396226415em" y="29.624645363387316em" fill="#aaa"/><rect width="0.9433962264150944em" height="0.5465183508649704em" x="15.09433962264151em" y="29.45348164913503em" fill="#aaa"/><rect width="0.9433962264150944em" height="0.014875849105911875em" x="16.037735849056602em" y="29.985124150894087em" fill="#aaa"/><rect width="0.9433962264150944em" height="0.14253534857873038em" x="16.9811320754717em" y="29.85746465142127em" fill="#aaa"/><rect width="0.9433962264150944em" height="0.27635533265747597em" x="17.92452830188679em" y="29.723644667342523em" fill="#aaa"/><rect width="0.9433962264150944em" height="0.21084592776561795em" x="18.867924528301888em" y="29.789154072234382em" fill="#aaa"/><rect width="0.9433962264150944em" height="0.10758063883448057em" x="19.81132075471698em" y="29.89241936116552em" fill="#aaa"/><rect width="0.9433962264150944em" height="0.11215505353058505em" x="20.754716981132077em" y="29.887844946469414em" fill="#aaa"/><rect width="0.9433962264150944em" height="0.02183465800448389em" x="21.69811320754717em" y="29.978165341995517em" fill="#aaa"/><rect width="0.9433962264150944em" height="0.006599465690418201em" x="22.641509433962263em" y="29.993400534309583em" fill="#aaa"/><rect width="0.9433962264150944em" height="0.006525176829906344em" x="23.58490566037736em" y="29.993474823170093em" fill="#aaa"/><rect width="0.9433962264150944em" height="0em" x="24.528301886792452em" y="30em" fill="#aaa"/><rect width="0.9433962264150944em" height="0.14766874877252986em" x="25.471698113207548em" y="29.85233125122747em" fill="#aaa"/><rect width="0.9433962264150944em" height="0.05901125349433882em" x="26.41509433962264em" y="29.94098874650566em" fill="#aaa"/><rect width="0.9433962264150944em" height="0.08474284806704334em" x="27.358490566037737em" y="29.915257151932956em" fill="#aaa"/><rect width="0.9433962264150944em" height="0.053434260499864245em" x="28.30188679245283em" y="29.946565739500137em" fill="#aaa"/><rect width="0.9433962264150944em" height="0.018343698211725993em" x="29.245283018867926em" y="29.981656301788274em" fill="#aaa"/><rect width="0.9433962264150944em" height="0.04632943262064612em" x="30.18867924528302em" y="29.953670567379355em" fill="#aaa"/><rect width="0.9433962264150944em" height="0.0512022390732708em" x="31.132075471698112em" y="29.94879776092673em" fill="#aaa"/><rect width="0.9433962264150944em" height="0.03475679040163916em" x="32.075471698113205em" y="29.96524320959836em" fill="#aaa"/><rect width="0.9433962264150944em" height="0.029996770487699043em" x="33.0188679245283em" y="29.9700032295123em" fill="#aaa"/><rect width="0.9433962264150944em" height="0.056718675940720206em" x="33.9622641509434em" y="29.94328132405928em" fill="#aaa"/><rect width="0.9433962264150944em" height="0.06528907441640956em" x="34.905660377358494em" y="29.93471092558359em" fill="#aaa"/><rect width="0.9433962264150944em" height="0.027429500808876926em" x="35.84905660377358em" y="29.97257049919112em" fill="#aaa"/><rect width="0.9433962264150944em" height="0.06134028224842927em" x="36.79245283018868em" y="29.93865971775157em" fill="#aaa"/><rect width="0.9433962264150944em" height="0.04932291180906071em" x="37.735849056603776em" y="29.95067708819094em" fill="#aaa"/><rect width="0.9433962264150944em" height="0.01733149455963897em" x="38.679245283018865em" y="29.982668505440362em" fill="#aaa"/><rect width="0.9433962264150944em" height="0.016048287239056505em" x="39.62264150943396em" y="29.983951712760945em" fill="#aaa"/><rect width="0.9433962264150944em" height="0.009440559075665192em" x="40.56603773584906em" y="29.990559440924336em" fill="#aaa"/><rect width="0.9433962264150944em" height="0.009826857761385772em" x="41.509433962264154em" y="29.990173142238614em" fill="#aaa"/><rect width="0.9433962264150944em" height="0.01010509119295567em" x="42.45283018867924em" y="29.989894908807045em" fill="#aaa"/><rect width="0.9433962264150944em" height="0.019880472864434316em" x="43.39622641509434em" y="29.980119527135567em" fill="#aaa"/><rect width="0.9433962264150944em" height="0.015191769410732744em" x="44.339622641509436em" y="29.984808230589266em" fill="#aaa"/><rect width="0.9433962264150944em" height="0.01736096261486568em" x="45.283018867924525em" y="29.982639037385134em" fill="#aaa"/><rect width="0.9433962264150944em" height="0.021146406363726937em" x="46.22641509433962em" y="29.978853593636273em" fill="#aaa"/><rect width="0.9433962264150944em" height="0.030732221236866045em" x="47.16981132075472em" y="29.969267778763133em" fill="#aaa"/><rect width="0.9433962264150944em" height="0.023681846249588065em" x="48.113207547169814em" y="29.976318153750412em" fill="#aaa"/><rect width="0.9433962264150944em" height="0.012130543588088266em" x="49.056603773584904em" y="29.98786945641191em" fill="#aaa"/><rect width="0.9433962264150944em" height="0.02989849811599994em" x="50em" y="29.970101501884em" fill="#aaa"/><rect width="0.9433962264150944em" height="0.015632569735381605em" x="50.943396226415096em" y="29.98436743026462em" fill="#aaa"/><rect width="0.9433962264150944em" height="0.02375814936523431em" x="51.88679245283019em" y="29.976241850634764em" fill="#aaa"/><rect width="0.9433962264150944em" height="0.016691607317040162em" x="52.83018867924528em" y="29.98330839268296em" fill="#aaa"/><rect width="0.9433962264150944em" height="0.03651616384132438em" x="53.77358490566038em" y="29.963483836158677em" fill="#aaa"/><rect width="0.9433962264150944em" height="0.029750652119239204em" x="54.716981132075475em" y="29.97024934788076em" fill="#aaa"/><rect width="0.9433962264150944em" height="0.018416524745338586em" x="55.660377358490564em" y="29.981583475254663em" fill="#aaa"/><rect width="0.9433962264150944em" height="0.007481523997547005em" x="56.60377358490566em" y="29.992518476002452em" fill="#aaa"/><rect width="0.9433962264150944em" height="0.008138450048153103em" x="57.54716981132076em" y="29.991861549951846em" fill="#aaa"/><rect width="0.9433962264150944em" height="0.007004102092433189em" x="58.49056603773585em" y="29.992995897907566em" fill="#aaa"/><rect width="0.9433962264150944em" height="0.024979140804062612em" x="59.43396226415094em" y="29.975020859195936em" fill="#aaa"/><rect width="0.9433962264150944em" height="0.02841169928583461em" x="60.37735849056604em" y="29.971588300714167em" fill="#aaa"/><rect width="0.9433962264150944em" height="0.007554945162205303em" x="61.320754716981135em" y="29.992445054837795em" fill="#aaa"/><rect width="0.9433962264150944em" height="0.01000669636765481em" x="62.264150943396224em" y="29.989993303632346em" fill="#aaa"/><rect width="0.9433962264150944em" height="0.007547809272463608em" x="63.20754716981132em" y="29.992452190727537em" fill="#aaa"/><rect width="0.9433962264150944em" height="0.026509011165225714em" x="64.15094339622641em" y="29.973490988834776em" fill="#aaa"/><rect width="0.9433962264150944em" height="0.01150500516403129em" x="65.09433962264151em" y="29.988494994835968em" fill="#aaa"/><rect width="0.9433962264150944em" height="0.006400329977598467em" x="66.0377358490566em" y="29.9935996700224em" fill="#aaa"/><rect width="0.9433962264150944em" height="0.02157018163445154em" x="66.9811320754717em" y="29.978429818365548em" fill="#aaa"/><rect width="0.9433962264150944em" height="0.0050184035097504565em" x="67.9245283018868em" y="29.99498159649025em" fill="#aaa"/><rect width="0.9433962264150944em" height="0.005512636970767658em" x="68.86792452830188em" y="29.994487363029233em" fill="#aaa"/><rect width="0.9433962264150944em" height="0.0067355208628507em" x="69.81132075471699em" y="29.99326447913715em" fill="#aaa"/><rect width="0.9433962264150944em" height="0.010604948565679022em" x="70.75471698113208em" y="29.98939505143432em" fill="#aaa"/><rect width="0.9433962264150944em" height="0.01972473132877945em" x="71.69811320754717em" y="29.98027526867122em" fill="#aaa"/><rect width="0.9433962264150944em" height="0.010188912959417564em" x="72.64150943396227em" y="29.989811087040582em" fill="#aaa"/><rect width="0.9433962264150944em" height="0.043869162785796445em" x="73.58490566037736em" y="29.956130837214204em" fill="#aaa"/><rect width="0.9433962264150944em" height="0.040327548103529565em" x="74.52830188679245em" y="29.95967245189647em" fill="#aaa"/><rect width="0.9433962264150944em" height="0.00621647214012178em" x="75.47169811320755em" y="29.99378352785988em" fill="#aaa"/><rect width="0.9433962264150944em" height="0.020054752525039698em" x="76.41509433962264em" y="29.97994524747496em" fill="#aaa"/><rect width="0.9433962264150944em" height="0.00991339298195384em" x="77.35849056603773em" y="29.990086607018046em" fill="#aaa"/><rect width="0.9433962264150944em" height="0.02546135928422816em" x="78.30188679245283em" y="29.97453864071577em" fill="#aaa"/><rect width="0.9433962264150944em" height="0.01091638297892562em" x="79.24528301886792em" y="29.989083617021073em" fill="#aaa"/><rect width="0.9433962264150944em" height="0.022208487533492628em" x="80.18867924528303em" y="29.977791512466506em" fill="#aaa"/><rect width="0.9433962264150944em" height="0.009078363263837532em" x="81.13207547169812em" y="29.99092163673616em" fill="#aaa"/><rect width="0.9433962264150944em" height="0.01212138059483321em" x="82.0754716981132em" y="29.987878619405166em" fill="#aaa"/><rect width="0.9433962264150944em" height="0.0032599708526645107em" x="83.01886792452831em" y="29.996740029147336em" fill="#aaa"/><rect width="0.9433962264150944em" height="0.009072892251263238em" x="83.9622641509434em" y="29.990927107748735em" fill="#aaa"/><rect width="0.9433962264150944em" height="0.010123435337561689em" x="84.90566037735849em" y="29.98987656466244em" fill="#aaa"/><rect width="0.9433962264150944em" height="0.017386289226836504em" x="85.84905660377359em" y="29.982613710773162em" fill="#aaa"/><rect width="0.9433962264150944em" height="0.008807704273857379em" x="86.79245283018868em" y="29.991192295726144em" fill="#aaa"/><rect width="0.9433962264150944em" height="0.046020160440276285em" x="87.73584905660377em" y="29.953979839559725em" fill="#aaa"/><rect width="0.9433962264150944em" height="0.014324092490609116em" x="88.67924528301887em" y="29.985675907509393em" fill="#aaa"/><rect width="0.9433962264150944em" height="0.012162975652564975em" x="89.62264150943396em" y="29.987837024347435em" fill="#aaa"/><rect width="0.9433962264150944em" height="0.01452188015509358em" x="90.56603773584905em" y="29.985478119844906em" fill="#aaa"/><rect width="0.9433962264150944em" height="0.010154762673164876em" x="91.50943396226415em" y="29.989845237326836em" fill="#aaa"/><rect width="0.9433962264150944em" height="0.028884433941437037em" x="92.45283018867924em" y="29.971115566058565em" fill="#aaa"/><rect width="0.9433962264150944em" height="0.022287070213812675em" x="93.39622641509435em" y="29.977712929786186em" fill="#aaa"/><rect width="0.9433962264150944em" height="0.02855216812297248em" x="94.33962264150944em" y="29.97144783187703em" fill="#aaa"/><rect width="0.9433962264150944em" height="0.009763057270573368em" x="95.28301886792453em" y="29.990236942729428em" fill="#aaa"/><rect width="0.9433962264150944em" height="0.009859083572225626em" x="96.22641509433963em" y="29.990140916427773em" fill="#aaa"/><rect width="0.9433962264150944em" height="0.015844537111080234em" x="97.16981132075472em" y="29.98415546288892em" fill="#aaa"/><rect width="0.9433962264150944em" height="0.01171385492928999em" x="98.11320754716981em" y="29.98828614507071em" fill="#aaa"/><rect width="0.9433962264150944em" height="0.009956922019563965em" x="99.05660377358491em" y="29.990043077980435em" fill="#aaa"/></svg>