<?xml version="1.0" standalone="no"?>
<svg xmlns:xlink="http://www.w3.org/1999/xlink" xmlns="http://www.w3.org/2000/svg" class="topic-graph" style="width: 100em; height: 30em; text-align: center;"><rect width="0.9433962264150944em" height="0.2212239291394105em" x="0em" y="29.77877607086059em" fill="#aaa"/><rect width="0.9433962264150944em" height="0.06643695357788554em" x="0.9433962264150944em" y="29.933563046422115em" fill="#aaa"/><rect width="0.9433962264150944em" height="0.02338612945294575em" x="1.8867924528301887em" y="29.976613870547055em" fill="#aaa"/><rect width="0.9433962264150944em" height="0.07490352140769492em" x="2.830188679245283em" y="29.925096478592305em" fill="#aaa"/><rect width="0.9433962264150944em" height="0.858672004048512em" x="3.7735849056603774em" y="29.14132799595149em" fill="#aaa"/><rect width="0.9433962264150944em" height="0.12452106357501744em" x="4.716981132075472em" y="29.875478936424983em" fill="#aaa"/><rect width="0.9433962264150944em" height="0.06025736396487734em" x="5.660377358490566em" y="29.939742636035124em" fill="#aaa"/><rect width="0.9433962264150944em" height="0.5341782470651685em" x="6.60377358490566em" y="29.465821752934833em" fill="#aaa"/><rect width="0.9433962264150944em" height="0.04150333011213738em" x="7.547169811320755em" y="29.95849666988786em" fill="#aaa"/><rect width="0.9433962264150944em" height="0.0962396809010797em" x="8.49056603773585em" y="29.90376031909892em" fill="#aaa"/><rect width="0.9433962264150944em" height="0.47047265946137307em" x="9.433962264150944em" y="29.52952734053863em" fill="#aaa"/><rect width="0.9433962264150944em" height="0.08304544778007346em" x="10.377358490566039em" y="29.916954552219927em" fill="#aaa"/><rect width="0.9433962264150944em" height="0.2001301720832779em" x="11.320754716981131em" y="29.799869827916723em" fill="#aaa"/><rect width="0.9433962264150944em" height="0em" x="12.264150943396226em" y="30em" fill="#aaa"/><rect width="0.9433962264150944em" height="0.9316538974020531em" x="13.20754716981132em" y="29.068346102597946em" fill="#aaa"/><rect width="0.9433962264150944em" height="1.028422190203897em" x="14.150943396226415em" y="28.971577809796102em" fill="#aaa"/><rect width="0.9433962264150944em" height="3.515301403132895em" x="15.09433962264151em" y="26.484698596867105em" fill="#aaa"/><rect width="0.9433962264150944em" height="0.9539826572466034em" x="16.037735849056602em" y="29.046017342753398em" fill="#aaa"/><rect width="0.9433962264150944em" height="5.341060110757778em" x="16.9811320754717em" y="24.658939889242223em" fill="#aaa"/><rect width="0.9433962264150944em" height="0.09145376989510762em" x="17.92452830188679em" y="29.908546230104893em" fill="#aaa"/><rect width="0.9433962264150944em" height="4.632918683429796em" x="18.867924528301888em" y="25.367081316570204em" fill="#aaa"/><rect width="0.9433962264150944em" height="0.1827013534427258em" x="19.81132075471698em" y="29.817298646557273em" fill="#aaa"/><rect width="0.9433962264150944em" height="0.7186690980844207em" x="20.754716981132077em" y="29.28133090191558em" fill="#aaa"/><rect width="0.9433962264150944em" height="1.6037966364058378em" x="21.69811320754717em" y="28.39620336359416em" fill="#aaa"/><rect width="0.9433962264150944em" height="0.018634652427237806em" x="22.641509433962263em" y="29.981365347572762em" fill="#aaa"/><rect width="0.9433962264150944em" height="1.3356409596358114em" x="23.58490566037736em" y="28.66435904036419em" fill="#aaa"/><rect width="0.9433962264150944em" height="0em" x="24.528301886792452em" y="30em" fill="#aaa"/><rect width="0.9433962264150944em" height="1.5189922560797733em" x="25.471698113207548em" y="28.481007743920227em" fill="#aaa"/><rect width="0.9433962264150944em" height="7.696047628183474em" x="26.41509433962264em" y="22.303952371816525em" fill="#aaa"/><rect width="0.9433962264150944em" height="4.353606286597142em" x="27.358490566037737em" y="25.64639371340286em" fill="#aaa"/><rect width="0.9433962264150944em" height="0.3038322772775494em" x="28.30188679245283em" y="29.69616772272245em" fill="#aaa"/><rect width="0.9433962264150944em" height="0.6707924097442391em" x="29.245283018867926em" y="29.32920759025576em" fill="#aaa"/><rect width="0.9433962264150944em" height="0.7102401458074691em" x="30.18867924528302em" y="29.289759854192532em" fill="#aaa"/><rect width="0.9433962264150944em" height="0.520367900967824em" x="31.132075471698112em" y="29.479632099032177em" fill="#aaa"/><rect width="0.9433962264150944em" height="0.5895970705948901em" x="32.075471698113205em" y="29.41040292940511em" fill="#aaa"/><rect width="0.9433962264150944em" height="6.2900400325564965em" x="33.0188679245283em" y="23.709959967443503em" fill="#aaa"/><rect width="0.9433962264150944em" height="0.12571117854084385em" x="33.9622641509434em" y="29.874288821459157em" fill="#aaa"/><rect width="0.9433962264150944em" height="0.0506902991901708em" x="34.905660377358494em" y="29.949309700809827em" fill="#aaa"/><rect width="0.9433962264150944em" height="0.6567986330141397em" x="35.84905660377358em" y="29.34320136698586em" fill="#aaa"/><rect width="0.9433962264150944em" height="0.15166455306033746em" x="36.79245283018868em" y="29.84833544693966em" fill="#aaa"/><rect width="0.9433962264150944em" height="2.6883888055609084em" x="37.735849056603776em" y="27.31161119443909em" fill="#aaa"/><rect width="0.9433962264150944em" height="1.3138718658392952em" x="38.679245283018865em" y="28.686128134160704em" fill="#aaa"/><rect width="0.9433962264150944em" height="0.09955822260599134em" x="39.62264150943396em" y="29.900441777394008em" fill="#aaa"/><rect width="0.9433962264150944em" height="0.8732578695333689em" x="40.56603773584906em" y="29.12674213046663em" fill="#aaa"/><rect width="0.9433962264150944em" height="0.6921920240508066em" x="41.509433962264154em" y="29.307807975949192em" fill="#aaa"/><rect width="0.9433962264150944em" height="0.16803677379687365em" x="42.45283018867924em" y="29.831963226203126em" fill="#aaa"/><rect width="0.9433962264150944em" height="0.2799679795538889em" x="43.39622641509434em" y="29.720032020446112em" fill="#aaa"/><rect width="0.9433962264150944em" height="3.7817055097884973em" x="44.339622641509436em" y="26.218294490211502em" fill="#aaa"/><rect width="0.9433962264150944em" height="0.8556268899730033em" x="45.283018867924525em" y="29.144373110026997em" fill="#aaa"/><rect width="0.9433962264150944em" height="0.6103475386348604em" x="46.22641509433962em" y="29.389652461365138em" fill="#aaa"/><rect width="0.9433962264150944em" height="0.6735903289628657em" x="47.16981132075472em" y="29.326409671037133em" fill="#aaa"/><rect width="0.9433962264150944em" height="0.656459376629595em" x="48.113207547169814em" y="29.343540623370405em" fill="#aaa"/><rect width="0.9433962264150944em" height="0.768871106638514em" x="49.056603773584904em" y="29.231128893361486em" fill="#aaa"/><rect width="0.9433962264150944em" height="0.3471029384557895em" x="50em" y="29.65289706154421em" fill="#aaa"/><rect width="0.9433962264150944em" height="1.2808140081094066em" x="50.943396226415096em" y="28.719185991890594em" fill="#aaa"/><rect width="0.9433962264150944em" height="0.6070942262011233em" x="51.88679245283019em" y="29.392905773798876em" fill="#aaa"/><rect width="0.9433962264150944em" height="7.0799955292572765em" x="52.83018867924528em" y="22.920004470742725em" fill="#aaa"/><rect width="0.9433962264150944em" height="5.8520556660521725em" x="53.77358490566038em" y="24.147944333947827em" fill="#aaa"/><rect width="0.9433962264150944em" height="5.347715331440159em" x="54.716981132075475em" y="24.65228466855984em" fill="#aaa"/><rect width="0.9433962264150944em" height="2.27232646333469em" x="55.660377358490564em" y="27.72767353666531em" fill="#aaa"/><rect width="0.9433962264150944em" height="1.058723360212483em" x="56.60377358490566em" y="28.941276639787517em" fill="#aaa"/><rect width="0.9433962264150944em" height="3.3202699563247853em" x="57.54716981132076em" y="26.679730043675214em" fill="#aaa"/><rect width="0.9433962264150944em" height="1.485180787957601em" x="58.49056603773585em" y="28.5148192120424em" fill="#aaa"/><rect width="0.9433962264150944em" height="4.557171458166643em" x="59.43396226415094em" y="25.442828541833357em" fill="#aaa"/><rect width="0.9433962264150944em" height="0.768169691838308em" x="60.37735849056604em" y="29.23183030816169em" fill="#aaa"/><rect width="0.9433962264150944em" height="0.6145552723374161em" x="61.320754716981135em" y="29.385444727662584em" fill="#aaa"/><rect width="0.9433962264150944em" height="0.7135259297703422em" x="62.264150943396224em" y="29.28647407022966em" fill="#aaa"/><rect width="0.9433962264150944em" height="2.5693121875892904em" x="63.20754716981132em" y="27.43068781241071em" fill="#aaa"/><rect width="0.9433962264150944em" height="2.0759087475735907em" x="64.15094339622641em" y="27.924091252426408em" fill="#aaa"/><rect width="0.9433962264150944em" height="0.47743738802714714em" x="65.09433962264151em" y="29.52256261197285em" fill="#aaa"/><rect width="0.9433962264150944em" height="1.1979164590434987em" x="66.0377358490566em" y="28.802083540956502em" fill="#aaa"/><rect width="0.9433962264150944em" height="0.9983829349461341em" x="66.9811320754717em" y="29.001617065053868em" fill="#aaa"/><rect width="0.9433962264150944em" height="1.6963790526852207em" x="67.9245283018868em" y="28.30362094731478em" fill="#aaa"/><rect width="0.9433962264150944em" height="1.5978554929394515em" x="68.86792452830188em" y="28.402144507060548em" fill="#aaa"/><rect width="0.9433962264150944em" height="2.6952430117436146em" x="69.81132075471699em" y="27.304756988256386em" fill="#aaa"/><rect width="0.9433962264150944em" height="0.482980700574931em" x="70.75471698113208em" y="29.51701929942507em" fill="#aaa"/><rect width="0.9433962264150944em" height="1.3221888495686258em" x="71.69811320754717em" y="28.677811150431374em" fill="#aaa"/><rect width="0.9433962264150944em" height="1.1348656861926947em" x="72.64150943396227em" y="28.865134313807307em" fill="#aaa"/><rect width="0.9433962264150944em" height="1.201749640292264em" x="73.58490566037736em" y="28.798250359707737em" fill="#aaa"/><rect width="0.9433962264150944em" height="0.8186563982317376em" x="74.52830188679245em" y="29.181343601768262em" fill="#aaa"/><rect width="0.9433962264150944em" height="4.370559940081181em" x="75.47169811320755em" y="25.62944005991882em" fill="#aaa"/><rect width="0.9433962264150944em" height="0.9810689049144014em" x="76.41509433962264em" y="29.0189310950856em" fill="#aaa"/><rect width="0.9433962264150944em" height="4.470063569881889em" x="77.35849056603773em" y="25.529936430118113em" fill="#aaa"/><rect width="0.9433962264150944em" height="3.0147564902796162em" x="78.30188679245283em" y="26.985243509720384em" fill="#aaa"/><rect width="0.9433962264150944em" height="3.512099150998238em" x="79.24528301886792em" y="26.48790084900176em" fill="#aaa"/><rect width="0.9433962264150944em" height="5.083537295605966em" x="80.18867924528303em" y="24.916462704394036em" fill="#aaa"/><rect width="0.9433962264150944em" height="3.6134000406544224em" x="81.13207547169812em" y="26.386599959345578em" fill="#aaa"/><rect width="0.9433962264150944em" height="2.9856903995789286em" x="82.0754716981132em" y="27.014309600421072em" fill="#aaa"/><rect width="0.9433962264150944em" height="5.138098691816029em" x="83.01886792452831em" y="24.86190130818397em" fill="#aaa"/><rect width="0.9433962264150944em" height="5.630639551953478em" x="83.9622641509434em" y="24.36936044804652em" fill="#aaa"/><rect width="0.9433962264150944em" height="3.087393155334023em" x="84.90566037735849em" y="26.912606844665977em" fill="#aaa"/><rect width="0.9433962264150944em" height="8.824399101925124em" x="85.84905660377359em" y="21.175600898074876em" fill="#aaa"/><rect width="0.9433962264150944em" height="4.646146202757677em" x="86.79245283018868em" y="25.353853797242323em" fill="#aaa"/><rect width="0.9433962264150944em" height="3.7989500746662874em" x="87.73584905660377em" y="26.201049925333713em" fill="#aaa"/><rect width="0.9433962264150944em" height="8.494763235611623em" x="88.67924528301887em" y="21.50523676438838em" fill="#aaa"/><rect width="0.9433962264150944em" height="5.792001838806411em" x="89.62264150943396em" y="24.20799816119359em" fill="#aaa"/><rect width="0.9433962264150944em" height="5.598097275421227em" x="90.56603773584905em" y="24.401902724578772em" fill="#aaa"/><rect width="0.9433962264150944em" height="28.30023236324063em" x="91.50943396226415em" y="1.6997676367593684em" fill="#aaa"/><rect width="0.9433962264150944em" height="30em" x="92.45283018867924em" y="0em" fill="#aaa"/><rect width="0.9433962264150944em" height="15.747761794850788em" x="93.39622641509435em" y="14.252238205149212em" fill="#aaa"/><rect width="0.9433962264150944em" height="19.17749728190354em" x="94.33962264150944em" y="10.822502718096459em" fill="#aaa"/><rect width="0.9433962264150944em" height="15.236861934705283em" x="95.28301886792453em" y="14.763138065294717em" fill="#aaa"/><rect width="0.9433962264150944em" height="11.61135094086566em" x="96.22641509433963em" y="18.388649059134337em" fill="#aaa"/><rect width="0.9433962264150944em" height="5.554186785353636em" x="97.16981132075472em" y="24.445813214646364em" fill="#aaa"/><rect width="0.9433962264150944em" height="23.754671320291425em" x="98.11320754716981em" y="6.2453286797085745em" fill="#aaa"/><rect width="0.9433962264150944em" height="5.048740291203062em" x="99.05660377358491em" y="24.95125970879694em" fill="#aaa"/></svg>