<?xml version="1.0" standalone="no"?>
<svg xmlns:xlink="http://www.w3.org/1999/xlink" xmlns="http://www.w3.org/2000/svg" class="topic-graph" style="width: 100em; height: 30em; text-align: center;"><rect width="0.9433962264150944em" height="0.5288725730593512em" x="0em" y="29.471127426940647em" fill="#aaa"/><rect width="0.9433962264150944em" height="4.259562129562858em" x="0.9433962264150944em" y="25.74043787043714em" fill="#aaa"/><rect width="0.9433962264150944em" height="2.517915052862601em" x="1.8867924528301887em" y="27.4820849471374em" fill="#aaa"/><rect width="0.9433962264150944em" height="2.8810165939850476em" x="2.830188679245283em" y="27.11898340601495em" fill="#aaa"/><rect width="0.9433962264150944em" height="4.378921025938253em" x="3.7735849056603774em" y="25.621078974061746em" fill="#aaa"/><rect width="0.9433962264150944em" height="1.656232537281936em" x="4.716981132075472em" y="28.343767462718063em" fill="#aaa"/><rect width="0.9433962264150944em" height="1.0459432086332963em" x="5.660377358490566em" y="28.954056791366703em" fill="#aaa"/><rect width="0.9433962264150944em" height="1.380853482158358em" x="6.60377358490566em" y="28.619146517841642em" fill="#aaa"/><rect width="0.9433962264150944em" height="2.0369460145597507em" x="7.547169811320755em" y="27.96305398544025em" fill="#aaa"/><rect width="0.9433962264150944em" height="3.836742866603636em" x="8.49056603773585em" y="26.163257133396364em" fill="#aaa"/><rect width="0.9433962264150944em" height="0.7828512314571244em" x="9.433962264150944em" y="29.217148768542877em" fill="#aaa"/><rect width="0.9433962264150944em" height="2.6177718135760175em" x="10.377358490566039em" y="27.382228186423983em" fill="#aaa"/><rect width="0.9433962264150944em" height="4.066146765006804em" x="11.320754716981131em" y="25.933853234993194em" fill="#aaa"/><rect width="0.9433962264150944em" height="0em" x="12.264150943396226em" y="30em" fill="#aaa"/><rect width="0.9433962264150944em" height="1.0983573930969541em" x="13.20754716981132em" y="28.901642606903046em" fill="#aaa"/><rect width="0.9433962264150944em" height="2.5509008007026326em" x="14.150943396226415em" y="27.44909919929737em" fill="#aaa"/><rect width="0.9433962264150944em" height="1.8389412957566686em" x="15.09433962264151em" y="28.16105870424333em" fill="#aaa"/><rect width="0.9433962264150944em" height="1.0303410478142259em" x="16.037735849056602em" y="28.969658952185775em" fill="#aaa"/><rect width="0.9433962264150944em" height="4.711337939296417em" x="16.9811320754717em" y="25.288662060703583em" fill="#aaa"/><rect width="0.9433962264150944em" height="7.6003756338410415em" x="17.92452830188679em" y="22.39962436615896em" fill="#aaa"/><rect width="0.9433962264150944em" height="1.6674939007944027em" x="18.867924528301888em" y="28.3325060992056em" fill="#aaa"/><rect width="0.9433962264150944em" height="2.7269476426852295em" x="19.81132075471698em" y="27.27305235731477em" fill="#aaa"/><rect width="0.9433962264150944em" height="0.4687070503534344em" x="20.754716981132077em" y="29.531292949646566em" fill="#aaa"/><rect width="0.9433962264150944em" height="1.6824261938547214em" x="21.69811320754717em" y="28.31757380614528em" fill="#aaa"/><rect width="0.9433962264150944em" height="2.25182290296147em" x="22.641509433962263em" y="27.74817709703853em" fill="#aaa"/><rect width="0.9433962264150944em" height="5.825806204627294em" x="23.58490566037736em" y="24.174193795372705em" fill="#aaa"/><rect width="0.9433962264150944em" height="0em" x="24.528301886792452em" y="30em" fill="#aaa"/><rect width="0.9433962264150944em" height="3.1910759262211137em" x="25.471698113207548em" y="26.808924073778886em" fill="#aaa"/><rect width="0.9433962264150944em" height="2.5201748977996665em" x="26.41509433962264em" y="27.479825102200333em" fill="#aaa"/><rect width="0.9433962264150944em" height="3.23031481545453em" x="27.358490566037737em" y="26.76968518454547em" fill="#aaa"/><rect width="0.9433962264150944em" height="1.2797455221563596em" x="28.30188679245283em" y="28.72025447784364em" fill="#aaa"/><rect width="0.9433962264150944em" height="2.2092129046605042em" x="29.245283018867926em" y="27.790787095339496em" fill="#aaa"/><rect width="0.9433962264150944em" height="2.500842736199755em" x="30.18867924528302em" y="27.499157263800246em" fill="#aaa"/><rect width="0.9433962264150944em" height="2.9229675522458973em" x="31.132075471698112em" y="27.077032447754103em" fill="#aaa"/><rect width="0.9433962264150944em" height="1.9544773167619705em" x="32.075471698113205em" y="28.04552268323803em" fill="#aaa"/><rect width="0.9433962264150944em" height="1.4755393746565406em" x="33.0188679245283em" y="28.52446062534346em" fill="#aaa"/><rect width="0.9433962264150944em" height="0.7419383983334031em" x="33.9622641509434em" y="29.258061601666597em" fill="#aaa"/><rect width="0.9433962264150944em" height="1.967979695537998em" x="34.905660377358494em" y="28.032020304462em" fill="#aaa"/><rect width="0.9433962264150944em" height="1.6244377044001639em" x="35.84905660377358em" y="28.375562295599835em" fill="#aaa"/><rect width="0.9433962264150944em" height="1.6780278676634834em" x="36.79245283018868em" y="28.321972132336516em" fill="#aaa"/><rect width="0.9433962264150944em" height="1.693481265812625em" x="37.735849056603776em" y="28.306518734187375em" fill="#aaa"/><rect width="0.9433962264150944em" height="1.7339828341646892em" x="38.679245283018865em" y="28.26601716583531em" fill="#aaa"/><rect width="0.9433962264150944em" height="2.93168447808632em" x="39.62264150943396em" y="27.06831552191368em" fill="#aaa"/><rect width="0.9433962264150944em" height="2.910545961155102em" x="40.56603773584906em" y="27.0894540388449em" fill="#aaa"/><rect width="0.9433962264150944em" height="2.584996671154561em" x="41.509433962264154em" y="27.41500332884544em" fill="#aaa"/><rect width="0.9433962264150944em" height="2.8050887685315113em" x="42.45283018867924em" y="27.194911231468488em" fill="#aaa"/><rect width="0.9433962264150944em" height="1.7268989484056285em" x="43.39622641509434em" y="28.27310105159437em" fill="#aaa"/><rect width="0.9433962264150944em" height="6.194607205079034em" x="44.339622641509436em" y="23.805392794920966em" fill="#aaa"/><rect width="0.9433962264150944em" height="4.3462330679323955em" x="45.283018867924525em" y="25.653766932067605em" fill="#aaa"/><rect width="0.9433962264150944em" height="2.3015318538847165em" x="46.22641509433962em" y="27.69846814611528em" fill="#aaa"/><rect width="0.9433962264150944em" height="2.603641495887731em" x="47.16981132075472em" y="27.396358504112268em" fill="#aaa"/><rect width="0.9433962264150944em" height="4.680043043615257em" x="48.113207547169814em" y="25.319956956384743em" fill="#aaa"/><rect width="0.9433962264150944em" height="14.177859613053643em" x="49.056603773584904em" y="15.822140386946357em" fill="#aaa"/><rect width="0.9433962264150944em" height="11.338391255026185em" x="50em" y="18.661608744973815em" fill="#aaa"/><rect width="0.9433962264150944em" height="14.929628407050746em" x="50.943396226415096em" y="15.070371592949254em" fill="#aaa"/><rect width="0.9433962264150944em" height="7.116378753960255em" x="51.88679245283019em" y="22.883621246039745em" fill="#aaa"/><rect width="0.9433962264150944em" height="11.360494713711446em" x="52.83018867924528em" y="18.639505286288554em" fill="#aaa"/><rect width="0.9433962264150944em" height="7.44707149329987em" x="53.77358490566038em" y="22.55292850670013em" fill="#aaa"/><rect width="0.9433962264150944em" height="13.822888776969139em" x="54.716981132075475em" y="16.177111223030863em" fill="#aaa"/><rect width="0.9433962264150944em" height="8.043153554447816em" x="55.660377358490564em" y="21.956846445552184em" fill="#aaa"/><rect width="0.9433962264150944em" height="4.447302956022185em" x="56.60377358490566em" y="25.552697043977815em" fill="#aaa"/><rect width="0.9433962264150944em" height="5.656565268467983em" x="57.54716981132076em" y="24.343434731532017em" fill="#aaa"/><rect width="0.9433962264150944em" height="17.221113865735443em" x="58.49056603773585em" y="12.778886134264557em" fill="#aaa"/><rect width="0.9433962264150944em" height="7.315288407137907em" x="59.43396226415094em" y="22.684711592862094em" fill="#aaa"/><rect width="0.9433962264150944em" height="4.6847330837458605em" x="60.37735849056604em" y="25.31526691625414em" fill="#aaa"/><rect width="0.9433962264150944em" height="15.088008741494573em" x="61.320754716981135em" y="14.911991258505427em" fill="#aaa"/><rect width="0.9433962264150944em" height="13.394649123764346em" x="62.264150943396224em" y="16.605350876235654em" fill="#aaa"/><rect width="0.9433962264150944em" height="8.356162913185084em" x="63.20754716981132em" y="21.643837086814916em" fill="#aaa"/><rect width="0.9433962264150944em" height="9.199485496361145em" x="64.15094339622641em" y="20.800514503638855em" fill="#aaa"/><rect width="0.9433962264150944em" height="10.628769973954649em" x="65.09433962264151em" y="19.371230026045353em" fill="#aaa"/><rect width="0.9433962264150944em" height="15.143057755210828em" x="66.0377358490566em" y="14.856942244789172em" fill="#aaa"/><rect width="0.9433962264150944em" height="10.2070297842406em" x="66.9811320754717em" y="19.7929702157594em" fill="#aaa"/><rect width="0.9433962264150944em" height="11.056032328506038em" x="67.9245283018868em" y="18.94396767149396em" fill="#aaa"/><rect width="0.9433962264150944em" height="9.994001567948336em" x="68.86792452830188em" y="20.005998432051662em" fill="#aaa"/><rect width="0.9433962264150944em" height="10.16662363696813em" x="69.81132075471699em" y="19.83337636303187em" fill="#aaa"/><rect width="0.9433962264150944em" height="8.273188334722224em" x="70.75471698113208em" y="21.726811665277776em" fill="#aaa"/><rect width="0.9433962264150944em" height="8.012336337102106em" x="71.69811320754717em" y="21.987663662897894em" fill="#aaa"/><rect width="0.9433962264150944em" height="8.345462035063383em" x="72.64150943396227em" y="21.654537964936615em" fill="#aaa"/><rect width="0.9433962264150944em" height="6.761722302841662em" x="73.58490566037736em" y="23.23827769715834em" fill="#aaa"/><rect width="0.9433962264150944em" height="6.936622668738146em" x="74.52830188679245em" y="23.063377331261854em" fill="#aaa"/><rect width="0.9433962264150944em" height="9.591429606952032em" x="75.47169811320755em" y="20.408570393047967em" fill="#aaa"/><rect width="0.9433962264150944em" height="13.030008448130332em" x="76.41509433962264em" y="16.96999155186967em" fill="#aaa"/><rect width="0.9433962264150944em" height="9.03463524215862em" x="77.35849056603773em" y="20.965364757841378em" fill="#aaa"/><rect width="0.9433962264150944em" height="16.598466114631634em" x="78.30188679245283em" y="13.401533885368366em" fill="#aaa"/><rect width="0.9433962264150944em" height="18.34147538087927em" x="79.24528301886792em" y="11.65852461912073em" fill="#aaa"/><rect width="0.9433962264150944em" height="19.12630230025918em" x="80.18867924528303em" y="10.87369769974082em" fill="#aaa"/><rect width="0.9433962264150944em" height="13.646084904248754em" x="81.13207547169812em" y="16.353915095751248em" fill="#aaa"/><rect width="0.9433962264150944em" height="20.12144803571896em" x="82.0754716981132em" y="9.87855196428104em" fill="#aaa"/><rect width="0.9433962264150944em" height="30em" x="83.01886792452831em" y="0em" fill="#aaa"/><rect width="0.9433962264150944em" height="16.508032584212973em" x="83.9622641509434em" y="13.491967415787027em" fill="#aaa"/><rect width="0.9433962264150944em" height="23.577751100196103em" x="84.90566037735849em" y="6.422248899803897em" fill="#aaa"/><rect width="0.9433962264150944em" height="17.945739974075224em" x="85.84905660377359em" y="12.054260025924776em" fill="#aaa"/><rect width="0.9433962264150944em" height="20.984492922144305em" x="86.79245283018868em" y="9.015507077855695em" fill="#aaa"/><rect width="0.9433962264150944em" height="15.51496367406495em" x="87.73584905660377em" y="14.48503632593505em" fill="#aaa"/><rect width="0.9433962264150944em" height="16.100659592384503em" x="88.67924528301887em" y="13.899340407615497em" fill="#aaa"/><rect width="0.9433962264150944em" height="10.201089611202862em" x="89.62264150943396em" y="19.79891038879714em" fill="#aaa"/><rect width="0.9433962264150944em" height="12.816584394664192em" x="90.56603773584905em" y="17.18341560533581em" fill="#aaa"/><rect width="0.9433962264150944em" height="13.18669999179825em" x="91.50943396226415em" y="16.81330000820175em" fill="#aaa"/><rect width="0.9433962264150944em" height="11.486468798398755em" x="92.45283018867924em" y="18.513531201601246em" fill="#aaa"/><rect width="0.9433962264150944em" height="10.945478936171476em" x="93.39622641509435em" y="19.054521063828524em" fill="#aaa"/><rect width="0.9433962264150944em" height="11.998757233328964em" x="94.33962264150944em" y="18.001242766671034em" fill="#aaa"/><rect width="0.9433962264150944em" height="13.097560075677167em" x="95.28301886792453em" y="16.902439924322834em" fill="#aaa"/><rect width="0.9433962264150944em" height="19.121991646471503em" x="96.22641509433963em" y="10.878008353528497em" fill="#aaa"/><rect width="0.9433962264150944em" height="12.223937799092294em" x="97.16981132075472em" y="17.776062200907706em" fill="#aaa"/><rect width="0.9433962264150944em" height="14.840890730371951em" x="98.11320754716981em" y="15.159109269628049em" fill="#aaa"/><rect width="0.9433962264150944em" height="20.046008799549895em" x="99.05660377358491em" y="9.953991200450105em" fill="#aaa"/></svg>