<?xml version="1.0" standalone="no"?>
<svg xmlns:xlink="http://www.w3.org/1999/xlink" xmlns="http://www.w3.org/2000/svg" class="topic-graph" style="width: 100em; height: 30em; text-align: center;"><rect width="0.9433962264150944em" height="30em" x="0em" y="0em" fill="#aaa"/><rect width="0.9433962264150944em" height="17.087895360904987em" x="0.9433962264150944em" y="12.912104639095013em" fill="#aaa"/><rect width="0.9433962264150944em" height="0.12602205002357575em" x="1.8867924528301887em" y="29.873977949976425em" fill="#aaa"/><rect width="0.9433962264150944em" height="0.35718062880272283em" x="2.830188679245283em" y="29.642819371197277em" fill="#aaa"/><rect width="0.9433962264150944em" height="5.048187816214122em" x="3.7735849056603774em" y="24.95181218378588em" fill="#aaa"/><rect width="0.9433962264150944em" height="1.995265721196423em" x="4.716981132075472em" y="28.00473427880358em" fill="#aaa"/><rect width="0.9433962264150944em" height="0.879352637754959em" x="5.660377358490566em" y="29.12064736224504em" fill="#aaa"/><rect width="0.9433962264150944em" height="0.03347394634163314em" x="6.60377358490566em" y="29.966526053658367em" fill="#aaa"/><rect width="0.9433962264150944em" height="0.5617496126630344em" x="7.547169811320755em" y="29.438250387336964em" fill="#aaa"/><rect width="0.9433962264150944em" height="0.21324310129150456em" x="8.49056603773585em" y="29.786756898708497em" fill="#aaa"/><rect width="0.9433962264150944em" height="0.23344196600427775em" x="9.433962264150944em" y="29.76655803399572em" fill="#aaa"/><rect width="0.9433962264150944em" height="2.035337205645311em" x="10.377358490566039em" y="27.964662794354687em" fill="#aaa"/><rect width="0.9433962264150944em" height="0.8782201737578748em" x="11.320754716981131em" y="29.121779826242125em" fill="#aaa"/><rect width="0.9433962264150944em" height="0em" x="12.264150943396226em" y="30em" fill="#aaa"/><rect width="0.9433962264150944em" height="1.8752837085905738em" x="13.20754716981132em" y="28.124716291409428em" fill="#aaa"/><rect width="0.9433962264150944em" height="2.684083494998232em" x="14.150943396226415em" y="27.315916505001766em" fill="#aaa"/><rect width="0.9433962264150944em" height="11.388998637684452em" x="15.09433962264151em" y="18.611001362315548em" fill="#aaa"/><rect width="0.9433962264150944em" height="1.8997686396858404em" x="16.037735849056602em" y="28.100231360314158em" fill="#aaa"/><rect width="0.9433962264150944em" height="0.13071987548802524em" x="16.9811320754717em" y="29.869280124511974em" fill="#aaa"/><rect width="0.9433962264150944em" height="1.0458827998553961em" x="17.92452830188679em" y="28.954117200144605em" fill="#aaa"/><rect width="0.9433962264150944em" height="0.7565299143487062em" x="18.867924528301888em" y="29.243470085651293em" fill="#aaa"/><rect width="0.9433962264150944em" height="1.800237333197717em" x="19.81132075471698em" y="28.199762666802282em" fill="#aaa"/><rect width="0.9433962264150944em" height="5.364736161298073em" x="20.754716981132077em" y="24.635263838701928em" fill="#aaa"/><rect width="0.9433962264150944em" height="1.1219432233978677em" x="21.69811320754717em" y="28.878056776602133em" fill="#aaa"/><rect width="0.9433962264150944em" height="0.5581938744077893em" x="22.641509433962263em" y="29.441806125592212em" fill="#aaa"/><rect width="0.9433962264150944em" height="0.9034386825085077em" x="23.58490566037736em" y="29.096561317491492em" fill="#aaa"/><rect width="0.9433962264150944em" height="0em" x="24.528301886792452em" y="30em" fill="#aaa"/><rect width="0.9433962264150944em" height="3.917268172045181em" x="25.471698113207548em" y="26.08273182795482em" fill="#aaa"/><rect width="0.9433962264150944em" height="1.6271636176907835em" x="26.41509433962264em" y="28.372836382309217em" fill="#aaa"/><rect width="0.9433962264150944em" height="0.6296338300081353em" x="27.358490566037737em" y="29.370366169991865em" fill="#aaa"/><rect width="0.9433962264150944em" height="2.3874812682664284em" x="28.30188679245283em" y="27.612518731733573em" fill="#aaa"/><rect width="0.9433962264150944em" height="0.21076740062706895em" x="29.245283018867926em" y="29.78923259937293em" fill="#aaa"/><rect width="0.9433962264150944em" height="1.646680436599681em" x="30.18867924528302em" y="28.35331956340032em" fill="#aaa"/><rect width="0.9433962264150944em" height="0.927832480428596em" x="31.132075471698112em" y="29.072167519571405em" fill="#aaa"/><rect width="0.9433962264150944em" height="1.9986870750551258em" x="32.075471698113205em" y="28.001312924944873em" fill="#aaa"/><rect width="0.9433962264150944em" height="0.4100019149608538em" x="33.0188679245283em" y="29.589998085039145em" fill="#aaa"/><rect width="0.9433962264150944em" height="1.8190686453908715em" x="33.9622641509434em" y="28.18093135460913em" fill="#aaa"/><rect width="0.9433962264150944em" height="1.9516790436971345em" x="34.905660377358494em" y="28.048320956302867em" fill="#aaa"/><rect width="0.9433962264150944em" height="4.697782676229762em" x="35.84905660377358em" y="25.302217323770236em" fill="#aaa"/><rect width="0.9433962264150944em" height="1.0922612883737002em" x="36.79245283018868em" y="28.9077387116263em" fill="#aaa"/><rect width="0.9433962264150944em" height="24.372329768487877em" x="37.735849056603776em" y="5.627670231512123em" fill="#aaa"/><rect width="0.9433962264150944em" height="2.59354968058431em" x="38.679245283018865em" y="27.40645031941569em" fill="#aaa"/><rect width="0.9433962264150944em" height="1.0141936733790775em" x="39.62264150943396em" y="28.985806326620924em" fill="#aaa"/><rect width="0.9433962264150944em" height="2.98532343487966em" x="40.56603773584906em" y="27.01467656512034em" fill="#aaa"/><rect width="0.9433962264150944em" height="5.991735727801211em" x="41.509433962264154em" y="24.00826427219879em" fill="#aaa"/><rect width="0.9433962264150944em" height="1.988106622126338em" x="42.45283018867924em" y="28.011893377873662em" fill="#aaa"/><rect width="0.9433962264150944em" height="2.017100454511589em" x="43.39622641509434em" y="27.98289954548841em" fill="#aaa"/><rect width="0.9433962264150944em" height="4.700725648231216em" x="44.339622641509436em" y="25.299274351768783em" fill="#aaa"/><rect width="0.9433962264150944em" height="1.6396636760642114em" x="45.283018867924525em" y="28.36033632393579em" fill="#aaa"/><rect width="0.9433962264150944em" height="2.5743595990774195em" x="46.22641509433962em" y="27.425640400922582em" fill="#aaa"/><rect width="0.9433962264150944em" height="1.368560794292646em" x="47.16981132075472em" y="28.631439205707355em" fill="#aaa"/><rect width="0.9433962264150944em" height="1.4357634754657584em" x="48.113207547169814em" y="28.56423652453424em" fill="#aaa"/><rect width="0.9433962264150944em" height="1.2678620529341824em" x="49.056603773584904em" y="28.732137947065816em" fill="#aaa"/><rect width="0.9433962264150944em" height="1.690088665896357em" x="50em" y="28.309911334103642em" fill="#aaa"/><rect width="0.9433962264150944em" height="2.8358553873353913em" x="50.943396226415096em" y="27.164144612664607em" fill="#aaa"/><rect width="0.9433962264150944em" height="2.60156967822252em" x="51.88679245283019em" y="27.39843032177748em" fill="#aaa"/><rect width="0.9433962264150944em" height="3.4943023039581265em" x="52.83018867924528em" y="26.505697696041874em" fill="#aaa"/><rect width="0.9433962264150944em" height="1.2997065212465073em" x="53.77358490566038em" y="28.700293478753494em" fill="#aaa"/><rect width="0.9433962264150944em" height="1.7111625829699837em" x="54.716981132075475em" y="28.288837417030017em" fill="#aaa"/><rect width="0.9433962264150944em" height="3.506137398002083em" x="55.660377358490564em" y="26.493862601997918em" fill="#aaa"/><rect width="0.9433962264150944em" height="4.4264991030536835em" x="56.60377358490566em" y="25.573500896946317em" fill="#aaa"/><rect width="0.9433962264150944em" height="1.6659625508911668em" x="57.54716981132076em" y="28.334037449108834em" fill="#aaa"/><rect width="0.9433962264150944em" height="3.53148704171274em" x="58.49056603773585em" y="26.46851295828726em" fill="#aaa"/><rect width="0.9433962264150944em" height="1.0082606178071223em" x="59.43396226415094em" y="28.99173938219288em" fill="#aaa"/><rect width="0.9433962264150944em" height="3.6195211051731233em" x="60.37735849056604em" y="26.380478894826876em" fill="#aaa"/><rect width="0.9433962264150944em" height="0.9231307733136589em" x="61.320754716981135em" y="29.07686922668634em" fill="#aaa"/><rect width="0.9433962264150944em" height="1.0453978754334639em" x="62.264150943396224em" y="28.954602124566534em" fill="#aaa"/><rect width="0.9433962264150944em" height="6.867223635290102em" x="63.20754716981132em" y="23.132776364709898em" fill="#aaa"/><rect width="0.9433962264150944em" height="2.3898839629756665em" x="64.15094339622641em" y="27.610116037024333em" fill="#aaa"/><rect width="0.9433962264150944em" height="1.4170303068443961em" x="65.09433962264151em" y="28.582969693155604em" fill="#aaa"/><rect width="0.9433962264150944em" height="1.6092960209799512em" x="66.0377358490566em" y="28.39070397902005em" fill="#aaa"/><rect width="0.9433962264150944em" height="6.546242775104517em" x="66.9811320754717em" y="23.453757224895483em" fill="#aaa"/><rect width="0.9433962264150944em" height="13.527825856977406em" x="67.9245283018868em" y="16.472174143022592em" fill="#aaa"/><rect width="0.9433962264150944em" height="1.0765939513208018em" x="68.86792452830188em" y="28.923406048679198em" fill="#aaa"/><rect width="0.9433962264150944em" height="0.7490560352476434em" x="69.81132075471699em" y="29.250943964752356em" fill="#aaa"/><rect width="0.9433962264150944em" height="2.4880172886912266em" x="70.75471698113208em" y="27.511982711308775em" fill="#aaa"/><rect width="0.9433962264150944em" height="2.310407998447141em" x="71.69811320754717em" y="27.68959200155286em" fill="#aaa"/><rect width="0.9433962264150944em" height="10.445100198622384em" x="72.64150943396227em" y="19.554899801377616em" fill="#aaa"/><rect width="0.9433962264150944em" height="17.039686996864685em" x="73.58490566037736em" y="12.960313003135315em" fill="#aaa"/><rect width="0.9433962264150944em" height="23.300475530071964em" x="74.52830188679245em" y="6.699524469928036em" fill="#aaa"/><rect width="0.9433962264150944em" height="3.270163290628369em" x="75.47169811320755em" y="26.729836709371632em" fill="#aaa"/><rect width="0.9433962264150944em" height="3.8196527535177154em" x="76.41509433962264em" y="26.180347246482285em" fill="#aaa"/><rect width="0.9433962264150944em" height="1.4725496620947505em" x="77.35849056603773em" y="28.52745033790525em" fill="#aaa"/><rect width="0.9433962264150944em" height="13.294541881150083em" x="78.30188679245283em" y="16.70545811884992em" fill="#aaa"/><rect width="0.9433962264150944em" height="2.2850077427881734em" x="79.24528301886792em" y="27.714992257211826em" fill="#aaa"/><rect width="0.9433962264150944em" height="1.218534966184454em" x="80.18867924528303em" y="28.781465033815547em" fill="#aaa"/><rect width="0.9433962264150944em" height="4.818274104721634em" x="81.13207547169812em" y="25.181725895278365em" fill="#aaa"/><rect width="0.9433962264150944em" height="2.8713726004340074em" x="82.0754716981132em" y="27.128627399565993em" fill="#aaa"/><rect width="0.9433962264150944em" height="1.0791262764120977em" x="83.01886792452831em" y="28.920873723587903em" fill="#aaa"/><rect width="0.9433962264150944em" height="1.2368471336508302em" x="83.9622641509434em" y="28.76315286634917em" fill="#aaa"/><rect width="0.9433962264150944em" height="3.4976932461903454em" x="84.90566037735849em" y="26.502306753809656em" fill="#aaa"/><rect width="0.9433962264150944em" height="5.382558953350081em" x="85.84905660377359em" y="24.61744104664992em" fill="#aaa"/><rect width="0.9433962264150944em" height="4.380180283744452em" x="86.79245283018868em" y="25.61981971625555em" fill="#aaa"/><rect width="0.9433962264150944em" height="2.17988324291584em" x="87.73584905660377em" y="27.82011675708416em" fill="#aaa"/><rect width="0.9433962264150944em" height="2.301474976842849em" x="88.67924528301887em" y="27.698525023157153em" fill="#aaa"/><rect width="0.9433962264150944em" height="2.5555855918612136em" x="89.62264150943396em" y="27.444414408138787em" fill="#aaa"/><rect width="0.9433962264150944em" height="1.8509748728742403em" x="90.56603773584905em" y="28.14902512712576em" fill="#aaa"/><rect width="0.9433962264150944em" height="2.322378867252113em" x="91.50943396226415em" y="27.677621132747888em" fill="#aaa"/><rect width="0.9433962264150944em" height="2.286653933788251em" x="92.45283018867924em" y="27.71334606621175em" fill="#aaa"/><rect width="0.9433962264150944em" height="1.9584542977132562em" x="93.39622641509435em" y="28.041545702286744em" fill="#aaa"/><rect width="0.9433962264150944em" height="0.8611081679587247em" x="94.33962264150944em" y="29.138891832041274em" fill="#aaa"/><rect width="0.9433962264150944em" height="2.197202199132488em" x="95.28301886792453em" y="27.802797800867513em" fill="#aaa"/><rect width="0.9433962264150944em" height="4.024552019984383em" x="96.22641509433963em" y="25.975447980015616em" fill="#aaa"/><rect width="0.9433962264150944em" height="1.5111274052837849em" x="97.16981132075472em" y="28.488872594716216em" fill="#aaa"/><rect width="0.9433962264150944em" height="0.6607310436147411em" x="98.11320754716981em" y="29.339268956385258em" fill="#aaa"/><rect width="0.9433962264150944em" height="2.5136280530137687em" x="99.05660377358491em" y="27.48637194698623em" fill="#aaa"/></svg>