<?xml version="1.0" standalone="no"?>
<svg xmlns:xlink="http://www.w3.org/1999/xlink" xmlns="http://www.w3.org/2000/svg" class="topic-graph" style="width: 100em; height: 30em; text-align: center;"><rect width="0.9433962264150944em" height="5.855431172434246em" x="0em" y="24.144568827565756em" fill="#aaa"/><rect width="0.9433962264150944em" height="4.896332059769524em" x="0.9433962264150944em" y="25.103667940230476em" fill="#aaa"/><rect width="0.9433962264150944em" height="16.858930898603973em" x="1.8867924528301887em" y="13.141069101396027em" fill="#aaa"/><rect width="0.9433962264150944em" height="12.203906837233674em" x="2.830188679245283em" y="17.796093162766326em" fill="#aaa"/><rect width="0.9433962264150944em" height="5.894719057642899em" x="3.7735849056603774em" y="24.1052809423571em" fill="#aaa"/><rect width="0.9433962264150944em" height="8.963769336583445em" x="4.716981132075472em" y="21.036230663416553em" fill="#aaa"/><rect width="0.9433962264150944em" height="11.027470365157638em" x="5.660377358490566em" y="18.97252963484236em" fill="#aaa"/><rect width="0.9433962264150944em" height="12.22746222875389em" x="6.60377358490566em" y="17.77253777124611em" fill="#aaa"/><rect width="0.9433962264150944em" height="13.117030506714839em" x="7.547169811320755em" y="16.88296949328516em" fill="#aaa"/><rect width="0.9433962264150944em" height="20.9229595956425em" x="8.49056603773585em" y="9.0770404043575em" fill="#aaa"/><rect width="0.9433962264150944em" height="7.1845496686026em" x="9.433962264150944em" y="22.8154503313974em" fill="#aaa"/><rect width="0.9433962264150944em" height="16.95809247183882em" x="10.377358490566039em" y="13.041907528161179em" fill="#aaa"/><rect width="0.9433962264150944em" height="30em" x="11.320754716981131em" y="0em" fill="#aaa"/><rect width="0.9433962264150944em" height="0em" x="12.264150943396226em" y="30em" fill="#aaa"/><rect width="0.9433962264150944em" height="16.896425917982082em" x="13.20754716981132em" y="13.103574082017918em" fill="#aaa"/><rect width="0.9433962264150944em" height="14.741764022543551em" x="14.150943396226415em" y="15.258235977456449em" fill="#aaa"/><rect width="0.9433962264150944em" height="14.484908345863545em" x="15.09433962264151em" y="15.515091654136455em" fill="#aaa"/><rect width="0.9433962264150944em" height="17.390050490096737em" x="16.037735849056602em" y="12.609949509903263em" fill="#aaa"/><rect width="0.9433962264150944em" height="10.256916333097658em" x="16.9811320754717em" y="19.743083666902344em" fill="#aaa"/><rect width="0.9433962264150944em" height="6.364433500658675em" x="17.92452830188679em" y="23.635566499341323em" fill="#aaa"/><rect width="0.9433962264150944em" height="6.921070184767127em" x="18.867924528301888em" y="23.078929815232872em" fill="#aaa"/><rect width="0.9433962264150944em" height="7.349205893275989em" x="19.81132075471698em" y="22.65079410672401em" fill="#aaa"/><rect width="0.9433962264150944em" height="10.977734972893144em" x="20.754716981132077em" y="19.022265027106855em" fill="#aaa"/><rect width="0.9433962264150944em" height="12.986605765181165em" x="21.69811320754717em" y="17.013394234818833em" fill="#aaa"/><rect width="0.9433962264150944em" height="20.0722119489608em" x="22.641509433962263em" y="9.927788051039201em" fill="#aaa"/><rect width="0.9433962264150944em" height="10.935003583430525em" x="23.58490566037736em" y="19.064996416569475em" fill="#aaa"/><rect width="0.9433962264150944em" height="0em" x="24.528301886792452em" y="30em" fill="#aaa"/><rect width="0.9433962264150944em" height="13.751127181759541em" x="25.471698113207548em" y="16.248872818240457em" fill="#aaa"/><rect width="0.9433962264150944em" height="25.36065055404319em" x="26.41509433962264em" y="4.63934944595681em" fill="#aaa"/><rect width="0.9433962264150944em" height="28.926420681281336em" x="27.358490566037737em" y="1.0735793187186644em" fill="#aaa"/><rect width="0.9433962264150944em" height="5.628889654069344em" x="28.30188679245283em" y="24.371110345930656em" fill="#aaa"/><rect width="0.9433962264150944em" height="14.925782336580896em" x="29.245283018867926em" y="15.074217663419104em" fill="#aaa"/><rect width="0.9433962264150944em" height="7.019667937668696em" x="30.18867924528302em" y="22.980332062331303em" fill="#aaa"/><rect width="0.9433962264150944em" height="3.766195779450835em" x="31.132075471698112em" y="26.233804220549164em" fill="#aaa"/><rect width="0.9433962264150944em" height="4.57612932369162em" x="32.075471698113205em" y="25.42387067630838em" fill="#aaa"/><rect width="0.9433962264150944em" height="10.40189972668862em" x="33.0188679245283em" y="19.59810027331138em" fill="#aaa"/><rect width="0.9433962264150944em" height="7.9734257912681965em" x="33.9622641509434em" y="22.0265742087318em" fill="#aaa"/><rect width="0.9433962264150944em" height="2.8752567686817376em" x="34.905660377358494em" y="27.124743231318263em" fill="#aaa"/><rect width="0.9433962264150944em" height="6.723727425899217em" x="35.84905660377358em" y="23.276272574100783em" fill="#aaa"/><rect width="0.9433962264150944em" height="5.466994078950714em" x="36.79245283018868em" y="24.533005921049288em" fill="#aaa"/><rect width="0.9433962264150944em" height="7.761582134711008em" x="37.735849056603776em" y="22.23841786528899em" fill="#aaa"/><rect width="0.9433962264150944em" height="7.90098224481732em" x="38.679245283018865em" y="22.09901775518268em" fill="#aaa"/><rect width="0.9433962264150944em" height="6.256143551765688em" x="39.62264150943396em" y="23.74385644823431em" fill="#aaa"/><rect width="0.9433962264150944em" height="5.5895986064841em" x="40.56603773584906em" y="24.4104013935159em" fill="#aaa"/><rect width="0.9433962264150944em" height="5.081670674823007em" x="41.509433962264154em" y="24.91832932517699em" fill="#aaa"/><rect width="0.9433962264150944em" height="5.1907375771567414em" x="42.45283018867924em" y="24.809262422843258em" fill="#aaa"/><rect width="0.9433962264150944em" height="7.332861641798405em" x="43.39622641509434em" y="22.667138358201594em" fill="#aaa"/><rect width="0.9433962264150944em" height="8.669464920506226em" x="44.339622641509436em" y="21.330535079493774em" fill="#aaa"/><rect width="0.9433962264150944em" height="7.225669741111127em" x="45.283018867924525em" y="22.774330258888874em" fill="#aaa"/><rect width="0.9433962264150944em" height="11.067878243941003em" x="46.22641509433962em" y="18.932121756058997em" fill="#aaa"/><rect width="0.9433962264150944em" height="7.655257407772681em" x="47.16981132075472em" y="22.34474259222732em" fill="#aaa"/><rect width="0.9433962264150944em" height="8.851133307551333em" x="48.113207547169814em" y="21.148866692448667em" fill="#aaa"/><rect width="0.9433962264150944em" height="12.013705864749474em" x="49.056603773584904em" y="17.986294135250525em" fill="#aaa"/><rect width="0.9433962264150944em" height="8.913458317123258em" x="50em" y="21.086541682876742em" fill="#aaa"/><rect width="0.9433962264150944em" height="7.796149815651875em" x="50.943396226415096em" y="22.203850184348127em" fill="#aaa"/><rect width="0.9433962264150944em" height="8.082158205348623em" x="51.88679245283019em" y="21.917841794651377em" fill="#aaa"/><rect width="0.9433962264150944em" height="6.090050282608724em" x="52.83018867924528em" y="23.909949717391278em" fill="#aaa"/><rect width="0.9433962264150944em" height="12.621376707377967em" x="53.77358490566038em" y="17.37862329262203em" fill="#aaa"/><rect width="0.9433962264150944em" height="8.747517169160586em" x="54.716981132075475em" y="21.252482830839412em" fill="#aaa"/><rect width="0.9433962264150944em" height="9.072652468394068em" x="55.660377358490564em" y="20.927347531605932em" fill="#aaa"/><rect width="0.9433962264150944em" height="10.50719473253455em" x="56.60377358490566em" y="19.49280526746545em" fill="#aaa"/><rect width="0.9433962264150944em" height="7.496986247809931em" x="57.54716981132076em" y="22.503013752190068em" fill="#aaa"/><rect width="0.9433962264150944em" height="4.5909634189942565em" x="58.49056603773585em" y="25.409036581005743em" fill="#aaa"/><rect width="0.9433962264150944em" height="4.272197392217102em" x="59.43396226415094em" y="25.7278026077829em" fill="#aaa"/><rect width="0.9433962264150944em" height="6.675931396546812em" x="60.37735849056604em" y="23.32406860345319em" fill="#aaa"/><rect width="0.9433962264150944em" height="3.446542688031505em" x="61.320754716981135em" y="26.553457311968494em" fill="#aaa"/><rect width="0.9433962264150944em" height="3.9662188350639243em" x="62.264150943396224em" y="26.033781164936077em" fill="#aaa"/><rect width="0.9433962264150944em" height="2.9549247021281735em" x="63.20754716981132em" y="27.045075297871826em" fill="#aaa"/><rect width="0.9433962264150944em" height="3.212275538479406em" x="64.15094339622641em" y="26.787724461520593em" fill="#aaa"/><rect width="0.9433962264150944em" height="4.546807301741483em" x="65.09433962264151em" y="25.45319269825852em" fill="#aaa"/><rect width="0.9433962264150944em" height="3.176827545160638em" x="66.0377358490566em" y="26.823172454839362em" fill="#aaa"/><rect width="0.9433962264150944em" height="3.735059654204236em" x="66.9811320754717em" y="26.264940345795765em" fill="#aaa"/><rect width="0.9433962264150944em" height="5.713347153603846em" x="67.9245283018868em" y="24.286652846396155em" fill="#aaa"/><rect width="0.9433962264150944em" height="3.5456901228165982em" x="68.86792452830188em" y="26.4543098771834em" fill="#aaa"/><rect width="0.9433962264150944em" height="3.074876345203004em" x="69.81132075471699em" y="26.925123654796995em" fill="#aaa"/><rect width="0.9433962264150944em" height="3.0532413152457205em" x="70.75471698113208em" y="26.94675868475428em" fill="#aaa"/><rect width="0.9433962264150944em" height="1.8529138767859454em" x="71.69811320754717em" y="28.147086123214056em" fill="#aaa"/><rect width="0.9433962264150944em" height="3.706703918570867em" x="72.64150943396227em" y="26.293296081429133em" fill="#aaa"/><rect width="0.9433962264150944em" height="1.3223958932915203em" x="73.58490566037736em" y="28.67760410670848em" fill="#aaa"/><rect width="0.9433962264150944em" height="3.002842039309296em" x="74.52830188679245em" y="26.997157960690704em" fill="#aaa"/><rect width="0.9433962264150944em" height="3.7103994968428644em" x="75.47169811320755em" y="26.289600503157136em" fill="#aaa"/><rect width="0.9433962264150944em" height="2.4169208970294656em" x="76.41509433962264em" y="27.583079102970533em" fill="#aaa"/><rect width="0.9433962264150944em" height="3.871712419979635em" x="77.35849056603773em" y="26.128287580020366em" fill="#aaa"/><rect width="0.9433962264150944em" height="2.4394421760280904em" x="78.30188679245283em" y="27.56055782397191em" fill="#aaa"/><rect width="0.9433962264150944em" height="1.693816997090436em" x="79.24528301886792em" y="28.306183002909563em" fill="#aaa"/><rect width="0.9433962264150944em" height="2.479845420315232em" x="80.18867924528303em" y="27.520154579684768em" fill="#aaa"/><rect width="0.9433962264150944em" height="1.3264101297250364em" x="81.13207547169812em" y="28.673589870274963em" fill="#aaa"/><rect width="0.9433962264150944em" height="2.639033085320151em" x="82.0754716981132em" y="27.36096691467985em" fill="#aaa"/><rect width="0.9433962264150944em" height="1.955040654325859em" x="83.01886792452831em" y="28.04495934567414em" fill="#aaa"/><rect width="0.9433962264150944em" height="1.8273568179296122em" x="83.9622641509434em" y="28.172643182070388em" fill="#aaa"/><rect width="0.9433962264150944em" height="3.0526275284282476em" x="84.90566037735849em" y="26.947372471571754em" fill="#aaa"/><rect width="0.9433962264150944em" height="0.9609821594323261em" x="85.84905660377359em" y="29.039017840567674em" fill="#aaa"/><rect width="0.9433962264150944em" height="1.2438574049815307em" x="86.79245283018868em" y="28.75614259501847em" fill="#aaa"/><rect width="0.9433962264150944em" height="1.2228660359755286em" x="87.73584905660377em" y="28.777133964024472em" fill="#aaa"/><rect width="0.9433962264150944em" height="1.3023509757402028em" x="88.67924528301887em" y="28.697649024259796em" fill="#aaa"/><rect width="0.9433962264150944em" height="2.5625817667217863em" x="89.62264150943396em" y="27.437418233278215em" fill="#aaa"/><rect width="0.9433962264150944em" height="2.7223929075442554em" x="90.56603773584905em" y="27.277607092455746em" fill="#aaa"/><rect width="0.9433962264150944em" height="1.8063821360518169em" x="91.50943396226415em" y="28.193617863948184em" fill="#aaa"/><rect width="0.9433962264150944em" height="1.3274052825994331em" x="92.45283018867924em" y="28.672594717400568em" fill="#aaa"/><rect width="0.9433962264150944em" height="1.98777370936049em" x="93.39622641509435em" y="28.01222629063951em" fill="#aaa"/><rect width="0.9433962264150944em" height="1.8130860569465712em" x="94.33962264150944em" y="28.18691394305343em" fill="#aaa"/><rect width="0.9433962264150944em" height="3.191962773547531em" x="95.28301886792453em" y="26.80803722645247em" fill="#aaa"/><rect width="0.9433962264150944em" height="2.797718700895955em" x="96.22641509433963em" y="27.202281299104044em" fill="#aaa"/><rect width="0.9433962264150944em" height="2.4372660449946446em" x="97.16981132075472em" y="27.562733955005356em" fill="#aaa"/><rect width="0.9433962264150944em" height="3.6035851962529892em" x="98.11320754716981em" y="26.39641480374701em" fill="#aaa"/><rect width="0.9433962264150944em" height="2.7440095496365675em" x="99.05660377358491em" y="27.255990450363434em" fill="#aaa"/></svg>