<?xml version="1.0" standalone="no"?>
<svg xmlns:xlink="http://www.w3.org/1999/xlink" xmlns="http://www.w3.org/2000/svg" class="topic-graph" style="width: 100em; height: 30em; text-align: center;"><rect width="0.9433962264150944em" height="4.26291973197289em" x="0em" y="25.73708026802711em" fill="#aaa"/><rect width="0.9433962264150944em" height="4.426300029208591em" x="0.9433962264150944em" y="25.57369997079141em" fill="#aaa"/><rect width="0.9433962264150944em" height="8.173103676765532em" x="1.8867924528301887em" y="21.826896323234468em" fill="#aaa"/><rect width="0.9433962264150944em" height="2.3161338761916346em" x="2.830188679245283em" y="27.683866123808365em" fill="#aaa"/><rect width="0.9433962264150944em" height="4.312844549471881em" x="3.7735849056603774em" y="25.68715545052812em" fill="#aaa"/><rect width="0.9433962264150944em" height="4.642715033136674em" x="4.716981132075472em" y="25.357284966863325em" fill="#aaa"/><rect width="0.9433962264150944em" height="4.5907143418519505em" x="5.660377358490566em" y="25.40928565814805em" fill="#aaa"/><rect width="0.9433962264150944em" height="4.608108462740623em" x="6.60377358490566em" y="25.391891537259376em" fill="#aaa"/><rect width="0.9433962264150944em" height="17.650672738257878em" x="7.547169811320755em" y="12.349327261742122em" fill="#aaa"/><rect width="0.9433962264150944em" height="6.902124859968633em" x="8.49056603773585em" y="23.097875140031366em" fill="#aaa"/><rect width="0.9433962264150944em" height="8.471723362389199em" x="9.433962264150944em" y="21.5282766376108em" fill="#aaa"/><rect width="0.9433962264150944em" height="10.333349256201357em" x="10.377358490566039em" y="19.66665074379864em" fill="#aaa"/><rect width="0.9433962264150944em" height="2.489932351765505em" x="11.320754716981131em" y="27.510067648234497em" fill="#aaa"/><rect width="0.9433962264150944em" height="0em" x="12.264150943396226em" y="30em" fill="#aaa"/><rect width="0.9433962264150944em" height="4.725099053902994em" x="13.20754716981132em" y="25.274900946097006em" fill="#aaa"/><rect width="0.9433962264150944em" height="9.164408279723135em" x="14.150943396226415em" y="20.835591720276867em" fill="#aaa"/><rect width="0.9433962264150944em" height="5.657938530766677em" x="15.09433962264151em" y="24.34206146923332em" fill="#aaa"/><rect width="0.9433962264150944em" height="3.088871197362446em" x="16.037735849056602em" y="26.911128802637553em" fill="#aaa"/><rect width="0.9433962264150944em" height="4.399240871984908em" x="16.9811320754717em" y="25.600759128015092em" fill="#aaa"/><rect width="0.9433962264150944em" height="3.718284884221476em" x="17.92452830188679em" y="26.281715115778525em" fill="#aaa"/><rect width="0.9433962264150944em" height="4.108446036902754em" x="18.867924528301888em" y="25.891553963097245em" fill="#aaa"/><rect width="0.9433962264150944em" height="5.695323099307039em" x="19.81132075471698em" y="24.30467690069296em" fill="#aaa"/><rect width="0.9433962264150944em" height="2.524755265053521em" x="20.754716981132077em" y="27.47524473494648em" fill="#aaa"/><rect width="0.9433962264150944em" height="3.893903041566607em" x="21.69811320754717em" y="26.106096958433394em" fill="#aaa"/><rect width="0.9433962264150944em" height="4.991823271897804em" x="22.641509433962263em" y="25.008176728102196em" fill="#aaa"/><rect width="0.9433962264150944em" height="4.548504503680387em" x="23.58490566037736em" y="25.451495496319612em" fill="#aaa"/><rect width="0.9433962264150944em" height="0em" x="24.528301886792452em" y="30em" fill="#aaa"/><rect width="0.9433962264150944em" height="8.247848411728148em" x="25.471698113207548em" y="21.75215158827185em" fill="#aaa"/><rect width="0.9433962264150944em" height="7.7029429815046955em" x="26.41509433962264em" y="22.297057018495305em" fill="#aaa"/><rect width="0.9433962264150944em" height="6.216933333801526em" x="27.358490566037737em" y="23.783066666198472em" fill="#aaa"/><rect width="0.9433962264150944em" height="7.07869784378671em" x="28.30188679245283em" y="22.92130215621329em" fill="#aaa"/><rect width="0.9433962264150944em" height="8.364575476542395em" x="29.245283018867926em" y="21.635424523457605em" fill="#aaa"/><rect width="0.9433962264150944em" height="9.30868705517398em" x="30.18867924528302em" y="20.69131294482602em" fill="#aaa"/><rect width="0.9433962264150944em" height="6.732369542480571em" x="31.132075471698112em" y="23.26763045751943em" fill="#aaa"/><rect width="0.9433962264150944em" height="9.818906140965899em" x="32.075471698113205em" y="20.1810938590341em" fill="#aaa"/><rect width="0.9433962264150944em" height="6.854187221335367em" x="33.0188679245283em" y="23.145812778664634em" fill="#aaa"/><rect width="0.9433962264150944em" height="7.506219736161112em" x="33.9622641509434em" y="22.493780263838886em" fill="#aaa"/><rect width="0.9433962264150944em" height="7.943859466442202em" x="34.905660377358494em" y="22.056140533557798em" fill="#aaa"/><rect width="0.9433962264150944em" height="5.4401171027867266em" x="35.84905660377358em" y="24.559882897213274em" fill="#aaa"/><rect width="0.9433962264150944em" height="6.607409995654146em" x="36.79245283018868em" y="23.392590004345855em" fill="#aaa"/><rect width="0.9433962264150944em" height="4.2353327279997925em" x="37.735849056603776em" y="25.764667272000207em" fill="#aaa"/><rect width="0.9433962264150944em" height="4.420699035538401em" x="38.679245283018865em" y="25.5793009644616em" fill="#aaa"/><rect width="0.9433962264150944em" height="8.002546576553424em" x="39.62264150943396em" y="21.997453423446576em" fill="#aaa"/><rect width="0.9433962264150944em" height="6.2005629622481em" x="40.56603773584906em" y="23.7994370377519em" fill="#aaa"/><rect width="0.9433962264150944em" height="6.086754754012292em" x="41.509433962264154em" y="23.91324524598771em" fill="#aaa"/><rect width="0.9433962264150944em" height="16.52332923805602em" x="42.45283018867924em" y="13.476670761943979em" fill="#aaa"/><rect width="0.9433962264150944em" height="12.741995914469943em" x="43.39622641509434em" y="17.258004085530057em" fill="#aaa"/><rect width="0.9433962264150944em" height="11.823977271077696em" x="44.339622641509436em" y="18.176022728922305em" fill="#aaa"/><rect width="0.9433962264150944em" height="14.283177371475809em" x="45.283018867924525em" y="15.716822628524191em" fill="#aaa"/><rect width="0.9433962264150944em" height="14.42490383857677em" x="46.22641509433962em" y="15.57509616142323em" fill="#aaa"/><rect width="0.9433962264150944em" height="14.508291571537434em" x="47.16981132075472em" y="15.491708428462566em" fill="#aaa"/><rect width="0.9433962264150944em" height="16.060136875008812em" x="48.113207547169814em" y="13.939863124991188em" fill="#aaa"/><rect width="0.9433962264150944em" height="13.866535151944197em" x="49.056603773584904em" y="16.1334648480558em" fill="#aaa"/><rect width="0.9433962264150944em" height="15.759978724112248em" x="50em" y="14.240021275887752em" fill="#aaa"/><rect width="0.9433962264150944em" height="14.26321086700306em" x="50.943396226415096em" y="15.73678913299694em" fill="#aaa"/><rect width="0.9433962264150944em" height="13.757865136185064em" x="51.88679245283019em" y="16.242134863814936em" fill="#aaa"/><rect width="0.9433962264150944em" height="16.097665296798755em" x="52.83018867924528em" y="13.902334703201245em" fill="#aaa"/><rect width="0.9433962264150944em" height="16.194268261241035em" x="53.77358490566038em" y="13.805731738758965em" fill="#aaa"/><rect width="0.9433962264150944em" height="19.85570587637002em" x="54.716981132075475em" y="10.14429412362998em" fill="#aaa"/><rect width="0.9433962264150944em" height="26.446037804209208em" x="55.660377358490564em" y="3.553962195790792em" fill="#aaa"/><rect width="0.9433962264150944em" height="16.199302231345253em" x="56.60377358490566em" y="13.800697768654747em" fill="#aaa"/><rect width="0.9433962264150944em" height="15.946221462447426em" x="57.54716981132076em" y="14.053778537552574em" fill="#aaa"/><rect width="0.9433962264150944em" height="27.781667835277972em" x="58.49056603773585em" y="2.218332164722028em" fill="#aaa"/><rect width="0.9433962264150944em" height="9.757861080364384em" x="59.43396226415094em" y="20.242138919635615em" fill="#aaa"/><rect width="0.9433962264150944em" height="20.33761913119414em" x="60.37735849056604em" y="9.662380868805862em" fill="#aaa"/><rect width="0.9433962264150944em" height="30em" x="61.320754716981135em" y="0em" fill="#aaa"/><rect width="0.9433962264150944em" height="13.59643060224352em" x="62.264150943396224em" y="16.403569397756478em" fill="#aaa"/><rect width="0.9433962264150944em" height="12.138629451158517em" x="63.20754716981132em" y="17.861370548841485em" fill="#aaa"/><rect width="0.9433962264150944em" height="14.862260906928986em" x="64.15094339622641em" y="15.137739093071014em" fill="#aaa"/><rect width="0.9433962264150944em" height="18.801399330783656em" x="65.09433962264151em" y="11.198600669216344em" fill="#aaa"/><rect width="0.9433962264150944em" height="26.544771002895324em" x="66.0377358490566em" y="3.455228997104676em" fill="#aaa"/><rect width="0.9433962264150944em" height="10.608717329360374em" x="66.9811320754717em" y="19.391282670639626em" fill="#aaa"/><rect width="0.9433962264150944em" height="12.994848442371161em" x="67.9245283018868em" y="17.00515155762884em" fill="#aaa"/><rect width="0.9433962264150944em" height="10.840519136892793em" x="68.86792452830188em" y="19.159480863107206em" fill="#aaa"/><rect width="0.9433962264150944em" height="16.224526326134768em" x="69.81132075471699em" y="13.775473673865232em" fill="#aaa"/><rect width="0.9433962264150944em" height="20.924501309695025em" x="70.75471698113208em" y="9.075498690304975em" fill="#aaa"/><rect width="0.9433962264150944em" height="18.95471143338401em" x="71.69811320754717em" y="11.04528856661599em" fill="#aaa"/><rect width="0.9433962264150944em" height="21.085675151154184em" x="72.64150943396227em" y="8.914324848845816em" fill="#aaa"/><rect width="0.9433962264150944em" height="7.614860006357767em" x="73.58490566037736em" y="22.385139993642234em" fill="#aaa"/><rect width="0.9433962264150944em" height="26.919418193936494em" x="74.52830188679245em" y="3.080581806063506em" fill="#aaa"/><rect width="0.9433962264150944em" height="20.061062213273157em" x="75.47169811320755em" y="9.938937786726843em" fill="#aaa"/><rect width="0.9433962264150944em" height="18.53127752050412em" x="76.41509433962264em" y="11.46872247949588em" fill="#aaa"/><rect width="0.9433962264150944em" height="23.12342943282248em" x="77.35849056603773em" y="6.87657056717752em" fill="#aaa"/><rect width="0.9433962264150944em" height="14.86996742101357em" x="78.30188679245283em" y="15.13003257898643em" fill="#aaa"/><rect width="0.9433962264150944em" height="15.235902272648602em" x="79.24528301886792em" y="14.764097727351398em" fill="#aaa"/><rect width="0.9433962264150944em" height="22.31176561910365em" x="80.18867924528303em" y="7.6882343808963505em" fill="#aaa"/><rect width="0.9433962264150944em" height="19.382316705278683em" x="81.13207547169812em" y="10.617683294721317em" fill="#aaa"/><rect width="0.9433962264150944em" height="22.954543335851465em" x="82.0754716981132em" y="7.045456664148535em" fill="#aaa"/><rect width="0.9433962264150944em" height="20.655783750980753em" x="83.01886792452831em" y="9.344216249019247em" fill="#aaa"/><rect width="0.9433962264150944em" height="22.442041514887336em" x="83.9622641509434em" y="7.557958485112664em" fill="#aaa"/><rect width="0.9433962264150944em" height="13.074671086534757em" x="84.90566037735849em" y="16.925328913465243em" fill="#aaa"/><rect width="0.9433962264150944em" height="14.965498282082882em" x="85.84905660377359em" y="15.034501717917118em" fill="#aaa"/><rect width="0.9433962264150944em" height="18.576049657213176em" x="86.79245283018868em" y="11.423950342786824em" fill="#aaa"/><rect width="0.9433962264150944em" height="12.08438512681436em" x="87.73584905660377em" y="17.91561487318564em" fill="#aaa"/><rect width="0.9433962264150944em" height="11.451082905840325em" x="88.67924528301887em" y="18.548917094159677em" fill="#aaa"/><rect width="0.9433962264150944em" height="16.12262363549247em" x="89.62264150943396em" y="13.87737636450753em" fill="#aaa"/><rect width="0.9433962264150944em" height="13.173527618732603em" x="90.56603773584905em" y="16.826472381267397em" fill="#aaa"/><rect width="0.9433962264150944em" height="16.750453031784843em" x="91.50943396226415em" y="13.249546968215157em" fill="#aaa"/><rect width="0.9433962264150944em" height="14.81290311971905em" x="92.45283018867924em" y="15.18709688028095em" fill="#aaa"/><rect width="0.9433962264150944em" height="15.544984018911338em" x="93.39622641509435em" y="14.455015981088662em" fill="#aaa"/><rect width="0.9433962264150944em" height="12.35410803133035em" x="94.33962264150944em" y="17.645891968669652em" fill="#aaa"/><rect width="0.9433962264150944em" height="15.461579200569401em" x="95.28301886792453em" y="14.538420799430599em" fill="#aaa"/><rect width="0.9433962264150944em" height="14.811986849793788em" x="96.22641509433963em" y="15.188013150206212em" fill="#aaa"/><rect width="0.9433962264150944em" height="13.4229614794711em" x="97.16981132075472em" y="16.5770385205289em" fill="#aaa"/><rect width="0.9433962264150944em" height="17.94496901323301em" x="98.11320754716981em" y="12.05503098676699em" fill="#aaa"/><rect width="0.9433962264150944em" height="15.221511142800354em" x="99.05660377358491em" y="14.778488857199646em" fill="#aaa"/></svg>