<?xml version="1.0" standalone="no"?>
<svg xmlns:xlink="http://www.w3.org/1999/xlink" xmlns="http://www.w3.org/2000/svg" class="topic-graph" style="width: 100em; height: 30em; text-align: center;"><rect width="0.9433962264150944em" height="11.591899266396238em" x="0em" y="18.40810073360376em" fill="#aaa"/><rect width="0.9433962264150944em" height="9.692415242668789em" x="0.9433962264150944em" y="20.307584757331213em" fill="#aaa"/><rect width="0.9433962264150944em" height="21.342917762204706em" x="1.8867924528301887em" y="8.657082237795294em" fill="#aaa"/><rect width="0.9433962264150944em" height="8.795063237492887em" x="2.830188679245283em" y="21.204936762507113em" fill="#aaa"/><rect width="0.9433962264150944em" height="10.015403305826625em" x="3.7735849056603774em" y="19.984596694173376em" fill="#aaa"/><rect width="0.9433962264150944em" height="20.53344859022493em" x="4.716981132075472em" y="9.466551409775072em" fill="#aaa"/><rect width="0.9433962264150944em" height="28.589561867845305em" x="5.660377358490566em" y="1.4104381321546953em" fill="#aaa"/><rect width="0.9433962264150944em" height="18.725365461980694em" x="6.60377358490566em" y="11.274634538019306em" fill="#aaa"/><rect width="0.9433962264150944em" height="16.55906958272615em" x="7.547169811320755em" y="13.44093041727385em" fill="#aaa"/><rect width="0.9433962264150944em" height="12.526041706698724em" x="8.49056603773585em" y="17.473958293301276em" fill="#aaa"/><rect width="0.9433962264150944em" height="18.20512611085477em" x="9.433962264150944em" y="11.79487388914523em" fill="#aaa"/><rect width="0.9433962264150944em" height="12.698339588533047em" x="10.377358490566039em" y="17.301660411466955em" fill="#aaa"/><rect width="0.9433962264150944em" height="11.642535369965318em" x="11.320754716981131em" y="18.357464630034684em" fill="#aaa"/><rect width="0.9433962264150944em" height="0em" x="12.264150943396226em" y="30em" fill="#aaa"/><rect width="0.9433962264150944em" height="17.490637696359453em" x="13.20754716981132em" y="12.509362303640547em" fill="#aaa"/><rect width="0.9433962264150944em" height="11.758335745473909em" x="14.150943396226415em" y="18.241664254526093em" fill="#aaa"/><rect width="0.9433962264150944em" height="15.41699039286174em" x="15.09433962264151em" y="14.58300960713826em" fill="#aaa"/><rect width="0.9433962264150944em" height="20.941421713504557em" x="16.037735849056602em" y="9.058578286495443em" fill="#aaa"/><rect width="0.9433962264150944em" height="28.576376189519586em" x="16.9811320754717em" y="1.4236238104804144em" fill="#aaa"/><rect width="0.9433962264150944em" height="11.990160105978052em" x="17.92452830188679em" y="18.009839894021948em" fill="#aaa"/><rect width="0.9433962264150944em" height="23.116177529806638em" x="18.867924528301888em" y="6.883822470193362em" fill="#aaa"/><rect width="0.9433962264150944em" height="22.396325345143474em" x="19.81132075471698em" y="7.603674654856526em" fill="#aaa"/><rect width="0.9433962264150944em" height="22.453403668888708em" x="20.754716981132077em" y="7.546596331111292em" fill="#aaa"/><rect width="0.9433962264150944em" height="12.757897456048575em" x="21.69811320754717em" y="17.242102543951425em" fill="#aaa"/><rect width="0.9433962264150944em" height="22.16036825446879em" x="22.641509433962263em" y="7.839631745531211em" fill="#aaa"/><rect width="0.9433962264150944em" height="15.208921626653012em" x="23.58490566037736em" y="14.791078373346988em" fill="#aaa"/><rect width="0.9433962264150944em" height="0em" x="24.528301886792452em" y="30em" fill="#aaa"/><rect width="0.9433962264150944em" height="21.917251219518675em" x="25.471698113207548em" y="8.082748780481325em" fill="#aaa"/><rect width="0.9433962264150944em" height="28.924436218344447em" x="26.41509433962264em" y="1.0755637816555534em" fill="#aaa"/><rect width="0.9433962264150944em" height="25.270365452493593em" x="27.358490566037737em" y="4.729634547506407em" fill="#aaa"/><rect width="0.9433962264150944em" height="14.204948287230705em" x="28.30188679245283em" y="15.795051712769295em" fill="#aaa"/><rect width="0.9433962264150944em" height="17.91937362908642em" x="29.245283018867926em" y="12.080626370913581em" fill="#aaa"/><rect width="0.9433962264150944em" height="28.72139653270061em" x="30.18867924528302em" y="1.2786034672993907em" fill="#aaa"/><rect width="0.9433962264150944em" height="25.877959224681135em" x="31.132075471698112em" y="4.122040775318865em" fill="#aaa"/><rect width="0.9433962264150944em" height="22.11159964262978em" x="32.075471698113205em" y="7.8884003573702195em" fill="#aaa"/><rect width="0.9433962264150944em" height="27.358799429285803em" x="33.0188679245283em" y="2.6412005707141972em" fill="#aaa"/><rect width="0.9433962264150944em" height="19.280520811546367em" x="33.9622641509434em" y="10.719479188453633em" fill="#aaa"/><rect width="0.9433962264150944em" height="14.848178240365034em" x="34.905660377358494em" y="15.151821759634966em" fill="#aaa"/><rect width="0.9433962264150944em" height="12.474719752093852em" x="35.84905660377358em" y="17.525280247906146em" fill="#aaa"/><rect width="0.9433962264150944em" height="16.727330965349722em" x="36.79245283018868em" y="13.272669034650278em" fill="#aaa"/><rect width="0.9433962264150944em" height="19.736922806727254em" x="37.735849056603776em" y="10.263077193272746em" fill="#aaa"/><rect width="0.9433962264150944em" height="30em" x="38.679245283018865em" y="0em" fill="#aaa"/><rect width="0.9433962264150944em" height="16.917305766466548em" x="39.62264150943396em" y="13.082694233533452em" fill="#aaa"/><rect width="0.9433962264150944em" height="13.117298515871596em" x="40.56603773584906em" y="16.882701484128404em" fill="#aaa"/><rect width="0.9433962264150944em" height="13.0743593375944em" x="41.509433962264154em" y="16.9256406624056em" fill="#aaa"/><rect width="0.9433962264150944em" height="9.406742218201025em" x="42.45283018867924em" y="20.593257781798975em" fill="#aaa"/><rect width="0.9433962264150944em" height="8.322280721922901em" x="43.39622641509434em" y="21.6777192780771em" fill="#aaa"/><rect width="0.9433962264150944em" height="9.959691921781104em" x="44.339622641509436em" y="20.040308078218896em" fill="#aaa"/><rect width="0.9433962264150944em" height="16.62682275407834em" x="45.283018867924525em" y="13.37317724592166em" fill="#aaa"/><rect width="0.9433962264150944em" height="13.017318027850365em" x="46.22641509433962em" y="16.982681972149635em" fill="#aaa"/><rect width="0.9433962264150944em" height="13.032285230172722em" x="47.16981132075472em" y="16.96771476982728em" fill="#aaa"/><rect width="0.9433962264150944em" height="12.334633279766178em" x="48.113207547169814em" y="17.66536672023382em" fill="#aaa"/><rect width="0.9433962264150944em" height="16.120162270461382em" x="49.056603773584904em" y="13.879837729538618em" fill="#aaa"/><rect width="0.9433962264150944em" height="14.219544147336654em" x="50em" y="15.780455852663346em" fill="#aaa"/><rect width="0.9433962264150944em" height="11.060165317820235em" x="50.943396226415096em" y="18.939834682179765em" fill="#aaa"/><rect width="0.9433962264150944em" height="14.8687483082266em" x="51.88679245283019em" y="15.1312516917734em" fill="#aaa"/><rect width="0.9433962264150944em" height="8.206738743880905em" x="52.83018867924528em" y="21.793261256119095em" fill="#aaa"/><rect width="0.9433962264150944em" height="8.471729077852634em" x="53.77358490566038em" y="21.528270922147364em" fill="#aaa"/><rect width="0.9433962264150944em" height="9.812235198772747em" x="54.716981132075475em" y="20.187764801227253em" fill="#aaa"/><rect width="0.9433962264150944em" height="11.959946240891119em" x="55.660377358490564em" y="18.04005375910888em" fill="#aaa"/><rect width="0.9433962264150944em" height="9.006359007143365em" x="56.60377358490566em" y="20.993640992856633em" fill="#aaa"/><rect width="0.9433962264150944em" height="13.551186829350748em" x="57.54716981132076em" y="16.448813170649252em" fill="#aaa"/><rect width="0.9433962264150944em" height="9.851707417471847em" x="58.49056603773585em" y="20.148292582528153em" fill="#aaa"/><rect width="0.9433962264150944em" height="7.458048034557646em" x="59.43396226415094em" y="22.541951965442355em" fill="#aaa"/><rect width="0.9433962264150944em" height="8.329031193265408em" x="60.37735849056604em" y="21.670968806734592em" fill="#aaa"/><rect width="0.9433962264150944em" height="7.534937595713461em" x="61.320754716981135em" y="22.465062404286538em" fill="#aaa"/><rect width="0.9433962264150944em" height="6.518932981567422em" x="62.264150943396224em" y="23.481067018432576em" fill="#aaa"/><rect width="0.9433962264150944em" height="6.42202114034148em" x="63.20754716981132em" y="23.577978859658522em" fill="#aaa"/><rect width="0.9433962264150944em" height="8.06392841601468em" x="64.15094339622641em" y="21.93607158398532em" fill="#aaa"/><rect width="0.9433962264150944em" height="12.354395728975176em" x="65.09433962264151em" y="17.645604271024823em" fill="#aaa"/><rect width="0.9433962264150944em" height="5.583625642885915em" x="66.0377358490566em" y="24.416374357114087em" fill="#aaa"/><rect width="0.9433962264150944em" height="6.700335002971327em" x="66.9811320754717em" y="23.29966499702867em" fill="#aaa"/><rect width="0.9433962264150944em" height="10.441275378451738em" x="67.9245283018868em" y="19.55872462154826em" fill="#aaa"/><rect width="0.9433962264150944em" height="7.31177577936252em" x="68.86792452830188em" y="22.68822422063748em" fill="#aaa"/><rect width="0.9433962264150944em" height="10.355850058249697em" x="69.81132075471699em" y="19.644149941750303em" fill="#aaa"/><rect width="0.9433962264150944em" height="10.659356578255686em" x="70.75471698113208em" y="19.340643421744314em" fill="#aaa"/><rect width="0.9433962264150944em" height="7.773666609452873em" x="71.69811320754717em" y="22.226333390547126em" fill="#aaa"/><rect width="0.9433962264150944em" height="10.638028257868612em" x="72.64150943396227em" y="19.361971742131388em" fill="#aaa"/><rect width="0.9433962264150944em" height="6.604846360960497em" x="73.58490566037736em" y="23.395153639039503em" fill="#aaa"/><rect width="0.9433962264150944em" height="7.876722909546263em" x="74.52830188679245em" y="22.123277090453737em" fill="#aaa"/><rect width="0.9433962264150944em" height="6.395961329233858em" x="75.47169811320755em" y="23.604038670766144em" fill="#aaa"/><rect width="0.9433962264150944em" height="7.495644736615468em" x="76.41509433962264em" y="22.504355263384532em" fill="#aaa"/><rect width="0.9433962264150944em" height="5.719558315191122em" x="77.35849056603773em" y="24.280441684808878em" fill="#aaa"/><rect width="0.9433962264150944em" height="3.646816386370768em" x="78.30188679245283em" y="26.35318361362923em" fill="#aaa"/><rect width="0.9433962264150944em" height="8.028897805513909em" x="79.24528301886792em" y="21.971102194486093em" fill="#aaa"/><rect width="0.9433962264150944em" height="8.057769602879517em" x="80.18867924528303em" y="21.942230397120483em" fill="#aaa"/><rect width="0.9433962264150944em" height="9.84941941505773em" x="81.13207547169812em" y="20.15058058494227em" fill="#aaa"/><rect width="0.9433962264150944em" height="9.15114107080855em" x="82.0754716981132em" y="20.84885892919145em" fill="#aaa"/><rect width="0.9433962264150944em" height="4.434169141603878em" x="83.01886792452831em" y="25.565830858396122em" fill="#aaa"/><rect width="0.9433962264150944em" height="3.6614588896086557em" x="83.9622641509434em" y="26.338541110391343em" fill="#aaa"/><rect width="0.9433962264150944em" height="6.212659477104928em" x="84.90566037735849em" y="23.78734052289507em" fill="#aaa"/><rect width="0.9433962264150944em" height="4.101422825914179em" x="85.84905660377359em" y="25.898577174085823em" fill="#aaa"/><rect width="0.9433962264150944em" height="3.2641002957652243em" x="86.79245283018868em" y="26.735899704234775em" fill="#aaa"/><rect width="0.9433962264150944em" height="1.7673502538334558em" x="87.73584905660377em" y="28.232649746166544em" fill="#aaa"/><rect width="0.9433962264150944em" height="5.211931439464187em" x="88.67924528301887em" y="24.788068560535812em" fill="#aaa"/><rect width="0.9433962264150944em" height="3.4529456892320196em" x="89.62264150943396em" y="26.54705431076798em" fill="#aaa"/><rect width="0.9433962264150944em" height="2.8202426779402594em" x="90.56603773584905em" y="27.17975732205974em" fill="#aaa"/><rect width="0.9433962264150944em" height="3.8670921303836017em" x="91.50943396226415em" y="26.1329078696164em" fill="#aaa"/><rect width="0.9433962264150944em" height="3.427053880116766em" x="92.45283018867924em" y="26.572946119883234em" fill="#aaa"/><rect width="0.9433962264150944em" height="5.099938093635545em" x="93.39622641509435em" y="24.900061906364456em" fill="#aaa"/><rect width="0.9433962264150944em" height="2.5982983706542924em" x="94.33962264150944em" y="27.40170162934571em" fill="#aaa"/><rect width="0.9433962264150944em" height="3.1718845367816657em" x="95.28301886792453em" y="26.828115463218335em" fill="#aaa"/><rect width="0.9433962264150944em" height="3.193078571736422em" x="96.22641509433963em" y="26.80692142826358em" fill="#aaa"/><rect width="0.9433962264150944em" height="3.167134484491479em" x="97.16981132075472em" y="26.832865515508523em" fill="#aaa"/><rect width="0.9433962264150944em" height="2.2663425999118894em" x="98.11320754716981em" y="27.73365740008811em" fill="#aaa"/><rect width="0.9433962264150944em" height="2.172894684570032em" x="99.05660377358491em" y="27.827105315429968em" fill="#aaa"/></svg>