<?xml version="1.0" standalone="no"?>
<svg xmlns:xlink="http://www.w3.org/1999/xlink" xmlns="http://www.w3.org/2000/svg" class="topic-graph" style="width: 100em; height: 30em; text-align: center;"><rect width="0.9433962264150944em" height="1.2110030368275786em" x="0em" y="28.788996963172423em" fill="#aaa"/><rect width="0.9433962264150944em" height="0.06971326135509301em" x="0.9433962264150944em" y="29.930286738644906em" fill="#aaa"/><rect width="0.9433962264150944em" height="0.9008471073997926em" x="1.8867924528301887em" y="29.09915289260021em" fill="#aaa"/><rect width="0.9433962264150944em" height="2.080591011752022em" x="2.830188679245283em" y="27.919408988247977em" fill="#aaa"/><rect width="0.9433962264150944em" height="0.900193768238701em" x="3.7735849056603774em" y="29.0998062317613em" fill="#aaa"/><rect width="0.9433962264150944em" height="1.3903725708124675em" x="4.716981132075472em" y="28.609627429187533em" fill="#aaa"/><rect width="0.9433962264150944em" height="0.8444847395651585em" x="5.660377358490566em" y="29.155515260434843em" fill="#aaa"/><rect width="0.9433962264150944em" height="5.00960321237506em" x="6.60377358490566em" y="24.990396787624938em" fill="#aaa"/><rect width="0.9433962264150944em" height="0.25322497325601306em" x="7.547169811320755em" y="29.746775026743986em" fill="#aaa"/><rect width="0.9433962264150944em" height="0.3755588966100369em" x="8.49056603773585em" y="29.624441103389962em" fill="#aaa"/><rect width="0.9433962264150944em" height="1.234168785031179em" x="9.433962264150944em" y="28.76583121496882em" fill="#aaa"/><rect width="0.9433962264150944em" height="2.761776924262644em" x="10.377358490566039em" y="27.238223075737356em" fill="#aaa"/><rect width="0.9433962264150944em" height="0.3687714685105424em" x="11.320754716981131em" y="29.63122853148946em" fill="#aaa"/><rect width="0.9433962264150944em" height="0em" x="12.264150943396226em" y="30em" fill="#aaa"/><rect width="0.9433962264150944em" height="0.42050759740669347em" x="13.20754716981132em" y="29.579492402593306em" fill="#aaa"/><rect width="0.9433962264150944em" height="0.42664449674715654em" x="14.150943396226415em" y="29.573355503252845em" fill="#aaa"/><rect width="0.9433962264150944em" height="0.552381747623303em" x="15.09433962264151em" y="29.447618252376696em" fill="#aaa"/><rect width="0.9433962264150944em" height="2.1423187557826675em" x="16.037735849056602em" y="27.857681244217332em" fill="#aaa"/><rect width="0.9433962264150944em" height="3.328767528910869em" x="16.9811320754717em" y="26.67123247108913em" fill="#aaa"/><rect width="0.9433962264150944em" height="7.706604130750115em" x="17.92452830188679em" y="22.293395869249885em" fill="#aaa"/><rect width="0.9433962264150944em" height="0.9993909515576483em" x="18.867924528301888em" y="29.000609048442353em" fill="#aaa"/><rect width="0.9433962264150944em" height="1.5092008387032625em" x="19.81132075471698em" y="28.49079916129674em" fill="#aaa"/><rect width="0.9433962264150944em" height="0.9791242994842617em" x="20.754716981132077em" y="29.020875700515738em" fill="#aaa"/><rect width="0.9433962264150944em" height="0.21774536495364794em" x="21.69811320754717em" y="29.782254635046353em" fill="#aaa"/><rect width="0.9433962264150944em" height="0.8469785678932272em" x="22.641509433962263em" y="29.153021432106772em" fill="#aaa"/><rect width="0.9433962264150944em" height="2.087904846189116em" x="23.58490566037736em" y="27.912095153810885em" fill="#aaa"/><rect width="0.9433962264150944em" height="0em" x="24.528301886792452em" y="30em" fill="#aaa"/><rect width="0.9433962264150944em" height="1.4393529730791708em" x="25.471698113207548em" y="28.56064702692083em" fill="#aaa"/><rect width="0.9433962264150944em" height="4.639224367998029em" x="26.41509433962264em" y="25.36077563200197em" fill="#aaa"/><rect width="0.9433962264150944em" height="6.838614820292608em" x="27.358490566037737em" y="23.16138517970739em" fill="#aaa"/><rect width="0.9433962264150944em" height="0.5723831432811488em" x="28.30188679245283em" y="29.427616856718853em" fill="#aaa"/><rect width="0.9433962264150944em" height="0.9441157033824883em" x="29.245283018867926em" y="29.055884296617513em" fill="#aaa"/><rect width="0.9433962264150944em" height="1.6904887175738217em" x="30.18867924528302em" y="28.30951128242618em" fill="#aaa"/><rect width="0.9433962264150944em" height="0.7841078093511555em" x="31.132075471698112em" y="29.215892190648844em" fill="#aaa"/><rect width="0.9433962264150944em" height="1.2574358107763326em" x="32.075471698113205em" y="28.742564189223668em" fill="#aaa"/><rect width="0.9433962264150944em" height="0.44237047690568104em" x="33.0188679245283em" y="29.55762952309432em" fill="#aaa"/><rect width="0.9433962264150944em" height="0.8027270719058462em" x="33.9622641509434em" y="29.197272928094154em" fill="#aaa"/><rect width="0.9433962264150944em" height="1.5597904605760589em" x="34.905660377358494em" y="28.44020953942394em" fill="#aaa"/><rect width="0.9433962264150944em" height="1.6861968337270057em" x="35.84905660377358em" y="28.313803166272994em" fill="#aaa"/><rect width="0.9433962264150944em" height="0.5456897605302942em" x="36.79245283018868em" y="29.454310239469706em" fill="#aaa"/><rect width="0.9433962264150944em" height="1.4397113704630495em" x="37.735849056603776em" y="28.56028862953695em" fill="#aaa"/><rect width="0.9433962264150944em" height="0.5226726590955345em" x="38.679245283018865em" y="29.477327340904466em" fill="#aaa"/><rect width="0.9433962264150944em" height="0.49133829477847635em" x="39.62264150943396em" y="29.508661705221524em" fill="#aaa"/><rect width="0.9433962264150944em" height="1.5731974353702474em" x="40.56603773584906em" y="28.426802564629753em" fill="#aaa"/><rect width="0.9433962264150944em" height="2.9690233632288927em" x="41.509433962264154em" y="27.030976636771108em" fill="#aaa"/><rect width="0.9433962264150944em" height="0.4432087407132278em" x="42.45283018867924em" y="29.556791259286772em" fill="#aaa"/><rect width="0.9433962264150944em" height="0.9093922822129412em" x="43.39622641509434em" y="29.09060771778706em" fill="#aaa"/><rect width="0.9433962264150944em" height="0.6401981283825756em" x="44.339622641509436em" y="29.359801871617424em" fill="#aaa"/><rect width="0.9433962264150944em" height="0.9580448292246235em" x="45.283018867924525em" y="29.041955170775378em" fill="#aaa"/><rect width="0.9433962264150944em" height="0.49561882978785476em" x="46.22641509433962em" y="29.504381170212145em" fill="#aaa"/><rect width="0.9433962264150944em" height="0.8538996622972669em" x="47.16981132075472em" y="29.146100337702734em" fill="#aaa"/><rect width="0.9433962264150944em" height="0.4104866720362129em" x="48.113207547169814em" y="29.589513327963786em" fill="#aaa"/><rect width="0.9433962264150944em" height="2.0665619424910386em" x="49.056603773584904em" y="27.933438057508962em" fill="#aaa"/><rect width="0.9433962264150944em" height="30em" x="50em" y="0em" fill="#aaa"/><rect width="0.9433962264150944em" height="1.3316621684178032em" x="50.943396226415096em" y="28.668337831582196em" fill="#aaa"/><rect width="0.9433962264150944em" height="0.9659397950973193em" x="51.88679245283019em" y="29.03406020490268em" fill="#aaa"/><rect width="0.9433962264150944em" height="0.36174389416784974em" x="52.83018867924528em" y="29.63825610583215em" fill="#aaa"/><rect width="0.9433962264150944em" height="0.8297223788180107em" x="53.77358490566038em" y="29.170277621181988em" fill="#aaa"/><rect width="0.9433962264150944em" height="0.525574193213683em" x="54.716981132075475em" y="29.474425806786318em" fill="#aaa"/><rect width="0.9433962264150944em" height="0.03135190346214569em" x="55.660377358490564em" y="29.968648096537855em" fill="#aaa"/><rect width="0.9433962264150944em" height="0.2932010657878155em" x="56.60377358490566em" y="29.706798934212184em" fill="#aaa"/><rect width="0.9433962264150944em" height="0.9628292093150388em" x="57.54716981132076em" y="29.03717079068496em" fill="#aaa"/><rect width="0.9433962264150944em" height="1.1765893268034036em" x="58.49056603773585em" y="28.823410673196598em" fill="#aaa"/><rect width="0.9433962264150944em" height="0.6871796514259714em" x="59.43396226415094em" y="29.31282034857403em" fill="#aaa"/><rect width="0.9433962264150944em" height="2.131123467476755em" x="60.37735849056604em" y="27.868876532523245em" fill="#aaa"/><rect width="0.9433962264150944em" height="1.6519671315826092em" x="61.320754716981135em" y="28.34803286841739em" fill="#aaa"/><rect width="0.9433962264150944em" height="9.915990734663055em" x="62.264150943396224em" y="20.084009265336945em" fill="#aaa"/><rect width="0.9433962264150944em" height="0.6314027127561201em" x="63.20754716981132em" y="29.36859728724388em" fill="#aaa"/><rect width="0.9433962264150944em" height="0.8803645364836014em" x="64.15094339622641em" y="29.1196354635164em" fill="#aaa"/><rect width="0.9433962264150944em" height="0.9537461870180607em" x="65.09433962264151em" y="29.046253812981938em" fill="#aaa"/><rect width="0.9433962264150944em" height="3.692594932210728em" x="66.0377358490566em" y="26.307405067789272em" fill="#aaa"/><rect width="0.9433962264150944em" height="2.2309199988782487em" x="66.9811320754717em" y="27.76908000112175em" fill="#aaa"/><rect width="0.9433962264150944em" height="2.5008370943257723em" x="67.9245283018868em" y="27.49916290567423em" fill="#aaa"/><rect width="0.9433962264150944em" height="4.818078827553723em" x="68.86792452830188em" y="25.181921172446277em" fill="#aaa"/><rect width="0.9433962264150944em" height="1.6502063532982394em" x="69.81132075471699em" y="28.349793646701762em" fill="#aaa"/><rect width="0.9433962264150944em" height="0.31083217431152926em" x="70.75471698113208em" y="29.68916782568847em" fill="#aaa"/><rect width="0.9433962264150944em" height="0.208522240512959em" x="71.69811320754717em" y="29.79147775948704em" fill="#aaa"/><rect width="0.9433962264150944em" height="3.7008221550175064em" x="72.64150943396227em" y="26.299177844982495em" fill="#aaa"/><rect width="0.9433962264150944em" height="0.8695159538046111em" x="73.58490566037736em" y="29.130484046195388em" fill="#aaa"/><rect width="0.9433962264150944em" height="1.2003808637016635em" x="74.52830188679245em" y="28.799619136298336em" fill="#aaa"/><rect width="0.9433962264150944em" height="3.309302470550309em" x="75.47169811320755em" y="26.69069752944969em" fill="#aaa"/><rect width="0.9433962264150944em" height="1.2893096398983783em" x="76.41509433962264em" y="28.710690360101623em" fill="#aaa"/><rect width="0.9433962264150944em" height="0.5614902461174744em" x="77.35849056603773em" y="29.438509753882524em" fill="#aaa"/><rect width="0.9433962264150944em" height="1.1802054540542894em" x="78.30188679245283em" y="28.81979454594571em" fill="#aaa"/><rect width="0.9433962264150944em" height="1.049338683519008em" x="79.24528301886792em" y="28.950661316480993em" fill="#aaa"/><rect width="0.9433962264150944em" height="3.3107132532399715em" x="80.18867924528303em" y="26.68928674676003em" fill="#aaa"/><rect width="0.9433962264150944em" height="4.536039902745683em" x="81.13207547169812em" y="25.463960097254315em" fill="#aaa"/><rect width="0.9433962264150944em" height="0.7921328834500105em" x="82.0754716981132em" y="29.20786711654999em" fill="#aaa"/><rect width="0.9433962264150944em" height="0.1824174675348712em" x="83.01886792452831em" y="29.817582532465128em" fill="#aaa"/><rect width="0.9433962264150944em" height="1.0817059069315944em" x="83.9622641509434em" y="28.918294093068404em" fill="#aaa"/><rect width="0.9433962264150944em" height="0.34760313318912506em" x="84.90566037735849em" y="29.652396866810875em" fill="#aaa"/><rect width="0.9433962264150944em" height="1.1023538973832194em" x="85.84905660377359em" y="28.89764610261678em" fill="#aaa"/><rect width="0.9433962264150944em" height="3.837247535394479em" x="86.79245283018868em" y="26.16275246460552em" fill="#aaa"/><rect width="0.9433962264150944em" height="0.3136601771592607em" x="87.73584905660377em" y="29.68633982284074em" fill="#aaa"/><rect width="0.9433962264150944em" height="0.19289085005607814em" x="88.67924528301887em" y="29.807109149943923em" fill="#aaa"/><rect width="0.9433962264150944em" height="0.35042647748545314em" x="89.62264150943396em" y="29.649573522514547em" fill="#aaa"/><rect width="0.9433962264150944em" height="1.1929222690109267em" x="90.56603773584905em" y="28.80707773098907em" fill="#aaa"/><rect width="0.9433962264150944em" height="0.5726218654392543em" x="91.50943396226415em" y="29.427378134560747em" fill="#aaa"/><rect width="0.9433962264150944em" height="0.2460497207384831em" x="92.45283018867924em" y="29.753950279261517em" fill="#aaa"/><rect width="0.9433962264150944em" height="0.1650220012715945em" x="93.39622641509435em" y="29.834977998728405em" fill="#aaa"/><rect width="0.9433962264150944em" height="0.4111687810821456em" x="94.33962264150944em" y="29.588831218917854em" fill="#aaa"/><rect width="0.9433962264150944em" height="0.3900678363242966em" x="95.28301886792453em" y="29.609932163675705em" fill="#aaa"/><rect width="0.9433962264150944em" height="0.3698054443927757em" x="96.22641509433963em" y="29.630194555607225em" fill="#aaa"/><rect width="0.9433962264150944em" height="0.3044480127090963em" x="97.16981132075472em" y="29.695551987290905em" fill="#aaa"/><rect width="0.9433962264150944em" height="2.1252154844742517em" x="98.11320754716981em" y="27.874784515525747em" fill="#aaa"/><rect width="0.9433962264150944em" height="0.7144851863503784em" x="99.05660377358491em" y="29.285514813649623em" fill="#aaa"/></svg>