<?xml version="1.0" standalone="no"?>
<svg xmlns:xlink="http://www.w3.org/1999/xlink" xmlns="http://www.w3.org/2000/svg" class="topic-graph" style="width: 100em; height: 30em; text-align: center;"><rect width="0.9433962264150944em" height="0.02033868374003935em" x="0em" y="29.97966131625996em" fill="#aaa"/><rect width="0.9433962264150944em" height="4.555507273093666em" x="0.9433962264150944em" y="25.444492726906333em" fill="#aaa"/><rect width="0.9433962264150944em" height="1.4654158012152005em" x="1.8867924528301887em" y="28.5345841987848em" fill="#aaa"/><rect width="0.9433962264150944em" height="0.8570612645455685em" x="2.830188679245283em" y="29.142938735454432em" fill="#aaa"/><rect width="0.9433962264150944em" height="2.263773886600954em" x="3.7735849056603774em" y="27.736226113399045em" fill="#aaa"/><rect width="0.9433962264150944em" height="4.718051202074226em" x="4.716981132075472em" y="25.281948797925775em" fill="#aaa"/><rect width="0.9433962264150944em" height="0.37474554347548883em" x="5.660377358490566em" y="29.625254456524512em" fill="#aaa"/><rect width="0.9433962264150944em" height="11.671521850980968em" x="6.60377358490566em" y="18.328478149019034em" fill="#aaa"/><rect width="0.9433962264150944em" height="1.1426621296447272em" x="7.547169811320755em" y="28.857337870355273em" fill="#aaa"/><rect width="0.9433962264150944em" height="4.327098307011074em" x="8.49056603773585em" y="25.672901692988926em" fill="#aaa"/><rect width="0.9433962264150944em" height="0.01749012976673807em" x="9.433962264150944em" y="29.98250987023326em" fill="#aaa"/><rect width="0.9433962264150944em" height="0.23564760452752168em" x="10.377358490566039em" y="29.76435239547248em" fill="#aaa"/><rect width="0.9433962264150944em" height="4.42621203124em" x="11.320754716981131em" y="25.57378796876em" fill="#aaa"/><rect width="0.9433962264150944em" height="0em" x="12.264150943396226em" y="30em" fill="#aaa"/><rect width="0.9433962264150944em" height="1.5994966668710586em" x="13.20754716981132em" y="28.400503333128942em" fill="#aaa"/><rect width="0.9433962264150944em" height="3.6855816284553113em" x="14.150943396226415em" y="26.31441837154469em" fill="#aaa"/><rect width="0.9433962264150944em" height="4.532602305395568em" x="15.09433962264151em" y="25.467397694604433em" fill="#aaa"/><rect width="0.9433962264150944em" height="0.817468803721513em" x="16.037735849056602em" y="29.182531196278486em" fill="#aaa"/><rect width="0.9433962264150944em" height="2.910133566965213em" x="16.9811320754717em" y="27.089866433034786em" fill="#aaa"/><rect width="0.9433962264150944em" height="1.1261014673824234em" x="17.92452830188679em" y="28.873898532617577em" fill="#aaa"/><rect width="0.9433962264150944em" height="1.3511061128495752em" x="18.867924528301888em" y="28.648893887150425em" fill="#aaa"/><rect width="0.9433962264150944em" height="2.0740442618474617em" x="19.81132075471698em" y="27.92595573815254em" fill="#aaa"/><rect width="0.9433962264150944em" height="1.2195933087499022em" x="20.754716981132077em" y="28.780406691250096em" fill="#aaa"/><rect width="0.9433962264150944em" height="2.3014740465326304em" x="21.69811320754717em" y="27.69852595346737em" fill="#aaa"/><rect width="0.9433962264150944em" height="4.916071490463122em" x="22.641509433962263em" y="25.08392850953688em" fill="#aaa"/><rect width="0.9433962264150944em" height="3.462466902161532em" x="23.58490566037736em" y="26.53753309783847em" fill="#aaa"/><rect width="0.9433962264150944em" height="0em" x="24.528301886792452em" y="30em" fill="#aaa"/><rect width="0.9433962264150944em" height="3.2405083391830614em" x="25.471698113207548em" y="26.759491660816938em" fill="#aaa"/><rect width="0.9433962264150944em" height="2.7744711232590094em" x="26.41509433962264em" y="27.22552887674099em" fill="#aaa"/><rect width="0.9433962264150944em" height="7.144252547742062em" x="27.358490566037737em" y="22.855747452257937em" fill="#aaa"/><rect width="0.9433962264150944em" height="2.2859635412308212em" x="28.30188679245283em" y="27.71403645876918em" fill="#aaa"/><rect width="0.9433962264150944em" height="3.197178779197011em" x="29.245283018867926em" y="26.80282122080299em" fill="#aaa"/><rect width="0.9433962264150944em" height="4.258585247762508em" x="30.18867924528302em" y="25.741414752237493em" fill="#aaa"/><rect width="0.9433962264150944em" height="3.065811140484881em" x="31.132075471698112em" y="26.934188859515118em" fill="#aaa"/><rect width="0.9433962264150944em" height="6.16345316807841em" x="32.075471698113205em" y="23.836546831921588em" fill="#aaa"/><rect width="0.9433962264150944em" height="8.646639242364316em" x="33.0188679245283em" y="21.353360757635684em" fill="#aaa"/><rect width="0.9433962264150944em" height="9.748906081073327em" x="33.9622641509434em" y="20.25109391892667em" fill="#aaa"/><rect width="0.9433962264150944em" height="4.80064976839998em" x="34.905660377358494em" y="25.19935023160002em" fill="#aaa"/><rect width="0.9433962264150944em" height="7.355729175848658em" x="35.84905660377358em" y="22.64427082415134em" fill="#aaa"/><rect width="0.9433962264150944em" height="4.075684282248016em" x="36.79245283018868em" y="25.924315717751984em" fill="#aaa"/><rect width="0.9433962264150944em" height="9.60213996843064em" x="37.735849056603776em" y="20.39786003156936em" fill="#aaa"/><rect width="0.9433962264150944em" height="7.499831385167076em" x="38.679245283018865em" y="22.500168614832923em" fill="#aaa"/><rect width="0.9433962264150944em" height="12.189979961026852em" x="39.62264150943396em" y="17.81002003897315em" fill="#aaa"/><rect width="0.9433962264150944em" height="6.6706483659807105em" x="40.56603773584906em" y="23.32935163401929em" fill="#aaa"/><rect width="0.9433962264150944em" height="5.219541939917788em" x="41.509433962264154em" y="24.78045806008221em" fill="#aaa"/><rect width="0.9433962264150944em" height="7.227590174961558em" x="42.45283018867924em" y="22.77240982503844em" fill="#aaa"/><rect width="0.9433962264150944em" height="6.901841755273711em" x="43.39622641509434em" y="23.09815824472629em" fill="#aaa"/><rect width="0.9433962264150944em" height="7.122258486191637em" x="44.339622641509436em" y="22.877741513808363em" fill="#aaa"/><rect width="0.9433962264150944em" height="10.206700728221737em" x="45.283018867924525em" y="19.793299271778263em" fill="#aaa"/><rect width="0.9433962264150944em" height="24.547169071359093em" x="46.22641509433962em" y="5.452830928640907em" fill="#aaa"/><rect width="0.9433962264150944em" height="6.882510225001556em" x="47.16981132075472em" y="23.117489774998443em" fill="#aaa"/><rect width="0.9433962264150944em" height="15.599601953391813em" x="48.113207547169814em" y="14.400398046608187em" fill="#aaa"/><rect width="0.9433962264150944em" height="30em" x="49.056603773584904em" y="0em" fill="#aaa"/><rect width="0.9433962264150944em" height="8.319540410510921em" x="50em" y="21.68045958948908em" fill="#aaa"/><rect width="0.9433962264150944em" height="12.926457506900615em" x="50.943396226415096em" y="17.073542493099385em" fill="#aaa"/><rect width="0.9433962264150944em" height="17.60113952061749em" x="51.88679245283019em" y="12.39886047938251em" fill="#aaa"/><rect width="0.9433962264150944em" height="27.667162470073425em" x="52.83018867924528em" y="2.332837529926575em" fill="#aaa"/><rect width="0.9433962264150944em" height="13.253746878991876em" x="53.77358490566038em" y="16.746253121008124em" fill="#aaa"/><rect width="0.9433962264150944em" height="13.782464080982084em" x="54.716981132075475em" y="16.217535919017916em" fill="#aaa"/><rect width="0.9433962264150944em" height="10.248789159114656em" x="55.660377358490564em" y="19.751210840885342em" fill="#aaa"/><rect width="0.9433962264150944em" height="5.967098064875234em" x="56.60377358490566em" y="24.032901935124766em" fill="#aaa"/><rect width="0.9433962264150944em" height="18.329021608829777em" x="57.54716981132076em" y="11.670978391170223em" fill="#aaa"/><rect width="0.9433962264150944em" height="4.589493402296259em" x="58.49056603773585em" y="25.41050659770374em" fill="#aaa"/><rect width="0.9433962264150944em" height="13.623239022626807em" x="59.43396226415094em" y="16.376760977373195em" fill="#aaa"/><rect width="0.9433962264150944em" height="5.102796491559359em" x="60.37735849056604em" y="24.89720350844064em" fill="#aaa"/><rect width="0.9433962264150944em" height="17.883296568225305em" x="61.320754716981135em" y="12.116703431774695em" fill="#aaa"/><rect width="0.9433962264150944em" height="10.244037093297996em" x="62.264150943396224em" y="19.755962906702003em" fill="#aaa"/><rect width="0.9433962264150944em" height="6.184088892677508em" x="63.20754716981132em" y="23.815911107322492em" fill="#aaa"/><rect width="0.9433962264150944em" height="11.819436163149845em" x="64.15094339622641em" y="18.180563836850155em" fill="#aaa"/><rect width="0.9433962264150944em" height="7.987009174999323em" x="65.09433962264151em" y="22.012990825000678em" fill="#aaa"/><rect width="0.9433962264150944em" height="7.806605346029504em" x="66.0377358490566em" y="22.193394653970497em" fill="#aaa"/><rect width="0.9433962264150944em" height="6.6057369660195215em" x="66.9811320754717em" y="23.39426303398048em" fill="#aaa"/><rect width="0.9433962264150944em" height="2.5416450472876493em" x="67.9245283018868em" y="27.45835495271235em" fill="#aaa"/><rect width="0.9433962264150944em" height="6.238980599063095em" x="68.86792452830188em" y="23.761019400936906em" fill="#aaa"/><rect width="0.9433962264150944em" height="5.802220443952171em" x="69.81132075471699em" y="24.197779556047827em" fill="#aaa"/><rect width="0.9433962264150944em" height="7.354949332870371em" x="70.75471698113208em" y="22.64505066712963em" fill="#aaa"/><rect width="0.9433962264150944em" height="6.690810042855347em" x="71.69811320754717em" y="23.309189957144653em" fill="#aaa"/><rect width="0.9433962264150944em" height="2.8100453401778207em" x="72.64150943396227em" y="27.189954659822178em" fill="#aaa"/><rect width="0.9433962264150944em" height="1.9969913519065077em" x="73.58490566037736em" y="28.00300864809349em" fill="#aaa"/><rect width="0.9433962264150944em" height="4.064974655373073em" x="74.52830188679245em" y="25.93502534462693em" fill="#aaa"/><rect width="0.9433962264150944em" height="1.9438367633826044em" x="75.47169811320755em" y="28.056163236617394em" fill="#aaa"/><rect width="0.9433962264150944em" height="10.180202402160647em" x="76.41509433962264em" y="19.819797597839354em" fill="#aaa"/><rect width="0.9433962264150944em" height="5.919157628361715em" x="77.35849056603773em" y="24.080842371638283em" fill="#aaa"/><rect width="0.9433962264150944em" height="3.8731692606268107em" x="78.30188679245283em" y="26.12683073937319em" fill="#aaa"/><rect width="0.9433962264150944em" height="3.640015237031439em" x="79.24528301886792em" y="26.359984762968562em" fill="#aaa"/><rect width="0.9433962264150944em" height="1.988013977464953em" x="80.18867924528303em" y="28.011986022535048em" fill="#aaa"/><rect width="0.9433962264150944em" height="2.540835632746848em" x="81.13207547169812em" y="27.459164367253152em" fill="#aaa"/><rect width="0.9433962264150944em" height="5.131266198323511em" x="82.0754716981132em" y="24.86873380167649em" fill="#aaa"/><rect width="0.9433962264150944em" height="2.0508115673355416em" x="83.01886792452831em" y="27.949188432664457em" fill="#aaa"/><rect width="0.9433962264150944em" height="5.825715813253696em" x="83.9622641509434em" y="24.174284186746306em" fill="#aaa"/><rect width="0.9433962264150944em" height="4.279181069550869em" x="84.90566037735849em" y="25.72081893044913em" fill="#aaa"/><rect width="0.9433962264150944em" height="3.4748390686489734em" x="85.84905660377359em" y="26.525160931351028em" fill="#aaa"/><rect width="0.9433962264150944em" height="6.2767648601975266em" x="86.79245283018868em" y="23.723235139802473em" fill="#aaa"/><rect width="0.9433962264150944em" height="2.4988726436161155em" x="87.73584905660377em" y="27.501127356383883em" fill="#aaa"/><rect width="0.9433962264150944em" height="4.9438578717269115em" x="88.67924528301887em" y="25.056142128273088em" fill="#aaa"/><rect width="0.9433962264150944em" height="4.832145625796947em" x="89.62264150943396em" y="25.167854374203053em" fill="#aaa"/><rect width="0.9433962264150944em" height="2.4865951767326173em" x="90.56603773584905em" y="27.513404823267383em" fill="#aaa"/><rect width="0.9433962264150944em" height="3.1887807935895154em" x="91.50943396226415em" y="26.811219206410485em" fill="#aaa"/><rect width="0.9433962264150944em" height="4.214909978174907em" x="92.45283018867924em" y="25.78509002182509em" fill="#aaa"/><rect width="0.9433962264150944em" height="3.678583960267746em" x="93.39622641509435em" y="26.321416039732256em" fill="#aaa"/><rect width="0.9433962264150944em" height="7.840505329087689em" x="94.33962264150944em" y="22.15949467091231em" fill="#aaa"/><rect width="0.9433962264150944em" height="7.705358735794446em" x="95.28301886792453em" y="22.294641264205552em" fill="#aaa"/><rect width="0.9433962264150944em" height="5.578747162373652em" x="96.22641509433963em" y="24.421252837626348em" fill="#aaa"/><rect width="0.9433962264150944em" height="2.7712249234353585em" x="97.16981132075472em" y="27.22877507656464em" fill="#aaa"/><rect width="0.9433962264150944em" height="1.81809385420643em" x="98.11320754716981em" y="28.18190614579357em" fill="#aaa"/><rect width="0.9433962264150944em" height="1.5931174263904033em" x="99.05660377358491em" y="28.406882573609597em" fill="#aaa"/></svg>