<?xml version="1.0" standalone="no"?>
<svg xmlns:xlink="http://www.w3.org/1999/xlink" xmlns="http://www.w3.org/2000/svg" class="topic-graph" style="width: 100em; height: 30em; text-align: center;"><rect width="0.9433962264150944em" height="9.416459256077864em" x="0em" y="20.583540743922136em" fill="#aaa"/><rect width="0.9433962264150944em" height="8.547162112843738em" x="0.9433962264150944em" y="21.452837887156264em" fill="#aaa"/><rect width="0.9433962264150944em" height="1.3883859126438813em" x="1.8867924528301887em" y="28.61161408735612em" fill="#aaa"/><rect width="0.9433962264150944em" height="2.8600005306594136em" x="2.830188679245283em" y="27.139999469340587em" fill="#aaa"/><rect width="0.9433962264150944em" height="4.478787791746492em" x="3.7735849056603774em" y="25.52121220825351em" fill="#aaa"/><rect width="0.9433962264150944em" height="4.1718025292690815em" x="4.716981132075472em" y="25.82819747073092em" fill="#aaa"/><rect width="0.9433962264150944em" height="4.3461623861588485em" x="5.660377358490566em" y="25.65383761384115em" fill="#aaa"/><rect width="0.9433962264150944em" height="2.6729682720431542em" x="6.60377358490566em" y="27.327031727956847em" fill="#aaa"/><rect width="0.9433962264150944em" height="15.475451273902648em" x="7.547169811320755em" y="14.524548726097352em" fill="#aaa"/><rect width="0.9433962264150944em" height="13.585485033222104em" x="8.49056603773585em" y="16.414514966777894em" fill="#aaa"/><rect width="0.9433962264150944em" height="7.7962516031667em" x="9.433962264150944em" y="22.203748396833298em" fill="#aaa"/><rect width="0.9433962264150944em" height="6.276183932687112em" x="10.377358490566039em" y="23.72381606731289em" fill="#aaa"/><rect width="0.9433962264150944em" height="3.4714754022101886em" x="11.320754716981131em" y="26.52852459778981em" fill="#aaa"/><rect width="0.9433962264150944em" height="0em" x="12.264150943396226em" y="30em" fill="#aaa"/><rect width="0.9433962264150944em" height="12.377014242100074em" x="13.20754716981132em" y="17.622985757899926em" fill="#aaa"/><rect width="0.9433962264150944em" height="18.563165305832808em" x="14.150943396226415em" y="11.436834694167192em" fill="#aaa"/><rect width="0.9433962264150944em" height="5.404751354173701em" x="15.09433962264151em" y="24.5952486458263em" fill="#aaa"/><rect width="0.9433962264150944em" height="4.3968322124176495em" x="16.037735849056602em" y="25.60316778758235em" fill="#aaa"/><rect width="0.9433962264150944em" height="7.724952281928774em" x="16.9811320754717em" y="22.275047718071228em" fill="#aaa"/><rect width="0.9433962264150944em" height="9.40216185341467em" x="17.92452830188679em" y="20.59783814658533em" fill="#aaa"/><rect width="0.9433962264150944em" height="17.377880583364636em" x="18.867924528301888em" y="12.622119416635364em" fill="#aaa"/><rect width="0.9433962264150944em" height="6.3597975099454525em" x="19.81132075471698em" y="23.64020249005455em" fill="#aaa"/><rect width="0.9433962264150944em" height="9.705101433138948em" x="20.754716981132077em" y="20.29489856686105em" fill="#aaa"/><rect width="0.9433962264150944em" height="14.05526590733947em" x="21.69811320754717em" y="15.94473409266053em" fill="#aaa"/><rect width="0.9433962264150944em" height="5.372702714119284em" x="22.641509433962263em" y="24.627297285880715em" fill="#aaa"/><rect width="0.9433962264150944em" height="16.475862339141074em" x="23.58490566037736em" y="13.524137660858926em" fill="#aaa"/><rect width="0.9433962264150944em" height="0em" x="24.528301886792452em" y="30em" fill="#aaa"/><rect width="0.9433962264150944em" height="5.052526076354776em" x="25.471698113207548em" y="24.947473923645223em" fill="#aaa"/><rect width="0.9433962264150944em" height="5.972032623152759em" x="26.41509433962264em" y="24.02796737684724em" fill="#aaa"/><rect width="0.9433962264150944em" height="7.383448545866882em" x="27.358490566037737em" y="22.616551454133116em" fill="#aaa"/><rect width="0.9433962264150944em" height="13.784347734772487em" x="28.30188679245283em" y="16.21565226522751em" fill="#aaa"/><rect width="0.9433962264150944em" height="12.076036317989129em" x="29.245283018867926em" y="17.92396368201087em" fill="#aaa"/><rect width="0.9433962264150944em" height="8.071023142531592em" x="30.18867924528302em" y="21.928976857468406em" fill="#aaa"/><rect width="0.9433962264150944em" height="9.46831126604936em" x="31.132075471698112em" y="20.531688733950638em" fill="#aaa"/><rect width="0.9433962264150944em" height="16.406010005766156em" x="32.075471698113205em" y="13.593989994233844em" fill="#aaa"/><rect width="0.9433962264150944em" height="22.73357775644395em" x="33.0188679245283em" y="7.26642224355605em" fill="#aaa"/><rect width="0.9433962264150944em" height="13.110371780401554em" x="33.9622641509434em" y="16.889628219598446em" fill="#aaa"/><rect width="0.9433962264150944em" height="10.372841132457978em" x="34.905660377358494em" y="19.627158867542022em" fill="#aaa"/><rect width="0.9433962264150944em" height="8.445369520941007em" x="35.84905660377358em" y="21.554630479058993em" fill="#aaa"/><rect width="0.9433962264150944em" height="7.2596477915167235em" x="36.79245283018868em" y="22.740352208483277em" fill="#aaa"/><rect width="0.9433962264150944em" height="13.140678531740868em" x="37.735849056603776em" y="16.859321468259132em" fill="#aaa"/><rect width="0.9433962264150944em" height="14.87099357340375em" x="38.679245283018865em" y="15.12900642659625em" fill="#aaa"/><rect width="0.9433962264150944em" height="8.044375952410249em" x="39.62264150943396em" y="21.95562404758975em" fill="#aaa"/><rect width="0.9433962264150944em" height="7.392916563744935em" x="40.56603773584906em" y="22.607083436255067em" fill="#aaa"/><rect width="0.9433962264150944em" height="7.461520404514676em" x="41.509433962264154em" y="22.538479595485324em" fill="#aaa"/><rect width="0.9433962264150944em" height="8.696752715298294em" x="42.45283018867924em" y="21.303247284701705em" fill="#aaa"/><rect width="0.9433962264150944em" height="10.672488271654174em" x="43.39622641509434em" y="19.327511728345826em" fill="#aaa"/><rect width="0.9433962264150944em" height="12.38254017932181em" x="44.339622641509436em" y="17.617459820678192em" fill="#aaa"/><rect width="0.9433962264150944em" height="12.261169633617278em" x="45.283018867924525em" y="17.73883036638272em" fill="#aaa"/><rect width="0.9433962264150944em" height="14.507770117284776em" x="46.22641509433962em" y="15.492229882715224em" fill="#aaa"/><rect width="0.9433962264150944em" height="12.338859510890439em" x="47.16981132075472em" y="17.661140489109563em" fill="#aaa"/><rect width="0.9433962264150944em" height="10.98982223942718em" x="48.113207547169814em" y="19.01017776057282em" fill="#aaa"/><rect width="0.9433962264150944em" height="5.545250646653194em" x="49.056603773584904em" y="24.454749353346806em" fill="#aaa"/><rect width="0.9433962264150944em" height="9.957812895414493em" x="50em" y="20.04218710458551em" fill="#aaa"/><rect width="0.9433962264150944em" height="9.999810792137508em" x="50.943396226415096em" y="20.00018920786249em" fill="#aaa"/><rect width="0.9433962264150944em" height="6.027348849077456em" x="51.88679245283019em" y="23.972651150922545em" fill="#aaa"/><rect width="0.9433962264150944em" height="6.709343275982697em" x="52.83018867924528em" y="23.290656724017303em" fill="#aaa"/><rect width="0.9433962264150944em" height="6.328812984934311em" x="53.77358490566038em" y="23.67118701506569em" fill="#aaa"/><rect width="0.9433962264150944em" height="8.603528155743193em" x="54.716981132075475em" y="21.39647184425681em" fill="#aaa"/><rect width="0.9433962264150944em" height="12.130564003679297em" x="55.660377358490564em" y="17.869435996320703em" fill="#aaa"/><rect width="0.9433962264150944em" height="15.814467356819645em" x="56.60377358490566em" y="14.185532643180355em" fill="#aaa"/><rect width="0.9433962264150944em" height="12.16951096822252em" x="57.54716981132076em" y="17.830489031777482em" fill="#aaa"/><rect width="0.9433962264150944em" height="16.33788539226853em" x="58.49056603773585em" y="13.662114607731471em" fill="#aaa"/><rect width="0.9433962264150944em" height="11.702797547387183em" x="59.43396226415094em" y="18.297202452612815em" fill="#aaa"/><rect width="0.9433962264150944em" height="13.573160156616995em" x="60.37735849056604em" y="16.426839843383007em" fill="#aaa"/><rect width="0.9433962264150944em" height="15.867423888527084em" x="61.320754716981135em" y="14.132576111472916em" fill="#aaa"/><rect width="0.9433962264150944em" height="10.102809149143196em" x="62.264150943396224em" y="19.897190850856802em" fill="#aaa"/><rect width="0.9433962264150944em" height="8.356598029449348em" x="63.20754716981132em" y="21.643401970550652em" fill="#aaa"/><rect width="0.9433962264150944em" height="7.970531027845133em" x="64.15094339622641em" y="22.029468972154866em" fill="#aaa"/><rect width="0.9433962264150944em" height="12.255258906350836em" x="65.09433962264151em" y="17.744741093649164em" fill="#aaa"/><rect width="0.9433962264150944em" height="20.7387803460358em" x="66.0377358490566em" y="9.2612196539642em" fill="#aaa"/><rect width="0.9433962264150944em" height="13.227220485701896em" x="66.9811320754717em" y="16.772779514298104em" fill="#aaa"/><rect width="0.9433962264150944em" height="19.579680047498485em" x="67.9245283018868em" y="10.420319952501515em" fill="#aaa"/><rect width="0.9433962264150944em" height="15.654455180910158em" x="68.86792452830188em" y="14.345544819089842em" fill="#aaa"/><rect width="0.9433962264150944em" height="15.382108696647878em" x="69.81132075471699em" y="14.617891303352122em" fill="#aaa"/><rect width="0.9433962264150944em" height="14.235326636775499em" x="70.75471698113208em" y="15.764673363224501em" fill="#aaa"/><rect width="0.9433962264150944em" height="17.098004500531733em" x="71.69811320754717em" y="12.901995499468267em" fill="#aaa"/><rect width="0.9433962264150944em" height="13.183564804318873em" x="72.64150943396227em" y="16.816435195681127em" fill="#aaa"/><rect width="0.9433962264150944em" height="5.610004615621674em" x="73.58490566037736em" y="24.389995384378327em" fill="#aaa"/><rect width="0.9433962264150944em" height="7.320216369667262em" x="74.52830188679245em" y="22.679783630332736em" fill="#aaa"/><rect width="0.9433962264150944em" height="8.073476597948137em" x="75.47169811320755em" y="21.926523402051863em" fill="#aaa"/><rect width="0.9433962264150944em" height="6.612116582754814em" x="76.41509433962264em" y="23.387883417245185em" fill="#aaa"/><rect width="0.9433962264150944em" height="10.488601907335878em" x="77.35849056603773em" y="19.511398092664123em" fill="#aaa"/><rect width="0.9433962264150944em" height="14.66884098629297em" x="78.30188679245283em" y="15.33115901370703em" fill="#aaa"/><rect width="0.9433962264150944em" height="9.470553055720822em" x="79.24528301886792em" y="20.52944694427918em" fill="#aaa"/><rect width="0.9433962264150944em" height="9.662480291701131em" x="80.18867924528303em" y="20.33751970829887em" fill="#aaa"/><rect width="0.9433962264150944em" height="8.781694787669933em" x="81.13207547169812em" y="21.218305212330066em" fill="#aaa"/><rect width="0.9433962264150944em" height="16.1251889456821em" x="82.0754716981132em" y="13.874811054317899em" fill="#aaa"/><rect width="0.9433962264150944em" height="14.787273147783733em" x="83.01886792452831em" y="15.212726852216267em" fill="#aaa"/><rect width="0.9433962264150944em" height="16.346073233963224em" x="83.9622641509434em" y="13.653926766036776em" fill="#aaa"/><rect width="0.9433962264150944em" height="10.594174883632192em" x="84.90566037735849em" y="19.405825116367808em" fill="#aaa"/><rect width="0.9433962264150944em" height="11.457057539246412em" x="85.84905660377359em" y="18.542942460753586em" fill="#aaa"/><rect width="0.9433962264150944em" height="9.24106835605808em" x="86.79245283018868em" y="20.75893164394192em" fill="#aaa"/><rect width="0.9433962264150944em" height="15.481860374141474em" x="87.73584905660377em" y="14.518139625858526em" fill="#aaa"/><rect width="0.9433962264150944em" height="20.318596118431458em" x="88.67924528301887em" y="9.681403881568542em" fill="#aaa"/><rect width="0.9433962264150944em" height="14.91848199795283em" x="89.62264150943396em" y="15.08151800204717em" fill="#aaa"/><rect width="0.9433962264150944em" height="30em" x="90.56603773584905em" y="0em" fill="#aaa"/><rect width="0.9433962264150944em" height="17.37565435063295em" x="91.50943396226415em" y="12.62434564936705em" fill="#aaa"/><rect width="0.9433962264150944em" height="12.855556163372432em" x="92.45283018867924em" y="17.144443836627566em" fill="#aaa"/><rect width="0.9433962264150944em" height="11.949494232165605em" x="93.39622641509435em" y="18.050505767834395em" fill="#aaa"/><rect width="0.9433962264150944em" height="8.474182954417962em" x="94.33962264150944em" y="21.525817045582038em" fill="#aaa"/><rect width="0.9433962264150944em" height="10.81042930400563em" x="95.28301886792453em" y="19.18957069599437em" fill="#aaa"/><rect width="0.9433962264150944em" height="9.946650551818854em" x="96.22641509433963em" y="20.053349448181145em" fill="#aaa"/><rect width="0.9433962264150944em" height="9.531515423332554em" x="97.16981132075472em" y="20.468484576667446em" fill="#aaa"/><rect width="0.9433962264150944em" height="9.758365662828858em" x="98.11320754716981em" y="20.241634337171142em" fill="#aaa"/><rect width="0.9433962264150944em" height="10.043637658049414em" x="99.05660377358491em" y="19.956362341950587em" fill="#aaa"/></svg>