<?xml version="1.0" standalone="no"?>
<svg xmlns:xlink="http://www.w3.org/1999/xlink" xmlns="http://www.w3.org/2000/svg" class="topic-graph" style="width: 100em; height: 30em; text-align: center;"><rect width="0.9433962264150944em" height="0.37838430812571594em" x="0em" y="29.621615691874283em" fill="#aaa"/><rect width="0.9433962264150944em" height="11.084108677298643em" x="0.9433962264150944em" y="18.915891322701356em" fill="#aaa"/><rect width="0.9433962264150944em" height="3.18273333889792em" x="1.8867924528301887em" y="26.81726666110208em" fill="#aaa"/><rect width="0.9433962264150944em" height="1.071065725455749em" x="2.830188679245283em" y="28.92893427454425em" fill="#aaa"/><rect width="0.9433962264150944em" height="1.9073234945853161em" x="3.7735849056603774em" y="28.092676505414683em" fill="#aaa"/><rect width="0.9433962264150944em" height="1.4965951758700624em" x="4.716981132075472em" y="28.503404824129937em" fill="#aaa"/><rect width="0.9433962264150944em" height="1.3165118968106408em" x="5.660377358490566em" y="28.683488103189358em" fill="#aaa"/><rect width="0.9433962264150944em" height="0.16897291348818777em" x="6.60377358490566em" y="29.831027086511813em" fill="#aaa"/><rect width="0.9433962264150944em" height="0.38794582879485273em" x="7.547169811320755em" y="29.61205417120515em" fill="#aaa"/><rect width="0.9433962264150944em" height="0.6755262588428915em" x="8.49056603773585em" y="29.32447374115711em" fill="#aaa"/><rect width="0.9433962264150944em" height="1.469033046535779em" x="9.433962264150944em" y="28.530966953464223em" fill="#aaa"/><rect width="0.9433962264150944em" height="0.23295990512518483em" x="10.377358490566039em" y="29.767040094874815em" fill="#aaa"/><rect width="0.9433962264150944em" height="1.0378423945572481em" x="11.320754716981131em" y="28.96215760544275em" fill="#aaa"/><rect width="0.9433962264150944em" height="0em" x="12.264150943396226em" y="30em" fill="#aaa"/><rect width="0.9433962264150944em" height="1.4819705485299597em" x="13.20754716981132em" y="28.518029451470042em" fill="#aaa"/><rect width="0.9433962264150944em" height="0.6119914254093193em" x="14.150943396226415em" y="29.388008574590682em" fill="#aaa"/><rect width="0.9433962264150944em" height="0.7483156270389614em" x="15.09433962264151em" y="29.251684372961037em" fill="#aaa"/><rect width="0.9433962264150944em" height="0.7171786772631445em" x="16.037735849056602em" y="29.282821322736854em" fill="#aaa"/><rect width="0.9433962264150944em" height="0.41075321363207196em" x="16.9811320754717em" y="29.589246786367926em" fill="#aaa"/><rect width="0.9433962264150944em" height="0.459218193585772em" x="17.92452830188679em" y="29.540781806414227em" fill="#aaa"/><rect width="0.9433962264150944em" height="1.300281940102055em" x="18.867924528301888em" y="28.699718059897947em" fill="#aaa"/><rect width="0.9433962264150944em" height="0.3574500341072802em" x="19.81132075471698em" y="29.64254996589272em" fill="#aaa"/><rect width="0.9433962264150944em" height="1.2859255764556314em" x="20.754716981132077em" y="28.714074423544368em" fill="#aaa"/><rect width="0.9433962264150944em" height="0.7495825614061872em" x="21.69811320754717em" y="29.250417438593814em" fill="#aaa"/><rect width="0.9433962264150944em" height="0.22607543777263314em" x="22.641509433962263em" y="29.773924562227368em" fill="#aaa"/><rect width="0.9433962264150944em" height="0.1878925040148447em" x="23.58490566037736em" y="29.812107495985156em" fill="#aaa"/><rect width="0.9433962264150944em" height="0em" x="24.528301886792452em" y="30em" fill="#aaa"/><rect width="0.9433962264150944em" height="1.0189142370728126em" x="25.471698113207548em" y="28.981085762927187em" fill="#aaa"/><rect width="0.9433962264150944em" height="0.9940111351712688em" x="26.41509433962264em" y="29.00598886482873em" fill="#aaa"/><rect width="0.9433962264150944em" height="0.7128002124262923em" x="27.358490566037737em" y="29.28719978757371em" fill="#aaa"/><rect width="0.9433962264150944em" height="0.47148691297336864em" x="28.30188679245283em" y="29.52851308702663em" fill="#aaa"/><rect width="0.9433962264150944em" height="0.661310651703206em" x="29.245283018867926em" y="29.338689348296793em" fill="#aaa"/><rect width="0.9433962264150944em" height="0.36001676892940143em" x="30.18867924528302em" y="29.639983231070598em" fill="#aaa"/><rect width="0.9433962264150944em" height="0.6510550489439944em" x="31.132075471698112em" y="29.348944951056005em" fill="#aaa"/><rect width="0.9433962264150944em" height="0.3287930929931792em" x="32.075471698113205em" y="29.67120690700682em" fill="#aaa"/><rect width="0.9433962264150944em" height="0.26017212539174095em" x="33.0188679245283em" y="29.73982787460826em" fill="#aaa"/><rect width="0.9433962264150944em" height="1.0434429097293612em" x="33.9622641509434em" y="28.95655709027064em" fill="#aaa"/><rect width="0.9433962264150944em" height="0.47455190295869637em" x="34.905660377358494em" y="29.525448097041302em" fill="#aaa"/><rect width="0.9433962264150944em" height="0.8077741580561411em" x="35.84905660377358em" y="29.19222584194386em" fill="#aaa"/><rect width="0.9433962264150944em" height="0.7929077599130814em" x="36.79245283018868em" y="29.20709224008692em" fill="#aaa"/><rect width="0.9433962264150944em" height="1.5109076094533902em" x="37.735849056603776em" y="28.48909239054661em" fill="#aaa"/><rect width="0.9433962264150944em" height="0.3037919059412569em" x="38.679245283018865em" y="29.696208094058743em" fill="#aaa"/><rect width="0.9433962264150944em" height="0.8966550740818016em" x="39.62264150943396em" y="29.103344925918197em" fill="#aaa"/><rect width="0.9433962264150944em" height="1.102050225490625em" x="40.56603773584906em" y="28.897949774509375em" fill="#aaa"/><rect width="0.9433962264150944em" height="1.6314924963809203em" x="41.509433962264154em" y="28.368507503619078em" fill="#aaa"/><rect width="0.9433962264150944em" height="0.7448234518317378em" x="42.45283018867924em" y="29.25517654816826em" fill="#aaa"/><rect width="0.9433962264150944em" height="2.4882578781123024em" x="43.39622641509434em" y="27.511742121887696em" fill="#aaa"/><rect width="0.9433962264150944em" height="4.317378295089721em" x="44.339622641509436em" y="25.68262170491028em" fill="#aaa"/><rect width="0.9433962264150944em" height="0.5180389704063094em" x="45.283018867924525em" y="29.48196102959369em" fill="#aaa"/><rect width="0.9433962264150944em" height="1.6103702793826962em" x="46.22641509433962em" y="28.389629720617304em" fill="#aaa"/><rect width="0.9433962264150944em" height="0.8538035450513158em" x="47.16981132075472em" y="29.146196454948683em" fill="#aaa"/><rect width="0.9433962264150944em" height="1.0697821251919244em" x="48.113207547169814em" y="28.930217874808076em" fill="#aaa"/><rect width="0.9433962264150944em" height="0.6544414535394665em" x="49.056603773584904em" y="29.345558546460534em" fill="#aaa"/><rect width="0.9433962264150944em" height="0.8911500322083038em" x="50em" y="29.108849967791695em" fill="#aaa"/><rect width="0.9433962264150944em" height="1.0634247849438476em" x="50.943396226415096em" y="28.936575215056152em" fill="#aaa"/><rect width="0.9433962264150944em" height="1.573719126292991em" x="51.88679245283019em" y="28.426280873707007em" fill="#aaa"/><rect width="0.9433962264150944em" height="0.661952242297543em" x="52.83018867924528em" y="29.33804775770246em" fill="#aaa"/><rect width="0.9433962264150944em" height="0.7979113249519594em" x="53.77358490566038em" y="29.202088675048042em" fill="#aaa"/><rect width="0.9433962264150944em" height="1.0867204084571984em" x="54.716981132075475em" y="28.913279591542803em" fill="#aaa"/><rect width="0.9433962264150944em" height="1.9901335221669607em" x="55.660377358490564em" y="28.00986647783304em" fill="#aaa"/><rect width="0.9433962264150944em" height="2.702749444673697em" x="56.60377358490566em" y="27.297250555326304em" fill="#aaa"/><rect width="0.9433962264150944em" height="1.592719911187799em" x="57.54716981132076em" y="28.4072800888122em" fill="#aaa"/><rect width="0.9433962264150944em" height="1.7517630774355033em" x="58.49056603773585em" y="28.248236922564498em" fill="#aaa"/><rect width="0.9433962264150944em" height="0.5718234361982333em" x="59.43396226415094em" y="29.428176563801767em" fill="#aaa"/><rect width="0.9433962264150944em" height="1.0020228973223169em" x="60.37735849056604em" y="28.997977102677684em" fill="#aaa"/><rect width="0.9433962264150944em" height="1.1713645597721394em" x="61.320754716981135em" y="28.82863544022786em" fill="#aaa"/><rect width="0.9433962264150944em" height="2.266355364991212em" x="62.264150943396224em" y="27.733644635008787em" fill="#aaa"/><rect width="0.9433962264150944em" height="1.185702844716628em" x="63.20754716981132em" y="28.814297155283374em" fill="#aaa"/><rect width="0.9433962264150944em" height="1.3685148976847015em" x="64.15094339622641em" y="28.6314851023153em" fill="#aaa"/><rect width="0.9433962264150944em" height="2.1153421949471887em" x="65.09433962264151em" y="27.88465780505281em" fill="#aaa"/><rect width="0.9433962264150944em" height="3.1097308452553434em" x="66.0377358490566em" y="26.890269154744658em" fill="#aaa"/><rect width="0.9433962264150944em" height="1.2992281294846317em" x="66.9811320754717em" y="28.700771870515368em" fill="#aaa"/><rect width="0.9433962264150944em" height="0.9691542726116332em" x="67.9245283018868em" y="29.030845727388368em" fill="#aaa"/><rect width="0.9433962264150944em" height="2.525126972297768em" x="68.86792452830188em" y="27.47487302770223em" fill="#aaa"/><rect width="0.9433962264150944em" height="3.4664546259561937em" x="69.81132075471699em" y="26.533545374043808em" fill="#aaa"/><rect width="0.9433962264150944em" height="2.6930773998053628em" x="70.75471698113208em" y="27.30692260019464em" fill="#aaa"/><rect width="0.9433962264150944em" height="1.5064609147666561em" x="71.69811320754717em" y="28.493539085233344em" fill="#aaa"/><rect width="0.9433962264150944em" height="10.12670024614234em" x="72.64150943396227em" y="19.87329975385766em" fill="#aaa"/><rect width="0.9433962264150944em" height="3.10748218179254em" x="73.58490566037736em" y="26.89251781820746em" fill="#aaa"/><rect width="0.9433962264150944em" height="6.186327568621681em" x="74.52830188679245em" y="23.81367243137832em" fill="#aaa"/><rect width="0.9433962264150944em" height="10.34045159201901em" x="75.47169811320755em" y="19.659548407980992em" fill="#aaa"/><rect width="0.9433962264150944em" height="11.378984669428812em" x="76.41509433962264em" y="18.62101533057119em" fill="#aaa"/><rect width="0.9433962264150944em" height="30em" x="77.35849056603773em" y="0em" fill="#aaa"/><rect width="0.9433962264150944em" height="16.63449335963338em" x="78.30188679245283em" y="13.365506640366618em" fill="#aaa"/><rect width="0.9433962264150944em" height="9.927338834523004em" x="79.24528301886792em" y="20.072661165476994em" fill="#aaa"/><rect width="0.9433962264150944em" height="9.596007063189788em" x="80.18867924528303em" y="20.403992936810212em" fill="#aaa"/><rect width="0.9433962264150944em" height="6.947716943425896em" x="81.13207547169812em" y="23.052283056574105em" fill="#aaa"/><rect width="0.9433962264150944em" height="7.304656952125018em" x="82.0754716981132em" y="22.69534304787498em" fill="#aaa"/><rect width="0.9433962264150944em" height="10.9896926972586em" x="83.01886792452831em" y="19.0103073027414em" fill="#aaa"/><rect width="0.9433962264150944em" height="10.601324150544231em" x="83.9622641509434em" y="19.39867584945577em" fill="#aaa"/><rect width="0.9433962264150944em" height="6.501413860106755em" x="84.90566037735849em" y="23.498586139893245em" fill="#aaa"/><rect width="0.9433962264150944em" height="12.81909743384741em" x="85.84905660377359em" y="17.18090256615259em" fill="#aaa"/><rect width="0.9433962264150944em" height="21.741547391403707em" x="86.79245283018868em" y="8.258452608596293em" fill="#aaa"/><rect width="0.9433962264150944em" height="10.03634460307042em" x="87.73584905660377em" y="19.963655396929582em" fill="#aaa"/><rect width="0.9433962264150944em" height="11.620196181485232em" x="88.67924528301887em" y="18.379803818514766em" fill="#aaa"/><rect width="0.9433962264150944em" height="11.682706588031715em" x="89.62264150943396em" y="18.317293411968286em" fill="#aaa"/><rect width="0.9433962264150944em" height="9.4530828432718em" x="90.56603773584905em" y="20.5469171567282em" fill="#aaa"/><rect width="0.9433962264150944em" height="7.860013875030831em" x="91.50943396226415em" y="22.13998612496917em" fill="#aaa"/><rect width="0.9433962264150944em" height="11.674046529020915em" x="92.45283018867924em" y="18.325953470979087em" fill="#aaa"/><rect width="0.9433962264150944em" height="5.751797705824233em" x="93.39622641509435em" y="24.24820229417577em" fill="#aaa"/><rect width="0.9433962264150944em" height="5.005076304604895em" x="94.33962264150944em" y="24.994923695395105em" fill="#aaa"/><rect width="0.9433962264150944em" height="8.279707200487724em" x="95.28301886792453em" y="21.720292799512276em" fill="#aaa"/><rect width="0.9433962264150944em" height="7.00285418153836em" x="96.22641509433963em" y="22.99714581846164em" fill="#aaa"/><rect width="0.9433962264150944em" height="7.263876553387006em" x="97.16981132075472em" y="22.736123446612993em" fill="#aaa"/><rect width="0.9433962264150944em" height="5.242616468784872em" x="98.11320754716981em" y="24.757383531215126em" fill="#aaa"/><rect width="0.9433962264150944em" height="3.166479704345504em" x="99.05660377358491em" y="26.833520295654495em" fill="#aaa"/></svg>