<?xml version="1.0" standalone="no"?>
<svg xmlns:xlink="http://www.w3.org/1999/xlink" xmlns="http://www.w3.org/2000/svg" class="topic-graph" style="width: 100em; height: 30em; text-align: center;"><rect width="0.9433962264150944em" height="0.05705826032801791em" x="0em" y="29.942941739671983em" fill="#aaa"/><rect width="0.9433962264150944em" height="1.3115667367258308em" x="0.9433962264150944em" y="28.68843326327417em" fill="#aaa"/><rect width="0.9433962264150944em" height="1.448865306672702em" x="1.8867924528301887em" y="28.5511346933273em" fill="#aaa"/><rect width="0.9433962264150944em" height="7.181171126342884em" x="2.830188679245283em" y="22.818828873657118em" fill="#aaa"/><rect width="0.9433962264150944em" height="0.2571874281773557em" x="3.7735849056603774em" y="29.742812571822643em" fill="#aaa"/><rect width="0.9433962264150944em" height="3.9745121773743866em" x="4.716981132075472em" y="26.025487822625614em" fill="#aaa"/><rect width="0.9433962264150944em" height="0.04824265074867385em" x="5.660377358490566em" y="29.951757349251327em" fill="#aaa"/><rect width="0.9433962264150944em" height="0.29811076042111945em" x="6.60377358490566em" y="29.70188923957888em" fill="#aaa"/><rect width="0.9433962264150944em" height="1.2209223281281756em" x="7.547169811320755em" y="28.779077671871825em" fill="#aaa"/><rect width="0.9433962264150944em" height="1.0058691725523283em" x="8.49056603773585em" y="28.994130827447673em" fill="#aaa"/><rect width="0.9433962264150944em" height="0.18519255269431226em" x="9.433962264150944em" y="29.81480744730569em" fill="#aaa"/><rect width="0.9433962264150944em" height="2.2228412537981415em" x="10.377358490566039em" y="27.77715874620186em" fill="#aaa"/><rect width="0.9433962264150944em" height="1.8334885341263791em" x="11.320754716981131em" y="28.166511465873622em" fill="#aaa"/><rect width="0.9433962264150944em" height="0em" x="12.264150943396226em" y="30em" fill="#aaa"/><rect width="0.9433962264150944em" height="1.4951170003919718em" x="13.20754716981132em" y="28.50488299960803em" fill="#aaa"/><rect width="0.9433962264150944em" height="0.44127010166248104em" x="14.150943396226415em" y="29.558729898337518em" fill="#aaa"/><rect width="0.9433962264150944em" height="2.2220870063678557em" x="15.09433962264151em" y="27.777912993632143em" fill="#aaa"/><rect width="0.9433962264150944em" height="0.46852088483129306em" x="16.037735849056602em" y="29.531479115168707em" fill="#aaa"/><rect width="0.9433962264150944em" height="1.297288860350754em" x="16.9811320754717em" y="28.702711139649246em" fill="#aaa"/><rect width="0.9433962264150944em" height="1.222470555084286em" x="17.92452830188679em" y="28.777529444915714em" fill="#aaa"/><rect width="0.9433962264150944em" height="1.5734842114837735em" x="18.867924528301888em" y="28.426515788516227em" fill="#aaa"/><rect width="0.9433962264150944em" height="4.772662038139188em" x="19.81132075471698em" y="25.227337961860812em" fill="#aaa"/><rect width="0.9433962264150944em" height="4.601184335905548em" x="20.754716981132077em" y="25.398815664094453em" fill="#aaa"/><rect width="0.9433962264150944em" height="1.6521874421354692em" x="21.69811320754717em" y="28.34781255786453em" fill="#aaa"/><rect width="0.9433962264150944em" height="1.231440305805763em" x="22.641509433962263em" y="28.768559694194238em" fill="#aaa"/><rect width="0.9433962264150944em" height="0.26180997261698274em" x="23.58490566037736em" y="29.738190027383016em" fill="#aaa"/><rect width="0.9433962264150944em" height="0em" x="24.528301886792452em" y="30em" fill="#aaa"/><rect width="0.9433962264150944em" height="1.9566651405135658em" x="25.471698113207548em" y="28.043334859486436em" fill="#aaa"/><rect width="0.9433962264150944em" height="0.3613328073579287em" x="26.41509433962264em" y="29.63866719264207em" fill="#aaa"/><rect width="0.9433962264150944em" height="1.1266833207424083em" x="27.358490566037737em" y="28.87331667925759em" fill="#aaa"/><rect width="0.9433962264150944em" height="1.334604142242457em" x="28.30188679245283em" y="28.66539585775754em" fill="#aaa"/><rect width="0.9433962264150944em" height="1.4385287740682333em" x="29.245283018867926em" y="28.56147122593177em" fill="#aaa"/><rect width="0.9433962264150944em" height="2.380104441517931em" x="30.18867924528302em" y="27.61989555848207em" fill="#aaa"/><rect width="0.9433962264150944em" height="1.7107172113579923em" x="31.132075471698112em" y="28.28928278864201em" fill="#aaa"/><rect width="0.9433962264150944em" height="0.35380060449190476em" x="32.075471698113205em" y="29.646199395508095em" fill="#aaa"/><rect width="0.9433962264150944em" height="7.536352473138013em" x="33.0188679245283em" y="22.463647526861987em" fill="#aaa"/><rect width="0.9433962264150944em" height="3.986961733274516em" x="33.9622641509434em" y="26.013038266725484em" fill="#aaa"/><rect width="0.9433962264150944em" height="4.466630404690335em" x="34.905660377358494em" y="25.533369595309665em" fill="#aaa"/><rect width="0.9433962264150944em" height="2.251066734778244em" x="35.84905660377358em" y="27.748933265221755em" fill="#aaa"/><rect width="0.9433962264150944em" height="2.6878472966967677em" x="36.79245283018868em" y="27.312152703303234em" fill="#aaa"/><rect width="0.9433962264150944em" height="14.525904660203715em" x="37.735849056603776em" y="15.474095339796285em" fill="#aaa"/><rect width="0.9433962264150944em" height="6.656739729974793em" x="38.679245283018865em" y="23.34326027002521em" fill="#aaa"/><rect width="0.9433962264150944em" height="5.779211269366715em" x="39.62264150943396em" y="24.220788730633284em" fill="#aaa"/><rect width="0.9433962264150944em" height="2.8193017182565208em" x="40.56603773584906em" y="27.180698281743478em" fill="#aaa"/><rect width="0.9433962264150944em" height="5.606280421102842em" x="41.509433962264154em" y="24.39371957889716em" fill="#aaa"/><rect width="0.9433962264150944em" height="10.62099752515675em" x="42.45283018867924em" y="19.37900247484325em" fill="#aaa"/><rect width="0.9433962264150944em" height="6.996975815147702em" x="43.39622641509434em" y="23.003024184852297em" fill="#aaa"/><rect width="0.9433962264150944em" height="2.661153716467198em" x="44.339622641509436em" y="27.338846283532803em" fill="#aaa"/><rect width="0.9433962264150944em" height="12.52668117913689em" x="45.283018867924525em" y="17.47331882086311em" fill="#aaa"/><rect width="0.9433962264150944em" height="4.734964053110217em" x="46.22641509433962em" y="25.265035946889782em" fill="#aaa"/><rect width="0.9433962264150944em" height="3.7201814904646238em" x="47.16981132075472em" y="26.279818509535374em" fill="#aaa"/><rect width="0.9433962264150944em" height="1.879892623590251em" x="48.113207547169814em" y="28.12010737640975em" fill="#aaa"/><rect width="0.9433962264150944em" height="1.7479852699933156em" x="49.056603773584904em" y="28.252014730006685em" fill="#aaa"/><rect width="0.9433962264150944em" height="3.408810238270695em" x="50em" y="26.591189761729304em" fill="#aaa"/><rect width="0.9433962264150944em" height="9.247663155544256em" x="50.943396226415096em" y="20.752336844455744em" fill="#aaa"/><rect width="0.9433962264150944em" height="30em" x="51.88679245283019em" y="0em" fill="#aaa"/><rect width="0.9433962264150944em" height="8.530774470886644em" x="52.83018867924528em" y="21.469225529113356em" fill="#aaa"/><rect width="0.9433962264150944em" height="4.271987188520147em" x="53.77358490566038em" y="25.728012811479854em" fill="#aaa"/><rect width="0.9433962264150944em" height="7.892371617679526em" x="54.716981132075475em" y="22.107628382320474em" fill="#aaa"/><rect width="0.9433962264150944em" height="2.3962825032395036em" x="55.660377358490564em" y="27.603717496760495em" fill="#aaa"/><rect width="0.9433962264150944em" height="4.704697998281648em" x="56.60377358490566em" y="25.29530200171835em" fill="#aaa"/><rect width="0.9433962264150944em" height="8.229926842067437em" x="57.54716981132076em" y="21.770073157932565em" fill="#aaa"/><rect width="0.9433962264150944em" height="4.05943922915043em" x="58.49056603773585em" y="25.94056077084957em" fill="#aaa"/><rect width="0.9433962264150944em" height="2.2824406341001655em" x="59.43396226415094em" y="27.717559365899834em" fill="#aaa"/><rect width="0.9433962264150944em" height="3.906891642977348em" x="60.37735849056604em" y="26.09310835702265em" fill="#aaa"/><rect width="0.9433962264150944em" height="3.7928530646622183em" x="61.320754716981135em" y="26.207146935337782em" fill="#aaa"/><rect width="0.9433962264150944em" height="1.6761902186134092em" x="62.264150943396224em" y="28.32380978138659em" fill="#aaa"/><rect width="0.9433962264150944em" height="1.4200560780158402em" x="63.20754716981132em" y="28.57994392198416em" fill="#aaa"/><rect width="0.9433962264150944em" height="1.5014403507218972em" x="64.15094339622641em" y="28.498559649278103em" fill="#aaa"/><rect width="0.9433962264150944em" height="2.1180862599599113em" x="65.09433962264151em" y="27.88191374004009em" fill="#aaa"/><rect width="0.9433962264150944em" height="1.5832173621150483em" x="66.0377358490566em" y="28.416782637884953em" fill="#aaa"/><rect width="0.9433962264150944em" height="3.7316259801984972em" x="66.9811320754717em" y="26.268374019801502em" fill="#aaa"/><rect width="0.9433962264150944em" height="1.806521481550001em" x="67.9245283018868em" y="28.19347851845em" fill="#aaa"/><rect width="0.9433962264150944em" height="4.845337445334441em" x="68.86792452830188em" y="25.15466255466556em" fill="#aaa"/><rect width="0.9433962264150944em" height="1.7233187026281531em" x="69.81132075471699em" y="28.276681297371848em" fill="#aaa"/><rect width="0.9433962264150944em" height="3.4183220571390627em" x="70.75471698113208em" y="26.58167794286094em" fill="#aaa"/><rect width="0.9433962264150944em" height="9.391647884194974em" x="71.69811320754717em" y="20.608352115805026em" fill="#aaa"/><rect width="0.9433962264150944em" height="2.767882203733242em" x="72.64150943396227em" y="27.232117796266756em" fill="#aaa"/><rect width="0.9433962264150944em" height="2.419704370675354em" x="73.58490566037736em" y="27.580295629324645em" fill="#aaa"/><rect width="0.9433962264150944em" height="0.8326093354028381em" x="74.52830188679245em" y="29.16739066459716em" fill="#aaa"/><rect width="0.9433962264150944em" height="2.2430339286911387em" x="75.47169811320755em" y="27.75696607130886em" fill="#aaa"/><rect width="0.9433962264150944em" height="2.2005847135873777em" x="76.41509433962264em" y="27.79941528641262em" fill="#aaa"/><rect width="0.9433962264150944em" height="0.6304427150687343em" x="77.35849056603773em" y="29.369557284931265em" fill="#aaa"/><rect width="0.9433962264150944em" height="0.6087698034307973em" x="78.30188679245283em" y="29.391230196569204em" fill="#aaa"/><rect width="0.9433962264150944em" height="0.9099094794227303em" x="79.24528301886792em" y="29.09009052057727em" fill="#aaa"/><rect width="0.9433962264150944em" height="1.6689547144600159em" x="80.18867924528303em" y="28.331045285539986em" fill="#aaa"/><rect width="0.9433962264150944em" height="0.9662346290415293em" x="81.13207547169812em" y="29.03376537095847em" fill="#aaa"/><rect width="0.9433962264150944em" height="1.4825040340178248em" x="82.0754716981132em" y="28.517495965982175em" fill="#aaa"/><rect width="0.9433962264150944em" height="2.2411605806637915em" x="83.01886792452831em" y="27.75883941933621em" fill="#aaa"/><rect width="0.9433962264150944em" height="1.3169399720607489em" x="83.9622641509434em" y="28.683060027939252em" fill="#aaa"/><rect width="0.9433962264150944em" height="1.3931005701299517em" x="84.90566037735849em" y="28.606899429870047em" fill="#aaa"/><rect width="0.9433962264150944em" height="0.44810482224891185em" x="85.84905660377359em" y="29.55189517775109em" fill="#aaa"/><rect width="0.9433962264150944em" height="0.7794933795271962em" x="86.79245283018868em" y="29.220506620472804em" fill="#aaa"/><rect width="0.9433962264150944em" height="0.5243397586680268em" x="87.73584905660377em" y="29.475660241331973em" fill="#aaa"/><rect width="0.9433962264150944em" height="0.6564768937126901em" x="88.67924528301887em" y="29.34352310628731em" fill="#aaa"/><rect width="0.9433962264150944em" height="0.6490582280174639em" x="89.62264150943396em" y="29.350941771982537em" fill="#aaa"/><rect width="0.9433962264150944em" height="1.2285581021671133em" x="90.56603773584905em" y="28.771441897832887em" fill="#aaa"/><rect width="0.9433962264150944em" height="3.3751285284273718em" x="91.50943396226415em" y="26.62487147157263em" fill="#aaa"/><rect width="0.9433962264150944em" height="1.378451809111859em" x="92.45283018867924em" y="28.62154819088814em" fill="#aaa"/><rect width="0.9433962264150944em" height="0.7653050199176393em" x="93.39622641509435em" y="29.23469498008236em" fill="#aaa"/><rect width="0.9433962264150944em" height="0.5273023227871766em" x="94.33962264150944em" y="29.472697677212825em" fill="#aaa"/><rect width="0.9433962264150944em" height="0.5115567842780199em" x="95.28301886792453em" y="29.48844321572198em" fill="#aaa"/><rect width="0.9433962264150944em" height="0.9323452248834562em" x="96.22641509433963em" y="29.067654775116544em" fill="#aaa"/><rect width="0.9433962264150944em" height="0.8015440217771994em" x="97.16981132075472em" y="29.1984559782228em" fill="#aaa"/><rect width="0.9433962264150944em" height="0.8148401005134648em" x="98.11320754716981em" y="29.185159899486536em" fill="#aaa"/><rect width="0.9433962264150944em" height="1.1386692498152682em" x="99.05660377358491em" y="28.86133075018473em" fill="#aaa"/></svg>