<?xml version="1.0" standalone="no"?>
<svg xmlns:xlink="http://www.w3.org/1999/xlink" xmlns="http://www.w3.org/2000/svg" class="topic-graph" style="width: 100em; height: 30em; text-align: center;"><rect width="0.9433962264150944em" height="0.20220222255245052em" x="0em" y="29.79779777744755em" fill="#aaa"/><rect width="0.9433962264150944em" height="2.0096944216510324em" x="0.9433962264150944em" y="27.990305578348966em" fill="#aaa"/><rect width="0.9433962264150944em" height="0.33205571682798823em" x="1.8867924528301887em" y="29.667944283172012em" fill="#aaa"/><rect width="0.9433962264150944em" height="0.42854348073505844em" x="2.830188679245283em" y="29.57145651926494em" fill="#aaa"/><rect width="0.9433962264150944em" height="1.8951229187221472em" x="3.7735849056603774em" y="28.104877081277852em" fill="#aaa"/><rect width="0.9433962264150944em" height="2.6776912317907984em" x="4.716981132075472em" y="27.3223087682092em" fill="#aaa"/><rect width="0.9433962264150944em" height="2.770673463898124em" x="5.660377358490566em" y="27.229326536101876em" fill="#aaa"/><rect width="0.9433962264150944em" height="0.12962519659574662em" x="6.60377358490566em" y="29.870374803404253em" fill="#aaa"/><rect width="0.9433962264150944em" height="9.590806415553011em" x="7.547169811320755em" y="20.40919358444699em" fill="#aaa"/><rect width="0.9433962264150944em" height="2.999829832997051em" x="8.49056603773585em" y="27.00017016700295em" fill="#aaa"/><rect width="0.9433962264150944em" height="2.8489028305956063em" x="9.433962264150944em" y="27.151097169404395em" fill="#aaa"/><rect width="0.9433962264150944em" height="2.639893974225911em" x="10.377358490566039em" y="27.36010602577409em" fill="#aaa"/><rect width="0.9433962264150944em" height="1.4331155052923663em" x="11.320754716981131em" y="28.566884494707633em" fill="#aaa"/><rect width="0.9433962264150944em" height="0em" x="12.264150943396226em" y="30em" fill="#aaa"/><rect width="0.9433962264150944em" height="20.038459388027935em" x="13.20754716981132em" y="9.961540611972065em" fill="#aaa"/><rect width="0.9433962264150944em" height="4.60948077645945em" x="14.150943396226415em" y="25.39051922354055em" fill="#aaa"/><rect width="0.9433962264150944em" height="30em" x="15.09433962264151em" y="0em" fill="#aaa"/><rect width="0.9433962264150944em" height="2.6717518177938255em" x="16.037735849056602em" y="27.328248182206174em" fill="#aaa"/><rect width="0.9433962264150944em" height="17.470782312000185em" x="16.9811320754717em" y="12.529217687999815em" fill="#aaa"/><rect width="0.9433962264150944em" height="2.9708551765822895em" x="17.92452830188679em" y="27.02914482341771em" fill="#aaa"/><rect width="0.9433962264150944em" height="3.0792015496959317em" x="18.867924528301888em" y="26.92079845030407em" fill="#aaa"/><rect width="0.9433962264150944em" height="1.2676851553155157em" x="19.81132075471698em" y="28.732314844684485em" fill="#aaa"/><rect width="0.9433962264150944em" height="0.8473238397288256em" x="20.754716981132077em" y="29.152676160271174em" fill="#aaa"/><rect width="0.9433962264150944em" height="4.153185514640747em" x="21.69811320754717em" y="25.846814485359253em" fill="#aaa"/><rect width="0.9433962264150944em" height="3.7778356408543576em" x="22.641509433962263em" y="26.222164359145644em" fill="#aaa"/><rect width="0.9433962264150944em" height="0.3964432599021396em" x="23.58490566037736em" y="29.60355674009786em" fill="#aaa"/><rect width="0.9433962264150944em" height="0em" x="24.528301886792452em" y="30em" fill="#aaa"/><rect width="0.9433962264150944em" height="2.566245489284414em" x="25.471698113207548em" y="27.433754510715588em" fill="#aaa"/><rect width="0.9433962264150944em" height="7.809775756494816em" x="26.41509433962264em" y="22.190224243505185em" fill="#aaa"/><rect width="0.9433962264150944em" height="8.531606401378728em" x="27.358490566037737em" y="21.468393598621272em" fill="#aaa"/><rect width="0.9433962264150944em" height="8.312606147239997em" x="28.30188679245283em" y="21.687393852760003em" fill="#aaa"/><rect width="0.9433962264150944em" height="5.057658613204749em" x="29.245283018867926em" y="24.94234138679525em" fill="#aaa"/><rect width="0.9433962264150944em" height="4.930692927897757em" x="30.18867924528302em" y="25.06930707210224em" fill="#aaa"/><rect width="0.9433962264150944em" height="1.4596026540541773em" x="31.132075471698112em" y="28.540397345945824em" fill="#aaa"/><rect width="0.9433962264150944em" height="5.262779979318651em" x="32.075471698113205em" y="24.73722002068135em" fill="#aaa"/><rect width="0.9433962264150944em" height="3.0451941268334792em" x="33.0188679245283em" y="26.95480587316652em" fill="#aaa"/><rect width="0.9433962264150944em" height="4.229727397516738em" x="33.9622641509434em" y="25.77027260248326em" fill="#aaa"/><rect width="0.9433962264150944em" height="6.435336285983451em" x="34.905660377358494em" y="23.56466371401655em" fill="#aaa"/><rect width="0.9433962264150944em" height="1.2409185926373572em" x="35.84905660377358em" y="28.759081407362643em" fill="#aaa"/><rect width="0.9433962264150944em" height="5.657595380614601em" x="36.79245283018868em" y="24.3424046193854em" fill="#aaa"/><rect width="0.9433962264150944em" height="10.364183310016188em" x="37.735849056603776em" y="19.635816689983812em" fill="#aaa"/><rect width="0.9433962264150944em" height="16.70655701083197em" x="38.679245283018865em" y="13.293442989168032em" fill="#aaa"/><rect width="0.9433962264150944em" height="2.8150010928059217em" x="39.62264150943396em" y="27.18499890719408em" fill="#aaa"/><rect width="0.9433962264150944em" height="5.554832660937295em" x="40.56603773584906em" y="24.445167339062706em" fill="#aaa"/><rect width="0.9433962264150944em" height="3.010966141419708em" x="41.509433962264154em" y="26.989033858580292em" fill="#aaa"/><rect width="0.9433962264150944em" height="3.359364649718323em" x="42.45283018867924em" y="26.640635350281677em" fill="#aaa"/><rect width="0.9433962264150944em" height="2.054914634230979em" x="43.39622641509434em" y="27.94508536576902em" fill="#aaa"/><rect width="0.9433962264150944em" height="4.183489394616961em" x="44.339622641509436em" y="25.816510605383037em" fill="#aaa"/><rect width="0.9433962264150944em" height="3.7136876673592942em" x="45.283018867924525em" y="26.286312332640705em" fill="#aaa"/><rect width="0.9433962264150944em" height="2.659486154782011em" x="46.22641509433962em" y="27.340513845217988em" fill="#aaa"/><rect width="0.9433962264150944em" height="1.776804728358777em" x="47.16981132075472em" y="28.223195271641224em" fill="#aaa"/><rect width="0.9433962264150944em" height="2.6497686190619403em" x="48.113207547169814em" y="27.35023138093806em" fill="#aaa"/><rect width="0.9433962264150944em" height="4.1504267910176em" x="49.056603773584904em" y="25.8495732089824em" fill="#aaa"/><rect width="0.9433962264150944em" height="1.3176571845514475em" x="50em" y="28.682342815448553em" fill="#aaa"/><rect width="0.9433962264150944em" height="2.4222232420698475em" x="50.943396226415096em" y="27.577776757930152em" fill="#aaa"/><rect width="0.9433962264150944em" height="3.5217124461485523em" x="51.88679245283019em" y="26.478287553851448em" fill="#aaa"/><rect width="0.9433962264150944em" height="4.0542504440450955em" x="52.83018867924528em" y="25.945749555954905em" fill="#aaa"/><rect width="0.9433962264150944em" height="1.6818642643202428em" x="53.77358490566038em" y="28.318135735679757em" fill="#aaa"/><rect width="0.9433962264150944em" height="1.9853044025194606em" x="54.716981132075475em" y="28.01469559748054em" fill="#aaa"/><rect width="0.9433962264150944em" height="1.9468493335998327em" x="55.660377358490564em" y="28.053150666400168em" fill="#aaa"/><rect width="0.9433962264150944em" height="1.9670715355906638em" x="56.60377358490566em" y="28.032928464409338em" fill="#aaa"/><rect width="0.9433962264150944em" height="3.660962046593663em" x="57.54716981132076em" y="26.339037953406336em" fill="#aaa"/><rect width="0.9433962264150944em" height="2.5728716567461127em" x="58.49056603773585em" y="27.427128343253887em" fill="#aaa"/><rect width="0.9433962264150944em" height="4.707278189658986em" x="59.43396226415094em" y="25.292721810341014em" fill="#aaa"/><rect width="0.9433962264150944em" height="16.479859718472667em" x="60.37735849056604em" y="13.520140281527333em" fill="#aaa"/><rect width="0.9433962264150944em" height="2.7519963301215613em" x="61.320754716981135em" y="27.24800366987844em" fill="#aaa"/><rect width="0.9433962264150944em" height="4.736719718834932em" x="62.264150943396224em" y="25.263280281165066em" fill="#aaa"/><rect width="0.9433962264150944em" height="2.2149809895693764em" x="63.20754716981132em" y="27.785019010430624em" fill="#aaa"/><rect width="0.9433962264150944em" height="14.436573311382359em" x="64.15094339622641em" y="15.563426688617641em" fill="#aaa"/><rect width="0.9433962264150944em" height="7.859518323773596em" x="65.09433962264151em" y="22.140481676226404em" fill="#aaa"/><rect width="0.9433962264150944em" height="4.782350101535934em" x="66.0377358490566em" y="25.217649898464067em" fill="#aaa"/><rect width="0.9433962264150944em" height="1.4347490856684244em" x="66.9811320754717em" y="28.565250914331575em" fill="#aaa"/><rect width="0.9433962264150944em" height="4.141340231343798em" x="67.9245283018868em" y="25.858659768656203em" fill="#aaa"/><rect width="0.9433962264150944em" height="3.931587274323029em" x="68.86792452830188em" y="26.06841272567697em" fill="#aaa"/><rect width="0.9433962264150944em" height="5.131952610794668em" x="69.81132075471699em" y="24.86804738920533em" fill="#aaa"/><rect width="0.9433962264150944em" height="4.980022473658419em" x="70.75471698113208em" y="25.01997752634158em" fill="#aaa"/><rect width="0.9433962264150944em" height="5.458820085023171em" x="71.69811320754717em" y="24.54117991497683em" fill="#aaa"/><rect width="0.9433962264150944em" height="3.580237773322746em" x="72.64150943396227em" y="26.419762226677253em" fill="#aaa"/><rect width="0.9433962264150944em" height="3.8716221884782347em" x="73.58490566037736em" y="26.128377811521766em" fill="#aaa"/><rect width="0.9433962264150944em" height="22.9043112813552em" x="74.52830188679245em" y="7.095688718644801em" fill="#aaa"/><rect width="0.9433962264150944em" height="5.333716736902721em" x="75.47169811320755em" y="24.666283263097277em" fill="#aaa"/><rect width="0.9433962264150944em" height="17.345131610413357em" x="76.41509433962264em" y="12.654868389586643em" fill="#aaa"/><rect width="0.9433962264150944em" height="2.669380209567996em" x="77.35849056603773em" y="27.330619790432003em" fill="#aaa"/><rect width="0.9433962264150944em" height="6.58068940518209em" x="78.30188679245283em" y="23.419310594817908em" fill="#aaa"/><rect width="0.9433962264150944em" height="20.907649483708884em" x="79.24528301886792em" y="9.092350516291116em" fill="#aaa"/><rect width="0.9433962264150944em" height="20.40915789647981em" x="80.18867924528303em" y="9.590842103520188em" fill="#aaa"/><rect width="0.9433962264150944em" height="11.736161442353291em" x="81.13207547169812em" y="18.263838557646707em" fill="#aaa"/><rect width="0.9433962264150944em" height="17.164859078601392em" x="82.0754716981132em" y="12.835140921398608em" fill="#aaa"/><rect width="0.9433962264150944em" height="3.3236306670633096em" x="83.01886792452831em" y="26.67636933293669em" fill="#aaa"/><rect width="0.9433962264150944em" height="5.643198461818693em" x="83.9622641509434em" y="24.35680153818131em" fill="#aaa"/><rect width="0.9433962264150944em" height="6.777688939167367em" x="84.90566037735849em" y="23.22231106083263em" fill="#aaa"/><rect width="0.9433962264150944em" height="10.71358594659238em" x="85.84905660377359em" y="19.28641405340762em" fill="#aaa"/><rect width="0.9433962264150944em" height="4.022974447762378em" x="86.79245283018868em" y="25.97702555223762em" fill="#aaa"/><rect width="0.9433962264150944em" height="3.3534729868015423em" x="87.73584905660377em" y="26.646527013198458em" fill="#aaa"/><rect width="0.9433962264150944em" height="5.507088797574229em" x="88.67924528301887em" y="24.49291120242577em" fill="#aaa"/><rect width="0.9433962264150944em" height="4.839453328273986em" x="89.62264150943396em" y="25.160546671726014em" fill="#aaa"/><rect width="0.9433962264150944em" height="3.050229414165695em" x="90.56603773584905em" y="26.949770585834305em" fill="#aaa"/><rect width="0.9433962264150944em" height="7.230560334708484em" x="91.50943396226415em" y="22.769439665291515em" fill="#aaa"/><rect width="0.9433962264150944em" height="5.263196515772104em" x="92.45283018867924em" y="24.736803484227895em" fill="#aaa"/><rect width="0.9433962264150944em" height="8.663683832660915em" x="93.39622641509435em" y="21.336316167339085em" fill="#aaa"/><rect width="0.9433962264150944em" height="2.9111636240483465em" x="94.33962264150944em" y="27.088836375951654em" fill="#aaa"/><rect width="0.9433962264150944em" height="3.135398350857931em" x="95.28301886792453em" y="26.86460164914207em" fill="#aaa"/><rect width="0.9433962264150944em" height="5.310588277659803em" x="96.22641509433963em" y="24.689411722340196em" fill="#aaa"/><rect width="0.9433962264150944em" height="3.839838765415618em" x="97.16981132075472em" y="26.160161234584383em" fill="#aaa"/><rect width="0.9433962264150944em" height="3.5737942519134216em" x="98.11320754716981em" y="26.426205748086577em" fill="#aaa"/><rect width="0.9433962264150944em" height="4.420075825393547em" x="99.05660377358491em" y="25.579924174606454em" fill="#aaa"/></svg>