<?xml version="1.0" standalone="no"?>
<svg xmlns:xlink="http://www.w3.org/1999/xlink" xmlns="http://www.w3.org/2000/svg" class="topic-graph" style="width: 100em; height: 30em; text-align: center;"><rect width="0.9433962264150944em" height="0.02761022283482803em" x="0em" y="29.972389777165173em" fill="#aaa"/><rect width="0.9433962264150944em" height="0.027157981049976392em" x="0.9433962264150944em" y="29.972842018950022em" fill="#aaa"/><rect width="0.9433962264150944em" height="0.048314550306685855em" x="1.8867924528301887em" y="29.951685449693315em" fill="#aaa"/><rect width="0.9433962264150944em" height="0.11731501956603178em" x="2.830188679245283em" y="29.882684980433968em" fill="#aaa"/><rect width="0.9433962264150944em" height="1.9499101384549538em" x="3.7735849056603774em" y="28.050089861545047em" fill="#aaa"/><rect width="0.9433962264150944em" height="1.1701202908120991em" x="4.716981132075472em" y="28.8298797091879em" fill="#aaa"/><rect width="0.9433962264150944em" height="0.09139178401369775em" x="5.660377358490566em" y="29.908608215986302em" fill="#aaa"/><rect width="0.9433962264150944em" height="0.18259234491935836em" x="6.60377358490566em" y="29.817407655080643em" fill="#aaa"/><rect width="0.9433962264150944em" height="0.13188782264650217em" x="7.547169811320755em" y="29.8681121773535em" fill="#aaa"/><rect width="0.9433962264150944em" height="0.3796436177648971em" x="8.49056603773585em" y="29.6203563822351em" fill="#aaa"/><rect width="0.9433962264150944em" height="0.046275937976725925em" x="9.433962264150944em" y="29.953724062023273em" fill="#aaa"/><rect width="0.9433962264150944em" height="0.20428322321706108em" x="10.377358490566039em" y="29.79571677678294em" fill="#aaa"/><rect width="0.9433962264150944em" height="0.16025153643942966em" x="11.320754716981131em" y="29.83974846356057em" fill="#aaa"/><rect width="0.9433962264150944em" height="0em" x="12.264150943396226em" y="30em" fill="#aaa"/><rect width="0.9433962264150944em" height="0.5863495370578137em" x="13.20754716981132em" y="29.413650462942186em" fill="#aaa"/><rect width="0.9433962264150944em" height="0.2504665683474766em" x="14.150943396226415em" y="29.749533431652523em" fill="#aaa"/><rect width="0.9433962264150944em" height="0.23535090193352717em" x="15.09433962264151em" y="29.764649098066474em" fill="#aaa"/><rect width="0.9433962264150944em" height="0.3061362561092709em" x="16.037735849056602em" y="29.69386374389073em" fill="#aaa"/><rect width="0.9433962264150944em" height="0.42575886719284545em" x="16.9811320754717em" y="29.574241132807156em" fill="#aaa"/><rect width="0.9433962264150944em" height="0.1789099528641449em" x="17.92452830188679em" y="29.821090047135854em" fill="#aaa"/><rect width="0.9433962264150944em" height="6.3585871861327465em" x="18.867924528301888em" y="23.641412813867255em" fill="#aaa"/><rect width="0.9433962264150944em" height="0.33101189940187636em" x="19.81132075471698em" y="29.668988100598124em" fill="#aaa"/><rect width="0.9433962264150944em" height="0.1794708886061447em" x="20.754716981132077em" y="29.820529111393856em" fill="#aaa"/><rect width="0.9433962264150944em" height="0.7427655771549612em" x="21.69811320754717em" y="29.257234422845038em" fill="#aaa"/><rect width="0.9433962264150944em" height="0.8662483279949512em" x="22.641509433962263em" y="29.133751672005047em" fill="#aaa"/><rect width="0.9433962264150944em" height="1.671126433047287em" x="23.58490566037736em" y="28.328873566952712em" fill="#aaa"/><rect width="0.9433962264150944em" height="0em" x="24.528301886792452em" y="30em" fill="#aaa"/><rect width="0.9433962264150944em" height="1.0971395376184754em" x="25.471698113207548em" y="28.902860462381526em" fill="#aaa"/><rect width="0.9433962264150944em" height="0.5953512085853867em" x="26.41509433962264em" y="29.404648791414612em" fill="#aaa"/><rect width="0.9433962264150944em" height="0.5304410132688826em" x="27.358490566037737em" y="29.469558986731116em" fill="#aaa"/><rect width="0.9433962264150944em" height="0.6379253349999822em" x="28.30188679245283em" y="29.36207466500002em" fill="#aaa"/><rect width="0.9433962264150944em" height="0.7254620861024683em" x="29.245283018867926em" y="29.274537913897532em" fill="#aaa"/><rect width="0.9433962264150944em" height="0.16828713904276996em" x="30.18867924528302em" y="29.83171286095723em" fill="#aaa"/><rect width="0.9433962264150944em" height="0.902789085793219em" x="31.132075471698112em" y="29.09721091420678em" fill="#aaa"/><rect width="0.9433962264150944em" height="0.8565802936816568em" x="32.075471698113205em" y="29.143419706318344em" fill="#aaa"/><rect width="0.9433962264150944em" height="1.8105384046096809em" x="33.0188679245283em" y="28.18946159539032em" fill="#aaa"/><rect width="0.9433962264150944em" height="0.24212029294178927em" x="33.9622641509434em" y="29.757879707058212em" fill="#aaa"/><rect width="0.9433962264150944em" height="1.3333948481288815em" x="34.905660377358494em" y="28.666605151871117em" fill="#aaa"/><rect width="0.9433962264150944em" height="1.8383976258771078em" x="35.84905660377358em" y="28.161602374122893em" fill="#aaa"/><rect width="0.9433962264150944em" height="0.8931683537449255em" x="36.79245283018868em" y="29.106831646255074em" fill="#aaa"/><rect width="0.9433962264150944em" height="0.8160072246990182em" x="37.735849056603776em" y="29.183992775300982em" fill="#aaa"/><rect width="0.9433962264150944em" height="1.9582808666603868em" x="38.679245283018865em" y="28.041719133339612em" fill="#aaa"/><rect width="0.9433962264150944em" height="0.9320984372159626em" x="39.62264150943396em" y="29.067901562784037em" fill="#aaa"/><rect width="0.9433962264150944em" height="0.9287631212331265em" x="40.56603773584906em" y="29.071236878766875em" fill="#aaa"/><rect width="0.9433962264150944em" height="1.3268035904844009em" x="41.509433962264154em" y="28.673196409515597em" fill="#aaa"/><rect width="0.9433962264150944em" height="1.4459473213731158em" x="42.45283018867924em" y="28.554052678626885em" fill="#aaa"/><rect width="0.9433962264150944em" height="1.8697151920621362em" x="43.39622641509434em" y="28.130284807937862em" fill="#aaa"/><rect width="0.9433962264150944em" height="0.773635276171255em" x="44.339622641509436em" y="29.226364723828745em" fill="#aaa"/><rect width="0.9433962264150944em" height="2.436807010296907em" x="45.283018867924525em" y="27.563192989703094em" fill="#aaa"/><rect width="0.9433962264150944em" height="0.8838013753239004em" x="46.22641509433962em" y="29.116198624676098em" fill="#aaa"/><rect width="0.9433962264150944em" height="1.999771473313394em" x="47.16981132075472em" y="28.000228526686605em" fill="#aaa"/><rect width="0.9433962264150944em" height="7.676170180591287em" x="48.113207547169814em" y="22.323829819408715em" fill="#aaa"/><rect width="0.9433962264150944em" height="5.626814027225111em" x="49.056603773584904em" y="24.37318597277489em" fill="#aaa"/><rect width="0.9433962264150944em" height="1.8795026929649343em" x="50em" y="28.120497307035066em" fill="#aaa"/><rect width="0.9433962264150944em" height="2.040663787064105em" x="50.943396226415096em" y="27.959336212935895em" fill="#aaa"/><rect width="0.9433962264150944em" height="5.003380004232257em" x="51.88679245283019em" y="24.996619995767745em" fill="#aaa"/><rect width="0.9433962264150944em" height="10.154060979680816em" x="52.83018867924528em" y="19.845939020319186em" fill="#aaa"/><rect width="0.9433962264150944em" height="5.398021212882874em" x="53.77358490566038em" y="24.601978787117126em" fill="#aaa"/><rect width="0.9433962264150944em" height="5.2689271211876925em" x="54.716981132075475em" y="24.731072878812306em" fill="#aaa"/><rect width="0.9433962264150944em" height="3.5499664092474266em" x="55.660377358490564em" y="26.450033590752575em" fill="#aaa"/><rect width="0.9433962264150944em" height="10.558349254236449em" x="56.60377358490566em" y="19.441650745763553em" fill="#aaa"/><rect width="0.9433962264150944em" height="25.548183791422304em" x="57.54716981132076em" y="4.451816208577696em" fill="#aaa"/><rect width="0.9433962264150944em" height="1.6956632741894384em" x="58.49056603773585em" y="28.30433672581056em" fill="#aaa"/><rect width="0.9433962264150944em" height="1.8853087411443405em" x="59.43396226415094em" y="28.11469125885566em" fill="#aaa"/><rect width="0.9433962264150944em" height="3.167170406507356em" x="60.37735849056604em" y="26.832829593492644em" fill="#aaa"/><rect width="0.9433962264150944em" height="2.8247170616160067em" x="61.320754716981135em" y="27.175282938383994em" fill="#aaa"/><rect width="0.9433962264150944em" height="1.7606635100874723em" x="62.264150943396224em" y="28.239336489912528em" fill="#aaa"/><rect width="0.9433962264150944em" height="6.148085138810362em" x="63.20754716981132em" y="23.851914861189638em" fill="#aaa"/><rect width="0.9433962264150944em" height="7.332906018701169em" x="64.15094339622641em" y="22.66709398129883em" fill="#aaa"/><rect width="0.9433962264150944em" height="3.3617982670540556em" x="65.09433962264151em" y="26.638201732945944em" fill="#aaa"/><rect width="0.9433962264150944em" height="3.687277936646916em" x="66.0377358490566em" y="26.312722063353085em" fill="#aaa"/><rect width="0.9433962264150944em" height="5.552516893308446em" x="66.9811320754717em" y="24.447483106691553em" fill="#aaa"/><rect width="0.9433962264150944em" height="3.144280177228248em" x="67.9245283018868em" y="26.855719822771754em" fill="#aaa"/><rect width="0.9433962264150944em" height="10.578801345858956em" x="68.86792452830188em" y="19.421198654141044em" fill="#aaa"/><rect width="0.9433962264150944em" height="29.37239885947098em" x="69.81132075471699em" y="0.6276011405290198em" fill="#aaa"/><rect width="0.9433962264150944em" height="30em" x="70.75471698113208em" y="0em" fill="#aaa"/><rect width="0.9433962264150944em" height="13.971531695147561em" x="71.69811320754717em" y="16.02846830485244em" fill="#aaa"/><rect width="0.9433962264150944em" height="9.177454000552837em" x="72.64150943396227em" y="20.822545999447165em" fill="#aaa"/><rect width="0.9433962264150944em" height="5.885270586880012em" x="73.58490566037736em" y="24.11472941311999em" fill="#aaa"/><rect width="0.9433962264150944em" height="12.58571082381933em" x="74.52830188679245em" y="17.41428917618067em" fill="#aaa"/><rect width="0.9433962264150944em" height="7.9767911388616835em" x="75.47169811320755em" y="22.023208861138315em" fill="#aaa"/><rect width="0.9433962264150944em" height="17.381588185502565em" x="76.41509433962264em" y="12.618411814497435em" fill="#aaa"/><rect width="0.9433962264150944em" height="8.835257253982252em" x="77.35849056603773em" y="21.164742746017748em" fill="#aaa"/><rect width="0.9433962264150944em" height="4.613937436689451em" x="78.30188679245283em" y="25.38606256331055em" fill="#aaa"/><rect width="0.9433962264150944em" height="3.565871192911998em" x="79.24528301886792em" y="26.434128807088em" fill="#aaa"/><rect width="0.9433962264150944em" height="3.2050595441234115em" x="80.18867924528303em" y="26.79494045587659em" fill="#aaa"/><rect width="0.9433962264150944em" height="3.5533125628198903em" x="81.13207547169812em" y="26.44668743718011em" fill="#aaa"/><rect width="0.9433962264150944em" height="1.5959831068832404em" x="82.0754716981132em" y="28.40401689311676em" fill="#aaa"/><rect width="0.9433962264150944em" height="4.797952685363178em" x="83.01886792452831em" y="25.202047314636822em" fill="#aaa"/><rect width="0.9433962264150944em" height="1.6363471865165584em" x="83.9622641509434em" y="28.36365281348344em" fill="#aaa"/><rect width="0.9433962264150944em" height="2.948501610921221em" x="84.90566037735849em" y="27.05149838907878em" fill="#aaa"/><rect width="0.9433962264150944em" height="3.116346295809961em" x="85.84905660377359em" y="26.88365370419004em" fill="#aaa"/><rect width="0.9433962264150944em" height="4.381495458613813em" x="86.79245283018868em" y="25.618504541386187em" fill="#aaa"/><rect width="0.9433962264150944em" height="8.375432210041254em" x="87.73584905660377em" y="21.624567789958746em" fill="#aaa"/><rect width="0.9433962264150944em" height="10.919974509886675em" x="88.67924528301887em" y="19.080025490113325em" fill="#aaa"/><rect width="0.9433962264150944em" height="8.699750170646006em" x="89.62264150943396em" y="21.300249829353994em" fill="#aaa"/><rect width="0.9433962264150944em" height="11.011655337576906em" x="90.56603773584905em" y="18.988344662423096em" fill="#aaa"/><rect width="0.9433962264150944em" height="5.291803453860078em" x="91.50943396226415em" y="24.708196546139924em" fill="#aaa"/><rect width="0.9433962264150944em" height="5.762300923190515em" x="92.45283018867924em" y="24.237699076809484em" fill="#aaa"/><rect width="0.9433962264150944em" height="3.4915817805207774em" x="93.39622641509435em" y="26.50841821947922em" fill="#aaa"/><rect width="0.9433962264150944em" height="3.676822485920078em" x="94.33962264150944em" y="26.323177514079923em" fill="#aaa"/><rect width="0.9433962264150944em" height="3.2644224164309543em" x="95.28301886792453em" y="26.735577583569047em" fill="#aaa"/><rect width="0.9433962264150944em" height="3.3348462673583006em" x="96.22641509433963em" y="26.6651537326417em" fill="#aaa"/><rect width="0.9433962264150944em" height="2.7303964129691147em" x="97.16981132075472em" y="27.269603587030886em" fill="#aaa"/><rect width="0.9433962264150944em" height="2.8091127027006766em" x="98.11320754716981em" y="27.190887297299323em" fill="#aaa"/><rect width="0.9433962264150944em" height="3.2348947478457695em" x="99.05660377358491em" y="26.765105252154232em" fill="#aaa"/></svg>