<?xml version="1.0" standalone="no"?>
<svg xmlns:xlink="http://www.w3.org/1999/xlink" xmlns="http://www.w3.org/2000/svg" class="topic-graph" style="width: 100em; height: 30em; text-align: center;"><rect width="0.9433962264150944em" height="0.45177953896629147em" x="0em" y="29.548220461033708em" fill="#aaa"/><rect width="0.9433962264150944em" height="2.0967037416782572em" x="0.9433962264150944em" y="27.903296258321742em" fill="#aaa"/><rect width="0.9433962264150944em" height="2.579556810504845em" x="1.8867924528301887em" y="27.420443189495156em" fill="#aaa"/><rect width="0.9433962264150944em" height="4.1515459843018em" x="2.830188679245283em" y="25.848454015698202em" fill="#aaa"/><rect width="0.9433962264150944em" height="2.9627573468420807em" x="3.7735849056603774em" y="27.037242653157918em" fill="#aaa"/><rect width="0.9433962264150944em" height="0.26829079006913625em" x="4.716981132075472em" y="29.731709209930862em" fill="#aaa"/><rect width="0.9433962264150944em" height="1.8499376026824301em" x="5.660377358490566em" y="28.15006239731757em" fill="#aaa"/><rect width="0.9433962264150944em" height="0.059289866994340794em" x="6.60377358490566em" y="29.94071013300566em" fill="#aaa"/><rect width="0.9433962264150944em" height="0.8139651141964375em" x="7.547169811320755em" y="29.18603488580356em" fill="#aaa"/><rect width="0.9433962264150944em" height="0.9971474878470454em" x="8.49056603773585em" y="29.002852512152955em" fill="#aaa"/><rect width="0.9433962264150944em" height="2.179342885891657em" x="9.433962264150944em" y="27.820657114108343em" fill="#aaa"/><rect width="0.9433962264150944em" height="0.8032661034961774em" x="10.377358490566039em" y="29.196733896503822em" fill="#aaa"/><rect width="0.9433962264150944em" height="2.874935501417204em" x="11.320754716981131em" y="27.125064498582795em" fill="#aaa"/><rect width="0.9433962264150944em" height="0em" x="12.264150943396226em" y="30em" fill="#aaa"/><rect width="0.9433962264150944em" height="4.8857728871155395em" x="13.20754716981132em" y="25.11422711288446em" fill="#aaa"/><rect width="0.9433962264150944em" height="0.8962662889355507em" x="14.150943396226415em" y="29.10373371106445em" fill="#aaa"/><rect width="0.9433962264150944em" height="1.073159461660584em" x="15.09433962264151em" y="28.926840538339416em" fill="#aaa"/><rect width="0.9433962264150944em" height="0.45955462693696em" x="16.037735849056602em" y="29.54044537306304em" fill="#aaa"/><rect width="0.9433962264150944em" height="1.9571929198881708em" x="16.9811320754717em" y="28.042807080111828em" fill="#aaa"/><rect width="0.9433962264150944em" height="2.1208726355109513em" x="17.92452830188679em" y="27.879127364489047em" fill="#aaa"/><rect width="0.9433962264150944em" height="5.982549283585981em" x="18.867924528301888em" y="24.017450716414018em" fill="#aaa"/><rect width="0.9433962264150944em" height="0.7428097989941554em" x="19.81132075471698em" y="29.257190201005844em" fill="#aaa"/><rect width="0.9433962264150944em" height="0.5299299169048246em" x="20.754716981132077em" y="29.470070083095177em" fill="#aaa"/><rect width="0.9433962264150944em" height="0.5872891621494137em" x="21.69811320754717em" y="29.412710837850586em" fill="#aaa"/><rect width="0.9433962264150944em" height="0.39559217233968547em" x="22.641509433962263em" y="29.604407827660314em" fill="#aaa"/><rect width="0.9433962264150944em" height="0.5650108324309511em" x="23.58490566037736em" y="29.43498916756905em" fill="#aaa"/><rect width="0.9433962264150944em" height="0em" x="24.528301886792452em" y="30em" fill="#aaa"/><rect width="0.9433962264150944em" height="1.0526518974143342em" x="25.471698113207548em" y="28.947348102585664em" fill="#aaa"/><rect width="0.9433962264150944em" height="0.47826478122885174em" x="26.41509433962264em" y="29.52173521877115em" fill="#aaa"/><rect width="0.9433962264150944em" height="1.1554457937155203em" x="27.358490566037737em" y="28.844554206284478em" fill="#aaa"/><rect width="0.9433962264150944em" height="1.2960763065214451em" x="28.30188679245283em" y="28.703923693478554em" fill="#aaa"/><rect width="0.9433962264150944em" height="0.6902620055199561em" x="29.245283018867926em" y="29.309737994480045em" fill="#aaa"/><rect width="0.9433962264150944em" height="0.386641256878994em" x="30.18867924528302em" y="29.613358743121005em" fill="#aaa"/><rect width="0.9433962264150944em" height="0.5453896805065819em" x="31.132075471698112em" y="29.45461031949342em" fill="#aaa"/><rect width="0.9433962264150944em" height="0.7382821956441782em" x="32.075471698113205em" y="29.261717804355822em" fill="#aaa"/><rect width="0.9433962264150944em" height="0.7449237647673117em" x="33.0188679245283em" y="29.25507623523269em" fill="#aaa"/><rect width="0.9433962264150944em" height="0.8586602898218747em" x="33.9622641509434em" y="29.141339710178126em" fill="#aaa"/><rect width="0.9433962264150944em" height="0.27802995013868664em" x="34.905660377358494em" y="29.721970049861312em" fill="#aaa"/><rect width="0.9433962264150944em" height="0.7068188621117829em" x="35.84905660377358em" y="29.29318113788822em" fill="#aaa"/><rect width="0.9433962264150944em" height="0.8638734687614678em" x="36.79245283018868em" y="29.13612653123853em" fill="#aaa"/><rect width="0.9433962264150944em" height="1.1216452302510613em" x="37.735849056603776em" y="28.87835476974894em" fill="#aaa"/><rect width="0.9433962264150944em" height="0.42490609382588296em" x="38.679245283018865em" y="29.575093906174118em" fill="#aaa"/><rect width="0.9433962264150944em" height="0.7716566782265901em" x="39.62264150943396em" y="29.22834332177341em" fill="#aaa"/><rect width="0.9433962264150944em" height="0.920977721878544em" x="40.56603773584906em" y="29.079022278121457em" fill="#aaa"/><rect width="0.9433962264150944em" height="0.3851252598420446em" x="41.509433962264154em" y="29.614874740157955em" fill="#aaa"/><rect width="0.9433962264150944em" height="1.020710332976071em" x="42.45283018867924em" y="28.979289667023927em" fill="#aaa"/><rect width="0.9433962264150944em" height="1.0200670999861496em" x="43.39622641509434em" y="28.97993290001385em" fill="#aaa"/><rect width="0.9433962264150944em" height="0.3098384812867538em" x="44.339622641509436em" y="29.690161518713246em" fill="#aaa"/><rect width="0.9433962264150944em" height="2.72620906466013em" x="45.283018867924525em" y="27.27379093533987em" fill="#aaa"/><rect width="0.9433962264150944em" height="1.140816532426296em" x="46.22641509433962em" y="28.859183467573704em" fill="#aaa"/><rect width="0.9433962264150944em" height="1.3004742344245352em" x="47.16981132075472em" y="28.699525765575466em" fill="#aaa"/><rect width="0.9433962264150944em" height="7.771673997317719em" x="48.113207547169814em" y="22.22832600268228em" fill="#aaa"/><rect width="0.9433962264150944em" height="12.083150057779703em" x="49.056603773584904em" y="17.916849942220296em" fill="#aaa"/><rect width="0.9433962264150944em" height="5.114095049940205em" x="50em" y="24.885904950059796em" fill="#aaa"/><rect width="0.9433962264150944em" height="5.109064973313002em" x="50.943396226415096em" y="24.890935026686996em" fill="#aaa"/><rect width="0.9433962264150944em" height="2.458260387886898em" x="51.88679245283019em" y="27.5417396121131em" fill="#aaa"/><rect width="0.9433962264150944em" height="1.0909244298828624em" x="52.83018867924528em" y="28.90907557011714em" fill="#aaa"/><rect width="0.9433962264150944em" height="2.5696238674453045em" x="53.77358490566038em" y="27.430376132554695em" fill="#aaa"/><rect width="0.9433962264150944em" height="3.0082572916880186em" x="54.716981132075475em" y="26.991742708311982em" fill="#aaa"/><rect width="0.9433962264150944em" height="2.884687819172324em" x="55.660377358490564em" y="27.115312180827676em" fill="#aaa"/><rect width="0.9433962264150944em" height="3.556899225291135em" x="56.60377358490566em" y="26.443100774708864em" fill="#aaa"/><rect width="0.9433962264150944em" height="5.242021719687247em" x="57.54716981132076em" y="24.757978280312752em" fill="#aaa"/><rect width="0.9433962264150944em" height="3.0241652528837806em" x="58.49056603773585em" y="26.97583474711622em" fill="#aaa"/><rect width="0.9433962264150944em" height="1.7254778425165611em" x="59.43396226415094em" y="28.27452215748344em" fill="#aaa"/><rect width="0.9433962264150944em" height="1.9823890954459664em" x="60.37735849056604em" y="28.017610904554033em" fill="#aaa"/><rect width="0.9433962264150944em" height="2.911492265098147em" x="61.320754716981135em" y="27.088507734901853em" fill="#aaa"/><rect width="0.9433962264150944em" height="1.7104818691411066em" x="62.264150943396224em" y="28.289518130858895em" fill="#aaa"/><rect width="0.9433962264150944em" height="2.863765609766546em" x="63.20754716981132em" y="27.136234390233454em" fill="#aaa"/><rect width="0.9433962264150944em" height="2.529934519766696em" x="64.15094339622641em" y="27.470065480233306em" fill="#aaa"/><rect width="0.9433962264150944em" height="0.6294933435972141em" x="65.09433962264151em" y="29.370506656402785em" fill="#aaa"/><rect width="0.9433962264150944em" height="1.2863240632619677em" x="66.0377358490566em" y="28.71367593673803em" fill="#aaa"/><rect width="0.9433962264150944em" height="1.4979733880897812em" x="66.9811320754717em" y="28.502026611910217em" fill="#aaa"/><rect width="0.9433962264150944em" height="0.8335936619627429em" x="67.9245283018868em" y="29.166406338037255em" fill="#aaa"/><rect width="0.9433962264150944em" height="1.7335225679365767em" x="68.86792452830188em" y="28.266477432063425em" fill="#aaa"/><rect width="0.9433962264150944em" height="3.0520531301857146em" x="69.81132075471699em" y="26.947946869814285em" fill="#aaa"/><rect width="0.9433962264150944em" height="9.458088107917941em" x="70.75471698113208em" y="20.54191189208206em" fill="#aaa"/><rect width="0.9433962264150944em" height="11.229315025745018em" x="71.69811320754717em" y="18.770684974254984em" fill="#aaa"/><rect width="0.9433962264150944em" height="3.4138936991061573em" x="72.64150943396227em" y="26.586106300893842em" fill="#aaa"/><rect width="0.9433962264150944em" height="3.0845666568461425em" x="73.58490566037736em" y="26.915433343153857em" fill="#aaa"/><rect width="0.9433962264150944em" height="1.959512926664155em" x="74.52830188679245em" y="28.040487073335846em" fill="#aaa"/><rect width="0.9433962264150944em" height="3.6626323149557054em" x="75.47169811320755em" y="26.337367685044295em" fill="#aaa"/><rect width="0.9433962264150944em" height="1.56658529616539em" x="76.41509433962264em" y="28.43341470383461em" fill="#aaa"/><rect width="0.9433962264150944em" height="4.016083058850469em" x="77.35849056603773em" y="25.98391694114953em" fill="#aaa"/><rect width="0.9433962264150944em" height="3.233929785400566em" x="78.30188679245283em" y="26.766070214599434em" fill="#aaa"/><rect width="0.9433962264150944em" height="2.406955857387081em" x="79.24528301886792em" y="27.593044142612918em" fill="#aaa"/><rect width="0.9433962264150944em" height="2.6022044812947613em" x="80.18867924528303em" y="27.397795518705237em" fill="#aaa"/><rect width="0.9433962264150944em" height="1.9933296981051778em" x="81.13207547169812em" y="28.00667030189482em" fill="#aaa"/><rect width="0.9433962264150944em" height="2.2447025625419634em" x="82.0754716981132em" y="27.755297437458037em" fill="#aaa"/><rect width="0.9433962264150944em" height="1.54622909359904em" x="83.01886792452831em" y="28.453770906400962em" fill="#aaa"/><rect width="0.9433962264150944em" height="2.3417161958735786em" x="83.9622641509434em" y="27.65828380412642em" fill="#aaa"/><rect width="0.9433962264150944em" height="2.85817305441584em" x="84.90566037735849em" y="27.14182694558416em" fill="#aaa"/><rect width="0.9433962264150944em" height="3.29157788688536em" x="85.84905660377359em" y="26.70842211311464em" fill="#aaa"/><rect width="0.9433962264150944em" height="3.7268168413075715em" x="86.79245283018868em" y="26.27318315869243em" fill="#aaa"/><rect width="0.9433962264150944em" height="2.6954696159186446em" x="87.73584905660377em" y="27.304530384081357em" fill="#aaa"/><rect width="0.9433962264150944em" height="3.1266584497906527em" x="88.67924528301887em" y="26.873341550209346em" fill="#aaa"/><rect width="0.9433962264150944em" height="5.202930673633069em" x="89.62264150943396em" y="24.79706932636693em" fill="#aaa"/><rect width="0.9433962264150944em" height="9.48163747894601em" x="90.56603773584905em" y="20.51836252105399em" fill="#aaa"/><rect width="0.9433962264150944em" height="30em" x="91.50943396226415em" y="0em" fill="#aaa"/><rect width="0.9433962264150944em" height="29.31671412188195em" x="92.45283018867924em" y="0.6832858781180491em" fill="#aaa"/><rect width="0.9433962264150944em" height="21.61586247393661em" x="93.39622641509435em" y="8.384137526063391em" fill="#aaa"/><rect width="0.9433962264150944em" height="14.651002859895252em" x="94.33962264150944em" y="15.348997140104748em" fill="#aaa"/><rect width="0.9433962264150944em" height="17.538429896390056em" x="95.28301886792453em" y="12.461570103609944em" fill="#aaa"/><rect width="0.9433962264150944em" height="17.123766658875425em" x="96.22641509433963em" y="12.876233341124575em" fill="#aaa"/><rect width="0.9433962264150944em" height="4.272868260807721em" x="97.16981132075472em" y="25.72713173919228em" fill="#aaa"/><rect width="0.9433962264150944em" height="6.313930460319737em" x="98.11320754716981em" y="23.68606953968026em" fill="#aaa"/><rect width="0.9433962264150944em" height="4.142261271178291em" x="99.05660377358491em" y="25.857738728821708em" fill="#aaa"/></svg>