<?xml version="1.0" standalone="no"?>
<svg xmlns:xlink="http://www.w3.org/1999/xlink" xmlns="http://www.w3.org/2000/svg" class="topic-graph" style="width: 100em; height: 30em; text-align: center;"><rect width="0.9433962264150944em" height="18.661575419928283em" x="0em" y="11.338424580071717em" fill="#aaa"/><rect width="0.9433962264150944em" height="4.714817725868715em" x="0.9433962264150944em" y="25.285182274131284em" fill="#aaa"/><rect width="0.9433962264150944em" height="13.318797816883567em" x="1.8867924528301887em" y="16.681202183116433em" fill="#aaa"/><rect width="0.9433962264150944em" height="6.995625130263708em" x="2.830188679245283em" y="23.004374869736292em" fill="#aaa"/><rect width="0.9433962264150944em" height="15.033874643278862em" x="3.7735849056603774em" y="14.966125356721138em" fill="#aaa"/><rect width="0.9433962264150944em" height="12.878874088608033em" x="4.716981132075472em" y="17.121125911391967em" fill="#aaa"/><rect width="0.9433962264150944em" height="11.7473581889917em" x="5.660377358490566em" y="18.2526418110083em" fill="#aaa"/><rect width="0.9433962264150944em" height="10.64091208565991em" x="6.60377358490566em" y="19.35908791434009em" fill="#aaa"/><rect width="0.9433962264150944em" height="8.778529246418831em" x="7.547169811320755em" y="21.22147075358117em" fill="#aaa"/><rect width="0.9433962264150944em" height="18.304273699183717em" x="8.49056603773585em" y="11.695726300816283em" fill="#aaa"/><rect width="0.9433962264150944em" height="30em" x="9.433962264150944em" y="0em" fill="#aaa"/><rect width="0.9433962264150944em" height="8.734732018333187em" x="10.377358490566039em" y="21.265267981666813em" fill="#aaa"/><rect width="0.9433962264150944em" height="8.791663735214042em" x="11.320754716981131em" y="21.208336264785956em" fill="#aaa"/><rect width="0.9433962264150944em" height="0em" x="12.264150943396226em" y="30em" fill="#aaa"/><rect width="0.9433962264150944em" height="14.146666389206281em" x="13.20754716981132em" y="15.853333610793719em" fill="#aaa"/><rect width="0.9433962264150944em" height="5.810801991314225em" x="14.150943396226415em" y="24.189198008685775em" fill="#aaa"/><rect width="0.9433962264150944em" height="13.051857980978864em" x="15.09433962264151em" y="16.948142019021134em" fill="#aaa"/><rect width="0.9433962264150944em" height="6.46915397687635em" x="16.037735849056602em" y="23.53084602312365em" fill="#aaa"/><rect width="0.9433962264150944em" height="11.246030867121133em" x="16.9811320754717em" y="18.753969132878865em" fill="#aaa"/><rect width="0.9433962264150944em" height="6.861165154224727em" x="17.92452830188679em" y="23.13883484577527em" fill="#aaa"/><rect width="0.9433962264150944em" height="13.96356585518769em" x="18.867924528301888em" y="16.03643414481231em" fill="#aaa"/><rect width="0.9433962264150944em" height="12.365816534148182em" x="19.81132075471698em" y="17.63418346585182em" fill="#aaa"/><rect width="0.9433962264150944em" height="17.4503910938725em" x="20.754716981132077em" y="12.5496089061275em" fill="#aaa"/><rect width="0.9433962264150944em" height="10.376310039464773em" x="21.69811320754717em" y="19.623689960535227em" fill="#aaa"/><rect width="0.9433962264150944em" height="14.092419572961523em" x="22.641509433962263em" y="15.907580427038477em" fill="#aaa"/><rect width="0.9433962264150944em" height="15.35090788654636em" x="23.58490566037736em" y="14.64909211345364em" fill="#aaa"/><rect width="0.9433962264150944em" height="0em" x="24.528301886792452em" y="30em" fill="#aaa"/><rect width="0.9433962264150944em" height="11.90906218753811em" x="25.471698113207548em" y="18.09093781246189em" fill="#aaa"/><rect width="0.9433962264150944em" height="13.34977601441439em" x="26.41509433962264em" y="16.650223985585612em" fill="#aaa"/><rect width="0.9433962264150944em" height="10.95628422825445em" x="27.358490566037737em" y="19.04371577174555em" fill="#aaa"/><rect width="0.9433962264150944em" height="7.998413028758308em" x="28.30188679245283em" y="22.001586971241693em" fill="#aaa"/><rect width="0.9433962264150944em" height="10.112544372269333em" x="29.245283018867926em" y="19.887455627730667em" fill="#aaa"/><rect width="0.9433962264150944em" height="11.589781608101868em" x="30.18867924528302em" y="18.410218391898134em" fill="#aaa"/><rect width="0.9433962264150944em" height="9.346734427299372em" x="31.132075471698112em" y="20.653265572700626em" fill="#aaa"/><rect width="0.9433962264150944em" height="10.0492013513868em" x="32.075471698113205em" y="19.9507986486132em" fill="#aaa"/><rect width="0.9433962264150944em" height="11.16117010734391em" x="33.0188679245283em" y="18.83882989265609em" fill="#aaa"/><rect width="0.9433962264150944em" height="8.785228006035116em" x="33.9622641509434em" y="21.214771993964884em" fill="#aaa"/><rect width="0.9433962264150944em" height="9.122519483408249em" x="34.905660377358494em" y="20.877480516591753em" fill="#aaa"/><rect width="0.9433962264150944em" height="13.50486700908779em" x="35.84905660377358em" y="16.49513299091221em" fill="#aaa"/><rect width="0.9433962264150944em" height="8.977892709936654em" x="36.79245283018868em" y="21.022107290063346em" fill="#aaa"/><rect width="0.9433962264150944em" height="12.789247621057369em" x="37.735849056603776em" y="17.21075237894263em" fill="#aaa"/><rect width="0.9433962264150944em" height="15.6523208276637em" x="38.679245283018865em" y="14.3476791723363em" fill="#aaa"/><rect width="0.9433962264150944em" height="14.129054703528968em" x="39.62264150943396em" y="15.870945296471032em" fill="#aaa"/><rect width="0.9433962264150944em" height="11.97111849662123em" x="40.56603773584906em" y="18.02888150337877em" fill="#aaa"/><rect width="0.9433962264150944em" height="9.818654922586566em" x="41.509433962264154em" y="20.181345077413432em" fill="#aaa"/><rect width="0.9433962264150944em" height="8.921840985343987em" x="42.45283018867924em" y="21.078159014656013em" fill="#aaa"/><rect width="0.9433962264150944em" height="7.407095454119053em" x="43.39622641509434em" y="22.59290454588095em" fill="#aaa"/><rect width="0.9433962264150944em" height="9.079147883302676em" x="44.339622641509436em" y="20.920852116697326em" fill="#aaa"/><rect width="0.9433962264150944em" height="11.29216495547629em" x="45.283018867924525em" y="18.707835044523712em" fill="#aaa"/><rect width="0.9433962264150944em" height="10.874314789186142em" x="46.22641509433962em" y="19.125685210813856em" fill="#aaa"/><rect width="0.9433962264150944em" height="6.52179982997087em" x="47.16981132075472em" y="23.47820017002913em" fill="#aaa"/><rect width="0.9433962264150944em" height="10.904009413900523em" x="48.113207547169814em" y="19.095990586099475em" fill="#aaa"/><rect width="0.9433962264150944em" height="8.373908841444106em" x="49.056603773584904em" y="21.626091158555894em" fill="#aaa"/><rect width="0.9433962264150944em" height="8.191884735510223em" x="50em" y="21.80811526448978em" fill="#aaa"/><rect width="0.9433962264150944em" height="5.989886658594421em" x="50.943396226415096em" y="24.010113341405578em" fill="#aaa"/><rect width="0.9433962264150944em" height="7.990591702094292em" x="51.88679245283019em" y="22.009408297905708em" fill="#aaa"/><rect width="0.9433962264150944em" height="12.687603094499433em" x="52.83018867924528em" y="17.312396905500567em" fill="#aaa"/><rect width="0.9433962264150944em" height="7.774620239420222em" x="53.77358490566038em" y="22.225379760579777em" fill="#aaa"/><rect width="0.9433962264150944em" height="8.676937817571705em" x="54.716981132075475em" y="21.323062182428295em" fill="#aaa"/><rect width="0.9433962264150944em" height="7.625962658382555em" x="55.660377358490564em" y="22.374037341617445em" fill="#aaa"/><rect width="0.9433962264150944em" height="7.0853765663525055em" x="56.60377358490566em" y="22.914623433647495em" fill="#aaa"/><rect width="0.9433962264150944em" height="5.535152426090328em" x="57.54716981132076em" y="24.464847573909672em" fill="#aaa"/><rect width="0.9433962264150944em" height="6.6697930462802395em" x="58.49056603773585em" y="23.33020695371976em" fill="#aaa"/><rect width="0.9433962264150944em" height="8.23875150056058em" x="59.43396226415094em" y="21.761248499439418em" fill="#aaa"/><rect width="0.9433962264150944em" height="7.664026374344165em" x="60.37735849056604em" y="22.335973625655836em" fill="#aaa"/><rect width="0.9433962264150944em" height="6.344967612200215em" x="61.320754716981135em" y="23.655032387799785em" fill="#aaa"/><rect width="0.9433962264150944em" height="7.6420754986001525em" x="62.264150943396224em" y="22.357924501399847em" fill="#aaa"/><rect width="0.9433962264150944em" height="8.806711789747814em" x="63.20754716981132em" y="21.193288210252184em" fill="#aaa"/><rect width="0.9433962264150944em" height="7.800729600230908em" x="64.15094339622641em" y="22.19927039976909em" fill="#aaa"/><rect width="0.9433962264150944em" height="7.246388161263557em" x="65.09433962264151em" y="22.753611838736443em" fill="#aaa"/><rect width="0.9433962264150944em" height="6.054521967890556em" x="66.0377358490566em" y="23.945478032109442em" fill="#aaa"/><rect width="0.9433962264150944em" height="8.870181000992707em" x="66.9811320754717em" y="21.12981899900729em" fill="#aaa"/><rect width="0.9433962264150944em" height="5.249217051830543em" x="67.9245283018868em" y="24.75078294816946em" fill="#aaa"/><rect width="0.9433962264150944em" height="7.008646685151582em" x="68.86792452830188em" y="22.991353314848418em" fill="#aaa"/><rect width="0.9433962264150944em" height="5.64825307417906em" x="69.81132075471699em" y="24.35174692582094em" fill="#aaa"/><rect width="0.9433962264150944em" height="6.654882077772401em" x="70.75471698113208em" y="23.3451179222276em" fill="#aaa"/><rect width="0.9433962264150944em" height="4.97741198548643em" x="71.69811320754717em" y="25.02258801451357em" fill="#aaa"/><rect width="0.9433962264150944em" height="5.9913234427847915em" x="72.64150943396227em" y="24.00867655721521em" fill="#aaa"/><rect width="0.9433962264150944em" height="3.3276165537786593em" x="73.58490566037736em" y="26.67238344622134em" fill="#aaa"/><rect width="0.9433962264150944em" height="4.532580982836578em" x="74.52830188679245em" y="25.467419017163422em" fill="#aaa"/><rect width="0.9433962264150944em" height="3.590540894242558em" x="75.47169811320755em" y="26.409459105757442em" fill="#aaa"/><rect width="0.9433962264150944em" height="5.1957117882876895em" x="76.41509433962264em" y="24.80428821171231em" fill="#aaa"/><rect width="0.9433962264150944em" height="2.02925002298215em" x="77.35849056603773em" y="27.97074997701785em" fill="#aaa"/><rect width="0.9433962264150944em" height="6.385439591577425em" x="78.30188679245283em" y="23.614560408422577em" fill="#aaa"/><rect width="0.9433962264150944em" height="3.2785367350219503em" x="79.24528301886792em" y="26.72146326497805em" fill="#aaa"/><rect width="0.9433962264150944em" height="3.1657285459284767em" x="80.18867924528303em" y="26.834271454071523em" fill="#aaa"/><rect width="0.9433962264150944em" height="4.285252551215341em" x="81.13207547169812em" y="25.71474744878466em" fill="#aaa"/><rect width="0.9433962264150944em" height="3.340154934703539em" x="82.0754716981132em" y="26.659845065296462em" fill="#aaa"/><rect width="0.9433962264150944em" height="2.7554026783099443em" x="83.01886792452831em" y="27.244597321690055em" fill="#aaa"/><rect width="0.9433962264150944em" height="4.365762484910808em" x="83.9622641509434em" y="25.634237515089193em" fill="#aaa"/><rect width="0.9433962264150944em" height="2.968511381571707em" x="84.90566037735849em" y="27.03148861842829em" fill="#aaa"/><rect width="0.9433962264150944em" height="2.7139490256327123em" x="85.84905660377359em" y="27.28605097436729em" fill="#aaa"/><rect width="0.9433962264150944em" height="4.489190623374467em" x="86.79245283018868em" y="25.51080937662553em" fill="#aaa"/><rect width="0.9433962264150944em" height="3.4302946077516534em" x="87.73584905660377em" y="26.569705392248345em" fill="#aaa"/><rect width="0.9433962264150944em" height="3.501498286710753em" x="88.67924528301887em" y="26.498501713289247em" fill="#aaa"/><rect width="0.9433962264150944em" height="2.6841951696242337em" x="89.62264150943396em" y="27.315804830375768em" fill="#aaa"/><rect width="0.9433962264150944em" height="2.25600231807281em" x="90.56603773584905em" y="27.74399768192719em" fill="#aaa"/><rect width="0.9433962264150944em" height="3.788756279275684em" x="91.50943396226415em" y="26.211243720724315em" fill="#aaa"/><rect width="0.9433962264150944em" height="3.4111081813048334em" x="92.45283018867924em" y="26.588891818695167em" fill="#aaa"/><rect width="0.9433962264150944em" height="2.9004577822321504em" x="93.39622641509435em" y="27.099542217767848em" fill="#aaa"/><rect width="0.9433962264150944em" height="4.263962253396114em" x="94.33962264150944em" y="25.736037746603884em" fill="#aaa"/><rect width="0.9433962264150944em" height="3.6018820653650976em" x="95.28301886792453em" y="26.398117934634904em" fill="#aaa"/><rect width="0.9433962264150944em" height="2.140240069257075em" x="96.22641509433963em" y="27.859759930742925em" fill="#aaa"/><rect width="0.9433962264150944em" height="4.434958449370614em" x="97.16981132075472em" y="25.565041550629388em" fill="#aaa"/><rect width="0.9433962264150944em" height="3.832407082576658em" x="98.11320754716981em" y="26.16759291742334em" fill="#aaa"/><rect width="0.9433962264150944em" height="3.006578239413236em" x="99.05660377358491em" y="26.993421760586763em" fill="#aaa"/></svg>