<?xml version="1.0" standalone="no"?>
<svg xmlns:xlink="http://www.w3.org/1999/xlink" xmlns="http://www.w3.org/2000/svg" class="topic-graph" style="width: 100em; height: 30em; text-align: center;"><rect width="0.9433962264150944em" height="1.1569282516695307em" x="0em" y="28.84307174833047em" fill="#aaa"/><rect width="0.9433962264150944em" height="5.627442072998255em" x="0.9433962264150944em" y="24.372557927001743em" fill="#aaa"/><rect width="0.9433962264150944em" height="0.8338351723203098em" x="1.8867924528301887em" y="29.16616482767969em" fill="#aaa"/><rect width="0.9433962264150944em" height="8.342217744066891em" x="2.830188679245283em" y="21.657782255933107em" fill="#aaa"/><rect width="0.9433962264150944em" height="2.789460476373819em" x="3.7735849056603774em" y="27.21053952362618em" fill="#aaa"/><rect width="0.9433962264150944em" height="5.199071076809103em" x="4.716981132075472em" y="24.800928923190895em" fill="#aaa"/><rect width="0.9433962264150944em" height="2.2638254599234786em" x="5.660377358490566em" y="27.736174540076522em" fill="#aaa"/><rect width="0.9433962264150944em" height="2.6936347054933374em" x="6.60377358490566em" y="27.306365294506662em" fill="#aaa"/><rect width="0.9433962264150944em" height="5.778611966742646em" x="7.547169811320755em" y="24.221388033257355em" fill="#aaa"/><rect width="0.9433962264150944em" height="8.465969417726313em" x="8.49056603773585em" y="21.534030582273687em" fill="#aaa"/><rect width="0.9433962264150944em" height="4.817546554195691em" x="9.433962264150944em" y="25.18245344580431em" fill="#aaa"/><rect width="0.9433962264150944em" height="9.040529055145416em" x="10.377358490566039em" y="20.959470944854584em" fill="#aaa"/><rect width="0.9433962264150944em" height="3.898438486759842em" x="11.320754716981131em" y="26.101561513240156em" fill="#aaa"/><rect width="0.9433962264150944em" height="0em" x="12.264150943396226em" y="30em" fill="#aaa"/><rect width="0.9433962264150944em" height="9.321731209586336em" x="13.20754716981132em" y="20.678268790413664em" fill="#aaa"/><rect width="0.9433962264150944em" height="8.529206925634893em" x="14.150943396226415em" y="21.470793074365105em" fill="#aaa"/><rect width="0.9433962264150944em" height="4.1807006074867274em" x="15.09433962264151em" y="25.819299392513273em" fill="#aaa"/><rect width="0.9433962264150944em" height="7.3256893503924em" x="16.037735849056602em" y="22.674310649607598em" fill="#aaa"/><rect width="0.9433962264150944em" height="4.783554007538533em" x="16.9811320754717em" y="25.216445992461466em" fill="#aaa"/><rect width="0.9433962264150944em" height="3.4419794424812498em" x="17.92452830188679em" y="26.558020557518752em" fill="#aaa"/><rect width="0.9433962264150944em" height="6.150631665863774em" x="18.867924528301888em" y="23.849368334136226em" fill="#aaa"/><rect width="0.9433962264150944em" height="30em" x="19.81132075471698em" y="0em" fill="#aaa"/><rect width="0.9433962264150944em" height="10.180931994782602em" x="20.754716981132077em" y="19.819068005217396em" fill="#aaa"/><rect width="0.9433962264150944em" height="22.70752389559481em" x="21.69811320754717em" y="7.292476104405189em" fill="#aaa"/><rect width="0.9433962264150944em" height="9.039328490524001em" x="22.641509433962263em" y="20.960671509476em" fill="#aaa"/><rect width="0.9433962264150944em" height="5.256222289034093em" x="23.58490566037736em" y="24.743777710965908em" fill="#aaa"/><rect width="0.9433962264150944em" height="0em" x="24.528301886792452em" y="30em" fill="#aaa"/><rect width="0.9433962264150944em" height="13.155516059825963em" x="25.471698113207548em" y="16.844483940174037em" fill="#aaa"/><rect width="0.9433962264150944em" height="5.861601699849574em" x="26.41509433962264em" y="24.138398300150428em" fill="#aaa"/><rect width="0.9433962264150944em" height="16.357443662323405em" x="27.358490566037737em" y="13.642556337676595em" fill="#aaa"/><rect width="0.9433962264150944em" height="3.701318707666102em" x="28.30188679245283em" y="26.2986812923339em" fill="#aaa"/><rect width="0.9433962264150944em" height="10.948911465453298em" x="29.245283018867926em" y="19.0510885345467em" fill="#aaa"/><rect width="0.9433962264150944em" height="2.229113016153662em" x="30.18867924528302em" y="27.77088698384634em" fill="#aaa"/><rect width="0.9433962264150944em" height="3.070384946687175em" x="31.132075471698112em" y="26.929615053312826em" fill="#aaa"/><rect width="0.9433962264150944em" height="2.059072198571331em" x="32.075471698113205em" y="27.940927801428668em" fill="#aaa"/><rect width="0.9433962264150944em" height="2.5564598667177423em" x="33.0188679245283em" y="27.44354013328226em" fill="#aaa"/><rect width="0.9433962264150944em" height="16.21909331464154em" x="33.9622641509434em" y="13.78090668535846em" fill="#aaa"/><rect width="0.9433962264150944em" height="3.9122144491427564em" x="34.905660377358494em" y="26.087785550857244em" fill="#aaa"/><rect width="0.9433962264150944em" height="13.414439689004004em" x="35.84905660377358em" y="16.585560310995994em" fill="#aaa"/><rect width="0.9433962264150944em" height="18.963282122610853em" x="36.79245283018868em" y="11.036717877389147em" fill="#aaa"/><rect width="0.9433962264150944em" height="12.226207407697798em" x="37.735849056603776em" y="17.7737925923022em" fill="#aaa"/><rect width="0.9433962264150944em" height="2.307913848497035em" x="38.679245283018865em" y="27.692086151502966em" fill="#aaa"/><rect width="0.9433962264150944em" height="6.498432257929741em" x="39.62264150943396em" y="23.501567742070257em" fill="#aaa"/><rect width="0.9433962264150944em" height="18.782276708281472em" x="40.56603773584906em" y="11.217723291718528em" fill="#aaa"/><rect width="0.9433962264150944em" height="5.727630340990771em" x="41.509433962264154em" y="24.27236965900923em" fill="#aaa"/><rect width="0.9433962264150944em" height="5.028484643517953em" x="42.45283018867924em" y="24.971515356482048em" fill="#aaa"/><rect width="0.9433962264150944em" height="3.5991408184913687em" x="43.39622641509434em" y="26.400859181508633em" fill="#aaa"/><rect width="0.9433962264150944em" height="3.0263149000291154em" x="44.339622641509436em" y="26.973685099970886em" fill="#aaa"/><rect width="0.9433962264150944em" height="4.074469798270512em" x="45.283018867924525em" y="25.925530201729487em" fill="#aaa"/><rect width="0.9433962264150944em" height="1.8430209077880932em" x="46.22641509433962em" y="28.156979092211905em" fill="#aaa"/><rect width="0.9433962264150944em" height="2.8710017267097205em" x="47.16981132075472em" y="27.12899827329028em" fill="#aaa"/><rect width="0.9433962264150944em" height="1.6738952332760162em" x="48.113207547169814em" y="28.326104766723983em" fill="#aaa"/><rect width="0.9433962264150944em" height="4.779475755057565em" x="49.056603773584904em" y="25.220524244942435em" fill="#aaa"/><rect width="0.9433962264150944em" height="1.3571104135409189em" x="50em" y="28.64288958645908em" fill="#aaa"/><rect width="0.9433962264150944em" height="1.9316285314717871em" x="50.943396226415096em" y="28.068371468528213em" fill="#aaa"/><rect width="0.9433962264150944em" height="1.151755589303094em" x="51.88679245283019em" y="28.848244410696907em" fill="#aaa"/><rect width="0.9433962264150944em" height="0.5450876836418784em" x="52.83018867924528em" y="29.454912316358122em" fill="#aaa"/><rect width="0.9433962264150944em" height="13.556799353040669em" x="53.77358490566038em" y="16.443200646959333em" fill="#aaa"/><rect width="0.9433962264150944em" height="4.436925096396495em" x="54.716981132075475em" y="25.563074903603507em" fill="#aaa"/><rect width="0.9433962264150944em" height="3.5049227120596758em" x="55.660377358490564em" y="26.495077287940326em" fill="#aaa"/><rect width="0.9433962264150944em" height="7.271264108949547em" x="56.60377358490566em" y="22.728735891050455em" fill="#aaa"/><rect width="0.9433962264150944em" height="5.5633600519748345em" x="57.54716981132076em" y="24.436639948025167em" fill="#aaa"/><rect width="0.9433962264150944em" height="5.735264447452079em" x="58.49056603773585em" y="24.264735552547922em" fill="#aaa"/><rect width="0.9433962264150944em" height="0.9784586340580347em" x="59.43396226415094em" y="29.021541365941964em" fill="#aaa"/><rect width="0.9433962264150944em" height="0.7815807858714972em" x="60.37735849056604em" y="29.218419214128502em" fill="#aaa"/><rect width="0.9433962264150944em" height="1.9834343416917606em" x="61.320754716981135em" y="28.016565658308238em" fill="#aaa"/><rect width="0.9433962264150944em" height="3.214017644127576em" x="62.264150943396224em" y="26.785982355872424em" fill="#aaa"/><rect width="0.9433962264150944em" height="2.3917719949435448em" x="63.20754716981132em" y="27.608228005056453em" fill="#aaa"/><rect width="0.9433962264150944em" height="1.2644099489586942em" x="64.15094339622641em" y="28.735590051041306em" fill="#aaa"/><rect width="0.9433962264150944em" height="1.0779301975746016em" x="65.09433962264151em" y="28.922069802425398em" fill="#aaa"/><rect width="0.9433962264150944em" height="1.3869689538217307em" x="66.0377358490566em" y="28.613031046178268em" fill="#aaa"/><rect width="0.9433962264150944em" height="3.5483060168348146em" x="66.9811320754717em" y="26.451693983165185em" fill="#aaa"/><rect width="0.9433962264150944em" height="1.5953571414124685em" x="67.9245283018868em" y="28.404642858587533em" fill="#aaa"/><rect width="0.9433962264150944em" height="1.526272511478626em" x="68.86792452830188em" y="28.473727488521373em" fill="#aaa"/><rect width="0.9433962264150944em" height="1.8087174438800333em" x="69.81132075471699em" y="28.191282556119965em" fill="#aaa"/><rect width="0.9433962264150944em" height="1.204908901512924em" x="70.75471698113208em" y="28.795091098487077em" fill="#aaa"/><rect width="0.9433962264150944em" height="1.754030531491252em" x="71.69811320754717em" y="28.245969468508747em" fill="#aaa"/><rect width="0.9433962264150944em" height="0.7840979784076832em" x="72.64150943396227em" y="29.215902021592317em" fill="#aaa"/><rect width="0.9433962264150944em" height="1.8201379722629931em" x="73.58490566037736em" y="28.179862027737006em" fill="#aaa"/><rect width="0.9433962264150944em" height="2.927629902059303em" x="74.52830188679245em" y="27.0723700979407em" fill="#aaa"/><rect width="0.9433962264150944em" height="0.7525279409153984em" x="75.47169811320755em" y="29.2474720590846em" fill="#aaa"/><rect width="0.9433962264150944em" height="2.326734941634719em" x="76.41509433962264em" y="27.67326505836528em" fill="#aaa"/><rect width="0.9433962264150944em" height="0.26753060532305484em" x="77.35849056603773em" y="29.732469394676944em" fill="#aaa"/><rect width="0.9433962264150944em" height="2.1597587070491935em" x="78.30188679245283em" y="27.840241292950807em" fill="#aaa"/><rect width="0.9433962264150944em" height="0.9388105573937761em" x="79.24528301886792em" y="29.061189442606224em" fill="#aaa"/><rect width="0.9433962264150944em" height="1.3975905970506366em" x="80.18867924528303em" y="28.602409402949363em" fill="#aaa"/><rect width="0.9433962264150944em" height="1.1057324955496082em" x="81.13207547169812em" y="28.89426750445039em" fill="#aaa"/><rect width="0.9433962264150944em" height="1.919200541803708em" x="82.0754716981132em" y="28.080799458196292em" fill="#aaa"/><rect width="0.9433962264150944em" height="1.2572266521968483em" x="83.01886792452831em" y="28.74277334780315em" fill="#aaa"/><rect width="0.9433962264150944em" height="1.253148675877756em" x="83.9622641509434em" y="28.746851324122243em" fill="#aaa"/><rect width="0.9433962264150944em" height="1.1273778340764176em" x="84.90566037735849em" y="28.872622165923584em" fill="#aaa"/><rect width="0.9433962264150944em" height="2.65337447574688em" x="85.84905660377359em" y="27.34662552425312em" fill="#aaa"/><rect width="0.9433962264150944em" height="5.838546253595253em" x="86.79245283018868em" y="24.161453746404746em" fill="#aaa"/><rect width="0.9433962264150944em" height="2.248458107875655em" x="87.73584905660377em" y="27.751541892124344em" fill="#aaa"/><rect width="0.9433962264150944em" height="2.0853792096650734em" x="88.67924528301887em" y="27.914620790334926em" fill="#aaa"/><rect width="0.9433962264150944em" height="1.5078093370606123em" x="89.62264150943396em" y="28.492190662939386em" fill="#aaa"/><rect width="0.9433962264150944em" height="1.3878512063789694em" x="90.56603773584905em" y="28.61214879362103em" fill="#aaa"/><rect width="0.9433962264150944em" height="1.3051901959896335em" x="91.50943396226415em" y="28.694809804010365em" fill="#aaa"/><rect width="0.9433962264150944em" height="1.1542693594934736em" x="92.45283018867924em" y="28.845730640506527em" fill="#aaa"/><rect width="0.9433962264150944em" height="2.1441933995846028em" x="93.39622641509435em" y="27.8558066004154em" fill="#aaa"/><rect width="0.9433962264150944em" height="3.6782619929563007em" x="94.33962264150944em" y="26.3217380070437em" fill="#aaa"/><rect width="0.9433962264150944em" height="2.9724551104344554em" x="95.28301886792453em" y="27.027544889565544em" fill="#aaa"/><rect width="0.9433962264150944em" height="3.068613098580787em" x="96.22641509433963em" y="26.931386901419213em" fill="#aaa"/><rect width="0.9433962264150944em" height="1.829732647245313em" x="97.16981132075472em" y="28.17026735275469em" fill="#aaa"/><rect width="0.9433962264150944em" height="2.937944826351455em" x="98.11320754716981em" y="27.062055173648545em" fill="#aaa"/><rect width="0.9433962264150944em" height="1.2161047519902832em" x="99.05660377358491em" y="28.783895248009717em" fill="#aaa"/></svg>