<?xml version="1.0" standalone="no"?>
<svg xmlns:xlink="http://www.w3.org/1999/xlink" xmlns="http://www.w3.org/2000/svg" class="topic-graph" style="width: 100em; height: 30em; text-align: center;"><rect width="0.9433962264150944em" height="3.524744659498084em" x="0em" y="26.475255340501917em" fill="#aaa"/><rect width="0.9433962264150944em" height="12.514897664488023em" x="0.9433962264150944em" y="17.485102335511975em" fill="#aaa"/><rect width="0.9433962264150944em" height="11.73443659329827em" x="1.8867924528301887em" y="18.26556340670173em" fill="#aaa"/><rect width="0.9433962264150944em" height="9.997930086598663em" x="2.830188679245283em" y="20.002069913401336em" fill="#aaa"/><rect width="0.9433962264150944em" height="10.044163276071146em" x="3.7735849056603774em" y="19.955836723928854em" fill="#aaa"/><rect width="0.9433962264150944em" height="17.664499039412682em" x="4.716981132075472em" y="12.335500960587318em" fill="#aaa"/><rect width="0.9433962264150944em" height="7.744562294186144em" x="5.660377358490566em" y="22.255437705813854em" fill="#aaa"/><rect width="0.9433962264150944em" height="19.771574905987308em" x="6.60377358490566em" y="10.228425094012692em" fill="#aaa"/><rect width="0.9433962264150944em" height="10.306731358326251em" x="7.547169811320755em" y="19.693268641673747em" fill="#aaa"/><rect width="0.9433962264150944em" height="13.692938809415047em" x="8.49056603773585em" y="16.307061190584953em" fill="#aaa"/><rect width="0.9433962264150944em" height="5.423954009845353em" x="9.433962264150944em" y="24.576045990154647em" fill="#aaa"/><rect width="0.9433962264150944em" height="15.324700091821326em" x="10.377358490566039em" y="14.675299908178674em" fill="#aaa"/><rect width="0.9433962264150944em" height="15.356223465035434em" x="11.320754716981131em" y="14.643776534964566em" fill="#aaa"/><rect width="0.9433962264150944em" height="0em" x="12.264150943396226em" y="30em" fill="#aaa"/><rect width="0.9433962264150944em" height="6.8747414298280525em" x="13.20754716981132em" y="23.125258570171948em" fill="#aaa"/><rect width="0.9433962264150944em" height="6.960032261459459em" x="14.150943396226415em" y="23.03996773854054em" fill="#aaa"/><rect width="0.9433962264150944em" height="9.592709097589927em" x="15.09433962264151em" y="20.407290902410075em" fill="#aaa"/><rect width="0.9433962264150944em" height="10.680652826282014em" x="16.037735849056602em" y="19.319347173717986em" fill="#aaa"/><rect width="0.9433962264150944em" height="9.61470456604029em" x="16.9811320754717em" y="20.385295433959712em" fill="#aaa"/><rect width="0.9433962264150944em" height="11.398171235776019em" x="17.92452830188679em" y="18.60182876422398em" fill="#aaa"/><rect width="0.9433962264150944em" height="9.74432407209874em" x="18.867924528301888em" y="20.255675927901258em" fill="#aaa"/><rect width="0.9433962264150944em" height="9.094799073213311em" x="19.81132075471698em" y="20.90520092678669em" fill="#aaa"/><rect width="0.9433962264150944em" height="14.531964636451919em" x="20.754716981132077em" y="15.468035363548081em" fill="#aaa"/><rect width="0.9433962264150944em" height="9.93272451679553em" x="21.69811320754717em" y="20.06727548320447em" fill="#aaa"/><rect width="0.9433962264150944em" height="9.503992987928267em" x="22.641509433962263em" y="20.496007012071733em" fill="#aaa"/><rect width="0.9433962264150944em" height="10.222595962546444em" x="23.58490566037736em" y="19.777404037453557em" fill="#aaa"/><rect width="0.9433962264150944em" height="0em" x="24.528301886792452em" y="30em" fill="#aaa"/><rect width="0.9433962264150944em" height="16.16389185882399em" x="25.471698113207548em" y="13.836108141176009em" fill="#aaa"/><rect width="0.9433962264150944em" height="13.099465381141174em" x="26.41509433962264em" y="16.900534618858828em" fill="#aaa"/><rect width="0.9433962264150944em" height="15.213881179897543em" x="27.358490566037737em" y="14.786118820102457em" fill="#aaa"/><rect width="0.9433962264150944em" height="13.674480940826436em" x="28.30188679245283em" y="16.325519059173565em" fill="#aaa"/><rect width="0.9433962264150944em" height="15.126090866269545em" x="29.245283018867926em" y="14.873909133730455em" fill="#aaa"/><rect width="0.9433962264150944em" height="9.902393328370342em" x="30.18867924528302em" y="20.097606671629656em" fill="#aaa"/><rect width="0.9433962264150944em" height="17.318390018569318em" x="31.132075471698112em" y="12.681609981430682em" fill="#aaa"/><rect width="0.9433962264150944em" height="13.160146052620696em" x="32.075471698113205em" y="16.839853947379304em" fill="#aaa"/><rect width="0.9433962264150944em" height="15.189770548990136em" x="33.0188679245283em" y="14.810229451009864em" fill="#aaa"/><rect width="0.9433962264150944em" height="16.32997883063321em" x="33.9622641509434em" y="13.670021169366791em" fill="#aaa"/><rect width="0.9433962264150944em" height="16.398411475034585em" x="34.905660377358494em" y="13.601588524965415em" fill="#aaa"/><rect width="0.9433962264150944em" height="30em" x="35.84905660377358em" y="0em" fill="#aaa"/><rect width="0.9433962264150944em" height="18.923833633191716em" x="36.79245283018868em" y="11.076166366808284em" fill="#aaa"/><rect width="0.9433962264150944em" height="13.675997533914703em" x="37.735849056603776em" y="16.324002466085297em" fill="#aaa"/><rect width="0.9433962264150944em" height="13.163831586465875em" x="38.679245283018865em" y="16.836168413534125em" fill="#aaa"/><rect width="0.9433962264150944em" height="15.086226481837654em" x="39.62264150943396em" y="14.913773518162346em" fill="#aaa"/><rect width="0.9433962264150944em" height="11.567248071031997em" x="40.56603773584906em" y="18.432751928968003em" fill="#aaa"/><rect width="0.9433962264150944em" height="10.617446395597106em" x="41.509433962264154em" y="19.382553604402894em" fill="#aaa"/><rect width="0.9433962264150944em" height="12.293539054314959em" x="42.45283018867924em" y="17.70646094568504em" fill="#aaa"/><rect width="0.9433962264150944em" height="11.493776838482663em" x="43.39622641509434em" y="18.506223161517337em" fill="#aaa"/><rect width="0.9433962264150944em" height="11.54726244471317em" x="44.339622641509436em" y="18.45273755528683em" fill="#aaa"/><rect width="0.9433962264150944em" height="10.888965043552233em" x="45.283018867924525em" y="19.111034956447767em" fill="#aaa"/><rect width="0.9433962264150944em" height="14.357222838614266em" x="46.22641509433962em" y="15.642777161385734em" fill="#aaa"/><rect width="0.9433962264150944em" height="16.611823670198692em" x="47.16981132075472em" y="13.388176329801308em" fill="#aaa"/><rect width="0.9433962264150944em" height="21.39175873454246em" x="48.113207547169814em" y="8.60824126545754em" fill="#aaa"/><rect width="0.9433962264150944em" height="14.568081881920264em" x="49.056603773584904em" y="15.431918118079736em" fill="#aaa"/><rect width="0.9433962264150944em" height="14.69705156705095em" x="50em" y="15.30294843294905em" fill="#aaa"/><rect width="0.9433962264150944em" height="15.437243441928445em" x="50.943396226415096em" y="14.562756558071555em" fill="#aaa"/><rect width="0.9433962264150944em" height="19.592433222148408em" x="51.88679245283019em" y="10.407566777851592em" fill="#aaa"/><rect width="0.9433962264150944em" height="16.286027595659604em" x="52.83018867924528em" y="13.713972404340396em" fill="#aaa"/><rect width="0.9433962264150944em" height="16.900813701651632em" x="53.77358490566038em" y="13.099186298348368em" fill="#aaa"/><rect width="0.9433962264150944em" height="23.05609202754628em" x="54.716981132075475em" y="6.943907972453719em" fill="#aaa"/><rect width="0.9433962264150944em" height="20.741052802848937em" x="55.660377358490564em" y="9.258947197151063em" fill="#aaa"/><rect width="0.9433962264150944em" height="9.64371902028214em" x="56.60377358490566em" y="20.35628097971786em" fill="#aaa"/><rect width="0.9433962264150944em" height="10.996211431987772em" x="57.54716981132076em" y="19.003788568012226em" fill="#aaa"/><rect width="0.9433962264150944em" height="15.307069490670123em" x="58.49056603773585em" y="14.692930509329877em" fill="#aaa"/><rect width="0.9433962264150944em" height="15.433888714817677em" x="59.43396226415094em" y="14.566111285182323em" fill="#aaa"/><rect width="0.9433962264150944em" height="13.153337271143156em" x="60.37735849056604em" y="16.846662728856842em" fill="#aaa"/><rect width="0.9433962264150944em" height="15.419857501166753em" x="61.320754716981135em" y="14.580142498833247em" fill="#aaa"/><rect width="0.9433962264150944em" height="15.232504411721816em" x="62.264150943396224em" y="14.767495588278184em" fill="#aaa"/><rect width="0.9433962264150944em" height="9.662707011833843em" x="63.20754716981132em" y="20.337292988166155em" fill="#aaa"/><rect width="0.9433962264150944em" height="15.049446172931402em" x="64.15094339622641em" y="14.950553827068598em" fill="#aaa"/><rect width="0.9433962264150944em" height="12.367507585938194em" x="65.09433962264151em" y="17.632492414061808em" fill="#aaa"/><rect width="0.9433962264150944em" height="15.509673451567066em" x="66.0377358490566em" y="14.490326548432934em" fill="#aaa"/><rect width="0.9433962264150944em" height="12.827622868499315em" x="66.9811320754717em" y="17.172377131500685em" fill="#aaa"/><rect width="0.9433962264150944em" height="20.62588792372881em" x="67.9245283018868em" y="9.374112076271189em" fill="#aaa"/><rect width="0.9433962264150944em" height="16.271471084855712em" x="68.86792452830188em" y="13.728528915144288em" fill="#aaa"/><rect width="0.9433962264150944em" height="24.90398176465639em" x="69.81132075471699em" y="5.09601823534361em" fill="#aaa"/><rect width="0.9433962264150944em" height="23.265890628712768em" x="70.75471698113208em" y="6.734109371287232em" fill="#aaa"/><rect width="0.9433962264150944em" height="19.79700117188014em" x="71.69811320754717em" y="10.20299882811986em" fill="#aaa"/><rect width="0.9433962264150944em" height="14.583828862374023em" x="72.64150943396227em" y="15.416171137625977em" fill="#aaa"/><rect width="0.9433962264150944em" height="14.584339357761188em" x="73.58490566037736em" y="15.415660642238812em" fill="#aaa"/><rect width="0.9433962264150944em" height="15.441354537690113em" x="74.52830188679245em" y="14.558645462309887em" fill="#aaa"/><rect width="0.9433962264150944em" height="18.251305883317762em" x="75.47169811320755em" y="11.748694116682238em" fill="#aaa"/><rect width="0.9433962264150944em" height="21.886190464404795em" x="76.41509433962264em" y="8.113809535595205em" fill="#aaa"/><rect width="0.9433962264150944em" height="16.393787020903183em" x="77.35849056603773em" y="13.606212979096817em" fill="#aaa"/><rect width="0.9433962264150944em" height="17.58979809444596em" x="78.30188679245283em" y="12.41020190555404em" fill="#aaa"/><rect width="0.9433962264150944em" height="14.125595715617399em" x="79.24528301886792em" y="15.874404284382601em" fill="#aaa"/><rect width="0.9433962264150944em" height="15.389724588751607em" x="80.18867924528303em" y="14.610275411248393em" fill="#aaa"/><rect width="0.9433962264150944em" height="18.454636759422897em" x="81.13207547169812em" y="11.545363240577103em" fill="#aaa"/><rect width="0.9433962264150944em" height="18.619907603589372em" x="82.0754716981132em" y="11.380092396410628em" fill="#aaa"/><rect width="0.9433962264150944em" height="25.86264764477026em" x="83.01886792452831em" y="4.137352355229741em" fill="#aaa"/><rect width="0.9433962264150944em" height="15.584725084764399em" x="83.9622641509434em" y="14.415274915235601em" fill="#aaa"/><rect width="0.9433962264150944em" height="17.14108925199236em" x="84.90566037735849em" y="12.858910748007641em" fill="#aaa"/><rect width="0.9433962264150944em" height="18.969680653472203em" x="85.84905660377359em" y="11.030319346527797em" fill="#aaa"/><rect width="0.9433962264150944em" height="20.04695563079059em" x="86.79245283018868em" y="9.953044369209412em" fill="#aaa"/><rect width="0.9433962264150944em" height="18.585450062962444em" x="87.73584905660377em" y="11.414549937037556em" fill="#aaa"/><rect width="0.9433962264150944em" height="12.392571363702475em" x="88.67924528301887em" y="17.607428636297527em" fill="#aaa"/><rect width="0.9433962264150944em" height="17.406593156738886em" x="89.62264150943396em" y="12.593406843261114em" fill="#aaa"/><rect width="0.9433962264150944em" height="14.653825475247336em" x="90.56603773584905em" y="15.346174524752664em" fill="#aaa"/><rect width="0.9433962264150944em" height="19.237449829131254em" x="91.50943396226415em" y="10.762550170868746em" fill="#aaa"/><rect width="0.9433962264150944em" height="17.413575237378733em" x="92.45283018867924em" y="12.586424762621267em" fill="#aaa"/><rect width="0.9433962264150944em" height="17.76683346517149em" x="93.39622641509435em" y="12.23316653482851em" fill="#aaa"/><rect width="0.9433962264150944em" height="16.95604370597033em" x="94.33962264150944em" y="13.04395629402967em" fill="#aaa"/><rect width="0.9433962264150944em" height="17.074712670665036em" x="95.28301886792453em" y="12.925287329334964em" fill="#aaa"/><rect width="0.9433962264150944em" height="14.559273410356063em" x="96.22641509433963em" y="15.440726589643937em" fill="#aaa"/><rect width="0.9433962264150944em" height="11.703033186888774em" x="97.16981132075472em" y="18.296966813111226em" fill="#aaa"/><rect width="0.9433962264150944em" height="12.39004246365538em" x="98.11320754716981em" y="17.60995753634462em" fill="#aaa"/><rect width="0.9433962264150944em" height="16.086403372504325em" x="99.05660377358491em" y="13.913596627495675em" fill="#aaa"/></svg>