<?xml version="1.0" standalone="no"?>
<svg xmlns:xlink="http://www.w3.org/1999/xlink" xmlns="http://www.w3.org/2000/svg" class="topic-graph" style="width: 100em; height: 30em; text-align: center;"><rect width="0.9433962264150944em" height="0.6175470023418728em" x="0em" y="29.382452997658127em" fill="#aaa"/><rect width="0.9433962264150944em" height="0.9491811952768693em" x="0.9433962264150944em" y="29.050818804723132em" fill="#aaa"/><rect width="0.9433962264150944em" height="1.4775536073970381em" x="1.8867924528301887em" y="28.522446392602962em" fill="#aaa"/><rect width="0.9433962264150944em" height="0.8416027099527973em" x="2.830188679245283em" y="29.1583972900472em" fill="#aaa"/><rect width="0.9433962264150944em" height="0.3343760583957657em" x="3.7735849056603774em" y="29.665623941604235em" fill="#aaa"/><rect width="0.9433962264150944em" height="0.960477867729371em" x="4.716981132075472em" y="29.03952213227063em" fill="#aaa"/><rect width="0.9433962264150944em" height="0.3762198848080423em" x="5.660377358490566em" y="29.62378011519196em" fill="#aaa"/><rect width="0.9433962264150944em" height="0.2047171269916464em" x="6.60377358490566em" y="29.795282873008354em" fill="#aaa"/><rect width="0.9433962264150944em" height="0.5006029289093309em" x="7.547169811320755em" y="29.49939707109067em" fill="#aaa"/><rect width="0.9433962264150944em" height="0.6375394252385795em" x="8.49056603773585em" y="29.36246057476142em" fill="#aaa"/><rect width="0.9433962264150944em" height="1.235535006444291em" x="9.433962264150944em" y="28.76446499355571em" fill="#aaa"/><rect width="0.9433962264150944em" height="0.2097856132600574em" x="10.377358490566039em" y="29.790214386739944em" fill="#aaa"/><rect width="0.9433962264150944em" height="0.2818171657582213em" x="11.320754716981131em" y="29.71818283424178em" fill="#aaa"/><rect width="0.9433962264150944em" height="0em" x="12.264150943396226em" y="30em" fill="#aaa"/><rect width="0.9433962264150944em" height="0.23552494971080823em" x="13.20754716981132em" y="29.764475050289192em" fill="#aaa"/><rect width="0.9433962264150944em" height="0.3865757020183012em" x="14.150943396226415em" y="29.613424297981698em" fill="#aaa"/><rect width="0.9433962264150944em" height="0.12088607677904127em" x="15.09433962264151em" y="29.87911392322096em" fill="#aaa"/><rect width="0.9433962264150944em" height="0.3925014816176331em" x="16.037735849056602em" y="29.607498518382368em" fill="#aaa"/><rect width="0.9433962264150944em" height="0.3837240090809473em" x="16.9811320754717em" y="29.616275990919053em" fill="#aaa"/><rect width="0.9433962264150944em" height="0.15213837358143842em" x="17.92452830188679em" y="29.847861626418563em" fill="#aaa"/><rect width="0.9433962264150944em" height="0.9215360815566355em" x="18.867924528301888em" y="29.078463918443365em" fill="#aaa"/><rect width="0.9433962264150944em" height="0.25641812971876377em" x="19.81132075471698em" y="29.743581870281236em" fill="#aaa"/><rect width="0.9433962264150944em" height="0.8647793386192062em" x="20.754716981132077em" y="29.135220661380792em" fill="#aaa"/><rect width="0.9433962264150944em" height="0.5892047020513155em" x="21.69811320754717em" y="29.410795297948685em" fill="#aaa"/><rect width="0.9433962264150944em" height="0.8255014399475008em" x="22.641509433962263em" y="29.1744985600525em" fill="#aaa"/><rect width="0.9433962264150944em" height="0.485445105781399em" x="23.58490566037736em" y="29.514554894218602em" fill="#aaa"/><rect width="0.9433962264150944em" height="0em" x="24.528301886792452em" y="30em" fill="#aaa"/><rect width="0.9433962264150944em" height="0.6024766210282511em" x="25.471698113207548em" y="29.397523378971748em" fill="#aaa"/><rect width="0.9433962264150944em" height="0.5456883721636513em" x="26.41509433962264em" y="29.454311627836347em" fill="#aaa"/><rect width="0.9433962264150944em" height="0.7257419569526826em" x="27.358490566037737em" y="29.27425804304732em" fill="#aaa"/><rect width="0.9433962264150944em" height="0.46920734757454685em" x="28.30188679245283em" y="29.530792652425454em" fill="#aaa"/><rect width="0.9433962264150944em" height="0.9804324103789392em" x="29.245283018867926em" y="29.01956758962106em" fill="#aaa"/><rect width="0.9433962264150944em" height="0.9537915833674095em" x="30.18867924528302em" y="29.04620841663259em" fill="#aaa"/><rect width="0.9433962264150944em" height="0.24939393739896423em" x="31.132075471698112em" y="29.750606062601037em" fill="#aaa"/><rect width="0.9433962264150944em" height="0.3500180221879231em" x="32.075471698113205em" y="29.649981977812075em" fill="#aaa"/><rect width="0.9433962264150944em" height="0.5792912494938682em" x="33.0188679245283em" y="29.420708750506133em" fill="#aaa"/><rect width="0.9433962264150944em" height="0.5532367346356617em" x="33.9622641509434em" y="29.44676326536434em" fill="#aaa"/><rect width="0.9433962264150944em" height="0.39084334603396487em" x="34.905660377358494em" y="29.609156653966036em" fill="#aaa"/><rect width="0.9433962264150944em" height="0.6979061774676978em" x="35.84905660377358em" y="29.302093822532303em" fill="#aaa"/><rect width="0.9433962264150944em" height="0.5283271316743348em" x="36.79245283018868em" y="29.471672868325665em" fill="#aaa"/><rect width="0.9433962264150944em" height="0.4429117605199288em" x="37.735849056603776em" y="29.55708823948007em" fill="#aaa"/><rect width="0.9433962264150944em" height="0.5417397693538198em" x="38.679245283018865em" y="29.45826023064618em" fill="#aaa"/><rect width="0.9433962264150944em" height="0.7445104912798634em" x="39.62264150943396em" y="29.255489508720135em" fill="#aaa"/><rect width="0.9433962264150944em" height="0.26804871402621605em" x="40.56603773584906em" y="29.731951285973786em" fill="#aaa"/><rect width="0.9433962264150944em" height="0.4169431997767923em" x="41.509433962264154em" y="29.583056800223208em" fill="#aaa"/><rect width="0.9433962264150944em" height="0.9626608052870098em" x="42.45283018867924em" y="29.03733919471299em" fill="#aaa"/><rect width="0.9433962264150944em" height="0.5569974248472075em" x="43.39622641509434em" y="29.443002575152793em" fill="#aaa"/><rect width="0.9433962264150944em" height="0.8030015263212604em" x="44.339622641509436em" y="29.19699847367874em" fill="#aaa"/><rect width="0.9433962264150944em" height="1.3609020387115922em" x="45.283018867924525em" y="28.639097961288407em" fill="#aaa"/><rect width="0.9433962264150944em" height="0.8373253055518537em" x="46.22641509433962em" y="29.162674694448146em" fill="#aaa"/><rect width="0.9433962264150944em" height="0.9931003476765745em" x="47.16981132075472em" y="29.006899652323426em" fill="#aaa"/><rect width="0.9433962264150944em" height="1.5687220846036705em" x="48.113207547169814em" y="28.43127791539633em" fill="#aaa"/><rect width="0.9433962264150944em" height="0.8142835571848184em" x="49.056603773584904em" y="29.18571644281518em" fill="#aaa"/><rect width="0.9433962264150944em" height="1.428730926464635em" x="50em" y="28.571269073535365em" fill="#aaa"/><rect width="0.9433962264150944em" height="1.3543437173990573em" x="50.943396226415096em" y="28.645656282600942em" fill="#aaa"/><rect width="0.9433962264150944em" height="2.3681012850619143em" x="51.88679245283019em" y="27.631898714938085em" fill="#aaa"/><rect width="0.9433962264150944em" height="1.5312624452971506em" x="52.83018867924528em" y="28.468737554702848em" fill="#aaa"/><rect width="0.9433962264150944em" height="1.3360985640332195em" x="53.77358490566038em" y="28.663901435966782em" fill="#aaa"/><rect width="0.9433962264150944em" height="2.4740477802461767em" x="54.716981132075475em" y="27.525952219753822em" fill="#aaa"/><rect width="0.9433962264150944em" height="1.6310701997130466em" x="55.660377358490564em" y="28.368929800286953em" fill="#aaa"/><rect width="0.9433962264150944em" height="1.2504470952670879em" x="56.60377358490566em" y="28.749552904732912em" fill="#aaa"/><rect width="0.9433962264150944em" height="3.1147576282541802em" x="57.54716981132076em" y="26.885242371745818em" fill="#aaa"/><rect width="0.9433962264150944em" height="4.726380120379455em" x="58.49056603773585em" y="25.273619879620547em" fill="#aaa"/><rect width="0.9433962264150944em" height="2.7324512080383774em" x="59.43396226415094em" y="27.267548791961623em" fill="#aaa"/><rect width="0.9433962264150944em" height="2.2393087014028445em" x="60.37735849056604em" y="27.760691298597155em" fill="#aaa"/><rect width="0.9433962264150944em" height="5.059206846315265em" x="61.320754716981135em" y="24.940793153684737em" fill="#aaa"/><rect width="0.9433962264150944em" height="2.1799131460980257em" x="62.264150943396224em" y="27.820086853901973em" fill="#aaa"/><rect width="0.9433962264150944em" height="4.004479885734016em" x="63.20754716981132em" y="25.995520114265986em" fill="#aaa"/><rect width="0.9433962264150944em" height="4.378476873910218em" x="64.15094339622641em" y="25.621523126089784em" fill="#aaa"/><rect width="0.9433962264150944em" height="4.252956036752916em" x="65.09433962264151em" y="25.747043963247084em" fill="#aaa"/><rect width="0.9433962264150944em" height="4.975715241931059em" x="66.0377358490566em" y="25.02428475806894em" fill="#aaa"/><rect width="0.9433962264150944em" height="6.637608653021826em" x="66.9811320754717em" y="23.362391346978175em" fill="#aaa"/><rect width="0.9433962264150944em" height="7.014123093066951em" x="67.9245283018868em" y="22.98587690693305em" fill="#aaa"/><rect width="0.9433962264150944em" height="8.224660925619817em" x="68.86792452830188em" y="21.775339074380184em" fill="#aaa"/><rect width="0.9433962264150944em" height="12.577167045767094em" x="69.81132075471699em" y="17.422832954232906em" fill="#aaa"/><rect width="0.9433962264150944em" height="7.080270259281109em" x="70.75471698113208em" y="22.919729740718893em" fill="#aaa"/><rect width="0.9433962264150944em" height="10.993584932899768em" x="71.69811320754717em" y="19.00641506710023em" fill="#aaa"/><rect width="0.9433962264150944em" height="9.57194916718945em" x="72.64150943396227em" y="20.42805083281055em" fill="#aaa"/><rect width="0.9433962264150944em" height="15.3296916251985em" x="73.58490566037736em" y="14.6703083748015em" fill="#aaa"/><rect width="0.9433962264150944em" height="5.902166578761091em" x="74.52830188679245em" y="24.09783342123891em" fill="#aaa"/><rect width="0.9433962264150944em" height="17.23864707993876em" x="75.47169811320755em" y="12.761352920061238em" fill="#aaa"/><rect width="0.9433962264150944em" height="11.168889034504824em" x="76.41509433962264em" y="18.831110965495178em" fill="#aaa"/><rect width="0.9433962264150944em" height="19.984637991674564em" x="77.35849056603773em" y="10.015362008325436em" fill="#aaa"/><rect width="0.9433962264150944em" height="19.86931681741714em" x="78.30188679245283em" y="10.13068318258286em" fill="#aaa"/><rect width="0.9433962264150944em" height="19.63046311102655em" x="79.24528301886792em" y="10.36953688897345em" fill="#aaa"/><rect width="0.9433962264150944em" height="15.559326971380504em" x="80.18867924528303em" y="14.440673028619496em" fill="#aaa"/><rect width="0.9433962264150944em" height="18.15971068650101em" x="81.13207547169812em" y="11.840289313498989em" fill="#aaa"/><rect width="0.9433962264150944em" height="15.570428371853422em" x="82.0754716981132em" y="14.429571628146578em" fill="#aaa"/><rect width="0.9433962264150944em" height="30em" x="83.01886792452831em" y="0em" fill="#aaa"/><rect width="0.9433962264150944em" height="14.323637647409944em" x="83.9622641509434em" y="15.676362352590056em" fill="#aaa"/><rect width="0.9433962264150944em" height="19.056284873225657em" x="84.90566037735849em" y="10.943715126774343em" fill="#aaa"/><rect width="0.9433962264150944em" height="22.59898704032736em" x="85.84905660377359em" y="7.4010129596726415em" fill="#aaa"/><rect width="0.9433962264150944em" height="21.240848003997296em" x="86.79245283018868em" y="8.759151996002704em" fill="#aaa"/><rect width="0.9433962264150944em" height="15.6343404409444em" x="87.73584905660377em" y="14.3656595590556em" fill="#aaa"/><rect width="0.9433962264150944em" height="18.113567819073207em" x="88.67924528301887em" y="11.886432180926793em" fill="#aaa"/><rect width="0.9433962264150944em" height="25.83514336606884em" x="89.62264150943396em" y="4.164856633931159em" fill="#aaa"/><rect width="0.9433962264150944em" height="29.49963838218588em" x="90.56603773584905em" y="0.5003616178141215em" fill="#aaa"/><rect width="0.9433962264150944em" height="25.089005597209773em" x="91.50943396226415em" y="4.910994402790227em" fill="#aaa"/><rect width="0.9433962264150944em" height="20.8954092714082em" x="92.45283018867924em" y="9.104590728591798em" fill="#aaa"/><rect width="0.9433962264150944em" height="18.417819085242005em" x="93.39622641509435em" y="11.582180914757995em" fill="#aaa"/><rect width="0.9433962264150944em" height="23.8589188075584em" x="94.33962264150944em" y="6.1410811924416em" fill="#aaa"/><rect width="0.9433962264150944em" height="20.968751174108576em" x="95.28301886792453em" y="9.031248825891424em" fill="#aaa"/><rect width="0.9433962264150944em" height="18.21775977336339em" x="96.22641509433963em" y="11.78224022663661em" fill="#aaa"/><rect width="0.9433962264150944em" height="8.301814183770395em" x="97.16981132075472em" y="21.698185816229604em" fill="#aaa"/><rect width="0.9433962264150944em" height="9.566845345270782em" x="98.11320754716981em" y="20.43315465472922em" fill="#aaa"/><rect width="0.9433962264150944em" height="11.437211464176048em" x="99.05660377358491em" y="18.56278853582395em" fill="#aaa"/></svg>