<?xml version="1.0" standalone="no"?>
<svg xmlns:xlink="http://www.w3.org/1999/xlink" xmlns="http://www.w3.org/2000/svg" class="topic-graph" style="width: 100em; height: 30em; text-align: center;"><rect width="0.9433962264150944em" height="1.0279436151597996em" x="0em" y="28.9720563848402em" fill="#aaa"/><rect width="0.9433962264150944em" height="0.5060837579462149em" x="0.9433962264150944em" y="29.493916242053785em" fill="#aaa"/><rect width="0.9433962264150944em" height="0.7905415569340892em" x="1.8867924528301887em" y="29.209458443065913em" fill="#aaa"/><rect width="0.9433962264150944em" height="1.016092038806408em" x="2.830188679245283em" y="28.98390796119359em" fill="#aaa"/><rect width="0.9433962264150944em" height="1.7430799704413946em" x="3.7735849056603774em" y="28.256920029558607em" fill="#aaa"/><rect width="0.9433962264150944em" height="0.9632983292357241em" x="4.716981132075472em" y="29.036701670764277em" fill="#aaa"/><rect width="0.9433962264150944em" height="2.1796688602610375em" x="5.660377358490566em" y="27.82033113973896em" fill="#aaa"/><rect width="0.9433962264150944em" height="0.4300606703425768em" x="6.60377358490566em" y="29.569939329657423em" fill="#aaa"/><rect width="0.9433962264150944em" height="6.776236608404209em" x="7.547169811320755em" y="23.223763391595792em" fill="#aaa"/><rect width="0.9433962264150944em" height="1.9687902234724508em" x="8.49056603773585em" y="28.03120977652755em" fill="#aaa"/><rect width="0.9433962264150944em" height="3.463739489103604em" x="9.433962264150944em" y="26.536260510896398em" fill="#aaa"/><rect width="0.9433962264150944em" height="3.7761645477579813em" x="10.377358490566039em" y="26.223835452242017em" fill="#aaa"/><rect width="0.9433962264150944em" height="1.7787303400979315em" x="11.320754716981131em" y="28.22126965990207em" fill="#aaa"/><rect width="0.9433962264150944em" height="0em" x="12.264150943396226em" y="30em" fill="#aaa"/><rect width="0.9433962264150944em" height="8.164032642112495em" x="13.20754716981132em" y="21.835967357887505em" fill="#aaa"/><rect width="0.9433962264150944em" height="3.4526349948595967em" x="14.150943396226415em" y="26.547365005140403em" fill="#aaa"/><rect width="0.9433962264150944em" height="3.6391636981906412em" x="15.09433962264151em" y="26.360836301809357em" fill="#aaa"/><rect width="0.9433962264150944em" height="3.0552875386484932em" x="16.037735849056602em" y="26.944712461351507em" fill="#aaa"/><rect width="0.9433962264150944em" height="2.641960414672685em" x="16.9811320754717em" y="27.358039585327315em" fill="#aaa"/><rect width="0.9433962264150944em" height="4.2494118776065335em" x="17.92452830188679em" y="25.750588122393467em" fill="#aaa"/><rect width="0.9433962264150944em" height="1.9318420531997624em" x="18.867924528301888em" y="28.068157946800238em" fill="#aaa"/><rect width="0.9433962264150944em" height="4.668213809890274em" x="19.81132075471698em" y="25.331786190109725em" fill="#aaa"/><rect width="0.9433962264150944em" height="4.06209625123761em" x="20.754716981132077em" y="25.93790374876239em" fill="#aaa"/><rect width="0.9433962264150944em" height="3.1971311371050866em" x="21.69811320754717em" y="26.802868862894915em" fill="#aaa"/><rect width="0.9433962264150944em" height="1.8338069633515075em" x="22.641509433962263em" y="28.166193036648494em" fill="#aaa"/><rect width="0.9433962264150944em" height="3.0046199834721525em" x="23.58490566037736em" y="26.995380016527847em" fill="#aaa"/><rect width="0.9433962264150944em" height="0em" x="24.528301886792452em" y="30em" fill="#aaa"/><rect width="0.9433962264150944em" height="3.649059585737992em" x="25.471698113207548em" y="26.35094041426201em" fill="#aaa"/><rect width="0.9433962264150944em" height="6.133403390911603em" x="26.41509433962264em" y="23.866596609088397em" fill="#aaa"/><rect width="0.9433962264150944em" height="2.0557038783070096em" x="27.358490566037737em" y="27.94429612169299em" fill="#aaa"/><rect width="0.9433962264150944em" height="4.23604676036664em" x="28.30188679245283em" y="25.76395323963336em" fill="#aaa"/><rect width="0.9433962264150944em" height="3.4330774384554967em" x="29.245283018867926em" y="26.5669225615445em" fill="#aaa"/><rect width="0.9433962264150944em" height="5.489493674414188em" x="30.18867924528302em" y="24.510506325585812em" fill="#aaa"/><rect width="0.9433962264150944em" height="5.135304684165621em" x="31.132075471698112em" y="24.86469531583438em" fill="#aaa"/><rect width="0.9433962264150944em" height="4.036001876877833em" x="32.075471698113205em" y="25.963998123122167em" fill="#aaa"/><rect width="0.9433962264150944em" height="4.7906666774665085em" x="33.0188679245283em" y="25.209333322533492em" fill="#aaa"/><rect width="0.9433962264150944em" height="5.750084263756035em" x="33.9622641509434em" y="24.249915736243963em" fill="#aaa"/><rect width="0.9433962264150944em" height="2.9151206479538114em" x="34.905660377358494em" y="27.084879352046187em" fill="#aaa"/><rect width="0.9433962264150944em" height="4.5439559050775165em" x="35.84905660377358em" y="25.456044094922483em" fill="#aaa"/><rect width="0.9433962264150944em" height="8.989081465389871em" x="36.79245283018868em" y="21.010918534610127em" fill="#aaa"/><rect width="0.9433962264150944em" height="6.059470375362734em" x="37.735849056603776em" y="23.940529624637264em" fill="#aaa"/><rect width="0.9433962264150944em" height="3.7958921342238763em" x="38.679245283018865em" y="26.204107865776123em" fill="#aaa"/><rect width="0.9433962264150944em" height="3.673803555688566em" x="39.62264150943396em" y="26.326196444311435em" fill="#aaa"/><rect width="0.9433962264150944em" height="7.405676086932909em" x="40.56603773584906em" y="22.594323913067093em" fill="#aaa"/><rect width="0.9433962264150944em" height="19.771689425376557em" x="41.509433962264154em" y="10.228310574623443em" fill="#aaa"/><rect width="0.9433962264150944em" height="9.332290505263924em" x="42.45283018867924em" y="20.667709494736076em" fill="#aaa"/><rect width="0.9433962264150944em" height="10.286129689260978em" x="43.39622641509434em" y="19.713870310739022em" fill="#aaa"/><rect width="0.9433962264150944em" height="7.243269153327577em" x="44.339622641509436em" y="22.756730846672422em" fill="#aaa"/><rect width="0.9433962264150944em" height="4.385830180012043em" x="45.283018867924525em" y="25.614169819987957em" fill="#aaa"/><rect width="0.9433962264150944em" height="6.92795882746387em" x="46.22641509433962em" y="23.07204117253613em" fill="#aaa"/><rect width="0.9433962264150944em" height="9.818679481060148em" x="47.16981132075472em" y="20.181320518939852em" fill="#aaa"/><rect width="0.9433962264150944em" height="4.6440793661358555em" x="48.113207547169814em" y="25.355920633864145em" fill="#aaa"/><rect width="0.9433962264150944em" height="7.964788422066251em" x="49.056603773584904em" y="22.03521157793375em" fill="#aaa"/><rect width="0.9433962264150944em" height="6.2117885329276765em" x="50em" y="23.788211467072323em" fill="#aaa"/><rect width="0.9433962264150944em" height="8.934605071121446em" x="50.943396226415096em" y="21.065394928878554em" fill="#aaa"/><rect width="0.9433962264150944em" height="9.897536257405218em" x="51.88679245283019em" y="20.102463742594782em" fill="#aaa"/><rect width="0.9433962264150944em" height="14.356144599004777em" x="52.83018867924528em" y="15.643855400995223em" fill="#aaa"/><rect width="0.9433962264150944em" height="12.224735485352841em" x="53.77358490566038em" y="17.77526451464716em" fill="#aaa"/><rect width="0.9433962264150944em" height="12.210770490665212em" x="54.716981132075475em" y="17.78922950933479em" fill="#aaa"/><rect width="0.9433962264150944em" height="20.66377182982842em" x="55.660377358490564em" y="9.33622817017158em" fill="#aaa"/><rect width="0.9433962264150944em" height="19.79725446513048em" x="56.60377358490566em" y="10.202745534869521em" fill="#aaa"/><rect width="0.9433962264150944em" height="12.899079939406416em" x="57.54716981132076em" y="17.100920060593584em" fill="#aaa"/><rect width="0.9433962264150944em" height="24.494265538971987em" x="58.49056603773585em" y="5.505734461028013em" fill="#aaa"/><rect width="0.9433962264150944em" height="30em" x="59.43396226415094em" y="0em" fill="#aaa"/><rect width="0.9433962264150944em" height="5.364431121264231em" x="60.37735849056604em" y="24.635568878735768em" fill="#aaa"/><rect width="0.9433962264150944em" height="13.090384125775115em" x="61.320754716981135em" y="16.909615874224883em" fill="#aaa"/><rect width="0.9433962264150944em" height="12.861539696936658em" x="62.264150943396224em" y="17.13846030306334em" fill="#aaa"/><rect width="0.9433962264150944em" height="14.836036510168688em" x="63.20754716981132em" y="15.163963489831312em" fill="#aaa"/><rect width="0.9433962264150944em" height="9.90569815018604em" x="64.15094339622641em" y="20.09430184981396em" fill="#aaa"/><rect width="0.9433962264150944em" height="9.880205568959362em" x="65.09433962264151em" y="20.11979443104064em" fill="#aaa"/><rect width="0.9433962264150944em" height="13.798416613211872em" x="66.0377358490566em" y="16.20158338678813em" fill="#aaa"/><rect width="0.9433962264150944em" height="19.658082631080166em" x="66.9811320754717em" y="10.341917368919834em" fill="#aaa"/><rect width="0.9433962264150944em" height="13.61560972753208em" x="67.9245283018868em" y="16.38439027246792em" fill="#aaa"/><rect width="0.9433962264150944em" height="9.036864584628622em" x="68.86792452830188em" y="20.963135415371376em" fill="#aaa"/><rect width="0.9433962264150944em" height="13.584405430508825em" x="69.81132075471699em" y="16.415594569491176em" fill="#aaa"/><rect width="0.9433962264150944em" height="11.311587102254126em" x="70.75471698113208em" y="18.688412897745874em" fill="#aaa"/><rect width="0.9433962264150944em" height="13.718695925190243em" x="71.69811320754717em" y="16.281304074809757em" fill="#aaa"/><rect width="0.9433962264150944em" height="27.104551927633914em" x="72.64150943396227em" y="2.8954480723660865em" fill="#aaa"/><rect width="0.9433962264150944em" height="11.282257879415127em" x="73.58490566037736em" y="18.717742120584873em" fill="#aaa"/><rect width="0.9433962264150944em" height="13.18672489743196em" x="74.52830188679245em" y="16.813275102568042em" fill="#aaa"/><rect width="0.9433962264150944em" height="15.835596587548498em" x="75.47169811320755em" y="14.164403412451502em" fill="#aaa"/><rect width="0.9433962264150944em" height="14.105802996844153em" x="76.41509433962264em" y="15.894197003155847em" fill="#aaa"/><rect width="0.9433962264150944em" height="19.447964788882153em" x="77.35849056603773em" y="10.552035211117847em" fill="#aaa"/><rect width="0.9433962264150944em" height="21.16350430143211em" x="78.30188679245283em" y="8.83649569856789em" fill="#aaa"/><rect width="0.9433962264150944em" height="14.833167351135097em" x="79.24528301886792em" y="15.166832648864903em" fill="#aaa"/><rect width="0.9433962264150944em" height="14.747826030518867em" x="80.18867924528303em" y="15.252173969481133em" fill="#aaa"/><rect width="0.9433962264150944em" height="16.36661783951863em" x="81.13207547169812em" y="13.633382160481371em" fill="#aaa"/><rect width="0.9433962264150944em" height="12.947550311323283em" x="82.0754716981132em" y="17.052449688676717em" fill="#aaa"/><rect width="0.9433962264150944em" height="25.92807025870743em" x="83.01886792452831em" y="4.071929741292571em" fill="#aaa"/><rect width="0.9433962264150944em" height="16.167691571934565em" x="83.9622641509434em" y="13.832308428065435em" fill="#aaa"/><rect width="0.9433962264150944em" height="15.179899014873863em" x="84.90566037735849em" y="14.820100985126137em" fill="#aaa"/><rect width="0.9433962264150944em" height="12.819426829478934em" x="85.84905660377359em" y="17.180573170521065em" fill="#aaa"/><rect width="0.9433962264150944em" height="25.68221223728271em" x="86.79245283018868em" y="4.317787762717291em" fill="#aaa"/><rect width="0.9433962264150944em" height="15.594558747807273em" x="87.73584905660377em" y="14.405441252192727em" fill="#aaa"/><rect width="0.9433962264150944em" height="20.052745490803808em" x="88.67924528301887em" y="9.947254509196192em" fill="#aaa"/><rect width="0.9433962264150944em" height="20.27507628339257em" x="89.62264150943396em" y="9.724923716607432em" fill="#aaa"/><rect width="0.9433962264150944em" height="15.436600844827321em" x="90.56603773584905em" y="14.563399155172679em" fill="#aaa"/><rect width="0.9433962264150944em" height="15.688014300804072em" x="91.50943396226415em" y="14.311985699195928em" fill="#aaa"/><rect width="0.9433962264150944em" height="16.87265135270711em" x="92.45283018867924em" y="13.12734864729289em" fill="#aaa"/><rect width="0.9433962264150944em" height="13.383239277887451em" x="93.39622641509435em" y="16.61676072211255em" fill="#aaa"/><rect width="0.9433962264150944em" height="19.724881266252073em" x="94.33962264150944em" y="10.275118733747927em" fill="#aaa"/><rect width="0.9433962264150944em" height="24.007526473447303em" x="95.28301886792453em" y="5.992473526552697em" fill="#aaa"/><rect width="0.9433962264150944em" height="20.476843830857963em" x="96.22641509433963em" y="9.523156169142037em" fill="#aaa"/><rect width="0.9433962264150944em" height="14.155370614464125em" x="97.16981132075472em" y="15.844629385535875em" fill="#aaa"/><rect width="0.9433962264150944em" height="14.445815416809976em" x="98.11320754716981em" y="15.554184583190024em" fill="#aaa"/><rect width="0.9433962264150944em" height="16.847342282462115em" x="99.05660377358491em" y="13.152657717537885em" fill="#aaa"/></svg>