<?xml version="1.0" standalone="no"?>
<svg xmlns:xlink="http://www.w3.org/1999/xlink" xmlns="http://www.w3.org/2000/svg" class="topic-graph" style="width: 100em; height: 30em; text-align: center;"><rect width="0.9433962264150944em" height="0.11766406410745117em" x="0em" y="29.88233593589255em" fill="#aaa"/><rect width="0.9433962264150944em" height="0.08368763801091254em" x="0.9433962264150944em" y="29.91631236198909em" fill="#aaa"/><rect width="0.9433962264150944em" height="0.5029430549791606em" x="1.8867924528301887em" y="29.49705694502084em" fill="#aaa"/><rect width="0.9433962264150944em" height="0.44167426803416987em" x="2.830188679245283em" y="29.55832573196583em" fill="#aaa"/><rect width="0.9433962264150944em" height="0.8174197252275033em" x="3.7735849056603774em" y="29.182580274772498em" fill="#aaa"/><rect width="0.9433962264150944em" height="0.6002738843987774em" x="4.716981132075472em" y="29.399726115601222em" fill="#aaa"/><rect width="0.9433962264150944em" height="0.2783041870328953em" x="5.660377358490566em" y="29.721695812967106em" fill="#aaa"/><rect width="0.9433962264150944em" height="0.7109368738499362em" x="6.60377358490566em" y="29.289063126150065em" fill="#aaa"/><rect width="0.9433962264150944em" height="0.9325294587529837em" x="7.547169811320755em" y="29.067470541247015em" fill="#aaa"/><rect width="0.9433962264150944em" height="1.826045833637845em" x="8.49056603773585em" y="28.173954166362154em" fill="#aaa"/><rect width="0.9433962264150944em" height="0.4649183515309744em" x="9.433962264150944em" y="29.535081648469024em" fill="#aaa"/><rect width="0.9433962264150944em" height="0.3542340360154517em" x="10.377358490566039em" y="29.645765963984548em" fill="#aaa"/><rect width="0.9433962264150944em" height="0.09859847648199488em" x="11.320754716981131em" y="29.901401523518004em" fill="#aaa"/><rect width="0.9433962264150944em" height="0em" x="12.264150943396226em" y="30em" fill="#aaa"/><rect width="0.9433962264150944em" height="0.8420941580724137em" x="13.20754716981132em" y="29.157905841927587em" fill="#aaa"/><rect width="0.9433962264150944em" height="0.21234136014917382em" x="14.150943396226415em" y="29.787658639850825em" fill="#aaa"/><rect width="0.9433962264150944em" height="0.5960383593931621em" x="15.09433962264151em" y="29.403961640606838em" fill="#aaa"/><rect width="0.9433962264150944em" height="0.1622197901074831em" x="16.037735849056602em" y="29.837780209892518em" fill="#aaa"/><rect width="0.9433962264150944em" height="0.24258366378755797em" x="16.9811320754717em" y="29.757416336212444em" fill="#aaa"/><rect width="0.9433962264150944em" height="0.3338986413244085em" x="17.92452830188679em" y="29.66610135867559em" fill="#aaa"/><rect width="0.9433962264150944em" height="0.5317322427352678em" x="18.867924528301888em" y="29.468267757264734em" fill="#aaa"/><rect width="0.9433962264150944em" height="0.6999319730333179em" x="19.81132075471698em" y="29.30006802696668em" fill="#aaa"/><rect width="0.9433962264150944em" height="1.6975903830049532em" x="20.754716981132077em" y="28.302409616995046em" fill="#aaa"/><rect width="0.9433962264150944em" height="0.17647939984917888em" x="21.69811320754717em" y="29.82352060015082em" fill="#aaa"/><rect width="0.9433962264150944em" height="0.9181482019422567em" x="22.641509433962263em" y="29.081851798057745em" fill="#aaa"/><rect width="0.9433962264150944em" height="1.8000090975851923em" x="23.58490566037736em" y="28.199990902414807em" fill="#aaa"/><rect width="0.9433962264150944em" height="0em" x="24.528301886792452em" y="30em" fill="#aaa"/><rect width="0.9433962264150944em" height="0.3686925800197568em" x="25.471698113207548em" y="29.631307419980242em" fill="#aaa"/><rect width="0.9433962264150944em" height="1.0087050398437583em" x="26.41509433962264em" y="28.991294960156242em" fill="#aaa"/><rect width="0.9433962264150944em" height="0.5687218826380527em" x="27.358490566037737em" y="29.43127811736195em" fill="#aaa"/><rect width="0.9433962264150944em" height="1.0142562082766358em" x="28.30188679245283em" y="28.985743791723365em" fill="#aaa"/><rect width="0.9433962264150944em" height="3.913958849064089em" x="29.245283018867926em" y="26.086041150935912em" fill="#aaa"/><rect width="0.9433962264150944em" height="0.6279486968522294em" x="30.18867924528302em" y="29.37205130314777em" fill="#aaa"/><rect width="0.9433962264150944em" height="0.17831659062981828em" x="31.132075471698112em" y="29.82168340937018em" fill="#aaa"/><rect width="0.9433962264150944em" height="0.3260074212261918em" x="32.075471698113205em" y="29.67399257877381em" fill="#aaa"/><rect width="0.9433962264150944em" height="0.5881886956603453em" x="33.0188679245283em" y="29.411811304339654em" fill="#aaa"/><rect width="0.9433962264150944em" height="0.5451018115524966em" x="33.9622641509434em" y="29.454898188447505em" fill="#aaa"/><rect width="0.9433962264150944em" height="0.2433369881283808em" x="34.905660377358494em" y="29.75666301187162em" fill="#aaa"/><rect width="0.9433962264150944em" height="0.5697955534043181em" x="35.84905660377358em" y="29.43020444659568em" fill="#aaa"/><rect width="0.9433962264150944em" height="0.41834245401614467em" x="36.79245283018868em" y="29.581657545983855em" fill="#aaa"/><rect width="0.9433962264150944em" height="0.25501960281637465em" x="37.735849056603776em" y="29.744980397183625em" fill="#aaa"/><rect width="0.9433962264150944em" height="0.9642475297951085em" x="38.679245283018865em" y="29.03575247020489em" fill="#aaa"/><rect width="0.9433962264150944em" height="0.480024179868788em" x="39.62264150943396em" y="29.51997582013121em" fill="#aaa"/><rect width="0.9433962264150944em" height="0.5580053219566384em" x="40.56603773584906em" y="29.44199467804336em" fill="#aaa"/><rect width="0.9433962264150944em" height="0.38284211015029196em" x="41.509433962264154em" y="29.617157889849707em" fill="#aaa"/><rect width="0.9433962264150944em" height="0.2915460551944475em" x="42.45283018867924em" y="29.70845394480555em" fill="#aaa"/><rect width="0.9433962264150944em" height="1.347664707882731em" x="43.39622641509434em" y="28.652335292117268em" fill="#aaa"/><rect width="0.9433962264150944em" height="0.433230229889205em" x="44.339622641509436em" y="29.566769770110795em" fill="#aaa"/><rect width="0.9433962264150944em" height="0.1300717977601697em" x="45.283018867924525em" y="29.86992820223983em" fill="#aaa"/><rect width="0.9433962264150944em" height="0.6778377296733028em" x="46.22641509433962em" y="29.322162270326697em" fill="#aaa"/><rect width="0.9433962264150944em" height="1.2492109343594082em" x="47.16981132075472em" y="28.750789065640593em" fill="#aaa"/><rect width="0.9433962264150944em" height="0.4999749699755083em" x="48.113207547169814em" y="29.500025030024492em" fill="#aaa"/><rect width="0.9433962264150944em" height="0.523651607453216em" x="49.056603773584904em" y="29.476348392546782em" fill="#aaa"/><rect width="0.9433962264150944em" height="0.5387717240696126em" x="50em" y="29.461228275930388em" fill="#aaa"/><rect width="0.9433962264150944em" height="0.5890186054116404em" x="50.943396226415096em" y="29.410981394588358em" fill="#aaa"/><rect width="0.9433962264150944em" height="0.9868079615412381em" x="51.88679245283019em" y="29.01319203845876em" fill="#aaa"/><rect width="0.9433962264150944em" height="1.0307222385124022em" x="52.83018867924528em" y="28.969277761487596em" fill="#aaa"/><rect width="0.9433962264150944em" height="1.1786959261969976em" x="53.77358490566038em" y="28.821304073803002em" fill="#aaa"/><rect width="0.9433962264150944em" height="0.8592542192351773em" x="54.716981132075475em" y="29.140745780764824em" fill="#aaa"/><rect width="0.9433962264150944em" height="0.08623534268632435em" x="55.660377358490564em" y="29.913764657313674em" fill="#aaa"/><rect width="0.9433962264150944em" height="0.4082888444213727em" x="56.60377358490566em" y="29.591711155578626em" fill="#aaa"/><rect width="0.9433962264150944em" height="0.2331789211483823em" x="57.54716981132076em" y="29.766821078851617em" fill="#aaa"/><rect width="0.9433962264150944em" height="2.046918527213478em" x="58.49056603773585em" y="27.953081472786522em" fill="#aaa"/><rect width="0.9433962264150944em" height="0.9532013744969939em" x="59.43396226415094em" y="29.046798625503005em" fill="#aaa"/><rect width="0.9433962264150944em" height="3.069493856545757em" x="60.37735849056604em" y="26.93050614345424em" fill="#aaa"/><rect width="0.9433962264150944em" height="0.44792152338192787em" x="61.320754716981135em" y="29.55207847661807em" fill="#aaa"/><rect width="0.9433962264150944em" height="3.063571304393361em" x="62.264150943396224em" y="26.93642869560664em" fill="#aaa"/><rect width="0.9433962264150944em" height="0.5173043347234878em" x="63.20754716981132em" y="29.482695665276513em" fill="#aaa"/><rect width="0.9433962264150944em" height="3.290148844577231em" x="64.15094339622641em" y="26.70985115542277em" fill="#aaa"/><rect width="0.9433962264150944em" height="1.2243651996983398em" x="65.09433962264151em" y="28.77563480030166em" fill="#aaa"/><rect width="0.9433962264150944em" height="1.6819350343763821em" x="66.0377358490566em" y="28.318064965623616em" fill="#aaa"/><rect width="0.9433962264150944em" height="0.21927934339136745em" x="66.9811320754717em" y="29.780720656608633em" fill="#aaa"/><rect width="0.9433962264150944em" height="2.541574513089358em" x="67.9245283018868em" y="27.45842548691064em" fill="#aaa"/><rect width="0.9433962264150944em" height="0.3272835836563398em" x="68.86792452830188em" y="29.67271641634366em" fill="#aaa"/><rect width="0.9433962264150944em" height="0.9002525659534648em" x="69.81132075471699em" y="29.099747434046535em" fill="#aaa"/><rect width="0.9433962264150944em" height="0.5301450989203726em" x="70.75471698113208em" y="29.46985490107963em" fill="#aaa"/><rect width="0.9433962264150944em" height="0.12343755907548015em" x="71.69811320754717em" y="29.87656244092452em" fill="#aaa"/><rect width="0.9433962264150944em" height="0.40307414367929895em" x="72.64150943396227em" y="29.596925856320702em" fill="#aaa"/><rect width="0.9433962264150944em" height="0.4954927567946782em" x="73.58490566037736em" y="29.50450724320532em" fill="#aaa"/><rect width="0.9433962264150944em" height="2.2631922252218537em" x="74.52830188679245em" y="27.736807774778146em" fill="#aaa"/><rect width="0.9433962264150944em" height="0.5710755190112372em" x="75.47169811320755em" y="29.428924480988762em" fill="#aaa"/><rect width="0.9433962264150944em" height="0.380360326630834em" x="76.41509433962264em" y="29.619639673369164em" fill="#aaa"/><rect width="0.9433962264150944em" height="0.31459046697921333em" x="77.35849056603773em" y="29.68540953302079em" fill="#aaa"/><rect width="0.9433962264150944em" height="1.0696812086296585em" x="78.30188679245283em" y="28.93031879137034em" fill="#aaa"/><rect width="0.9433962264150944em" height="2.6896404406547147em" x="79.24528301886792em" y="27.310359559345287em" fill="#aaa"/><rect width="0.9433962264150944em" height="0.8967233848305111em" x="80.18867924528303em" y="29.103276615169488em" fill="#aaa"/><rect width="0.9433962264150944em" height="1.0544183447526632em" x="81.13207547169812em" y="28.945581655247338em" fill="#aaa"/><rect width="0.9433962264150944em" height="4.224500521762314em" x="82.0754716981132em" y="25.775499478237684em" fill="#aaa"/><rect width="0.9433962264150944em" height="6.509089932608687em" x="83.01886792452831em" y="23.49091006739131em" fill="#aaa"/><rect width="0.9433962264150944em" height="2.5985419201552475em" x="83.9622641509434em" y="27.40145807984475em" fill="#aaa"/><rect width="0.9433962264150944em" height="6.3973553313875815em" x="84.90566037735849em" y="23.60264466861242em" fill="#aaa"/><rect width="0.9433962264150944em" height="5.332853641055105em" x="85.84905660377359em" y="24.667146358944894em" fill="#aaa"/><rect width="0.9433962264150944em" height="4.320857121272514em" x="86.79245283018868em" y="25.679142878727486em" fill="#aaa"/><rect width="0.9433962264150944em" height="4.0878892320654465em" x="87.73584905660377em" y="25.912110767934553em" fill="#aaa"/><rect width="0.9433962264150944em" height="6.814787318198559em" x="88.67924528301887em" y="23.185212681801442em" fill="#aaa"/><rect width="0.9433962264150944em" height="6.627521631508287em" x="89.62264150943396em" y="23.372478368491713em" fill="#aaa"/><rect width="0.9433962264150944em" height="1.995294735208623em" x="90.56603773584905em" y="28.004705264791376em" fill="#aaa"/><rect width="0.9433962264150944em" height="1.4378311580372398em" x="91.50943396226415em" y="28.56216884196276em" fill="#aaa"/><rect width="0.9433962264150944em" height="2.280051762509697em" x="92.45283018867924em" y="27.719948237490303em" fill="#aaa"/><rect width="0.9433962264150944em" height="4.347875132478516em" x="93.39622641509435em" y="25.652124867521483em" fill="#aaa"/><rect width="0.9433962264150944em" height="4.888064668514225em" x="94.33962264150944em" y="25.111935331485775em" fill="#aaa"/><rect width="0.9433962264150944em" height="1.9690311346537164em" x="95.28301886792453em" y="28.030968865346285em" fill="#aaa"/><rect width="0.9433962264150944em" height="7.780961303048536em" x="96.22641509433963em" y="22.219038696951465em" fill="#aaa"/><rect width="0.9433962264150944em" height="30em" x="97.16981132075472em" y="0em" fill="#aaa"/><rect width="0.9433962264150944em" height="2.5482657220504783em" x="98.11320754716981em" y="27.451734277949523em" fill="#aaa"/><rect width="0.9433962264150944em" height="3.0103942428286707em" x="99.05660377358491em" y="26.98960575717133em" fill="#aaa"/></svg>