<?xml version="1.0" standalone="no"?>
<svg xmlns:xlink="http://www.w3.org/1999/xlink" xmlns="http://www.w3.org/2000/svg" class="topic-graph" style="width: 100em; height: 30em; text-align: center;"><rect width="0.9433962264150944em" height="0.6047576582152793em" x="0em" y="29.39524234178472em" fill="#aaa"/><rect width="0.9433962264150944em" height="1.6662521890060442em" x="0.9433962264150944em" y="28.333747810993955em" fill="#aaa"/><rect width="0.9433962264150944em" height="2.489925870895346em" x="1.8867924528301887em" y="27.510074129104655em" fill="#aaa"/><rect width="0.9433962264150944em" height="1.4727377904081353em" x="2.830188679245283em" y="28.527262209591864em" fill="#aaa"/><rect width="0.9433962264150944em" height="1.3585161305008193em" x="3.7735849056603774em" y="28.64148386949918em" fill="#aaa"/><rect width="0.9433962264150944em" height="3.4293607748798407em" x="4.716981132075472em" y="26.57063922512016em" fill="#aaa"/><rect width="0.9433962264150944em" height="8.454725891089252em" x="5.660377358490566em" y="21.545274108910746em" fill="#aaa"/><rect width="0.9433962264150944em" height="3.5479763061099314em" x="6.60377358490566em" y="26.45202369389007em" fill="#aaa"/><rect width="0.9433962264150944em" height="30em" x="7.547169811320755em" y="0em" fill="#aaa"/><rect width="0.9433962264150944em" height="5.71774929823406em" x="8.49056603773585em" y="24.28225070176594em" fill="#aaa"/><rect width="0.9433962264150944em" height="14.24470056435906em" x="9.433962264150944em" y="15.75529943564094em" fill="#aaa"/><rect width="0.9433962264150944em" height="2.9733463965920897em" x="10.377358490566039em" y="27.02665360340791em" fill="#aaa"/><rect width="0.9433962264150944em" height="3.5553514081176725em" x="11.320754716981131em" y="26.444648591882327em" fill="#aaa"/><rect width="0.9433962264150944em" height="0em" x="12.264150943396226em" y="30em" fill="#aaa"/><rect width="0.9433962264150944em" height="6.286702404144209em" x="13.20754716981132em" y="23.713297595855792em" fill="#aaa"/><rect width="0.9433962264150944em" height="7.517412298401417em" x="14.150943396226415em" y="22.482587701598582em" fill="#aaa"/><rect width="0.9433962264150944em" height="22.074680447496714em" x="15.09433962264151em" y="7.925319552503286em" fill="#aaa"/><rect width="0.9433962264150944em" height="0.6025236347379244em" x="16.037735849056602em" y="29.397476365262076em" fill="#aaa"/><rect width="0.9433962264150944em" height="5.0632477075702775em" x="16.9811320754717em" y="24.936752292429723em" fill="#aaa"/><rect width="0.9433962264150944em" height="1.0258466093109775em" x="17.92452830188679em" y="28.974153390689022em" fill="#aaa"/><rect width="0.9433962264150944em" height="0.4970322176298221em" x="18.867924528301888em" y="29.502967782370177em" fill="#aaa"/><rect width="0.9433962264150944em" height="4.851698861180108em" x="19.81132075471698em" y="25.148301138819892em" fill="#aaa"/><rect width="0.9433962264150944em" height="4.860509497907446em" x="20.754716981132077em" y="25.139490502092553em" fill="#aaa"/><rect width="0.9433962264150944em" height="0.028205900340782446em" x="21.69811320754717em" y="29.971794099659217em" fill="#aaa"/><rect width="0.9433962264150944em" height="4.943239029064356em" x="22.641509433962263em" y="25.056760970935642em" fill="#aaa"/><rect width="0.9433962264150944em" height="3.441753566444094em" x="23.58490566037736em" y="26.558246433555905em" fill="#aaa"/><rect width="0.9433962264150944em" height="0em" x="24.528301886792452em" y="30em" fill="#aaa"/><rect width="0.9433962264150944em" height="6.034900191572663em" x="25.471698113207548em" y="23.965099808427336em" fill="#aaa"/><rect width="0.9433962264150944em" height="0.41490857368810224em" x="26.41509433962264em" y="29.585091426311898em" fill="#aaa"/><rect width="0.9433962264150944em" height="0.265836221803882em" x="27.358490566037737em" y="29.73416377819612em" fill="#aaa"/><rect width="0.9433962264150944em" height="1.0352366203734698em" x="28.30188679245283em" y="28.96476337962653em" fill="#aaa"/><rect width="0.9433962264150944em" height="0.1715641055684294em" x="29.245283018867926em" y="29.82843589443157em" fill="#aaa"/><rect width="0.9433962264150944em" height="0.9599901122455587em" x="30.18867924528302em" y="29.04000988775444em" fill="#aaa"/><rect width="0.9433962264150944em" height="0.48213761112861897em" x="31.132075471698112em" y="29.517862388871382em" fill="#aaa"/><rect width="0.9433962264150944em" height="3.097257804434718em" x="32.075471698113205em" y="26.90274219556528em" fill="#aaa"/><rect width="0.9433962264150944em" height="1.2542502841539027em" x="33.0188679245283em" y="28.7457497158461em" fill="#aaa"/><rect width="0.9433962264150944em" height="0.062422544046819045em" x="33.9622641509434em" y="29.937577455953182em" fill="#aaa"/><rect width="0.9433962264150944em" height="0.3570730723531935em" x="34.905660377358494em" y="29.642926927646805em" fill="#aaa"/><rect width="0.9433962264150944em" height="0.3219304508505727em" x="35.84905660377358em" y="29.678069549149427em" fill="#aaa"/><rect width="0.9433962264150944em" height="14.106912282866922em" x="36.79245283018868em" y="15.893087717133078em" fill="#aaa"/><rect width="0.9433962264150944em" height="0.27933706870068703em" x="37.735849056603776em" y="29.720662931299312em" fill="#aaa"/><rect width="0.9433962264150944em" height="2.9637298054973753em" x="38.679245283018865em" y="27.036270194502624em" fill="#aaa"/><rect width="0.9433962264150944em" height="1.5943775314374502em" x="39.62264150943396em" y="28.405622468562548em" fill="#aaa"/><rect width="0.9433962264150944em" height="0.6304133781896162em" x="40.56603773584906em" y="29.369586621810384em" fill="#aaa"/><rect width="0.9433962264150944em" height="8.180261217295525em" x="41.509433962264154em" y="21.819738782704476em" fill="#aaa"/><rect width="0.9433962264150944em" height="0.6444418310028296em" x="42.45283018867924em" y="29.35555816899717em" fill="#aaa"/><rect width="0.9433962264150944em" height="1.977685776426593em" x="43.39622641509434em" y="28.022314223573407em" fill="#aaa"/><rect width="0.9433962264150944em" height="2.9353179890418697em" x="44.339622641509436em" y="27.06468201095813em" fill="#aaa"/><rect width="0.9433962264150944em" height="1.0137787940128202em" x="45.283018867924525em" y="28.986221205987178em" fill="#aaa"/><rect width="0.9433962264150944em" height="0.3060096653808523em" x="46.22641509433962em" y="29.693990334619148em" fill="#aaa"/><rect width="0.9433962264150944em" height="1.8107516277654394em" x="47.16981132075472em" y="28.18924837223456em" fill="#aaa"/><rect width="0.9433962264150944em" height="1.755047073114208em" x="48.113207547169814em" y="28.24495292688579em" fill="#aaa"/><rect width="0.9433962264150944em" height="17.07707452120827em" x="49.056603773584904em" y="12.92292547879173em" fill="#aaa"/><rect width="0.9433962264150944em" height="2.438291650373123em" x="50em" y="27.561708349626876em" fill="#aaa"/><rect width="0.9433962264150944em" height="3.263523403114938em" x="50.943396226415096em" y="26.736476596885062em" fill="#aaa"/><rect width="0.9433962264150944em" height="1.7937741795837727em" x="51.88679245283019em" y="28.20622582041623em" fill="#aaa"/><rect width="0.9433962264150944em" height="6.826867747677657em" x="52.83018867924528em" y="23.173132252322343em" fill="#aaa"/><rect width="0.9433962264150944em" height="1.7896720836968671em" x="53.77358490566038em" y="28.210327916303132em" fill="#aaa"/><rect width="0.9433962264150944em" height="2.4906098717495126em" x="54.716981132075475em" y="27.509390128250487em" fill="#aaa"/><rect width="0.9433962264150944em" height="5.16758439007174em" x="55.660377358490564em" y="24.832415609928262em" fill="#aaa"/><rect width="0.9433962264150944em" height="17.697088735772642em" x="56.60377358490566em" y="12.302911264227358em" fill="#aaa"/><rect width="0.9433962264150944em" height="13.80882637690441em" x="57.54716981132076em" y="16.19117362309559em" fill="#aaa"/><rect width="0.9433962264150944em" height="3.1535528478620187em" x="58.49056603773585em" y="26.84644715213798em" fill="#aaa"/><rect width="0.9433962264150944em" height="0.41658484141999147em" x="59.43396226415094em" y="29.58341515858001em" fill="#aaa"/><rect width="0.9433962264150944em" height="1.8146655371077873em" x="60.37735849056604em" y="28.185334462892214em" fill="#aaa"/><rect width="0.9433962264150944em" height="22.500091319660125em" x="61.320754716981135em" y="7.499908680339875em" fill="#aaa"/><rect width="0.9433962264150944em" height="7.846475373386397em" x="62.264150943396224em" y="22.153524626613603em" fill="#aaa"/><rect width="0.9433962264150944em" height="14.961204990587596em" x="63.20754716981132em" y="15.038795009412404em" fill="#aaa"/><rect width="0.9433962264150944em" height="19.89751380391077em" x="64.15094339622641em" y="10.102486196089231em" fill="#aaa"/><rect width="0.9433962264150944em" height="10.16884030985431em" x="65.09433962264151em" y="19.83115969014569em" fill="#aaa"/><rect width="0.9433962264150944em" height="0.6210224154934585em" x="66.0377358490566em" y="29.37897758450654em" fill="#aaa"/><rect width="0.9433962264150944em" height="1.735877594019789em" x="66.9811320754717em" y="28.26412240598021em" fill="#aaa"/><rect width="0.9433962264150944em" height="1.1904772407662105em" x="67.9245283018868em" y="28.80952275923379em" fill="#aaa"/><rect width="0.9433962264150944em" height="1.7736133410020032em" x="68.86792452830188em" y="28.226386658997995em" fill="#aaa"/><rect width="0.9433962264150944em" height="2.0539804891935787em" x="69.81132075471699em" y="27.946019510806423em" fill="#aaa"/><rect width="0.9433962264150944em" height="3.564702397631248em" x="70.75471698113208em" y="26.435297602368752em" fill="#aaa"/><rect width="0.9433962264150944em" height="4.509844912981231em" x="71.69811320754717em" y="25.49015508701877em" fill="#aaa"/><rect width="0.9433962264150944em" height="1.0044998174419977em" x="72.64150943396227em" y="28.995500182558004em" fill="#aaa"/><rect width="0.9433962264150944em" height="2.081321913368em" x="73.58490566037736em" y="27.918678086632em" fill="#aaa"/><rect width="0.9433962264150944em" height="0.7569733282898059em" x="74.52830188679245em" y="29.243026671710194em" fill="#aaa"/><rect width="0.9433962264150944em" height="2.79470914744417em" x="75.47169811320755em" y="27.20529085255583em" fill="#aaa"/><rect width="0.9433962264150944em" height="3.447416058600164em" x="76.41509433962264em" y="26.552583941399835em" fill="#aaa"/><rect width="0.9433962264150944em" height="0.9590317061787565em" x="77.35849056603773em" y="29.040968293821244em" fill="#aaa"/><rect width="0.9433962264150944em" height="3.724618165711559em" x="78.30188679245283em" y="26.275381834288442em" fill="#aaa"/><rect width="0.9433962264150944em" height="8.487729682163964em" x="79.24528301886792em" y="21.512270317836034em" fill="#aaa"/><rect width="0.9433962264150944em" height="4.543761598564063em" x="80.18867924528303em" y="25.456238401435936em" fill="#aaa"/><rect width="0.9433962264150944em" height="4.302389993796212em" x="81.13207547169812em" y="25.69761000620379em" fill="#aaa"/><rect width="0.9433962264150944em" height="6.887725463482091em" x="82.0754716981132em" y="23.11227453651791em" fill="#aaa"/><rect width="0.9433962264150944em" height="9.074394623582425em" x="83.01886792452831em" y="20.925605376417575em" fill="#aaa"/><rect width="0.9433962264150944em" height="5.727832493841041em" x="83.9622641509434em" y="24.272167506158958em" fill="#aaa"/><rect width="0.9433962264150944em" height="6.9436992275018925em" x="84.90566037735849em" y="23.05630077249811em" fill="#aaa"/><rect width="0.9433962264150944em" height="2.40393811573812em" x="85.84905660377359em" y="27.59606188426188em" fill="#aaa"/><rect width="0.9433962264150944em" height="8.582485567857065em" x="86.79245283018868em" y="21.417514432142937em" fill="#aaa"/><rect width="0.9433962264150944em" height="2.316521115969589em" x="87.73584905660377em" y="27.68347888403041em" fill="#aaa"/><rect width="0.9433962264150944em" height="3.551795555135503em" x="88.67924528301887em" y="26.448204444864498em" fill="#aaa"/><rect width="0.9433962264150944em" height="10.519514161392834em" x="89.62264150943396em" y="19.480485838607166em" fill="#aaa"/><rect width="0.9433962264150944em" height="1.2923039459015442em" x="90.56603773584905em" y="28.707696054098456em" fill="#aaa"/><rect width="0.9433962264150944em" height="2.3163821693075883em" x="91.50943396226415em" y="27.683617830692413em" fill="#aaa"/><rect width="0.9433962264150944em" height="3.5674651784502007em" x="92.45283018867924em" y="26.4325348215498em" fill="#aaa"/><rect width="0.9433962264150944em" height="1.827468583739189em" x="93.39622641509435em" y="28.17253141626081em" fill="#aaa"/><rect width="0.9433962264150944em" height="1.6615917836023382em" x="94.33962264150944em" y="28.33840821639766em" fill="#aaa"/><rect width="0.9433962264150944em" height="11.947902757806187em" x="95.28301886792453em" y="18.052097242193813em" fill="#aaa"/><rect width="0.9433962264150944em" height="2.112184821507682em" x="96.22641509433963em" y="27.887815178492318em" fill="#aaa"/><rect width="0.9433962264150944em" height="2.1587247965342553em" x="97.16981132075472em" y="27.841275203465745em" fill="#aaa"/><rect width="0.9433962264150944em" height="15.393970288404379em" x="98.11320754716981em" y="14.606029711595621em" fill="#aaa"/><rect width="0.9433962264150944em" height="1.2134544751851155em" x="99.05660377358491em" y="28.786545524814883em" fill="#aaa"/></svg>