<?xml version="1.0" standalone="no"?>
<svg xmlns:xlink="http://www.w3.org/1999/xlink" xmlns="http://www.w3.org/2000/svg" class="topic-graph" style="width: 100em; height: 30em; text-align: center;"><rect width="0.9433962264150944em" height="0.00486526367217672em" x="0em" y="29.995134736327824em" fill="#aaa"/><rect width="0.9433962264150944em" height="0.006180324370590076em" x="0.9433962264150944em" y="29.99381967562941em" fill="#aaa"/><rect width="0.9433962264150944em" height="3.4308868522436087em" x="1.8867924528301887em" y="26.56911314775639em" fill="#aaa"/><rect width="0.9433962264150944em" height="3.5094929294208033em" x="2.830188679245283em" y="26.4905070705792em" fill="#aaa"/><rect width="0.9433962264150944em" height="13.289069987796596em" x="3.7735849056603774em" y="16.710930012203406em" fill="#aaa"/><rect width="0.9433962264150944em" height="0.04764861181916787em" x="4.716981132075472em" y="29.952351388180833em" fill="#aaa"/><rect width="0.9433962264150944em" height="0.9683356007040209em" x="5.660377358490566em" y="29.03166439929598em" fill="#aaa"/><rect width="0.9433962264150944em" height="0.003675856352290488em" x="6.60377358490566em" y="29.99632414364771em" fill="#aaa"/><rect width="0.9433962264150944em" height="1.3249315153160939em" x="7.547169811320755em" y="28.675068484683905em" fill="#aaa"/><rect width="0.9433962264150944em" height="0.3052190802704652em" x="8.49056603773585em" y="29.694780919729535em" fill="#aaa"/><rect width="0.9433962264150944em" height="0.004183854474724376em" x="9.433962264150944em" y="29.995816145525275em" fill="#aaa"/><rect width="0.9433962264150944em" height="1.2896389449373205em" x="10.377358490566039em" y="28.71036105506268em" fill="#aaa"/><rect width="0.9433962264150944em" height="3.8558081883921247em" x="11.320754716981131em" y="26.144191811607875em" fill="#aaa"/><rect width="0.9433962264150944em" height="0em" x="12.264150943396226em" y="30em" fill="#aaa"/><rect width="0.9433962264150944em" height="0.5284151740593119em" x="13.20754716981132em" y="29.47158482594069em" fill="#aaa"/><rect width="0.9433962264150944em" height="0.12745001372955964em" x="14.150943396226415em" y="29.87254998627044em" fill="#aaa"/><rect width="0.9433962264150944em" height="0.48113308917717307em" x="15.09433962264151em" y="29.518866910822826em" fill="#aaa"/><rect width="0.9433962264150944em" height="0.017327498795556177em" x="16.037735849056602em" y="29.982672501204444em" fill="#aaa"/><rect width="0.9433962264150944em" height="0.9647435570793585em" x="16.9811320754717em" y="29.03525644292064em" fill="#aaa"/><rect width="0.9433962264150944em" height="2.7919845679498163em" x="17.92452830188679em" y="27.208015432050182em" fill="#aaa"/><rect width="0.9433962264150944em" height="14.369100663237228em" x="18.867924528301888em" y="15.630899336762772em" fill="#aaa"/><rect width="0.9433962264150944em" height="24.576799175702888em" x="19.81132075471698em" y="5.423200824297112em" fill="#aaa"/><rect width="0.9433962264150944em" height="5.561163348385995em" x="20.754716981132077em" y="24.438836651614004em" fill="#aaa"/><rect width="0.9433962264150944em" height="30em" x="21.69811320754717em" y="0em" fill="#aaa"/><rect width="0.9433962264150944em" height="2.3458132042390023em" x="22.641509433962263em" y="27.654186795761em" fill="#aaa"/><rect width="0.9433962264150944em" height="5.94486649619258em" x="23.58490566037736em" y="24.05513350380742em" fill="#aaa"/><rect width="0.9433962264150944em" height="0em" x="24.528301886792452em" y="30em" fill="#aaa"/><rect width="0.9433962264150944em" height="2.7859478245137024em" x="25.471698113207548em" y="27.214052175486298em" fill="#aaa"/><rect width="0.9433962264150944em" height="3.1528216805142377em" x="26.41509433962264em" y="26.847178319485764em" fill="#aaa"/><rect width="0.9433962264150944em" height="8.17940254729319em" x="27.358490566037737em" y="21.82059745270681em" fill="#aaa"/><rect width="0.9433962264150944em" height="29.25207517203535em" x="28.30188679245283em" y="0.7479248279646491em" fill="#aaa"/><rect width="0.9433962264150944em" height="1.0297517854441092em" x="29.245283018867926em" y="28.97024821455589em" fill="#aaa"/><rect width="0.9433962264150944em" height="3.2824329335704845em" x="30.18867924528302em" y="26.717567066429517em" fill="#aaa"/><rect width="0.9433962264150944em" height="3.3080822938341368em" x="31.132075471698112em" y="26.691917706165864em" fill="#aaa"/><rect width="0.9433962264150944em" height="0.6850891303737733em" x="32.075471698113205em" y="29.314910869626228em" fill="#aaa"/><rect width="0.9433962264150944em" height="19.86322215891424em" x="33.0188679245283em" y="10.13677784108576em" fill="#aaa"/><rect width="0.9433962264150944em" height="8.25073597719778em" x="33.9622641509434em" y="21.749264022802222em" fill="#aaa"/><rect width="0.9433962264150944em" height="2.3048218275017662em" x="34.905660377358494em" y="27.695178172498235em" fill="#aaa"/><rect width="0.9433962264150944em" height="5.3812735705069485em" x="35.84905660377358em" y="24.61872642949305em" fill="#aaa"/><rect width="0.9433962264150944em" height="1.0178641197482567em" x="36.79245283018868em" y="28.982135880251743em" fill="#aaa"/><rect width="0.9433962264150944em" height="1.6210524716251589em" x="37.735849056603776em" y="28.37894752837484em" fill="#aaa"/><rect width="0.9433962264150944em" height="1.7498795317000964em" x="38.679245283018865em" y="28.250120468299905em" fill="#aaa"/><rect width="0.9433962264150944em" height="2.873061414959766em" x="39.62264150943396em" y="27.126938585040236em" fill="#aaa"/><rect width="0.9433962264150944em" height="1.9528628433433943em" x="40.56603773584906em" y="28.047137156656607em" fill="#aaa"/><rect width="0.9433962264150944em" height="0.37375541584651895em" x="41.509433962264154em" y="29.626244584153483em" fill="#aaa"/><rect width="0.9433962264150944em" height="12.844235127579637em" x="42.45283018867924em" y="17.155764872420363em" fill="#aaa"/><rect width="0.9433962264150944em" height="1.0521436792602903em" x="43.39622641509434em" y="28.94785632073971em" fill="#aaa"/><rect width="0.9433962264150944em" height="1.2652314174461816em" x="44.339622641509436em" y="28.73476858255382em" fill="#aaa"/><rect width="0.9433962264150944em" height="0.10038733493367494em" x="45.283018867924525em" y="29.899612665066325em" fill="#aaa"/><rect width="0.9433962264150944em" height="0.2428924283021799em" x="46.22641509433962em" y="29.75710757169782em" fill="#aaa"/><rect width="0.9433962264150944em" height="0.3279959604347776em" x="47.16981132075472em" y="29.672004039565223em" fill="#aaa"/><rect width="0.9433962264150944em" height="0.1688762883198564em" x="48.113207547169814em" y="29.831123711680142em" fill="#aaa"/><rect width="0.9433962264150944em" height="0.14052422012284105em" x="49.056603773584904em" y="29.859475779877158em" fill="#aaa"/><rect width="0.9433962264150944em" height="0.15223082904891339em" x="50em" y="29.847769170951086em" fill="#aaa"/><rect width="0.9433962264150944em" height="0.2764269211148709em" x="50.943396226415096em" y="29.723573078885128em" fill="#aaa"/><rect width="0.9433962264150944em" height="0.14069378530540688em" x="51.88679245283019em" y="29.859306214694595em" fill="#aaa"/><rect width="0.9433962264150944em" height="0.3083373926323772em" x="52.83018867924528em" y="29.691662607367622em" fill="#aaa"/><rect width="0.9433962264150944em" height="0.33301035468895424em" x="53.77358490566038em" y="29.666989645311045em" fill="#aaa"/><rect width="0.9433962264150944em" height="0.3910153223751907em" x="54.716981132075475em" y="29.60898467762481em" fill="#aaa"/><rect width="0.9433962264150944em" height="0.1495320442987466em" x="55.660377358490564em" y="29.850467955701255em" fill="#aaa"/><rect width="0.9433962264150944em" height="0.9135626005482449em" x="56.60377358490566em" y="29.086437399451754em" fill="#aaa"/><rect width="0.9433962264150944em" height="0.20260865156578384em" x="57.54716981132076em" y="29.797391348434218em" fill="#aaa"/><rect width="0.9433962264150944em" height="0.20277020881068536em" x="58.49056603773585em" y="29.797229791189313em" fill="#aaa"/><rect width="0.9433962264150944em" height="0.6318793983789368em" x="59.43396226415094em" y="29.36812060162106em" fill="#aaa"/><rect width="0.9433962264150944em" height="0.07737757355476893em" x="60.37735849056604em" y="29.92262242644523em" fill="#aaa"/><rect width="0.9433962264150944em" height="0.2230009767880531em" x="61.320754716981135em" y="29.776999023211946em" fill="#aaa"/><rect width="0.9433962264150944em" height="0.1551666811200751em" x="62.264150943396224em" y="29.844833318879925em" fill="#aaa"/><rect width="0.9433962264150944em" height="0.055201336376167996em" x="63.20754716981132em" y="29.944798663623832em" fill="#aaa"/><rect width="0.9433962264150944em" height="0.3185164478876357em" x="64.15094339622641em" y="29.681483552112365em" fill="#aaa"/><rect width="0.9433962264150944em" height="0.5992762882593794em" x="65.09433962264151em" y="29.40072371174062em" fill="#aaa"/><rect width="0.9433962264150944em" height="0.11255639567726175em" x="66.0377358490566em" y="29.887443604322737em" fill="#aaa"/><rect width="0.9433962264150944em" height="0.8983862072937393em" x="66.9811320754717em" y="29.10161379270626em" fill="#aaa"/><rect width="0.9433962264150944em" height="0.12547215111809923em" x="67.9245283018868em" y="29.8745278488819em" fill="#aaa"/><rect width="0.9433962264150944em" height="0.668663440149986em" x="68.86792452830188em" y="29.331336559850016em" fill="#aaa"/><rect width="0.9433962264150944em" height="0.2007171678638444em" x="69.81132075471699em" y="29.799282832136157em" fill="#aaa"/><rect width="0.9433962264150944em" height="0.2343343075634209em" x="70.75471698113208em" y="29.765665692436578em" fill="#aaa"/><rect width="0.9433962264150944em" height="0.14542868656032307em" x="71.69811320754717em" y="29.854571313439678em" fill="#aaa"/><rect width="0.9433962264150944em" height="0.2435515457248918em" x="72.64150943396227em" y="29.75644845427511em" fill="#aaa"/><rect width="0.9433962264150944em" height="0.3377174594046182em" x="73.58490566037736em" y="29.66228254059538em" fill="#aaa"/><rect width="0.9433962264150944em" height="0.13873901193908636em" x="74.52830188679245em" y="29.861260988060913em" fill="#aaa"/><rect width="0.9433962264150944em" height="0.08939755699537848em" x="75.47169811320755em" y="29.91060244300462em" fill="#aaa"/><rect width="0.9433962264150944em" height="0.3302109585645239em" x="76.41509433962264em" y="29.669789041435475em" fill="#aaa"/><rect width="0.9433962264150944em" height="0.050717656222166466em" x="77.35849056603773em" y="29.949282343777835em" fill="#aaa"/><rect width="0.9433962264150944em" height="0.07428155822079306em" x="78.30188679245283em" y="29.925718441779207em" fill="#aaa"/><rect width="0.9433962264150944em" height="0.033803153946232754em" x="79.24528301886792em" y="29.966196846053766em" fill="#aaa"/><rect width="0.9433962264150944em" height="0.02913615612294757em" x="80.18867924528303em" y="29.97086384387705em" fill="#aaa"/><rect width="0.9433962264150944em" height="0.027729180551294513em" x="81.13207547169812em" y="29.972270819448706em" fill="#aaa"/><rect width="0.9433962264150944em" height="0.13359668217788756em" x="82.0754716981132em" y="29.86640331782211em" fill="#aaa"/><rect width="0.9433962264150944em" height="0.019866945703298042em" x="83.01886792452831em" y="29.9801330542967em" fill="#aaa"/><rect width="0.9433962264150944em" height="0.02302983752963734em" x="83.9622641509434em" y="29.976970162470362em" fill="#aaa"/><rect width="0.9433962264150944em" height="0.15443915985713028em" x="84.90566037735849em" y="29.84556084014287em" fill="#aaa"/><rect width="0.9433962264150944em" height="0.21444875272361413em" x="85.84905660377359em" y="29.785551247276384em" fill="#aaa"/><rect width="0.9433962264150944em" height="0.6395269274161074em" x="86.79245283018868em" y="29.360473072583893em" fill="#aaa"/><rect width="0.9433962264150944em" height="0.3935918890180806em" x="87.73584905660377em" y="29.60640811098192em" fill="#aaa"/><rect width="0.9433962264150944em" height="0.6652399927787209em" x="88.67924528301887em" y="29.33476000722128em" fill="#aaa"/><rect width="0.9433962264150944em" height="1.0248195949762862em" x="89.62264150943396em" y="28.975180405023714em" fill="#aaa"/><rect width="0.9433962264150944em" height="0.32126643706159375em" x="90.56603773584905em" y="29.678733562938405em" fill="#aaa"/><rect width="0.9433962264150944em" height="0.5432446417724325em" x="91.50943396226415em" y="29.456755358227568em" fill="#aaa"/><rect width="0.9433962264150944em" height="0.11293846205552298em" x="92.45283018867924em" y="29.887061537944476em" fill="#aaa"/><rect width="0.9433962264150944em" height="0.2567382656080077em" x="93.39622641509435em" y="29.743261734391993em" fill="#aaa"/><rect width="0.9433962264150944em" height="0.055705144256597665em" x="94.33962264150944em" y="29.9442948557434em" fill="#aaa"/><rect width="0.9433962264150944em" height="0.44233573994860986em" x="95.28301886792453em" y="29.55766426005139em" fill="#aaa"/><rect width="0.9433962264150944em" height="0.08967622702830637em" x="96.22641509433963em" y="29.910323772971694em" fill="#aaa"/><rect width="0.9433962264150944em" height="0.6747902237239489em" x="97.16981132075472em" y="29.32520977627605em" fill="#aaa"/><rect width="0.9433962264150944em" height="0.13713884241459803em" x="98.11320754716981em" y="29.862861157585403em" fill="#aaa"/><rect width="0.9433962264150944em" height="0.20837892061874563em" x="99.05660377358491em" y="29.791621079381255em" fill="#aaa"/></svg>