<?xml version="1.0" standalone="no"?>
<svg xmlns:xlink="http://www.w3.org/1999/xlink" xmlns="http://www.w3.org/2000/svg" class="topic-graph" style="width: 100em; height: 30em; text-align: center;"><rect width="0.9433962264150944em" height="0.01378592871142821em" x="0em" y="29.986214071288572em" fill="#aaa"/><rect width="0.9433962264150944em" height="0.16156264629918526em" x="0.9433962264150944em" y="29.838437353700815em" fill="#aaa"/><rect width="0.9433962264150944em" height="0.7742521073836783em" x="1.8867924528301887em" y="29.225747892616322em" fill="#aaa"/><rect width="0.9433962264150944em" height="1.1478582466219815em" x="2.830188679245283em" y="28.852141753378017em" fill="#aaa"/><rect width="0.9433962264150944em" height="0.32617962393180994em" x="3.7735849056603774em" y="29.67382037606819em" fill="#aaa"/><rect width="0.9433962264150944em" height="0.047357261747025044em" x="4.716981132075472em" y="29.952642738252976em" fill="#aaa"/><rect width="0.9433962264150944em" height="1.7239177263360441em" x="5.660377358490566em" y="28.276082273663956em" fill="#aaa"/><rect width="0.9433962264150944em" height="0.2140288367577402em" x="6.60377358490566em" y="29.78597116324226em" fill="#aaa"/><rect width="0.9433962264150944em" height="0.8310807914728895em" x="7.547169811320755em" y="29.16891920852711em" fill="#aaa"/><rect width="0.9433962264150944em" height="1.103133177330291em" x="8.49056603773585em" y="28.896866822669708em" fill="#aaa"/><rect width="0.9433962264150944em" height="0.8239858978417819em" x="9.433962264150944em" y="29.176014102158216em" fill="#aaa"/><rect width="0.9433962264150944em" height="0.4703690702394361em" x="10.377358490566039em" y="29.529630929760565em" fill="#aaa"/><rect width="0.9433962264150944em" height="1.1317143985620124em" x="11.320754716981131em" y="28.86828560143799em" fill="#aaa"/><rect width="0.9433962264150944em" height="0em" x="12.264150943396226em" y="30em" fill="#aaa"/><rect width="0.9433962264150944em" height="1.4607090812614327em" x="13.20754716981132em" y="28.539290918738565em" fill="#aaa"/><rect width="0.9433962264150944em" height="0.19489610104934132em" x="14.150943396226415em" y="29.80510389895066em" fill="#aaa"/><rect width="0.9433962264150944em" height="1.4520468525663173em" x="15.09433962264151em" y="28.54795314743368em" fill="#aaa"/><rect width="0.9433962264150944em" height="2.8468722217770406em" x="16.037735849056602em" y="27.15312777822296em" fill="#aaa"/><rect width="0.9433962264150944em" height="0.39072919404129414em" x="16.9811320754717em" y="29.609270805958705em" fill="#aaa"/><rect width="0.9433962264150944em" height="1.0096447748954815em" x="17.92452830188679em" y="28.99035522510452em" fill="#aaa"/><rect width="0.9433962264150944em" height="1.7602571706427355em" x="18.867924528301888em" y="28.239742829357265em" fill="#aaa"/><rect width="0.9433962264150944em" height="0.718969166074866em" x="19.81132075471698em" y="29.281030833925133em" fill="#aaa"/><rect width="0.9433962264150944em" height="4.035268433534724em" x="20.754716981132077em" y="25.964731566465275em" fill="#aaa"/><rect width="0.9433962264150944em" height="0.2996246169130351em" x="21.69811320754717em" y="29.700375383086964em" fill="#aaa"/><rect width="0.9433962264150944em" height="1.3854286572879497em" x="22.641509433962263em" y="28.61457134271205em" fill="#aaa"/><rect width="0.9433962264150944em" height="0.07896696777198851em" x="23.58490566037736em" y="29.92103303222801em" fill="#aaa"/><rect width="0.9433962264150944em" height="0em" x="24.528301886792452em" y="30em" fill="#aaa"/><rect width="0.9433962264150944em" height="0.48328633559198114em" x="25.471698113207548em" y="29.51671366440802em" fill="#aaa"/><rect width="0.9433962264150944em" height="0.40709435784847636em" x="26.41509433962264em" y="29.592905642151525em" fill="#aaa"/><rect width="0.9433962264150944em" height="1.334527929158445em" x="27.358490566037737em" y="28.665472070841556em" fill="#aaa"/><rect width="0.9433962264150944em" height="2.8237382881062145em" x="28.30188679245283em" y="27.176261711893787em" fill="#aaa"/><rect width="0.9433962264150944em" height="1.8239007834043743em" x="29.245283018867926em" y="28.176099216595624em" fill="#aaa"/><rect width="0.9433962264150944em" height="1.2830556242045448em" x="30.18867924528302em" y="28.716944375795457em" fill="#aaa"/><rect width="0.9433962264150944em" height="0.2107900835939637em" x="31.132075471698112em" y="29.789209916406037em" fill="#aaa"/><rect width="0.9433962264150944em" height="1.6274413998079016em" x="32.075471698113205em" y="28.3725586001921em" fill="#aaa"/><rect width="0.9433962264150944em" height="1.9365853842481922em" x="33.0188679245283em" y="28.063414615751807em" fill="#aaa"/><rect width="0.9433962264150944em" height="0.6777119727907269em" x="33.9622641509434em" y="29.32228802720927em" fill="#aaa"/><rect width="0.9433962264150944em" height="0.8348516898060927em" x="34.905660377358494em" y="29.165148310193906em" fill="#aaa"/><rect width="0.9433962264150944em" height="0.4568094776643932em" x="35.84905660377358em" y="29.543190522335607em" fill="#aaa"/><rect width="0.9433962264150944em" height="1.1621041240331587em" x="36.79245283018868em" y="28.83789587596684em" fill="#aaa"/><rect width="0.9433962264150944em" height="1.976353694077513em" x="37.735849056603776em" y="28.023646305922487em" fill="#aaa"/><rect width="0.9433962264150944em" height="1.776220386447246em" x="38.679245283018865em" y="28.223779613552754em" fill="#aaa"/><rect width="0.9433962264150944em" height="0.4900273573333762em" x="39.62264150943396em" y="29.509972642666625em" fill="#aaa"/><rect width="0.9433962264150944em" height="0.7551121864646267em" x="40.56603773584906em" y="29.244887813535374em" fill="#aaa"/><rect width="0.9433962264150944em" height="0.5451738253942041em" x="41.509433962264154em" y="29.454826174605795em" fill="#aaa"/><rect width="0.9433962264150944em" height="0.3938445757698141em" x="42.45283018867924em" y="29.606155424230185em" fill="#aaa"/><rect width="0.9433962264150944em" height="0.9466006229483428em" x="43.39622641509434em" y="29.053399377051658em" fill="#aaa"/><rect width="0.9433962264150944em" height="0.894848476579257em" x="44.339622641509436em" y="29.105151523420744em" fill="#aaa"/><rect width="0.9433962264150944em" height="0.258769606845466em" x="45.283018867924525em" y="29.741230393154535em" fill="#aaa"/><rect width="0.9433962264150944em" height="1.4245831731341894em" x="46.22641509433962em" y="28.575416826865812em" fill="#aaa"/><rect width="0.9433962264150944em" height="1.7461842458356434em" x="47.16981132075472em" y="28.253815754164357em" fill="#aaa"/><rect width="0.9433962264150944em" height="1.3750058604970306em" x="48.113207547169814em" y="28.62499413950297em" fill="#aaa"/><rect width="0.9433962264150944em" height="0.6743223501618297em" x="49.056603773584904em" y="29.32567764983817em" fill="#aaa"/><rect width="0.9433962264150944em" height="1.3787786778424151em" x="50em" y="28.621221322157584em" fill="#aaa"/><rect width="0.9433962264150944em" height="4.046375553471389em" x="50.943396226415096em" y="25.95362444652861em" fill="#aaa"/><rect width="0.9433962264150944em" height="4.474342300305136em" x="51.88679245283019em" y="25.525657699694865em" fill="#aaa"/><rect width="0.9433962264150944em" height="0.9817946680916363em" x="52.83018867924528em" y="29.018205331908362em" fill="#aaa"/><rect width="0.9433962264150944em" height="2.01816358362877em" x="53.77358490566038em" y="27.98183641637123em" fill="#aaa"/><rect width="0.9433962264150944em" height="1.2618239772038482em" x="54.716981132075475em" y="28.738176022796154em" fill="#aaa"/><rect width="0.9433962264150944em" height="0.7453433396434159em" x="55.660377358490564em" y="29.254656660356584em" fill="#aaa"/><rect width="0.9433962264150944em" height="0.9433916499372058em" x="56.60377358490566em" y="29.056608350062795em" fill="#aaa"/><rect width="0.9433962264150944em" height="0.5366864802797434em" x="57.54716981132076em" y="29.463313519720256em" fill="#aaa"/><rect width="0.9433962264150944em" height="0.4823758579337586em" x="58.49056603773585em" y="29.517624142066243em" fill="#aaa"/><rect width="0.9433962264150944em" height="0.6195283311477555em" x="59.43396226415094em" y="29.380471668852245em" fill="#aaa"/><rect width="0.9433962264150944em" height="1.0656879996809387em" x="60.37735849056604em" y="28.93431200031906em" fill="#aaa"/><rect width="0.9433962264150944em" height="0.3685149587159806em" x="61.320754716981135em" y="29.63148504128402em" fill="#aaa"/><rect width="0.9433962264150944em" height="1.4442629277023007em" x="62.264150943396224em" y="28.5557370722977em" fill="#aaa"/><rect width="0.9433962264150944em" height="0.8484353710404035em" x="63.20754716981132em" y="29.151564628959598em" fill="#aaa"/><rect width="0.9433962264150944em" height="1.790881080907567em" x="64.15094339622641em" y="28.209118919092433em" fill="#aaa"/><rect width="0.9433962264150944em" height="1.170256136385893em" x="65.09433962264151em" y="28.829743863614105em" fill="#aaa"/><rect width="0.9433962264150944em" height="3.3703085779552397em" x="66.0377358490566em" y="26.62969142204476em" fill="#aaa"/><rect width="0.9433962264150944em" height="1.3641281064738153em" x="66.9811320754717em" y="28.635871893526186em" fill="#aaa"/><rect width="0.9433962264150944em" height="4.7051263563604655em" x="67.9245283018868em" y="25.294873643639534em" fill="#aaa"/><rect width="0.9433962264150944em" height="2.6145663691299776em" x="68.86792452830188em" y="27.385433630870022em" fill="#aaa"/><rect width="0.9433962264150944em" height="1.091266372201169em" x="69.81132075471699em" y="28.90873362779883em" fill="#aaa"/><rect width="0.9433962264150944em" height="1.129703978291793em" x="70.75471698113208em" y="28.870296021708207em" fill="#aaa"/><rect width="0.9433962264150944em" height="2.94594526026841em" x="71.69811320754717em" y="27.05405473973159em" fill="#aaa"/><rect width="0.9433962264150944em" height="1.0841161750524921em" x="72.64150943396227em" y="28.915883824947507em" fill="#aaa"/><rect width="0.9433962264150944em" height="2.753652736005626em" x="73.58490566037736em" y="27.246347263994373em" fill="#aaa"/><rect width="0.9433962264150944em" height="30em" x="74.52830188679245em" y="0em" fill="#aaa"/><rect width="0.9433962264150944em" height="3.4600957466877857em" x="75.47169811320755em" y="26.539904253312216em" fill="#aaa"/><rect width="0.9433962264150944em" height="1.3886404624245903em" x="76.41509433962264em" y="28.61135953757541em" fill="#aaa"/><rect width="0.9433962264150944em" height="4.40646676712139em" x="77.35849056603773em" y="25.59353323287861em" fill="#aaa"/><rect width="0.9433962264150944em" height="0.4078713748073496em" x="78.30188679245283em" y="29.59212862519265em" fill="#aaa"/><rect width="0.9433962264150944em" height="26.20731052334733em" x="79.24528301886792em" y="3.7926894766526686em" fill="#aaa"/><rect width="0.9433962264150944em" height="5.408157303763409em" x="80.18867924528303em" y="24.59184269623659em" fill="#aaa"/><rect width="0.9433962264150944em" height="5.6989620634191em" x="81.13207547169812em" y="24.3010379365809em" fill="#aaa"/><rect width="0.9433962264150944em" height="5.2095094397826145em" x="82.0754716981132em" y="24.790490560217386em" fill="#aaa"/><rect width="0.9433962264150944em" height="1.3795668775632177em" x="83.01886792452831em" y="28.620433122436783em" fill="#aaa"/><rect width="0.9433962264150944em" height="5.411307410693352em" x="83.9622641509434em" y="24.588692589306646em" fill="#aaa"/><rect width="0.9433962264150944em" height="0.9424054818598694em" x="84.90566037735849em" y="29.05759451814013em" fill="#aaa"/><rect width="0.9433962264150944em" height="1.344339062661774em" x="85.84905660377359em" y="28.655660937338226em" fill="#aaa"/><rect width="0.9433962264150944em" height="1.045317605831229em" x="86.79245283018868em" y="28.95468239416877em" fill="#aaa"/><rect width="0.9433962264150944em" height="0.8494085163963718em" x="87.73584905660377em" y="29.150591483603627em" fill="#aaa"/><rect width="0.9433962264150944em" height="0.4303284087663679em" x="88.67924528301887em" y="29.569671591233632em" fill="#aaa"/><rect width="0.9433962264150944em" height="1.4385798772228098em" x="89.62264150943396em" y="28.56142012277719em" fill="#aaa"/><rect width="0.9433962264150944em" height="0.834304190155575em" x="90.56603773584905em" y="29.165695809844426em" fill="#aaa"/><rect width="0.9433962264150944em" height="0.9977465557365656em" x="91.50943396226415em" y="29.002253444263435em" fill="#aaa"/><rect width="0.9433962264150944em" height="0.7916126466615514em" x="92.45283018867924em" y="29.20838735333845em" fill="#aaa"/><rect width="0.9433962264150944em" height="2.7461561027297963em" x="93.39622641509435em" y="27.253843897270205em" fill="#aaa"/><rect width="0.9433962264150944em" height="0.983961495129144em" x="94.33962264150944em" y="29.016038504870856em" fill="#aaa"/><rect width="0.9433962264150944em" height="0.3748858775547307em" x="95.28301886792453em" y="29.625114122445268em" fill="#aaa"/><rect width="0.9433962264150944em" height="0.8548962766950448em" x="96.22641509433963em" y="29.145103723304956em" fill="#aaa"/><rect width="0.9433962264150944em" height="3.303943461725756em" x="97.16981132075472em" y="26.696056538274245em" fill="#aaa"/><rect width="0.9433962264150944em" height="0.9443444231339297em" x="98.11320754716981em" y="29.05565557686607em" fill="#aaa"/><rect width="0.9433962264150944em" height="2.132022678375179em" x="99.05660377358491em" y="27.86797732162482em" fill="#aaa"/></svg>