<?xml version="1.0" standalone="no"?>
<svg xmlns:xlink="http://www.w3.org/1999/xlink" xmlns="http://www.w3.org/2000/svg" class="topic-graph" style="width: 100em; height: 30em; text-align: center;"><rect width="0.9433962264150944em" height="6.78622431206477em" x="0em" y="23.21377568793523em" fill="#aaa"/><rect width="0.9433962264150944em" height="4.98075826716317em" x="0.9433962264150944em" y="25.019241732836832em" fill="#aaa"/><rect width="0.9433962264150944em" height="3.4817359276689235em" x="1.8867924528301887em" y="26.51826407233108em" fill="#aaa"/><rect width="0.9433962264150944em" height="1.883798685689422em" x="2.830188679245283em" y="28.11620131431058em" fill="#aaa"/><rect width="0.9433962264150944em" height="2.1334006484443298em" x="3.7735849056603774em" y="27.86659935155567em" fill="#aaa"/><rect width="0.9433962264150944em" height="3.010462503616101em" x="4.716981132075472em" y="26.9895374963839em" fill="#aaa"/><rect width="0.9433962264150944em" height="4.467349800183642em" x="5.660377358490566em" y="25.53265019981636em" fill="#aaa"/><rect width="0.9433962264150944em" height="6.942201009959283em" x="6.60377358490566em" y="23.057798990040716em" fill="#aaa"/><rect width="0.9433962264150944em" height="3.4078036505685456em" x="7.547169811320755em" y="26.592196349431454em" fill="#aaa"/><rect width="0.9433962264150944em" height="3.621581395979365em" x="8.49056603773585em" y="26.378418604020634em" fill="#aaa"/><rect width="0.9433962264150944em" height="18.799424322376616em" x="9.433962264150944em" y="11.200575677623384em" fill="#aaa"/><rect width="0.9433962264150944em" height="4.166410216658364em" x="10.377358490566039em" y="25.833589783341637em" fill="#aaa"/><rect width="0.9433962264150944em" height="13.519808063952782em" x="11.320754716981131em" y="16.48019193604722em" fill="#aaa"/><rect width="0.9433962264150944em" height="0em" x="12.264150943396226em" y="30em" fill="#aaa"/><rect width="0.9433962264150944em" height="7.336959783883981em" x="13.20754716981132em" y="22.66304021611602em" fill="#aaa"/><rect width="0.9433962264150944em" height="21.734682364729547em" x="14.150943396226415em" y="8.265317635270453em" fill="#aaa"/><rect width="0.9433962264150944em" height="12.105068355258496em" x="15.09433962264151em" y="17.894931644741504em" fill="#aaa"/><rect width="0.9433962264150944em" height="2.748666832016829em" x="16.037735849056602em" y="27.25133316798317em" fill="#aaa"/><rect width="0.9433962264150944em" height="4.141324512308779em" x="16.9811320754717em" y="25.858675487691222em" fill="#aaa"/><rect width="0.9433962264150944em" height="3.1233973883327955em" x="17.92452830188679em" y="26.876602611667206em" fill="#aaa"/><rect width="0.9433962264150944em" height="4.658998644542169em" x="18.867924528301888em" y="25.34100135545783em" fill="#aaa"/><rect width="0.9433962264150944em" height="9.96659401993267em" x="19.81132075471698em" y="20.03340598006733em" fill="#aaa"/><rect width="0.9433962264150944em" height="2.785836282615681em" x="20.754716981132077em" y="27.21416371738432em" fill="#aaa"/><rect width="0.9433962264150944em" height="4.2466026053890875em" x="21.69811320754717em" y="25.753397394610914em" fill="#aaa"/><rect width="0.9433962264150944em" height="6.852202383094349em" x="22.641509433962263em" y="23.14779761690565em" fill="#aaa"/><rect width="0.9433962264150944em" height="9.42504743068971em" x="23.58490566037736em" y="20.57495256931029em" fill="#aaa"/><rect width="0.9433962264150944em" height="0em" x="24.528301886792452em" y="30em" fill="#aaa"/><rect width="0.9433962264150944em" height="14.246983038294044em" x="25.471698113207548em" y="15.753016961705956em" fill="#aaa"/><rect width="0.9433962264150944em" height="16.59500168840659em" x="26.41509433962264em" y="13.40499831159341em" fill="#aaa"/><rect width="0.9433962264150944em" height="6.051015699875152em" x="27.358490566037737em" y="23.94898430012485em" fill="#aaa"/><rect width="0.9433962264150944em" height="6.077373647308028em" x="28.30188679245283em" y="23.92262635269197em" fill="#aaa"/><rect width="0.9433962264150944em" height="4.701602527370331em" x="29.245283018867926em" y="25.29839747262967em" fill="#aaa"/><rect width="0.9433962264150944em" height="8.615632978946923em" x="30.18867924528302em" y="21.384367021053077em" fill="#aaa"/><rect width="0.9433962264150944em" height="6.946211653457514em" x="31.132075471698112em" y="23.053788346542486em" fill="#aaa"/><rect width="0.9433962264150944em" height="4.076526357769144em" x="32.075471698113205em" y="25.923473642230856em" fill="#aaa"/><rect width="0.9433962264150944em" height="4.918108941877106em" x="33.0188679245283em" y="25.081891058122892em" fill="#aaa"/><rect width="0.9433962264150944em" height="4.655414843751055em" x="33.9622641509434em" y="25.344585156248947em" fill="#aaa"/><rect width="0.9433962264150944em" height="4.0082894343143485em" x="34.905660377358494em" y="25.99171056568565em" fill="#aaa"/><rect width="0.9433962264150944em" height="2.432580094177754em" x="35.84905660377358em" y="27.567419905822245em" fill="#aaa"/><rect width="0.9433962264150944em" height="2.9129242564258226em" x="36.79245283018868em" y="27.08707574357418em" fill="#aaa"/><rect width="0.9433962264150944em" height="9.357087654423536em" x="37.735849056603776em" y="20.642912345576462em" fill="#aaa"/><rect width="0.9433962264150944em" height="1.4982589490002607em" x="38.679245283018865em" y="28.50174105099974em" fill="#aaa"/><rect width="0.9433962264150944em" height="3.3814456414927583em" x="39.62264150943396em" y="26.618554358507243em" fill="#aaa"/><rect width="0.9433962264150944em" height="2.755500232280098em" x="40.56603773584906em" y="27.2444997677199em" fill="#aaa"/><rect width="0.9433962264150944em" height="7.181960661916174em" x="41.509433962264154em" y="22.818039338083825em" fill="#aaa"/><rect width="0.9433962264150944em" height="5.481745513781803em" x="42.45283018867924em" y="24.518254486218197em" fill="#aaa"/><rect width="0.9433962264150944em" height="7.203157247014654em" x="43.39622641509434em" y="22.796842752985345em" fill="#aaa"/><rect width="0.9433962264150944em" height="11.749854347091226em" x="44.339622641509436em" y="18.250145652908774em" fill="#aaa"/><rect width="0.9433962264150944em" height="20.867324616575342em" x="45.283018867924525em" y="9.132675383424658em" fill="#aaa"/><rect width="0.9433962264150944em" height="4.365749082128099em" x="46.22641509433962em" y="25.634250917871903em" fill="#aaa"/><rect width="0.9433962264150944em" height="5.54891245514841em" x="47.16981132075472em" y="24.45108754485159em" fill="#aaa"/><rect width="0.9433962264150944em" height="7.3928900368866035em" x="48.113207547169814em" y="22.607109963113395em" fill="#aaa"/><rect width="0.9433962264150944em" height="3.8463990123775913em" x="49.056603773584904em" y="26.153600987622408em" fill="#aaa"/><rect width="0.9433962264150944em" height="10.828542865868956em" x="50em" y="19.171457134131046em" fill="#aaa"/><rect width="0.9433962264150944em" height="14.282336909413882em" x="50.943396226415096em" y="15.717663090586118em" fill="#aaa"/><rect width="0.9433962264150944em" height="10.949909739654208em" x="51.88679245283019em" y="19.05009026034579em" fill="#aaa"/><rect width="0.9433962264150944em" height="11.169440952389833em" x="52.83018867924528em" y="18.830559047610166em" fill="#aaa"/><rect width="0.9433962264150944em" height="13.24534494605599em" x="53.77358490566038em" y="16.75465505394401em" fill="#aaa"/><rect width="0.9433962264150944em" height="10.241112636529794em" x="54.716981132075475em" y="19.75888736347021em" fill="#aaa"/><rect width="0.9433962264150944em" height="6.2590159458664205em" x="55.660377358490564em" y="23.74098405413358em" fill="#aaa"/><rect width="0.9433962264150944em" height="27.971982378833967em" x="56.60377358490566em" y="2.0280176211660326em" fill="#aaa"/><rect width="0.9433962264150944em" height="5.852796628184065em" x="57.54716981132076em" y="24.147203371815934em" fill="#aaa"/><rect width="0.9433962264150944em" height="4.512907860086879em" x="58.49056603773585em" y="25.48709213991312em" fill="#aaa"/><rect width="0.9433962264150944em" height="9.000335019960435em" x="59.43396226415094em" y="20.999664980039565em" fill="#aaa"/><rect width="0.9433962264150944em" height="7.882333931548826em" x="60.37735849056604em" y="22.117666068451175em" fill="#aaa"/><rect width="0.9433962264150944em" height="7.972746327770634em" x="61.320754716981135em" y="22.027253672229367em" fill="#aaa"/><rect width="0.9433962264150944em" height="14.135048686561102em" x="62.264150943396224em" y="15.864951313438898em" fill="#aaa"/><rect width="0.9433962264150944em" height="5.626206861410821em" x="63.20754716981132em" y="24.37379313858918em" fill="#aaa"/><rect width="0.9433962264150944em" height="3.5697271766167162em" x="64.15094339622641em" y="26.430272823383284em" fill="#aaa"/><rect width="0.9433962264150944em" height="5.047635863359271em" x="65.09433962264151em" y="24.95236413664073em" fill="#aaa"/><rect width="0.9433962264150944em" height="9.004700274029618em" x="66.0377358490566em" y="20.995299725970384em" fill="#aaa"/><rect width="0.9433962264150944em" height="5.325572378989238em" x="66.9811320754717em" y="24.67442762101076em" fill="#aaa"/><rect width="0.9433962264150944em" height="9.360258601095246em" x="67.9245283018868em" y="20.639741398904754em" fill="#aaa"/><rect width="0.9433962264150944em" height="8.925341930418018em" x="68.86792452830188em" y="21.074658069581982em" fill="#aaa"/><rect width="0.9433962264150944em" height="9.818311824212417em" x="69.81132075471699em" y="20.181688175787585em" fill="#aaa"/><rect width="0.9433962264150944em" height="18.278023068228467em" x="70.75471698113208em" y="11.721976931771533em" fill="#aaa"/><rect width="0.9433962264150944em" height="8.125168268196767em" x="71.69811320754717em" y="21.874831731803233em" fill="#aaa"/><rect width="0.9433962264150944em" height="10.390290426737645em" x="72.64150943396227em" y="19.609709573262357em" fill="#aaa"/><rect width="0.9433962264150944em" height="9.801371186486781em" x="73.58490566037736em" y="20.198628813513217em" fill="#aaa"/><rect width="0.9433962264150944em" height="11.250493773328971em" x="74.52830188679245em" y="18.74950622667103em" fill="#aaa"/><rect width="0.9433962264150944em" height="8.266698976262312em" x="75.47169811320755em" y="21.73330102373769em" fill="#aaa"/><rect width="0.9433962264150944em" height="18.03248617886571em" x="76.41509433962264em" y="11.96751382113429em" fill="#aaa"/><rect width="0.9433962264150944em" height="27.527580145668345em" x="77.35849056603773em" y="2.4724198543316547em" fill="#aaa"/><rect width="0.9433962264150944em" height="10.828320722897985em" x="78.30188679245283em" y="19.171679277102015em" fill="#aaa"/><rect width="0.9433962264150944em" height="7.106684411504em" x="79.24528301886792em" y="22.893315588496em" fill="#aaa"/><rect width="0.9433962264150944em" height="10.14638422694862em" x="80.18867924528303em" y="19.85361577305138em" fill="#aaa"/><rect width="0.9433962264150944em" height="15.03119250023277em" x="81.13207547169812em" y="14.96880749976723em" fill="#aaa"/><rect width="0.9433962264150944em" height="7.447304825711997em" x="82.0754716981132em" y="22.552695174288004em" fill="#aaa"/><rect width="0.9433962264150944em" height="4.543044738654064em" x="83.01886792452831em" y="25.456955261345936em" fill="#aaa"/><rect width="0.9433962264150944em" height="15.210875226387214em" x="83.9622641509434em" y="14.789124773612786em" fill="#aaa"/><rect width="0.9433962264150944em" height="4.900273887101873em" x="84.90566037735849em" y="25.099726112898125em" fill="#aaa"/><rect width="0.9433962264150944em" height="7.4886787084911965em" x="85.84905660377359em" y="22.511321291508803em" fill="#aaa"/><rect width="0.9433962264150944em" height="5.391223400394011em" x="86.79245283018868em" y="24.60877659960599em" fill="#aaa"/><rect width="0.9433962264150944em" height="10.369342597930622em" x="87.73584905660377em" y="19.630657402069378em" fill="#aaa"/><rect width="0.9433962264150944em" height="8.815378935276277em" x="88.67924528301887em" y="21.18462106472372em" fill="#aaa"/><rect width="0.9433962264150944em" height="7.062496959536901em" x="89.62264150943396em" y="22.9375030404631em" fill="#aaa"/><rect width="0.9433962264150944em" height="30em" x="90.56603773584905em" y="0em" fill="#aaa"/><rect width="0.9433962264150944em" height="9.871159274086594em" x="91.50943396226415em" y="20.128840725913406em" fill="#aaa"/><rect width="0.9433962264150944em" height="7.960729650366942em" x="92.45283018867924em" y="22.039270349633057em" fill="#aaa"/><rect width="0.9433962264150944em" height="6.092644613505173em" x="93.39622641509435em" y="23.907355386494828em" fill="#aaa"/><rect width="0.9433962264150944em" height="7.983155556111975em" x="94.33962264150944em" y="22.016844443888026em" fill="#aaa"/><rect width="0.9433962264150944em" height="5.4323621030950875em" x="95.28301886792453em" y="24.567637896904913em" fill="#aaa"/><rect width="0.9433962264150944em" height="6.674424779956966em" x="96.22641509433963em" y="23.325575220043035em" fill="#aaa"/><rect width="0.9433962264150944em" height="6.573315923815466em" x="97.16981132075472em" y="23.426684076184536em" fill="#aaa"/><rect width="0.9433962264150944em" height="6.857331178490403em" x="98.11320754716981em" y="23.142668821509595em" fill="#aaa"/><rect width="0.9433962264150944em" height="8.897439433165875em" x="99.05660377358491em" y="21.102560566834125em" fill="#aaa"/></svg>