<?xml version="1.0" standalone="no"?>
<svg xmlns:xlink="http://www.w3.org/1999/xlink" xmlns="http://www.w3.org/2000/svg" class="topic-graph" style="width: 100em; height: 30em; text-align: center;"><rect width="0.9433962264150944em" height="5.820561923675561em" x="0em" y="24.179438076324438em" fill="#aaa"/><rect width="0.9433962264150944em" height="6.782862149866223em" x="0.9433962264150944em" y="23.217137850133778em" fill="#aaa"/><rect width="0.9433962264150944em" height="13.201572149929632em" x="1.8867924528301887em" y="16.798427850070368em" fill="#aaa"/><rect width="0.9433962264150944em" height="26.38953648960337em" x="2.830188679245283em" y="3.610463510396631em" fill="#aaa"/><rect width="0.9433962264150944em" height="12.357231639293527em" x="3.7735849056603774em" y="17.642768360706473em" fill="#aaa"/><rect width="0.9433962264150944em" height="15.69834333984936em" x="4.716981132075472em" y="14.30165666015064em" fill="#aaa"/><rect width="0.9433962264150944em" height="8.345940854862329em" x="5.660377358490566em" y="21.654059145137673em" fill="#aaa"/><rect width="0.9433962264150944em" height="4.375921933429919em" x="6.60377358490566em" y="25.624078066570082em" fill="#aaa"/><rect width="0.9433962264150944em" height="13.330326158683873em" x="7.547169811320755em" y="16.669673841316126em" fill="#aaa"/><rect width="0.9433962264150944em" height="13.420999421670043em" x="8.49056603773585em" y="16.579000578329957em" fill="#aaa"/><rect width="0.9433962264150944em" height="10.876206057888608em" x="9.433962264150944em" y="19.12379394211139em" fill="#aaa"/><rect width="0.9433962264150944em" height="25.35986296134714em" x="10.377358490566039em" y="4.64013703865286em" fill="#aaa"/><rect width="0.9433962264150944em" height="13.363060966706385em" x="11.320754716981131em" y="16.636939033293615em" fill="#aaa"/><rect width="0.9433962264150944em" height="0em" x="12.264150943396226em" y="30em" fill="#aaa"/><rect width="0.9433962264150944em" height="9.613114243997641em" x="13.20754716981132em" y="20.386885756002357em" fill="#aaa"/><rect width="0.9433962264150944em" height="10.366289162159829em" x="14.150943396226415em" y="19.63371083784017em" fill="#aaa"/><rect width="0.9433962264150944em" height="14.978966284969685em" x="15.09433962264151em" y="15.021033715030315em" fill="#aaa"/><rect width="0.9433962264150944em" height="10.438430425879108em" x="16.037735849056602em" y="19.56156957412089em" fill="#aaa"/><rect width="0.9433962264150944em" height="17.51033996272209em" x="16.9811320754717em" y="12.489660037277911em" fill="#aaa"/><rect width="0.9433962264150944em" height="17.527882485777273em" x="17.92452830188679em" y="12.472117514222727em" fill="#aaa"/><rect width="0.9433962264150944em" height="15.689332492272259em" x="18.867924528301888em" y="14.310667507727741em" fill="#aaa"/><rect width="0.9433962264150944em" height="19.081318880666014em" x="19.81132075471698em" y="10.918681119333986em" fill="#aaa"/><rect width="0.9433962264150944em" height="25.97759676907066em" x="20.754716981132077em" y="4.0224032309293385em" fill="#aaa"/><rect width="0.9433962264150944em" height="8.236934898296711em" x="21.69811320754717em" y="21.76306510170329em" fill="#aaa"/><rect width="0.9433962264150944em" height="13.709490502517797em" x="22.641509433962263em" y="16.290509497482205em" fill="#aaa"/><rect width="0.9433962264150944em" height="14.453759816118975em" x="23.58490566037736em" y="15.546240183881025em" fill="#aaa"/><rect width="0.9433962264150944em" height="0em" x="24.528301886792452em" y="30em" fill="#aaa"/><rect width="0.9433962264150944em" height="11.570175682060563em" x="25.471698113207548em" y="18.429824317939435em" fill="#aaa"/><rect width="0.9433962264150944em" height="29.713395475714723em" x="26.41509433962264em" y="0.28660452428527705em" fill="#aaa"/><rect width="0.9433962264150944em" height="25.96942386947726em" x="27.358490566037737em" y="4.030576130522739em" fill="#aaa"/><rect width="0.9433962264150944em" height="27.090148830551538em" x="28.30188679245283em" y="2.909851169448462em" fill="#aaa"/><rect width="0.9433962264150944em" height="26.665434485592016em" x="29.245283018867926em" y="3.334565514407984em" fill="#aaa"/><rect width="0.9433962264150944em" height="21.488423072399048em" x="30.18867924528302em" y="8.511576927600952em" fill="#aaa"/><rect width="0.9433962264150944em" height="24.518765308011183em" x="31.132075471698112em" y="5.481234691988817em" fill="#aaa"/><rect width="0.9433962264150944em" height="19.075635269624847em" x="32.075471698113205em" y="10.924364730375153em" fill="#aaa"/><rect width="0.9433962264150944em" height="21.907240118364076em" x="33.0188679245283em" y="8.092759881635924em" fill="#aaa"/><rect width="0.9433962264150944em" height="15.964122589399116em" x="33.9622641509434em" y="14.035877410600884em" fill="#aaa"/><rect width="0.9433962264150944em" height="14.94867155611271em" x="34.905660377358494em" y="15.05132844388729em" fill="#aaa"/><rect width="0.9433962264150944em" height="8.89457217207871em" x="35.84905660377358em" y="21.10542782792129em" fill="#aaa"/><rect width="0.9433962264150944em" height="12.645252407487137em" x="36.79245283018868em" y="17.354747592512865em" fill="#aaa"/><rect width="0.9433962264150944em" height="11.752196166362067em" x="37.735849056603776em" y="18.24780383363793em" fill="#aaa"/><rect width="0.9433962264150944em" height="18.31291467153826em" x="38.679245283018865em" y="11.687085328461741em" fill="#aaa"/><rect width="0.9433962264150944em" height="15.20821248061423em" x="39.62264150943396em" y="14.79178751938577em" fill="#aaa"/><rect width="0.9433962264150944em" height="22.272001992411962em" x="40.56603773584906em" y="7.727998007588038em" fill="#aaa"/><rect width="0.9433962264150944em" height="19.178267528268613em" x="41.509433962264154em" y="10.821732471731387em" fill="#aaa"/><rect width="0.9433962264150944em" height="11.288031298081787em" x="42.45283018867924em" y="18.711968701918213em" fill="#aaa"/><rect width="0.9433962264150944em" height="22.83432438818869em" x="43.39622641509434em" y="7.165675611811309em" fill="#aaa"/><rect width="0.9433962264150944em" height="22.846973964338684em" x="44.339622641509436em" y="7.153026035661316em" fill="#aaa"/><rect width="0.9433962264150944em" height="20.973645859257008em" x="45.283018867924525em" y="9.026354140742992em" fill="#aaa"/><rect width="0.9433962264150944em" height="14.367379352623674em" x="46.22641509433962em" y="15.632620647376326em" fill="#aaa"/><rect width="0.9433962264150944em" height="21.131129579791786em" x="47.16981132075472em" y="8.868870420208214em" fill="#aaa"/><rect width="0.9433962264150944em" height="23.874230819695903em" x="48.113207547169814em" y="6.125769180304097em" fill="#aaa"/><rect width="0.9433962264150944em" height="25.54164165269567em" x="49.056603773584904em" y="4.45835834730433em" fill="#aaa"/><rect width="0.9433962264150944em" height="24.634290350538507em" x="50em" y="5.365709649461493em" fill="#aaa"/><rect width="0.9433962264150944em" height="20.055571005707314em" x="50.943396226415096em" y="9.944428994292686em" fill="#aaa"/><rect width="0.9433962264150944em" height="21.543874896938696em" x="51.88679245283019em" y="8.456125103061304em" fill="#aaa"/><rect width="0.9433962264150944em" height="22.550525397743918em" x="52.83018867924528em" y="7.449474602256082em" fill="#aaa"/><rect width="0.9433962264150944em" height="22.423537494329498em" x="53.77358490566038em" y="7.576462505670502em" fill="#aaa"/><rect width="0.9433962264150944em" height="16.767742484632585em" x="54.716981132075475em" y="13.232257515367415em" fill="#aaa"/><rect width="0.9433962264150944em" height="14.603222427534735em" x="55.660377358490564em" y="15.396777572465265em" fill="#aaa"/><rect width="0.9433962264150944em" height="19.37576069895103em" x="56.60377358490566em" y="10.62423930104897em" fill="#aaa"/><rect width="0.9433962264150944em" height="13.35098550005544em" x="57.54716981132076em" y="16.64901449994456em" fill="#aaa"/><rect width="0.9433962264150944em" height="15.869031208294157em" x="58.49056603773585em" y="14.130968791705843em" fill="#aaa"/><rect width="0.9433962264150944em" height="23.611342069312556em" x="59.43396226415094em" y="6.388657930687444em" fill="#aaa"/><rect width="0.9433962264150944em" height="21.247778942659085em" x="60.37735849056604em" y="8.752221057340915em" fill="#aaa"/><rect width="0.9433962264150944em" height="15.229743662850824em" x="61.320754716981135em" y="14.770256337149176em" fill="#aaa"/><rect width="0.9433962264150944em" height="19.16361027353006em" x="62.264150943396224em" y="10.836389726469939em" fill="#aaa"/><rect width="0.9433962264150944em" height="28.74842943442457em" x="63.20754716981132em" y="1.251570565575431em" fill="#aaa"/><rect width="0.9433962264150944em" height="15.095095416820667em" x="64.15094339622641em" y="14.904904583179333em" fill="#aaa"/><rect width="0.9433962264150944em" height="19.489110512332196em" x="65.09433962264151em" y="10.510889487667804em" fill="#aaa"/><rect width="0.9433962264150944em" height="18.00457869530413em" x="66.0377358490566em" y="11.99542130469587em" fill="#aaa"/><rect width="0.9433962264150944em" height="14.756002626230513em" x="66.9811320754717em" y="15.243997373769487em" fill="#aaa"/><rect width="0.9433962264150944em" height="30em" x="67.9245283018868em" y="0em" fill="#aaa"/><rect width="0.9433962264150944em" height="19.63216572395741em" x="68.86792452830188em" y="10.36783427604259em" fill="#aaa"/><rect width="0.9433962264150944em" height="17.468387694721283em" x="69.81132075471699em" y="12.531612305278717em" fill="#aaa"/><rect width="0.9433962264150944em" height="18.77356457429072em" x="70.75471698113208em" y="11.22643542570928em" fill="#aaa"/><rect width="0.9433962264150944em" height="6.534528969443583em" x="71.69811320754717em" y="23.465471030556415em" fill="#aaa"/><rect width="0.9433962264150944em" height="21.863554036488402em" x="72.64150943396227em" y="8.136445963511598em" fill="#aaa"/><rect width="0.9433962264150944em" height="10.380964835896611em" x="73.58490566037736em" y="19.619035164103387em" fill="#aaa"/><rect width="0.9433962264150944em" height="8.477760505314048em" x="74.52830188679245em" y="21.52223949468595em" fill="#aaa"/><rect width="0.9433962264150944em" height="11.816860694303594em" x="75.47169811320755em" y="18.183139305696407em" fill="#aaa"/><rect width="0.9433962264150944em" height="11.903620877042647em" x="76.41509433962264em" y="18.09637912295735em" fill="#aaa"/><rect width="0.9433962264150944em" height="9.45273395621976em" x="77.35849056603773em" y="20.54726604378024em" fill="#aaa"/><rect width="0.9433962264150944em" height="17.125031738709044em" x="78.30188679245283em" y="12.874968261290956em" fill="#aaa"/><rect width="0.9433962264150944em" height="10.760677679098187em" x="79.24528301886792em" y="19.239322320901813em" fill="#aaa"/><rect width="0.9433962264150944em" height="11.889567942064845em" x="80.18867924528303em" y="18.110432057935157em" fill="#aaa"/><rect width="0.9433962264150944em" height="6.695331371368532em" x="81.13207547169812em" y="23.304668628631468em" fill="#aaa"/><rect width="0.9433962264150944em" height="9.788731766706874em" x="82.0754716981132em" y="20.211268233293126em" fill="#aaa"/><rect width="0.9433962264150944em" height="11.163173075503087em" x="83.01886792452831em" y="18.83682692449691em" fill="#aaa"/><rect width="0.9433962264150944em" height="15.613851586365403em" x="83.9622641509434em" y="14.386148413634597em" fill="#aaa"/><rect width="0.9433962264150944em" height="10.592419318220267em" x="84.90566037735849em" y="19.407580681779734em" fill="#aaa"/><rect width="0.9433962264150944em" height="15.537331671171678em" x="85.84905660377359em" y="14.462668328828322em" fill="#aaa"/><rect width="0.9433962264150944em" height="11.590815522068363em" x="86.79245283018868em" y="18.40918447793164em" fill="#aaa"/><rect width="0.9433962264150944em" height="19.295061248512013em" x="87.73584905660377em" y="10.704938751487987em" fill="#aaa"/><rect width="0.9433962264150944em" height="20.529979538495507em" x="88.67924528301887em" y="9.470020461504493em" fill="#aaa"/><rect width="0.9433962264150944em" height="12.071101237411737em" x="89.62264150943396em" y="17.92889876258826em" fill="#aaa"/><rect width="0.9433962264150944em" height="7.331843390394466em" x="90.56603773584905em" y="22.668156609605532em" fill="#aaa"/><rect width="0.9433962264150944em" height="7.078926002206509em" x="91.50943396226415em" y="22.921073997793492em" fill="#aaa"/><rect width="0.9433962264150944em" height="9.095530390847994em" x="92.45283018867924em" y="20.904469609152006em" fill="#aaa"/><rect width="0.9433962264150944em" height="5.387007396751479em" x="93.39622641509435em" y="24.61299260324852em" fill="#aaa"/><rect width="0.9433962264150944em" height="6.07856740468669em" x="94.33962264150944em" y="23.92143259531331em" fill="#aaa"/><rect width="0.9433962264150944em" height="3.6094511496032635em" x="95.28301886792453em" y="26.390548850396737em" fill="#aaa"/><rect width="0.9433962264150944em" height="12.235558396098359em" x="96.22641509433963em" y="17.76444160390164em" fill="#aaa"/><rect width="0.9433962264150944em" height="15.630650811457073em" x="97.16981132075472em" y="14.369349188542927em" fill="#aaa"/><rect width="0.9433962264150944em" height="12.356781208970448em" x="98.11320754716981em" y="17.643218791029554em" fill="#aaa"/><rect width="0.9433962264150944em" height="9.899873075704079em" x="99.05660377358491em" y="20.10012692429592em" fill="#aaa"/></svg>