<?xml version="1.0" standalone="no"?>
<svg xmlns:xlink="http://www.w3.org/1999/xlink" xmlns="http://www.w3.org/2000/svg" class="topic-graph" style="width: 100em; height: 30em; text-align: center;"><rect width="0.9433962264150944em" height="0.09394999654392695em" x="0em" y="29.906050003456073em" fill="#aaa"/><rect width="0.9433962264150944em" height="0.05004830744599705em" x="0.9433962264150944em" y="29.949951692554002em" fill="#aaa"/><rect width="0.9433962264150944em" height="1.2259075368395873em" x="1.8867924528301887em" y="28.774092463160414em" fill="#aaa"/><rect width="0.9433962264150944em" height="0.5477579681034118em" x="2.830188679245283em" y="29.45224203189659em" fill="#aaa"/><rect width="0.9433962264150944em" height="1.2914053850217773em" x="3.7735849056603774em" y="28.708594614978225em" fill="#aaa"/><rect width="0.9433962264150944em" height="1.036987742666207em" x="4.716981132075472em" y="28.963012257333794em" fill="#aaa"/><rect width="0.9433962264150944em" height="5.500467603847181em" x="5.660377358490566em" y="24.49953239615282em" fill="#aaa"/><rect width="0.9433962264150944em" height="2.947199273811218em" x="6.60377358490566em" y="27.05280072618878em" fill="#aaa"/><rect width="0.9433962264150944em" height="0.64918346349091em" x="7.547169811320755em" y="29.35081653650909em" fill="#aaa"/><rect width="0.9433962264150944em" height="0.740920113512354em" x="8.49056603773585em" y="29.259079886487648em" fill="#aaa"/><rect width="0.9433962264150944em" height="0.35096519927005715em" x="9.433962264150944em" y="29.649034800729943em" fill="#aaa"/><rect width="0.9433962264150944em" height="0.6863786773693353em" x="10.377358490566039em" y="29.313621322630663em" fill="#aaa"/><rect width="0.9433962264150944em" height="0.6634110078989423em" x="11.320754716981131em" y="29.336588992101056em" fill="#aaa"/><rect width="0.9433962264150944em" height="0em" x="12.264150943396226em" y="30em" fill="#aaa"/><rect width="0.9433962264150944em" height="10.925998605160437em" x="13.20754716981132em" y="19.074001394839563em" fill="#aaa"/><rect width="0.9433962264150944em" height="2.4229041597234735em" x="14.150943396226415em" y="27.577095840276527em" fill="#aaa"/><rect width="0.9433962264150944em" height="5.348853827717138em" x="15.09433962264151em" y="24.651146172282864em" fill="#aaa"/><rect width="0.9433962264150944em" height="0.6568443134301105em" x="16.037735849056602em" y="29.34315568656989em" fill="#aaa"/><rect width="0.9433962264150944em" height="7.301781176894366em" x="16.9811320754717em" y="22.698218823105634em" fill="#aaa"/><rect width="0.9433962264150944em" height="4.720076037131885em" x="17.92452830188679em" y="25.279923962868114em" fill="#aaa"/><rect width="0.9433962264150944em" height="2.820905023892771em" x="18.867924528301888em" y="27.17909497610723em" fill="#aaa"/><rect width="0.9433962264150944em" height="1.2534812736879195em" x="19.81132075471698em" y="28.74651872631208em" fill="#aaa"/><rect width="0.9433962264150944em" height="0.6623245645301932em" x="20.754716981132077em" y="29.337675435469805em" fill="#aaa"/><rect width="0.9433962264150944em" height="2.1577279234185145em" x="21.69811320754717em" y="27.842272076581487em" fill="#aaa"/><rect width="0.9433962264150944em" height="1.014775008643371em" x="22.641509433962263em" y="28.985224991356628em" fill="#aaa"/><rect width="0.9433962264150944em" height="1.3098642687948117em" x="23.58490566037736em" y="28.69013573120519em" fill="#aaa"/><rect width="0.9433962264150944em" height="0em" x="24.528301886792452em" y="30em" fill="#aaa"/><rect width="0.9433962264150944em" height="6.778496266984478em" x="25.471698113207548em" y="23.221503733015524em" fill="#aaa"/><rect width="0.9433962264150944em" height="30em" x="26.41509433962264em" y="0em" fill="#aaa"/><rect width="0.9433962264150944em" height="14.036289199042452em" x="27.358490566037737em" y="15.963710800957548em" fill="#aaa"/><rect width="0.9433962264150944em" height="4.791310664960488em" x="28.30188679245283em" y="25.208689335039512em" fill="#aaa"/><rect width="0.9433962264150944em" height="2.4263932898156697em" x="29.245283018867926em" y="27.57360671018433em" fill="#aaa"/><rect width="0.9433962264150944em" height="6.2982322178627985em" x="30.18867924528302em" y="23.701767782137203em" fill="#aaa"/><rect width="0.9433962264150944em" height="3.4432824697659465em" x="31.132075471698112em" y="26.556717530234053em" fill="#aaa"/><rect width="0.9433962264150944em" height="3.639379840711697em" x="32.075471698113205em" y="26.360620159288302em" fill="#aaa"/><rect width="0.9433962264150944em" height="1.3257278153938017em" x="33.0188679245283em" y="28.6742721846062em" fill="#aaa"/><rect width="0.9433962264150944em" height="2.977089460143158em" x="33.9622641509434em" y="27.02291053985684em" fill="#aaa"/><rect width="0.9433962264150944em" height="1.9321339521557455em" x="34.905660377358494em" y="28.067866047844255em" fill="#aaa"/><rect width="0.9433962264150944em" height="2.2182434358247503em" x="35.84905660377358em" y="27.78175656417525em" fill="#aaa"/><rect width="0.9433962264150944em" height="1.6495959562523324em" x="36.79245283018868em" y="28.350404043747666em" fill="#aaa"/><rect width="0.9433962264150944em" height="0.997036972893869em" x="37.735849056603776em" y="29.00296302710613em" fill="#aaa"/><rect width="0.9433962264150944em" height="0.3230088718991776em" x="38.679245283018865em" y="29.676991128100823em" fill="#aaa"/><rect width="0.9433962264150944em" height="0.17392934776700944em" x="39.62264150943396em" y="29.82607065223299em" fill="#aaa"/><rect width="0.9433962264150944em" height="0.6763681128925967em" x="40.56603773584906em" y="29.323631887107403em" fill="#aaa"/><rect width="0.9433962264150944em" height="0.37954385453504436em" x="41.509433962264154em" y="29.620456145464956em" fill="#aaa"/><rect width="0.9433962264150944em" height="1.9968989936734647em" x="42.45283018867924em" y="28.003101006326535em" fill="#aaa"/><rect width="0.9433962264150944em" height="1.4345112552276276em" x="43.39622641509434em" y="28.565488744772374em" fill="#aaa"/><rect width="0.9433962264150944em" height="1.9319891836677534em" x="44.339622641509436em" y="28.068010816332247em" fill="#aaa"/><rect width="0.9433962264150944em" height="0.79196421430316em" x="45.283018867924525em" y="29.20803578569684em" fill="#aaa"/><rect width="0.9433962264150944em" height="2.2046025688994986em" x="46.22641509433962em" y="27.7953974311005em" fill="#aaa"/><rect width="0.9433962264150944em" height="1.2158283418792233em" x="47.16981132075472em" y="28.784171658120776em" fill="#aaa"/><rect width="0.9433962264150944em" height="1.3660842652595804em" x="48.113207547169814em" y="28.63391573474042em" fill="#aaa"/><rect width="0.9433962264150944em" height="1.1882503754623202em" x="49.056603773584904em" y="28.81174962453768em" fill="#aaa"/><rect width="0.9433962264150944em" height="0.6405750349005463em" x="50em" y="29.359424965099453em" fill="#aaa"/><rect width="0.9433962264150944em" height="1.013034967149555em" x="50.943396226415096em" y="28.986965032850446em" fill="#aaa"/><rect width="0.9433962264150944em" height="1.183738957038042em" x="51.88679245283019em" y="28.81626104296196em" fill="#aaa"/><rect width="0.9433962264150944em" height="3.597935529276144em" x="52.83018867924528em" y="26.402064470723857em" fill="#aaa"/><rect width="0.9433962264150944em" height="1.8224755187656707em" x="53.77358490566038em" y="28.17752448123433em" fill="#aaa"/><rect width="0.9433962264150944em" height="1.3236297045263876em" x="54.716981132075475em" y="28.676370295473614em" fill="#aaa"/><rect width="0.9433962264150944em" height="0.6056819295009076em" x="55.660377358490564em" y="29.394318070499093em" fill="#aaa"/><rect width="0.9433962264150944em" height="0.4099722643094315em" x="56.60377358490566em" y="29.59002773569057em" fill="#aaa"/><rect width="0.9433962264150944em" height="0.9764405362954984em" x="57.54716981132076em" y="29.0235594637045em" fill="#aaa"/><rect width="0.9433962264150944em" height="0.9408320242598441em" x="58.49056603773585em" y="29.059167975740156em" fill="#aaa"/><rect width="0.9433962264150944em" height="1.9699105721315815em" x="59.43396226415094em" y="28.03008942786842em" fill="#aaa"/><rect width="0.9433962264150944em" height="1.0250291945406964em" x="60.37735849056604em" y="28.974970805459304em" fill="#aaa"/><rect width="0.9433962264150944em" height="1.0945759261850259em" x="61.320754716981135em" y="28.905424073814974em" fill="#aaa"/><rect width="0.9433962264150944em" height="0.7285678142391702em" x="62.264150943396224em" y="29.27143218576083em" fill="#aaa"/><rect width="0.9433962264150944em" height="0.3951206174554764em" x="63.20754716981132em" y="29.604879382544524em" fill="#aaa"/><rect width="0.9433962264150944em" height="0.48916766986335675em" x="64.15094339622641em" y="29.510832330136644em" fill="#aaa"/><rect width="0.9433962264150944em" height="0.40014900617877897em" x="65.09433962264151em" y="29.59985099382122em" fill="#aaa"/><rect width="0.9433962264150944em" height="0.37988190836456504em" x="66.0377358490566em" y="29.620118091635433em" fill="#aaa"/><rect width="0.9433962264150944em" height="0.9025294134044175em" x="66.9811320754717em" y="29.097470586595584em" fill="#aaa"/><rect width="0.9433962264150944em" height="0.39039462771514155em" x="67.9245283018868em" y="29.609605372284857em" fill="#aaa"/><rect width="0.9433962264150944em" height="0.4889590069799211em" x="68.86792452830188em" y="29.511040993020078em" fill="#aaa"/><rect width="0.9433962264150944em" height="0.5787403541639641em" x="69.81132075471699em" y="29.421259645836034em" fill="#aaa"/><rect width="0.9433962264150944em" height="0.3971666525102136em" x="70.75471698113208em" y="29.602833347489785em" fill="#aaa"/><rect width="0.9433962264150944em" height="0.4836001008780039em" x="71.69811320754717em" y="29.516399899121996em" fill="#aaa"/><rect width="0.9433962264150944em" height="0.5218500207974377em" x="72.64150943396227em" y="29.478149979202563em" fill="#aaa"/><rect width="0.9433962264150944em" height="0.12335716884270914em" x="73.58490566037736em" y="29.87664283115729em" fill="#aaa"/><rect width="0.9433962264150944em" height="0.6021359497916069em" x="74.52830188679245em" y="29.397864050208394em" fill="#aaa"/><rect width="0.9433962264150944em" height="0.3799098930484006em" x="75.47169811320755em" y="29.6200901069516em" fill="#aaa"/><rect width="0.9433962264150944em" height="0.43015214495763043em" x="76.41509433962264em" y="29.56984785504237em" fill="#aaa"/><rect width="0.9433962264150944em" height="0.19886504117702722em" x="77.35849056603773em" y="29.801134958822974em" fill="#aaa"/><rect width="0.9433962264150944em" height="0.4488324768627393em" x="78.30188679245283em" y="29.55116752313726em" fill="#aaa"/><rect width="0.9433962264150944em" height="0.39747865172547675em" x="79.24528301886792em" y="29.60252134827452em" fill="#aaa"/><rect width="0.9433962264150944em" height="0.6613163903749332em" x="80.18867924528303em" y="29.33868360962507em" fill="#aaa"/><rect width="0.9433962264150944em" height="0.470935913586389em" x="81.13207547169812em" y="29.529064086413612em" fill="#aaa"/><rect width="0.9433962264150944em" height="0.32346090606558026em" x="82.0754716981132em" y="29.67653909393442em" fill="#aaa"/><rect width="0.9433962264150944em" height="0.5675503247424258em" x="83.01886792452831em" y="29.432449675257573em" fill="#aaa"/><rect width="0.9433962264150944em" height="0.23113467895487683em" x="83.9622641509434em" y="29.768865321045123em" fill="#aaa"/><rect width="0.9433962264150944em" height="0.5124381965520055em" x="84.90566037735849em" y="29.487561803447996em" fill="#aaa"/><rect width="0.9433962264150944em" height="0.19258420347882915em" x="85.84905660377359em" y="29.80741579652117em" fill="#aaa"/><rect width="0.9433962264150944em" height="0.4788743791103241em" x="86.79245283018868em" y="29.521125620889677em" fill="#aaa"/><rect width="0.9433962264150944em" height="0.3887905536770264em" x="87.73584905660377em" y="29.611209446322974em" fill="#aaa"/><rect width="0.9433962264150944em" height="0.427052380964489em" x="88.67924528301887em" y="29.57294761903551em" fill="#aaa"/><rect width="0.9433962264150944em" height="0.5007033238007959em" x="89.62264150943396em" y="29.499296676199204em" fill="#aaa"/><rect width="0.9433962264150944em" height="0.48474378095522136em" x="90.56603773584905em" y="29.51525621904478em" fill="#aaa"/><rect width="0.9433962264150944em" height="0.40859090579483404em" x="91.50943396226415em" y="29.591409094205165em" fill="#aaa"/><rect width="0.9433962264150944em" height="0.8720277267512345em" x="92.45283018867924em" y="29.127972273248766em" fill="#aaa"/><rect width="0.9433962264150944em" height="0.3102342880682479em" x="93.39622641509435em" y="29.689765711931752em" fill="#aaa"/><rect width="0.9433962264150944em" height="0.3533344546503327em" x="94.33962264150944em" y="29.646665545349666em" fill="#aaa"/><rect width="0.9433962264150944em" height="0.7118555812052928em" x="95.28301886792453em" y="29.288144418794708em" fill="#aaa"/><rect width="0.9433962264150944em" height="0.4576137127694373em" x="96.22641509433963em" y="29.542386287230563em" fill="#aaa"/><rect width="0.9433962264150944em" height="0.5005868687423901em" x="97.16981132075472em" y="29.49941313125761em" fill="#aaa"/><rect width="0.9433962264150944em" height="1.1237727322341726em" x="98.11320754716981em" y="28.876227267765827em" fill="#aaa"/><rect width="0.9433962264150944em" height="0.7126502241548441em" x="99.05660377358491em" y="29.287349775845154em" fill="#aaa"/></svg>