<?xml version="1.0" standalone="no"?>
<svg xmlns:xlink="http://www.w3.org/1999/xlink" xmlns="http://www.w3.org/2000/svg" class="topic-graph" style="width: 100em; height: 30em; text-align: center;"><rect width="0.9433962264150944em" height="8.6919038166981em" x="0em" y="21.3080961833019em" fill="#aaa"/><rect width="0.9433962264150944em" height="1.8429119859196874em" x="0.9433962264150944em" y="28.157088014080312em" fill="#aaa"/><rect width="0.9433962264150944em" height="4.369838492130108em" x="1.8867924528301887em" y="25.630161507869893em" fill="#aaa"/><rect width="0.9433962264150944em" height="9.876294774497255em" x="2.830188679245283em" y="20.123705225502746em" fill="#aaa"/><rect width="0.9433962264150944em" height="2.928252013096918em" x="3.7735849056603774em" y="27.071747986903084em" fill="#aaa"/><rect width="0.9433962264150944em" height="8.24604616856618em" x="4.716981132075472em" y="21.75395383143382em" fill="#aaa"/><rect width="0.9433962264150944em" height="3.541905210621394em" x="5.660377358490566em" y="26.458094789378606em" fill="#aaa"/><rect width="0.9433962264150944em" height="2.612990493977994em" x="6.60377358490566em" y="27.387009506022007em" fill="#aaa"/><rect width="0.9433962264150944em" height="17.57819332696895em" x="7.547169811320755em" y="12.42180667303105em" fill="#aaa"/><rect width="0.9433962264150944em" height="5.1931968029661855em" x="8.49056603773585em" y="24.806803197033815em" fill="#aaa"/><rect width="0.9433962264150944em" height="4.310417562024849em" x="9.433962264150944em" y="25.68958243797515em" fill="#aaa"/><rect width="0.9433962264150944em" height="21.4651644639889em" x="10.377358490566039em" y="8.534835536011101em" fill="#aaa"/><rect width="0.9433962264150944em" height="3.692916929460958em" x="11.320754716981131em" y="26.307083070539043em" fill="#aaa"/><rect width="0.9433962264150944em" height="0em" x="12.264150943396226em" y="30em" fill="#aaa"/><rect width="0.9433962264150944em" height="8.041858215180667em" x="13.20754716981132em" y="21.958141784819333em" fill="#aaa"/><rect width="0.9433962264150944em" height="6.701481858099763em" x="14.150943396226415em" y="23.29851814190024em" fill="#aaa"/><rect width="0.9433962264150944em" height="19.17583407203466em" x="15.09433962264151em" y="10.824165927965339em" fill="#aaa"/><rect width="0.9433962264150944em" height="6.219263970758179em" x="16.037735849056602em" y="23.780736029241822em" fill="#aaa"/><rect width="0.9433962264150944em" height="9.003137480312088em" x="16.9811320754717em" y="20.996862519687912em" fill="#aaa"/><rect width="0.9433962264150944em" height="7.693247923244363em" x="17.92452830188679em" y="22.306752076755636em" fill="#aaa"/><rect width="0.9433962264150944em" height="12.360342329336452em" x="18.867924528301888em" y="17.639657670663546em" fill="#aaa"/><rect width="0.9433962264150944em" height="30em" x="19.81132075471698em" y="0em" fill="#aaa"/><rect width="0.9433962264150944em" height="19.89590431686062em" x="20.754716981132077em" y="10.10409568313938em" fill="#aaa"/><rect width="0.9433962264150944em" height="23.992124176055942em" x="21.69811320754717em" y="6.007875823944058em" fill="#aaa"/><rect width="0.9433962264150944em" height="18.476471817035314em" x="22.641509433962263em" y="11.523528182964686em" fill="#aaa"/><rect width="0.9433962264150944em" height="21.437445268758143em" x="23.58490566037736em" y="8.562554731241857em" fill="#aaa"/><rect width="0.9433962264150944em" height="0em" x="24.528301886792452em" y="30em" fill="#aaa"/><rect width="0.9433962264150944em" height="17.389143588420044em" x="25.471698113207548em" y="12.610856411579956em" fill="#aaa"/><rect width="0.9433962264150944em" height="7.178865681764737em" x="26.41509433962264em" y="22.821134318235263em" fill="#aaa"/><rect width="0.9433962264150944em" height="10.006992481727126em" x="27.358490566037737em" y="19.993007518272876em" fill="#aaa"/><rect width="0.9433962264150944em" height="11.887768558402257em" x="28.30188679245283em" y="18.112231441597743em" fill="#aaa"/><rect width="0.9433962264150944em" height="12.747798803662864em" x="29.245283018867926em" y="17.252201196337136em" fill="#aaa"/><rect width="0.9433962264150944em" height="7.25543445635661em" x="30.18867924528302em" y="22.74456554364339em" fill="#aaa"/><rect width="0.9433962264150944em" height="9.658212538215729em" x="31.132075471698112em" y="20.34178746178427em" fill="#aaa"/><rect width="0.9433962264150944em" height="11.493484576281505em" x="32.075471698113205em" y="18.506515423718497em" fill="#aaa"/><rect width="0.9433962264150944em" height="14.799140677291906em" x="33.0188679245283em" y="15.200859322708094em" fill="#aaa"/><rect width="0.9433962264150944em" height="22.822297304996674em" x="33.9622641509434em" y="7.177702695003326em" fill="#aaa"/><rect width="0.9433962264150944em" height="19.082480770753115em" x="34.905660377358494em" y="10.917519229246885em" fill="#aaa"/><rect width="0.9433962264150944em" height="25.114095356756877em" x="35.84905660377358em" y="4.885904643243123em" fill="#aaa"/><rect width="0.9433962264150944em" height="26.140963850398517em" x="36.79245283018868em" y="3.859036149601483em" fill="#aaa"/><rect width="0.9433962264150944em" height="27.939293341067305em" x="37.735849056603776em" y="2.060706658932695em" fill="#aaa"/><rect width="0.9433962264150944em" height="24.928328904390415em" x="38.679245283018865em" y="5.0716710956095845em" fill="#aaa"/><rect width="0.9433962264150944em" height="13.01208157371643em" x="39.62264150943396em" y="16.98791842628357em" fill="#aaa"/><rect width="0.9433962264150944em" height="13.738287970316497em" x="40.56603773584906em" y="16.2617120296835em" fill="#aaa"/><rect width="0.9433962264150944em" height="17.296505813105988em" x="41.509433962264154em" y="12.703494186894012em" fill="#aaa"/><rect width="0.9433962264150944em" height="15.540300803834985em" x="42.45283018867924em" y="14.459699196165015em" fill="#aaa"/><rect width="0.9433962264150944em" height="23.708977252049344em" x="43.39622641509434em" y="6.291022747950656em" fill="#aaa"/><rect width="0.9433962264150944em" height="10.112589316602117em" x="44.339622641509436em" y="19.88741068339788em" fill="#aaa"/><rect width="0.9433962264150944em" height="12.181741938293602em" x="45.283018867924525em" y="17.8182580617064em" fill="#aaa"/><rect width="0.9433962264150944em" height="14.58274298907958em" x="46.22641509433962em" y="15.41725701092042em" fill="#aaa"/><rect width="0.9433962264150944em" height="13.652999398178862em" x="47.16981132075472em" y="16.347000601821136em" fill="#aaa"/><rect width="0.9433962264150944em" height="16.419788991059832em" x="48.113207547169814em" y="13.580211008940168em" fill="#aaa"/><rect width="0.9433962264150944em" height="13.867672490720654em" x="49.056603773584904em" y="16.132327509279346em" fill="#aaa"/><rect width="0.9433962264150944em" height="15.438471783663138em" x="50em" y="14.561528216336862em" fill="#aaa"/><rect width="0.9433962264150944em" height="15.579051808776788em" x="50.943396226415096em" y="14.420948191223212em" fill="#aaa"/><rect width="0.9433962264150944em" height="12.92898284393857em" x="51.88679245283019em" y="17.07101715606143em" fill="#aaa"/><rect width="0.9433962264150944em" height="6.918067585981105em" x="52.83018867924528em" y="23.081932414018894em" fill="#aaa"/><rect width="0.9433962264150944em" height="6.836331429040811em" x="53.77358490566038em" y="23.16366857095919em" fill="#aaa"/><rect width="0.9433962264150944em" height="11.926359631730959em" x="54.716981132075475em" y="18.07364036826904em" fill="#aaa"/><rect width="0.9433962264150944em" height="11.348956476783403em" x="55.660377358490564em" y="18.651043523216597em" fill="#aaa"/><rect width="0.9433962264150944em" height="11.236025671933024em" x="56.60377358490566em" y="18.763974328066976em" fill="#aaa"/><rect width="0.9433962264150944em" height="9.259804663337874em" x="57.54716981132076em" y="20.740195336662126em" fill="#aaa"/><rect width="0.9433962264150944em" height="9.189332605932506em" x="58.49056603773585em" y="20.810667394067494em" fill="#aaa"/><rect width="0.9433962264150944em" height="12.580926896907698em" x="59.43396226415094em" y="17.419073103092302em" fill="#aaa"/><rect width="0.9433962264150944em" height="8.485180800346761em" x="60.37735849056604em" y="21.51481919965324em" fill="#aaa"/><rect width="0.9433962264150944em" height="9.262404959624783em" x="61.320754716981135em" y="20.73759504037522em" fill="#aaa"/><rect width="0.9433962264150944em" height="16.54528385797089em" x="62.264150943396224em" y="13.45471614202911em" fill="#aaa"/><rect width="0.9433962264150944em" height="11.45912676517086em" x="63.20754716981132em" y="18.540873234829142em" fill="#aaa"/><rect width="0.9433962264150944em" height="12.382924554253849em" x="64.15094339622641em" y="17.617075445746153em" fill="#aaa"/><rect width="0.9433962264150944em" height="10.571056730287646em" x="65.09433962264151em" y="19.428943269712356em" fill="#aaa"/><rect width="0.9433962264150944em" height="18.771779063895796em" x="66.0377358490566em" y="11.228220936104204em" fill="#aaa"/><rect width="0.9433962264150944em" height="14.457386543190442em" x="66.9811320754717em" y="15.542613456809558em" fill="#aaa"/><rect width="0.9433962264150944em" height="17.273653580599316em" x="67.9245283018868em" y="12.726346419400684em" fill="#aaa"/><rect width="0.9433962264150944em" height="14.840790544115404em" x="68.86792452830188em" y="15.159209455884596em" fill="#aaa"/><rect width="0.9433962264150944em" height="10.894380363661845em" x="69.81132075471699em" y="19.105619636338155em" fill="#aaa"/><rect width="0.9433962264150944em" height="9.981526347805275em" x="70.75471698113208em" y="20.018473652194725em" fill="#aaa"/><rect width="0.9433962264150944em" height="15.243491080029697em" x="71.69811320754717em" y="14.756508919970303em" fill="#aaa"/><rect width="0.9433962264150944em" height="13.854882362312026em" x="72.64150943396227em" y="16.145117637687974em" fill="#aaa"/><rect width="0.9433962264150944em" height="3.807989681084245em" x="73.58490566037736em" y="26.192010318915756em" fill="#aaa"/><rect width="0.9433962264150944em" height="5.516096436417087em" x="74.52830188679245em" y="24.483903563582913em" fill="#aaa"/><rect width="0.9433962264150944em" height="7.870694472266127em" x="75.47169811320755em" y="22.129305527733873em" fill="#aaa"/><rect width="0.9433962264150944em" height="3.974641779841071em" x="76.41509433962264em" y="26.025358220158928em" fill="#aaa"/><rect width="0.9433962264150944em" height="6.520752255174067em" x="77.35849056603773em" y="23.479247744825933em" fill="#aaa"/><rect width="0.9433962264150944em" height="6.34962060075739em" x="78.30188679245283em" y="23.65037939924261em" fill="#aaa"/><rect width="0.9433962264150944em" height="8.904436005592318em" x="79.24528301886792em" y="21.095563994407684em" fill="#aaa"/><rect width="0.9433962264150944em" height="5.293273895211707em" x="80.18867924528303em" y="24.706726104788295em" fill="#aaa"/><rect width="0.9433962264150944em" height="4.885953913711818em" x="81.13207547169812em" y="25.114046086288184em" fill="#aaa"/><rect width="0.9433962264150944em" height="6.541367246464855em" x="82.0754716981132em" y="23.458632753535145em" fill="#aaa"/><rect width="0.9433962264150944em" height="4.958185143730982em" x="83.01886792452831em" y="25.041814856269017em" fill="#aaa"/><rect width="0.9433962264150944em" height="8.856612360043098em" x="83.9622641509434em" y="21.143387639956902em" fill="#aaa"/><rect width="0.9433962264150944em" height="7.794099347033509em" x="84.90566037735849em" y="22.20590065296649em" fill="#aaa"/><rect width="0.9433962264150944em" height="7.167212475847326em" x="85.84905660377359em" y="22.832787524152675em" fill="#aaa"/><rect width="0.9433962264150944em" height="6.967496011186983em" x="86.79245283018868em" y="23.03250398881302em" fill="#aaa"/><rect width="0.9433962264150944em" height="6.473954539668521em" x="87.73584905660377em" y="23.526045460331478em" fill="#aaa"/><rect width="0.9433962264150944em" height="5.276963693930868em" x="88.67924528301887em" y="24.723036306069133em" fill="#aaa"/><rect width="0.9433962264150944em" height="11.148954934478406em" x="89.62264150943396em" y="18.851045065521596em" fill="#aaa"/><rect width="0.9433962264150944em" height="6.5825460956026705em" x="90.56603773584905em" y="23.41745390439733em" fill="#aaa"/><rect width="0.9433962264150944em" height="8.860406747681806em" x="91.50943396226415em" y="21.139593252318193em" fill="#aaa"/><rect width="0.9433962264150944em" height="7.3178513885544em" x="92.45283018867924em" y="22.682148611445598em" fill="#aaa"/><rect width="0.9433962264150944em" height="6.293131119414188em" x="93.39622641509435em" y="23.706868880585812em" fill="#aaa"/><rect width="0.9433962264150944em" height="7.607437670683652em" x="94.33962264150944em" y="22.39256232931635em" fill="#aaa"/><rect width="0.9433962264150944em" height="4.398631022647477em" x="95.28301886792453em" y="25.60136897735252em" fill="#aaa"/><rect width="0.9433962264150944em" height="7.85452827420505em" x="96.22641509433963em" y="22.14547172579495em" fill="#aaa"/><rect width="0.9433962264150944em" height="9.330186266070426em" x="97.16981132075472em" y="20.669813733929573em" fill="#aaa"/><rect width="0.9433962264150944em" height="5.296624784234723em" x="98.11320754716981em" y="24.703375215765277em" fill="#aaa"/><rect width="0.9433962264150944em" height="7.106300510844878em" x="99.05660377358491em" y="22.89369948915512em" fill="#aaa"/></svg>