<?xml version="1.0" standalone="no"?>
<svg xmlns:xlink="http://www.w3.org/1999/xlink" xmlns="http://www.w3.org/2000/svg" class="topic-graph" style="width: 100em; height: 30em; text-align: center;"><rect width="0.9433962264150944em" height="0.00045106414107803824em" x="0em" y="29.999548935858922em" fill="#aaa"/><rect width="0.9433962264150944em" height="0.1280515588630198em" x="0.9433962264150944em" y="29.87194844113698em" fill="#aaa"/><rect width="0.9433962264150944em" height="0.07932699902126114em" x="1.8867924528301887em" y="29.920673000978738em" fill="#aaa"/><rect width="0.9433962264150944em" height="0.005496201777651388em" x="2.830188679245283em" y="29.99450379822235em" fill="#aaa"/><rect width="0.9433962264150944em" height="0.10722008073003526em" x="3.7735849056603774em" y="29.892779919269966em" fill="#aaa"/><rect width="0.9433962264150944em" height="0.07808376562896417em" x="4.716981132075472em" y="29.921916234371036em" fill="#aaa"/><rect width="0.9433962264150944em" height="0.6203934992305864em" x="5.660377358490566em" y="29.379606500769412em" fill="#aaa"/><rect width="0.9433962264150944em" height="0.002223936982569432em" x="6.60377358490566em" y="29.99777606301743em" fill="#aaa"/><rect width="0.9433962264150944em" height="0.018675235091680606em" x="7.547169811320755em" y="29.98132476490832em" fill="#aaa"/><rect width="0.9433962264150944em" height="0.08261060216640044em" x="8.49056603773585em" y="29.9173893978336em" fill="#aaa"/><rect width="0.9433962264150944em" height="0.2557883577731611em" x="9.433962264150944em" y="29.74421164222684em" fill="#aaa"/><rect width="0.9433962264150944em" height="0.0007162247285916361em" x="10.377358490566039em" y="29.999283775271408em" fill="#aaa"/><rect width="0.9433962264150944em" height="0.016247270646785106em" x="11.320754716981131em" y="29.983752729353213em" fill="#aaa"/><rect width="0.9433962264150944em" height="0em" x="12.264150943396226em" y="30em" fill="#aaa"/><rect width="0.9433962264150944em" height="0.08575994081238328em" x="13.20754716981132em" y="29.914240059187616em" fill="#aaa"/><rect width="0.9433962264150944em" height="0.3543756551744198em" x="14.150943396226415em" y="29.64562434482558em" fill="#aaa"/><rect width="0.9433962264150944em" height="0.09018878943492921em" x="15.09433962264151em" y="29.90981121056507em" fill="#aaa"/><rect width="0.9433962264150944em" height="30em" x="16.037735849056602em" y="0em" fill="#aaa"/><rect width="0.9433962264150944em" height="0.21896491209152835em" x="16.9811320754717em" y="29.78103508790847em" fill="#aaa"/><rect width="0.9433962264150944em" height="0.25063007050700037em" x="17.92452830188679em" y="29.749369929493em" fill="#aaa"/><rect width="0.9433962264150944em" height="0.01554315242372448em" x="18.867924528301888em" y="29.984456847576276em" fill="#aaa"/><rect width="0.9433962264150944em" height="0.025494051925836043em" x="19.81132075471698em" y="29.974505948074164em" fill="#aaa"/><rect width="0.9433962264150944em" height="0.0005950621740312984em" x="20.754716981132077em" y="29.999404937825968em" fill="#aaa"/><rect width="0.9433962264150944em" height="0.023554274307976387em" x="21.69811320754717em" y="29.976445725692024em" fill="#aaa"/><rect width="0.9433962264150944em" height="0.012188421306386718em" x="22.641509433962263em" y="29.987811578693613em" fill="#aaa"/><rect width="0.9433962264150944em" height="0.013439717346905774em" x="23.58490566037736em" y="29.986560282653095em" fill="#aaa"/><rect width="0.9433962264150944em" height="0em" x="24.528301886792452em" y="30em" fill="#aaa"/><rect width="0.9433962264150944em" height="0.09859112348605295em" x="25.471698113207548em" y="29.901408876513948em" fill="#aaa"/><rect width="0.9433962264150944em" height="0.04605800307064091em" x="26.41509433962264em" y="29.95394199692936em" fill="#aaa"/><rect width="0.9433962264150944em" height="0.004220080578113548em" x="27.358490566037737em" y="29.995779919421885em" fill="#aaa"/><rect width="0.9433962264150944em" height="0.02340510257740321em" x="28.30188679245283em" y="29.976594897422597em" fill="#aaa"/><rect width="0.9433962264150944em" height="0.01749533745609075em" x="29.245283018867926em" y="29.98250466254391em" fill="#aaa"/><rect width="0.9433962264150944em" height="0.023594403559842825em" x="30.18867924528302em" y="29.976405596440156em" fill="#aaa"/><rect width="0.9433962264150944em" height="0.0003410053522705844em" x="31.132075471698112em" y="29.999658994647728em" fill="#aaa"/><rect width="0.9433962264150944em" height="0.059663798611896544em" x="32.075471698113205em" y="29.940336201388103em" fill="#aaa"/><rect width="0.9433962264150944em" height="0.003236539229210727em" x="33.0188679245283em" y="29.99676346077079em" fill="#aaa"/><rect width="0.9433962264150944em" height="0.02177949008069339em" x="33.9622641509434em" y="29.978220509919307em" fill="#aaa"/><rect width="0.9433962264150944em" height="0.0062723036861795384em" x="34.905660377358494em" y="29.99372769631382em" fill="#aaa"/><rect width="0.9433962264150944em" height="0.014967206317317417em" x="35.84905660377358em" y="29.98503279368268em" fill="#aaa"/><rect width="0.9433962264150944em" height="0.04957307162439963em" x="36.79245283018868em" y="29.9504269283756em" fill="#aaa"/><rect width="0.9433962264150944em" height="0.008729879378734332em" x="37.735849056603776em" y="29.991270120621266em" fill="#aaa"/><rect width="0.9433962264150944em" height="0.027988381444052923em" x="38.679245283018865em" y="29.972011618555946em" fill="#aaa"/><rect width="0.9433962264150944em" height="0.021657536187820414em" x="39.62264150943396em" y="29.97834246381218em" fill="#aaa"/><rect width="0.9433962264150944em" height="0.020757847683504128em" x="40.56603773584906em" y="29.979242152316495em" fill="#aaa"/><rect width="0.9433962264150944em" height="0.022533567668437178em" x="41.509433962264154em" y="29.977466432331564em" fill="#aaa"/><rect width="0.9433962264150944em" height="0.020334760066925632em" x="42.45283018867924em" y="29.979665239933073em" fill="#aaa"/><rect width="0.9433962264150944em" height="0.007655598552838038em" x="43.39622641509434em" y="29.992344401447163em" fill="#aaa"/><rect width="0.9433962264150944em" height="0.07429192104163784em" x="44.339622641509436em" y="29.925708078958362em" fill="#aaa"/><rect width="0.9433962264150944em" height="0.012302542660919317em" x="45.283018867924525em" y="29.98769745733908em" fill="#aaa"/><rect width="0.9433962264150944em" height="0.030589187955796657em" x="46.22641509433962em" y="29.969410812044202em" fill="#aaa"/><rect width="0.9433962264150944em" height="0.03926258912042682em" x="47.16981132075472em" y="29.960737410879574em" fill="#aaa"/><rect width="0.9433962264150944em" height="0.03054031817072737em" x="48.113207547169814em" y="29.96945968182927em" fill="#aaa"/><rect width="0.9433962264150944em" height="0.008197777176425232em" x="49.056603773584904em" y="29.991802222823576em" fill="#aaa"/><rect width="0.9433962264150944em" height="0.03490476849499171em" x="50em" y="29.965095231505007em" fill="#aaa"/><rect width="0.9433962264150944em" height="0.028660256768928374em" x="50.943396226415096em" y="29.97133974323107em" fill="#aaa"/><rect width="0.9433962264150944em" height="0.029824494378718293em" x="51.88679245283019em" y="29.97017550562128em" fill="#aaa"/><rect width="0.9433962264150944em" height="0.01805420531471048em" x="52.83018867924528em" y="29.981945794685288em" fill="#aaa"/><rect width="0.9433962264150944em" height="0.04372338862728222em" x="53.77358490566038em" y="29.95627661137272em" fill="#aaa"/><rect width="0.9433962264150944em" height="0.02800081727062431em" x="54.716981132075475em" y="29.971999182729377em" fill="#aaa"/><rect width="0.9433962264150944em" height="0.024456686936509438em" x="55.660377358490564em" y="29.97554331306349em" fill="#aaa"/><rect width="0.9433962264150944em" height="0.0995076928218849em" x="56.60377358490566em" y="29.900492307178116em" fill="#aaa"/><rect width="0.9433962264150944em" height="0.05352836837488009em" x="57.54716981132076em" y="29.94647163162512em" fill="#aaa"/><rect width="0.9433962264150944em" height="0.02614062931492356em" x="58.49056603773585em" y="29.973859370685076em" fill="#aaa"/><rect width="0.9433962264150944em" height="0.03561661657421986em" x="59.43396226415094em" y="29.96438338342578em" fill="#aaa"/><rect width="0.9433962264150944em" height="0.060937797711450324em" x="60.37735849056604em" y="29.93906220228855em" fill="#aaa"/><rect width="0.9433962264150944em" height="0.030275828670591722em" x="61.320754716981135em" y="29.969724171329407em" fill="#aaa"/><rect width="0.9433962264150944em" height="0.019450720166610768em" x="62.264150943396224em" y="29.98054927983339em" fill="#aaa"/><rect width="0.9433962264150944em" height="0.020661455478822345em" x="63.20754716981132em" y="29.979338544521177em" fill="#aaa"/><rect width="0.9433962264150944em" height="0.015246408633656668em" x="64.15094339622641em" y="29.984753591366342em" fill="#aaa"/><rect width="0.9433962264150944em" height="0.009670730398247533em" x="65.09433962264151em" y="29.99032926960175em" fill="#aaa"/><rect width="0.9433962264150944em" height="0.010910329073089368em" x="66.0377358490566em" y="29.989089670926912em" fill="#aaa"/><rect width="0.9433962264150944em" height="0.0399596548370736em" x="66.9811320754717em" y="29.960040345162927em" fill="#aaa"/><rect width="0.9433962264150944em" height="0.026056003051479506em" x="67.9245283018868em" y="29.97394399694852em" fill="#aaa"/><rect width="0.9433962264150944em" height="0.01738390374899455em" x="68.86792452830188em" y="29.982616096251004em" fill="#aaa"/><rect width="0.9433962264150944em" height="0.023520469092200604em" x="69.81132075471699em" y="29.9764795309078em" fill="#aaa"/><rect width="0.9433962264150944em" height="0.009179145650383264em" x="70.75471698113208em" y="29.990820854349618em" fill="#aaa"/><rect width="0.9433962264150944em" height="0.007780785170558132em" x="71.69811320754717em" y="29.992219214829444em" fill="#aaa"/><rect width="0.9433962264150944em" height="0.00570721800705369em" x="72.64150943396227em" y="29.994292781992947em" fill="#aaa"/><rect width="0.9433962264150944em" height="0.014867634301661709em" x="73.58490566037736em" y="29.985132365698338em" fill="#aaa"/><rect width="0.9433962264150944em" height="0.011591845011309148em" x="74.52830188679245em" y="29.98840815498869em" fill="#aaa"/><rect width="0.9433962264150944em" height="0.020398542488691992em" x="75.47169811320755em" y="29.979601457511308em" fill="#aaa"/><rect width="0.9433962264150944em" height="0.09294793803561098em" x="76.41509433962264em" y="29.90705206196439em" fill="#aaa"/><rect width="0.9433962264150944em" height="0.021902596715558623em" x="77.35849056603773em" y="29.97809740328444em" fill="#aaa"/><rect width="0.9433962264150944em" height="0.009542622940406361em" x="78.30188679245283em" y="29.990457377059595em" fill="#aaa"/><rect width="0.9433962264150944em" height="0.00980883881728803em" x="79.24528301886792em" y="29.99019116118271em" fill="#aaa"/><rect width="0.9433962264150944em" height="0.01340518979403512em" x="80.18867924528303em" y="29.986594810205965em" fill="#aaa"/><rect width="0.9433962264150944em" height="0.017752773454529035em" x="81.13207547169812em" y="29.98224722654547em" fill="#aaa"/><rect width="0.9433962264150944em" height="0.06004391580839544em" x="82.0754716981132em" y="29.939956084191603em" fill="#aaa"/><rect width="0.9433962264150944em" height="0.006587868055167398em" x="83.01886792452831em" y="29.993412131944833em" fill="#aaa"/><rect width="0.9433962264150944em" height="0.01484448207408981em" x="83.9622641509434em" y="29.98515551792591em" fill="#aaa"/><rect width="0.9433962264150944em" height="0.020170355156884985em" x="84.90566037735849em" y="29.979829644843115em" fill="#aaa"/><rect width="0.9433962264150944em" height="0.0246157920078255em" x="85.84905660377359em" y="29.975384207992175em" fill="#aaa"/><rect width="0.9433962264150944em" height="0.005438918946718735em" x="86.79245283018868em" y="29.99456108105328em" fill="#aaa"/><rect width="0.9433962264150944em" height="0.01730376725753274em" x="87.73584905660377em" y="29.982696232742466em" fill="#aaa"/><rect width="0.9433962264150944em" height="0.015940859789222852em" x="88.67924528301887em" y="29.98405914021078em" fill="#aaa"/><rect width="0.9433962264150944em" height="0.00315779770938298em" x="89.62264150943396em" y="29.996842202290615em" fill="#aaa"/><rect width="0.9433962264150944em" height="0.009052505219034886em" x="90.56603773584905em" y="29.990947494780965em" fill="#aaa"/><rect width="0.9433962264150944em" height="0.022641314058307226em" x="91.50943396226415em" y="29.97735868594169em" fill="#aaa"/><rect width="0.9433962264150944em" height="0.02734737769791533em" x="92.45283018867924em" y="29.972652622302085em" fill="#aaa"/><rect width="0.9433962264150944em" height="0.012102558017110111em" x="93.39622641509435em" y="29.98789744198289em" fill="#aaa"/><rect width="0.9433962264150944em" height="0.03659803977785496em" x="94.33962264150944em" y="29.963401960222146em" fill="#aaa"/><rect width="0.9433962264150944em" height="0.021833811525164108em" x="95.28301886792453em" y="29.978166188474837em" fill="#aaa"/><rect width="0.9433962264150944em" height="0.020684691251302168em" x="96.22641509433963em" y="29.9793153087487em" fill="#aaa"/><rect width="0.9433962264150944em" height="0.00855838126313917em" x="97.16981132075472em" y="29.99144161873686em" fill="#aaa"/><rect width="0.9433962264150944em" height="0.02121322330400691em" x="98.11320754716981em" y="29.978786776695994em" fill="#aaa"/><rect width="0.9433962264150944em" height="0.013780153126551667em" x="99.05660377358491em" y="29.98621984687345em" fill="#aaa"/></svg>