<?xml version="1.0" standalone="no"?>
<svg xmlns:xlink="http://www.w3.org/1999/xlink" xmlns="http://www.w3.org/2000/svg" class="topic-graph" style="width: 100em; height: 30em; text-align: center;"><rect width="0.9433962264150944em" height="0.36786010672305486em" x="0em" y="29.632139893276946em" fill="#aaa"/><rect width="0.9433962264150944em" height="0.23260378223567857em" x="0.9433962264150944em" y="29.767396217764322em" fill="#aaa"/><rect width="0.9433962264150944em" height="0.8571317364423358em" x="1.8867924528301887em" y="29.142868263557663em" fill="#aaa"/><rect width="0.9433962264150944em" height="0.13759373942900827em" x="2.830188679245283em" y="29.862406260570992em" fill="#aaa"/><rect width="0.9433962264150944em" height="0.11137546348153941em" x="3.7735849056603774em" y="29.88862453651846em" fill="#aaa"/><rect width="0.9433962264150944em" height="0.21116891748636157em" x="4.716981132075472em" y="29.78883108251364em" fill="#aaa"/><rect width="0.9433962264150944em" height="0.3788219210195663em" x="5.660377358490566em" y="29.621178078980435em" fill="#aaa"/><rect width="0.9433962264150944em" height="0.486812911149226em" x="6.60377358490566em" y="29.513187088850774em" fill="#aaa"/><rect width="0.9433962264150944em" height="0.1270145139604242em" x="7.547169811320755em" y="29.872985486039575em" fill="#aaa"/><rect width="0.9433962264150944em" height="0.4151355970786478em" x="8.49056603773585em" y="29.58486440292135em" fill="#aaa"/><rect width="0.9433962264150944em" height="0.6880492656898587em" x="9.433962264150944em" y="29.31195073431014em" fill="#aaa"/><rect width="0.9433962264150944em" height="0.42339672669851297em" x="10.377358490566039em" y="29.576603273301487em" fill="#aaa"/><rect width="0.9433962264150944em" height="0.12707883539412362em" x="11.320754716981131em" y="29.872921164605877em" fill="#aaa"/><rect width="0.9433962264150944em" height="0em" x="12.264150943396226em" y="30em" fill="#aaa"/><rect width="0.9433962264150944em" height="4.402608287459454em" x="13.20754716981132em" y="25.597391712540546em" fill="#aaa"/><rect width="0.9433962264150944em" height="0.07924922174992648em" x="14.150943396226415em" y="29.920750778250074em" fill="#aaa"/><rect width="0.9433962264150944em" height="0.18786743390883456em" x="15.09433962264151em" y="29.812132566091165em" fill="#aaa"/><rect width="0.9433962264150944em" height="0.41935262060736334em" x="16.037735849056602em" y="29.580647379392637em" fill="#aaa"/><rect width="0.9433962264150944em" height="0.16159276554331217em" x="16.9811320754717em" y="29.83840723445669em" fill="#aaa"/><rect width="0.9433962264150944em" height="0.42522000517172254em" x="17.92452830188679em" y="29.574779994828276em" fill="#aaa"/><rect width="0.9433962264150944em" height="0.1912817600762204em" x="18.867924528301888em" y="29.80871823992378em" fill="#aaa"/><rect width="0.9433962264150944em" height="0.47742626116426384em" x="19.81132075471698em" y="29.522573738835735em" fill="#aaa"/><rect width="0.9433962264150944em" height="0.22224086379430646em" x="20.754716981132077em" y="29.777759136205695em" fill="#aaa"/><rect width="0.9433962264150944em" height="0.4448631790433617em" x="21.69811320754717em" y="29.555136820956637em" fill="#aaa"/><rect width="0.9433962264150944em" height="0.2126426291133257em" x="22.641509433962263em" y="29.787357370886674em" fill="#aaa"/><rect width="0.9433962264150944em" height="0.14917772833920825em" x="23.58490566037736em" y="29.850822271660792em" fill="#aaa"/><rect width="0.9433962264150944em" height="0em" x="24.528301886792452em" y="30em" fill="#aaa"/><rect width="0.9433962264150944em" height="0.4147865355921714em" x="25.471698113207548em" y="29.58521346440783em" fill="#aaa"/><rect width="0.9433962264150944em" height="0.35859581539753266em" x="26.41509433962264em" y="29.641404184602468em" fill="#aaa"/><rect width="0.9433962264150944em" height="5.565524280331329em" x="27.358490566037737em" y="24.434475719668672em" fill="#aaa"/><rect width="0.9433962264150944em" height="5.246791424591195em" x="28.30188679245283em" y="24.753208575408806em" fill="#aaa"/><rect width="0.9433962264150944em" height="17.026856577930285em" x="29.245283018867926em" y="12.973143422069715em" fill="#aaa"/><rect width="0.9433962264150944em" height="12.129403316217802em" x="30.18867924528302em" y="17.870596683782196em" fill="#aaa"/><rect width="0.9433962264150944em" height="8.926221031637102em" x="31.132075471698112em" y="21.073778968362898em" fill="#aaa"/><rect width="0.9433962264150944em" height="12.689079292797521em" x="32.075471698113205em" y="17.310920707202477em" fill="#aaa"/><rect width="0.9433962264150944em" height="8.45145138606631em" x="33.0188679245283em" y="21.54854861393369em" fill="#aaa"/><rect width="0.9433962264150944em" height="28.714867663093315em" x="33.9622641509434em" y="1.2851323369066847em" fill="#aaa"/><rect width="0.9433962264150944em" height="16.522236299346332em" x="34.905660377358494em" y="13.477763700653668em" fill="#aaa"/><rect width="0.9433962264150944em" height="12.93971731879909em" x="35.84905660377358em" y="17.06028268120091em" fill="#aaa"/><rect width="0.9433962264150944em" height="4.980967544423944em" x="36.79245283018868em" y="25.019032455576056em" fill="#aaa"/><rect width="0.9433962264150944em" height="7.1933038863559755em" x="37.735849056603776em" y="22.806696113644023em" fill="#aaa"/><rect width="0.9433962264150944em" height="14.03210420248233em" x="38.679245283018865em" y="15.96789579751767em" fill="#aaa"/><rect width="0.9433962264150944em" height="9.055820903636407em" x="39.62264150943396em" y="20.94417909636359em" fill="#aaa"/><rect width="0.9433962264150944em" height="12.263461811028709em" x="40.56603773584906em" y="17.73653818897129em" fill="#aaa"/><rect width="0.9433962264150944em" height="19.75359645184352em" x="41.509433962264154em" y="10.24640354815648em" fill="#aaa"/><rect width="0.9433962264150944em" height="10.322881307733141em" x="42.45283018867924em" y="19.67711869226686em" fill="#aaa"/><rect width="0.9433962264150944em" height="16.328557725854587em" x="43.39622641509434em" y="13.671442274145413em" fill="#aaa"/><rect width="0.9433962264150944em" height="16.598126100020234em" x="44.339622641509436em" y="13.401873899979766em" fill="#aaa"/><rect width="0.9433962264150944em" height="4.713862366120937em" x="45.283018867924525em" y="25.286137633879065em" fill="#aaa"/><rect width="0.9433962264150944em" height="15.530337978604841em" x="46.22641509433962em" y="14.469662021395159em" fill="#aaa"/><rect width="0.9433962264150944em" height="10.799004944490953em" x="47.16981132075472em" y="19.200995055509047em" fill="#aaa"/><rect width="0.9433962264150944em" height="7.417710266790888em" x="48.113207547169814em" y="22.582289733209112em" fill="#aaa"/><rect width="0.9433962264150944em" height="3.6523210153338668em" x="49.056603773584904em" y="26.347678984666132em" fill="#aaa"/><rect width="0.9433962264150944em" height="6.308422015777322em" x="50em" y="23.69157798422268em" fill="#aaa"/><rect width="0.9433962264150944em" height="8.61161731151363em" x="50.943396226415096em" y="21.38838268848637em" fill="#aaa"/><rect width="0.9433962264150944em" height="5.64089397838397em" x="51.88679245283019em" y="24.35910602161603em" fill="#aaa"/><rect width="0.9433962264150944em" height="3.9367193375155902em" x="52.83018867924528em" y="26.06328066248441em" fill="#aaa"/><rect width="0.9433962264150944em" height="6.990238391058191em" x="53.77358490566038em" y="23.009761608941808em" fill="#aaa"/><rect width="0.9433962264150944em" height="6.92673156032827em" x="54.716981132075475em" y="23.07326843967173em" fill="#aaa"/><rect width="0.9433962264150944em" height="8.024059425433467em" x="55.660377358490564em" y="21.975940574566533em" fill="#aaa"/><rect width="0.9433962264150944em" height="7.052862888917653em" x="56.60377358490566em" y="22.94713711108235em" fill="#aaa"/><rect width="0.9433962264150944em" height="3.836927067170704em" x="57.54716981132076em" y="26.163072932829294em" fill="#aaa"/><rect width="0.9433962264150944em" height="8.022749547091587em" x="58.49056603773585em" y="21.977250452908415em" fill="#aaa"/><rect width="0.9433962264150944em" height="4.263631370589999em" x="59.43396226415094em" y="25.736368629410002em" fill="#aaa"/><rect width="0.9433962264150944em" height="6.60835593984957em" x="60.37735849056604em" y="23.39164406015043em" fill="#aaa"/><rect width="0.9433962264150944em" height="6.008843379336829em" x="61.320754716981135em" y="23.99115662066317em" fill="#aaa"/><rect width="0.9433962264150944em" height="22.62881100872052em" x="62.264150943396224em" y="7.371188991279482em" fill="#aaa"/><rect width="0.9433962264150944em" height="10.217470519409094em" x="63.20754716981132em" y="19.782529480590906em" fill="#aaa"/><rect width="0.9433962264150944em" height="17.504789296021407em" x="64.15094339622641em" y="12.495210703978593em" fill="#aaa"/><rect width="0.9433962264150944em" height="17.81548094902943em" x="65.09433962264151em" y="12.184519050970572em" fill="#aaa"/><rect width="0.9433962264150944em" height="8.039841529052953em" x="66.0377358490566em" y="21.960158470947047em" fill="#aaa"/><rect width="0.9433962264150944em" height="6.2148645549691945em" x="66.9811320754717em" y="23.785135445030804em" fill="#aaa"/><rect width="0.9433962264150944em" height="5.000029074116876em" x="67.9245283018868em" y="24.999970925883126em" fill="#aaa"/><rect width="0.9433962264150944em" height="5.700505323048153em" x="68.86792452830188em" y="24.299494676951845em" fill="#aaa"/><rect width="0.9433962264150944em" height="5.2921080094069435em" x="69.81132075471699em" y="24.707891990593055em" fill="#aaa"/><rect width="0.9433962264150944em" height="10.46238355130631em" x="70.75471698113208em" y="19.53761644869369em" fill="#aaa"/><rect width="0.9433962264150944em" height="11.364629502489061em" x="71.69811320754717em" y="18.63537049751094em" fill="#aaa"/><rect width="0.9433962264150944em" height="11.667941508562214em" x="72.64150943396227em" y="18.332058491437785em" fill="#aaa"/><rect width="0.9433962264150944em" height="14.338209267644453em" x="73.58490566037736em" y="15.661790732355547em" fill="#aaa"/><rect width="0.9433962264150944em" height="18.69691440494412em" x="74.52830188679245em" y="11.30308559505588em" fill="#aaa"/><rect width="0.9433962264150944em" height="14.29051303150233em" x="75.47169811320755em" y="15.70948696849767em" fill="#aaa"/><rect width="0.9433962264150944em" height="18.00143594950915em" x="76.41509433962264em" y="11.998564050490849em" fill="#aaa"/><rect width="0.9433962264150944em" height="16.644252553032942em" x="77.35849056603773em" y="13.355747446967058em" fill="#aaa"/><rect width="0.9433962264150944em" height="12.669330674854555em" x="78.30188679245283em" y="17.330669325145443em" fill="#aaa"/><rect width="0.9433962264150944em" height="8.476806302440712em" x="79.24528301886792em" y="21.523193697559286em" fill="#aaa"/><rect width="0.9433962264150944em" height="7.81610546194325em" x="80.18867924528303em" y="22.183894538056748em" fill="#aaa"/><rect width="0.9433962264150944em" height="5.878453276353784em" x="81.13207547169812em" y="24.121546723646215em" fill="#aaa"/><rect width="0.9433962264150944em" height="8.312337850854291em" x="82.0754716981132em" y="21.68766214914571em" fill="#aaa"/><rect width="0.9433962264150944em" height="8.047575300455188em" x="83.01886792452831em" y="21.952424699544814em" fill="#aaa"/><rect width="0.9433962264150944em" height="3.8633756393850955em" x="83.9622641509434em" y="26.136624360614903em" fill="#aaa"/><rect width="0.9433962264150944em" height="6.9335219251234985em" x="84.90566037735849em" y="23.0664780748765em" fill="#aaa"/><rect width="0.9433962264150944em" height="21.236530537658314em" x="85.84905660377359em" y="8.763469462341686em" fill="#aaa"/><rect width="0.9433962264150944em" height="5.315431873971105em" x="86.79245283018868em" y="24.684568126028896em" fill="#aaa"/><rect width="0.9433962264150944em" height="7.258655044810368em" x="87.73584905660377em" y="22.741344955189632em" fill="#aaa"/><rect width="0.9433962264150944em" height="3.8147551950960406em" x="88.67924528301887em" y="26.18524480490396em" fill="#aaa"/><rect width="0.9433962264150944em" height="3.7789152367049463em" x="89.62264150943396em" y="26.221084763295053em" fill="#aaa"/><rect width="0.9433962264150944em" height="7.463830083124036em" x="90.56603773584905em" y="22.536169916875963em" fill="#aaa"/><rect width="0.9433962264150944em" height="11.823938794308637em" x="91.50943396226415em" y="18.17606120569136em" fill="#aaa"/><rect width="0.9433962264150944em" height="5.9411821781657235em" x="92.45283018867924em" y="24.058817821834275em" fill="#aaa"/><rect width="0.9433962264150944em" height="5.979548523529462em" x="93.39622641509435em" y="24.020451476470537em" fill="#aaa"/><rect width="0.9433962264150944em" height="9.325323020374546em" x="94.33962264150944em" y="20.674676979625453em" fill="#aaa"/><rect width="0.9433962264150944em" height="30em" x="95.28301886792453em" y="0em" fill="#aaa"/><rect width="0.9433962264150944em" height="13.993505480648329em" x="96.22641509433963em" y="16.00649451935167em" fill="#aaa"/><rect width="0.9433962264150944em" height="27.77566623993551em" x="97.16981132075472em" y="2.2243337600644892em" fill="#aaa"/><rect width="0.9433962264150944em" height="18.402333543528773em" x="98.11320754716981em" y="11.597666456471227em" fill="#aaa"/><rect width="0.9433962264150944em" height="10.31361445734699em" x="99.05660377358491em" y="19.68638554265301em" fill="#aaa"/></svg>