<?xml version="1.0" standalone="no"?>
<svg xmlns:xlink="http://www.w3.org/1999/xlink" xmlns="http://www.w3.org/2000/svg" class="topic-graph" style="width: 100em; height: 30em; text-align: center;"><rect width="0.9433962264150944em" height="4.642117888575465em" x="0em" y="25.357882111424537em" fill="#aaa"/><rect width="0.9433962264150944em" height="2.680022201408982em" x="0.9433962264150944em" y="27.31997779859102em" fill="#aaa"/><rect width="0.9433962264150944em" height="0.842974841910505em" x="1.8867924528301887em" y="29.157025158089496em" fill="#aaa"/><rect width="0.9433962264150944em" height="1.002516624802829em" x="2.830188679245283em" y="28.99748337519717em" fill="#aaa"/><rect width="0.9433962264150944em" height="1.442687857700267em" x="3.7735849056603774em" y="28.557312142299732em" fill="#aaa"/><rect width="0.9433962264150944em" height="0.5005262230234954em" x="4.716981132075472em" y="29.499473776976505em" fill="#aaa"/><rect width="0.9433962264150944em" height="0.37093843202720006em" x="5.660377358490566em" y="29.6290615679728em" fill="#aaa"/><rect width="0.9433962264150944em" height="0.4891014872943211em" x="6.60377358490566em" y="29.51089851270568em" fill="#aaa"/><rect width="0.9433962264150944em" height="2.7185544887024657em" x="7.547169811320755em" y="27.281445511297534em" fill="#aaa"/><rect width="0.9433962264150944em" height="30em" x="8.49056603773585em" y="0em" fill="#aaa"/><rect width="0.9433962264150944em" height="6.096440611561202em" x="9.433962264150944em" y="23.903559388438797em" fill="#aaa"/><rect width="0.9433962264150944em" height="26.878295817440797em" x="10.377358490566039em" y="3.1217041825592027em" fill="#aaa"/><rect width="0.9433962264150944em" height="15.056196127731189em" x="11.320754716981131em" y="14.943803872268811em" fill="#aaa"/><rect width="0.9433962264150944em" height="0em" x="12.264150943396226em" y="30em" fill="#aaa"/><rect width="0.9433962264150944em" height="15.420268185101992em" x="13.20754716981132em" y="14.579731814898008em" fill="#aaa"/><rect width="0.9433962264150944em" height="12.07088190650723em" x="14.150943396226415em" y="17.929118093492768em" fill="#aaa"/><rect width="0.9433962264150944em" height="18.034884016128522em" x="15.09433962264151em" y="11.965115983871478em" fill="#aaa"/><rect width="0.9433962264150944em" height="10.513300195173613em" x="16.037735849056602em" y="19.486699804826387em" fill="#aaa"/><rect width="0.9433962264150944em" height="15.48410284555337em" x="16.9811320754717em" y="14.51589715444663em" fill="#aaa"/><rect width="0.9433962264150944em" height="11.973360366540359em" x="17.92452830188679em" y="18.02663963345964em" fill="#aaa"/><rect width="0.9433962264150944em" height="12.89150398457667em" x="18.867924528301888em" y="17.10849601542333em" fill="#aaa"/><rect width="0.9433962264150944em" height="20.943688484963722em" x="19.81132075471698em" y="9.056311515036278em" fill="#aaa"/><rect width="0.9433962264150944em" height="15.851255215363661em" x="20.754716981132077em" y="14.148744784636339em" fill="#aaa"/><rect width="0.9433962264150944em" height="16.279226514572656em" x="21.69811320754717em" y="13.720773485427344em" fill="#aaa"/><rect width="0.9433962264150944em" height="23.539288663676675em" x="22.641509433962263em" y="6.460711336323325em" fill="#aaa"/><rect width="0.9433962264150944em" height="11.777207779606568em" x="23.58490566037736em" y="18.22279222039343em" fill="#aaa"/><rect width="0.9433962264150944em" height="0em" x="24.528301886792452em" y="30em" fill="#aaa"/><rect width="0.9433962264150944em" height="9.999993611676452em" x="25.471698113207548em" y="20.00000638832355em" fill="#aaa"/><rect width="0.9433962264150944em" height="6.150815098450175em" x="26.41509433962264em" y="23.849184901549826em" fill="#aaa"/><rect width="0.9433962264150944em" height="14.275894172191832em" x="27.358490566037737em" y="15.724105827808168em" fill="#aaa"/><rect width="0.9433962264150944em" height="7.230570518438519em" x="28.30188679245283em" y="22.76942948156148em" fill="#aaa"/><rect width="0.9433962264150944em" height="12.88905000921142em" x="29.245283018867926em" y="17.11094999078858em" fill="#aaa"/><rect width="0.9433962264150944em" height="7.955593815886642em" x="30.18867924528302em" y="22.044406184113356em" fill="#aaa"/><rect width="0.9433962264150944em" height="4.743983509623449em" x="31.132075471698112em" y="25.256016490376552em" fill="#aaa"/><rect width="0.9433962264150944em" height="6.5935982285552655em" x="32.075471698113205em" y="23.406401771444735em" fill="#aaa"/><rect width="0.9433962264150944em" height="6.229604954024882em" x="33.0188679245283em" y="23.770395045975118em" fill="#aaa"/><rect width="0.9433962264150944em" height="8.036110959620107em" x="33.9622641509434em" y="21.963889040379893em" fill="#aaa"/><rect width="0.9433962264150944em" height="9.25462531534216em" x="34.905660377358494em" y="20.74537468465784em" fill="#aaa"/><rect width="0.9433962264150944em" height="11.037496868632534em" x="35.84905660377358em" y="18.962503131367466em" fill="#aaa"/><rect width="0.9433962264150944em" height="12.242997653813571em" x="36.79245283018868em" y="17.75700234618643em" fill="#aaa"/><rect width="0.9433962264150944em" height="12.690997513785183em" x="37.735849056603776em" y="17.309002486214816em" fill="#aaa"/><rect width="0.9433962264150944em" height="10.821669796745264em" x="38.679245283018865em" y="19.17833020325474em" fill="#aaa"/><rect width="0.9433962264150944em" height="8.876506346720722em" x="39.62264150943396em" y="21.123493653279276em" fill="#aaa"/><rect width="0.9433962264150944em" height="6.197468202348353em" x="40.56603773584906em" y="23.802531797651646em" fill="#aaa"/><rect width="0.9433962264150944em" height="6.8038621421454595em" x="41.509433962264154em" y="23.19613785785454em" fill="#aaa"/><rect width="0.9433962264150944em" height="10.19618962479251em" x="42.45283018867924em" y="19.80381037520749em" fill="#aaa"/><rect width="0.9433962264150944em" height="9.019489389625855em" x="43.39622641509434em" y="20.980510610374147em" fill="#aaa"/><rect width="0.9433962264150944em" height="11.535389991999663em" x="44.339622641509436em" y="18.464610008000335em" fill="#aaa"/><rect width="0.9433962264150944em" height="8.862226608490653em" x="45.283018867924525em" y="21.13777339150935em" fill="#aaa"/><rect width="0.9433962264150944em" height="10.96532268691771em" x="46.22641509433962em" y="19.03467731308229em" fill="#aaa"/><rect width="0.9433962264150944em" height="13.218618352934644em" x="47.16981132075472em" y="16.781381647065356em" fill="#aaa"/><rect width="0.9433962264150944em" height="9.920190977833098em" x="48.113207547169814em" y="20.079809022166902em" fill="#aaa"/><rect width="0.9433962264150944em" height="10.5160722773194em" x="49.056603773584904em" y="19.483927722680598em" fill="#aaa"/><rect width="0.9433962264150944em" height="9.064118652158456em" x="50em" y="20.935881347841544em" fill="#aaa"/><rect width="0.9433962264150944em" height="7.167554395887202em" x="50.943396226415096em" y="22.8324456041128em" fill="#aaa"/><rect width="0.9433962264150944em" height="7.6570426871045685em" x="51.88679245283019em" y="22.342957312895432em" fill="#aaa"/><rect width="0.9433962264150944em" height="7.837383700021196em" x="52.83018867924528em" y="22.162616299978804em" fill="#aaa"/><rect width="0.9433962264150944em" height="7.390697757567305em" x="53.77358490566038em" y="22.609302242432694em" fill="#aaa"/><rect width="0.9433962264150944em" height="8.910936692143508em" x="54.716981132075475em" y="21.08906330785649em" fill="#aaa"/><rect width="0.9433962264150944em" height="11.2918732063511em" x="55.660377358490564em" y="18.7081267936489em" fill="#aaa"/><rect width="0.9433962264150944em" height="10.395007451153115em" x="56.60377358490566em" y="19.604992548846887em" fill="#aaa"/><rect width="0.9433962264150944em" height="13.292569615035841em" x="57.54716981132076em" y="16.70743038496416em" fill="#aaa"/><rect width="0.9433962264150944em" height="10.61372035607076em" x="58.49056603773585em" y="19.386279643929242em" fill="#aaa"/><rect width="0.9433962264150944em" height="4.669851716466242em" x="59.43396226415094em" y="25.33014828353376em" fill="#aaa"/><rect width="0.9433962264150944em" height="5.468749189038105em" x="60.37735849056604em" y="24.531250810961893em" fill="#aaa"/><rect width="0.9433962264150944em" height="8.577340950887802em" x="61.320754716981135em" y="21.422659049112198em" fill="#aaa"/><rect width="0.9433962264150944em" height="8.487583160736957em" x="62.264150943396224em" y="21.512416839263043em" fill="#aaa"/><rect width="0.9433962264150944em" height="6.252988238721798em" x="63.20754716981132em" y="23.747011761278202em" fill="#aaa"/><rect width="0.9433962264150944em" height="7.664830348261843em" x="64.15094339622641em" y="22.335169651738155em" fill="#aaa"/><rect width="0.9433962264150944em" height="8.880317046723876em" x="65.09433962264151em" y="21.119682953276126em" fill="#aaa"/><rect width="0.9433962264150944em" height="7.840157275789521em" x="66.0377358490566em" y="22.159842724210478em" fill="#aaa"/><rect width="0.9433962264150944em" height="7.670894000322699em" x="66.9811320754717em" y="22.329105999677303em" fill="#aaa"/><rect width="0.9433962264150944em" height="4.550928441119961em" x="67.9245283018868em" y="25.44907155888004em" fill="#aaa"/><rect width="0.9433962264150944em" height="8.541976858913987em" x="68.86792452830188em" y="21.458023141086013em" fill="#aaa"/><rect width="0.9433962264150944em" height="9.75442675688271em" x="69.81132075471699em" y="20.245573243117292em" fill="#aaa"/><rect width="0.9433962264150944em" height="7.227015004226143em" x="70.75471698113208em" y="22.772984995773857em" fill="#aaa"/><rect width="0.9433962264150944em" height="5.766042105151668em" x="71.69811320754717em" y="24.23395789484833em" fill="#aaa"/><rect width="0.9433962264150944em" height="9.66909030322066em" x="72.64150943396227em" y="20.33090969677934em" fill="#aaa"/><rect width="0.9433962264150944em" height="9.61817156574114em" x="73.58490566037736em" y="20.38182843425886em" fill="#aaa"/><rect width="0.9433962264150944em" height="20.81716351052702em" x="74.52830188679245em" y="9.18283648947298em" fill="#aaa"/><rect width="0.9433962264150944em" height="14.658653833484884em" x="75.47169811320755em" y="15.341346166515116em" fill="#aaa"/><rect width="0.9433962264150944em" height="17.31147866129386em" x="76.41509433962264em" y="12.688521338706138em" fill="#aaa"/><rect width="0.9433962264150944em" height="25.81496384493372em" x="77.35849056603773em" y="4.185036155066278em" fill="#aaa"/><rect width="0.9433962264150944em" height="4.3997920630275535em" x="78.30188679245283em" y="25.600207936972446em" fill="#aaa"/><rect width="0.9433962264150944em" height="5.319737700810206em" x="79.24528301886792em" y="24.680262299189792em" fill="#aaa"/><rect width="0.9433962264150944em" height="25.27436209973362em" x="80.18867924528303em" y="4.725637900266381em" fill="#aaa"/><rect width="0.9433962264150944em" height="3.540460864444657em" x="81.13207547169812em" y="26.459539135555342em" fill="#aaa"/><rect width="0.9433962264150944em" height="4.354505533704505em" x="82.0754716981132em" y="25.645494466295496em" fill="#aaa"/><rect width="0.9433962264150944em" height="6.948159487554031em" x="83.01886792452831em" y="23.05184051244597em" fill="#aaa"/><rect width="0.9433962264150944em" height="5.396629577501935em" x="83.9622641509434em" y="24.603370422498067em" fill="#aaa"/><rect width="0.9433962264150944em" height="12.492423737990865em" x="84.90566037735849em" y="17.507576262009135em" fill="#aaa"/><rect width="0.9433962264150944em" height="13.766798489241937em" x="85.84905660377359em" y="16.233201510758065em" fill="#aaa"/><rect width="0.9433962264150944em" height="13.488398783184518em" x="86.79245283018868em" y="16.51160121681548em" fill="#aaa"/><rect width="0.9433962264150944em" height="13.017872081243539em" x="87.73584905660377em" y="16.98212791875646em" fill="#aaa"/><rect width="0.9433962264150944em" height="7.91040664829523em" x="88.67924528301887em" y="22.08959335170477em" fill="#aaa"/><rect width="0.9433962264150944em" height="3.7775119209031733em" x="89.62264150943396em" y="26.222488079096827em" fill="#aaa"/><rect width="0.9433962264150944em" height="7.463633047789392em" x="90.56603773584905em" y="22.536366952210606em" fill="#aaa"/><rect width="0.9433962264150944em" height="6.741426034192665em" x="91.50943396226415em" y="23.258573965807336em" fill="#aaa"/><rect width="0.9433962264150944em" height="8.026193477900087em" x="92.45283018867924em" y="21.973806522099913em" fill="#aaa"/><rect width="0.9433962264150944em" height="13.436528284908032em" x="93.39622641509435em" y="16.563471715091968em" fill="#aaa"/><rect width="0.9433962264150944em" height="12.315670555550213em" x="94.33962264150944em" y="17.684329444449787em" fill="#aaa"/><rect width="0.9433962264150944em" height="17.497227212675337em" x="95.28301886792453em" y="12.502772787324663em" fill="#aaa"/><rect width="0.9433962264150944em" height="17.98264461722994em" x="96.22641509433963em" y="12.01735538277006em" fill="#aaa"/><rect width="0.9433962264150944em" height="12.241744985352858em" x="97.16981132075472em" y="17.75825501464714em" fill="#aaa"/><rect width="0.9433962264150944em" height="22.191316715334153em" x="98.11320754716981em" y="7.808683284665847em" fill="#aaa"/><rect width="0.9433962264150944em" height="13.674191877455398em" x="99.05660377358491em" y="16.3258081225446em" fill="#aaa"/></svg>