<?xml version="1.0" standalone="no"?>
<svg xmlns:xlink="http://www.w3.org/1999/xlink" xmlns="http://www.w3.org/2000/svg" class="topic-graph" style="width: 100em; height: 30em; text-align: center;"><rect width="0.9433962264150944em" height="1.2068511500335788em" x="0em" y="28.79314884996642em" fill="#aaa"/><rect width="0.9433962264150944em" height="1.9058391705365425em" x="0.9433962264150944em" y="28.09416082946346em" fill="#aaa"/><rect width="0.9433962264150944em" height="0.0388013191839489em" x="1.8867924528301887em" y="29.96119868081605em" fill="#aaa"/><rect width="0.9433962264150944em" height="1.7003444474032567em" x="2.830188679245283em" y="28.299655552596743em" fill="#aaa"/><rect width="0.9433962264150944em" height="0.8222523045510728em" x="3.7735849056603774em" y="29.17774769544893em" fill="#aaa"/><rect width="0.9433962264150944em" height="0.48917523776389965em" x="4.716981132075472em" y="29.5108247622361em" fill="#aaa"/><rect width="0.9433962264150944em" height="0.3759945759247493em" x="5.660377358490566em" y="29.62400542407525em" fill="#aaa"/><rect width="0.9433962264150944em" height="0.06556093124334288em" x="6.60377358490566em" y="29.934439068756657em" fill="#aaa"/><rect width="0.9433962264150944em" height="2.475324399833498em" x="7.547169811320755em" y="27.524675600166503em" fill="#aaa"/><rect width="0.9433962264150944em" height="1.270578280648861em" x="8.49056603773585em" y="28.729421719351137em" fill="#aaa"/><rect width="0.9433962264150944em" height="1.547950393688533em" x="9.433962264150944em" y="28.452049606311466em" fill="#aaa"/><rect width="0.9433962264150944em" height="1.7227555304551272em" x="10.377358490566039em" y="28.277244469544872em" fill="#aaa"/><rect width="0.9433962264150944em" height="2.5544174010034393em" x="11.320754716981131em" y="27.44558259899656em" fill="#aaa"/><rect width="0.9433962264150944em" height="0em" x="12.264150943396226em" y="30em" fill="#aaa"/><rect width="0.9433962264150944em" height="1.4652385053246637em" x="13.20754716981132em" y="28.534761494675337em" fill="#aaa"/><rect width="0.9433962264150944em" height="2.303812235009935em" x="14.150943396226415em" y="27.696187764990064em" fill="#aaa"/><rect width="0.9433962264150944em" height="1.36338871085056em" x="15.09433962264151em" y="28.63661128914944em" fill="#aaa"/><rect width="0.9433962264150944em" height="0.17337192601270093em" x="16.037735849056602em" y="29.826628073987298em" fill="#aaa"/><rect width="0.9433962264150944em" height="0.4345207260002887em" x="16.9811320754717em" y="29.56547927399971em" fill="#aaa"/><rect width="0.9433962264150944em" height="1.2918480589764514em" x="17.92452830188679em" y="28.708151941023548em" fill="#aaa"/><rect width="0.9433962264150944em" height="1.0130733469037714em" x="18.867924528301888em" y="28.98692665309623em" fill="#aaa"/><rect width="0.9433962264150944em" height="2.535649868647027em" x="19.81132075471698em" y="27.464350131352973em" fill="#aaa"/><rect width="0.9433962264150944em" height="1.485836055738861em" x="20.754716981132077em" y="28.51416394426114em" fill="#aaa"/><rect width="0.9433962264150944em" height="2.594342998169816em" x="21.69811320754717em" y="27.405657001830185em" fill="#aaa"/><rect width="0.9433962264150944em" height="2.7007048698888574em" x="22.641509433962263em" y="27.299295130111144em" fill="#aaa"/><rect width="0.9433962264150944em" height="3.249764319239086em" x="23.58490566037736em" y="26.750235680760913em" fill="#aaa"/><rect width="0.9433962264150944em" height="0em" x="24.528301886792452em" y="30em" fill="#aaa"/><rect width="0.9433962264150944em" height="9.59585792081936em" x="25.471698113207548em" y="20.404142079180637em" fill="#aaa"/><rect width="0.9433962264150944em" height="2.386721388596177em" x="26.41509433962264em" y="27.61327861140382em" fill="#aaa"/><rect width="0.9433962264150944em" height="4.845839727608868em" x="27.358490566037737em" y="25.15416027239113em" fill="#aaa"/><rect width="0.9433962264150944em" height="7.9405170375881236em" x="28.30188679245283em" y="22.059482962411877em" fill="#aaa"/><rect width="0.9433962264150944em" height="12.585612755097374em" x="29.245283018867926em" y="17.414387244902628em" fill="#aaa"/><rect width="0.9433962264150944em" height="4.134740465881315em" x="30.18867924528302em" y="25.865259534118685em" fill="#aaa"/><rect width="0.9433962264150944em" height="9.938112506050578em" x="31.132075471698112em" y="20.06188749394942em" fill="#aaa"/><rect width="0.9433962264150944em" height="1.4614145146357749em" x="32.075471698113205em" y="28.538585485364226em" fill="#aaa"/><rect width="0.9433962264150944em" height="4.4891611885422655em" x="33.0188679245283em" y="25.510838811457734em" fill="#aaa"/><rect width="0.9433962264150944em" height="2.8228301971470544em" x="33.9622641509434em" y="27.177169802852944em" fill="#aaa"/><rect width="0.9433962264150944em" height="10.260916894732013em" x="34.905660377358494em" y="19.739083105267987em" fill="#aaa"/><rect width="0.9433962264150944em" height="5.769669246188594em" x="35.84905660377358em" y="24.230330753811405em" fill="#aaa"/><rect width="0.9433962264150944em" height="1.7298576883973174em" x="36.79245283018868em" y="28.270142311602683em" fill="#aaa"/><rect width="0.9433962264150944em" height="5.422355306270791em" x="37.735849056603776em" y="24.57764469372921em" fill="#aaa"/><rect width="0.9433962264150944em" height="4.4657822170746755em" x="38.679245283018865em" y="25.534217782925325em" fill="#aaa"/><rect width="0.9433962264150944em" height="3.2467048239187433em" x="39.62264150943396em" y="26.753295176081256em" fill="#aaa"/><rect width="0.9433962264150944em" height="1.8430264437735266em" x="40.56603773584906em" y="28.156973556226472em" fill="#aaa"/><rect width="0.9433962264150944em" height="2.8005685310226998em" x="41.509433962264154em" y="27.199431468977302em" fill="#aaa"/><rect width="0.9433962264150944em" height="3.7845909730473815em" x="42.45283018867924em" y="26.215409026952617em" fill="#aaa"/><rect width="0.9433962264150944em" height="8.651897168553143em" x="43.39622641509434em" y="21.34810283144686em" fill="#aaa"/><rect width="0.9433962264150944em" height="5.073095832762313em" x="44.339622641509436em" y="24.926904167237687em" fill="#aaa"/><rect width="0.9433962264150944em" height="7.158984688395537em" x="45.283018867924525em" y="22.841015311604462em" fill="#aaa"/><rect width="0.9433962264150944em" height="2.712227648319233em" x="46.22641509433962em" y="27.28777235168077em" fill="#aaa"/><rect width="0.9433962264150944em" height="14.07894952956941em" x="47.16981132075472em" y="15.92105047043059em" fill="#aaa"/><rect width="0.9433962264150944em" height="3.0397331639769085em" x="48.113207547169814em" y="26.96026683602309em" fill="#aaa"/><rect width="0.9433962264150944em" height="4.8440215876438195em" x="49.056603773584904em" y="25.15597841235618em" fill="#aaa"/><rect width="0.9433962264150944em" height="5.9663241861723em" x="50em" y="24.0336758138277em" fill="#aaa"/><rect width="0.9433962264150944em" height="12.934232457570038em" x="50.943396226415096em" y="17.06576754242996em" fill="#aaa"/><rect width="0.9433962264150944em" height="6.780371235151945em" x="51.88679245283019em" y="23.219628764848053em" fill="#aaa"/><rect width="0.9433962264150944em" height="5.7526574656893175em" x="52.83018867924528em" y="24.247342534310683em" fill="#aaa"/><rect width="0.9433962264150944em" height="4.1959779424500265em" x="53.77358490566038em" y="25.80402205754997em" fill="#aaa"/><rect width="0.9433962264150944em" height="4.216312073192486em" x="54.716981132075475em" y="25.783687926807513em" fill="#aaa"/><rect width="0.9433962264150944em" height="30em" x="55.660377358490564em" y="0em" fill="#aaa"/><rect width="0.9433962264150944em" height="10.72192522725857em" x="56.60377358490566em" y="19.27807477274143em" fill="#aaa"/><rect width="0.9433962264150944em" height="12.743998483354533em" x="57.54716981132076em" y="17.25600151664547em" fill="#aaa"/><rect width="0.9433962264150944em" height="15.991485457604917em" x="58.49056603773585em" y="14.008514542395083em" fill="#aaa"/><rect width="0.9433962264150944em" height="2.0621334492943353em" x="59.43396226415094em" y="27.937866550705664em" fill="#aaa"/><rect width="0.9433962264150944em" height="3.016942450607133em" x="60.37735849056604em" y="26.983057549392868em" fill="#aaa"/><rect width="0.9433962264150944em" height="3.5423578229482646em" x="61.320754716981135em" y="26.457642177051735em" fill="#aaa"/><rect width="0.9433962264150944em" height="3.169561421107264em" x="62.264150943396224em" y="26.830438578892736em" fill="#aaa"/><rect width="0.9433962264150944em" height="3.4332906131456777em" x="63.20754716981132em" y="26.56670938685432em" fill="#aaa"/><rect width="0.9433962264150944em" height="4.335160095389982em" x="64.15094339622641em" y="25.66483990461002em" fill="#aaa"/><rect width="0.9433962264150944em" height="8.198426181106193em" x="65.09433962264151em" y="21.801573818893807em" fill="#aaa"/><rect width="0.9433962264150944em" height="8.11724512100009em" x="66.0377358490566em" y="21.88275487899991em" fill="#aaa"/><rect width="0.9433962264150944em" height="19.199565850835736em" x="66.9811320754717em" y="10.800434149164264em" fill="#aaa"/><rect width="0.9433962264150944em" height="18.49732636410256em" x="67.9245283018868em" y="11.502673635897441em" fill="#aaa"/><rect width="0.9433962264150944em" height="4.015849709320031em" x="68.86792452830188em" y="25.98415029067997em" fill="#aaa"/><rect width="0.9433962264150944em" height="3.488734869454369em" x="69.81132075471699em" y="26.51126513054563em" fill="#aaa"/><rect width="0.9433962264150944em" height="7.020508440554954em" x="70.75471698113208em" y="22.979491559445044em" fill="#aaa"/><rect width="0.9433962264150944em" height="4.278980711956936em" x="71.69811320754717em" y="25.721019288043063em" fill="#aaa"/><rect width="0.9433962264150944em" height="5.087507395587464em" x="72.64150943396227em" y="24.912492604412535em" fill="#aaa"/><rect width="0.9433962264150944em" height="4.0641208543670215em" x="73.58490566037736em" y="25.935879145632978em" fill="#aaa"/><rect width="0.9433962264150944em" height="3.2027859740689797em" x="74.52830188679245em" y="26.79721402593102em" fill="#aaa"/><rect width="0.9433962264150944em" height="3.4799326202700223em" x="75.47169811320755em" y="26.520067379729976em" fill="#aaa"/><rect width="0.9433962264150944em" height="6.350243729095738em" x="76.41509433962264em" y="23.649756270904263em" fill="#aaa"/><rect width="0.9433962264150944em" height="3.9098178910356856em" x="77.35849056603773em" y="26.090182108964314em" fill="#aaa"/><rect width="0.9433962264150944em" height="6.028682561776994em" x="78.30188679245283em" y="23.971317438223007em" fill="#aaa"/><rect width="0.9433962264150944em" height="4.714084236609139em" x="79.24528301886792em" y="25.28591576339086em" fill="#aaa"/><rect width="0.9433962264150944em" height="5.523236007017669em" x="80.18867924528303em" y="24.47676399298233em" fill="#aaa"/><rect width="0.9433962264150944em" height="6.061765552732827em" x="81.13207547169812em" y="23.938234447267174em" fill="#aaa"/><rect width="0.9433962264150944em" height="4.430889538018285em" x="82.0754716981132em" y="25.569110461981715em" fill="#aaa"/><rect width="0.9433962264150944em" height="5.932483803657382em" x="83.01886792452831em" y="24.067516196342616em" fill="#aaa"/><rect width="0.9433962264150944em" height="7.602768428809737em" x="83.9622641509434em" y="22.39723157119026em" fill="#aaa"/><rect width="0.9433962264150944em" height="8.518901197390964em" x="84.90566037735849em" y="21.481098802609036em" fill="#aaa"/><rect width="0.9433962264150944em" height="7.172872844876538em" x="85.84905660377359em" y="22.827127155123463em" fill="#aaa"/><rect width="0.9433962264150944em" height="3.271360747795713em" x="86.79245283018868em" y="26.72863925220429em" fill="#aaa"/><rect width="0.9433962264150944em" height="7.410801951896268em" x="87.73584905660377em" y="22.589198048103732em" fill="#aaa"/><rect width="0.9433962264150944em" height="6.379444561583917em" x="88.67924528301887em" y="23.620555438416083em" fill="#aaa"/><rect width="0.9433962264150944em" height="6.57246938586841em" x="89.62264150943396em" y="23.42753061413159em" fill="#aaa"/><rect width="0.9433962264150944em" height="4.12527431947605em" x="90.56603773584905em" y="25.87472568052395em" fill="#aaa"/><rect width="0.9433962264150944em" height="7.030889531423535em" x="91.50943396226415em" y="22.969110468576467em" fill="#aaa"/><rect width="0.9433962264150944em" height="3.9951985989544396em" x="92.45283018867924em" y="26.00480140104556em" fill="#aaa"/><rect width="0.9433962264150944em" height="4.770651645923155em" x="93.39622641509435em" y="25.229348354076844em" fill="#aaa"/><rect width="0.9433962264150944em" height="4.0037102836199105em" x="94.33962264150944em" y="25.99628971638009em" fill="#aaa"/><rect width="0.9433962264150944em" height="2.5431085267924285em" x="95.28301886792453em" y="27.45689147320757em" fill="#aaa"/><rect width="0.9433962264150944em" height="1.96259542787339em" x="96.22641509433963em" y="28.03740457212661em" fill="#aaa"/><rect width="0.9433962264150944em" height="3.9755140676764453em" x="97.16981132075472em" y="26.024485932323554em" fill="#aaa"/><rect width="0.9433962264150944em" height="5.28995315608825em" x="98.11320754716981em" y="24.71004684391175em" fill="#aaa"/><rect width="0.9433962264150944em" height="6.698622006232082em" x="99.05660377358491em" y="23.301377993767918em" fill="#aaa"/></svg>