<?xml version="1.0" standalone="no"?>
<svg xmlns:xlink="http://www.w3.org/1999/xlink" xmlns="http://www.w3.org/2000/svg" class="topic-graph" style="width: 100em; height: 30em; text-align: center;"><rect width="0.9433962264150944em" height="11.174194763178456em" x="0em" y="18.825805236821544em" fill="#aaa"/><rect width="0.9433962264150944em" height="14.765440272637036em" x="0.9433962264150944em" y="15.234559727362964em" fill="#aaa"/><rect width="0.9433962264150944em" height="0.44176923539171425em" x="1.8867924528301887em" y="29.558230764608286em" fill="#aaa"/><rect width="0.9433962264150944em" height="7.04276082483676em" x="2.830188679245283em" y="22.957239175163238em" fill="#aaa"/><rect width="0.9433962264150944em" height="3.741968090118736em" x="3.7735849056603774em" y="26.258031909881264em" fill="#aaa"/><rect width="0.9433962264150944em" height="1.4090390000434094em" x="4.716981132075472em" y="28.59096099995659em" fill="#aaa"/><rect width="0.9433962264150944em" height="2.7045360683767896em" x="5.660377358490566em" y="27.29546393162321em" fill="#aaa"/><rect width="0.9433962264150944em" height="1.1674199958833766em" x="6.60377358490566em" y="28.832580004116622em" fill="#aaa"/><rect width="0.9433962264150944em" height="2.9660411890615963em" x="7.547169811320755em" y="27.033958810938405em" fill="#aaa"/><rect width="0.9433962264150944em" height="3.5098377194254673em" x="8.49056603773585em" y="26.490162280574534em" fill="#aaa"/><rect width="0.9433962264150944em" height="0.752124706641611em" x="9.433962264150944em" y="29.24787529335839em" fill="#aaa"/><rect width="0.9433962264150944em" height="13.006011253492284em" x="10.377358490566039em" y="16.993988746507718em" fill="#aaa"/><rect width="0.9433962264150944em" height="20.175670368042997em" x="11.320754716981131em" y="9.824329631957003em" fill="#aaa"/><rect width="0.9433962264150944em" height="0em" x="12.264150943396226em" y="30em" fill="#aaa"/><rect width="0.9433962264150944em" height="11.21260843588041em" x="13.20754716981132em" y="18.787391564119588em" fill="#aaa"/><rect width="0.9433962264150944em" height="21.110509366128476em" x="14.150943396226415em" y="8.889490633871524em" fill="#aaa"/><rect width="0.9433962264150944em" height="21.030789577763812em" x="15.09433962264151em" y="8.969210422236188em" fill="#aaa"/><rect width="0.9433962264150944em" height="13.090129160896376em" x="16.037735849056602em" y="16.909870839103625em" fill="#aaa"/><rect width="0.9433962264150944em" height="11.115204343724999em" x="16.9811320754717em" y="18.884795656275003em" fill="#aaa"/><rect width="0.9433962264150944em" height="20.37676007910677em" x="17.92452830188679em" y="9.62323992089323em" fill="#aaa"/><rect width="0.9433962264150944em" height="13.373137856928482em" x="18.867924528301888em" y="16.62686214307152em" fill="#aaa"/><rect width="0.9433962264150944em" height="13.346009200861591em" x="19.81132075471698em" y="16.65399079913841em" fill="#aaa"/><rect width="0.9433962264150944em" height="8.652699196736688em" x="20.754716981132077em" y="21.347300803263312em" fill="#aaa"/><rect width="0.9433962264150944em" height="20.00226452088909em" x="21.69811320754717em" y="9.997735479110911em" fill="#aaa"/><rect width="0.9433962264150944em" height="23.518453077898794em" x="22.641509433962263em" y="6.481546922101206em" fill="#aaa"/><rect width="0.9433962264150944em" height="22.634925723497307em" x="23.58490566037736em" y="7.365074276502693em" fill="#aaa"/><rect width="0.9433962264150944em" height="0em" x="24.528301886792452em" y="30em" fill="#aaa"/><rect width="0.9433962264150944em" height="25.842952972277278em" x="25.471698113207548em" y="4.157047027722722em" fill="#aaa"/><rect width="0.9433962264150944em" height="16.46189108192452em" x="26.41509433962264em" y="13.53810891807548em" fill="#aaa"/><rect width="0.9433962264150944em" height="18.295171464463085em" x="27.358490566037737em" y="11.704828535536915em" fill="#aaa"/><rect width="0.9433962264150944em" height="16.079257335437447em" x="28.30188679245283em" y="13.920742664562553em" fill="#aaa"/><rect width="0.9433962264150944em" height="13.035313035546944em" x="29.245283018867926em" y="16.96468696445306em" fill="#aaa"/><rect width="0.9433962264150944em" height="13.868834983058683em" x="30.18867924528302em" y="16.131165016941317em" fill="#aaa"/><rect width="0.9433962264150944em" height="20.435899405398935em" x="31.132075471698112em" y="9.564100594601065em" fill="#aaa"/><rect width="0.9433962264150944em" height="10.508315068735405em" x="32.075471698113205em" y="19.491684931264594em" fill="#aaa"/><rect width="0.9433962264150944em" height="14.325728541228354em" x="33.0188679245283em" y="15.674271458771646em" fill="#aaa"/><rect width="0.9433962264150944em" height="11.413424741070513em" x="33.9622641509434em" y="18.586575258929486em" fill="#aaa"/><rect width="0.9433962264150944em" height="11.957329463002882em" x="34.905660377358494em" y="18.042670536997118em" fill="#aaa"/><rect width="0.9433962264150944em" height="18.332874306404058em" x="35.84905660377358em" y="11.667125693595942em" fill="#aaa"/><rect width="0.9433962264150944em" height="14.28531247067232em" x="36.79245283018868em" y="15.71468752932768em" fill="#aaa"/><rect width="0.9433962264150944em" height="13.432530856849702em" x="37.735849056603776em" y="16.567469143150298em" fill="#aaa"/><rect width="0.9433962264150944em" height="13.63412826744327em" x="38.679245283018865em" y="16.36587173255673em" fill="#aaa"/><rect width="0.9433962264150944em" height="13.121348494491976em" x="39.62264150943396em" y="16.878651505508024em" fill="#aaa"/><rect width="0.9433962264150944em" height="10.805248889888412em" x="40.56603773584906em" y="19.19475111011159em" fill="#aaa"/><rect width="0.9433962264150944em" height="12.477318593010757em" x="41.509433962264154em" y="17.522681406989243em" fill="#aaa"/><rect width="0.9433962264150944em" height="21.41031175620186em" x="42.45283018867924em" y="8.58968824379814em" fill="#aaa"/><rect width="0.9433962264150944em" height="15.531631412381492em" x="43.39622641509434em" y="14.468368587618508em" fill="#aaa"/><rect width="0.9433962264150944em" height="17.97965830024939em" x="44.339622641509436em" y="12.02034169975061em" fill="#aaa"/><rect width="0.9433962264150944em" height="19.833128569187263em" x="45.283018867924525em" y="10.166871430812737em" fill="#aaa"/><rect width="0.9433962264150944em" height="15.149779685844727em" x="46.22641509433962em" y="14.850220314155273em" fill="#aaa"/><rect width="0.9433962264150944em" height="15.438453628904732em" x="47.16981132075472em" y="14.561546371095268em" fill="#aaa"/><rect width="0.9433962264150944em" height="25.527135357470666em" x="48.113207547169814em" y="4.472864642529334em" fill="#aaa"/><rect width="0.9433962264150944em" height="13.318128122877086em" x="49.056603773584904em" y="16.681871877122916em" fill="#aaa"/><rect width="0.9433962264150944em" height="14.590261270996425em" x="50em" y="15.409738729003575em" fill="#aaa"/><rect width="0.9433962264150944em" height="13.294253685062143em" x="50.943396226415096em" y="16.705746314937855em" fill="#aaa"/><rect width="0.9433962264150944em" height="18.410722890124333em" x="51.88679245283019em" y="11.589277109875667em" fill="#aaa"/><rect width="0.9433962264150944em" height="16.61662517742556em" x="52.83018867924528em" y="13.383374822574439em" fill="#aaa"/><rect width="0.9433962264150944em" height="20.53382561738291em" x="53.77358490566038em" y="9.46617438261709em" fill="#aaa"/><rect width="0.9433962264150944em" height="17.208269841331745em" x="54.716981132075475em" y="12.791730158668255em" fill="#aaa"/><rect width="0.9433962264150944em" height="26.349930953764993em" x="55.660377358490564em" y="3.650069046235007em" fill="#aaa"/><rect width="0.9433962264150944em" height="18.41994315519155em" x="56.60377358490566em" y="11.58005684480845em" fill="#aaa"/><rect width="0.9433962264150944em" height="21.946300314265905em" x="57.54716981132076em" y="8.053699685734095em" fill="#aaa"/><rect width="0.9433962264150944em" height="19.656159670558065em" x="58.49056603773585em" y="10.343840329441935em" fill="#aaa"/><rect width="0.9433962264150944em" height="11.738370266555407em" x="59.43396226415094em" y="18.261629733444593em" fill="#aaa"/><rect width="0.9433962264150944em" height="19.793987024628763em" x="60.37735849056604em" y="10.206012975371237em" fill="#aaa"/><rect width="0.9433962264150944em" height="19.561800901368528em" x="61.320754716981135em" y="10.438199098631472em" fill="#aaa"/><rect width="0.9433962264150944em" height="17.60829181384495em" x="62.264150943396224em" y="12.39170818615505em" fill="#aaa"/><rect width="0.9433962264150944em" height="15.188963105678688em" x="63.20754716981132em" y="14.811036894321312em" fill="#aaa"/><rect width="0.9433962264150944em" height="19.64925217235em" x="64.15094339622641em" y="10.35074782765em" fill="#aaa"/><rect width="0.9433962264150944em" height="26.70098612920302em" x="65.09433962264151em" y="3.29901387079698em" fill="#aaa"/><rect width="0.9433962264150944em" height="15.172797989605698em" x="66.0377358490566em" y="14.827202010394302em" fill="#aaa"/><rect width="0.9433962264150944em" height="12.759815063963977em" x="66.9811320754717em" y="17.240184936036023em" fill="#aaa"/><rect width="0.9433962264150944em" height="21.213225445154723em" x="67.9245283018868em" y="8.786774554845277em" fill="#aaa"/><rect width="0.9433962264150944em" height="13.327343572041235em" x="68.86792452830188em" y="16.672656427958763em" fill="#aaa"/><rect width="0.9433962264150944em" height="14.421939119017994em" x="69.81132075471699em" y="15.578060880982006em" fill="#aaa"/><rect width="0.9433962264150944em" height="21.575183231955975em" x="70.75471698113208em" y="8.424816768044025em" fill="#aaa"/><rect width="0.9433962264150944em" height="24.563878386974444em" x="71.69811320754717em" y="5.436121613025556em" fill="#aaa"/><rect width="0.9433962264150944em" height="17.938199478669787em" x="72.64150943396227em" y="12.061800521330213em" fill="#aaa"/><rect width="0.9433962264150944em" height="15.772428607025473em" x="73.58490566037736em" y="14.227571392974527em" fill="#aaa"/><rect width="0.9433962264150944em" height="19.346582878160884em" x="74.52830188679245em" y="10.653417121839116em" fill="#aaa"/><rect width="0.9433962264150944em" height="24.02736280657079em" x="75.47169811320755em" y="5.972637193429211em" fill="#aaa"/><rect width="0.9433962264150944em" height="17.184480199230084em" x="76.41509433962264em" y="12.815519800769916em" fill="#aaa"/><rect width="0.9433962264150944em" height="20.201160941123074em" x="77.35849056603773em" y="9.798839058876926em" fill="#aaa"/><rect width="0.9433962264150944em" height="26.89987633591861em" x="78.30188679245283em" y="3.1001236640813907em" fill="#aaa"/><rect width="0.9433962264150944em" height="21.47959425864436em" x="79.24528301886792em" y="8.520405741355638em" fill="#aaa"/><rect width="0.9433962264150944em" height="14.858946951718574em" x="80.18867924528303em" y="15.141053048281426em" fill="#aaa"/><rect width="0.9433962264150944em" height="18.715738159631165em" x="81.13207547169812em" y="11.284261840368835em" fill="#aaa"/><rect width="0.9433962264150944em" height="19.693182656516807em" x="82.0754716981132em" y="10.306817343483193em" fill="#aaa"/><rect width="0.9433962264150944em" height="25.438008932385365em" x="83.01886792452831em" y="4.561991067614635em" fill="#aaa"/><rect width="0.9433962264150944em" height="18.90455757408873em" x="83.9622641509434em" y="11.09544242591127em" fill="#aaa"/><rect width="0.9433962264150944em" height="14.280452758791736em" x="84.90566037735849em" y="15.719547241208264em" fill="#aaa"/><rect width="0.9433962264150944em" height="30em" x="85.84905660377359em" y="0em" fill="#aaa"/><rect width="0.9433962264150944em" height="14.996201773348421em" x="86.79245283018868em" y="15.003798226651579em" fill="#aaa"/><rect width="0.9433962264150944em" height="22.32744530639983em" x="87.73584905660377em" y="7.672554693600169em" fill="#aaa"/><rect width="0.9433962264150944em" height="17.70503504335465em" x="88.67924528301887em" y="12.294964956645352em" fill="#aaa"/><rect width="0.9433962264150944em" height="16.68518527221629em" x="89.62264150943396em" y="13.314814727783709em" fill="#aaa"/><rect width="0.9433962264150944em" height="13.340119691442725em" x="90.56603773584905em" y="16.659880308557277em" fill="#aaa"/><rect width="0.9433962264150944em" height="16.39804790167692em" x="91.50943396226415em" y="13.601952098323078em" fill="#aaa"/><rect width="0.9433962264150944em" height="15.192062256359003em" x="92.45283018867924em" y="14.807937743640997em" fill="#aaa"/><rect width="0.9433962264150944em" height="16.05270627569638em" x="93.39622641509435em" y="13.94729372430362em" fill="#aaa"/><rect width="0.9433962264150944em" height="15.80933633537573em" x="94.33962264150944em" y="14.19066366462427em" fill="#aaa"/><rect width="0.9433962264150944em" height="14.191698186176698em" x="95.28301886792453em" y="15.808301813823302em" fill="#aaa"/><rect width="0.9433962264150944em" height="11.5513911660407em" x="96.22641509433963em" y="18.448608833959298em" fill="#aaa"/><rect width="0.9433962264150944em" height="21.742188075988363em" x="97.16981132075472em" y="8.257811924011637em" fill="#aaa"/><rect width="0.9433962264150944em" height="19.35971034972548em" x="98.11320754716981em" y="10.640289650274521em" fill="#aaa"/><rect width="0.9433962264150944em" height="15.614372180177492em" x="99.05660377358491em" y="14.385627819822508em" fill="#aaa"/></svg>