<?xml version="1.0" standalone="no"?>
<svg xmlns:xlink="http://www.w3.org/1999/xlink" xmlns="http://www.w3.org/2000/svg" class="topic-graph" style="width: 100em; height: 30em; text-align: center;"><rect width="0.9433962264150944em" height="16.186009284344117em" x="0em" y="13.813990715655883em" fill="#aaa"/><rect width="0.9433962264150944em" height="9.978882937933744em" x="0.9433962264150944em" y="20.021117062066256em" fill="#aaa"/><rect width="0.9433962264150944em" height="10.41235263704313em" x="1.8867924528301887em" y="19.587647362956872em" fill="#aaa"/><rect width="0.9433962264150944em" height="25.271272686449556em" x="2.830188679245283em" y="4.7287273135504435em" fill="#aaa"/><rect width="0.9433962264150944em" height="30em" x="3.7735849056603774em" y="0em" fill="#aaa"/><rect width="0.9433962264150944em" height="22.80102952684992em" x="4.716981132075472em" y="7.19897047315008em" fill="#aaa"/><rect width="0.9433962264150944em" height="8.925782394556943em" x="5.660377358490566em" y="21.074217605443057em" fill="#aaa"/><rect width="0.9433962264150944em" height="11.824867963882774em" x="6.60377358490566em" y="18.175132036117226em" fill="#aaa"/><rect width="0.9433962264150944em" height="6.602085924473555em" x="7.547169811320755em" y="23.397914075526444em" fill="#aaa"/><rect width="0.9433962264150944em" height="11.776112350726939em" x="8.49056603773585em" y="18.22388764927306em" fill="#aaa"/><rect width="0.9433962264150944em" height="12.882690976305073em" x="9.433962264150944em" y="17.11730902369493em" fill="#aaa"/><rect width="0.9433962264150944em" height="3.534687955638216em" x="10.377358490566039em" y="26.465312044361784em" fill="#aaa"/><rect width="0.9433962264150944em" height="10.204603534393115em" x="11.320754716981131em" y="19.795396465606885em" fill="#aaa"/><rect width="0.9433962264150944em" height="0em" x="12.264150943396226em" y="30em" fill="#aaa"/><rect width="0.9433962264150944em" height="11.02782595414014em" x="13.20754716981132em" y="18.97217404585986em" fill="#aaa"/><rect width="0.9433962264150944em" height="4.640598395993533em" x="14.150943396226415em" y="25.359401604006468em" fill="#aaa"/><rect width="0.9433962264150944em" height="9.824539869458146em" x="15.09433962264151em" y="20.175460130541854em" fill="#aaa"/><rect width="0.9433962264150944em" height="17.371580064547107em" x="16.037735849056602em" y="12.628419935452893em" fill="#aaa"/><rect width="0.9433962264150944em" height="3.9773249393155354em" x="16.9811320754717em" y="26.022675060684463em" fill="#aaa"/><rect width="0.9433962264150944em" height="6.491533516730187em" x="17.92452830188679em" y="23.508466483269814em" fill="#aaa"/><rect width="0.9433962264150944em" height="2.367075281634403em" x="18.867924528301888em" y="27.632924718365597em" fill="#aaa"/><rect width="0.9433962264150944em" height="4.638017573255143em" x="19.81132075471698em" y="25.361982426744856em" fill="#aaa"/><rect width="0.9433962264150944em" height="2.0438745321612592em" x="20.754716981132077em" y="27.956125467838742em" fill="#aaa"/><rect width="0.9433962264150944em" height="5.129027356782664em" x="21.69811320754717em" y="24.870972643217335em" fill="#aaa"/><rect width="0.9433962264150944em" height="9.140404344631863em" x="22.641509433962263em" y="20.85959565536814em" fill="#aaa"/><rect width="0.9433962264150944em" height="7.563876256233399em" x="23.58490566037736em" y="22.4361237437666em" fill="#aaa"/><rect width="0.9433962264150944em" height="0em" x="24.528301886792452em" y="30em" fill="#aaa"/><rect width="0.9433962264150944em" height="6.874570579032635em" x="25.471698113207548em" y="23.125429420967365em" fill="#aaa"/><rect width="0.9433962264150944em" height="17.16824237705416em" x="26.41509433962264em" y="12.83175762294584em" fill="#aaa"/><rect width="0.9433962264150944em" height="13.668612760738272em" x="27.358490566037737em" y="16.33138723926173em" fill="#aaa"/><rect width="0.9433962264150944em" height="11.305424145586871em" x="28.30188679245283em" y="18.69457585441313em" fill="#aaa"/><rect width="0.9433962264150944em" height="10.977191430591247em" x="29.245283018867926em" y="19.022808569408753em" fill="#aaa"/><rect width="0.9433962264150944em" height="21.027936237014103em" x="30.18867924528302em" y="8.972063762985897em" fill="#aaa"/><rect width="0.9433962264150944em" height="19.95625295139984em" x="31.132075471698112em" y="10.04374704860016em" fill="#aaa"/><rect width="0.9433962264150944em" height="18.30694921427576em" x="32.075471698113205em" y="11.693050785724239em" fill="#aaa"/><rect width="0.9433962264150944em" height="23.483010179592405em" x="33.0188679245283em" y="6.516989820407595em" fill="#aaa"/><rect width="0.9433962264150944em" height="13.75459773338821em" x="33.9622641509434em" y="16.24540226661179em" fill="#aaa"/><rect width="0.9433962264150944em" height="18.161681072536002em" x="34.905660377358494em" y="11.838318927463998em" fill="#aaa"/><rect width="0.9433962264150944em" height="10.453183664632993em" x="35.84905660377358em" y="19.546816335367005em" fill="#aaa"/><rect width="0.9433962264150944em" height="10.535508484570576em" x="36.79245283018868em" y="19.464491515429422em" fill="#aaa"/><rect width="0.9433962264150944em" height="10.678466288277049em" x="37.735849056603776em" y="19.32153371172295em" fill="#aaa"/><rect width="0.9433962264150944em" height="8.348615370641248em" x="38.679245283018865em" y="21.651384629358752em" fill="#aaa"/><rect width="0.9433962264150944em" height="12.735384249244472em" x="39.62264150943396em" y="17.264615750755528em" fill="#aaa"/><rect width="0.9433962264150944em" height="10.449174693040334em" x="40.56603773584906em" y="19.550825306959666em" fill="#aaa"/><rect width="0.9433962264150944em" height="15.343422433614325em" x="41.509433962264154em" y="14.656577566385675em" fill="#aaa"/><rect width="0.9433962264150944em" height="16.081160002273162em" x="42.45283018867924em" y="13.918839997726838em" fill="#aaa"/><rect width="0.9433962264150944em" height="13.792730145398025em" x="43.39622641509434em" y="16.207269854601975em" fill="#aaa"/><rect width="0.9433962264150944em" height="19.162805077109947em" x="44.339622641509436em" y="10.837194922890053em" fill="#aaa"/><rect width="0.9433962264150944em" height="22.14293718778179em" x="45.283018867924525em" y="7.85706281221821em" fill="#aaa"/><rect width="0.9433962264150944em" height="18.990496617439362em" x="46.22641509433962em" y="11.009503382560638em" fill="#aaa"/><rect width="0.9433962264150944em" height="11.042095737408696em" x="47.16981132075472em" y="18.957904262591306em" fill="#aaa"/><rect width="0.9433962264150944em" height="17.812322462313094em" x="48.113207547169814em" y="12.187677537686906em" fill="#aaa"/><rect width="0.9433962264150944em" height="14.245254649444332em" x="49.056603773584904em" y="15.754745350555668em" fill="#aaa"/><rect width="0.9433962264150944em" height="11.170425379140525em" x="50em" y="18.829574620859475em" fill="#aaa"/><rect width="0.9433962264150944em" height="15.367438193339373em" x="50.943396226415096em" y="14.632561806660627em" fill="#aaa"/><rect width="0.9433962264150944em" height="15.620488167114237em" x="51.88679245283019em" y="14.379511832885763em" fill="#aaa"/><rect width="0.9433962264150944em" height="13.061899395089293em" x="52.83018867924528em" y="16.93810060491071em" fill="#aaa"/><rect width="0.9433962264150944em" height="10.452672277532391em" x="53.77358490566038em" y="19.547327722467607em" fill="#aaa"/><rect width="0.9433962264150944em" height="8.855589320843114em" x="54.716981132075475em" y="21.144410679156884em" fill="#aaa"/><rect width="0.9433962264150944em" height="9.1467953131157em" x="55.660377358490564em" y="20.8532046868843em" fill="#aaa"/><rect width="0.9433962264150944em" height="5.607042749072182em" x="56.60377358490566em" y="24.392957250927818em" fill="#aaa"/><rect width="0.9433962264150944em" height="6.2936965690015025em" x="57.54716981132076em" y="23.706303430998496em" fill="#aaa"/><rect width="0.9433962264150944em" height="5.360789406369494em" x="58.49056603773585em" y="24.639210593630505em" fill="#aaa"/><rect width="0.9433962264150944em" height="9.276979135673908em" x="59.43396226415094em" y="20.72302086432609em" fill="#aaa"/><rect width="0.9433962264150944em" height="5.330738969792553em" x="60.37735849056604em" y="24.669261030207448em" fill="#aaa"/><rect width="0.9433962264150944em" height="7.610500530266567em" x="61.320754716981135em" y="22.389499469733433em" fill="#aaa"/><rect width="0.9433962264150944em" height="4.7407580043451585em" x="62.264150943396224em" y="25.25924199565484em" fill="#aaa"/><rect width="0.9433962264150944em" height="3.249812972494412em" x="63.20754716981132em" y="26.75018702750559em" fill="#aaa"/><rect width="0.9433962264150944em" height="2.9341312683853684em" x="64.15094339622641em" y="27.065868731614632em" fill="#aaa"/><rect width="0.9433962264150944em" height="2.417645151618381em" x="65.09433962264151em" y="27.58235484838162em" fill="#aaa"/><rect width="0.9433962264150944em" height="4.838409417047428em" x="66.0377358490566em" y="25.16159058295257em" fill="#aaa"/><rect width="0.9433962264150944em" height="2.9914169264754724em" x="66.9811320754717em" y="27.008583073524527em" fill="#aaa"/><rect width="0.9433962264150944em" height="4.008714373301574em" x="67.9245283018868em" y="25.991285626698428em" fill="#aaa"/><rect width="0.9433962264150944em" height="4.8758762146325685em" x="68.86792452830188em" y="25.12412378536743em" fill="#aaa"/><rect width="0.9433962264150944em" height="5.083332741994643em" x="69.81132075471699em" y="24.916667258005358em" fill="#aaa"/><rect width="0.9433962264150944em" height="3.5930191876305915em" x="70.75471698113208em" y="26.406980812369408em" fill="#aaa"/><rect width="0.9433962264150944em" height="3.317250803924966em" x="71.69811320754717em" y="26.682749196075033em" fill="#aaa"/><rect width="0.9433962264150944em" height="4.24027057341702em" x="72.64150943396227em" y="25.75972942658298em" fill="#aaa"/><rect width="0.9433962264150944em" height="4.288996403564796em" x="73.58490566037736em" y="25.711003596435205em" fill="#aaa"/><rect width="0.9433962264150944em" height="3.797581946634698em" x="74.52830188679245em" y="26.202418053365303em" fill="#aaa"/><rect width="0.9433962264150944em" height="4.1503302594433436em" x="75.47169811320755em" y="25.849669740556656em" fill="#aaa"/><rect width="0.9433962264150944em" height="6.850379491438741em" x="76.41509433962264em" y="23.14962050856126em" fill="#aaa"/><rect width="0.9433962264150944em" height="2.2765072186893667em" x="77.35849056603773em" y="27.723492781310632em" fill="#aaa"/><rect width="0.9433962264150944em" height="4.231462083200156em" x="78.30188679245283em" y="25.768537916799843em" fill="#aaa"/><rect width="0.9433962264150944em" height="4.860730038771973em" x="79.24528301886792em" y="25.139269961228027em" fill="#aaa"/><rect width="0.9433962264150944em" height="4.399866926254552em" x="80.18867924528303em" y="25.600133073745447em" fill="#aaa"/><rect width="0.9433962264150944em" height="5.538168873268927em" x="81.13207547169812em" y="24.461831126731074em" fill="#aaa"/><rect width="0.9433962264150944em" height="3.6788456194130523em" x="82.0754716981132em" y="26.321154380586947em" fill="#aaa"/><rect width="0.9433962264150944em" height="5.794311269961403em" x="83.01886792452831em" y="24.205688730038595em" fill="#aaa"/><rect width="0.9433962264150944em" height="5.529228904534979em" x="83.9622641509434em" y="24.47077109546502em" fill="#aaa"/><rect width="0.9433962264150944em" height="2.9614210572105835em" x="84.90566037735849em" y="27.038578942789417em" fill="#aaa"/><rect width="0.9433962264150944em" height="1.614952077705201em" x="85.84905660377359em" y="28.3850479222948em" fill="#aaa"/><rect width="0.9433962264150944em" height="2.195901412672568em" x="86.79245283018868em" y="27.80409858732743em" fill="#aaa"/><rect width="0.9433962264150944em" height="2.1620340186256084em" x="87.73584905660377em" y="27.837965981374392em" fill="#aaa"/><rect width="0.9433962264150944em" height="2.241325082751761em" x="88.67924528301887em" y="27.75867491724824em" fill="#aaa"/><rect width="0.9433962264150944em" height="3.439935884063198em" x="89.62264150943396em" y="26.560064115936804em" fill="#aaa"/><rect width="0.9433962264150944em" height="1.7829864282660004em" x="90.56603773584905em" y="28.217013571734em" fill="#aaa"/><rect width="0.9433962264150944em" height="2.1988302353713114em" x="91.50943396226415em" y="27.80116976462869em" fill="#aaa"/><rect width="0.9433962264150944em" height="3.4082413904861077em" x="92.45283018867924em" y="26.591758609513892em" fill="#aaa"/><rect width="0.9433962264150944em" height="2.719490803583697em" x="93.39622641509435em" y="27.280509196416304em" fill="#aaa"/><rect width="0.9433962264150944em" height="2.6033141178394974em" x="94.33962264150944em" y="27.396685882160504em" fill="#aaa"/><rect width="0.9433962264150944em" height="3.2886753248788807em" x="95.28301886792453em" y="26.71132467512112em" fill="#aaa"/><rect width="0.9433962264150944em" height="1.4189600177394952em" x="96.22641509433963em" y="28.581039982260506em" fill="#aaa"/><rect width="0.9433962264150944em" height="3.3132443943521674em" x="97.16981132075472em" y="26.686755605647832em" fill="#aaa"/><rect width="0.9433962264150944em" height="5.81635540621523em" x="98.11320754716981em" y="24.18364459378477em" fill="#aaa"/><rect width="0.9433962264150944em" height="3.326612523845581em" x="99.05660377358491em" y="26.673387476154417em" fill="#aaa"/></svg>