<?xml version="1.0" standalone="no"?>
<svg xmlns:xlink="http://www.w3.org/1999/xlink" xmlns="http://www.w3.org/2000/svg" class="topic-graph" style="width: 100em; height: 30em; text-align: center;"><rect width="0.9433962264150944em" height="0.02261764777783132em" x="0em" y="29.97738235222217em" fill="#aaa"/><rect width="0.9433962264150944em" height="0.8306104242587725em" x="0.9433962264150944em" y="29.169389575741228em" fill="#aaa"/><rect width="0.9433962264150944em" height="0.010113488002296344em" x="1.8867924528301887em" y="29.989886511997703em" fill="#aaa"/><rect width="0.9433962264150944em" height="0.25931843258847614em" x="2.830188679245283em" y="29.740681567411524em" fill="#aaa"/><rect width="0.9433962264150944em" height="0.7612065560832758em" x="3.7735849056603774em" y="29.238793443916723em" fill="#aaa"/><rect width="0.9433962264150944em" height="1.1280580993662939em" x="4.716981132075472em" y="28.871941900633708em" fill="#aaa"/><rect width="0.9433962264150944em" height="0.38878281393587966em" x="5.660377358490566em" y="29.61121718606412em" fill="#aaa"/><rect width="0.9433962264150944em" height="1.5690927188658665em" x="6.60377358490566em" y="28.430907281134132em" fill="#aaa"/><rect width="0.9433962264150944em" height="0.3240337425652257em" x="7.547169811320755em" y="29.675966257434773em" fill="#aaa"/><rect width="0.9433962264150944em" height="2.487112611906929em" x="8.49056603773585em" y="27.51288738809307em" fill="#aaa"/><rect width="0.9433962264150944em" height="0.6717744906352043em" x="9.433962264150944em" y="29.328225509364795em" fill="#aaa"/><rect width="0.9433962264150944em" height="1.6816543520310407em" x="10.377358490566039em" y="28.31834564796896em" fill="#aaa"/><rect width="0.9433962264150944em" height="0.39548006175606026em" x="11.320754716981131em" y="29.60451993824394em" fill="#aaa"/><rect width="0.9433962264150944em" height="0em" x="12.264150943396226em" y="30em" fill="#aaa"/><rect width="0.9433962264150944em" height="0.8086943914641928em" x="13.20754716981132em" y="29.191305608535806em" fill="#aaa"/><rect width="0.9433962264150944em" height="1.146253149021215em" x="14.150943396226415em" y="28.853746850978784em" fill="#aaa"/><rect width="0.9433962264150944em" height="1.2156968742103944em" x="15.09433962264151em" y="28.784303125789606em" fill="#aaa"/><rect width="0.9433962264150944em" height="0.15673330412537134em" x="16.037735849056602em" y="29.84326669587463em" fill="#aaa"/><rect width="0.9433962264150944em" height="0.24988253245977873em" x="16.9811320754717em" y="29.75011746754022em" fill="#aaa"/><rect width="0.9433962264150944em" height="1.7668988926785536em" x="17.92452830188679em" y="28.233101107321446em" fill="#aaa"/><rect width="0.9433962264150944em" height="0.6265476155372887em" x="18.867924528301888em" y="29.373452384462713em" fill="#aaa"/><rect width="0.9433962264150944em" height="0.7780956956730015em" x="19.81132075471698em" y="29.221904304326998em" fill="#aaa"/><rect width="0.9433962264150944em" height="0.11130020308014653em" x="20.754716981132077em" y="29.888699796919852em" fill="#aaa"/><rect width="0.9433962264150944em" height="0.7856159218821948em" x="21.69811320754717em" y="29.214384078117806em" fill="#aaa"/><rect width="0.9433962264150944em" height="0.1036372564544406em" x="22.641509433962263em" y="29.89636274354556em" fill="#aaa"/><rect width="0.9433962264150944em" height="0.957380809686527em" x="23.58490566037736em" y="29.042619190313474em" fill="#aaa"/><rect width="0.9433962264150944em" height="0em" x="24.528301886792452em" y="30em" fill="#aaa"/><rect width="0.9433962264150944em" height="1.2300404554189392em" x="25.471698113207548em" y="28.76995954458106em" fill="#aaa"/><rect width="0.9433962264150944em" height="0.4508945604751986em" x="26.41509433962264em" y="29.5491054395248em" fill="#aaa"/><rect width="0.9433962264150944em" height="0.14611292016347055em" x="27.358490566037737em" y="29.85388707983653em" fill="#aaa"/><rect width="0.9433962264150944em" height="0.37575315477537474em" x="28.30188679245283em" y="29.624246845224626em" fill="#aaa"/><rect width="0.9433962264150944em" height="0.7195860535360977em" x="29.245283018867926em" y="29.280413946463902em" fill="#aaa"/><rect width="0.9433962264150944em" height="0.7716094297659765em" x="30.18867924528302em" y="29.228390570234023em" fill="#aaa"/><rect width="0.9433962264150944em" height="0.5838664165658543em" x="31.132075471698112em" y="29.416133583434146em" fill="#aaa"/><rect width="0.9433962264150944em" height="0.2619912219522062em" x="32.075471698113205em" y="29.738008778047792em" fill="#aaa"/><rect width="0.9433962264150944em" height="0.23118368466183725em" x="33.0188679245283em" y="29.768816315338164em" fill="#aaa"/><rect width="0.9433962264150944em" height="0.832857220337577em" x="33.9622641509434em" y="29.167142779662424em" fill="#aaa"/><rect width="0.9433962264150944em" height="0.29968644224093294em" x="34.905660377358494em" y="29.700313557759067em" fill="#aaa"/><rect width="0.9433962264150944em" height="0.18573652071905677em" x="35.84905660377358em" y="29.814263479280942em" fill="#aaa"/><rect width="0.9433962264150944em" height="0.5470773408822505em" x="36.79245283018868em" y="29.45292265911775em" fill="#aaa"/><rect width="0.9433962264150944em" height="0.28850865102509443em" x="37.735849056603776em" y="29.711491348974906em" fill="#aaa"/><rect width="0.9433962264150944em" height="0.3198025342994236em" x="38.679245283018865em" y="29.680197465700576em" fill="#aaa"/><rect width="0.9433962264150944em" height="0.3952521873990151em" x="39.62264150943396em" y="29.604747812600984em" fill="#aaa"/><rect width="0.9433962264150944em" height="0.21731401739571388em" x="40.56603773584906em" y="29.782685982604285em" fill="#aaa"/><rect width="0.9433962264150944em" height="0.12877075959138112em" x="41.509433962264154em" y="29.87122924040862em" fill="#aaa"/><rect width="0.9433962264150944em" height="0.0933364036583027em" x="42.45283018867924em" y="29.906663596341698em" fill="#aaa"/><rect width="0.9433962264150944em" height="0.1929221105854234em" x="43.39622641509434em" y="29.807077889414575em" fill="#aaa"/><rect width="0.9433962264150944em" height="0.26622949098403287em" x="44.339622641509436em" y="29.73377050901597em" fill="#aaa"/><rect width="0.9433962264150944em" height="0.08695664933351696em" x="45.283018867924525em" y="29.913043350666484em" fill="#aaa"/><rect width="0.9433962264150944em" height="0.4443891412719772em" x="46.22641509433962em" y="29.555610858728024em" fill="#aaa"/><rect width="0.9433962264150944em" height="0.5690492771161662em" x="47.16981132075472em" y="29.430950722883836em" fill="#aaa"/><rect width="0.9433962264150944em" height="0.470666750052773em" x="48.113207547169814em" y="29.52933324994723em" fill="#aaa"/><rect width="0.9433962264150944em" height="0.43563525999272873em" x="49.056603773584904em" y="29.56436474000727em" fill="#aaa"/><rect width="0.9433962264150944em" height="0.36944611484033774em" x="50em" y="29.630553885159664em" fill="#aaa"/><rect width="0.9433962264150944em" height="2.0821048037275487em" x="50.943396226415096em" y="27.91789519627245em" fill="#aaa"/><rect width="0.9433962264150944em" height="0.4270350899259423em" x="51.88679245283019em" y="29.572964910074056em" fill="#aaa"/><rect width="0.9433962264150944em" height="0.4620088596385801em" x="52.83018867924528em" y="29.53799114036142em" fill="#aaa"/><rect width="0.9433962264150944em" height="3.7875490998405876em" x="53.77358490566038em" y="26.21245090015941em" fill="#aaa"/><rect width="0.9433962264150944em" height="0.7486393376775545em" x="54.716981132075475em" y="29.251360662322444em" fill="#aaa"/><rect width="0.9433962264150944em" height="1.9566671773143705em" x="55.660377358490564em" y="28.04333282268563em" fill="#aaa"/><rect width="0.9433962264150944em" height="1.5248090446853952em" x="56.60377358490566em" y="28.475190955314606em" fill="#aaa"/><rect width="0.9433962264150944em" height="1.2910445420195282em" x="57.54716981132076em" y="28.708955457980473em" fill="#aaa"/><rect width="0.9433962264150944em" height="1.4845742881364998em" x="58.49056603773585em" y="28.5154257118635em" fill="#aaa"/><rect width="0.9433962264150944em" height="0.9619046449971735em" x="59.43396226415094em" y="29.038095355002827em" fill="#aaa"/><rect width="0.9433962264150944em" height="0.6568394088996347em" x="60.37735849056604em" y="29.343160591100364em" fill="#aaa"/><rect width="0.9433962264150944em" height="0.7401940541730011em" x="61.320754716981135em" y="29.259805945826997em" fill="#aaa"/><rect width="0.9433962264150944em" height="1.406338132055195em" x="62.264150943396224em" y="28.593661867944803em" fill="#aaa"/><rect width="0.9433962264150944em" height="1.2425414473593681em" x="63.20754716981132em" y="28.75745855264063em" fill="#aaa"/><rect width="0.9433962264150944em" height="2.691109253187229em" x="64.15094339622641em" y="27.30889074681277em" fill="#aaa"/><rect width="0.9433962264150944em" height="8.138745218228093em" x="65.09433962264151em" y="21.861254781771905em" fill="#aaa"/><rect width="0.9433962264150944em" height="1.3382264582735206em" x="66.0377358490566em" y="28.66177354172648em" fill="#aaa"/><rect width="0.9433962264150944em" height="4.361678538507381em" x="66.9811320754717em" y="25.63832146149262em" fill="#aaa"/><rect width="0.9433962264150944em" height="1.5526912167170706em" x="67.9245283018868em" y="28.447308783282928em" fill="#aaa"/><rect width="0.9433962264150944em" height="2.011598948264667em" x="68.86792452830188em" y="27.988401051735334em" fill="#aaa"/><rect width="0.9433962264150944em" height="1.5960663692845216em" x="69.81132075471699em" y="28.40393363071548em" fill="#aaa"/><rect width="0.9433962264150944em" height="0.8926898414833379em" x="70.75471698113208em" y="29.10731015851666em" fill="#aaa"/><rect width="0.9433962264150944em" height="1.845661306772669em" x="71.69811320754717em" y="28.15433869322733em" fill="#aaa"/><rect width="0.9433962264150944em" height="2.1606135911250646em" x="72.64150943396227em" y="27.839386408874937em" fill="#aaa"/><rect width="0.9433962264150944em" height="0.990271317407551em" x="73.58490566037736em" y="29.00972868259245em" fill="#aaa"/><rect width="0.9433962264150944em" height="1.2333382201032324em" x="74.52830188679245em" y="28.76666177989677em" fill="#aaa"/><rect width="0.9433962264150944em" height="1.1451440100212842em" x="75.47169811320755em" y="28.854855989978716em" fill="#aaa"/><rect width="0.9433962264150944em" height="0.8914132888490098em" x="76.41509433962264em" y="29.10858671115099em" fill="#aaa"/><rect width="0.9433962264150944em" height="0.6634271369503255em" x="77.35849056603773em" y="29.336572863049675em" fill="#aaa"/><rect width="0.9433962264150944em" height="1.0110411898269918em" x="78.30188679245283em" y="28.98895881017301em" fill="#aaa"/><rect width="0.9433962264150944em" height="0.6392107773575447em" x="79.24528301886792em" y="29.360789222642456em" fill="#aaa"/><rect width="0.9433962264150944em" height="3.0272341265270604em" x="80.18867924528303em" y="26.97276587347294em" fill="#aaa"/><rect width="0.9433962264150944em" height="1.4715358683481892em" x="81.13207547169812em" y="28.52846413165181em" fill="#aaa"/><rect width="0.9433962264150944em" height="9.178108573048052em" x="82.0754716981132em" y="20.82189142695195em" fill="#aaa"/><rect width="0.9433962264150944em" height="1.8000935296083953em" x="83.01886792452831em" y="28.199906470391603em" fill="#aaa"/><rect width="0.9433962264150944em" height="1.082864486791528em" x="83.9622641509434em" y="28.91713551320847em" fill="#aaa"/><rect width="0.9433962264150944em" height="2.06966258603443em" x="84.90566037735849em" y="27.93033741396557em" fill="#aaa"/><rect width="0.9433962264150944em" height="1.714351933425057em" x="85.84905660377359em" y="28.285648066574943em" fill="#aaa"/><rect width="0.9433962264150944em" height="2.6357293480945208em" x="86.79245283018868em" y="27.36427065190548em" fill="#aaa"/><rect width="0.9433962264150944em" height="1.2265682152421626em" x="87.73584905660377em" y="28.773431784757836em" fill="#aaa"/><rect width="0.9433962264150944em" height="1.000469387511593em" x="88.67924528301887em" y="28.999530612488407em" fill="#aaa"/><rect width="0.9433962264150944em" height="1.071817081554063em" x="89.62264150943396em" y="28.928182918445938em" fill="#aaa"/><rect width="0.9433962264150944em" height="2.2432950677183743em" x="90.56603773584905em" y="27.756704932281625em" fill="#aaa"/><rect width="0.9433962264150944em" height="1.1232154910787637em" x="91.50943396226415em" y="28.876784508921236em" fill="#aaa"/><rect width="0.9433962264150944em" height="3.107577088638733em" x="92.45283018867924em" y="26.892422911361265em" fill="#aaa"/><rect width="0.9433962264150944em" height="4.965854323372083em" x="93.39622641509435em" y="25.034145676627915em" fill="#aaa"/><rect width="0.9433962264150944em" height="4.953169477035307em" x="94.33962264150944em" y="25.046830522964694em" fill="#aaa"/><rect width="0.9433962264150944em" height="30em" x="95.28301886792453em" y="0em" fill="#aaa"/><rect width="0.9433962264150944em" height="1.475823137541926em" x="96.22641509433963em" y="28.524176862458074em" fill="#aaa"/><rect width="0.9433962264150944em" height="1.2781963356308534em" x="97.16981132075472em" y="28.721803664369148em" fill="#aaa"/><rect width="0.9433962264150944em" height="1.3757582237017965em" x="98.11320754716981em" y="28.624241776298202em" fill="#aaa"/><rect width="0.9433962264150944em" height="24.552047349908065em" x="99.05660377358491em" y="5.447952650091935em" fill="#aaa"/></svg>