<?xml version="1.0" standalone="no"?>
<svg xmlns:xlink="http://www.w3.org/1999/xlink" xmlns="http://www.w3.org/2000/svg" class="topic-graph" style="width: 100em; height: 30em; text-align: center;"><rect width="0.9433962264150944em" height="4.200060361762093em" x="0em" y="25.79993963823791em" fill="#aaa"/><rect width="0.9433962264150944em" height="20.24808407948925em" x="0.9433962264150944em" y="9.75191592051075em" fill="#aaa"/><rect width="0.9433962264150944em" height="2.3380793536766546em" x="1.8867924528301887em" y="27.661920646323345em" fill="#aaa"/><rect width="0.9433962264150944em" height="4.296508445742793em" x="2.830188679245283em" y="25.703491554257205em" fill="#aaa"/><rect width="0.9433962264150944em" height="8.500263119509974em" x="3.7735849056603774em" y="21.499736880490026em" fill="#aaa"/><rect width="0.9433962264150944em" height="2.920170686611728em" x="4.716981132075472em" y="27.079829313388274em" fill="#aaa"/><rect width="0.9433962264150944em" height="6.778480920720529em" x="5.660377358490566em" y="23.22151907927947em" fill="#aaa"/><rect width="0.9433962264150944em" height="4.6644300394973826em" x="6.60377358490566em" y="25.335569960502617em" fill="#aaa"/><rect width="0.9433962264150944em" height="10.110639659348498em" x="7.547169811320755em" y="19.8893603406515em" fill="#aaa"/><rect width="0.9433962264150944em" height="9.820581104076421em" x="8.49056603773585em" y="20.17941889592358em" fill="#aaa"/><rect width="0.9433962264150944em" height="4.384078133936071em" x="9.433962264150944em" y="25.61592186606393em" fill="#aaa"/><rect width="0.9433962264150944em" height="3.4568219110662755em" x="10.377358490566039em" y="26.543178088933725em" fill="#aaa"/><rect width="0.9433962264150944em" height="6.011481638356601em" x="11.320754716981131em" y="23.9885183616434em" fill="#aaa"/><rect width="0.9433962264150944em" height="0em" x="12.264150943396226em" y="30em" fill="#aaa"/><rect width="0.9433962264150944em" height="5.040847438351786em" x="13.20754716981132em" y="24.959152561648214em" fill="#aaa"/><rect width="0.9433962264150944em" height="4.552417043557486em" x="14.150943396226415em" y="25.447582956442513em" fill="#aaa"/><rect width="0.9433962264150944em" height="3.228824906686274em" x="15.09433962264151em" y="26.771175093313726em" fill="#aaa"/><rect width="0.9433962264150944em" height="2.4184842046143413em" x="16.037735849056602em" y="27.58151579538566em" fill="#aaa"/><rect width="0.9433962264150944em" height="7.075548024595928em" x="16.9811320754717em" y="22.92445197540407em" fill="#aaa"/><rect width="0.9433962264150944em" height="4.458099240952059em" x="17.92452830188679em" y="25.54190075904794em" fill="#aaa"/><rect width="0.9433962264150944em" height="9.213884385763915em" x="18.867924528301888em" y="20.786115614236085em" fill="#aaa"/><rect width="0.9433962264150944em" height="6.903841456803236em" x="19.81132075471698em" y="23.096158543196765em" fill="#aaa"/><rect width="0.9433962264150944em" height="4.089004237422122em" x="20.754716981132077em" y="25.910995762577876em" fill="#aaa"/><rect width="0.9433962264150944em" height="14.394507087699354em" x="21.69811320754717em" y="15.605492912300646em" fill="#aaa"/><rect width="0.9433962264150944em" height="3.2164120299682564em" x="22.641509433962263em" y="26.783587970031743em" fill="#aaa"/><rect width="0.9433962264150944em" height="5.550669620660465em" x="23.58490566037736em" y="24.449330379339536em" fill="#aaa"/><rect width="0.9433962264150944em" height="0em" x="24.528301886792452em" y="30em" fill="#aaa"/><rect width="0.9433962264150944em" height="9.517178948413513em" x="25.471698113207548em" y="20.482821051586487em" fill="#aaa"/><rect width="0.9433962264150944em" height="14.979724855996434em" x="26.41509433962264em" y="15.020275144003566em" fill="#aaa"/><rect width="0.9433962264150944em" height="14.461277770124482em" x="27.358490566037737em" y="15.538722229875518em" fill="#aaa"/><rect width="0.9433962264150944em" height="11.097220251972486em" x="28.30188679245283em" y="18.902779748027513em" fill="#aaa"/><rect width="0.9433962264150944em" height="10.460656458085593em" x="29.245283018867926em" y="19.539343541914405em" fill="#aaa"/><rect width="0.9433962264150944em" height="9.62100570844203em" x="30.18867924528302em" y="20.37899429155797em" fill="#aaa"/><rect width="0.9433962264150944em" height="7.65855943509655em" x="31.132075471698112em" y="22.34144056490345em" fill="#aaa"/><rect width="0.9433962264150944em" height="9.699593348469584em" x="32.075471698113205em" y="20.300406651530416em" fill="#aaa"/><rect width="0.9433962264150944em" height="7.843190267449991em" x="33.0188679245283em" y="22.15680973255001em" fill="#aaa"/><rect width="0.9433962264150944em" height="13.072566077272898em" x="33.9622641509434em" y="16.927433922727104em" fill="#aaa"/><rect width="0.9433962264150944em" height="8.8121423851625em" x="34.905660377358494em" y="21.187857614837498em" fill="#aaa"/><rect width="0.9433962264150944em" height="6.315612151620642em" x="35.84905660377358em" y="23.68438784837936em" fill="#aaa"/><rect width="0.9433962264150944em" height="11.178969071150638em" x="36.79245283018868em" y="18.82103092884936em" fill="#aaa"/><rect width="0.9433962264150944em" height="14.271619354131074em" x="37.735849056603776em" y="15.728380645868926em" fill="#aaa"/><rect width="0.9433962264150944em" height="22.301682587021602em" x="38.679245283018865em" y="7.6983174129783976em" fill="#aaa"/><rect width="0.9433962264150944em" height="15.069366954408968em" x="39.62264150943396em" y="14.930633045591032em" fill="#aaa"/><rect width="0.9433962264150944em" height="11.555107815274697em" x="40.56603773584906em" y="18.444892184725305em" fill="#aaa"/><rect width="0.9433962264150944em" height="16.14602482054924em" x="41.509433962264154em" y="13.85397517945076em" fill="#aaa"/><rect width="0.9433962264150944em" height="13.041917144912867em" x="42.45283018867924em" y="16.958082855087135em" fill="#aaa"/><rect width="0.9433962264150944em" height="10.848831161405663em" x="43.39622641509434em" y="19.151168838594337em" fill="#aaa"/><rect width="0.9433962264150944em" height="10.548192101211256em" x="44.339622641509436em" y="19.451807898788744em" fill="#aaa"/><rect width="0.9433962264150944em" height="11.135942527126225em" x="45.283018867924525em" y="18.864057472873775em" fill="#aaa"/><rect width="0.9433962264150944em" height="14.375453054866124em" x="46.22641509433962em" y="15.624546945133876em" fill="#aaa"/><rect width="0.9433962264150944em" height="18.078405266946287em" x="47.16981132075472em" y="11.921594733053713em" fill="#aaa"/><rect width="0.9433962264150944em" height="14.40047224908608em" x="48.113207547169814em" y="15.59952775091392em" fill="#aaa"/><rect width="0.9433962264150944em" height="17.815816389355206em" x="49.056603773584904em" y="12.184183610644794em" fill="#aaa"/><rect width="0.9433962264150944em" height="15.099391717673507em" x="50em" y="14.900608282326493em" fill="#aaa"/><rect width="0.9433962264150944em" height="15.042299430936215em" x="50.943396226415096em" y="14.957700569063785em" fill="#aaa"/><rect width="0.9433962264150944em" height="21.84368637565178em" x="51.88679245283019em" y="8.156313624348218em" fill="#aaa"/><rect width="0.9433962264150944em" height="16.975807444491046em" x="52.83018867924528em" y="13.024192555508954em" fill="#aaa"/><rect width="0.9433962264150944em" height="13.220099939096636em" x="53.77358490566038em" y="16.779900060903365em" fill="#aaa"/><rect width="0.9433962264150944em" height="12.240770697041603em" x="54.716981132075475em" y="17.759229302958396em" fill="#aaa"/><rect width="0.9433962264150944em" height="20.75722475959241em" x="55.660377358490564em" y="9.242775240407589em" fill="#aaa"/><rect width="0.9433962264150944em" height="21.59901744303698em" x="56.60377358490566em" y="8.400982556963019em" fill="#aaa"/><rect width="0.9433962264150944em" height="14.434528112694435em" x="57.54716981132076em" y="15.565471887305565em" fill="#aaa"/><rect width="0.9433962264150944em" height="15.74227069267289em" x="58.49056603773585em" y="14.25772930732711em" fill="#aaa"/><rect width="0.9433962264150944em" height="18.282063574854803em" x="59.43396226415094em" y="11.717936425145197em" fill="#aaa"/><rect width="0.9433962264150944em" height="11.60623868784205em" x="60.37735849056604em" y="18.39376131215795em" fill="#aaa"/><rect width="0.9433962264150944em" height="11.446392634805783em" x="61.320754716981135em" y="18.553607365194217em" fill="#aaa"/><rect width="0.9433962264150944em" height="15.716220410410164em" x="62.264150943396224em" y="14.283779589589836em" fill="#aaa"/><rect width="0.9433962264150944em" height="13.546898884153832em" x="63.20754716981132em" y="16.453101115846167em" fill="#aaa"/><rect width="0.9433962264150944em" height="15.605086424526355em" x="64.15094339622641em" y="14.394913575473645em" fill="#aaa"/><rect width="0.9433962264150944em" height="17.547706901619996em" x="65.09433962264151em" y="12.452293098380004em" fill="#aaa"/><rect width="0.9433962264150944em" height="13.591811112124764em" x="66.0377358490566em" y="16.408188887875234em" fill="#aaa"/><rect width="0.9433962264150944em" height="21.425911220103416em" x="66.9811320754717em" y="8.574088779896584em" fill="#aaa"/><rect width="0.9433962264150944em" height="14.834624163668545em" x="67.9245283018868em" y="15.165375836331455em" fill="#aaa"/><rect width="0.9433962264150944em" height="16.226609320615953em" x="68.86792452830188em" y="13.773390679384047em" fill="#aaa"/><rect width="0.9433962264150944em" height="11.784090756693987em" x="69.81132075471699em" y="18.215909243306015em" fill="#aaa"/><rect width="0.9433962264150944em" height="15.390888116681221em" x="70.75471698113208em" y="14.609111883318779em" fill="#aaa"/><rect width="0.9433962264150944em" height="13.503109955442461em" x="71.69811320754717em" y="16.49689004455754em" fill="#aaa"/><rect width="0.9433962264150944em" height="19.776595304622454em" x="72.64150943396227em" y="10.223404695377546em" fill="#aaa"/><rect width="0.9433962264150944em" height="17.443856745647935em" x="73.58490566037736em" y="12.556143254352065em" fill="#aaa"/><rect width="0.9433962264150944em" height="28.587053457408em" x="74.52830188679245em" y="1.4129465425919996em" fill="#aaa"/><rect width="0.9433962264150944em" height="21.141060869885813em" x="75.47169811320755em" y="8.858939130114187em" fill="#aaa"/><rect width="0.9433962264150944em" height="30em" x="76.41509433962264em" y="0em" fill="#aaa"/><rect width="0.9433962264150944em" height="20.626170149628102em" x="77.35849056603773em" y="9.373829850371898em" fill="#aaa"/><rect width="0.9433962264150944em" height="15.004013505371148em" x="78.30188679245283em" y="14.995986494628852em" fill="#aaa"/><rect width="0.9433962264150944em" height="28.59257075610678em" x="79.24528301886792em" y="1.407429243893219em" fill="#aaa"/><rect width="0.9433962264150944em" height="16.377376461998644em" x="80.18867924528303em" y="13.622623538001356em" fill="#aaa"/><rect width="0.9433962264150944em" height="20.422932384948048em" x="81.13207547169812em" y="9.577067615051952em" fill="#aaa"/><rect width="0.9433962264150944em" height="18.287099541838337em" x="82.0754716981132em" y="11.712900458161663em" fill="#aaa"/><rect width="0.9433962264150944em" height="21.268759986218285em" x="83.01886792452831em" y="8.731240013781715em" fill="#aaa"/><rect width="0.9433962264150944em" height="15.314588229336914em" x="83.9622641509434em" y="14.685411770663086em" fill="#aaa"/><rect width="0.9433962264150944em" height="15.539104683863275em" x="84.90566037735849em" y="14.460895316136725em" fill="#aaa"/><rect width="0.9433962264150944em" height="17.268726316871266em" x="85.84905660377359em" y="12.731273683128734em" fill="#aaa"/><rect width="0.9433962264150944em" height="23.304735751186477em" x="86.79245283018868em" y="6.695264248813523em" fill="#aaa"/><rect width="0.9433962264150944em" height="15.653987759496115em" x="87.73584905660377em" y="14.346012240503885em" fill="#aaa"/><rect width="0.9433962264150944em" height="14.9659686779608em" x="88.67924528301887em" y="15.0340313220392em" fill="#aaa"/><rect width="0.9433962264150944em" height="13.641860847228855em" x="89.62264150943396em" y="16.358139152771145em" fill="#aaa"/><rect width="0.9433962264150944em" height="14.837294215229091em" x="90.56603773584905em" y="15.162705784770909em" fill="#aaa"/><rect width="0.9433962264150944em" height="14.854107354471894em" x="91.50943396226415em" y="15.145892645528106em" fill="#aaa"/><rect width="0.9433962264150944em" height="12.713751079234436em" x="92.45283018867924em" y="17.286248920765566em" fill="#aaa"/><rect width="0.9433962264150944em" height="11.815103179496537em" x="93.39622641509435em" y="18.18489682050346em" fill="#aaa"/><rect width="0.9433962264150944em" height="13.819752898633046em" x="94.33962264150944em" y="16.18024710136695em" fill="#aaa"/><rect width="0.9433962264150944em" height="11.228640409484951em" x="95.28301886792453em" y="18.771359590515047em" fill="#aaa"/><rect width="0.9433962264150944em" height="10.489479049782972em" x="96.22641509433963em" y="19.51052095021703em" fill="#aaa"/><rect width="0.9433962264150944em" height="14.995132087848122em" x="97.16981132075472em" y="15.004867912151878em" fill="#aaa"/><rect width="0.9433962264150944em" height="13.630742006875945em" x="98.11320754716981em" y="16.369257993124055em" fill="#aaa"/><rect width="0.9433962264150944em" height="15.615642028724736em" x="99.05660377358491em" y="14.384357971275264em" fill="#aaa"/></svg>