<?xml version="1.0" standalone="no"?>
<svg xmlns:xlink="http://www.w3.org/1999/xlink" xmlns="http://www.w3.org/2000/svg" class="topic-graph" style="width: 100em; height: 30em; text-align: center;"><rect width="0.9433962264150944em" height="7.745415154514418em" x="0em" y="22.25458484548558em" fill="#aaa"/><rect width="0.9433962264150944em" height="11.095556798182916em" x="0.9433962264150944em" y="18.904443201817084em" fill="#aaa"/><rect width="0.9433962264150944em" height="11.636635006515888em" x="1.8867924528301887em" y="18.36336499348411em" fill="#aaa"/><rect width="0.9433962264150944em" height="5.652195690763799em" x="2.830188679245283em" y="24.347804309236203em" fill="#aaa"/><rect width="0.9433962264150944em" height="6.7590688013859355em" x="3.7735849056603774em" y="23.240931198614064em" fill="#aaa"/><rect width="0.9433962264150944em" height="18.508809224740645em" x="4.716981132075472em" y="11.491190775259355em" fill="#aaa"/><rect width="0.9433962264150944em" height="12.26948948841558em" x="5.660377358490566em" y="17.73051051158442em" fill="#aaa"/><rect width="0.9433962264150944em" height="10.993404407321176em" x="6.60377358490566em" y="19.006595592678824em" fill="#aaa"/><rect width="0.9433962264150944em" height="8.439556364295987em" x="7.547169811320755em" y="21.56044363570401em" fill="#aaa"/><rect width="0.9433962264150944em" height="10.000663847197742em" x="8.49056603773585em" y="19.999336152802258em" fill="#aaa"/><rect width="0.9433962264150944em" height="11.228145018673356em" x="9.433962264150944em" y="18.771854981326644em" fill="#aaa"/><rect width="0.9433962264150944em" height="22.993704162272422em" x="10.377358490566039em" y="7.006295837727578em" fill="#aaa"/><rect width="0.9433962264150944em" height="8.62326193140011em" x="11.320754716981131em" y="21.37673806859989em" fill="#aaa"/><rect width="0.9433962264150944em" height="0em" x="12.264150943396226em" y="30em" fill="#aaa"/><rect width="0.9433962264150944em" height="12.720704241471608em" x="13.20754716981132em" y="17.27929575852839em" fill="#aaa"/><rect width="0.9433962264150944em" height="9.859023651357374em" x="14.150943396226415em" y="20.140976348642624em" fill="#aaa"/><rect width="0.9433962264150944em" height="9.013565020581396em" x="15.09433962264151em" y="20.986434979418604em" fill="#aaa"/><rect width="0.9433962264150944em" height="11.036844212316485em" x="16.037735849056602em" y="18.963155787683515em" fill="#aaa"/><rect width="0.9433962264150944em" height="10.426220583583827em" x="16.9811320754717em" y="19.573779416416173em" fill="#aaa"/><rect width="0.9433962264150944em" height="5.98483248628559em" x="17.92452830188679em" y="24.01516751371441em" fill="#aaa"/><rect width="0.9433962264150944em" height="12.848494796334473em" x="18.867924528301888em" y="17.15150520366553em" fill="#aaa"/><rect width="0.9433962264150944em" height="13.237729903137241em" x="19.81132075471698em" y="16.762270096862757em" fill="#aaa"/><rect width="0.9433962264150944em" height="25.938804629706187em" x="20.754716981132077em" y="4.061195370293813em" fill="#aaa"/><rect width="0.9433962264150944em" height="16.151138374916368em" x="21.69811320754717em" y="13.848861625083632em" fill="#aaa"/><rect width="0.9433962264150944em" height="10.544718972003075em" x="22.641509433962263em" y="19.455281027996925em" fill="#aaa"/><rect width="0.9433962264150944em" height="15.467470000966324em" x="23.58490566037736em" y="14.532529999033676em" fill="#aaa"/><rect width="0.9433962264150944em" height="0em" x="24.528301886792452em" y="30em" fill="#aaa"/><rect width="0.9433962264150944em" height="13.433048346200227em" x="25.471698113207548em" y="16.566951653799773em" fill="#aaa"/><rect width="0.9433962264150944em" height="12.540676406213978em" x="26.41509433962264em" y="17.459323593786024em" fill="#aaa"/><rect width="0.9433962264150944em" height="15.957616359427131em" x="27.358490566037737em" y="14.042383640572869em" fill="#aaa"/><rect width="0.9433962264150944em" height="10.314480548895393em" x="28.30188679245283em" y="19.685519451104607em" fill="#aaa"/><rect width="0.9433962264150944em" height="11.716553142858643em" x="29.245283018867926em" y="18.283446857141357em" fill="#aaa"/><rect width="0.9433962264150944em" height="16.001280691347684em" x="30.18867924528302em" y="13.998719308652316em" fill="#aaa"/><rect width="0.9433962264150944em" height="16.68422844300016em" x="31.132075471698112em" y="13.315771556999842em" fill="#aaa"/><rect width="0.9433962264150944em" height="15.195456677058267em" x="32.075471698113205em" y="14.804543322941733em" fill="#aaa"/><rect width="0.9433962264150944em" height="22.063687311959676em" x="33.0188679245283em" y="7.936312688040324em" fill="#aaa"/><rect width="0.9433962264150944em" height="15.74247163921129em" x="33.9622641509434em" y="14.25752836078871em" fill="#aaa"/><rect width="0.9433962264150944em" height="23.974047386207292em" x="34.905660377358494em" y="6.0259526137927075em" fill="#aaa"/><rect width="0.9433962264150944em" height="13.071053360254218em" x="35.84905660377358em" y="16.92894663974578em" fill="#aaa"/><rect width="0.9433962264150944em" height="17.020028579172433em" x="36.79245283018868em" y="12.979971420827567em" fill="#aaa"/><rect width="0.9433962264150944em" height="30em" x="37.735849056603776em" y="0em" fill="#aaa"/><rect width="0.9433962264150944em" height="24.92799619595892em" x="38.679245283018865em" y="5.072003804041081em" fill="#aaa"/><rect width="0.9433962264150944em" height="19.327665734304922em" x="39.62264150943396em" y="10.672334265695078em" fill="#aaa"/><rect width="0.9433962264150944em" height="24.571568483942276em" x="40.56603773584906em" y="5.428431516057724em" fill="#aaa"/><rect width="0.9433962264150944em" height="20.00383000878544em" x="41.509433962264154em" y="9.996169991214561em" fill="#aaa"/><rect width="0.9433962264150944em" height="16.57733969532528em" x="42.45283018867924em" y="13.422660304674721em" fill="#aaa"/><rect width="0.9433962264150944em" height="19.211682194785986em" x="43.39622641509434em" y="10.788317805214014em" fill="#aaa"/><rect width="0.9433962264150944em" height="12.36727445396353em" x="44.339622641509436em" y="17.63272554603647em" fill="#aaa"/><rect width="0.9433962264150944em" height="15.031783460411614em" x="45.283018867924525em" y="14.968216539588386em" fill="#aaa"/><rect width="0.9433962264150944em" height="15.451295915912883em" x="46.22641509433962em" y="14.548704084087117em" fill="#aaa"/><rect width="0.9433962264150944em" height="20.79275238891959em" x="47.16981132075472em" y="9.207247611080408em" fill="#aaa"/><rect width="0.9433962264150944em" height="24.03557690030965em" x="48.113207547169814em" y="5.96442309969035em" fill="#aaa"/><rect width="0.9433962264150944em" height="16.59171720828735em" x="49.056603773584904em" y="13.40828279171265em" fill="#aaa"/><rect width="0.9433962264150944em" height="17.818088239954836em" x="50em" y="12.181911760045164em" fill="#aaa"/><rect width="0.9433962264150944em" height="16.158068975743436em" x="50.943396226415096em" y="13.841931024256564em" fill="#aaa"/><rect width="0.9433962264150944em" height="21.538398111036432em" x="51.88679245283019em" y="8.461601888963568em" fill="#aaa"/><rect width="0.9433962264150944em" height="21.518670125834912em" x="52.83018867924528em" y="8.481329874165088em" fill="#aaa"/><rect width="0.9433962264150944em" height="19.566017583317254em" x="53.77358490566038em" y="10.433982416682746em" fill="#aaa"/><rect width="0.9433962264150944em" height="20.181286054555223em" x="54.716981132075475em" y="9.818713945444777em" fill="#aaa"/><rect width="0.9433962264150944em" height="21.40977071051581em" x="55.660377358490564em" y="8.590229289484189em" fill="#aaa"/><rect width="0.9433962264150944em" height="15.534595984888934em" x="56.60377358490566em" y="14.465404015111066em" fill="#aaa"/><rect width="0.9433962264150944em" height="18.63925743178171em" x="57.54716981132076em" y="11.360742568218289em" fill="#aaa"/><rect width="0.9433962264150944em" height="20.473427783886272em" x="58.49056603773585em" y="9.526572216113728em" fill="#aaa"/><rect width="0.9433962264150944em" height="13.723119440663686em" x="59.43396226415094em" y="16.276880559336313em" fill="#aaa"/><rect width="0.9433962264150944em" height="19.292909034021985em" x="60.37735849056604em" y="10.707090965978015em" fill="#aaa"/><rect width="0.9433962264150944em" height="17.924602186266327em" x="61.320754716981135em" y="12.075397813733673em" fill="#aaa"/><rect width="0.9433962264150944em" height="14.654680147599533em" x="62.264150943396224em" y="15.345319852400467em" fill="#aaa"/><rect width="0.9433962264150944em" height="20.557227546935998em" x="63.20754716981132em" y="9.442772453064002em" fill="#aaa"/><rect width="0.9433962264150944em" height="11.923687725860999em" x="64.15094339622641em" y="18.076312274139em" fill="#aaa"/><rect width="0.9433962264150944em" height="11.344861566589634em" x="65.09433962264151em" y="18.655138433410364em" fill="#aaa"/><rect width="0.9433962264150944em" height="11.717783495812066em" x="66.0377358490566em" y="18.282216504187936em" fill="#aaa"/><rect width="0.9433962264150944em" height="8.192714205029485em" x="66.9811320754717em" y="21.807285794970515em" fill="#aaa"/><rect width="0.9433962264150944em" height="11.226394686484797em" x="67.9245283018868em" y="18.773605313515205em" fill="#aaa"/><rect width="0.9433962264150944em" height="19.90954163552364em" x="68.86792452830188em" y="10.090458364476358em" fill="#aaa"/><rect width="0.9433962264150944em" height="8.844006349194318em" x="69.81132075471699em" y="21.155993650805684em" fill="#aaa"/><rect width="0.9433962264150944em" height="7.740394340839173em" x="70.75471698113208em" y="22.259605659160826em" fill="#aaa"/><rect width="0.9433962264150944em" height="6.032559045870444em" x="71.69811320754717em" y="23.967440954129557em" fill="#aaa"/><rect width="0.9433962264150944em" height="7.463896495568451em" x="72.64150943396227em" y="22.536103504431548em" fill="#aaa"/><rect width="0.9433962264150944em" height="12.923807565746614em" x="73.58490566037736em" y="17.076192434253386em" fill="#aaa"/><rect width="0.9433962264150944em" height="12.236997978395477em" x="74.52830188679245em" y="17.76300202160452em" fill="#aaa"/><rect width="0.9433962264150944em" height="9.023814984939158em" x="75.47169811320755em" y="20.976185015060842em" fill="#aaa"/><rect width="0.9433962264150944em" height="6.333968147143088em" x="76.41509433962264em" y="23.66603185285691em" fill="#aaa"/><rect width="0.9433962264150944em" height="4.860812080558724em" x="77.35849056603773em" y="25.139187919441277em" fill="#aaa"/><rect width="0.9433962264150944em" height="7.1796907360373945em" x="78.30188679245283em" y="22.820309263962606em" fill="#aaa"/><rect width="0.9433962264150944em" height="5.7157310425810905em" x="79.24528301886792em" y="24.28426895741891em" fill="#aaa"/><rect width="0.9433962264150944em" height="6.855505785632235em" x="80.18867924528303em" y="23.144494214367764em" fill="#aaa"/><rect width="0.9433962264150944em" height="8.383212113525067em" x="81.13207547169812em" y="21.61678788647493em" fill="#aaa"/><rect width="0.9433962264150944em" height="7.819980929562709em" x="82.0754716981132em" y="22.18001907043729em" fill="#aaa"/><rect width="0.9433962264150944em" height="4.347264313385798em" x="83.01886792452831em" y="25.6527356866142em" fill="#aaa"/><rect width="0.9433962264150944em" height="8.5458603642802em" x="83.9622641509434em" y="21.454139635719798em" fill="#aaa"/><rect width="0.9433962264150944em" height="6.856657182389888em" x="84.90566037735849em" y="23.14334281761011em" fill="#aaa"/><rect width="0.9433962264150944em" height="7.0467415968618425em" x="85.84905660377359em" y="22.953258403138157em" fill="#aaa"/><rect width="0.9433962264150944em" height="4.573637350931198em" x="86.79245283018868em" y="25.426362649068803em" fill="#aaa"/><rect width="0.9433962264150944em" height="7.675045088015385em" x="87.73584905660377em" y="22.324954911984616em" fill="#aaa"/><rect width="0.9433962264150944em" height="6.078257216818887em" x="88.67924528301887em" y="23.921742783181113em" fill="#aaa"/><rect width="0.9433962264150944em" height="7.011175474725946em" x="89.62264150943396em" y="22.988824525274055em" fill="#aaa"/><rect width="0.9433962264150944em" height="10.578089196293357em" x="90.56603773584905em" y="19.421910803706645em" fill="#aaa"/><rect width="0.9433962264150944em" height="7.558512633440099em" x="91.50943396226415em" y="22.4414873665599em" fill="#aaa"/><rect width="0.9433962264150944em" height="5.1793928370866995em" x="92.45283018867924em" y="24.8206071629133em" fill="#aaa"/><rect width="0.9433962264150944em" height="6.90939370169201em" x="93.39622641509435em" y="23.09060629830799em" fill="#aaa"/><rect width="0.9433962264150944em" height="5.767438445015641em" x="94.33962264150944em" y="24.232561554984358em" fill="#aaa"/><rect width="0.9433962264150944em" height="5.680060306094303em" x="95.28301886792453em" y="24.319939693905695em" fill="#aaa"/><rect width="0.9433962264150944em" height="4.16747779918176em" x="96.22641509433963em" y="25.83252220081824em" fill="#aaa"/><rect width="0.9433962264150944em" height="5.5605945569851984em" x="97.16981132075472em" y="24.439405443014802em" fill="#aaa"/><rect width="0.9433962264150944em" height="4.680071867146971em" x="98.11320754716981em" y="25.31992813285303em" fill="#aaa"/><rect width="0.9433962264150944em" height="6.296239916456782em" x="99.05660377358491em" y="23.703760083543216em" fill="#aaa"/></svg>