<?xml version="1.0" standalone="no"?>
<svg xmlns:xlink="http://www.w3.org/1999/xlink" xmlns="http://www.w3.org/2000/svg" class="topic-graph" style="width: 100em; height: 30em; text-align: center;"><rect width="0.9433962264150944em" height="0.6779828281898549em" x="0em" y="29.322017171810145em" fill="#aaa"/><rect width="0.9433962264150944em" height="1.1524402462008039em" x="0.9433962264150944em" y="28.847559753799196em" fill="#aaa"/><rect width="0.9433962264150944em" height="1.7426132032770498em" x="1.8867924528301887em" y="28.25738679672295em" fill="#aaa"/><rect width="0.9433962264150944em" height="30em" x="2.830188679245283em" y="0em" fill="#aaa"/><rect width="0.9433962264150944em" height="2.8550589759335705em" x="3.7735849056603774em" y="27.14494102406643em" fill="#aaa"/><rect width="0.9433962264150944em" height="22.373905217388458em" x="4.716981132075472em" y="7.626094782611542em" fill="#aaa"/><rect width="0.9433962264150944em" height="3.611440788318937em" x="5.660377358490566em" y="26.388559211681063em" fill="#aaa"/><rect width="0.9433962264150944em" height="0.7249042196496955em" x="6.60377358490566em" y="29.275095780350306em" fill="#aaa"/><rect width="0.9433962264150944em" height="2.70722226387639em" x="7.547169811320755em" y="27.29277773612361em" fill="#aaa"/><rect width="0.9433962264150944em" height="3.7373439860790105em" x="8.49056603773585em" y="26.26265601392099em" fill="#aaa"/><rect width="0.9433962264150944em" height="2.839879474016663em" x="9.433962264150944em" y="27.160120525983338em" fill="#aaa"/><rect width="0.9433962264150944em" height="3.1150989437536665em" x="10.377358490566039em" y="26.884901056246335em" fill="#aaa"/><rect width="0.9433962264150944em" height="6.4182868973543625em" x="11.320754716981131em" y="23.581713102645637em" fill="#aaa"/><rect width="0.9433962264150944em" height="0em" x="12.264150943396226em" y="30em" fill="#aaa"/><rect width="0.9433962264150944em" height="0.328072406515967em" x="13.20754716981132em" y="29.671927593484032em" fill="#aaa"/><rect width="0.9433962264150944em" height="0.6158148224704465em" x="14.150943396226415em" y="29.384185177529552em" fill="#aaa"/><rect width="0.9433962264150944em" height="1.2111359808990225em" x="15.09433962264151em" y="28.788864019100977em" fill="#aaa"/><rect width="0.9433962264150944em" height="0.5435279109274298em" x="16.037735849056602em" y="29.45647208907257em" fill="#aaa"/><rect width="0.9433962264150944em" height="0.8877520971116691em" x="16.9811320754717em" y="29.11224790288833em" fill="#aaa"/><rect width="0.9433962264150944em" height="2.18011903898773em" x="17.92452830188679em" y="27.81988096101227em" fill="#aaa"/><rect width="0.9433962264150944em" height="1.221254211569201em" x="18.867924528301888em" y="28.7787457884308em" fill="#aaa"/><rect width="0.9433962264150944em" height="1.7635018859864509em" x="19.81132075471698em" y="28.23649811401355em" fill="#aaa"/><rect width="0.9433962264150944em" height="1.6979126994725562em" x="20.754716981132077em" y="28.302087300527443em" fill="#aaa"/><rect width="0.9433962264150944em" height="2.366816352980368em" x="21.69811320754717em" y="27.63318364701963em" fill="#aaa"/><rect width="0.9433962264150944em" height="4.250520349459858em" x="22.641509433962263em" y="25.74947965054014em" fill="#aaa"/><rect width="0.9433962264150944em" height="3.798088965316188em" x="23.58490566037736em" y="26.20191103468381em" fill="#aaa"/><rect width="0.9433962264150944em" height="0em" x="24.528301886792452em" y="30em" fill="#aaa"/><rect width="0.9433962264150944em" height="3.2565431170759487em" x="25.471698113207548em" y="26.74345688292405em" fill="#aaa"/><rect width="0.9433962264150944em" height="0.953244879875323em" x="26.41509433962264em" y="29.046755120124676em" fill="#aaa"/><rect width="0.9433962264150944em" height="1.5996347873417915em" x="27.358490566037737em" y="28.40036521265821em" fill="#aaa"/><rect width="0.9433962264150944em" height="6.740013544048454em" x="28.30188679245283em" y="23.259986455951548em" fill="#aaa"/><rect width="0.9433962264150944em" height="2.3708976819708196em" x="29.245283018867926em" y="27.62910231802918em" fill="#aaa"/><rect width="0.9433962264150944em" height="2.3282668806889664em" x="30.18867924528302em" y="27.671733119311035em" fill="#aaa"/><rect width="0.9433962264150944em" height="1.6250744598736797em" x="31.132075471698112em" y="28.37492554012632em" fill="#aaa"/><rect width="0.9433962264150944em" height="1.8342227495763335em" x="32.075471698113205em" y="28.165777250423666em" fill="#aaa"/><rect width="0.9433962264150944em" height="1.7729627553317961em" x="33.0188679245283em" y="28.227037244668203em" fill="#aaa"/><rect width="0.9433962264150944em" height="0.8418990506850449em" x="33.9622641509434em" y="29.158100949314957em" fill="#aaa"/><rect width="0.9433962264150944em" height="2.428201329431805em" x="34.905660377358494em" y="27.571798670568196em" fill="#aaa"/><rect width="0.9433962264150944em" height="3.467604778652936em" x="35.84905660377358em" y="26.532395221347063em" fill="#aaa"/><rect width="0.9433962264150944em" height="2.1041026248444044em" x="36.79245283018868em" y="27.895897375155595em" fill="#aaa"/><rect width="0.9433962264150944em" height="2.4827899307894628em" x="37.735849056603776em" y="27.517210069210538em" fill="#aaa"/><rect width="0.9433962264150944em" height="1.5395163836072734em" x="38.679245283018865em" y="28.460483616392725em" fill="#aaa"/><rect width="0.9433962264150944em" height="1.4181957528116755em" x="39.62264150943396em" y="28.581804247188323em" fill="#aaa"/><rect width="0.9433962264150944em" height="1.57004682028747em" x="40.56603773584906em" y="28.42995317971253em" fill="#aaa"/><rect width="0.9433962264150944em" height="2.740197104054532em" x="41.509433962264154em" y="27.25980289594547em" fill="#aaa"/><rect width="0.9433962264150944em" height="2.0215099653455155em" x="42.45283018867924em" y="27.978490034654484em" fill="#aaa"/><rect width="0.9433962264150944em" height="1.5097991867215912em" x="43.39622641509434em" y="28.49020081327841em" fill="#aaa"/><rect width="0.9433962264150944em" height="1.4915137971292858em" x="44.339622641509436em" y="28.508486202870714em" fill="#aaa"/><rect width="0.9433962264150944em" height="3.3150635775001405em" x="45.283018867924525em" y="26.68493642249986em" fill="#aaa"/><rect width="0.9433962264150944em" height="3.6893143353302333em" x="46.22641509433962em" y="26.310685664669766em" fill="#aaa"/><rect width="0.9433962264150944em" height="23.669578456298492em" x="47.16981132075472em" y="6.330421543701508em" fill="#aaa"/><rect width="0.9433962264150944em" height="1.1199127475251371em" x="48.113207547169814em" y="28.880087252474862em" fill="#aaa"/><rect width="0.9433962264150944em" height="2.6833574969965617em" x="49.056603773584904em" y="27.31664250300344em" fill="#aaa"/><rect width="0.9433962264150944em" height="7.815816462699078em" x="50em" y="22.18418353730092em" fill="#aaa"/><rect width="0.9433962264150944em" height="8.08369738001502em" x="50.943396226415096em" y="21.916302619984982em" fill="#aaa"/><rect width="0.9433962264150944em" height="24.970642679943772em" x="51.88679245283019em" y="5.029357320056228em" fill="#aaa"/><rect width="0.9433962264150944em" height="1.2826797854509453em" x="52.83018867924528em" y="28.717320214549055em" fill="#aaa"/><rect width="0.9433962264150944em" height="1.448835212941013em" x="53.77358490566038em" y="28.551164787058987em" fill="#aaa"/><rect width="0.9433962264150944em" height="1.1782258606270848em" x="54.716981132075475em" y="28.821774139372916em" fill="#aaa"/><rect width="0.9433962264150944em" height="0.35111774739799945em" x="55.660377358490564em" y="29.648882252602em" fill="#aaa"/><rect width="0.9433962264150944em" height="1.6486108042045728em" x="56.60377358490566em" y="28.351389195795427em" fill="#aaa"/><rect width="0.9433962264150944em" height="1.5037834010309008em" x="57.54716981132076em" y="28.4962165989691em" fill="#aaa"/><rect width="0.9433962264150944em" height="2.3772062467594766em" x="58.49056603773585em" y="27.622793753240522em" fill="#aaa"/><rect width="0.9433962264150944em" height="0.6502328978840677em" x="59.43396226415094em" y="29.349767102115933em" fill="#aaa"/><rect width="0.9433962264150944em" height="0.7270536409142314em" x="60.37735849056604em" y="29.27294635908577em" fill="#aaa"/><rect width="0.9433962264150944em" height="0.454646204002675em" x="61.320754716981135em" y="29.545353795997325em" fill="#aaa"/><rect width="0.9433962264150944em" height="0.820853863614601em" x="62.264150943396224em" y="29.1791461363854em" fill="#aaa"/><rect width="0.9433962264150944em" height="0.611769130329606em" x="63.20754716981132em" y="29.388230869670394em" fill="#aaa"/><rect width="0.9433962264150944em" height="0.5174023416832755em" x="64.15094339622641em" y="29.482597658316724em" fill="#aaa"/><rect width="0.9433962264150944em" height="0.9283988654419826em" x="65.09433962264151em" y="29.071601134558016em" fill="#aaa"/><rect width="0.9433962264150944em" height="0.5977850868753201em" x="66.0377358490566em" y="29.40221491312468em" fill="#aaa"/><rect width="0.9433962264150944em" height="1.1109303677878157em" x="66.9811320754717em" y="28.889069632212184em" fill="#aaa"/><rect width="0.9433962264150944em" height="0.6271197390993918em" x="67.9245283018868em" y="29.372880260900608em" fill="#aaa"/><rect width="0.9433962264150944em" height="0.9387847915797694em" x="68.86792452830188em" y="29.06121520842023em" fill="#aaa"/><rect width="0.9433962264150944em" height="0.4125664561940413em" x="69.81132075471699em" y="29.587433543805957em" fill="#aaa"/><rect width="0.9433962264150944em" height="0.7423889392042313em" x="70.75471698113208em" y="29.257611060795767em" fill="#aaa"/><rect width="0.9433962264150944em" height="1.057246953070953em" x="71.69811320754717em" y="28.94275304692905em" fill="#aaa"/><rect width="0.9433962264150944em" height="0.2688521540877314em" x="72.64150943396227em" y="29.73114784591227em" fill="#aaa"/><rect width="0.9433962264150944em" height="0.17841526045516193em" x="73.58490566037736em" y="29.82158473954484em" fill="#aaa"/><rect width="0.9433962264150944em" height="0.2652694242277658em" x="74.52830188679245em" y="29.734730575772232em" fill="#aaa"/><rect width="0.9433962264150944em" height="0.9006506818119715em" x="75.47169811320755em" y="29.09934931818803em" fill="#aaa"/><rect width="0.9433962264150944em" height="0.2409643586541544em" x="76.41509433962264em" y="29.759035641345847em" fill="#aaa"/><rect width="0.9433962264150944em" height="0.3276893294488812em" x="77.35849056603773em" y="29.67231067055112em" fill="#aaa"/><rect width="0.9433962264150944em" height="0.7339533004101981em" x="78.30188679245283em" y="29.2660466995898em" fill="#aaa"/><rect width="0.9433962264150944em" height="0.6935032092243865em" x="79.24528301886792em" y="29.306496790775615em" fill="#aaa"/><rect width="0.9433962264150944em" height="0.8308357081286474em" x="80.18867924528303em" y="29.169164291871354em" fill="#aaa"/><rect width="0.9433962264150944em" height="0.7191502735724172em" x="81.13207547169812em" y="29.280849726427583em" fill="#aaa"/><rect width="0.9433962264150944em" height="0.9837627568178434em" x="82.0754716981132em" y="29.016237243182157em" fill="#aaa"/><rect width="0.9433962264150944em" height="1.1565204909343394em" x="83.01886792452831em" y="28.84347950906566em" fill="#aaa"/><rect width="0.9433962264150944em" height="0.6959737111798648em" x="83.9622641509434em" y="29.304026288820136em" fill="#aaa"/><rect width="0.9433962264150944em" height="0.5454434547873933em" x="84.90566037735849em" y="29.454556545212608em" fill="#aaa"/><rect width="0.9433962264150944em" height="0.8645435086399083em" x="85.84905660377359em" y="29.13545649136009em" fill="#aaa"/><rect width="0.9433962264150944em" height="0.5913988263659252em" x="86.79245283018868em" y="29.408601173634075em" fill="#aaa"/><rect width="0.9433962264150944em" height="1.936028773448304em" x="87.73584905660377em" y="28.063971226551697em" fill="#aaa"/><rect width="0.9433962264150944em" height="0.9514197112533798em" x="88.67924528301887em" y="29.04858028874662em" fill="#aaa"/><rect width="0.9433962264150944em" height="0.6440887236463473em" x="89.62264150943396em" y="29.355911276353652em" fill="#aaa"/><rect width="0.9433962264150944em" height="1.0556330575049397em" x="90.56603773584905em" y="28.94436694249506em" fill="#aaa"/><rect width="0.9433962264150944em" height="0.9618464578490126em" x="91.50943396226415em" y="29.038153542150987em" fill="#aaa"/><rect width="0.9433962264150944em" height="1.619721929412991em" x="92.45283018867924em" y="28.38027807058701em" fill="#aaa"/><rect width="0.9433962264150944em" height="0.8893971394351287em" x="93.39622641509435em" y="29.11060286056487em" fill="#aaa"/><rect width="0.9433962264150944em" height="1.3654328376800766em" x="94.33962264150944em" y="28.634567162319925em" fill="#aaa"/><rect width="0.9433962264150944em" height="0.5992815420785411em" x="95.28301886792453em" y="29.40071845792146em" fill="#aaa"/><rect width="0.9433962264150944em" height="0.8124213264670312em" x="96.22641509433963em" y="29.18757867353297em" fill="#aaa"/><rect width="0.9433962264150944em" height="0.47986177496940813em" x="97.16981132075472em" y="29.520138225030593em" fill="#aaa"/><rect width="0.9433962264150944em" height="0.8192947239714319em" x="98.11320754716981em" y="29.18070527602857em" fill="#aaa"/><rect width="0.9433962264150944em" height="0.7305606604877835em" x="99.05660377358491em" y="29.269439339512218em" fill="#aaa"/></svg>