<?xml version="1.0" standalone="no"?>
<svg xmlns:xlink="http://www.w3.org/1999/xlink" xmlns="http://www.w3.org/2000/svg" class="topic-graph" style="width: 100em; height: 30em; text-align: center;"><rect width="0.9433962264150944em" height="5.631770810583174em" x="0em" y="24.368229189416827em" fill="#aaa"/><rect width="0.9433962264150944em" height="3.6661380196185522em" x="0.9433962264150944em" y="26.33386198038145em" fill="#aaa"/><rect width="0.9433962264150944em" height="5.421195851917138em" x="1.8867924528301887em" y="24.578804148082863em" fill="#aaa"/><rect width="0.9433962264150944em" height="4.5972831561177525em" x="2.830188679245283em" y="25.402716843882246em" fill="#aaa"/><rect width="0.9433962264150944em" height="3.0557572490415734em" x="3.7735849056603774em" y="26.944242750958427em" fill="#aaa"/><rect width="0.9433962264150944em" height="2.2553277770622735em" x="4.716981132075472em" y="27.744672222937727em" fill="#aaa"/><rect width="0.9433962264150944em" height="5.431045673484336em" x="5.660377358490566em" y="24.568954326515666em" fill="#aaa"/><rect width="0.9433962264150944em" height="0.24483293988291738em" x="6.60377358490566em" y="29.75516706011708em" fill="#aaa"/><rect width="0.9433962264150944em" height="4.744457078404522em" x="7.547169811320755em" y="25.255542921595477em" fill="#aaa"/><rect width="0.9433962264150944em" height="12.843195431865018em" x="8.49056603773585em" y="17.15680456813498em" fill="#aaa"/><rect width="0.9433962264150944em" height="2.8974222381858894em" x="9.433962264150944em" y="27.10257776181411em" fill="#aaa"/><rect width="0.9433962264150944em" height="2.6322549175360335em" x="10.377358490566039em" y="27.367745082463966em" fill="#aaa"/><rect width="0.9433962264150944em" height="6.038738283104221em" x="11.320754716981131em" y="23.961261716895777em" fill="#aaa"/><rect width="0.9433962264150944em" height="0em" x="12.264150943396226em" y="30em" fill="#aaa"/><rect width="0.9433962264150944em" height="3.680857805041975em" x="13.20754716981132em" y="26.319142194958026em" fill="#aaa"/><rect width="0.9433962264150944em" height="3.0062571212605977em" x="14.150943396226415em" y="26.993742878739404em" fill="#aaa"/><rect width="0.9433962264150944em" height="2.259141816947145em" x="15.09433962264151em" y="27.740858183052854em" fill="#aaa"/><rect width="0.9433962264150944em" height="14.399048440116875em" x="16.037735849056602em" y="15.600951559883125em" fill="#aaa"/><rect width="0.9433962264150944em" height="2.5639012020191685em" x="16.9811320754717em" y="27.436098797980833em" fill="#aaa"/><rect width="0.9433962264150944em" height="1.6161506439671913em" x="17.92452830188679em" y="28.38384935603281em" fill="#aaa"/><rect width="0.9433962264150944em" height="12.315029495220532em" x="18.867924528301888em" y="17.684970504779468em" fill="#aaa"/><rect width="0.9433962264150944em" height="2.8281683388330014em" x="19.81132075471698em" y="27.171831661166998em" fill="#aaa"/><rect width="0.9433962264150944em" height="2.255930965657312em" x="20.754716981132077em" y="27.744069034342687em" fill="#aaa"/><rect width="0.9433962264150944em" height="13.269308521986076em" x="21.69811320754717em" y="16.730691478013924em" fill="#aaa"/><rect width="0.9433962264150944em" height="8.62701290364531em" x="22.641509433962263em" y="21.37298709635469em" fill="#aaa"/><rect width="0.9433962264150944em" height="3.038366332534323em" x="23.58490566037736em" y="26.961633667465676em" fill="#aaa"/><rect width="0.9433962264150944em" height="0em" x="24.528301886792452em" y="30em" fill="#aaa"/><rect width="0.9433962264150944em" height="3.4675847671074895em" x="25.471698113207548em" y="26.53241523289251em" fill="#aaa"/><rect width="0.9433962264150944em" height="8.389153011438928em" x="26.41509433962264em" y="21.61084698856107em" fill="#aaa"/><rect width="0.9433962264150944em" height="6.408257611924098em" x="27.358490566037737em" y="23.5917423880759em" fill="#aaa"/><rect width="0.9433962264150944em" height="5.470314059308605em" x="28.30188679245283em" y="24.529685940691394em" fill="#aaa"/><rect width="0.9433962264150944em" height="6.3513326793999285em" x="29.245283018867926em" y="23.648667320600072em" fill="#aaa"/><rect width="0.9433962264150944em" height="9.979878435152681em" x="30.18867924528302em" y="20.02012156484732em" fill="#aaa"/><rect width="0.9433962264150944em" height="8.713210089195382em" x="31.132075471698112em" y="21.286789910804618em" fill="#aaa"/><rect width="0.9433962264150944em" height="9.909535561228276em" x="32.075471698113205em" y="20.090464438771725em" fill="#aaa"/><rect width="0.9433962264150944em" height="4.088644097173666em" x="33.0188679245283em" y="25.911355902826333em" fill="#aaa"/><rect width="0.9433962264150944em" height="6.148830093595423em" x="33.9622641509434em" y="23.85116990640458em" fill="#aaa"/><rect width="0.9433962264150944em" height="2.567796816483848em" x="34.905660377358494em" y="27.43220318351615em" fill="#aaa"/><rect width="0.9433962264150944em" height="4.028959961320833em" x="35.84905660377358em" y="25.971040038679167em" fill="#aaa"/><rect width="0.9433962264150944em" height="3.2177488577453em" x="36.79245283018868em" y="26.7822511422547em" fill="#aaa"/><rect width="0.9433962264150944em" height="2.655218348579331em" x="37.735849056603776em" y="27.344781651420668em" fill="#aaa"/><rect width="0.9433962264150944em" height="5.095801076582799em" x="38.679245283018865em" y="24.9041989234172em" fill="#aaa"/><rect width="0.9433962264150944em" height="5.68683861995763em" x="39.62264150943396em" y="24.31316138004237em" fill="#aaa"/><rect width="0.9433962264150944em" height="2.469168912097765em" x="40.56603773584906em" y="27.530831087902236em" fill="#aaa"/><rect width="0.9433962264150944em" height="5.796333636395663em" x="41.509433962264154em" y="24.203666363604338em" fill="#aaa"/><rect width="0.9433962264150944em" height="5.783908293291448em" x="42.45283018867924em" y="24.216091706708553em" fill="#aaa"/><rect width="0.9433962264150944em" height="5.073129526737673em" x="43.39622641509434em" y="24.926870473262326em" fill="#aaa"/><rect width="0.9433962264150944em" height="6.642029321322894em" x="44.339622641509436em" y="23.357970678677106em" fill="#aaa"/><rect width="0.9433962264150944em" height="11.649455886062936em" x="45.283018867924525em" y="18.35054411393706em" fill="#aaa"/><rect width="0.9433962264150944em" height="4.010349992918137em" x="46.22641509433962em" y="25.989650007081863em" fill="#aaa"/><rect width="0.9433962264150944em" height="5.206827997981221em" x="47.16981132075472em" y="24.79317200201878em" fill="#aaa"/><rect width="0.9433962264150944em" height="5.699584160897362em" x="48.113207547169814em" y="24.300415839102637em" fill="#aaa"/><rect width="0.9433962264150944em" height="8.120460396290667em" x="49.056603773584904em" y="21.879539603709333em" fill="#aaa"/><rect width="0.9433962264150944em" height="10.62642532518762em" x="50em" y="19.37357467481238em" fill="#aaa"/><rect width="0.9433962264150944em" height="6.183854000402206em" x="50.943396226415096em" y="23.816145999597794em" fill="#aaa"/><rect width="0.9433962264150944em" height="7.046228966373397em" x="51.88679245283019em" y="22.9537710336266em" fill="#aaa"/><rect width="0.9433962264150944em" height="4.601837642625742em" x="52.83018867924528em" y="25.398162357374257em" fill="#aaa"/><rect width="0.9433962264150944em" height="5.29005105269513em" x="53.77358490566038em" y="24.70994894730487em" fill="#aaa"/><rect width="0.9433962264150944em" height="5.878396692069286em" x="54.716981132075475em" y="24.121603307930712em" fill="#aaa"/><rect width="0.9433962264150944em" height="7.805527649975181em" x="55.660377358490564em" y="22.194472350024817em" fill="#aaa"/><rect width="0.9433962264150944em" height="12.45441376079422em" x="56.60377358490566em" y="17.545586239205782em" fill="#aaa"/><rect width="0.9433962264150944em" height="13.322446995612196em" x="57.54716981132076em" y="16.677553004387804em" fill="#aaa"/><rect width="0.9433962264150944em" height="16.708318556752968em" x="58.49056603773585em" y="13.291681443247032em" fill="#aaa"/><rect width="0.9433962264150944em" height="3.8969736346516495em" x="59.43396226415094em" y="26.10302636534835em" fill="#aaa"/><rect width="0.9433962264150944em" height="5.322986933821171em" x="60.37735849056604em" y="24.67701306617883em" fill="#aaa"/><rect width="0.9433962264150944em" height="10.582102274415128em" x="61.320754716981135em" y="19.417897725584872em" fill="#aaa"/><rect width="0.9433962264150944em" height="5.569282110665875em" x="62.264150943396224em" y="24.430717889334126em" fill="#aaa"/><rect width="0.9433962264150944em" height="9.02309443840316em" x="63.20754716981132em" y="20.97690556159684em" fill="#aaa"/><rect width="0.9433962264150944em" height="9.319880887699355em" x="64.15094339622641em" y="20.680119112300645em" fill="#aaa"/><rect width="0.9433962264150944em" height="6.258541364706368em" x="65.09433962264151em" y="23.741458635293633em" fill="#aaa"/><rect width="0.9433962264150944em" height="7.201453125025569em" x="66.0377358490566em" y="22.79854687497443em" fill="#aaa"/><rect width="0.9433962264150944em" height="6.264089637414188em" x="66.9811320754717em" y="23.735910362585813em" fill="#aaa"/><rect width="0.9433962264150944em" height="4.116425045827744em" x="67.9245283018868em" y="25.883574954172257em" fill="#aaa"/><rect width="0.9433962264150944em" height="2.63530821818507em" x="68.86792452830188em" y="27.36469178181493em" fill="#aaa"/><rect width="0.9433962264150944em" height="5.972481371032173em" x="69.81132075471699em" y="24.027518628967826em" fill="#aaa"/><rect width="0.9433962264150944em" height="6.188079927302271em" x="70.75471698113208em" y="23.81192007269773em" fill="#aaa"/><rect width="0.9433962264150944em" height="15.801772578848917em" x="71.69811320754717em" y="14.198227421151083em" fill="#aaa"/><rect width="0.9433962264150944em" height="5.42754055909905em" x="72.64150943396227em" y="24.57245944090095em" fill="#aaa"/><rect width="0.9433962264150944em" height="4.322621605741975em" x="73.58490566037736em" y="25.677378394258024em" fill="#aaa"/><rect width="0.9433962264150944em" height="5.818431429413493em" x="74.52830188679245em" y="24.181568570586506em" fill="#aaa"/><rect width="0.9433962264150944em" height="9.475807871437183em" x="75.47169811320755em" y="20.524192128562817em" fill="#aaa"/><rect width="0.9433962264150944em" height="13.710881443382844em" x="76.41509433962264em" y="16.289118556617154em" fill="#aaa"/><rect width="0.9433962264150944em" height="18.87863942617149em" x="77.35849056603773em" y="11.121360573828511em" fill="#aaa"/><rect width="0.9433962264150944em" height="9.810164822719232em" x="78.30188679245283em" y="20.18983517728077em" fill="#aaa"/><rect width="0.9433962264150944em" height="30em" x="79.24528301886792em" y="0em" fill="#aaa"/><rect width="0.9433962264150944em" height="23.859144218016414em" x="80.18867924528303em" y="6.140855781983586em" fill="#aaa"/><rect width="0.9433962264150944em" height="8.461016326778548em" x="81.13207547169812em" y="21.538983673221452em" fill="#aaa"/><rect width="0.9433962264150944em" height="6.155609612849343em" x="82.0754716981132em" y="23.844390387150657em" fill="#aaa"/><rect width="0.9433962264150944em" height="17.015116051673967em" x="83.01886792452831em" y="12.984883948326033em" fill="#aaa"/><rect width="0.9433962264150944em" height="6.665166759815604em" x="83.9622641509434em" y="23.334833240184395em" fill="#aaa"/><rect width="0.9433962264150944em" height="5.7831602051452915em" x="84.90566037735849em" y="24.216839794854707em" fill="#aaa"/><rect width="0.9433962264150944em" height="9.162802397937886em" x="85.84905660377359em" y="20.837197602062112em" fill="#aaa"/><rect width="0.9433962264150944em" height="7.051756103848469em" x="86.79245283018868em" y="22.94824389615153em" fill="#aaa"/><rect width="0.9433962264150944em" height="7.0063053016021595em" x="87.73584905660377em" y="22.99369469839784em" fill="#aaa"/><rect width="0.9433962264150944em" height="5.852937393519451em" x="88.67924528301887em" y="24.14706260648055em" fill="#aaa"/><rect width="0.9433962264150944em" height="3.9965401399920073em" x="89.62264150943396em" y="26.003459860007993em" fill="#aaa"/><rect width="0.9433962264150944em" height="4.539992331277477em" x="90.56603773584905em" y="25.460007668722522em" fill="#aaa"/><rect width="0.9433962264150944em" height="4.980754279262136em" x="91.50943396226415em" y="25.019245720737864em" fill="#aaa"/><rect width="0.9433962264150944em" height="7.681949132242086em" x="92.45283018867924em" y="22.318050867757915em" fill="#aaa"/><rect width="0.9433962264150944em" height="7.599690378608111em" x="93.39622641509435em" y="22.40030962139189em" fill="#aaa"/><rect width="0.9433962264150944em" height="10.958442217309049em" x="94.33962264150944em" y="19.04155778269095em" fill="#aaa"/><rect width="0.9433962264150944em" height="6.841646990301154em" x="95.28301886792453em" y="23.158353009698846em" fill="#aaa"/><rect width="0.9433962264150944em" height="7.776874260765359em" x="96.22641509433963em" y="22.22312573923464em" fill="#aaa"/><rect width="0.9433962264150944em" height="4.711586847427775em" x="97.16981132075472em" y="25.288413152572225em" fill="#aaa"/><rect width="0.9433962264150944em" height="5.441237220263094em" x="98.11320754716981em" y="24.558762779736906em" fill="#aaa"/><rect width="0.9433962264150944em" height="10.30919981758953em" x="99.05660377358491em" y="19.69080018241047em" fill="#aaa"/></svg>