<?xml version="1.0" standalone="no"?>
<svg xmlns:xlink="http://www.w3.org/1999/xlink" xmlns="http://www.w3.org/2000/svg" class="topic-graph" style="width: 100em; height: 30em; text-align: center;"><rect width="0.9433962264150944em" height="0.7871689174916433em" x="0em" y="29.212831082508355em" fill="#aaa"/><rect width="0.9433962264150944em" height="1.2361831958628349em" x="0.9433962264150944em" y="28.763816804137164em" fill="#aaa"/><rect width="0.9433962264150944em" height="1.4427462695752986em" x="1.8867924528301887em" y="28.5572537304247em" fill="#aaa"/><rect width="0.9433962264150944em" height="0.8399741176470937em" x="2.830188679245283em" y="29.160025882352905em" fill="#aaa"/><rect width="0.9433962264150944em" height="1.3560782508935953em" x="3.7735849056603774em" y="28.643921749106404em" fill="#aaa"/><rect width="0.9433962264150944em" height="2.365913704929972em" x="4.716981132075472em" y="27.634086295070027em" fill="#aaa"/><rect width="0.9433962264150944em" height="0.7677528164991037em" x="5.660377358490566em" y="29.232247183500895em" fill="#aaa"/><rect width="0.9433962264150944em" height="0.19513155816953415em" x="6.60377358490566em" y="29.804868441830465em" fill="#aaa"/><rect width="0.9433962264150944em" height="0.18370336577021182em" x="7.547169811320755em" y="29.81629663422979em" fill="#aaa"/><rect width="0.9433962264150944em" height="0.1309033876264498em" x="8.49056603773585em" y="29.86909661237355em" fill="#aaa"/><rect width="0.9433962264150944em" height="0.7260433888267488em" x="9.433962264150944em" y="29.27395661117325em" fill="#aaa"/><rect width="0.9433962264150944em" height="0.48549497307807266em" x="10.377358490566039em" y="29.514505026921928em" fill="#aaa"/><rect width="0.9433962264150944em" height="1.6179955116035203em" x="11.320754716981131em" y="28.38200448839648em" fill="#aaa"/><rect width="0.9433962264150944em" height="0em" x="12.264150943396226em" y="30em" fill="#aaa"/><rect width="0.9433962264150944em" height="0.5432701993996688em" x="13.20754716981132em" y="29.456729800600332em" fill="#aaa"/><rect width="0.9433962264150944em" height="0.5035365753438327em" x="14.150943396226415em" y="29.496463424656167em" fill="#aaa"/><rect width="0.9433962264150944em" height="0.24598809788142778em" x="15.09433962264151em" y="29.754011902118574em" fill="#aaa"/><rect width="0.9433962264150944em" height="0.8156483114270238em" x="16.037735849056602em" y="29.184351688572978em" fill="#aaa"/><rect width="0.9433962264150944em" height="1.3828992431271208em" x="16.9811320754717em" y="28.61710075687288em" fill="#aaa"/><rect width="0.9433962264150944em" height="0.3592459563193339em" x="17.92452830188679em" y="29.640754043680666em" fill="#aaa"/><rect width="0.9433962264150944em" height="3.177638930103618em" x="18.867924528301888em" y="26.82236106989638em" fill="#aaa"/><rect width="0.9433962264150944em" height="4.272336074278422em" x="19.81132075471698em" y="25.72766392572158em" fill="#aaa"/><rect width="0.9433962264150944em" height="1.3115902266965986em" x="20.754716981132077em" y="28.688409773303402em" fill="#aaa"/><rect width="0.9433962264150944em" height="3.5208785379106597em" x="21.69811320754717em" y="26.47912146208934em" fill="#aaa"/><rect width="0.9433962264150944em" height="0.6635692098201393em" x="22.641509433962263em" y="29.33643079017986em" fill="#aaa"/><rect width="0.9433962264150944em" height="0.912802668282557em" x="23.58490566037736em" y="29.087197331717444em" fill="#aaa"/><rect width="0.9433962264150944em" height="0em" x="24.528301886792452em" y="30em" fill="#aaa"/><rect width="0.9433962264150944em" height="2.4981429808853823em" x="25.471698113207548em" y="27.501857019114617em" fill="#aaa"/><rect width="0.9433962264150944em" height="3.8683200809744687em" x="26.41509433962264em" y="26.13167991902553em" fill="#aaa"/><rect width="0.9433962264150944em" height="9.888112292514215em" x="27.358490566037737em" y="20.111887707485785em" fill="#aaa"/><rect width="0.9433962264150944em" height="5.72679778062786em" x="28.30188679245283em" y="24.27320221937214em" fill="#aaa"/><rect width="0.9433962264150944em" height="3.2250101989917193em" x="29.245283018867926em" y="26.77498980100828em" fill="#aaa"/><rect width="0.9433962264150944em" height="1.501757252624063em" x="30.18867924528302em" y="28.498242747375937em" fill="#aaa"/><rect width="0.9433962264150944em" height="5.777914113692365em" x="31.132075471698112em" y="24.222085886307635em" fill="#aaa"/><rect width="0.9433962264150944em" height="2.058734683020868em" x="32.075471698113205em" y="27.94126531697913em" fill="#aaa"/><rect width="0.9433962264150944em" height="5.531746008812129em" x="33.0188679245283em" y="24.468253991187872em" fill="#aaa"/><rect width="0.9433962264150944em" height="1.5680799226798299em" x="33.9622641509434em" y="28.43192007732017em" fill="#aaa"/><rect width="0.9433962264150944em" height="2.4571885941205993em" x="34.905660377358494em" y="27.5428114058794em" fill="#aaa"/><rect width="0.9433962264150944em" height="15.157059901554838em" x="35.84905660377358em" y="14.842940098445162em" fill="#aaa"/><rect width="0.9433962264150944em" height="1.4175720042964484em" x="36.79245283018868em" y="28.58242799570355em" fill="#aaa"/><rect width="0.9433962264150944em" height="2.983364838635897em" x="37.735849056603776em" y="27.016635161364103em" fill="#aaa"/><rect width="0.9433962264150944em" height="0.8777088719536947em" x="38.679245283018865em" y="29.122291128046307em" fill="#aaa"/><rect width="0.9433962264150944em" height="4.442287313844647em" x="39.62264150943396em" y="25.557712686155355em" fill="#aaa"/><rect width="0.9433962264150944em" height="1.7629732901245136em" x="40.56603773584906em" y="28.237026709875487em" fill="#aaa"/><rect width="0.9433962264150944em" height="2.0696554192473977em" x="41.509433962264154em" y="27.930344580752603em" fill="#aaa"/><rect width="0.9433962264150944em" height="2.2364942007777557em" x="42.45283018867924em" y="27.763505799222244em" fill="#aaa"/><rect width="0.9433962264150944em" height="6.598192255550288em" x="43.39622641509434em" y="23.401807744449712em" fill="#aaa"/><rect width="0.9433962264150944em" height="4.433273911081409em" x="44.339622641509436em" y="25.566726088918593em" fill="#aaa"/><rect width="0.9433962264150944em" height="2.041023387854096em" x="45.283018867924525em" y="27.958976612145904em" fill="#aaa"/><rect width="0.9433962264150944em" height="6.742033627955722em" x="46.22641509433962em" y="23.25796637204428em" fill="#aaa"/><rect width="0.9433962264150944em" height="10.529022365155068em" x="47.16981132075472em" y="19.47097763484493em" fill="#aaa"/><rect width="0.9433962264150944em" height="2.931404713715201em" x="48.113207547169814em" y="27.0685952862848em" fill="#aaa"/><rect width="0.9433962264150944em" height="0.5318965281173387em" x="49.056603773584904em" y="29.46810347188266em" fill="#aaa"/><rect width="0.9433962264150944em" height="4.13244502481633em" x="50em" y="25.86755497518367em" fill="#aaa"/><rect width="0.9433962264150944em" height="2.2231027868427398em" x="50.943396226415096em" y="27.77689721315726em" fill="#aaa"/><rect width="0.9433962264150944em" height="4.804365726800638em" x="51.88679245283019em" y="25.19563427319936em" fill="#aaa"/><rect width="0.9433962264150944em" height="0.8483598050690472em" x="52.83018867924528em" y="29.151640194930952em" fill="#aaa"/><rect width="0.9433962264150944em" height="6.391419350562117em" x="53.77358490566038em" y="23.608580649437883em" fill="#aaa"/><rect width="0.9433962264150944em" height="4.617062339890414em" x="54.716981132075475em" y="25.382937660109587em" fill="#aaa"/><rect width="0.9433962264150944em" height="3.7877519772159576em" x="55.660377358490564em" y="26.212248022784042em" fill="#aaa"/><rect width="0.9433962264150944em" height="5.119446631903097em" x="56.60377358490566em" y="24.880553368096905em" fill="#aaa"/><rect width="0.9433962264150944em" height="8.98413236045069em" x="57.54716981132076em" y="21.01586763954931em" fill="#aaa"/><rect width="0.9433962264150944em" height="2.9219836227721223em" x="58.49056603773585em" y="27.07801637722788em" fill="#aaa"/><rect width="0.9433962264150944em" height="7.391708700441201em" x="59.43396226415094em" y="22.6082912995588em" fill="#aaa"/><rect width="0.9433962264150944em" height="8.512711435438591em" x="60.37735849056604em" y="21.48728856456141em" fill="#aaa"/><rect width="0.9433962264150944em" height="9.039415194598575em" x="61.320754716981135em" y="20.960584805401425em" fill="#aaa"/><rect width="0.9433962264150944em" height="7.183947518966388em" x="62.264150943396224em" y="22.816052481033612em" fill="#aaa"/><rect width="0.9433962264150944em" height="3.1222965575883452em" x="63.20754716981132em" y="26.877703442411654em" fill="#aaa"/><rect width="0.9433962264150944em" height="3.1802563708555853em" x="64.15094339622641em" y="26.819743629144416em" fill="#aaa"/><rect width="0.9433962264150944em" height="2.8462420464529834em" x="65.09433962264151em" y="27.153757953547018em" fill="#aaa"/><rect width="0.9433962264150944em" height="25.384175008800128em" x="66.0377358490566em" y="4.615824991199872em" fill="#aaa"/><rect width="0.9433962264150944em" height="14.427966290614997em" x="66.9811320754717em" y="15.572033709385003em" fill="#aaa"/><rect width="0.9433962264150944em" height="6.663572853862945em" x="67.9245283018868em" y="23.336427146137055em" fill="#aaa"/><rect width="0.9433962264150944em" height="6.788302670955899em" x="68.86792452830188em" y="23.2116973290441em" fill="#aaa"/><rect width="0.9433962264150944em" height="15.036510428090164em" x="69.81132075471699em" y="14.963489571909836em" fill="#aaa"/><rect width="0.9433962264150944em" height="13.553884801781301em" x="70.75471698113208em" y="16.4461151982187em" fill="#aaa"/><rect width="0.9433962264150944em" height="15.39454078888648em" x="71.69811320754717em" y="14.60545921111352em" fill="#aaa"/><rect width="0.9433962264150944em" height="6.637962884222932em" x="72.64150943396227em" y="23.362037115777067em" fill="#aaa"/><rect width="0.9433962264150944em" height="3.3272148013710146em" x="73.58490566037736em" y="26.672785198628986em" fill="#aaa"/><rect width="0.9433962264150944em" height="15.747341200515939em" x="74.52830188679245em" y="14.252658799484061em" fill="#aaa"/><rect width="0.9433962264150944em" height="3.162217892257639em" x="75.47169811320755em" y="26.83778210774236em" fill="#aaa"/><rect width="0.9433962264150944em" height="8.32435819092628em" x="76.41509433962264em" y="21.67564180907372em" fill="#aaa"/><rect width="0.9433962264150944em" height="10.034673110976918em" x="77.35849056603773em" y="19.965326889023082em" fill="#aaa"/><rect width="0.9433962264150944em" height="8.097500190210182em" x="78.30188679245283em" y="21.902499809789816em" fill="#aaa"/><rect width="0.9433962264150944em" height="2.8047392167452374em" x="79.24528301886792em" y="27.195260783254763em" fill="#aaa"/><rect width="0.9433962264150944em" height="3.580423453354668em" x="80.18867924528303em" y="26.41957654664533em" fill="#aaa"/><rect width="0.9433962264150944em" height="4.8078561580109564em" x="81.13207547169812em" y="25.192143841989044em" fill="#aaa"/><rect width="0.9433962264150944em" height="8.036342931405311em" x="82.0754716981132em" y="21.96365706859469em" fill="#aaa"/><rect width="0.9433962264150944em" height="10.435136647970497em" x="83.01886792452831em" y="19.564863352029505em" fill="#aaa"/><rect width="0.9433962264150944em" height="6.700328583944149em" x="83.9622641509434em" y="23.29967141605585em" fill="#aaa"/><rect width="0.9433962264150944em" height="3.970782379358872em" x="84.90566037735849em" y="26.029217620641127em" fill="#aaa"/><rect width="0.9433962264150944em" height="19.312527118851893em" x="85.84905660377359em" y="10.687472881148107em" fill="#aaa"/><rect width="0.9433962264150944em" height="13.827071320155303em" x="86.79245283018868em" y="16.172928679844695em" fill="#aaa"/><rect width="0.9433962264150944em" height="19.66211611589737em" x="87.73584905660377em" y="10.33788388410263em" fill="#aaa"/><rect width="0.9433962264150944em" height="7.472540626322867em" x="88.67924528301887em" y="22.527459373677132em" fill="#aaa"/><rect width="0.9433962264150944em" height="2.5529381430904934em" x="89.62264150943396em" y="27.447061856909507em" fill="#aaa"/><rect width="0.9433962264150944em" height="11.618941036109431em" x="90.56603773584905em" y="18.381058963890567em" fill="#aaa"/><rect width="0.9433962264150944em" height="6.605138734056421em" x="91.50943396226415em" y="23.39486126594358em" fill="#aaa"/><rect width="0.9433962264150944em" height="5.305614436546936em" x="92.45283018867924em" y="24.694385563453064em" fill="#aaa"/><rect width="0.9433962264150944em" height="6.993917678558524em" x="93.39622641509435em" y="23.006082321441475em" fill="#aaa"/><rect width="0.9433962264150944em" height="5.970656824714886em" x="94.33962264150944em" y="24.029343175285113em" fill="#aaa"/><rect width="0.9433962264150944em" height="11.305609719363542em" x="95.28301886792453em" y="18.69439028063646em" fill="#aaa"/><rect width="0.9433962264150944em" height="5.316230906270622em" x="96.22641509433963em" y="24.683769093729378em" fill="#aaa"/><rect width="0.9433962264150944em" height="2.491531661696603em" x="97.16981132075472em" y="27.5084683383034em" fill="#aaa"/><rect width="0.9433962264150944em" height="21.526238400835908em" x="98.11320754716981em" y="8.473761599164092em" fill="#aaa"/><rect width="0.9433962264150944em" height="30em" x="99.05660377358491em" y="0em" fill="#aaa"/></svg>