<?xml version="1.0" standalone="no"?>
<svg xmlns:xlink="http://www.w3.org/1999/xlink" xmlns="http://www.w3.org/2000/svg" class="topic-graph" style="width: 100em; height: 30em; text-align: center;"><rect width="0.9433962264150944em" height="0.0461802281551338em" x="0em" y="29.953819771844866em" fill="#aaa"/><rect width="0.9433962264150944em" height="1.1984430107477797em" x="0.9433962264150944em" y="28.80155698925222em" fill="#aaa"/><rect width="0.9433962264150944em" height="2.8658673420242997em" x="1.8867924528301887em" y="27.1341326579757em" fill="#aaa"/><rect width="0.9433962264150944em" height="2.5917156656252427em" x="2.830188679245283em" y="27.408284334374756em" fill="#aaa"/><rect width="0.9433962264150944em" height="0.9146814984844841em" x="3.7735849056603774em" y="29.085318501515516em" fill="#aaa"/><rect width="0.9433962264150944em" height="4.455526261239523em" x="4.716981132075472em" y="25.544473738760477em" fill="#aaa"/><rect width="0.9433962264150944em" height="2.9821029474848433em" x="5.660377358490566em" y="27.017897052515156em" fill="#aaa"/><rect width="0.9433962264150944em" height="1.1544821353067156em" x="6.60377358490566em" y="28.845517864693285em" fill="#aaa"/><rect width="0.9433962264150944em" height="2.3680045902684586em" x="7.547169811320755em" y="27.63199540973154em" fill="#aaa"/><rect width="0.9433962264150944em" height="1.9758603174019493em" x="8.49056603773585em" y="28.02413968259805em" fill="#aaa"/><rect width="0.9433962264150944em" height="2.0116299466305727em" x="9.433962264150944em" y="27.988370053369426em" fill="#aaa"/><rect width="0.9433962264150944em" height="13.31425668635836em" x="10.377358490566039em" y="16.685743313641638em" fill="#aaa"/><rect width="0.9433962264150944em" height="1.9413075154607964em" x="11.320754716981131em" y="28.058692484539204em" fill="#aaa"/><rect width="0.9433962264150944em" height="0em" x="12.264150943396226em" y="30em" fill="#aaa"/><rect width="0.9433962264150944em" height="3.0180168836862338em" x="13.20754716981132em" y="26.981983116313767em" fill="#aaa"/><rect width="0.9433962264150944em" height="21.3022036096544em" x="14.150943396226415em" y="8.697796390345601em" fill="#aaa"/><rect width="0.9433962264150944em" height="4.312097426210601em" x="15.09433962264151em" y="25.6879025737894em" fill="#aaa"/><rect width="0.9433962264150944em" height="4.399543749190446em" x="16.037735849056602em" y="25.600456250809554em" fill="#aaa"/><rect width="0.9433962264150944em" height="2.7573684412026975em" x="16.9811320754717em" y="27.242631558797303em" fill="#aaa"/><rect width="0.9433962264150944em" height="3.431922178490501em" x="17.92452830188679em" y="26.568077821509497em" fill="#aaa"/><rect width="0.9433962264150944em" height="7.024801674103007em" x="18.867924528301888em" y="22.975198325896994em" fill="#aaa"/><rect width="0.9433962264150944em" height="4.4786230644652365em" x="19.81132075471698em" y="25.521376935534764em" fill="#aaa"/><rect width="0.9433962264150944em" height="7.834964377311171em" x="20.754716981132077em" y="22.16503562268883em" fill="#aaa"/><rect width="0.9433962264150944em" height="6.8291417723358485em" x="21.69811320754717em" y="23.17085822766415em" fill="#aaa"/><rect width="0.9433962264150944em" height="4.834507222464923em" x="22.641509433962263em" y="25.16549277753508em" fill="#aaa"/><rect width="0.9433962264150944em" height="20.46697174557075em" x="23.58490566037736em" y="9.53302825442925em" fill="#aaa"/><rect width="0.9433962264150944em" height="0em" x="24.528301886792452em" y="30em" fill="#aaa"/><rect width="0.9433962264150944em" height="11.161454516377184em" x="25.471698113207548em" y="18.838545483622816em" fill="#aaa"/><rect width="0.9433962264150944em" height="2.7703917015055723em" x="26.41509433962264em" y="27.229608298494426em" fill="#aaa"/><rect width="0.9433962264150944em" height="3.542148884562829em" x="27.358490566037737em" y="26.457851115437172em" fill="#aaa"/><rect width="0.9433962264150944em" height="7.7063258337538585em" x="28.30188679245283em" y="22.29367416624614em" fill="#aaa"/><rect width="0.9433962264150944em" height="3.597074305931765em" x="29.245283018867926em" y="26.402925694068234em" fill="#aaa"/><rect width="0.9433962264150944em" height="4.754742535471853em" x="30.18867924528302em" y="25.245257464528148em" fill="#aaa"/><rect width="0.9433962264150944em" height="5.302201225895865em" x="31.132075471698112em" y="24.697798774104136em" fill="#aaa"/><rect width="0.9433962264150944em" height="7.493545689064094em" x="32.075471698113205em" y="22.506454310935908em" fill="#aaa"/><rect width="0.9433962264150944em" height="2.936103443212238em" x="33.0188679245283em" y="27.06389655678776em" fill="#aaa"/><rect width="0.9433962264150944em" height="6.249716070579587em" x="33.9622641509434em" y="23.750283929420412em" fill="#aaa"/><rect width="0.9433962264150944em" height="30em" x="34.905660377358494em" y="0em" fill="#aaa"/><rect width="0.9433962264150944em" height="2.6400747835036302em" x="35.84905660377358em" y="27.35992521649637em" fill="#aaa"/><rect width="0.9433962264150944em" height="3.0272436020442517em" x="36.79245283018868em" y="26.97275639795575em" fill="#aaa"/><rect width="0.9433962264150944em" height="11.530809033198775em" x="37.735849056603776em" y="18.469190966801225em" fill="#aaa"/><rect width="0.9433962264150944em" height="11.720950811850656em" x="38.679245283018865em" y="18.279049188149344em" fill="#aaa"/><rect width="0.9433962264150944em" height="10.287318476405527em" x="39.62264150943396em" y="19.712681523594473em" fill="#aaa"/><rect width="0.9433962264150944em" height="2.6207027188381495em" x="40.56603773584906em" y="27.37929728116185em" fill="#aaa"/><rect width="0.9433962264150944em" height="0.9116698193687249em" x="41.509433962264154em" y="29.088330180631274em" fill="#aaa"/><rect width="0.9433962264150944em" height="1.980317613223038em" x="42.45283018867924em" y="28.019682386776964em" fill="#aaa"/><rect width="0.9433962264150944em" height="2.3243393768650322em" x="43.39622641509434em" y="27.675660623134966em" fill="#aaa"/><rect width="0.9433962264150944em" height="5.983345852273926em" x="44.339622641509436em" y="24.016654147726072em" fill="#aaa"/><rect width="0.9433962264150944em" height="5.718609072318546em" x="45.283018867924525em" y="24.281390927681453em" fill="#aaa"/><rect width="0.9433962264150944em" height="7.529898375426381em" x="46.22641509433962em" y="22.47010162457362em" fill="#aaa"/><rect width="0.9433962264150944em" height="5.072861922657012em" x="47.16981132075472em" y="24.92713807734299em" fill="#aaa"/><rect width="0.9433962264150944em" height="7.426365577369887em" x="48.113207547169814em" y="22.573634422630114em" fill="#aaa"/><rect width="0.9433962264150944em" height="2.33464783297794em" x="49.056603773584904em" y="27.66535216702206em" fill="#aaa"/><rect width="0.9433962264150944em" height="2.25094377746086em" x="50em" y="27.74905622253914em" fill="#aaa"/><rect width="0.9433962264150944em" height="11.451064740723673em" x="50.943396226415096em" y="18.548935259276327em" fill="#aaa"/><rect width="0.9433962264150944em" height="3.491778327365128em" x="51.88679245283019em" y="26.50822167263487em" fill="#aaa"/><rect width="0.9433962264150944em" height="3.1829255017394478em" x="52.83018867924528em" y="26.817074498260553em" fill="#aaa"/><rect width="0.9433962264150944em" height="2.6177092377665376em" x="53.77358490566038em" y="27.382290762233463em" fill="#aaa"/><rect width="0.9433962264150944em" height="2.868845990494592em" x="54.716981132075475em" y="27.13115400950541em" fill="#aaa"/><rect width="0.9433962264150944em" height="3.193800840794837em" x="55.660377358490564em" y="26.806199159205164em" fill="#aaa"/><rect width="0.9433962264150944em" height="3.433004039177262em" x="56.60377358490566em" y="26.566995960822737em" fill="#aaa"/><rect width="0.9433962264150944em" height="3.3479806473704508em" x="57.54716981132076em" y="26.652019352629548em" fill="#aaa"/><rect width="0.9433962264150944em" height="4.6606146413679665em" x="58.49056603773585em" y="25.339385358632033em" fill="#aaa"/><rect width="0.9433962264150944em" height="2.5307576224992157em" x="59.43396226415094em" y="27.469242377500784em" fill="#aaa"/><rect width="0.9433962264150944em" height="3.9309707550965793em" x="60.37735849056604em" y="26.06902924490342em" fill="#aaa"/><rect width="0.9433962264150944em" height="2.8313533905991055em" x="61.320754716981135em" y="27.168646609400895em" fill="#aaa"/><rect width="0.9433962264150944em" height="3.114318772736489em" x="62.264150943396224em" y="26.88568122726351em" fill="#aaa"/><rect width="0.9433962264150944em" height="3.738973545731941em" x="63.20754716981132em" y="26.26102645426806em" fill="#aaa"/><rect width="0.9433962264150944em" height="1.4252832952711678em" x="64.15094339622641em" y="28.574716704728832em" fill="#aaa"/><rect width="0.9433962264150944em" height="2.246880266926029em" x="65.09433962264151em" y="27.753119733073973em" fill="#aaa"/><rect width="0.9433962264150944em" height="3.583007838263722em" x="66.0377358490566em" y="26.416992161736278em" fill="#aaa"/><rect width="0.9433962264150944em" height="4.634722005000603em" x="66.9811320754717em" y="25.365277994999396em" fill="#aaa"/><rect width="0.9433962264150944em" height="3.8457311982899762em" x="67.9245283018868em" y="26.154268801710025em" fill="#aaa"/><rect width="0.9433962264150944em" height="3.8016596964424574em" x="68.86792452830188em" y="26.198340303557544em" fill="#aaa"/><rect width="0.9433962264150944em" height="3.6318480456863913em" x="69.81132075471699em" y="26.36815195431361em" fill="#aaa"/><rect width="0.9433962264150944em" height="1.3027290521171242em" x="70.75471698113208em" y="28.697270947882878em" fill="#aaa"/><rect width="0.9433962264150944em" height="3.354056162441233em" x="71.69811320754717em" y="26.645943837558768em" fill="#aaa"/><rect width="0.9433962264150944em" height="4.302922845942064em" x="72.64150943396227em" y="25.697077154057936em" fill="#aaa"/><rect width="0.9433962264150944em" height="4.843938619553007em" x="73.58490566037736em" y="25.156061380446992em" fill="#aaa"/><rect width="0.9433962264150944em" height="6.726030193965865em" x="74.52830188679245em" y="23.273969806034135em" fill="#aaa"/><rect width="0.9433962264150944em" height="3.1080062988139776em" x="75.47169811320755em" y="26.891993701186024em" fill="#aaa"/><rect width="0.9433962264150944em" height="3.2693963254663445em" x="76.41509433962264em" y="26.730603674533654em" fill="#aaa"/><rect width="0.9433962264150944em" height="1.8241207005056363em" x="77.35849056603773em" y="28.175879299494362em" fill="#aaa"/><rect width="0.9433962264150944em" height="1.9031373068524136em" x="78.30188679245283em" y="28.096862693147585em" fill="#aaa"/><rect width="0.9433962264150944em" height="4.784285215114177em" x="79.24528301886792em" y="25.215714784885822em" fill="#aaa"/><rect width="0.9433962264150944em" height="8.726735436525786em" x="80.18867924528303em" y="21.273264563474214em" fill="#aaa"/><rect width="0.9433962264150944em" height="5.22869120560297em" x="81.13207547169812em" y="24.77130879439703em" fill="#aaa"/><rect width="0.9433962264150944em" height="4.931651672522806em" x="82.0754716981132em" y="25.068348327477196em" fill="#aaa"/><rect width="0.9433962264150944em" height="7.780591108132637em" x="83.01886792452831em" y="22.219408891867364em" fill="#aaa"/><rect width="0.9433962264150944em" height="3.869929014779188em" x="83.9622641509434em" y="26.13007098522081em" fill="#aaa"/><rect width="0.9433962264150944em" height="2.81150431994745em" x="84.90566037735849em" y="27.18849568005255em" fill="#aaa"/><rect width="0.9433962264150944em" height="2.483778571466284em" x="85.84905660377359em" y="27.516221428533715em" fill="#aaa"/><rect width="0.9433962264150944em" height="1.853496435891355em" x="86.79245283018868em" y="28.146503564108645em" fill="#aaa"/><rect width="0.9433962264150944em" height="2.4129228721464493em" x="87.73584905660377em" y="27.58707712785355em" fill="#aaa"/><rect width="0.9433962264150944em" height="4.744612602728884em" x="88.67924528301887em" y="25.255387397271114em" fill="#aaa"/><rect width="0.9433962264150944em" height="2.897948296462079em" x="89.62264150943396em" y="27.10205170353792em" fill="#aaa"/><rect width="0.9433962264150944em" height="2.3862965796328877em" x="90.56603773584905em" y="27.613703420367113em" fill="#aaa"/><rect width="0.9433962264150944em" height="2.453943839278304em" x="91.50943396226415em" y="27.546056160721697em" fill="#aaa"/><rect width="0.9433962264150944em" height="2.927367084543783em" x="92.45283018867924em" y="27.072632915456218em" fill="#aaa"/><rect width="0.9433962264150944em" height="2.8432308242640887em" x="93.39622641509435em" y="27.15676917573591em" fill="#aaa"/><rect width="0.9433962264150944em" height="3.338039630954348em" x="94.33962264150944em" y="26.66196036904565em" fill="#aaa"/><rect width="0.9433962264150944em" height="2.643335381580604em" x="95.28301886792453em" y="27.356664618419394em" fill="#aaa"/><rect width="0.9433962264150944em" height="3.3313863484509425em" x="96.22641509433963em" y="26.66861365154906em" fill="#aaa"/><rect width="0.9433962264150944em" height="6.5565511195574055em" x="97.16981132075472em" y="23.443448880442595em" fill="#aaa"/><rect width="0.9433962264150944em" height="2.141563135531158em" x="98.11320754716981em" y="27.858436864468842em" fill="#aaa"/><rect width="0.9433962264150944em" height="1.9051579064271373em" x="99.05660377358491em" y="28.09484209357286em" fill="#aaa"/></svg>