<?xml version="1.0" standalone="no"?>
<svg xmlns:xlink="http://www.w3.org/1999/xlink" xmlns="http://www.w3.org/2000/svg" class="topic-graph" style="width: 100em; height: 30em; text-align: center;"><rect width="0.9433962264150944em" height="0.04989409877223997em" x="0em" y="29.95010590122776em" fill="#aaa"/><rect width="0.9433962264150944em" height="0.1266649444922643em" x="0.9433962264150944em" y="29.873335055507734em" fill="#aaa"/><rect width="0.9433962264150944em" height="0.046790175363753995em" x="1.8867924528301887em" y="29.953209824636247em" fill="#aaa"/><rect width="0.9433962264150944em" height="0.017244439013866325em" x="2.830188679245283em" y="29.982755560986135em" fill="#aaa"/><rect width="0.9433962264150944em" height="0.2327241191882548em" x="3.7735849056603774em" y="29.767275880811745em" fill="#aaa"/><rect width="0.9433962264150944em" height="0.061205509264789466em" x="4.716981132075472em" y="29.938794490735212em" fill="#aaa"/><rect width="0.9433962264150944em" height="0.1637025027153534em" x="5.660377358490566em" y="29.836297497284647em" fill="#aaa"/><rect width="0.9433962264150944em" height="0.21738145901111908em" x="6.60377358490566em" y="29.78261854098888em" fill="#aaa"/><rect width="0.9433962264150944em" height="0.5647534011708437em" x="7.547169811320755em" y="29.435246598829156em" fill="#aaa"/><rect width="0.9433962264150944em" height="0.20713917394922873em" x="8.49056603773585em" y="29.79286082605077em" fill="#aaa"/><rect width="0.9433962264150944em" height="0.5822260170464167em" x="9.433962264150944em" y="29.417773982953584em" fill="#aaa"/><rect width="0.9433962264150944em" height="0.07922462483066096em" x="10.377358490566039em" y="29.920775375169338em" fill="#aaa"/><rect width="0.9433962264150944em" height="0.18835062324396634em" x="11.320754716981131em" y="29.811649376756034em" fill="#aaa"/><rect width="0.9433962264150944em" height="0em" x="12.264150943396226em" y="30em" fill="#aaa"/><rect width="0.9433962264150944em" height="0.8092888756485933em" x="13.20754716981132em" y="29.190711124351406em" fill="#aaa"/><rect width="0.9433962264150944em" height="0.7120979380292616em" x="14.150943396226415em" y="29.287902061970737em" fill="#aaa"/><rect width="0.9433962264150944em" height="0.4568210515059648em" x="15.09433962264151em" y="29.543178948494035em" fill="#aaa"/><rect width="0.9433962264150944em" height="0.551272634460806em" x="16.037735849056602em" y="29.448727365539195em" fill="#aaa"/><rect width="0.9433962264150944em" height="1.6358424208501852em" x="16.9811320754717em" y="28.364157579149815em" fill="#aaa"/><rect width="0.9433962264150944em" height="0.24637355119535836em" x="17.92452830188679em" y="29.753626448804642em" fill="#aaa"/><rect width="0.9433962264150944em" height="0.15554359116011476em" x="18.867924528301888em" y="29.844456408839886em" fill="#aaa"/><rect width="0.9433962264150944em" height="0.1960741499602866em" x="19.81132075471698em" y="29.803925850039715em" fill="#aaa"/><rect width="0.9433962264150944em" height="0.896061037481923em" x="20.754716981132077em" y="29.103938962518075em" fill="#aaa"/><rect width="0.9433962264150944em" height="0.5164780131931843em" x="21.69811320754717em" y="29.483521986806817em" fill="#aaa"/><rect width="0.9433962264150944em" height="0.5766918234196547em" x="22.641509433962263em" y="29.423308176580345em" fill="#aaa"/><rect width="0.9433962264150944em" height="0.38452624991662016em" x="23.58490566037736em" y="29.61547375008338em" fill="#aaa"/><rect width="0.9433962264150944em" height="0em" x="24.528301886792452em" y="30em" fill="#aaa"/><rect width="0.9433962264150944em" height="0.4414162374837328em" x="25.471698113207548em" y="29.558583762516268em" fill="#aaa"/><rect width="0.9433962264150944em" height="0.8577771734968386em" x="26.41509433962264em" y="29.14222282650316em" fill="#aaa"/><rect width="0.9433962264150944em" height="0.48765724813611566em" x="27.358490566037737em" y="29.512342751863883em" fill="#aaa"/><rect width="0.9433962264150944em" height="0.1463906208398849em" x="28.30188679245283em" y="29.853609379160115em" fill="#aaa"/><rect width="0.9433962264150944em" height="0.4556786583559573em" x="29.245283018867926em" y="29.544321341644043em" fill="#aaa"/><rect width="0.9433962264150944em" height="0.5459228466593056em" x="30.18867924528302em" y="29.454077153340695em" fill="#aaa"/><rect width="0.9433962264150944em" height="0.46488160536575035em" x="31.132075471698112em" y="29.53511839463425em" fill="#aaa"/><rect width="0.9433962264150944em" height="0.6133637961848818em" x="32.075471698113205em" y="29.38663620381512em" fill="#aaa"/><rect width="0.9433962264150944em" height="0.27163112615104007em" x="33.0188679245283em" y="29.72836887384896em" fill="#aaa"/><rect width="0.9433962264150944em" height="0.510391573241904em" x="33.9622641509434em" y="29.489608426758096em" fill="#aaa"/><rect width="0.9433962264150944em" height="0.25415299662271196em" x="34.905660377358494em" y="29.74584700337729em" fill="#aaa"/><rect width="0.9433962264150944em" height="0.4621285902541606em" x="35.84905660377358em" y="29.53787140974584em" fill="#aaa"/><rect width="0.9433962264150944em" height="0.4697742605436225em" x="36.79245283018868em" y="29.530225739456377em" fill="#aaa"/><rect width="0.9433962264150944em" height="0.6551028883385274em" x="37.735849056603776em" y="29.344897111661474em" fill="#aaa"/><rect width="0.9433962264150944em" height="0.555656097854195em" x="38.679245283018865em" y="29.444343902145803em" fill="#aaa"/><rect width="0.9433962264150944em" height="2.257427766922186em" x="39.62264150943396em" y="27.742572233077816em" fill="#aaa"/><rect width="0.9433962264150944em" height="0.3269589256854711em" x="40.56603773584906em" y="29.67304107431453em" fill="#aaa"/><rect width="0.9433962264150944em" height="1.3038299724303364em" x="41.509433962264154em" y="28.696170027569664em" fill="#aaa"/><rect width="0.9433962264150944em" height="0.8618344810299008em" x="42.45283018867924em" y="29.138165518970098em" fill="#aaa"/><rect width="0.9433962264150944em" height="1.3211255648351607em" x="43.39622641509434em" y="28.67887443516484em" fill="#aaa"/><rect width="0.9433962264150944em" height="1.0873272581706788em" x="44.339622641509436em" y="28.912672741829322em" fill="#aaa"/><rect width="0.9433962264150944em" height="1.5426904789157518em" x="45.283018867924525em" y="28.457309521084248em" fill="#aaa"/><rect width="0.9433962264150944em" height="0.8144635985556269em" x="46.22641509433962em" y="29.185536401444374em" fill="#aaa"/><rect width="0.9433962264150944em" height="0.7864316083573407em" x="47.16981132075472em" y="29.21356839164266em" fill="#aaa"/><rect width="0.9433962264150944em" height="0.5259451593947261em" x="48.113207547169814em" y="29.474054840605273em" fill="#aaa"/><rect width="0.9433962264150944em" height="2.224077267300904em" x="49.056603773584904em" y="27.775922732699097em" fill="#aaa"/><rect width="0.9433962264150944em" height="1.7702913086938972em" x="50em" y="28.229708691306104em" fill="#aaa"/><rect width="0.9433962264150944em" height="2.465809426276507em" x="50.943396226415096em" y="27.534190573723492em" fill="#aaa"/><rect width="0.9433962264150944em" height="2.3485826528366376em" x="51.88679245283019em" y="27.651417347163363em" fill="#aaa"/><rect width="0.9433962264150944em" height="1.0907266554169985em" x="52.83018867924528em" y="28.909273344583003em" fill="#aaa"/><rect width="0.9433962264150944em" height="0.6405693131679365em" x="53.77358490566038em" y="29.359430686832063em" fill="#aaa"/><rect width="0.9433962264150944em" height="1.341216913182806em" x="54.716981132075475em" y="28.658783086817195em" fill="#aaa"/><rect width="0.9433962264150944em" height="2.8023977487817535em" x="55.660377358490564em" y="27.197602251218246em" fill="#aaa"/><rect width="0.9433962264150944em" height="1.5173210913087027em" x="56.60377358490566em" y="28.482678908691298em" fill="#aaa"/><rect width="0.9433962264150944em" height="1.347060014039838em" x="57.54716981132076em" y="28.652939985960163em" fill="#aaa"/><rect width="0.9433962264150944em" height="2.049030039462748em" x="58.49056603773585em" y="27.95096996053725em" fill="#aaa"/><rect width="0.9433962264150944em" height="1.5898353116585278em" x="59.43396226415094em" y="28.41016468834147em" fill="#aaa"/><rect width="0.9433962264150944em" height="1.736632852546035em" x="60.37735849056604em" y="28.263367147453966em" fill="#aaa"/><rect width="0.9433962264150944em" height="0.4664860573239181em" x="61.320754716981135em" y="29.53351394267608em" fill="#aaa"/><rect width="0.9433962264150944em" height="1.4684765439333645em" x="62.264150943396224em" y="28.531523456066637em" fill="#aaa"/><rect width="0.9433962264150944em" height="2.1738980952055407em" x="63.20754716981132em" y="27.82610190479446em" fill="#aaa"/><rect width="0.9433962264150944em" height="2.10913739680714em" x="64.15094339622641em" y="27.89086260319286em" fill="#aaa"/><rect width="0.9433962264150944em" height="4.976563346022215em" x="65.09433962264151em" y="25.023436653977786em" fill="#aaa"/><rect width="0.9433962264150944em" height="2.591541794998492em" x="66.0377358490566em" y="27.40845820500151em" fill="#aaa"/><rect width="0.9433962264150944em" height="3.575884006486739em" x="66.9811320754717em" y="26.42411599351326em" fill="#aaa"/><rect width="0.9433962264150944em" height="0.8648496786857894em" x="67.9245283018868em" y="29.13515032131421em" fill="#aaa"/><rect width="0.9433962264150944em" height="3.2917717948509098em" x="68.86792452830188em" y="26.70822820514909em" fill="#aaa"/><rect width="0.9433962264150944em" height="11.740151081288053em" x="69.81132075471699em" y="18.259848918711945em" fill="#aaa"/><rect width="0.9433962264150944em" height="5.324689945809878em" x="70.75471698113208em" y="24.67531005419012em" fill="#aaa"/><rect width="0.9433962264150944em" height="4.90692485815383em" x="71.69811320754717em" y="25.09307514184617em" fill="#aaa"/><rect width="0.9433962264150944em" height="1.6859709793919824em" x="72.64150943396227em" y="28.314029020608018em" fill="#aaa"/><rect width="0.9433962264150944em" height="2.624501653913707em" x="73.58490566037736em" y="27.375498346086292em" fill="#aaa"/><rect width="0.9433962264150944em" height="4.672996892959875em" x="74.52830188679245em" y="25.327003107040124em" fill="#aaa"/><rect width="0.9433962264150944em" height="2.8451618450480387em" x="75.47169811320755em" y="27.15483815495196em" fill="#aaa"/><rect width="0.9433962264150944em" height="1.3758938648501462em" x="76.41509433962264em" y="28.624106135149855em" fill="#aaa"/><rect width="0.9433962264150944em" height="2.3027864001044414em" x="77.35849056603773em" y="27.69721359989556em" fill="#aaa"/><rect width="0.9433962264150944em" height="3.0223339168396297em" x="78.30188679245283em" y="26.977666083160372em" fill="#aaa"/><rect width="0.9433962264150944em" height="3.55762558766745em" x="79.24528301886792em" y="26.44237441233255em" fill="#aaa"/><rect width="0.9433962264150944em" height="5.1392973844057em" x="80.18867924528303em" y="24.8607026155943em" fill="#aaa"/><rect width="0.9433962264150944em" height="3.032435092088017em" x="81.13207547169812em" y="26.96756490791198em" fill="#aaa"/><rect width="0.9433962264150944em" height="5.703144943743168em" x="82.0754716981132em" y="24.29685505625683em" fill="#aaa"/><rect width="0.9433962264150944em" height="2.262031354917841em" x="83.01886792452831em" y="27.73796864508216em" fill="#aaa"/><rect width="0.9433962264150944em" height="8.534003522184983em" x="83.9622641509434em" y="21.46599647781502em" fill="#aaa"/><rect width="0.9433962264150944em" height="3.216887625668328em" x="84.90566037735849em" y="26.783112374331672em" fill="#aaa"/><rect width="0.9433962264150944em" height="7.239470071427164em" x="85.84905660377359em" y="22.760529928572836em" fill="#aaa"/><rect width="0.9433962264150944em" height="23.274486988126053em" x="86.79245283018868em" y="6.725513011873947em" fill="#aaa"/><rect width="0.9433962264150944em" height="12.993093231651475em" x="87.73584905660377em" y="17.006906768348525em" fill="#aaa"/><rect width="0.9433962264150944em" height="10.640341642464588em" x="88.67924528301887em" y="19.359658357535412em" fill="#aaa"/><rect width="0.9433962264150944em" height="12.499884142645927em" x="89.62264150943396em" y="17.500115857354075em" fill="#aaa"/><rect width="0.9433962264150944em" height="15.23566895966467em" x="90.56603773584905em" y="14.76433104033533em" fill="#aaa"/><rect width="0.9433962264150944em" height="30em" x="91.50943396226415em" y="0em" fill="#aaa"/><rect width="0.9433962264150944em" height="22.84530434446815em" x="92.45283018867924em" y="7.1546956555318495em" fill="#aaa"/><rect width="0.9433962264150944em" height="19.88925690493542em" x="93.39622641509435em" y="10.110743095064581em" fill="#aaa"/><rect width="0.9433962264150944em" height="13.892105752909275em" x="94.33962264150944em" y="16.107894247090726em" fill="#aaa"/><rect width="0.9433962264150944em" height="5.3378435965373665em" x="95.28301886792453em" y="24.66215640346263em" fill="#aaa"/><rect width="0.9433962264150944em" height="4.77055277003372em" x="96.22641509433963em" y="25.22944722996628em" fill="#aaa"/><rect width="0.9433962264150944em" height="5.82664566196629em" x="97.16981132075472em" y="24.17335433803371em" fill="#aaa"/><rect width="0.9433962264150944em" height="4.490343536194407em" x="98.11320754716981em" y="25.50965646380559em" fill="#aaa"/><rect width="0.9433962264150944em" height="3.0174349178041964em" x="99.05660377358491em" y="26.982565082195805em" fill="#aaa"/></svg>