<?xml version="1.0" standalone="no"?>
<svg xmlns:xlink="http://www.w3.org/1999/xlink" xmlns="http://www.w3.org/2000/svg" class="topic-graph" style="width: 100em; height: 30em; text-align: center;"><rect width="0.9433962264150944em" height="0.02589602178318854em" x="0em" y="29.97410397821681em" fill="#aaa"/><rect width="0.9433962264150944em" height="0.4051533428261846em" x="0.9433962264150944em" y="29.594846657173814em" fill="#aaa"/><rect width="0.9433962264150944em" height="0.6798608105591798em" x="1.8867924528301887em" y="29.32013918944082em" fill="#aaa"/><rect width="0.9433962264150944em" height="0.2461977831096802em" x="2.830188679245283em" y="29.75380221689032em" fill="#aaa"/><rect width="0.9433962264150944em" height="0.23353316648174022em" x="3.7735849056603774em" y="29.76646683351826em" fill="#aaa"/><rect width="0.9433962264150944em" height="0.461911008608432em" x="4.716981132075472em" y="29.538088991391568em" fill="#aaa"/><rect width="0.9433962264150944em" height="0.37133162050499835em" x="5.660377358490566em" y="29.628668379495em" fill="#aaa"/><rect width="0.9433962264150944em" height="0.052415111219084695em" x="6.60377358490566em" y="29.947584888780916em" fill="#aaa"/><rect width="0.9433962264150944em" height="0.12106086132154589em" x="7.547169811320755em" y="29.878939138678454em" fill="#aaa"/><rect width="0.9433962264150944em" height="0.39703129003031623em" x="8.49056603773585em" y="29.602968709969684em" fill="#aaa"/><rect width="0.9433962264150944em" height="0.18911416644641074em" x="9.433962264150944em" y="29.810885833553588em" fill="#aaa"/><rect width="0.9433962264150944em" height="1.4895367170782539em" x="10.377358490566039em" y="28.510463282921748em" fill="#aaa"/><rect width="0.9433962264150944em" height="0.3456890440764403em" x="11.320754716981131em" y="29.65431095592356em" fill="#aaa"/><rect width="0.9433962264150944em" height="0em" x="12.264150943396226em" y="30em" fill="#aaa"/><rect width="0.9433962264150944em" height="0.19374019559230793em" x="13.20754716981132em" y="29.80625980440769em" fill="#aaa"/><rect width="0.9433962264150944em" height="0.4443789422902927em" x="14.150943396226415em" y="29.555621057709708em" fill="#aaa"/><rect width="0.9433962264150944em" height="0.25918189842703765em" x="15.09433962264151em" y="29.740818101572962em" fill="#aaa"/><rect width="0.9433962264150944em" height="0.487695952755968em" x="16.037735849056602em" y="29.512304047244033em" fill="#aaa"/><rect width="0.9433962264150944em" height="0.25563507907261407em" x="16.9811320754717em" y="29.744364920927385em" fill="#aaa"/><rect width="0.9433962264150944em" height="0.20111563970726182em" x="17.92452830188679em" y="29.79888436029274em" fill="#aaa"/><rect width="0.9433962264150944em" height="0.7803329654702726em" x="18.867924528301888em" y="29.219667034529728em" fill="#aaa"/><rect width="0.9433962264150944em" height="0.7274556177867391em" x="19.81132075471698em" y="29.272544382213262em" fill="#aaa"/><rect width="0.9433962264150944em" height="0.5130217319779242em" x="20.754716981132077em" y="29.486978268022074em" fill="#aaa"/><rect width="0.9433962264150944em" height="1.1051075348572819em" x="21.69811320754717em" y="28.894892465142718em" fill="#aaa"/><rect width="0.9433962264150944em" height="0.6970911523434387em" x="22.641509433962263em" y="29.30290884765656em" fill="#aaa"/><rect width="0.9433962264150944em" height="0.7160672891992838em" x="23.58490566037736em" y="29.283932710800716em" fill="#aaa"/><rect width="0.9433962264150944em" height="0em" x="24.528301886792452em" y="30em" fill="#aaa"/><rect width="0.9433962264150944em" height="0.6885567498597293em" x="25.471698113207548em" y="29.31144325014027em" fill="#aaa"/><rect width="0.9433962264150944em" height="1.0518049768005993em" x="26.41509433962264em" y="28.9481950231994em" fill="#aaa"/><rect width="0.9433962264150944em" height="0.721461338214227em" x="27.358490566037737em" y="29.278538661785774em" fill="#aaa"/><rect width="0.9433962264150944em" height="0.2512460505907115em" x="28.30188679245283em" y="29.748753949409288em" fill="#aaa"/><rect width="0.9433962264150944em" height="0.904744475495299em" x="29.245283018867926em" y="29.0952555245047em" fill="#aaa"/><rect width="0.9433962264150944em" height="0.8885530303228347em" x="30.18867924528302em" y="29.111446969677164em" fill="#aaa"/><rect width="0.9433962264150944em" height="1.523095060678539em" x="31.132075471698112em" y="28.47690493932146em" fill="#aaa"/><rect width="0.9433962264150944em" height="0.776421755176774em" x="32.075471698113205em" y="29.223578244823226em" fill="#aaa"/><rect width="0.9433962264150944em" height="0.3241060224371334em" x="33.0188679245283em" y="29.67589397756287em" fill="#aaa"/><rect width="0.9433962264150944em" height="0.9695318919963296em" x="33.9622641509434em" y="29.03046810800367em" fill="#aaa"/><rect width="0.9433962264150944em" height="0.7906373311500272em" x="34.905660377358494em" y="29.209362668849973em" fill="#aaa"/><rect width="0.9433962264150944em" height="0.6444902409855426em" x="35.84905660377358em" y="29.355509759014456em" fill="#aaa"/><rect width="0.9433962264150944em" height="0.8552706478462293em" x="36.79245283018868em" y="29.14472935215377em" fill="#aaa"/><rect width="0.9433962264150944em" height="1.774071308858525em" x="37.735849056603776em" y="28.225928691141476em" fill="#aaa"/><rect width="0.9433962264150944em" height="1.0857597533616334em" x="38.679245283018865em" y="28.914240246638368em" fill="#aaa"/><rect width="0.9433962264150944em" height="4.522674281701745em" x="39.62264150943396em" y="25.477325718298253em" fill="#aaa"/><rect width="0.9433962264150944em" height="1.5218991974551672em" x="40.56603773584906em" y="28.478100802544834em" fill="#aaa"/><rect width="0.9433962264150944em" height="1.34002583187568em" x="41.509433962264154em" y="28.65997416812432em" fill="#aaa"/><rect width="0.9433962264150944em" height="1.6663103926737393em" x="42.45283018867924em" y="28.33368960732626em" fill="#aaa"/><rect width="0.9433962264150944em" height="0.9704770794393509em" x="43.39622641509434em" y="29.029522920560648em" fill="#aaa"/><rect width="0.9433962264150944em" height="1.8593585816661502em" x="44.339622641509436em" y="28.14064141833385em" fill="#aaa"/><rect width="0.9433962264150944em" height="0.5821511630067396em" x="45.283018867924525em" y="29.41784883699326em" fill="#aaa"/><rect width="0.9433962264150944em" height="1.1956590129207225em" x="46.22641509433962em" y="28.80434098707928em" fill="#aaa"/><rect width="0.9433962264150944em" height="1.0331813490627162em" x="47.16981132075472em" y="28.966818650937284em" fill="#aaa"/><rect width="0.9433962264150944em" height="1.1117578192827064em" x="48.113207547169814em" y="28.88824218071729em" fill="#aaa"/><rect width="0.9433962264150944em" height="0.8922484918258821em" x="49.056603773584904em" y="29.10775150817412em" fill="#aaa"/><rect width="0.9433962264150944em" height="0.7164352785160246em" x="50em" y="29.283564721483977em" fill="#aaa"/><rect width="0.9433962264150944em" height="0.7494587103969718em" x="50.943396226415096em" y="29.250541289603028em" fill="#aaa"/><rect width="0.9433962264150944em" height="1.3354647680050595em" x="51.88679245283019em" y="28.66453523199494em" fill="#aaa"/><rect width="0.9433962264150944em" height="0.6001777630763164em" x="52.83018867924528em" y="29.399822236923683em" fill="#aaa"/><rect width="0.9433962264150944em" height="0.3696720359369628em" x="53.77358490566038em" y="29.63032796406304em" fill="#aaa"/><rect width="0.9433962264150944em" height="0.8175646414924227em" x="54.716981132075475em" y="29.182435358507576em" fill="#aaa"/><rect width="0.9433962264150944em" height="1.192979841208725em" x="55.660377358490564em" y="28.807020158791275em" fill="#aaa"/><rect width="0.9433962264150944em" height="2.5362202155990903em" x="56.60377358490566em" y="27.46377978440091em" fill="#aaa"/><rect width="0.9433962264150944em" height="1.4165355721519988em" x="57.54716981132076em" y="28.583464427848em" fill="#aaa"/><rect width="0.9433962264150944em" height="0.8930302921200826em" x="58.49056603773585em" y="29.106969707879916em" fill="#aaa"/><rect width="0.9433962264150944em" height="1.5299889719191035em" x="59.43396226415094em" y="28.470011028080897em" fill="#aaa"/><rect width="0.9433962264150944em" height="0.8834740513152326em" x="60.37735849056604em" y="29.116525948684767em" fill="#aaa"/><rect width="0.9433962264150944em" height="0.8500598091031749em" x="61.320754716981135em" y="29.149940190896825em" fill="#aaa"/><rect width="0.9433962264150944em" height="2.286746825995636em" x="62.264150943396224em" y="27.713253174004365em" fill="#aaa"/><rect width="0.9433962264150944em" height="2.394129546435968em" x="63.20754716981132em" y="27.60587045356403em" fill="#aaa"/><rect width="0.9433962264150944em" height="1.130179252795101em" x="64.15094339622641em" y="28.869820747204898em" fill="#aaa"/><rect width="0.9433962264150944em" height="1.2517606845574827em" x="65.09433962264151em" y="28.748239315442518em" fill="#aaa"/><rect width="0.9433962264150944em" height="1.3732306013309932em" x="66.0377358490566em" y="28.62676939866901em" fill="#aaa"/><rect width="0.9433962264150944em" height="1.6103328937096077em" x="66.9811320754717em" y="28.389667106290393em" fill="#aaa"/><rect width="0.9433962264150944em" height="2.7230498575313047em" x="67.9245283018868em" y="27.276950142468696em" fill="#aaa"/><rect width="0.9433962264150944em" height="1.0680843836810419em" x="68.86792452830188em" y="28.931915616318957em" fill="#aaa"/><rect width="0.9433962264150944em" height="0.8898425606305185em" x="69.81132075471699em" y="29.11015743936948em" fill="#aaa"/><rect width="0.9433962264150944em" height="1.5881589692624247em" x="70.75471698113208em" y="28.411841030737577em" fill="#aaa"/><rect width="0.9433962264150944em" height="2.072122733231162em" x="71.69811320754717em" y="27.92787726676884em" fill="#aaa"/><rect width="0.9433962264150944em" height="1.4038706981333937em" x="72.64150943396227em" y="28.596129301866608em" fill="#aaa"/><rect width="0.9433962264150944em" height="4.567234742878884em" x="73.58490566037736em" y="25.432765257121115em" fill="#aaa"/><rect width="0.9433962264150944em" height="2.5264024301213315em" x="74.52830188679245em" y="27.47359756987867em" fill="#aaa"/><rect width="0.9433962264150944em" height="2.4231081944061343em" x="75.47169811320755em" y="27.576891805593867em" fill="#aaa"/><rect width="0.9433962264150944em" height="2.1942211636224824em" x="76.41509433962264em" y="27.805778836377517em" fill="#aaa"/><rect width="0.9433962264150944em" height="3.128378394622273em" x="77.35849056603773em" y="26.871621605377726em" fill="#aaa"/><rect width="0.9433962264150944em" height="6.340917120942846em" x="78.30188679245283em" y="23.659082879057152em" fill="#aaa"/><rect width="0.9433962264150944em" height="6.816619742100266em" x="79.24528301886792em" y="23.183380257899735em" fill="#aaa"/><rect width="0.9433962264150944em" height="2.756099427385584em" x="80.18867924528303em" y="27.243900572614415em" fill="#aaa"/><rect width="0.9433962264150944em" height="1.8068915936369863em" x="81.13207547169812em" y="28.193108406363013em" fill="#aaa"/><rect width="0.9433962264150944em" height="4.803677461113641em" x="82.0754716981132em" y="25.19632253888636em" fill="#aaa"/><rect width="0.9433962264150944em" height="9.175688172485003em" x="83.01886792452831em" y="20.824311827514997em" fill="#aaa"/><rect width="0.9433962264150944em" height="20.87909938882914em" x="83.9622641509434em" y="9.12090061117086em" fill="#aaa"/><rect width="0.9433962264150944em" height="1.7163721415337325em" x="84.90566037735849em" y="28.283627858466268em" fill="#aaa"/><rect width="0.9433962264150944em" height="10.314803471375555em" x="85.84905660377359em" y="19.685196528624445em" fill="#aaa"/><rect width="0.9433962264150944em" height="3.233232668949857em" x="86.79245283018868em" y="26.766767331050143em" fill="#aaa"/><rect width="0.9433962264150944em" height="5.460829550603162em" x="87.73584905660377em" y="24.53917044939684em" fill="#aaa"/><rect width="0.9433962264150944em" height="2.8102084928883073em" x="88.67924528301887em" y="27.189791507111693em" fill="#aaa"/><rect width="0.9433962264150944em" height="2.3245639361546395em" x="89.62264150943396em" y="27.67543606384536em" fill="#aaa"/><rect width="0.9433962264150944em" height="1.870244557733403em" x="90.56603773584905em" y="28.129755442266596em" fill="#aaa"/><rect width="0.9433962264150944em" height="4.532023214505651em" x="91.50943396226415em" y="25.46797678549435em" fill="#aaa"/><rect width="0.9433962264150944em" height="2.476691482891354em" x="92.45283018867924em" y="27.523308517108646em" fill="#aaa"/><rect width="0.9433962264150944em" height="2.0977562140522896em" x="93.39622641509435em" y="27.90224378594771em" fill="#aaa"/><rect width="0.9433962264150944em" height="3.6093585296121997em" x="94.33962264150944em" y="26.3906414703878em" fill="#aaa"/><rect width="0.9433962264150944em" height="1.6903875742994798em" x="95.28301886792453em" y="28.30961242570052em" fill="#aaa"/><rect width="0.9433962264150944em" height="3.5035993287695em" x="96.22641509433963em" y="26.4964006712305em" fill="#aaa"/><rect width="0.9433962264150944em" height="3.79025289740964em" x="97.16981132075472em" y="26.20974710259036em" fill="#aaa"/><rect width="0.9433962264150944em" height="30em" x="98.11320754716981em" y="0em" fill="#aaa"/><rect width="0.9433962264150944em" height="7.315368436047689em" x="99.05660377358491em" y="22.684631563952312em" fill="#aaa"/></svg>