<?xml version="1.0" standalone="no"?>
<svg xmlns:xlink="http://www.w3.org/1999/xlink" xmlns="http://www.w3.org/2000/svg" class="topic-graph" style="width: 100em; height: 30em; text-align: center;"><rect width="0.9433962264150944em" height="1.2426475845960205em" x="0em" y="28.75735241540398em" fill="#aaa"/><rect width="0.9433962264150944em" height="0.03021189507659984em" x="0.9433962264150944em" y="29.9697881049234em" fill="#aaa"/><rect width="0.9433962264150944em" height="12.870405475716783em" x="1.8867924528301887em" y="17.129594524283217em" fill="#aaa"/><rect width="0.9433962264150944em" height="1.9922448385955773em" x="2.830188679245283em" y="28.007755161404422em" fill="#aaa"/><rect width="0.9433962264150944em" height="1.8166565715096348em" x="3.7735849056603774em" y="28.183343428490364em" fill="#aaa"/><rect width="0.9433962264150944em" height="0.6686376736032342em" x="4.716981132075472em" y="29.331362326396764em" fill="#aaa"/><rect width="0.9433962264150944em" height="6.802935955156256em" x="5.660377358490566em" y="23.197064044843742em" fill="#aaa"/><rect width="0.9433962264150944em" height="0.6364857072455828em" x="6.60377358490566em" y="29.363514292754417em" fill="#aaa"/><rect width="0.9433962264150944em" height="1.254657291865705em" x="7.547169811320755em" y="28.745342708134295em" fill="#aaa"/><rect width="0.9433962264150944em" height="1.4668696257524945em" x="8.49056603773585em" y="28.533130374247506em" fill="#aaa"/><rect width="0.9433962264150944em" height="3.9708294786483234em" x="9.433962264150944em" y="26.029170521351677em" fill="#aaa"/><rect width="0.9433962264150944em" height="1.0418127491918958em" x="10.377358490566039em" y="28.958187250808106em" fill="#aaa"/><rect width="0.9433962264150944em" height="2.661258021720598em" x="11.320754716981131em" y="27.3387419782794em" fill="#aaa"/><rect width="0.9433962264150944em" height="0em" x="12.264150943396226em" y="30em" fill="#aaa"/><rect width="0.9433962264150944em" height="3.440750721334251em" x="13.20754716981132em" y="26.55924927866575em" fill="#aaa"/><rect width="0.9433962264150944em" height="4.670938999612051em" x="14.150943396226415em" y="25.32906100038795em" fill="#aaa"/><rect width="0.9433962264150944em" height="6.694578604108276em" x="15.09433962264151em" y="23.305421395891724em" fill="#aaa"/><rect width="0.9433962264150944em" height="4.467308361022118em" x="16.037735849056602em" y="25.53269163897788em" fill="#aaa"/><rect width="0.9433962264150944em" height="8.653562107852185em" x="16.9811320754717em" y="21.346437892147815em" fill="#aaa"/><rect width="0.9433962264150944em" height="1.6033384992023165em" x="17.92452830188679em" y="28.396661500797684em" fill="#aaa"/><rect width="0.9433962264150944em" height="11.278777686345205em" x="18.867924528301888em" y="18.721222313654795em" fill="#aaa"/><rect width="0.9433962264150944em" height="2.527115809241945em" x="19.81132075471698em" y="27.472884190758055em" fill="#aaa"/><rect width="0.9433962264150944em" height="6.407214180450868em" x="20.754716981132077em" y="23.592785819549132em" fill="#aaa"/><rect width="0.9433962264150944em" height="1.8893981589734907em" x="21.69811320754717em" y="28.110601841026508em" fill="#aaa"/><rect width="0.9433962264150944em" height="1.3884536284000752em" x="22.641509433962263em" y="28.611546371599925em" fill="#aaa"/><rect width="0.9433962264150944em" height="16.792114767934475em" x="23.58490566037736em" y="13.207885232065525em" fill="#aaa"/><rect width="0.9433962264150944em" height="0em" x="24.528301886792452em" y="30em" fill="#aaa"/><rect width="0.9433962264150944em" height="3.5720533108262313em" x="25.471698113207548em" y="26.42794668917377em" fill="#aaa"/><rect width="0.9433962264150944em" height="2.6927614065695558em" x="26.41509433962264em" y="27.307238593430444em" fill="#aaa"/><rect width="0.9433962264150944em" height="2.4786376787826123em" x="27.358490566037737em" y="27.52136232121739em" fill="#aaa"/><rect width="0.9433962264150944em" height="9.667134986778784em" x="28.30188679245283em" y="20.332865013221216em" fill="#aaa"/><rect width="0.9433962264150944em" height="7.8497333598390755em" x="29.245283018867926em" y="22.150266640160925em" fill="#aaa"/><rect width="0.9433962264150944em" height="7.274061608120054em" x="30.18867924528302em" y="22.725938391879946em" fill="#aaa"/><rect width="0.9433962264150944em" height="3.297453446616907em" x="31.132075471698112em" y="26.702546553383094em" fill="#aaa"/><rect width="0.9433962264150944em" height="7.059491707255247em" x="32.075471698113205em" y="22.940508292744752em" fill="#aaa"/><rect width="0.9433962264150944em" height="10.45426433276991em" x="33.0188679245283em" y="19.54573566723009em" fill="#aaa"/><rect width="0.9433962264150944em" height="5.213145193968571em" x="33.9622641509434em" y="24.786854806031428em" fill="#aaa"/><rect width="0.9433962264150944em" height="7.469183285559626em" x="34.905660377358494em" y="22.530816714440373em" fill="#aaa"/><rect width="0.9433962264150944em" height="4.12825048407227em" x="35.84905660377358em" y="25.871749515927732em" fill="#aaa"/><rect width="0.9433962264150944em" height="2.7513487237101817em" x="36.79245283018868em" y="27.24865127628982em" fill="#aaa"/><rect width="0.9433962264150944em" height="2.5162628622221654em" x="37.735849056603776em" y="27.483737137777833em" fill="#aaa"/><rect width="0.9433962264150944em" height="3.8392275969478966em" x="38.679245283018865em" y="26.160772403052103em" fill="#aaa"/><rect width="0.9433962264150944em" height="4.141519476309113em" x="39.62264150943396em" y="25.858480523690886em" fill="#aaa"/><rect width="0.9433962264150944em" height="2.7931665517317414em" x="40.56603773584906em" y="27.20683344826826em" fill="#aaa"/><rect width="0.9433962264150944em" height="2.8939677648707254em" x="41.509433962264154em" y="27.106032235129273em" fill="#aaa"/><rect width="0.9433962264150944em" height="7.0890226549636415em" x="42.45283018867924em" y="22.910977345036358em" fill="#aaa"/><rect width="0.9433962264150944em" height="20.667646712386507em" x="43.39622641509434em" y="9.332353287613493em" fill="#aaa"/><rect width="0.9433962264150944em" height="30em" x="44.339622641509436em" y="0em" fill="#aaa"/><rect width="0.9433962264150944em" height="3.281705681679767em" x="45.283018867924525em" y="26.718294318320233em" fill="#aaa"/><rect width="0.9433962264150944em" height="5.3393286488358065em" x="46.22641509433962em" y="24.660671351164194em" fill="#aaa"/><rect width="0.9433962264150944em" height="13.07988778325696em" x="47.16981132075472em" y="16.92011221674304em" fill="#aaa"/><rect width="0.9433962264150944em" height="15.348552983259072em" x="48.113207547169814em" y="14.651447016740928em" fill="#aaa"/><rect width="0.9433962264150944em" height="1.6315736596864263em" x="49.056603773584904em" y="28.368426340313572em" fill="#aaa"/><rect width="0.9433962264150944em" height="17.31013927155327em" x="50em" y="12.689860728446732em" fill="#aaa"/><rect width="0.9433962264150944em" height="20.412057528563743em" x="50.943396226415096em" y="9.587942471436257em" fill="#aaa"/><rect width="0.9433962264150944em" height="17.53269685291141em" x="51.88679245283019em" y="12.46730314708859em" fill="#aaa"/><rect width="0.9433962264150944em" height="2.257426196306306em" x="52.83018867924528em" y="27.742573803693695em" fill="#aaa"/><rect width="0.9433962264150944em" height="1.1644675093798662em" x="53.77358490566038em" y="28.835532490620135em" fill="#aaa"/><rect width="0.9433962264150944em" height="5.181278335739898em" x="54.716981132075475em" y="24.818721664260103em" fill="#aaa"/><rect width="0.9433962264150944em" height="1.2915899381564706em" x="55.660377358490564em" y="28.70841006184353em" fill="#aaa"/><rect width="0.9433962264150944em" height="3.8799285996198924em" x="56.60377358490566em" y="26.12007140038011em" fill="#aaa"/><rect width="0.9433962264150944em" height="0.7307421125148635em" x="57.54716981132076em" y="29.269257887485136em" fill="#aaa"/><rect width="0.9433962264150944em" height="23.573255980206987em" x="58.49056603773585em" y="6.426744019793013em" fill="#aaa"/><rect width="0.9433962264150944em" height="16.366131862133056em" x="59.43396226415094em" y="13.633868137866944em" fill="#aaa"/><rect width="0.9433962264150944em" height="1.6997591175765587em" x="60.37735849056604em" y="28.30024088242344em" fill="#aaa"/><rect width="0.9433962264150944em" height="5.889114990567984em" x="61.320754716981135em" y="24.110885009432018em" fill="#aaa"/><rect width="0.9433962264150944em" height="5.86600832012331em" x="62.264150943396224em" y="24.13399167987669em" fill="#aaa"/><rect width="0.9433962264150944em" height="0.7376379053701266em" x="63.20754716981132em" y="29.262362094629875em" fill="#aaa"/><rect width="0.9433962264150944em" height="0.925453217275708em" x="64.15094339622641em" y="29.07454678272429em" fill="#aaa"/><rect width="0.9433962264150944em" height="1.4347216250825932em" x="65.09433962264151em" y="28.56527837491741em" fill="#aaa"/><rect width="0.9433962264150944em" height="0.8376661535705192em" x="66.0377358490566em" y="29.16233384642948em" fill="#aaa"/><rect width="0.9433962264150944em" height="0.2410529183663755em" x="66.9811320754717em" y="29.758947081633625em" fill="#aaa"/><rect width="0.9433962264150944em" height="0.8189049986432018em" x="67.9245283018868em" y="29.1810950013568em" fill="#aaa"/><rect width="0.9433962264150944em" height="0.6742327654368812em" x="68.86792452830188em" y="29.32576723456312em" fill="#aaa"/><rect width="0.9433962264150944em" height="0.5304070751505248em" x="69.81132075471699em" y="29.469592924849476em" fill="#aaa"/><rect width="0.9433962264150944em" height="0.5299822915640768em" x="70.75471698113208em" y="29.470017708435922em" fill="#aaa"/><rect width="0.9433962264150944em" height="1.1944548180661705em" x="71.69811320754717em" y="28.80554518193383em" fill="#aaa"/><rect width="0.9433962264150944em" height="29.371034399995807em" x="72.64150943396227em" y="0.628965600004193em" fill="#aaa"/><rect width="0.9433962264150944em" height="1.8818481088103338em" x="73.58490566037736em" y="28.118151891189665em" fill="#aaa"/><rect width="0.9433962264150944em" height="11.015409261336604em" x="74.52830188679245em" y="18.984590738663396em" fill="#aaa"/><rect width="0.9433962264150944em" height="13.39832304770643em" x="75.47169811320755em" y="16.60167695229357em" fill="#aaa"/><rect width="0.9433962264150944em" height="2.804318282664834em" x="76.41509433962264em" y="27.195681717335166em" fill="#aaa"/><rect width="0.9433962264150944em" height="1.317351254223886em" x="77.35849056603773em" y="28.682648745776113em" fill="#aaa"/><rect width="0.9433962264150944em" height="0.5594206940719484em" x="78.30188679245283em" y="29.44057930592805em" fill="#aaa"/><rect width="0.9433962264150944em" height="1.0987455088462066em" x="79.24528301886792em" y="28.901254491153793em" fill="#aaa"/><rect width="0.9433962264150944em" height="5.45832315811658em" x="80.18867924528303em" y="24.54167684188342em" fill="#aaa"/><rect width="0.9433962264150944em" height="1.3477763141752146em" x="81.13207547169812em" y="28.652223685824787em" fill="#aaa"/><rect width="0.9433962264150944em" height="0.8042795578795127em" x="82.0754716981132em" y="29.195720442120486em" fill="#aaa"/><rect width="0.9433962264150944em" height="0.2718604611420811em" x="83.01886792452831em" y="29.72813953885792em" fill="#aaa"/><rect width="0.9433962264150944em" height="0.18835640074455623em" x="83.9622641509434em" y="29.811643599255444em" fill="#aaa"/><rect width="0.9433962264150944em" height="0.746271217334236em" x="84.90566037735849em" y="29.253728782665764em" fill="#aaa"/><rect width="0.9433962264150944em" height="0.2931315182988288em" x="85.84905660377359em" y="29.70686848170117em" fill="#aaa"/><rect width="0.9433962264150944em" height="0.5018753301996215em" x="86.79245283018868em" y="29.49812466980038em" fill="#aaa"/><rect width="0.9433962264150944em" height="0.4924818396353734em" x="87.73584905660377em" y="29.507518160364626em" fill="#aaa"/><rect width="0.9433962264150944em" height="0.41993435290957143em" x="88.67924528301887em" y="29.58006564709043em" fill="#aaa"/><rect width="0.9433962264150944em" height="1.811898126744479em" x="89.62264150943396em" y="28.188101873255523em" fill="#aaa"/><rect width="0.9433962264150944em" height="0.17358336637775829em" x="90.56603773584905em" y="29.82641663362224em" fill="#aaa"/><rect width="0.9433962264150944em" height="0.36941126045285916em" x="91.50943396226415em" y="29.63058873954714em" fill="#aaa"/><rect width="0.9433962264150944em" height="4.425223313489223em" x="92.45283018867924em" y="25.574776686510777em" fill="#aaa"/><rect width="0.9433962264150944em" height="0.6218788343250468em" x="93.39622641509435em" y="29.378121165674955em" fill="#aaa"/><rect width="0.9433962264150944em" height="0.5825653351496273em" x="94.33962264150944em" y="29.417434664850372em" fill="#aaa"/><rect width="0.9433962264150944em" height="1.8934170257742269em" x="95.28301886792453em" y="28.106582974225773em" fill="#aaa"/><rect width="0.9433962264150944em" height="0.7407548052551732em" x="96.22641509433963em" y="29.259245194744828em" fill="#aaa"/><rect width="0.9433962264150944em" height="0.6484230839998092em" x="97.16981132075472em" y="29.35157691600019em" fill="#aaa"/><rect width="0.9433962264150944em" height="0.6912140394967675em" x="98.11320754716981em" y="29.308785960503233em" fill="#aaa"/><rect width="0.9433962264150944em" height="0.5848881961346284em" x="99.05660377358491em" y="29.415111803865372em" fill="#aaa"/></svg>