<?xml version="1.0" standalone="no"?>
<svg xmlns:xlink="http://www.w3.org/1999/xlink" xmlns="http://www.w3.org/2000/svg" class="topic-graph" style="width: 100em; height: 30em; text-align: center;"><rect width="0.9433962264150944em" height="0.05926725312468427em" x="0em" y="29.940732746875316em" fill="#aaa"/><rect width="0.9433962264150944em" height="4.9094619635259455em" x="0.9433962264150944em" y="25.090538036474054em" fill="#aaa"/><rect width="0.9433962264150944em" height="1.7227428369105375em" x="1.8867924528301887em" y="28.277257163089462em" fill="#aaa"/><rect width="0.9433962264150944em" height="4.8376113218400585em" x="2.830188679245283em" y="25.162388678159942em" fill="#aaa"/><rect width="0.9433962264150944em" height="6.770160669644953em" x="3.7735849056603774em" y="23.22983933035505em" fill="#aaa"/><rect width="0.9433962264150944em" height="3.9568823688747186em" x="4.716981132075472em" y="26.04311763112528em" fill="#aaa"/><rect width="0.9433962264150944em" height="5.074733611630496em" x="5.660377358490566em" y="24.925266388369504em" fill="#aaa"/><rect width="0.9433962264150944em" height="1.7375301227848785em" x="6.60377358490566em" y="28.26246987721512em" fill="#aaa"/><rect width="0.9433962264150944em" height="7.776725343640867em" x="7.547169811320755em" y="22.223274656359134em" fill="#aaa"/><rect width="0.9433962264150944em" height="2.5292138442247802em" x="8.49056603773585em" y="27.47078615577522em" fill="#aaa"/><rect width="0.9433962264150944em" height="2.0854415752694417em" x="9.433962264150944em" y="27.914558424730558em" fill="#aaa"/><rect width="0.9433962264150944em" height="11.424797542514167em" x="10.377358490566039em" y="18.575202457485833em" fill="#aaa"/><rect width="0.9433962264150944em" height="7.1677700417283505em" x="11.320754716981131em" y="22.83222995827165em" fill="#aaa"/><rect width="0.9433962264150944em" height="0em" x="12.264150943396226em" y="30em" fill="#aaa"/><rect width="0.9433962264150944em" height="7.533644175954804em" x="13.20754716981132em" y="22.466355824045195em" fill="#aaa"/><rect width="0.9433962264150944em" height="5.0949035581417945em" x="14.150943396226415em" y="24.905096441858205em" fill="#aaa"/><rect width="0.9433962264150944em" height="4.685329363837004em" x="15.09433962264151em" y="25.314670636162994em" fill="#aaa"/><rect width="0.9433962264150944em" height="2.773324462036383em" x="16.037735849056602em" y="27.226675537963615em" fill="#aaa"/><rect width="0.9433962264150944em" height="5.796453445623229em" x="16.9811320754717em" y="24.20354655437677em" fill="#aaa"/><rect width="0.9433962264150944em" height="13.461446684610099em" x="17.92452830188679em" y="16.5385533153899em" fill="#aaa"/><rect width="0.9433962264150944em" height="5.055045498789412em" x="18.867924528301888em" y="24.94495450121059em" fill="#aaa"/><rect width="0.9433962264150944em" height="14.705176533523547em" x="19.81132075471698em" y="15.294823466476453em" fill="#aaa"/><rect width="0.9433962264150944em" height="8.23248535104477em" x="20.754716981132077em" y="21.767514648955228em" fill="#aaa"/><rect width="0.9433962264150944em" height="3.29569827008467em" x="21.69811320754717em" y="26.70430172991533em" fill="#aaa"/><rect width="0.9433962264150944em" height="7.194016233061506em" x="22.641509433962263em" y="22.805983766938496em" fill="#aaa"/><rect width="0.9433962264150944em" height="5.021460741731776em" x="23.58490566037736em" y="24.978539258268224em" fill="#aaa"/><rect width="0.9433962264150944em" height="0em" x="24.528301886792452em" y="30em" fill="#aaa"/><rect width="0.9433962264150944em" height="18.526301177447152em" x="25.471698113207548em" y="11.473698822552848em" fill="#aaa"/><rect width="0.9433962264150944em" height="5.202187949498589em" x="26.41509433962264em" y="24.79781205050141em" fill="#aaa"/><rect width="0.9433962264150944em" height="5.984661234785756em" x="27.358490566037737em" y="24.015338765214246em" fill="#aaa"/><rect width="0.9433962264150944em" height="6.117181613011836em" x="28.30188679245283em" y="23.882818386988163em" fill="#aaa"/><rect width="0.9433962264150944em" height="4.083362619541491em" x="29.245283018867926em" y="25.91663738045851em" fill="#aaa"/><rect width="0.9433962264150944em" height="4.157057467715261em" x="30.18867924528302em" y="25.842942532284738em" fill="#aaa"/><rect width="0.9433962264150944em" height="5.274935065110738em" x="31.132075471698112em" y="24.72506493488926em" fill="#aaa"/><rect width="0.9433962264150944em" height="3.9721331545848937em" x="32.075471698113205em" y="26.027866845415105em" fill="#aaa"/><rect width="0.9433962264150944em" height="5.929597609013541em" x="33.0188679245283em" y="24.07040239098646em" fill="#aaa"/><rect width="0.9433962264150944em" height="9.863876242967091em" x="33.9622641509434em" y="20.13612375703291em" fill="#aaa"/><rect width="0.9433962264150944em" height="3.853833107889458em" x="34.905660377358494em" y="26.146166892110543em" fill="#aaa"/><rect width="0.9433962264150944em" height="10.74651558354196em" x="35.84905660377358em" y="19.25348441645804em" fill="#aaa"/><rect width="0.9433962264150944em" height="15.875258723576517em" x="36.79245283018868em" y="14.124741276423483em" fill="#aaa"/><rect width="0.9433962264150944em" height="7.668130131722711em" x="37.735849056603776em" y="22.331869868277288em" fill="#aaa"/><rect width="0.9433962264150944em" height="4.212537920461137em" x="38.679245283018865em" y="25.787462079538862em" fill="#aaa"/><rect width="0.9433962264150944em" height="7.4956359257090845em" x="39.62264150943396em" y="22.504364074290915em" fill="#aaa"/><rect width="0.9433962264150944em" height="15.624163839158575em" x="40.56603773584906em" y="14.375836160841425em" fill="#aaa"/><rect width="0.9433962264150944em" height="8.676662425564025em" x="41.509433962264154em" y="21.323337574435975em" fill="#aaa"/><rect width="0.9433962264150944em" height="15.263483113583948em" x="42.45283018867924em" y="14.736516886416052em" fill="#aaa"/><rect width="0.9433962264150944em" height="12.828882857910825em" x="43.39622641509434em" y="17.171117142089173em" fill="#aaa"/><rect width="0.9433962264150944em" height="11.390184921699353em" x="44.339622641509436em" y="18.60981507830065em" fill="#aaa"/><rect width="0.9433962264150944em" height="11.97296125609767em" x="45.283018867924525em" y="18.02703874390233em" fill="#aaa"/><rect width="0.9433962264150944em" height="5.800885467517743em" x="46.22641509433962em" y="24.199114532482255em" fill="#aaa"/><rect width="0.9433962264150944em" height="5.726448431972104em" x="47.16981132075472em" y="24.273551568027898em" fill="#aaa"/><rect width="0.9433962264150944em" height="5.560238883025453em" x="48.113207547169814em" y="24.439761116974548em" fill="#aaa"/><rect width="0.9433962264150944em" height="8.161094288878367em" x="49.056603773584904em" y="21.838905711121633em" fill="#aaa"/><rect width="0.9433962264150944em" height="1.9014980310247156em" x="50em" y="28.098501968975285em" fill="#aaa"/><rect width="0.9433962264150944em" height="3.310776610728304em" x="50.943396226415096em" y="26.689223389271696em" fill="#aaa"/><rect width="0.9433962264150944em" height="2.811462565564136em" x="51.88679245283019em" y="27.188537434435865em" fill="#aaa"/><rect width="0.9433962264150944em" height="2.322544430826393em" x="52.83018867924528em" y="27.677455569173606em" fill="#aaa"/><rect width="0.9433962264150944em" height="11.744365639542163em" x="53.77358490566038em" y="18.255634360457837em" fill="#aaa"/><rect width="0.9433962264150944em" height="7.3816112855799005em" x="54.716981132075475em" y="22.6183887144201em" fill="#aaa"/><rect width="0.9433962264150944em" height="3.870343398532972em" x="55.660377358490564em" y="26.129656601467026em" fill="#aaa"/><rect width="0.9433962264150944em" height="6.619313714788573em" x="56.60377358490566em" y="23.380686285211425em" fill="#aaa"/><rect width="0.9433962264150944em" height="8.71297231951959em" x="57.54716981132076em" y="21.28702768048041em" fill="#aaa"/><rect width="0.9433962264150944em" height="9.463058654932453em" x="58.49056603773585em" y="20.536941345067547em" fill="#aaa"/><rect width="0.9433962264150944em" height="4.193307944263193em" x="59.43396226415094em" y="25.806692055736807em" fill="#aaa"/><rect width="0.9433962264150944em" height="6.459743499687066em" x="60.37735849056604em" y="23.540256500312935em" fill="#aaa"/><rect width="0.9433962264150944em" height="12.687529305140556em" x="61.320754716981135em" y="17.312470694859442em" fill="#aaa"/><rect width="0.9433962264150944em" height="10.578892212204167em" x="62.264150943396224em" y="19.421107787795833em" fill="#aaa"/><rect width="0.9433962264150944em" height="5.995870210007681em" x="63.20754716981132em" y="24.00412978999232em" fill="#aaa"/><rect width="0.9433962264150944em" height="4.3048499336330694em" x="64.15094339622641em" y="25.69515006636693em" fill="#aaa"/><rect width="0.9433962264150944em" height="4.461594039709714em" x="65.09433962264151em" y="25.538405960290287em" fill="#aaa"/><rect width="0.9433962264150944em" height="9.033668194128786em" x="66.0377358490566em" y="20.966331805871214em" fill="#aaa"/><rect width="0.9433962264150944em" height="7.644613242319835em" x="66.9811320754717em" y="22.355386757680165em" fill="#aaa"/><rect width="0.9433962264150944em" height="6.066034608881745em" x="67.9245283018868em" y="23.933965391118257em" fill="#aaa"/><rect width="0.9433962264150944em" height="6.833321021741932em" x="68.86792452830188em" y="23.16667897825807em" fill="#aaa"/><rect width="0.9433962264150944em" height="8.790190923890144em" x="69.81132075471699em" y="21.209809076109856em" fill="#aaa"/><rect width="0.9433962264150944em" height="13.482351635314183em" x="70.75471698113208em" y="16.51764836468582em" fill="#aaa"/><rect width="0.9433962264150944em" height="16.23369303826534em" x="71.69811320754717em" y="13.76630696173466em" fill="#aaa"/><rect width="0.9433962264150944em" height="6.821742290942273em" x="72.64150943396227em" y="23.178257709057725em" fill="#aaa"/><rect width="0.9433962264150944em" height="5.277941634698064em" x="73.58490566037736em" y="24.722058365301937em" fill="#aaa"/><rect width="0.9433962264150944em" height="5.432455026056718em" x="74.52830188679245em" y="24.56754497394328em" fill="#aaa"/><rect width="0.9433962264150944em" height="5.640487327151386em" x="75.47169811320755em" y="24.359512672848613em" fill="#aaa"/><rect width="0.9433962264150944em" height="10.696739283200266em" x="76.41509433962264em" y="19.303260716799734em" fill="#aaa"/><rect width="0.9433962264150944em" height="5.853236763463791em" x="77.35849056603773em" y="24.14676323653621em" fill="#aaa"/><rect width="0.9433962264150944em" height="12.971095202065847em" x="78.30188679245283em" y="17.028904797934153em" fill="#aaa"/><rect width="0.9433962264150944em" height="9.212836824329498em" x="79.24528301886792em" y="20.7871631756705em" fill="#aaa"/><rect width="0.9433962264150944em" height="11.90784643137135em" x="80.18867924528303em" y="18.09215356862865em" fill="#aaa"/><rect width="0.9433962264150944em" height="9.519161609479381em" x="81.13207547169812em" y="20.480838390520617em" fill="#aaa"/><rect width="0.9433962264150944em" height="10.542179354710623em" x="82.0754716981132em" y="19.457820645289377em" fill="#aaa"/><rect width="0.9433962264150944em" height="4.502218503194807em" x="83.01886792452831em" y="25.497781496805192em" fill="#aaa"/><rect width="0.9433962264150944em" height="9.856322104250303em" x="83.9622641509434em" y="20.143677895749697em" fill="#aaa"/><rect width="0.9433962264150944em" height="5.72628666551145em" x="84.90566037735849em" y="24.273713334488548em" fill="#aaa"/><rect width="0.9433962264150944em" height="13.973652480431236em" x="85.84905660377359em" y="16.026347519568766em" fill="#aaa"/><rect width="0.9433962264150944em" height="20.060555749923804em" x="86.79245283018868em" y="9.939444250076196em" fill="#aaa"/><rect width="0.9433962264150944em" height="15.964175582086863em" x="87.73584905660377em" y="14.035824417913137em" fill="#aaa"/><rect width="0.9433962264150944em" height="13.465659961921048em" x="88.67924528301887em" y="16.534340038078952em" fill="#aaa"/><rect width="0.9433962264150944em" height="10.774895279782054em" x="89.62264150943396em" y="19.225104720217946em" fill="#aaa"/><rect width="0.9433962264150944em" height="19.474407490723017em" x="90.56603773584905em" y="10.525592509276983em" fill="#aaa"/><rect width="0.9433962264150944em" height="9.831086575068005em" x="91.50943396226415em" y="20.168913424931993em" fill="#aaa"/><rect width="0.9433962264150944em" height="19.460010606842914em" x="92.45283018867924em" y="10.539989393157086em" fill="#aaa"/><rect width="0.9433962264150944em" height="14.930386729461203em" x="93.39622641509435em" y="15.069613270538797em" fill="#aaa"/><rect width="0.9433962264150944em" height="30em" x="94.33962264150944em" y="0em" fill="#aaa"/><rect width="0.9433962264150944em" height="23.431767421881034em" x="95.28301886792453em" y="6.568232578118966em" fill="#aaa"/><rect width="0.9433962264150944em" height="18.82678928408887em" x="96.22641509433963em" y="11.173210715911129em" fill="#aaa"/><rect width="0.9433962264150944em" height="8.57625086520753em" x="97.16981132075472em" y="21.42374913479247em" fill="#aaa"/><rect width="0.9433962264150944em" height="15.485733288553755em" x="98.11320754716981em" y="14.514266711446245em" fill="#aaa"/><rect width="0.9433962264150944em" height="22.809999073920242em" x="99.05660377358491em" y="7.190000926079758em" fill="#aaa"/></svg>