<?xml version="1.0" standalone="no"?>
<svg xmlns:xlink="http://www.w3.org/1999/xlink" xmlns="http://www.w3.org/2000/svg" class="topic-graph" style="width: 100em; height: 30em; text-align: center;"><rect width="0.9433962264150944em" height="0.15586193796088013em" x="0em" y="29.84413806203912em" fill="#aaa"/><rect width="0.9433962264150944em" height="6.371839856584356em" x="0.9433962264150944em" y="23.628160143415645em" fill="#aaa"/><rect width="0.9433962264150944em" height="0.06969371240837148em" x="1.8867924528301887em" y="29.930306287591627em" fill="#aaa"/><rect width="0.9433962264150944em" height="4.856461238408486em" x="2.830188679245283em" y="25.143538761591515em" fill="#aaa"/><rect width="0.9433962264150944em" height="3.7479237620413395em" x="3.7735849056603774em" y="26.25207623795866em" fill="#aaa"/><rect width="0.9433962264150944em" height="2.2380216816363574em" x="4.716981132075472em" y="27.761978318363642em" fill="#aaa"/><rect width="0.9433962264150944em" height="0.14084076823292782em" x="5.660377358490566em" y="29.859159231767073em" fill="#aaa"/><rect width="0.9433962264150944em" height="8.09898823647315em" x="6.60377358490566em" y="21.90101176352685em" fill="#aaa"/><rect width="0.9433962264150944em" height="5.0084901705418385em" x="7.547169811320755em" y="24.99150982945816em" fill="#aaa"/><rect width="0.9433962264150944em" height="0.8144988363389231em" x="8.49056603773585em" y="29.185501163661076em" fill="#aaa"/><rect width="0.9433962264150944em" height="0.1340325438693212em" x="9.433962264150944em" y="29.86596745613068em" fill="#aaa"/><rect width="0.9433962264150944em" height="0.8443140314109803em" x="10.377358490566039em" y="29.15568596858902em" fill="#aaa"/><rect width="0.9433962264150944em" height="1.946847646518603em" x="11.320754716981131em" y="28.053152353481398em" fill="#aaa"/><rect width="0.9433962264150944em" height="0em" x="12.264150943396226em" y="30em" fill="#aaa"/><rect width="0.9433962264150944em" height="2.0096538056889295em" x="13.20754716981132em" y="27.99034619431107em" fill="#aaa"/><rect width="0.9433962264150944em" height="4.971865759777265em" x="14.150943396226415em" y="25.028134240222734em" fill="#aaa"/><rect width="0.9433962264150944em" height="6.982971268791434em" x="15.09433962264151em" y="23.017028731208566em" fill="#aaa"/><rect width="0.9433962264150944em" height="0.6968800198238536em" x="16.037735849056602em" y="29.303119980176145em" fill="#aaa"/><rect width="0.9433962264150944em" height="0.7704288661766484em" x="16.9811320754717em" y="29.229571133823352em" fill="#aaa"/><rect width="0.9433962264150944em" height="1.743443450716414em" x="17.92452830188679em" y="28.256556549283587em" fill="#aaa"/><rect width="0.9433962264150944em" height="4.944146008519176em" x="18.867924528301888em" y="25.055853991480824em" fill="#aaa"/><rect width="0.9433962264150944em" height="2.417413055664325em" x="19.81132075471698em" y="27.582586944335674em" fill="#aaa"/><rect width="0.9433962264150944em" height="29.483575667243343em" x="20.754716981132077em" y="0.5164243327566567em" fill="#aaa"/><rect width="0.9433962264150944em" height="0.6185978936860196em" x="21.69811320754717em" y="29.38140210631398em" fill="#aaa"/><rect width="0.9433962264150944em" height="1.4018564517584617em" x="22.641509433962263em" y="28.598143548241538em" fill="#aaa"/><rect width="0.9433962264150944em" height="3.6774398640344494em" x="23.58490566037736em" y="26.32256013596555em" fill="#aaa"/><rect width="0.9433962264150944em" height="0em" x="24.528301886792452em" y="30em" fill="#aaa"/><rect width="0.9433962264150944em" height="2.3699580807437624em" x="25.471698113207548em" y="27.630041919256236em" fill="#aaa"/><rect width="0.9433962264150944em" height="8.788256994331483em" x="26.41509433962264em" y="21.211743005668517em" fill="#aaa"/><rect width="0.9433962264150944em" height="14.697149024671697em" x="27.358490566037737em" y="15.302850975328303em" fill="#aaa"/><rect width="0.9433962264150944em" height="0.7146992299346109em" x="28.30188679245283em" y="29.28530077006539em" fill="#aaa"/><rect width="0.9433962264150944em" height="3.4814877626067866em" x="29.245283018867926em" y="26.518512237393214em" fill="#aaa"/><rect width="0.9433962264150944em" height="2.031277515288389em" x="30.18867924528302em" y="27.968722484711613em" fill="#aaa"/><rect width="0.9433962264150944em" height="2.542130559723791em" x="31.132075471698112em" y="27.45786944027621em" fill="#aaa"/><rect width="0.9433962264150944em" height="1.0511298971970775em" x="32.075471698113205em" y="28.94887010280292em" fill="#aaa"/><rect width="0.9433962264150944em" height="1.6368494212231641em" x="33.0188679245283em" y="28.363150578776835em" fill="#aaa"/><rect width="0.9433962264150944em" height="1.593216514939967em" x="33.9622641509434em" y="28.406783485060032em" fill="#aaa"/><rect width="0.9433962264150944em" height="3.841603842464215em" x="34.905660377358494em" y="26.158396157535783em" fill="#aaa"/><rect width="0.9433962264150944em" height="4.835601242127864em" x="35.84905660377358em" y="25.164398757872135em" fill="#aaa"/><rect width="0.9433962264150944em" height="2.9193413982526395em" x="36.79245283018868em" y="27.08065860174736em" fill="#aaa"/><rect width="0.9433962264150944em" height="2.534045470176477em" x="37.735849056603776em" y="27.465954529823524em" fill="#aaa"/><rect width="0.9433962264150944em" height="26.093892543755373em" x="38.679245283018865em" y="3.9061074562446265em" fill="#aaa"/><rect width="0.9433962264150944em" height="1.3120020758522437em" x="39.62264150943396em" y="28.687997924147755em" fill="#aaa"/><rect width="0.9433962264150944em" height="20.17719056074324em" x="40.56603773584906em" y="9.822809439256758em" fill="#aaa"/><rect width="0.9433962264150944em" height="15.55121917111468em" x="41.509433962264154em" y="14.44878082888532em" fill="#aaa"/><rect width="0.9433962264150944em" height="11.769598727259666em" x="42.45283018867924em" y="18.230401272740334em" fill="#aaa"/><rect width="0.9433962264150944em" height="8.284180946749565em" x="43.39622641509434em" y="21.715819053250435em" fill="#aaa"/><rect width="0.9433962264150944em" height="2.945753189225155em" x="44.339622641509436em" y="27.054246810774845em" fill="#aaa"/><rect width="0.9433962264150944em" height="4.757736601130295em" x="45.283018867924525em" y="25.242263398869703em" fill="#aaa"/><rect width="0.9433962264150944em" height="11.167747332893514em" x="46.22641509433962em" y="18.832252667106488em" fill="#aaa"/><rect width="0.9433962264150944em" height="3.447295855172539em" x="47.16981132075472em" y="26.552704144827462em" fill="#aaa"/><rect width="0.9433962264150944em" height="11.751079039556414em" x="48.113207547169814em" y="18.248920960443584em" fill="#aaa"/><rect width="0.9433962264150944em" height="3.9971567704152506em" x="49.056603773584904em" y="26.002843229584748em" fill="#aaa"/><rect width="0.9433962264150944em" height="3.700755730144049em" x="50em" y="26.29924426985595em" fill="#aaa"/><rect width="0.9433962264150944em" height="3.029764387431704em" x="50.943396226415096em" y="26.970235612568295em" fill="#aaa"/><rect width="0.9433962264150944em" height="5.447559572097315em" x="51.88679245283019em" y="24.552440427902685em" fill="#aaa"/><rect width="0.9433962264150944em" height="6.223897603735675em" x="52.83018867924528em" y="23.776102396264324em" fill="#aaa"/><rect width="0.9433962264150944em" height="2.673665189096414em" x="53.77358490566038em" y="27.326334810903585em" fill="#aaa"/><rect width="0.9433962264150944em" height="1.7841970374485423em" x="54.716981132075475em" y="28.215802962551457em" fill="#aaa"/><rect width="0.9433962264150944em" height="3.12316331717279em" x="55.660377358490564em" y="26.87683668282721em" fill="#aaa"/><rect width="0.9433962264150944em" height="4.618463083519757em" x="56.60377358490566em" y="25.381536916480243em" fill="#aaa"/><rect width="0.9433962264150944em" height="4.752498499709484em" x="57.54716981132076em" y="25.247501500290518em" fill="#aaa"/><rect width="0.9433962264150944em" height="5.322208156496034em" x="58.49056603773585em" y="24.677791843503968em" fill="#aaa"/><rect width="0.9433962264150944em" height="24.65035842796202em" x="59.43396226415094em" y="5.3496415720379815em" fill="#aaa"/><rect width="0.9433962264150944em" height="14.757155941403667em" x="60.37735849056604em" y="15.242844058596333em" fill="#aaa"/><rect width="0.9433962264150944em" height="11.435049878785497em" x="61.320754716981135em" y="18.5649501212145em" fill="#aaa"/><rect width="0.9433962264150944em" height="5.513511165073465em" x="62.264150943396224em" y="24.486488834926533em" fill="#aaa"/><rect width="0.9433962264150944em" height="9.33997329442213em" x="63.20754716981132em" y="20.66002670557787em" fill="#aaa"/><rect width="0.9433962264150944em" height="10.04161593447202em" x="64.15094339622641em" y="19.95838406552798em" fill="#aaa"/><rect width="0.9433962264150944em" height="4.750113069847941em" x="65.09433962264151em" y="25.24988693015206em" fill="#aaa"/><rect width="0.9433962264150944em" height="9.533946924764368em" x="66.0377358490566em" y="20.46605307523563em" fill="#aaa"/><rect width="0.9433962264150944em" height="6.482832179394684em" x="66.9811320754717em" y="23.517167820605316em" fill="#aaa"/><rect width="0.9433962264150944em" height="22.805246901511122em" x="67.9245283018868em" y="7.194753098488878em" fill="#aaa"/><rect width="0.9433962264150944em" height="13.84618279373239em" x="68.86792452830188em" y="16.15381720626761em" fill="#aaa"/><rect width="0.9433962264150944em" height="7.3635075270993555em" x="69.81132075471699em" y="22.636492472900645em" fill="#aaa"/><rect width="0.9433962264150944em" height="13.703839938917934em" x="70.75471698113208em" y="16.296160061082066em" fill="#aaa"/><rect width="0.9433962264150944em" height="12.729765344726081em" x="71.69811320754717em" y="17.270234655273917em" fill="#aaa"/><rect width="0.9433962264150944em" height="7.2028934884105915em" x="72.64150943396227em" y="22.79710651158941em" fill="#aaa"/><rect width="0.9433962264150944em" height="7.419882917423044em" x="73.58490566037736em" y="22.580117082576955em" fill="#aaa"/><rect width="0.9433962264150944em" height="9.268463588724755em" x="74.52830188679245em" y="20.731536411275243em" fill="#aaa"/><rect width="0.9433962264150944em" height="30em" x="75.47169811320755em" y="0em" fill="#aaa"/><rect width="0.9433962264150944em" height="19.908061487723284em" x="76.41509433962264em" y="10.091938512276716em" fill="#aaa"/><rect width="0.9433962264150944em" height="11.609163790246185em" x="77.35849056603773em" y="18.390836209753815em" fill="#aaa"/><rect width="0.9433962264150944em" height="5.781550281249394em" x="78.30188679245283em" y="24.218449718750605em" fill="#aaa"/><rect width="0.9433962264150944em" height="8.813296477982155em" x="79.24528301886792em" y="21.186703522017844em" fill="#aaa"/><rect width="0.9433962264150944em" height="12.700234798900189em" x="80.18867924528303em" y="17.29976520109981em" fill="#aaa"/><rect width="0.9433962264150944em" height="18.27521633238163em" x="81.13207547169812em" y="11.724783667618372em" fill="#aaa"/><rect width="0.9433962264150944em" height="15.874695814854102em" x="82.0754716981132em" y="14.125304185145898em" fill="#aaa"/><rect width="0.9433962264150944em" height="17.350823563917444em" x="83.01886792452831em" y="12.649176436082556em" fill="#aaa"/><rect width="0.9433962264150944em" height="9.864016030755383em" x="83.9622641509434em" y="20.135983969244617em" fill="#aaa"/><rect width="0.9433962264150944em" height="14.16853397983832em" x="84.90566037735849em" y="15.83146602016168em" fill="#aaa"/><rect width="0.9433962264150944em" height="14.412789228798413em" x="85.84905660377359em" y="15.587210771201587em" fill="#aaa"/><rect width="0.9433962264150944em" height="12.724937889809313em" x="86.79245283018868em" y="17.27506211019069em" fill="#aaa"/><rect width="0.9433962264150944em" height="10.600549078740897em" x="87.73584905660377em" y="19.399450921259103em" fill="#aaa"/><rect width="0.9433962264150944em" height="25.48614684974755em" x="88.67924528301887em" y="4.5138531502524515em" fill="#aaa"/><rect width="0.9433962264150944em" height="22.478027372742em" x="89.62264150943396em" y="7.521972627257998em" fill="#aaa"/><rect width="0.9433962264150944em" height="15.225267103720068em" x="90.56603773584905em" y="14.774732896279932em" fill="#aaa"/><rect width="0.9433962264150944em" height="22.275248567255147em" x="91.50943396226415em" y="7.724751432744853em" fill="#aaa"/><rect width="0.9433962264150944em" height="19.200652844377334em" x="92.45283018867924em" y="10.799347155622666em" fill="#aaa"/><rect width="0.9433962264150944em" height="12.880583418763953em" x="93.39622641509435em" y="17.119416581236045em" fill="#aaa"/><rect width="0.9433962264150944em" height="12.2935622255907em" x="94.33962264150944em" y="17.706437774409302em" fill="#aaa"/><rect width="0.9433962264150944em" height="17.700726139419007em" x="95.28301886792453em" y="12.299273860580993em" fill="#aaa"/><rect width="0.9433962264150944em" height="17.507722868310342em" x="96.22641509433963em" y="12.492277131689658em" fill="#aaa"/><rect width="0.9433962264150944em" height="16.731269528590644em" x="97.16981132075472em" y="13.268730471409356em" fill="#aaa"/><rect width="0.9433962264150944em" height="20.785725951253287em" x="98.11320754716981em" y="9.214274048746713em" fill="#aaa"/><rect width="0.9433962264150944em" height="24.440370167700806em" x="99.05660377358491em" y="5.559629832299194em" fill="#aaa"/></svg>