<?xml version="1.0" standalone="no"?>
<svg xmlns:xlink="http://www.w3.org/1999/xlink" xmlns="http://www.w3.org/2000/svg" class="topic-graph" style="width: 100em; height: 30em; text-align: center;"><rect width="0.9433962264150944em" height="1.2726926420826221em" x="0em" y="28.72730735791738em" fill="#aaa"/><rect width="0.9433962264150944em" height="0.6148318503029524em" x="0.9433962264150944em" y="29.385168149697048em" fill="#aaa"/><rect width="0.9433962264150944em" height="0.13859596677117228em" x="1.8867924528301887em" y="29.861404033228826em" fill="#aaa"/><rect width="0.9433962264150944em" height="0.9021551627100864em" x="2.830188679245283em" y="29.097844837289912em" fill="#aaa"/><rect width="0.9433962264150944em" height="0.7172937409412006em" x="3.7735849056603774em" y="29.2827062590588em" fill="#aaa"/><rect width="0.9433962264150944em" height="0.2858126209749152em" x="4.716981132075472em" y="29.714187379025084em" fill="#aaa"/><rect width="0.9433962264150944em" height="1.1073017203945017em" x="5.660377358490566em" y="28.892698279605497em" fill="#aaa"/><rect width="0.9433962264150944em" height="1.176313894065841em" x="6.60377358490566em" y="28.823686105934158em" fill="#aaa"/><rect width="0.9433962264150944em" height="0.36811603788106784em" x="7.547169811320755em" y="29.63188396211893em" fill="#aaa"/><rect width="0.9433962264150944em" height="0.9657577838170703em" x="8.49056603773585em" y="29.03424221618293em" fill="#aaa"/><rect width="0.9433962264150944em" height="0.8840399021562656em" x="9.433962264150944em" y="29.115960097843736em" fill="#aaa"/><rect width="0.9433962264150944em" height="1.1776392971234508em" x="10.377358490566039em" y="28.822360702876548em" fill="#aaa"/><rect width="0.9433962264150944em" height="0.6434300733417029em" x="11.320754716981131em" y="29.356569926658295em" fill="#aaa"/><rect width="0.9433962264150944em" height="0em" x="12.264150943396226em" y="30em" fill="#aaa"/><rect width="0.9433962264150944em" height="1.1892989690550992em" x="13.20754716981132em" y="28.8107010309449em" fill="#aaa"/><rect width="0.9433962264150944em" height="3.8133384549059373em" x="14.150943396226415em" y="26.18666154509406em" fill="#aaa"/><rect width="0.9433962264150944em" height="1.2690782959998947em" x="15.09433962264151em" y="28.730921704000107em" fill="#aaa"/><rect width="0.9433962264150944em" height="0.3245016511158782em" x="16.037735849056602em" y="29.675498348884123em" fill="#aaa"/><rect width="0.9433962264150944em" height="0.29108411558099245em" x="16.9811320754717em" y="29.708915884419007em" fill="#aaa"/><rect width="0.9433962264150944em" height="0.8381466576557797em" x="17.92452830188679em" y="29.16185334234422em" fill="#aaa"/><rect width="0.9433962264150944em" height="1.037843377874246em" x="18.867924528301888em" y="28.962156622125754em" fill="#aaa"/><rect width="0.9433962264150944em" height="0.8233147610023109em" x="19.81132075471698em" y="29.17668523899769em" fill="#aaa"/><rect width="0.9433962264150944em" height="0.4509057597813832em" x="20.754716981132077em" y="29.54909424021862em" fill="#aaa"/><rect width="0.9433962264150944em" height="1.7895975335339205em" x="21.69811320754717em" y="28.21040246646608em" fill="#aaa"/><rect width="0.9433962264150944em" height="0.37324824707368887em" x="22.641509433962263em" y="29.62675175292631em" fill="#aaa"/><rect width="0.9433962264150944em" height="0.6612577263310814em" x="23.58490566037736em" y="29.33874227366892em" fill="#aaa"/><rect width="0.9433962264150944em" height="0em" x="24.528301886792452em" y="30em" fill="#aaa"/><rect width="0.9433962264150944em" height="1.8170941682936115em" x="25.471698113207548em" y="28.18290583170639em" fill="#aaa"/><rect width="0.9433962264150944em" height="1.350651202922621em" x="26.41509433962264em" y="28.64934879707738em" fill="#aaa"/><rect width="0.9433962264150944em" height="0.9513354234868764em" x="27.358490566037737em" y="29.048664576513122em" fill="#aaa"/><rect width="0.9433962264150944em" height="1.787559160829511em" x="28.30188679245283em" y="28.21244083917049em" fill="#aaa"/><rect width="0.9433962264150944em" height="1.521162266101962em" x="29.245283018867926em" y="28.47883773389804em" fill="#aaa"/><rect width="0.9433962264150944em" height="0.5934080321569781em" x="30.18867924528302em" y="29.40659196784302em" fill="#aaa"/><rect width="0.9433962264150944em" height="0.4816645293399776em" x="31.132075471698112em" y="29.518335470660023em" fill="#aaa"/><rect width="0.9433962264150944em" height="0.994589051970522em" x="32.075471698113205em" y="29.00541094802948em" fill="#aaa"/><rect width="0.9433962264150944em" height="0.5002878640132631em" x="33.0188679245283em" y="29.499712135986737em" fill="#aaa"/><rect width="0.9433962264150944em" height="0.6037375728394176em" x="33.9622641509434em" y="29.396262427160583em" fill="#aaa"/><rect width="0.9433962264150944em" height="0.6213515538590714em" x="34.905660377358494em" y="29.37864844614093em" fill="#aaa"/><rect width="0.9433962264150944em" height="0.9479634873661289em" x="35.84905660377358em" y="29.052036512633872em" fill="#aaa"/><rect width="0.9433962264150944em" height="0.6461368662871536em" x="36.79245283018868em" y="29.353863133712846em" fill="#aaa"/><rect width="0.9433962264150944em" height="0.6054937459733102em" x="37.735849056603776em" y="29.39450625402669em" fill="#aaa"/><rect width="0.9433962264150944em" height="1.1433473811033037em" x="38.679245283018865em" y="28.856652618896696em" fill="#aaa"/><rect width="0.9433962264150944em" height="1.1653955364329602em" x="39.62264150943396em" y="28.83460446356704em" fill="#aaa"/><rect width="0.9433962264150944em" height="2.520163274171332em" x="40.56603773584906em" y="27.47983672582867em" fill="#aaa"/><rect width="0.9433962264150944em" height="1.47407850348407em" x="41.509433962264154em" y="28.52592149651593em" fill="#aaa"/><rect width="0.9433962264150944em" height="1.2061856027710582em" x="42.45283018867924em" y="28.793814397228942em" fill="#aaa"/><rect width="0.9433962264150944em" height="1.418451566930317em" x="43.39622641509434em" y="28.581548433069685em" fill="#aaa"/><rect width="0.9433962264150944em" height="1.3080089038075435em" x="44.339622641509436em" y="28.691991096192456em" fill="#aaa"/><rect width="0.9433962264150944em" height="2.423637278357801em" x="45.283018867924525em" y="27.576362721642198em" fill="#aaa"/><rect width="0.9433962264150944em" height="1.2330036226725805em" x="46.22641509433962em" y="28.76699637732742em" fill="#aaa"/><rect width="0.9433962264150944em" height="1.3883617400795016em" x="47.16981132075472em" y="28.611638259920497em" fill="#aaa"/><rect width="0.9433962264150944em" height="1.6639124058874435em" x="48.113207547169814em" y="28.336087594112556em" fill="#aaa"/><rect width="0.9433962264150944em" height="1.9474565960275463em" x="49.056603773584904em" y="28.052543403972454em" fill="#aaa"/><rect width="0.9433962264150944em" height="2.3096832584082025em" x="50em" y="27.690316741591797em" fill="#aaa"/><rect width="0.9433962264150944em" height="2.7137843705593636em" x="50.943396226415096em" y="27.286215629440637em" fill="#aaa"/><rect width="0.9433962264150944em" height="3.6291438667818334em" x="51.88679245283019em" y="26.370856133218165em" fill="#aaa"/><rect width="0.9433962264150944em" height="1.0697412975811897em" x="52.83018867924528em" y="28.93025870241881em" fill="#aaa"/><rect width="0.9433962264150944em" height="1.1972843169632423em" x="53.77358490566038em" y="28.80271568303676em" fill="#aaa"/><rect width="0.9433962264150944em" height="2.156019458073988em" x="54.716981132075475em" y="27.843980541926012em" fill="#aaa"/><rect width="0.9433962264150944em" height="1.1634196031304491em" x="55.660377358490564em" y="28.83658039686955em" fill="#aaa"/><rect width="0.9433962264150944em" height="1.6403189254971664em" x="56.60377358490566em" y="28.359681074502834em" fill="#aaa"/><rect width="0.9433962264150944em" height="1.0059282986579452em" x="57.54716981132076em" y="28.994071701342055em" fill="#aaa"/><rect width="0.9433962264150944em" height="0.6631238524842687em" x="58.49056603773585em" y="29.33687614751573em" fill="#aaa"/><rect width="0.9433962264150944em" height="0.8455969186505368em" x="59.43396226415094em" y="29.154403081349464em" fill="#aaa"/><rect width="0.9433962264150944em" height="0.9384610898934123em" x="60.37735849056604em" y="29.061538910106588em" fill="#aaa"/><rect width="0.9433962264150944em" height="4.017823678759032em" x="61.320754716981135em" y="25.982176321240967em" fill="#aaa"/><rect width="0.9433962264150944em" height="4.7278312758183em" x="62.264150943396224em" y="25.2721687241817em" fill="#aaa"/><rect width="0.9433962264150944em" height="5.985883919690123em" x="63.20754716981132em" y="24.014116080309876em" fill="#aaa"/><rect width="0.9433962264150944em" height="6.36964388494489em" x="64.15094339622641em" y="23.63035611505511em" fill="#aaa"/><rect width="0.9433962264150944em" height="6.035749231941078em" x="65.09433962264151em" y="23.96425076805892em" fill="#aaa"/><rect width="0.9433962264150944em" height="7.564961597769695em" x="66.0377358490566em" y="22.435038402230305em" fill="#aaa"/><rect width="0.9433962264150944em" height="6.3833270701582325em" x="66.9811320754717em" y="23.61667292984177em" fill="#aaa"/><rect width="0.9433962264150944em" height="4.104830222178815em" x="67.9245283018868em" y="25.895169777821184em" fill="#aaa"/><rect width="0.9433962264150944em" height="5.110664456859581em" x="68.86792452830188em" y="24.88933554314042em" fill="#aaa"/><rect width="0.9433962264150944em" height="2.68759597448007em" x="69.81132075471699em" y="27.312404025519932em" fill="#aaa"/><rect width="0.9433962264150944em" height="2.407295233652463em" x="70.75471698113208em" y="27.592704766347538em" fill="#aaa"/><rect width="0.9433962264150944em" height="2.7017503388990316em" x="71.69811320754717em" y="27.298249661100968em" fill="#aaa"/><rect width="0.9433962264150944em" height="9.753452092897339em" x="72.64150943396227em" y="20.24654790710266em" fill="#aaa"/><rect width="0.9433962264150944em" height="19.625858712162575em" x="73.58490566037736em" y="10.374141287837425em" fill="#aaa"/><rect width="0.9433962264150944em" height="30em" x="74.52830188679245em" y="0em" fill="#aaa"/><rect width="0.9433962264150944em" height="15.95775684864729em" x="75.47169811320755em" y="14.04224315135271em" fill="#aaa"/><rect width="0.9433962264150944em" height="26.94642023471799em" x="76.41509433962264em" y="3.0535797652820094em" fill="#aaa"/><rect width="0.9433962264150944em" height="12.801193961604499em" x="77.35849056603773em" y="17.198806038395503em" fill="#aaa"/><rect width="0.9433962264150944em" height="15.452677308502247em" x="78.30188679245283em" y="14.547322691497753em" fill="#aaa"/><rect width="0.9433962264150944em" height="1.8332932256855035em" x="79.24528301886792em" y="28.1667067743145em" fill="#aaa"/><rect width="0.9433962264150944em" height="2.165723166096684em" x="80.18867924528303em" y="27.834276833903317em" fill="#aaa"/><rect width="0.9433962264150944em" height="2.6593705653120514em" x="81.13207547169812em" y="27.340629434687948em" fill="#aaa"/><rect width="0.9433962264150944em" height="2.1862312539511524em" x="82.0754716981132em" y="27.813768746048847em" fill="#aaa"/><rect width="0.9433962264150944em" height="1.5934027065776675em" x="83.01886792452831em" y="28.406597293422333em" fill="#aaa"/><rect width="0.9433962264150944em" height="2.984931862868588em" x="83.9622641509434em" y="27.01506813713141em" fill="#aaa"/><rect width="0.9433962264150944em" height="25.534269283823555em" x="84.90566037735849em" y="4.465730716176445em" fill="#aaa"/><rect width="0.9433962264150944em" height="3.227696648257087em" x="85.84905660377359em" y="26.772303351742913em" fill="#aaa"/><rect width="0.9433962264150944em" height="3.355440361549274em" x="86.79245283018868em" y="26.644559638450726em" fill="#aaa"/><rect width="0.9433962264150944em" height="2.716466384369469em" x="87.73584905660377em" y="27.28353361563053em" fill="#aaa"/><rect width="0.9433962264150944em" height="2.609122626489502em" x="88.67924528301887em" y="27.3908773735105em" fill="#aaa"/><rect width="0.9433962264150944em" height="2.649896213793795em" x="89.62264150943396em" y="27.350103786206205em" fill="#aaa"/><rect width="0.9433962264150944em" height="1.778592510887627em" x="90.56603773584905em" y="28.221407489112373em" fill="#aaa"/><rect width="0.9433962264150944em" height="3.1669264213871995em" x="91.50943396226415em" y="26.8330735786128em" fill="#aaa"/><rect width="0.9433962264150944em" height="4.912603729193111em" x="92.45283018867924em" y="25.087396270806888em" fill="#aaa"/><rect width="0.9433962264150944em" height="6.464710767032775em" x="93.39622641509435em" y="23.535289232967223em" fill="#aaa"/><rect width="0.9433962264150944em" height="13.474045764517406em" x="94.33962264150944em" y="16.525954235482594em" fill="#aaa"/><rect width="0.9433962264150944em" height="20.494135510134996em" x="95.28301886792453em" y="9.505864489865004em" fill="#aaa"/><rect width="0.9433962264150944em" height="20.8607827934525em" x="96.22641509433963em" y="9.1392172065475em" fill="#aaa"/><rect width="0.9433962264150944em" height="9.078108403757012em" x="97.16981132075472em" y="20.921891596242986em" fill="#aaa"/><rect width="0.9433962264150944em" height="10.61167794126356em" x="98.11320754716981em" y="19.388322058736442em" fill="#aaa"/><rect width="0.9433962264150944em" height="13.188558672370773em" x="99.05660377358491em" y="16.811441327629225em" fill="#aaa"/></svg>