<?xml version="1.0" standalone="no"?>
<svg xmlns:xlink="http://www.w3.org/1999/xlink" xmlns="http://www.w3.org/2000/svg" class="topic-graph" style="width: 100em; height: 30em; text-align: center;"><rect width="0.9433962264150944em" height="18.474873278317308em" x="0em" y="11.525126721682692em" fill="#aaa"/><rect width="0.9433962264150944em" height="18.167476060377574em" x="0.9433962264150944em" y="11.832523939622426em" fill="#aaa"/><rect width="0.9433962264150944em" height="21.90970639330019em" x="1.8867924528301887em" y="8.09029360669981em" fill="#aaa"/><rect width="0.9433962264150944em" height="22.44034655896988em" x="2.830188679245283em" y="7.559653441030122em" fill="#aaa"/><rect width="0.9433962264150944em" height="19.06587957842539em" x="3.7735849056603774em" y="10.934120421574612em" fill="#aaa"/><rect width="0.9433962264150944em" height="10.521638690097603em" x="4.716981132075472em" y="19.478361309902397em" fill="#aaa"/><rect width="0.9433962264150944em" height="10.187527665359692em" x="5.660377358490566em" y="19.812472334640308em" fill="#aaa"/><rect width="0.9433962264150944em" height="14.902309794061317em" x="6.60377358490566em" y="15.097690205938683em" fill="#aaa"/><rect width="0.9433962264150944em" height="13.169715012409934em" x="7.547169811320755em" y="16.830284987590066em" fill="#aaa"/><rect width="0.9433962264150944em" height="10.698883840682662em" x="8.49056603773585em" y="19.30111615931734em" fill="#aaa"/><rect width="0.9433962264150944em" height="16.758644636359346em" x="9.433962264150944em" y="13.241355363640654em" fill="#aaa"/><rect width="0.9433962264150944em" height="30em" x="10.377358490566039em" y="0em" fill="#aaa"/><rect width="0.9433962264150944em" height="18.243814095083316em" x="11.320754716981131em" y="11.756185904916684em" fill="#aaa"/><rect width="0.9433962264150944em" height="0em" x="12.264150943396226em" y="30em" fill="#aaa"/><rect width="0.9433962264150944em" height="11.679019322035051em" x="13.20754716981132em" y="18.320980677964947em" fill="#aaa"/><rect width="0.9433962264150944em" height="8.516319459988274em" x="14.150943396226415em" y="21.483680540011726em" fill="#aaa"/><rect width="0.9433962264150944em" height="10.735633565642559em" x="15.09433962264151em" y="19.26436643435744em" fill="#aaa"/><rect width="0.9433962264150944em" height="15.783953078806011em" x="16.037735849056602em" y="14.216046921193989em" fill="#aaa"/><rect width="0.9433962264150944em" height="3.275773622904134em" x="16.9811320754717em" y="26.724226377095867em" fill="#aaa"/><rect width="0.9433962264150944em" height="7.999494836293818em" x="17.92452830188679em" y="22.000505163706183em" fill="#aaa"/><rect width="0.9433962264150944em" height="7.521727479982196em" x="18.867924528301888em" y="22.478272520017804em" fill="#aaa"/><rect width="0.9433962264150944em" height="7.795048613619234em" x="19.81132075471698em" y="22.204951386380767em" fill="#aaa"/><rect width="0.9433962264150944em" height="9.546149774577865em" x="20.754716981132077em" y="20.453850225422137em" fill="#aaa"/><rect width="0.9433962264150944em" height="19.93893168969764em" x="21.69811320754717em" y="10.06106831030236em" fill="#aaa"/><rect width="0.9433962264150944em" height="14.419865968478206em" x="22.641509433962263em" y="15.580134031521794em" fill="#aaa"/><rect width="0.9433962264150944em" height="7.385777727929458em" x="23.58490566037736em" y="22.614222272070542em" fill="#aaa"/><rect width="0.9433962264150944em" height="0em" x="24.528301886792452em" y="30em" fill="#aaa"/><rect width="0.9433962264150944em" height="10.52871514747074em" x="25.471698113207548em" y="19.47128485252926em" fill="#aaa"/><rect width="0.9433962264150944em" height="12.058144041908635em" x="26.41509433962264em" y="17.941855958091367em" fill="#aaa"/><rect width="0.9433962264150944em" height="13.19484982498499em" x="27.358490566037737em" y="16.805150175015008em" fill="#aaa"/><rect width="0.9433962264150944em" height="12.119860070827544em" x="28.30188679245283em" y="17.880139929172458em" fill="#aaa"/><rect width="0.9433962264150944em" height="9.331504573291248em" x="29.245283018867926em" y="20.668495426708752em" fill="#aaa"/><rect width="0.9433962264150944em" height="13.216939077766217em" x="30.18867924528302em" y="16.783060922233783em" fill="#aaa"/><rect width="0.9433962264150944em" height="9.832336221833758em" x="31.132075471698112em" y="20.167663778166244em" fill="#aaa"/><rect width="0.9433962264150944em" height="10.703621697045993em" x="32.075471698113205em" y="19.296378302954007em" fill="#aaa"/><rect width="0.9433962264150944em" height="8.353011671228506em" x="33.0188679245283em" y="21.646988328771492em" fill="#aaa"/><rect width="0.9433962264150944em" height="10.7170496246355em" x="33.9622641509434em" y="19.2829503753645em" fill="#aaa"/><rect width="0.9433962264150944em" height="10.473712406958652em" x="34.905660377358494em" y="19.526287593041346em" fill="#aaa"/><rect width="0.9433962264150944em" height="10.852365706492659em" x="35.84905660377358em" y="19.14763429350734em" fill="#aaa"/><rect width="0.9433962264150944em" height="10.779289854194879em" x="36.79245283018868em" y="19.22071014580512em" fill="#aaa"/><rect width="0.9433962264150944em" height="6.878717551109215em" x="37.735849056603776em" y="23.121282448890785em" fill="#aaa"/><rect width="0.9433962264150944em" height="11.918046052600745em" x="38.679245283018865em" y="18.081953947399256em" fill="#aaa"/><rect width="0.9433962264150944em" height="7.962203867244943em" x="39.62264150943396em" y="22.037796132755055em" fill="#aaa"/><rect width="0.9433962264150944em" height="14.155637821367957em" x="40.56603773584906em" y="15.844362178632043em" fill="#aaa"/><rect width="0.9433962264150944em" height="7.978772869459746em" x="41.509433962264154em" y="22.021227130540254em" fill="#aaa"/><rect width="0.9433962264150944em" height="8.509096870663813em" x="42.45283018867924em" y="21.49090312933619em" fill="#aaa"/><rect width="0.9433962264150944em" height="7.401671674355316em" x="43.39622641509434em" y="22.598328325644683em" fill="#aaa"/><rect width="0.9433962264150944em" height="12.33423683562252em" x="44.339622641509436em" y="17.66576316437748em" fill="#aaa"/><rect width="0.9433962264150944em" height="9.222447066658388em" x="45.283018867924525em" y="20.77755293334161em" fill="#aaa"/><rect width="0.9433962264150944em" height="12.57297653527673em" x="46.22641509433962em" y="17.42702346472327em" fill="#aaa"/><rect width="0.9433962264150944em" height="12.892409758805075em" x="47.16981132075472em" y="17.107590241194927em" fill="#aaa"/><rect width="0.9433962264150944em" height="12.84029181048528em" x="48.113207547169814em" y="17.15970818951472em" fill="#aaa"/><rect width="0.9433962264150944em" height="8.785889267865853em" x="49.056603773584904em" y="21.214110732134145em" fill="#aaa"/><rect width="0.9433962264150944em" height="9.483914141509459em" x="50em" y="20.51608585849054em" fill="#aaa"/><rect width="0.9433962264150944em" height="12.099387228496989em" x="50.943396226415096em" y="17.900612771503013em" fill="#aaa"/><rect width="0.9433962264150944em" height="13.350566020326976em" x="51.88679245283019em" y="16.649433979673024em" fill="#aaa"/><rect width="0.9433962264150944em" height="10.780860228990518em" x="52.83018867924528em" y="19.21913977100948em" fill="#aaa"/><rect width="0.9433962264150944em" height="14.162267207254445em" x="53.77358490566038em" y="15.837732792745555em" fill="#aaa"/><rect width="0.9433962264150944em" height="8.454095045718159em" x="54.716981132075475em" y="21.54590495428184em" fill="#aaa"/><rect width="0.9433962264150944em" height="6.371989368627082em" x="55.660377358490564em" y="23.628010631372916em" fill="#aaa"/><rect width="0.9433962264150944em" height="7.908490240188418em" x="56.60377358490566em" y="22.091509759811583em" fill="#aaa"/><rect width="0.9433962264150944em" height="6.496038494873114em" x="57.54716981132076em" y="23.503961505126888em" fill="#aaa"/><rect width="0.9433962264150944em" height="7.165311866548695em" x="58.49056603773585em" y="22.834688133451305em" fill="#aaa"/><rect width="0.9433962264150944em" height="9.784022389534794em" x="59.43396226415094em" y="20.215977610465206em" fill="#aaa"/><rect width="0.9433962264150944em" height="11.009394186194127em" x="60.37735849056604em" y="18.99060581380587em" fill="#aaa"/><rect width="0.9433962264150944em" height="12.156054480885802em" x="61.320754716981135em" y="17.8439455191142em" fill="#aaa"/><rect width="0.9433962264150944em" height="7.980592151795984em" x="62.264150943396224em" y="22.019407848204015em" fill="#aaa"/><rect width="0.9433962264150944em" height="9.172356791136172em" x="63.20754716981132em" y="20.827643208863826em" fill="#aaa"/><rect width="0.9433962264150944em" height="10.594979859873598em" x="64.15094339622641em" y="19.405020140126403em" fill="#aaa"/><rect width="0.9433962264150944em" height="10.037740909797797em" x="65.09433962264151em" y="19.962259090202203em" fill="#aaa"/><rect width="0.9433962264150944em" height="6.758027708201636em" x="66.0377358490566em" y="23.241972291798362em" fill="#aaa"/><rect width="0.9433962264150944em" height="9.883835275995946em" x="66.9811320754717em" y="20.116164724004054em" fill="#aaa"/><rect width="0.9433962264150944em" height="5.588375517435947em" x="67.9245283018868em" y="24.411624482564054em" fill="#aaa"/><rect width="0.9433962264150944em" height="8.063789514635971em" x="68.86792452830188em" y="21.93621048536403em" fill="#aaa"/><rect width="0.9433962264150944em" height="7.147865085914879em" x="69.81132075471699em" y="22.85213491408512em" fill="#aaa"/><rect width="0.9433962264150944em" height="9.177726458214671em" x="70.75471698113208em" y="20.82227354178533em" fill="#aaa"/><rect width="0.9433962264150944em" height="8.720249024875033em" x="71.69811320754717em" y="21.27975097512497em" fill="#aaa"/><rect width="0.9433962264150944em" height="10.514709533226904em" x="72.64150943396227em" y="19.485290466773094em" fill="#aaa"/><rect width="0.9433962264150944em" height="7.771117717140349em" x="73.58490566037736em" y="22.22888228285965em" fill="#aaa"/><rect width="0.9433962264150944em" height="9.433390183102984em" x="74.52830188679245em" y="20.566609816897014em" fill="#aaa"/><rect width="0.9433962264150944em" height="8.087187258251134em" x="75.47169811320755em" y="21.912812741748866em" fill="#aaa"/><rect width="0.9433962264150944em" height="6.744628493200509em" x="76.41509433962264em" y="23.25537150679949em" fill="#aaa"/><rect width="0.9433962264150944em" height="8.49316161905035em" x="77.35849056603773em" y="21.506838380949652em" fill="#aaa"/><rect width="0.9433962264150944em" height="8.11858878119507em" x="78.30188679245283em" y="21.881411218804928em" fill="#aaa"/><rect width="0.9433962264150944em" height="8.397326817223954em" x="79.24528301886792em" y="21.602673182776044em" fill="#aaa"/><rect width="0.9433962264150944em" height="5.7643778258315255em" x="80.18867924528303em" y="24.235622174168476em" fill="#aaa"/><rect width="0.9433962264150944em" height="5.012650316030206em" x="81.13207547169812em" y="24.987349683969793em" fill="#aaa"/><rect width="0.9433962264150944em" height="5.922242301582271em" x="82.0754716981132em" y="24.077757698417727em" fill="#aaa"/><rect width="0.9433962264150944em" height="6.150812590304387em" x="83.01886792452831em" y="23.849187409695613em" fill="#aaa"/><rect width="0.9433962264150944em" height="6.90173985209242em" x="83.9622641509434em" y="23.09826014790758em" fill="#aaa"/><rect width="0.9433962264150944em" height="4.082990241269763em" x="84.90566037735849em" y="25.917009758730238em" fill="#aaa"/><rect width="0.9433962264150944em" height="5.477722012697118em" x="85.84905660377359em" y="24.522277987302882em" fill="#aaa"/><rect width="0.9433962264150944em" height="7.173534674690603em" x="86.79245283018868em" y="22.826465325309396em" fill="#aaa"/><rect width="0.9433962264150944em" height="4.573198174920866em" x="87.73584905660377em" y="25.426801825079135em" fill="#aaa"/><rect width="0.9433962264150944em" height="4.166783181513923em" x="88.67924528301887em" y="25.83321681848608em" fill="#aaa"/><rect width="0.9433962264150944em" height="5.382303871236856em" x="89.62264150943396em" y="24.617696128763143em" fill="#aaa"/><rect width="0.9433962264150944em" height="5.624630762577403em" x="90.56603773584905em" y="24.375369237422596em" fill="#aaa"/><rect width="0.9433962264150944em" height="4.713665072913418em" x="91.50943396226415em" y="25.286334927086582em" fill="#aaa"/><rect width="0.9433962264150944em" height="5.034714292861716em" x="92.45283018867924em" y="24.965285707138285em" fill="#aaa"/><rect width="0.9433962264150944em" height="4.8227872283570985em" x="93.39622641509435em" y="25.1772127716429em" fill="#aaa"/><rect width="0.9433962264150944em" height="4.20371727330501em" x="94.33962264150944em" y="25.79628272669499em" fill="#aaa"/><rect width="0.9433962264150944em" height="5.4541449271579925em" x="95.28301886792453em" y="24.54585507284201em" fill="#aaa"/><rect width="0.9433962264150944em" height="4.53137145049557em" x="96.22641509433963em" y="25.46862854950443em" fill="#aaa"/><rect width="0.9433962264150944em" height="5.150361855175583em" x="97.16981132075472em" y="24.849638144824418em" fill="#aaa"/><rect width="0.9433962264150944em" height="4.670501469015905em" x="98.11320754716981em" y="25.329498530984097em" fill="#aaa"/><rect width="0.9433962264150944em" height="5.569757278982395em" x="99.05660377358491em" y="24.430242721017606em" fill="#aaa"/></svg>