<?xml version="1.0" standalone="no"?>
<svg xmlns:xlink="http://www.w3.org/1999/xlink" xmlns="http://www.w3.org/2000/svg" class="topic-graph" style="width: 100em; height: 30em; text-align: center;"><rect width="0.9433962264150944em" height="3.354062218691311em" x="0em" y="26.64593778130869em" fill="#aaa"/><rect width="0.9433962264150944em" height="0.9035228453071944em" x="0.9433962264150944em" y="29.096477154692806em" fill="#aaa"/><rect width="0.9433962264150944em" height="1.5276589579133801em" x="1.8867924528301887em" y="28.47234104208662em" fill="#aaa"/><rect width="0.9433962264150944em" height="1.7492788681625435em" x="2.830188679245283em" y="28.250721131837455em" fill="#aaa"/><rect width="0.9433962264150944em" height="1.819746912050469em" x="3.7735849056603774em" y="28.18025308794953em" fill="#aaa"/><rect width="0.9433962264150944em" height="1.9470058720796208em" x="4.716981132075472em" y="28.05299412792038em" fill="#aaa"/><rect width="0.9433962264150944em" height="0.32126531847845696em" x="5.660377358490566em" y="29.678734681521544em" fill="#aaa"/><rect width="0.9433962264150944em" height="0.1809959785441103em" x="6.60377358490566em" y="29.81900402145589em" fill="#aaa"/><rect width="0.9433962264150944em" height="0.7845967133645181em" x="7.547169811320755em" y="29.215403286635482em" fill="#aaa"/><rect width="0.9433962264150944em" height="5.124713769804972em" x="8.49056603773585em" y="24.87528623019503em" fill="#aaa"/><rect width="0.9433962264150944em" height="0.40446616360729726em" x="9.433962264150944em" y="29.595533836392704em" fill="#aaa"/><rect width="0.9433962264150944em" height="1.45566538037778em" x="10.377358490566039em" y="28.54433461962222em" fill="#aaa"/><rect width="0.9433962264150944em" height="2.4363731210885926em" x="11.320754716981131em" y="27.563626878911407em" fill="#aaa"/><rect width="0.9433962264150944em" height="0em" x="12.264150943396226em" y="30em" fill="#aaa"/><rect width="0.9433962264150944em" height="0.4020893323871314em" x="13.20754716981132em" y="29.59791066761287em" fill="#aaa"/><rect width="0.9433962264150944em" height="0.5201238911468723em" x="14.150943396226415em" y="29.479876108853126em" fill="#aaa"/><rect width="0.9433962264150944em" height="0.551360178213689em" x="15.09433962264151em" y="29.448639821786312em" fill="#aaa"/><rect width="0.9433962264150944em" height="0.45902694950931394em" x="16.037735849056602em" y="29.540973050490685em" fill="#aaa"/><rect width="0.9433962264150944em" height="0.5485684343149523em" x="16.9811320754717em" y="29.45143156568505em" fill="#aaa"/><rect width="0.9433962264150944em" height="0.9409232186166556em" x="17.92452830188679em" y="29.059076781383343em" fill="#aaa"/><rect width="0.9433962264150944em" height="2.056105167657498em" x="18.867924528301888em" y="27.9438948323425em" fill="#aaa"/><rect width="0.9433962264150944em" height="0.9244497809369805em" x="19.81132075471698em" y="29.075550219063018em" fill="#aaa"/><rect width="0.9433962264150944em" height="0.35804902832388297em" x="20.754716981132077em" y="29.641950971676117em" fill="#aaa"/><rect width="0.9433962264150944em" height="0.6163777629009035em" x="21.69811320754717em" y="29.383622237099097em" fill="#aaa"/><rect width="0.9433962264150944em" height="0.7227885087482904em" x="22.641509433962263em" y="29.27721149125171em" fill="#aaa"/><rect width="0.9433962264150944em" height="1.4623382461510297em" x="23.58490566037736em" y="28.53766175384897em" fill="#aaa"/><rect width="0.9433962264150944em" height="0em" x="24.528301886792452em" y="30em" fill="#aaa"/><rect width="0.9433962264150944em" height="0.9919544100892383em" x="25.471698113207548em" y="29.00804558991076em" fill="#aaa"/><rect width="0.9433962264150944em" height="0.9822306746452748em" x="26.41509433962264em" y="29.017769325354724em" fill="#aaa"/><rect width="0.9433962264150944em" height="1.5559563682107977em" x="27.358490566037737em" y="28.444043631789203em" fill="#aaa"/><rect width="0.9433962264150944em" height="0.8270346820469647em" x="28.30188679245283em" y="29.172965317953036em" fill="#aaa"/><rect width="0.9433962264150944em" height="0.9218352809776102em" x="29.245283018867926em" y="29.07816471902239em" fill="#aaa"/><rect width="0.9433962264150944em" height="1.7339745161646483em" x="30.18867924528302em" y="28.266025483835353em" fill="#aaa"/><rect width="0.9433962264150944em" height="2.0007250392762654em" x="31.132075471698112em" y="27.999274960723735em" fill="#aaa"/><rect width="0.9433962264150944em" height="1.9548021278599506em" x="32.075471698113205em" y="28.04519787214005em" fill="#aaa"/><rect width="0.9433962264150944em" height="1.485296304321411em" x="33.0188679245283em" y="28.514703695678588em" fill="#aaa"/><rect width="0.9433962264150944em" height="1.7167406444146578em" x="33.9622641509434em" y="28.283259355585344em" fill="#aaa"/><rect width="0.9433962264150944em" height="0.39357948342792676em" x="34.905660377358494em" y="29.606420516572072em" fill="#aaa"/><rect width="0.9433962264150944em" height="4.390368513232865em" x="35.84905660377358em" y="25.609631486767135em" fill="#aaa"/><rect width="0.9433962264150944em" height="1.4123498268166246em" x="36.79245283018868em" y="28.587650173183377em" fill="#aaa"/><rect width="0.9433962264150944em" height="3.6763420384931456em" x="37.735849056603776em" y="26.323657961506854em" fill="#aaa"/><rect width="0.9433962264150944em" height="3.035269223862586em" x="38.679245283018865em" y="26.964730776137415em" fill="#aaa"/><rect width="0.9433962264150944em" height="3.497658387027421em" x="39.62264150943396em" y="26.50234161297258em" fill="#aaa"/><rect width="0.9433962264150944em" height="2.5596104760239995em" x="40.56603773584906em" y="27.440389523976002em" fill="#aaa"/><rect width="0.9433962264150944em" height="4.058063851924404em" x="41.509433962264154em" y="25.941936148075598em" fill="#aaa"/><rect width="0.9433962264150944em" height="1.8466430711354482em" x="42.45283018867924em" y="28.15335692886455em" fill="#aaa"/><rect width="0.9433962264150944em" height="4.85192537905539em" x="43.39622641509434em" y="25.14807462094461em" fill="#aaa"/><rect width="0.9433962264150944em" height="4.986327869731579em" x="44.339622641509436em" y="25.01367213026842em" fill="#aaa"/><rect width="0.9433962264150944em" height="4.480826043756307em" x="45.283018867924525em" y="25.51917395624369em" fill="#aaa"/><rect width="0.9433962264150944em" height="2.3475721746830964em" x="46.22641509433962em" y="27.652427825316902em" fill="#aaa"/><rect width="0.9433962264150944em" height="4.070975257220324em" x="47.16981132075472em" y="25.929024742779674em" fill="#aaa"/><rect width="0.9433962264150944em" height="3.350107384700559em" x="48.113207547169814em" y="26.649892615299443em" fill="#aaa"/><rect width="0.9433962264150944em" height="4.06861479247205em" x="49.056603773584904em" y="25.93138520752795em" fill="#aaa"/><rect width="0.9433962264150944em" height="9.647286299900177em" x="50em" y="20.352713700099823em" fill="#aaa"/><rect width="0.9433962264150944em" height="15.099863316389042em" x="50.943396226415096em" y="14.900136683610958em" fill="#aaa"/><rect width="0.9433962264150944em" height="10.912806273316654em" x="51.88679245283019em" y="19.087193726683346em" fill="#aaa"/><rect width="0.9433962264150944em" height="6.907163735435443em" x="52.83018867924528em" y="23.092836264564557em" fill="#aaa"/><rect width="0.9433962264150944em" height="7.008827609184827em" x="53.77358490566038em" y="22.991172390815173em" fill="#aaa"/><rect width="0.9433962264150944em" height="17.387752506788324em" x="54.716981132075475em" y="12.612247493211676em" fill="#aaa"/><rect width="0.9433962264150944em" height="28.18140655118207em" x="55.660377358490564em" y="1.8185934488179285em" fill="#aaa"/><rect width="0.9433962264150944em" height="20.636582510265015em" x="56.60377358490566em" y="9.363417489734985em" fill="#aaa"/><rect width="0.9433962264150944em" height="17.981395142809124em" x="57.54716981132076em" y="12.018604857190876em" fill="#aaa"/><rect width="0.9433962264150944em" height="15.376902546112738em" x="58.49056603773585em" y="14.623097453887262em" fill="#aaa"/><rect width="0.9433962264150944em" height="9.55325050298295em" x="59.43396226415094em" y="20.446749497017052em" fill="#aaa"/><rect width="0.9433962264150944em" height="2.759102390983697em" x="60.37735849056604em" y="27.240897609016304em" fill="#aaa"/><rect width="0.9433962264150944em" height="3.797426892396763em" x="61.320754716981135em" y="26.202573107603236em" fill="#aaa"/><rect width="0.9433962264150944em" height="4.609540324570468em" x="62.264150943396224em" y="25.390459675429533em" fill="#aaa"/><rect width="0.9433962264150944em" height="3.1238291040044115em" x="63.20754716981132em" y="26.87617089599559em" fill="#aaa"/><rect width="0.9433962264150944em" height="24.717403153094224em" x="64.15094339622641em" y="5.282596846905776em" fill="#aaa"/><rect width="0.9433962264150944em" height="2.4711779002809706em" x="65.09433962264151em" y="27.52882209971903em" fill="#aaa"/><rect width="0.9433962264150944em" height="14.000098358926833em" x="66.0377358490566em" y="15.999901641073167em" fill="#aaa"/><rect width="0.9433962264150944em" height="5.642129348749036em" x="66.9811320754717em" y="24.357870651250963em" fill="#aaa"/><rect width="0.9433962264150944em" height="11.412661812956594em" x="67.9245283018868em" y="18.587338187043407em" fill="#aaa"/><rect width="0.9433962264150944em" height="11.625673682261954em" x="68.86792452830188em" y="18.374326317738046em" fill="#aaa"/><rect width="0.9433962264150944em" height="15.97103584193055em" x="69.81132075471699em" y="14.02896415806945em" fill="#aaa"/><rect width="0.9433962264150944em" height="6.908342844504745em" x="70.75471698113208em" y="23.091657155495255em" fill="#aaa"/><rect width="0.9433962264150944em" height="10.381752461577252em" x="71.69811320754717em" y="19.61824753842275em" fill="#aaa"/><rect width="0.9433962264150944em" height="14.417381601047516em" x="72.64150943396227em" y="15.582618398952484em" fill="#aaa"/><rect width="0.9433962264150944em" height="2.7561158393578014em" x="73.58490566037736em" y="27.2438841606422em" fill="#aaa"/><rect width="0.9433962264150944em" height="11.261707677387257em" x="74.52830188679245em" y="18.738292322612743em" fill="#aaa"/><rect width="0.9433962264150944em" height="17.808279585678978em" x="75.47169811320755em" y="12.191720414321022em" fill="#aaa"/><rect width="0.9433962264150944em" height="11.403233399444039em" x="76.41509433962264em" y="18.59676660055596em" fill="#aaa"/><rect width="0.9433962264150944em" height="17.07055201263705em" x="77.35849056603773em" y="12.929447987362948em" fill="#aaa"/><rect width="0.9433962264150944em" height="30em" x="78.30188679245283em" y="0em" fill="#aaa"/><rect width="0.9433962264150944em" height="21.242181964172858em" x="79.24528301886792em" y="8.757818035827142em" fill="#aaa"/><rect width="0.9433962264150944em" height="12.865872443697777em" x="80.18867924528303em" y="17.134127556302225em" fill="#aaa"/><rect width="0.9433962264150944em" height="9.126021072061441em" x="81.13207547169812em" y="20.87397892793856em" fill="#aaa"/><rect width="0.9433962264150944em" height="12.081221279849526em" x="82.0754716981132em" y="17.918778720150474em" fill="#aaa"/><rect width="0.9433962264150944em" height="10.544522312143753em" x="83.01886792452831em" y="19.455477687856245em" fill="#aaa"/><rect width="0.9433962264150944em" height="10.856671738449451em" x="83.9622641509434em" y="19.14332826155055em" fill="#aaa"/><rect width="0.9433962264150944em" height="11.183215224606228em" x="84.90566037735849em" y="18.81678477539377em" fill="#aaa"/><rect width="0.9433962264150944em" height="6.755708571612983em" x="85.84905660377359em" y="23.244291428387015em" fill="#aaa"/><rect width="0.9433962264150944em" height="21.75909096978933em" x="86.79245283018868em" y="8.24090903021067em" fill="#aaa"/><rect width="0.9433962264150944em" height="21.077081055196235em" x="87.73584905660377em" y="8.922918944803765em" fill="#aaa"/><rect width="0.9433962264150944em" height="10.873835231006632em" x="88.67924528301887em" y="19.12616476899337em" fill="#aaa"/><rect width="0.9433962264150944em" height="14.261509655127563em" x="89.62264150943396em" y="15.738490344872437em" fill="#aaa"/><rect width="0.9433962264150944em" height="14.513784343473258em" x="90.56603773584905em" y="15.486215656526742em" fill="#aaa"/><rect width="0.9433962264150944em" height="8.836125553488326em" x="91.50943396226415em" y="21.163874446511674em" fill="#aaa"/><rect width="0.9433962264150944em" height="10.994872441844775em" x="92.45283018867924em" y="19.005127558155223em" fill="#aaa"/><rect width="0.9433962264150944em" height="8.083757376023975em" x="93.39622641509435em" y="21.916242623976025em" fill="#aaa"/><rect width="0.9433962264150944em" height="8.706916326338593em" x="94.33962264150944em" y="21.293083673661407em" fill="#aaa"/><rect width="0.9433962264150944em" height="8.975881274434263em" x="95.28301886792453em" y="21.024118725565735em" fill="#aaa"/><rect width="0.9433962264150944em" height="11.255332163668456em" x="96.22641509433963em" y="18.744667836331544em" fill="#aaa"/><rect width="0.9433962264150944em" height="8.122803214621735em" x="97.16981132075472em" y="21.877196785378267em" fill="#aaa"/><rect width="0.9433962264150944em" height="5.405835547834728em" x="98.11320754716981em" y="24.594164452165273em" fill="#aaa"/><rect width="0.9433962264150944em" height="4.131138735846048em" x="99.05660377358491em" y="25.868861264153953em" fill="#aaa"/></svg>