<?xml version="1.0" standalone="no"?>
<svg xmlns:xlink="http://www.w3.org/1999/xlink" xmlns="http://www.w3.org/2000/svg" class="topic-graph" style="width: 100em; height: 30em; text-align: center;"><rect width="0.9433962264150944em" height="1.703040487286671em" x="0em" y="28.29695951271333em" fill="#aaa"/><rect width="0.9433962264150944em" height="2.6303226235039543em" x="0.9433962264150944em" y="27.369677376496046em" fill="#aaa"/><rect width="0.9433962264150944em" height="8.455884169365175em" x="1.8867924528301887em" y="21.544115830634823em" fill="#aaa"/><rect width="0.9433962264150944em" height="28.284253967892603em" x="2.830188679245283em" y="1.715746032107397em" fill="#aaa"/><rect width="0.9433962264150944em" height="5.699265907444259em" x="3.7735849056603774em" y="24.300734092555743em" fill="#aaa"/><rect width="0.9433962264150944em" height="6.877975845654378em" x="4.716981132075472em" y="23.122024154345624em" fill="#aaa"/><rect width="0.9433962264150944em" height="8.320980717849704em" x="5.660377358490566em" y="21.679019282150296em" fill="#aaa"/><rect width="0.9433962264150944em" height="3.9064823873226304em" x="6.60377358490566em" y="26.09351761267737em" fill="#aaa"/><rect width="0.9433962264150944em" height="7.355711856458568em" x="7.547169811320755em" y="22.64428814354143em" fill="#aaa"/><rect width="0.9433962264150944em" height="5.912450485628304em" x="8.49056603773585em" y="24.087549514371695em" fill="#aaa"/><rect width="0.9433962264150944em" height="6.985046776606109em" x="9.433962264150944em" y="23.014953223393892em" fill="#aaa"/><rect width="0.9433962264150944em" height="5.175671823310264em" x="10.377358490566039em" y="24.824328176689736em" fill="#aaa"/><rect width="0.9433962264150944em" height="2.575012787975416em" x="11.320754716981131em" y="27.424987212024583em" fill="#aaa"/><rect width="0.9433962264150944em" height="0em" x="12.264150943396226em" y="30em" fill="#aaa"/><rect width="0.9433962264150944em" height="8.501196113707266em" x="13.20754716981132em" y="21.498803886292734em" fill="#aaa"/><rect width="0.9433962264150944em" height="10.92018949261402em" x="14.150943396226415em" y="19.07981050738598em" fill="#aaa"/><rect width="0.9433962264150944em" height="6.697005715541065em" x="15.09433962264151em" y="23.302994284458933em" fill="#aaa"/><rect width="0.9433962264150944em" height="23.816182795907086em" x="16.037735849056602em" y="6.1838172040929145em" fill="#aaa"/><rect width="0.9433962264150944em" height="9.974873081931058em" x="16.9811320754717em" y="20.025126918068942em" fill="#aaa"/><rect width="0.9433962264150944em" height="9.102020251854944em" x="17.92452830188679em" y="20.897979748145055em" fill="#aaa"/><rect width="0.9433962264150944em" height="17.505265593543623em" x="18.867924528301888em" y="12.494734406456377em" fill="#aaa"/><rect width="0.9433962264150944em" height="9.09501391864852em" x="19.81132075471698em" y="20.90498608135148em" fill="#aaa"/><rect width="0.9433962264150944em" height="29.614502189379355em" x="20.754716981132077em" y="0.38549781062064525em" fill="#aaa"/><rect width="0.9433962264150944em" height="6.286131801062796em" x="21.69811320754717em" y="23.713868198937206em" fill="#aaa"/><rect width="0.9433962264150944em" height="2.4970724458903684em" x="22.641509433962263em" y="27.502927554109633em" fill="#aaa"/><rect width="0.9433962264150944em" height="12.247108282758145em" x="23.58490566037736em" y="17.752891717241855em" fill="#aaa"/><rect width="0.9433962264150944em" height="0em" x="24.528301886792452em" y="30em" fill="#aaa"/><rect width="0.9433962264150944em" height="22.066091895286853em" x="25.471698113207548em" y="7.933908104713147em" fill="#aaa"/><rect width="0.9433962264150944em" height="7.303334064912859em" x="26.41509433962264em" y="22.69666593508714em" fill="#aaa"/><rect width="0.9433962264150944em" height="10.916774152982763em" x="27.358490566037737em" y="19.08322584701724em" fill="#aaa"/><rect width="0.9433962264150944em" height="12.787227229734823em" x="28.30188679245283em" y="17.212772770265175em" fill="#aaa"/><rect width="0.9433962264150944em" height="21.892236877469088em" x="29.245283018867926em" y="8.107763122530912em" fill="#aaa"/><rect width="0.9433962264150944em" height="6.331292330989967em" x="30.18867924528302em" y="23.668707669010033em" fill="#aaa"/><rect width="0.9433962264150944em" height="10.434887927270506em" x="31.132075471698112em" y="19.565112072729494em" fill="#aaa"/><rect width="0.9433962264150944em" height="10.437328773634363em" x="32.075471698113205em" y="19.562671226365637em" fill="#aaa"/><rect width="0.9433962264150944em" height="6.440550352733893em" x="33.0188679245283em" y="23.559449647266106em" fill="#aaa"/><rect width="0.9433962264150944em" height="24.55699416514318em" x="33.9622641509434em" y="5.4430058348568195em" fill="#aaa"/><rect width="0.9433962264150944em" height="30em" x="34.905660377358494em" y="0em" fill="#aaa"/><rect width="0.9433962264150944em" height="13.129557972309792em" x="35.84905660377358em" y="16.87044202769021em" fill="#aaa"/><rect width="0.9433962264150944em" height="9.111363654484176em" x="36.79245283018868em" y="20.888636345515824em" fill="#aaa"/><rect width="0.9433962264150944em" height="15.791657077414325em" x="37.735849056603776em" y="14.208342922585675em" fill="#aaa"/><rect width="0.9433962264150944em" height="11.787875220825905em" x="38.679245283018865em" y="18.212124779174097em" fill="#aaa"/><rect width="0.9433962264150944em" height="6.249168460777595em" x="39.62264150943396em" y="23.750831539222403em" fill="#aaa"/><rect width="0.9433962264150944em" height="5.0253321862336335em" x="40.56603773584906em" y="24.974667813766366em" fill="#aaa"/><rect width="0.9433962264150944em" height="3.416688941613682em" x="41.509433962264154em" y="26.583311058386318em" fill="#aaa"/><rect width="0.9433962264150944em" height="3.1122376049328344em" x="42.45283018867924em" y="26.887762395067167em" fill="#aaa"/><rect width="0.9433962264150944em" height="2.8728800033429867em" x="43.39622641509434em" y="27.127119996657015em" fill="#aaa"/><rect width="0.9433962264150944em" height="8.999422269330122em" x="44.339622641509436em" y="21.000577730669878em" fill="#aaa"/><rect width="0.9433962264150944em" height="6.687543476304664em" x="45.283018867924525em" y="23.312456523695335em" fill="#aaa"/><rect width="0.9433962264150944em" height="2.75200848526767em" x="46.22641509433962em" y="27.24799151473233em" fill="#aaa"/><rect width="0.9433962264150944em" height="9.610178858943586em" x="47.16981132075472em" y="20.389821141056416em" fill="#aaa"/><rect width="0.9433962264150944em" height="5.9996381944989805em" x="48.113207547169814em" y="24.00036180550102em" fill="#aaa"/><rect width="0.9433962264150944em" height="4.552770293439979em" x="49.056603773584904em" y="25.447229706560023em" fill="#aaa"/><rect width="0.9433962264150944em" height="22.5974339611233em" x="50em" y="7.402566038876699em" fill="#aaa"/><rect width="0.9433962264150944em" height="10.30863411704173em" x="50.943396226415096em" y="19.69136588295827em" fill="#aaa"/><rect width="0.9433962264150944em" height="4.655171773426611em" x="51.88679245283019em" y="25.34482822657339em" fill="#aaa"/><rect width="0.9433962264150944em" height="10.297004880809178em" x="52.83018867924528em" y="19.702995119190824em" fill="#aaa"/><rect width="0.9433962264150944em" height="6.3128938680225435em" x="53.77358490566038em" y="23.68710613197746em" fill="#aaa"/><rect width="0.9433962264150944em" height="9.521374456125056em" x="54.716981132075475em" y="20.478625543874944em" fill="#aaa"/><rect width="0.9433962264150944em" height="4.427031677896124em" x="55.660377358490564em" y="25.572968322103875em" fill="#aaa"/><rect width="0.9433962264150944em" height="8.940985733169347em" x="56.60377358490566em" y="21.05901426683065em" fill="#aaa"/><rect width="0.9433962264150944em" height="5.891476057121966em" x="57.54716981132076em" y="24.108523942878033em" fill="#aaa"/><rect width="0.9433962264150944em" height="5.492878536879881em" x="58.49056603773585em" y="24.507121463120118em" fill="#aaa"/><rect width="0.9433962264150944em" height="10.33481577630806em" x="59.43396226415094em" y="19.665184223691938em" fill="#aaa"/><rect width="0.9433962264150944em" height="9.015075659609725em" x="60.37735849056604em" y="20.984924340390275em" fill="#aaa"/><rect width="0.9433962264150944em" height="13.736861761061634em" x="61.320754716981135em" y="16.263138238938367em" fill="#aaa"/><rect width="0.9433962264150944em" height="6.347709440465133em" x="62.264150943396224em" y="23.65229055953487em" fill="#aaa"/><rect width="0.9433962264150944em" height="10.747289631060143em" x="63.20754716981132em" y="19.25271036893986em" fill="#aaa"/><rect width="0.9433962264150944em" height="3.762787172018975em" x="64.15094339622641em" y="26.237212827981025em" fill="#aaa"/><rect width="0.9433962264150944em" height="28.087545225229007em" x="65.09433962264151em" y="1.9124547747709926em" fill="#aaa"/><rect width="0.9433962264150944em" height="17.616563532783932em" x="66.0377358490566em" y="12.383436467216068em" fill="#aaa"/><rect width="0.9433962264150944em" height="19.476778396071364em" x="66.9811320754717em" y="10.523221603928636em" fill="#aaa"/><rect width="0.9433962264150944em" height="19.49064423507987em" x="67.9245283018868em" y="10.50935576492013em" fill="#aaa"/><rect width="0.9433962264150944em" height="12.96992114703615em" x="68.86792452830188em" y="17.03007885296385em" fill="#aaa"/><rect width="0.9433962264150944em" height="16.89685230470673em" x="69.81132075471699em" y="13.10314769529327em" fill="#aaa"/><rect width="0.9433962264150944em" height="5.140834061186632em" x="70.75471698113208em" y="24.85916593881337em" fill="#aaa"/><rect width="0.9433962264150944em" height="10.035940891428824em" x="71.69811320754717em" y="19.964059108571178em" fill="#aaa"/><rect width="0.9433962264150944em" height="7.021095306462114em" x="72.64150943396227em" y="22.978904693537885em" fill="#aaa"/><rect width="0.9433962264150944em" height="6.551323961090488em" x="73.58490566037736em" y="23.44867603890951em" fill="#aaa"/><rect width="0.9433962264150944em" height="7.151813569912511em" x="74.52830188679245em" y="22.848186430087488em" fill="#aaa"/><rect width="0.9433962264150944em" height="10.866239399652633em" x="75.47169811320755em" y="19.133760600347365em" fill="#aaa"/><rect width="0.9433962264150944em" height="4.5530383410532105em" x="76.41509433962264em" y="25.44696165894679em" fill="#aaa"/><rect width="0.9433962264150944em" height="5.306419133443837em" x="77.35849056603773em" y="24.69358086655616em" fill="#aaa"/><rect width="0.9433962264150944em" height="3.3643461746009526em" x="78.30188679245283em" y="26.635653825399046em" fill="#aaa"/><rect width="0.9433962264150944em" height="10.15179608767353em" x="79.24528301886792em" y="19.84820391232647em" fill="#aaa"/><rect width="0.9433962264150944em" height="12.650874796569038em" x="80.18867924528303em" y="17.34912520343096em" fill="#aaa"/><rect width="0.9433962264150944em" height="8.227229964529442em" x="81.13207547169812em" y="21.772770035470558em" fill="#aaa"/><rect width="0.9433962264150944em" height="12.019373702663438em" x="82.0754716981132em" y="17.980626297336563em" fill="#aaa"/><rect width="0.9433962264150944em" height="4.362079597368492em" x="83.01886792452831em" y="25.637920402631508em" fill="#aaa"/><rect width="0.9433962264150944em" height="7.420846728429067em" x="83.9622641509434em" y="22.57915327157093em" fill="#aaa"/><rect width="0.9433962264150944em" height="6.505094662151713em" x="84.90566037735849em" y="23.494905337848287em" fill="#aaa"/><rect width="0.9433962264150944em" height="2.4172541306100106em" x="85.84905660377359em" y="27.58274586938999em" fill="#aaa"/><rect width="0.9433962264150944em" height="4.965815811363348em" x="86.79245283018868em" y="25.03418418863665em" fill="#aaa"/><rect width="0.9433962264150944em" height="5.509789057921994em" x="87.73584905660377em" y="24.490210942078008em" fill="#aaa"/><rect width="0.9433962264150944em" height="9.387569057814385em" x="88.67924528301887em" y="20.612430942185615em" fill="#aaa"/><rect width="0.9433962264150944em" height="5.407361986102903em" x="89.62264150943396em" y="24.592638013897098em" fill="#aaa"/><rect width="0.9433962264150944em" height="6.567338587891111em" x="90.56603773584905em" y="23.43266141210889em" fill="#aaa"/><rect width="0.9433962264150944em" height="4.541030323510317em" x="91.50943396226415em" y="25.458969676489684em" fill="#aaa"/><rect width="0.9433962264150944em" height="4.0941583441245175em" x="92.45283018867924em" y="25.905841655875484em" fill="#aaa"/><rect width="0.9433962264150944em" height="4.690202726247216em" x="93.39622641509435em" y="25.309797273752785em" fill="#aaa"/><rect width="0.9433962264150944em" height="1.8301458652522662em" x="94.33962264150944em" y="28.169854134747734em" fill="#aaa"/><rect width="0.9433962264150944em" height="2.885244657726138em" x="95.28301886792453em" y="27.114755342273863em" fill="#aaa"/><rect width="0.9433962264150944em" height="3.010258547237199em" x="96.22641509433963em" y="26.9897414527628em" fill="#aaa"/><rect width="0.9433962264150944em" height="4.278887787141889em" x="97.16981132075472em" y="25.72111221285811em" fill="#aaa"/><rect width="0.9433962264150944em" height="9.683871153524922em" x="98.11320754716981em" y="20.316128846475078em" fill="#aaa"/><rect width="0.9433962264150944em" height="4.478133551161251em" x="99.05660377358491em" y="25.52186644883875em" fill="#aaa"/></svg>