<?xml version="1.0" standalone="no"?>
<svg xmlns:xlink="http://www.w3.org/1999/xlink" xmlns="http://www.w3.org/2000/svg" class="topic-graph" style="width: 100em; height: 30em; text-align: center;"><rect width="0.9433962264150944em" height="0.022937923140702785em" x="0em" y="29.977062076859298em" fill="#aaa"/><rect width="0.9433962264150944em" height="0.029137949132730642em" x="0.9433962264150944em" y="29.970862050867268em" fill="#aaa"/><rect width="0.9433962264150944em" height="0.34045734485410556em" x="1.8867924528301887em" y="29.659542655145895em" fill="#aaa"/><rect width="0.9433962264150944em" height="0.6162086856674597em" x="2.830188679245283em" y="29.38379131433254em" fill="#aaa"/><rect width="0.9433962264150944em" height="0.022771246391879482em" x="3.7735849056603774em" y="29.97722875360812em" fill="#aaa"/><rect width="0.9433962264150944em" height="0.059150063499733806em" x="4.716981132075472em" y="29.940849936500268em" fill="#aaa"/><rect width="0.9433962264150944em" height="0.6191684663862927em" x="5.660377358490566em" y="29.38083153361371em" fill="#aaa"/><rect width="0.9433962264150944em" height="0.49442490819820173em" x="6.60377358490566em" y="29.5055750918018em" fill="#aaa"/><rect width="0.9433962264150944em" height="0.9407467335183416em" x="7.547169811320755em" y="29.059253266481658em" fill="#aaa"/><rect width="0.9433962264150944em" height="0.10962901320284388em" x="8.49056603773585em" y="29.890370986797155em" fill="#aaa"/><rect width="0.9433962264150944em" height="0.042785971401533285em" x="9.433962264150944em" y="29.957214028598468em" fill="#aaa"/><rect width="0.9433962264150944em" height="0.03642211002772519em" x="10.377358490566039em" y="29.963577889972274em" fill="#aaa"/><rect width="0.9433962264150944em" height="0.0835360486068604em" x="11.320754716981131em" y="29.91646395139314em" fill="#aaa"/><rect width="0.9433962264150944em" height="0em" x="12.264150943396226em" y="30em" fill="#aaa"/><rect width="0.9433962264150944em" height="0.17720155283583258em" x="13.20754716981132em" y="29.822798447164168em" fill="#aaa"/><rect width="0.9433962264150944em" height="0.36641149223594643em" x="14.150943396226415em" y="29.633588507764053em" fill="#aaa"/><rect width="0.9433962264150944em" height="0.06497454478874064em" x="15.09433962264151em" y="29.93502545521126em" fill="#aaa"/><rect width="0.9433962264150944em" height="0.1263983161167192em" x="16.037735849056602em" y="29.87360168388328em" fill="#aaa"/><rect width="0.9433962264150944em" height="0.05546457579945803em" x="16.9811320754717em" y="29.94453542420054em" fill="#aaa"/><rect width="0.9433962264150944em" height="0.6855302202797091em" x="17.92452830188679em" y="29.31446977972029em" fill="#aaa"/><rect width="0.9433962264150944em" height="0.5491037008057328em" x="18.867924528301888em" y="29.450896299194266em" fill="#aaa"/><rect width="0.9433962264150944em" height="0.34695221621048933em" x="19.81132075471698em" y="29.65304778378951em" fill="#aaa"/><rect width="0.9433962264150944em" height="0.3606154219350182em" x="20.754716981132077em" y="29.63938457806498em" fill="#aaa"/><rect width="0.9433962264150944em" height="0.3744045942674591em" x="21.69811320754717em" y="29.62559540573254em" fill="#aaa"/><rect width="0.9433962264150944em" height="0.11265866672995689em" x="22.641509433962263em" y="29.887341333270044em" fill="#aaa"/><rect width="0.9433962264150944em" height="0.01972245800251419em" x="23.58490566037736em" y="29.980277541997484em" fill="#aaa"/><rect width="0.9433962264150944em" height="0em" x="24.528301886792452em" y="30em" fill="#aaa"/><rect width="0.9433962264150944em" height="1.0851287688226825em" x="25.471698113207548em" y="28.91487123117732em" fill="#aaa"/><rect width="0.9433962264150944em" height="0.946222454579081em" x="26.41509433962264em" y="29.053777545420918em" fill="#aaa"/><rect width="0.9433962264150944em" height="0.6743549946141878em" x="27.358490566037737em" y="29.325645005385812em" fill="#aaa"/><rect width="0.9433962264150944em" height="0.4167862081317486em" x="28.30188679245283em" y="29.58321379186825em" fill="#aaa"/><rect width="0.9433962264150944em" height="1.315711658432158em" x="29.245283018867926em" y="28.684288341567843em" fill="#aaa"/><rect width="0.9433962264150944em" height="0.9925731536714686em" x="30.18867924528302em" y="29.00742684632853em" fill="#aaa"/><rect width="0.9433962264150944em" height="0.2547936367192795em" x="31.132075471698112em" y="29.74520636328072em" fill="#aaa"/><rect width="0.9433962264150944em" height="0.30811034987792em" x="32.075471698113205em" y="29.69188965012208em" fill="#aaa"/><rect width="0.9433962264150944em" height="0.17521468550856364em" x="33.0188679245283em" y="29.824785314491436em" fill="#aaa"/><rect width="0.9433962264150944em" height="1.3774705847351705em" x="33.9622641509434em" y="28.62252941526483em" fill="#aaa"/><rect width="0.9433962264150944em" height="0.3865062194643183em" x="34.905660377358494em" y="29.61349378053568em" fill="#aaa"/><rect width="0.9433962264150944em" height="0.3528747790025999em" x="35.84905660377358em" y="29.6471252209974em" fill="#aaa"/><rect width="0.9433962264150944em" height="0.12663551712007418em" x="36.79245283018868em" y="29.873364482879925em" fill="#aaa"/><rect width="0.9433962264150944em" height="0.43771652726781624em" x="37.735849056603776em" y="29.562283472732183em" fill="#aaa"/><rect width="0.9433962264150944em" height="0.6216161269047542em" x="38.679245283018865em" y="29.378383873095245em" fill="#aaa"/><rect width="0.9433962264150944em" height="0.6018035387165945em" x="39.62264150943396em" y="29.398196461283405em" fill="#aaa"/><rect width="0.9433962264150944em" height="0.28397352907951967em" x="40.56603773584906em" y="29.71602647092048em" fill="#aaa"/><rect width="0.9433962264150944em" height="0.1861218942481502em" x="41.509433962264154em" y="29.81387810575185em" fill="#aaa"/><rect width="0.9433962264150944em" height="0.06924007770706944em" x="42.45283018867924em" y="29.930759922292932em" fill="#aaa"/><rect width="0.9433962264150944em" height="0.49068316989512034em" x="43.39622641509434em" y="29.50931683010488em" fill="#aaa"/><rect width="0.9433962264150944em" height="0.238190709746804em" x="44.339622641509436em" y="29.761809290253197em" fill="#aaa"/><rect width="0.9433962264150944em" height="0.28528535964959495em" x="45.283018867924525em" y="29.714714640350405em" fill="#aaa"/><rect width="0.9433962264150944em" height="0.6623266809289277em" x="46.22641509433962em" y="29.337673319071072em" fill="#aaa"/><rect width="0.9433962264150944em" height="2.260048841628552em" x="47.16981132075472em" y="27.739951158371447em" fill="#aaa"/><rect width="0.9433962264150944em" height="0.7345335657646472em" x="48.113207547169814em" y="29.265466434235353em" fill="#aaa"/><rect width="0.9433962264150944em" height="0.7998235366654975em" x="49.056603773584904em" y="29.200176463334504em" fill="#aaa"/><rect width="0.9433962264150944em" height="0.36437234007940683em" x="50em" y="29.635627659920594em" fill="#aaa"/><rect width="0.9433962264150944em" height="0.24775378192966374em" x="50.943396226415096em" y="29.752246218070336em" fill="#aaa"/><rect width="0.9433962264150944em" height="0.7002964489989556em" x="51.88679245283019em" y="29.299703551001045em" fill="#aaa"/><rect width="0.9433962264150944em" height="0.303067591471387em" x="52.83018867924528em" y="29.696932408528614em" fill="#aaa"/><rect width="0.9433962264150944em" height="0.6299539731121215em" x="53.77358490566038em" y="29.370046026887877em" fill="#aaa"/><rect width="0.9433962264150944em" height="0.5854657205737093em" x="54.716981132075475em" y="29.41453427942629em" fill="#aaa"/><rect width="0.9433962264150944em" height="1.9683848488008375em" x="55.660377358490564em" y="28.031615151199162em" fill="#aaa"/><rect width="0.9433962264150944em" height="2.334755189215782em" x="56.60377358490566em" y="27.665244810784216em" fill="#aaa"/><rect width="0.9433962264150944em" height="0.3667276162854466em" x="57.54716981132076em" y="29.633272383714555em" fill="#aaa"/><rect width="0.9433962264150944em" height="1.650328235354236em" x="58.49056603773585em" y="28.349671764645763em" fill="#aaa"/><rect width="0.9433962264150944em" height="2.626058293174206em" x="59.43396226415094em" y="27.373941706825793em" fill="#aaa"/><rect width="0.9433962264150944em" height="1.250047709567758em" x="60.37735849056604em" y="28.74995229043224em" fill="#aaa"/><rect width="0.9433962264150944em" height="1.7124206378711442em" x="61.320754716981135em" y="28.287579362128856em" fill="#aaa"/><rect width="0.9433962264150944em" height="2.7006120311545585em" x="62.264150943396224em" y="27.29938796884544em" fill="#aaa"/><rect width="0.9433962264150944em" height="1.0612358132866808em" x="63.20754716981132em" y="28.938764186713318em" fill="#aaa"/><rect width="0.9433962264150944em" height="1.5599858962681183em" x="64.15094339622641em" y="28.440014103731883em" fill="#aaa"/><rect width="0.9433962264150944em" height="0.24623432310756507em" x="65.09433962264151em" y="29.753765676892435em" fill="#aaa"/><rect width="0.9433962264150944em" height="1.7330320450889996em" x="66.0377358490566em" y="28.266967954911em" fill="#aaa"/><rect width="0.9433962264150944em" height="0.3266295214916381em" x="66.9811320754717em" y="29.67337047850836em" fill="#aaa"/><rect width="0.9433962264150944em" height="0.521602134927711em" x="67.9245283018868em" y="29.47839786507229em" fill="#aaa"/><rect width="0.9433962264150944em" height="0.7674686370700925em" x="68.86792452830188em" y="29.232531362929908em" fill="#aaa"/><rect width="0.9433962264150944em" height="2.0785529045429763em" x="69.81132075471699em" y="27.921447095457022em" fill="#aaa"/><rect width="0.9433962264150944em" height="2.176878185972083em" x="70.75471698113208em" y="27.823121814027918em" fill="#aaa"/><rect width="0.9433962264150944em" height="1.0344128894555158em" x="71.69811320754717em" y="28.965587110544483em" fill="#aaa"/><rect width="0.9433962264150944em" height="1.4365496627320302em" x="72.64150943396227em" y="28.56345033726797em" fill="#aaa"/><rect width="0.9433962264150944em" height="0.4072638810352167em" x="73.58490566037736em" y="29.592736118964783em" fill="#aaa"/><rect width="0.9433962264150944em" height="1.334817830249151em" x="74.52830188679245em" y="28.66518216975085em" fill="#aaa"/><rect width="0.9433962264150944em" height="3.1598956765467574em" x="75.47169811320755em" y="26.840104323453243em" fill="#aaa"/><rect width="0.9433962264150944em" height="0.6082605939703833em" x="76.41509433962264em" y="29.391739406029618em" fill="#aaa"/><rect width="0.9433962264150944em" height="0.9449380742354492em" x="77.35849056603773em" y="29.05506192576455em" fill="#aaa"/><rect width="0.9433962264150944em" height="0.589437203231494em" x="78.30188679245283em" y="29.410562796768506em" fill="#aaa"/><rect width="0.9433962264150944em" height="0.7401975771434632em" x="79.24528301886792em" y="29.259802422856538em" fill="#aaa"/><rect width="0.9433962264150944em" height="2.506550879356426em" x="80.18867924528303em" y="27.493449120643575em" fill="#aaa"/><rect width="0.9433962264150944em" height="1.4771949869610246em" x="81.13207547169812em" y="28.522805013038976em" fill="#aaa"/><rect width="0.9433962264150944em" height="1.0356965267230265em" x="82.0754716981132em" y="28.964303473276974em" fill="#aaa"/><rect width="0.9433962264150944em" height="0.8049382997030816em" x="83.01886792452831em" y="29.195061700296918em" fill="#aaa"/><rect width="0.9433962264150944em" height="1.4948476518370826em" x="83.9622641509434em" y="28.505152348162916em" fill="#aaa"/><rect width="0.9433962264150944em" height="0.7953031648116766em" x="84.90566037735849em" y="29.204696835188322em" fill="#aaa"/><rect width="0.9433962264150944em" height="1.6300242998426406em" x="85.84905660377359em" y="28.369975700157358em" fill="#aaa"/><rect width="0.9433962264150944em" height="1.2090862029056317em" x="86.79245283018868em" y="28.79091379709437em" fill="#aaa"/><rect width="0.9433962264150944em" height="3.3594896488176715em" x="87.73584905660377em" y="26.64051035118233em" fill="#aaa"/><rect width="0.9433962264150944em" height="1.1985725290936344em" x="88.67924528301887em" y="28.801427470906365em" fill="#aaa"/><rect width="0.9433962264150944em" height="0.6830823702178662em" x="89.62264150943396em" y="29.316917629782132em" fill="#aaa"/><rect width="0.9433962264150944em" height="0.6260251611005683em" x="90.56603773584905em" y="29.373974838899432em" fill="#aaa"/><rect width="0.9433962264150944em" height="1.1328011618708365em" x="91.50943396226415em" y="28.867198838129163em" fill="#aaa"/><rect width="0.9433962264150944em" height="1.2759367501542653em" x="92.45283018867924em" y="28.724063249845734em" fill="#aaa"/><rect width="0.9433962264150944em" height="2.1088386510862294em" x="93.39622641509435em" y="27.89116134891377em" fill="#aaa"/><rect width="0.9433962264150944em" height="30em" x="94.33962264150944em" y="0em" fill="#aaa"/><rect width="0.9433962264150944em" height="2.5132678902843675em" x="95.28301886792453em" y="27.486732109715632em" fill="#aaa"/><rect width="0.9433962264150944em" height="13.797568070297784em" x="96.22641509433963em" y="16.202431929702215em" fill="#aaa"/><rect width="0.9433962264150944em" height="3.995069790760437em" x="97.16981132075472em" y="26.004930209239564em" fill="#aaa"/><rect width="0.9433962264150944em" height="4.842932553877743em" x="98.11320754716981em" y="25.157067446122255em" fill="#aaa"/><rect width="0.9433962264150944em" height="7.998716708936778em" x="99.05660377358491em" y="22.001283291063224em" fill="#aaa"/></svg>