<?xml version="1.0" standalone="no"?>
<svg xmlns:xlink="http://www.w3.org/1999/xlink" xmlns="http://www.w3.org/2000/svg" class="topic-graph" style="width: 100em; height: 30em; text-align: center;"><rect width="0.9433962264150944em" height="0.003724395524577126em" x="0em" y="29.99627560447542em" fill="#aaa"/><rect width="0.9433962264150944em" height="0.01071505901323741em" x="0.9433962264150944em" y="29.989284940986764em" fill="#aaa"/><rect width="0.9433962264150944em" height="0.10643999023727034em" x="1.8867924528301887em" y="29.89356000976273em" fill="#aaa"/><rect width="0.9433962264150944em" height="0.0012872286115491556em" x="2.830188679245283em" y="29.99871277138845em" fill="#aaa"/><rect width="0.9433962264150944em" height="0.11964584572594772em" x="3.7735849056603774em" y="29.880354154274052em" fill="#aaa"/><rect width="0.9433962264150944em" height="0.005926361530198018em" x="4.716981132075472em" y="29.994073638469803em" fill="#aaa"/><rect width="0.9433962264150944em" height="0.020165095699584114em" x="5.660377358490566em" y="29.979834904300414em" fill="#aaa"/><rect width="0.9433962264150944em" height="0.0028138953754450924em" x="6.60377358490566em" y="29.997186104624554em" fill="#aaa"/><rect width="0.9433962264150944em" height="0.017504826427931486em" x="7.547169811320755em" y="29.98249517357207em" fill="#aaa"/><rect width="0.9433962264150944em" height="0.014573665804725066em" x="8.49056603773585em" y="29.985426334195274em" fill="#aaa"/><rect width="0.9433962264150944em" height="0.0032027717162087326em" x="9.433962264150944em" y="29.996797228283793em" fill="#aaa"/><rect width="0.9433962264150944em" height="0.005913802341686598em" x="10.377358490566039em" y="29.994086197658312em" fill="#aaa"/><rect width="0.9433962264150944em" height="0.007555083594243941em" x="11.320754716981131em" y="29.992444916405756em" fill="#aaa"/><rect width="0.9433962264150944em" height="0em" x="12.264150943396226em" y="30em" fill="#aaa"/><rect width="0.9433962264150944em" height="0.38992048020463504em" x="13.20754716981132em" y="29.610079519795367em" fill="#aaa"/><rect width="0.9433962264150944em" height="0.02460498999198653em" x="14.150943396226415em" y="29.975395010008015em" fill="#aaa"/><rect width="0.9433962264150944em" height="0.01624633073431168em" x="15.09433962264151em" y="29.98375366926569em" fill="#aaa"/><rect width="0.9433962264150944em" height="0.007707330815015471em" x="16.037735849056602em" y="29.992292669184984em" fill="#aaa"/><rect width="0.9433962264150944em" height="0.009166879861558102em" x="16.9811320754717em" y="29.990833120138443em" fill="#aaa"/><rect width="0.9433962264150944em" height="0.02150016489502571em" x="17.92452830188679em" y="29.978499835104973em" fill="#aaa"/><rect width="0.9433962264150944em" height="0.0024818560953320822em" x="18.867924528301888em" y="29.997518143904667em" fill="#aaa"/><rect width="0.9433962264150944em" height="0.05221022303350766em" x="19.81132075471698em" y="29.94778977696649em" fill="#aaa"/><rect width="0.9433962264150944em" height="0.006667113939474044em" x="20.754716981132077em" y="29.993332886060525em" fill="#aaa"/><rect width="0.9433962264150944em" height="0.022072342534706302em" x="21.69811320754717em" y="29.977927657465294em" fill="#aaa"/><rect width="0.9433962264150944em" height="0.07856674202574566em" x="22.641509433962263em" y="29.921433257974254em" fill="#aaa"/><rect width="0.9433962264150944em" height="0.03997376336871989em" x="23.58490566037736em" y="29.96002623663128em" fill="#aaa"/><rect width="0.9433962264150944em" height="0em" x="24.528301886792452em" y="30em" fill="#aaa"/><rect width="0.9433962264150944em" height="0.1301085670073484em" x="25.471698113207548em" y="29.869891432992652em" fill="#aaa"/><rect width="0.9433962264150944em" height="0.022647052462732246em" x="26.41509433962264em" y="29.977352947537266em" fill="#aaa"/><rect width="0.9433962264150944em" height="0.5375321787296582em" x="27.358490566037737em" y="29.46246782127034em" fill="#aaa"/><rect width="0.9433962264150944em" height="0.5915793391850594em" x="28.30188679245283em" y="29.40842066081494em" fill="#aaa"/><rect width="0.9433962264150944em" height="0.7518074971659697em" x="29.245283018867926em" y="29.24819250283403em" fill="#aaa"/><rect width="0.9433962264150944em" height="0.023592265357428602em" x="30.18867924528302em" y="29.97640773464257em" fill="#aaa"/><rect width="0.9433962264150944em" height="0.056565723605292606em" x="31.132075471698112em" y="29.943434276394708em" fill="#aaa"/><rect width="0.9433962264150944em" height="0.08420653443335116em" x="32.075471698113205em" y="29.915793465566647em" fill="#aaa"/><rect width="0.9433962264150944em" height="0.03339881033387096em" x="33.0188679245283em" y="29.96660118966613em" fill="#aaa"/><rect width="0.9433962264150944em" height="0.1803426762401022em" x="33.9622641509434em" y="29.8196573237599em" fill="#aaa"/><rect width="0.9433962264150944em" height="0.025722730571978214em" x="34.905660377358494em" y="29.974277269428022em" fill="#aaa"/><rect width="0.9433962264150944em" height="0.1916534961513092em" x="35.84905660377358em" y="29.80834650384869em" fill="#aaa"/><rect width="0.9433962264150944em" height="0.025739353577912887em" x="36.79245283018868em" y="29.97426064642209em" fill="#aaa"/><rect width="0.9433962264150944em" height="0.3930059202583855em" x="37.735849056603776em" y="29.606994079741614em" fill="#aaa"/><rect width="0.9433962264150944em" height="0.18166446385798402em" x="38.679245283018865em" y="29.818335536142015em" fill="#aaa"/><rect width="0.9433962264150944em" height="0.14650728140042887em" x="39.62264150943396em" y="29.853492718599572em" fill="#aaa"/><rect width="0.9433962264150944em" height="2.2179713622724764em" x="40.56603773584906em" y="27.782028637727525em" fill="#aaa"/><rect width="0.9433962264150944em" height="0.8151471390296072em" x="41.509433962264154em" y="29.18485286097039em" fill="#aaa"/><rect width="0.9433962264150944em" height="0.3333566780893155em" x="42.45283018867924em" y="29.666643321910684em" fill="#aaa"/><rect width="0.9433962264150944em" height="0.18255490074845604em" x="43.39622641509434em" y="29.817445099251543em" fill="#aaa"/><rect width="0.9433962264150944em" height="0.3747297094814213em" x="44.339622641509436em" y="29.62527029051858em" fill="#aaa"/><rect width="0.9433962264150944em" height="0.0033975401180724456em" x="45.283018867924525em" y="29.996602459881927em" fill="#aaa"/><rect width="0.9433962264150944em" height="0.17957125505150445em" x="46.22641509433962em" y="29.820428744948497em" fill="#aaa"/><rect width="0.9433962264150944em" height="0.02722796545977615em" x="47.16981132075472em" y="29.972772034540224em" fill="#aaa"/><rect width="0.9433962264150944em" height="0.013742549788169517em" x="48.113207547169814em" y="29.98625745021183em" fill="#aaa"/><rect width="0.9433962264150944em" height="0.00713298472221855em" x="49.056603773584904em" y="29.99286701527778em" fill="#aaa"/><rect width="0.9433962264150944em" height="0.09515147303337922em" x="50em" y="29.90484852696662em" fill="#aaa"/><rect width="0.9433962264150944em" height="0.0372158410514205em" x="50.943396226415096em" y="29.96278415894858em" fill="#aaa"/><rect width="0.9433962264150944em" height="0.06289963209414798em" x="51.88679245283019em" y="29.937100367905852em" fill="#aaa"/><rect width="0.9433962264150944em" height="0.0872547605284341em" x="52.83018867924528em" y="29.912745239471565em" fill="#aaa"/><rect width="0.9433962264150944em" height="0.04011540071389617em" x="53.77358490566038em" y="29.959884599286102em" fill="#aaa"/><rect width="0.9433962264150944em" height="0.04408937017534255em" x="54.716981132075475em" y="29.955910629824658em" fill="#aaa"/><rect width="0.9433962264150944em" height="0.011443043436709304em" x="55.660377358490564em" y="29.98855695656329em" fill="#aaa"/><rect width="0.9433962264150944em" height="0.09302990010432954em" x="56.60377358490566em" y="29.90697009989567em" fill="#aaa"/><rect width="0.9433962264150944em" height="0.10321144567141902em" x="57.54716981132076em" y="29.89678855432858em" fill="#aaa"/><rect width="0.9433962264150944em" height="0.16130822747713722em" x="58.49056603773585em" y="29.838691772522864em" fill="#aaa"/><rect width="0.9433962264150944em" height="0.03032997882202243em" x="59.43396226415094em" y="29.96967002117798em" fill="#aaa"/><rect width="0.9433962264150944em" height="0.07782745737577615em" x="60.37735849056604em" y="29.922172542624224em" fill="#aaa"/><rect width="0.9433962264150944em" height="0.03033995256354193em" x="61.320754716981135em" y="29.96966004743646em" fill="#aaa"/><rect width="0.9433962264150944em" height="0.5426594383489272em" x="62.264150943396224em" y="29.457340561651073em" fill="#aaa"/><rect width="0.9433962264150944em" height="3.032535179807386em" x="63.20754716981132em" y="26.967464820192614em" fill="#aaa"/><rect width="0.9433962264150944em" height="1.2472997259031153em" x="64.15094339622641em" y="28.752700274096885em" fill="#aaa"/><rect width="0.9433962264150944em" height="0.29210811839691125em" x="65.09433962264151em" y="29.70789188160309em" fill="#aaa"/><rect width="0.9433962264150944em" height="0.3023910016053223em" x="66.0377358490566em" y="29.697608998394678em" fill="#aaa"/><rect width="0.9433962264150944em" height="1.4235414467643404em" x="66.9811320754717em" y="28.57645855323566em" fill="#aaa"/><rect width="0.9433962264150944em" height="2.6822958703429327em" x="67.9245283018868em" y="27.317704129657066em" fill="#aaa"/><rect width="0.9433962264150944em" height="0.46970348767675674em" x="68.86792452830188em" y="29.530296512323243em" fill="#aaa"/><rect width="0.9433962264150944em" height="2.0050000152982848em" x="69.81132075471699em" y="27.994999984701714em" fill="#aaa"/><rect width="0.9433962264150944em" height="0.1040092940479158em" x="70.75471698113208em" y="29.895990705952084em" fill="#aaa"/><rect width="0.9433962264150944em" height="0.3557936600095306em" x="71.69811320754717em" y="29.64420633999047em" fill="#aaa"/><rect width="0.9433962264150944em" height="3.4430883347008163em" x="72.64150943396227em" y="26.556911665299182em" fill="#aaa"/><rect width="0.9433962264150944em" height="4.742352966128768em" x="73.58490566037736em" y="25.25764703387123em" fill="#aaa"/><rect width="0.9433962264150944em" height="10.090864934878752em" x="74.52830188679245em" y="19.909135065121248em" fill="#aaa"/><rect width="0.9433962264150944em" height="4.054583218116682em" x="75.47169811320755em" y="25.945416781883317em" fill="#aaa"/><rect width="0.9433962264150944em" height="1.4794393295344113em" x="76.41509433962264em" y="28.52056067046559em" fill="#aaa"/><rect width="0.9433962264150944em" height="0.7124614600152966em" x="77.35849056603773em" y="29.287538539984702em" fill="#aaa"/><rect width="0.9433962264150944em" height="15.45314680114702em" x="78.30188679245283em" y="14.54685319885298em" fill="#aaa"/><rect width="0.9433962264150944em" height="30em" x="79.24528301886792em" y="0em" fill="#aaa"/><rect width="0.9433962264150944em" height="9.932655997261554em" x="80.18867924528303em" y="20.067344002738444em" fill="#aaa"/><rect width="0.9433962264150944em" height="7.321450537550587em" x="81.13207547169812em" y="22.678549462449414em" fill="#aaa"/><rect width="0.9433962264150944em" height="6.562348962373047em" x="82.0754716981132em" y="23.437651037626953em" fill="#aaa"/><rect width="0.9433962264150944em" height="1.3377124979409076em" x="83.01886792452831em" y="28.662287502059094em" fill="#aaa"/><rect width="0.9433962264150944em" height="3.6758657491096707em" x="83.9622641509434em" y="26.324134250890328em" fill="#aaa"/><rect width="0.9433962264150944em" height="7.04462746926311em" x="84.90566037735849em" y="22.955372530736888em" fill="#aaa"/><rect width="0.9433962264150944em" height="3.3640513766254534em" x="85.84905660377359em" y="26.635948623374546em" fill="#aaa"/><rect width="0.9433962264150944em" height="1.7947039443291757em" x="86.79245283018868em" y="28.205296055670825em" fill="#aaa"/><rect width="0.9433962264150944em" height="0.7378677267183112em" x="87.73584905660377em" y="29.26213227328169em" fill="#aaa"/><rect width="0.9433962264150944em" height="0.36306608999512685em" x="88.67924528301887em" y="29.636933910004874em" fill="#aaa"/><rect width="0.9433962264150944em" height="0.27835135466502586em" x="89.62264150943396em" y="29.721648645334973em" fill="#aaa"/><rect width="0.9433962264150944em" height="0.04334264390014683em" x="90.56603773584905em" y="29.956657356099853em" fill="#aaa"/><rect width="0.9433962264150944em" height="0.7286255677737448em" x="91.50943396226415em" y="29.271374432226256em" fill="#aaa"/><rect width="0.9433962264150944em" height="0.6856423854862461em" x="92.45283018867924em" y="29.314357614513753em" fill="#aaa"/><rect width="0.9433962264150944em" height="3.8355732004811887em" x="93.39622641509435em" y="26.16442679951881em" fill="#aaa"/><rect width="0.9433962264150944em" height="0.2870491034687763em" x="94.33962264150944em" y="29.712950896531225em" fill="#aaa"/><rect width="0.9433962264150944em" height="0.36073715412193297em" x="95.28301886792453em" y="29.63926284587807em" fill="#aaa"/><rect width="0.9433962264150944em" height="1.3344009739946678em" x="96.22641509433963em" y="28.66559902600533em" fill="#aaa"/><rect width="0.9433962264150944em" height="0.8664362280572573em" x="97.16981132075472em" y="29.133563771942743em" fill="#aaa"/><rect width="0.9433962264150944em" height="1.0735087068121762em" x="98.11320754716981em" y="28.926491293187823em" fill="#aaa"/><rect width="0.9433962264150944em" height="4.020782611458313em" x="99.05660377358491em" y="25.979217388541688em" fill="#aaa"/></svg>