<?xml version="1.0" standalone="no"?>
<svg xmlns:xlink="http://www.w3.org/1999/xlink" xmlns="http://www.w3.org/2000/svg" class="topic-graph" style="width: 100em; height: 30em; text-align: center;"><rect width="0.9433962264150944em" height="0.008444365403960128em" x="0em" y="29.99155563459604em" fill="#aaa"/><rect width="0.9433962264150944em" height="12.620961042405904em" x="0.9433962264150944em" y="17.379038957594098em" fill="#aaa"/><rect width="0.9433962264150944em" height="0.6451119900375548em" x="1.8867924528301887em" y="29.354888009962444em" fill="#aaa"/><rect width="0.9433962264150944em" height="1.1684812846213224em" x="2.830188679245283em" y="28.831518715378678em" fill="#aaa"/><rect width="0.9433962264150944em" height="0.3452692502155287em" x="3.7735849056603774em" y="29.65473074978447em" fill="#aaa"/><rect width="0.9433962264150944em" height="0.08549695189574298em" x="4.716981132075472em" y="29.914503048104258em" fill="#aaa"/><rect width="0.9433962264150944em" height="0.44447228938264194em" x="5.660377358490566em" y="29.55552771061736em" fill="#aaa"/><rect width="0.9433962264150944em" height="0.00637997779826832em" x="6.60377358490566em" y="29.993620022201732em" fill="#aaa"/><rect width="0.9433962264150944em" height="0.08068305243058409em" x="7.547169811320755em" y="29.919316947569417em" fill="#aaa"/><rect width="0.9433962264150944em" height="0.07867059598963475em" x="8.49056603773585em" y="29.921329404010365em" fill="#aaa"/><rect width="0.9433962264150944em" height="0.41882469505591524em" x="9.433962264150944em" y="29.581175304944086em" fill="#aaa"/><rect width="0.9433962264150944em" height="2.72153720567289em" x="10.377358490566039em" y="27.278462794327112em" fill="#aaa"/><rect width="0.9433962264150944em" height="0.3765785899263455em" x="11.320754716981131em" y="29.623421410073654em" fill="#aaa"/><rect width="0.9433962264150944em" height="0em" x="12.264150943396226em" y="30em" fill="#aaa"/><rect width="0.9433962264150944em" height="0.4665691281829604em" x="13.20754716981132em" y="29.53343087181704em" fill="#aaa"/><rect width="0.9433962264150944em" height="0.04015644302406305em" x="14.150943396226415em" y="29.959843556975937em" fill="#aaa"/><rect width="0.9433962264150944em" height="1.3562923597421637em" x="15.09433962264151em" y="28.643707640257837em" fill="#aaa"/><rect width="0.9433962264150944em" height="0.8505988163464662em" x="16.037735849056602em" y="29.149401183653534em" fill="#aaa"/><rect width="0.9433962264150944em" height="2.3809383064148584em" x="16.9811320754717em" y="27.61906169358514em" fill="#aaa"/><rect width="0.9433962264150944em" height="0.20476421068944634em" x="17.92452830188679em" y="29.795235789310553em" fill="#aaa"/><rect width="0.9433962264150944em" height="2.3312102079287484em" x="18.867924528301888em" y="27.66878979207125em" fill="#aaa"/><rect width="0.9433962264150944em" height="0.8602042097189848em" x="19.81132075471698em" y="29.139795790281013em" fill="#aaa"/><rect width="0.9433962264150944em" height="6.9079183334798095em" x="20.754716981132077em" y="23.09208166652019em" fill="#aaa"/><rect width="0.9433962264150944em" height="0.7333957320495399em" x="21.69811320754717em" y="29.26660426795046em" fill="#aaa"/><rect width="0.9433962264150944em" height="1.9029403310290744em" x="22.641509433962263em" y="28.097059668970925em" fill="#aaa"/><rect width="0.9433962264150944em" height="3.348638660385697em" x="23.58490566037736em" y="26.651361339614304em" fill="#aaa"/><rect width="0.9433962264150944em" height="0em" x="24.528301886792452em" y="30em" fill="#aaa"/><rect width="0.9433962264150944em" height="1.079714037797908em" x="25.471698113207548em" y="28.920285962202094em" fill="#aaa"/><rect width="0.9433962264150944em" height="13.48195705291736em" x="26.41509433962264em" y="16.51804294708264em" fill="#aaa"/><rect width="0.9433962264150944em" height="13.90453543463252em" x="27.358490566037737em" y="16.09546456536748em" fill="#aaa"/><rect width="0.9433962264150944em" height="0.5457243471303119em" x="28.30188679245283em" y="29.45427565286969em" fill="#aaa"/><rect width="0.9433962264150944em" height="1.6596436430942105em" x="29.245283018867926em" y="28.34035635690579em" fill="#aaa"/><rect width="0.9433962264150944em" height="4.637420936930176em" x="30.18867924528302em" y="25.362579063069823em" fill="#aaa"/><rect width="0.9433962264150944em" height="1.7153264394376186em" x="31.132075471698112em" y="28.284673560562382em" fill="#aaa"/><rect width="0.9433962264150944em" height="3.586471438591077em" x="32.075471698113205em" y="26.413528561408924em" fill="#aaa"/><rect width="0.9433962264150944em" height="4.3553249007652em" x="33.0188679245283em" y="25.6446750992348em" fill="#aaa"/><rect width="0.9433962264150944em" height="3.447677248572773em" x="33.9622641509434em" y="26.552322751427226em" fill="#aaa"/><rect width="0.9433962264150944em" height="7.331249517390177em" x="34.905660377358494em" y="22.668750482609823em" fill="#aaa"/><rect width="0.9433962264150944em" height="17.230335094341974em" x="35.84905660377358em" y="12.769664905658026em" fill="#aaa"/><rect width="0.9433962264150944em" height="1.5290161049416313em" x="36.79245283018868em" y="28.470983895058367em" fill="#aaa"/><rect width="0.9433962264150944em" height="1.7668706660671594em" x="37.735849056603776em" y="28.23312933393284em" fill="#aaa"/><rect width="0.9433962264150944em" height="1.3690776745357647em" x="38.679245283018865em" y="28.630922325464237em" fill="#aaa"/><rect width="0.9433962264150944em" height="0.3396137207908281em" x="39.62264150943396em" y="29.66038627920917em" fill="#aaa"/><rect width="0.9433962264150944em" height="0.8028546472367654em" x="40.56603773584906em" y="29.197145352763236em" fill="#aaa"/><rect width="0.9433962264150944em" height="1.0086049414278422em" x="41.509433962264154em" y="28.99139505857216em" fill="#aaa"/><rect width="0.9433962264150944em" height="1.7967200717105678em" x="42.45283018867924em" y="28.203279928289433em" fill="#aaa"/><rect width="0.9433962264150944em" height="0.8674137245039192em" x="43.39622641509434em" y="29.13258627549608em" fill="#aaa"/><rect width="0.9433962264150944em" height="11.125914986843012em" x="44.339622641509436em" y="18.874085013156986em" fill="#aaa"/><rect width="0.9433962264150944em" height="2.4506831917561462em" x="45.283018867924525em" y="27.549316808243855em" fill="#aaa"/><rect width="0.9433962264150944em" height="3.2244282777426996em" x="46.22641509433962em" y="26.7755717222573em" fill="#aaa"/><rect width="0.9433962264150944em" height="0.30881264987797596em" x="47.16981132075472em" y="29.691187350122025em" fill="#aaa"/><rect width="0.9433962264150944em" height="0.9919948462699812em" x="48.113207547169814em" y="29.008005153730018em" fill="#aaa"/><rect width="0.9433962264150944em" height="0.20861081039150017em" x="49.056603773584904em" y="29.7913891896085em" fill="#aaa"/><rect width="0.9433962264150944em" height="0.34263434660326625em" x="50em" y="29.657365653396734em" fill="#aaa"/><rect width="0.9433962264150944em" height="0.8359623611744432em" x="50.943396226415096em" y="29.164037638825558em" fill="#aaa"/><rect width="0.9433962264150944em" height="2.0824179185662497em" x="51.88679245283019em" y="27.91758208143375em" fill="#aaa"/><rect width="0.9433962264150944em" height="10.398080951575507em" x="52.83018867924528em" y="19.60191904842449em" fill="#aaa"/><rect width="0.9433962264150944em" height="5.793171473644281em" x="53.77358490566038em" y="24.206828526355718em" fill="#aaa"/><rect width="0.9433962264150944em" height="0.875447600643816em" x="54.716981132075475em" y="29.124552399356183em" fill="#aaa"/><rect width="0.9433962264150944em" height="0.26421276324025883em" x="55.660377358490564em" y="29.73578723675974em" fill="#aaa"/><rect width="0.9433962264150944em" height="0.40672412757485976em" x="56.60377358490566em" y="29.59327587242514em" fill="#aaa"/><rect width="0.9433962264150944em" height="0.6704912259627888em" x="57.54716981132076em" y="29.329508774037212em" fill="#aaa"/><rect width="0.9433962264150944em" height="0.9564772117425362em" x="58.49056603773585em" y="29.043522788257462em" fill="#aaa"/><rect width="0.9433962264150944em" height="9.209181112810287em" x="59.43396226415094em" y="20.790818887189715em" fill="#aaa"/><rect width="0.9433962264150944em" height="30em" x="60.37735849056604em" y="0em" fill="#aaa"/><rect width="0.9433962264150944em" height="4.869138232956138em" x="61.320754716981135em" y="25.13086176704386em" fill="#aaa"/><rect width="0.9433962264150944em" height="2.5522002843103984em" x="62.264150943396224em" y="27.4477997156896em" fill="#aaa"/><rect width="0.9433962264150944em" height="0.8230225191256169em" x="63.20754716981132em" y="29.176977480874385em" fill="#aaa"/><rect width="0.9433962264150944em" height="0.8778246301663908em" x="64.15094339622641em" y="29.12217536983361em" fill="#aaa"/><rect width="0.9433962264150944em" height="1.6814871167742813em" x="65.09433962264151em" y="28.31851288322572em" fill="#aaa"/><rect width="0.9433962264150944em" height="1.0832003108692454em" x="66.0377358490566em" y="28.916799689130755em" fill="#aaa"/><rect width="0.9433962264150944em" height="0.7860310105387438em" x="66.9811320754717em" y="29.213968989461257em" fill="#aaa"/><rect width="0.9433962264150944em" height="1.2405517051589694em" x="67.9245283018868em" y="28.75944829484103em" fill="#aaa"/><rect width="0.9433962264150944em" height="3.035579791960198em" x="68.86792452830188em" y="26.9644202080398em" fill="#aaa"/><rect width="0.9433962264150944em" height="2.3075451061728587em" x="69.81132075471699em" y="27.69245489382714em" fill="#aaa"/><rect width="0.9433962264150944em" height="2.690658726701007em" x="70.75471698113208em" y="27.309341273298994em" fill="#aaa"/><rect width="0.9433962264150944em" height="3.5134477610324693em" x="71.69811320754717em" y="26.48655223896753em" fill="#aaa"/><rect width="0.9433962264150944em" height="1.0075165603677814em" x="72.64150943396227em" y="28.992483439632217em" fill="#aaa"/><rect width="0.9433962264150944em" height="0.20832820116655665em" x="73.58490566037736em" y="29.791671798833445em" fill="#aaa"/><rect width="0.9433962264150944em" height="0.879647066008831em" x="74.52830188679245em" y="29.120352933991168em" fill="#aaa"/><rect width="0.9433962264150944em" height="1.5271008174929352em" x="75.47169811320755em" y="28.472899182507064em" fill="#aaa"/><rect width="0.9433962264150944em" height="9.89877621103919em" x="76.41509433962264em" y="20.10122378896081em" fill="#aaa"/><rect width="0.9433962264150944em" height="3.208117271777457em" x="77.35849056603773em" y="26.791882728222543em" fill="#aaa"/><rect width="0.9433962264150944em" height="2.054062047133297em" x="78.30188679245283em" y="27.945937952866704em" fill="#aaa"/><rect width="0.9433962264150944em" height="1.0310125751941113em" x="79.24528301886792em" y="28.96898742480589em" fill="#aaa"/><rect width="0.9433962264150944em" height="1.3598440011965258em" x="80.18867924528303em" y="28.640155998803476em" fill="#aaa"/><rect width="0.9433962264150944em" height="1.4167814430291674em" x="81.13207547169812em" y="28.583218556970834em" fill="#aaa"/><rect width="0.9433962264150944em" height="0.9949776868147346em" x="82.0754716981132em" y="29.005022313185265em" fill="#aaa"/><rect width="0.9433962264150944em" height="4.297312390287367em" x="83.01886792452831em" y="25.702687609712633em" fill="#aaa"/><rect width="0.9433962264150944em" height="3.7140727816251626em" x="83.9622641509434em" y="26.285927218374837em" fill="#aaa"/><rect width="0.9433962264150944em" height="3.4487384349880847em" x="84.90566037735849em" y="26.551261565011917em" fill="#aaa"/><rect width="0.9433962264150944em" height="3.474387956007053em" x="85.84905660377359em" y="26.525612043992947em" fill="#aaa"/><rect width="0.9433962264150944em" height="1.7733658594404087em" x="86.79245283018868em" y="28.22663414055959em" fill="#aaa"/><rect width="0.9433962264150944em" height="1.1433635456285307em" x="87.73584905660377em" y="28.85663645437147em" fill="#aaa"/><rect width="0.9433962264150944em" height="2.0385335531036324em" x="88.67924528301887em" y="27.961466446896367em" fill="#aaa"/><rect width="0.9433962264150944em" height="1.2725017538783638em" x="89.62264150943396em" y="28.727498246121637em" fill="#aaa"/><rect width="0.9433962264150944em" height="4.132705573654458em" x="90.56603773584905em" y="25.86729442634554em" fill="#aaa"/><rect width="0.9433962264150944em" height="1.0411007544676136em" x="91.50943396226415em" y="28.958899245532386em" fill="#aaa"/><rect width="0.9433962264150944em" height="0.4904941856129215em" x="92.45283018867924em" y="29.50950581438708em" fill="#aaa"/><rect width="0.9433962264150944em" height="0.17797499124429983em" x="93.39622641509435em" y="29.822025008755702em" fill="#aaa"/><rect width="0.9433962264150944em" height="0.24343182548868em" x="94.33962264150944em" y="29.75656817451132em" fill="#aaa"/><rect width="0.9433962264150944em" height="0.48490199452156973em" x="95.28301886792453em" y="29.515098005478432em" fill="#aaa"/><rect width="0.9433962264150944em" height="1.283950059008205em" x="96.22641509433963em" y="28.716049940991795em" fill="#aaa"/><rect width="0.9433962264150944em" height="2.679006233428502em" x="97.16981132075472em" y="27.320993766571497em" fill="#aaa"/><rect width="0.9433962264150944em" height="0.5442676428242098em" x="98.11320754716981em" y="29.45573235717579em" fill="#aaa"/><rect width="0.9433962264150944em" height="0.875591855960754em" x="99.05660377358491em" y="29.124408144039247em" fill="#aaa"/></svg>