<?xml version="1.0" standalone="no"?>
<svg xmlns:xlink="http://www.w3.org/1999/xlink" xmlns="http://www.w3.org/2000/svg" class="topic-graph" style="width: 100em; height: 30em; text-align: center;"><rect width="0.9433962264150944em" height="0.008355152641333947em" x="0em" y="29.991644847358668em" fill="#aaa"/><rect width="0.9433962264150944em" height="0.05741874107427713em" x="0.9433962264150944em" y="29.942581258925724em" fill="#aaa"/><rect width="0.9433962264150944em" height="2.807425079850437em" x="1.8867924528301887em" y="27.192574920149564em" fill="#aaa"/><rect width="0.9433962264150944em" height="0.4388730431095911em" x="2.830188679245283em" y="29.56112695689041em" fill="#aaa"/><rect width="0.9433962264150944em" height="0.8100029084788605em" x="3.7735849056603774em" y="29.18999709152114em" fill="#aaa"/><rect width="0.9433962264150944em" height="1.0169483833097066em" x="4.716981132075472em" y="28.983051616690293em" fill="#aaa"/><rect width="0.9433962264150944em" height="0.05647911347294844em" x="5.660377358490566em" y="29.94352088652705em" fill="#aaa"/><rect width="0.9433962264150944em" height="0.006312574812058096em" x="6.60377358490566em" y="29.993687425187943em" fill="#aaa"/><rect width="0.9433962264150944em" height="0.3368506122515908em" x="7.547169811320755em" y="29.66314938774841em" fill="#aaa"/><rect width="0.9433962264150944em" height="0.39645533288198037em" x="8.49056603773585em" y="29.60354466711802em" fill="#aaa"/><rect width="0.9433962264150944em" height="0.11590421597108531em" x="9.433962264150944em" y="29.884095784028915em" fill="#aaa"/><rect width="0.9433962264150944em" height="0.09962750867041961em" x="10.377358490566039em" y="29.90037249132958em" fill="#aaa"/><rect width="0.9433962264150944em" height="0.20600152637435054em" x="11.320754716981131em" y="29.79399847362565em" fill="#aaa"/><rect width="0.9433962264150944em" height="0em" x="12.264150943396226em" y="30em" fill="#aaa"/><rect width="0.9433962264150944em" height="0.32669564354094227em" x="13.20754716981132em" y="29.673304356459056em" fill="#aaa"/><rect width="0.9433962264150944em" height="0.007399607694383631em" x="14.150943396226415em" y="29.992600392305615em" fill="#aaa"/><rect width="0.9433962264150944em" height="0.10053111310514723em" x="15.09433962264151em" y="29.89946888689485em" fill="#aaa"/><rect width="0.9433962264150944em" height="0.011788818961102886em" x="16.037735849056602em" y="29.988211181038896em" fill="#aaa"/><rect width="0.9433962264150944em" height="0.061748171436402564em" x="16.9811320754717em" y="29.938251828563597em" fill="#aaa"/><rect width="0.9433962264150944em" height="0.12619179679399367em" x="17.92452830188679em" y="29.873808203206007em" fill="#aaa"/><rect width="0.9433962264150944em" height="0.06087582451268569em" x="18.867924528301888em" y="29.939124175487315em" fill="#aaa"/><rect width="0.9433962264150944em" height="0.006861803623194827em" x="19.81132075471698em" y="29.993138196376805em" fill="#aaa"/><rect width="0.9433962264150944em" height="0.0034354037200752968em" x="20.754716981132077em" y="29.996564596279924em" fill="#aaa"/><rect width="0.9433962264150944em" height="0.6450852755898002em" x="21.69811320754717em" y="29.3549147244102em" fill="#aaa"/><rect width="0.9433962264150944em" height="0.008140292201403049em" x="22.641509433962263em" y="29.991859707798596em" fill="#aaa"/><rect width="0.9433962264150944em" height="0.004563878174511893em" x="23.58490566037736em" y="29.995436121825488em" fill="#aaa"/><rect width="0.9433962264150944em" height="0em" x="24.528301886792452em" y="30em" fill="#aaa"/><rect width="0.9433962264150944em" height="0.06812970286889147em" x="25.471698113207548em" y="29.93187029713111em" fill="#aaa"/><rect width="0.9433962264150944em" height="0.016986512365565188em" x="26.41509433962264em" y="29.983013487634434em" fill="#aaa"/><rect width="0.9433962264150944em" height="0.014755642993949417em" x="27.358490566037737em" y="29.98524435700605em" fill="#aaa"/><rect width="0.9433962264150944em" height="0.0940870358446207em" x="28.30188679245283em" y="29.90591296415538em" fill="#aaa"/><rect width="0.9433962264150944em" height="0.1654547498323154em" x="29.245283018867926em" y="29.834545250167686em" fill="#aaa"/><rect width="0.9433962264150944em" height="0.0765022321805844em" x="30.18867924528302em" y="29.923497767819416em" fill="#aaa"/><rect width="0.9433962264150944em" height="0.17731397668645338em" x="31.132075471698112em" y="29.822686023313548em" fill="#aaa"/><rect width="0.9433962264150944em" height="0.007342602243211775em" x="32.075471698113205em" y="29.992657397756787em" fill="#aaa"/><rect width="0.9433962264150944em" height="0.14498858181702473em" x="33.0188679245283em" y="29.855011418182976em" fill="#aaa"/><rect width="0.9433962264150944em" height="0.2159040752224733em" x="33.9622641509434em" y="29.784095924777528em" fill="#aaa"/><rect width="0.9433962264150944em" height="0.1082062474732475em" x="34.905660377358494em" y="29.891793752526752em" fill="#aaa"/><rect width="0.9433962264150944em" height="0.14250999364685066em" x="35.84905660377358em" y="29.85749000635315em" fill="#aaa"/><rect width="0.9433962264150944em" height="0.16628629967889128em" x="36.79245283018868em" y="29.83371370032111em" fill="#aaa"/><rect width="0.9433962264150944em" height="0.04713143743437135em" x="37.735849056603776em" y="29.95286856256563em" fill="#aaa"/><rect width="0.9433962264150944em" height="0.005353058667476687em" x="38.679245283018865em" y="29.994646941332523em" fill="#aaa"/><rect width="0.9433962264150944em" height="0.1006984647691695em" x="39.62264150943396em" y="29.89930153523083em" fill="#aaa"/><rect width="0.9433962264150944em" height="0.11135575064762653em" x="40.56603773584906em" y="29.888644249352375em" fill="#aaa"/><rect width="0.9433962264150944em" height="0.0649522539552495em" x="41.509433962264154em" y="29.935047746044752em" fill="#aaa"/><rect width="0.9433962264150944em" height="1.4190707402095952em" x="42.45283018867924em" y="28.580929259790405em" fill="#aaa"/><rect width="0.9433962264150944em" height="0.9170996675121695em" x="43.39622641509434em" y="29.08290033248783em" fill="#aaa"/><rect width="0.9433962264150944em" height="0.6896230188080033em" x="44.339622641509436em" y="29.310376981191997em" fill="#aaa"/><rect width="0.9433962264150944em" height="1.304117919564305em" x="45.283018867924525em" y="28.695882080435695em" fill="#aaa"/><rect width="0.9433962264150944em" height="0.10837968969523715em" x="46.22641509433962em" y="29.891620310304763em" fill="#aaa"/><rect width="0.9433962264150944em" height="0.3339911706365288em" x="47.16981132075472em" y="29.66600882936347em" fill="#aaa"/><rect width="0.9433962264150944em" height="0.17959269253222046em" x="48.113207547169814em" y="29.82040730746778em" fill="#aaa"/><rect width="0.9433962264150944em" height="0.07925869814912578em" x="49.056603773584904em" y="29.920741301850875em" fill="#aaa"/><rect width="0.9433962264150944em" height="0.10386823328327313em" x="50em" y="29.896131766716728em" fill="#aaa"/><rect width="0.9433962264150944em" height="0.2211368065259762em" x="50.943396226415096em" y="29.778863193474024em" fill="#aaa"/><rect width="0.9433962264150944em" height="0.19509642016063825em" x="51.88679245283019em" y="29.804903579839362em" fill="#aaa"/><rect width="0.9433962264150944em" height="1.5068134729075544em" x="52.83018867924528em" y="28.493186527092444em" fill="#aaa"/><rect width="0.9433962264150944em" height="0.7949774333286102em" x="53.77358490566038em" y="29.20502256667139em" fill="#aaa"/><rect width="0.9433962264150944em" height="1.2394084884366814em" x="54.716981132075475em" y="28.76059151156332em" fill="#aaa"/><rect width="0.9433962264150944em" height="3.3225672799421946em" x="55.660377358490564em" y="26.677432720057805em" fill="#aaa"/><rect width="0.9433962264150944em" height="0.807149057332935em" x="56.60377358490566em" y="29.192850942667064em" fill="#aaa"/><rect width="0.9433962264150944em" height="0.16111763092673376em" x="57.54716981132076em" y="29.838882369073268em" fill="#aaa"/><rect width="0.9433962264150944em" height="0.3760253534011307em" x="58.49056603773585em" y="29.62397464659887em" fill="#aaa"/><rect width="0.9433962264150944em" height="0.6849578259667544em" x="59.43396226415094em" y="29.315042174033245em" fill="#aaa"/><rect width="0.9433962264150944em" height="0.2849539832434759em" x="60.37735849056604em" y="29.715046016756524em" fill="#aaa"/><rect width="0.9433962264150944em" height="0.17270134979934687em" x="61.320754716981135em" y="29.827298650200653em" fill="#aaa"/><rect width="0.9433962264150944em" height="0.07608247258946937em" x="62.264150943396224em" y="29.92391752741053em" fill="#aaa"/><rect width="0.9433962264150944em" height="0.4225816086404547em" x="63.20754716981132em" y="29.577418391359544em" fill="#aaa"/><rect width="0.9433962264150944em" height="1.8122089952158247em" x="64.15094339622641em" y="28.187791004784174em" fill="#aaa"/><rect width="0.9433962264150944em" height="0.2606612421723529em" x="65.09433962264151em" y="29.739338757827646em" fill="#aaa"/><rect width="0.9433962264150944em" height="1.218639250036684em" x="66.0377358490566em" y="28.781360749963316em" fill="#aaa"/><rect width="0.9433962264150944em" height="2.5239119976936655em" x="66.9811320754717em" y="27.476088002306334em" fill="#aaa"/><rect width="0.9433962264150944em" height="0.8912131262017529em" x="67.9245283018868em" y="29.10878687379825em" fill="#aaa"/><rect width="0.9433962264150944em" height="0.5814091352001349em" x="68.86792452830188em" y="29.418590864799864em" fill="#aaa"/><rect width="0.9433962264150944em" height="0.44437346361351393em" x="69.81132075471699em" y="29.555626536386487em" fill="#aaa"/><rect width="0.9433962264150944em" height="0.6603932798376387em" x="70.75471698113208em" y="29.33960672016236em" fill="#aaa"/><rect width="0.9433962264150944em" height="0.40626016730914327em" x="71.69811320754717em" y="29.593739832690858em" fill="#aaa"/><rect width="0.9433962264150944em" height="0.5786099653057482em" x="72.64150943396227em" y="29.42139003469425em" fill="#aaa"/><rect width="0.9433962264150944em" height="0.10968780803289717em" x="73.58490566037736em" y="29.8903121919671em" fill="#aaa"/><rect width="0.9433962264150944em" height="0.6102353978413831em" x="74.52830188679245em" y="29.389764602158618em" fill="#aaa"/><rect width="0.9433962264150944em" height="0.4586503214784597em" x="75.47169811320755em" y="29.54134967852154em" fill="#aaa"/><rect width="0.9433962264150944em" height="0.8210145906558922em" x="76.41509433962264em" y="29.178985409344108em" fill="#aaa"/><rect width="0.9433962264150944em" height="1.1512222035149577em" x="77.35849056603773em" y="28.84877779648504em" fill="#aaa"/><rect width="0.9433962264150944em" height="1.7987935175684766em" x="78.30188679245283em" y="28.201206482431523em" fill="#aaa"/><rect width="0.9433962264150944em" height="2.586005065922742em" x="79.24528301886792em" y="27.41399493407726em" fill="#aaa"/><rect width="0.9433962264150944em" height="6.241116194755559em" x="80.18867924528303em" y="23.75888380524444em" fill="#aaa"/><rect width="0.9433962264150944em" height="10.062818163078992em" x="81.13207547169812em" y="19.937181836921006em" fill="#aaa"/><rect width="0.9433962264150944em" height="2.5185412871346653em" x="82.0754716981132em" y="27.481458712865333em" fill="#aaa"/><rect width="0.9433962264150944em" height="1.8549959322363432em" x="83.01886792452831em" y="28.145004067763658em" fill="#aaa"/><rect width="0.9433962264150944em" height="2.150236899317343em" x="83.9622641509434em" y="27.849763100682658em" fill="#aaa"/><rect width="0.9433962264150944em" height="1.9322024430880098em" x="84.90566037735849em" y="28.06779755691199em" fill="#aaa"/><rect width="0.9433962264150944em" height="5.217186263622164em" x="85.84905660377359em" y="24.782813736377836em" fill="#aaa"/><rect width="0.9433962264150944em" height="9.276418126847474em" x="86.79245283018868em" y="20.723581873152526em" fill="#aaa"/><rect width="0.9433962264150944em" height="10.623665070232645em" x="87.73584905660377em" y="19.376334929767353em" fill="#aaa"/><rect width="0.9433962264150944em" height="8.37190042205311em" x="88.67924528301887em" y="21.62809957794689em" fill="#aaa"/><rect width="0.9433962264150944em" height="8.600495839113794em" x="89.62264150943396em" y="21.399504160886206em" fill="#aaa"/><rect width="0.9433962264150944em" height="17.861513163517177em" x="90.56603773584905em" y="12.138486836482823em" fill="#aaa"/><rect width="0.9433962264150944em" height="8.362404664694001em" x="91.50943396226415em" y="21.637595335306em" fill="#aaa"/><rect width="0.9433962264150944em" height="15.568059914832963em" x="92.45283018867924em" y="14.431940085167037em" fill="#aaa"/><rect width="0.9433962264150944em" height="7.719778006320278em" x="93.39622641509435em" y="22.28022199367972em" fill="#aaa"/><rect width="0.9433962264150944em" height="30em" x="94.33962264150944em" y="0em" fill="#aaa"/><rect width="0.9433962264150944em" height="22.044022261930984em" x="95.28301886792453em" y="7.955977738069016em" fill="#aaa"/><rect width="0.9433962264150944em" height="29.040197388811706em" x="96.22641509433963em" y="0.9598026111882945em" fill="#aaa"/><rect width="0.9433962264150944em" height="8.841486109644807em" x="97.16981132075472em" y="21.158513890355195em" fill="#aaa"/><rect width="0.9433962264150944em" height="7.194000922532752em" x="98.11320754716981em" y="22.80599907746725em" fill="#aaa"/><rect width="0.9433962264150944em" height="5.659394521567631em" x="99.05660377358491em" y="24.34060547843237em" fill="#aaa"/></svg>