<?xml version="1.0" standalone="no"?>
<svg xmlns:xlink="http://www.w3.org/1999/xlink" xmlns="http://www.w3.org/2000/svg" class="topic-graph" style="width: 100em; height: 30em; text-align: center;"><rect width="0.9433962264150944em" height="0.4360610133893747em" x="0em" y="29.563938986610626em" fill="#aaa"/><rect width="0.9433962264150944em" height="30em" x="0.9433962264150944em" y="0em" fill="#aaa"/><rect width="0.9433962264150944em" height="0.008302192553745123em" x="1.8867924528301887em" y="29.991697807446254em" fill="#aaa"/><rect width="0.9433962264150944em" height="0.22021187856244726em" x="2.830188679245283em" y="29.77978812143755em" fill="#aaa"/><rect width="0.9433962264150944em" height="0.8213001450577928em" x="3.7735849056603774em" y="29.178699854942206em" fill="#aaa"/><rect width="0.9433962264150944em" height="0.1744869702206541em" x="4.716981132075472em" y="29.825513029779344em" fill="#aaa"/><rect width="0.9433962264150944em" height="0.1446457503835923em" x="5.660377358490566em" y="29.855354249616408em" fill="#aaa"/><rect width="0.9433962264150944em" height="0.1759801519205365em" x="6.60377358490566em" y="29.824019848079462em" fill="#aaa"/><rect width="0.9433962264150944em" height="0.7539354390786122em" x="7.547169811320755em" y="29.246064560921386em" fill="#aaa"/><rect width="0.9433962264150944em" height="0.19513190779206477em" x="8.49056603773585em" y="29.804868092207936em" fill="#aaa"/><rect width="0.9433962264150944em" height="0.2930764457928746em" x="9.433962264150944em" y="29.706923554207126em" fill="#aaa"/><rect width="0.9433962264150944em" height="0.48289308329306846em" x="10.377358490566039em" y="29.517106916706933em" fill="#aaa"/><rect width="0.9433962264150944em" height="0.7914732769181609em" x="11.320754716981131em" y="29.20852672308184em" fill="#aaa"/><rect width="0.9433962264150944em" height="0em" x="12.264150943396226em" y="30em" fill="#aaa"/><rect width="0.9433962264150944em" height="0.4795546031316771em" x="13.20754716981132em" y="29.520445396868322em" fill="#aaa"/><rect width="0.9433962264150944em" height="0.05966556797209002em" x="14.150943396226415em" y="29.94033443202791em" fill="#aaa"/><rect width="0.9433962264150944em" height="0.046694405552475685em" x="15.09433962264151em" y="29.953305594447524em" fill="#aaa"/><rect width="0.9433962264150944em" height="0.2508401054269678em" x="16.037735849056602em" y="29.749159894573033em" fill="#aaa"/><rect width="0.9433962264150944em" height="0.49438224721655033em" x="16.9811320754717em" y="29.50561775278345em" fill="#aaa"/><rect width="0.9433962264150944em" height="0.0894388550340983em" x="17.92452830188679em" y="29.9105611449659em" fill="#aaa"/><rect width="0.9433962264150944em" height="0.06250658614248532em" x="18.867924528301888em" y="29.937493413857514em" fill="#aaa"/><rect width="0.9433962264150944em" height="0.1048086123091917em" x="19.81132075471698em" y="29.895191387690808em" fill="#aaa"/><rect width="0.9433962264150944em" height="0.27425904995913997em" x="20.754716981132077em" y="29.72574095004086em" fill="#aaa"/><rect width="0.9433962264150944em" height="0.4508672861825988em" x="21.69811320754717em" y="29.5491327138174em" fill="#aaa"/><rect width="0.9433962264150944em" height="0.1066406031073732em" x="22.641509433962263em" y="29.893359396892627em" fill="#aaa"/><rect width="0.9433962264150944em" height="0.18241976650346933em" x="23.58490566037736em" y="29.817580233496532em" fill="#aaa"/><rect width="0.9433962264150944em" height="0em" x="24.528301886792452em" y="30em" fill="#aaa"/><rect width="0.9433962264150944em" height="0.4084543879643759em" x="25.471698113207548em" y="29.591545612035624em" fill="#aaa"/><rect width="0.9433962264150944em" height="0.6394690016418727em" x="26.41509433962264em" y="29.360530998358126em" fill="#aaa"/><rect width="0.9433962264150944em" height="0.2076691328574151em" x="27.358490566037737em" y="29.792330867142585em" fill="#aaa"/><rect width="0.9433962264150944em" height="0.2458987916907372em" x="28.30188679245283em" y="29.75410120830926em" fill="#aaa"/><rect width="0.9433962264150944em" height="0.5203499511830583em" x="29.245283018867926em" y="29.479650048816943em" fill="#aaa"/><rect width="0.9433962264150944em" height="0.4187332089182146em" x="30.18867924528302em" y="29.581266791081784em" fill="#aaa"/><rect width="0.9433962264150944em" height="0.15262866877553802em" x="31.132075471698112em" y="29.847371331224462em" fill="#aaa"/><rect width="0.9433962264150944em" height="0.5419762200053106em" x="32.075471698113205em" y="29.45802377999469em" fill="#aaa"/><rect width="0.9433962264150944em" height="0.18606800394906592em" x="33.0188679245283em" y="29.813931996050933em" fill="#aaa"/><rect width="0.9433962264150944em" height="0.2515131094847829em" x="33.9622641509434em" y="29.748486890515217em" fill="#aaa"/><rect width="0.9433962264150944em" height="0.32176498390825525em" x="34.905660377358494em" y="29.678235016091744em" fill="#aaa"/><rect width="0.9433962264150944em" height="0.40876320046640785em" x="35.84905660377358em" y="29.591236799533593em" fill="#aaa"/><rect width="0.9433962264150944em" height="0.5838056858955278em" x="36.79245283018868em" y="29.416194314104473em" fill="#aaa"/><rect width="0.9433962264150944em" height="0.15355400315673792em" x="37.735849056603776em" y="29.84644599684326em" fill="#aaa"/><rect width="0.9433962264150944em" height="0.8167415681957975em" x="38.679245283018865em" y="29.1832584318042em" fill="#aaa"/><rect width="0.9433962264150944em" height="0.26719810841896363em" x="39.62264150943396em" y="29.732801891581037em" fill="#aaa"/><rect width="0.9433962264150944em" height="0.4518941178668394em" x="40.56603773584906em" y="29.54810588213316em" fill="#aaa"/><rect width="0.9433962264150944em" height="0.35554587986532127em" x="41.509433962264154em" y="29.64445412013468em" fill="#aaa"/><rect width="0.9433962264150944em" height="1.3263516331530387em" x="42.45283018867924em" y="28.67364836684696em" fill="#aaa"/><rect width="0.9433962264150944em" height="1.335700384033634em" x="43.39622641509434em" y="28.664299615966367em" fill="#aaa"/><rect width="0.9433962264150944em" height="0.271697369731649em" x="44.339622641509436em" y="29.728302630268352em" fill="#aaa"/><rect width="0.9433962264150944em" height="0.8662383898937529em" x="45.283018867924525em" y="29.133761610106248em" fill="#aaa"/><rect width="0.9433962264150944em" height="0.3052102572520681em" x="46.22641509433962em" y="29.694789742747933em" fill="#aaa"/><rect width="0.9433962264150944em" height="0.5312230340967147em" x="47.16981132075472em" y="29.468776965903285em" fill="#aaa"/><rect width="0.9433962264150944em" height="1.412618376645881em" x="48.113207547169814em" y="28.58738162335412em" fill="#aaa"/><rect width="0.9433962264150944em" height="1.041122377273569em" x="49.056603773584904em" y="28.95887762272643em" fill="#aaa"/><rect width="0.9433962264150944em" height="0.853329957284199em" x="50em" y="29.1466700427158em" fill="#aaa"/><rect width="0.9433962264150944em" height="1.0765623008994387em" x="50.943396226415096em" y="28.92343769910056em" fill="#aaa"/><rect width="0.9433962264150944em" height="0.7805801773974407em" x="51.88679245283019em" y="29.21941982260256em" fill="#aaa"/><rect width="0.9433962264150944em" height="0.695739549577819em" x="52.83018867924528em" y="29.30426045042218em" fill="#aaa"/><rect width="0.9433962264150944em" height="2.325869498299859em" x="53.77358490566038em" y="27.67413050170014em" fill="#aaa"/><rect width="0.9433962264150944em" height="4.015960257065585em" x="54.716981132075475em" y="25.984039742934414em" fill="#aaa"/><rect width="0.9433962264150944em" height="1.9724094858913477em" x="55.660377358490564em" y="28.027590514108653em" fill="#aaa"/><rect width="0.9433962264150944em" height="1.965828355327804em" x="56.60377358490566em" y="28.034171644672195em" fill="#aaa"/><rect width="0.9433962264150944em" height="0.5668111207998098em" x="57.54716981132076em" y="29.43318887920019em" fill="#aaa"/><rect width="0.9433962264150944em" height="0.26159146664939553em" x="58.49056603773585em" y="29.738408533350604em" fill="#aaa"/><rect width="0.9433962264150944em" height="1.1695100573182908em" x="59.43396226415094em" y="28.83048994268171em" fill="#aaa"/><rect width="0.9433962264150944em" height="0.7270856294125518em" x="60.37735849056604em" y="29.272914370587447em" fill="#aaa"/><rect width="0.9433962264150944em" height="0.5371984473983251em" x="61.320754716981135em" y="29.462801552601675em" fill="#aaa"/><rect width="0.9433962264150944em" height="1.3634940129090058em" x="62.264150943396224em" y="28.636505987090995em" fill="#aaa"/><rect width="0.9433962264150944em" height="0.9411643160064523em" x="63.20754716981132em" y="29.058835683993546em" fill="#aaa"/><rect width="0.9433962264150944em" height="3.3262523312726335em" x="64.15094339622641em" y="26.673747668727366em" fill="#aaa"/><rect width="0.9433962264150944em" height="4.7037321183071015em" x="65.09433962264151em" y="25.2962678816929em" fill="#aaa"/><rect width="0.9433962264150944em" height="3.103157463312977em" x="66.0377358490566em" y="26.896842536687025em" fill="#aaa"/><rect width="0.9433962264150944em" height="2.387711370720811em" x="66.9811320754717em" y="27.61228862927919em" fill="#aaa"/><rect width="0.9433962264150944em" height="1.9736145843375832em" x="67.9245283018868em" y="28.026385415662418em" fill="#aaa"/><rect width="0.9433962264150944em" height="1.7390744667602591em" x="68.86792452830188em" y="28.260925533239742em" fill="#aaa"/><rect width="0.9433962264150944em" height="3.3224812906269627em" x="69.81132075471699em" y="26.677518709373036em" fill="#aaa"/><rect width="0.9433962264150944em" height="3.866093181407977em" x="70.75471698113208em" y="26.133906818592024em" fill="#aaa"/><rect width="0.9433962264150944em" height="8.895200591892541em" x="71.69811320754717em" y="21.10479940810746em" fill="#aaa"/><rect width="0.9433962264150944em" height="2.6273692540157634em" x="72.64150943396227em" y="27.372630745984235em" fill="#aaa"/><rect width="0.9433962264150944em" height="1.3172805837507229em" x="73.58490566037736em" y="28.682719416249277em" fill="#aaa"/><rect width="0.9433962264150944em" height="13.05975203412663em" x="74.52830188679245em" y="16.94024796587337em" fill="#aaa"/><rect width="0.9433962264150944em" height="4.488633817933879em" x="75.47169811320755em" y="25.51136618206612em" fill="#aaa"/><rect width="0.9433962264150944em" height="4.158331760742037em" x="76.41509433962264em" y="25.841668239257963em" fill="#aaa"/><rect width="0.9433962264150944em" height="1.6309057341043252em" x="77.35849056603773em" y="28.369094265895676em" fill="#aaa"/><rect width="0.9433962264150944em" height="2.7737100026662938em" x="78.30188679245283em" y="27.226289997333705em" fill="#aaa"/><rect width="0.9433962264150944em" height="13.277850704815837em" x="79.24528301886792em" y="16.722149295184163em" fill="#aaa"/><rect width="0.9433962264150944em" height="6.74294755690753em" x="80.18867924528303em" y="23.25705244309247em" fill="#aaa"/><rect width="0.9433962264150944em" height="6.983573681558806em" x="81.13207547169812em" y="23.016426318441194em" fill="#aaa"/><rect width="0.9433962264150944em" height="9.124504160981319em" x="82.0754716981132em" y="20.875495839018683em" fill="#aaa"/><rect width="0.9433962264150944em" height="4.695229158989798em" x="83.01886792452831em" y="25.304770841010203em" fill="#aaa"/><rect width="0.9433962264150944em" height="9.316776396594161em" x="83.9622641509434em" y="20.68322360340584em" fill="#aaa"/><rect width="0.9433962264150944em" height="9.810736484425336em" x="84.90566037735849em" y="20.189263515574666em" fill="#aaa"/><rect width="0.9433962264150944em" height="11.672090629959639em" x="85.84905660377359em" y="18.32790937004036em" fill="#aaa"/><rect width="0.9433962264150944em" height="11.269861874075566em" x="86.79245283018868em" y="18.730138125924434em" fill="#aaa"/><rect width="0.9433962264150944em" height="20.700472024093504em" x="87.73584905660377em" y="9.299527975906496em" fill="#aaa"/><rect width="0.9433962264150944em" height="6.305061818885364em" x="88.67924528301887em" y="23.694938181114637em" fill="#aaa"/><rect width="0.9433962264150944em" height="4.12867472565572em" x="89.62264150943396em" y="25.87132527434428em" fill="#aaa"/><rect width="0.9433962264150944em" height="11.121904387362052em" x="90.56603773584905em" y="18.87809561263795em" fill="#aaa"/><rect width="0.9433962264150944em" height="7.799992423986008em" x="91.50943396226415em" y="22.20000757601399em" fill="#aaa"/><rect width="0.9433962264150944em" height="25.886252661861775em" x="92.45283018867924em" y="4.113747338138225em" fill="#aaa"/><rect width="0.9433962264150944em" height="24.333096285507978em" x="93.39622641509435em" y="5.6669037144920225em" fill="#aaa"/><rect width="0.9433962264150944em" height="5.078968084116443em" x="94.33962264150944em" y="24.921031915883557em" fill="#aaa"/><rect width="0.9433962264150944em" height="23.435607650708157em" x="95.28301886792453em" y="6.564392349291843em" fill="#aaa"/><rect width="0.9433962264150944em" height="13.397619008298388em" x="96.22641509433963em" y="16.60238099170161em" fill="#aaa"/><rect width="0.9433962264150944em" height="11.299684283925561em" x="97.16981132075472em" y="18.70031571607444em" fill="#aaa"/><rect width="0.9433962264150944em" height="13.917214983925863em" x="98.11320754716981em" y="16.082785016074137em" fill="#aaa"/><rect width="0.9433962264150944em" height="16.97884355474963em" x="99.05660377358491em" y="13.02115644525037em" fill="#aaa"/></svg>