<?xml version="1.0" standalone="no"?>
<svg xmlns:xlink="http://www.w3.org/1999/xlink" xmlns="http://www.w3.org/2000/svg" class="topic-graph" style="width: 100em; height: 30em; text-align: center;"><rect width="0.9433962264150944em" height="0.01674636064751062em" x="0em" y="29.98325363935249em" fill="#aaa"/><rect width="0.9433962264150944em" height="0.793283571044493em" x="0.9433962264150944em" y="29.206716428955506em" fill="#aaa"/><rect width="0.9433962264150944em" height="0.007488140197175072em" x="1.8867924528301887em" y="29.992511859802825em" fill="#aaa"/><rect width="0.9433962264150944em" height="0.90886765439749em" x="2.830188679245283em" y="29.09113234560251em" fill="#aaa"/><rect width="0.9433962264150944em" height="0.37116211776925273em" x="3.7735849056603774em" y="29.628837882230748em" fill="#aaa"/><rect width="0.9433962264150944em" height="0.14946949613336477em" x="4.716981132075472em" y="29.850530503866636em" fill="#aaa"/><rect width="0.9433962264150944em" height="0.09197240136441454em" x="5.660377358490566em" y="29.908027598635584em" fill="#aaa"/><rect width="0.9433962264150944em" height="0.037570395142792076em" x="6.60377358490566em" y="29.962429604857206em" fill="#aaa"/><rect width="0.9433962264150944em" height="1.7520908625135787em" x="7.547169811320755em" y="28.24790913748642em" fill="#aaa"/><rect width="0.9433962264150944em" height="0.3188697593824809em" x="8.49056603773585em" y="29.68113024061752em" fill="#aaa"/><rect width="0.9433962264150944em" height="0.014400932950688087em" x="9.433962264150944em" y="29.98559906704931em" fill="#aaa"/><rect width="0.9433962264150944em" height="1.654311357531974em" x="10.377358490566039em" y="28.345688642468026em" fill="#aaa"/><rect width="0.9433962264150944em" height="1.1205287093699452em" x="11.320754716981131em" y="28.879471290630054em" fill="#aaa"/><rect width="0.9433962264150944em" height="0em" x="12.264150943396226em" y="30em" fill="#aaa"/><rect width="0.9433962264150944em" height="0.13886262483973683em" x="13.20754716981132em" y="29.861137375160265em" fill="#aaa"/><rect width="0.9433962264150944em" height="0.5428538991344982em" x="14.150943396226415em" y="29.4571461008655em" fill="#aaa"/><rect width="0.9433962264150944em" height="0.05219537138735999em" x="15.09433962264151em" y="29.94780462861264em" fill="#aaa"/><rect width="0.9433962264150944em" height="0.02258466590368862em" x="16.037735849056602em" y="29.97741533409631em" fill="#aaa"/><rect width="0.9433962264150944em" height="0.5674835069663275em" x="16.9811320754717em" y="29.432516493033674em" fill="#aaa"/><rect width="0.9433962264150944em" height="0.6462504581713967em" x="17.92452830188679em" y="29.353749541828602em" fill="#aaa"/><rect width="0.9433962264150944em" height="0.6315890046171674em" x="18.867924528301888em" y="29.36841099538283em" fill="#aaa"/><rect width="0.9433962264150944em" height="0.2083061609658103em" x="19.81132075471698em" y="29.79169383903419em" fill="#aaa"/><rect width="0.9433962264150944em" height="1.2712233090061513em" x="20.754716981132077em" y="28.728776690993847em" fill="#aaa"/><rect width="0.9433962264150944em" height="0.4033463072580544em" x="21.69811320754717em" y="29.596653692741945em" fill="#aaa"/><rect width="0.9433962264150944em" height="0.08221820513584178em" x="22.641509433962263em" y="29.91778179486416em" fill="#aaa"/><rect width="0.9433962264150944em" height="0.4027765361893063em" x="23.58490566037736em" y="29.597223463810693em" fill="#aaa"/><rect width="0.9433962264150944em" height="0em" x="24.528301886792452em" y="30em" fill="#aaa"/><rect width="0.9433962264150944em" height="0.6500890047088941em" x="25.471698113207548em" y="29.349910995291104em" fill="#aaa"/><rect width="0.9433962264150944em" height="1.3637718733230864em" x="26.41509433962264em" y="28.636228126676915em" fill="#aaa"/><rect width="0.9433962264150944em" height="0.5609142328262097em" x="27.358490566037737em" y="29.43908576717379em" fill="#aaa"/><rect width="0.9433962264150944em" height="0.8508651325042121em" x="28.30188679245283em" y="29.14913486749579em" fill="#aaa"/><rect width="0.9433962264150944em" height="0.20287460763094195em" x="29.245283018867926em" y="29.797125392369058em" fill="#aaa"/><rect width="0.9433962264150944em" height="0.7611821611506813em" x="30.18867924528302em" y="29.238817838849318em" fill="#aaa"/><rect width="0.9433962264150944em" height="1.0533953620994116em" x="31.132075471698112em" y="28.946604637900588em" fill="#aaa"/><rect width="0.9433962264150944em" height="0.3038674221353542em" x="32.075471698113205em" y="29.696132577864645em" fill="#aaa"/><rect width="0.9433962264150944em" height="2.8681168944763695em" x="33.0188679245283em" y="27.13188310552363em" fill="#aaa"/><rect width="0.9433962264150944em" height="0.20834141673373996em" x="33.9622641509434em" y="29.79165858326626em" fill="#aaa"/><rect width="0.9433962264150944em" height="0.27109383200269827em" x="34.905660377358494em" y="29.7289061679973em" fill="#aaa"/><rect width="0.9433962264150944em" height="1.1634439421713936em" x="35.84905660377358em" y="28.836556057828606em" fill="#aaa"/><rect width="0.9433962264150944em" height="0.5003366237244723em" x="36.79245283018868em" y="29.499663376275528em" fill="#aaa"/><rect width="0.9433962264150944em" height="0.23428811534003013em" x="37.735849056603776em" y="29.76571188465997em" fill="#aaa"/><rect width="0.9433962264150944em" height="0.12262805312744779em" x="38.679245283018865em" y="29.877371946872554em" fill="#aaa"/><rect width="0.9433962264150944em" height="0.19564766140459655em" x="39.62264150943396em" y="29.804352338595404em" fill="#aaa"/><rect width="0.9433962264150944em" height="0.061763825444321574em" x="40.56603773584906em" y="29.93823617455568em" fill="#aaa"/><rect width="0.9433962264150944em" height="0.5963015548974494em" x="41.509433962264154em" y="29.40369844510255em" fill="#aaa"/><rect width="0.9433962264150944em" height="0.23318831845754331em" x="42.45283018867924em" y="29.766811681542457em" fill="#aaa"/><rect width="0.9433962264150944em" height="1.6518128975770072em" x="43.39622641509434em" y="28.348187102422994em" fill="#aaa"/><rect width="0.9433962264150944em" height="0.7703221435663317em" x="44.339622641509436em" y="29.229677856433668em" fill="#aaa"/><rect width="0.9433962264150944em" height="0.36514539007265123em" x="45.283018867924525em" y="29.63485460992735em" fill="#aaa"/><rect width="0.9433962264150944em" height="0.4309158447272091em" x="46.22641509433962em" y="29.56908415527279em" fill="#aaa"/><rect width="0.9433962264150944em" height="1.237006166494771em" x="47.16981132075472em" y="28.762993833505227em" fill="#aaa"/><rect width="0.9433962264150944em" height="0.27888740271980805em" x="48.113207547169814em" y="29.721112597280193em" fill="#aaa"/><rect width="0.9433962264150944em" height="0.5368326615825837em" x="49.056603773584904em" y="29.463167338417417em" fill="#aaa"/><rect width="0.9433962264150944em" height="0.2983804354391126em" x="50em" y="29.701619564560886em" fill="#aaa"/><rect width="0.9433962264150944em" height="0.23564943130896748em" x="50.943396226415096em" y="29.764350568691032em" fill="#aaa"/><rect width="0.9433962264150944em" height="0.1850650494382262em" x="51.88679245283019em" y="29.814934950561774em" fill="#aaa"/><rect width="0.9433962264150944em" height="0.393589592389476em" x="52.83018867924528em" y="29.606410407610525em" fill="#aaa"/><rect width="0.9433962264150944em" height="0.3614169825195238em" x="53.77358490566038em" y="29.638583017480475em" fill="#aaa"/><rect width="0.9433962264150944em" height="0.23476563294297115em" x="54.716981132075475em" y="29.76523436705703em" fill="#aaa"/><rect width="0.9433962264150944em" height="0.26282399487390806em" x="55.660377358490564em" y="29.73717600512609em" fill="#aaa"/><rect width="0.9433962264150944em" height="0.3314554830976196em" x="56.60377358490566em" y="29.66854451690238em" fill="#aaa"/><rect width="0.9433962264150944em" height="0.10303421716331164em" x="57.54716981132076em" y="29.896965782836688em" fill="#aaa"/><rect width="0.9433962264150944em" height="0.1417756653135672em" x="58.49056603773585em" y="29.858224334686433em" fill="#aaa"/><rect width="0.9433962264150944em" height="0.12614550531174423em" x="59.43396226415094em" y="29.873854494688256em" fill="#aaa"/><rect width="0.9433962264150944em" height="0.6155268675897656em" x="60.37735849056604em" y="29.384473132410236em" fill="#aaa"/><rect width="0.9433962264150944em" height="0.3763739137316293em" x="61.320754716981135em" y="29.62362608626837em" fill="#aaa"/><rect width="0.9433962264150944em" height="1.0065023644892934em" x="62.264150943396224em" y="28.993497635510707em" fill="#aaa"/><rect width="0.9433962264150944em" height="1.7860059358066198em" x="63.20754716981132em" y="28.21399406419338em" fill="#aaa"/><rect width="0.9433962264150944em" height="0.20451347386643984em" x="64.15094339622641em" y="29.79548652613356em" fill="#aaa"/><rect width="0.9433962264150944em" height="0.3748260439603349em" x="65.09433962264151em" y="29.625173956039664em" fill="#aaa"/><rect width="0.9433962264150944em" height="0.19324098729272443em" x="66.0377358490566em" y="29.806759012707275em" fill="#aaa"/><rect width="0.9433962264150944em" height="0.049748518861482696em" x="66.9811320754717em" y="29.95025148113852em" fill="#aaa"/><rect width="0.9433962264150944em" height="0.2706837314871748em" x="67.9245283018868em" y="29.729316268512825em" fill="#aaa"/><rect width="0.9433962264150944em" height="0.1169232606852966em" x="68.86792452830188em" y="29.883076739314703em" fill="#aaa"/><rect width="0.9433962264150944em" height="0.42745281036281935em" x="69.81132075471699em" y="29.57254718963718em" fill="#aaa"/><rect width="0.9433962264150944em" height="0.4762065258834182em" x="70.75471698113208em" y="29.52379347411658em" fill="#aaa"/><rect width="0.9433962264150944em" height="0.8233790369762449em" x="71.69811320754717em" y="29.176620963023755em" fill="#aaa"/><rect width="0.9433962264150944em" height="5.761896110335338em" x="72.64150943396227em" y="24.23810388966466em" fill="#aaa"/><rect width="0.9433962264150944em" height="14.689726734368895em" x="73.58490566037736em" y="15.310273265631105em" fill="#aaa"/><rect width="0.9433962264150944em" height="29.782168608548922em" x="74.52830188679245em" y="0.2178313914510781em" fill="#aaa"/><rect width="0.9433962264150944em" height="4.38687033628751em" x="75.47169811320755em" y="25.613129663712492em" fill="#aaa"/><rect width="0.9433962264150944em" height="2.3938228044087717em" x="76.41509433962264em" y="27.60617719559123em" fill="#aaa"/><rect width="0.9433962264150944em" height="0.81004776217571em" x="77.35849056603773em" y="29.18995223782429em" fill="#aaa"/><rect width="0.9433962264150944em" height="19.29032893037027em" x="78.30188679245283em" y="10.709671069629731em" fill="#aaa"/><rect width="0.9433962264150944em" height="30em" x="79.24528301886792em" y="0em" fill="#aaa"/><rect width="0.9433962264150944em" height="11.747921746754887em" x="80.18867924528303em" y="18.252078253245113em" fill="#aaa"/><rect width="0.9433962264150944em" height="7.794313793048521em" x="81.13207547169812em" y="22.20568620695148em" fill="#aaa"/><rect width="0.9433962264150944em" height="4.185134697793965em" x="82.0754716981132em" y="25.814865302206034em" fill="#aaa"/><rect width="0.9433962264150944em" height="5.441989803634132em" x="83.01886792452831em" y="24.558010196365867em" fill="#aaa"/><rect width="0.9433962264150944em" height="3.1225426242580374em" x="83.9622641509434em" y="26.87745737574196em" fill="#aaa"/><rect width="0.9433962264150944em" height="2.391594887813081em" x="84.90566037735849em" y="27.60840511218692em" fill="#aaa"/><rect width="0.9433962264150944em" height="2.961005024682459em" x="85.84905660377359em" y="27.038994975317543em" fill="#aaa"/><rect width="0.9433962264150944em" height="6.161543657338537em" x="86.79245283018868em" y="23.838456342661463em" fill="#aaa"/><rect width="0.9433962264150944em" height="10.558089450993775em" x="87.73584905660377em" y="19.441910549006224em" fill="#aaa"/><rect width="0.9433962264150944em" height="3.1889642748708655em" x="88.67924528301887em" y="26.811035725129134em" fill="#aaa"/><rect width="0.9433962264150944em" height="2.4151253340507752em" x="89.62264150943396em" y="27.584874665949226em" fill="#aaa"/><rect width="0.9433962264150944em" height="0.6976956428318444em" x="90.56603773584905em" y="29.302304357168154em" fill="#aaa"/><rect width="0.9433962264150944em" height="5.613900878072059em" x="91.50943396226415em" y="24.38609912192794em" fill="#aaa"/><rect width="0.9433962264150944em" height="0.45381640217922803em" x="92.45283018867924em" y="29.54618359782077em" fill="#aaa"/><rect width="0.9433962264150944em" height="1.23518531242973em" x="93.39622641509435em" y="28.76481468757027em" fill="#aaa"/><rect width="0.9433962264150944em" height="2.735125400811749em" x="94.33962264150944em" y="27.26487459918825em" fill="#aaa"/><rect width="0.9433962264150944em" height="2.0377002797693224em" x="95.28301886792453em" y="27.96229972023068em" fill="#aaa"/><rect width="0.9433962264150944em" height="1.3007220827833146em" x="96.22641509433963em" y="28.699277917216687em" fill="#aaa"/><rect width="0.9433962264150944em" height="2.3256868053686266em" x="97.16981132075472em" y="27.674313194631374em" fill="#aaa"/><rect width="0.9433962264150944em" height="1.919786438620382em" x="98.11320754716981em" y="28.08021356137962em" fill="#aaa"/><rect width="0.9433962264150944em" height="1.635282047608667em" x="99.05660377358491em" y="28.364717952391334em" fill="#aaa"/></svg>