<?xml version="1.0" standalone="no"?>
<svg xmlns:xlink="http://www.w3.org/1999/xlink" xmlns="http://www.w3.org/2000/svg" class="topic-graph" style="width: 100em; height: 30em; text-align: center;"><rect width="0.9433962264150944em" height="0.014424425764259965em" x="0em" y="29.98557557423574em" fill="#aaa"/><rect width="0.9433962264150944em" height="0.0031985352484597677em" x="0.9433962264150944em" y="29.99680146475154em" fill="#aaa"/><rect width="0.9433962264150944em" height="0.022265060170671182em" x="1.8867924528301887em" y="29.97773493982933em" fill="#aaa"/><rect width="0.9433962264150944em" height="0.12874971538911784em" x="2.830188679245283em" y="29.87125028461088em" fill="#aaa"/><rect width="0.9433962264150944em" height="0.038092934379284765em" x="3.7735849056603774em" y="29.961907065620714em" fill="#aaa"/><rect width="0.9433962264150944em" height="0.018780656854156245em" x="4.716981132075472em" y="29.981219343145845em" fill="#aaa"/><rect width="0.9433962264150944em" height="0.06474927244471607em" x="5.660377358490566em" y="29.935250727555285em" fill="#aaa"/><rect width="0.9433962264150944em" height="0.044567344496877416em" x="6.60377358490566em" y="29.955432655503124em" fill="#aaa"/><rect width="0.9433962264150944em" height="0.010746781271034638em" x="7.547169811320755em" y="29.989253218728965em" fill="#aaa"/><rect width="0.9433962264150944em" height="0.010936226632746064em" x="8.49056603773585em" y="29.989063773367253em" fill="#aaa"/><rect width="0.9433962264150944em" height="0.0021652918535333006em" x="9.433962264150944em" y="29.997834708146467em" fill="#aaa"/><rect width="0.9433962264150944em" height="5.300833905963684em" x="10.377358490566039em" y="24.699166094036315em" fill="#aaa"/><rect width="0.9433962264150944em" height="5.402914209057873em" x="11.320754716981131em" y="24.597085790942128em" fill="#aaa"/><rect width="0.9433962264150944em" height="0em" x="12.264150943396226em" y="30em" fill="#aaa"/><rect width="0.9433962264150944em" height="0.1842106021441851em" x="13.20754716981132em" y="29.815789397855816em" fill="#aaa"/><rect width="0.9433962264150944em" height="0.25343591988592595em" x="14.150943396226415em" y="29.746564080114073em" fill="#aaa"/><rect width="0.9433962264150944em" height="0.4437209768677698em" x="15.09433962264151em" y="29.55627902313223em" fill="#aaa"/><rect width="0.9433962264150944em" height="1.411479221340613em" x="16.037735849056602em" y="28.588520778659387em" fill="#aaa"/><rect width="0.9433962264150944em" height="1.8185506719772866em" x="16.9811320754717em" y="28.181449328022712em" fill="#aaa"/><rect width="0.9433962264150944em" height="4.87976662323877em" x="17.92452830188679em" y="25.12023337676123em" fill="#aaa"/><rect width="0.9433962264150944em" height="1.231643405893029em" x="18.867924528301888em" y="28.768356594106972em" fill="#aaa"/><rect width="0.9433962264150944em" height="0.21729680920720573em" x="19.81132075471698em" y="29.782703190792795em" fill="#aaa"/><rect width="0.9433962264150944em" height="0.8655468642932899em" x="20.754716981132077em" y="29.13445313570671em" fill="#aaa"/><rect width="0.9433962264150944em" height="2.667424777693898em" x="21.69811320754717em" y="27.3325752223061em" fill="#aaa"/><rect width="0.9433962264150944em" height="3.1357090642698573em" x="22.641509433962263em" y="26.864290935730143em" fill="#aaa"/><rect width="0.9433962264150944em" height="0.4170388055297308em" x="23.58490566037736em" y="29.58296119447027em" fill="#aaa"/><rect width="0.9433962264150944em" height="0em" x="24.528301886792452em" y="30em" fill="#aaa"/><rect width="0.9433962264150944em" height="1.5726264404194878em" x="25.471698113207548em" y="28.427373559580513em" fill="#aaa"/><rect width="0.9433962264150944em" height="0.34483596465255717em" x="26.41509433962264em" y="29.655164035347443em" fill="#aaa"/><rect width="0.9433962264150944em" height="0.07761898607688549em" x="27.358490566037737em" y="29.922381013923115em" fill="#aaa"/><rect width="0.9433962264150944em" height="1.1094530384467671em" x="28.30188679245283em" y="28.890546961553234em" fill="#aaa"/><rect width="0.9433962264150944em" height="5.036293374274633em" x="29.245283018867926em" y="24.963706625725365em" fill="#aaa"/><rect width="0.9433962264150944em" height="0.8967002692861481em" x="30.18867924528302em" y="29.10329973071385em" fill="#aaa"/><rect width="0.9433962264150944em" height="0.8444053650180167em" x="31.132075471698112em" y="29.155594634981984em" fill="#aaa"/><rect width="0.9433962264150944em" height="1.018031963132356em" x="32.075471698113205em" y="28.981968036867645em" fill="#aaa"/><rect width="0.9433962264150944em" height="1.2317931356908904em" x="33.0188679245283em" y="28.76820686430911em" fill="#aaa"/><rect width="0.9433962264150944em" height="7.990928216937645em" x="33.9622641509434em" y="22.009071783062353em" fill="#aaa"/><rect width="0.9433962264150944em" height="1.5165257928591156em" x="34.905660377358494em" y="28.483474207140883em" fill="#aaa"/><rect width="0.9433962264150944em" height="3.503678497260506em" x="35.84905660377358em" y="26.496321502739494em" fill="#aaa"/><rect width="0.9433962264150944em" height="9.393250686408779em" x="36.79245283018868em" y="20.606749313591223em" fill="#aaa"/><rect width="0.9433962264150944em" height="7.429397275938149em" x="37.735849056603776em" y="22.57060272406185em" fill="#aaa"/><rect width="0.9433962264150944em" height="1.8897764642319355em" x="38.679245283018865em" y="28.110223535768064em" fill="#aaa"/><rect width="0.9433962264150944em" height="5.4105832003504934em" x="39.62264150943396em" y="24.589416799649506em" fill="#aaa"/><rect width="0.9433962264150944em" height="30em" x="40.56603773584906em" y="0em" fill="#aaa"/><rect width="0.9433962264150944em" height="0.6336598296194821em" x="41.509433962264154em" y="29.366340170380518em" fill="#aaa"/><rect width="0.9433962264150944em" height="0.4327153595323586em" x="42.45283018867924em" y="29.56728464046764em" fill="#aaa"/><rect width="0.9433962264150944em" height="1.695147807216026em" x="43.39622641509434em" y="28.304852192783976em" fill="#aaa"/><rect width="0.9433962264150944em" height="4.50689009316912em" x="44.339622641509436em" y="25.49310990683088em" fill="#aaa"/><rect width="0.9433962264150944em" height="2.3313390679086723em" x="45.283018867924525em" y="27.668660932091328em" fill="#aaa"/><rect width="0.9433962264150944em" height="1.3238011361292716em" x="46.22641509433962em" y="28.676198863870727em" fill="#aaa"/><rect width="0.9433962264150944em" height="0.3871424956113316em" x="47.16981132075472em" y="29.612857504388668em" fill="#aaa"/><rect width="0.9433962264150944em" height="0.1288475540371248em" x="48.113207547169814em" y="29.871152445962874em" fill="#aaa"/><rect width="0.9433962264150944em" height="0.013611418388357088em" x="49.056603773584904em" y="29.986388581611642em" fill="#aaa"/><rect width="0.9433962264150944em" height="0.03946334306072455em" x="50em" y="29.960536656939276em" fill="#aaa"/><rect width="0.9433962264150944em" height="0.06620162105528547em" x="50.943396226415096em" y="29.933798378944715em" fill="#aaa"/><rect width="0.9433962264150944em" height="0.18887043204425377em" x="51.88679245283019em" y="29.811129567955746em" fill="#aaa"/><rect width="0.9433962264150944em" height="0.16053770600940076em" x="52.83018867924528em" y="29.8394622939906em" fill="#aaa"/><rect width="0.9433962264150944em" height="0.29208832556430303em" x="53.77358490566038em" y="29.707911674435696em" fill="#aaa"/><rect width="0.9433962264150944em" height="0.2670459108856727em" x="54.716981132075475em" y="29.732954089114326em" fill="#aaa"/><rect width="0.9433962264150944em" height="0.43276933530547534em" x="55.660377358490564em" y="29.567230664694524em" fill="#aaa"/><rect width="0.9433962264150944em" height="0.4611543956144064em" x="56.60377358490566em" y="29.538845604385592em" fill="#aaa"/><rect width="0.9433962264150944em" height="0.4087575337125442em" x="57.54716981132076em" y="29.591242466287454em" fill="#aaa"/><rect width="0.9433962264150944em" height="0.28528125246736386em" x="58.49056603773585em" y="29.714718747532636em" fill="#aaa"/><rect width="0.9433962264150944em" height="0.36872006953002134em" x="59.43396226415094em" y="29.63127993046998em" fill="#aaa"/><rect width="0.9433962264150944em" height="0.18806245662218002em" x="60.37735849056604em" y="29.81193754337782em" fill="#aaa"/><rect width="0.9433962264150944em" height="0.12132340591715497em" x="61.320754716981135em" y="29.878676594082844em" fill="#aaa"/><rect width="0.9433962264150944em" height="0.07218750210784204em" x="62.264150943396224em" y="29.92781249789216em" fill="#aaa"/><rect width="0.9433962264150944em" height="0.11823204278499164em" x="63.20754716981132em" y="29.881767957215008em" fill="#aaa"/><rect width="0.9433962264150944em" height="0.135084922362188em" x="64.15094339622641em" y="29.86491507763781em" fill="#aaa"/><rect width="0.9433962264150944em" height="0.005930021877488969em" x="65.09433962264151em" y="29.99406997812251em" fill="#aaa"/><rect width="0.9433962264150944em" height="0.0856846732794754em" x="66.0377358490566em" y="29.914315326720523em" fill="#aaa"/><rect width="0.9433962264150944em" height="0.24331326866808997em" x="66.9811320754717em" y="29.75668673133191em" fill="#aaa"/><rect width="0.9433962264150944em" height="0.20023585085778864em" x="67.9245283018868em" y="29.799764149142213em" fill="#aaa"/><rect width="0.9433962264150944em" height="0.08434688633798129em" x="68.86792452830188em" y="29.915653113662017em" fill="#aaa"/><rect width="0.9433962264150944em" height="0.011359091405261194em" x="69.81132075471699em" y="29.98864090859474em" fill="#aaa"/><rect width="0.9433962264150944em" height="0.18469930653658623em" x="70.75471698113208em" y="29.815300693463413em" fill="#aaa"/><rect width="0.9433962264150944em" height="0.2757188130506185em" x="71.69811320754717em" y="29.72428118694938em" fill="#aaa"/><rect width="0.9433962264150944em" height="0.22675002301013306em" x="72.64150943396227em" y="29.773249976989867em" fill="#aaa"/><rect width="0.9433962264150944em" height="0.11040654865935731em" x="73.58490566037736em" y="29.88959345134064em" fill="#aaa"/><rect width="0.9433962264150944em" height="0.40410161973231107em" x="74.52830188679245em" y="29.595898380267688em" fill="#aaa"/><rect width="0.9433962264150944em" height="0.2125156807720121em" x="75.47169811320755em" y="29.78748431922799em" fill="#aaa"/><rect width="0.9433962264150944em" height="0.41045377198998584em" x="76.41509433962264em" y="29.589546228010015em" fill="#aaa"/><rect width="0.9433962264150944em" height="0.10050912961156465em" x="77.35849056603773em" y="29.899490870388437em" fill="#aaa"/><rect width="0.9433962264150944em" height="0.4694122064312415em" x="78.30188679245283em" y="29.53058779356876em" fill="#aaa"/><rect width="0.9433962264150944em" height="0.1291069949880649em" x="79.24528301886792em" y="29.870893005011936em" fill="#aaa"/><rect width="0.9433962264150944em" height="0.23995604604833895em" x="80.18867924528303em" y="29.760043953951662em" fill="#aaa"/><rect width="0.9433962264150944em" height="0.19151727087624026em" x="81.13207547169812em" y="29.80848272912376em" fill="#aaa"/><rect width="0.9433962264150944em" height="0.2212752616847384em" x="82.0754716981132em" y="29.778724738315262em" fill="#aaa"/><rect width="0.9433962264150944em" height="0.30311196026748644em" x="83.01886792452831em" y="29.696888039732514em" fill="#aaa"/><rect width="0.9433962264150944em" height="0.058769389672650996em" x="83.9622641509434em" y="29.94123061032735em" fill="#aaa"/><rect width="0.9433962264150944em" height="0.35275267561954743em" x="84.90566037735849em" y="29.64724732438045em" fill="#aaa"/><rect width="0.9433962264150944em" height="0.11680105155374877em" x="85.84905660377359em" y="29.88319894844625em" fill="#aaa"/><rect width="0.9433962264150944em" height="0.5454977617433036em" x="86.79245283018868em" y="29.454502238256698em" fill="#aaa"/><rect width="0.9433962264150944em" height="0.39964837595930275em" x="87.73584905660377em" y="29.600351624040698em" fill="#aaa"/><rect width="0.9433962264150944em" height="0.4890627246131899em" x="88.67924528301887em" y="29.51093727538681em" fill="#aaa"/><rect width="0.9433962264150944em" height="0.09286046870912865em" x="89.62264150943396em" y="29.90713953129087em" fill="#aaa"/><rect width="0.9433962264150944em" height="0.022611932446794818em" x="90.56603773584905em" y="29.977388067553207em" fill="#aaa"/><rect width="0.9433962264150944em" height="0.12252628257813838em" x="91.50943396226415em" y="29.87747371742186em" fill="#aaa"/><rect width="0.9433962264150944em" height="0.12800628998362945em" x="92.45283018867924em" y="29.87199371001637em" fill="#aaa"/><rect width="0.9433962264150944em" height="0.8494672300541221em" x="93.39622641509435em" y="29.15053276994588em" fill="#aaa"/><rect width="0.9433962264150944em" height="0.4275976430790999em" x="94.33962264150944em" y="29.5724023569209em" fill="#aaa"/><rect width="0.9433962264150944em" height="0.2440409556659955em" x="95.28301886792453em" y="29.755959044334006em" fill="#aaa"/><rect width="0.9433962264150944em" height="0.08156619531501019em" x="96.22641509433963em" y="29.91843380468499em" fill="#aaa"/><rect width="0.9433962264150944em" height="0.039466420763309126em" x="97.16981132075472em" y="29.960533579236692em" fill="#aaa"/><rect width="0.9433962264150944em" height="0.16492323464354638em" x="98.11320754716981em" y="29.835076765356455em" fill="#aaa"/><rect width="0.9433962264150944em" height="0.045655317217637076em" x="99.05660377358491em" y="29.954344682782363em" fill="#aaa"/></svg>