<?xml version="1.0" standalone="no"?>
<svg xmlns:xlink="http://www.w3.org/1999/xlink" xmlns="http://www.w3.org/2000/svg" class="topic-graph" style="width: 100em; height: 30em; text-align: center;"><rect width="0.9433962264150944em" height="3.4294358103259253em" x="0em" y="26.570564189674073em" fill="#aaa"/><rect width="0.9433962264150944em" height="4.802481893617648em" x="0.9433962264150944em" y="25.197518106382354em" fill="#aaa"/><rect width="0.9433962264150944em" height="1.1594800911206482em" x="1.8867924528301887em" y="28.84051990887935em" fill="#aaa"/><rect width="0.9433962264150944em" height="0.3857489924578618em" x="2.830188679245283em" y="29.614251007542137em" fill="#aaa"/><rect width="0.9433962264150944em" height="0.020651222761520503em" x="3.7735849056603774em" y="29.979348777238478em" fill="#aaa"/><rect width="0.9433962264150944em" height="2.3918288348654233em" x="4.716981132075472em" y="27.60817116513458em" fill="#aaa"/><rect width="0.9433962264150944em" height="1.2692473460972662em" x="5.660377358490566em" y="28.730752653902734em" fill="#aaa"/><rect width="0.9433962264150944em" height="0.29478484633987884em" x="6.60377358490566em" y="29.70521515366012em" fill="#aaa"/><rect width="0.9433962264150944em" height="14.686315670095905em" x="7.547169811320755em" y="15.313684329904095em" fill="#aaa"/><rect width="0.9433962264150944em" height="2.773077694330474em" x="8.49056603773585em" y="27.226922305669525em" fill="#aaa"/><rect width="0.9433962264150944em" height="0.2121109688794238em" x="9.433962264150944em" y="29.787889031120578em" fill="#aaa"/><rect width="0.9433962264150944em" height="0.17819195582812417em" x="10.377358490566039em" y="29.821808044171878em" fill="#aaa"/><rect width="0.9433962264150944em" height="3.840858588372622em" x="11.320754716981131em" y="26.159141411627377em" fill="#aaa"/><rect width="0.9433962264150944em" height="0em" x="12.264150943396226em" y="30em" fill="#aaa"/><rect width="0.9433962264150944em" height="1.5980345829114275em" x="13.20754716981132em" y="28.401965417088572em" fill="#aaa"/><rect width="0.9433962264150944em" height="5.211547481998613em" x="14.150943396226415em" y="24.788452518001385em" fill="#aaa"/><rect width="0.9433962264150944em" height="4.978782179237783em" x="15.09433962264151em" y="25.021217820762217em" fill="#aaa"/><rect width="0.9433962264150944em" height="0.6011044027720336em" x="16.037735849056602em" y="29.398895597227966em" fill="#aaa"/><rect width="0.9433962264150944em" height="1.7833607896728028em" x="16.9811320754717em" y="28.216639210327198em" fill="#aaa"/><rect width="0.9433962264150944em" height="1.7687509553131968em" x="17.92452830188679em" y="28.231249044686802em" fill="#aaa"/><rect width="0.9433962264150944em" height="0.4871873170628948em" x="18.867924528301888em" y="29.512812682937106em" fill="#aaa"/><rect width="0.9433962264150944em" height="1.2396740472327266em" x="19.81132075471698em" y="28.760325952767275em" fill="#aaa"/><rect width="0.9433962264150944em" height="2.1687929146905236em" x="20.754716981132077em" y="27.831207085309476em" fill="#aaa"/><rect width="0.9433962264150944em" height="30em" x="21.69811320754717em" y="0em" fill="#aaa"/><rect width="0.9433962264150944em" height="0.9865069400055475em" x="22.641509433962263em" y="29.013493059994452em" fill="#aaa"/><rect width="0.9433962264150944em" height="4.5656747281382914em" x="23.58490566037736em" y="25.43432527186171em" fill="#aaa"/><rect width="0.9433962264150944em" height="0em" x="24.528301886792452em" y="30em" fill="#aaa"/><rect width="0.9433962264150944em" height="1.4684681501467076em" x="25.471698113207548em" y="28.53153184985329em" fill="#aaa"/><rect width="0.9433962264150944em" height="0.16195280571514262em" x="26.41509433962264em" y="29.838047194284858em" fill="#aaa"/><rect width="0.9433962264150944em" height="0.8077548472816743em" x="27.358490566037737em" y="29.192245152718325em" fill="#aaa"/><rect width="0.9433962264150944em" height="7.649607360136803em" x="28.30188679245283em" y="22.3503926398632em" fill="#aaa"/><rect width="0.9433962264150944em" height="0.9310755699579463em" x="29.245283018867926em" y="29.068924430042053em" fill="#aaa"/><rect width="0.9433962264150944em" height="0.07943451024604865em" x="30.18867924528302em" y="29.92056548975395em" fill="#aaa"/><rect width="0.9433962264150944em" height="1.06917133869396em" x="31.132075471698112em" y="28.93082866130604em" fill="#aaa"/><rect width="0.9433962264150944em" height="1.9895084832927572em" x="32.075471698113205em" y="28.010491516707244em" fill="#aaa"/><rect width="0.9433962264150944em" height="0.5934826202439338em" x="33.0188679245283em" y="29.406517379756067em" fill="#aaa"/><rect width="0.9433962264150944em" height="5.656224314806821em" x="33.9622641509434em" y="24.34377568519318em" fill="#aaa"/><rect width="0.9433962264150944em" height="0.8636181716805532em" x="34.905660377358494em" y="29.136381828319447em" fill="#aaa"/><rect width="0.9433962264150944em" height="0.1533902002306309em" x="35.84905660377358em" y="29.846609799769368em" fill="#aaa"/><rect width="0.9433962264150944em" height="0.5419664569283874em" x="36.79245283018868em" y="29.45803354307161em" fill="#aaa"/><rect width="0.9433962264150944em" height="0.2138130572927552em" x="37.735849056603776em" y="29.786186942707246em" fill="#aaa"/><rect width="0.9433962264150944em" height="2.9570764767654363em" x="38.679245283018865em" y="27.042923523234563em" fill="#aaa"/><rect width="0.9433962264150944em" height="3.255387711853727em" x="39.62264150943396em" y="26.74461228814627em" fill="#aaa"/><rect width="0.9433962264150944em" height="0.39688217444949114em" x="40.56603773584906em" y="29.60311782555051em" fill="#aaa"/><rect width="0.9433962264150944em" height="7.968298798590373em" x="41.509433962264154em" y="22.031701201409625em" fill="#aaa"/><rect width="0.9433962264150944em" height="1.9503036633301771em" x="42.45283018867924em" y="28.04969633666982em" fill="#aaa"/><rect width="0.9433962264150944em" height="0.7308826674094526em" x="43.39622641509434em" y="29.269117332590547em" fill="#aaa"/><rect width="0.9433962264150944em" height="0.07486587424871616em" x="44.339622641509436em" y="29.925134125751285em" fill="#aaa"/><rect width="0.9433962264150944em" height="0.06356941418960756em" x="45.283018867924525em" y="29.936430585810392em" fill="#aaa"/><rect width="0.9433962264150944em" height="0.1569451420653763em" x="46.22641509433962em" y="29.843054857934625em" fill="#aaa"/><rect width="0.9433962264150944em" height="0.1959302657853991em" x="47.16981132075472em" y="29.8040697342146em" fill="#aaa"/><rect width="0.9433962264150944em" height="1.9470517476003069em" x="48.113207547169814em" y="28.052948252399695em" fill="#aaa"/><rect width="0.9433962264150944em" height="0.3999365702685181em" x="49.056603773584904em" y="29.60006342973148em" fill="#aaa"/><rect width="0.9433962264150944em" height="1.6092718597159368em" x="50em" y="28.390728140284065em" fill="#aaa"/><rect width="0.9433962264150944em" height="8.276629181374831em" x="50.943396226415096em" y="21.72337081862517em" fill="#aaa"/><rect width="0.9433962264150944em" height="1.201692949325773em" x="51.88679245283019em" y="28.798307050674225em" fill="#aaa"/><rect width="0.9433962264150944em" height="0.29447842425492354em" x="52.83018867924528em" y="29.705521575745077em" fill="#aaa"/><rect width="0.9433962264150944em" height="0.31325604876085095em" x="53.77358490566038em" y="29.686743951239148em" fill="#aaa"/><rect width="0.9433962264150944em" height="0.44577830520069406em" x="54.716981132075475em" y="29.554221694799306em" fill="#aaa"/><rect width="0.9433962264150944em" height="0.35765029455228453em" x="55.660377358490564em" y="29.642349705447714em" fill="#aaa"/><rect width="0.9433962264150944em" height="0.21221671314995483em" x="56.60377358490566em" y="29.787783286850043em" fill="#aaa"/><rect width="0.9433962264150944em" height="1.5843017905750023em" x="57.54716981132076em" y="28.415698209425em" fill="#aaa"/><rect width="0.9433962264150944em" height="1.942077427480524em" x="58.49056603773585em" y="28.057922572519477em" fill="#aaa"/><rect width="0.9433962264150944em" height="0.8372622775951116em" x="59.43396226415094em" y="29.162737722404888em" fill="#aaa"/><rect width="0.9433962264150944em" height="0.8069528357900226em" x="60.37735849056604em" y="29.19304716420998em" fill="#aaa"/><rect width="0.9433962264150944em" height="0.30340367259723133em" x="61.320754716981135em" y="29.69659632740277em" fill="#aaa"/><rect width="0.9433962264150944em" height="0.8059391627238045em" x="62.264150943396224em" y="29.194060837276197em" fill="#aaa"/><rect width="0.9433962264150944em" height="0.2505946549925984em" x="63.20754716981132em" y="29.7494053450074em" fill="#aaa"/><rect width="0.9433962264150944em" height="0.1191183131165305em" x="64.15094339622641em" y="29.88088168688347em" fill="#aaa"/><rect width="0.9433962264150944em" height="0.5715057433700664em" x="65.09433962264151em" y="29.428494256629932em" fill="#aaa"/><rect width="0.9433962264150944em" height="1.2713826851381913em" x="66.0377358490566em" y="28.728617314861808em" fill="#aaa"/><rect width="0.9433962264150944em" height="0.1352348910067107em" x="66.9811320754717em" y="29.86476510899329em" fill="#aaa"/><rect width="0.9433962264150944em" height="2.271293304946778em" x="67.9245283018868em" y="27.728706695053223em" fill="#aaa"/><rect width="0.9433962264150944em" height="0.9621841300914892em" x="68.86792452830188em" y="29.03781586990851em" fill="#aaa"/><rect width="0.9433962264150944em" height="0.2082882990050487em" x="69.81132075471699em" y="29.791711700994952em" fill="#aaa"/><rect width="0.9433962264150944em" height="0.13516614660349074em" x="70.75471698113208em" y="29.864833853396508em" fill="#aaa"/><rect width="0.9433962264150944em" height="1.3731337931166387em" x="71.69811320754717em" y="28.62686620688336em" fill="#aaa"/><rect width="0.9433962264150944em" height="0.41285151626222305em" x="72.64150943396227em" y="29.587148483737778em" fill="#aaa"/><rect width="0.9433962264150944em" height="0.09127786948391568em" x="73.58490566037736em" y="29.908722130516086em" fill="#aaa"/><rect width="0.9433962264150944em" height="0.28274061492016966em" x="74.52830188679245em" y="29.71725938507983em" fill="#aaa"/><rect width="0.9433962264150944em" height="0.3289963273349484em" x="75.47169811320755em" y="29.67100367266505em" fill="#aaa"/><rect width="0.9433962264150944em" height="0.23281985457505977em" x="76.41509433962264em" y="29.76718014542494em" fill="#aaa"/><rect width="0.9433962264150944em" height="0.27461415860709704em" x="77.35849056603773em" y="29.725385841392903em" fill="#aaa"/><rect width="0.9433962264150944em" height="0.18219595760876198em" x="78.30188679245283em" y="29.817804042391238em" fill="#aaa"/><rect width="0.9433962264150944em" height="0.19915505087923055em" x="79.24528301886792em" y="29.80084494912077em" fill="#aaa"/><rect width="0.9433962264150944em" height="0.2572242689651045em" x="80.18867924528303em" y="29.742775731034897em" fill="#aaa"/><rect width="0.9433962264150944em" height="0.19389271252857637em" x="81.13207547169812em" y="29.806107287471423em" fill="#aaa"/><rect width="0.9433962264150944em" height="0.2013796468645324em" x="82.0754716981132em" y="29.79862035313547em" fill="#aaa"/><rect width="0.9433962264150944em" height="0.29262377259362465em" x="83.01886792452831em" y="29.707376227406375em" fill="#aaa"/><rect width="0.9433962264150944em" height="0.44476431784767967em" x="83.9622641509434em" y="29.555235682152322em" fill="#aaa"/><rect width="0.9433962264150944em" height="0.25568235004673046em" x="84.90566037735849em" y="29.74431764995327em" fill="#aaa"/><rect width="0.9433962264150944em" height="0.2640395752690814em" x="85.84905660377359em" y="29.73596042473092em" fill="#aaa"/><rect width="0.9433962264150944em" height="0.16866831720232744em" x="86.79245283018868em" y="29.83133168279767em" fill="#aaa"/><rect width="0.9433962264150944em" height="0.1054447120662683em" x="87.73584905660377em" y="29.89455528793373em" fill="#aaa"/><rect width="0.9433962264150944em" height="0.19926065464182113em" x="88.67924528301887em" y="29.800739345358178em" fill="#aaa"/><rect width="0.9433962264150944em" height="0.14879846326461582em" x="89.62264150943396em" y="29.851201536735385em" fill="#aaa"/><rect width="0.9433962264150944em" height="0.2347488952032843em" x="90.56603773584905em" y="29.765251104796715em" fill="#aaa"/><rect width="0.9433962264150944em" height="0.23871959019571476em" x="91.50943396226415em" y="29.761280409804286em" fill="#aaa"/><rect width="0.9433962264150944em" height="0.17919501612824143em" x="92.45283018867924em" y="29.82080498387176em" fill="#aaa"/><rect width="0.9433962264150944em" height="0.24765928719853147em" x="93.39622641509435em" y="29.75234071280147em" fill="#aaa"/><rect width="0.9433962264150944em" height="0.12259360138414427em" x="94.33962264150944em" y="29.877406398615857em" fill="#aaa"/><rect width="0.9433962264150944em" height="0.14181152443734307em" x="95.28301886792453em" y="29.858188475562656em" fill="#aaa"/><rect width="0.9433962264150944em" height="0.21269838501512794em" x="96.22641509433963em" y="29.787301614984873em" fill="#aaa"/><rect width="0.9433962264150944em" height="0.21859882877543138em" x="97.16981132075472em" y="29.78140117122457em" fill="#aaa"/><rect width="0.9433962264150944em" height="0.23558699334474406em" x="98.11320754716981em" y="29.764413006655257em" fill="#aaa"/><rect width="0.9433962264150944em" height="0.20121300748482576em" x="99.05660377358491em" y="29.798786992515176em" fill="#aaa"/></svg>