<?xml version="1.0" standalone="no"?>
<svg xmlns:xlink="http://www.w3.org/1999/xlink" xmlns="http://www.w3.org/2000/svg" class="topic-graph" style="width: 100em; height: 30em; text-align: center;"><rect width="0.9433962264150944em" height="0.05080895918488571em" x="0em" y="29.949191040815116em" fill="#aaa"/><rect width="0.9433962264150944em" height="1.8069324437362426em" x="0.9433962264150944em" y="28.193067556263756em" fill="#aaa"/><rect width="0.9433962264150944em" height="0.2609132533849218em" x="1.8867924528301887em" y="29.73908674661508em" fill="#aaa"/><rect width="0.9433962264150944em" height="0.5426556137890781em" x="2.830188679245283em" y="29.45734438621092em" fill="#aaa"/><rect width="0.9433962264150944em" height="2.135984755225116em" x="3.7735849056603774em" y="27.864015244774883em" fill="#aaa"/><rect width="0.9433962264150944em" height="1.3350348758220494em" x="4.716981132075472em" y="28.66496512417795em" fill="#aaa"/><rect width="0.9433962264150944em" height="0.4235148007641385em" x="5.660377358490566em" y="29.57648519923586em" fill="#aaa"/><rect width="0.9433962264150944em" height="0.38730828415209745em" x="6.60377358490566em" y="29.6126917158479em" fill="#aaa"/><rect width="0.9433962264150944em" height="1.314836473165089em" x="7.547169811320755em" y="28.685163526834913em" fill="#aaa"/><rect width="0.9433962264150944em" height="0.4392543278485077em" x="8.49056603773585em" y="29.56074567215149em" fill="#aaa"/><rect width="0.9433962264150944em" height="0.29177305444648743em" x="9.433962264150944em" y="29.708226945553513em" fill="#aaa"/><rect width="0.9433962264150944em" height="0.25894516818860863em" x="10.377358490566039em" y="29.74105483181139em" fill="#aaa"/><rect width="0.9433962264150944em" height="1.4732505184695162em" x="11.320754716981131em" y="28.526749481530484em" fill="#aaa"/><rect width="0.9433962264150944em" height="0em" x="12.264150943396226em" y="30em" fill="#aaa"/><rect width="0.9433962264150944em" height="1.2472276319817692em" x="13.20754716981132em" y="28.75277236801823em" fill="#aaa"/><rect width="0.9433962264150944em" height="1.6116585214553427em" x="14.150943396226415em" y="28.388341478544657em" fill="#aaa"/><rect width="0.9433962264150944em" height="1.9937272627346172em" x="15.09433962264151em" y="28.006272737265384em" fill="#aaa"/><rect width="0.9433962264150944em" height="0.8941976027066375em" x="16.037735849056602em" y="29.105802397293363em" fill="#aaa"/><rect width="0.9433962264150944em" height="0.08866409604358134em" x="16.9811320754717em" y="29.91133590395642em" fill="#aaa"/><rect width="0.9433962264150944em" height="5.737440252257367em" x="17.92452830188679em" y="24.262559747742632em" fill="#aaa"/><rect width="0.9433962264150944em" height="0.5934126445800103em" x="18.867924528301888em" y="29.40658735541999em" fill="#aaa"/><rect width="0.9433962264150944em" height="1.2837557303862777em" x="19.81132075471698em" y="28.71624426961372em" fill="#aaa"/><rect width="0.9433962264150944em" height="4.101386972079161em" x="20.754716981132077em" y="25.898613027920838em" fill="#aaa"/><rect width="0.9433962264150944em" height="2.1303852609059453em" x="21.69811320754717em" y="27.869614739094054em" fill="#aaa"/><rect width="0.9433962264150944em" height="1.0881820683679164em" x="22.641509433962263em" y="28.911817931632083em" fill="#aaa"/><rect width="0.9433962264150944em" height="1.9103654688405383em" x="23.58490566037736em" y="28.08963453115946em" fill="#aaa"/><rect width="0.9433962264150944em" height="0em" x="24.528301886792452em" y="30em" fill="#aaa"/><rect width="0.9433962264150944em" height="1.7054082132601873em" x="25.471698113207548em" y="28.29459178673981em" fill="#aaa"/><rect width="0.9433962264150944em" height="2.786974458498893em" x="26.41509433962264em" y="27.213025541501107em" fill="#aaa"/><rect width="0.9433962264150944em" height="0.9041188008120782em" x="27.358490566037737em" y="29.09588119918792em" fill="#aaa"/><rect width="0.9433962264150944em" height="4.271981344716778em" x="28.30188679245283em" y="25.728018655283222em" fill="#aaa"/><rect width="0.9433962264150944em" height="0.8715916737808859em" x="29.245283018867926em" y="29.128408326219112em" fill="#aaa"/><rect width="0.9433962264150944em" height="2.0837090307425257em" x="30.18867924528302em" y="27.916290969257474em" fill="#aaa"/><rect width="0.9433962264150944em" height="1.3947719227461308em" x="31.132075471698112em" y="28.60522807725387em" fill="#aaa"/><rect width="0.9433962264150944em" height="0.9859209162748682em" x="32.075471698113205em" y="29.014079083725132em" fill="#aaa"/><rect width="0.9433962264150944em" height="1.6308091376176213em" x="33.0188679245283em" y="28.36919086238238em" fill="#aaa"/><rect width="0.9433962264150944em" height="2.708418660372775em" x="33.9622641509434em" y="27.291581339627225em" fill="#aaa"/><rect width="0.9433962264150944em" height="3.7810791417089122em" x="34.905660377358494em" y="26.21892085829109em" fill="#aaa"/><rect width="0.9433962264150944em" height="4.795286981720111em" x="35.84905660377358em" y="25.20471301827989em" fill="#aaa"/><rect width="0.9433962264150944em" height="3.9364768733484716em" x="36.79245283018868em" y="26.06352312665153em" fill="#aaa"/><rect width="0.9433962264150944em" height="2.8648039888791237em" x="37.735849056603776em" y="27.135196011120875em" fill="#aaa"/><rect width="0.9433962264150944em" height="12.192145340213349em" x="38.679245283018865em" y="17.80785465978665em" fill="#aaa"/><rect width="0.9433962264150944em" height="4.3946673764327775em" x="39.62264150943396em" y="25.60533262356722em" fill="#aaa"/><rect width="0.9433962264150944em" height="5.376423348896526em" x="40.56603773584906em" y="24.623576651103473em" fill="#aaa"/><rect width="0.9433962264150944em" height="2.912735499918899em" x="41.509433962264154em" y="27.0872645000811em" fill="#aaa"/><rect width="0.9433962264150944em" height="3.9714650086272862em" x="42.45283018867924em" y="26.028534991372712em" fill="#aaa"/><rect width="0.9433962264150944em" height="2.2730613924612872em" x="43.39622641509434em" y="27.726938607538713em" fill="#aaa"/><rect width="0.9433962264150944em" height="7.926051854492902em" x="44.339622641509436em" y="22.073948145507096em" fill="#aaa"/><rect width="0.9433962264150944em" height="14.688962342790223em" x="45.283018867924525em" y="15.311037657209777em" fill="#aaa"/><rect width="0.9433962264150944em" height="7.095216241015459em" x="46.22641509433962em" y="22.904783758984543em" fill="#aaa"/><rect width="0.9433962264150944em" height="2.935494169503257em" x="47.16981132075472em" y="27.064505830496742em" fill="#aaa"/><rect width="0.9433962264150944em" height="4.617004324499996em" x="48.113207547169814em" y="25.382995675500005em" fill="#aaa"/><rect width="0.9433962264150944em" height="4.483059639356187em" x="49.056603773584904em" y="25.516940360643815em" fill="#aaa"/><rect width="0.9433962264150944em" height="3.3018461975600975em" x="50em" y="26.698153802439904em" fill="#aaa"/><rect width="0.9433962264150944em" height="3.9712900719451927em" x="50.943396226415096em" y="26.02870992805481em" fill="#aaa"/><rect width="0.9433962264150944em" height="2.9519289588103605em" x="51.88679245283019em" y="27.04807104118964em" fill="#aaa"/><rect width="0.9433962264150944em" height="1.0701282149218199em" x="52.83018867924528em" y="28.92987178507818em" fill="#aaa"/><rect width="0.9433962264150944em" height="4.499683353980499em" x="53.77358490566038em" y="25.5003166460195em" fill="#aaa"/><rect width="0.9433962264150944em" height="10.981241798619704em" x="54.716981132075475em" y="19.018758201380294em" fill="#aaa"/><rect width="0.9433962264150944em" height="2.052122726924556em" x="55.660377358490564em" y="27.947877273075445em" fill="#aaa"/><rect width="0.9433962264150944em" height="2.647465762920177em" x="56.60377358490566em" y="27.352534237079823em" fill="#aaa"/><rect width="0.9433962264150944em" height="3.5127627524836007em" x="57.54716981132076em" y="26.4872372475164em" fill="#aaa"/><rect width="0.9433962264150944em" height="22.712212368189476em" x="58.49056603773585em" y="7.287787631810524em" fill="#aaa"/><rect width="0.9433962264150944em" height="11.223792866715243em" x="59.43396226415094em" y="18.776207133284757em" fill="#aaa"/><rect width="0.9433962264150944em" height="12.694737085554397em" x="60.37735849056604em" y="17.305262914445603em" fill="#aaa"/><rect width="0.9433962264150944em" height="7.203858407250576em" x="61.320754716981135em" y="22.796141592749425em" fill="#aaa"/><rect width="0.9433962264150944em" height="7.328089655831382em" x="62.264150943396224em" y="22.671910344168616em" fill="#aaa"/><rect width="0.9433962264150944em" height="3.4342811914189406em" x="63.20754716981132em" y="26.56571880858106em" fill="#aaa"/><rect width="0.9433962264150944em" height="3.6630807835785864em" x="64.15094339622641em" y="26.336919216421414em" fill="#aaa"/><rect width="0.9433962264150944em" height="3.671709642054484em" x="65.09433962264151em" y="26.328290357945516em" fill="#aaa"/><rect width="0.9433962264150944em" height="3.2357459253741125em" x="66.0377358490566em" y="26.76425407462589em" fill="#aaa"/><rect width="0.9433962264150944em" height="15.304997881614673em" x="66.9811320754717em" y="14.695002118385327em" fill="#aaa"/><rect width="0.9433962264150944em" height="27.107351944861602em" x="67.9245283018868em" y="2.892648055138398em" fill="#aaa"/><rect width="0.9433962264150944em" height="2.947044959573098em" x="68.86792452830188em" y="27.0529550404269em" fill="#aaa"/><rect width="0.9433962264150944em" height="3.566571370471424em" x="69.81132075471699em" y="26.433428629528578em" fill="#aaa"/><rect width="0.9433962264150944em" height="2.612859078217507em" x="70.75471698113208em" y="27.387140921782493em" fill="#aaa"/><rect width="0.9433962264150944em" height="4.991590889703319em" x="71.69811320754717em" y="25.008409110296682em" fill="#aaa"/><rect width="0.9433962264150944em" height="1.592387132218551em" x="72.64150943396227em" y="28.40761286778145em" fill="#aaa"/><rect width="0.9433962264150944em" height="6.314342524950728em" x="73.58490566037736em" y="23.685657475049272em" fill="#aaa"/><rect width="0.9433962264150944em" height="3.595936977303446em" x="74.52830188679245em" y="26.404063022696555em" fill="#aaa"/><rect width="0.9433962264150944em" height="3.295543487363022em" x="75.47169811320755em" y="26.704456512636977em" fill="#aaa"/><rect width="0.9433962264150944em" height="15.401482773101211em" x="76.41509433962264em" y="14.598517226898789em" fill="#aaa"/><rect width="0.9433962264150944em" height="15.44684090856736em" x="77.35849056603773em" y="14.55315909143264em" fill="#aaa"/><rect width="0.9433962264150944em" height="5.659427066095936em" x="78.30188679245283em" y="24.340572933904063em" fill="#aaa"/><rect width="0.9433962264150944em" height="2.192340865418872em" x="79.24528301886792em" y="27.80765913458113em" fill="#aaa"/><rect width="0.9433962264150944em" height="2.8064169587988754em" x="80.18867924528303em" y="27.193583041201123em" fill="#aaa"/><rect width="0.9433962264150944em" height="10.020025013899184em" x="81.13207547169812em" y="19.979974986100814em" fill="#aaa"/><rect width="0.9433962264150944em" height="11.47763119354027em" x="82.0754716981132em" y="18.52236880645973em" fill="#aaa"/><rect width="0.9433962264150944em" height="9.682822574032057em" x="83.01886792452831em" y="20.31717742596794em" fill="#aaa"/><rect width="0.9433962264150944em" height="7.072472465881322em" x="83.9622641509434em" y="22.927527534118678em" fill="#aaa"/><rect width="0.9433962264150944em" height="2.960202787439916em" x="84.90566037735849em" y="27.039797212560085em" fill="#aaa"/><rect width="0.9433962264150944em" height="6.922500585019806em" x="85.84905660377359em" y="23.077499414980196em" fill="#aaa"/><rect width="0.9433962264150944em" height="7.9187836601481205em" x="86.79245283018868em" y="22.081216339851878em" fill="#aaa"/><rect width="0.9433962264150944em" height="5.606861595877589em" x="87.73584905660377em" y="24.39313840412241em" fill="#aaa"/><rect width="0.9433962264150944em" height="4.811383623745639em" x="88.67924528301887em" y="25.18861637625436em" fill="#aaa"/><rect width="0.9433962264150944em" height="4.451927001285778em" x="89.62264150943396em" y="25.548072998714222em" fill="#aaa"/><rect width="0.9433962264150944em" height="10.686552587640469em" x="90.56603773584905em" y="19.31344741235953em" fill="#aaa"/><rect width="0.9433962264150944em" height="30em" x="91.50943396226415em" y="0em" fill="#aaa"/><rect width="0.9433962264150944em" height="9.791528643313512em" x="92.45283018867924em" y="20.208471356686488em" fill="#aaa"/><rect width="0.9433962264150944em" height="7.128509817014106em" x="93.39622641509435em" y="22.871490182985895em" fill="#aaa"/><rect width="0.9433962264150944em" height="10.346542419495396em" x="94.33962264150944em" y="19.653457580504604em" fill="#aaa"/><rect width="0.9433962264150944em" height="7.07550727761747em" x="95.28301886792453em" y="22.92449272238253em" fill="#aaa"/><rect width="0.9433962264150944em" height="5.206592108370688em" x="96.22641509433963em" y="24.79340789162931em" fill="#aaa"/><rect width="0.9433962264150944em" height="6.024654533433342em" x="97.16981132075472em" y="23.975345466566658em" fill="#aaa"/><rect width="0.9433962264150944em" height="6.49490785373404em" x="98.11320754716981em" y="23.50509214626596em" fill="#aaa"/><rect width="0.9433962264150944em" height="7.341612634649618em" x="99.05660377358491em" y="22.658387365350382em" fill="#aaa"/></svg>