<?xml version="1.0" standalone="no"?>
<svg xmlns:xlink="http://www.w3.org/1999/xlink" xmlns="http://www.w3.org/2000/svg" class="topic-graph" style="width: 100em; height: 30em; text-align: center;"><rect width="0.9433962264150944em" height="0.05359286754040279em" x="0em" y="29.946407132459598em" fill="#aaa"/><rect width="0.9433962264150944em" height="0.3092429186305685em" x="0.9433962264150944em" y="29.69075708136943em" fill="#aaa"/><rect width="0.9433962264150944em" height="0.006210993391940491em" x="1.8867924528301887em" y="29.99378900660806em" fill="#aaa"/><rect width="0.9433962264150944em" height="0.20269117982209967em" x="2.830188679245283em" y="29.7973088201779em" fill="#aaa"/><rect width="0.9433962264150944em" height="0.014669880725819373em" x="3.7735849056603774em" y="29.98533011927418em" fill="#aaa"/><rect width="0.9433962264150944em" height="0.14503438641163482em" x="4.716981132075472em" y="29.854965613588366em" fill="#aaa"/><rect width="0.9433962264150944em" height="0.5083536046212318em" x="5.660377358490566em" y="29.49164639537877em" fill="#aaa"/><rect width="0.9433962264150944em" height="0.06671285793329637em" x="6.60377358490566em" y="29.933287142066703em" fill="#aaa"/><rect width="0.9433962264150944em" height="0.6926564522440262em" x="7.547169811320755em" y="29.307343547755973em" fill="#aaa"/><rect width="0.9433962264150944em" height="0.010906446776310232em" x="8.49056603773585em" y="29.98909355322369em" fill="#aaa"/><rect width="0.9433962264150944em" height="0.10187199864291512em" x="9.433962264150944em" y="29.898128001357083em" fill="#aaa"/><rect width="0.9433962264150944em" height="0.4484109176157814em" x="10.377358490566039em" y="29.55158908238422em" fill="#aaa"/><rect width="0.9433962264150944em" height="0.06267404439431747em" x="11.320754716981131em" y="29.937325955605683em" fill="#aaa"/><rect width="0.9433962264150944em" height="0em" x="12.264150943396226em" y="30em" fill="#aaa"/><rect width="0.9433962264150944em" height="0.28731961336569306em" x="13.20754716981132em" y="29.712680386634307em" fill="#aaa"/><rect width="0.9433962264150944em" height="0.11270212908546796em" x="14.150943396226415em" y="29.887297870914534em" fill="#aaa"/><rect width="0.9433962264150944em" height="0.26043640222117287em" x="15.09433962264151em" y="29.739563597778826em" fill="#aaa"/><rect width="0.9433962264150944em" height="0.06374768028553075em" x="16.037735849056602em" y="29.93625231971447em" fill="#aaa"/><rect width="0.9433962264150944em" height="0.2325071314515857em" x="16.9811320754717em" y="29.767492868548413em" fill="#aaa"/><rect width="0.9433962264150944em" height="0.3030580715798879em" x="17.92452830188679em" y="29.696941928420113em" fill="#aaa"/><rect width="0.9433962264150944em" height="0.2960138288694557em" x="18.867924528301888em" y="29.703986171130545em" fill="#aaa"/><rect width="0.9433962264150944em" height="0.3230251214203403em" x="19.81132075471698em" y="29.67697487857966em" fill="#aaa"/><rect width="0.9433962264150944em" height="0.2939749154074443em" x="20.754716981132077em" y="29.706025084592557em" fill="#aaa"/><rect width="0.9433962264150944em" height="0.1402728166060269em" x="21.69811320754717em" y="29.85972718339397em" fill="#aaa"/><rect width="0.9433962264150944em" height="0.08568368612144134em" x="22.641509433962263em" y="29.914316313878558em" fill="#aaa"/><rect width="0.9433962264150944em" height="0.10019912937292973em" x="23.58490566037736em" y="29.89980087062707em" fill="#aaa"/><rect width="0.9433962264150944em" height="0em" x="24.528301886792452em" y="30em" fill="#aaa"/><rect width="0.9433962264150944em" height="1.102859797480268em" x="25.471698113207548em" y="28.897140202519733em" fill="#aaa"/><rect width="0.9433962264150944em" height="0.19816236977042em" x="26.41509433962264em" y="29.80183763022958em" fill="#aaa"/><rect width="0.9433962264150944em" height="0.25438482408380186em" x="27.358490566037737em" y="29.7456151759162em" fill="#aaa"/><rect width="0.9433962264150944em" height="0.15377994860811925em" x="28.30188679245283em" y="29.84622005139188em" fill="#aaa"/><rect width="0.9433962264150944em" height="2.3319801634862634em" x="29.245283018867926em" y="27.668019836513736em" fill="#aaa"/><rect width="0.9433962264150944em" height="0.7775560252477596em" x="30.18867924528302em" y="29.22244397475224em" fill="#aaa"/><rect width="0.9433962264150944em" height="0.2968462311037585em" x="31.132075471698112em" y="29.703153768896243em" fill="#aaa"/><rect width="0.9433962264150944em" height="0.3060695548117655em" x="32.075471698113205em" y="29.693930445188233em" fill="#aaa"/><rect width="0.9433962264150944em" height="0.18481772975334448em" x="33.0188679245283em" y="29.815182270246655em" fill="#aaa"/><rect width="0.9433962264150944em" height="0.19636328246820942em" x="33.9622641509434em" y="29.80363671753179em" fill="#aaa"/><rect width="0.9433962264150944em" height="0.5056847207467188em" x="34.905660377358494em" y="29.494315279253282em" fill="#aaa"/><rect width="0.9433962264150944em" height="0.11707622489141885em" x="35.84905660377358em" y="29.88292377510858em" fill="#aaa"/><rect width="0.9433962264150944em" height="0.45096334721882664em" x="36.79245283018868em" y="29.549036652781172em" fill="#aaa"/><rect width="0.9433962264150944em" height="1.011520976313322em" x="37.735849056603776em" y="28.98847902368668em" fill="#aaa"/><rect width="0.9433962264150944em" height="0.28087515598023066em" x="38.679245283018865em" y="29.71912484401977em" fill="#aaa"/><rect width="0.9433962264150944em" height="0.32444311773899726em" x="39.62264150943396em" y="29.675556882261002em" fill="#aaa"/><rect width="0.9433962264150944em" height="0.2406793547454189em" x="40.56603773584906em" y="29.759320645254583em" fill="#aaa"/><rect width="0.9433962264150944em" height="0.25108053202591973em" x="41.509433962264154em" y="29.74891946797408em" fill="#aaa"/><rect width="0.9433962264150944em" height="0.3412988178238256em" x="42.45283018867924em" y="29.658701182176173em" fill="#aaa"/><rect width="0.9433962264150944em" height="0.25064413777735417em" x="43.39622641509434em" y="29.749355862222647em" fill="#aaa"/><rect width="0.9433962264150944em" height="0.08765194644679532em" x="44.339622641509436em" y="29.912348053553206em" fill="#aaa"/><rect width="0.9433962264150944em" height="0.2202057217505694em" x="45.283018867924525em" y="29.77979427824943em" fill="#aaa"/><rect width="0.9433962264150944em" height="0.552466483999585em" x="46.22641509433962em" y="29.447533516000416em" fill="#aaa"/><rect width="0.9433962264150944em" height="0.6640046625001969em" x="47.16981132075472em" y="29.335995337499803em" fill="#aaa"/><rect width="0.9433962264150944em" height="0.1668688500475415em" x="48.113207547169814em" y="29.833131149952457em" fill="#aaa"/><rect width="0.9433962264150944em" height="0.6611493384541576em" x="49.056603773584904em" y="29.33885066154584em" fill="#aaa"/><rect width="0.9433962264150944em" height="0.04306698034414233em" x="50em" y="29.956933019655857em" fill="#aaa"/><rect width="0.9433962264150944em" height="0.43259217157965935em" x="50.943396226415096em" y="29.56740782842034em" fill="#aaa"/><rect width="0.9433962264150944em" height="0.18754851954403517em" x="51.88679245283019em" y="29.812451480455966em" fill="#aaa"/><rect width="0.9433962264150944em" height="0.1235330560855035em" x="52.83018867924528em" y="29.876466943914497em" fill="#aaa"/><rect width="0.9433962264150944em" height="3.6962973152209693em" x="53.77358490566038em" y="26.30370268477903em" fill="#aaa"/><rect width="0.9433962264150944em" height="0.4109446550878461em" x="54.716981132075475em" y="29.589055344912154em" fill="#aaa"/><rect width="0.9433962264150944em" height="2.683162425398325em" x="55.660377358490564em" y="27.316837574601674em" fill="#aaa"/><rect width="0.9433962264150944em" height="2.299940808252114em" x="56.60377358490566em" y="27.700059191747886em" fill="#aaa"/><rect width="0.9433962264150944em" height="3.875303132574626em" x="57.54716981132076em" y="26.124696867425374em" fill="#aaa"/><rect width="0.9433962264150944em" height="0.41182431507018763em" x="58.49056603773585em" y="29.588175684929812em" fill="#aaa"/><rect width="0.9433962264150944em" height="0.3764499194695406em" x="59.43396226415094em" y="29.62355008053046em" fill="#aaa"/><rect width="0.9433962264150944em" height="0.777028675976835em" x="60.37735849056604em" y="29.222971324023163em" fill="#aaa"/><rect width="0.9433962264150944em" height="0.5589822888238074em" x="61.320754716981135em" y="29.441017711176194em" fill="#aaa"/><rect width="0.9433962264150944em" height="3.954891335891512em" x="62.264150943396224em" y="26.04510866410849em" fill="#aaa"/><rect width="0.9433962264150944em" height="2.242431327736449em" x="63.20754716981132em" y="27.757568672263552em" fill="#aaa"/><rect width="0.9433962264150944em" height="6.8320466792226435em" x="64.15094339622641em" y="23.167953320777357em" fill="#aaa"/><rect width="0.9433962264150944em" height="14.521228905800484em" x="65.09433962264151em" y="15.478771094199516em" fill="#aaa"/><rect width="0.9433962264150944em" height="5.833827956355916em" x="66.0377358490566em" y="24.166172043644085em" fill="#aaa"/><rect width="0.9433962264150944em" height="11.141116797765239em" x="66.9811320754717em" y="18.85888320223476em" fill="#aaa"/><rect width="0.9433962264150944em" height="7.567235616581395em" x="67.9245283018868em" y="22.432764383418604em" fill="#aaa"/><rect width="0.9433962264150944em" height="12.712376139773337em" x="68.86792452830188em" y="17.287623860226663em" fill="#aaa"/><rect width="0.9433962264150944em" height="9.892522028426674em" x="69.81132075471699em" y="20.107477971573324em" fill="#aaa"/><rect width="0.9433962264150944em" height="5.783248982356901em" x="70.75471698113208em" y="24.216751017643098em" fill="#aaa"/><rect width="0.9433962264150944em" height="8.626794809704265em" x="71.69811320754717em" y="21.373205190295735em" fill="#aaa"/><rect width="0.9433962264150944em" height="9.737342409512333em" x="72.64150943396227em" y="20.262657590487667em" fill="#aaa"/><rect width="0.9433962264150944em" height="1.3537677380330848em" x="73.58490566037736em" y="28.646232261966915em" fill="#aaa"/><rect width="0.9433962264150944em" height="1.511553405652867em" x="74.52830188679245em" y="28.48844659434713em" fill="#aaa"/><rect width="0.9433962264150944em" height="6.541413616025473em" x="75.47169811320755em" y="23.458586383974527em" fill="#aaa"/><rect width="0.9433962264150944em" height="3.401699098437801em" x="76.41509433962264em" y="26.598300901562197em" fill="#aaa"/><rect width="0.9433962264150944em" height="2.4784685188227282em" x="77.35849056603773em" y="27.52153148117727em" fill="#aaa"/><rect width="0.9433962264150944em" height="5.447529517220766em" x="78.30188679245283em" y="24.552470482779235em" fill="#aaa"/><rect width="0.9433962264150944em" height="1.002770468040964em" x="79.24528301886792em" y="28.997229531959036em" fill="#aaa"/><rect width="0.9433962264150944em" height="6.549201309789481em" x="80.18867924528303em" y="23.45079869021052em" fill="#aaa"/><rect width="0.9433962264150944em" height="5.333374264250963em" x="81.13207547169812em" y="24.666625735749037em" fill="#aaa"/><rect width="0.9433962264150944em" height="14.768859446853584em" x="82.0754716981132em" y="15.231140553146416em" fill="#aaa"/><rect width="0.9433962264150944em" height="15.13756500961924em" x="83.01886792452831em" y="14.86243499038076em" fill="#aaa"/><rect width="0.9433962264150944em" height="1.1079011615579235em" x="83.9622641509434em" y="28.892098838442077em" fill="#aaa"/><rect width="0.9433962264150944em" height="8.372810629299785em" x="84.90566037735849em" y="21.627189370700215em" fill="#aaa"/><rect width="0.9433962264150944em" height="2.409377569854965em" x="85.84905660377359em" y="27.590622430145036em" fill="#aaa"/><rect width="0.9433962264150944em" height="6.836610134152294em" x="86.79245283018868em" y="23.163389865847705em" fill="#aaa"/><rect width="0.9433962264150944em" height="1.3676464875250707em" x="87.73584905660377em" y="28.63235351247493em" fill="#aaa"/><rect width="0.9433962264150944em" height="3.117789138148272em" x="88.67924528301887em" y="26.88221086185173em" fill="#aaa"/><rect width="0.9433962264150944em" height="0.736111952239081em" x="89.62264150943396em" y="29.26388804776092em" fill="#aaa"/><rect width="0.9433962264150944em" height="5.784515358752317em" x="90.56603773584905em" y="24.215484641247684em" fill="#aaa"/><rect width="0.9433962264150944em" height="5.811487460228309em" x="91.50943396226415em" y="24.18851253977169em" fill="#aaa"/><rect width="0.9433962264150944em" height="9.570604788628538em" x="92.45283018867924em" y="20.429395211371464em" fill="#aaa"/><rect width="0.9433962264150944em" height="8.06650727907881em" x="93.39622641509435em" y="21.93349272092119em" fill="#aaa"/><rect width="0.9433962264150944em" height="5.896670531569745em" x="94.33962264150944em" y="24.103329468430253em" fill="#aaa"/><rect width="0.9433962264150944em" height="9.604539798956354em" x="95.28301886792453em" y="20.395460201043647em" fill="#aaa"/><rect width="0.9433962264150944em" height="6.19753986646205em" x="96.22641509433963em" y="23.80246013353795em" fill="#aaa"/><rect width="0.9433962264150944em" height="3.0085636385435004em" x="97.16981132075472em" y="26.9914363614565em" fill="#aaa"/><rect width="0.9433962264150944em" height="1.7071663019747245em" x="98.11320754716981em" y="28.292833698025277em" fill="#aaa"/><rect width="0.9433962264150944em" height="30em" x="99.05660377358491em" y="0em" fill="#aaa"/></svg>