<?xml version="1.0" standalone="no"?>
<svg xmlns:xlink="http://www.w3.org/1999/xlink" xmlns="http://www.w3.org/2000/svg" class="topic-graph" style="width: 100em; height: 30em; text-align: center;"><rect width="0.9433962264150944em" height="2.1996854018919954em" x="0em" y="27.800314598108006em" fill="#aaa"/><rect width="0.9433962264150944em" height="2.329448187461491em" x="0.9433962264150944em" y="27.67055181253851em" fill="#aaa"/><rect width="0.9433962264150944em" height="3.753516852257225em" x="1.8867924528301887em" y="26.246483147742776em" fill="#aaa"/><rect width="0.9433962264150944em" height="7.464686816409634em" x="2.830188679245283em" y="22.535313183590368em" fill="#aaa"/><rect width="0.9433962264150944em" height="2.10726933678213em" x="3.7735849056603774em" y="27.89273066321787em" fill="#aaa"/><rect width="0.9433962264150944em" height="4.180130141186651em" x="4.716981132075472em" y="25.819869858813348em" fill="#aaa"/><rect width="0.9433962264150944em" height="7.819650124388885em" x="5.660377358490566em" y="22.180349875611114em" fill="#aaa"/><rect width="0.9433962264150944em" height="3.1955054734111323em" x="6.60377358490566em" y="26.80449452658887em" fill="#aaa"/><rect width="0.9433962264150944em" height="3.1937762245731602em" x="7.547169811320755em" y="26.80622377542684em" fill="#aaa"/><rect width="0.9433962264150944em" height="3.8244778985116206em" x="8.49056603773585em" y="26.17552210148838em" fill="#aaa"/><rect width="0.9433962264150944em" height="2.7187523222308205em" x="9.433962264150944em" y="27.28124767776918em" fill="#aaa"/><rect width="0.9433962264150944em" height="5.730714258965552em" x="10.377358490566039em" y="24.269285741034448em" fill="#aaa"/><rect width="0.9433962264150944em" height="7.268419903766301em" x="11.320754716981131em" y="22.7315800962337em" fill="#aaa"/><rect width="0.9433962264150944em" height="0em" x="12.264150943396226em" y="30em" fill="#aaa"/><rect width="0.9433962264150944em" height="1.397495933284496em" x="13.20754716981132em" y="28.602504066715504em" fill="#aaa"/><rect width="0.9433962264150944em" height="2.0931427040650843em" x="14.150943396226415em" y="27.906857295934916em" fill="#aaa"/><rect width="0.9433962264150944em" height="4.867138354327234em" x="15.09433962264151em" y="25.132861645672765em" fill="#aaa"/><rect width="0.9433962264150944em" height="1.4163995832813678em" x="16.037735849056602em" y="28.58360041671863em" fill="#aaa"/><rect width="0.9433962264150944em" height="2.722269651676887em" x="16.9811320754717em" y="27.277730348323114em" fill="#aaa"/><rect width="0.9433962264150944em" height="9.567055838494124em" x="17.92452830188679em" y="20.432944161505876em" fill="#aaa"/><rect width="0.9433962264150944em" height="7.751781561517595em" x="18.867924528301888em" y="22.248218438482404em" fill="#aaa"/><rect width="0.9433962264150944em" height="1.830688048033208em" x="19.81132075471698em" y="28.16931195196679em" fill="#aaa"/><rect width="0.9433962264150944em" height="0.47294856966977983em" x="20.754716981132077em" y="29.52705143033022em" fill="#aaa"/><rect width="0.9433962264150944em" height="2.5513369281341056em" x="21.69811320754717em" y="27.448663071865894em" fill="#aaa"/><rect width="0.9433962264150944em" height="3.7194291690202554em" x="22.641509433962263em" y="26.280570830979745em" fill="#aaa"/><rect width="0.9433962264150944em" height="5.850308621017645em" x="23.58490566037736em" y="24.149691378982354em" fill="#aaa"/><rect width="0.9433962264150944em" height="0em" x="24.528301886792452em" y="30em" fill="#aaa"/><rect width="0.9433962264150944em" height="6.52609001929364em" x="25.471698113207548em" y="23.47390998070636em" fill="#aaa"/><rect width="0.9433962264150944em" height="13.570958741974692em" x="26.41509433962264em" y="16.429041258025308em" fill="#aaa"/><rect width="0.9433962264150944em" height="5.967599687487708em" x="27.358490566037737em" y="24.03240031251229em" fill="#aaa"/><rect width="0.9433962264150944em" height="6.83558999204518em" x="28.30188679245283em" y="23.16441000795482em" fill="#aaa"/><rect width="0.9433962264150944em" height="20.311666135249247em" x="29.245283018867926em" y="9.688333864750753em" fill="#aaa"/><rect width="0.9433962264150944em" height="12.26308784942268em" x="30.18867924528302em" y="17.736912150577318em" fill="#aaa"/><rect width="0.9433962264150944em" height="17.616236961197565em" x="31.132075471698112em" y="12.383763038802435em" fill="#aaa"/><rect width="0.9433962264150944em" height="17.430593980626593em" x="32.075471698113205em" y="12.569406019373407em" fill="#aaa"/><rect width="0.9433962264150944em" height="18.86646652225712em" x="33.0188679245283em" y="11.13353347774288em" fill="#aaa"/><rect width="0.9433962264150944em" height="10.044214478589662em" x="33.9622641509434em" y="19.955785521410338em" fill="#aaa"/><rect width="0.9433962264150944em" height="5.859375437879101em" x="34.905660377358494em" y="24.140624562120898em" fill="#aaa"/><rect width="0.9433962264150944em" height="14.754075583726255em" x="35.84905660377358em" y="15.245924416273745em" fill="#aaa"/><rect width="0.9433962264150944em" height="12.856848824287315em" x="36.79245283018868em" y="17.143151175712685em" fill="#aaa"/><rect width="0.9433962264150944em" height="10.185198307663264em" x="37.735849056603776em" y="19.814801692336736em" fill="#aaa"/><rect width="0.9433962264150944em" height="16.216532769199347em" x="38.679245283018865em" y="13.783467230800653em" fill="#aaa"/><rect width="0.9433962264150944em" height="8.393884459539777em" x="39.62264150943396em" y="21.606115540460223em" fill="#aaa"/><rect width="0.9433962264150944em" height="10.804264643971234em" x="40.56603773584906em" y="19.195735356028766em" fill="#aaa"/><rect width="0.9433962264150944em" height="22.44439522775386em" x="41.509433962264154em" y="7.5556047722461415em" fill="#aaa"/><rect width="0.9433962264150944em" height="3.592168715763077em" x="42.45283018867924em" y="26.407831284236924em" fill="#aaa"/><rect width="0.9433962264150944em" height="8.692959331970203em" x="43.39622641509434em" y="21.3070406680298em" fill="#aaa"/><rect width="0.9433962264150944em" height="9.259856875044564em" x="44.339622641509436em" y="20.740143124955438em" fill="#aaa"/><rect width="0.9433962264150944em" height="7.474170393818814em" x="45.283018867924525em" y="22.525829606181187em" fill="#aaa"/><rect width="0.9433962264150944em" height="5.894777554558445em" x="46.22641509433962em" y="24.105222445441555em" fill="#aaa"/><rect width="0.9433962264150944em" height="11.320599145187517em" x="47.16981132075472em" y="18.679400854812485em" fill="#aaa"/><rect width="0.9433962264150944em" height="9.032727426699758em" x="48.113207547169814em" y="20.967272573300242em" fill="#aaa"/><rect width="0.9433962264150944em" height="5.257358588244266em" x="49.056603773584904em" y="24.742641411755734em" fill="#aaa"/><rect width="0.9433962264150944em" height="9.070035324493988em" x="50em" y="20.929964675506014em" fill="#aaa"/><rect width="0.9433962264150944em" height="12.566491189807977em" x="50.943396226415096em" y="17.433508810192023em" fill="#aaa"/><rect width="0.9433962264150944em" height="9.555232788304869em" x="51.88679245283019em" y="20.44476721169513em" fill="#aaa"/><rect width="0.9433962264150944em" height="5.300010813319066em" x="52.83018867924528em" y="24.699989186680934em" fill="#aaa"/><rect width="0.9433962264150944em" height="12.421070468820604em" x="53.77358490566038em" y="17.578929531179398em" fill="#aaa"/><rect width="0.9433962264150944em" height="12.789574915302232em" x="54.716981132075475em" y="17.210425084697768em" fill="#aaa"/><rect width="0.9433962264150944em" height="17.466557333728048em" x="55.660377358490564em" y="12.533442666271952em" fill="#aaa"/><rect width="0.9433962264150944em" height="12.963849460574556em" x="56.60377358490566em" y="17.036150539425442em" fill="#aaa"/><rect width="0.9433962264150944em" height="10.182250812776498em" x="57.54716981132076em" y="19.8177491872235em" fill="#aaa"/><rect width="0.9433962264150944em" height="7.816634279130124em" x="58.49056603773585em" y="22.183365720869876em" fill="#aaa"/><rect width="0.9433962264150944em" height="5.192767209843691em" x="59.43396226415094em" y="24.80723279015631em" fill="#aaa"/><rect width="0.9433962264150944em" height="9.99170419630713em" x="60.37735849056604em" y="20.00829580369287em" fill="#aaa"/><rect width="0.9433962264150944em" height="7.965937538159419em" x="61.320754716981135em" y="22.03406246184058em" fill="#aaa"/><rect width="0.9433962264150944em" height="9.244291569526155em" x="62.264150943396224em" y="20.755708430473845em" fill="#aaa"/><rect width="0.9433962264150944em" height="6.498284805533382em" x="63.20754716981132em" y="23.50171519446662em" fill="#aaa"/><rect width="0.9433962264150944em" height="8.633383541967069em" x="64.15094339622641em" y="21.36661645803293em" fill="#aaa"/><rect width="0.9433962264150944em" height="12.23223636978473em" x="65.09433962264151em" y="17.76776363021527em" fill="#aaa"/><rect width="0.9433962264150944em" height="14.539807259128034em" x="66.0377358490566em" y="15.460192740871966em" fill="#aaa"/><rect width="0.9433962264150944em" height="9.6206339893397em" x="66.9811320754717em" y="20.3793660106603em" fill="#aaa"/><rect width="0.9433962264150944em" height="8.2873168063394em" x="67.9245283018868em" y="21.712683193660602em" fill="#aaa"/><rect width="0.9433962264150944em" height="8.910838009038912em" x="68.86792452830188em" y="21.089161990961088em" fill="#aaa"/><rect width="0.9433962264150944em" height="13.43755332977501em" x="69.81132075471699em" y="16.56244667022499em" fill="#aaa"/><rect width="0.9433962264150944em" height="6.687310789142033em" x="70.75471698113208em" y="23.312689210857968em" fill="#aaa"/><rect width="0.9433962264150944em" height="9.440044610700586em" x="71.69811320754717em" y="20.559955389299414em" fill="#aaa"/><rect width="0.9433962264150944em" height="5.314072021142923em" x="72.64150943396227em" y="24.685927978857077em" fill="#aaa"/><rect width="0.9433962264150944em" height="7.999583240298782em" x="73.58490566037736em" y="22.000416759701217em" fill="#aaa"/><rect width="0.9433962264150944em" height="30em" x="74.52830188679245em" y="0em" fill="#aaa"/><rect width="0.9433962264150944em" height="13.041346281311036em" x="75.47169811320755em" y="16.958653718688964em" fill="#aaa"/><rect width="0.9433962264150944em" height="10.987135731058618em" x="76.41509433962264em" y="19.01286426894138em" fill="#aaa"/><rect width="0.9433962264150944em" height="27.015312377304436em" x="77.35849056603773em" y="2.9846876226955636em" fill="#aaa"/><rect width="0.9433962264150944em" height="8.503633024192476em" x="78.30188679245283em" y="21.496366975807526em" fill="#aaa"/><rect width="0.9433962264150944em" height="9.045235153661727em" x="79.24528301886792em" y="20.95476484633827em" fill="#aaa"/><rect width="0.9433962264150944em" height="17.989026393806686em" x="80.18867924528303em" y="12.010973606193314em" fill="#aaa"/><rect width="0.9433962264150944em" height="13.5759604912375em" x="81.13207547169812em" y="16.424039508762498em" fill="#aaa"/><rect width="0.9433962264150944em" height="9.841158705366873em" x="82.0754716981132em" y="20.158841294633127em" fill="#aaa"/><rect width="0.9433962264150944em" height="9.610736384083221em" x="83.01886792452831em" y="20.38926361591678em" fill="#aaa"/><rect width="0.9433962264150944em" height="10.899961291584935em" x="83.9622641509434em" y="19.100038708415063em" fill="#aaa"/><rect width="0.9433962264150944em" height="6.556311794374187em" x="84.90566037735849em" y="23.44368820562581em" fill="#aaa"/><rect width="0.9433962264150944em" height="15.27628895135392em" x="85.84905660377359em" y="14.72371104864608em" fill="#aaa"/><rect width="0.9433962264150944em" height="13.09230139102209em" x="86.79245283018868em" y="16.90769860897791em" fill="#aaa"/><rect width="0.9433962264150944em" height="13.256608392470884em" x="87.73584905660377em" y="16.743391607529116em" fill="#aaa"/><rect width="0.9433962264150944em" height="11.25900680187098em" x="88.67924528301887em" y="18.74099319812902em" fill="#aaa"/><rect width="0.9433962264150944em" height="10.861499198794139em" x="89.62264150943396em" y="19.13850080120586em" fill="#aaa"/><rect width="0.9433962264150944em" height="8.428477095348272em" x="90.56603773584905em" y="21.57152290465173em" fill="#aaa"/><rect width="0.9433962264150944em" height="10.957316429255085em" x="91.50943396226415em" y="19.042683570744913em" fill="#aaa"/><rect width="0.9433962264150944em" height="6.824362137155679em" x="92.45283018867924em" y="23.175637862844322em" fill="#aaa"/><rect width="0.9433962264150944em" height="4.117116766371225em" x="93.39622641509435em" y="25.882883233628775em" fill="#aaa"/><rect width="0.9433962264150944em" height="3.617244503468747em" x="94.33962264150944em" y="26.382755496531253em" fill="#aaa"/><rect width="0.9433962264150944em" height="5.4779343713690105em" x="95.28301886792453em" y="24.52206562863099em" fill="#aaa"/><rect width="0.9433962264150944em" height="14.994822966634601em" x="96.22641509433963em" y="15.005177033365399em" fill="#aaa"/><rect width="0.9433962264150944em" height="9.895374570346467em" x="97.16981132075472em" y="20.10462542965353em" fill="#aaa"/><rect width="0.9433962264150944em" height="29.192961958130816em" x="98.11320754716981em" y="0.807038041869184em" fill="#aaa"/><rect width="0.9433962264150944em" height="11.655886682523828em" x="99.05660377358491em" y="18.34411331747617em" fill="#aaa"/></svg>