<?xml version="1.0" standalone="no"?>
<svg xmlns:xlink="http://www.w3.org/1999/xlink" xmlns="http://www.w3.org/2000/svg" class="topic-graph" style="width: 100em; height: 30em; text-align: center;"><rect width="0.9433962264150944em" height="0.6458827868183058em" x="0em" y="29.354117213181695em" fill="#aaa"/><rect width="0.9433962264150944em" height="3.004151432877793em" x="0.9433962264150944em" y="26.995848567122206em" fill="#aaa"/><rect width="0.9433962264150944em" height="2.249258146359473em" x="1.8867924528301887em" y="27.750741853640527em" fill="#aaa"/><rect width="0.9433962264150944em" height="4.753519128595257em" x="2.830188679245283em" y="25.246480871404742em" fill="#aaa"/><rect width="0.9433962264150944em" height="2.4776763592325595em" x="3.7735849056603774em" y="27.52232364076744em" fill="#aaa"/><rect width="0.9433962264150944em" height="1.4105815577493186em" x="4.716981132075472em" y="28.589418442250683em" fill="#aaa"/><rect width="0.9433962264150944em" height="6.163323426873179em" x="5.660377358490566em" y="23.836676573126823em" fill="#aaa"/><rect width="0.9433962264150944em" height="8.494062600998438em" x="6.60377358490566em" y="21.50593739900156em" fill="#aaa"/><rect width="0.9433962264150944em" height="3.2258660036912117em" x="7.547169811320755em" y="26.774133996308787em" fill="#aaa"/><rect width="0.9433962264150944em" height="0.8808043704860162em" x="8.49056603773585em" y="29.119195629513985em" fill="#aaa"/><rect width="0.9433962264150944em" height="1.3240346798371605em" x="9.433962264150944em" y="28.675965320162838em" fill="#aaa"/><rect width="0.9433962264150944em" height="8.454715044804058em" x="10.377358490566039em" y="21.545284955195942em" fill="#aaa"/><rect width="0.9433962264150944em" height="1.7511806693265795em" x="11.320754716981131em" y="28.24881933067342em" fill="#aaa"/><rect width="0.9433962264150944em" height="0em" x="12.264150943396226em" y="30em" fill="#aaa"/><rect width="0.9433962264150944em" height="14.533517714352014em" x="13.20754716981132em" y="15.466482285647986em" fill="#aaa"/><rect width="0.9433962264150944em" height="0.18818590287152973em" x="14.150943396226415em" y="29.81181409712847em" fill="#aaa"/><rect width="0.9433962264150944em" height="10.853739854133078em" x="15.09433962264151em" y="19.146260145866922em" fill="#aaa"/><rect width="0.9433962264150944em" height="6.7743268592855em" x="16.037735849056602em" y="23.2256731407145em" fill="#aaa"/><rect width="0.9433962264150944em" height="0.6096249123850204em" x="16.9811320754717em" y="29.39037508761498em" fill="#aaa"/><rect width="0.9433962264150944em" height="0.2363240912502313em" x="17.92452830188679em" y="29.763675908749768em" fill="#aaa"/><rect width="0.9433962264150944em" height="2.250878556447199em" x="18.867924528301888em" y="27.749121443552802em" fill="#aaa"/><rect width="0.9433962264150944em" height="1.581127666806458em" x="19.81132075471698em" y="28.41887233319354em" fill="#aaa"/><rect width="0.9433962264150944em" height="4.735662503158904em" x="20.754716981132077em" y="25.264337496841094em" fill="#aaa"/><rect width="0.9433962264150944em" height="2.9645581774595566em" x="21.69811320754717em" y="27.03544182254044em" fill="#aaa"/><rect width="0.9433962264150944em" height="0.9818065979560439em" x="22.641509433962263em" y="29.018193402043956em" fill="#aaa"/><rect width="0.9433962264150944em" height="0.7720150575117315em" x="23.58490566037736em" y="29.22798494248827em" fill="#aaa"/><rect width="0.9433962264150944em" height="0em" x="24.528301886792452em" y="30em" fill="#aaa"/><rect width="0.9433962264150944em" height="1.5292530043708965em" x="25.471698113207548em" y="28.470746995629103em" fill="#aaa"/><rect width="0.9433962264150944em" height="3.0251358358173124em" x="26.41509433962264em" y="26.974864164182687em" fill="#aaa"/><rect width="0.9433962264150944em" height="2.9775765046542815em" x="27.358490566037737em" y="27.02242349534572em" fill="#aaa"/><rect width="0.9433962264150944em" height="2.65697892834944em" x="28.30188679245283em" y="27.34302107165056em" fill="#aaa"/><rect width="0.9433962264150944em" height="5.531894594572374em" x="29.245283018867926em" y="24.468105405427625em" fill="#aaa"/><rect width="0.9433962264150944em" height="4.930787256814532em" x="30.18867924528302em" y="25.069212743185467em" fill="#aaa"/><rect width="0.9433962264150944em" height="4.307683468273694em" x="31.132075471698112em" y="25.692316531726306em" fill="#aaa"/><rect width="0.9433962264150944em" height="3.7644860045517174em" x="32.075471698113205em" y="26.235513995448283em" fill="#aaa"/><rect width="0.9433962264150944em" height="2.253036629150823em" x="33.0188679245283em" y="27.746963370849176em" fill="#aaa"/><rect width="0.9433962264150944em" height="3.9718860816193353em" x="33.9622641509434em" y="26.028113918380665em" fill="#aaa"/><rect width="0.9433962264150944em" height="1.897254853910235em" x="34.905660377358494em" y="28.102745146089767em" fill="#aaa"/><rect width="0.9433962264150944em" height="2.148079567382828em" x="35.84905660377358em" y="27.85192043261717em" fill="#aaa"/><rect width="0.9433962264150944em" height="1.815712356930906em" x="36.79245283018868em" y="28.184287643069094em" fill="#aaa"/><rect width="0.9433962264150944em" height="4.511464548860401em" x="37.735849056603776em" y="25.488535451139597em" fill="#aaa"/><rect width="0.9433962264150944em" height="30em" x="38.679245283018865em" y="0em" fill="#aaa"/><rect width="0.9433962264150944em" height="2.901070586844294em" x="39.62264150943396em" y="27.098929413155705em" fill="#aaa"/><rect width="0.9433962264150944em" height="2.8887016733022706em" x="40.56603773584906em" y="27.111298326697728em" fill="#aaa"/><rect width="0.9433962264150944em" height="3.3930159123313737em" x="41.509433962264154em" y="26.606984087668625em" fill="#aaa"/><rect width="0.9433962264150944em" height="2.90298195106962em" x="42.45283018867924em" y="27.09701804893038em" fill="#aaa"/><rect width="0.9433962264150944em" height="3.244584753520832em" x="43.39622641509434em" y="26.755415246479167em" fill="#aaa"/><rect width="0.9433962264150944em" height="3.747072016280964em" x="44.339622641509436em" y="26.252927983719037em" fill="#aaa"/><rect width="0.9433962264150944em" height="3.96419108956239em" x="45.283018867924525em" y="26.03580891043761em" fill="#aaa"/><rect width="0.9433962264150944em" height="6.35049966339364em" x="46.22641509433962em" y="23.64950033660636em" fill="#aaa"/><rect width="0.9433962264150944em" height="5.808345224176809em" x="47.16981132075472em" y="24.191654775823192em" fill="#aaa"/><rect width="0.9433962264150944em" height="6.787975132617092em" x="48.113207547169814em" y="23.212024867382908em" fill="#aaa"/><rect width="0.9433962264150944em" height="3.6107511152641045em" x="49.056603773584904em" y="26.389248884735895em" fill="#aaa"/><rect width="0.9433962264150944em" height="1.8246125721693172em" x="50em" y="28.17538742783068em" fill="#aaa"/><rect width="0.9433962264150944em" height="2.6521462035625434em" x="50.943396226415096em" y="27.347853796437455em" fill="#aaa"/><rect width="0.9433962264150944em" height="5.774491522953669em" x="51.88679245283019em" y="24.225508477046333em" fill="#aaa"/><rect width="0.9433962264150944em" height="1.438862783510557em" x="52.83018867924528em" y="28.561137216489442em" fill="#aaa"/><rect width="0.9433962264150944em" height="6.128331007975162em" x="53.77358490566038em" y="23.871668992024837em" fill="#aaa"/><rect width="0.9433962264150944em" height="2.4509530499140846em" x="54.716981132075475em" y="27.549046950085916em" fill="#aaa"/><rect width="0.9433962264150944em" height="4.494842619753185em" x="55.660377358490564em" y="25.505157380246814em" fill="#aaa"/><rect width="0.9433962264150944em" height="8.314371618452713em" x="56.60377358490566em" y="21.68562838154729em" fill="#aaa"/><rect width="0.9433962264150944em" height="7.949310896640174em" x="57.54716981132076em" y="22.050689103359826em" fill="#aaa"/><rect width="0.9433962264150944em" height="3.1374464967810756em" x="58.49056603773585em" y="26.862553503218926em" fill="#aaa"/><rect width="0.9433962264150944em" height="4.589446858336865em" x="59.43396226415094em" y="25.410553141663137em" fill="#aaa"/><rect width="0.9433962264150944em" height="5.6108912033724785em" x="60.37735849056604em" y="24.38910879662752em" fill="#aaa"/><rect width="0.9433962264150944em" height="5.254644064362199em" x="61.320754716981135em" y="24.7453559356378em" fill="#aaa"/><rect width="0.9433962264150944em" height="3.0037117436521634em" x="62.264150943396224em" y="26.996288256347835em" fill="#aaa"/><rect width="0.9433962264150944em" height="8.003749891889452em" x="63.20754716981132em" y="21.996250108110548em" fill="#aaa"/><rect width="0.9433962264150944em" height="9.442685629450946em" x="64.15094339622641em" y="20.557314370549054em" fill="#aaa"/><rect width="0.9433962264150944em" height="6.477780812054792em" x="65.09433962264151em" y="23.522219187945208em" fill="#aaa"/><rect width="0.9433962264150944em" height="5.479554151386664em" x="66.0377358490566em" y="24.520445848613335em" fill="#aaa"/><rect width="0.9433962264150944em" height="6.819015477666604em" x="66.9811320754717em" y="23.180984522333397em" fill="#aaa"/><rect width="0.9433962264150944em" height="5.7247039115630605em" x="67.9245283018868em" y="24.27529608843694em" fill="#aaa"/><rect width="0.9433962264150944em" height="4.213711562282371em" x="68.86792452830188em" y="25.78628843771763em" fill="#aaa"/><rect width="0.9433962264150944em" height="5.361108175061422em" x="69.81132075471699em" y="24.63889182493858em" fill="#aaa"/><rect width="0.9433962264150944em" height="6.956769434516142em" x="70.75471698113208em" y="23.04323056548386em" fill="#aaa"/><rect width="0.9433962264150944em" height="14.45878352894085em" x="71.69811320754717em" y="15.54121647105915em" fill="#aaa"/><rect width="0.9433962264150944em" height="5.720310357207704em" x="72.64150943396227em" y="24.279689642792295em" fill="#aaa"/><rect width="0.9433962264150944em" height="3.805693191642145em" x="73.58490566037736em" y="26.194306808357855em" fill="#aaa"/><rect width="0.9433962264150944em" height="3.1515565503390435em" x="74.52830188679245em" y="26.848443449660955em" fill="#aaa"/><rect width="0.9433962264150944em" height="8.906164228680154em" x="75.47169811320755em" y="21.093835771319846em" fill="#aaa"/><rect width="0.9433962264150944em" height="6.602359399373979em" x="76.41509433962264em" y="23.39764060062602em" fill="#aaa"/><rect width="0.9433962264150944em" height="4.89777311187288em" x="77.35849056603773em" y="25.10222688812712em" fill="#aaa"/><rect width="0.9433962264150944em" height="5.926807003567187em" x="78.30188679245283em" y="24.073192996432812em" fill="#aaa"/><rect width="0.9433962264150944em" height="5.022847136626404em" x="79.24528301886792em" y="24.977152863373597em" fill="#aaa"/><rect width="0.9433962264150944em" height="6.1446143910504505em" x="80.18867924528303em" y="23.85538560894955em" fill="#aaa"/><rect width="0.9433962264150944em" height="4.8174479485922745em" x="81.13207547169812em" y="25.182552051407725em" fill="#aaa"/><rect width="0.9433962264150944em" height="4.900060059117682em" x="82.0754716981132em" y="25.09993994088232em" fill="#aaa"/><rect width="0.9433962264150944em" height="23.3791627533053em" x="83.01886792452831em" y="6.620837246694698em" fill="#aaa"/><rect width="0.9433962264150944em" height="6.519750785328406em" x="83.9622641509434em" y="23.480249214671595em" fill="#aaa"/><rect width="0.9433962264150944em" height="2.7312712862362036em" x="84.90566037735849em" y="27.268728713763796em" fill="#aaa"/><rect width="0.9433962264150944em" height="7.357474504336012em" x="85.84905660377359em" y="22.64252549566399em" fill="#aaa"/><rect width="0.9433962264150944em" height="4.751430792743114em" x="86.79245283018868em" y="25.248569207256885em" fill="#aaa"/><rect width="0.9433962264150944em" height="3.8749408590398047em" x="87.73584905660377em" y="26.125059140960197em" fill="#aaa"/><rect width="0.9433962264150944em" height="4.6976246997064655em" x="88.67924528301887em" y="25.302375300293534em" fill="#aaa"/><rect width="0.9433962264150944em" height="4.32244586509363em" x="89.62264150943396em" y="25.67755413490637em" fill="#aaa"/><rect width="0.9433962264150944em" height="2.0414691692611413em" x="90.56603773584905em" y="27.95853083073886em" fill="#aaa"/><rect width="0.9433962264150944em" height="3.7011392656760784em" x="91.50943396226415em" y="26.29886073432392em" fill="#aaa"/><rect width="0.9433962264150944em" height="9.421782381499634em" x="92.45283018867924em" y="20.578217618500368em" fill="#aaa"/><rect width="0.9433962264150944em" height="4.17427095026693em" x="93.39622641509435em" y="25.82572904973307em" fill="#aaa"/><rect width="0.9433962264150944em" height="7.26823774696711em" x="94.33962264150944em" y="22.73176225303289em" fill="#aaa"/><rect width="0.9433962264150944em" height="4.632628314227874em" x="95.28301886792453em" y="25.367371685772127em" fill="#aaa"/><rect width="0.9433962264150944em" height="10.351843754600106em" x="96.22641509433963em" y="19.648156245399896em" fill="#aaa"/><rect width="0.9433962264150944em" height="13.425298043291015em" x="97.16981132075472em" y="16.574701956708985em" fill="#aaa"/><rect width="0.9433962264150944em" height="3.7102172717563584em" x="98.11320754716981em" y="26.28978272824364em" fill="#aaa"/><rect width="0.9433962264150944em" height="7.6576787179334485em" x="99.05660377358491em" y="22.34232128206655em" fill="#aaa"/></svg>