<?xml version="1.0" standalone="no"?>
<svg xmlns:xlink="http://www.w3.org/1999/xlink" xmlns="http://www.w3.org/2000/svg" class="topic-graph" style="width: 100em; height: 30em; text-align: center;"><rect width="0.9433962264150944em" height="0.0412395455015476em" x="0em" y="29.958760454498453em" fill="#aaa"/><rect width="0.9433962264150944em" height="0.09413548634457748em" x="0.9433962264150944em" y="29.905864513655423em" fill="#aaa"/><rect width="0.9433962264150944em" height="0.23706568721783847em" x="1.8867924528301887em" y="29.76293431278216em" fill="#aaa"/><rect width="0.9433962264150944em" height="0.05782017949026455em" x="2.830188679245283em" y="29.942179820509736em" fill="#aaa"/><rect width="0.9433962264150944em" height="0.13177529557819365em" x="3.7735849056603774em" y="29.868224704421806em" fill="#aaa"/><rect width="0.9433962264150944em" height="0.011461534299091735em" x="4.716981132075472em" y="29.98853846570091em" fill="#aaa"/><rect width="0.9433962264150944em" height="2.2314502285619424em" x="5.660377358490566em" y="27.768549771438057em" fill="#aaa"/><rect width="0.9433962264150944em" height="0.006371283289783734em" x="6.60377358490566em" y="29.993628716710216em" fill="#aaa"/><rect width="0.9433962264150944em" height="0.23130727364816864em" x="7.547169811320755em" y="29.76869272635183em" fill="#aaa"/><rect width="0.9433962264150944em" height="0.7069197929458046em" x="8.49056603773585em" y="29.293080207054196em" fill="#aaa"/><rect width="0.9433962264150944em" height="0.1151376437827569em" x="9.433962264150944em" y="29.884862356217244em" fill="#aaa"/><rect width="0.9433962264150944em" height="0.6620107493935345em" x="10.377358490566039em" y="29.337989250606466em" fill="#aaa"/><rect width="0.9433962264150944em" height="1.7827500763517459em" x="11.320754716981131em" y="28.217249923648254em" fill="#aaa"/><rect width="0.9433962264150944em" height="0em" x="12.264150943396226em" y="30em" fill="#aaa"/><rect width="0.9433962264150944em" height="0.6200259238069986em" x="13.20754716981132em" y="29.379974076193em" fill="#aaa"/><rect width="0.9433962264150944em" height="1.1210728258924887em" x="14.150943396226415em" y="28.87892717410751em" fill="#aaa"/><rect width="0.9433962264150944em" height="0.3306825736721645em" x="15.09433962264151em" y="29.669317426327837em" fill="#aaa"/><rect width="0.9433962264150944em" height="9.714821798698823em" x="16.037735849056602em" y="20.28517820130118em" fill="#aaa"/><rect width="0.9433962264150944em" height="1.5020801396149672em" x="16.9811320754717em" y="28.497919860385032em" fill="#aaa"/><rect width="0.9433962264150944em" height="1.2805467777971562em" x="17.92452830188679em" y="28.719453222202844em" fill="#aaa"/><rect width="0.9433962264150944em" height="0.23869624326614067em" x="18.867924528301888em" y="29.76130375673386em" fill="#aaa"/><rect width="0.9433962264150944em" height="0.8652073772946458em" x="19.81132075471698em" y="29.134792622705355em" fill="#aaa"/><rect width="0.9433962264150944em" height="0.28523780959210304em" x="20.754716981132077em" y="29.714762190407896em" fill="#aaa"/><rect width="0.9433962264150944em" height="0.47097185902327005em" x="21.69811320754717em" y="29.52902814097673em" fill="#aaa"/><rect width="0.9433962264150944em" height="0.07371359754747944em" x="22.641509433962263em" y="29.926286402452522em" fill="#aaa"/><rect width="0.9433962264150944em" height="0.27287827520961044em" x="23.58490566037736em" y="29.72712172479039em" fill="#aaa"/><rect width="0.9433962264150944em" height="0em" x="24.528301886792452em" y="30em" fill="#aaa"/><rect width="0.9433962264150944em" height="6.893909721849424em" x="25.471698113207548em" y="23.106090278150575em" fill="#aaa"/><rect width="0.9433962264150944em" height="0.3239853148034991em" x="26.41509433962264em" y="29.676014685196503em" fill="#aaa"/><rect width="0.9433962264150944em" height="0.2970139351409973em" x="27.358490566037737em" y="29.702986064859005em" fill="#aaa"/><rect width="0.9433962264150944em" height="0.2915799316915388em" x="28.30188679245283em" y="29.70842006830846em" fill="#aaa"/><rect width="0.9433962264150944em" height="3.217181113619573em" x="29.245283018867926em" y="26.782818886380426em" fill="#aaa"/><rect width="0.9433962264150944em" height="0.9663255692756227em" x="30.18867924528302em" y="29.03367443072438em" fill="#aaa"/><rect width="0.9433962264150944em" height="0.920525610606699em" x="31.132075471698112em" y="29.0794743893933em" fill="#aaa"/><rect width="0.9433962264150944em" height="1.3111688001340083em" x="32.075471698113205em" y="28.68883119986599em" fill="#aaa"/><rect width="0.9433962264150944em" height="3.121157532952308em" x="33.0188679245283em" y="26.878842467047694em" fill="#aaa"/><rect width="0.9433962264150944em" height="1.2809901128279142em" x="33.9622641509434em" y="28.719009887172085em" fill="#aaa"/><rect width="0.9433962264150944em" height="0.6399103775375761em" x="34.905660377358494em" y="29.360089622462425em" fill="#aaa"/><rect width="0.9433962264150944em" height="0.7169413915547995em" x="35.84905660377358em" y="29.283058608445202em" fill="#aaa"/><rect width="0.9433962264150944em" height="0.4696432498397951em" x="36.79245283018868em" y="29.530356750160205em" fill="#aaa"/><rect width="0.9433962264150944em" height="1.3067213991784947em" x="37.735849056603776em" y="28.693278600821504em" fill="#aaa"/><rect width="0.9433962264150944em" height="3.0923199991099604em" x="38.679245283018865em" y="26.90768000089004em" fill="#aaa"/><rect width="0.9433962264150944em" height="0.34726465173611065em" x="39.62264150943396em" y="29.65273534826389em" fill="#aaa"/><rect width="0.9433962264150944em" height="0.3775639606789678em" x="40.56603773584906em" y="29.62243603932103em" fill="#aaa"/><rect width="0.9433962264150944em" height="0.353009187618259em" x="41.509433962264154em" y="29.64699081238174em" fill="#aaa"/><rect width="0.9433962264150944em" height="0.16181610468607724em" x="42.45283018867924em" y="29.83818389531392em" fill="#aaa"/><rect width="0.9433962264150944em" height="0.2079678404520953em" x="43.39622641509434em" y="29.792032159547905em" fill="#aaa"/><rect width="0.9433962264150944em" height="0.2532985325790031em" x="44.339622641509436em" y="29.746701467420998em" fill="#aaa"/><rect width="0.9433962264150944em" height="0.3468524144684805em" x="45.283018867924525em" y="29.65314758553152em" fill="#aaa"/><rect width="0.9433962264150944em" height="0.10792330078932573em" x="46.22641509433962em" y="29.892076699210673em" fill="#aaa"/><rect width="0.9433962264150944em" height="0.5548943701492549em" x="47.16981132075472em" y="29.445105629850744em" fill="#aaa"/><rect width="0.9433962264150944em" height="2.3303573525670536em" x="48.113207547169814em" y="27.669642647432948em" fill="#aaa"/><rect width="0.9433962264150944em" height="0.26499966604736025em" x="49.056603773584904em" y="29.73500033395264em" fill="#aaa"/><rect width="0.9433962264150944em" height="5.539629475092333em" x="50em" y="24.460370524907667em" fill="#aaa"/><rect width="0.9433962264150944em" height="30em" x="50.943396226415096em" y="0em" fill="#aaa"/><rect width="0.9433962264150944em" height="0.3530286645956497em" x="51.88679245283019em" y="29.646971335404352em" fill="#aaa"/><rect width="0.9433962264150944em" height="3.2189077394374577em" x="52.83018867924528em" y="26.78109226056254em" fill="#aaa"/><rect width="0.9433962264150944em" height="1.881499764404258em" x="53.77358490566038em" y="28.118500235595743em" fill="#aaa"/><rect width="0.9433962264150944em" height="0.5909120104488312em" x="54.716981132075475em" y="29.409087989551168em" fill="#aaa"/><rect width="0.9433962264150944em" height="0.258693615018445em" x="55.660377358490564em" y="29.741306384981556em" fill="#aaa"/><rect width="0.9433962264150944em" height="0.4471945515348638em" x="56.60377358490566em" y="29.552805448465136em" fill="#aaa"/><rect width="0.9433962264150944em" height="0.3814069441729415em" x="57.54716981132076em" y="29.61859305582706em" fill="#aaa"/><rect width="0.9433962264150944em" height="0.6499922428112935em" x="58.49056603773585em" y="29.350007757188706em" fill="#aaa"/><rect width="0.9433962264150944em" height="0.6069105467667849em" x="59.43396226415094em" y="29.393089453233216em" fill="#aaa"/><rect width="0.9433962264150944em" height="0.1709745842854998em" x="60.37735849056604em" y="29.8290254157145em" fill="#aaa"/><rect width="0.9433962264150944em" height="2.5219984242225637em" x="61.320754716981135em" y="27.478001575777437em" fill="#aaa"/><rect width="0.9433962264150944em" height="2.365585662126632em" x="62.264150943396224em" y="27.634414337873366em" fill="#aaa"/><rect width="0.9433962264150944em" height="2.1747407346899066em" x="63.20754716981132em" y="27.825259265310095em" fill="#aaa"/><rect width="0.9433962264150944em" height="0.6534891331531231em" x="64.15094339622641em" y="29.346510866846877em" fill="#aaa"/><rect width="0.9433962264150944em" height="0.837262535409977em" x="65.09433962264151em" y="29.162737464590023em" fill="#aaa"/><rect width="0.9433962264150944em" height="1.584501294055303em" x="66.0377358490566em" y="28.415498705944696em" fill="#aaa"/><rect width="0.9433962264150944em" height="1.1100743453140263em" x="66.9811320754717em" y="28.889925654685975em" fill="#aaa"/><rect width="0.9433962264150944em" height="0.5349072822488584em" x="67.9245283018868em" y="29.46509271775114em" fill="#aaa"/><rect width="0.9433962264150944em" height="0.6295729679130101em" x="68.86792452830188em" y="29.37042703208699em" fill="#aaa"/><rect width="0.9433962264150944em" height="1.700458326361605em" x="69.81132075471699em" y="28.299541673638394em" fill="#aaa"/><rect width="0.9433962264150944em" height="0.839810175778056em" x="70.75471698113208em" y="29.160189824221945em" fill="#aaa"/><rect width="0.9433962264150944em" height="0.702174990808693em" x="71.69811320754717em" y="29.297825009191307em" fill="#aaa"/><rect width="0.9433962264150944em" height="0.9898269172219736em" x="72.64150943396227em" y="29.010173082778028em" fill="#aaa"/><rect width="0.9433962264150944em" height="0.458240473895996em" x="73.58490566037736em" y="29.541759526104006em" fill="#aaa"/><rect width="0.9433962264150944em" height="0.17129168528033928em" x="74.52830188679245em" y="29.82870831471966em" fill="#aaa"/><rect width="0.9433962264150944em" height="0.44932801696046243em" x="75.47169811320755em" y="29.55067198303954em" fill="#aaa"/><rect width="0.9433962264150944em" height="0.225579828491288em" x="76.41509433962264em" y="29.774420171508712em" fill="#aaa"/><rect width="0.9433962264150944em" height="1.3986043732443496em" x="77.35849056603773em" y="28.60139562675565em" fill="#aaa"/><rect width="0.9433962264150944em" height="0.8828415236607324em" x="78.30188679245283em" y="29.117158476339267em" fill="#aaa"/><rect width="0.9433962264150944em" height="0.3136886510832509em" x="79.24528301886792em" y="29.68631134891675em" fill="#aaa"/><rect width="0.9433962264150944em" height="0.3096865525444599em" x="80.18867924528303em" y="29.69031344745554em" fill="#aaa"/><rect width="0.9433962264150944em" height="0.6107461055688309em" x="81.13207547169812em" y="29.389253894431167em" fill="#aaa"/><rect width="0.9433962264150944em" height="0.30345780490813773em" x="82.0754716981132em" y="29.69654219509186em" fill="#aaa"/><rect width="0.9433962264150944em" height="0.2620702968310123em" x="83.01886792452831em" y="29.737929703168987em" fill="#aaa"/><rect width="0.9433962264150944em" height="0.41702221212603274em" x="83.9622641509434em" y="29.58297778787397em" fill="#aaa"/><rect width="0.9433962264150944em" height="0.3067628261406562em" x="84.90566037735849em" y="29.693237173859345em" fill="#aaa"/><rect width="0.9433962264150944em" height="1.8609628155004754em" x="85.84905660377359em" y="28.139037184499525em" fill="#aaa"/><rect width="0.9433962264150944em" height="0.6440024498045185em" x="86.79245283018868em" y="29.355997550195482em" fill="#aaa"/><rect width="0.9433962264150944em" height="0.7111701824639003em" x="87.73584905660377em" y="29.2888298175361em" fill="#aaa"/><rect width="0.9433962264150944em" height="0.5317573700395264em" x="88.67924528301887em" y="29.468242629960475em" fill="#aaa"/><rect width="0.9433962264150944em" height="0.6754375680152458em" x="89.62264150943396em" y="29.324562431984756em" fill="#aaa"/><rect width="0.9433962264150944em" height="0.12025871498705284em" x="90.56603773584905em" y="29.879741285012948em" fill="#aaa"/><rect width="0.9433962264150944em" height="0.29033838331463957em" x="91.50943396226415em" y="29.70966161668536em" fill="#aaa"/><rect width="0.9433962264150944em" height="0.4289863005261919em" x="92.45283018867924em" y="29.57101369947381em" fill="#aaa"/><rect width="0.9433962264150944em" height="0.44065920550112286em" x="93.39622641509435em" y="29.559340794498876em" fill="#aaa"/><rect width="0.9433962264150944em" height="0.22117030581251787em" x="94.33962264150944em" y="29.778829694187483em" fill="#aaa"/><rect width="0.9433962264150944em" height="0.25778154038542944em" x="95.28301886792453em" y="29.74221845961457em" fill="#aaa"/><rect width="0.9433962264150944em" height="0.16720516863929247em" x="96.22641509433963em" y="29.832794831360708em" fill="#aaa"/><rect width="0.9433962264150944em" height="0.3136258846857643em" x="97.16981132075472em" y="29.686374115314237em" fill="#aaa"/><rect width="0.9433962264150944em" height="0.9035057944528014em" x="98.11320754716981em" y="29.0964942055472em" fill="#aaa"/><rect width="0.9433962264150944em" height="0.6535775019973085em" x="99.05660377358491em" y="29.346422498002692em" fill="#aaa"/></svg>