<?xml version="1.0" standalone="no"?>
<svg xmlns:xlink="http://www.w3.org/1999/xlink" xmlns="http://www.w3.org/2000/svg" class="topic-graph" style="width: 100em; height: 30em; text-align: center;"><rect width="0.9433962264150944em" height="30em" x="0em" y="0em" fill="#aaa"/><rect width="0.9433962264150944em" height="20.039547531431865em" x="0.9433962264150944em" y="9.960452468568135em" fill="#aaa"/><rect width="0.9433962264150944em" height="10.707182480508669em" x="1.8867924528301887em" y="19.29281751949133em" fill="#aaa"/><rect width="0.9433962264150944em" height="14.16690881409997em" x="2.830188679245283em" y="15.83309118590003em" fill="#aaa"/><rect width="0.9433962264150944em" height="15.7138917901874em" x="3.7735849056603774em" y="14.2861082098126em" fill="#aaa"/><rect width="0.9433962264150944em" height="10.10272747150417em" x="4.716981132075472em" y="19.89727252849583em" fill="#aaa"/><rect width="0.9433962264150944em" height="7.299170715688em" x="5.660377358490566em" y="22.700829284312em" fill="#aaa"/><rect width="0.9433962264150944em" height="8.790354181842572em" x="6.60377358490566em" y="21.209645818157426em" fill="#aaa"/><rect width="0.9433962264150944em" height="11.315684721649651em" x="7.547169811320755em" y="18.684315278350347em" fill="#aaa"/><rect width="0.9433962264150944em" height="13.127500986756523em" x="8.49056603773585em" y="16.872499013243477em" fill="#aaa"/><rect width="0.9433962264150944em" height="20.12113070047473em" x="9.433962264150944em" y="9.87886929952527em" fill="#aaa"/><rect width="0.9433962264150944em" height="19.132300803833537em" x="10.377358490566039em" y="10.867699196166463em" fill="#aaa"/><rect width="0.9433962264150944em" height="24.540436866411163em" x="11.320754716981131em" y="5.459563133588837em" fill="#aaa"/><rect width="0.9433962264150944em" height="0em" x="12.264150943396226em" y="30em" fill="#aaa"/><rect width="0.9433962264150944em" height="10.212754809575515em" x="13.20754716981132em" y="19.787245190424485em" fill="#aaa"/><rect width="0.9433962264150944em" height="12.893836413594952em" x="14.150943396226415em" y="17.106163586405046em" fill="#aaa"/><rect width="0.9433962264150944em" height="15.3953622684528em" x="15.09433962264151em" y="14.6046377315472em" fill="#aaa"/><rect width="0.9433962264150944em" height="15.749826261133304em" x="16.037735849056602em" y="14.250173738866696em" fill="#aaa"/><rect width="0.9433962264150944em" height="12.279590457409986em" x="16.9811320754717em" y="17.720409542590012em" fill="#aaa"/><rect width="0.9433962264150944em" height="8.863910913381828em" x="17.92452830188679em" y="21.13608908661817em" fill="#aaa"/><rect width="0.9433962264150944em" height="10.826910153355357em" x="18.867924528301888em" y="19.173089846644643em" fill="#aaa"/><rect width="0.9433962264150944em" height="12.515164582202663em" x="19.81132075471698em" y="17.484835417797335em" fill="#aaa"/><rect width="0.9433962264150944em" height="8.292628672097251em" x="20.754716981132077em" y="21.70737132790275em" fill="#aaa"/><rect width="0.9433962264150944em" height="9.252971106517922em" x="21.69811320754717em" y="20.747028893482078em" fill="#aaa"/><rect width="0.9433962264150944em" height="10.69248580023875em" x="22.641509433962263em" y="19.30751419976125em" fill="#aaa"/><rect width="0.9433962264150944em" height="16.298179278662573em" x="23.58490566037736em" y="13.701820721337427em" fill="#aaa"/><rect width="0.9433962264150944em" height="0em" x="24.528301886792452em" y="30em" fill="#aaa"/><rect width="0.9433962264150944em" height="10.71864412609561em" x="25.471698113207548em" y="19.28135587390439em" fill="#aaa"/><rect width="0.9433962264150944em" height="9.152883915766667em" x="26.41509433962264em" y="20.847116084233335em" fill="#aaa"/><rect width="0.9433962264150944em" height="11.226878206982176em" x="27.358490566037737em" y="18.773121793017822em" fill="#aaa"/><rect width="0.9433962264150944em" height="12.686233670955959em" x="28.30188679245283em" y="17.313766329044043em" fill="#aaa"/><rect width="0.9433962264150944em" height="12.692267041315603em" x="29.245283018867926em" y="17.307732958684397em" fill="#aaa"/><rect width="0.9433962264150944em" height="12.553601036811205em" x="30.18867924528302em" y="17.446398963188795em" fill="#aaa"/><rect width="0.9433962264150944em" height="17.084851221774993em" x="31.132075471698112em" y="12.915148778225007em" fill="#aaa"/><rect width="0.9433962264150944em" height="14.8303806657582em" x="32.075471698113205em" y="15.1696193342418em" fill="#aaa"/><rect width="0.9433962264150944em" height="12.49572130931403em" x="33.0188679245283em" y="17.50427869068597em" fill="#aaa"/><rect width="0.9433962264150944em" height="11.30696803637113em" x="33.9622641509434em" y="18.69303196362887em" fill="#aaa"/><rect width="0.9433962264150944em" height="12.372959337431348em" x="34.905660377358494em" y="17.627040662568653em" fill="#aaa"/><rect width="0.9433962264150944em" height="12.878711807502388em" x="35.84905660377358em" y="17.121288192497612em" fill="#aaa"/><rect width="0.9433962264150944em" height="7.424318706980641em" x="36.79245283018868em" y="22.575681293019358em" fill="#aaa"/><rect width="0.9433962264150944em" height="6.232653472267144em" x="37.735849056603776em" y="23.767346527732855em" fill="#aaa"/><rect width="0.9433962264150944em" height="7.852968102333994em" x="38.679245283018865em" y="22.147031897666004em" fill="#aaa"/><rect width="0.9433962264150944em" height="8.111813940458555em" x="39.62264150943396em" y="21.888186059541447em" fill="#aaa"/><rect width="0.9433962264150944em" height="5.376672008864909em" x="40.56603773584906em" y="24.623327991135092em" fill="#aaa"/><rect width="0.9433962264150944em" height="4.779182612012991em" x="41.509433962264154em" y="25.220817387987008em" fill="#aaa"/><rect width="0.9433962264150944em" height="5.106006288767277em" x="42.45283018867924em" y="24.893993711232724em" fill="#aaa"/><rect width="0.9433962264150944em" height="5.5343323861051825em" x="43.39622641509434em" y="24.465667613894816em" fill="#aaa"/><rect width="0.9433962264150944em" height="5.234465087135074em" x="44.339622641509436em" y="24.765534912864926em" fill="#aaa"/><rect width="0.9433962264150944em" height="4.499030235126953em" x="45.283018867924525em" y="25.500969764873048em" fill="#aaa"/><rect width="0.9433962264150944em" height="6.36249082442006em" x="46.22641509433962em" y="23.63750917557994em" fill="#aaa"/><rect width="0.9433962264150944em" height="5.119921124598476em" x="47.16981132075472em" y="24.880078875401523em" fill="#aaa"/><rect width="0.9433962264150944em" height="4.7113575388039015em" x="48.113207547169814em" y="25.288642461196098em" fill="#aaa"/><rect width="0.9433962264150944em" height="2.2342646722954513em" x="49.056603773584904em" y="27.765735327704547em" fill="#aaa"/><rect width="0.9433962264150944em" height="3.5216639917427504em" x="50em" y="26.47833600825725em" fill="#aaa"/><rect width="0.9433962264150944em" height="3.2537371056861em" x="50.943396226415096em" y="26.7462628943139em" fill="#aaa"/><rect width="0.9433962264150944em" height="3.6228047738902536em" x="51.88679245283019em" y="26.377195226109748em" fill="#aaa"/><rect width="0.9433962264150944em" height="3.363145831213937em" x="52.83018867924528em" y="26.636854168786062em" fill="#aaa"/><rect width="0.9433962264150944em" height="2.8067613484698204em" x="53.77358490566038em" y="27.19323865153018em" fill="#aaa"/><rect width="0.9433962264150944em" height="2.2616010846546644em" x="54.716981132075475em" y="27.738398915345336em" fill="#aaa"/><rect width="0.9433962264150944em" height="2.1607254534292992em" x="55.660377358490564em" y="27.8392745465707em" fill="#aaa"/><rect width="0.9433962264150944em" height="1.471893354497956em" x="56.60377358490566em" y="28.528106645502042em" fill="#aaa"/><rect width="0.9433962264150944em" height="1.2026897616320729em" x="57.54716981132076em" y="28.797310238367928em" fill="#aaa"/><rect width="0.9433962264150944em" height="1.4619054073391848em" x="58.49056603773585em" y="28.538094592660816em" fill="#aaa"/><rect width="0.9433962264150944em" height="1.1985276283547714em" x="59.43396226415094em" y="28.80147237164523em" fill="#aaa"/><rect width="0.9433962264150944em" height="2.0837014827678955em" x="60.37735849056604em" y="27.916298517232104em" fill="#aaa"/><rect width="0.9433962264150944em" height="1.6445144122451043em" x="61.320754716981135em" y="28.355485587754895em" fill="#aaa"/><rect width="0.9433962264150944em" height="1.6483091714152849em" x="62.264150943396224em" y="28.351690828584715em" fill="#aaa"/><rect width="0.9433962264150944em" height="1.4096519947116686em" x="63.20754716981132em" y="28.59034800528833em" fill="#aaa"/><rect width="0.9433962264150944em" height="0.9934187949858496em" x="64.15094339622641em" y="29.00658120501415em" fill="#aaa"/><rect width="0.9433962264150944em" height="0.8491766133887861em" x="65.09433962264151em" y="29.150823386611215em" fill="#aaa"/><rect width="0.9433962264150944em" height="1.3518411731045021em" x="66.0377358490566em" y="28.648158826895497em" fill="#aaa"/><rect width="0.9433962264150944em" height="1.2002025342354474em" x="66.9811320754717em" y="28.799797465764552em" fill="#aaa"/><rect width="0.9433962264150944em" height="0.8696395920950272em" x="67.9245283018868em" y="29.130360407904973em" fill="#aaa"/><rect width="0.9433962264150944em" height="0.6836350443138326em" x="68.86792452830188em" y="29.31636495568617em" fill="#aaa"/><rect width="0.9433962264150944em" height="1.144019790248969em" x="69.81132075471699em" y="28.85598020975103em" fill="#aaa"/><rect width="0.9433962264150944em" height="1.005594961222539em" x="70.75471698113208em" y="28.99440503877746em" fill="#aaa"/><rect width="0.9433962264150944em" height="0.7700798561712165em" x="71.69811320754717em" y="29.229920143828785em" fill="#aaa"/><rect width="0.9433962264150944em" height="0.7670274764656426em" x="72.64150943396227em" y="29.232972523534357em" fill="#aaa"/><rect width="0.9433962264150944em" height="0.6068405858422479em" x="73.58490566037736em" y="29.39315941415775em" fill="#aaa"/><rect width="0.9433962264150944em" height="2.2462183882082347em" x="74.52830188679245em" y="27.753781611791766em" fill="#aaa"/><rect width="0.9433962264150944em" height="0.7190844500414004em" x="75.47169811320755em" y="29.2809155499586em" fill="#aaa"/><rect width="0.9433962264150944em" height="0.8313283684826638em" x="76.41509433962264em" y="29.168671631517338em" fill="#aaa"/><rect width="0.9433962264150944em" height="0.9011300732500347em" x="77.35849056603773em" y="29.098869926749966em" fill="#aaa"/><rect width="0.9433962264150944em" height="0.9345219563018209em" x="78.30188679245283em" y="29.065478043698178em" fill="#aaa"/><rect width="0.9433962264150944em" height="0.5809696504169727em" x="79.24528301886792em" y="29.41903034958303em" fill="#aaa"/><rect width="0.9433962264150944em" height="0.7599715088473283em" x="80.18867924528303em" y="29.24002849115267em" fill="#aaa"/><rect width="0.9433962264150944em" height="0.5768267185704933em" x="81.13207547169812em" y="29.423173281429506em" fill="#aaa"/><rect width="0.9433962264150944em" height="1.046274107953649em" x="82.0754716981132em" y="28.95372589204635em" fill="#aaa"/><rect width="0.9433962264150944em" height="0.616246378166856em" x="83.01886792452831em" y="29.383753621833144em" fill="#aaa"/><rect width="0.9433962264150944em" height="0.8925739242815197em" x="83.9622641509434em" y="29.10742607571848em" fill="#aaa"/><rect width="0.9433962264150944em" height="1.0794201775069445em" x="84.90566037735849em" y="28.920579822493057em" fill="#aaa"/><rect width="0.9433962264150944em" height="0.7163423801421832em" x="85.84905660377359em" y="29.283657619857816em" fill="#aaa"/><rect width="0.9433962264150944em" height="0.8328753345795638em" x="86.79245283018868em" y="29.167124665420435em" fill="#aaa"/><rect width="0.9433962264150944em" height="0.5755366706759539em" x="87.73584905660377em" y="29.424463329324045em" fill="#aaa"/><rect width="0.9433962264150944em" height="0.6617820617528084em" x="88.67924528301887em" y="29.33821793824719em" fill="#aaa"/><rect width="0.9433962264150944em" height="0.6901188857820877em" x="89.62264150943396em" y="29.309881114217912em" fill="#aaa"/><rect width="0.9433962264150944em" height="0.5387378405983585em" x="90.56603773584905em" y="29.46126215940164em" fill="#aaa"/><rect width="0.9433962264150944em" height="0.7226789596685004em" x="91.50943396226415em" y="29.2773210403315em" fill="#aaa"/><rect width="0.9433962264150944em" height="0.5139928596434777em" x="92.45283018867924em" y="29.486007140356524em" fill="#aaa"/><rect width="0.9433962264150944em" height="0.6644545239379773em" x="93.39622641509435em" y="29.335545476062023em" fill="#aaa"/><rect width="0.9433962264150944em" height="0.7141557646283604em" x="94.33962264150944em" y="29.28584423537164em" fill="#aaa"/><rect width="0.9433962264150944em" height="0.5817853138883173em" x="95.28301886792453em" y="29.418214686111682em" fill="#aaa"/><rect width="0.9433962264150944em" height="0.6949901175446764em" x="96.22641509433963em" y="29.305009882455323em" fill="#aaa"/><rect width="0.9433962264150944em" height="0.66207322917138em" x="97.16981132075472em" y="29.33792677082862em" fill="#aaa"/><rect width="0.9433962264150944em" height="0.40948228867880965em" x="98.11320754716981em" y="29.59051771132119em" fill="#aaa"/><rect width="0.9433962264150944em" height="0.5868954770552564em" x="99.05660377358491em" y="29.413104522944742em" fill="#aaa"/></svg>