<?xml version="1.0" standalone="no"?>
<svg xmlns:xlink="http://www.w3.org/1999/xlink" xmlns="http://www.w3.org/2000/svg" class="topic-graph" style="width: 100em; height: 30em; text-align: center;"><rect width="0.9433962264150944em" height="0.030356244544634172em" x="0em" y="29.969643755455365em" fill="#aaa"/><rect width="0.9433962264150944em" height="1.084919573471328em" x="0.9433962264150944em" y="28.91508042652867em" fill="#aaa"/><rect width="0.9433962264150944em" height="0.6030485459939458em" x="1.8867924528301887em" y="29.396951454006054em" fill="#aaa"/><rect width="0.9433962264150944em" height="0.06172430298631013em" x="2.830188679245283em" y="29.93827569701369em" fill="#aaa"/><rect width="0.9433962264150944em" height="0.015042899307956601em" x="3.7735849056603774em" y="29.984957100692043em" fill="#aaa"/><rect width="0.9433962264150944em" height="0.43190993426418656em" x="4.716981132075472em" y="29.568090065735813em" fill="#aaa"/><rect width="0.9433962264150944em" height="2.6657971018029167em" x="5.660377358490566em" y="27.334202898197084em" fill="#aaa"/><rect width="0.9433962264150944em" height="0.6096137320519119em" x="6.60377358490566em" y="29.390386267948088em" fill="#aaa"/><rect width="0.9433962264150944em" height="0.15249958716413667em" x="7.547169811320755em" y="29.847500412835863em" fill="#aaa"/><rect width="0.9433962264150944em" height="0.26567817526651405em" x="8.49056603773585em" y="29.734321824733485em" fill="#aaa"/><rect width="0.9433962264150944em" height="1.7055444204534334em" x="9.433962264150944em" y="28.294455579546568em" fill="#aaa"/><rect width="0.9433962264150944em" height="0.048201333313881em" x="10.377358490566039em" y="29.95179866668612em" fill="#aaa"/><rect width="0.9433962264150944em" height="0.8583313974729062em" x="11.320754716981131em" y="29.141668602527094em" fill="#aaa"/><rect width="0.9433962264150944em" height="0em" x="12.264150943396226em" y="30em" fill="#aaa"/><rect width="0.9433962264150944em" height="7.6721709258979685em" x="13.20754716981132em" y="22.32782907410203em" fill="#aaa"/><rect width="0.9433962264150944em" height="3.829643442334853em" x="14.150943396226415em" y="26.170356557665148em" fill="#aaa"/><rect width="0.9433962264150944em" height="9.9081950024664em" x="15.09433962264151em" y="20.0918049975336em" fill="#aaa"/><rect width="0.9433962264150944em" height="0.8230097864047063em" x="16.037735849056602em" y="29.176990213595293em" fill="#aaa"/><rect width="0.9433962264150944em" height="2.34794053567628em" x="16.9811320754717em" y="27.65205946432372em" fill="#aaa"/><rect width="0.9433962264150944em" height="0.3362687919088608em" x="17.92452830188679em" y="29.66373120809114em" fill="#aaa"/><rect width="0.9433962264150944em" height="4.83040168982184em" x="18.867924528301888em" y="25.16959831017816em" fill="#aaa"/><rect width="0.9433962264150944em" height="23.723569682101772em" x="19.81132075471698em" y="6.276430317898228em" fill="#aaa"/><rect width="0.9433962264150944em" height="22.584974065518637em" x="20.754716981132077em" y="7.415025934481363em" fill="#aaa"/><rect width="0.9433962264150944em" height="2.6759601570325398em" x="21.69811320754717em" y="27.32403984296746em" fill="#aaa"/><rect width="0.9433962264150944em" height="27.68584747211881em" x="22.641509433962263em" y="2.314152527881191em" fill="#aaa"/><rect width="0.9433962264150944em" height="11.093264235830647em" x="23.58490566037736em" y="18.906735764169355em" fill="#aaa"/><rect width="0.9433962264150944em" height="0em" x="24.528301886792452em" y="30em" fill="#aaa"/><rect width="0.9433962264150944em" height="1.2798312867548514em" x="25.471698113207548em" y="28.720168713245148em" fill="#aaa"/><rect width="0.9433962264150944em" height="6.148365457883737em" x="26.41509433962264em" y="23.851634542116262em" fill="#aaa"/><rect width="0.9433962264150944em" height="0.5498787742463958em" x="27.358490566037737em" y="29.450121225753605em" fill="#aaa"/><rect width="0.9433962264150944em" height="2.8179095594858623em" x="28.30188679245283em" y="27.182090440514138em" fill="#aaa"/><rect width="0.9433962264150944em" height="0.7231321902107325em" x="29.245283018867926em" y="29.276867809789266em" fill="#aaa"/><rect width="0.9433962264150944em" height="0.7505208882781441em" x="30.18867924528302em" y="29.249479111721858em" fill="#aaa"/><rect width="0.9433962264150944em" height="1.310982490087281em" x="31.132075471698112em" y="28.68901750991272em" fill="#aaa"/><rect width="0.9433962264150944em" height="0.37648042907011436em" x="32.075471698113205em" y="29.623519570929886em" fill="#aaa"/><rect width="0.9433962264150944em" height="0.29013020398344946em" x="33.0188679245283em" y="29.70986979601655em" fill="#aaa"/><rect width="0.9433962264150944em" height="0.3435785570107657em" x="33.9622641509434em" y="29.656421442989235em" fill="#aaa"/><rect width="0.9433962264150944em" height="0.17105232431051087em" x="34.905660377358494em" y="29.828947675689488em" fill="#aaa"/><rect width="0.9433962264150944em" height="0.1767473100624697em" x="35.84905660377358em" y="29.82325268993753em" fill="#aaa"/><rect width="0.9433962264150944em" height="0.38463411865360714em" x="36.79245283018868em" y="29.615365881346392em" fill="#aaa"/><rect width="0.9433962264150944em" height="0.1948112845117177em" x="37.735849056603776em" y="29.80518871548828em" fill="#aaa"/><rect width="0.9433962264150944em" height="2.8797303514177455em" x="38.679245283018865em" y="27.120269648582255em" fill="#aaa"/><rect width="0.9433962264150944em" height="10.344430194708067em" x="39.62264150943396em" y="19.655569805291933em" fill="#aaa"/><rect width="0.9433962264150944em" height="0.9935922565994785em" x="40.56603773584906em" y="29.006407743400523em" fill="#aaa"/><rect width="0.9433962264150944em" height="0.14582986206140203em" x="41.509433962264154em" y="29.8541701379386em" fill="#aaa"/><rect width="0.9433962264150944em" height="9.601583152109884em" x="42.45283018867924em" y="20.398416847890118em" fill="#aaa"/><rect width="0.9433962264150944em" height="0.2044048581454305em" x="43.39622641509434em" y="29.79559514185457em" fill="#aaa"/><rect width="0.9433962264150944em" height="0.6970961547195369em" x="44.339622641509436em" y="29.30290384528046em" fill="#aaa"/><rect width="0.9433962264150944em" height="0.35876590299910605em" x="45.283018867924525em" y="29.641234097000893em" fill="#aaa"/><rect width="0.9433962264150944em" height="0.2515446917257503em" x="46.22641509433962em" y="29.74845530827425em" fill="#aaa"/><rect width="0.9433962264150944em" height="0.4534679071340605em" x="47.16981132075472em" y="29.546532092865938em" fill="#aaa"/><rect width="0.9433962264150944em" height="0.4881592301334179em" x="48.113207547169814em" y="29.51184076986658em" fill="#aaa"/><rect width="0.9433962264150944em" height="0.2217436410082111em" x="49.056603773584904em" y="29.77825635899179em" fill="#aaa"/><rect width="0.9433962264150944em" height="0.3711876369677283em" x="50em" y="29.62881236303227em" fill="#aaa"/><rect width="0.9433962264150944em" height="0.6353664822685131em" x="50.943396226415096em" y="29.364633517731487em" fill="#aaa"/><rect width="0.9433962264150944em" height="0.4587312403506169em" x="51.88679245283019em" y="29.541268759649384em" fill="#aaa"/><rect width="0.9433962264150944em" height="0.3646785898048172em" x="52.83018867924528em" y="29.635321410195182em" fill="#aaa"/><rect width="0.9433962264150944em" height="1.252503801326769em" x="53.77358490566038em" y="28.747496198673232em" fill="#aaa"/><rect width="0.9433962264150944em" height="0.7807191241520157em" x="54.716981132075475em" y="29.219280875847986em" fill="#aaa"/><rect width="0.9433962264150944em" height="3.131290433691867em" x="55.660377358490564em" y="26.868709566308134em" fill="#aaa"/><rect width="0.9433962264150944em" height="5.180475000529396em" x="56.60377358490566em" y="24.819524999470605em" fill="#aaa"/><rect width="0.9433962264150944em" height="3.917066600021091em" x="57.54716981132076em" y="26.08293339997891em" fill="#aaa"/><rect width="0.9433962264150944em" height="0.9124973200194642em" x="58.49056603773585em" y="29.087502679980535em" fill="#aaa"/><rect width="0.9433962264150944em" height="1.2953926571479455em" x="59.43396226415094em" y="28.704607342852054em" fill="#aaa"/><rect width="0.9433962264150944em" height="3.3301779388584674em" x="60.37735849056604em" y="26.66982206114153em" fill="#aaa"/><rect width="0.9433962264150944em" height="0.5957820092864649em" x="61.320754716981135em" y="29.404217990713533em" fill="#aaa"/><rect width="0.9433962264150944em" height="5.628342593984571em" x="62.264150943396224em" y="24.37165740601543em" fill="#aaa"/><rect width="0.9433962264150944em" height="12.61454510135288em" x="63.20754716981132em" y="17.38545489864712em" fill="#aaa"/><rect width="0.9433962264150944em" height="6.759293470464848em" x="64.15094339622641em" y="23.240706529535153em" fill="#aaa"/><rect width="0.9433962264150944em" height="7.364694272269289em" x="65.09433962264151em" y="22.63530572773071em" fill="#aaa"/><rect width="0.9433962264150944em" height="6.340103137058161em" x="66.0377358490566em" y="23.65989686294184em" fill="#aaa"/><rect width="0.9433962264150944em" height="18.05554327277674em" x="66.9811320754717em" y="11.944456727223258em" fill="#aaa"/><rect width="0.9433962264150944em" height="8.444553365592135em" x="67.9245283018868em" y="21.555446634407865em" fill="#aaa"/><rect width="0.9433962264150944em" height="7.319120430535305em" x="68.86792452830188em" y="22.680879569464693em" fill="#aaa"/><rect width="0.9433962264150944em" height="8.263643429964972em" x="69.81132075471699em" y="21.736356570035028em" fill="#aaa"/><rect width="0.9433962264150944em" height="0.9263618372172262em" x="70.75471698113208em" y="29.073638162782775em" fill="#aaa"/><rect width="0.9433962264150944em" height="1.5331923755345884em" x="71.69811320754717em" y="28.46680762446541em" fill="#aaa"/><rect width="0.9433962264150944em" height="30em" x="72.64150943396227em" y="0em" fill="#aaa"/><rect width="0.9433962264150944em" height="3.7667800120659565em" x="73.58490566037736em" y="26.233219987934042em" fill="#aaa"/><rect width="0.9433962264150944em" height="1.1783145048348578em" x="74.52830188679245em" y="28.82168549516514em" fill="#aaa"/><rect width="0.9433962264150944em" height="7.6766888802873225em" x="75.47169811320755em" y="22.323311119712677em" fill="#aaa"/><rect width="0.9433962264150944em" height="3.171975348090845em" x="76.41509433962264em" y="26.828024651909153em" fill="#aaa"/><rect width="0.9433962264150944em" height="0.7630727716714059em" x="77.35849056603773em" y="29.236927228328593em" fill="#aaa"/><rect width="0.9433962264150944em" height="2.1626171972632093em" x="78.30188679245283em" y="27.83738280273679em" fill="#aaa"/><rect width="0.9433962264150944em" height="1.250892681870278em" x="79.24528301886792em" y="28.749107318129724em" fill="#aaa"/><rect width="0.9433962264150944em" height="1.1068399109603715em" x="80.18867924528303em" y="28.89316008903963em" fill="#aaa"/><rect width="0.9433962264150944em" height="1.0469182038127536em" x="81.13207547169812em" y="28.953081796187245em" fill="#aaa"/><rect width="0.9433962264150944em" height="3.8994475599709744em" x="82.0754716981132em" y="26.100552440029027em" fill="#aaa"/><rect width="0.9433962264150944em" height="2.862948142112187em" x="83.01886792452831em" y="27.137051857887812em" fill="#aaa"/><rect width="0.9433962264150944em" height="3.69526407901883em" x="83.9622641509434em" y="26.30473592098117em" fill="#aaa"/><rect width="0.9433962264150944em" height="3.698031554067726em" x="84.90566037735849em" y="26.301968445932275em" fill="#aaa"/><rect width="0.9433962264150944em" height="2.3603455833209765em" x="85.84905660377359em" y="27.639654416679022em" fill="#aaa"/><rect width="0.9433962264150944em" height="1.5137332220584967em" x="86.79245283018868em" y="28.486266777941502em" fill="#aaa"/><rect width="0.9433962264150944em" height="2.018372426494371em" x="87.73584905660377em" y="27.98162757350563em" fill="#aaa"/><rect width="0.9433962264150944em" height="0.9606650840598739em" x="88.67924528301887em" y="29.039334915940128em" fill="#aaa"/><rect width="0.9433962264150944em" height="1.492881521612283em" x="89.62264150943396em" y="28.507118478387717em" fill="#aaa"/><rect width="0.9433962264150944em" height="1.2193451442655183em" x="90.56603773584905em" y="28.780654855734483em" fill="#aaa"/><rect width="0.9433962264150944em" height="2.5874930858554217em" x="91.50943396226415em" y="27.41250691414458em" fill="#aaa"/><rect width="0.9433962264150944em" height="1.0341029475124557em" x="92.45283018867924em" y="28.965897052487545em" fill="#aaa"/><rect width="0.9433962264150944em" height="2.1112605232351025em" x="93.39622641509435em" y="27.888739476764897em" fill="#aaa"/><rect width="0.9433962264150944em" height="2.3321812831352156em" x="94.33962264150944em" y="27.667818716864783em" fill="#aaa"/><rect width="0.9433962264150944em" height="2.7621275528440896em" x="95.28301886792453em" y="27.23787244715591em" fill="#aaa"/><rect width="0.9433962264150944em" height="1.4155793126977052em" x="96.22641509433963em" y="28.584420687302295em" fill="#aaa"/><rect width="0.9433962264150944em" height="14.892139068478858em" x="97.16981132075472em" y="15.107860931521142em" fill="#aaa"/><rect width="0.9433962264150944em" height="2.1309914901485203em" x="98.11320754716981em" y="27.86900850985148em" fill="#aaa"/><rect width="0.9433962264150944em" height="1.3842003458856171em" x="99.05660377358491em" y="28.615799654114383em" fill="#aaa"/></svg>