<?xml version="1.0" standalone="no"?>
<svg xmlns:xlink="http://www.w3.org/1999/xlink" xmlns="http://www.w3.org/2000/svg" class="topic-graph" style="width: 100em; height: 30em; text-align: center;"><rect width="0.9433962264150944em" height="6.241813643973309em" x="0em" y="23.75818635602669em" fill="#aaa"/><rect width="0.9433962264150944em" height="25.150862004821732em" x="0.9433962264150944em" y="4.849137995178268em" fill="#aaa"/><rect width="0.9433962264150944em" height="2.5366182831676674em" x="1.8867924528301887em" y="27.463381716832334em" fill="#aaa"/><rect width="0.9433962264150944em" height="6.362734446799418em" x="2.830188679245283em" y="23.63726555320058em" fill="#aaa"/><rect width="0.9433962264150944em" height="8.250005385483139em" x="3.7735849056603774em" y="21.74999461451686em" fill="#aaa"/><rect width="0.9433962264150944em" height="3.3628448345649966em" x="4.716981132075472em" y="26.637155165435004em" fill="#aaa"/><rect width="0.9433962264150944em" height="4.655528353437712em" x="5.660377358490566em" y="25.344471646562287em" fill="#aaa"/><rect width="0.9433962264150944em" height="0.33788505449589523em" x="6.60377358490566em" y="29.662114945504104em" fill="#aaa"/><rect width="0.9433962264150944em" height="2.9654542466789593em" x="7.547169811320755em" y="27.03454575332104em" fill="#aaa"/><rect width="0.9433962264150944em" height="3.4035230726802177em" x="8.49056603773585em" y="26.59647692731978em" fill="#aaa"/><rect width="0.9433962264150944em" height="3.42091534374069em" x="9.433962264150944em" y="26.57908465625931em" fill="#aaa"/><rect width="0.9433962264150944em" height="0.4923893528365319em" x="10.377358490566039em" y="29.507610647163467em" fill="#aaa"/><rect width="0.9433962264150944em" height="1.4333721738077314em" x="11.320754716981131em" y="28.566627826192267em" fill="#aaa"/><rect width="0.9433962264150944em" height="0em" x="12.264150943396226em" y="30em" fill="#aaa"/><rect width="0.9433962264150944em" height="8.436343531964786em" x="13.20754716981132em" y="21.563656468035212em" fill="#aaa"/><rect width="0.9433962264150944em" height="4.105626080714419em" x="14.150943396226415em" y="25.89437391928558em" fill="#aaa"/><rect width="0.9433962264150944em" height="17.697982268960438em" x="15.09433962264151em" y="12.302017731039562em" fill="#aaa"/><rect width="0.9433962264150944em" height="1.3113084797412125em" x="16.037735849056602em" y="28.688691520258786em" fill="#aaa"/><rect width="0.9433962264150944em" height="7.835973248987217em" x="16.9811320754717em" y="22.164026751012784em" fill="#aaa"/><rect width="0.9433962264150944em" height="5.802446939880724em" x="17.92452830188679em" y="24.197553060119276em" fill="#aaa"/><rect width="0.9433962264150944em" height="3.169639878638256em" x="18.867924528301888em" y="26.830360121361743em" fill="#aaa"/><rect width="0.9433962264150944em" height="6.5643948517330815em" x="19.81132075471698em" y="23.43560514826692em" fill="#aaa"/><rect width="0.9433962264150944em" height="6.7018187927190995em" x="20.754716981132077em" y="23.2981812072809em" fill="#aaa"/><rect width="0.9433962264150944em" height="2.347426401276149em" x="21.69811320754717em" y="27.65257359872385em" fill="#aaa"/><rect width="0.9433962264150944em" height="3.96199133877131em" x="22.641509433962263em" y="26.03800866122869em" fill="#aaa"/><rect width="0.9433962264150944em" height="6.637483467704412em" x="23.58490566037736em" y="23.362516532295587em" fill="#aaa"/><rect width="0.9433962264150944em" height="0em" x="24.528301886792452em" y="30em" fill="#aaa"/><rect width="0.9433962264150944em" height="2.9314915534504737em" x="25.471698113207548em" y="27.068508446549526em" fill="#aaa"/><rect width="0.9433962264150944em" height="13.526867831555066em" x="26.41509433962264em" y="16.473132168444934em" fill="#aaa"/><rect width="0.9433962264150944em" height="11.180326167913059em" x="27.358490566037737em" y="18.81967383208694em" fill="#aaa"/><rect width="0.9433962264150944em" height="8.809226390030384em" x="28.30188679245283em" y="21.190773609969618em" fill="#aaa"/><rect width="0.9433962264150944em" height="10.374687451946528em" x="29.245283018867926em" y="19.625312548053472em" fill="#aaa"/><rect width="0.9433962264150944em" height="26.96321002938563em" x="30.18867924528302em" y="3.0367899706143717em" fill="#aaa"/><rect width="0.9433962264150944em" height="28.475931385457084em" x="31.132075471698112em" y="1.5240686145429159em" fill="#aaa"/><rect width="0.9433962264150944em" height="12.295565226442719em" x="32.075471698113205em" y="17.70443477355728em" fill="#aaa"/><rect width="0.9433962264150944em" height="15.762599067892095em" x="33.0188679245283em" y="14.237400932107905em" fill="#aaa"/><rect width="0.9433962264150944em" height="6.726011899834469em" x="33.9622641509434em" y="23.273988100165532em" fill="#aaa"/><rect width="0.9433962264150944em" height="18.65701991022623em" x="34.905660377358494em" y="11.342980089773771em" fill="#aaa"/><rect width="0.9433962264150944em" height="12.337385586825144em" x="35.84905660377358em" y="17.662614413174857em" fill="#aaa"/><rect width="0.9433962264150944em" height="6.750777035710699em" x="36.79245283018868em" y="23.249222964289302em" fill="#aaa"/><rect width="0.9433962264150944em" height="12.949798681268641em" x="37.735849056603776em" y="17.05020131873136em" fill="#aaa"/><rect width="0.9433962264150944em" height="15.21962017777502em" x="38.679245283018865em" y="14.78037982222498em" fill="#aaa"/><rect width="0.9433962264150944em" height="9.140303184204116em" x="39.62264150943396em" y="20.859696815795886em" fill="#aaa"/><rect width="0.9433962264150944em" height="8.83403506919466em" x="40.56603773584906em" y="21.165964930805337em" fill="#aaa"/><rect width="0.9433962264150944em" height="13.17203781670691em" x="41.509433962264154em" y="16.82796218329309em" fill="#aaa"/><rect width="0.9433962264150944em" height="7.785186770822142em" x="42.45283018867924em" y="22.214813229177857em" fill="#aaa"/><rect width="0.9433962264150944em" height="7.864744497230221em" x="43.39622641509434em" y="22.13525550276978em" fill="#aaa"/><rect width="0.9433962264150944em" height="22.817015082864785em" x="44.339622641509436em" y="7.182984917135215em" fill="#aaa"/><rect width="0.9433962264150944em" height="14.815928134003288em" x="45.283018867924525em" y="15.184071865996712em" fill="#aaa"/><rect width="0.9433962264150944em" height="17.896244537266767em" x="46.22641509433962em" y="12.103755462733233em" fill="#aaa"/><rect width="0.9433962264150944em" height="13.407860419684464em" x="47.16981132075472em" y="16.592139580315536em" fill="#aaa"/><rect width="0.9433962264150944em" height="23.67667143579844em" x="48.113207547169814em" y="6.32332856420156em" fill="#aaa"/><rect width="0.9433962264150944em" height="16.14378101602708em" x="49.056603773584904em" y="13.85621898397292em" fill="#aaa"/><rect width="0.9433962264150944em" height="15.069188372918687em" x="50em" y="14.930811627081313em" fill="#aaa"/><rect width="0.9433962264150944em" height="14.688916229116838em" x="50.943396226415096em" y="15.311083770883162em" fill="#aaa"/><rect width="0.9433962264150944em" height="14.46537309086771em" x="51.88679245283019em" y="15.53462690913229em" fill="#aaa"/><rect width="0.9433962264150944em" height="17.169234023364027em" x="52.83018867924528em" y="12.830765976635973em" fill="#aaa"/><rect width="0.9433962264150944em" height="13.475335524716419em" x="53.77358490566038em" y="16.52466447528358em" fill="#aaa"/><rect width="0.9433962264150944em" height="16.181844405768352em" x="54.716981132075475em" y="13.818155594231648em" fill="#aaa"/><rect width="0.9433962264150944em" height="11.384341140828539em" x="55.660377358490564em" y="18.61565885917146em" fill="#aaa"/><rect width="0.9433962264150944em" height="10.184933041711465em" x="56.60377358490566em" y="19.815066958288533em" fill="#aaa"/><rect width="0.9433962264150944em" height="10.017645431162784em" x="57.54716981132076em" y="19.982354568837216em" fill="#aaa"/><rect width="0.9433962264150944em" height="11.266199518333412em" x="58.49056603773585em" y="18.733800481666588em" fill="#aaa"/><rect width="0.9433962264150944em" height="22.204290203346147em" x="59.43396226415094em" y="7.795709796653853em" fill="#aaa"/><rect width="0.9433962264150944em" height="24.25541270616743em" x="60.37735849056604em" y="5.74458729383257em" fill="#aaa"/><rect width="0.9433962264150944em" height="10.944967089690453em" x="61.320754716981135em" y="19.05503291030955em" fill="#aaa"/><rect width="0.9433962264150944em" height="21.714182082202846em" x="62.264150943396224em" y="8.285817917797154em" fill="#aaa"/><rect width="0.9433962264150944em" height="30em" x="63.20754716981132em" y="0em" fill="#aaa"/><rect width="0.9433962264150944em" height="22.27891785556399em" x="64.15094339622641em" y="7.721082144436011em" fill="#aaa"/><rect width="0.9433962264150944em" height="19.311961635273022em" x="65.09433962264151em" y="10.688038364726978em" fill="#aaa"/><rect width="0.9433962264150944em" height="23.674983217048986em" x="66.0377358490566em" y="6.325016782951014em" fill="#aaa"/><rect width="0.9433962264150944em" height="25.06221724095442em" x="66.9811320754717em" y="4.937782759045579em" fill="#aaa"/><rect width="0.9433962264150944em" height="17.701111886462634em" x="67.9245283018868em" y="12.298888113537366em" fill="#aaa"/><rect width="0.9433962264150944em" height="20.94711864388486em" x="68.86792452830188em" y="9.05288135611514em" fill="#aaa"/><rect width="0.9433962264150944em" height="13.427091519798102em" x="69.81132075471699em" y="16.572908480201896em" fill="#aaa"/><rect width="0.9433962264150944em" height="12.388982766665862em" x="70.75471698113208em" y="17.611017233334138em" fill="#aaa"/><rect width="0.9433962264150944em" height="14.649346324343565em" x="71.69811320754717em" y="15.350653675656435em" fill="#aaa"/><rect width="0.9433962264150944em" height="9.436214084007922em" x="72.64150943396227em" y="20.563785915992078em" fill="#aaa"/><rect width="0.9433962264150944em" height="15.270047908661978em" x="73.58490566037736em" y="14.729952091338022em" fill="#aaa"/><rect width="0.9433962264150944em" height="13.646582848332677em" x="74.52830188679245em" y="16.353417151667323em" fill="#aaa"/><rect width="0.9433962264150944em" height="19.95759315856072em" x="75.47169811320755em" y="10.04240684143928em" fill="#aaa"/><rect width="0.9433962264150944em" height="6.831489247171448em" x="76.41509433962264em" y="23.168510752828553em" fill="#aaa"/><rect width="0.9433962264150944em" height="9.17743538010882em" x="77.35849056603773em" y="20.822564619891182em" fill="#aaa"/><rect width="0.9433962264150944em" height="22.414825687310348em" x="78.30188679245283em" y="7.585174312689652em" fill="#aaa"/><rect width="0.9433962264150944em" height="15.610764470035823em" x="79.24528301886792em" y="14.389235529964177em" fill="#aaa"/><rect width="0.9433962264150944em" height="12.587593894783938em" x="80.18867924528303em" y="17.412406105216064em" fill="#aaa"/><rect width="0.9433962264150944em" height="11.149638072469322em" x="81.13207547169812em" y="18.850361927530678em" fill="#aaa"/><rect width="0.9433962264150944em" height="18.853117701806262em" x="82.0754716981132em" y="11.146882298193738em" fill="#aaa"/><rect width="0.9433962264150944em" height="8.0238584730333em" x="83.01886792452831em" y="21.9761415269667em" fill="#aaa"/><rect width="0.9433962264150944em" height="25.953067934919915em" x="83.9622641509434em" y="4.046932065080085em" fill="#aaa"/><rect width="0.9433962264150944em" height="29.84166303865671em" x="84.90566037735849em" y="0.15833696134329145em" fill="#aaa"/><rect width="0.9433962264150944em" height="25.04357435266611em" x="85.84905660377359em" y="4.956425647333891em" fill="#aaa"/><rect width="0.9433962264150944em" height="25.306300118703028em" x="86.79245283018868em" y="4.693699881296972em" fill="#aaa"/><rect width="0.9433962264150944em" height="26.411060133324707em" x="87.73584905660377em" y="3.588939866675293em" fill="#aaa"/><rect width="0.9433962264150944em" height="18.498124594030703em" x="88.67924528301887em" y="11.501875405969297em" fill="#aaa"/><rect width="0.9433962264150944em" height="20.70428613047768em" x="89.62264150943396em" y="9.29571386952232em" fill="#aaa"/><rect width="0.9433962264150944em" height="14.483181495589776em" x="90.56603773584905em" y="15.516818504410224em" fill="#aaa"/><rect width="0.9433962264150944em" height="14.73841373983394em" x="91.50943396226415em" y="15.26158626016606em" fill="#aaa"/><rect width="0.9433962264150944em" height="11.879405847790878em" x="92.45283018867924em" y="18.120594152209122em" fill="#aaa"/><rect width="0.9433962264150944em" height="13.758252180109485em" x="93.39622641509435em" y="16.241747819890513em" fill="#aaa"/><rect width="0.9433962264150944em" height="11.54514067121664em" x="94.33962264150944em" y="18.45485932878336em" fill="#aaa"/><rect width="0.9433962264150944em" height="13.19724749478395em" x="95.28301886792453em" y="16.80275250521605em" fill="#aaa"/><rect width="0.9433962264150944em" height="11.355515815551144em" x="96.22641509433963em" y="18.644484184448856em" fill="#aaa"/><rect width="0.9433962264150944em" height="25.627354654743414em" x="97.16981132075472em" y="4.372645345256586em" fill="#aaa"/><rect width="0.9433962264150944em" height="19.141361314112036em" x="98.11320754716981em" y="10.858638685887964em" fill="#aaa"/><rect width="0.9433962264150944em" height="11.62045171190068em" x="99.05660377358491em" y="18.379548288099322em" fill="#aaa"/></svg>