<?xml version="1.0" standalone="no"?>
<svg xmlns:xlink="http://www.w3.org/1999/xlink" xmlns="http://www.w3.org/2000/svg" class="topic-graph" style="width: 100em; height: 30em; text-align: center;"><rect width="0.9433962264150944em" height="13.958975978308027em" x="0em" y="16.041024021691975em" fill="#aaa"/><rect width="0.9433962264150944em" height="4.581019089171462em" x="0.9433962264150944em" y="25.418980910828537em" fill="#aaa"/><rect width="0.9433962264150944em" height="9.95664343316857em" x="1.8867924528301887em" y="20.04335656683143em" fill="#aaa"/><rect width="0.9433962264150944em" height="4.904961403094263em" x="2.830188679245283em" y="25.095038596905738em" fill="#aaa"/><rect width="0.9433962264150944em" height="8.459356337952752em" x="3.7735849056603774em" y="21.54064366204725em" fill="#aaa"/><rect width="0.9433962264150944em" height="30em" x="4.716981132075472em" y="0em" fill="#aaa"/><rect width="0.9433962264150944em" height="12.451464379113567em" x="5.660377358490566em" y="17.548535620886433em" fill="#aaa"/><rect width="0.9433962264150944em" height="14.090421296894199em" x="6.60377358490566em" y="15.909578703105801em" fill="#aaa"/><rect width="0.9433962264150944em" height="5.773268744682261em" x="7.547169811320755em" y="24.226731255317738em" fill="#aaa"/><rect width="0.9433962264150944em" height="28.7203518026358em" x="8.49056603773585em" y="1.2796481973641995em" fill="#aaa"/><rect width="0.9433962264150944em" height="13.150419652815527em" x="9.433962264150944em" y="16.84958034718447em" fill="#aaa"/><rect width="0.9433962264150944em" height="9.077628900101356em" x="10.377358490566039em" y="20.922371099898644em" fill="#aaa"/><rect width="0.9433962264150944em" height="6.575653348615705em" x="11.320754716981131em" y="23.424346651384294em" fill="#aaa"/><rect width="0.9433962264150944em" height="0em" x="12.264150943396226em" y="30em" fill="#aaa"/><rect width="0.9433962264150944em" height="5.923612347135933em" x="13.20754716981132em" y="24.076387652864067em" fill="#aaa"/><rect width="0.9433962264150944em" height="5.075805485248828em" x="14.150943396226415em" y="24.92419451475117em" fill="#aaa"/><rect width="0.9433962264150944em" height="3.8855416199005686em" x="15.09433962264151em" y="26.114458380099432em" fill="#aaa"/><rect width="0.9433962264150944em" height="4.715783734542599em" x="16.037735849056602em" y="25.284216265457403em" fill="#aaa"/><rect width="0.9433962264150944em" height="4.958604862640628em" x="16.9811320754717em" y="25.041395137359373em" fill="#aaa"/><rect width="0.9433962264150944em" height="2.6949674575837106em" x="17.92452830188679em" y="27.30503254241629em" fill="#aaa"/><rect width="0.9433962264150944em" height="4.485939359650126em" x="18.867924528301888em" y="25.514060640349875em" fill="#aaa"/><rect width="0.9433962264150944em" height="5.849568252649927em" x="19.81132075471698em" y="24.150431747350073em" fill="#aaa"/><rect width="0.9433962264150944em" height="5.141450040966281em" x="20.754716981132077em" y="24.85854995903372em" fill="#aaa"/><rect width="0.9433962264150944em" height="4.509431024068337em" x="21.69811320754717em" y="25.490568975931662em" fill="#aaa"/><rect width="0.9433962264150944em" height="4.506225039278678em" x="22.641509433962263em" y="25.49377496072132em" fill="#aaa"/><rect width="0.9433962264150944em" height="1.9645823426449418em" x="23.58490566037736em" y="28.035417657355058em" fill="#aaa"/><rect width="0.9433962264150944em" height="0em" x="24.528301886792452em" y="30em" fill="#aaa"/><rect width="0.9433962264150944em" height="4.831862405209073em" x="25.471698113207548em" y="25.168137594790927em" fill="#aaa"/><rect width="0.9433962264150944em" height="4.019948833139377em" x="26.41509433962264em" y="25.980051166860623em" fill="#aaa"/><rect width="0.9433962264150944em" height="7.754793860499848em" x="27.358490566037737em" y="22.24520613950015em" fill="#aaa"/><rect width="0.9433962264150944em" height="6.491003562541857em" x="28.30188679245283em" y="23.508996437458144em" fill="#aaa"/><rect width="0.9433962264150944em" height="3.274404593392322em" x="29.245283018867926em" y="26.725595406607678em" fill="#aaa"/><rect width="0.9433962264150944em" height="5.089717017584871em" x="30.18867924528302em" y="24.91028298241513em" fill="#aaa"/><rect width="0.9433962264150944em" height="7.059547772648636em" x="31.132075471698112em" y="22.940452227351365em" fill="#aaa"/><rect width="0.9433962264150944em" height="3.566199809472201em" x="32.075471698113205em" y="26.433800190527798em" fill="#aaa"/><rect width="0.9433962264150944em" height="3.590152225589581em" x="33.0188679245283em" y="26.40984777441042em" fill="#aaa"/><rect width="0.9433962264150944em" height="5.6152073913450895em" x="33.9622641509434em" y="24.384792608654912em" fill="#aaa"/><rect width="0.9433962264150944em" height="7.452411629823576em" x="34.905660377358494em" y="22.547588370176424em" fill="#aaa"/><rect width="0.9433962264150944em" height="6.516311145517845em" x="35.84905660377358em" y="23.483688854482153em" fill="#aaa"/><rect width="0.9433962264150944em" height="4.459694517610527em" x="36.79245283018868em" y="25.540305482389474em" fill="#aaa"/><rect width="0.9433962264150944em" height="3.864133043658195em" x="37.735849056603776em" y="26.135866956341804em" fill="#aaa"/><rect width="0.9433962264150944em" height="5.832979437373851em" x="38.679245283018865em" y="24.16702056262615em" fill="#aaa"/><rect width="0.9433962264150944em" height="10.061985878523464em" x="39.62264150943396em" y="19.938014121476535em" fill="#aaa"/><rect width="0.9433962264150944em" height="11.988971660592897em" x="40.56603773584906em" y="18.011028339407105em" fill="#aaa"/><rect width="0.9433962264150944em" height="4.629495372012157em" x="41.509433962264154em" y="25.37050462798784em" fill="#aaa"/><rect width="0.9433962264150944em" height="4.149105094193742em" x="42.45283018867924em" y="25.850894905806257em" fill="#aaa"/><rect width="0.9433962264150944em" height="3.9985930879067695em" x="43.39622641509434em" y="26.00140691209323em" fill="#aaa"/><rect width="0.9433962264150944em" height="3.1218405738290476em" x="44.339622641509436em" y="26.878159426170953em" fill="#aaa"/><rect width="0.9433962264150944em" height="3.7350068473610936em" x="45.283018867924525em" y="26.264993152638908em" fill="#aaa"/><rect width="0.9433962264150944em" height="4.022996610492567em" x="46.22641509433962em" y="25.977003389507434em" fill="#aaa"/><rect width="0.9433962264150944em" height="5.75323681765586em" x="47.16981132075472em" y="24.24676318234414em" fill="#aaa"/><rect width="0.9433962264150944em" height="4.8270065236835205em" x="48.113207547169814em" y="25.172993476316478em" fill="#aaa"/><rect width="0.9433962264150944em" height="9.77380831125947em" x="49.056603773584904em" y="20.226191688740528em" fill="#aaa"/><rect width="0.9433962264150944em" height="3.585286494879182em" x="50em" y="26.41471350512082em" fill="#aaa"/><rect width="0.9433962264150944em" height="4.149349014912096em" x="50.943396226415096em" y="25.850650985087903em" fill="#aaa"/><rect width="0.9433962264150944em" height="3.863403142429172em" x="51.88679245283019em" y="26.13659685757083em" fill="#aaa"/><rect width="0.9433962264150944em" height="2.4751740882831776em" x="52.83018867924528em" y="27.52482591171682em" fill="#aaa"/><rect width="0.9433962264150944em" height="4.127090487230892em" x="53.77358490566038em" y="25.87290951276911em" fill="#aaa"/><rect width="0.9433962264150944em" height="5.38791572013827em" x="54.716981132075475em" y="24.61208427986173em" fill="#aaa"/><rect width="0.9433962264150944em" height="7.13374966644662em" x="55.660377358490564em" y="22.86625033355338em" fill="#aaa"/><rect width="0.9433962264150944em" height="5.404478154009177em" x="56.60377358490566em" y="24.595521845990824em" fill="#aaa"/><rect width="0.9433962264150944em" height="6.1961299577142945em" x="57.54716981132076em" y="23.803870042285705em" fill="#aaa"/><rect width="0.9433962264150944em" height="5.384065750090844em" x="58.49056603773585em" y="24.615934249909156em" fill="#aaa"/><rect width="0.9433962264150944em" height="9.940365436831588em" x="59.43396226415094em" y="20.059634563168412em" fill="#aaa"/><rect width="0.9433962264150944em" height="4.872092300465883em" x="60.37735849056604em" y="25.127907699534116em" fill="#aaa"/><rect width="0.9433962264150944em" height="4.3543547300258645em" x="61.320754716981135em" y="25.645645269974136em" fill="#aaa"/><rect width="0.9433962264150944em" height="5.672680078165666em" x="62.264150943396224em" y="24.327319921834334em" fill="#aaa"/><rect width="0.9433962264150944em" height="4.941246785037674em" x="63.20754716981132em" y="25.058753214962326em" fill="#aaa"/><rect width="0.9433962264150944em" height="4.365771978683421em" x="64.15094339622641em" y="25.63422802131658em" fill="#aaa"/><rect width="0.9433962264150944em" height="7.522578864402687em" x="65.09433962264151em" y="22.47742113559731em" fill="#aaa"/><rect width="0.9433962264150944em" height="5.592156581092236em" x="66.0377358490566em" y="24.407843418907763em" fill="#aaa"/><rect width="0.9433962264150944em" height="3.9873479747349423em" x="66.9811320754717em" y="26.01265202526506em" fill="#aaa"/><rect width="0.9433962264150944em" height="4.836041904956461em" x="67.9245283018868em" y="25.16395809504354em" fill="#aaa"/><rect width="0.9433962264150944em" height="6.4193390091155065em" x="68.86792452830188em" y="23.580660990884493em" fill="#aaa"/><rect width="0.9433962264150944em" height="6.647975693813826em" x="69.81132075471699em" y="23.352024306186173em" fill="#aaa"/><rect width="0.9433962264150944em" height="5.629640961101843em" x="70.75471698113208em" y="24.370359038898158em" fill="#aaa"/><rect width="0.9433962264150944em" height="5.306240809762073em" x="71.69811320754717em" y="24.693759190237927em" fill="#aaa"/><rect width="0.9433962264150944em" height="6.310464686940911em" x="72.64150943396227em" y="23.68953531305909em" fill="#aaa"/><rect width="0.9433962264150944em" height="4.437784826907841em" x="73.58490566037736em" y="25.56221517309216em" fill="#aaa"/><rect width="0.9433962264150944em" height="4.760718415403448em" x="74.52830188679245em" y="25.23928158459655em" fill="#aaa"/><rect width="0.9433962264150944em" height="12.958693773565104em" x="75.47169811320755em" y="17.041306226434898em" fill="#aaa"/><rect width="0.9433962264150944em" height="8.594062677943098em" x="76.41509433962264em" y="21.4059373220569em" fill="#aaa"/><rect width="0.9433962264150944em" height="8.968957984941234em" x="77.35849056603773em" y="21.031042015058766em" fill="#aaa"/><rect width="0.9433962264150944em" height="9.95218031514172em" x="78.30188679245283em" y="20.047819684858283em" fill="#aaa"/><rect width="0.9433962264150944em" height="8.53202723793066em" x="79.24528301886792em" y="21.46797276206934em" fill="#aaa"/><rect width="0.9433962264150944em" height="8.614353443161363em" x="80.18867924528303em" y="21.385646556838637em" fill="#aaa"/><rect width="0.9433962264150944em" height="12.553500661854455em" x="81.13207547169812em" y="17.446499338145543em" fill="#aaa"/><rect width="0.9433962264150944em" height="10.086328378248869em" x="82.0754716981132em" y="19.91367162175113em" fill="#aaa"/><rect width="0.9433962264150944em" height="12.398148021641434em" x="83.01886792452831em" y="17.601851978358567em" fill="#aaa"/><rect width="0.9433962264150944em" height="9.816610932733287em" x="83.9622641509434em" y="20.183389067266713em" fill="#aaa"/><rect width="0.9433962264150944em" height="7.701002986318152em" x="84.90566037735849em" y="22.29899701368185em" fill="#aaa"/><rect width="0.9433962264150944em" height="8.815397978173161em" x="85.84905660377359em" y="21.18460202182684em" fill="#aaa"/><rect width="0.9433962264150944em" height="8.533514132458023em" x="86.79245283018868em" y="21.466485867541977em" fill="#aaa"/><rect width="0.9433962264150944em" height="14.142690634602415em" x="87.73584905660377em" y="15.857309365397585em" fill="#aaa"/><rect width="0.9433962264150944em" height="11.972331275317083em" x="88.67924528301887em" y="18.02766872468292em" fill="#aaa"/><rect width="0.9433962264150944em" height="11.683643584871009em" x="89.62264150943396em" y="18.316356415128993em" fill="#aaa"/><rect width="0.9433962264150944em" height="17.928335130512018em" x="90.56603773584905em" y="12.071664869487982em" fill="#aaa"/><rect width="0.9433962264150944em" height="15.381739003493974em" x="91.50943396226415em" y="14.618260996506026em" fill="#aaa"/><rect width="0.9433962264150944em" height="16.19381506447847em" x="92.45283018867924em" y="13.806184935521529em" fill="#aaa"/><rect width="0.9433962264150944em" height="11.36727158620218em" x="93.39622641509435em" y="18.63272841379782em" fill="#aaa"/><rect width="0.9433962264150944em" height="10.340300740915545em" x="94.33962264150944em" y="19.659699259084455em" fill="#aaa"/><rect width="0.9433962264150944em" height="10.068551239109636em" x="95.28301886792453em" y="19.931448760890362em" fill="#aaa"/><rect width="0.9433962264150944em" height="14.190809143762595em" x="96.22641509433963em" y="15.809190856237405em" fill="#aaa"/><rect width="0.9433962264150944em" height="8.322879226578252em" x="97.16981132075472em" y="21.67712077342175em" fill="#aaa"/><rect width="0.9433962264150944em" height="10.745134621576183em" x="98.11320754716981em" y="19.254865378423816em" fill="#aaa"/><rect width="0.9433962264150944em" height="8.425559274739205em" x="99.05660377358491em" y="21.574440725260793em" fill="#aaa"/></svg>