<?xml version="1.0" standalone="no"?>
<svg xmlns:xlink="http://www.w3.org/1999/xlink" xmlns="http://www.w3.org/2000/svg" class="topic-graph" style="width: 100em; height: 30em; text-align: center;"><rect width="0.9433962264150944em" height="0.10858763851199582em" x="0em" y="29.891412361488005em" fill="#aaa"/><rect width="0.9433962264150944em" height="12.78360682782167em" x="0.9433962264150944em" y="17.21639317217833em" fill="#aaa"/><rect width="0.9433962264150944em" height="0.351500805034464em" x="1.8867924528301887em" y="29.648499194965535em" fill="#aaa"/><rect width="0.9433962264150944em" height="1.0485570345467843em" x="2.830188679245283em" y="28.951442965453214em" fill="#aaa"/><rect width="0.9433962264150944em" height="0.24547082415341653em" x="3.7735849056603774em" y="29.754529175846585em" fill="#aaa"/><rect width="0.9433962264150944em" height="0.5694046170880694em" x="4.716981132075472em" y="29.430595382911932em" fill="#aaa"/><rect width="0.9433962264150944em" height="0.9569536160668939em" x="5.660377358490566em" y="29.043046383933106em" fill="#aaa"/><rect width="0.9433962264150944em" height="8.951379250900187em" x="6.60377358490566em" y="21.04862074909981em" fill="#aaa"/><rect width="0.9433962264150944em" height="0.7863766834689521em" x="7.547169811320755em" y="29.21362331653105em" fill="#aaa"/><rect width="0.9433962264150944em" height="0.1720460241551792em" x="8.49056603773585em" y="29.82795397584482em" fill="#aaa"/><rect width="0.9433962264150944em" height="1.6806451422697541em" x="9.433962264150944em" y="28.319354857730247em" fill="#aaa"/><rect width="0.9433962264150944em" height="0.936743498977297em" x="10.377358490566039em" y="29.063256501022703em" fill="#aaa"/><rect width="0.9433962264150944em" height="1.2673304143341104em" x="11.320754716981131em" y="28.73266958566589em" fill="#aaa"/><rect width="0.9433962264150944em" height="0em" x="12.264150943396226em" y="30em" fill="#aaa"/><rect width="0.9433962264150944em" height="3.379648032447779em" x="13.20754716981132em" y="26.62035196755222em" fill="#aaa"/><rect width="0.9433962264150944em" height="5.891730185259933em" x="14.150943396226415em" y="24.10826981474007em" fill="#aaa"/><rect width="0.9433962264150944em" height="7.168635697702012em" x="15.09433962264151em" y="22.831364302297988em" fill="#aaa"/><rect width="0.9433962264150944em" height="2.368881497224269em" x="16.037735849056602em" y="27.63111850277573em" fill="#aaa"/><rect width="0.9433962264150944em" height="3.4979545795843663em" x="16.9811320754717em" y="26.502045420415634em" fill="#aaa"/><rect width="0.9433962264150944em" height="1.1035598359068177em" x="17.92452830188679em" y="28.896440164093182em" fill="#aaa"/><rect width="0.9433962264150944em" height="2.143737018305662em" x="18.867924528301888em" y="27.85626298169434em" fill="#aaa"/><rect width="0.9433962264150944em" height="3.1910455860744027em" x="19.81132075471698em" y="26.808954413925598em" fill="#aaa"/><rect width="0.9433962264150944em" height="0.9068670720676248em" x="20.754716981132077em" y="29.093132927932373em" fill="#aaa"/><rect width="0.9433962264150944em" height="1.1139182829169882em" x="21.69811320754717em" y="28.886081717083012em" fill="#aaa"/><rect width="0.9433962264150944em" height="6.960479122688285em" x="22.641509433962263em" y="23.039520877311716em" fill="#aaa"/><rect width="0.9433962264150944em" height="1.164080412267352em" x="23.58490566037736em" y="28.835919587732647em" fill="#aaa"/><rect width="0.9433962264150944em" height="0em" x="24.528301886792452em" y="30em" fill="#aaa"/><rect width="0.9433962264150944em" height="1.1388565496818313em" x="25.471698113207548em" y="28.861143450318167em" fill="#aaa"/><rect width="0.9433962264150944em" height="2.0317213267466627em" x="26.41509433962264em" y="27.968278673253337em" fill="#aaa"/><rect width="0.9433962264150944em" height="0.3713686998149412em" x="27.358490566037737em" y="29.62863130018506em" fill="#aaa"/><rect width="0.9433962264150944em" height="1.2016798409970875em" x="28.30188679245283em" y="28.798320159002913em" fill="#aaa"/><rect width="0.9433962264150944em" height="2.8735900799487126em" x="29.245283018867926em" y="27.126409920051287em" fill="#aaa"/><rect width="0.9433962264150944em" height="1.7694556496826677em" x="30.18867924528302em" y="28.23054435031733em" fill="#aaa"/><rect width="0.9433962264150944em" height="2.4442460187014023em" x="31.132075471698112em" y="27.555753981298597em" fill="#aaa"/><rect width="0.9433962264150944em" height="2.4295611800852392em" x="32.075471698113205em" y="27.57043881991476em" fill="#aaa"/><rect width="0.9433962264150944em" height="1.5916916531746113em" x="33.0188679245283em" y="28.40830834682539em" fill="#aaa"/><rect width="0.9433962264150944em" height="1.832321273170482em" x="33.9622641509434em" y="28.167678726829518em" fill="#aaa"/><rect width="0.9433962264150944em" height="2.4195321974990844em" x="34.905660377358494em" y="27.580467802500916em" fill="#aaa"/><rect width="0.9433962264150944em" height="1.8515148083646575em" x="35.84905660377358em" y="28.14848519163534em" fill="#aaa"/><rect width="0.9433962264150944em" height="2.610785921340168em" x="36.79245283018868em" y="27.389214078659833em" fill="#aaa"/><rect width="0.9433962264150944em" height="1.3407775804349384em" x="37.735849056603776em" y="28.65922241956506em" fill="#aaa"/><rect width="0.9433962264150944em" height="10.532899491534858em" x="38.679245283018865em" y="19.467100508465144em" fill="#aaa"/><rect width="0.9433962264150944em" height="1.6828946285631075em" x="39.62264150943396em" y="28.31710537143689em" fill="#aaa"/><rect width="0.9433962264150944em" height="1.8275384585424965em" x="40.56603773584906em" y="28.172461541457505em" fill="#aaa"/><rect width="0.9433962264150944em" height="2.547038260471015em" x="41.509433962264154em" y="27.452961739528984em" fill="#aaa"/><rect width="0.9433962264150944em" height="1.629727525194114em" x="42.45283018867924em" y="28.370272474805887em" fill="#aaa"/><rect width="0.9433962264150944em" height="7.170158335978258em" x="43.39622641509434em" y="22.829841664021743em" fill="#aaa"/><rect width="0.9433962264150944em" height="1.0028487876910275em" x="44.339622641509436em" y="28.99715121230897em" fill="#aaa"/><rect width="0.9433962264150944em" height="0.7296670300552726em" x="45.283018867924525em" y="29.27033296994473em" fill="#aaa"/><rect width="0.9433962264150944em" height="3.147010677163763em" x="46.22641509433962em" y="26.852989322836237em" fill="#aaa"/><rect width="0.9433962264150944em" height="7.811789204251827em" x="47.16981132075472em" y="22.188210795748173em" fill="#aaa"/><rect width="0.9433962264150944em" height="4.558015448840232em" x="48.113207547169814em" y="25.44198455115977em" fill="#aaa"/><rect width="0.9433962264150944em" height="2.067107304575423em" x="49.056603773584904em" y="27.932892695424577em" fill="#aaa"/><rect width="0.9433962264150944em" height="16.08436265278668em" x="50em" y="13.91563734721332em" fill="#aaa"/><rect width="0.9433962264150944em" height="2.975284064477621em" x="50.943396226415096em" y="27.02471593552238em" fill="#aaa"/><rect width="0.9433962264150944em" height="1.6418560734111678em" x="51.88679245283019em" y="28.35814392658883em" fill="#aaa"/><rect width="0.9433962264150944em" height="2.8628223835103648em" x="52.83018867924528em" y="27.137177616489634em" fill="#aaa"/><rect width="0.9433962264150944em" height="2.9120765895713703em" x="53.77358490566038em" y="27.08792341042863em" fill="#aaa"/><rect width="0.9433962264150944em" height="4.73625002570188em" x="54.716981132075475em" y="25.263749974298122em" fill="#aaa"/><rect width="0.9433962264150944em" height="8.511817164673007em" x="55.660377358490564em" y="21.488182835326995em" fill="#aaa"/><rect width="0.9433962264150944em" height="10.913413726485189em" x="56.60377358490566em" y="19.08658627351481em" fill="#aaa"/><rect width="0.9433962264150944em" height="10.389055278958589em" x="57.54716981132076em" y="19.610944721041413em" fill="#aaa"/><rect width="0.9433962264150944em" height="15.655980828967476em" x="58.49056603773585em" y="14.344019171032524em" fill="#aaa"/><rect width="0.9433962264150944em" height="10.556546289988026em" x="59.43396226415094em" y="19.443453710011973em" fill="#aaa"/><rect width="0.9433962264150944em" height="7.417424517134541em" x="60.37735849056604em" y="22.582575482865458em" fill="#aaa"/><rect width="0.9433962264150944em" height="5.403136789899878em" x="61.320754716981135em" y="24.59686321010012em" fill="#aaa"/><rect width="0.9433962264150944em" height="2.640290716604096em" x="62.264150943396224em" y="27.359709283395905em" fill="#aaa"/><rect width="0.9433962264150944em" height="6.300606195172052em" x="63.20754716981132em" y="23.69939380482795em" fill="#aaa"/><rect width="0.9433962264150944em" height="7.473898538689148em" x="64.15094339622641em" y="22.52610146131085em" fill="#aaa"/><rect width="0.9433962264150944em" height="15.012088719155614em" x="65.09433962264151em" y="14.987911280844386em" fill="#aaa"/><rect width="0.9433962264150944em" height="5.291011355886864em" x="66.0377358490566em" y="24.708988644113134em" fill="#aaa"/><rect width="0.9433962264150944em" height="9.023078239267504em" x="66.9811320754717em" y="20.976921760732495em" fill="#aaa"/><rect width="0.9433962264150944em" height="6.26479355955635em" x="67.9245283018868em" y="23.73520644044365em" fill="#aaa"/><rect width="0.9433962264150944em" height="10.273048577309119em" x="68.86792452830188em" y="19.72695142269088em" fill="#aaa"/><rect width="0.9433962264150944em" height="4.865501629726853em" x="69.81132075471699em" y="25.134498370273146em" fill="#aaa"/><rect width="0.9433962264150944em" height="7.962708826738385em" x="70.75471698113208em" y="22.037291173261615em" fill="#aaa"/><rect width="0.9433962264150944em" height="11.279081954655755em" x="71.69811320754717em" y="18.720918045344245em" fill="#aaa"/><rect width="0.9433962264150944em" height="1.9239604693315475em" x="72.64150943396227em" y="28.076039530668453em" fill="#aaa"/><rect width="0.9433962264150944em" height="7.037382710818525em" x="73.58490566037736em" y="22.962617289181473em" fill="#aaa"/><rect width="0.9433962264150944em" height="8.552732071672352em" x="74.52830188679245em" y="21.447267928327648em" fill="#aaa"/><rect width="0.9433962264150944em" height="13.122783982154484em" x="75.47169811320755em" y="16.877216017845516em" fill="#aaa"/><rect width="0.9433962264150944em" height="5.314211517289131em" x="76.41509433962264em" y="24.68578848271087em" fill="#aaa"/><rect width="0.9433962264150944em" height="8.151317282756755em" x="77.35849056603773em" y="21.848682717243243em" fill="#aaa"/><rect width="0.9433962264150944em" height="5.332285960965565em" x="78.30188679245283em" y="24.667714039034436em" fill="#aaa"/><rect width="0.9433962264150944em" height="15.300956905530184em" x="79.24528301886792em" y="14.699043094469816em" fill="#aaa"/><rect width="0.9433962264150944em" height="5.9351271582153515em" x="80.18867924528303em" y="24.06487284178465em" fill="#aaa"/><rect width="0.9433962264150944em" height="6.648398055047443em" x="81.13207547169812em" y="23.351601944952556em" fill="#aaa"/><rect width="0.9433962264150944em" height="8.02488139377442em" x="82.0754716981132em" y="21.97511860622558em" fill="#aaa"/><rect width="0.9433962264150944em" height="9.84622210621569em" x="83.01886792452831em" y="20.15377789378431em" fill="#aaa"/><rect width="0.9433962264150944em" height="9.551161429933254em" x="83.9622641509434em" y="20.448838570066748em" fill="#aaa"/><rect width="0.9433962264150944em" height="9.287934650970529em" x="84.90566037735849em" y="20.712065349029473em" fill="#aaa"/><rect width="0.9433962264150944em" height="15.593963174201097em" x="85.84905660377359em" y="14.406036825798903em" fill="#aaa"/><rect width="0.9433962264150944em" height="15.744923457196952em" x="86.79245283018868em" y="14.255076542803048em" fill="#aaa"/><rect width="0.9433962264150944em" height="8.199881167166719em" x="87.73584905660377em" y="21.80011883283328em" fill="#aaa"/><rect width="0.9433962264150944em" height="7.291272983902778em" x="88.67924528301887em" y="22.70872701609722em" fill="#aaa"/><rect width="0.9433962264150944em" height="5.80227670755999em" x="89.62264150943396em" y="24.19772329244001em" fill="#aaa"/><rect width="0.9433962264150944em" height="9.798291502956747em" x="90.56603773584905em" y="20.201708497043253em" fill="#aaa"/><rect width="0.9433962264150944em" height="8.132882179713878em" x="91.50943396226415em" y="21.867117820286122em" fill="#aaa"/><rect width="0.9433962264150944em" height="10.624532106775986em" x="92.45283018867924em" y="19.375467893224013em" fill="#aaa"/><rect width="0.9433962264150944em" height="8.29917501196342em" x="93.39622641509435em" y="21.70082498803658em" fill="#aaa"/><rect width="0.9433962264150944em" height="6.337944728799576em" x="94.33962264150944em" y="23.662055271200423em" fill="#aaa"/><rect width="0.9433962264150944em" height="5.16595506442805em" x="95.28301886792453em" y="24.83404493557195em" fill="#aaa"/><rect width="0.9433962264150944em" height="9.851845411249126em" x="96.22641509433963em" y="20.148154588750874em" fill="#aaa"/><rect width="0.9433962264150944em" height="4.380428920890582em" x="97.16981132075472em" y="25.61957107910942em" fill="#aaa"/><rect width="0.9433962264150944em" height="30em" x="98.11320754716981em" y="0em" fill="#aaa"/><rect width="0.9433962264150944em" height="8.496540373872243em" x="99.05660377358491em" y="21.503459626127757em" fill="#aaa"/></svg>