<?xml version="1.0" standalone="no"?>
<svg xmlns:xlink="http://www.w3.org/1999/xlink" xmlns="http://www.w3.org/2000/svg" class="topic-graph" style="width: 100em; height: 30em; text-align: center;"><rect width="0.9433962264150944em" height="0.003675405576830159em" x="0em" y="29.99632459442317em" fill="#aaa"/><rect width="0.9433962264150944em" height="0.04314917834582353em" x="0.9433962264150944em" y="29.956850821654175em" fill="#aaa"/><rect width="0.9433962264150944em" height="0.03315038922979532em" x="1.8867924528301887em" y="29.966849610770204em" fill="#aaa"/><rect width="0.9433962264150944em" height="0.00023235455098534073em" x="2.830188679245283em" y="29.999767645449015em" fill="#aaa"/><rect width="0.9433962264150944em" height="0.029015018387390727em" x="3.7735849056603774em" y="29.97098498161261em" fill="#aaa"/><rect width="0.9433962264150944em" height="0.0004413990175033602em" x="4.716981132075472em" y="29.999558600982496em" fill="#aaa"/><rect width="0.9433962264150944em" height="0.059270669109226806em" x="5.660377358490566em" y="29.940729330890772em" fill="#aaa"/><rect width="0.9433962264150944em" height="0.001969810231977357em" x="6.60377358490566em" y="29.998030189768023em" fill="#aaa"/><rect width="0.9433962264150944em" height="0.09784435107798427em" x="7.547169811320755em" y="29.902155648922015em" fill="#aaa"/><rect width="0.9433962264150944em" height="0.0402771311529942em" x="8.49056603773585em" y="29.959722868847006em" fill="#aaa"/><rect width="0.9433962264150944em" height="0.001137133303836767em" x="9.433962264150944em" y="29.998862866696165em" fill="#aaa"/><rect width="0.9433962264150944em" height="0.014988303244742825em" x="10.377358490566039em" y="29.985011696755258em" fill="#aaa"/><rect width="0.9433962264150944em" height="0.04792514728546481em" x="11.320754716981131em" y="29.952074852714535em" fill="#aaa"/><rect width="0.9433962264150944em" height="0em" x="12.264150943396226em" y="30em" fill="#aaa"/><rect width="0.9433962264150944em" height="0.008864940087480245em" x="13.20754716981132em" y="29.99113505991252em" fill="#aaa"/><rect width="0.9433962264150944em" height="0.001540888860131215em" x="14.150943396226415em" y="29.99845911113987em" fill="#aaa"/><rect width="0.9433962264150944em" height="0.011928637495618406em" x="15.09433962264151em" y="29.98807136250438em" fill="#aaa"/><rect width="0.9433962264150944em" height="0.0067030363692948585em" x="16.037735849056602em" y="29.993296963630705em" fill="#aaa"/><rect width="0.9433962264150944em" height="0.015093454067978886em" x="16.9811320754717em" y="29.98490654593202em" fill="#aaa"/><rect width="0.9433962264150944em" height="0.11668576050079413em" x="17.92452830188679em" y="29.883314239499207em" fill="#aaa"/><rect width="0.9433962264150944em" height="0.018009902784037198em" x="18.867924528301888em" y="29.981990097215963em" fill="#aaa"/><rect width="0.9433962264150944em" height="0.10575951265910413em" x="19.81132075471698em" y="29.894240487340895em" fill="#aaa"/><rect width="0.9433962264150944em" height="0.044130727259205624em" x="20.754716981132077em" y="29.955869272740795em" fill="#aaa"/><rect width="0.9433962264150944em" height="0.015770408769193466em" x="21.69811320754717em" y="29.984229591230807em" fill="#aaa"/><rect width="0.9433962264150944em" height="0.029363620142685756em" x="22.641509433962263em" y="29.970636379857314em" fill="#aaa"/><rect width="0.9433962264150944em" height="0.023571667521875228em" x="23.58490566037736em" y="29.976428332478125em" fill="#aaa"/><rect width="0.9433962264150944em" height="0em" x="24.528301886792452em" y="30em" fill="#aaa"/><rect width="0.9433962264150944em" height="0.2185774264575896em" x="25.471698113207548em" y="29.78142257354241em" fill="#aaa"/><rect width="0.9433962264150944em" height="0.09510245022684667em" x="26.41509433962264em" y="29.904897549773153em" fill="#aaa"/><rect width="0.9433962264150944em" height="0.07383144853542453em" x="27.358490566037737em" y="29.926168551464574em" fill="#aaa"/><rect width="0.9433962264150944em" height="0.13135561454792508em" x="28.30188679245283em" y="29.868644385452075em" fill="#aaa"/><rect width="0.9433962264150944em" height="0.07660062333528002em" x="29.245283018867926em" y="29.92339937666472em" fill="#aaa"/><rect width="0.9433962264150944em" height="0.049476495615491195em" x="30.18867924528302em" y="29.95052350438451em" fill="#aaa"/><rect width="0.9433962264150944em" height="0.1870956617878982em" x="31.132075471698112em" y="29.812904338212103em" fill="#aaa"/><rect width="0.9433962264150944em" height="0.06312616120900966em" x="32.075471698113205em" y="29.93687383879099em" fill="#aaa"/><rect width="0.9433962264150944em" height="0.044956529347017646em" x="33.0188679245283em" y="29.95504347065298em" fill="#aaa"/><rect width="0.9433962264150944em" height="0.06308457892740552em" x="33.9622641509434em" y="29.936915421072595em" fill="#aaa"/><rect width="0.9433962264150944em" height="0.045126252174296624em" x="34.905660377358494em" y="29.954873747825705em" fill="#aaa"/><rect width="0.9433962264150944em" height="0.1822517231592277em" x="35.84905660377358em" y="29.81774827684077em" fill="#aaa"/><rect width="0.9433962264150944em" height="0.06368648956070955em" x="36.79245283018868em" y="29.93631351043929em" fill="#aaa"/><rect width="0.9433962264150944em" height="0.09748702670801836em" x="37.735849056603776em" y="29.90251297329198em" fill="#aaa"/><rect width="0.9433962264150944em" height="0.05491824830051795em" x="38.679245283018865em" y="29.945081751699483em" fill="#aaa"/><rect width="0.9433962264150944em" height="0.1558201088352299em" x="39.62264150943396em" y="29.84417989116477em" fill="#aaa"/><rect width="0.9433962264150944em" height="0.36034934910559185em" x="40.56603773584906em" y="29.639650650894406em" fill="#aaa"/><rect width="0.9433962264150944em" height="0.2056637182146905em" x="41.509433962264154em" y="29.79433628178531em" fill="#aaa"/><rect width="0.9433962264150944em" height="0.20340265901739304em" x="42.45283018867924em" y="29.796597340982608em" fill="#aaa"/><rect width="0.9433962264150944em" height="0.24849463129679175em" x="43.39622641509434em" y="29.751505368703206em" fill="#aaa"/><rect width="0.9433962264150944em" height="0.1608536654568725em" x="44.339622641509436em" y="29.839146334543127em" fill="#aaa"/><rect width="0.9433962264150944em" height="0.1282671330664919em" x="45.283018867924525em" y="29.87173286693351em" fill="#aaa"/><rect width="0.9433962264150944em" height="0.28464382432225516em" x="46.22641509433962em" y="29.715356175677744em" fill="#aaa"/><rect width="0.9433962264150944em" height="0.09805083058080771em" x="47.16981132075472em" y="29.901949169419193em" fill="#aaa"/><rect width="0.9433962264150944em" height="0.04588154071656651em" x="48.113207547169814em" y="29.954118459283432em" fill="#aaa"/><rect width="0.9433962264150944em" height="0.023625773663298565em" x="49.056603773584904em" y="29.976374226336702em" fill="#aaa"/><rect width="0.9433962264150944em" height="0.044648127518618214em" x="50em" y="29.955351872481383em" fill="#aaa"/><rect width="0.9433962264150944em" height="0.024524904193620422em" x="50.943396226415096em" y="29.97547509580638em" fill="#aaa"/><rect width="0.9433962264150944em" height="0.08883787827027972em" x="51.88679245283019em" y="29.91116212172972em" fill="#aaa"/><rect width="0.9433962264150944em" height="0.03655867447271237em" x="52.83018867924528em" y="29.96344132552729em" fill="#aaa"/><rect width="0.9433962264150944em" height="0.07478208548937844em" x="53.77358490566038em" y="29.925217914510622em" fill="#aaa"/><rect width="0.9433962264150944em" height="0.02675999904221691em" x="54.716981132075475em" y="29.973240000957784em" fill="#aaa"/><rect width="0.9433962264150944em" height="0.09113091033677621em" x="55.660377358490564em" y="29.908869089663224em" fill="#aaa"/><rect width="0.9433962264150944em" height="0.11687233747465375em" x="56.60377358490566em" y="29.883127662525347em" fill="#aaa"/><rect width="0.9433962264150944em" height="0.11622108633311028em" x="57.54716981132076em" y="29.88377891366689em" fill="#aaa"/><rect width="0.9433962264150944em" height="0.16004134936580983em" x="58.49056603773585em" y="29.83995865063419em" fill="#aaa"/><rect width="0.9433962264150944em" height="0.18357655390470393em" x="59.43396226415094em" y="29.816423446095296em" fill="#aaa"/><rect width="0.9433962264150944em" height="0.09616392812931181em" x="60.37735849056604em" y="29.90383607187069em" fill="#aaa"/><rect width="0.9433962264150944em" height="0.023991174367491944em" x="61.320754716981135em" y="29.97600882563251em" fill="#aaa"/><rect width="0.9433962264150944em" height="0.16990063722997337em" x="62.264150943396224em" y="29.830099362770028em" fill="#aaa"/><rect width="0.9433962264150944em" height="0.9206203942812924em" x="63.20754716981132em" y="29.079379605718707em" fill="#aaa"/><rect width="0.9433962264150944em" height="0.03435633262732561em" x="64.15094339622641em" y="29.965643667372674em" fill="#aaa"/><rect width="0.9433962264150944em" height="0.07652782589086723em" x="65.09433962264151em" y="29.923472174109133em" fill="#aaa"/><rect width="0.9433962264150944em" height="0.034490205889141784em" x="66.0377358490566em" y="29.965509794110858em" fill="#aaa"/><rect width="0.9433962264150944em" height="0.0201009996571023em" x="66.9811320754717em" y="29.979899000342897em" fill="#aaa"/><rect width="0.9433962264150944em" height="0.18974683876444412em" x="67.9245283018868em" y="29.810253161235554em" fill="#aaa"/><rect width="0.9433962264150944em" height="0.15148588305379976em" x="68.86792452830188em" y="29.848514116946202em" fill="#aaa"/><rect width="0.9433962264150944em" height="0.14685054597727862em" x="69.81132075471699em" y="29.85314945402272em" fill="#aaa"/><rect width="0.9433962264150944em" height="0.33091377997942384em" x="70.75471698113208em" y="29.669086220020578em" fill="#aaa"/><rect width="0.9433962264150944em" height="0.17625639565832593em" x="71.69811320754717em" y="29.823743604341676em" fill="#aaa"/><rect width="0.9433962264150944em" height="0.1458282752933116em" x="72.64150943396227em" y="29.85417172470669em" fill="#aaa"/><rect width="0.9433962264150944em" height="30em" x="73.58490566037736em" y="0em" fill="#aaa"/><rect width="0.9433962264150944em" height="3.8123812832303265em" x="74.52830188679245em" y="26.187618716769673em" fill="#aaa"/><rect width="0.9433962264150944em" height="0.2743132227828281em" x="75.47169811320755em" y="29.72568677721717em" fill="#aaa"/><rect width="0.9433962264150944em" height="1.5082615925669958em" x="76.41509433962264em" y="28.491738407433004em" fill="#aaa"/><rect width="0.9433962264150944em" height="0.059503318108494685em" x="77.35849056603773em" y="29.940496681891506em" fill="#aaa"/><rect width="0.9433962264150944em" height="0.14777446055781737em" x="78.30188679245283em" y="29.852225539442184em" fill="#aaa"/><rect width="0.9433962264150944em" height="0.19710159035511443em" x="79.24528301886792em" y="29.802898409644886em" fill="#aaa"/><rect width="0.9433962264150944em" height="0.1339758381366259em" x="80.18867924528303em" y="29.866024161863375em" fill="#aaa"/><rect width="0.9433962264150944em" height="0.1278097446383948em" x="81.13207547169812em" y="29.872190255361605em" fill="#aaa"/><rect width="0.9433962264150944em" height="0.2119142270236121em" x="82.0754716981132em" y="29.788085772976387em" fill="#aaa"/><rect width="0.9433962264150944em" height="0.15218008338901823em" x="83.01886792452831em" y="29.84781991661098em" fill="#aaa"/><rect width="0.9433962264150944em" height="0.1357673105394638em" x="83.9622641509434em" y="29.864232689460536em" fill="#aaa"/><rect width="0.9433962264150944em" height="0.0140051339835746em" x="84.90566037735849em" y="29.985994866016426em" fill="#aaa"/><rect width="0.9433962264150944em" height="0.08096369866347493em" x="85.84905660377359em" y="29.919036301336526em" fill="#aaa"/><rect width="0.9433962264150944em" height="0.10438397192178875em" x="86.79245283018868em" y="29.895616028078212em" fill="#aaa"/><rect width="0.9433962264150944em" height="0.3395684891398327em" x="87.73584905660377em" y="29.660431510860167em" fill="#aaa"/><rect width="0.9433962264150944em" height="0.13085901808917672em" x="88.67924528301887em" y="29.869140981910824em" fill="#aaa"/><rect width="0.9433962264150944em" height="0.12461013850026384em" x="89.62264150943396em" y="29.875389861499738em" fill="#aaa"/><rect width="0.9433962264150944em" height="0.05623598382146255em" x="90.56603773584905em" y="29.943764016178537em" fill="#aaa"/><rect width="0.9433962264150944em" height="0.19156638631018164em" x="91.50943396226415em" y="29.808433613689818em" fill="#aaa"/><rect width="0.9433962264150944em" height="0.07496577123955814em" x="92.45283018867924em" y="29.925034228760442em" fill="#aaa"/><rect width="0.9433962264150944em" height="0.1641431742052384em" x="93.39622641509435em" y="29.83585682579476em" fill="#aaa"/><rect width="0.9433962264150944em" height="0.004058883805490396em" x="94.33962264150944em" y="29.99594111619451em" fill="#aaa"/><rect width="0.9433962264150944em" height="0.08416776512428116em" x="95.28301886792453em" y="29.91583223487572em" fill="#aaa"/><rect width="0.9433962264150944em" height="0.009503948334662737em" x="96.22641509433963em" y="29.99049605166534em" fill="#aaa"/><rect width="0.9433962264150944em" height="0.0899553550807472em" x="97.16981132075472em" y="29.910044644919253em" fill="#aaa"/><rect width="0.9433962264150944em" height="0.15720227750722432em" x="98.11320754716981em" y="29.842797722492776em" fill="#aaa"/><rect width="0.9433962264150944em" height="0.025601856633547086em" x="99.05660377358491em" y="29.974398143366454em" fill="#aaa"/></svg>