<?xml version="1.0" standalone="no"?>
<svg xmlns:xlink="http://www.w3.org/1999/xlink" xmlns="http://www.w3.org/2000/svg" class="topic-graph" style="width: 100em; height: 30em; text-align: center;"><rect width="0.9433962264150944em" height="23.06851585863722em" x="0em" y="6.93148414136278em" fill="#aaa"/><rect width="0.9433962264150944em" height="12.10441247918112em" x="0.9433962264150944em" y="17.89558752081888em" fill="#aaa"/><rect width="0.9433962264150944em" height="6.153533757772467em" x="1.8867924528301887em" y="23.84646624222753em" fill="#aaa"/><rect width="0.9433962264150944em" height="11.097851531060876em" x="2.830188679245283em" y="18.902148468939124em" fill="#aaa"/><rect width="0.9433962264150944em" height="5.4677391605212184em" x="3.7735849056603774em" y="24.53226083947878em" fill="#aaa"/><rect width="0.9433962264150944em" height="2.3077824814619095em" x="4.716981132075472em" y="27.69221751853809em" fill="#aaa"/><rect width="0.9433962264150944em" height="4.220140952353094em" x="5.660377358490566em" y="25.779859047646905em" fill="#aaa"/><rect width="0.9433962264150944em" height="6.413381395382703em" x="6.60377358490566em" y="23.586618604617296em" fill="#aaa"/><rect width="0.9433962264150944em" height="6.711555561893498em" x="7.547169811320755em" y="23.288444438106502em" fill="#aaa"/><rect width="0.9433962264150944em" height="5.078868311586469em" x="8.49056603773585em" y="24.92113168841353em" fill="#aaa"/><rect width="0.9433962264150944em" height="1.7129081811065086em" x="9.433962264150944em" y="28.28709181889349em" fill="#aaa"/><rect width="0.9433962264150944em" height="0.9606055234706365em" x="10.377358490566039em" y="29.039394476529363em" fill="#aaa"/><rect width="0.9433962264150944em" height="8.319041469477204em" x="11.320754716981131em" y="21.680958530522794em" fill="#aaa"/><rect width="0.9433962264150944em" height="0em" x="12.264150943396226em" y="30em" fill="#aaa"/><rect width="0.9433962264150944em" height="5.874093731833472em" x="13.20754716981132em" y="24.125906268166528em" fill="#aaa"/><rect width="0.9433962264150944em" height="5.2630479547834526em" x="14.150943396226415em" y="24.736952045216547em" fill="#aaa"/><rect width="0.9433962264150944em" height="10.209678449736126em" x="15.09433962264151em" y="19.790321550263876em" fill="#aaa"/><rect width="0.9433962264150944em" height="4.072890785540653em" x="16.037735849056602em" y="25.927109214459346em" fill="#aaa"/><rect width="0.9433962264150944em" height="8.399813308742607em" x="16.9811320754717em" y="21.60018669125739em" fill="#aaa"/><rect width="0.9433962264150944em" height="9.694066360191611em" x="17.92452830188679em" y="20.305933639808387em" fill="#aaa"/><rect width="0.9433962264150944em" height="8.343496022655636em" x="18.867924528301888em" y="21.656503977344364em" fill="#aaa"/><rect width="0.9433962264150944em" height="6.802302420533593em" x="19.81132075471698em" y="23.197697579466407em" fill="#aaa"/><rect width="0.9433962264150944em" height="6.071939637892768em" x="20.754716981132077em" y="23.92806036210723em" fill="#aaa"/><rect width="0.9433962264150944em" height="8.747222725894066em" x="21.69811320754717em" y="21.252777274105934em" fill="#aaa"/><rect width="0.9433962264150944em" height="8.44856371648333em" x="22.641509433962263em" y="21.551436283516672em" fill="#aaa"/><rect width="0.9433962264150944em" height="5.576564844856124em" x="23.58490566037736em" y="24.423435155143878em" fill="#aaa"/><rect width="0.9433962264150944em" height="0em" x="24.528301886792452em" y="30em" fill="#aaa"/><rect width="0.9433962264150944em" height="13.05961771347409em" x="25.471698113207548em" y="16.94038228652591em" fill="#aaa"/><rect width="0.9433962264150944em" height="9.5258663715621em" x="26.41509433962264em" y="20.474133628437897em" fill="#aaa"/><rect width="0.9433962264150944em" height="8.086988940646558em" x="27.358490566037737em" y="21.913011059353444em" fill="#aaa"/><rect width="0.9433962264150944em" height="11.509429448045074em" x="28.30188679245283em" y="18.490570551954924em" fill="#aaa"/><rect width="0.9433962264150944em" height="11.679428163347398em" x="29.245283018867926em" y="18.320571836652604em" fill="#aaa"/><rect width="0.9433962264150944em" height="9.692119291000536em" x="30.18867924528302em" y="20.307880708999463em" fill="#aaa"/><rect width="0.9433962264150944em" height="10.416643126906946em" x="31.132075471698112em" y="19.583356873093052em" fill="#aaa"/><rect width="0.9433962264150944em" height="8.791634867082843em" x="32.075471698113205em" y="21.20836513291716em" fill="#aaa"/><rect width="0.9433962264150944em" height="10.421441449133004em" x="33.0188679245283em" y="19.578558550866994em" fill="#aaa"/><rect width="0.9433962264150944em" height="13.958574985827992em" x="33.9622641509434em" y="16.041425014172006em" fill="#aaa"/><rect width="0.9433962264150944em" height="9.649948854913744em" x="34.905660377358494em" y="20.350051145086255em" fill="#aaa"/><rect width="0.9433962264150944em" height="11.77644180430294em" x="35.84905660377358em" y="18.22355819569706em" fill="#aaa"/><rect width="0.9433962264150944em" height="11.535779933534457em" x="36.79245283018868em" y="18.464220066465543em" fill="#aaa"/><rect width="0.9433962264150944em" height="10.931140935301753em" x="37.735849056603776em" y="19.068859064698245em" fill="#aaa"/><rect width="0.9433962264150944em" height="11.202242929262486em" x="38.679245283018865em" y="18.797757070737514em" fill="#aaa"/><rect width="0.9433962264150944em" height="16.7018784700546em" x="39.62264150943396em" y="13.298121529945401em" fill="#aaa"/><rect width="0.9433962264150944em" height="13.686574187003156em" x="40.56603773584906em" y="16.313425812996844em" fill="#aaa"/><rect width="0.9433962264150944em" height="19.62750716068359em" x="41.509433962264154em" y="10.372492839316411em" fill="#aaa"/><rect width="0.9433962264150944em" height="17.257915943889294em" x="42.45283018867924em" y="12.742084056110706em" fill="#aaa"/><rect width="0.9433962264150944em" height="14.759148426927972em" x="43.39622641509434em" y="15.240851573072028em" fill="#aaa"/><rect width="0.9433962264150944em" height="18.80853625645618em" x="44.339622641509436em" y="11.191463743543821em" fill="#aaa"/><rect width="0.9433962264150944em" height="15.000570129372209em" x="45.283018867924525em" y="14.999429870627791em" fill="#aaa"/><rect width="0.9433962264150944em" height="19.45425370138825em" x="46.22641509433962em" y="10.54574629861175em" fill="#aaa"/><rect width="0.9433962264150944em" height="19.488398109234428em" x="47.16981132075472em" y="10.511601890765572em" fill="#aaa"/><rect width="0.9433962264150944em" height="16.340586685269443em" x="48.113207547169814em" y="13.659413314730557em" fill="#aaa"/><rect width="0.9433962264150944em" height="23.609508229626062em" x="49.056603773584904em" y="6.390491770373938em" fill="#aaa"/><rect width="0.9433962264150944em" height="21.481320605391254em" x="50em" y="8.518679394608746em" fill="#aaa"/><rect width="0.9433962264150944em" height="22.301618642706018em" x="50.943396226415096em" y="7.698381357293982em" fill="#aaa"/><rect width="0.9433962264150944em" height="20.556910274583046em" x="51.88679245283019em" y="9.443089725416954em" fill="#aaa"/><rect width="0.9433962264150944em" height="24.412978024890933em" x="52.83018867924528em" y="5.587021975109067em" fill="#aaa"/><rect width="0.9433962264150944em" height="19.833115017396892em" x="53.77358490566038em" y="10.166884982603108em" fill="#aaa"/><rect width="0.9433962264150944em" height="22.299729219549743em" x="54.716981132075475em" y="7.700270780450257em" fill="#aaa"/><rect width="0.9433962264150944em" height="30em" x="55.660377358490564em" y="0em" fill="#aaa"/><rect width="0.9433962264150944em" height="20.04318342627485em" x="56.60377358490566em" y="9.956816573725149em" fill="#aaa"/><rect width="0.9433962264150944em" height="23.455286993523654em" x="57.54716981132076em" y="6.544713006476346em" fill="#aaa"/><rect width="0.9433962264150944em" height="21.737625413126917em" x="58.49056603773585em" y="8.262374586873083em" fill="#aaa"/><rect width="0.9433962264150944em" height="14.250575409765156em" x="59.43396226415094em" y="15.749424590234844em" fill="#aaa"/><rect width="0.9433962264150944em" height="18.005161496900783em" x="60.37735849056604em" y="11.994838503099217em" fill="#aaa"/><rect width="0.9433962264150944em" height="16.64218120465748em" x="61.320754716981135em" y="13.35781879534252em" fill="#aaa"/><rect width="0.9433962264150944em" height="16.322566566373737em" x="62.264150943396224em" y="13.677433433626263em" fill="#aaa"/><rect width="0.9433962264150944em" height="14.010865567684977em" x="63.20754716981132em" y="15.989134432315023em" fill="#aaa"/><rect width="0.9433962264150944em" height="18.952570393089875em" x="64.15094339622641em" y="11.047429606910125em" fill="#aaa"/><rect width="0.9433962264150944em" height="13.953756372203733em" x="65.09433962264151em" y="16.046243627796265em" fill="#aaa"/><rect width="0.9433962264150944em" height="15.58557980090363em" x="66.0377358490566em" y="14.41442019909637em" fill="#aaa"/><rect width="0.9433962264150944em" height="14.57900152220765em" x="66.9811320754717em" y="15.42099847779235em" fill="#aaa"/><rect width="0.9433962264150944em" height="20.891440786369042em" x="67.9245283018868em" y="9.108559213630958em" fill="#aaa"/><rect width="0.9433962264150944em" height="17.348159358116238em" x="68.86792452830188em" y="12.651840641883762em" fill="#aaa"/><rect width="0.9433962264150944em" height="12.405443408226349em" x="69.81132075471699em" y="17.594556591773653em" fill="#aaa"/><rect width="0.9433962264150944em" height="9.63761699794842em" x="70.75471698113208em" y="20.36238300205158em" fill="#aaa"/><rect width="0.9433962264150944em" height="11.737531815445173em" x="71.69811320754717em" y="18.262468184554827em" fill="#aaa"/><rect width="0.9433962264150944em" height="11.390749766686215em" x="72.64150943396227em" y="18.609250233313787em" fill="#aaa"/><rect width="0.9433962264150944em" height="6.525994935248369em" x="73.58490566037736em" y="23.47400506475163em" fill="#aaa"/><rect width="0.9433962264150944em" height="6.716099663294989em" x="74.52830188679245em" y="23.28390033670501em" fill="#aaa"/><rect width="0.9433962264150944em" height="9.315784890041835em" x="75.47169811320755em" y="20.684215109958167em" fill="#aaa"/><rect width="0.9433962264150944em" height="5.5937809490853425em" x="76.41509433962264em" y="24.406219050914657em" fill="#aaa"/><rect width="0.9433962264150944em" height="5.602482852547384em" x="77.35849056603773em" y="24.397517147452618em" fill="#aaa"/><rect width="0.9433962264150944em" height="8.303782356734757em" x="78.30188679245283em" y="21.696217643265243em" fill="#aaa"/><rect width="0.9433962264150944em" height="6.466392272595478em" x="79.24528301886792em" y="23.533607727404522em" fill="#aaa"/><rect width="0.9433962264150944em" height="5.465920259639335em" x="80.18867924528303em" y="24.534079740360667em" fill="#aaa"/><rect width="0.9433962264150944em" height="8.496875760761185em" x="81.13207547169812em" y="21.503124239238815em" fill="#aaa"/><rect width="0.9433962264150944em" height="7.706573971105612em" x="82.0754716981132em" y="22.293426028894388em" fill="#aaa"/><rect width="0.9433962264150944em" height="8.207503857818576em" x="83.01886792452831em" y="21.792496142181424em" fill="#aaa"/><rect width="0.9433962264150944em" height="4.380734636257138em" x="83.9622641509434em" y="25.619265363742862em" fill="#aaa"/><rect width="0.9433962264150944em" height="6.473498664266872em" x="84.90566037735849em" y="23.52650133573313em" fill="#aaa"/><rect width="0.9433962264150944em" height="5.361879273045765em" x="85.84905660377359em" y="24.638120726954234em" fill="#aaa"/><rect width="0.9433962264150944em" height="5.5476319583953195em" x="86.79245283018868em" y="24.45236804160468em" fill="#aaa"/><rect width="0.9433962264150944em" height="5.519805087698108em" x="87.73584905660377em" y="24.48019491230189em" fill="#aaa"/><rect width="0.9433962264150944em" height="4.9701511080336225em" x="88.67924528301887em" y="25.029848891966378em" fill="#aaa"/><rect width="0.9433962264150944em" height="6.6634415588831155em" x="89.62264150943396em" y="23.336558441116885em" fill="#aaa"/><rect width="0.9433962264150944em" height="3.8039072907234734em" x="90.56603773584905em" y="26.196092709276527em" fill="#aaa"/><rect width="0.9433962264150944em" height="5.781420811342886em" x="91.50943396226415em" y="24.218579188657113em" fill="#aaa"/><rect width="0.9433962264150944em" height="4.004410653904654em" x="92.45283018867924em" y="25.995589346095347em" fill="#aaa"/><rect width="0.9433962264150944em" height="4.31207945272952em" x="93.39622641509435em" y="25.68792054727048em" fill="#aaa"/><rect width="0.9433962264150944em" height="4.095799369339898em" x="94.33962264150944em" y="25.904200630660103em" fill="#aaa"/><rect width="0.9433962264150944em" height="3.366756384684505em" x="95.28301886792453em" y="26.633243615315493em" fill="#aaa"/><rect width="0.9433962264150944em" height="2.553431849047413em" x="96.22641509433963em" y="27.446568150952587em" fill="#aaa"/><rect width="0.9433962264150944em" height="3.3081945306559364em" x="97.16981132075472em" y="26.691805469344065em" fill="#aaa"/><rect width="0.9433962264150944em" height="2.3802084731389943em" x="98.11320754716981em" y="27.619791526861007em" fill="#aaa"/><rect width="0.9433962264150944em" height="2.3367851821610564em" x="99.05660377358491em" y="27.663214817838945em" fill="#aaa"/></svg>